<svg width="500" height="500" viewBox="0 0 500 500" fill="none" xmlns="http://www.w3.org/2000/svg">
<g clip-path="url(#clip0_73_2)">
<path d="M500 -0.999023H0V500.833H500V-0.999023Z" fill="#E8E8E8"/>
<path d="M359.724 364.236C424.151 299.809 424.151 195.352 359.724 130.924C295.297 66.4971 190.839 66.4971 126.412 130.924C61.9847 195.352 61.9847 299.809 126.412 364.236C190.839 428.664 295.297 428.664 359.724 364.236Z" stroke="#1A1A1A" stroke-width="2" stroke-miterlimit="10" stroke-dasharray="12.05 12.05"/>
<path d="M300.139 148.451H193.621C187.713 148.451 182.88 143.617 182.88 137.71V62.5208C182.88 56.6128 187.714 51.7798 193.621 51.7798H300.139C306.047 51.7798 310.88 56.6138 310.88 62.5208V137.71C310.88 143.617 306.046 148.451 300.139 148.451Z" fill="white" stroke="#1A1A1A" stroke-width="1.7902" stroke-miterlimit="10"/>
<path d="M297.929 139.5H195.831C193.139 139.5 190.936 137.297 190.936 134.605V73.6819C190.936 70.9899 193.139 68.7869 195.831 68.7869H297.929C300.621 68.7869 302.824 70.9899 302.824 73.6819V134.605C302.824 137.297 300.621 139.5 297.929 139.5Z" fill="#B3B3B3" stroke="#1A1A1A" stroke-width="1.7902" stroke-miterlimit="10"/>
<path d="M245.985 130.548C260.074 130.548 271.495 119.127 271.495 105.038C271.495 90.949 260.074 79.5278 245.985 79.5278C231.896 79.5278 220.475 90.949 220.475 105.038C220.475 119.127 231.896 130.548 245.985 130.548Z" fill="white" stroke="#1A1A1A" stroke-width="1.7902" stroke-miterlimit="10"/>
<path d="M199.929 61.4137C199.929 63.6497 198.116 65.4627 195.88 65.4627C193.644 65.4627 191.831 63.6497 191.831 61.4137C191.831 59.1777 193.644 57.3647 195.88 57.3647C198.117 57.3637 199.929 59.1767 199.929 61.4137Z" fill="#D42666" stroke="#1A1A1A" stroke-width="1.7902" stroke-miterlimit="10"/>
<path d="M212.887 61.4137C212.887 63.6497 211.074 65.4627 208.838 65.4627C206.602 65.4627 204.789 63.6497 204.789 61.4137C204.789 59.1777 206.602 57.3647 208.838 57.3647C211.074 57.3637 212.887 59.1767 212.887 61.4137Z" fill="#FFCA7A" stroke="#1A1A1A" stroke-width="1.7902" stroke-miterlimit="10"/>
<path d="M225.845 61.4137C225.845 63.6497 224.032 65.4627 221.796 65.4627C219.56 65.4627 217.747 63.6497 217.747 61.4137C217.747 59.1777 219.56 57.3647 221.796 57.3647C224.032 57.3637 225.845 59.1767 225.845 61.4137Z" fill="#22B573" stroke="#1A1A1A" stroke-width="1.7902" stroke-miterlimit="10"/>
<path d="M232.558 116.652V93.6787C232.558 91.1057 235.3 89.4607 237.57 90.6717L260.542 102.925C263.021 104.247 262.925 107.833 260.379 109.021L237.407 119.74C235.148 120.795 232.558 119.145 232.558 116.652Z" fill="#D42666" stroke="#1A1A1A" stroke-width="1.7902" stroke-miterlimit="10"/>
<path d="M419.945 137.759H415.548C413.744 137.759 412.269 136.283 412.269 134.48V113.786C412.269 111.983 413.745 110.507 415.548 110.507H419.945C421.749 110.507 423.224 111.983 423.224 113.786V134.48C423.224 136.283 421.748 137.759 419.945 137.759Z" fill="#D42666" stroke="#1A1A1A" stroke-width="2" stroke-miterlimit="10"/>
<path d="M370.924 139.626H354.04C352.747 139.626 351.7 138.578 351.7 137.286V114.414C351.7 113.122 352.748 112.074 354.04 112.074H370.924C372.216 112.074 373.264 113.122 373.264 114.414V137.286C373.264 138.579 372.216 139.626 370.924 139.626Z" fill="#FFD666" stroke="#1A1A1A" stroke-width="2" stroke-miterlimit="10"/>
<path d="M405.61 92.73L373.264 112.074V138.712L405.61 156.788V92.73Z" fill="white" stroke="#1A1A1A" stroke-width="2" stroke-miterlimit="10"/>
<path d="M411.001 162.179C408.036 162.179 405.61 159.753 405.61 156.788V92.7299C405.61 89.7649 408.036 87.3389 411.001 87.3389C413.966 87.3389 416.392 89.7649 416.392 92.7299V156.788C416.392 159.753 413.966 162.179 411.001 162.179Z" fill="#9ACFF5" stroke="#1A1A1A" stroke-width="2" stroke-miterlimit="10"/>
<path d="M352.176 166.644H349.501C347.528 166.644 345.915 165.03 345.915 163.058V112.867C345.915 110.894 347.529 109.281 349.501 109.281H352.176C354.149 109.281 355.762 110.895 355.762 112.867V163.058C355.763 165.03 354.149 166.644 352.176 166.644Z" fill="white" stroke="#1A1A1A" stroke-width="2" stroke-miterlimit="10"/>
<path d="M436.276 135.953L458.303 146.016C459.289 146.467 459.727 147.642 459.277 148.628C458.826 149.614 457.651 150.052 456.665 149.602L434.638 139.539C433.652 139.089 433.214 137.913 433.664 136.927C434.115 135.941 435.29 135.503 436.276 135.953Z" fill="#1A1A1A"/>
<path d="M436.808 123.371L461.025 123.375C462.109 123.375 462.996 124.262 462.996 125.346C462.996 126.43 462.109 127.317 461.025 127.317L436.808 127.313C435.724 127.313 434.837 126.426 434.837 125.342C434.836 124.258 435.724 123.371 436.808 123.371Z" fill="#1A1A1A"/>
<path d="M435.119 111.417L456.619 100.272C457.581 99.773 458.777 100.152 459.276 101.115C459.775 102.077 459.396 103.273 458.433 103.772L436.933 114.917C435.971 115.416 434.775 115.037 434.276 114.074C433.777 113.111 434.156 111.915 435.119 111.417Z" fill="#1A1A1A"/>
<path d="M409.585 329.811C409.585 316.482 398.59 305.721 385.176 306.102C373.004 306.448 362.922 316.194 362.192 328.349C361.818 334.583 363.856 340.333 367.458 344.76C370.406 348.383 372.084 352.871 372.084 357.542V358.016C372.084 362.247 375.546 365.709 379.777 365.709H391.957C396.188 365.709 399.65 362.247 399.65 358.016V357.545C399.65 352.843 401.378 348.348 404.333 344.69C407.616 340.623 409.585 335.448 409.585 329.811Z" fill="#FFD666" stroke="#1A1A1A" stroke-width="2" stroke-miterlimit="10"/>
<path d="M399.969 321.05C399.969 324.118 397.482 326.606 394.413 326.606C391.345 326.606 388.857 324.119 388.857 321.05C388.857 317.982 391.344 315.494 394.413 315.494C397.482 315.495 399.969 317.982 399.969 321.05Z" fill="white" stroke="#1A1A1A" stroke-width="2" stroke-miterlimit="10"/>
<path d="M379.256 358.974L373.035 332.534L376.379 335.321C378.408 337.012 381.418 336.768 383.148 334.771L385.865 332.534L388.57 335.812C390.355 337.492 393.114 337.575 394.997 336.006L398.697 332.923L392.477 358.975" stroke="#333333" stroke-width="2" stroke-miterlimit="10" stroke-linecap="round" stroke-linejoin="round"/>
<path d="M391.219 379.171H380.512C378.521 379.171 376.892 377.542 376.892 375.551C376.892 373.56 378.521 371.931 380.512 371.931H391.219C393.21 371.931 394.839 373.56 394.839 375.551C394.839 377.542 393.21 379.171 391.219 379.171Z" fill="#B3B3B3" stroke="#1A1A1A" stroke-width="1.7902" stroke-miterlimit="10"/>
<path d="M394.595 373.402H376.508C374.251 373.402 372.404 371.555 372.404 369.298C372.404 367.041 374.251 365.194 376.508 365.194H394.595C396.852 365.194 398.699 367.041 398.699 369.298C398.699 371.556 396.853 373.402 394.595 373.402Z" fill="#B3B3B3" stroke="#1A1A1A" stroke-width="1.7902" stroke-miterlimit="10"/>
<path d="M398.687 366.992H373.045C370.929 366.992 369.199 365.261 369.199 363.146C369.199 361.031 370.93 359.3 373.045 359.3H398.687C400.802 359.3 402.533 361.031 402.533 363.146C402.533 365.261 400.802 366.992 398.687 366.992Z" fill="#B3B3B3" stroke="#1A1A1A" stroke-width="1.7902" stroke-miterlimit="10"/>
<path d="M121.809 256.476C127.409 232.759 112.723 208.994 89.0067 203.393C65.2903 197.793 41.5245 212.48 35.9243 236.196C30.3242 259.912 45.0104 283.678 68.7269 289.278C92.4433 294.878 116.209 280.192 121.809 256.476Z" fill="#9ACFF5" stroke="#1A1A1A" stroke-width="2" stroke-miterlimit="10"/>
<path d="M92.0721 277.579C109.332 270.284 117.41 250.378 110.116 233.118C102.821 215.858 82.915 207.78 65.655 215.075C48.395 222.37 40.3166 242.275 47.6115 259.535C54.9064 276.795 74.8121 284.874 92.0721 277.579Z" fill="white" stroke="#1A1A1A" stroke-width="2" stroke-miterlimit="10"/>
<path d="M87.7935 267.458C99.4635 262.535 104.933 249.083 100.01 237.413C95.0868 225.743 81.6354 220.274 69.9654 225.197C58.2953 230.12 52.8259 243.572 57.749 255.242C62.6721 266.912 76.1234 272.381 87.7935 267.458Z" fill="#FFD666" stroke="#1A1A1A" stroke-width="2" stroke-miterlimit="10"/>
<path d="M88.9954 247.966C89.9022 242.379 86.1082 237.115 80.5214 236.208C74.9346 235.301 69.6706 239.095 68.7639 244.682C67.8572 250.269 71.6511 255.533 77.2379 256.44C82.8247 257.346 88.0887 253.552 88.9954 247.966Z" fill="#D42666" stroke="#1A1A1A" stroke-width="2" stroke-miterlimit="10"/>
<path d="M82.005 244.589L113.041 209.254" stroke="#333333" stroke-width="2" stroke-miterlimit="10" stroke-linecap="round" stroke-linejoin="round"/>
<path d="M83.085 233.63L79.164 246.512L92.18 243.168C93.293 242.896 93.268 241.305 92.147 241.067L85.644 239.689L85.157 233.942C85.062 232.813 83.51 232.578 83.085 233.63Z" fill="#333333"/>
<path d="M109.272 204.411L107.659 214.905L119.227 213.559" stroke="#333333" stroke-width="2" stroke-miterlimit="10" stroke-linecap="round" stroke-linejoin="round"/>
<path d="M114.117 201.182L112.502 210.062L122.458 208.446" stroke="#333333" stroke-width="2" stroke-miterlimit="10" stroke-linecap="round" stroke-linejoin="round"/>
<path d="M80.355 246.32C80.355 247.137 79.692 247.8 78.875 247.8C78.058 247.8 77.395 247.137 77.395 246.32C77.395 245.503 78.058 244.84 78.875 244.84C79.692 244.84 80.355 245.503 80.355 246.32Z" fill="#333333"/>
<path d="M233.984 385.003L199.734 407.003L234.984 428.753" stroke="#1A1A1A" stroke-width="2" stroke-miterlimit="10" stroke-linecap="round" stroke-linejoin="round"/>
<path d="M199.734 417.253C205.395 417.253 209.984 412.664 209.984 407.003C209.984 401.342 205.395 396.753 199.734 396.753C194.073 396.753 189.484 401.342 189.484 407.003C189.484 412.664 194.073 417.253 199.734 417.253Z" fill="#D42666" stroke="#1A1A1A" stroke-width="2" stroke-miterlimit="10"/>
<path d="M233.984 395.253C239.645 395.253 244.234 390.664 244.234 385.003C244.234 379.342 239.645 374.753 233.984 374.753C228.323 374.753 223.734 379.342 223.734 385.003C223.734 390.664 228.323 395.253 233.984 395.253Z" fill="#9ACFF5" stroke="#1A1A1A" stroke-width="2" stroke-miterlimit="10"/>
<path d="M233.984 437.196C239.645 437.196 244.234 432.607 244.234 426.946C244.234 421.285 239.645 416.696 233.984 416.696C228.323 416.696 223.734 421.285 223.734 426.946C223.734 432.607 228.323 437.196 233.984 437.196Z" fill="#FFD666" stroke="#1A1A1A" stroke-width="2" stroke-miterlimit="10"/>
<path d="M434.733 197.631C448.098 197.631 458.932 207.458 458.932 219.579C458.932 222.914 458.108 226.074 456.64 228.905L463.997 238.714L450.563 236.172C446.319 239.506 440.788 241.527 434.733 241.527C421.368 241.527 410.534 231.7 410.534 219.579C410.534 207.458 421.368 197.631 434.733 197.631Z" fill="white" stroke="#1A1A1A" stroke-width="2" stroke-miterlimit="10"/>
<path d="M422.206 217.979C422.206 214.202 425.268 211.14 429.046 211.14C431.287 211.14 433.27 212.223 434.518 213.888C435.765 212.223 437.749 211.14 439.99 211.14C443.767 211.14 446.829 214.201 446.83 217.978C446.831 222.871 439.718 227.328 436.309 230.441C435.549 231.135 434.39 231.149 433.612 230.473C429.884 227.233 422.206 223.645 422.206 217.979Z" fill="#D42666" stroke="#1A1A1A" stroke-width="2" stroke-miterlimit="10"/>
<path d="M405.864 233.184H351.65C347.994 233.184 345.003 236.175 345.003 239.831V265.511C345.003 269.167 347.994 272.158 351.65 272.158H352.295L351.165 282.892L364.046 272.158H405.864C409.52 272.158 412.511 269.167 412.511 265.511V239.831C412.511 236.176 409.52 233.184 405.864 233.184Z" fill="white" stroke="#1A1A1A" stroke-width="2" stroke-miterlimit="10"/>
<path d="M367.079 252.785C367.079 255.116 365.189 257.006 362.858 257.006C360.527 257.006 358.637 255.116 358.637 252.785C358.637 250.454 360.527 248.564 362.858 248.564C365.189 248.564 367.079 250.454 367.079 252.785Z" fill="#9ACFF5" stroke="#1A1A1A" stroke-width="2" stroke-miterlimit="10"/>
<path d="M384.525 252.785C384.525 255.116 382.635 257.006 380.304 257.006C377.973 257.006 376.083 255.116 376.083 252.785C376.083 250.454 377.973 248.564 380.304 248.564C382.636 248.564 384.525 250.454 384.525 252.785Z" fill="#9ACFF5" stroke="#1A1A1A" stroke-width="2" stroke-miterlimit="10"/>
<path d="M400.564 252.785C400.564 255.116 398.674 257.006 396.343 257.006C394.012 257.006 392.122 255.116 392.122 252.785C392.122 250.454 394.012 248.564 396.343 248.564C398.675 248.564 400.564 250.454 400.564 252.785Z" fill="#9ACFF5" stroke="#1A1A1A" stroke-width="2" stroke-miterlimit="10"/>
<path d="M442.317 263.46H438.677V259.82C438.677 259.041 438.04 258.404 437.261 258.404C436.482 258.404 435.845 259.041 435.845 259.82V263.46H432.205C431.426 263.46 430.789 264.097 430.789 264.876C430.789 265.655 431.426 266.292 432.205 266.292H435.845V269.932C435.845 270.711 436.482 271.348 437.261 271.348C438.04 271.348 438.677 270.711 438.677 269.932V266.292H442.317C443.096 266.292 443.733 265.655 443.733 264.876C443.733 264.097 443.096 263.46 442.317 263.46Z" fill="#1A1A1A"/>
<path d="M382.382 215.345H378.741V211.704C378.741 210.925 378.104 210.288 377.325 210.288C376.546 210.288 375.909 210.925 375.909 211.704V215.345H372.269C371.49 215.345 370.853 215.982 370.853 216.761C370.853 217.54 371.49 218.177 372.269 218.177H375.909V221.818C375.909 222.597 376.546 223.234 377.325 223.234C378.104 223.234 378.741 222.597 378.741 221.818V218.177H382.382C383.161 218.177 383.798 217.54 383.798 216.761C383.798 215.982 383.161 215.345 382.382 215.345Z" fill="#1A1A1A"/>
<path d="M129.935 413.006H85.059C82.399 413.006 80.223 410.83 80.223 408.17V333.342C80.223 330.682 82.399 328.506 85.059 328.506H129.935C132.595 328.506 134.771 330.682 134.771 333.342V408.17C134.771 410.829 132.595 413.006 129.935 413.006Z" fill="#B3B3B3" stroke="#1A1A1A" stroke-width="1.7902" stroke-miterlimit="10"/>
<path d="M124.099 397.461H90.894C89.297 397.461 87.99 396.154 87.99 394.556V340.483C87.99 338.886 89.297 337.579 90.894 337.579H124.099C125.696 337.579 127.003 338.886 127.003 340.483V394.556C127.004 396.154 125.697 397.461 124.099 397.461Z" fill="#FFD666" stroke="#1A1A1A" stroke-width="2" stroke-miterlimit="10"/>
<path d="M102.507 333.042H112.487" stroke="#333333" stroke-width="2" stroke-miterlimit="10" stroke-linecap="round" stroke-linejoin="round"/>
<path d="M111.58 405.173C111.58 407.428 109.752 409.256 107.497 409.256C105.242 409.256 103.414 407.428 103.414 405.173C103.414 402.918 105.242 401.09 107.497 401.09C109.752 401.09 111.58 402.918 111.58 405.173Z" fill="white" stroke="#1A1A1A" stroke-width="2" stroke-miterlimit="10"/>
<path d="M338.079 344.672H294.331L277.331 360.672V429.42C277.331 431.759 279.244 433.672 281.583 433.672H338.079C340.418 433.672 342.331 431.759 342.331 429.42V348.924C342.331 346.586 340.417 344.672 338.079 344.672Z" fill="white" stroke="#1A1A1A" stroke-width="2" stroke-miterlimit="10"/>
<path d="M278.331 360.672L294.331 344.672V355.974C294.331 358.568 292.228 360.671 289.634 360.671L278.331 360.672Z" fill="white" stroke="#1A1A1A" stroke-width="2" stroke-miterlimit="10" stroke-linecap="round" stroke-linejoin="round"/>
<path d="M290.997 399.006H328.997" stroke="#1A1A1A" stroke-width="2" stroke-miterlimit="10" stroke-linecap="round" stroke-linejoin="round"/>
<path d="M290.997 409.006H328.997" stroke="#1A1A1A" stroke-width="2" stroke-miterlimit="10" stroke-linecap="round" stroke-linejoin="round"/>
<path d="M290.997 419.672H328.997" stroke="#1A1A1A" stroke-width="2" stroke-miterlimit="10" stroke-linecap="round" stroke-linejoin="round"/>
<path d="M330.025 389.145H291.304C290.586 389.145 289.998 388.557 289.998 387.839V367.312C289.998 366.594 290.586 366.006 291.304 366.006H330.025C330.743 366.006 331.331 366.594 331.331 367.312V387.839C331.331 388.557 330.743 389.145 330.025 389.145Z" fill="#D42666" stroke="#1A1A1A" stroke-width="2" stroke-miterlimit="10"/>
<path d="M134.878 131.081C133.965 119.816 124.541 110.958 113.041 110.958C110.777 110.958 108.594 111.302 106.539 111.939C101.369 103.408 91.997 97.7058 81.293 97.7058C65.001 97.7058 51.793 110.914 51.793 127.206C51.793 128.5 51.885 129.772 52.047 131.022C43.961 132.556 37.793 139.691 37.793 148.206C37.793 157.831 45.668 165.706 55.293 165.706H131.293C140.918 165.706 148.793 157.831 148.793 148.206C148.793 139.809 142.799 132.747 134.878 131.081Z" fill="white" stroke="#1A1A1A" stroke-width="2" stroke-miterlimit="10"/>
<path d="M141.862 143.896C139.9 143.896 138.304 142.3 138.304 140.338V136.895C137.759 136.712 137.229 136.492 136.717 136.236L134.281 138.672C133.611 139.342 132.718 139.711 131.765 139.711C130.812 139.711 129.919 139.342 129.249 138.672L128.726 138.149C127.339 136.762 127.339 134.505 128.726 133.118L131.169 130.675C130.916 130.166 130.698 129.638 130.517 129.094H127.059C125.097 129.094 123.501 127.498 123.501 125.536V124.796C123.501 122.834 125.097 121.238 127.059 121.238H130.516C130.697 120.694 130.915 120.167 131.168 119.657L128.726 117.215C127.339 115.828 127.339 113.57 128.725 112.183L129.249 111.66C129.919 110.99 130.813 110.621 131.765 110.621C132.717 110.621 133.611 110.99 134.281 111.66L136.717 114.096C137.228 113.84 137.759 113.62 138.304 113.437V109.994C138.304 108.032 139.9 106.436 141.862 106.436H142.602C144.564 106.436 146.16 108.032 146.16 109.994V113.423C146.71 113.606 147.246 113.826 147.762 114.082L150.183 111.661C150.853 110.991 151.747 110.622 152.699 110.622C153.651 110.622 154.545 110.991 155.215 111.661L155.738 112.184C157.125 113.571 157.125 115.829 155.739 117.216L153.324 119.631C153.583 120.149 153.806 120.686 153.99 121.239H157.405C159.367 121.239 160.963 122.835 160.963 124.797V125.537C160.963 127.499 159.367 129.095 157.405 129.095H153.99C153.805 129.648 153.583 130.185 153.324 130.703L155.739 133.118C157.126 134.505 157.126 136.762 155.739 138.149L155.216 138.672C154.546 139.342 153.653 139.711 152.7 139.711C151.747 139.711 150.854 139.342 150.184 138.672L147.762 136.25C147.246 136.506 146.711 136.726 146.161 136.909V140.339C146.161 142.301 144.565 143.897 142.603 143.897H141.862V143.896ZM142.252 118.359C138.499 118.359 135.445 121.412 135.445 125.166C135.445 128.919 138.498 131.973 142.252 131.973C146.005 131.973 149.059 128.92 149.059 125.166C149.059 121.412 146.006 118.359 142.252 118.359Z" fill="#FFD666"/>
<path d="M142.602 107.436C144.009 107.436 145.16 108.587 145.16 109.994V114.168C146.147 114.428 147.081 114.814 147.944 115.314L150.89 112.368C151.387 111.871 152.043 111.622 152.699 111.622C153.355 111.622 154.01 111.871 154.508 112.368L155.031 112.891C156.026 113.886 156.026 115.514 155.031 116.508L152.09 119.449C152.593 120.313 152.983 121.249 153.246 122.238H157.405C158.812 122.238 159.963 123.389 159.963 124.796V125.536C159.963 126.943 158.812 128.094 157.405 128.094H153.246C152.983 129.083 152.593 130.018 152.09 130.882L155.032 133.824C156.027 134.819 156.027 136.446 155.032 137.441L154.509 137.964C154.012 138.461 153.356 138.71 152.7 138.71C152.044 138.71 151.389 138.461 150.891 137.964L147.944 135.017C147.081 135.516 146.148 135.902 145.161 136.162V140.337C145.161 141.744 144.01 142.895 142.603 142.895H141.863C140.456 142.895 139.305 141.744 139.305 140.337V136.151C138.323 135.888 137.395 135.501 136.538 135.001L133.575 137.964C133.078 138.461 132.422 138.71 131.766 138.71C131.11 138.71 130.455 138.461 129.957 137.964L129.434 137.441C128.439 136.446 128.439 134.818 129.434 133.824L132.402 130.856C131.906 129.999 131.522 129.073 131.262 128.094H127.061C125.654 128.094 124.503 126.943 124.503 125.536V124.796C124.503 123.389 125.654 122.238 127.061 122.238H131.262C131.522 121.259 131.906 120.332 132.402 119.475L129.435 116.508C128.44 115.513 128.44 113.885 129.435 112.891L129.958 112.368C130.455 111.871 131.111 111.622 131.767 111.622C132.423 111.622 133.078 111.871 133.576 112.368L136.538 115.33C137.396 114.83 138.324 114.442 139.306 114.179V109.994C139.306 108.587 140.457 107.436 141.864 107.436H142.602ZM142.253 132.972C146.564 132.972 150.06 129.477 150.06 125.165C150.06 120.853 146.565 117.358 142.253 117.358C137.941 117.358 134.446 120.853 134.446 125.165C134.446 129.477 137.941 132.972 142.253 132.972ZM142.602 105.436H141.862C139.349 105.436 137.304 107.481 137.304 109.994V112.738C137.178 112.788 137.053 112.84 136.929 112.894L134.988 110.953C134.129 110.094 132.984 109.621 131.765 109.621C130.546 109.621 129.401 110.094 128.542 110.953L128.019 111.476C126.242 113.253 126.242 116.145 128.019 117.922L129.968 119.871C129.916 119.993 129.865 120.115 129.817 120.238H127.06C124.547 120.238 122.502 122.283 122.502 124.796V125.536C122.502 128.049 124.547 130.094 127.06 130.094H129.818C129.867 130.217 129.917 130.339 129.969 130.461L128.02 132.411C127.161 133.27 126.688 134.414 126.688 135.634C126.688 136.853 127.161 137.998 128.02 138.857L128.543 139.38C129.402 140.239 130.546 140.712 131.766 140.712C132.985 140.712 134.13 140.239 134.989 139.38L136.931 137.438C137.055 137.492 137.18 137.543 137.306 137.593V140.338C137.306 142.851 139.351 144.896 141.864 144.896H142.604C145.117 144.896 147.162 142.851 147.162 140.338V137.609C147.292 137.558 147.421 137.505 147.549 137.45L149.478 139.379C150.337 140.238 151.481 140.711 152.701 140.711C153.921 140.711 155.065 140.238 155.924 139.379L156.447 138.856C157.306 137.997 157.779 136.853 157.779 135.633C157.779 134.414 157.306 133.269 156.447 132.41L154.527 130.489C154.584 130.358 154.638 130.226 154.691 130.093H157.407C159.92 130.093 161.965 128.048 161.965 125.535V124.795C161.965 122.282 159.92 120.237 157.407 120.237H154.692C154.639 120.104 154.585 119.972 154.528 119.841L156.448 117.921C157.307 117.062 157.78 115.918 157.78 114.698C157.78 113.479 157.307 112.334 156.448 111.475L155.924 110.952C155.065 110.093 153.921 109.62 152.701 109.62C151.481 109.62 150.337 110.093 149.478 110.952L147.55 112.88C147.422 112.825 147.292 112.772 147.162 112.72V109.992C147.16 107.48 145.115 105.436 142.602 105.436ZM142.253 130.972C139.051 130.972 136.446 128.367 136.446 125.165C136.446 121.963 139.051 119.358 142.253 119.358C145.455 119.358 148.06 121.963 148.06 125.165C148.06 128.367 145.454 130.972 142.253 130.972Z" fill="#1A1A1A"/>
<path d="M107.313 151.258C105.896 151.258 104.744 150.106 104.744 148.689V146.606C104.489 146.514 104.239 146.411 103.995 146.295L102.521 147.768C102.037 148.252 101.392 148.519 100.704 148.519C100.016 148.519 99.3711 148.252 98.8871 147.768L98.5441 147.425C98.0611 146.942 97.7931 146.297 97.7931 145.609C97.7931 144.921 98.0601 144.276 98.5441 143.792L100.022 142.313C99.9081 142.071 99.8061 141.822 99.7151 141.568H97.6231C96.2061 141.568 95.0541 140.416 95.0541 138.999V138.514C95.0541 137.097 96.2061 135.945 97.6231 135.945H99.7151C99.8051 135.691 99.9081 135.443 100.022 135.2L98.5441 133.722C98.0601 133.238 97.7931 132.593 97.7931 131.905C97.7931 131.217 98.0601 130.572 98.5441 130.088L98.8861 129.746C99.3701 129.262 100.015 128.995 100.703 128.995C101.391 128.995 102.036 129.262 102.52 129.746L103.993 131.219C104.237 131.103 104.487 130.999 104.743 130.907V128.825C104.743 127.408 105.895 126.255 107.312 126.255H107.797C109.214 126.255 110.366 127.408 110.366 128.825V130.898C110.625 130.99 110.878 131.094 111.125 131.21L112.589 129.746C113.072 129.262 113.718 128.995 114.406 128.995C115.094 128.995 115.739 129.262 116.223 129.746L116.565 130.088C117.05 130.572 117.316 131.218 117.316 131.905C117.316 132.592 117.049 133.238 116.565 133.722L115.106 135.182C115.224 135.431 115.33 135.685 115.422 135.946H117.486C118.903 135.946 120.055 137.098 120.055 138.515V139C120.055 140.417 118.903 141.569 117.486 141.569H115.422C115.329 141.829 115.224 142.084 115.106 142.332L116.565 143.792C117.049 144.276 117.316 144.921 117.316 145.609C117.316 146.297 117.049 146.942 116.565 147.426L116.222 147.768C115.739 148.252 115.093 148.519 114.406 148.519C113.718 148.519 113.072 148.252 112.589 147.768L111.125 146.304C110.878 146.42 110.625 146.524 110.367 146.616V148.689C110.367 150.106 109.215 151.258 107.798 151.258H107.313ZM107.568 134.541C105.244 134.541 103.353 136.432 103.353 138.756C103.353 141.08 105.244 142.971 107.568 142.971C109.892 142.971 111.783 141.08 111.783 138.756C111.784 136.432 109.893 134.541 107.568 134.541Z" fill="#B3B3B3"/>
<path d="M107.797 127.15C108.718 127.15 109.471 127.904 109.471 128.824V131.556C110.117 131.727 110.728 131.979 111.293 132.306L113.222 130.377C113.548 130.051 113.977 129.889 114.406 129.889C114.835 129.889 115.264 130.052 115.59 130.377L115.933 130.72C116.584 131.371 116.584 132.437 115.933 133.088L114.008 135.013C114.337 135.579 114.592 136.191 114.765 136.839H117.488C118.409 136.839 119.162 137.592 119.162 138.513V138.997C119.162 139.918 118.409 140.671 117.488 140.671H114.765C114.593 141.319 114.338 141.931 114.008 142.496L115.934 144.422C116.585 145.073 116.585 146.139 115.934 146.79L115.591 147.133C115.265 147.459 114.836 147.621 114.407 147.621C113.978 147.621 113.549 147.458 113.223 147.133L111.294 145.204C110.729 145.531 110.118 145.783 109.472 145.954V148.687C109.472 149.608 108.719 150.361 107.798 150.361H107.314C106.393 150.361 105.64 149.607 105.64 148.687V145.947C104.997 145.775 104.39 145.521 103.828 145.194L101.889 147.133C101.563 147.459 101.134 147.621 100.705 147.621C100.276 147.621 99.847 147.458 99.521 147.133L99.178 146.79C98.527 146.139 98.527 145.073 99.178 144.422L101.121 142.479C100.796 141.918 100.545 141.312 100.375 140.671H97.625C96.704 140.671 95.951 139.917 95.951 138.997V138.513C95.951 137.592 96.704 136.839 97.625 136.839H100.375C100.545 136.198 100.797 135.591 101.121 135.03L99.178 133.088C98.527 132.437 98.527 131.371 99.178 130.72L99.521 130.377C99.847 130.051 100.276 129.889 100.705 129.889C101.134 129.889 101.563 130.052 101.889 130.377L103.828 132.316C104.39 131.989 104.997 131.735 105.64 131.563V128.823C105.64 127.902 106.393 127.149 107.314 127.149L107.797 127.15ZM107.568 143.866C110.39 143.866 112.678 141.578 112.678 138.756C112.678 135.934 110.39 133.646 107.568 133.646C104.746 133.646 102.458 135.934 102.458 138.756C102.458 141.578 104.746 143.866 107.568 143.866ZM107.797 125.36H107.313C105.403 125.36 103.848 126.914 103.848 128.825V129.808L103.153 129.113C102.5 128.46 101.63 128.1 100.703 128.1C99.776 128.1 98.906 128.46 98.253 129.113L97.91 129.455C97.257 130.108 96.897 130.978 96.897 131.905C96.897 132.832 97.257 133.702 97.91 134.355L98.605 135.05H97.622C95.712 135.05 94.157 136.604 94.157 138.515V138.999C94.157 140.909 95.711 142.464 97.622 142.464H98.605L97.91 143.159C97.257 143.812 96.897 144.682 96.897 145.609C96.897 146.536 97.257 147.406 97.91 148.059L98.253 148.402C98.906 149.055 99.776 149.415 100.703 149.415C101.63 149.415 102.5 149.055 103.153 148.402L103.848 147.707V148.69C103.848 150.6 105.402 152.155 107.313 152.155H107.797C109.707 152.155 111.262 150.601 111.262 148.69V147.707L111.957 148.402C112.61 149.055 113.48 149.415 114.407 149.415C115.334 149.415 116.204 149.055 116.857 148.402L117.2 148.059C117.853 147.406 118.213 146.536 118.213 145.609C118.213 144.682 117.853 143.812 117.2 143.159L116.505 142.464H117.488C119.398 142.464 120.953 140.91 120.953 138.999V138.515C120.953 136.605 119.399 135.05 117.488 135.05H116.505L117.2 134.355C118.551 133.004 118.551 130.806 117.2 129.455L116.857 129.112C116.204 128.459 115.334 128.099 114.407 128.099C113.48 128.099 112.61 128.459 111.957 129.112L111.262 129.807V128.824C111.262 126.914 109.707 125.36 107.797 125.36ZM107.568 142.076C105.737 142.076 104.248 140.587 104.248 138.756C104.248 136.925 105.737 135.436 107.568 135.436C109.399 135.436 110.888 136.925 110.888 138.756C110.889 140.587 109.399 142.076 107.568 142.076Z" fill="#1A1A1A"/>
<path d="M179.972 247.676C178.344 247.676 176.895 247.349 175.623 246.694C174.351 246.02 173.35 245.094 172.62 243.916C171.91 242.738 171.554 241.4 171.554 239.904C171.554 238.388 171.91 237.051 172.62 235.891C173.35 234.713 174.351 233.796 175.623 233.142C176.895 232.468 178.344 232.131 179.972 232.131C181.562 232.131 182.946 232.468 184.124 233.142C185.303 233.796 186.173 234.741 186.734 235.975L183.339 237.799C182.946 237.088 182.45 236.565 181.852 236.228C181.272 235.891 180.636 235.723 179.944 235.723C179.195 235.723 178.522 235.891 177.923 236.228C177.325 236.565 176.848 237.042 176.492 237.659C176.156 238.276 175.987 239.024 175.987 239.904C175.987 240.783 176.156 241.531 176.492 242.148C176.848 242.766 177.325 243.243 177.923 243.579C178.522 243.916 179.195 244.084 179.944 244.084C180.636 244.084 181.272 243.925 181.852 243.607C182.45 243.271 182.946 242.738 183.339 242.008L186.734 243.86C186.173 245.076 185.303 246.02 184.124 246.694C182.946 247.349 181.562 247.676 179.972 247.676ZM196.245 247.676C194.637 247.676 193.206 247.339 191.952 246.666C190.718 245.992 189.736 245.076 189.006 243.916C188.295 242.738 187.94 241.4 187.94 239.904C187.94 238.388 188.295 237.051 189.006 235.891C189.736 234.713 190.718 233.796 191.952 233.142C193.206 232.468 194.637 232.131 196.245 232.131C197.835 232.131 199.257 232.468 200.51 233.142C201.763 233.796 202.745 234.703 203.456 235.863C204.167 237.023 204.523 238.37 204.523 239.904C204.523 241.4 204.167 242.738 203.456 243.916C202.745 245.076 201.763 245.992 200.51 246.666C199.257 247.339 197.835 247.676 196.245 247.676ZM196.245 244.084C196.975 244.084 197.629 243.916 198.209 243.579C198.789 243.243 199.248 242.766 199.584 242.148C199.921 241.512 200.089 240.764 200.089 239.904C200.089 239.024 199.921 238.276 199.584 237.659C199.248 237.042 198.789 236.565 198.209 236.228C197.629 235.891 196.975 235.723 196.245 235.723C195.516 235.723 194.861 235.891 194.281 236.228C193.701 236.565 193.234 237.042 192.878 237.659C192.542 238.276 192.373 239.024 192.373 239.904C192.373 240.764 192.542 241.512 192.878 242.148C193.234 242.766 193.701 243.243 194.281 243.579C194.861 243.916 195.516 244.084 196.245 244.084ZM216.623 232.131C217.821 232.131 218.887 232.375 219.822 232.861C220.776 233.329 221.524 234.058 222.067 235.05C222.609 236.022 222.881 237.275 222.881 238.809V247.451H218.503V239.483C218.503 238.267 218.232 237.369 217.69 236.789C217.166 236.209 216.418 235.919 215.445 235.919C214.753 235.919 214.126 236.069 213.565 236.368C213.023 236.649 212.592 237.088 212.274 237.687C211.975 238.286 211.825 239.053 211.825 239.988V247.451H207.448V232.356H211.629V236.537L210.843 235.274C211.386 234.264 212.162 233.488 213.172 232.945C214.182 232.403 215.333 232.131 216.623 232.131ZM233.021 247.676C231.244 247.676 229.86 247.227 228.868 246.329C227.877 245.412 227.381 244.056 227.381 242.261V229.017H231.758V242.204C231.758 242.84 231.927 243.336 232.264 243.692C232.6 244.028 233.059 244.197 233.638 244.197C234.33 244.197 234.92 244.01 235.406 243.635L236.585 246.722C236.136 247.04 235.593 247.283 234.957 247.451C234.34 247.601 233.694 247.676 233.021 247.676ZM225.052 236.06V232.693H235.518V236.06H225.052ZM246.067 247.676C244.347 247.676 242.831 247.339 241.522 246.666C240.231 245.992 239.231 245.076 238.52 243.916C237.809 242.738 237.453 241.4 237.453 239.904C237.453 238.388 237.8 237.051 238.492 235.891C239.202 234.713 240.166 233.796 241.382 233.142C242.598 232.468 243.972 232.131 245.506 232.131C246.984 232.131 248.312 232.449 249.491 233.085C250.688 233.703 251.632 234.601 252.325 235.779C253.017 236.939 253.363 238.332 253.363 239.96C253.363 240.128 253.353 240.325 253.335 240.549C253.316 240.755 253.297 240.951 253.279 241.138H241.017V238.585H250.978L249.294 239.342C249.294 238.557 249.135 237.874 248.817 237.294C248.499 236.714 248.06 236.265 247.498 235.947C246.937 235.611 246.283 235.442 245.534 235.442C244.786 235.442 244.122 235.611 243.542 235.947C242.981 236.265 242.541 236.724 242.223 237.322C241.905 237.902 241.746 238.594 241.746 239.399V240.072C241.746 240.895 241.924 241.625 242.28 242.261C242.654 242.878 243.168 243.355 243.823 243.692C244.496 244.01 245.282 244.169 246.18 244.169C246.984 244.169 247.686 244.047 248.284 243.804C248.901 243.561 249.463 243.196 249.968 242.71L252.296 245.235C251.604 246.02 250.735 246.628 249.687 247.059C248.639 247.47 247.433 247.676 246.067 247.676ZM265.452 232.131C266.649 232.131 267.715 232.375 268.651 232.861C269.605 233.329 270.353 234.058 270.895 235.05C271.438 236.022 271.709 237.275 271.709 238.809V247.451H267.332V239.483C267.332 238.267 267.061 237.369 266.518 236.789C265.994 236.209 265.246 235.919 264.274 235.919C263.581 235.919 262.955 236.069 262.394 236.368C261.851 236.649 261.421 237.088 261.103 237.687C260.804 238.286 260.654 239.053 260.654 239.988V247.451H256.277V232.356H260.458V236.537L259.672 235.274C260.214 234.264 260.991 233.488 262.001 232.945C263.011 232.403 264.161 232.131 265.452 232.131ZM281.85 247.676C280.073 247.676 278.688 247.227 277.697 246.329C276.706 245.412 276.21 244.056 276.21 242.261V229.017H280.587V242.204C280.587 242.84 280.755 243.336 281.092 243.692C281.429 244.028 281.887 244.197 282.467 244.197C283.159 244.197 283.748 244.01 284.235 243.635L285.413 246.722C284.964 247.04 284.422 247.283 283.786 247.451C283.168 247.601 282.523 247.676 281.85 247.676ZM273.881 236.06V232.693H284.347V236.06H273.881Z" fill="black"/>
<path d="M187.214 260.568C188.196 260.568 189.046 260.762 189.763 261.152C190.495 261.526 191.064 262.103 191.469 262.882C191.875 263.646 192.077 264.597 192.077 265.735V272.866H190.908V265.828C190.908 264.457 190.573 263.412 189.903 262.695C189.233 261.978 188.297 261.62 187.097 261.62C186.177 261.62 185.382 261.815 184.712 262.204C184.042 262.594 183.528 263.139 183.169 263.841C182.811 264.542 182.631 265.384 182.631 266.366V272.866H181.462V265.828C181.462 264.457 181.127 263.412 180.457 262.695C179.787 261.978 178.851 261.62 177.651 261.62C176.732 261.62 175.937 261.815 175.266 262.204C174.596 262.594 174.082 263.139 173.723 263.841C173.365 264.542 173.185 265.384 173.185 266.366V272.866H172.016V260.661H173.139V264.028L172.975 263.654C173.333 262.703 173.934 261.955 174.775 261.409C175.617 260.848 176.63 260.568 177.815 260.568C179.031 260.568 180.052 260.879 180.878 261.503C181.719 262.111 182.249 263.023 182.468 264.238L182.07 264.075C182.398 263.03 183.013 262.189 183.917 261.55C184.821 260.895 185.92 260.568 187.214 260.568ZM204.597 272.866V270.084L204.55 269.663V265.08C204.55 263.942 204.238 263.077 203.615 262.485C203.007 261.892 202.11 261.596 200.926 261.596C200.084 261.596 199.297 261.744 198.564 262.041C197.847 262.321 197.232 262.687 196.717 263.139L196.133 262.298C196.741 261.752 197.473 261.331 198.331 261.035C199.188 260.723 200.084 260.568 201.019 260.568C202.531 260.568 203.693 260.949 204.503 261.713C205.314 262.477 205.719 263.615 205.719 265.127V272.866H204.597ZM200.201 272.959C199.297 272.959 198.51 272.819 197.84 272.539C197.185 272.242 196.678 271.829 196.32 271.299C195.977 270.769 195.805 270.162 195.805 269.476C195.805 268.852 195.946 268.291 196.226 267.792C196.522 267.278 197.006 266.865 197.676 266.553C198.346 266.226 199.242 266.062 200.365 266.062H204.854V266.974H200.388C199.126 266.974 198.237 267.208 197.723 267.675C197.224 268.143 196.974 268.728 196.974 269.429C196.974 270.208 197.271 270.832 197.863 271.299C198.455 271.767 199.289 272.001 200.365 272.001C201.393 272.001 202.259 271.767 202.96 271.299C203.677 270.832 204.207 270.154 204.55 269.265L204.877 270.06C204.55 270.949 203.989 271.658 203.194 272.188C202.414 272.702 201.417 272.959 200.201 272.959ZM210.536 272.866V260.661H211.658V264.005L211.541 263.63C211.884 262.648 212.461 261.892 213.271 261.363C214.082 260.833 215.095 260.568 216.311 260.568V261.713C216.264 261.713 216.217 261.713 216.17 261.713C216.124 261.698 216.077 261.69 216.03 261.69C214.674 261.69 213.614 262.118 212.85 262.976C212.087 263.818 211.705 264.994 211.705 266.506V272.866H210.536ZM220.42 269.499L220.444 268.026L228.51 260.661H230.007L224.652 265.688L223.951 266.273L220.42 269.499ZM219.532 272.866V255.517H220.701V272.866H219.532ZM229.071 272.866L223.74 266.179L224.535 265.314L230.521 272.866H229.071ZM237.755 272.959C236.523 272.959 235.432 272.695 234.481 272.165C233.546 271.635 232.806 270.902 232.26 269.967C231.73 269.031 231.465 267.964 231.465 266.764C231.465 265.548 231.714 264.48 232.213 263.56C232.728 262.625 233.429 261.892 234.318 261.363C235.206 260.833 236.204 260.568 237.31 260.568C238.417 260.568 239.407 260.825 240.28 261.339C241.168 261.854 241.862 262.578 242.361 263.514C242.875 264.433 243.132 265.501 243.132 266.717C243.132 266.764 243.124 266.818 243.109 266.88C243.109 266.927 243.109 266.982 243.109 267.044H232.33V266.132H242.478L242.01 266.576C242.026 265.626 241.823 264.776 241.402 264.028C240.997 263.264 240.443 262.672 239.742 262.251C239.041 261.815 238.23 261.596 237.31 261.596C236.406 261.596 235.596 261.815 234.879 262.251C234.177 262.672 233.624 263.264 233.219 264.028C232.813 264.776 232.611 265.633 232.611 266.6V266.81C232.611 267.808 232.829 268.696 233.265 269.476C233.717 270.24 234.333 270.84 235.113 271.276C235.892 271.697 236.78 271.907 237.778 271.907C238.557 271.907 239.282 271.767 239.952 271.486C240.638 271.206 241.215 270.777 241.683 270.201L242.361 270.972C241.831 271.627 241.16 272.126 240.35 272.468C239.555 272.796 238.69 272.959 237.755 272.959ZM250.303 272.959C249.227 272.959 248.401 272.663 247.824 272.071C247.263 271.479 246.983 270.668 246.983 269.639V257.996H248.152V269.522C248.152 270.302 248.346 270.902 248.736 271.323C249.126 271.744 249.687 271.954 250.42 271.954C251.183 271.954 251.815 271.728 252.313 271.276L252.804 272.094C252.493 272.391 252.111 272.609 251.659 272.749C251.222 272.889 250.77 272.959 250.303 272.959ZM244.738 261.666V260.661H252.033V261.666H244.738ZM256.065 272.866V260.661H257.234V272.866H256.065ZM256.649 257.692C256.384 257.692 256.158 257.598 255.971 257.411C255.784 257.224 255.691 257.006 255.691 256.756C255.691 256.491 255.784 256.265 255.971 256.078C256.158 255.891 256.384 255.798 256.649 255.798C256.93 255.798 257.156 255.891 257.327 256.078C257.514 256.25 257.608 256.468 257.608 256.733C257.608 256.998 257.514 257.224 257.327 257.411C257.156 257.598 256.93 257.692 256.649 257.692ZM268.123 260.568C269.121 260.568 269.986 260.762 270.719 261.152C271.467 261.526 272.043 262.103 272.449 262.882C272.87 263.646 273.08 264.597 273.08 265.735V272.866H271.911V265.828C271.911 264.457 271.56 263.412 270.859 262.695C270.173 261.978 269.207 261.62 267.96 261.62C267.009 261.62 266.183 261.815 265.481 262.204C264.78 262.594 264.242 263.139 263.868 263.841C263.509 264.542 263.33 265.384 263.33 266.366V272.866H262.161V260.661H263.283V264.051L263.12 263.677C263.494 262.711 264.109 261.955 264.967 261.409C265.824 260.848 266.876 260.568 268.123 260.568ZM282.967 277.495C281.86 277.495 280.808 277.324 279.81 276.981C278.813 276.638 278.002 276.163 277.379 275.555L278.01 274.666C278.618 275.227 279.343 275.664 280.184 275.976C281.042 276.287 281.961 276.443 282.943 276.443C284.58 276.443 285.78 276.061 286.544 275.298C287.323 274.534 287.713 273.334 287.713 271.697V268.307L287.947 266.483L287.76 264.659V260.661H288.882V271.557C288.882 273.599 288.383 275.095 287.386 276.046C286.404 277.012 284.931 277.495 282.967 277.495ZM282.639 272.422C281.486 272.422 280.449 272.172 279.53 271.674C278.626 271.159 277.901 270.458 277.355 269.569C276.825 268.665 276.56 267.636 276.56 266.483C276.56 265.314 276.825 264.285 277.355 263.397C277.901 262.508 278.626 261.815 279.53 261.316C280.449 260.817 281.486 260.568 282.639 260.568C283.746 260.568 284.736 260.809 285.609 261.292C286.497 261.76 287.199 262.438 287.713 263.327C288.227 264.199 288.485 265.252 288.485 266.483C288.485 267.699 288.227 268.751 287.713 269.639C287.199 270.528 286.497 271.214 285.609 271.697C284.736 272.18 283.746 272.422 282.639 272.422ZM282.733 271.37C283.715 271.37 284.58 271.167 285.328 270.762C286.076 270.341 286.661 269.764 287.082 269.031C287.518 268.283 287.736 267.434 287.736 266.483C287.736 265.517 287.518 264.667 287.082 263.934C286.661 263.202 286.076 262.633 285.328 262.228C284.58 261.822 283.715 261.62 282.733 261.62C281.782 261.62 280.925 261.822 280.161 262.228C279.413 262.633 278.82 263.202 278.384 263.934C277.963 264.667 277.753 265.517 277.753 266.483C277.753 267.434 277.963 268.283 278.384 269.031C278.82 269.764 279.413 270.341 280.161 270.762C280.925 271.167 281.782 271.37 282.733 271.37Z" fill="black"/>
<path d="M201.207 369.503C202.879 369.503 204.234 368.04 204.234 366.235V365.687C204.234 363.882 202.879 362.419 201.207 362.419H196.15V361.421H200.547C202.031 361.421 203.234 359.958 203.234 358.153V357.605C203.234 355.8 202.031 354.337 200.547 354.337H196.15H195.317H180.956L183.662 348.013C184.299 344.915 182.577 341.92 179.835 341.356C177.093 340.792 174.329 342.866 173.692 345.963L169.054 356.802C167.513 359.536 166.482 363.816 166.482 365.754V377.504C166.482 380.465 168.882 385.671 171.843 385.671H195.316H196.149H200.38C201.817 385.671 202.983 384.208 202.983 382.403V381.855C202.983 380.05 201.818 378.587 200.38 378.587H196.149V377.589H201.206C202.878 377.589 204.233 376.126 204.233 374.321V373.773C204.233 371.968 202.878 370.505 201.206 370.505H196.149V369.507H201.207V369.503Z" fill="white" stroke="#1A1A1A" stroke-width="2" stroke-miterlimit="10"/>
<path d="M164.163 385.002H153.487C151.101 385.002 149.167 383.068 149.167 380.682V359.881C149.167 357.495 151.101 355.561 153.487 355.561H164.163C166.549 355.561 168.483 357.495 168.483 359.881V380.682C168.484 383.068 166.549 385.002 164.163 385.002Z" fill="#9ACFF5" stroke="#1A1A1A" stroke-width="2" stroke-miterlimit="10"/>
<path d="M161.234 363.002C162.477 363.002 163.484 361.995 163.484 360.752C163.484 359.509 162.477 358.502 161.234 358.502C159.991 358.502 158.984 359.509 158.984 360.752C158.984 361.995 159.991 363.002 161.234 363.002Z" fill="white" stroke="#1A1A1A" stroke-width="2" stroke-miterlimit="10"/>
<path d="M202.995 202.005H280.995" stroke="#333333" stroke-width="2" stroke-miterlimit="10" stroke-linecap="round" stroke-linejoin="round"/>
<path d="M202.995 211.005H280.995" stroke="#333333" stroke-width="2" stroke-miterlimit="10" stroke-linecap="round" stroke-linejoin="round"/>
<path d="M292 77.0059H349" stroke="#333333" stroke-width="2" stroke-miterlimit="10" stroke-linecap="round" stroke-linejoin="round"/>
<path d="M297 86.0059H332" stroke="#333333" stroke-width="2" stroke-miterlimit="10" stroke-linecap="round" stroke-linejoin="round"/>
<path d="M373 173.006H411" stroke="#333333" stroke-width="2" stroke-miterlimit="10" stroke-linecap="round" stroke-linejoin="round"/>
<path d="M383 182.006H410" stroke="#333333" stroke-width="2" stroke-miterlimit="10" stroke-linecap="round" stroke-linejoin="round"/>
<path d="M63 305.004H107" stroke="#333333" stroke-width="2" stroke-miterlimit="10" stroke-linecap="round" stroke-linejoin="round"/>
<path d="M60 314.004H99" stroke="#333333" stroke-width="2" stroke-miterlimit="10" stroke-linecap="round" stroke-linejoin="round"/>
<path d="M348 310.006H382" stroke="#333333" stroke-width="2" stroke-miterlimit="10" stroke-linecap="round" stroke-linejoin="round"/>
<path d="M338 320.006H373" stroke="#333333" stroke-width="2" stroke-miterlimit="10" stroke-linecap="round" stroke-linejoin="round"/>
<path d="M42 178.006H81" stroke="#333333" stroke-width="2" stroke-miterlimit="10" stroke-linecap="round" stroke-linejoin="round"/>
<path d="M106 96.0059H146" stroke="#333333" stroke-width="2" stroke-miterlimit="10" stroke-linecap="round" stroke-linejoin="round"/>
<path d="M127 85.0059H162" stroke="#333333" stroke-width="2" stroke-miterlimit="10" stroke-linecap="round" stroke-linejoin="round"/>
<path d="M211.995 292.005H271.995" stroke="#333333" stroke-width="2" stroke-miterlimit="10" stroke-linecap="round" stroke-linejoin="round"/>
<path d="M216.495 299.005H267.495" stroke="#333333" stroke-width="2" stroke-miterlimit="10" stroke-linecap="round" stroke-linejoin="round"/>
<path d="M373.999 387.787L378.176 396.251L387.516 397.608L380.758 404.196L382.353 413.498L373.999 409.106L365.645 413.498L367.241 404.196L360.482 397.608L369.822 396.251L373.999 387.787Z" fill="#D42666" stroke="#1A1A1A" stroke-width="2" stroke-miterlimit="10"/>
</g>
<defs>
<clipPath id="clip0_73_2">
<rect width="500" height="500" fill="white"/>
</clipPath>
</defs>
</svg>
