<svg width="425" height="382" viewBox="0 0 425 382" fill="none" xmlns="http://www.w3.org/2000/svg">
<path d="M63.0031 306.796V274.042H72.0807L85.1823 295.426H80.4096L93.1369 274.042H102.214L102.308 306.796H92.2478L92.1542 289.203H93.7451L85.0419 303.849H80.1756L71.0981 289.203H73.0633V306.796H63.0031ZM104.091 306.796L118.409 274.042H129.265L143.583 306.796H132.166L121.591 279.283H125.896L115.321 306.796H104.091ZM112.607 301.088L115.414 293.133H130.481L133.289 301.088H112.607ZM145.345 306.796V274.042H161.114C164.171 274.042 166.807 274.541 169.022 275.54C171.268 276.538 172.999 277.973 174.216 279.844C175.432 281.685 176.04 283.869 176.04 286.395C176.04 288.922 175.432 291.106 174.216 292.946C172.999 294.755 171.268 296.144 169.022 297.111C166.807 298.078 164.171 298.561 161.114 298.561H151.475L156.388 294.022V306.796H145.345ZM164.951 306.796L156.903 294.865H168.601L176.742 306.796H164.951ZM156.388 295.239L151.475 290.232H160.412C161.941 290.232 163.064 289.889 163.781 289.203C164.53 288.517 164.904 287.581 164.904 286.395C164.904 285.21 164.53 284.274 163.781 283.588C163.064 282.902 161.941 282.558 160.412 282.558H151.475L156.388 277.552V295.239ZM190.083 299.778L189.475 287.659L201.828 274.042H213.853L200.003 289.296L193.873 295.566L190.083 299.778ZM180.21 306.796V274.042H191.066V306.796H180.21ZM201.734 306.796L192.095 294.069L199.255 286.489L214.509 306.796H201.734ZM226.096 286.208H240.695V294.163H226.096V286.208ZM226.845 298.467H243.222V306.796H215.989V274.042H242.614V282.371H226.845V298.467ZM254.585 306.796V282.605H244.993V274.042H275.22V282.605H265.628V306.796H254.585ZM278.089 306.796V274.042H289.131V306.796H278.089ZM294.447 306.796V274.042H303.525L320.183 293.976H315.972V274.042H326.734V306.796H317.656L300.998 286.863H305.209V306.796H294.447ZM349.04 307.545C346.388 307.545 343.939 307.14 341.693 306.328C339.479 305.486 337.544 304.301 335.891 302.772C334.269 301.244 333.006 299.435 332.101 297.345C331.196 295.254 330.744 292.946 330.744 290.419C330.744 287.893 331.196 285.584 332.101 283.494C333.006 281.404 334.285 279.595 335.938 278.066C337.591 276.538 339.541 275.368 341.787 274.557C344.064 273.715 346.56 273.294 349.274 273.294C352.518 273.294 355.403 273.84 357.93 274.931C360.488 276.023 362.594 277.583 364.247 279.611L357.181 285.834C356.152 284.648 355.029 283.759 353.812 283.167C352.627 282.543 351.301 282.231 349.835 282.231C348.618 282.231 347.511 282.418 346.513 282.792C345.546 283.167 344.719 283.713 344.033 284.43C343.347 285.148 342.816 286.005 342.442 287.004C342.068 288.002 341.88 289.14 341.88 290.419C341.88 291.636 342.068 292.759 342.442 293.788C342.816 294.787 343.347 295.644 344.033 296.362C344.719 297.079 345.53 297.641 346.466 298.046C347.433 298.421 348.509 298.608 349.695 298.608C350.942 298.608 352.159 298.405 353.344 298C354.53 297.563 355.793 296.83 357.135 295.8L363.311 303.381C361.315 304.722 359.037 305.751 356.479 306.469C353.921 307.186 351.442 307.545 349.04 307.545ZM353.719 301.977V289.53H363.311V303.381L353.719 301.977Z" fill="black"/>
<path d="M110.767 358.45C108.147 358.45 105.714 358.045 103.468 357.234C101.253 356.392 99.3189 355.206 97.6656 353.678C96.0435 352.149 94.7801 350.34 93.8755 348.25C92.9708 346.16 92.5185 343.851 92.5185 341.325C92.5185 338.798 92.9708 336.49 93.8755 334.4C94.7801 332.31 96.0435 330.5 97.6656 328.972C99.3189 327.443 101.253 326.273 103.468 325.462C105.714 324.62 108.147 324.199 110.767 324.199C113.98 324.199 116.819 324.761 119.283 325.884C121.779 327.007 123.838 328.629 125.46 330.75L118.488 336.973C117.521 335.757 116.445 334.821 115.259 334.166C114.105 333.479 112.795 333.136 111.329 333.136C110.174 333.136 109.129 333.323 108.194 333.698C107.258 334.072 106.447 334.618 105.76 335.335C105.105 336.053 104.591 336.926 104.216 337.956C103.842 338.954 103.655 340.077 103.655 341.325C103.655 342.573 103.842 343.711 104.216 344.741C104.591 345.739 105.105 346.597 105.76 347.314C106.447 348.032 107.258 348.577 108.194 348.952C109.129 349.326 110.174 349.513 111.329 349.513C112.795 349.513 114.105 349.186 115.259 348.531C116.445 347.844 117.521 346.893 118.488 345.676L125.46 351.9C123.838 353.99 121.779 355.612 119.283 356.766C116.819 357.889 113.98 358.45 110.767 358.45ZM145.135 358.45C142.484 358.45 140.019 358.029 137.742 357.187C135.496 356.345 133.546 355.159 131.893 353.631C130.24 352.071 128.945 350.246 128.009 348.156C127.105 346.066 126.653 343.789 126.653 341.325C126.653 338.829 127.105 336.552 128.009 334.493C128.945 332.403 130.24 330.594 131.893 329.065C133.546 327.506 135.496 326.305 137.742 325.462C140.019 324.62 142.484 324.199 145.135 324.199C147.818 324.199 150.282 324.62 152.528 325.462C154.774 326.305 156.724 327.506 158.377 329.065C160.03 330.594 161.309 332.403 162.214 334.493C163.15 336.552 163.618 338.829 163.618 341.325C163.618 343.789 163.15 346.066 162.214 348.156C161.309 350.246 160.03 352.071 158.377 353.631C156.724 355.159 154.774 356.345 152.528 357.187C150.282 358.029 147.818 358.45 145.135 358.45ZM145.135 349.513C146.165 349.513 147.116 349.326 147.989 348.952C148.894 348.577 149.674 348.047 150.329 347.361C151.015 346.643 151.546 345.786 151.92 344.787C152.294 343.758 152.481 342.604 152.481 341.325C152.481 340.046 152.294 338.907 151.92 337.909C151.546 336.88 151.015 336.022 150.329 335.335C149.674 334.618 148.894 334.072 147.989 333.698C147.116 333.323 146.165 333.136 145.135 333.136C144.106 333.136 143.139 333.323 142.234 333.698C141.361 334.072 140.581 334.618 139.895 335.335C139.239 336.022 138.725 336.88 138.35 337.909C137.976 338.907 137.789 340.046 137.789 341.325C137.789 342.604 137.976 343.758 138.35 344.787C138.725 345.786 139.239 346.643 139.895 347.361C140.581 348.047 141.361 348.577 142.234 348.952C143.139 349.326 144.106 349.513 145.135 349.513ZM167.626 357.702V324.948H176.703L193.361 344.881H189.15V324.948H199.912V357.702H190.834L174.177 337.769H178.388V357.702H167.626ZM212.345 357.702V333.511H202.753V324.948H232.98V333.511H223.388V357.702H212.345ZM245.955 337.114H260.554V345.068H245.955V337.114ZM246.704 349.373H263.081V357.702H235.848V324.948H262.473V333.277H246.704V349.373ZM267.332 357.702V324.948H276.409L293.067 344.881H288.856V324.948H299.618V357.702H290.54L273.883 337.769H278.094V357.702H267.332ZM312.051 357.702V333.511H302.459V324.948H332.686V333.511H323.094V357.702H312.051Z" fill="black"/>
<path d="M311.32 24.0883V73.013H280.99V8.94434H296.154C304.537 8.94434 311.32 15.7185 311.32 24.0883Z" fill="#BDBDBD"/>
<path d="M329.906 89.9568H94.6577C90.7419 89.9568 87.568 93.1265 87.568 97.0369V233.657C87.568 237.568 90.7419 240.737 94.6577 240.737H329.905C333.821 240.737 336.995 237.568 336.995 233.657V97.0369C336.996 93.1277 333.821 89.9568 329.906 89.9568Z" fill="#424242"/>
<path d="M324.378 110.33H100.187V228.316H324.378V110.33Z" fill="#FFA726"/>
<path d="M214.556 96.8524C214.556 98.1069 213.538 99.1234 212.281 99.1234C211.025 99.1234 210.007 98.1069 210.007 96.8524C210.007 95.5979 211.025 94.5802 212.281 94.5802C213.538 94.5802 214.556 95.5979 214.556 96.8524Z" fill="#212121"/>
<path d="M359.317 247.717H65.247C63.2113 247.717 61.5611 246.069 61.5611 244.036V238.196H363.003V244.036C363.003 246.069 361.353 247.717 359.317 247.717Z" fill="#EEEEEE"/>
<path d="M246.096 232.195H178.468V234.318H246.096V232.195Z" fill="#EEEEEE"/>
<path d="M324.378 102.378H100.187V110.33H324.378V102.378Z" fill="#EEEEEE"/>
<path d="M324.377 102.378H292.597V110.33H324.377V102.378Z" fill="#E0E0E0"/>
<path d="M107.395 106.354C107.395 107.088 106.799 107.682 106.066 107.682C105.331 107.682 104.736 107.087 104.736 106.354C104.736 105.621 105.331 105.027 106.066 105.027C106.8 105.027 107.395 105.621 107.395 106.354Z" fill="#EF5350"/>
<path d="M114.109 106.354C114.109 107.088 113.513 107.682 112.78 107.682C112.045 107.682 111.45 107.087 111.45 106.354C111.45 105.621 112.046 105.027 112.78 105.027C113.513 105.027 114.109 105.621 114.109 106.354Z" fill="#BDBDBD"/>
<path d="M120.821 106.354C120.821 107.088 120.226 107.682 119.492 107.682C118.758 107.682 118.163 107.087 118.163 106.354C118.163 105.621 118.759 105.027 119.492 105.027C120.227 105.027 120.821 105.621 120.821 106.354Z" fill="#BDBDBD"/>
<path d="M135.674 165.348H27.8553V232.32H135.674V165.348Z" fill="white"/>
<path d="M135.674 155.97H27.8553V165.348H135.674V155.97Z" fill="#EEEEEE"/>
<path d="M36.3568 160.659C36.3568 161.524 35.6552 162.226 34.7881 162.226C33.9223 162.226 33.2206 161.525 33.2206 160.659C33.2206 159.794 33.9223 159.094 34.7881 159.094C35.6552 159.094 36.3568 159.794 36.3568 160.659Z" fill="#EF5350"/>
<path d="M44.2747 160.659C44.2747 161.524 43.573 162.226 42.7072 162.226C41.8414 162.226 41.1397 161.525 41.1397 160.659C41.1397 159.794 41.8414 159.094 42.7072 159.094C43.573 159.094 44.2747 159.794 44.2747 160.659Z" fill="#BDBDBD"/>
<path d="M52.1925 160.659C52.1925 161.524 51.4909 162.226 50.625 162.226C49.7592 162.226 49.0575 161.525 49.0575 160.659C49.0575 159.794 49.7592 159.094 50.625 159.094C51.4896 159.094 52.1925 159.794 52.1925 160.659Z" fill="#BDBDBD"/>
<path d="M111.945 179.651H51.5832C50.721 179.651 50.0218 180.35 50.0218 181.211V216.456C50.0218 217.317 50.721 218.017 51.5832 218.017H111.945C112.809 218.017 113.508 217.318 113.508 216.456V181.211C113.508 180.35 112.809 179.651 111.945 179.651Z" fill="#FFCA28"/>
<path d="M113.047 180.113L81.7661 211.421L50.4803 180.113C50.4936 180.096 50.5107 180.079 50.5277 180.065C50.8074 179.813 51.1722 179.654 51.5845 179.654H111.948C112.356 179.654 112.725 179.808 113 180.065C113.017 180.079 113.034 180.096 113.047 180.113Z" fill="#FFB300"/>
<path d="M113 180.065L81.7661 205.44L50.5277 180.065C50.8074 179.813 51.1722 179.654 51.5845 179.654H111.948C112.355 179.654 112.725 179.808 113 180.065Z" fill="#FFD54F"/>
<path d="M122.714 179.651C122.714 184.728 118.592 188.845 113.508 188.845C108.424 188.845 104.302 184.729 104.302 179.651C104.302 174.574 108.424 170.458 113.508 170.458C118.592 170.458 122.714 174.574 122.714 179.651Z" fill="#EF5350"/>
<path d="M115.984 185.093H113.463V176.75H111.032V174.972L115.984 174.211V185.093Z" fill="white"/>
<path d="M424.564 61.5864H309.27V127.272H424.564V61.5864Z" fill="white"/>
<path d="M415.667 118.388V70.4708L318.166 70.4708V118.388L415.667 118.388Z" fill="#4DD0E1"/>
<path d="M424.564 52.2074H309.27V61.5853H424.564V52.2074Z" fill="#EEEEEE"/>
<path d="M317.771 56.8975C317.771 57.7622 317.07 58.463 316.204 58.463C315.338 58.463 314.636 57.7622 314.636 56.8975C314.636 56.0329 315.338 55.3309 316.204 55.3309C317.07 55.3309 317.771 56.0317 317.771 56.8975Z" fill="#EF5350"/>
<path d="M325.689 56.8975C325.689 57.7622 324.987 58.463 324.12 58.463C323.254 58.463 322.553 57.7622 322.553 56.8975C322.553 56.0329 323.254 55.3309 324.12 55.3309C324.987 55.3309 325.689 56.0317 325.689 56.8975Z" fill="#BDBDBD"/>
<path d="M333.607 56.8975C333.607 57.7622 332.905 58.463 332.039 58.463C331.174 58.463 330.472 57.7622 330.472 56.8975C330.472 56.0329 331.174 55.3309 332.039 55.3309C332.904 55.3309 333.607 56.0317 333.607 56.8975Z" fill="#BDBDBD"/>
<path d="M415.664 105.955V118.383H377.102L403.139 94.4247L415.664 105.955Z" fill="#388E3C"/>
<path d="M388.925 118.383H318.169V105.955L346.795 79.6268L388.925 118.383Z" fill="#42A047"/>
<path d="M84.8695 114.069V79.3026H0V134.913H67.5466H84.8695H104.384L84.8695 114.069Z" fill="white"/>
<path d="M25.7284 107.108C25.7284 109.721 23.6076 111.839 20.993 111.839C18.3773 111.839 16.2577 109.721 16.2577 107.108C16.2577 104.497 18.3773 102.379 20.993 102.379C23.6076 102.378 25.7284 104.496 25.7284 107.108Z" fill="#BDBDBD"/>
<path d="M47.1702 107.108C47.1702 109.721 45.0493 111.839 42.4336 111.839C39.8178 111.839 37.6982 109.721 37.6982 107.108C37.6982 104.497 39.8178 102.379 42.4336 102.379C45.0506 102.378 47.1702 104.496 47.1702 107.108Z" fill="#BDBDBD"/>
<path d="M68.6131 107.108C68.6131 109.721 66.4923 111.839 63.8765 111.839C61.2608 111.839 59.1412 109.721 59.1412 107.108C59.1412 104.497 61.262 102.379 63.8765 102.379C66.4923 102.378 68.6131 104.496 68.6131 107.108Z" fill="#BDBDBD"/>
<path d="M280.99 8.94433H272.499H158.738C150.357 8.94433 143.573 15.7184 143.573 24.0895V228.317H280.99V24.0883C280.99 15.7184 287.785 8.94312 296.154 8.94312L280.99 8.94433Z" fill="white"/>
<path d="M267.387 42.7555H157.177V61.0182H267.387V42.7555Z" fill="#EF5350"/>
<path d="M42.7059 14.6182V45.9797H58.6632L66.3743 55.3309L74.0842 45.9797H90.0414V14.6182H42.7059Z" fill="white"/>
<path d="M74.0246 23.4495C71.9122 21.3401 68.4866 21.3401 66.3731 23.4495C64.2607 21.3401 60.8351 21.3401 58.7215 23.4495C56.6092 25.559 56.6092 28.9801 58.7215 31.0908L66.3731 38.732L74.0246 31.0908C76.1381 28.9801 76.1381 25.559 74.0246 23.4495Z" fill="#EF5350"/>
<path d="M325.689 17.0253V48.3868H341.645L349.356 57.738L357.067 48.3868H373.023V17.0253H325.689Z" fill="white"/>
<path d="M357.008 25.8565C354.895 23.747 351.47 23.747 349.356 25.8565C347.244 23.747 343.818 23.747 341.705 25.8565C339.592 27.966 339.592 31.3871 341.705 33.4977L349.356 41.139L357.008 33.4977C359.12 31.3871 359.12 27.966 357.008 25.8565Z" fill="#EF5350"/>
<path d="M123.048 16.9899C120.458 16.9899 118.359 19.0872 118.359 21.6727C118.359 24.2595 120.459 26.3556 123.049 26.3556C125.639 26.3556 127.738 24.2583 127.738 21.6727C127.738 19.0872 125.638 16.9899 123.048 16.9899Z" fill="white"/>
<path d="M125.09 12.1831C125.351 11.922 125.512 11.5625 125.512 11.1642C125.512 10.3687 124.866 9.72388 124.07 9.72388C120.6 9.72388 117.339 11.0731 114.886 13.5226C112.433 15.9721 111.082 19.2293 111.082 22.6928C111.082 23.4883 111.728 24.1344 112.524 24.1331C113.322 24.1331 113.968 23.4883 113.966 22.6928C113.966 19.998 115.017 17.4647 116.925 15.5604C118.833 13.655 121.37 12.6057 124.068 12.6057C124.467 12.6057 124.828 12.4442 125.09 12.1831Z" fill="white"/>
<path d="M124.068 5.76125C124.467 5.76125 124.827 5.59973 125.089 5.33863C125.35 5.07752 125.512 4.71805 125.512 4.31972C125.512 3.52305 124.866 2.87939 124.068 2.87939C113.13 2.87939 104.229 11.7666 104.228 22.6929C104.228 23.4896 104.874 24.1344 105.67 24.1344C106.467 24.1344 107.114 23.4896 107.114 22.6929C107.115 13.3563 114.72 5.76125 124.068 5.76125Z" fill="white"/>
<path d="M391.883 34.0782C394.474 34.0782 396.573 36.1756 396.573 38.7611C396.573 41.3478 394.472 43.444 391.882 43.444C389.292 43.444 387.193 41.3466 387.193 38.7611C387.193 36.1756 389.293 34.0782 391.883 34.0782Z" fill="white"/>
<path d="M389.842 29.2715C389.58 29.0104 389.42 28.6509 389.42 28.2526C389.42 27.4571 390.065 26.8123 390.862 26.8123C394.331 26.8123 397.593 28.1615 400.046 30.611C402.498 33.0605 403.849 36.3176 403.849 39.7812C403.849 40.5767 403.204 41.2227 402.406 41.2215C401.609 41.2215 400.963 40.5767 400.964 39.78C400.964 37.0852 399.913 34.5531 398.005 32.6476C396.097 30.7422 393.56 29.6929 390.863 29.6929C390.464 29.6941 390.103 29.5326 389.842 29.2715Z" fill="white"/>
<path d="M390.863 22.8496C390.464 22.8496 390.104 22.6881 389.843 22.4282C389.581 22.1671 389.42 21.8077 389.42 21.4093C389.42 20.6127 390.065 19.969 390.863 19.969C401.802 19.969 410.702 28.8574 410.703 39.7825C410.703 40.5792 410.058 41.2228 409.261 41.2228C408.464 41.2228 407.818 40.578 407.818 39.7825C407.816 30.4447 400.211 22.8496 390.863 22.8496Z" fill="white"/>
<path d="M127.862 48.5738H125.284V45.9979C125.284 45.1624 124.607 44.486 123.77 44.486C122.934 44.486 122.256 45.1624 122.256 45.9979V48.5738H119.678C118.842 48.5738 118.164 49.2502 118.164 50.0857C118.164 50.9213 118.842 51.5977 119.678 51.5977H122.256V54.1735C122.256 55.009 122.934 55.6855 123.77 55.6855C124.607 55.6855 125.284 55.009 125.284 54.1735V51.5977H127.862C128.699 51.5977 129.376 50.9213 129.376 50.0857C129.375 49.2502 128.698 48.5738 127.862 48.5738Z" fill="white"/>
<path d="M21.7543 146.376H19.1762V143.801C19.1762 142.966 18.4989 142.289 17.6622 142.289C16.8256 142.289 16.1482 142.966 16.1482 143.801V146.376H13.5689C12.7323 146.376 12.0549 147.052 12.0549 147.888C12.0549 148.723 12.7323 149.4 13.5689 149.4H16.1482V151.974C16.1482 152.81 16.8256 153.486 17.6622 153.486C18.4989 153.486 19.1762 152.81 19.1762 151.974V149.4H21.7543C22.591 149.4 23.2683 148.723 23.2683 147.888C23.2683 147.054 22.5897 146.376 21.7543 146.376Z" fill="white"/>
<path d="M406.463 151.976H403.885V149.4C403.885 148.564 403.207 147.888 402.371 147.888C401.534 147.888 400.857 148.564 400.857 149.4V151.976H398.277C397.441 151.976 396.763 152.652 396.763 153.488C396.763 154.323 397.441 155 398.277 155H400.857V157.574C400.857 158.41 401.534 159.086 402.371 159.086C403.207 159.086 403.885 158.41 403.885 157.574V155H406.463C407.299 155 407.977 154.323 407.977 153.488C407.977 152.652 407.299 151.976 406.463 151.976Z" fill="white"/>
<path d="M100.187 71.8654C102.251 71.8654 103.924 70.1945 103.924 68.1334C103.924 66.0723 102.251 64.4015 100.187 64.4015C98.1233 64.4015 96.4501 66.0723 96.4501 68.1334C96.4501 70.1945 98.1233 71.8654 100.187 71.8654Z" fill="white"/>
<path d="M324.377 7.46392C326.441 7.46392 328.114 5.79307 328.114 3.73196C328.114 1.67086 326.441 0 324.377 0C322.313 0 320.64 1.67086 320.64 3.73196C320.64 5.79307 322.313 7.46392 324.377 7.46392Z" fill="white"/>
<path d="M403.798 214.78C403.798 216.841 402.125 218.512 400.061 218.512C397.998 218.512 396.324 216.841 396.324 214.78C396.324 212.719 397.998 211.048 400.061 211.048C402.125 211.048 403.798 212.719 403.798 214.78Z" fill="white"/>
<path d="M8.10505 66.2389C7.12247 66.2389 6.32594 67.0343 6.32594 68.0156V82.7661C6.32594 83.7474 7.12247 84.5429 8.10505 84.5429H17.8287V66.2389H8.10505Z" fill="#1E88E5"/>
<path d="M37.6641 61.9083H31.7734V55.1232C31.7734 53.2457 30.2485 51.7228 28.3684 51.7228C26.4884 51.7228 24.9634 53.2445 24.9634 55.1232V61.9192C24.9574 64.3068 23.0189 66.2389 20.6269 66.2389V84.5429H37.6629C41.7865 84.5429 45.1295 81.2044 45.1295 77.0863V69.3649C45.1307 65.2467 41.7878 61.9083 37.6641 61.9083Z" fill="white"/>
<path d="M17.8287 71.5023V66.2389H8.10505C7.12247 66.2389 6.32594 67.0343 6.32594 68.0156V71.5023H17.8287Z" fill="#42A5F5"/>
<path d="M17.8288 85.2314H8.10507C6.74429 85.2314 5.63766 84.1251 5.63766 82.7661V68.0156C5.63766 66.6566 6.74429 65.5503 8.10507 65.5503H17.8288C18.2094 65.5503 18.5171 65.8588 18.5171 66.2389V84.544C18.5171 84.923 18.2094 85.2314 17.8288 85.2314ZM8.10507 66.9263C7.50433 66.9263 7.01548 67.4144 7.01548 68.0156V82.7661C7.01548 83.3673 7.50433 83.8555 8.10507 83.8555H17.1405V66.9263H8.10507Z" fill="#1565C0"/>
<path d="M37.6641 85.2314H20.6281C20.2475 85.2314 19.9398 84.923 19.9398 84.5429V66.2389C19.9398 65.8588 20.2475 65.5503 20.6281 65.5503C22.6347 65.5503 24.2703 63.9205 24.2764 61.9155V55.1207C24.2764 52.8668 26.1126 51.033 28.3696 51.033C30.6267 51.033 32.4642 52.8668 32.4642 55.1207V61.2184H37.6653C42.1623 61.2184 45.8215 64.8726 45.8215 69.3636V77.085C45.8202 81.5772 42.1611 85.2314 37.6641 85.2314ZM21.3177 83.8555H37.6641C41.401 83.8555 44.4424 80.8194 44.4424 77.0862V69.3649C44.4424 65.6329 41.4023 62.5968 37.6641 62.5968H31.7746C31.394 62.5968 31.0863 62.2883 31.0863 61.9082V55.1232C31.0863 53.6282 29.8678 52.4113 28.3709 52.4113C26.8739 52.4113 25.6554 53.6282 25.6554 55.1232V61.9192C25.6481 64.4488 23.7583 66.5449 21.3189 66.8813L21.3177 83.8555Z" fill="#E0E0E0"/>
<path d="M13.789 71.2812C13.789 72.2248 13.0228 72.9899 12.078 72.9899C11.1331 72.9899 10.3669 72.2248 10.3669 71.2812C10.3669 70.3376 11.1331 69.5725 12.078 69.5725C13.0228 69.5725 13.789 70.3376 13.789 71.2812Z" fill="white"/>
<path d="M209.001 71.2594H157.177V75.0229H209.001V71.2594Z" fill="#BDBDBD"/>
<path d="M267.387 71.2594H220.566V75.0229H267.387V71.2594Z" fill="#BDBDBD"/>
<path d="M236.663 82.5488H157.177V86.3124H236.663V82.5488Z" fill="#BDBDBD"/>
<path d="M267.387 82.5488H246.632V86.3124H267.387V82.5488Z" fill="#BDBDBD"/>
<path d="M203.563 93.8381H157.177V97.6017H203.563V93.8381Z" fill="#BDBDBD"/>
<path d="M267.387 93.8381H212.282V97.6017H267.387V93.8381Z" fill="#BDBDBD"/>
<path d="M233.944 105.127H157.177V108.891H233.944V105.127Z" fill="#BDBDBD"/>
<path d="M267.387 105.127H248.444V108.891H267.387V105.127Z" fill="#BDBDBD"/>
<path d="M182.953 116.416H157.177V120.179H182.953V116.416Z" fill="#BDBDBD"/>
<path d="M267.387 116.416H194.735V120.179H267.387V116.416Z" fill="#BDBDBD"/>
<path d="M223.511 127.705H157.183V131.469H223.511V127.705Z" fill="#BDBDBD"/>
<path d="M191.137 150.765H157.177V154.528H191.137V150.765Z" fill="#BDBDBD"/>
<path d="M267.387 150.765H202.702V154.528H267.387V150.765Z" fill="#BDBDBD"/>
<path d="M226.077 162.054H157.177V165.818H226.077V162.054Z" fill="#BDBDBD"/>
<path d="M267.387 162.054H236.046V165.818H267.387V162.054Z" fill="#BDBDBD"/>
<path d="M192.56 173.344H157.177V177.107H192.56V173.344Z" fill="#BDBDBD"/>
<path d="M267.387 173.344H201.279V177.107H267.387V173.344Z" fill="#BDBDBD"/>
<path d="M180.37 184.633H157.177V188.396H180.37V184.633Z" fill="#BDBDBD"/>
<path d="M267.387 184.633H194.872V188.396H267.387V184.633Z" fill="#BDBDBD"/>
<path d="M228.052 195.921H157.177V199.685H228.052V195.921Z" fill="#BDBDBD"/>
<path d="M267.387 195.921H239.834V199.685H267.387V195.921Z" fill="#BDBDBD"/>
<path d="M223.511 207.211H157.183V210.974H223.511V207.211Z" fill="#BDBDBD"/>
<path d="M382.025 145.412H266.73V211.097H382.025V145.412Z" fill="#616161"/>
<path d="M382.025 136.034H266.73V145.412H382.025V136.034Z" fill="#EEEEEE"/>
<path d="M275.232 140.723C275.232 141.587 274.53 142.289 273.663 142.289C272.797 142.289 272.096 141.589 272.096 140.723C272.096 139.858 272.797 139.157 273.663 139.157C274.53 139.157 275.232 139.858 275.232 140.723Z" fill="#EF5350"/>
<path d="M283.15 140.723C283.15 141.587 282.448 142.289 281.582 142.289C280.716 142.289 280.015 141.589 280.015 140.723C280.015 139.858 280.716 139.157 281.582 139.157C282.448 139.157 283.15 139.858 283.15 140.723Z" fill="#BDBDBD"/>
<path d="M291.068 140.723C291.068 141.587 290.366 142.289 289.499 142.289C288.633 142.289 287.931 141.589 287.931 140.723C287.931 139.858 288.633 139.157 289.499 139.157C290.366 139.157 291.068 139.858 291.068 140.723Z" fill="#BDBDBD"/>
<path d="M382.025 211.098H266.73V220.765H382.025V211.098Z" fill="#424242"/>
<path d="M376.13 214.78H272.625C271.987 214.78 271.472 215.296 271.472 215.931C271.472 216.568 271.987 217.083 272.625 217.083H376.13C376.768 217.083 377.283 216.566 377.283 215.931C377.283 215.295 376.766 214.78 376.13 214.78Z" fill="#616161"/>
<path d="M272.625 214.78C271.987 214.78 271.472 215.296 271.472 215.931C271.472 216.568 271.987 217.083 272.625 217.083H314.58V214.779H272.625V214.78Z" fill="#EF5350"/>
<path d="M317.136 215.931C317.136 217.341 315.992 218.484 314.58 218.484C313.168 218.484 312.024 217.341 312.024 215.931C312.024 214.521 313.168 213.379 314.58 213.379C315.992 213.379 317.136 214.521 317.136 215.931Z" fill="#BDBDBD"/>
<path d="M306.929 162.358V194.152L341.826 178.255L306.929 162.358Z" fill="#EEEEEE"/>
<path d="M404.631 177.561C405.614 177.561 406.411 178.357 406.411 179.338V194.089C406.411 195.07 405.614 195.865 404.631 195.865H394.908V177.56L404.631 177.561Z" fill="#1E88E5"/>
<path d="M375.072 173.232H380.963V166.447C380.963 164.569 382.488 163.046 384.368 163.046C386.248 163.046 387.773 164.569 387.773 166.447V173.243C387.779 175.63 389.718 177.562 392.11 177.562V195.866H375.074C370.95 195.866 367.607 192.528 367.607 188.41V180.688C367.606 176.57 370.949 173.232 375.072 173.232Z" fill="white"/>
<path d="M394.908 182.826V177.562H404.631C405.614 177.562 406.411 178.358 406.411 179.339V182.826H394.908Z" fill="#42A5F5"/>
<path d="M394.219 195.866V177.561C394.219 177.181 394.527 176.874 394.908 176.874H404.631C405.992 176.874 407.099 177.98 407.099 179.339V194.09C407.099 195.449 405.992 196.555 404.631 196.555H394.908C394.527 196.555 394.219 196.246 394.219 195.866ZM395.597 178.25V195.179H404.633C405.233 195.179 405.722 194.691 405.722 194.09V179.339C405.722 178.738 405.233 178.25 404.633 178.25H395.597Z" fill="#1565C0"/>
<path d="M366.916 188.41V180.688C366.916 176.197 370.575 172.543 375.072 172.543H380.274V166.445C380.274 164.191 382.11 162.358 384.368 162.358C386.625 162.358 388.461 164.191 388.461 166.445V173.24C388.466 175.244 390.103 176.875 392.11 176.875C392.49 176.875 392.798 177.183 392.798 177.562V195.866C392.798 196.246 392.49 196.555 392.11 196.555H375.074C370.575 196.555 366.916 192.901 366.916 188.41ZM391.419 178.204C388.978 177.867 387.088 175.771 387.082 173.243V166.447C387.082 164.952 385.864 163.735 384.367 163.735C382.869 163.735 381.651 164.952 381.651 166.447V173.232C381.651 173.612 381.344 173.919 380.962 173.919H375.072C371.335 173.919 368.294 176.955 368.294 180.688V188.41C368.294 192.142 371.334 195.179 375.072 195.179H391.419V178.204Z" fill="#E0E0E0"/>
<path d="M398.948 182.605C398.948 183.548 399.714 184.313 400.659 184.313C401.603 184.313 402.37 183.548 402.37 182.605C402.37 181.661 401.603 180.896 400.659 180.896C399.714 180.896 398.948 181.661 398.948 182.605Z" fill="white"/>
</svg>
