<svg version="1.2" xmlns="http://www.w3.org/2000/svg" viewBox="0 0 1000 738" width="1000" height="738"><style>tspan{white-space:pre}.a{font-size: 25px;fill: #1d262d;font-weight: bold;font-family: "Aller"}.b{fill:#6c8cff}.c{fill:#a6eaff}.d{fill:#6dd1fc}.e{mix-blend-mode:screen;fill:#6c8cff}.f{fill:none;stroke:#022235;stroke-linecap:round;stroke-linejoin:round;stroke-width:2.3}.g{fill:none;stroke:#022235;stroke-linecap:round;stroke-linejoin:round;stroke-width:2.3;stroke-dasharray:6.16568,6.16568}.h{fill:none;stroke:#022235;stroke-linecap:round;stroke-linejoin:round;stroke-width:2.3;stroke-dasharray:6.49524,6.49524}.i{fill:#6dd1fc;stroke:#1d1d1b;stroke-miterlimit:10;stroke-width:2.3}.j{fill:#fdd622;stroke:#022235;stroke-miterlimit:10;stroke-width:1.2}.k{fill:none;stroke:#022235;stroke-linecap:round;stroke-linejoin:round;stroke-width:2.3;stroke-dasharray:6.81196}.l{fill:#fdd622}.m{fill:#26ef77}.n{fill:none;stroke:#1d1d1b;stroke-linecap:round;stroke-linejoin:round;stroke-width:1.8}.o{fill:#f44242}.p{fill:#fff}.q{fill:#fdd622;stroke:#022235;stroke-miterlimit:10;stroke-width:1.1}.r{fill:#ea3332}.s{fill:none;stroke:#022235;stroke-miterlimit:10;stroke-width:1.1}.t{fill:#ced8db}.u{fill:none;stroke:#1d1d1b;stroke-linecap:round;stroke-miterlimit:10;stroke-width:2.3}.v{fill:none;stroke:#1d1d1b;stroke-linecap:round;stroke-linejoin:round;stroke-width:2.2}.w{fill:#e15758;stroke:#1d1d1b;stroke-miterlimit:10;stroke-width:2.3}.x{fill:#2fd845;stroke:#1d1d1b;stroke-miterlimit:10;stroke-width:2.3}.y{fill:#fff200;stroke:#1d1d1b;stroke-miterlimit:10;stroke-width:2.3}.z{fill:#ced8db;stroke:#1d1d1b;stroke-miterlimit:10;stroke-width:2.3}.A{fill:none;stroke:#1d1d1b;stroke-linecap:round;stroke-linejoin:round;stroke-width:2.3}.B{opacity:.3;mix-blend-mode:multiply}.C{fill:#fff;stroke:#1d1d1b;stroke-miterlimit:10;stroke-width:2.3}.D{fill:#fff200;stroke:#022235;stroke-miterlimit:10;stroke-width:2.3}.E{fill:#2fd845;stroke:#022235;stroke-miterlimit:10;stroke-width:2.3}.F{fill:#e25656;stroke:#022235;stroke-miterlimit:10;stroke-width:2.3}.G{fill:#9ab1b7}.H{fill:none;stroke:#1d1d1b;stroke-linecap:round;stroke-linejoin:round;stroke-width:1.9}.I{opacity:.2;mix-blend-mode:multiply}.J{fill:#fff;stroke:#022235;stroke-linecap:round;stroke-linejoin:round;stroke-width:2.3}.K{fill:#fff;stroke:#022235;stroke-miterlimit:10;stroke-width:2.3}.L{fill:#9added}.M{fill:#fff200;stroke:#022235;stroke-miterlimit:10;stroke-width:1.1}.N{fill:#2fd845;stroke:#022235;stroke-miterlimit:10;stroke-width:1.1}.O{fill:#e25656;stroke:#022235;stroke-miterlimit:10;stroke-width:1.1}.P{fill:none;stroke:#022235;stroke-miterlimit:10;stroke-width:3.1}.Q{fill:#fcffff}.R{fill:none;stroke:#003144;stroke-linecap:round;stroke-linejoin:round;stroke-width:3.1}.S{fill:#2fd845;stroke:#1d1d1b;stroke-miterlimit:10;stroke-width:1.1}.T{fill:none;stroke:#f44242;stroke-miterlimit:10;stroke-width:2.3}.U{mix-blend-mode:screen;fill:#fdd622}.V{fill:#022235}.W{fill:#fdd622;stroke:#022235;stroke-miterlimit:10;stroke-width:1.4}.X{fill:none;stroke:#022235;stroke-miterlimit:10;stroke-width:1.4}.Y{fill:#dc883b;stroke:#022235;stroke-miterlimit:10;stroke-width:2.5}</style><text style="transform:matrix(2,0,0,2,500.152,66.766)" ><tspan x="-156" y="0" class="a">CONTENT MARKETING</tspan><tspan  y="0" class="a">
</tspan><tspan x="-65.2" y="30.3" class="a">P</tspan><tspan  y="30.3" class="a">R</tspan><tspan  y="30.3" class="a">O</tspan><tspan  y="30.3" class="a">C</tspan><tspan  y="30.3" class="a">E</tspan><tspan  y="30.3" class="a">S</tspan><tspan  y="30.3" class="a">S</tspan><tspan  y="30.3" class="a">
</tspan></text><g style="opacity:.5"><g style="mix-blend-mode:screen"><path class="b" d="m241.6 694.4c-0.8 0-1.6-0.3-2.1-0.9-45-55.6-69.7-125.6-69.7-197.3 0-41.1 7.8-81.1 23.2-118.8 0.6-1.3 2.1-2 3.5-1.4 1.3 0.5 1.9 2.1 1.4 3.4-15.2 37.1-22.9 76.4-22.9 116.8 0 70.5 24.3 139.3 68.6 194 0.9 1.1 0.7 2.7-0.4 3.7-0.5 0.3-1.1 0.5-1.6 0.5z"/></g><g style="mix-blend-mode:screen"><path class="b" d="m725.2 694.5c-0.6 0-1.2-0.2-1.6-0.6-1.2-0.9-1.3-2.5-0.4-3.7 39.8-49.1 63.3-108.5 67.8-171.5 0.1-1.4 1.3-2.5 2.8-2.4 1.4 0.1 2.5 1.3 2.4 2.8-4.6 64.1-28.4 124.4-69 174.4-0.5 0.7-1.2 1-2 1z"/></g><g style="mix-blend-mode:screen"><path class="b" d="m793.3 472.3c-1.3 0-2.5-1.1-2.6-2.4-13.4-158.2-148.4-282.1-307.3-282.1-103.5 0-199.5 51.5-256.9 137.7-0.8 1.2-2.4 1.6-3.6 0.8-1.2-0.8-1.6-2.5-0.8-3.7 58.4-87.7 156.1-140 261.3-140 79.1 0 154.7 29.5 212.7 83.2 57.8 53.3 93.2 125.6 99.8 203.6 0.1 1.5-0.9 2.7-2.4 2.8q-0.1 0.1-0.2 0.1z"/></g><g style="mix-blend-mode:screen"><path class="b" d="m241.5 654.2c-30.1-46.5-46-100.6-46-156.2 0-158.8 129.1-288 287.9-288 158.8 0 287.9 129.2 287.9 288 0 39-7.6 76.8-22.7 112.3l-8.6 17.2-3.4-22.3c14.4-33.9 21.7-70 21.7-107.2 0-151.6-123.3-274.9-274.9-274.9-151.6 0-274.9 123.3-274.9 274.9 0 53.1 15.2 104.7 44 149.1z"/></g></g><path fill-rule="evenodd" class="c" d="m389.1 348.1c-7.9 3.7-17.2 0.4-20.7-7.2-3.6-7.7 0-16.9 7.9-20.5 8-3.7 17.3-0.4 20.8 7.2 3.5 7.7 0 16.9-8 20.5zm2-6.4c0-0.3-0.4-1.4-1.2-3.6-1.1-2.9-2.6-7-3.9-10.9l-1.2-0.1c-4.1 6.4-8.7 5.3-8.9 5.3l-0.6 1 8.9 12c0.1 0.1 0.3 0.2 0.5 0.2q0.2 0 0.4-0.1c0.3-0.2 0.4-0.6 0.1-0.9l-8.1-10.8c1.9-0.1 5-0.9 8.1-5 1.2 3.6 2.5 7.2 3.4 9.7 0.7 1.9 1.2 3.3 1.3 3.6 0.1 0.3 0.4 0.5 0.8 0.4 0.3-0.1 0.5-0.4 0.4-0.8z"/><path class="c" d="m374.5 318.2q-0.1 0.1-0.3 0.2c-0.5 0.3-1.2 0.1-1.6-0.5l-4.5-8.2c-0.3-0.5-0.1-1.3 0.5-1.6 0.6-0.3 1.3-0.1 1.6 0.5l4.5 8.2c0.3 0.5 0.1 1.1-0.2 1.4z"/><path class="c" d="m389.4 317.1c-0.2 0.3-0.6 0.4-1 0.3-0.6-0.2-1-0.8-0.8-1.4l1.6-5.6c0.1-0.6 0.8-0.9 1.4-0.8 0.6 0.2 0.9 0.8 0.7 1.4l-1.5 5.6q-0.1 0.3-0.4 0.5z"/><path class="c" d="m406.6 323.1q-0.2 0.1-0.3 0.2l-5.7 2.6c-0.6 0.3-1.2 0-1.5-0.6-0.2-0.5 0-1.2 0.6-1.4l5.6-2.7c0.6-0.2 1.3 0 1.5 0.6 0.2 0.5 0.1 1-0.2 1.3z"/><path class="c" d="m365.8 341.9q-0.1 0.1-0.3 0.2l-5.9 2.7c-0.5 0.3-1.2 0-1.5-0.6-0.3-0.5 0-1.2 0.6-1.5l5.9-2.7c0.5-0.3 1.2 0 1.5 0.6 0.2 0.4 0.1 1-0.3 1.3z"/><path class="c" d="m365.1 329.9c-0.3 0.3-0.7 0.4-1.2 0.3l-5-1.8c-0.6-0.2-0.9-0.9-0.7-1.5 0.2-0.6 0.8-0.9 1.4-0.7l5.1 1.8c0.6 0.2 0.9 0.9 0.7 1.5q-0.1 0.3-0.3 0.4z"/><path class="c" d="m398.6 348.7l-11.4 6.1c-0.6 0.3-1.2 0.1-1.5-0.5l-0.6-1c-0.3-0.6-0.1-1.2 0.5-1.5l11.4-6.1c0.5-0.3 1.2-0.1 1.5 0.5l0.5 1c0.3 0.5 0.1 1.2-0.4 1.5z"/><path class="c" d="m397.7 350.9l-8.3 4.3c-0.1 0.1-0.2 0.4-0.1 0.5l0.7 1.4c0.1 0.2 0.3 0.2 0.5 0.1l0.5-0.2q0.1 0.2 0.2 0.4c0.9 1.8 3.3 2.3 5.3 1.2 2.1-1.1 3-3.3 2-5.1q-0.1-0.2-0.2-0.4l0.5-0.2c0.1-0.1 0.2-0.4 0.1-0.5l-0.7-1.4c-0.1-0.2-0.3-0.2-0.5-0.1z"/><path class="c" d="m617.9 332.2c-1.4 4.5-6.3 6.9-10.7 5.4-4.5-1.4-7-6.2-5.5-10.7 1.5-4.5 6.3-6.9 10.8-5.5 4.4 1.5 6.9 6.3 5.4 10.8z"/><path fill-rule="evenodd" class="d" d="m606.8 338.7c-5-1.7-7.8-7.1-6.1-12.2 1.6-5 7.1-7.8 12.1-6.1 5 1.6 7.8 7.1 6.2 12.1-1.7 5.1-7.1 7.8-12.2 6.2zm5.3-16.2c-3.9-1.3-8.1 0.8-9.4 4.7-1.2 3.9 0.9 8.1 4.8 9.4 3.9 1.3 8.1-0.9 9.4-4.8 1.3-3.9-0.9-8.1-4.8-9.3z"/><path class="c" d="m606.2 335.7c0 0-11.9-2.9-15 6.7-3.2 9.7-2.5 8.3-3.1 10.1 3.7 6 17.3 11.9 27.1 7.7 2-6.4 3.3-10.2 3.5-11.4 0.2-1.3 2.3-8.8-12.5-13.1z"/><path fill-rule="evenodd" class="d" d="m599.3 361.3c-5.5-1.8-10.1-5-12.1-8.2-0.2-0.3-0.2-0.6-0.1-0.9 0.1-0.6 0.2-0.8 0.3-1.1 0.2-0.9 0.5-2.2 2.8-9 2.7-8.4 11.8-8.6 16.2-7.5q0.1 0 0.1 0c12.6 3.7 14.2 9.7 13.3 14.2v0.1c-0.3 1.4-1.4 5-3.6 11.6-0.1 0.3-0.3 0.6-0.6 0.7-5.1 2.2-11.1 1.8-16.3 0.1zm-10-9c3.8 5.5 16 10.6 25 7.1 1.9-5.8 3.1-9.7 3.3-10.8l0.1-0.2c1.2-6.5-5.7-9.9-11.8-11.7-0.7-0.1-10.9-2.4-13.7 6.1-2.2 6.7-2.5 8-2.7 8.8-0.1 0.3-0.1 0.5-0.2 0.7zm-0.2 0.5z"/><path class="c" d="m583.3 320.9c-1.5 4.4-6.3 6.9-10.8 5.4-4.5-1.5-6.9-6.3-5.5-10.7 1.5-4.5 6.3-7 10.8-5.5 4.5 1.5 6.9 6.3 5.5 10.8z"/><path fill-rule="evenodd" class="d" d="m572.2 327.3c-5.1-1.6-7.8-7-6.2-12.1 1.7-5 7.1-7.8 12.1-6.1 5.1 1.6 7.8 7 6.2 12.1-1.7 5-7.1 7.8-12.1 6.1zm5.3-16.2c-3.9-1.2-8.1 0.9-9.4 4.8-1.3 3.9 0.8 8.1 4.7 9.4 3.9 1.2 8.1-0.9 9.4-4.8 1.3-3.9-0.8-8.1-4.7-9.4z"/><path class="c" d="m583.9 333.1c-3.8-0.1-9.6 0.8-11.7 7.2-2.9 8.9-2.5 8.3-3 9.7-6.9-1.1-13.4-5-15.8-8.8 0.6-1.8 0-0.4 3.1-10.1 3.2-9.6 15-6.7 15-6.7 8.5 2.4 11.5 5.9 12.4 8.7z"/><path class="e" d="m584 337.4c-0.2 1.3-1.4 5.1-3.5 11.5-3.5 1.5-7.4 1.7-11.3 1.1 0.5-1.4 0.1-0.8 3-9.7 2.1-6.4 7.9-7.3 11.7-7.2 0.7 2.1 0.2 3.8 0.1 4.3z"/><path fill-rule="evenodd" class="d" d="m564.6 350c-5.4-1.8-10.1-5-12.1-8.3-0.2-0.2-0.2-0.6-0.1-0.9 0.2-0.5 0.2-0.7 0.3-1.1 0.2-0.8 0.6-2.2 2.8-8.9 2.7-8.4 11.8-8.6 16.3-7.5q0 0 0 0c12.6 3.6 14.2 9.7 13.3 14.2v0.1c-0.2 1.4-1.4 5-3.6 11.6-0.1 0.3-0.3 0.5-0.6 0.7-5.1 2.2-11.1 1.8-16.3 0.1zm-10-9c3.9 5.5 16.1 10.6 25 7.1 1.9-5.9 3.2-9.7 3.4-10.9v-0.2c1.3-6.4-5.7-9.8-11.8-11.6-0.6-0.1-10.9-2.4-13.6 6-2.2 6.8-2.6 8.1-2.8 8.9 0 0.2-0.1 0.4-0.2 0.7zm-0.1 0.5z"/><path class="c" d="m599 330c-1.5 4.5-6.3 6.9-10.8 5.5-4.5-1.5-6.9-6.3-5.4-10.8 1.4-4.5 6.2-6.9 10.7-5.5 4.5 1.5 6.9 6.3 5.5 10.8z"/><path fill-rule="evenodd" class="d" d="m587.9 336.5c-5.1-1.7-7.8-7.1-6.2-12.1 1.7-5.1 7.1-7.8 12.2-6.2 5 1.7 7.8 7.1 6.1 12.1-1.6 5.1-7.1 7.8-12.1 6.2zm5.3-16.2c-3.9-1.3-8.1 0.8-9.4 4.7-1.3 3.9 0.9 8.1 4.8 9.4 3.9 1.3 8.1-0.8 9.3-4.7 1.3-3.9-0.8-8.1-4.7-9.4z"/><path class="c" d="m599.8 346.6c-0.3 1.2-1.5 5-3.6 11.4-9.8 4.3-23.3-1.7-27.1-7.7q0.1-0.2 0.1-0.3c0.5-1.4 0.1-0.8 3-9.7 2.1-6.4 7.9-7.3 11.7-7.2 2 0.1 3.3 0.4 3.3 0.4 14.9 4.3 12.8 11.8 12.6 13.1z"/><path fill-rule="evenodd" class="d" d="m580.3 359.2c-5.4-1.8-10.1-5.1-12.1-8.3-0.1-0.3-0.2-0.6-0.1-0.9 0.2-0.5 0.2-0.8 0.3-1.1 0.2-0.8 0.6-2.2 2.8-9 2.8-8.4 11.9-8.5 16.3-7.4q0 0 0 0c12.6 3.6 14.2 9.7 13.4 14.1l-0.1 0.2c-0.2 1.3-1.4 4.9-3.6 11.5 0 0.3-0.3 0.6-0.6 0.7-5.1 2.2-11 1.9-16.3 0.2zm-10-9.1c3.9 5.5 16.1 10.6 25 7.1 1.9-5.8 3.2-9.7 3.4-10.8v-0.2c1.3-6.4-5.7-9.9-11.7-11.6-0.7-0.2-11-2.5-13.7 6-2.2 6.7-2.6 8-2.8 8.8 0 0.3-0.1 0.5-0.2 0.7zm-0.1 0.5z"/><g style="mix-blend-mode:screen"><path fill-rule="evenodd" class="b" d="m282.3 222.4c-10.1 0-18.4-8.3-18.4-18.4 0-10.1 8.3-18.3 18.4-18.3 10.1 0 18.3 8.2 18.3 18.3 0 10.1-8.2 18.4-18.3 18.4zm0-35.3c-9.4 0-17 7.6-17 16.9 0 9.4 7.6 17 17 17 9.3 0 16.9-7.6 16.9-17 0-9.3-7.6-16.9-16.9-16.9z"/><path class="b" d="m281.5 214h-0.3q-0.9 0-1.6-0.1-0.7 0-1.3-0.1-0.6-0.2-1.3-0.3-0.6-0.2-1.3-0.5 0.1-0.8 0.3-1.6 0.2-0.8 0.5-1.7 1.2 0.5 2.2 0.7 1 0.1 2.1 0.1 1.8 0 2.7-0.5 0.9-0.6 0.9-1.9 0-0.7-0.2-1.1-0.3-0.4-0.7-0.7-0.4-0.3-0.9-0.5-0.5-0.2-0.9-0.4l-1.5-0.6q-0.9-0.4-1.6-0.8-0.7-0.4-1.3-1-0.5-0.6-0.8-1.4-0.3-0.8-0.3-1.9 0-2.5 1.4-3.9 1.4-1.4 3.9-1.7v-2.9q0.5-0.2 1.1-0.2 0.6 0 1.2 0.2v2.8q1.1 0.1 2.1 0.3 1 0.2 2.2 0.6-0.2 1.6-0.9 3.1-0.4-0.1-0.8-0.3-0.5-0.2-0.9-0.3-0.5-0.1-1.1-0.1-0.6-0.1-1.4-0.1-0.4 0-0.9 0.1-0.5 0-0.9 0.2-0.4 0.3-0.6 0.7-0.3 0.4-0.3 1 0 0.5 0.2 0.9 0.2 0.4 0.6 0.6 0.3 0.3 0.7 0.5 0.4 0.2 0.8 0.4l1.6 0.6q1.1 0.5 1.9 0.9 0.9 0.4 1.5 1.1 0.5 0.6 0.9 1.5 0.3 0.8 0.3 2.2 0 2.2-1.3 3.7-1.2 1.6-3.7 2.1v3.2q-0.5 0.2-1.1 0.2-0.6 0-1.2-0.2z"/></g><g style="mix-blend-mode:screen"><path fill-rule="evenodd" class="b" d="m616.8 186.9c-2 0-4-0.3-5.9-1-4.6-1.5-8.4-4.8-10.5-9.2-2.2-4.4-2.5-9.4-1-14 1.6-4.6 4.9-8.4 9.3-10.5 4.3-2.2 9.3-2.5 14-1 4.6 1.6 8.3 4.9 10.5 9.3 2.2 4.3 2.5 9.3 0.9 13.9-1.5 4.7-4.8 8.4-9.2 10.6-2.6 1.3-5.3 1.9-8.1 1.9zm0-35.3c-2.6 0-5.2 0.6-7.5 1.8-4.1 2-7.1 5.5-8.6 9.8-1.4 4.2-1.1 8.8 0.9 12.9 2 4 5.5 7.1 9.8 8.5 4.2 1.5 8.8 1.2 12.9-0.8 4-2.1 7.1-5.5 8.5-9.8 1.5-4.3 1.2-8.9-0.8-12.9-2-4.1-5.5-7.1-9.8-8.6-1.8-0.6-3.6-0.9-5.4-0.9z"/><path class="b" d="m612.8 177.8l-0.2-0.1q-0.8-0.3-1.5-0.6-0.6-0.3-1.2-0.6-0.6-0.3-1.1-0.7-0.5-0.4-1.1-0.8 0.3-0.8 0.8-1.5 0.5-0.6 1-1.4 1 0.8 1.9 1.3 0.9 0.5 2 0.9 1.6 0.5 2.7 0.3 1-0.3 1.5-1.5 0.2-0.6 0.1-1.1-0.2-0.5-0.4-0.9-0.3-0.4-0.7-0.7-0.4-0.3-0.8-0.7l-1.2-1.1q-0.7-0.6-1.3-1.2-0.5-0.7-0.8-1.4-0.4-0.7-0.4-1.6 0-0.8 0.4-1.9 0.8-2.3 2.5-3.2 1.8-0.9 4.2-0.4l0.9-2.7q0.6 0 1.2 0.2 0.6 0.2 1.1 0.5l-0.9 2.7q1 0.4 1.9 0.9 0.9 0.6 1.8 1.3-0.7 1.4-1.8 2.7-0.4-0.3-0.7-0.6-0.4-0.3-0.8-0.6-0.4-0.2-0.9-0.5-0.6-0.2-1.3-0.5-0.4-0.1-0.9-0.2-0.5-0.1-0.9 0-0.4 0.1-0.8 0.4-0.4 0.3-0.6 0.9-0.1 0.5-0.1 0.9 0.1 0.4 0.3 0.8 0.2 0.3 0.6 0.6 0.3 0.3 0.6 0.6l1.3 1.2q0.9 0.7 1.5 1.4 0.7 0.7 1.1 1.5 0.3 0.7 0.4 1.7 0 0.9-0.4 2.2-0.8 2.1-2.5 3.2-1.7 1-4.1 0.8l-1 3q-0.6-0.1-1.2-0.3-0.6-0.2-1.1-0.5z"/></g><g style="mix-blend-mode:screen"><path fill-rule="evenodd" class="b" d="m106.2 461.6q-1 0-2-0.1c-4.8-0.6-9.2-2.9-12.3-6.7-3.1-3.8-4.5-8.6-4-13.5 0.5-4.9 2.9-9.2 6.7-12.3 3.8-3.1 8.6-4.5 13.5-4 4.8 0.5 9.2 2.9 12.3 6.7 6.3 7.9 5.1 19.4-2.7 25.8-3.3 2.6-7.3 4.1-11.5 4.1zm-0.1-35.3c-3.8 0-7.6 1.3-10.6 3.8-3.5 2.8-5.7 6.9-6.2 11.4-0.5 4.5 0.8 8.9 3.7 12.4 2.8 3.5 6.9 5.7 11.4 6.2 4.5 0.4 8.9-0.9 12.4-3.7 7.2-5.9 8.4-16.5 2.5-23.8-2.8-3.5-6.9-5.7-11.4-6.2q-0.9-0.1-1.8-0.1z"/><path class="b" d="m111.8 451.5l-0.2 0.1q-0.7 0.6-1.3 1-0.5 0.4-1.1 0.7-0.6 0.3-1.2 0.5-0.6 0.3-1.3 0.5-0.4-0.7-0.8-1.4-0.3-0.8-0.6-1.6 1.2-0.4 2-0.9 0.9-0.5 1.8-1.2 1.4-1.1 1.7-2.1 0.4-1.1-0.4-2.1-0.4-0.5-0.9-0.7-0.5-0.1-1-0.1-0.4 0-0.9 0.2-0.5 0.1-1 0.3l-1.6 0.4q-0.9 0.3-1.7 0.4-0.9 0.1-1.6 0-0.8-0.1-1.5-0.6-0.8-0.4-1.5-1.3-1.5-1.9-1.3-3.9 0.2-1.9 1.9-3.7l-1.8-2.3q0.3-0.4 0.8-0.8 0.4-0.4 1-0.6l1.8 2.1q0.9-0.6 1.8-1 0.9-0.5 2-0.9 0.9 1.3 1.3 3-0.4 0.1-0.8 0.2-0.5 0.2-0.9 0.4-0.5 0.2-1 0.5-0.5 0.3-1.1 0.8-0.3 0.3-0.7 0.7-0.3 0.3-0.4 0.7-0.2 0.4-0.1 0.9 0 0.5 0.4 1 0.3 0.4 0.7 0.6 0.4 0.1 0.8 0.1 0.5 0 0.9-0.1 0.4-0.1 0.9-0.2l1.7-0.5q1-0.3 2-0.5 0.9-0.2 1.7-0.1 0.9 0.1 1.7 0.6 0.8 0.5 1.6 1.5 1.4 1.7 1.4 3.7 0 2-1.5 4l2 2.4q-0.4 0.5-0.9 0.9-0.4 0.4-1 0.6z"/></g><g style="mix-blend-mode:screen"><path fill-rule="evenodd" class="b" d="m837.4 454.5c-7.4 0-14.5-4.6-17.2-12-3.5-9.5 1.4-20 10.9-23.5 4.5-1.7 9.5-1.5 14 0.5 4.4 2.1 7.8 5.7 9.5 10.3 3.5 9.5-1.4 20.1-10.9 23.6-2 0.7-4.2 1.1-6.3 1.1zm0-35.3c-2 0-4 0.4-5.9 1.1-8.7 3.2-13.2 13-10 21.7 3.2 8.8 13 13.3 21.8 10.1 8.7-3.3 13.2-13 10-21.8-1.6-4.2-4.7-7.6-8.8-9.5-2.3-1-4.7-1.6-7.1-1.6z"/><path class="b" d="m840.1 445.8l-0.2 0.1q-0.8 0.3-1.5 0.5-0.7 0.2-1.4 0.3-0.6 0.1-1.3 0.1-0.6 0.1-1.3 0-0.2-0.7-0.3-1.6-0.1-0.8-0.1-1.7 1.2 0 2.2-0.2 1-0.1 2.1-0.5 1.6-0.6 2.3-1.5 0.7-0.9 0.2-2.1-0.2-0.6-0.6-0.9-0.4-0.3-0.8-0.4-0.5-0.2-1-0.2-0.6 0-1.1 0l-1.5-0.1q-1-0.1-1.8-0.2-0.9-0.1-1.6-0.5-0.7-0.4-1.2-1-0.6-0.7-1-1.7-0.8-2.3 0-4.1 0.8-1.9 3-3l-1-2.7q0.5-0.3 1.1-0.6 0.5-0.2 1.1-0.2l1 2.6q1.1-0.3 2.1-0.4 1-0.1 2.2-0.2 0.4 1.6 0.2 3.2-0.4 0-0.8 0-0.5 0-1 0.1-0.5 0-1.1 0.2-0.5 0.1-1.3 0.4-0.4 0.1-0.8 0.4-0.4 0.2-0.7 0.5-0.3 0.4-0.4 0.8-0.1 0.5 0.1 1.1 0.2 0.5 0.5 0.8 0.3 0.3 0.7 0.4 0.4 0.1 0.9 0.2 0.4 0 0.9 0l1.7 0.1q1.2 0 2.1 0.2 0.9 0.1 1.7 0.4 0.8 0.4 1.4 1.1 0.6 0.8 1.1 2 0.7 2.1 0.1 4-0.7 1.9-2.8 3.2l1.1 3q-0.5 0.3-1 0.5-0.6 0.3-1.2 0.3z"/></g><path fill-rule="evenodd" class="c" d="m269.4 510.8q-1 0-2-0.1c-4.9-0.5-9.2-2.9-12.3-6.7-3.1-3.8-4.5-8.6-4-13.4 0.5-4.9 2.9-9.3 6.7-12.3 3.8-3.1 8.6-4.5 13.5-4 4.8 0.5 9.2 2.9 12.3 6.7 6.3 7.8 5.1 19.4-2.7 25.8-3.3 2.6-7.3 4-11.5 4zm-0.1-35.2c-3.8 0-7.6 1.3-10.6 3.7-3.5 2.9-5.7 6.9-6.2 11.4-0.5 4.5 0.8 8.9 3.7 12.4 2.8 3.6 6.9 5.8 11.4 6.2 4.5 0.5 8.9-0.8 12.4-3.6 7.2-5.9 8.4-16.6 2.5-23.8-2.8-3.6-6.9-5.8-11.4-6.2q-0.9-0.1-1.8-0.1z"/><path class="c" d="m263.1 487.4v10.2c0 1.6 1.7 2.6 3.1 1.8l8.4-5.1c1.3-0.7 1.3-2.6 0-3.4l-8.4-5.2c-1.4-0.9-3.1 0.1-3.1 1.7z"/><path class="f" d="m229 403.5c0 0.5 0 1.7 0 3.4"/><path class="g" d="m229 413.1c0 10 0 25.3 0 33.9"/><path class="f" d="m229 450.1c0 2.1 0 3.4 0 3.4h3.4"/><path class="h" d="m238.9 453.5h48.7"/><path class="f" d="m290.8 453.5h3.4"/><path class="i" d="m287 356.2c0 32.5-26.3 58.9-58.8 58.9-32.5 0-58.9-26.4-58.9-58.9 0-32.5 26.4-58.8 58.9-58.8 32.5 0 58.8 26.3 58.8 58.8z"/><path fill-rule="evenodd" class="j" d="m236.3 347.3c-0.4 0.6-2.2 1.1-4 1.4q0.2 2.4-0.2 4.7c1.7 0.5 3.5 1.2 3.7 1.8 0.6 1.4-3.2 9.7-4.8 10.1-0.8 0.2-2.4-0.7-3.8-1.7q-1.6 1.7-3.5 3.1c0.9 1.6 1.6 3.2 1.3 4-0.5 1.6-9.2 4.4-10.5 3.7-0.7-0.3-1.1-2.1-1.5-3.9q-2.3 0.1-4.6-0.3c-0.5 1.7-1.2 3.4-1.9 3.8-1.5 0.7-9.7-3.4-10.1-4.9-0.2-0.7 0.7-2.3 1.8-3.8q-1.8-1.5-3.1-3.4c-1.6 0.8-3.3 1.6-4 1.3-1.6-0.6-4.5-9.3-3.8-10.6 0.4-0.6 2.2-1.1 4-1.4q-0.1-2.4 0.2-4.7c-1.7-0.5-3.4-1.1-3.7-1.9-0.7-1.5 3.4-9.6 4.8-10.1 0.7-0.2 2.3 0.8 3.8 1.8q1.6-1.7 3.5-3.1c-0.9-1.6-1.6-3.3-1.3-4 0.5-1.4 9.1-4.6 10.5-3.7 0.7 0.4 1.2 2.2 1.5 3.9q2.3-0.1 4.6 0.3c0.6-1.8 1.2-3.5 1.9-3.8 1.4-0.5 9.7 3.2 10.1 4.8 0.2 0.8-0.7 2.4-1.7 3.9q1.7 1.5 3.1 3.4c1.6-0.8 3.3-1.6 3.9-1.3 1.4 0.6 4.6 9.1 3.8 10.6zm-19.8 16c7.3-2.6 11.2-10.7 8.6-18-2.6-7.4-10.6-11.3-18-8.7-7.3 2.6-11.2 10.7-8.6 18 2.6 7.4 10.6 11.3 18 8.7z"/><path fill-rule="evenodd" class="j" d="m273.2 356.1c-0.3 0.5-1.5 0.8-2.8 1q0.1 1.7-0.2 3.3c1.3 0.3 2.5 0.8 2.7 1.3 0.4 1-2.3 6.8-3.4 7.1-0.5 0.1-1.7-0.5-2.7-1.3q-1.1 1.3-2.4 2.2c0.6 1.1 1.1 2.3 0.9 2.8-0.4 1.1-6.5 3.1-7.4 2.6-0.4-0.2-0.8-1.5-1-2.7q-1.7 0.1-3.3-0.2c-0.3 1.2-0.8 2.4-1.3 2.6-1.1 0.5-6.8-2.4-7.1-3.4-0.1-0.4 0.5-1.6 1.3-2.6q-1.3-1.1-2.2-2.5c-1.1 0.6-2.3 1.1-2.8 1-1.1-0.4-3.1-6.5-2.6-7.4 0.2-0.5 1.5-0.8 2.7-1.1q-0.1-1.6 0.2-3.2c-1.2-0.4-2.4-0.8-2.6-1.4-0.5-1 2.4-6.7 3.4-7 0.5-0.2 1.6 0.5 2.6 1.2q1.1-1.2 2.5-2.2c-0.6-1.1-1.2-2.3-1-2.8 0.4-0.9 6.4-3.2 7.4-2.6 0.5 0.3 0.9 1.6 1.1 2.8q1.6-0.1 3.2 0.2c0.4-1.3 0.9-2.5 1.3-2.7 1-0.4 6.8 2.3 7.1 3.4 0.2 0.5-0.5 1.7-1.2 2.7q1.2 1.1 2.2 2.4c1.1-0.6 2.3-1.1 2.8-0.9 1 0.4 3.2 6.4 2.6 7.4zm-13.9 11.2c5.2-1.8 7.9-7.5 6.1-12.6-1.8-5.2-7.5-7.9-12.7-6.1-5.1 1.9-7.8 7.5-6 12.7 1.8 5.1 7.5 7.8 12.6 6z"/><path fill-rule="evenodd" class="j" d="m245.3 381.1c-0.2 0.4-1 0.6-1.8 0.7q0.1 1.1-0.1 2.1c0.8 0.2 1.6 0.5 1.7 0.8 0.3 0.6-1.4 4.3-2.1 4.5-0.4 0.1-1.1-0.3-1.7-0.8q-0.7 0.8-1.6 1.4c0.4 0.7 0.7 1.5 0.6 1.8-0.3 0.7-4.1 2-4.7 1.6-0.3-0.1-0.5-0.9-0.6-1.7q-1.1 0.1-2.1-0.1c-0.2 0.7-0.5 1.5-0.9 1.7-0.6 0.3-4.3-1.6-4.5-2.2 0-0.3 0.4-1 0.8-1.7q-0.7-0.7-1.4-1.5c-0.6 0.3-1.4 0.7-1.7 0.5-0.7-0.2-2-4.1-1.7-4.7 0.2-0.2 1-0.5 1.8-0.6q-0.1-1.1 0.1-2.1c-0.8-0.2-1.5-0.5-1.7-0.8-0.3-0.7 1.5-4.3 2.2-4.5 0.3-0.1 1 0.3 1.7 0.8q0.6-0.8 1.5-1.4c-0.4-0.7-0.7-1.5-0.6-1.8 0.3-0.6 4.1-2 4.7-1.6 0.3 0.1 0.5 0.9 0.7 1.7q1 0 2 0.1c0.3-0.8 0.6-1.5 0.9-1.7 0.6-0.2 4.3 1.5 4.5 2.2 0 0.3-0.4 1.1-0.8 1.7q0.8 0.7 1.4 1.5c0.7-0.3 1.4-0.7 1.7-0.6 0.7 0.3 2.1 4.1 1.7 4.7zm-8.8 7.2c3.3-1.2 5-4.8 3.8-8-1.1-3.3-4.7-5-8-3.9-3.3 1.2-5 4.8-3.8 8 1.1 3.3 4.7 5 8 3.9z"/><path class="k" d="m486.6 278.4v105"/><path class="k" d="m657.5 466.5h74.1v-53"/><path class="i" d="m545.2 209.2c0 32.4-26.4 58.8-58.9 58.8-32.4 0-58.8-26.4-58.8-58.8 0-32.5 26.4-58.9 58.8-58.9 32.5 0 58.9 26.4 58.9 58.9z"/><path class="l" d="m490.6 185l-19 10.5v20.9l19 10.8z"/><path class="m" d="m497.5 233.8h-2.2c-2.5 0-4.6-2-4.6-4.5v-46.7c0-2.5 2.1-4.5 4.6-4.5h2.2c2.5 0 4.5 2 4.5 4.5v46.7c0 2.5-2 4.5-4.5 4.5z"/><path class="m" d="m451.1 195.5v0.4 20.5 14.9c0 2.4 2 4.4 4.4 4.4 2.5 0 4.5-2 4.5-4.4v-14.9h11.6v-20.9z"/><path class="n" d="m451.1 195.5v0.4 20.5 14.9c0 2.4 2 4.4 4.4 4.4 2.5 0 4.5-2 4.5-4.4v-14.9h11.6v-20.9z"/><path class="n" d="m490.6 185l-19 10.5v20.9l19 10.8z"/><path class="n" d="m497.6 233.8h-2.2c-2.4 0-4.5-2-4.5-4.5v-46.7c0-2.5 2.1-4.5 4.5-4.5h2.2c2.5 0 4.6 2 4.6 4.5v46.7c0 2.5-2.1 4.5-4.6 4.5z"/><path class="n" d="m460.7 216.3h-9.3"/><path class="o" d="m465.1 205.7c0 2.3-1.9 4.2-4.1 4.2-2.3 0-4.2-1.9-4.2-4.2 0-2.3 1.9-4.1 4.2-4.1 2.2 0 4.1 1.8 4.1 4.1z"/><path class="n" d="m508.5 195l15.1-14.2"/><path class="n" d="m508.5 218.9l15.1 14.2"/><path class="n" d="m508.9 207.4h18.3"/><path class="i" d="m798.6 344.5c0 32.5-26.3 58.8-58.8 58.8-32.5 0-58.8-26.3-58.8-58.8 0-32.5 26.3-58.8 58.8-58.8 32.5 0 58.8 26.3 58.8 58.8z"/><path class="p" d="m771.3 326v36.9c0 6-4.8 10.8-10.8 10.8h-41.4c-6 0-10.8-4.8-10.8-10.8v-36.9q0-0.2 0-0.5c0.3-5.7 5-10.2 10.8-10.2h41.4c5.8 0 10.5 4.5 10.8 10.2q0 0.3 0 0.5z"/><path class="q" d="m771.3 325.5h-63c0.3-5.7 5-10.2 10.8-10.2h41.4c5.8 0 10.5 4.5 10.8 10.2z"/><path class="r" d="m763.5 364h-47.4v-1.4h47.4z"/><path class="l" d="m721.8 360.6h-5.7v-15.4h5.7z"/><path class="m" d="m729.5 360.6h-5.7v-21.5h5.7z"/><path class="l" d="m737 360.6h-5.7v-19h5.7z"/><path class="m" d="m744.5 360.6h-5.7v-29h5.7z"/><path class="l" d="m752 360.6h-5.6v-6.8h5.6z"/><path class="m" d="m759.6 360.6h-5.7v-21.5h5.7z"/><path class="s" d="m771.3 326v36.9c0 6-4.8 10.8-10.8 10.8h-41.4c-6 0-10.8-4.8-10.8-10.8v-36.9q0-0.2 0-0.5c0.3-5.7 5-10.2 10.8-10.2h41.4c5.8 0 10.5 4.5 10.8 10.2q0 0.3 0 0.5z"/><path class="d" d="m649.3 421.6v203.4c0 7.9-7.2 14.4-16 14.4h-311.7c-8.8 0-15.9-6.5-15.9-14.4v-203.4c0-8 7.1-14.4 15.9-14.4h311.7c8.8 0 16 6.4 16 14.4z"/><path class="d" d="m525.3 675.9l-89.3-0.4-4.4-0.1 6-46.1 78.4-3.5 0.2 1z"/><path class="t" d="m525.3 675.9l-89.3-0.4 5.9-45.4 74.3-3.3z"/><path class="u" d="m433.5 661l-1.9 14.4 93.8 0.5-9.4-50.1-78.4 3.4-2.3 17.6"/><path class="m" d="m648.9 421.6v203.4c0 7.9-7.2 14.4-16.1 14.4h-302.9c-8.9 0-16.1-6.5-16.1-14.4v-203.4c0-8 7.2-14.4 16.1-14.4h302.9c8.9 0 16.1 6.4 16.1 14.4z"/><path class="t" d="m607.2 616.8h-260.5c-8.1 0-14.7-6.6-14.7-14.7v-160.7c0-8.1 6.6-14.7 14.7-14.7h260.5c8.1 0 14.7 6.6 14.7 14.7v160.7c0 8.1-6.6 14.7-14.7 14.7z"/><path class="v" d="m547.7 616.8h-199.2c-9.3 0-16.7-7.4-16.7-16.6v-156.8c0-9.2 7.4-16.6 16.7-16.6h256.5c9.2 0 16.7 7.4 16.7 16.6v156.8c0 9.2-7.5 16.6-16.7 16.6h-28.5"/><path class="w" d="m339.9 629.8c0 2.3-1.9 4.2-4.2 4.2-2.3 0-4.2-1.9-4.2-4.2 0-2.3 1.9-4.2 4.2-4.2 2.3 0 4.2 1.9 4.2 4.2z"/><path class="x" d="m354.2 629.8c0 2.3-1.9 4.2-4.2 4.2-2.3 0-4.2-1.9-4.2-4.2 0-2.3 1.9-4.2 4.2-4.2 2.3 0 4.2 1.9 4.2 4.2z"/><path class="y" d="m368.2 629.8c0 2.3-1.9 4.2-4.2 4.2-2.3 0-4.2-1.9-4.2-4.2 0-2.3 1.9-4.2 4.2-4.2 2.3 0 4.2 1.9 4.2 4.2z"/><path class="z" d="m545.1 684.7h-136.8c-1.5 0-2.8-1.3-2.8-2.9v-6.5c0-1.6 1.3-2.8 2.8-2.8h136.8c1.6 0 2.9 1.2 2.9 2.8v6.5c0 1.6-1.3 2.9-2.9 2.9z"/><path class="v" d="m649.3 533.6v91.4c0 7.9-7.2 14.4-16 14.4h-311.7c-8.8 0-15.9-6.5-15.9-14.4v-162.8"/><path class="A" d="m305.7 448.5v-25.4c0-8.8 7.1-15.9 15.9-15.9h311.7c8.8 0 16 7.1 16 15.9v102.2"/><path class="f" d="m641.8 400.6c10.9 1 15.8 11.9 16.1 23.4"/><path class="f" d="m627.7 400.1c2.2 0 4.5-0.1 6.9 0"/><path class="y" d="m493.3 631.3h-23.9c-1.4 0-2.6-1.2-2.6-2.7v-0.7c0-1.5 1.2-2.6 2.6-2.6h23.9c1.4 0 2.6 1.1 2.6 2.6v0.7c0 1.5-1.2 2.7-2.6 2.7z"/><path class="B" d="m575.3 412.1c-2.9-2.3-6.6-3.7-10.5-3.7h-154.4c-3.7 0-7 1.1-9.8 3.1-4.3 3-7.2 8.1-7.2 13.8v118.8c0 9.3 7.6 16.9 17 16.9h154.4c9.3 0 16.9-7.6 16.9-16.9v-118.8c0-5.4-2.5-10.1-6.4-13.2z"/><path class="C" d="m568.6 412.2v118.8c0 9.3-7.6 16.9-16.9 16.9h-154.4c-9.4 0-17-7.6-17-16.9v-118.8c0-9.4 7.6-16.9 17-16.9h154.4c9.3 0 16.9 7.5 16.9 16.9z"/><path class="m" d="m568.6 412.2v5.6h-188.3v-5.6c0-9.4 7.6-16.9 17-16.9h154.4c9.3 0 16.9 7.5 16.9 16.9z"/><path class="A" d="m568.6 412.2v5.6h-188.3v-5.6c0-9.4 7.6-16.9 17-16.9h154.4c9.3 0 16.9 7.5 16.9 16.9z"/><path class="D" d="m403 405.6c0 2.7-2.2 4.9-4.9 4.9-2.7 0-4.9-2.2-4.9-4.9 0-2.7 2.2-4.9 4.9-4.9 2.7 0 4.9 2.2 4.9 4.9z"/><path class="E" d="m422.6 405.6c0 2.7-2.2 4.9-4.9 4.9-2.7 0-4.9-2.2-4.9-4.9 0-2.7 2.2-4.9 4.9-4.9 2.7 0 4.9 2.2 4.9 4.9z"/><path class="F" d="m442.1 405.6c0 2.7-2.2 4.9-4.9 4.9-2.7 0-4.9-2.2-4.9-4.9 0-2.7 2.2-4.9 4.9-4.9 2.7 0 4.9 2.2 4.9 4.9z"/><path class="G" d="m567.4 387.4q0.1-0.1 0-0.1 0 0 0 0.1z"/><path class="H" d="m420.5 436.5v88.4h117.4"/><path class="H" d="m413.6 445.2l6.7-9.3 6.8 8.7"/><path class="H" d="m530 518l9.3 6.6-8.7 6.9"/><path class="H" d="m436.7 452.9l27.7-7.8 27.2 24.5 16.8-14.7"/><path class="m" d="m439.5 452.9c0 1.5-1.2 2.8-2.8 2.8-1.5 0-2.8-1.3-2.8-2.8 0-1.6 1.3-2.9 2.8-2.9 1.6 0 2.8 1.3 2.8 2.9z"/><path class="l" d="m467.3 445.1c0 1.6-1.3 2.9-2.9 2.9-1.5 0-2.8-1.3-2.8-2.9 0-1.5 1.3-2.8 2.8-2.8 1.6 0 2.9 1.3 2.9 2.8z"/><path class="m" d="m494.4 469.6c0 1.6-1.2 2.9-2.8 2.9-1.6 0-2.8-1.3-2.8-2.9 0-1.5 1.2-2.8 2.8-2.8 1.6 0 2.8 1.3 2.8 2.8z"/><path class="l" d="m511.2 454.9c0 1.6-1.2 2.9-2.8 2.9-1.5 0-2.8-1.3-2.8-2.9 0-1.5 1.3-2.8 2.8-2.8 1.6 0 2.8 1.3 2.8 2.8z"/><path class="m" d="m449 520.8h-14.7v-42.5h14.7z"/><path class="l" d="m470.6 520.8h-14.6v-60.5h14.6z"/><path class="m" d="m492.6 520.8h-14.6v-18.7h14.6z"/><path class="l" d="m515 520.8h-14.7v-36.3h14.7z"/><path class="I" d="m734.4 577.6l-16.7-16.8q-0.1 0-0.1 0c-0.2-0.4-0.6-0.8-1.1-0.8h-80.9c-0.7 0-1.2 0.6-1.2 1.2v34.2h-72.4v92.7h73.6 39.7 58.1c0.6 0 1.2-0.5 1.2-1.1v-108.1c0 0 0 0 0-0.1 0.2-0.4 0.1-0.9-0.2-1.2z"/><path class="p" d="m740.1 578.7v85 5.8 5.4 12.1h-97.8v-125.8h80.9"/><path class="f" d="m740.1 674.9v12.1h-97.8v-125.8h80.9"/><path class="f" d="m740.1 578.7v85"/><path class="J" d="m740.3 578.4h-8.6c-4.5 0-8.1-3.6-8.1-8.1v-8.7z"/><path class="K" d=""/><path class="t" d="m722.3 595.5h-66.9v-1.2h66.9z"/><path class="t" d="m722.3 600.5h-66.9v-1.2h66.9z"/><path class="t" d="m722.3 605.5h-66.9v-1.2h66.9z"/><path class="t" d="m722.3 610.5h-66.9v-1.1h66.9z"/><path class="t" d="m722.3 615.6h-66.9v-1.2h66.9z"/><path class="t" d="m722.3 620.6h-66.9v-1.2h66.9z"/><path class="t" d="m722.3 625.6h-66.9v-1.2h66.9z"/><path class="t" d="m722.3 630.6h-66.9v-1.2h66.9z"/><path class="t" d="m722.3 635.6h-66.9v-1.2h66.9z"/><path class="t" d="m722.3 640.6h-66.9v-1.2h66.9z"/><path class="t" d="m722.3 645.6h-66.9v-1.1h66.9z"/><path class="t" d="m722.3 650.7h-66.9v-1.2h66.9z"/><path class="t" d="m722.3 655.7h-66.9v-1.2h66.9z"/><path class="t" d="m722.3 660.7h-66.9v-1.2h66.9z"/><path class="t" d="m722.3 665.7h-66.9v-1.2h66.9z"/><path class="t" d="m722.3 670.7h-66.9v-1.2h66.9z"/><path class="t" d="m722.3 675.7h-66.9v-1.2h66.9z"/><path class="L" d="m722.3 591.3h-66.9v-15.2h66.9z"/><path class="J" d="m590.6 596.5h90.3v90.5h-111v-90.5h6.4"/><path class="t" d="m646.3 625.8h-65.9v-1.2h65.9z"/><path class="t" d="m646.3 631.2h-65.9v-1.2h65.9z"/><path class="t" d="m646.3 636.7h-65.9v-1.2h65.9z"/><path class="t" d="m646.3 642.1h-65.9v-1.2h65.9z"/><path class="t" d="m646.3 647.6h-65.9v-1.2h65.9z"/><path class="t" d="m646.3 653h-65.9v-1.1h65.9z"/><path class="t" d="m646.3 658.5h-65.9v-1.2h65.9z"/><path class="t" d="m670.5 664.5h-90.1v-1.2h90.1z"/><path class="t" d="m670.5 670.1h-90.1v-1.1h90.1z"/><path class="t" d="m670.5 675.8h-90.1v-1.2h90.1z"/><path class="L" d="m646.3 617.9h-65.9v-10h65.9z"/><path class="t" d="m670.4 658.4h-21v-49.9h21z"/><path class="J" d="m732 538.7c0 3.8-3.1 6.8-6.8 6.7l-42.8 0.2-5.4 8.9-0.4-8.9h-1.4c-3.6 0-6.6-3-6.6-6.7v-25.5c0-3.7 3-6.7 6.6-6.7h50.1c3.7 0 6.7 3 6.7 6.7"/><path class="J" d="m732 524.1v6.8"/><path class="M" d="m719.6 515.7c0 1.5 1.2 2.7 2.7 2.7 1.5 0 2.7-1.2 2.7-2.7 0-1.5-1.2-2.7-2.7-2.7-1.5 0-2.7 1.2-2.7 2.7z"/><path class="N" d="m710.8 515.7c0 1.5 1.2 2.7 2.7 2.7 1.5 0 2.7-1.2 2.7-2.7 0-1.5-1.2-2.7-2.7-2.7-1.5 0-2.7 1.2-2.7 2.7z"/><path class="O" d="m702 515.7c0 1.5 1.2 2.7 2.7 2.7 1.5 0 2.7-1.2 2.7-2.7 0-1.5-1.2-2.7-2.7-2.7-1.5 0-2.7 1.2-2.7 2.7z"/><path class="t" d="m674.7 523.8h50.3v-1.6h-50.3z"/><path class="t" d="m674.7 528.5h50.3v-1.5h-50.3z"/><path class="t" d="m674.7 533.3h50.3v-1.6h-50.3z"/><path class="t" d="m674.7 538h50.3v-1.5h-50.3z"/><path class="m" d="m804.1 633.7c0 28.5-23.1 51.6-51.5 51.6-28.5 0-51.6-23.1-51.6-51.6 0-28.4 23.1-51.5 51.6-51.5 28.4 0 51.5 23.1 51.5 51.5z"/><path class="P" d="m804.1 633.7c0 28.5-23.1 51.6-51.5 51.6-28.5 0-51.6-23.1-51.6-51.6 0-28.4 23.1-51.5 51.6-51.5 28.4 0 51.5 23.1 51.5 51.5z"/><path class="Q" d="m795.6 633.7c0 23.8-19.2 43.1-43 43.1-23.8 0-43.1-19.3-43.1-43.1 0-23.7 19.3-43 43.1-43 23.8 0 43 19.3 43 43z"/><path class="Q" d="m795.6 633.7c0 23.8-19.2 43.1-43 43.1-23.8 0-43.1-19.3-43.1-43.1 0-23.7 19.3-43 43.1-43 23.8 0 43 19.3 43 43z"/><path class="m" d="m783.5 633.7c0 17.1-13.8 31-30.9 31-17.1 0-30.9-13.9-30.9-31 0-17 13.8-30.9 30.9-30.9 17.1 0 30.9 13.9 30.9 30.9z"/><path class="Q" d="m777.1 633.7c0 13.6-11 24.6-24.5 24.6-13.6 0-24.6-11-24.6-24.6 0-13.5 11-24.5 24.6-24.5 13.5 0 24.5 11 24.5 24.5z"/><path class="m" d="m765.6 633.7c0 7.2-5.8 13.1-13 13.1-7.2 0-13.1-5.9-13.1-13.1 0-7.2 5.9-13 13.1-13 7.2 0 13 5.8 13 13z"/><path class="R" d="m822.3 566.8l-69.7 66.9"/><path class="Q" d="m801.9 583.2l-3-13c-0.2-0.8 0.1-1.5 0.6-2.1l16.1-15.7c1.3-1.2 3.4-0.5 3.7 1.3l1.7 11.3z"/><path class="Q" d="m805.4 586.4l12.9 3.6c0.7 0.2 1.5 0 2.1-0.5l16.3-15.5c1.3-1.2 0.7-3.3-1.1-3.7l-11.2-2.2z"/><path class="J" d="m152.9 504.1c0 3.8 3.1 6.8 6.8 6.7l42.8 0.2 5.3 8.9 0.5-8.9h1.3c3.7 0 6.7-3 6.7-6.7v-25.5c0-3.7-3-6.7-6.7-6.7h-50c-3.7 0-6.7 3-6.7 6.7"/><path class="J" d="m152.9 489.5v6.8"/><path class="M" d="m165.3 481.1c0 1.5-1.2 2.7-2.7 2.7-1.5 0-2.7-1.2-2.7-2.7 0-1.5 1.2-2.7 2.7-2.7 1.5 0 2.7 1.2 2.7 2.7z"/><path class="N" d="m174.1 481.1c0 1.5-1.2 2.7-2.7 2.7-1.5 0-2.7-1.2-2.7-2.7 0-1.5 1.2-2.7 2.7-2.7 1.5 0 2.7 1.2 2.7 2.7z"/><path class="O" d="m182.9 481.1c0 1.5-1.2 2.7-2.7 2.7-1.5 0-2.7-1.2-2.7-2.7 0-1.5 1.2-2.7 2.7-2.7 1.5 0 2.7 1.2 2.7 2.7z"/><path class="t" d="m210.1 489.2h-50.2v-1.6h50.2z"/><path class="t" d="m210.1 493.9h-50.2v-1.5h50.2z"/><path class="t" d="m210.1 498.7h-50.2v-1.6h50.2z"/><path class="t" d="m210.1 503.4h-50.2v-1.5h50.2z"/><g style="opacity:.3;mix-blend-mode:multiply"><path  d="m347 563.7v118.9c0 9.3-7.6 16.9-16.9 16.9h-154.4c-9.3 0-16.9-7.6-16.9-16.9v-118.9c0-9.3 7.6-16.9 16.9-16.9h154.4c9.3 0 16.9 7.6 16.9 16.9z"/><path  d="m347 563.7v5.7h-188.2v-5.7c0-9.3 7.6-16.9 16.9-16.9h154.4c9.3 0 16.9 7.6 16.9 16.9z"/><path  d="m181.4 557.2c0 2.7-2.1 4.9-4.8 4.9-2.7 0-4.9-2.2-4.9-4.9 0-2.7 2.2-4.9 4.9-4.9 2.7 0 4.8 2.2 4.8 4.9z"/><path  d="m201 557.2c0 2.7-2.2 4.9-4.9 4.9-2.7 0-4.9-2.2-4.9-4.9 0-2.7 2.2-4.9 4.9-4.9 2.7 0 4.9 2.2 4.9 4.9z"/><path  d="m220.5 557.2c0 2.7-2.1 4.9-4.8 4.9-2.7 0-4.9-2.2-4.9-4.9 0-2.7 2.2-4.9 4.9-4.9 2.7 0 4.8 2.2 4.8 4.9z"/></g><path class="K" d="m335.3 552.1v118.8c0 9.3-7.5 16.9-16.9 16.9h-154.4c-9.3 0-16.9-7.6-16.9-16.9v-118.8c0-9.4 7.6-16.9 16.9-16.9h154.4c9.4 0 16.9 7.5 16.9 16.9z"/><path class="m" d="m335.3 552.1v5.6h-188.2v-5.6c0-9.4 7.6-16.9 16.9-16.9h154.4c9.4 0 16.9 7.5 16.9 16.9z"/><path class="A" d="m335.3 552.1v5.6h-188.2v-5.6c0-9.4 7.6-16.9 16.9-16.9h154.4c9.4 0 16.9 7.5 16.9 16.9z"/><path class="D" d="m169.8 545.5c0 2.7-2.2 4.9-4.9 4.9-2.7 0-4.9-2.2-4.9-4.9 0-2.7 2.2-4.9 4.9-4.9 2.7 0 4.9 2.2 4.9 4.9z"/><path class="E" d="m189.3 545.5c0 2.7-2.1 4.9-4.8 4.9-2.7 0-4.9-2.2-4.9-4.9 0-2.7 2.2-4.9 4.9-4.9 2.7 0 4.8 2.2 4.8 4.9z"/><path class="F" d="m208.9 545.5c0 2.7-2.2 4.9-4.9 4.9-2.7 0-4.9-2.2-4.9-4.9 0-2.7 2.2-4.9 4.9-4.9 2.7 0 4.9 2.2 4.9 4.9z"/><path class="L" d="m230.9 583.7h-65.8v-10.1h65.8z"/><path class="t" d="m230.9 589h-65.8v-1.1h65.8z"/><path class="t" d="m230.9 594.5h-65.8v-1.2h65.8z"/><path class="t" d="m230.9 600h-65.8v-1.2h65.8z"/><path class="t" d="m230.9 605.4h-65.8v-1.2h65.8z"/><path class="t" d="m230.9 610.9h-65.8v-1.2h65.8z"/><path class="t" d="m230.9 616.3h-65.8v-1.2h65.8z"/><path class="t" d="m230.9 621.8h-65.8v-1.2h65.8z"/><path class="t" d="m317.9 672.9h-154v-46.2h154z"/><path class="o" d="m308.7 621.2h-58.2c-5.1 0-9.2-4.2-9.2-9.3v-29.4c0-5.2 4.1-9.3 9.2-9.3h58.2c5.1 0 9.2 4.1 9.2 9.3v29.4c0 5.1-4.1 9.3-9.2 9.3z"/><path class="p" d="m277 605.7l7.1-7c0.8-0.8 0.8-2.2 0-3l-7.1-7c-0.9-1-2.5-0.3-2.5 1v15c0 1.3 1.6 1.9 2.5 1z"/><path class="p" d="m381.4 565.2v110.3c0 5.3-4.3 9.5-9.6 9.5h-80.7c-5.3 0-9.6-4.2-9.6-9.5v-110.3c0-5.3 4.3-9.6 9.6-9.6h80.7c5.3 0 9.6 4.3 9.6 9.6z"/><path class="l" d="m382.2 566.1v110.2c0 5.3-4.3 9.6-9.7 9.6h-74.5c-5.4 0-9.8-4.3-9.8-9.6v-110.2c0-5.3 4.4-9.6 9.8-9.6h74.5c5.4 0 9.7 4.3 9.7 9.6z"/><path class="v" d="m374.1 684.7h-83c-4.7 0-8.5-3.8-8.5-8.5v-112.5c0-4.7 3.8-8.5 8.5-8.5h83c4.7 0 8.5 3.8 8.5 8.5v112.5c0 4.7-3.8 8.5-8.5 8.5z"/><path class="J" d="m366.7 671.4h-68.2c-3.1 0-5.6-2.5-5.6-5.6v-91.7c0-3.1 2.5-5.6 5.6-5.6h68.2c3.1 0 5.6 2.5 5.6 5.6v91.7c0 3.1-2.5 5.6-5.6 5.6z"/><path class="L" d="m364 618.3h-62.4v-39.5h62.4z"/><path class="t" d="m364.4 627.8h-63.2v-1.6h63.2z"/><path class="t" d="m364.4 635h-63.2v-1.7h63.2z"/><path class="t" d="m364.4 642.1h-63.2v-1.6h63.2z"/><path class="t" d="m364.4 649.2h-63.2v-1.6h63.2z"/><path class="t" d="m364.4 656.4h-63.2v-1.7h63.2z"/><path class="t" d="m364.4 663.5h-63.2v-1.6h63.2z"/><path class="S" d="m336.4 678c0 2.1-1.7 3.9-3.8 3.9-2.1 0-3.9-1.8-3.9-3.9 0-2.1 1.8-3.8 3.9-3.8 2.1 0 3.8 1.7 3.8 3.8z"/><path class="J" d="m890.4 684.9h-88.5c-6 0-10.9-4.8-10.9-10.8v-53.5c0-6 4.9-10.9 10.9-10.9h88.5c6 0 10.8 4.9 10.8 10.9v53.5c0 6-4.8 10.8-10.8 10.8z"/><path class="o" d="m844 648.5l7-7c0.9-0.9 0.9-2.2 0-3l-7-7.1c-0.9-0.9-2.6-0.2-2.6 1.1v14.9c0 1.4 1.7 2 2.6 1.1z"/><path class="T" d="m863.3 639.3c0 10.1-8.2 18.3-18.3 18.3-10 0-18.2-8.2-18.2-18.3 0-10 8.2-18.2 18.2-18.2 10.1 0 18.3 8.2 18.3 18.2z"/><path class="l" d="m900 680.1c-1.9 2-1.9 4.2-11.1 4.9-9.2 0.8-79.6 0.1-79.6 0.1q0 0-0.2 0c-1.9 0-15.1-0.5-16.4-6.1-1.4-6.1-1.1-6.7-1.1-6.7h109.8c0 0 0.5 5.9-1.4 7.8z"/><path class="U" d="m809.1 672.3v12.8c-1.9 0-15.1-0.5-16.4-6.1-1.4-6.1-1.1-6.7-1.1-6.7z"/><path class="f" d="m890.4 684.9h-88.5c-6 0-10.9-4.8-10.9-10.8v-53.5c0-6 4.9-10.9 10.9-10.9h88.5c6 0 10.8 4.9 10.8 10.9v53.5c0 6-4.8 10.8-10.8 10.8z"/><path class="V" d="m801.7 680.3h-2v-4.7h2z"/><path class="V" d="m805.1 680.3h-2v-4.7h2z"/><path class="Q" d="m891.9 676.7v2.6h-78.1v-2.6z"/><path class="V" d="m857.6 676.7v2.6h-43.8v-2.6z"/><path class="W" d="m168.7 685.7h-61.9c-4.5 0-8.2-3.7-8.2-8.2v-34.4c0-4.7 3.9-8.6 8.7-8.6h30 30.9c4.8 0 8.7 3.9 8.7 8.6v34.4c0 4.5-3.7 8.2-8.2 8.2z"/><path class="W" d="m102 636.7l35.4 33 36.1-33"/><path class="X" d="m169.1 685.7h-62.7c-4.3 0-7.8-3.5-7.8-7.8v-35.1c0-4.6 3.8-8.3 8.4-8.3h30.3 31.2c4.6 0 8.4 3.7 8.4 8.3v35.1c0 4.3-3.5 7.8-7.8 7.8z"/><path class="Y" d="m924.7 699.1h-849.4c-3.3 0-6-2.7-6-6v-1.6c0-3.3 2.7-6 6-6h849.4c3.3 0 6 2.7 6 6v1.6c0 3.3-2.7 6-6 6z"/></svg>