<svg xmlns="http://www.w3.org/2000/svg" width="500" height="423" viewBox="0 0 500 423" fill="none"><path d="M179.189 63.4996C141.801 70.1748 84.1623 80.4455 52.9345 130.98C19.4368 185.188 40.7189 246.27 43.1403 252.876C71.7301 331 159.877 353.482 187.895 360.629C202.537 364.363 309.779 389.942 391.424 323.623C406.321 311.52 458.519 269.125 454.551 211.521C451.883 172.825 425.225 146.873 406.659 128.784C347.409 71.1148 258.309 49.3823 179.189 63.4996Z" fill="#EAF8FF"></path><path d="M142.269 208.012L152.778 203.594L149.975 191.768L138.617 192.513C137.683 190.408 136.584 188.38 135.33 186.448L142.209 177.352L133.853 168.506L124.379 174.848C122.521 173.48 120.555 172.264 118.501 171.214L119.917 159.912L108.273 156.447L103.24 166.678C100.949 166.429 98.6412 166.36 96.3393 166.475L91.9209 155.944L80.0995 158.747L80.8532 170.109C78.7474 171.042 76.7195 172.141 74.7887 173.397L65.692 166.518L56.8508 174.857L63.1925 184.326C61.8269 186.186 60.6116 188.151 59.5582 190.204L48.2565 188.792L44.7911 200.431L55.0141 205.478C54.7666 207.768 54.6985 210.074 54.8105 212.374L44.293 216.806L47.0956 228.631L58.4795 227.878C59.4148 229.982 60.5142 232.01 61.7674 233.942L54.8885 243.039L63.2272 251.876L72.6965 245.538C74.5572 246.902 76.5227 248.118 78.5747 249.173L77.1625 260.47L88.802 263.961L93.8399 253.73C96.1313 253.976 98.4385 254.042 100.74 253.929L105.172 264.438L116.959 261.64L116.205 250.273C118.311 249.343 120.339 248.245 122.269 246.989L131.366 253.868L140.203 245.525L133.866 236.056C135.231 234.196 136.446 232.23 137.5 230.178L148.801 231.59L152.267 219.95L142.083 214.913C142.327 212.621 142.389 210.314 142.269 208.012ZM98.5182 245.239C91.5859 245.24 84.809 243.185 79.0447 239.334C73.2803 235.484 68.7874 230.01 66.1342 223.605C63.4809 217.201 62.7864 210.154 64.1387 203.354C65.4909 196.555 68.829 190.31 73.7309 185.408C78.6327 180.506 84.8782 177.168 91.6773 175.816C98.4764 174.464 105.524 175.158 111.928 177.811C118.333 180.465 123.807 184.957 127.657 190.722C131.508 196.486 133.563 203.263 133.562 210.195C133.561 219.486 129.871 228.397 123.303 234.968C116.735 241.539 107.826 245.234 98.5355 245.239H98.5182Z" fill="white"></path><path d="M459.637 275.445L466.494 272.556L464.666 264.841L457.25 265.33C456.635 263.952 455.91 262.625 455.084 261.362L459.602 255.436L454.161 249.666L447.98 253.803C446.766 252.914 445.484 252.122 444.146 251.434L445.069 244.07L437.471 241.796L434.188 248.471C432.692 248.308 431.185 248.265 429.683 248.341L426.793 241.484L419.078 243.312L419.568 250.728C418.191 251.342 416.865 252.066 415.604 252.894L409.674 248.406L403.895 253.816L408.054 259.998C407.165 261.211 406.372 262.493 405.684 263.831L398.32 262.909L396.046 270.507L402.722 273.79C402.561 275.286 402.518 276.792 402.592 278.295L395.734 281.184L397.562 288.899L404.978 288.41C405.587 289.786 406.304 291.111 407.123 292.373L402.635 298.304L408.054 304.091L414.235 299.954C415.449 300.843 416.731 301.636 418.069 302.323L417.146 309.688L424.744 311.962L428.028 305.286C429.524 305.447 431.03 305.49 432.533 305.416L435.422 312.274L443.137 310.446L442.648 303.03C444.025 302.421 445.352 301.704 446.615 300.885L452.541 305.373L458.303 299.924L454.166 293.742C455.055 292.529 455.847 291.247 456.535 289.909L463.899 290.831L466.173 283.233L459.498 279.95C459.661 278.454 459.708 276.948 459.637 275.445ZM431.099 299.759C426.576 299.759 422.155 298.418 418.394 295.906C414.633 293.393 411.702 289.822 409.97 285.644C408.238 281.466 407.784 276.868 408.665 272.432C409.547 267.995 411.723 263.92 414.92 260.721C418.117 257.521 422.191 255.342 426.626 254.457C431.062 253.573 435.66 254.023 439.84 255.752C444.019 257.48 447.593 260.409 450.108 264.168C452.623 267.927 453.967 272.347 453.971 276.87C453.974 279.875 453.385 282.852 452.237 285.629C451.089 288.407 449.405 290.931 447.281 293.057C445.156 295.182 442.634 296.869 439.857 298.019C437.08 299.169 434.104 299.76 431.099 299.759V299.759Z" fill="white"></path><path d="M125.24 214.679H103.291V192.288H92.3926V248.497H103.291V225.053H125.24V248.497H136.135V192.288H125.24V214.679Z" fill="white"></path><path d="M210.122 204.703C205.236 204.703 201.459 206.349 198.426 209.97V191.292H188.896V219.682C188.896 229.212 188.979 230.381 190.339 234.497C191.67 238.595 194.26 242.169 197.74 244.71C201.221 247.25 205.415 248.627 209.724 248.644C221.74 248.644 231.032 239.015 231.032 226.669C231.032 214.579 221.658 204.703 210.122 204.703ZM209.559 239.27C203.152 239.27 197.785 233.591 197.785 226.678C197.785 219.682 203.074 214.085 209.559 214.085C215.81 214.085 221.177 219.847 221.177 226.595C221.177 233.509 215.888 239.27 209.559 239.27Z" fill="white"></path><path d="M298.3 204.967C293.99 204.985 289.796 206.362 286.316 208.903C282.835 211.444 280.245 215.019 278.915 219.119C277.551 223.234 277.473 224.386 277.473 233.933V262.328H287.003V243.645C290.035 247.267 293.812 248.913 298.698 248.913C310.234 248.913 319.608 239.041 319.608 226.942C319.612 214.596 310.321 204.967 298.3 204.967ZM298.14 239.534C291.642 239.534 286.366 233.933 286.366 226.942C286.366 220.011 291.733 214.349 298.14 214.349C304.468 214.349 309.757 220.111 309.757 227.024C309.757 233.769 304.39 239.547 298.14 239.547V239.534Z" fill="white"></path><path d="M255.822 214.479L250.962 212.812C248.363 211.893 246.734 209.892 246.734 207.393C246.734 204.057 249.554 201.722 253.86 201.722C257.152 201.722 259.188 202.723 262.164 205.643L263.26 206.726L270.39 199.305C264.828 192.717 261.458 191.053 253.548 191.053C243.286 191.053 235.844 198.14 235.844 207.891C235.844 215.48 240.154 221.064 248.22 223.814L252.374 225.235C258.404 227.319 260.05 228.9 260.05 232.24C260.05 236.073 256.918 238.655 252.374 238.655C248.042 238.655 244.932 236.823 241.874 232.487L234.748 240.241C240.466 247.492 244.226 249.411 252.608 249.411C263.182 249.411 270.94 242.077 270.94 231.989C270.94 223.316 266.405 218.062 255.822 214.479Z" fill="white"></path><path d="M401.122 239.548C394.715 239.548 392.71 237.862 392.71 232.296V216.182H402.24V206.908H392.71V194.93L383.18 199.907V232.3C383.18 244.278 387.75 249.42 398.341 249.42C399.64 249.42 400.26 249.337 402.266 249.251L404.808 239.114C403.6 239.396 402.363 239.541 401.122 239.548Z" fill="white"></path><path d="M171.214 230.767C171.215 231.924 170.987 233.071 170.545 234.14C170.102 235.21 169.453 236.181 168.635 237C167.817 237.819 166.845 238.468 165.776 238.911C164.707 239.354 163.561 239.582 162.403 239.582H161.931C159.594 239.581 157.353 238.652 155.7 236.999C154.048 235.346 153.12 233.104 153.12 230.767V206.076H143.209V231.04C143.214 235.71 145.072 240.188 148.376 243.489C151.681 246.79 156.16 248.644 160.831 248.644H163.191C167.865 248.644 172.347 246.788 175.652 243.483C178.957 240.178 180.813 235.696 180.813 231.023V206.067H171.214V230.767Z" fill="white"></path><path d="M354.374 201.146V188.918C356.666 188.282 358.657 186.851 359.99 184.882C361.324 182.912 361.912 180.532 361.65 178.167C361.387 175.803 360.292 173.61 358.56 171.98C356.827 170.35 354.571 169.39 352.196 169.272C349.82 169.154 347.48 169.886 345.595 171.337C343.71 172.788 342.403 174.862 341.908 177.189C341.413 179.515 341.763 181.942 342.895 184.034C344.027 186.126 345.866 187.747 348.084 188.606V201.168C344.713 201.564 341.451 202.613 338.481 204.257L304.26 178.513C305.247 176.078 305.327 173.369 304.483 170.881C303.639 168.393 301.928 166.291 299.663 164.96C297.397 163.629 294.729 163.157 292.144 163.63C289.56 164.103 287.232 165.49 285.586 167.538C283.939 169.586 283.084 172.157 283.177 174.783C283.269 177.409 284.303 179.914 286.09 181.84C287.876 183.767 290.296 184.987 292.908 185.277C295.519 185.567 298.148 184.908 300.313 183.421L333.205 208.146C330.26 210.908 327.991 214.311 326.574 218.091C325.156 221.871 324.629 225.927 325.033 229.943C325.436 233.96 326.759 237.83 328.9 241.253C331.041 244.675 333.941 247.559 337.376 249.68L329.215 262.632C328.909 262.595 328.601 262.577 328.292 262.575C326.478 262.571 324.715 263.181 323.29 264.306C321.866 265.431 320.864 267.004 320.447 268.77C320.029 270.537 320.222 272.392 320.992 274.035C321.763 275.678 323.067 277.013 324.691 277.821C326.316 278.63 328.167 278.865 329.942 278.489C331.718 278.113 333.314 277.147 334.471 275.749C335.629 274.351 336.279 272.603 336.318 270.789C336.356 268.974 335.779 267.2 334.682 265.755L343.111 252.326C346.607 253.464 350.302 253.857 353.959 253.48C357.616 253.104 361.153 251.966 364.343 250.14C367.534 248.314 370.307 245.84 372.484 242.878C374.66 239.915 376.193 236.53 376.983 232.94C377.773 229.35 377.802 225.634 377.069 222.032C376.337 218.429 374.858 215.02 372.728 212.024C370.599 209.028 367.865 206.51 364.704 204.634C361.543 202.757 358.024 201.564 354.374 201.129V201.146ZM351.606 242.731C348.561 242.731 345.584 241.828 343.053 240.137C340.521 238.445 338.547 236.04 337.382 233.227C336.217 230.413 335.913 227.318 336.507 224.331C337.101 221.345 338.568 218.602 340.722 216.449C342.875 214.296 345.619 212.83 348.605 212.236C351.592 211.643 354.687 211.948 357.501 213.114C360.314 214.28 362.718 216.254 364.409 218.786C366.1 221.319 367.002 224.296 367.001 227.341C367.002 229.363 366.604 231.365 365.831 233.233C365.057 235.102 363.923 236.799 362.494 238.229C361.064 239.659 359.367 240.794 357.499 241.568C355.63 242.342 353.628 242.74 351.606 242.74V242.731Z" fill="white"></path><path d="M289.593 171.24C288.545 173.033 287.076 174.155 286.318 173.739C285.56 173.323 285.798 171.539 286.851 169.741C287.904 167.943 289.372 166.826 290.126 167.237C290.88 167.649 290.663 169.442 289.593 171.24Z" fill="white"></path><path d="M351.874 171.772C354.04 171.972 355.591 172.799 355.34 173.622C355.089 174.445 353.105 174.948 350.934 174.748C348.764 174.549 347.213 173.717 347.469 172.899C347.725 172.08 349.7 171.573 351.874 171.772Z" fill="white"></path><path d="M324.229 265.672C325.81 264.169 327.456 263.554 327.898 264.291C328.34 265.027 327.421 266.846 325.84 268.349C324.259 269.852 322.613 270.468 322.171 269.727C321.73 268.986 322.648 267.171 324.229 265.672Z" fill="white"></path><path d="M120.709 209.021H98.7557V186.63H87.8613V242.84H98.7557V219.396H120.709V242.84H131.604V186.63H120.709V209.021Z" fill="#2B353C"></path><path d="M205.591 199.045C200.705 199.045 196.927 200.691 193.895 204.313V185.63H184.365V214.025C184.365 223.555 184.443 224.724 185.808 228.839C187.134 232.942 189.721 236.521 193.201 239.066C196.681 241.612 200.877 242.993 205.188 243.013C217.209 243.013 226.5 233.383 226.5 221.038C226.5 208.922 217.126 199.045 205.591 199.045ZM205.028 233.613C198.621 233.613 193.254 227.934 193.254 221.021C193.254 214.025 198.539 208.428 205.028 208.428C211.279 208.428 216.646 214.189 216.646 220.938C216.646 227.852 211.357 233.613 205.028 233.613Z" fill="#2B353C"></path><path d="M293.769 199.31C289.459 199.326 285.264 200.703 281.783 203.244C278.302 205.786 275.713 209.361 274.384 213.462C273.019 217.577 272.941 218.729 272.941 228.276V256.671H282.471V237.988C285.504 241.609 289.277 243.255 294.167 243.255C305.703 243.255 315.072 233.379 315.072 221.28C315.077 208.935 305.785 199.31 293.769 199.31ZM293.608 233.877C287.111 233.877 281.835 228.276 281.835 221.28C281.835 214.35 287.202 208.688 293.608 208.688C299.937 208.688 305.226 214.449 305.226 221.363C305.226 228.112 299.859 233.877 293.608 233.877Z" fill="#2B353C"></path><path d="M251.286 208.822L246.43 207.154C243.831 206.236 242.202 204.235 242.202 201.735C242.202 198.4 245.022 196.065 249.328 196.065C252.62 196.065 254.656 197.066 257.632 199.964L258.728 201.051L265.858 193.631C260.296 187.059 256.926 185.4 249.016 185.4C238.754 185.4 231.317 192.478 231.317 202.233C231.317 209.818 235.622 215.406 243.693 218.157L247.847 219.574C253.877 221.661 255.523 223.243 255.523 226.578C255.523 230.412 252.391 232.998 247.847 232.998C243.537 232.998 240.405 231.165 237.346 226.829L230.221 234.583C235.939 241.835 239.699 243.754 248.081 243.754C258.655 243.754 266.408 236.416 266.408 226.327C266.404 217.659 261.864 212.404 251.286 208.822Z" fill="#2B353C"></path><path d="M396.597 233.886C390.185 233.886 388.184 232.201 388.184 226.634V210.525H397.714V201.246H388.184V189.264L378.654 194.237V226.634C378.654 238.607 383.22 243.754 393.816 243.754C395.115 243.754 395.739 243.671 397.744 243.585L400.279 233.483C399.07 233.754 397.835 233.889 396.597 233.886Z" fill="#2B353C"></path><path d="M166.683 225.109C166.683 226.266 166.455 227.412 166.012 228.481C165.569 229.549 164.92 230.52 164.102 231.338C163.284 232.156 162.312 232.805 161.243 233.247C160.174 233.689 159.029 233.917 157.872 233.916H157.4C156.242 233.917 155.096 233.69 154.026 233.248C152.957 232.806 151.984 232.158 151.165 231.34C150.346 230.522 149.697 229.551 149.253 228.482C148.809 227.413 148.581 226.267 148.58 225.109V200.418H138.678V225.382C138.677 227.697 139.132 229.99 140.017 232.129C140.902 234.268 142.199 236.211 143.836 237.848C145.472 239.486 147.415 240.784 149.554 241.671C151.692 242.557 153.985 243.013 156.299 243.013H158.66C160.978 243.016 163.273 242.561 165.414 241.676C167.556 240.791 169.502 239.491 171.141 237.853C172.78 236.215 174.079 234.269 174.965 232.128C175.851 229.986 176.306 227.691 176.304 225.374V200.41H166.683V225.109Z" fill="#2B353C"></path><path d="M349.842 195.489V183.26C352.136 182.626 354.129 181.196 355.463 179.226C356.798 177.256 357.388 174.875 357.127 172.51C356.866 170.145 355.772 167.95 354.04 166.318C352.308 164.686 350.052 163.725 347.675 163.605C345.298 163.486 342.957 164.216 341.07 165.666C339.183 167.116 337.874 169.19 337.378 171.518C336.881 173.845 337.23 176.273 338.36 178.366C339.491 180.46 341.33 182.083 343.548 182.944V195.506C340.179 195.903 336.918 196.952 333.949 198.595L299.728 172.851C300.72 170.413 300.802 167.699 299.959 165.206C299.116 162.712 297.404 160.605 295.135 159.27C292.867 157.935 290.194 157.46 287.604 157.933C285.015 158.405 282.682 159.794 281.032 161.844C279.382 163.895 278.524 166.471 278.616 169.101C278.708 171.732 279.743 174.242 281.533 176.172C283.323 178.102 285.747 179.324 288.363 179.615C290.979 179.905 293.612 179.245 295.782 177.754L328.651 202.467C325.706 205.228 323.437 208.63 322.02 212.41C320.602 216.189 320.074 220.245 320.477 224.261C320.88 228.277 322.203 232.147 324.344 235.57C326.484 238.992 329.384 241.875 332.819 243.996L324.666 256.991C322.825 256.777 320.967 257.204 319.405 258.202C317.844 259.2 316.675 260.707 316.096 262.468C315.518 264.228 315.565 266.135 316.231 267.864C316.897 269.594 318.139 271.04 319.749 271.959C321.358 272.878 323.235 273.213 325.063 272.906C326.891 272.6 328.557 271.672 329.779 270.278C331.001 268.885 331.704 267.112 331.769 265.26C331.835 263.408 331.258 261.59 330.137 260.115L338.563 246.686C342.058 247.824 345.753 248.217 349.41 247.84C353.067 247.463 356.604 246.325 359.794 244.499C362.985 242.673 365.758 240.2 367.935 237.237C370.111 234.275 371.644 230.89 372.434 227.3C373.224 223.71 373.253 219.994 372.52 216.392C371.788 212.789 370.309 209.38 368.179 206.384C366.05 203.387 363.317 200.87 360.155 198.994C356.994 197.117 353.475 195.923 349.825 195.489H349.842ZM347.074 237.074C344.029 237.074 341.053 236.171 338.521 234.479C335.989 232.787 334.016 230.383 332.851 227.569C331.686 224.756 331.381 221.66 331.975 218.674C332.57 215.687 334.037 212.944 336.19 210.791C338.343 208.638 341.087 207.172 344.074 206.579C347.06 205.985 350.156 206.291 352.969 207.457C355.782 208.623 358.186 210.597 359.877 213.129C361.568 215.661 362.47 218.638 362.47 221.683C362.47 223.705 362.072 225.708 361.299 227.576C360.526 229.444 359.392 231.142 357.962 232.572C356.532 234.002 354.835 235.136 352.967 235.91C351.099 236.684 349.097 237.083 347.074 237.083V237.074Z" fill="#DD5247"></path><path d="M285.062 165.578C284.013 167.376 282.545 168.498 281.787 168.082C281.029 167.666 281.267 165.877 282.32 164.084C283.372 162.29 284.841 161.164 285.595 161.58C286.348 161.996 286.114 163.785 285.062 165.578Z" fill="#FFDBA4"></path><path d="M347.343 166.115C349.509 166.314 351.06 167.142 350.809 167.965C350.557 168.788 348.573 169.29 346.403 169.091C344.233 168.892 342.682 168.06 342.938 167.241C343.193 166.423 345.169 165.907 347.343 166.115Z" fill="#FFDBA4"></path><path d="M319.685 260.015C321.266 258.512 322.908 257.897 323.354 258.633C323.8 259.37 322.878 261.189 321.296 262.688C319.715 264.187 318.069 264.81 317.627 264.07C317.186 263.329 318.117 261.514 319.685 260.015Z" fill="#FFDBA4"></path><path d="M373.576 375.215C390.574 375.215 404.353 361.435 404.353 344.437C404.353 327.439 390.574 313.66 373.576 313.66C356.578 313.66 342.799 327.439 342.799 344.437C342.799 361.435 356.578 375.215 373.576 375.215Z" fill="#FFC32D"></path><path d="M373.577 349.982C376.907 349.982 379.607 347.282 379.607 343.952C379.607 340.622 376.907 337.922 373.577 337.922C370.247 337.922 367.547 340.622 367.547 343.952C367.547 347.282 370.247 349.982 373.577 349.982Z" fill="#DD5247"></path><path d="M373.578 357.983C370.803 357.984 368.09 357.162 365.783 355.621C363.475 354.08 361.676 351.89 360.613 349.326C359.55 346.763 359.271 343.942 359.811 341.221C360.352 338.499 361.687 335.998 363.648 334.035C365.609 332.072 368.108 330.735 370.829 330.192C373.551 329.65 376.372 329.926 378.936 330.987C381.5 332.047 383.692 333.844 385.235 336.15C386.778 338.457 387.603 341.169 387.604 343.943C387.602 347.664 386.124 351.232 383.494 353.864C380.865 356.496 377.298 357.977 373.578 357.983V357.983ZM373.578 332.209C371.254 332.208 368.981 332.896 367.049 334.187C365.116 335.478 363.61 337.313 362.72 339.461C361.831 341.608 361.598 343.971 362.052 346.25C362.506 348.53 363.626 350.623 365.27 352.266C366.914 353.909 369.008 355.028 371.288 355.48C373.568 355.932 375.931 355.698 378.077 354.807C380.224 353.916 382.058 352.408 383.348 350.474C384.637 348.54 385.324 346.268 385.321 343.943C385.315 340.832 384.075 337.85 381.874 335.65C379.673 333.451 376.69 332.213 373.578 332.209Z" fill="#DD5247"></path><path d="M373.576 363.675C369.676 363.675 365.863 362.518 362.62 360.351C359.377 358.185 356.849 355.105 355.356 351.502C353.863 347.898 353.472 343.933 354.232 340.108C354.992 336.282 356.87 332.768 359.627 330.009C362.384 327.251 365.898 325.372 369.723 324.61C373.548 323.848 377.514 324.237 381.118 325.728C384.722 327.22 387.802 329.746 389.971 332.988C392.139 336.231 393.297 340.043 393.299 343.943C393.295 349.174 391.217 354.189 387.519 357.889C383.821 361.588 378.807 363.669 373.576 363.675V363.675ZM373.576 326.512C370.126 326.512 366.754 327.535 363.886 329.452C361.018 331.369 358.783 334.093 357.463 337.28C356.143 340.467 355.798 343.974 356.472 347.358C357.146 350.741 358.808 353.848 361.247 356.287C363.687 358.726 366.796 360.386 370.179 361.058C373.563 361.73 377.069 361.383 380.256 360.062C383.443 358.741 386.166 356.504 388.081 353.635C389.996 350.766 391.018 347.393 391.016 343.943C391.008 339.321 389.168 334.891 385.898 331.624C382.629 328.356 378.198 326.518 373.576 326.512V326.512Z" fill="#DD5247"></path><path d="M368.114 141.467C390.057 141.467 407.845 123.679 407.845 101.736C407.845 79.7933 390.057 62.0051 368.114 62.0051C346.171 62.0051 328.383 79.7933 328.383 101.736C328.383 123.679 346.171 141.467 368.114 141.467Z" fill="#1B7898"></path><path d="M348.345 110.456H343.103C342.567 110.456 342.133 110.89 342.133 111.426V123.56C342.133 124.096 342.567 124.53 343.103 124.53H348.345C348.88 124.53 349.315 124.096 349.315 123.56V111.426C349.315 110.89 348.88 110.456 348.345 110.456Z" fill="white"></path><path d="M362.292 104.14H357.05C356.515 104.14 356.08 104.575 356.08 105.111V123.555C356.08 124.091 356.515 124.526 357.05 124.526H362.292C362.828 124.526 363.262 124.091 363.262 123.555V105.111C363.262 104.575 362.828 104.14 362.292 104.14Z" fill="white"></path><path d="M376.241 99.4446H371C370.464 99.4446 370.029 99.879 370.029 100.415V123.56C370.029 124.095 370.464 124.53 371 124.53H376.241C376.777 124.53 377.211 124.095 377.211 123.56V100.415C377.211 99.879 376.777 99.4446 376.241 99.4446Z" fill="white"></path><path d="M390.194 95.1865H384.953C384.417 95.1865 383.982 95.6209 383.982 96.1568V123.56C383.982 124.096 384.417 124.53 384.953 124.53H390.194C390.73 124.53 391.165 124.096 391.165 123.56V96.1568C391.165 95.6209 390.73 95.1865 390.194 95.1865Z" fill="white"></path><path d="M384.228 77.3915C384.433 78.5858 384.962 79.7008 385.757 80.6144C385.873 80.7227 386.017 80.7955 386.172 80.8241C386.328 80.8527 386.489 80.8358 386.635 80.7754C386.781 80.7151 386.907 80.6139 386.997 80.4839C387.087 80.3539 387.138 80.2007 387.143 80.0426C387.113 79.4824 387.035 78.9259 386.91 78.3792C386.819 77.8464 386.693 77.3439 386.563 76.8197C386.318 75.8468 386.161 74.8536 386.095 73.8525C386.092 73.6748 386.049 73.5001 385.969 73.3415C385.889 73.1829 385.774 73.0446 385.632 72.937C385.491 72.8294 385.327 72.7553 385.153 72.7203C384.979 72.6853 384.799 72.6903 384.627 72.7349C382.418 73.3067 380.226 73.9651 378.029 74.5802C377.916 74.6112 377.809 74.6643 377.716 74.7365C377.623 74.8087 377.545 74.8985 377.486 75.0009C377.427 75.1033 377.39 75.2161 377.375 75.3331C377.36 75.4501 377.368 75.5689 377.399 75.6826C377.43 75.7964 377.483 75.903 377.555 75.9962C377.628 76.0895 377.717 76.1676 377.82 76.2261C377.922 76.2846 378.035 76.3224 378.152 76.3373C378.269 76.3522 378.388 76.3439 378.502 76.3129L381.196 75.8061L381.083 75.923C380.773 76.2545 380.484 76.6046 380.217 76.9713C380.104 77.1273 379.992 77.2789 379.875 77.4262L379.671 77.6991L379.632 77.7467V77.7771C378.658 79.0246 377.627 80.2332 376.561 81.4027C375.495 82.5723 374.369 83.6943 373.195 84.7642C372.61 85.297 372.013 85.8212 371.402 86.328C371.116 86.5706 370.821 86.8088 370.535 87.0427L370.102 87.3936L370.05 87.4369H370.02L369.747 87.6448C367.212 89.5736 364.521 91.2891 361.703 92.7737C361.001 93.1433 360.291 93.4956 359.572 93.8306C359.23 93.9909 358.887 94.1468 358.541 94.2985L358.025 94.528L357.852 94.6017L357.562 94.723C356.095 95.3294 354.605 95.8781 353.091 96.369C349.742 97.4669 346.286 98.2117 342.782 98.5912C342.613 98.5956 342.453 98.6646 342.333 98.7839C342.214 98.9032 342.145 99.0637 342.141 99.2323C342.142 99.4024 342.21 99.5653 342.329 99.686C342.449 99.8067 342.612 99.8755 342.782 99.8778C349.348 99.6257 355.802 98.0986 361.785 95.3814C367.762 92.6796 373.183 88.8865 377.77 84.1967C379.089 82.8388 380.327 81.4039 381.478 79.8996C382.067 79.2112 382.588 78.467 383.033 77.6774C383.223 77.2832 383.41 76.889 383.587 76.4948C383.727 76.1846 383.84 75.8629 383.925 75.5332C383.99 76.157 384.094 76.7807 384.228 77.3915Z" fill="white"></path><path d="M111.266 114.541C131.726 114.541 148.311 97.9552 148.311 77.4956C148.311 57.036 131.726 40.4502 111.266 40.4502C90.8065 40.4502 74.2207 57.036 74.2207 77.4956C74.2207 97.9552 90.8065 114.541 111.266 114.541Z" fill="#FFC32D"></path><path d="M129.086 94.2206C133.373 89.6791 135.753 83.6659 135.736 77.4211C135.719 71.1763 133.306 65.1761 128.996 60.6579L128.957 60.6233C125.522 57.0025 121.056 54.5268 116.165 53.5322C112.944 52.8828 109.626 52.8828 106.405 53.5322V53.5322C101.518 54.5264 97.0549 57.0007 93.6222 60.619V60.619L93.5659 60.6449C89.2556 65.1617 86.8432 71.1604 86.8263 77.4038C86.8093 83.6471 89.1892 89.6588 93.4749 94.1989C93.484 94.2152 93.4957 94.2298 93.5096 94.2422L93.5702 94.3115C96.9911 97.9342 101.443 100.417 106.323 101.424V101.424H106.392C109.613 102.077 112.931 102.077 116.152 101.424H116.225C121.106 100.417 125.559 97.9336 128.983 94.3115C129.004 94.2855 129.022 94.2596 129.047 94.2336L129.086 94.2206ZM122.589 89.382C123.549 86.1324 124.111 82.7781 124.261 79.3929H131.863C131.47 83.5978 129.789 87.5791 127.051 90.7941C125.58 90.2458 124.082 89.7744 122.563 89.382H122.589ZM124.261 75.5939C124.108 72.209 123.547 68.8549 122.589 65.6048C124.1 65.2135 125.589 64.7421 127.051 64.1927C129.789 67.4077 131.47 71.389 131.863 75.5939H124.261ZM121.363 62.0008C120.93 60.8875 120.44 59.7829 119.903 58.713C121.374 59.3905 122.758 60.2412 124.027 61.2471C123.122 61.5373 122.234 61.7755 121.337 62.0008H121.363ZM118.872 66.4409C119.759 69.4174 120.28 72.4912 120.423 75.5939H102.099C102.255 72.4896 102.789 69.4158 103.689 66.4409C108.705 67.3193 113.835 67.3193 118.85 66.4409H118.872ZM101.224 62.0008C100.328 61.7755 99.4398 61.5373 98.5604 61.2471C99.8305 60.2452 101.213 59.3948 102.68 58.713C102.121 59.7786 101.64 60.8875 101.198 62.0008H101.224ZM95.5368 64.1927C96.9987 64.7402 98.4879 65.2115 99.9986 65.6048C99.038 68.8544 98.4765 72.2087 98.3265 75.5939H90.6982C91.0917 71.389 92.7723 67.4077 95.5108 64.1927H95.5368ZM98.3265 79.3929C98.4765 82.7781 99.038 86.1324 99.9986 89.382C98.4879 89.7753 96.9987 90.2466 95.5368 90.7941C92.7983 87.5791 91.1177 83.5978 90.7242 79.3929H98.3265ZM101.224 92.986C101.658 94.0993 102.147 95.2039 102.68 96.2738C101.212 95.5936 99.8295 94.7431 98.5604 93.7397C99.4138 93.4495 100.302 93.2113 101.198 92.986H101.224ZM103.715 88.5459C102.815 85.571 102.281 82.4972 102.125 79.3929H120.423C120.268 82.4972 119.734 85.571 118.833 88.5459C113.821 87.6941 108.701 87.6941 103.689 88.5459H103.715ZM121.363 92.986C122.26 93.2113 123.148 93.4495 124.027 93.7397C122.758 94.7456 121.374 95.5963 119.903 96.2738C120.423 95.2039 120.895 94.0993 121.337 92.986H121.363ZM114.618 57.1319C115.764 58.9358 116.754 60.8342 117.577 62.8065C113.396 63.4519 109.14 63.4519 104.958 62.8065C105.783 60.835 106.773 58.9367 107.917 57.1319C110.136 56.7658 112.4 56.7658 114.618 57.1319ZM107.917 97.8506C106.773 96.0458 105.783 94.1475 104.958 92.176C109.14 91.5306 113.396 91.5306 117.577 92.176C116.755 94.1487 115.765 96.0472 114.618 97.8506C112.4 98.2159 110.136 98.2174 107.917 97.8549V97.8506Z" fill="white"></path><path d="M93.4745 379.893C116.654 379.893 135.445 361.102 135.445 337.922C135.445 314.743 116.654 295.952 93.4745 295.952C70.2948 295.952 51.5039 314.743 51.5039 337.922C51.5039 361.102 70.2948 379.893 93.4745 379.893Z" fill="#90E4FB"></path><path d="M91.1794 365.303C97.3403 365.31 103.302 363.122 107.995 359.131L91.1794 338.745V313.266C84.3369 313.354 77.8046 316.134 72.9972 321.004C68.1897 325.874 65.4941 332.441 65.4941 339.284C65.4941 346.128 68.1897 352.695 72.9972 357.565C77.8046 362.435 84.3369 365.215 91.1794 365.303V365.303Z" fill="#1B7898"></path><path d="M121.003 336.579C121.003 329.679 118.262 323.062 113.383 318.183C108.504 313.304 101.886 310.562 94.9863 310.562V336.038L120.319 342.496C120.772 340.557 121.001 338.571 121.003 336.579V336.579Z" fill="#DD5247"></path><path d="M121.787 346.694L96.4551 340.235L113.271 360.621C117.531 357.013 120.516 352.13 121.787 346.694V346.694Z" fill="#2B353C"></path><path d="M248.679 102.914C248.706 108.187 246.715 113.269 243.114 117.121C239.514 120.972 234.576 123.301 229.314 123.629C224.052 123.957 218.864 122.259 214.813 118.885C210.762 115.51 208.155 110.714 207.527 105.479C206.813 99.3363 208.459 93.8739 212.5 89.2389C214.404 86.9812 216.788 85.1764 219.477 83.9557C222.166 82.7351 225.094 82.1293 228.047 82.1824C230.764 82.1841 233.455 82.7222 235.964 83.7659C238.473 84.8096 240.751 86.3384 242.668 88.2645C244.585 90.1906 246.102 92.4761 247.134 94.9901C248.166 97.5041 248.691 100.197 248.679 102.914V102.914Z" fill="#90E4FB"></path><path d="M230.923 110.642C229.104 110.642 227.28 110.642 225.456 110.642C224.802 110.642 224.564 110.43 224.568 109.776C224.59 106.934 224.438 104.088 224.646 101.251C224.801 99.4544 225.492 97.7459 226.63 96.3473C227.382 95.3604 228.201 94.4268 229.082 93.5533C229.222 93.4279 229.334 93.2734 229.409 93.1007C229.484 92.9279 229.52 92.7409 229.515 92.5527C229.515 92.0675 229.559 91.578 229.546 91.0929C229.507 90.8175 229.56 90.5371 229.697 90.2946C229.833 90.0522 230.044 89.8609 230.299 89.75C230.577 89.632 230.884 89.6007 231.18 89.6603C231.476 89.7198 231.748 89.8673 231.958 90.0836C232.379 90.5343 232.656 91.0996 232.755 91.708C233.071 93.196 232.869 94.7469 232.184 96.1048C231.971 96.5769 231.781 97.0577 231.543 97.5169C231.391 97.8158 231.508 97.9241 231.776 97.9501C231.921 97.9614 232.065 97.9614 232.21 97.9501H237.109C237.488 97.9146 237.867 98.0143 238.179 98.2315C238.492 98.4488 238.717 98.7695 238.816 99.137C238.939 99.5452 238.925 99.9825 238.776 100.382C238.628 100.782 238.353 101.122 237.993 101.351C237.668 101.524 237.681 101.597 237.962 101.784C238.263 101.953 238.506 102.209 238.66 102.518C238.815 102.826 238.873 103.174 238.829 103.516C238.807 103.792 238.701 104.055 238.527 104.269C238.352 104.484 238.115 104.64 237.85 104.716C237.741 104.755 237.568 104.742 237.546 104.89C237.525 105.037 237.702 105.067 237.798 105.137C238.582 105.721 238.664 107.281 237.533 107.736C237.312 107.827 237.213 107.883 237.447 108.108C237.667 108.325 237.812 108.607 237.862 108.912C237.912 109.217 237.864 109.53 237.724 109.806C237.609 110.059 237.417 110.269 237.174 110.405C236.932 110.54 236.652 110.595 236.377 110.56H230.923V110.642Z" fill="#FDFDFE"></path><path d="M222.367 112.271H217.844C217.754 112.279 217.663 112.268 217.577 112.238C217.491 112.208 217.412 112.161 217.346 112.099C217.28 112.037 217.228 111.961 217.193 111.877C217.157 111.794 217.14 111.703 217.143 111.613C217.13 111.393 217.13 111.173 217.143 110.954C217.143 107.801 217.143 104.647 217.143 101.494C217.143 100.714 217.342 100.523 218.126 100.523H222.172C222.713 100.523 222.99 100.761 222.995 101.277C222.995 104.589 222.995 107.9 222.995 111.21C222.997 111.226 222.997 111.242 222.995 111.257C222.912 111.283 222.921 111.314 222.995 111.344C223.021 111.704 222.995 112.041 222.601 112.21C222.601 112.115 222.553 112.002 222.44 112.037C222.328 112.072 222.384 112.193 222.367 112.271Z" fill="#FDFDFE"></path><path d="M239.837 343.696C254.863 343.696 267.045 331.515 267.045 316.488C267.045 301.462 254.863 289.281 239.837 289.281C224.81 289.281 212.629 301.462 212.629 316.488C212.629 331.515 224.81 343.696 239.837 343.696Z" fill="#DD5247"></path><path d="M238.274 333.79H241.406V330.658H238.274V333.79Z" fill="white"></path><path d="M220.847 313.638H223.979V310.506H220.847V313.638Z" fill="white"></path><path d="M255.511 306.304H258.643V303.173H255.511V306.304Z" fill="white"></path><path d="M239.864 332.577L222.018 311.845L222.368 311.771C234.155 309.328 256.564 304.667 257.023 304.537L257.157 304.498L257.257 304.611C257.382 304.771 257.395 304.793 254.636 309.228C253.215 311.516 251.218 314.691 248.706 318.667C244.426 325.438 240.072 332.269 240.042 332.338L239.864 332.577ZM222.802 312.113L239.813 331.875C244.318 324.805 255.138 307.756 256.706 305.04C252.977 305.85 227.307 311.178 222.802 312.113Z" fill="white"></path></svg>