<svg width="100" height="100" viewBox="0 0 100 100" fill="none" xmlns="http://www.w3.org/2000/svg">
<path d="M20.3797 88.764H79.6214C84.3608 88.764 88.6262 85.7678 88.6262 82.0225V34.0824H67.7731C63.0338 34.0824 58.7684 31.0861 58.7684 27.3408V11.6105H20.3797C15.6404 11.6105 11.375 14.6067 11.375 18.352V82.0225C11.375 85.7678 15.6404 88.764 20.3797 88.764ZM32.2281 43.0711H67.7731C69.1949 43.0711 70.6167 44.1947 70.6167 45.3183C70.6167 46.4419 69.1949 47.5655 67.7731 47.5655H32.2281C30.8063 47.5655 29.3845 46.4419 29.3845 45.3183C29.3845 44.1947 30.8063 43.0711 32.2281 43.0711ZM32.2281 52.0599H67.7731C69.1949 52.0599 70.6167 53.1835 70.6167 54.3071C70.6167 55.4307 69.1949 56.5543 67.7731 56.5543H32.2281C30.8063 56.5543 29.3845 55.4307 29.3845 54.3071C29.3845 53.1835 30.8063 52.0599 32.2281 52.0599ZM32.2281 61.4232H67.7731C69.1949 61.4232 70.6167 62.5468 70.6167 63.6704C70.6167 64.794 69.1949 65.9176 67.7731 65.9176H32.2281C30.8063 65.9176 29.3845 64.794 29.3845 63.6704C29.3845 62.1723 30.8063 61.4232 32.2281 61.4232ZM32.2281 70.412H55.9248C57.3466 70.412 58.7684 71.5356 58.7684 72.6592C58.7684 73.7828 57.8205 74.9063 55.9248 74.9063H32.2281C30.8063 74.9063 29.3845 73.7828 29.3845 72.6592C29.3845 71.5356 30.8063 70.412 32.2281 70.412ZM67.7731 29.588H86.7304L64.9295 12.7341V27.3408C64.9295 28.4644 66.3513 29.588 67.7731 29.588C68.247 29.588 68.247 29.588 67.7731 29.588Z" fill="#00A0AF"/>
</svg>
