<svg viewBox="0 0 512 512" xml:space="preserve" xmlns="http://www.w3.org/2000/svg" enable-background="new 0 0 512 512"><path d="M445.745 154.9v-14.679l-19.641-6.063-1.516-7.168 13.852-14.265-7.167-13.37-19.985 5.168-4.962-5.168 5.169-19.434-13.162-7.995-14.679 14.473-7.374-2.205-4.824-18.193h-15.575l-4.272 18.193-8.339 2.205-13.576-14.473-13.369 7.581 5.581 19.09-5.581 5.789-19.641-5.169-7.581 13.162 14.266 14.473-1.998 7.168-19.641 5.374-.207 14.955 19.848 5.169 1.654 8.338-13.853 13.714 7.167 12.75 20.398-5.169 4.962 5.927-5.582 18.538 13.715 7.994 13.369-14.059 7.993 1.999 4.618 19.64 15.574.208 4.617-19.848 7.994-2.412 14.266 14.886 14.059-8.34-6.064-19.296 5.375-5.582 19.848 6.064 7.098-13.852-14.402-12.956 1.515-8.339 20.053-4.823zM363.6 176.051c-16.059 0-29.143-13.033-29.143-29.145 0-16.11 13.031-29.143 29.143-29.143s29.143 13.032 29.143 29.143c-.001 16.162-13.032 29.145-29.143 29.145z" fill="#dcdae0" class="fill-dcdae0"></path><path d="m371.389 239.398-.136-.001-15.574-.208a10 10 0 0 1-9.601-7.71l-2.346-9.975-6.654 6.997a10.002 10.002 0 0 1-12.282 1.749l-13.715-7.994a10 10 0 0 1-4.539-11.523l2.83-9.399-10.577 2.68a9.996 9.996 0 0 1-11.173-4.794l-7.167-12.75a9.998 9.998 0 0 1 1.682-12.006l7.693-7.617-10.828-2.82a10 10 0 0 1-7.479-9.815l.207-14.955a10 10 0 0 1 7.36-9.507l10.311-2.821-7.421-7.528a10 10 0 0 1-1.543-12.011l7.581-13.162a10.005 10.005 0 0 1 11.21-4.68l10.413 2.741-2.916-9.974a10 10 0 0 1 4.666-11.505l13.369-7.581a9.998 9.998 0 0 1 12.226 1.857l7.068 7.534 2.091-8.905a10 10 0 0 1 9.735-7.714h15.575a10 10 0 0 1 9.666 7.437l2.399 9.049 7.791-7.682a10.004 10.004 0 0 1 12.212-1.426l13.162 7.995a10 10 0 0 1 4.473 11.117l-2.613 9.826 10.224-2.644a9.996 9.996 0 0 1 11.317 4.957l7.167 13.37a9.998 9.998 0 0 1-1.64 11.691l-7.488 7.712 10.569 3.263a10 10 0 0 1 7.05 9.555V154.9a10 10 0 0 1-7.661 9.723L438 167.049l7.266 6.536a10 10 0 0 1 2.212 11.995l-7.098 13.852a9.998 9.998 0 0 1-11.821 5.003l-9.581-2.927 2.885 9.179a10 10 0 0 1-4.438 11.599l-14.059 8.34a9.996 9.996 0 0 1-12.321-1.682l-7.471-7.795-2.446 10.516a10.002 10.002 0 0 1-9.739 7.733zm-28.188-41.847c.808 0 1.622.098 2.426.299l7.993 1.999a10 10 0 0 1 7.309 7.412l2.685 11.417 2.65-11.394a10.002 10.002 0 0 1 6.852-7.308l7.994-2.412a9.997 9.997 0 0 1 10.108 2.655l8.772 9.153.417-.248-3.689-11.739a10 10 0 0 1 2.337-9.934l5.375-5.582a10 10 0 0 1 10.125-2.627l10.746 3.283-7.813-7.028a9.999 9.999 0 0 1-3.151-9.222l1.515-8.339a10.002 10.002 0 0 1 7.5-7.936l11.339-2.728-11.536-3.561a10.003 10.003 0 0 1-6.834-7.486l-1.515-7.168a10 10 0 0 1 2.609-9.035l8.757-9.019-.001-.001-12.379 3.201a10 10 0 0 1-9.717-2.756l-4.963-5.168a9.998 9.998 0 0 1-2.45-9.496l3.245-12.202-.104-.063-9.129 9a10.004 10.004 0 0 1-9.886 2.46l-7.374-2.205a10.002 10.002 0 0 1-6.801-7.018l-2.83-10.671-2.44 10.395a9.997 9.997 0 0 1-7.179 7.381l-8.339 2.205a9.999 9.999 0 0 1-9.85-2.826l-7.581-8.082 3.108 10.632a10.001 10.001 0 0 1-2.399 9.747l-5.581 5.789a10 10 0 0 1-9.744 2.73l-12.128-3.192 8.839 8.967a10 10 0 0 1 2.511 9.705l-1.998 7.168a9.998 9.998 0 0 1-6.994 6.96l-11.621 3.18 11.503 2.996a9.998 9.998 0 0 1 7.288 7.731l1.654 8.338a10.003 10.003 0 0 1-2.773 9.053l-7.554 7.479 11.775-2.984a10.007 10.007 0 0 1 10.124 3.274l4.962 5.927a10.002 10.002 0 0 1 1.907 9.303l-3.308 10.987.068.04 7.92-8.328a10.01 10.01 0 0 1 7.248-3.108zm20.399-11.5c-21.583 0-39.143-17.56-39.143-39.145 0-21.583 17.56-39.143 39.143-39.143s39.143 17.559 39.143 39.143c-.001 21.585-17.56 39.145-39.143 39.145zm0-58.287c-10.556 0-19.143 8.587-19.143 19.143 0 10.556 8.587 19.145 19.143 19.145s19.143-8.588 19.143-19.145c-.001-10.556-8.588-19.143-19.143-19.143z" fill="#000000" class="fill-a5a4a8"></path><path d="m437.803 221.662 48.145 14.885v40.96l-56.563 13.757-4.209 23.302 39.935 36.237-19.712 38.906-55.433-17.144-14.988 15.603 17.143 53.894-39.315 23.305-39.933-41.574-22.276 6.772L277.66 486l-43.524-.512-12.936-55.024-22.276-5.748-37.365 39.419-38.394-22.276 15.604-51.842-14.064-16.527-56.974 14.476-20.224-35.726 38.908-38.392-4.928-23.405-55.433-14.476.513-41.985 54.92-15.091 5.851-20.222-39.933-40.447 21.25-36.75 55.024 14.475 15.604-16.118-15.604-53.38L161.045 45.2l37.777 40.446 23.303-6.262 11.908-53.382h43.527l11.907 47.119-23.199-6.056-6.468-1.747-3.388 5.852-11.293 19.607-3.387 5.749 4.722 4.722 17.655 17.862-.307 1.027-24.432 6.673-6.364 1.744-.103 6.57-.207 13.242c-48.761 10.676-85.511 54.203-85.511 106.248 0 59.848 48.557 108.507 108.506 108.507 51.843 0 95.163-36.341 105.941-85l13.55.206 7.083.103 1.643-6.877 5.749-24.637 1.95-.617 17.556 18.274 4.824 5.027 5.952-3.487 20.943-12.423 5.954-3.592-2.053-6.674-6.98-21.762z" fill="#73cb0b" class="fill-73cb0b"></path><path d="m277.66 495.999-.118-.001-43.525-.512a10 10 0 0 1-9.617-7.71l-11.553-49.141-10.72-2.767-33.313 35.145a10.002 10.002 0 0 1-12.276 1.77l-38.394-22.276a10 10 0 0 1-4.557-11.531l14.034-46.627-6.496-7.634-50.934 12.941a10.003 10.003 0 0 1-11.165-4.767l-20.224-35.726a10 10 0 0 1 1.679-12.044l35.021-34.557-2.528-12.009-49.449-12.913a10 10 0 0 1-7.472-9.798l.513-41.985a10.001 10.001 0 0 1 7.35-9.521l49.52-13.607 2.665-9.21-35.813-36.275a10 10 0 0 1-1.541-12.031l21.25-36.75a9.998 9.998 0 0 1 11.201-4.665l49.365 12.986 7.488-7.735-13.971-47.796a10.001 10.001 0 0 1 4.655-11.499l37.366-21.249a10 10 0 0 1 12.251 1.867l33.676 36.056 11.654-3.132 10.589-47.473a10 10 0 0 1 9.76-7.823h43.527a10 10 0 0 1 9.695 7.55l11.907 47.119a10 10 0 0 1-12.22 12.126l-22.329-5.829-10.344 17.96 16.954 17.152a10.002 10.002 0 0 1 2.47 9.89l-.307 1.027a9.998 9.998 0 0 1-6.947 6.786l-23.549 6.432-.192 12.307a9.998 9.998 0 0 1-7.86 9.612c-44.993 9.851-77.65 50.426-77.65 96.479 0 54.316 44.19 98.507 98.506 98.507 45.825 0 86.274-32.451 96.178-77.163a10.002 10.002 0 0 1 9.762-7.837l.154.001 12.61.192 5.523-23.671a10 10 0 0 1 6.721-7.262l1.95-.617a10.003 10.003 0 0 1 10.229 2.606l16.916 17.609 19.235-11.41-6.69-20.854a10 10 0 0 1 12.477-12.608l48.145 14.885a10 10 0 0 1 7.046 9.554v40.96a10 10 0 0 1-7.637 9.717l-50.241 12.22-2.067 11.442 35.828 32.512a9.998 9.998 0 0 1 2.2 11.925l-19.712 38.906a10 10 0 0 1-11.875 5.034l-49.539-15.321-6.594 6.864 15.339 48.225a10 10 0 0 1-4.431 11.634l-39.315 23.305a10 10 0 0 1-12.311-1.675l-35.683-37.149-10.887 3.31-11.626 49.817a9.997 9.997 0 0 1-9.737 7.73zm-35.582-20.419 27.668.325 11.111-47.613a10 10 0 0 1 6.829-7.295l22.276-6.772a9.994 9.994 0 0 1 10.121 2.641l34.441 35.856 25.654-15.207-14.731-46.315a10.002 10.002 0 0 1 2.317-9.959l14.988-15.603a10 10 0 0 1 10.167-2.626l47.371 14.65 12.452-24.577-34.288-31.114a9.998 9.998 0 0 1-3.121-9.183l4.209-23.302a9.999 9.999 0 0 1 7.478-7.939l48.926-11.899v-25.725l-22.759-7.037 1.118 3.484.035.115 2.053 6.674A9.996 9.996 0 0 1 452 258.661l-5.954 3.592-27.005 15.976a10.002 10.002 0 0 1-12.271-1.704L395.706 265l-3.714 15.753a10 10 0 0 1-9.725 7.677l-.146-.001-12.784-.189c-6.763 22.784-20.397 43.292-38.968 58.389-21.016 17.084-47.537 26.493-74.678 26.493-65.345 0-118.506-53.162-118.506-118.507 0-27.229 9.491-53.85 26.724-74.961 15.263-18.698 35.959-32.377 58.908-39.08l.191-12.176a10 10 0 0 1 7.355-9.488l15.34-4.196-11.043-11.117a10 10 0 0 1-1.545-12.147l3.387-5.749 14.644-25.394a9.999 9.999 0 0 1 11.261-4.643l6.468 1.747 6.753 1.762-5.855-23.172h-27.725L231.884 81.56a10.002 10.002 0 0 1-7.165 7.48l-23.303 6.262a9.993 9.993 0 0 1-9.903-2.832l-32.389-34.677-23.63 13.438 13.385 45.79a10 10 0 0 1-2.413 9.761L130.862 142.9a9.996 9.996 0 0 1-9.729 2.715L73.49 133.082l-13.611 23.54 34.574 35.019a10 10 0 0 1 2.49 9.805l-5.851 20.222a10 10 0 0 1-6.957 6.863l-47.662 13.097-.326 26.638 47.865 12.499a10 10 0 0 1 7.259 7.615l4.928 23.405a10 10 0 0 1-2.762 9.179l-33.456 33.012 12.688 22.414 49.571-12.595a10.004 10.004 0 0 1 10.078 3.212l14.064 16.527a9.999 9.999 0 0 1 1.96 9.362l-13.326 44.275 24.721 14.344 31.927-33.682a10 10 0 0 1 9.756-2.803l22.276 5.748a9.998 9.998 0 0 1 7.236 7.395l11.146 47.407z" fill="#000000" class="fill-569808"></path></svg>