<svg width="518" height="343" viewBox="0 0 518 343" fill="none" xmlns="http://www.w3.org/2000/svg">
<path d="M367.625 29.3597V28.1687L374.54 24.4404V26.2787L369.93 28.7901L374.54 31.3015V33.1397L367.625 29.3597Z" fill="#E5F0F9"/>
<path d="M502.228 128.625V126.786L506.838 124.275L502.228 121.764V119.925L509.143 123.654V124.845L502.228 128.625Z" fill="#E5F0F9"/>
<path d="M404.584 27.3403H377.104V30.1624H404.584V27.3403Z" fill="#E5F0F9"/>
<path d="M395.105 38.2402H367.625V41.0623H395.105V38.2402Z" fill="#E5F0F9"/>
<path d="M400.958 45.8262H373.479V48.6483H400.958V45.8262Z" fill="#E5F0F9"/>
<path d="M400.958 66.7456H373.479V69.5677H400.958V66.7456Z" fill="#E5F0F9"/>
<path d="M400.958 73.2188H373.479V76.0408H400.958V73.2188Z" fill="#E5F0F9"/>
<path d="M465.786 53.0757H382.932V55.8978H465.786V53.0757Z" fill="#E5F0F9"/>
<path d="M493.602 80.0796H382.932V82.9017H493.602V80.0796Z" fill="#E5F0F9"/>
<path d="M493.602 101.698H382.932V104.52H493.602V101.698Z" fill="#E5F0F9"/>
<path d="M499.378 122.877H393.344V125.699H499.378V122.877Z" fill="#E5F0F9"/>
<path d="M406.63 109.051H382.932V111.873H406.63V109.051Z" fill="#E5F0F9"/>
<path d="M406.63 116.042H382.932V118.864H406.63V116.042Z" fill="#E5F0F9"/>
<path d="M493.602 86.9922H382.932V89.8143H493.602V86.9922Z" fill="#E5F0F9"/>
<path d="M442.812 93.8794H382.932V96.7015H442.812V93.8794Z" fill="#E5F0F9"/>
<path d="M408.34 59.5742H382.932V62.3963H408.34V59.5742Z" fill="#E5F0F9"/>
<path d="M68.7643 322.158C68.7643 322.158 -67.5474 0.698708 182.595 22.4728C289.743 31.7934 269.722 88.3387 317.042 141.233C347.707 175.513 406.708 147.473 428.8 177.429C450.893 207.384 424.941 292.823 415.824 322.158H68.7643Z" fill="#E5F0F9"/>
<path d="M409.635 320.708C409.635 320.708 403.548 205.261 458.689 220.149C513.83 235.036 415.669 297.251 415.747 320.708H409.635Z" fill="#79C369"/>
<path d="M411.862 320.708C411.862 320.708 413.779 260.383 453.095 230.583" stroke="#40A87C" stroke-width="3.7457" stroke-miterlimit="10"/>
<path d="M435.871 248.059L436.855 227.243" stroke="#40A87C" stroke-width="3.7457" stroke-miterlimit="10"/>
<path d="M466.718 239.437L440.145 242.906" stroke="#40A87C" stroke-width="3.7457" stroke-miterlimit="10"/>
<path d="M456.384 257.172L428.282 260.46" stroke="#40A87C" stroke-width="3.7457" stroke-miterlimit="10"/>
<path d="M442.32 274.778L420.616 277.833" stroke="#40A87C" stroke-width="3.7457" stroke-miterlimit="10"/>
<path d="M418.544 258.337L423.517 270.428" stroke="#40A87C" stroke-width="3.7457" stroke-miterlimit="10"/>
<path d="M426.703 238.738L430.951 255.748" stroke="#40A87C" stroke-width="3.7457" stroke-miterlimit="10"/>
<path d="M413.882 278.506L417.845 286.403" stroke="#40A87C" stroke-width="3.7457" stroke-miterlimit="10"/>
<path d="M430.95 291.089L415.41 295.982" stroke="#40A87C" stroke-width="3.7457" stroke-miterlimit="10"/>
<path d="M74.7477 320.708C74.7477 320.708 80.8342 205.261 25.6931 220.149C-29.448 235.036 68.713 297.225 68.6353 320.708H74.7477Z" fill="#79C369"/>
<path d="M72.5199 320.708C72.5199 320.708 70.6033 260.383 31.2871 230.583" stroke="#40A87C" stroke-width="3.7457" stroke-miterlimit="10"/>
<path d="M48.511 248.059L47.5527 227.243" stroke="#40A87C" stroke-width="3.7457" stroke-miterlimit="10"/>
<path d="M17.6641 239.437L44.2634 242.906" stroke="#40A87C" stroke-width="3.7457" stroke-miterlimit="10"/>
<path d="M27.998 257.172L56.0995 260.46" stroke="#40A87C" stroke-width="3.7457" stroke-miterlimit="10"/>
<path d="M42.0615 274.778L63.7657 277.833" stroke="#40A87C" stroke-width="3.7457" stroke-miterlimit="10"/>
<path d="M65.838 258.337L60.8652 270.428" stroke="#40A87C" stroke-width="3.7457" stroke-miterlimit="10"/>
<path d="M57.6792 238.738L53.4316 255.748" stroke="#40A87C" stroke-width="3.7457" stroke-miterlimit="10"/>
<path d="M70.4998 278.506L66.5371 286.403" stroke="#40A87C" stroke-width="3.7457" stroke-miterlimit="10"/>
<path d="M53.4316 291.089L68.9716 295.982" stroke="#40A87C" stroke-width="3.7457" stroke-miterlimit="10"/>
<path d="M417.741 44.6353H66.6152V301.419H417.741V44.6353Z" fill="#BCDBF3"/>
<path d="M414.504 47.8716H69.8789V298.131H414.504V47.8716Z" fill="white"/>
<path d="M415.592 46.3184H68.7646V71.4841H415.592V46.3184Z" fill="#BCDBF3"/>
<path d="M392.696 66.4613L406.294 52.8945" stroke="white" stroke-width="8.4042" stroke-miterlimit="10" stroke-linecap="round" stroke-linejoin="round"/>
<path d="M406.294 66.4613L392.696 52.8945" stroke="white" stroke-width="8.4042" stroke-miterlimit="10" stroke-linecap="round" stroke-linejoin="round"/>
<path d="M132.608 71.458H128.36V298.131H132.608V71.458Z" fill="#BCDBF3"/>
<path d="M286.273 71.458H282.025V298.131H286.273V71.458Z" fill="#BCDBF3"/>
<path d="M138.151 83.5232V82.3581L144.911 78.7075V80.494L140.405 82.9536L144.911 85.4132V87.1997L138.151 83.5232Z" fill="#A2D293"/>
<path d="M269.749 291.633V289.846L274.256 287.387L269.749 284.927V283.141L276.509 286.791V287.956L269.749 291.633Z" fill="#A2D293"/>
<path d="M174.282 81.5815H147.424V84.3518H174.282V81.5815Z" fill="#A2D293"/>
<path d="M165.01 92.2227H138.151V94.993H165.01V92.2227Z" fill="#A2D293"/>
<path d="M170.733 99.6533H143.875V102.424H170.733V99.6533Z" fill="#A2D293"/>
<path d="M170.733 120.081H143.875V122.851H170.733V120.081Z" fill="#A2D293"/>
<path d="M170.733 126.424H143.875V129.195H170.733V126.424Z" fill="#A2D293"/>
<path d="M234.085 106.721H153.096V109.491H234.085V106.721Z" fill="#A2D293"/>
<path d="M261.306 133.13H153.096V135.9H261.306V133.13Z" fill="#A2D293"/>
<path d="M261.306 154.283H153.096V157.053H261.306V154.283Z" fill="#A2D293"/>
<path d="M266.926 174.969H163.274V177.74H266.926V174.969Z" fill="#A2D293"/>
<path d="M176.276 161.454H153.096V164.224H176.276V161.454Z" fill="#A2D293"/>
<path d="M176.276 168.29H153.096V171.06H176.276V168.29Z" fill="#A2D293"/>
<path d="M261.306 139.887H153.096V142.658H261.306V139.887Z" fill="#A2D293"/>
<path d="M211.63 146.619H153.096V149.389H211.63V146.619Z" fill="#A2D293"/>
<path d="M168.066 182.866H143.875V185.636H168.066V182.866Z" fill="#A2D293"/>
<path d="M168.066 189.183H143.875V191.953H168.066V189.183Z" fill="#A2D293"/>
<path d="M249.651 195.915H152.189V198.685H249.651V195.915Z" fill="#A2D293"/>
<path d="M249.651 217.067H152.189V219.838H249.651V217.067Z" fill="#A2D293"/>
<path d="M254.727 237.754H161.357V240.524H254.727V237.754Z" fill="#A2D293"/>
<path d="M173.065 224.239H152.189V227.01H173.065V224.239Z" fill="#A2D293"/>
<path d="M173.065 231.074H152.189V233.845H173.065V231.074Z" fill="#A2D293"/>
<path d="M249.651 202.672H152.189V205.443H249.651V202.672Z" fill="#A2D293"/>
<path d="M204.922 209.404H152.189V212.174H204.922V209.404Z" fill="#A2D293"/>
<path d="M185.6 244.641H161.409V247.411H185.6V244.641Z" fill="#A2D293"/>
<path d="M185.6 250.958H161.409V253.729H185.6V250.958Z" fill="#A2D293"/>
<path d="M267.185 257.69H169.724V260.46H267.185V257.69Z" fill="#A2D293"/>
<path d="M247.268 278.817H169.724V281.587H247.268V278.817Z" fill="#A2D293"/>
<path d="M266.849 286.014H169.724V288.784H266.849V286.014Z" fill="#A2D293"/>
<path d="M267.185 264.421H169.724V267.192H267.185V264.421Z" fill="#A2D293"/>
<path d="M222.456 271.179H169.724V273.949H222.456V271.179Z" fill="#A2D293"/>
<path d="M177.934 113.09H153.096V115.861H177.934V113.09Z" fill="#A2D293"/>
<path d="M289.277 83.5232V82.3581L295.234 78.7075V80.494L291.246 82.9536L295.234 85.4132V87.1997L289.277 83.5232Z" fill="#E5F0F9"/>
<path d="M405.568 291.633V289.846L409.557 287.387L405.568 284.927V283.141L411.525 286.791V287.956L405.568 291.633Z" fill="#E5F0F9"/>
<path d="M321.186 81.5815H297.462V84.3518H321.186V81.5815Z" fill="#E5F0F9"/>
<path d="M313.002 92.2227H289.277V94.993H313.002V92.2227Z" fill="#E5F0F9"/>
<path d="M318.078 99.6533H294.354V102.424H318.078V99.6533Z" fill="#E5F0F9"/>
<path d="M318.078 120.081H294.354V122.851H318.078V120.081Z" fill="#E5F0F9"/>
<path d="M318.078 126.424H294.354V129.195H318.078V126.424Z" fill="#E5F0F9"/>
<path d="M374.048 106.721H302.486V109.491H374.048V106.721Z" fill="#E5F0F9"/>
<path d="M398.083 133.13H302.486V135.9H398.083V133.13Z" fill="#E5F0F9"/>
<path d="M398.083 154.283H302.486V157.053H398.083V154.283Z" fill="#E5F0F9"/>
<path d="M403.107 174.969H311.499V177.74H403.107V174.969Z" fill="#E5F0F9"/>
<path d="M322.973 161.454H302.486V164.224H322.973V161.454Z" fill="#E5F0F9"/>
<path d="M322.973 168.29H302.486V171.06H322.973V168.29Z" fill="#E5F0F9"/>
<path d="M398.083 139.887H302.486V142.658H398.083V139.887Z" fill="#E5F0F9"/>
<path d="M354.209 146.619H302.486V149.389H354.209V146.619Z" fill="#E5F0F9"/>
<path d="M315.721 182.866H294.354V185.636H315.721V182.866Z" fill="#E5F0F9"/>
<path d="M315.721 189.183H294.354V191.953H315.721V189.183Z" fill="#E5F0F9"/>
<path d="M387.801 195.915H301.684V198.685H387.801V195.915Z" fill="#E5F0F9"/>
<path d="M387.801 217.067H301.684V219.838H387.801V217.067Z" fill="#E5F0F9"/>
<path d="M392.307 237.754H309.79V240.524H392.307V237.754Z" fill="#E5F0F9"/>
<path d="M320.124 224.239H301.684V227.01H320.124V224.239Z" fill="#E5F0F9"/>
<path d="M320.124 231.074H301.684V233.845H320.124V231.074Z" fill="#E5F0F9"/>
<path d="M387.801 202.672H301.684V205.443H387.801V202.672Z" fill="#E5F0F9"/>
<path d="M348.278 209.404H301.684V212.174H348.278V209.404Z" fill="#E5F0F9"/>
<path d="M331.209 244.641H309.842V247.411H331.209V244.641Z" fill="#E5F0F9"/>
<path d="M331.209 250.958H309.842V253.729H331.209V250.958Z" fill="#E5F0F9"/>
<path d="M403.289 257.69H317.172V260.46H403.289V257.69Z" fill="#E5F0F9"/>
<path d="M385.703 278.817H317.172V281.587H385.703V278.817Z" fill="#E5F0F9"/>
<path d="M402.979 286.014H317.172V288.784H402.979V286.014Z" fill="#E5F0F9"/>
<path d="M403.289 264.421H317.172V267.192H403.289V264.421Z" fill="#E5F0F9"/>
<path d="M363.766 271.179H317.172V273.949H363.766V271.179Z" fill="#E5F0F9"/>
<path d="M324.424 113.09H302.486V115.861H324.424V113.09Z" fill="#E5F0F9"/>
<path d="M121.057 81.5811H75.6543V84.3514H121.057V81.5811Z" fill="#E5F0F9"/>
<path d="M121.057 88.0542H75.6543V90.8245H121.057V88.0542Z" fill="#E5F0F9"/>
<path d="M121.057 94.501H75.6543V97.2713H121.057V94.501Z" fill="#E5F0F9"/>
<path d="M121.057 100.974H75.6543V103.744H121.057V100.974Z" fill="#E5F0F9"/>
<path d="M121.057 107.446H75.6543V110.217H121.057V107.446Z" fill="#E5F0F9"/>
<path d="M121.057 113.919H75.6543V116.689H121.057V113.919Z" fill="#E5F0F9"/>
<path d="M121.057 120.392H75.6543V123.162H121.057V120.392Z" fill="#E5F0F9"/>
<path d="M121.057 126.864H75.6543V129.635H121.057V126.864Z" fill="#E5F0F9"/>
<path d="M121.057 133.337H75.6543V136.107H121.057V133.337Z" fill="#E5F0F9"/>
<path d="M121.057 139.81H75.6543V142.58H121.057V139.81Z" fill="#E5F0F9"/>
<path d="M121.057 146.256H75.6543V149.027H121.057V146.256Z" fill="#E5F0F9"/>
<path d="M121.057 152.729H75.6543V155.499H121.057V152.729Z" fill="#E5F0F9"/>
<path d="M121.057 159.202H75.6543V161.972H121.057V159.202Z" fill="#E5F0F9"/>
<path d="M121.057 165.674H75.6543V168.445H121.057V165.674Z" fill="#E5F0F9"/>
<path d="M121.057 172.147H75.6543V174.917H121.057V172.147Z" fill="#E5F0F9"/>
<path d="M121.057 178.62H75.6543V181.39H121.057V178.62Z" fill="#E5F0F9"/>
<path d="M121.057 185.092H75.6543V187.863H121.057V185.092Z" fill="#E5F0F9"/>
<path d="M121.057 191.565H75.6543V194.335H121.057V191.565Z" fill="#E5F0F9"/>
<path d="M121.057 198.038H75.6543V200.808H121.057V198.038Z" fill="#E5F0F9"/>
<path d="M121.057 204.484H75.6543V207.255H121.057V204.484Z" fill="#E5F0F9"/>
<path d="M121.057 210.957H75.6543V213.727H121.057V210.957Z" fill="#E5F0F9"/>
<path d="M121.057 217.43H75.6543V220.2H121.057V217.43Z" fill="#E5F0F9"/>
<path d="M121.057 223.902H75.6543V226.673H121.057V223.902Z" fill="#E5F0F9"/>
<path d="M121.057 230.375H75.6543V233.145H121.057V230.375Z" fill="#E5F0F9"/>
<path d="M121.057 236.848H75.6543V239.618H121.057V236.848Z" fill="#E5F0F9"/>
<path d="M121.057 243.32H75.6543V246.091H121.057V243.32Z" fill="#E5F0F9"/>
<path d="M121.057 249.793H75.6543V252.563H121.057V249.793Z" fill="#E5F0F9"/>
<path d="M121.057 256.266H75.6543V259.036H121.057V256.266Z" fill="#E5F0F9"/>
<path d="M121.057 262.712H75.6543V265.483H121.057V262.712Z" fill="#E5F0F9"/>
<path d="M121.057 269.185H75.6543V271.955H121.057V269.185Z" fill="#E5F0F9"/>
<path d="M121.057 275.658H75.6543V278.428H121.057V275.658Z" fill="#E5F0F9"/>
<path d="M74.4365 216.99C74.4365 224.188 85.1073 236.978 84.6152 251.192C84.1231 265.406 81.559 275.166 88.5261 275.529C95.5191 275.891 126.599 275.529 126.599 275.529H140.404C140.404 275.529 143.046 261.703 134.032 260.693C125.019 259.684 115.203 260.978 113.52 255.463C111.681 249.405 112.872 238.376 113.157 231.566C113.442 224.757 116.006 210.88 107.174 205.546C98.3422 200.213 87.9822 201.818 81.5072 204.821C76.3531 207.177 74.4365 210.673 74.4365 216.99Z" fill="#EF4545"/>
<path d="M124.217 319.957C123.673 319.957 123.232 319.517 123.232 318.973V317.86C123.232 317.316 123.673 316.876 124.217 316.876C124.761 316.876 125.201 317.316 125.201 317.86V318.973C125.201 319.517 124.761 319.957 124.217 319.957Z" fill="#BCDBF3"/>
<path d="M113.546 312.475L124.217 316.876L113.546 315.038V312.475Z" fill="#596874"/>
<path d="M156.747 248.965H154.027V320.294H156.747V248.965Z" fill="#596874"/>
<path d="M156.281 313.2L165.061 313.303L163.274 300.125L153.018 303.672L156.281 313.2Z" fill="#A16854"/>
<path d="M155.97 319.957L160.114 319.931L160.373 317.265L162.652 319.931L172.416 319.88L165.061 313.303L156.281 313.2L155.97 319.957Z" fill="#322A28"/>
<path d="M162.601 315.012L166.511 314.986" stroke="#D3DCF0" stroke-width="2.1201" stroke-miterlimit="10"/>
<path d="M163.559 316.358L167.469 316.307" stroke="#D3DCF0" stroke-width="2.1201" stroke-miterlimit="10"/>
<path d="M144.962 251.813C140.326 253.47 137.918 258.596 139.575 263.23L151.256 305.225L165.631 302.999L156.876 259.709C156.825 258.881 156.669 258.026 156.358 257.224C154.701 252.563 149.599 250.156 144.962 251.813Z" fill="#B96C77"/>
<path d="M136.416 246.557C133.826 248.136 130.407 247.334 128.827 244.745L116.887 225.301C115.307 222.712 116.11 219.294 118.7 217.715C121.29 216.135 124.709 216.938 126.289 219.527L138.229 238.971C139.808 241.56 138.98 244.978 136.416 246.557Z" fill="#F9E181"/>
<path d="M99.8704 253.418C99.8704 253.418 98.2646 255.256 97.6171 256.732C96.9696 258.234 104.61 257.405 104.61 257.405L103.781 250.233L99.8704 253.418Z" fill="#00ADB3"/>
<path d="M157.032 260.616C157.032 265.742 152.836 269.91 147.734 269.91H111.966C106.838 269.91 102.668 265.716 102.668 260.616C102.668 255.489 106.864 251.321 111.966 251.321H147.734C152.836 251.295 157.032 255.489 157.032 260.616Z" fill="#B96C77"/>
<path d="M120.176 202.232C120.176 202.232 122.533 197.416 119.451 197.572C116.343 197.701 120.176 202.232 120.176 202.232Z" fill="#322A28"/>
<path d="M150.713 265.172C150.221 270.273 145.662 274.053 140.56 273.561L104.947 270.169C99.8451 269.677 96.0637 265.12 96.5558 260.02C97.0479 254.92 101.606 251.14 106.709 251.631L142.321 255.023C147.423 255.515 151.205 260.098 150.713 265.172Z" fill="#E7888B"/>
<path d="M107.77 214.634L98.1094 219.191C98.1094 219.191 100.259 243.89 100.492 246.609C100.725 249.327 99.8706 253.444 99.8706 253.444H123.025C123.025 253.444 122.74 240.11 124.294 236.408C125.356 233.896 126.081 232.343 125.46 229.469C124.838 226.595 122.792 222.246 123.517 217.249L117.586 214.867L107.77 214.634Z" fill="#F9E181"/>
<path d="M117.587 203.604V214.841C117.587 214.841 117.587 214.971 117.561 215.204C117.457 216.11 116.861 218.466 113.805 218.44C111.008 218.414 109.066 216.369 108.237 215.281C107.926 214.893 107.771 214.634 107.771 214.634L109.169 203.604H117.587Z" fill="#A16854"/>
<path d="M123.621 313.2L132.401 313.303L134.266 307.348L124.683 306.624L123.621 313.2Z" fill="#A16854"/>
<path d="M117.587 214.841L112.588 208.472L117.587 207.514V214.841Z" fill="#834D3B"/>
<path d="M117.82 210.413C115.825 211.061 113.08 210.284 111.112 208.213C109.169 206.167 104.766 198.504 110.62 194.931C116.473 191.358 119.944 197.261 120.099 198.193C120.099 198.193 120.151 201.429 120.203 203.682C120.228 204.251 120.228 204.769 120.228 205.158C120.228 205.209 120.228 205.287 120.228 205.339C120.254 207.125 119.814 209.766 117.82 210.413Z" fill="#A16854"/>
<path d="M84.3562 246.997C81.8698 245.237 81.2741 241.793 83.0353 239.308L96.2184 220.692C97.9796 218.207 101.424 217.611 103.911 219.372C106.397 221.132 106.993 224.576 105.232 227.061L92.0485 245.677C90.2873 248.162 86.8167 248.758 84.3562 246.997Z" fill="#F9E181"/>
<path d="M123.336 319.957L127.48 319.931L127.713 317.265L129.992 319.931L139.757 319.88L132.401 313.303L123.621 313.2L123.336 319.957Z" fill="#322A28"/>
<path d="M120.539 197.183C120.617 198.452 119.917 200.213 116.136 200.057C112.355 199.928 111.681 201.766 112.07 203.294C112.07 203.294 111.267 202.439 111.474 201.378C111.474 201.378 110.127 202.931 110.671 204.511C110.671 204.511 109.713 202.983 109.117 204.096C108.521 205.21 109.324 206.116 108.547 208.653C108.547 208.653 108.936 206.142 107.615 204.795C106.294 203.449 104.921 190.685 114.66 193.792C114.634 193.818 120.176 191.979 120.539 197.183Z" fill="#322A28"/>
<path d="M143.564 255.593C138.721 254.738 134.085 257.975 133.23 262.842L122.171 307.659L135.95 310.326L150.013 268.383C150.376 267.632 150.661 266.829 150.816 265.975C151.645 261.082 148.408 256.447 143.564 255.593Z" fill="#E7888B"/>
<path d="M129.94 315.012L133.851 314.986" stroke="#D3DCF0" stroke-width="2.1201" stroke-miterlimit="10"/>
<path d="M130.899 316.358L134.81 316.307" stroke="#D3DCF0" stroke-width="2.1201" stroke-miterlimit="10"/>
<path d="M110.179 204.303C110.516 205.365 110.516 206.038 109.687 206.297C108.858 206.556 107.719 206.116 107.382 205.08C107.045 204.018 107.434 202.957 108.237 202.698C109.066 202.413 109.843 203.268 110.179 204.303Z" fill="#A16854"/>
<path d="M108.081 203.734C108.081 203.734 109.402 203.682 109.506 204.795C109.506 204.795 109.065 204.407 108.418 204.51" stroke="#724739" stroke-width="0.53" stroke-miterlimit="10" stroke-linecap="round" stroke-linejoin="round"/>
<path d="M115.074 202.802C115.074 203.216 115.281 203.578 115.566 203.578C115.851 203.578 116.058 203.242 116.058 202.802C116.058 202.387 115.851 202.025 115.566 202.025C115.281 202.025 115.074 202.361 115.074 202.802Z" fill="#322A28"/>
<path d="M118.726 202.491C118.726 202.905 118.933 203.268 119.218 203.268C119.503 203.268 119.71 202.931 119.71 202.491C119.71 202.077 119.503 201.714 119.218 201.714C118.933 201.714 118.726 202.051 118.726 202.491Z" fill="#322A28"/>
<path d="M116.421 207.747C116.913 207.928 117.483 207.643 117.638 207.151L115.825 206.53C115.644 207.022 115.903 207.565 116.421 207.747Z" fill="white"/>
<path d="M114.09 201.921C114.09 201.921 114.945 200.86 115.955 201.248" stroke="#2C3447" stroke-width="0.7869" stroke-miterlimit="10"/>
<path d="M118.804 201.093C118.804 201.093 119.425 200.99 120.099 201.663" stroke="#2C3447" stroke-width="0.7869" stroke-miterlimit="10"/>
<path d="M117.431 202.543C117.431 202.543 117.457 204.666 118.7 204.925C118.7 204.925 118.311 205.287 117.819 205.417" stroke="#2C3447" stroke-width="0.7869" stroke-miterlimit="10"/>
<path d="M115.747 205.106C115.644 205.52 114.944 205.676 114.193 205.494C113.442 205.313 112.924 204.821 113.028 204.407C113.131 203.993 113.831 203.837 114.582 204.019C115.307 204.226 115.851 204.718 115.747 205.106Z" fill="#A14D54"/>
<path d="M120.228 205.184C119.788 205.21 119.399 205.054 119.322 204.795C119.192 204.433 119.581 203.993 120.202 203.708C120.202 204.278 120.228 204.795 120.228 205.184Z" fill="#A14D54"/>
<path d="M128.309 243.321C126.988 240.266 128.102 236.822 130.795 235.657L155.374 228.667C156.151 228.252 157.006 227.76 157.654 227.243C159.182 226.078 163.766 223.359 164.129 224.032C164.517 224.679 161.772 227.165 162.16 227.32C162.549 227.476 164.983 226.103 165.993 225.456C166.978 224.809 168.894 223.048 169.542 223.281C170.189 223.514 170.111 224.55 170.111 224.55C170.111 224.55 170.759 223.799 171.147 224.291C171.536 224.783 170.837 226.207 170.837 226.207C170.837 226.207 171.147 225.741 171.458 226.414C171.769 227.061 169.956 228.822 169.956 228.822C169.956 228.822 170.422 228.615 170.578 229.159C170.733 229.676 168.117 231.722 165.838 232.55C163.792 233.275 158.767 234.492 157.731 234.751L135.613 246.738C132.919 247.903 129.63 246.376 128.309 243.321Z" fill="#A16854"/>
<path d="M100.026 238.22L103.316 231.385" stroke="#2C3447" stroke-width="1.0897" stroke-miterlimit="10"/>
<path d="M109.92 206.66C109.92 207.1 109.557 207.462 109.091 207.462C108.651 207.462 108.288 207.1 108.288 206.634C108.288 206.194 108.651 205.831 109.117 205.831C109.583 205.831 109.946 206.194 109.92 206.66Z" stroke="white" stroke-width="0.8975" stroke-miterlimit="10"/>
<path d="M81.8441 241.793C81.7146 245.107 83.9938 247.929 86.9464 248.058L112.38 245.702C113.235 245.806 117.975 245.34 119.218 244.511C119.943 244.02 121.083 243.89 122.145 244.46C123.336 245.081 124.372 245.521 124.76 245.133C125.253 244.641 122.3 243.372 122.378 243.139C122.455 242.906 124.009 243.735 124.76 244.123C125.589 244.563 126.548 244.615 126.703 244.304C127.091 243.553 125.382 242.518 125.382 242.518C125.382 242.518 127.765 243.812 128.024 243.165C128.179 242.777 127.091 241.948 126.185 241.456C125.563 241.12 123.31 240.291 123.414 239.981C123.491 239.773 125.589 240.783 126.03 240.913C126.884 241.172 128.179 241.172 128.153 240.809C128.102 240.265 123.362 237.909 120.513 238.505C117.767 239.074 113.494 239.359 112.432 239.515L87.4385 235.967C84.4859 235.838 81.9736 238.453 81.8441 241.793Z" fill="#A16854"/>
<path d="M124.217 236.589C124.217 236.589 125.952 232.938 125.667 231.022C125.382 229.132 123.828 223.98 123.621 222.401" stroke="#2C3447" stroke-width="1.0897" stroke-miterlimit="10"/>
<path d="M108.204 195.432C110.066 194.918 111.004 192.435 110.299 189.885C109.595 187.335 107.515 185.685 105.653 186.198C103.792 186.712 102.854 189.196 103.559 191.746C104.263 194.296 106.343 195.946 108.204 195.432Z" fill="#322A28"/>
<path d="M107.666 276.176H104.714V315.038H107.666V276.176Z" fill="#596874"/>
<path d="M113.546 312.475H98.835V315.038H113.546V312.475Z" fill="#596874"/>
<path d="M110.438 275.632H101.917V278.144H110.438V275.632Z" fill="#596874"/>
<path d="M88.1639 319.957C88.7078 319.957 89.1481 319.517 89.1481 318.973V317.86C89.1481 317.316 88.7078 316.876 88.1639 316.876C87.62 316.876 87.1797 317.316 87.1797 317.86V318.973C87.1797 319.517 87.62 319.957 88.1639 319.957Z" fill="#596874"/>
<path d="M98.8349 312.475L88.1641 316.876L98.8349 315.038V312.475Z" fill="#596874"/>
<path d="M79.1511 248.965H76.4316V320.294H79.1511V248.965Z" fill="#BCDBF3"/>
<path d="M84.0977 260.15C84.0977 260.15 118.363 255.826 125.33 262.066C131.469 267.555 126.625 275.529 126.625 275.529L92.7742 275.632L84.0977 260.15Z" fill="#EF4545"/>
<path d="M111.37 248.965H108.65V320.294H111.37V248.965Z" fill="#BCDBF3"/>
<path d="M188.941 248.965H186.222V320.294H188.941V248.965Z" fill="#596874"/>
<path d="M140.327 239.515H178.089C178.84 239.515 179.462 238.945 179.514 238.194L181.068 214.893C181.119 214.064 180.472 213.365 179.643 213.365H141.881C141.13 213.365 140.508 213.935 140.456 214.686L138.902 237.987C138.851 238.816 139.498 239.515 140.327 239.515Z" fill="#94ACBF"/>
<path d="M139.188 238.919L140.224 239.929L142.062 237.133L139.421 236.9L139.188 238.919Z" fill="#94ACBF"/>
<path d="M180.524 213.65L181.456 214.53L179.514 215.876L178.219 214.504L179.669 213.65H180.524Z" fill="#94ACBF"/>
<path d="M141.181 240.292H178.944C179.695 240.292 180.316 239.722 180.368 238.971L181.922 215.67C181.974 214.841 181.326 214.142 180.498 214.142H142.735C141.984 214.142 141.363 214.712 141.311 215.463L139.757 238.764C139.705 239.593 140.353 240.292 141.181 240.292Z" fill="#596874"/>
<path d="M156.515 234.673L157.654 245.651H166.719L164.958 228.589H157.059L156.515 234.673Z" fill="#596874"/>
<path d="M158.82 245.651H167.911L166.149 228.589H157.059L158.82 245.651Z" fill="#94ACBF"/>
<path d="M150.765 247.877H170.915V246.92C170.915 246.22 170.345 245.651 169.646 245.651H152.034C151.334 245.651 150.765 246.22 150.765 246.92V247.877Z" fill="#596874"/>
<path d="M154.339 247.877H174.489V246.92C174.489 246.22 173.919 245.651 173.22 245.651H155.608C154.909 245.651 154.339 246.22 154.339 246.92V247.877Z" fill="#94ACBF"/>
<path d="M192.566 247.877H97.125V250.803H192.566V247.877Z" fill="#596874"/>
<path d="M112.303 247.877H72.7275V250.803H112.303V247.877Z" fill="#BCDBF3"/>
<path d="M146.517 247.877H118.493V247.152C118.493 246.66 118.882 246.272 119.374 246.272H145.636C146.128 246.272 146.517 246.66 146.517 247.152V247.877Z" fill="white"/>
<path d="M303.963 312.371V242.129C303.963 240.861 304.999 239.851 306.242 239.851H411.759C413.028 239.851 414.038 240.887 414.038 242.129V312.371C414.038 313.64 413.002 314.649 411.759 314.649H306.242C304.999 314.675 303.963 313.64 303.963 312.371Z" fill="white"/>
<path d="M409.687 244.201H308.34V276.693H409.687V244.201Z" fill="#94ACBF"/>
<path d="M325.926 269.211H313.649C312.199 269.211 311.033 268.046 311.033 266.596V253.444C311.033 251.994 312.199 250.829 313.649 250.829H325.926C327.376 250.829 328.542 251.994 328.542 253.444V266.596C328.542 268.046 327.376 269.211 325.926 269.211Z" fill="#BCDBF3"/>
<path d="M317.379 253.651H313.416V255.929H317.379V253.651Z" fill="#94ACBF"/>
<path d="M317.379 257.146H313.416V259.424H317.379V257.146Z" fill="#94ACBF"/>
<path d="M317.379 260.615H313.416V262.894H317.379V260.615Z" fill="#94ACBF"/>
<path d="M317.379 264.085H313.416V266.363H317.379V264.085Z" fill="#94ACBF"/>
<path d="M326.677 254.79H318.959V258.259H326.677V254.79Z" fill="#43C3F2"/>
<path d="M326.677 261.754H318.959V265.224H326.677V261.754Z" fill="#43C3F2"/>
<path d="M313.598 272.318C313.598 273.017 313.028 273.587 312.329 273.587C311.629 273.587 311.06 273.017 311.06 272.318C311.06 271.619 311.629 271.049 312.329 271.049C313.002 271.049 313.598 271.619 313.598 272.318Z" fill="#EF4545"/>
<path d="M318.57 272.318C318.57 273.017 318.001 273.587 317.301 273.587C316.602 273.587 316.032 273.017 316.032 272.318C316.032 271.619 316.602 271.049 317.301 271.049C318.001 271.049 318.57 271.619 318.57 272.318Z" fill="#F9E181"/>
<path d="M323.569 272.318C323.569 273.017 323 273.587 322.3 273.587C321.601 273.587 321.031 273.017 321.031 272.318C321.031 271.619 321.601 271.049 322.3 271.049C323 271.049 323.569 271.619 323.569 272.318Z" fill="#79C369"/>
<path d="M328.542 272.318C328.542 273.017 327.972 273.587 327.273 273.587C326.574 273.587 326.004 273.017 326.004 272.318C326.004 271.619 326.574 271.049 327.273 271.049C327.972 271.049 328.542 271.619 328.542 272.318Z" fill="#BCDBF3"/>
<path d="M312.302 249.716C313.003 249.716 313.571 249.148 313.571 248.447C313.571 247.746 313.003 247.178 312.302 247.178C311.601 247.178 311.033 247.746 311.033 248.447C311.033 249.148 311.601 249.716 312.302 249.716Z" fill="#EF4545"/>
<path d="M317.301 249.716C318.002 249.716 318.57 249.148 318.57 248.447C318.57 247.746 318.002 247.178 317.301 247.178C316.6 247.178 316.032 247.746 316.032 248.447C316.032 249.148 316.6 249.716 317.301 249.716Z" fill="#F9E181"/>
<path d="M322.274 249.716C322.975 249.716 323.543 249.148 323.543 248.447C323.543 247.746 322.975 247.178 322.274 247.178C321.573 247.178 321.005 247.746 321.005 248.447C321.005 249.148 321.573 249.716 322.274 249.716Z" fill="#79C369"/>
<path d="M327.273 249.716C327.974 249.716 328.542 249.148 328.542 248.447C328.542 247.746 327.974 247.178 327.273 247.178C326.572 247.178 326.004 247.746 326.004 248.447C326.004 249.148 326.572 249.716 327.273 249.716Z" fill="#BCDBF3"/>
<path d="M352.085 269.211H339.808C338.358 269.211 337.192 268.046 337.192 266.596V253.444C337.192 251.994 338.358 250.829 339.808 250.829H352.085C353.535 250.829 354.701 251.994 354.701 253.444V266.596C354.701 268.046 353.535 269.211 352.085 269.211Z" fill="#BCDBF3"/>
<path d="M343.538 253.651H339.575V255.929H343.538V253.651Z" fill="#94ACBF"/>
<path d="M343.538 257.146H339.575V259.424H343.538V257.146Z" fill="#94ACBF"/>
<path d="M343.538 260.615H339.575V262.894H343.538V260.615Z" fill="#94ACBF"/>
<path d="M343.538 264.085H339.575V266.363H343.538V264.085Z" fill="#94ACBF"/>
<path d="M352.81 254.79H345.092V258.259H352.81V254.79Z" fill="#43C3F2"/>
<path d="M352.81 261.754H345.092V265.224H352.81V261.754Z" fill="#43C3F2"/>
<path d="M339.731 272.318C339.731 273.017 339.161 273.587 338.461 273.587C337.762 273.587 337.192 273.017 337.192 272.318C337.192 271.619 337.762 271.049 338.461 271.049C339.161 271.049 339.731 271.619 339.731 272.318Z" fill="#EF4545"/>
<path d="M344.73 272.318C344.73 273.017 344.16 273.587 343.461 273.587C342.761 273.587 342.191 273.017 342.191 272.318C342.191 271.619 342.761 271.049 343.461 271.049C344.16 271.049 344.73 271.619 344.73 272.318Z" fill="#F9E181"/>
<path d="M349.702 272.318C349.702 273.017 349.132 273.587 348.433 273.587C347.734 273.587 347.164 273.017 347.164 272.318C347.164 271.619 347.734 271.049 348.433 271.049C349.132 271.049 349.702 271.619 349.702 272.318Z" fill="#79C369"/>
<path d="M354.701 272.318C354.701 273.017 354.131 273.587 353.432 273.587C352.733 273.587 352.163 273.017 352.163 272.318C352.163 271.619 352.733 271.049 353.432 271.049C354.131 271.049 354.701 271.619 354.701 272.318Z" fill="#BCDBF3"/>
<path d="M338.461 249.716C339.162 249.716 339.731 249.148 339.731 248.447C339.731 247.746 339.162 247.178 338.461 247.178C337.761 247.178 337.192 247.746 337.192 248.447C337.192 249.148 337.761 249.716 338.461 249.716Z" fill="#EF4545"/>
<path d="M343.434 249.716C344.135 249.716 344.703 249.148 344.703 248.447C344.703 247.746 344.135 247.178 343.434 247.178C342.733 247.178 342.165 247.746 342.165 248.447C342.165 249.148 342.733 249.716 343.434 249.716Z" fill="#F9E181"/>
<path d="M348.433 249.716C349.134 249.716 349.702 249.148 349.702 248.447C349.702 247.746 349.134 247.178 348.433 247.178C347.732 247.178 347.164 247.746 347.164 248.447C347.164 249.148 347.732 249.716 348.433 249.716Z" fill="#79C369"/>
<path d="M353.432 249.716C354.133 249.716 354.701 249.148 354.701 248.447C354.701 247.746 354.133 247.178 353.432 247.178C352.731 247.178 352.163 247.746 352.163 248.447C352.163 249.148 352.731 249.716 353.432 249.716Z" fill="#BCDBF3"/>
<path d="M378.218 269.211H365.941C364.491 269.211 363.325 268.046 363.325 266.596V253.444C363.325 251.994 364.491 250.829 365.941 250.829H378.218C379.668 250.829 380.834 251.994 380.834 253.444V266.596C380.859 268.046 379.668 269.211 378.218 269.211Z" fill="#BCDBF3"/>
<path d="M369.697 253.651H365.734V255.929H369.697V253.651Z" fill="#94ACBF"/>
<path d="M369.697 257.146H365.734V259.424H369.697V257.146Z" fill="#94ACBF"/>
<path d="M369.697 260.615H365.734V262.894H369.697V260.615Z" fill="#94ACBF"/>
<path d="M369.697 264.085H365.734V266.363H369.697V264.085Z" fill="#94ACBF"/>
<path d="M378.969 254.79H371.251V258.259H378.969V254.79Z" fill="#43C3F2"/>
<path d="M378.969 261.754H371.251V265.224H378.969V261.754Z" fill="#43C3F2"/>
<path d="M365.89 272.318C365.89 273.017 365.32 273.587 364.621 273.587C363.921 273.587 363.352 273.017 363.352 272.318C363.352 271.619 363.921 271.049 364.621 271.049C365.32 271.049 365.89 271.619 365.89 272.318Z" fill="#EF4545"/>
<path d="M370.889 272.318C370.889 273.017 370.319 273.587 369.62 273.587C368.92 273.587 368.351 273.017 368.351 272.318C368.351 271.619 368.92 271.049 369.62 271.049C370.293 271.049 370.889 271.619 370.889 272.318Z" fill="#F9E181"/>
<path d="M375.861 272.318C375.861 273.017 375.292 273.587 374.592 273.587C373.893 273.587 373.323 273.017 373.323 272.318C373.323 271.619 373.893 271.049 374.592 271.049C375.292 271.049 375.861 271.619 375.861 272.318Z" fill="#79C369"/>
<path d="M380.86 272.318C380.86 273.017 380.29 273.587 379.59 273.587C378.891 273.587 378.321 273.017 378.321 272.318C378.321 271.619 378.891 271.049 379.59 271.049C380.29 271.049 380.86 271.619 380.86 272.318Z" fill="#BCDBF3"/>
<path d="M364.594 249.716C365.295 249.716 365.863 249.148 365.863 248.447C365.863 247.746 365.295 247.178 364.594 247.178C363.893 247.178 363.325 247.746 363.325 248.447C363.325 249.148 363.893 249.716 364.594 249.716Z" fill="#EF4545"/>
<path d="M369.593 249.716C370.294 249.716 370.862 249.148 370.862 248.447C370.862 247.746 370.294 247.178 369.593 247.178C368.892 247.178 368.324 247.746 368.324 248.447C368.324 249.148 368.892 249.716 369.593 249.716Z" fill="#F9E181"/>
<path d="M374.592 249.716C375.293 249.716 375.861 249.148 375.861 248.447C375.861 247.746 375.293 247.178 374.592 247.178C373.891 247.178 373.323 247.746 373.323 248.447C373.323 249.148 373.891 249.716 374.592 249.716Z" fill="#79C369"/>
<path d="M379.565 249.716C380.266 249.716 380.834 249.148 380.834 248.447C380.834 247.746 380.266 247.178 379.565 247.178C378.864 247.178 378.296 247.746 378.296 248.447C378.296 249.148 378.864 249.716 379.565 249.716Z" fill="#BCDBF3"/>
<path d="M404.377 269.211H392.1C390.65 269.211 389.484 268.046 389.484 266.596V253.444C389.484 251.994 390.65 250.829 392.1 250.829H404.377C405.827 250.829 406.993 251.994 406.993 253.444V266.596C406.993 268.046 405.827 269.211 404.377 269.211Z" fill="#BCDBF3"/>
<path d="M395.83 253.651H391.867V255.929H395.83V253.651Z" fill="#94ACBF"/>
<path d="M395.83 257.146H391.867V259.424H395.83V257.146Z" fill="#94ACBF"/>
<path d="M395.83 260.615H391.867V262.894H395.83V260.615Z" fill="#94ACBF"/>
<path d="M395.83 264.085H391.867V266.363H395.83V264.085Z" fill="#94ACBF"/>
<path d="M405.128 254.79H397.41V258.259H405.128V254.79Z" fill="#43C3F2"/>
<path d="M405.128 261.754H397.41V265.224H405.128V261.754Z" fill="#43C3F2"/>
<path d="M392.049 272.318C392.049 273.017 391.479 273.587 390.78 273.587C390.081 273.587 389.511 273.017 389.511 272.318C389.511 271.619 390.081 271.049 390.78 271.049C391.479 271.049 392.049 271.619 392.049 272.318Z" fill="#EF4545"/>
<path d="M397.022 272.318C397.022 273.017 396.452 273.587 395.753 273.587C395.053 273.587 394.483 273.017 394.483 272.318C394.483 271.619 395.053 271.049 395.753 271.049C396.452 271.049 397.022 271.619 397.022 272.318Z" fill="#F9E181"/>
<path d="M402.021 272.318C402.021 273.017 401.451 273.587 400.752 273.587C400.052 273.587 399.482 273.017 399.482 272.318C399.482 271.619 400.052 271.049 400.752 271.049C401.451 271.049 402.021 271.619 402.021 272.318Z" fill="#79C369"/>
<path d="M406.993 272.318C406.993 273.017 406.423 273.587 405.724 273.587C405.025 273.587 404.455 273.017 404.455 272.318C404.455 271.619 405.025 271.049 405.724 271.049C406.423 271.049 406.993 271.619 406.993 272.318Z" fill="#BCDBF3"/>
<path d="M390.753 249.716C391.454 249.716 392.023 249.148 392.023 248.447C392.023 247.746 391.454 247.178 390.753 247.178C390.053 247.178 389.484 247.746 389.484 248.447C389.484 249.148 390.053 249.716 390.753 249.716Z" fill="#EF4545"/>
<path d="M395.753 249.716C396.453 249.716 397.022 249.148 397.022 248.447C397.022 247.746 396.453 247.178 395.753 247.178C395.052 247.178 394.483 247.746 394.483 248.447C394.483 249.148 395.052 249.716 395.753 249.716Z" fill="#F9E181"/>
<path d="M400.725 249.716C401.426 249.716 401.994 249.148 401.994 248.447C401.994 247.746 401.426 247.178 400.725 247.178C400.024 247.178 399.456 247.746 399.456 248.447C399.456 249.148 400.024 249.716 400.725 249.716Z" fill="#79C369"/>
<path d="M405.724 249.716C406.425 249.716 406.993 249.148 406.993 248.447C406.993 247.746 406.425 247.178 405.724 247.178C405.023 247.178 404.455 247.746 404.455 248.447C404.455 249.148 405.023 249.716 405.724 249.716Z" fill="#BCDBF3"/>
<path d="M409.687 276.564H308.34V310.3H409.687V276.564Z" fill="#596874"/>
<path d="M339.756 280.188H311.033V283.062H339.756V280.188Z" fill="#EF4545"/>
<path d="M339.756 284.9H311.033V287.774H339.756V284.9Z" fill="#F9E181"/>
<path d="M339.756 289.613H311.033V292.487H339.756V289.613Z" fill="#F8EBB8"/>
<path d="M339.756 294.351H311.033V297.224H339.756V294.351Z" fill="#79C369"/>
<path d="M339.756 299.063H311.033V301.937H339.756V299.063Z" fill="#40A87C"/>
<path d="M339.756 303.775H311.033V306.649H339.756V303.775Z" fill="#43C3F2"/>
<path d="M347.578 281.457C347.578 282.156 347.008 282.726 346.309 282.726C345.61 282.726 345.04 282.156 345.04 281.457C345.04 280.758 345.61 280.188 346.309 280.188C347.008 280.188 347.578 280.758 347.578 281.457Z" fill="#EF4545"/>
<path d="M352.551 281.457C352.551 282.156 351.981 282.726 351.282 282.726C350.583 282.726 350.013 282.156 350.013 281.457C350.013 280.758 350.583 280.188 351.282 280.188C351.981 280.188 352.551 280.758 352.551 281.457Z" fill="#EF4545"/>
<path d="M357.55 281.457C357.55 282.156 356.98 282.726 356.281 282.726C355.582 282.726 355.012 282.156 355.012 281.457C355.012 280.758 355.582 280.188 356.281 280.188C356.98 280.188 357.55 280.758 357.55 281.457Z" fill="#EF4545"/>
<path d="M362.549 281.457C362.549 282.156 361.979 282.726 361.28 282.726C360.581 282.726 360.011 282.156 360.011 281.457C360.011 280.758 360.581 280.188 361.28 280.188C361.979 280.188 362.549 280.758 362.549 281.457Z" fill="#F9E181"/>
<path d="M367.443 281.457C367.443 282.156 366.874 282.726 366.174 282.726C365.475 282.726 364.905 282.156 364.905 281.457C364.905 280.758 365.475 280.188 366.174 280.188C366.874 280.188 367.443 280.758 367.443 281.457Z" fill="#F9E181"/>
<path d="M372.443 281.457C372.443 282.156 371.873 282.726 371.173 282.726C370.474 282.726 369.904 282.156 369.904 281.457C369.904 280.758 370.474 280.188 371.173 280.188C371.873 280.188 372.443 280.758 372.443 281.457Z" fill="#F9E181"/>
<path d="M377.442 281.457C377.442 282.156 376.872 282.726 376.172 282.726C375.473 282.726 374.903 282.156 374.903 281.457C374.903 280.758 375.473 280.188 376.172 280.188C376.872 280.188 377.442 280.758 377.442 281.457Z" fill="#79C369"/>
<path d="M382.414 281.457C382.414 282.156 381.844 282.726 381.145 282.726C380.446 282.726 379.876 282.156 379.876 281.457C379.876 280.758 380.446 280.188 381.145 280.188C381.844 280.188 382.414 280.758 382.414 281.457Z" fill="#79C369"/>
<path d="M347.578 285.574C347.578 286.273 347.008 286.842 346.309 286.842C345.61 286.842 345.04 286.273 345.04 285.574C345.04 284.875 345.61 284.305 346.309 284.305C347.008 284.305 347.578 284.875 347.578 285.574Z" fill="#EF4545"/>
<path d="M352.551 285.574C352.551 286.273 351.981 286.842 351.282 286.842C350.583 286.842 350.013 286.273 350.013 285.574C350.013 284.875 350.583 284.305 351.282 284.305C351.981 284.305 352.551 284.875 352.551 285.574Z" fill="#EF4545"/>
<path d="M357.55 285.574C357.55 286.273 356.98 286.842 356.281 286.842C355.582 286.842 355.012 286.273 355.012 285.574C355.012 284.875 355.582 284.305 356.281 284.305C356.98 284.305 357.55 284.875 357.55 285.574Z" fill="#EF4545"/>
<path d="M362.549 285.574C362.549 286.273 361.979 286.842 361.28 286.842C360.581 286.842 360.011 286.273 360.011 285.574C360.011 284.875 360.581 284.305 361.28 284.305C361.979 284.305 362.549 284.875 362.549 285.574Z" fill="#F9E181"/>
<path d="M367.443 285.574C367.443 286.273 366.874 286.842 366.174 286.842C365.475 286.842 364.905 286.273 364.905 285.574C364.905 284.875 365.475 284.305 366.174 284.305C366.874 284.305 367.443 284.875 367.443 285.574Z" fill="#F9E181"/>
<path d="M372.443 285.574C372.443 286.273 371.873 286.842 371.173 286.842C370.474 286.842 369.904 286.273 369.904 285.574C369.904 284.875 370.474 284.305 371.173 284.305C371.873 284.305 372.443 284.875 372.443 285.574Z" fill="#F9E181"/>
<path d="M377.442 285.574C377.442 286.273 376.872 286.842 376.172 286.842C375.473 286.842 374.903 286.273 374.903 285.574C374.903 284.875 375.473 284.305 376.172 284.305C376.872 284.305 377.442 284.875 377.442 285.574Z" fill="#79C369"/>
<path d="M382.414 285.574C382.414 286.273 381.844 286.842 381.145 286.842C380.446 286.842 379.876 286.273 379.876 285.574C379.876 284.875 380.446 284.305 381.145 284.305C381.844 284.305 382.414 284.875 382.414 285.574Z" fill="#79C369"/>
<path d="M346.284 292.642C346.985 292.642 347.553 292.074 347.553 291.374C347.553 290.673 346.985 290.105 346.284 290.105C345.583 290.105 345.015 290.673 345.015 291.374C345.015 292.074 345.583 292.642 346.284 292.642Z" fill="#EF4545"/>
<path d="M351.282 292.642C351.983 292.642 352.551 292.074 352.551 291.374C352.551 290.673 351.983 290.105 351.282 290.105C350.581 290.105 350.013 290.673 350.013 291.374C350.013 292.074 350.581 292.642 351.282 292.642Z" fill="#EF4545"/>
<path d="M356.281 292.642C356.982 292.642 357.55 292.074 357.55 291.374C357.55 290.673 356.982 290.105 356.281 290.105C355.58 290.105 355.012 290.673 355.012 291.374C355.012 292.074 355.58 292.642 356.281 292.642Z" fill="#F9E181"/>
<path d="M361.253 292.642C361.954 292.642 362.523 292.074 362.523 291.374C362.523 290.673 361.954 290.105 361.253 290.105C360.553 290.105 359.984 290.673 359.984 291.374C359.984 292.074 360.553 292.642 361.253 292.642Z" fill="#F9E181"/>
<path d="M366.174 292.642C366.875 292.642 367.443 292.074 367.443 291.374C367.443 290.673 366.875 290.105 366.174 290.105C365.473 290.105 364.905 290.673 364.905 291.374C364.905 292.074 365.473 292.642 366.174 292.642Z" fill="#79C369"/>
<path d="M371.173 292.642C371.874 292.642 372.443 292.074 372.443 291.374C372.443 290.673 371.874 290.105 371.173 290.105C370.472 290.105 369.904 290.673 369.904 291.374C369.904 292.074 370.472 292.642 371.173 292.642Z" fill="#79C369"/>
<path d="M376.146 292.642C376.847 292.642 377.415 292.074 377.415 291.374C377.415 290.673 376.847 290.105 376.146 290.105C375.445 290.105 374.877 290.673 374.877 291.374C374.877 292.074 375.445 292.642 376.146 292.642Z" fill="#79C369"/>
<path d="M381.145 292.642C381.846 292.642 382.414 292.074 382.414 291.374C382.414 290.673 381.846 290.105 381.145 290.105C380.444 290.105 379.876 290.673 379.876 291.374C379.876 292.074 380.444 292.642 381.145 292.642Z" fill="#79C369"/>
<path d="M346.284 296.759C346.985 296.759 347.553 296.191 347.553 295.49C347.553 294.79 346.985 294.222 346.284 294.222C345.583 294.222 345.015 294.79 345.015 295.49C345.015 296.191 345.583 296.759 346.284 296.759Z" fill="#EF4545"/>
<path d="M351.282 296.759C351.983 296.759 352.551 296.191 352.551 295.49C352.551 294.79 351.983 294.222 351.282 294.222C350.581 294.222 350.013 294.79 350.013 295.49C350.013 296.191 350.581 296.759 351.282 296.759Z" fill="#F9E181"/>
<path d="M356.281 296.759C356.982 296.759 357.55 296.191 357.55 295.49C357.55 294.79 356.982 294.222 356.281 294.222C355.58 294.222 355.012 294.79 355.012 295.49C355.012 296.191 355.58 296.759 356.281 296.759Z" fill="#F9E181"/>
<path d="M361.253 296.759C361.954 296.759 362.523 296.191 362.523 295.49C362.523 294.79 361.954 294.222 361.253 294.222C360.553 294.222 359.984 294.79 359.984 295.49C359.984 296.191 360.553 296.759 361.253 296.759Z" fill="#F9E181"/>
<path d="M366.174 296.759C366.875 296.759 367.443 296.191 367.443 295.49C367.443 294.79 366.875 294.222 366.174 294.222C365.473 294.222 364.905 294.79 364.905 295.49C364.905 296.191 365.473 296.759 366.174 296.759Z" fill="#F9E181"/>
<path d="M371.173 296.759C371.874 296.759 372.443 296.191 372.443 295.49C372.443 294.79 371.874 294.222 371.173 294.222C370.472 294.222 369.904 294.79 369.904 295.49C369.904 296.191 370.472 296.759 371.173 296.759Z" fill="#F9E181"/>
<path d="M376.146 296.759C376.847 296.759 377.415 296.191 377.415 295.49C377.415 294.79 376.847 294.222 376.146 294.222C375.445 294.222 374.877 294.79 374.877 295.49C374.877 296.191 375.445 296.759 376.146 296.759Z" fill="#79C369"/>
<path d="M381.145 296.759C381.846 296.759 382.414 296.191 382.414 295.49C382.414 294.79 381.846 294.222 381.145 294.222C380.444 294.222 379.876 294.79 379.876 295.49C379.876 296.191 380.444 296.759 381.145 296.759Z" fill="#79C369"/>
<path d="M346.284 302.532C346.985 302.532 347.553 301.964 347.553 301.264C347.553 300.563 346.985 299.995 346.284 299.995C345.583 299.995 345.015 300.563 345.015 301.264C345.015 301.964 345.583 302.532 346.284 302.532Z" fill="#79C369"/>
<path d="M351.282 302.532C351.983 302.532 352.551 301.964 352.551 301.264C352.551 300.563 351.983 299.995 351.282 299.995C350.581 299.995 350.013 300.563 350.013 301.264C350.013 301.964 350.581 302.532 351.282 302.532Z" fill="#79C369"/>
<path d="M356.281 302.532C356.982 302.532 357.55 301.964 357.55 301.264C357.55 300.563 356.982 299.995 356.281 299.995C355.58 299.995 355.012 300.563 355.012 301.264C355.012 301.964 355.58 302.532 356.281 302.532Z" fill="#F9E181"/>
<path d="M361.253 302.532C361.954 302.532 362.523 301.964 362.523 301.264C362.523 300.563 361.954 299.995 361.253 299.995C360.553 299.995 359.984 300.563 359.984 301.264C359.984 301.964 360.553 302.532 361.253 302.532Z" fill="#F9E181"/>
<path d="M366.174 302.532C366.875 302.532 367.443 301.964 367.443 301.264C367.443 300.563 366.875 299.995 366.174 299.995C365.473 299.995 364.905 300.563 364.905 301.264C364.905 301.964 365.473 302.532 366.174 302.532Z" fill="#F9E181"/>
<path d="M371.173 302.532C371.874 302.532 372.443 301.964 372.443 301.264C372.443 300.563 371.874 299.995 371.173 299.995C370.472 299.995 369.904 300.563 369.904 301.264C369.904 301.964 370.472 302.532 371.173 302.532Z" fill="#BCDBF3"/>
<path d="M376.146 302.532C376.847 302.532 377.415 301.964 377.415 301.264C377.415 300.563 376.847 299.995 376.146 299.995C375.445 299.995 374.877 300.563 374.877 301.264C374.877 301.964 375.445 302.532 376.146 302.532Z" fill="#BCDBF3"/>
<path d="M381.145 302.532C381.846 302.532 382.414 301.964 382.414 301.264C382.414 300.563 381.846 299.995 381.145 299.995C380.444 299.995 379.876 300.563 379.876 301.264C379.876 301.964 380.444 302.532 381.145 302.532Z" fill="#BCDBF3"/>
<path d="M346.284 306.649C346.985 306.649 347.553 306.081 347.553 305.38C347.553 304.68 346.985 304.112 346.284 304.112C345.583 304.112 345.015 304.68 345.015 305.38C345.015 306.081 345.583 306.649 346.284 306.649Z" fill="#79C369"/>
<path d="M351.282 306.649C351.983 306.649 352.551 306.081 352.551 305.38C352.551 304.68 351.983 304.112 351.282 304.112C350.581 304.112 350.013 304.68 350.013 305.38C350.013 306.081 350.581 306.649 351.282 306.649Z" fill="#79C369"/>
<path d="M356.281 306.649C356.982 306.649 357.55 306.081 357.55 305.38C357.55 304.68 356.982 304.112 356.281 304.112C355.58 304.112 355.012 304.68 355.012 305.38C355.012 306.081 355.58 306.649 356.281 306.649Z" fill="#F9E181"/>
<path d="M361.253 306.649C361.954 306.649 362.523 306.081 362.523 305.38C362.523 304.68 361.954 304.112 361.253 304.112C360.553 304.112 359.984 304.68 359.984 305.38C359.984 306.081 360.553 306.649 361.253 306.649Z" fill="#F9E181"/>
<path d="M366.174 306.649C366.875 306.649 367.443 306.081 367.443 305.38C367.443 304.68 366.875 304.112 366.174 304.112C365.473 304.112 364.905 304.68 364.905 305.38C364.905 306.081 365.473 306.649 366.174 306.649Z" fill="#BCDBF3"/>
<path d="M371.173 306.649C371.874 306.649 372.443 306.081 372.443 305.38C372.443 304.68 371.874 304.112 371.173 304.112C370.472 304.112 369.904 304.68 369.904 305.38C369.904 306.081 370.472 306.649 371.173 306.649Z" fill="#BCDBF3"/>
<path d="M376.146 306.649C376.847 306.649 377.415 306.081 377.415 305.38C377.415 304.68 376.847 304.112 376.146 304.112C375.445 304.112 374.877 304.68 374.877 305.38C374.877 306.081 375.445 306.649 376.146 306.649Z" fill="#BCDBF3"/>
<path d="M381.145 306.649C381.846 306.649 382.414 306.081 382.414 305.38C382.414 304.68 381.846 304.112 381.145 304.112C380.444 304.112 379.876 304.68 379.876 305.38C379.876 306.081 380.444 306.649 381.145 306.649Z" fill="#BCDBF3"/>
<path d="M404.377 302.196H392.1C390.65 302.196 389.484 301.031 389.484 299.581V286.428C389.484 284.979 390.65 283.813 392.1 283.813H404.377C405.827 283.813 406.993 284.979 406.993 286.428V299.581C406.993 301.031 405.827 302.196 404.377 302.196Z" fill="#BCDBF3"/>
<path d="M395.83 286.635H391.867V288.914H395.83V286.635Z" fill="#89A5C7"/>
<path d="M395.83 290.105H391.867V292.383H395.83V290.105Z" fill="#89A5C7"/>
<path d="M395.83 293.6H391.867V295.878H395.83V293.6Z" fill="#89A5C7"/>
<path d="M395.83 297.069H391.867V299.348H395.83V297.069Z" fill="#89A5C7"/>
<path d="M405.128 287.774H397.41V291.244H405.128V287.774Z" fill="#43C3F2"/>
<path d="M405.128 294.739H397.41V298.209H405.128V294.739Z" fill="#43C3F2"/>
<path d="M392.049 305.303C392.049 306.002 391.479 306.571 390.78 306.571C390.081 306.571 389.511 306.002 389.511 305.303C389.511 304.604 390.081 304.034 390.78 304.034C391.479 304.034 392.049 304.604 392.049 305.303Z" fill="#EF4545"/>
<path d="M397.022 305.303C397.022 306.002 396.452 306.571 395.753 306.571C395.053 306.571 394.483 306.002 394.483 305.303C394.483 304.604 395.053 304.034 395.753 304.034C396.452 304.034 397.022 304.604 397.022 305.303Z" fill="#F9E181"/>
<path d="M402.021 305.303C402.021 306.002 401.451 306.571 400.752 306.571C400.052 306.571 399.482 306.002 399.482 305.303C399.482 304.604 400.052 304.034 400.752 304.034C401.451 304.034 402.021 304.604 402.021 305.303Z" fill="#79C369"/>
<path d="M406.993 305.303C406.993 306.002 406.423 306.571 405.724 306.571C405.025 306.571 404.455 306.002 404.455 305.303C404.455 304.604 405.025 304.034 405.724 304.034C406.423 304.034 406.993 304.604 406.993 305.303Z" fill="#BCDBF3"/>
<path d="M390.753 282.7C391.454 282.7 392.023 282.132 392.023 281.431C392.023 280.731 391.454 280.163 390.753 280.163C390.053 280.163 389.484 280.731 389.484 281.431C389.484 282.132 390.053 282.7 390.753 282.7Z" fill="#EF4545"/>
<path d="M395.753 282.7C396.453 282.7 397.022 282.132 397.022 281.431C397.022 280.731 396.453 280.163 395.753 280.163C395.052 280.163 394.483 280.731 394.483 281.431C394.483 282.132 395.052 282.7 395.753 282.7Z" fill="#F9E181"/>
<path d="M400.725 282.7C401.426 282.7 401.994 282.132 401.994 281.431C401.994 280.731 401.426 280.163 400.725 280.163C400.024 280.163 399.456 280.731 399.456 281.431C399.456 282.132 400.024 282.7 400.725 282.7Z" fill="#79C369"/>
<path d="M405.724 282.7C406.425 282.7 406.993 282.132 406.993 281.431C406.993 280.731 406.425 280.163 405.724 280.163C405.023 280.163 404.455 280.731 404.455 281.431C404.455 282.132 405.023 282.7 405.724 282.7Z" fill="#BCDBF3"/>
<path d="M319.788 314.675H309.531V319.983H319.788V314.675Z" fill="white"/>
<path d="M398.231 319.974H408.487V314.667H398.231V319.974Z" fill="white"/>
<path opacity="0.4" d="M345.74 246.401L324.45 308.099H311.111L332.427 246.401H345.74Z" fill="white"/>
<path opacity="0.4" d="M356.566 246.401L335.276 308.099H328.594L349.909 246.401H356.566Z" fill="white"/>
<path opacity="0.4" d="M407.511 246.401V257.845L390.132 308.099H371.847L393.136 246.401H407.511Z" fill="white"/>
<path opacity="0.4" d="M388.112 246.401L366.796 308.099H357.653L378.943 246.401H388.112Z" fill="white"/>
<path d="M352.499 115.239L363.558 115.032L362.989 103.433L362.704 97.8924V97.6076L354.053 93.9829L353.768 97.8924L353.561 100.766L352.499 115.239Z" fill="#F9AD98"/>
<path d="M374.126 151.15L378.762 189.623C378.917 190.607 378.891 191.617 378.71 192.627C377.778 197.442 373.116 200.575 368.324 199.643C363.507 198.711 361.668 195.009 360.813 189.494C359.156 178.905 353.38 147.137 353.38 147.137L374.126 151.15Z" fill="#00ADB3"/>
<path d="M343.978 149.208L361.072 150.347L360.968 169.273L358.948 172.277L357.083 190.504L339.782 189.131L343.978 149.208Z" fill="#00ADB3"/>
<path d="M388.189 140.612L388.138 140.638C385.599 142.321 382.129 141.648 380.419 139.084L366.615 118.346C364.931 115.809 365.605 112.339 368.169 110.631L368.221 110.605C370.759 108.922 374.229 109.595 375.939 112.158L389.743 132.897C391.427 135.46 390.728 138.929 388.189 140.612Z" fill="#EF4545"/>
<path d="M313.261 114.566L319.14 120.314L325.071 116.689L321.238 110.76L313.52 111.019L313.261 114.566Z" fill="#E99881"/>
<path d="M336.053 141.751C333.281 143.357 329.862 142.683 328.438 140.224L321.471 127.486L319.01 122.981L316.446 118.269L320.72 115.317L323.75 113.22L324.035 113.013L327.169 117.647L330.044 121.893L338.487 134.398C339.886 136.832 338.798 140.146 336.053 141.751Z" fill="#EF4545"/>
<path d="M357.886 110.372C353.82 110.45 352.111 108.456 351.593 107.653L353.121 106.98L363.144 106.488L364.361 106.877C363.843 107.809 362.03 110.294 357.886 110.372Z" fill="#F9AD98"/>
<path d="M343.512 135.615L343.279 152.185H374.514L374.152 110.372L363.429 106.488C363.3 106.695 363.17 106.928 363.015 107.187L362.963 107.239C362.393 107.99 361.279 108.689 358.171 108.741C355.581 108.793 354.312 108.43 353.587 107.964C353.199 107.705 352.965 107.394 352.784 107.11L342.657 109.336L343.331 130.437L343.512 135.615Z" fill="#EF4545"/>
<path d="M382.026 228.666H365.968L361.124 191.306C360.606 186.439 364.155 182.063 369.024 181.571C373.893 181.053 378.244 184.6 378.762 189.468C378.814 189.882 378.814 190.296 378.788 190.711L381.585 223.514L382.026 228.666Z" fill="#00ADB3"/>
<path d="M330.458 142.01C333.229 143.409 336.648 142.321 338.047 139.551L349.391 117.285C350.79 114.515 349.702 111.097 346.93 109.699C344.159 108.301 340.74 109.388 339.342 112.158L327.998 134.399C326.573 137.169 327.687 140.586 330.458 142.01Z" fill="#EF4545"/>
<path d="M353.562 107.99L358.146 115.239L362.937 107.265C362.368 108.016 361.254 108.715 358.146 108.767C355.556 108.819 354.287 108.456 353.562 107.99Z" fill="#D7E9F8"/>
<path d="M406.682 190.219C404.299 188.847 398.731 186.387 395.752 184.911C391.427 182.788 388.837 174.633 396.063 168.238C401.942 163.034 411.085 170.205 414.426 172.665C414.944 173.053 415.669 172.613 415.592 171.966C415.333 170.128 414.245 166.581 410.93 163.085C404.843 156.69 399.275 155.499 394.924 156.017C394.017 156.121 393.059 156.121 392.126 156.043C388.5 155.706 385.107 154.153 382.31 151.823L316.188 96.6498C307.33 88.4424 312.147 80.4163 304.766 73.0374C299.301 67.5745 288.967 67.9629 284.641 68.3771C283.968 68.4289 283.787 69.3092 284.356 69.6458C286.739 71.018 290.857 72.442 293.836 73.9177C298.161 76.0408 300.13 85.3096 292.903 91.7046C287.024 96.9087 279.125 90.5913 275.784 88.1576C275.266 87.7693 274.54 88.2094 274.618 88.8567C274.877 90.6949 275.913 93.8536 279.228 97.3488C285.315 103.744 291.79 104.391 296.115 103.873C297.954 103.64 299.922 104.08 301.658 104.676C303.963 105.478 306.087 106.747 307.951 108.326L376.146 165.234C377.596 166.425 378.736 167.953 379.487 169.687C382.025 175.642 379.927 181.286 385.341 186.724C390.805 192.186 402.072 191.928 406.397 191.513C407.045 191.41 407.252 190.555 406.682 190.219Z" fill="#94ACBF"/>
<path d="M380.808 162.464L307.174 101.025C306.113 100.145 305.983 98.5657 306.864 97.5042C307.744 96.4427 309.324 96.3132 310.386 97.1935L384.02 158.632C385.082 159.512 385.211 161.092 384.331 162.153C383.424 163.215 381.844 163.344 380.808 162.464Z" fill="#596874"/>
<path d="M349.288 143.305C349.366 143.797 352.267 144.418 354.416 144.185C356.255 144.004 360.425 143.097 361.642 142.813L361.176 136.961C360.425 136.936 359.622 136.858 358.923 136.703C357.213 136.366 352.5 135.952 352.448 136.651C352.396 137.324 355.582 138.256 355.323 138.515C355.064 138.774 352.577 138.644 351.515 138.515C350.454 138.385 348.226 137.712 347.786 138.152C347.346 138.593 347.838 139.395 347.838 139.395C347.838 139.395 347.009 139.033 346.879 139.602C346.75 140.146 347.889 141.026 347.889 141.026C347.889 141.026 347.449 140.767 347.475 141.415C347.501 142.062 349.625 142.787 349.625 142.787C349.625 142.787 349.21 142.839 349.288 143.305Z" fill="#F9AD98"/>
<path d="M357.136 189.83L353.018 228.666H337.219L339.757 189.623C339.731 189.209 339.861 188.743 339.886 188.329C340.327 183.461 344.186 179.811 349.081 180.225C353.95 180.665 357.55 184.963 357.136 189.83Z" fill="#00ADB3"/>
<path d="M360.243 135.123L365.838 134.01L370.888 133L384.382 130.282C387.179 129.919 389.821 132.197 390.235 135.356C390.65 138.515 388.707 141.415 385.91 141.803L371.82 142.839L366.692 143.227L361.409 143.615L360.243 135.123Z" fill="#EF4545"/>
<path d="M353.25 104.986L359.466 100.456L353.561 100.766L353.25 104.986Z" fill="#EB9E86"/>
<path d="M354.183 87.5364C354.183 87.5364 353.199 91.1093 352.499 93.6466L351.93 95.7437C351.463 97.4007 351.256 99.9898 352.966 101.077C354.675 102.165 357.446 102.087 359.777 100.637C362.108 99.1872 368.48 91.4976 363.844 86.7596C359.208 82.0216 354.546 86.7079 354.183 87.5364Z" fill="#F9AD98"/>
<path d="M362.833 100.171C362.833 100.171 359.829 95.5625 361.461 92.9217C363.092 90.3067 361.461 89.6336 360.321 89.8407C359.181 90.0478 357.187 89.996 356.358 89.6595C356.358 89.6595 358.793 89.7112 359.829 89.1158C359.829 89.1158 355.037 89.5041 353.976 88.2096L353.717 89.1416C353.717 89.1416 351.981 85.0768 354.597 84.1188C357.187 83.1609 358.275 84.2483 358.275 84.2483C358.275 84.2483 357.446 82.5913 358.638 82.2806C359.829 81.9699 360.917 84.3778 360.917 84.3778C360.917 84.3778 362.574 82.3065 364.31 84.3519C366.019 86.3972 365.32 88.2614 365.32 88.2614C365.32 88.2614 367.34 89.9184 366.356 92.5333C365.372 95.1483 363.041 97.6338 362.833 100.171Z" fill="#322A28"/>
<path d="M361.409 96.8312C360.476 97.6597 360.114 98.3329 360.761 99.0578C361.409 99.7828 362.781 99.9899 363.714 99.1614C364.646 98.3329 364.853 97.0642 364.206 96.3393C363.558 95.5885 362.341 96.0027 361.409 96.8312Z" fill="#F9AD98"/>
<path d="M357.86 93.5688C357.757 93.9572 357.472 94.2161 357.213 94.1384C356.954 94.0608 356.85 93.6983 356.954 93.3099C357.057 92.9216 357.342 92.6627 357.601 92.7403C357.834 92.818 357.964 93.1805 357.86 93.5688Z" fill="#332B27"/>
<path d="M353.199 92.274C353.095 92.6624 353.199 93.0249 353.458 93.1025C353.717 93.1802 354.002 92.9213 354.105 92.5329C354.209 92.1446 354.105 91.7821 353.846 91.7044C353.587 91.6526 353.302 91.8857 353.199 92.274Z" fill="#332B27"/>
<path d="M356.436 95.899C356.462 96.2874 357.11 96.5722 357.861 96.5204C358.638 96.4686 359.234 96.132 359.208 95.7437C359.182 95.3553 358.534 95.0705 357.783 95.1223C357.032 95.1741 356.41 95.5107 356.436 95.899Z" fill="#E99881"/>
<path d="M352.499 93.6724L352.137 95.0446C352.707 95.2776 353.199 95.2517 353.38 94.9669C353.535 94.6044 353.147 94.0348 352.499 93.6724Z" fill="#E99881"/>
<path d="M363.041 98.1775C362.445 97.8927 361.901 97.8668 361.901 97.8668C362.756 96.9606 363.533 97.3231 363.533 97.3231" stroke="#EB9E86" stroke-width="1.1135" stroke-miterlimit="10" stroke-linecap="round" stroke-linejoin="round"/>
<path d="M356.359 97.8408C356.359 97.8408 355.323 98.9541 353.717 98.1774" stroke="#332B27" stroke-width="0.7123" stroke-miterlimit="10"/>
<path d="M355.866 93.3101L354.338 95.5367C354.183 95.7697 354.209 96.0545 354.39 96.2616L354.675 96.5723L354.96 96.9089" stroke="#332B27" stroke-width="0.7123" stroke-miterlimit="10"/>
<path d="M358.638 92.9472C358.638 92.9472 358.042 91.9116 357.006 91.9116" stroke="#332B27" stroke-width="0.7123" stroke-miterlimit="10"/>
<path d="M353.095 90.9797C353.095 90.9797 353.924 90.5396 354.726 91.2127" stroke="#332B27" stroke-width="0.7123" stroke-miterlimit="10"/>
<path d="M353.121 106.618L358.145 108.767L355.503 111.951L352.499 107.239L353.121 106.618Z" fill="white"/>
<path d="M363.118 106.152L358.146 108.767L360.528 111.822L363.559 106.566L363.118 106.152Z" fill="white"/>
<path d="M350.738 234.725L351.153 228.667H339.342L338.876 234.725H350.738Z" fill="#F9AD98"/>
<path d="M339.135 231.411L351.152 228.667H339.342L339.135 231.411Z" fill="#EB9E86"/>
<path d="M368.272 234.725L367.832 228.667H379.927L380.135 234.725H368.272Z" fill="#F9AD98"/>
<path d="M313.598 109.958L315.307 110.009C315.773 110.009 316.162 110.346 316.317 110.812L317.405 114.411C317.638 115.162 317.12 115.964 316.369 115.99L314.504 116.042C314.012 116.068 313.546 115.705 313.417 115.188L312.484 111.459C312.303 110.708 312.873 109.932 313.598 109.958Z" fill="#F9AD98"/>
<path d="M368.091 232.058L379.927 228.667H367.832L368.091 232.058Z" fill="#EB9E86"/>
<path d="M364.931 88.1056C364.931 88.1056 366.33 87.3548 367.754 88.5457C367.754 88.5457 365.346 87.8467 364.931 88.7788C364.517 89.6849 364.931 88.1056 364.931 88.1056Z" fill="#322A28"/>
<path d="M364.155 107.809L358.146 117.466L352.215 108.43" stroke="white" stroke-width="0.5795" stroke-miterlimit="10" stroke-linecap="round" stroke-linejoin="round"/>
<path d="M375.654 131.965L377.959 131.55" stroke="#322A28" stroke-width="0.5795" stroke-miterlimit="10" stroke-linecap="round" stroke-linejoin="round"/>
<path d="M374.281 129.919L372.883 127.822" stroke="#322A28" stroke-width="0.5795" stroke-miterlimit="10" stroke-linecap="round" stroke-linejoin="round"/>
<path d="M333.049 239.851H350.505L350.531 239.152L350.739 234.44H338.85C337.374 234.44 336.027 235.294 334.965 236.201C334.111 236.977 333.463 237.987 333.152 239.152C333.127 239.359 333.075 239.592 333.049 239.851Z" fill="#322A28"/>
<path d="M333.049 239.851H350.505L350.531 239.152H333.204C333.127 239.359 333.075 239.592 333.049 239.851Z" fill="#FEF1F0"/>
<path d="M338.514 235.398C338.514 235.398 340.016 232.757 341.052 233.793C342.062 234.855 338.514 235.398 338.514 235.398Z" stroke="#FEF1F0" stroke-width="0.8819" stroke-miterlimit="10" stroke-linecap="round" stroke-linejoin="round"/>
<path d="M339.032 235.916L338.488 235.398M338.488 235.398C338.488 235.398 336.986 232.757 335.95 233.793C334.939 234.829 338.488 235.398 338.488 235.398Z" stroke="#FEF1F0" stroke-width="0.8819" stroke-miterlimit="10" stroke-linecap="round" stroke-linejoin="round"/>
<path d="M338.1 235.916L338.514 235.398" stroke="#FEF1F0" stroke-width="0.8819" stroke-miterlimit="10" stroke-linecap="round" stroke-linejoin="round"/>
<path d="M385.884 239.851H368.427L368.402 239.152L368.194 234.44H380.082C381.559 234.44 382.906 235.294 383.967 236.201C384.822 236.977 385.47 237.987 385.78 239.152C385.806 239.359 385.858 239.592 385.884 239.851Z" fill="#322A28"/>
<path d="M385.885 239.851H368.428L368.402 239.152H385.729C385.807 239.359 385.859 239.592 385.885 239.851Z" fill="#FEF1F0"/>
<path d="M380.419 235.553C380.419 235.553 378.917 232.913 377.881 233.948C376.871 235.01 380.419 235.553 380.419 235.553Z" stroke="#FEF1F0" stroke-width="0.8819" stroke-miterlimit="10" stroke-linecap="round" stroke-linejoin="round"/>
<path d="M379.875 236.071L380.419 235.553M380.419 235.553C380.419 235.553 381.921 232.913 382.957 233.948C383.967 234.984 380.419 235.553 380.419 235.553Z" stroke="#FEF1F0" stroke-width="0.8819" stroke-miterlimit="10" stroke-linecap="round" stroke-linejoin="round"/>
<path d="M380.833 236.072L380.419 235.554" stroke="#FEF1F0" stroke-width="0.8819" stroke-miterlimit="10" stroke-linecap="round" stroke-linejoin="round"/>
<path d="M358.508 176.471L357.938 171.836L355.089 169.869L352.784 160.418" stroke="white" stroke-width="1.2774" stroke-miterlimit="10"/>
<path d="M338.876 223.902H350.091" stroke="white" stroke-width="1.2774" stroke-miterlimit="10"/>
<path d="M368.92 223.902H380.135" stroke="white" stroke-width="1.2774" stroke-miterlimit="10"/>
<path d="M447.242 157.597C445.221 154.723 441.803 152.911 437.995 153.118C437.892 153.118 437.762 153.144 437.659 153.144C432.453 153.61 428.361 157.907 428.102 163.111C427.998 165.157 428.49 167.073 429.397 168.704C429.837 169.506 430.381 170.231 430.976 170.879C431.469 171.396 431.987 171.837 432.582 172.251C433.981 173.235 434.861 174.788 435.069 176.471H434.577C434.447 176.471 434.318 176.523 434.214 176.626C434.188 176.652 434.188 176.652 434.162 176.678C434.11 176.756 434.059 176.859 434.059 176.989C434.059 177.274 434.292 177.507 434.577 177.507C434.447 177.507 434.318 177.558 434.214 177.662L434.188 177.688C434.11 177.791 434.059 177.895 434.059 178.024C434.059 178.309 434.292 178.542 434.577 178.542C434.447 178.542 434.318 178.594 434.214 178.698C434.188 178.724 434.188 178.724 434.162 178.749C434.11 178.827 434.059 178.957 434.059 179.06C434.059 179.345 434.292 179.578 434.577 179.552C434.447 179.552 434.318 179.604 434.214 179.707C434.214 179.707 434.214 179.707 434.188 179.733C434.11 179.811 434.059 179.94 434.059 180.07C434.059 180.355 434.292 180.588 434.577 180.562H435.095C435.095 180.691 435.12 180.821 435.12 180.924C435.198 181.338 435.328 181.753 435.561 182.115C435.613 182.193 435.638 182.245 435.69 182.322C435.716 182.348 435.742 182.374 435.768 182.426C435.794 182.478 435.82 182.504 435.872 182.555C435.897 182.581 435.923 182.607 435.949 182.633C436.001 182.685 436.027 182.711 436.079 182.762C436.105 182.788 436.105 182.814 436.131 182.814C436.182 182.866 436.26 182.944 436.312 182.995C436.338 183.021 436.364 183.021 436.39 183.047C436.441 183.099 436.493 183.125 436.545 183.151C436.571 183.177 436.597 183.177 436.623 183.203C436.674 183.254 436.752 183.28 436.804 183.332C436.83 183.332 436.83 183.358 436.856 183.358C436.933 183.41 437.011 183.436 437.089 183.487C437.115 183.487 437.141 183.513 437.167 183.513C437.218 183.539 437.296 183.565 437.348 183.591C437.374 183.591 437.4 183.617 437.426 183.617C437.503 183.643 437.581 183.669 437.659 183.695H437.685C437.762 183.72 437.866 183.746 437.944 183.746C437.969 183.746 437.995 183.746 438.021 183.746C438.099 183.746 438.151 183.772 438.228 183.772C438.254 183.772 438.28 183.772 438.306 183.772C438.41 183.772 438.487 183.772 438.591 183.772H439.161C440.119 183.746 440.974 183.358 441.57 182.737C442.062 182.219 442.424 181.546 442.502 180.795C442.502 180.743 442.528 180.665 442.528 180.588C442.528 180.536 442.528 180.458 442.528 180.406H442.994C443.124 180.406 443.253 180.355 443.357 180.251C443.46 180.148 443.512 180.018 443.512 179.889C443.512 179.759 443.46 179.63 443.383 179.552C443.279 179.448 443.149 179.397 442.994 179.397C443.124 179.397 443.253 179.345 443.357 179.241C443.46 179.138 443.512 179.008 443.512 178.879C443.512 178.775 443.46 178.646 443.408 178.568C443.305 178.439 443.175 178.361 442.994 178.387C443.124 178.387 443.253 178.335 443.357 178.232C443.46 178.128 443.512 177.999 443.512 177.869C443.512 177.74 443.46 177.636 443.383 177.533C443.279 177.429 443.149 177.351 442.994 177.351C443.124 177.351 443.253 177.3 443.357 177.196C443.46 177.092 443.512 176.963 443.512 176.834C443.512 176.73 443.46 176.6 443.408 176.523C443.305 176.393 443.149 176.316 442.994 176.316H442.502C442.657 174.633 443.486 173.053 444.859 172.044C447.475 170.102 449.158 166.969 449.106 163.448C449.106 161.273 448.407 159.254 447.242 157.597Z" fill="#E5F0F9"/>
<path d="M46.3614 85.2576C46.2837 90.4098 42.321 94.5783 37.3223 95.0443C38.3065 99.7305 40.0418 104.261 42.58 108.507C46.5686 105.426 52.3184 105.763 55.9185 109.491C56.8509 110.449 57.5761 111.588 58.0423 112.779C59.3373 116.093 58.7934 119.977 56.4365 122.825C59.1042 124.56 61.9273 125.958 64.8281 127.071C66.149 127.563 67.4958 128.003 68.8426 128.366C69.1016 128.443 69.3865 128.521 69.6455 128.573C70.3189 123.576 74.6183 119.77 79.7724 119.873C82.3624 119.925 84.7193 120.935 86.4546 122.592C88.1899 124.197 89.3295 126.45 89.5885 128.909C94.2505 127.925 98.8089 126.191 103.005 123.654C99.9744 119.666 100.311 113.944 104.015 110.346C107.744 106.773 113.468 106.643 117.353 109.828C120.021 105.711 121.938 101.232 123.077 96.5977C118.104 95.9246 114.297 91.6267 114.401 86.5004C114.478 81.3481 118.441 77.1797 123.44 76.7137C122.456 72.0533 120.72 67.4966 118.182 63.2764C114.634 66.0208 109.609 66.0208 106.035 63.3023C105.621 63.0175 105.232 62.6809 104.869 62.2925C101.269 58.5643 101.14 52.8166 104.351 48.9588C101.839 47.3277 99.1974 45.9555 96.452 44.894C95.1311 44.4021 93.8102 43.936 92.4375 43.5736C91.9972 43.4441 91.531 43.3147 91.0907 43.2111C90.4432 48.208 86.1179 51.988 80.9897 51.8845C80.0573 51.8586 79.1508 51.7291 78.2961 51.4702C74.437 50.3052 71.588 46.9394 71.1995 42.8486C66.5375 43.8325 61.9791 45.5672 57.7833 48.1044C60.8136 52.0916 60.4769 57.8135 56.7732 61.4123C53.0436 64.9852 47.3197 65.1146 43.4347 61.9301C40.767 66.0467 38.8504 70.5258 37.6849 75.1602C42.6836 75.7816 46.465 80.1053 46.3614 85.2576ZM65.5792 70.5517C67.9361 68.2733 70.6815 66.6422 73.6082 65.6842C77.3896 64.4156 81.43 64.2602 85.2891 65.1664C86.6618 65.4771 88.0086 65.9431 89.2777 66.5386C91.6346 67.6001 93.8102 69.1277 95.7009 71.0954C98.0578 73.555 99.7413 76.4289 100.674 79.4581C103.031 86.9146 101.14 95.3809 95.1311 101.18C94.4059 101.879 93.6548 102.501 92.8519 103.07C87.8791 106.721 81.7149 107.912 75.9651 106.695C74.5924 106.41 73.2456 105.97 71.9247 105.401C69.3865 104.313 67.0296 102.734 65.0094 100.637C64.2065 99.8082 63.5072 98.9279 62.8597 98.0217C57.0063 89.6072 57.9387 77.9046 65.5792 70.5517Z" fill="#00ADB3"/>
<path d="M91.1162 43.1851L96.0372 38.8872L94.7422 50.1756L91.1162 43.1851Z" fill="#00ADB3"/>
<path d="M62.7042 43.7808L57.7832 48.1045L65.087 51.5221L67.2626 44.5575L62.7042 43.7808Z" fill="#00ADB3"/>
<path d="M42.2433 90.7207L37.3223 95.0445L41.2332 98.1772L45.6621 94.5525L42.2433 90.7207Z" fill="#00ADB3"/>
<path d="M48.3556 57.6064L43.4346 61.9043L45.2735 66.8235L46.5685 61.4901L48.3556 57.6064Z" fill="#00ADB3"/>
<path d="M74.5406 124.249L69.6196 128.573L66.667 125.077L69.516 121.479L74.5406 124.249Z" fill="#00ADB3"/>
<path d="M128.361 72.4157L123.44 76.7394L118.415 72.5969L121.109 68.8945L128.361 72.4157Z" fill="#00ADB3"/>
<path d="M107.9 119.355L102.953 123.679L95.7266 122.462L100.829 118.242L107.9 119.355Z" fill="#00ADB3"/>
<path d="M122.249 105.53L117.328 109.854L116.11 101.621L120.513 102.527L122.249 105.53Z" fill="#00ADB3"/>
<path d="M51.2823 80.9339C51.2046 86.0861 47.2419 90.2545 42.2432 90.7206C43.2274 95.4068 44.9627 99.9376 47.5009 104.184C51.4895 101.103 57.2393 101.439 60.8394 105.168C61.7718 106.126 62.497 107.265 62.9632 108.456C64.2582 111.77 63.7143 115.653 61.3574 118.501C64.0251 120.236 66.8482 121.634 69.749 122.747C71.0699 123.239 72.4167 123.679 73.7635 124.042C74.0225 124.12 74.3074 124.197 74.5664 124.249C75.2398 119.252 79.5392 115.446 84.6933 115.55C87.2833 115.602 89.6402 116.611 91.3755 118.268C93.1108 119.873 94.2504 122.126 94.5094 124.586C99.1714 123.602 103.73 121.867 107.926 119.33C104.895 115.343 105.232 109.621 108.936 106.022C112.665 102.449 118.389 102.32 122.274 105.504C124.942 101.388 126.858 96.9084 127.998 92.274C123.025 91.6008 119.218 87.303 119.322 82.1766C119.399 77.0244 123.362 72.856 128.361 72.3899C127.376 67.7296 125.641 63.1728 123.103 58.9527C119.555 61.6971 114.53 61.6971 110.956 58.9786C110.541 58.6938 110.153 58.3572 109.79 57.9688C106.19 54.2406 106.061 48.4928 109.272 44.6351C106.76 43.004 104.118 41.6318 101.373 40.5703C100.052 40.0783 98.7311 39.6123 97.3584 39.2498C96.9181 39.1204 96.4519 38.9909 96.0116 38.8874C95.3641 43.8843 91.0388 47.6643 85.9106 47.5608C84.9782 47.5349 84.0717 47.4054 83.217 47.1465C79.3579 45.9814 76.5089 42.6156 76.1204 38.5249C71.4584 39.5087 66.9 41.2434 62.7042 43.7807C65.7345 47.7679 65.3978 53.4897 61.6941 57.0885C57.9645 60.6614 52.2406 60.7909 48.3556 57.6063C45.6879 61.723 43.7713 66.2021 42.6058 70.8365C47.6045 71.4838 51.3859 75.8075 51.2823 80.9339ZM70.5001 66.2538C72.857 63.9755 75.6024 62.3443 78.5291 61.3864C82.3105 60.1177 86.3509 59.9624 90.21 60.8686C91.5827 61.1793 92.9295 61.6453 94.1986 62.2408C96.5555 63.3023 98.7311 64.8299 100.622 66.7975C102.979 69.2572 104.662 72.131 105.595 75.1602C107.951 82.6168 106.061 91.083 100.052 96.8825C99.3268 97.5816 98.5757 98.203 97.7728 98.7726C92.8 102.423 86.6358 103.614 80.886 102.397C79.5133 102.112 78.1665 101.672 76.8456 101.103C74.3074 100.015 71.9505 98.436 69.9303 96.3388C69.1274 95.5103 68.4281 94.63 67.7806 93.7239C61.9272 85.3094 62.8855 73.6068 70.5001 66.2538Z" fill="#00ADB3"/>
<path d="M138.074 51.6519C138.643 54.4222 137.038 57.1407 134.422 57.9951C135.509 60.377 136.986 62.6036 138.876 64.5454C140.638 62.4224 143.746 61.9046 146.128 63.458C146.75 63.8723 147.268 64.3901 147.657 64.9597C148.744 66.5908 148.926 68.7138 148.019 70.5262C149.651 71.1217 151.334 71.5359 153.018 71.7948C153.795 71.8984 154.546 71.9761 155.323 72.002C155.478 72.002 155.634 72.0279 155.789 72.0279C155.53 69.2834 157.395 66.7203 160.14 66.1507C161.539 65.8659 162.912 66.1248 164.051 66.7979C165.165 67.4452 166.046 68.5067 166.486 69.8013C168.869 68.7138 171.096 67.2381 173.039 65.3739C170.915 63.6134 170.423 60.5065 171.977 58.1245C173.531 55.7685 176.587 54.9918 179.047 56.2345C179.98 53.7231 180.472 51.0823 180.524 48.4673C177.778 48.7003 175.214 46.8621 174.67 44.1177C174.1 41.3474 175.706 38.6288 178.322 37.7745C177.234 35.3925 175.758 33.1659 173.893 31.2241C172.313 33.14 169.646 33.7355 167.392 32.6999C167.133 32.5963 166.9 32.4669 166.641 32.2856C164.258 30.7322 163.507 27.6771 164.751 25.2175C163.222 24.6479 161.643 24.2336 160.037 24.0006C159.26 23.897 158.509 23.8194 157.732 23.7676C157.473 23.7417 157.214 23.7417 156.955 23.7417C157.214 26.4861 155.375 29.0493 152.603 29.6189C152.111 29.7225 151.593 29.7483 151.127 29.7225C148.926 29.5671 146.983 28.1172 146.284 25.9683C143.901 27.0557 141.674 28.5315 139.731 30.3956C141.855 32.1562 142.347 35.2631 140.793 37.645C139.239 40.0011 136.183 40.7778 133.722 39.535C132.79 42.0464 132.298 44.6873 132.246 47.3022C134.94 47.0433 137.478 48.9075 138.074 51.6519ZM146.569 41.4768C147.553 39.9752 148.822 38.7583 150.272 37.9039C152.137 36.7647 154.287 36.1951 156.463 36.221C157.24 36.221 158.017 36.2987 158.768 36.4799C160.14 36.7647 161.513 37.3084 162.756 38.1369C164.31 39.1726 165.553 40.493 166.434 42.0205C168.584 45.7229 168.61 50.4868 166.097 54.3186C165.787 54.7846 165.476 55.1989 165.113 55.6132C162.886 58.1763 159.752 59.5485 156.514 59.6003C155.737 59.6262 154.96 59.5485 154.209 59.3932C152.733 59.1343 151.283 58.5647 149.936 57.6844C149.418 57.3478 148.926 56.9595 148.459 56.5452C144.29 52.7134 143.383 46.3443 146.569 41.4768Z" fill="#00ADB3"/>
<path d="M156.903 23.7416L159.027 20.8418L159.701 27.0297L156.903 23.7416Z" fill="#00ADB3"/>
<path d="M141.778 27.4957L139.68 30.3954L143.979 31.3275L144.316 27.3662L141.778 27.4957Z" fill="#00ADB3"/>
<path d="M136.519 55.0952L134.396 57.995L136.882 59.2118L138.824 56.7263L136.519 55.0952Z" fill="#00ADB3"/>
<path d="M135.769 36.6353L133.671 39.535L135.251 41.9428L135.277 38.9136L135.769 36.6353Z" fill="#00ADB3"/>
<path d="M157.887 69.1278L155.763 72.0276L153.769 70.5L154.856 68.2476L157.887 69.1278Z" fill="#00ADB3"/>
<path d="M180.394 34.8486L178.271 37.7743L175.085 36.169L176.069 33.8389L180.394 34.8486Z" fill="#00ADB3"/>
<path d="M175.136 62.4482L173.013 65.3739L168.998 65.6069L171.2 62.7071L175.136 62.4482Z" fill="#00ADB3"/>
<path d="M181.146 53.3346L179.022 56.2344L177.364 51.9883L179.851 51.9106L181.146 53.3346Z" fill="#00ADB3"/>
<path d="M140.171 48.752C140.741 51.5223 139.135 54.2408 136.519 55.0952C137.607 57.4771 139.083 59.7037 140.974 61.6455C142.735 59.5225 145.843 59.0047 148.226 60.5581C148.848 60.9724 149.366 61.4902 149.754 62.0598C150.842 63.6909 151.023 65.8139 150.117 67.6263C151.749 68.2218 153.432 68.636 155.116 68.8949C155.893 68.9985 156.644 69.0762 157.421 69.1021C157.576 69.1021 157.731 69.1021 157.887 69.1279C157.628 66.3835 159.493 63.8204 162.238 63.2508C163.637 62.966 165.009 63.2249 166.149 63.898C167.263 64.5453 168.143 65.6068 168.584 66.9013C170.966 65.8139 173.194 64.3382 175.136 62.474C173.012 60.7135 172.52 57.6066 174.074 55.2246C175.628 52.8686 178.685 52.0919 181.145 53.3346C182.077 50.8232 182.57 48.1824 182.621 45.5674C179.876 45.8004 177.312 43.9622 176.768 41.2178C176.198 38.4475 177.804 35.7289 180.42 34.8746C179.332 32.4926 177.856 30.266 175.991 28.3242C174.411 30.2401 171.743 30.8356 169.49 29.8C169.231 29.6964 168.998 29.567 168.739 29.3857C166.356 27.8323 165.605 24.7772 166.848 22.3176C165.32 21.748 163.74 21.3337 162.134 21.1007C161.357 20.9971 160.606 20.9195 159.829 20.8677C159.57 20.8418 159.311 20.8418 159.052 20.8418C159.311 23.5862 157.472 26.1494 154.701 26.719C154.209 26.8225 153.691 26.8484 153.225 26.8225C151.023 26.6672 149.081 25.2173 148.382 23.0684C145.999 24.1558 143.771 25.6316 141.829 27.4957C143.953 29.2563 144.445 32.3632 142.891 34.7451C141.337 37.1012 138.281 37.8779 135.82 36.6351C134.888 39.1465 134.396 41.7874 134.344 44.4023C137.063 44.1434 139.601 45.9817 140.171 48.752ZM148.692 38.5769C149.677 37.0753 150.946 35.8584 152.396 35.004C154.261 33.8648 156.411 33.2952 158.586 33.3211C159.363 33.3211 160.14 33.3988 160.891 33.58C162.264 33.8648 163.637 34.4085 164.88 35.237C166.434 36.2727 167.677 37.5931 168.558 39.1206C170.707 42.823 170.733 47.5869 168.221 51.4187C167.91 51.8847 167.599 52.299 167.237 52.7132C165.009 55.2764 161.875 56.6486 158.638 56.7004C157.861 56.7263 157.084 56.6486 156.333 56.4933C154.857 56.2344 153.406 55.6648 152.059 54.7845C151.541 54.4479 151.049 54.0596 150.583 53.6453C146.413 49.8135 145.481 43.4185 148.692 38.5769Z" fill="#00ADB3"/>
<path d="M194.717 76.196C194.769 79.6653 192.205 82.591 188.838 83.0053C189.589 86.138 190.884 89.1672 192.697 91.9634C195.313 89.7886 199.198 89.8922 201.71 92.3259C202.357 92.9473 202.875 93.6981 203.212 94.5007C204.17 96.7014 203.885 99.3423 202.357 101.336C204.196 102.449 206.139 103.329 208.107 104.028C209.014 104.339 209.92 104.598 210.853 104.805C211.034 104.857 211.215 104.883 211.396 104.935C211.733 101.543 214.556 98.9021 218.027 98.8245C219.788 98.7986 221.394 99.4458 222.585 100.507C223.777 101.569 224.605 103.045 224.839 104.702C227.972 103.951 231.003 102.656 233.774 100.87C231.624 98.229 231.754 94.3713 234.163 91.8599C236.597 89.3744 240.456 89.1413 243.15 91.2126C244.859 88.3905 246.051 85.3095 246.724 82.1509C243.357 81.8143 240.689 78.9922 240.638 75.5228C240.586 72.0535 243.15 69.1278 246.517 68.7136C245.766 65.5808 244.471 62.5516 242.658 59.7554C240.327 61.6972 236.934 61.8008 234.473 60.0402C234.188 59.859 233.929 59.626 233.67 59.367C231.158 56.9333 230.951 53.0497 233.023 50.383C231.288 49.3473 229.475 48.4671 227.61 47.8198C226.703 47.5091 225.797 47.2502 224.864 47.0172C224.554 46.9395 224.243 46.8618 223.932 46.8101C223.595 50.2017 220.772 52.8426 217.302 52.8944C216.68 52.8944 216.058 52.8167 215.489 52.6872C212.873 51.9882 210.853 49.7875 210.49 47.0172C207.356 47.768 204.326 49.0625 201.554 50.849C203.704 53.4899 203.575 57.3476 201.166 59.859C198.731 62.3445 194.872 62.5775 192.179 60.5062C190.469 63.3283 189.278 66.4093 188.604 69.568C192.023 69.9046 194.665 72.7266 194.717 76.196ZM207.356 65.8397C208.884 64.2604 210.723 63.0953 212.666 62.3704C215.178 61.4383 217.923 61.2312 220.539 61.749C221.472 61.9302 222.378 62.215 223.259 62.6034C224.864 63.2765 226.367 64.2604 227.688 65.529C229.345 67.1343 230.537 69.0502 231.236 71.0696C232.997 76.0407 231.909 81.8143 227.972 85.8532C227.506 86.3452 227.014 86.7853 226.47 87.1737C223.207 89.7368 219.063 90.6948 215.152 89.9957C214.22 89.8404 213.287 89.5815 212.407 89.219C210.671 88.5459 209.04 87.5361 207.641 86.1639C207.097 85.6202 206.579 85.0506 206.113 84.4292C201.995 78.8886 202.357 70.992 207.356 65.8397Z" fill="#00ADB3"/>
<path d="M223.984 46.81L227.196 43.7808L226.6 51.4444L223.984 46.81Z" fill="#00ADB3"/>
<path d="M204.818 47.8457L201.606 50.8749L206.579 52.998L207.9 48.26L204.818 47.8457Z" fill="#00ADB3"/>
<path d="M192.049 79.9761L188.838 83.0053L191.531 85.0248L194.458 82.4875L192.049 79.9761Z" fill="#00ADB3"/>
<path d="M195.442 57.4771L192.204 60.5063L193.577 63.7685L194.328 60.1438L195.442 57.4771Z" fill="#00ADB3"/>
<path d="M214.608 101.88L211.396 104.909L209.324 102.605L211.163 100.119L214.608 101.88Z" fill="#00ADB3"/>
<path d="M249.78 65.6841L246.543 68.7133L243.072 66.0466L244.782 63.4834L249.78 65.6841Z" fill="#00ADB3"/>
<path d="M237.011 97.8406L233.774 100.844L228.879 100.197L232.22 97.2451L237.011 97.8406Z" fill="#00ADB3"/>
<path d="M246.388 88.1833L243.15 91.2125L242.166 85.6719L245.145 86.1897L246.388 88.1833Z" fill="#00ADB3"/>
<path d="M197.954 73.1667C198.006 76.6361 195.442 79.5617 192.075 79.976C192.826 83.1087 194.121 86.1379 195.934 88.9341C198.55 86.7593 202.435 86.8629 204.947 89.2966C205.595 89.918 206.113 90.6688 206.449 91.4714C207.408 93.6721 207.123 96.313 205.595 98.3066C207.434 99.4199 209.376 100.3 211.344 100.999C212.251 101.31 213.157 101.569 214.09 101.776C214.271 101.828 214.452 101.854 214.634 101.905C214.97 98.5137 217.794 95.8728 221.264 95.7952C223.025 95.7693 224.631 96.4165 225.823 97.4781C227.04 98.5396 227.843 100.015 228.076 101.672C231.21 100.922 234.24 99.627 237.011 97.8405C234.862 95.1997 234.991 91.342 237.4 88.8306C239.834 86.3451 243.694 86.1121 246.387 88.1833C248.097 85.3612 249.288 82.2802 249.961 79.1216C246.594 78.785 243.927 75.9629 243.875 72.4935C243.823 69.0242 246.387 66.0985 249.754 65.6843C249.003 62.5515 247.708 59.5223 245.895 56.7261C243.564 58.6679 240.171 58.7715 237.711 57.0109C237.426 56.8297 237.167 56.5967 236.908 56.3378C234.395 53.904 234.188 50.0204 236.26 47.3537C234.525 46.318 232.712 45.4378 230.847 44.7905C229.941 44.4798 229.034 44.2209 228.102 43.9879C227.791 43.9102 227.48 43.8325 227.169 43.7808C226.833 47.1724 224.01 49.8133 220.539 49.8651C219.917 49.8651 219.296 49.7874 218.726 49.6579C216.11 48.9589 214.09 46.7582 213.727 43.9879C210.593 44.7387 207.563 46.0333 204.792 47.8197C206.941 50.4606 206.812 54.3183 204.403 56.8297C201.969 59.3152 198.11 59.5482 195.416 57.4769C193.707 60.299 192.515 63.38 191.842 66.5387C195.235 66.8753 197.902 69.6974 197.954 73.1667ZM210.593 62.8363C212.121 61.257 213.96 60.0919 215.903 59.367C218.415 58.4349 221.161 58.2278 223.776 58.7456C224.709 58.9268 225.615 59.2116 226.496 59.6C228.102 60.2731 229.604 61.257 230.925 62.5256C232.582 64.1308 233.774 66.0468 234.473 68.0662C236.234 73.0372 235.147 78.8109 231.21 82.8498C230.744 83.3417 230.251 83.7819 229.708 84.1703C226.444 86.7334 222.3 87.6914 218.389 86.9923C217.457 86.837 216.524 86.5781 215.644 86.2156C213.909 85.5425 212.277 84.5327 210.878 83.1605C210.334 82.6168 209.816 82.0472 209.35 81.4258C205.232 75.8852 205.595 67.9627 210.593 62.8363Z" fill="#00ADB3"/>
<path d="M338.28 61.6457H291.66C289.692 61.6457 288.086 60.0405 288.086 58.0728V25.1916C288.086 23.2239 289.692 21.6187 291.66 21.6187H338.28C340.249 21.6187 341.854 23.2239 341.854 25.1916V58.0728C341.828 60.0405 340.249 61.6457 338.28 61.6457Z" fill="#F9E181"/>
<path d="M311.655 47.6392C311.655 48.7007 311.473 49.7105 311.137 50.7202C310.8 51.7041 310.282 52.5584 309.609 53.3093C308.935 54.0601 308.106 54.6556 307.096 55.0957C306.086 55.5359 304.921 55.7689 303.574 55.7689C301.45 55.7689 299.715 55.277 298.368 54.2931C297.021 53.3093 296.115 51.7299 295.7 49.581L300.181 48.5195C300.336 49.3998 300.699 50.0988 301.269 50.6425C301.838 51.1604 302.538 51.4451 303.367 51.4451C304.739 51.4451 305.672 50.9791 306.164 50.0729C306.656 49.1409 306.889 47.8722 306.889 46.267V28.2212H311.681V47.6392H311.655Z" fill="white"/>
<path d="M330.588 33.9946C330.07 33.2697 329.396 32.726 328.568 32.3894C327.713 32.0528 326.832 31.8716 325.9 31.8716C325.356 31.8716 324.812 31.9234 324.294 32.0528C323.776 32.1823 323.31 32.3894 322.896 32.6483C322.481 32.9331 322.144 33.2956 321.885 33.7357C321.626 34.1759 321.497 34.6937 321.497 35.3151C321.497 36.2212 321.808 36.9203 322.455 37.4122C323.077 37.9041 323.88 38.3184 324.812 38.655C325.745 39.0174 326.781 39.354 327.894 39.6906C329.008 40.0272 330.018 40.4673 330.976 41.0628C331.909 41.6583 332.686 42.4091 333.333 43.3671C333.955 44.325 334.292 45.5937 334.292 47.1989C334.292 48.6488 334.033 49.8915 333.489 50.9789C332.945 52.0663 332.245 52.9466 331.339 53.6457C330.432 54.3447 329.396 54.8884 328.205 55.225C327.014 55.5875 325.77 55.7428 324.45 55.7428C322.792 55.7428 321.186 55.458 319.632 54.9143C318.078 54.3706 316.757 53.4127 315.644 52.1181L319.244 48.6229C319.839 49.5032 320.59 50.2022 321.549 50.6941C322.507 51.1861 323.491 51.4191 324.553 51.4191C325.097 51.4191 325.667 51.3414 326.211 51.1861C326.755 51.0307 327.273 50.7977 327.739 50.5129C328.205 50.2022 328.568 49.8139 328.827 49.3478C329.112 48.8818 329.241 48.3381 329.241 47.7426C329.241 46.7588 328.93 46.0079 328.283 45.4642C327.661 44.9464 326.858 44.4804 325.926 44.1179C324.993 43.7554 323.957 43.393 322.844 43.0823C321.73 42.7457 320.72 42.3056 319.762 41.736C318.829 41.1664 318.052 40.4155 317.405 39.4576C316.783 38.4996 316.446 37.231 316.446 35.6516C316.446 34.2535 316.731 33.0626 317.301 32.0528C317.871 31.0431 318.622 30.2146 319.529 29.5414C320.461 28.8683 321.497 28.3764 322.688 28.0398C323.88 27.7032 325.097 27.5479 326.34 27.5479C327.765 27.5479 329.137 27.755 330.458 28.1951C331.779 28.6353 332.971 29.3343 334.033 30.3182L330.588 33.9946Z" fill="white"/>
<path d="M453.587 147.784H402.926C400.88 147.784 399.223 146.127 399.223 144.081V111.511C399.223 109.466 400.88 107.809 402.926 107.809H453.587C455.633 107.809 457.29 109.466 457.29 111.511V144.081C457.29 146.127 455.633 147.784 453.587 147.784Z" fill="#00ADB3"/>
<path d="M402.356 131.343V128.443L419.166 119.355V123.809L407.951 129.919L419.166 136.029V140.482L402.356 131.343Z" fill="white"/>
<path d="M424.268 144.081L421.522 142.864L431.882 111.511L434.628 112.805L424.268 144.081Z" fill="white"/>
<path d="M454.208 128.443V131.343L437.399 140.431V135.977L448.614 129.867L437.399 123.757V119.355L454.208 128.443Z" fill="white"/>
</svg>
