<svg width="496" height="496" viewBox="0 0 496 496" fill="none" xmlns="http://www.w3.org/2000/svg">
<g opacity="0.45">
<path d="M377.556 448.508C424.754 448.508 463.016 410.245 463.016 363.047C463.016 315.848 424.754 277.586 377.556 277.586C330.357 277.586 292.095 315.848 292.095 363.047C292.095 410.245 330.357 448.508 377.556 448.508Z" fill="#DAF0EF"/>
<path d="M189.026 338.693C269.412 338.693 334.577 273.528 334.577 193.142C334.577 112.756 269.412 47.5908 189.026 47.5908C108.64 47.5908 43.4746 112.756 43.4746 193.142C43.4746 273.528 108.64 338.693 189.026 338.693Z" fill="#EDF7F9"/>
</g>
<path d="M454.634 178.56L450.294 182.528C450.145 182.652 450.021 182.8 449.897 182.949C447.144 181.015 444.094 179.651 440.944 178.808C440.994 178.609 441.019 178.436 441.019 178.237L441.242 172.36C441.316 170.524 439.878 168.987 438.043 168.912L432.165 168.689C430.33 168.615 428.792 170.053 428.718 171.888L428.495 177.766C428.495 177.964 428.494 178.163 428.519 178.361C425.394 178.932 422.344 180.023 419.492 181.66C419.393 181.511 419.269 181.337 419.145 181.213L415.177 176.873C413.937 175.509 411.829 175.435 410.49 176.675L406.15 180.643C404.786 181.883 404.711 183.991 405.951 185.33L409.919 189.67C410.043 189.819 410.192 189.943 410.341 190.067C408.406 192.82 407.042 195.87 406.199 199.02C406.001 198.97 405.827 198.945 405.629 198.945L399.751 198.722C398.858 198.697 398.015 198.995 397.371 199.59C396.726 200.185 396.329 201.004 396.304 201.896L396.081 207.774C396.006 209.609 397.445 211.147 399.28 211.221L405.158 211.444C405.356 211.444 405.554 211.444 405.753 211.42C406.323 214.544 407.414 217.595 409.051 220.447C408.902 220.546 408.729 220.67 408.605 220.794L404.265 224.762C402.901 226.002 402.827 228.11 404.067 229.449L408.035 233.789C409.275 235.153 411.382 235.228 412.722 233.988L417.062 230.02C417.21 229.896 417.335 229.747 417.459 229.598C420.211 231.532 423.262 232.896 426.411 233.74C426.362 233.938 426.337 234.112 426.337 234.31L426.114 240.188C426.089 241.08 426.387 241.924 427.007 242.568C427.602 243.213 428.42 243.61 429.313 243.635L435.191 243.858C436.108 243.883 436.951 243.56 437.571 242.99C438.191 242.42 438.613 241.601 438.638 240.659L438.861 234.781C438.861 234.583 438.861 234.384 438.836 234.186C441.961 233.616 445.011 232.524 447.863 230.888C447.962 231.036 448.087 231.21 448.211 231.359L452.179 235.699C453.419 237.063 455.526 237.137 456.866 235.897L461.206 231.929C462.57 230.689 462.644 228.581 461.404 227.242L457.436 222.902C457.312 222.753 457.163 222.629 457.015 222.505C458.949 219.752 460.313 216.702 461.156 213.552C461.354 213.602 461.528 213.627 461.727 213.627L467.604 213.85C468.522 213.875 469.365 213.552 469.985 212.982C470.605 212.412 471.026 211.593 471.051 210.651L471.275 204.773C471.349 202.938 469.91 201.4 468.075 201.326L462.198 201.103C461.999 201.103 461.801 201.103 461.603 201.128C461.032 198.003 459.941 194.952 458.304 192.1C458.453 192.001 458.626 191.877 458.775 191.753L463.115 187.785C464.479 186.545 464.554 184.437 463.314 183.098L459.346 178.758C458.106 177.419 455.998 177.32 454.634 178.56ZM444.218 217.793C437.869 223.596 427.974 223.175 422.171 216.826C416.367 210.477 416.789 200.582 423.138 194.779C429.486 188.976 439.382 189.397 445.185 195.746C450.988 202.095 450.566 211.99 444.218 217.793Z" stroke="#008D9C" stroke-width="4.1769" stroke-miterlimit="10"/>
<path d="M111.228 406.794H108.946C108.525 406.794 108.177 406.447 108.177 406.026C108.177 405.604 108.525 405.257 108.946 405.257H111.228C111.649 405.257 111.997 405.604 111.997 406.026C111.997 406.447 111.649 406.794 111.228 406.794ZM103.837 406.794H98.7286C98.307 406.794 97.9598 406.447 97.9598 406.026C97.9598 405.604 98.307 405.257 98.7286 405.257H103.837C104.259 405.257 104.606 405.604 104.606 406.026C104.606 406.447 104.259 406.794 103.837 406.794ZM93.6198 406.794H88.5358C88.1142 406.794 87.767 406.447 87.767 406.026C87.767 405.604 88.1142 405.257 88.5358 405.257H93.6446C94.0662 405.257 94.4134 405.604 94.4134 406.026C94.4134 406.447 94.0662 406.794 93.6198 406.794ZM83.427 406.794H78.3182C77.8966 406.794 77.5494 406.447 77.5494 406.026C77.5494 405.604 77.8966 405.257 78.3182 405.257H83.427C83.8486 405.257 84.1958 405.604 84.1958 406.026C84.1958 406.447 83.8486 406.794 83.427 406.794ZM73.2342 406.794H68.1254C67.7038 406.794 67.3566 406.447 67.3566 406.026C67.3566 405.604 67.7038 405.257 68.1254 405.257H73.2342C73.6558 405.257 74.003 405.604 74.003 406.026C74.003 406.447 73.6558 406.794 73.2342 406.794ZM63.0166 406.794H57.9078C57.4862 406.794 57.139 406.447 57.139 406.026C57.139 405.604 57.4862 405.257 57.9078 405.257H63.0166C63.4382 405.257 63.7854 405.604 63.7854 406.026C63.7854 406.447 63.4382 406.794 63.0166 406.794ZM52.8238 406.794C51.0134 406.745 49.2774 406.447 47.591 405.926C47.1942 405.802 46.971 405.381 47.095 404.959C47.219 404.562 47.6406 404.339 48.0622 404.463C49.6246 404.934 51.2366 405.207 52.8734 405.257C53.295 405.257 53.6174 405.629 53.6174 406.05C53.5678 406.472 53.2206 406.794 52.8238 406.794ZM43.2014 403.818C43.0526 403.818 42.9038 403.769 42.7798 403.694C41.2918 402.727 39.9526 401.562 38.7622 400.247C38.4894 399.925 38.5142 399.454 38.8366 399.156C39.159 398.883 39.6302 398.908 39.9278 399.23C41.019 400.446 42.259 401.537 43.623 402.405C43.9702 402.628 44.0694 403.099 43.8462 403.471C43.6974 403.694 43.4494 403.818 43.2014 403.818ZM36.5302 396.254C36.2574 396.254 35.9846 396.106 35.8358 395.833C35.067 394.246 34.5214 392.534 34.199 390.798C34.1246 390.377 34.3974 389.98 34.819 389.906C35.2406 389.831 35.6374 390.104 35.7118 390.526C36.0094 392.138 36.5054 393.7 37.2246 395.163C37.3982 395.535 37.2494 396.006 36.8774 396.18C36.7534 396.23 36.6542 396.254 36.5302 396.254ZM34.6702 386.334C34.2486 386.334 33.9014 385.987 33.9014 385.566V380.457C33.9014 380.035 34.2486 379.688 34.6702 379.688C35.0918 379.688 35.439 380.035 35.439 380.457V385.566C35.439 385.987 35.0918 386.334 34.6702 386.334ZM34.6702 376.142C34.2486 376.142 33.9014 375.794 33.9014 375.373V370.264C33.9014 369.842 34.2486 369.495 34.6702 369.495C35.0918 369.495 35.439 369.842 35.439 370.264V375.373C35.439 375.794 35.0918 376.142 34.6702 376.142ZM34.6702 365.924C34.2486 365.924 33.9014 365.577 33.9014 365.155V360.046C33.9014 359.625 34.2486 359.278 34.6702 359.278C35.0918 359.278 35.439 359.625 35.439 360.046V365.155C35.439 365.577 35.0918 365.924 34.6702 365.924ZM34.6702 355.731C34.2486 355.731 33.9014 355.384 33.9014 354.962V349.854C33.9014 349.432 34.2486 349.085 34.6702 349.085C35.0918 349.085 35.439 349.432 35.439 349.854V354.962C35.439 355.384 35.0918 355.731 34.6702 355.731ZM34.6702 345.514C34.2486 345.514 33.9014 345.166 33.9014 344.745V339.636C33.9014 339.214 34.2486 338.867 34.6702 338.867C35.0918 338.867 35.439 339.214 35.439 339.636V344.745C35.439 345.191 35.0918 345.514 34.6702 345.514ZM34.6702 335.321C34.2486 335.321 33.9014 334.974 33.9014 334.552V329.443C33.9014 329.022 34.2486 328.674 34.6702 328.674C35.0918 328.674 35.439 329.022 35.439 329.443V334.552C35.439 334.974 35.0918 335.321 34.6702 335.321ZM34.6702 325.103C34.2486 325.103 33.9014 324.756 33.9014 324.334V319.226C33.9014 318.804 34.2486 318.457 34.6702 318.457C35.0918 318.457 35.439 318.804 35.439 319.226V324.334C35.439 324.781 35.0918 325.103 34.6702 325.103ZM34.6702 314.91C34.2486 314.91 33.9014 314.563 33.9014 314.142V309.033C33.9014 308.611 34.2486 308.264 34.6702 308.264C35.0918 308.264 35.439 308.611 35.439 309.033V314.142C35.439 314.563 35.0918 314.91 34.6702 314.91ZM34.6702 304.718C34.2486 304.718 33.9014 304.37 33.9014 303.949V298.84C33.9014 298.418 34.2486 298.071 34.6702 298.071C35.0918 298.071 35.439 298.418 35.439 298.84V303.949C35.439 304.37 35.0918 304.718 34.6702 304.718ZM34.6702 294.5C34.2486 294.5 33.9014 294.153 33.9014 293.731V288.622C33.9014 288.201 34.2486 287.854 34.6702 287.854C35.0918 287.854 35.439 288.201 35.439 288.622V293.731C35.439 294.153 35.0918 294.5 34.6702 294.5ZM34.6702 284.307C34.2486 284.307 33.9014 283.96 33.9014 283.538V278.43C33.9014 278.008 34.2486 277.661 34.6702 277.661C35.0918 277.661 35.439 278.008 35.439 278.43V283.538C35.439 283.96 35.0918 284.307 34.6702 284.307ZM34.6702 274.09C34.2486 274.09 33.9014 273.742 33.9014 273.321V268.212C33.9014 267.79 34.2486 267.443 34.6702 267.443C35.0918 267.443 35.439 267.79 35.439 268.212V273.321C35.439 273.767 35.0918 274.09 34.6702 274.09ZM34.6702 263.897C34.2486 263.897 33.9014 263.55 33.9014 263.128V262.607C33.9014 261.02 34.0998 259.408 34.4718 257.895C34.571 257.474 34.9926 257.226 35.3894 257.35C35.811 257.449 36.059 257.87 35.935 258.267C35.5878 259.681 35.4142 261.144 35.4142 262.632V263.153C35.439 263.55 35.0918 263.897 34.6702 263.897ZM37.1254 254.126C37.0014 254.126 36.8774 254.101 36.7534 254.026C36.3814 253.828 36.2574 253.357 36.4806 252.985C37.3486 251.447 38.4398 250.034 39.7046 248.794C40.0022 248.496 40.4982 248.496 40.7958 248.794C41.0934 249.091 41.0934 249.587 40.7958 249.885C39.6302 251.026 38.6382 252.34 37.8198 253.754C37.6462 253.977 37.3982 254.126 37.1254 254.126ZM44.2926 247.033C44.0198 247.033 43.7718 246.884 43.623 246.636C43.4246 246.264 43.5486 245.793 43.9206 245.594C45.483 244.726 47.1446 244.082 48.8558 243.685C49.2774 243.586 49.6742 243.834 49.7734 244.255C49.8726 244.677 49.6246 245.074 49.203 245.173C47.6158 245.545 46.0782 246.14 44.6646 246.934C44.5406 247.008 44.4166 247.033 44.2926 247.033ZM171.442 244.702H166.333C165.912 244.702 165.565 244.354 165.565 243.933C165.565 243.511 165.912 243.164 166.333 243.164H171.442C171.864 243.164 172.211 243.511 172.211 243.933C172.186 244.354 171.864 244.702 171.442 244.702ZM161.225 244.702H156.116C155.694 244.702 155.347 244.354 155.347 243.933C155.347 243.511 155.694 243.164 156.116 243.164H161.225C161.646 243.164 161.993 243.511 161.993 243.933C161.993 244.354 161.646 244.702 161.225 244.702ZM151.032 244.702H145.923C145.501 244.702 145.154 244.354 145.154 243.933C145.154 243.511 145.501 243.164 145.923 243.164H151.032C151.453 243.164 151.801 243.511 151.801 243.933C151.801 244.354 151.453 244.702 151.032 244.702ZM140.814 244.702H135.705C135.284 244.702 134.937 244.354 134.937 243.933C134.937 243.511 135.284 243.164 135.705 243.164H140.814C141.236 243.164 141.583 243.511 141.583 243.933C141.583 244.354 141.236 244.702 140.814 244.702ZM130.621 244.702H125.513C125.091 244.702 124.744 244.354 124.744 243.933C124.744 243.511 125.091 243.164 125.513 243.164H130.621C131.043 243.164 131.39 243.511 131.39 243.933C131.39 244.354 131.043 244.702 130.621 244.702ZM120.429 244.702H115.32C114.898 244.702 114.551 244.354 114.551 243.933C114.551 243.511 114.898 243.164 115.32 243.164H120.429C120.85 243.164 121.197 243.511 121.197 243.933C121.173 244.354 120.85 244.702 120.429 244.702ZM110.211 244.702H105.102C104.681 244.702 104.333 244.354 104.333 243.933C104.333 243.511 104.681 243.164 105.102 243.164H110.211C110.633 243.164 110.98 243.511 110.98 243.933C110.98 244.354 110.633 244.702 110.211 244.702ZM100.018 244.702H94.9094C94.4878 244.702 94.1406 244.354 94.1406 243.933C94.1406 243.511 94.4878 243.164 94.9094 243.164H100.018C100.44 243.164 100.787 243.511 100.787 243.933C100.787 244.354 100.44 244.702 100.018 244.702ZM89.8006 244.702H84.6918C84.2702 244.702 83.923 244.354 83.923 243.933C83.923 243.511 84.2702 243.164 84.6918 243.164H89.8006C90.2222 243.164 90.5694 243.511 90.5694 243.933C90.5694 244.354 90.2222 244.702 89.8006 244.702ZM79.6078 244.702H74.499C74.0774 244.702 73.7302 244.354 73.7302 243.933C73.7302 243.511 74.0774 243.164 74.499 243.164H79.6078C80.0294 243.164 80.3766 243.511 80.3766 243.933C80.3766 244.354 80.0294 244.702 79.6078 244.702ZM69.3902 244.702H64.2814C63.8598 244.702 63.5126 244.354 63.5126 243.933C63.5126 243.511 63.8598 243.164 64.2814 243.164H69.3902C69.8118 243.164 70.159 243.511 70.159 243.933C70.159 244.354 69.8118 244.702 69.3902 244.702ZM59.1974 244.702H54.0886C53.667 244.702 53.3198 244.354 53.3198 243.933C53.3198 243.511 53.667 243.164 54.0886 243.164H59.1974C59.619 243.164 59.9662 243.511 59.9662 243.933C59.9662 244.354 59.619 244.702 59.1974 244.702Z" fill="#008D9C"/>
<path d="M37.9441 324.558C38.3905 326.914 36.3569 328.922 34.0257 328.476C32.7113 328.228 31.6449 327.162 31.3969 325.847C30.9505 323.491 32.9841 321.482 35.3153 321.929C36.6297 322.202 37.6961 323.268 37.9441 324.558Z" fill="#008D9C"/>
<path d="M113.559 405.356C114.006 407.712 111.972 409.721 109.641 409.274C108.327 409.026 107.26 407.96 107.012 406.645C106.566 404.289 108.599 402.281 110.931 402.727C112.245 403 113.311 404.066 113.559 405.356Z" fill="#008D9C"/>
<path d="M34.6705 331.477C31.2233 331.477 28.4209 328.674 28.4209 325.227C28.4209 321.78 31.2233 318.978 34.6705 318.978C38.1177 318.978 40.9201 321.78 40.9201 325.227C40.9201 328.674 38.1177 331.477 34.6705 331.477ZM34.6705 319.722C31.6449 319.722 29.1897 322.177 29.1897 325.202C29.1897 328.228 31.6449 330.683 34.6705 330.683C37.6961 330.683 40.1513 328.228 40.1513 325.202C40.1513 322.177 37.6961 319.722 34.6705 319.722Z" fill="#008D9C"/>
<path d="M206.436 221.389C205.915 221.389 205.493 220.968 205.493 220.447V214.247C205.493 213.726 205.915 213.305 206.436 213.305C206.956 213.305 207.378 213.726 207.378 214.247V220.447C207.353 220.968 206.956 221.389 206.436 221.389ZM206.436 208.965C205.915 208.965 205.493 208.543 205.493 208.022V201.822C205.493 201.301 205.915 200.88 206.436 200.88C206.956 200.88 207.378 201.301 207.378 201.822V208.022C207.353 208.543 206.956 208.965 206.436 208.965ZM206.436 196.565C205.915 196.565 205.493 196.143 205.493 195.622V189.422C205.493 188.901 205.915 188.48 206.436 188.48C206.956 188.48 207.378 188.901 207.378 189.422V195.622C207.353 196.143 206.956 196.565 206.436 196.565ZM206.436 184.14C205.915 184.14 205.493 183.718 205.493 183.197V176.997C205.493 176.477 205.915 176.055 206.436 176.055C206.956 176.055 207.378 176.477 207.378 176.997V183.197C207.353 183.718 206.956 184.14 206.436 184.14ZM206.436 171.715C205.915 171.715 205.493 171.293 205.493 170.773V164.573C205.493 164.052 205.915 163.63 206.436 163.63C206.956 163.63 207.378 164.052 207.378 164.573V170.773C207.353 171.318 206.956 171.715 206.436 171.715ZM206.436 159.315C205.915 159.315 205.493 158.893 205.493 158.373V152.173C205.493 151.652 205.915 151.23 206.436 151.23C206.956 151.23 207.378 151.652 207.378 152.173V158.373C207.353 158.893 206.956 159.315 206.436 159.315ZM305.016 148.13C304.495 148.13 304.073 147.709 304.073 147.188V143.741C304.073 143.22 304.495 142.798 305.016 142.798C305.536 142.798 305.958 143.22 305.958 143.741V147.188C305.933 147.709 305.512 148.13 305.016 148.13ZM206.436 146.89C205.915 146.89 205.493 146.469 205.493 145.948V139.748C205.493 139.227 205.915 138.805 206.436 138.805C206.956 138.805 207.378 139.227 207.378 139.748V145.948C207.353 146.493 206.956 146.89 206.436 146.89ZM305.016 138.483C304.495 138.483 304.073 138.061 304.073 137.541V131.341C304.073 130.82 304.495 130.398 305.016 130.398C305.536 130.398 305.958 130.82 305.958 131.341V137.541C305.933 138.061 305.512 138.483 305.016 138.483ZM206.436 134.49C205.915 134.49 205.493 134.069 205.493 133.548V127.348C205.493 126.827 205.915 126.405 206.436 126.405C206.956 126.405 207.378 126.827 207.378 127.348V133.548C207.353 134.069 206.956 134.49 206.436 134.49ZM305.016 126.058C304.495 126.058 304.073 125.637 304.073 125.116V118.916C304.073 118.395 304.495 117.973 305.016 117.973C305.536 117.973 305.958 118.395 305.958 118.916V125.116C305.933 125.637 305.512 126.058 305.016 126.058ZM206.436 122.065C205.915 122.065 205.493 121.644 205.493 121.123V114.923C205.493 114.402 205.915 113.981 206.436 113.981C206.956 113.981 207.378 114.402 207.378 114.923V121.123C207.353 121.644 206.956 122.065 206.436 122.065ZM305.016 113.658C304.495 113.658 304.073 113.237 304.073 112.716V106.516C304.073 105.995 304.495 105.573 305.016 105.573C305.536 105.573 305.958 105.995 305.958 106.516V112.716C305.933 113.237 305.512 113.658 305.016 113.658ZM206.436 109.665C205.915 109.665 205.493 109.244 205.493 108.723V102.523C205.493 102.002 205.915 101.581 206.436 101.581C206.956 101.581 207.378 102.002 207.378 102.523V108.723C207.353 109.244 206.956 109.665 206.436 109.665ZM305.016 101.233C304.495 101.233 304.073 100.812 304.073 100.291V94.0911C304.073 93.5703 304.495 93.1487 305.016 93.1487C305.536 93.1487 305.958 93.5703 305.958 94.0911V100.291C305.933 100.812 305.512 101.233 305.016 101.233ZM206.436 97.2407C205.915 97.2407 205.493 96.8191 205.493 96.2983V90.0983C205.493 89.5775 205.915 89.1559 206.436 89.1559C206.956 89.1559 207.378 89.5775 207.378 90.0983V96.2983C207.353 96.8191 206.956 97.2407 206.436 97.2407ZM305.016 88.8335C304.495 88.8335 304.073 88.4119 304.073 87.8911V81.6911C304.073 81.1703 304.495 80.7487 305.016 80.7487C305.536 80.7487 305.958 81.1703 305.958 81.6911V87.8911C305.933 88.4119 305.512 88.8335 305.016 88.8335ZM206.436 84.8407C205.915 84.8407 205.493 84.4191 205.493 83.8983V77.6983C205.493 77.1775 205.915 76.7559 206.436 76.7559C206.956 76.7559 207.378 77.1775 207.378 77.6983V83.8983C207.353 84.4191 206.956 84.8407 206.436 84.8407ZM304.966 76.4087C304.47 76.4087 304.073 76.0367 304.048 75.5407C303.924 73.5567 303.552 71.5975 302.908 69.7127C302.734 69.2167 303.007 68.6959 303.478 68.5223C303.949 68.3487 304.495 68.6215 304.668 69.0927C305.363 71.1263 305.784 73.2591 305.908 75.4167C305.933 75.9375 305.536 76.3591 305.04 76.4087C304.991 76.4087 304.991 76.4087 304.966 76.4087ZM207.031 72.4655C206.956 72.4655 206.882 72.4655 206.808 72.4407C206.312 72.3167 205.989 71.8207 206.113 71.3247C206.609 69.2167 207.403 67.2079 208.444 65.3231C208.692 64.8767 209.263 64.7031 209.709 64.9511C210.156 65.1991 210.329 65.7695 210.081 66.2159C209.114 67.9519 208.395 69.8119 207.924 71.7463C207.849 72.1679 207.477 72.4655 207.031 72.4655ZM300.998 64.8271C300.7 64.8271 300.403 64.6783 300.229 64.4303C299.088 62.7935 297.749 61.3303 296.236 60.0407C295.84 59.7183 295.79 59.1231 296.112 58.7263C296.435 58.3295 297.03 58.2799 297.427 58.6023C299.088 59.9911 300.552 61.5783 301.767 63.3639C302.064 63.7855 301.965 64.3559 301.519 64.6535C301.37 64.7775 301.172 64.8271 300.998 64.8271ZM212.983 61.7519C212.735 61.7519 212.512 61.6527 212.338 61.4791C211.966 61.1071 211.966 60.5367 212.338 60.1647C213.851 58.6271 215.562 57.3127 217.447 56.2463C217.893 55.9983 218.464 56.1471 218.712 56.5935C218.96 57.0399 218.811 57.6103 218.364 57.8583C216.653 58.8503 215.066 60.0655 213.652 61.4791C213.479 61.6527 213.231 61.7519 212.983 61.7519ZM291.574 56.9655C291.45 56.9655 291.326 56.9407 291.202 56.8911C289.392 56.0727 287.482 55.5271 285.498 55.2295C284.977 55.1551 284.63 54.6839 284.704 54.1631C284.779 53.6423 285.25 53.2951 285.771 53.3695C287.904 53.6919 289.987 54.2871 291.946 55.1799C292.417 55.3783 292.616 55.9487 292.417 56.4199C292.268 56.7671 291.921 56.9655 291.574 56.9655ZM223.622 55.6759C223.2 55.6759 222.828 55.4031 222.729 54.9815C222.605 54.4855 222.903 53.9895 223.399 53.8407C225.259 53.3695 227.193 53.1463 229.152 53.1463H229.772C230.293 53.1463 230.715 53.5679 230.715 54.0887C230.715 54.6095 230.293 55.0311 229.772 55.0311H229.152C227.367 55.0311 225.581 55.2543 223.845 55.6759C223.796 55.6511 223.696 55.6759 223.622 55.6759ZM279.447 54.9815H273.247C272.726 54.9815 272.304 54.5599 272.304 54.0391C272.304 53.5183 272.726 53.0967 273.247 53.0967H279.447C279.968 53.0967 280.389 53.5183 280.389 54.0391C280.364 54.5847 279.943 54.9815 279.447 54.9815ZM267.022 54.9815H260.822C260.301 54.9815 259.88 54.5599 259.88 54.0391C259.88 53.5183 260.301 53.0967 260.822 53.0967H267.022C267.543 53.0967 267.964 53.5183 267.964 54.0391C267.964 54.5847 267.543 54.9815 267.022 54.9815ZM254.622 54.9815H248.422C247.901 54.9815 247.48 54.5599 247.48 54.0391C247.48 53.5183 247.901 53.0967 248.422 53.0967H254.622C255.143 53.0967 255.564 53.5183 255.564 54.0391C255.54 54.5847 255.118 54.9815 254.622 54.9815ZM242.197 54.9815H235.997C235.476 54.9815 235.055 54.5599 235.055 54.0391C235.055 53.5183 235.476 53.0967 235.997 53.0967H242.197C242.718 53.0967 243.14 53.5183 243.14 54.0391C243.14 54.5847 242.718 54.9815 242.197 54.9815Z" fill="#008D9C"/>
<path d="M255.714 57.5605C257.645 57.5605 259.21 55.9949 259.21 54.0637C259.21 52.1325 257.645 50.5669 255.714 50.5669C253.782 50.5669 252.217 52.1325 252.217 54.0637C252.217 55.9949 253.782 57.5605 255.714 57.5605Z" fill="#008D9C"/>
<path d="M255.713 60.611C252.092 60.611 249.166 57.6598 249.166 54.0638C249.166 50.443 252.117 47.5166 255.713 47.5166C259.334 47.5166 262.26 50.4678 262.26 54.0638C262.285 57.6846 259.334 60.611 255.713 60.611ZM255.713 48.3102C252.539 48.3102 249.96 50.8894 249.96 54.0638C249.96 57.2382 252.539 59.8174 255.713 59.8174C258.888 59.8174 261.467 57.2382 261.467 54.0638C261.467 50.8894 258.888 48.3102 255.713 48.3102Z" fill="#008D9C"/>
<path d="M259.904 104.507H199.863V114.774H259.904V104.507Z" fill="#C3C3C2"/>
<path d="M308.388 100.638H265.484C262.359 100.638 259.408 101.68 257.399 103.49L245.743 112.22H199.814C197.904 112.22 196.342 113.782 196.342 115.692V179.254C196.342 181.164 197.904 182.726 199.814 182.726H311.711C313.621 182.726 315.183 181.164 315.183 179.254V117.849V115.692V108.351C315.183 104.284 312.158 100.638 308.388 100.638Z" fill="#D2EDF3"/>
<path d="M131.044 292.714L124.67 298.89C124.447 299.088 124.273 299.311 124.1 299.559C119.859 296.782 115.246 294.847 110.46 293.706C110.509 293.409 110.559 293.136 110.559 292.838L110.658 283.985C110.683 281.232 108.476 278.95 105.698 278.926L96.8444 278.826C94.0916 278.802 91.81 281.009 91.7852 283.786L91.686 292.64C91.686 292.938 91.7108 293.235 91.7604 293.508C87.0732 294.5 82.5347 296.286 78.3435 298.84C78.1947 298.592 77.9964 298.369 77.798 298.17L71.6227 291.797C69.7131 289.813 66.5387 289.763 64.5547 291.698L58.1812 297.873C56.1972 299.782 56.1475 302.957 58.0819 304.941L64.2572 311.314C64.4556 311.538 64.6787 311.711 64.9267 311.885C62.1491 316.126 60.2147 320.738 59.0739 325.525C58.7763 325.475 58.5036 325.426 58.2059 325.426L49.3524 325.326C48.0132 325.302 46.7731 325.822 45.8059 326.74C45.8059 326.74 45.806 326.74 45.7812 326.765C44.814 327.707 44.2932 328.947 44.2684 330.286L44.1692 339.14C44.1444 341.893 46.3516 344.174 49.1292 344.199L57.9828 344.298C58.2804 344.298 58.578 344.274 58.8508 344.224C59.8428 348.911 61.6283 353.45 64.1827 357.641C63.9347 357.79 63.7116 357.988 63.5132 358.186L57.1395 364.362C55.1555 366.271 55.106 369.446 57.0404 371.43L63.2155 377.803C65.1251 379.787 68.2995 379.837 70.2835 377.902L76.6572 371.727C76.8804 371.529 77.0539 371.306 77.2275 371.058C81.4683 373.835 86.0811 375.794 90.8675 376.91C90.8179 377.208 90.7684 377.481 90.7684 377.778L90.6692 386.632C90.6444 387.971 91.1651 389.236 92.1075 390.178C93.0499 391.146 94.29 391.666 95.6292 391.691L104.483 391.79C105.847 391.815 107.112 391.27 108.004 390.377C108.922 389.484 109.517 388.219 109.517 386.83L109.616 377.977C109.616 377.679 109.592 377.382 109.542 377.109C114.229 376.117 118.768 374.331 122.959 371.777C123.108 372.025 123.306 372.248 123.504 372.446L129.68 378.82C131.589 380.804 134.764 380.854 136.748 378.919L143.121 372.744C145.105 370.834 145.155 367.66 143.22 365.676L137.045 359.302C136.847 359.079 136.624 358.906 136.376 358.732C139.153 354.491 141.112 349.878 142.228 345.092C142.526 345.142 142.799 345.191 143.096 345.191L151.95 345.29C153.314 345.315 154.579 344.77 155.496 343.877C156.414 342.984 157.009 341.719 157.009 340.33L157.108 331.477C157.133 328.724 154.926 326.442 152.148 326.418L143.295 326.318C142.997 326.318 142.7 326.343 142.427 326.393C141.435 321.706 139.649 317.167 137.095 312.976C137.343 312.827 137.566 312.629 137.764 312.43L144.138 306.255C146.122 304.346 146.172 301.171 144.237 299.187L138.062 292.814C136.202 290.854 133.028 290.805 131.044 292.714ZM117.032 352.16C107.732 361.187 92.8267 360.939 83.7995 351.639C74.7723 342.339 75.0204 327.434 84.3204 318.407C93.6204 309.38 108.525 309.628 117.552 318.928C126.555 328.253 126.332 343.158 117.032 352.16Z" stroke="#008D9C" stroke-width="4.1769" stroke-miterlimit="10"/>
<path d="M299.857 365.378H204.575V411.06H299.857V365.378Z" fill="#242424"/>
<path d="M410.489 149.742V357.789C410.489 364.46 405.083 369.892 398.387 369.892H106.069C99.398 369.892 93.9668 364.485 93.9668 357.789V149.742C93.9668 143.071 99.398 137.64 106.069 137.64H398.362C405.058 137.64 410.489 143.071 410.489 149.742Z" fill="#008D9C"/>
<path opacity="0.5" d="M257.919 355.259C257.919 358.682 255.142 361.484 251.695 361.484C248.272 361.484 245.47 358.707 245.47 355.259C245.47 351.837 248.247 349.035 251.695 349.035C255.142 349.059 257.919 351.837 257.919 355.259Z" fill="white"/>
<path d="M406.67 341.545V152.073C406.67 146.32 402.181 141.682 396.626 141.682H107.805C102.25 141.682 97.7607 146.345 97.7607 152.073V341.545H406.67Z" fill="#DAF0EF"/>
<path d="M318.605 415.97H185.826V408.406C185.826 407.141 186.843 406.125 188.108 406.125H316.299C317.564 406.125 318.581 407.141 318.581 408.406V415.97H318.605Z" fill="#141414"/>
<path d="M122.661 139.748C122.661 130.572 115.742 123.033 106.838 122.016C106.913 121.421 106.962 120.801 106.962 120.181C106.962 111.377 99.8448 104.259 91.0408 104.259C88.6848 104.259 86.4528 104.78 84.444 105.697C80.2032 99.1005 72.8128 94.7109 64.356 94.7109C51.1872 94.7109 40.5232 105.375 40.5232 118.544C40.5232 119.709 40.6224 120.85 40.7712 121.966C31.7688 122.884 24.7256 130.497 24.7256 139.748C24.7256 149.618 32.7112 157.604 42.5816 157.604H105.673V157.554C115.146 157.108 122.661 149.321 122.661 139.748Z" fill="#00ADB3"/>
<path d="M85.1383 171.244V143.493H62.2727V171.244H55.1055L73.7055 188.653L92.3055 171.244H85.1383Z" fill="#008D9C"/>
<path d="M345.068 152.867H274.586C273.346 152.867 272.329 151.85 272.329 150.61V117.626C272.329 116.386 273.346 115.37 274.586 115.37H345.068C346.308 115.37 347.324 116.386 347.324 117.626V150.61C347.324 151.85 346.332 152.867 345.068 152.867Z" fill="#008D9C"/>
<path d="M353.177 384.127H350.499C350.052 384.127 349.705 383.78 349.705 383.334C349.705 382.887 350.052 382.54 350.499 382.54H353.177C353.623 382.54 353.971 382.887 353.971 383.334C353.995 383.78 353.623 384.127 353.177 384.127Z" fill="#008D9C"/>
<path d="M417.409 384.127H412.052C411.606 384.127 411.259 383.78 411.259 383.334C411.259 382.887 411.631 382.54 412.052 382.54H417.409C417.855 382.54 418.203 382.887 418.203 383.334C418.227 383.78 417.855 384.127 417.409 384.127ZM406.72 384.127H401.363C400.917 384.127 400.57 383.78 400.57 383.334C400.57 382.887 400.942 382.54 401.363 382.54H406.72C407.167 382.54 407.514 382.887 407.514 383.334C407.514 383.78 407.167 384.127 406.72 384.127ZM396.007 384.127H390.65C390.203 384.127 389.856 383.78 389.856 383.334C389.856 382.887 390.228 382.54 390.65 382.54H396.007C396.453 382.54 396.8 382.887 396.8 383.334C396.8 383.78 396.453 384.127 396.007 384.127ZM385.293 384.127H379.936C379.49 384.127 379.143 383.78 379.143 383.334C379.143 382.887 379.49 382.54 379.936 382.54H385.293C385.739 382.54 386.087 382.887 386.087 383.334C386.111 383.78 385.739 384.127 385.293 384.127ZM374.604 384.127H369.247C368.801 384.127 368.454 383.78 368.454 383.334C368.454 382.887 368.801 382.54 369.247 382.54H374.604C375.051 382.54 375.398 382.887 375.398 383.334C375.398 383.78 375.026 384.127 374.604 384.127ZM363.891 384.127H358.534C358.087 384.127 357.74 383.78 357.74 383.334C357.74 382.887 358.112 382.54 358.534 382.54H363.891C364.337 382.54 364.684 382.887 364.684 383.334C364.684 383.78 364.337 384.127 363.891 384.127ZM422.716 383.507C422.344 383.507 422.022 383.259 421.947 382.887C421.848 382.466 422.096 382.019 422.543 381.92C424.204 381.523 425.841 380.903 427.354 380.11C427.751 379.911 428.222 380.06 428.445 380.457C428.643 380.854 428.495 381.325 428.098 381.548C426.461 382.416 424.725 383.061 422.915 383.482C422.84 383.507 422.791 383.507 422.716 383.507ZM432.115 378.622C431.892 378.622 431.669 378.522 431.52 378.349C431.223 378.026 431.272 377.506 431.595 377.208C432.884 376.067 434.05 374.778 435.017 373.364C435.265 372.992 435.761 372.918 436.133 373.166C436.505 373.414 436.579 373.91 436.331 374.282C435.265 375.794 434.025 377.183 432.636 378.398C432.512 378.547 432.314 378.622 432.115 378.622ZM438.191 369.917C438.092 369.917 437.993 369.892 437.894 369.867C437.472 369.718 437.274 369.247 437.423 368.826C438.043 367.214 438.464 365.552 438.687 363.841C438.737 363.394 439.134 363.097 439.58 363.146C440.027 363.196 440.324 363.593 440.275 364.039C440.051 365.874 439.58 367.685 438.911 369.396C438.811 369.743 438.514 369.917 438.191 369.917ZM439.679 359.402C439.233 359.402 438.886 359.03 438.886 358.608V353.251C438.886 352.805 439.258 352.458 439.679 352.458C440.126 352.458 440.473 352.83 440.473 353.251V358.608C440.473 359.054 440.126 359.402 439.679 359.402ZM439.679 348.688C439.233 348.688 438.886 348.341 438.886 347.894V342.538C438.886 342.091 439.258 341.744 439.679 341.744C440.126 341.744 440.473 342.116 440.473 342.538V347.894C440.473 348.341 440.126 348.688 439.679 348.688ZM439.679 337.999C439.233 337.999 438.886 337.652 438.886 337.206V331.849C438.886 331.402 439.258 331.055 439.679 331.055C440.126 331.055 440.473 331.402 440.473 331.849V337.206C440.473 337.627 440.126 337.999 439.679 337.999ZM439.679 327.286C439.233 327.286 438.886 326.914 438.886 326.492V321.135C438.886 320.689 439.258 320.342 439.679 320.342C440.126 320.342 440.473 320.689 440.473 321.135V326.492C440.473 326.938 440.126 327.286 439.679 327.286ZM439.679 316.572C439.233 316.572 438.886 316.2 438.886 315.778V310.422C438.886 309.975 439.258 309.628 439.679 309.628C440.126 309.628 440.473 309.975 440.473 310.422V315.778C440.473 316.225 440.126 316.572 439.679 316.572ZM439.679 305.883C439.233 305.883 438.886 305.536 438.886 305.09V299.733C438.886 299.286 439.258 298.939 439.679 298.939C440.126 298.939 440.473 299.311 440.473 299.733V305.09C440.473 305.511 440.126 305.883 439.679 305.883ZM439.679 295.17C439.233 295.17 438.886 294.822 438.886 294.376V289.019C438.886 288.573 439.258 288.226 439.679 288.226C440.126 288.226 440.473 288.598 440.473 289.019V294.376C440.473 294.798 440.126 295.17 439.679 295.17Z" fill="#008D9C"/>
<path d="M439.68 284.431C439.233 284.431 438.886 284.059 438.886 283.638V281.753H438.216C437.77 281.753 437.423 281.381 437.423 280.959C437.423 280.513 437.795 280.166 438.216 280.166H439.704C440.151 280.166 440.498 280.538 440.498 280.959V283.638C440.473 284.084 440.126 284.431 439.68 284.431Z" fill="#008D9C"/>
<path d="M414.755 199.888H344.521C340.305 199.888 336.883 203.31 336.883 207.526V353.499C336.883 357.715 340.305 361.137 344.521 361.137H414.755C418.971 361.137 422.393 357.715 422.393 353.499V207.526C422.393 203.31 418.971 199.888 414.755 199.888Z" fill="#00ADB3"/>
<path d="M396.279 208.295H355.805C355.657 208.295 355.508 208.171 355.508 207.997V205.989C355.508 205.84 355.632 205.691 355.805 205.691H396.279C396.428 205.691 396.577 205.815 396.577 205.989V207.997C396.552 208.171 396.428 208.295 396.279 208.295Z" fill="#008D9C"/>
<path d="M403.793 207.005C403.793 207.725 403.223 208.295 402.503 208.295C401.784 208.295 401.214 207.725 401.214 207.005C401.214 206.286 401.784 205.716 402.503 205.716C403.198 205.716 403.793 206.286 403.793 207.005Z" fill="#008D9C"/>
<path d="M417.706 214.52H341.595V261.292H417.706V214.52Z" fill="white"/>
<path d="M394.072 234.062L388.492 240.733L374.058 223.473L349.928 252.34H378.795H398.189H409.349L394.072 234.062Z" fill="#FEC354"/>
<path d="M377.53 323.243H341.595V344.323H377.53V323.243Z" fill="white"/>
<path d="M366.37 331.427L363.741 334.576L356.921 326.417L345.513 340.057H359.153H368.304H373.586L366.37 331.427Z" fill="#FEC354"/>
<path d="M377.53 273.32H341.595V275.329H377.53V273.32Z" fill="#008D9C"/>
<path d="M377.53 269.08H341.595V271.088H377.53V269.08Z" fill="#008D9C"/>
<path d="M364.312 277.462H341.595V279.471H364.312V277.462Z" fill="#008D9C"/>
<path d="M377.53 277.462H365.924V279.471H377.53V277.462Z" fill="#008D9C"/>
<path d="M373.388 281.579H341.595V283.587H373.388V281.579Z" fill="#008D9C"/>
<path d="M352.631 285.82H341.595V287.829H352.631V285.82Z" fill="#008D9C"/>
<path d="M362.501 285.82H354.54V287.829H362.501V285.82Z" fill="#008D9C"/>
<path d="M417.706 301.592H381.771V303.601H417.706V301.592Z" fill="#008D9C"/>
<path d="M417.706 297.376H381.771V299.385H417.706V297.376Z" fill="#008D9C"/>
<path d="M404.487 305.734H381.771V307.743H404.487V305.734Z" fill="#008D9C"/>
<path d="M417.706 305.734H406.1V307.743H417.706V305.734Z" fill="#008D9C"/>
<path d="M413.564 309.851H381.771V311.86H413.564V309.851Z" fill="#008D9C"/>
<path d="M392.807 314.092H381.771V316.101H392.807V314.092Z" fill="#008D9C"/>
<path d="M402.677 314.092H394.716V316.101H402.677V314.092Z" fill="#008D9C"/>
<path d="M417.706 273.32H381.771V275.329H417.706V273.32Z" fill="#008D9C"/>
<path d="M417.706 269.08H381.771V271.088H417.706V269.08Z" fill="#008D9C"/>
<path d="M404.487 277.462H381.771V279.471H404.487V277.462Z" fill="#008D9C"/>
<path d="M417.706 277.462H406.1V279.471H417.706V277.462Z" fill="#008D9C"/>
<path d="M417.706 281.579H381.771V283.587H417.706V281.579Z" fill="#008D9C"/>
<path d="M392.807 285.82H381.771V287.829H392.807V285.82Z" fill="#008D9C"/>
<path d="M417.705 285.82H394.716V287.829H417.705V285.82Z" fill="#008D9C"/>
<path d="M377.53 301.592H341.595V303.601H377.53V301.592Z" fill="#008D9C"/>
<path d="M377.53 297.376H341.595V299.385H377.53V297.376Z" fill="#008D9C"/>
<path d="M377.53 305.734H341.595V307.743H377.53V305.734Z" fill="#008D9C"/>
<path d="M377.53 309.851H341.595V311.86H377.53V309.851Z" fill="#008D9C"/>
<path d="M377.53 314.092H341.595V316.101H377.53V314.092Z" fill="#008D9C"/>
<path d="M417.706 328.153H381.771V330.162H417.706V328.153Z" fill="#008D9C"/>
<path d="M417.706 323.938H381.771V325.946H417.706V323.938Z" fill="#008D9C"/>
<path d="M417.681 332.295H394.964V334.304H417.681V332.295Z" fill="#008D9C"/>
<path d="M393.377 332.295H381.771V334.304H393.377V332.295Z" fill="#008D9C"/>
<path d="M409.373 336.412H381.771V338.421H409.373V336.412Z" fill="#008D9C"/>
<path d="M417.681 336.412H411.258V338.421H417.681V336.412Z" fill="#008D9C"/>
<path d="M417.706 340.653H391.194V342.662H417.706V340.653Z" fill="#008D9C"/>
<path d="M389.731 340.653H381.771V342.662H389.731V340.653Z" fill="#008D9C"/>
<path d="M442.556 336.437C442.556 338.371 440.994 339.934 439.059 339.934C437.125 339.934 435.562 338.371 435.562 336.437C435.562 334.502 437.125 332.94 439.059 332.94C440.994 332.94 442.556 334.502 442.556 336.437Z" fill="#008D9C"/>
<path d="M439.059 342.984C435.438 342.984 432.512 340.033 432.512 336.437C432.512 332.816 435.463 329.89 439.059 329.89C442.68 329.89 445.606 332.841 445.606 336.437C445.631 340.058 442.68 342.984 439.059 342.984ZM439.059 330.683C435.885 330.683 433.305 333.262 433.305 336.437C433.305 339.611 435.885 342.19 439.059 342.19C442.233 342.19 444.813 339.611 444.813 336.437C444.813 333.262 442.233 330.683 439.059 330.683Z" fill="#008D9C"/>
<path d="M267.567 291.97H243.957V294.103H267.567V291.97Z" fill="#008D9C"/>
<path d="M328.277 291.97H273.618V294.103H328.277V291.97Z" fill="#008D9C"/>
<path d="M300.253 310.396C290.879 310.396 281.48 310.396 272.105 310.372V308.239C290.829 308.288 309.702 308.288 328.253 308.239V310.372C319.002 310.396 309.628 310.396 300.253 310.396Z" fill="#008D9C"/>
<path d="M328.277 300.104H263.524V302.237H328.277V300.104Z" fill="#008D9C"/>
<path d="M328.277 316.374H260.003V318.506H328.277V316.374Z" fill="#008D9C"/>
<path d="M328.277 324.508H250.529V326.641H328.277V324.508Z" fill="#008D9C"/>
<path d="M152.966 169.557H116.411V171.69H152.966V169.557Z" fill="#008D9C"/>
<path d="M237.931 169.557H200.21V171.69H237.931V169.557Z" fill="#008D9C"/>
<path d="M237.931 177.667H211.767V179.8H237.931V177.667Z" fill="#FEC354"/>
<path d="M237.931 193.96H201.004V196.093H237.931V193.96Z" fill="#FEC354"/>
<path d="M237.931 202.095H193.762V204.228H237.931V202.095Z" fill="#FEC354"/>
<path d="M237.906 211.593H181.114V213.726H237.906V211.593Z" fill="#FEC354"/>
<path d="M195.449 169.557H158.894V171.69H195.449V169.557Z" fill="#FEC354"/>
<path d="M208.419 187.984C202.839 187.984 197.234 187.984 186.025 187.959H178.733V185.826H186.025C208.444 185.851 208.444 185.851 230.689 185.826H237.931V187.959H230.689C219.554 187.959 213.999 187.984 208.419 187.984Z" fill="#FEC354"/>
<path d="M144.435 187.984C135.06 187.984 125.686 187.984 116.436 187.959V185.826C134.986 185.876 153.859 185.876 172.583 185.826V187.959C163.208 187.959 153.809 187.984 144.435 187.984Z" fill="#008D9C"/>
<path d="M206.559 177.667H116.411V179.8H206.559V177.667Z" fill="#008D9C"/>
<path d="M176.105 211.593H116.411V213.726H176.105V211.593Z" fill="#008D9C"/>
<path d="M196.317 193.96H116.411V196.093H196.317V193.96Z" fill="#008D9C"/>
<path d="M188.827 202.095H116.411V204.228H188.827V202.095Z" fill="#008D9C"/>
<path d="M108.772 172.112C109.594 172.112 110.26 171.446 110.26 170.624C110.26 169.802 109.594 169.136 108.772 169.136C107.95 169.136 107.284 169.802 107.284 170.624C107.284 171.446 107.95 172.112 108.772 172.112Z" fill="#ED2891"/>
<path d="M110.236 178.758C110.236 179.576 109.566 180.246 108.748 180.246C107.929 180.246 107.26 179.576 107.26 178.758C107.26 177.94 107.929 177.27 108.748 177.27C109.591 177.27 110.236 177.94 110.236 178.758Z" fill="#ED2891"/>
<path d="M108.772 188.356C109.594 188.356 110.26 187.69 110.26 186.868C110.26 186.046 109.594 185.38 108.772 185.38C107.95 185.38 107.284 186.046 107.284 186.868C107.284 187.69 107.95 188.356 108.772 188.356Z" fill="#ED2891"/>
<path d="M110.236 195.002C110.236 195.821 109.566 196.49 108.748 196.49C107.929 196.49 107.26 195.821 107.26 195.002C107.26 194.184 107.929 193.514 108.748 193.514C109.591 193.514 110.236 194.184 110.236 195.002Z" fill="#ED2891"/>
<path d="M108.772 204.649C109.594 204.649 110.26 203.983 110.26 203.161C110.26 202.34 109.594 201.673 108.772 201.673C107.95 201.673 107.284 202.34 107.284 203.161C107.284 203.983 107.95 204.649 108.772 204.649Z" fill="#ED2891"/>
<path d="M110.236 212.66C110.236 213.478 109.566 214.148 108.748 214.148C107.929 214.148 107.26 213.478 107.26 212.66C107.26 211.841 107.929 211.172 108.748 211.172C109.591 211.172 110.236 211.841 110.236 212.66Z" fill="#ED2891"/>
<path d="M247.653 217.496C247.355 217.496 247.107 217.248 247.107 216.95V169.408C247.107 169.111 247.355 168.863 247.653 168.863C247.951 168.863 248.199 169.111 248.199 169.408V216.95C248.199 217.248 247.951 217.496 247.653 217.496Z" fill="#ED2891"/>
<path d="M156.538 320.044H153.264C152.966 320.044 152.718 319.796 152.718 319.498C152.718 319.2 152.966 318.952 153.264 318.952H156.562C156.86 318.952 157.108 319.2 157.108 319.498C157.083 319.796 156.835 320.044 156.538 320.044ZM149.966 320.044H146.667C146.37 320.044 146.122 319.796 146.122 319.498C146.122 319.2 146.37 318.952 146.667 318.952H149.966C150.263 318.952 150.511 319.2 150.511 319.498C150.511 319.796 150.263 320.044 149.966 320.044ZM143.394 320.044H142.054C141.31 320.044 140.566 319.845 139.922 319.498C139.649 319.349 139.55 319.027 139.698 318.754C139.847 318.481 140.194 318.407 140.442 318.531C140.938 318.804 141.484 318.952 142.054 318.952H143.394C143.691 318.952 143.939 319.2 143.939 319.498C143.939 319.796 143.691 320.044 143.394 320.044ZM138.26 316.993C138.012 316.993 137.789 316.82 137.714 316.572C137.64 316.249 137.615 315.952 137.615 315.629V313.174C137.615 312.876 137.863 312.628 138.161 312.628C138.458 312.628 138.706 312.876 138.706 313.174V315.629C138.706 315.877 138.731 316.1 138.781 316.348C138.855 316.646 138.657 316.944 138.359 316.993C138.334 316.993 138.31 316.993 138.26 316.993ZM138.186 310.421C137.888 310.421 137.64 310.173 137.64 309.876V306.577C137.64 306.28 137.888 306.032 138.186 306.032C138.483 306.032 138.731 306.28 138.731 306.577V309.876C138.731 310.173 138.483 310.421 138.186 310.421ZM138.186 303.824C137.888 303.824 137.64 303.576 137.64 303.279V299.98C137.64 299.683 137.888 299.435 138.186 299.435C138.483 299.435 138.731 299.683 138.731 299.98V303.279C138.731 303.576 138.483 303.824 138.186 303.824ZM138.186 297.252C137.888 297.252 137.64 297.004 137.64 296.707V293.408C137.64 293.111 137.888 292.863 138.186 292.863C138.483 292.863 138.731 293.111 138.731 293.408V296.707C138.731 297.004 138.483 297.252 138.186 297.252ZM138.186 290.68C137.888 290.68 137.64 290.432 137.64 290.135V289.738C137.64 288.622 138.062 287.556 138.806 286.737C139.004 286.514 139.351 286.489 139.574 286.712C139.798 286.911 139.822 287.258 139.599 287.481C139.029 288.101 138.706 288.895 138.706 289.738V290.135C138.731 290.432 138.483 290.68 138.186 290.68ZM158.596 286.39H155.298C155 286.39 154.752 286.142 154.752 285.844C154.752 285.547 155 285.299 155.298 285.299H158.596C158.894 285.299 159.142 285.547 159.142 285.844C159.142 286.142 158.894 286.39 158.596 286.39ZM152.024 286.39H148.726C148.428 286.39 148.18 286.142 148.18 285.844C148.18 285.547 148.428 285.299 148.726 285.299H152.024C152.322 285.299 152.57 285.547 152.57 285.844C152.57 286.142 152.322 286.39 152.024 286.39ZM145.427 286.39H142.129C141.831 286.39 141.583 286.142 141.583 285.844C141.583 285.547 141.831 285.299 142.129 285.299H145.427C145.725 285.299 145.973 285.547 145.973 285.844C145.973 286.142 145.75 286.39 145.427 286.39Z" fill="#008D9C"/>
<path d="M168.466 305.784H150.858V307.966H168.466V305.784Z" fill="#008D9C"/>
<path d="M201.525 305.784H173.079V307.966H201.525V305.784Z" fill="#008D9C"/>
<path d="M201.549 324.458H183.941V326.64H201.549V324.458Z" fill="#008D9C"/>
<path d="M179.329 324.458H150.858V326.64H179.329V324.458Z" fill="#008D9C"/>
<path d="M181.834 312.157H150.858V314.34H181.834V312.157Z" fill="#008D9C"/>
<path d="M201.525 312.157H186.446V314.34H201.525V312.157Z" fill="#008D9C"/>
<path d="M176.353 318.382H150.858V320.564H176.353V318.382Z" fill="#008D9C"/>
<path d="M201.55 318.382H184.239V320.564H201.55V318.382Z" fill="#008D9C"/>
<path d="M160.084 279.297H150.858V296.459H160.084V279.297Z" fill="#FEC354"/>
<path d="M174.567 272.775H165.342V296.459H174.567V272.775Z" fill="#ED2891"/>
<path d="M188.555 259.259H179.329V296.459H188.555V259.259Z" fill="#5E4EA0"/>
<path d="M182.106 318.382H178.808V320.564H182.106V318.382Z" fill="#008D9C"/>
<path d="M327.409 200.979H258.391V278.008H327.409V200.979Z" fill="#00ADB3"/>
<path d="M312.107 214.668H263.971V216.28H312.107V214.668Z" fill="white"/>
<path d="M287.977 227.961C279.719 227.961 271.46 227.961 263.971 227.936V226.324C278.975 226.349 296.955 226.349 312.107 226.324V227.936C304.543 227.936 296.26 227.961 287.977 227.961Z" fill="white"/>
<path d="M312.107 220.497H263.971V222.109H312.107V220.497Z" fill="white"/>
<path d="M299.063 232.177H263.971V233.789H299.063V232.177Z" fill="white"/>
<path d="M312.107 271.436H263.971V273.048H312.107V271.436Z" fill="white"/>
<path d="M312.107 261.367C296.979 261.342 278.975 261.342 263.971 261.367V259.755C278.975 259.73 296.955 259.73 312.107 259.755V261.367Z" fill="white"/>
<path d="M312.107 265.583H263.971V267.195H312.107V265.583Z" fill="white"/>
<path d="M299.063 253.902H263.971V255.514H299.063V253.902Z" fill="white"/>
<path d="M328.5 279.074H257.324V199.888H328.5V279.074ZM258.391 277.983H327.409V200.954H258.391V277.983Z" fill="#5E4EA0"/>
<path d="M327.98 200.409H257.87V209.634H327.98V200.409Z" fill="#008D9C"/>
<path d="M307.941 249.81C307.743 249.81 307.569 249.736 307.42 249.612L302.014 244.85C301.84 244.702 301.741 244.478 301.741 244.255C301.741 244.032 301.84 243.809 302.014 243.66L307.42 238.898C307.743 238.601 308.264 238.626 308.561 238.973C308.859 239.295 308.834 239.816 308.487 240.114L303.775 244.28L308.487 248.446C308.809 248.744 308.859 249.24 308.561 249.587C308.388 249.711 308.164 249.81 307.941 249.81Z" fill="white"/>
<path d="M316.274 249.81C316.051 249.81 315.827 249.711 315.679 249.537C315.381 249.215 315.406 248.694 315.753 248.396L320.465 244.23L315.753 240.064C315.431 239.766 315.381 239.27 315.679 238.923C315.976 238.601 316.472 238.551 316.819 238.848L322.201 243.61C322.375 243.759 322.474 243.982 322.474 244.205C322.474 244.428 322.375 244.652 322.201 244.8L316.819 249.562C316.646 249.736 316.448 249.81 316.274 249.81Z" fill="white"/>
<path d="M264.516 205.021L266.376 203.161C266.55 202.988 266.55 202.69 266.376 202.516C266.203 202.343 265.905 202.343 265.731 202.516L263.871 204.376L262.011 202.516C261.838 202.343 261.54 202.343 261.367 202.516C261.193 202.69 261.193 202.988 261.367 203.161L263.227 205.021L261.367 206.881C261.193 207.055 261.193 207.352 261.367 207.526C261.466 207.625 261.565 207.65 261.689 207.65C261.813 207.65 261.912 207.6 262.011 207.526L263.871 205.666L265.731 207.526C265.831 207.625 265.93 207.65 266.054 207.65C266.178 207.65 266.277 207.6 266.376 207.526C266.55 207.352 266.55 207.055 266.376 206.881L264.516 205.021Z" fill="white"/>
<path d="M272.527 207.675C271.063 207.675 269.873 206.484 269.873 205.021C269.873 203.558 271.063 202.368 272.527 202.368C273.99 202.368 275.18 203.558 275.18 205.021C275.18 206.484 273.99 207.675 272.527 207.675ZM272.527 203.236C271.535 203.236 270.741 204.029 270.741 205.021C270.741 206.013 271.535 206.807 272.527 206.807C273.519 206.807 274.312 206.013 274.312 205.021C274.312 204.029 273.519 203.236 272.527 203.236Z" fill="white"/>
<path d="M282.744 207.675H278.429C278.181 207.675 277.982 207.477 277.982 207.229C277.982 206.981 278.181 206.782 278.429 206.782H282.744C282.992 206.782 283.19 206.981 283.19 207.229C283.19 207.477 282.992 207.675 282.744 207.675Z" fill="white"/>
<path d="M236.344 97.2904L230.119 99.2744C229.921 99.3488 229.722 99.4232 229.524 99.5224C227.639 96.2984 225.234 93.496 222.456 91.1648C222.58 90.9912 222.704 90.8176 222.803 90.6192L225.779 84.7912C226.697 82.9808 226.002 80.7488 224.192 79.8312L218.364 76.8552C216.554 75.9376 214.322 76.632 213.404 78.4424L210.428 84.2704C210.329 84.4688 210.254 84.6672 210.18 84.8656C206.758 83.9728 203.186 83.6504 199.566 83.9728C199.541 83.7744 199.491 83.5512 199.442 83.3528L197.458 77.128C196.838 75.1936 194.754 74.1024 192.82 74.7224L186.595 76.7064C184.661 77.3264 183.57 79.4096 184.19 81.344L186.174 87.5688C186.248 87.7672 186.322 87.9656 186.422 88.164C183.198 90.0488 180.395 92.4544 178.064 95.232C177.89 95.108 177.717 94.984 177.518 94.8848L171.69 91.9088C170.822 91.4624 169.83 91.388 168.888 91.6608C168.888 91.6608 168.888 91.6608 168.863 91.6608C167.921 91.9584 167.152 92.6032 166.706 93.496L163.73 99.324C162.812 101.134 163.506 103.366 165.317 104.284L171.145 107.26C171.343 107.359 171.542 107.434 171.74 107.508C170.847 110.93 170.525 114.502 170.847 118.122C170.649 118.147 170.426 118.197 170.227 118.246L164.002 120.23C162.068 120.85 160.977 122.909 161.597 124.868L163.581 131.093C164.201 133.027 166.259 134.118 168.218 133.498L174.443 131.514C174.642 131.44 174.84 131.366 175.038 131.266C176.923 134.49 179.329 137.318 182.106 139.624C181.982 139.798 181.858 139.971 181.759 140.17L178.783 145.998C178.337 146.866 178.262 147.882 178.56 148.825C178.858 149.767 179.502 150.536 180.395 150.982L186.223 153.958C187.116 154.43 188.133 154.479 189.026 154.182C189.943 153.884 190.737 153.264 191.208 152.346L194.184 146.518C194.283 146.32 194.358 146.122 194.432 145.923C197.854 146.816 201.426 147.138 205.046 146.816C205.071 147.014 205.121 147.238 205.17 147.436L207.154 153.661C207.774 155.595 209.833 156.686 211.792 156.066L218.017 154.082C219.951 153.462 221.042 151.379 220.422 149.445L218.438 143.22C218.364 143.022 218.29 142.823 218.19 142.625C221.414 140.74 224.242 138.334 226.548 135.557C226.722 135.681 226.895 135.805 227.094 135.904L232.922 138.88C233.814 139.351 234.831 139.401 235.724 139.103C236.642 138.806 237.435 138.186 237.906 137.268L240.882 131.44C241.8 129.63 241.106 127.398 239.295 126.48L233.467 123.504C233.269 123.405 233.07 123.33 232.872 123.256C233.765 119.834 234.087 116.262 233.765 112.642C233.963 112.617 234.186 112.567 234.385 112.518L240.61 110.534C242.544 109.914 243.635 107.83 243.015 105.896L241.031 99.6712C240.362 97.7616 238.278 96.6704 236.344 97.2904ZM207.477 131.886C198.375 134.763 188.604 129.704 185.727 120.602C182.85 111.501 187.91 101.73 197.036 98.8528C206.138 95.976 215.909 101.035 218.786 110.162C221.662 119.263 216.603 129.01 207.477 131.886Z" fill="#008D9C"/>
<path d="M228.457 242.023L226.945 245.743C226.895 245.867 226.845 245.991 226.821 246.115C224.564 245.743 222.307 245.768 220.1 246.165C220.075 246.041 220.025 245.917 219.976 245.793L218.413 242.097C217.917 240.957 216.603 240.411 215.437 240.907L211.742 242.469C210.601 242.965 210.056 244.28 210.552 245.445L212.114 249.141C212.164 249.265 212.238 249.389 212.313 249.488C210.552 250.753 208.989 252.315 207.725 254.125C207.625 254.051 207.501 254.001 207.377 253.952L203.657 252.439C202.492 251.968 201.177 252.513 200.706 253.679L199.193 257.399C198.722 258.565 199.268 259.879 200.433 260.35L204.153 261.863C204.277 261.913 204.401 261.937 204.525 261.987C204.153 264.244 204.178 266.501 204.575 268.708C204.451 268.733 204.327 268.782 204.203 268.832L200.508 270.394C199.962 270.617 199.516 271.064 199.293 271.609C199.069 272.18 199.069 272.775 199.317 273.345L200.88 277.041C201.376 278.181 202.69 278.727 203.856 278.231L207.551 276.669C207.675 276.619 207.799 276.545 207.898 276.47C209.163 278.231 210.725 279.793 212.536 281.058C212.461 281.157 212.412 281.281 212.362 281.405L210.849 285.125C210.378 286.291 210.924 287.605 212.089 288.077L215.809 289.589C216.975 290.061 218.289 289.515 218.761 288.349L220.273 284.629C220.323 284.505 220.348 284.381 220.397 284.257C222.654 284.629 224.936 284.605 227.118 284.208C227.143 284.332 227.193 284.456 227.242 284.58L228.805 288.275C229.053 288.821 229.474 289.267 230.045 289.49C230.615 289.713 231.21 289.713 231.781 289.465L235.476 287.903C236.046 287.655 236.468 287.209 236.691 286.688C236.914 286.142 236.914 285.522 236.691 284.952L235.129 281.257C235.079 281.133 235.005 281.009 234.93 280.909C236.691 279.645 238.253 278.082 239.518 276.272C239.617 276.346 239.741 276.396 239.865 276.445L243.585 277.958C244.751 278.429 246.065 277.884 246.537 276.718L248.049 272.998C248.521 271.833 247.975 270.518 246.809 270.047L243.089 268.534C242.965 268.485 242.841 268.46 242.717 268.41C243.089 266.153 243.065 263.872 242.668 261.689C242.792 261.665 242.916 261.615 243.04 261.565L246.735 260.003C247.305 259.755 247.727 259.309 247.95 258.788C248.173 258.242 248.173 257.622 247.95 257.052L246.388 253.357C245.892 252.216 244.577 251.67 243.412 252.166L239.717 253.729C239.593 253.778 239.469 253.853 239.369 253.927C238.105 252.166 236.542 250.604 234.732 249.339C234.806 249.24 234.856 249.116 234.905 248.992L236.418 245.272C236.889 244.106 236.344 242.792 235.178 242.321L231.458 240.808C230.268 240.312 228.953 240.857 228.457 242.023ZM233.467 269.179C231.26 274.61 225.035 277.214 219.629 275.007C214.197 272.8 211.593 266.575 213.801 261.169C216.008 255.737 222.233 253.133 227.639 255.341C233.07 257.548 235.674 263.748 233.467 269.179Z" fill="#00ADB3"/>
<path d="M203.906 223.175L201.922 225.184C201.847 225.258 201.798 225.332 201.748 225.407C200.384 224.564 198.921 223.968 197.383 223.646C197.408 223.547 197.408 223.472 197.408 223.373L197.383 220.571C197.383 219.703 196.664 218.984 195.771 219.008L192.969 219.033C192.101 219.033 191.382 219.752 191.407 220.645L191.431 223.448C191.431 223.547 191.456 223.646 191.456 223.72C189.993 224.068 188.555 224.663 187.24 225.506C187.191 225.432 187.141 225.357 187.067 225.308L185.058 223.324C184.438 222.704 183.421 222.728 182.826 223.348L180.842 225.357C180.222 225.977 180.247 226.994 180.867 227.589L182.875 229.573C182.95 229.648 183.024 229.697 183.099 229.747C182.255 231.111 181.66 232.574 181.338 234.112C181.239 234.087 181.164 234.087 181.065 234.087L178.263 234.112C177.841 234.112 177.444 234.285 177.147 234.583C176.849 234.88 176.7 235.277 176.7 235.699L176.725 238.501C176.725 239.369 177.444 240.088 178.337 240.064L181.139 240.039C181.239 240.039 181.338 240.014 181.412 240.014C181.759 241.477 182.355 242.916 183.198 244.23C183.123 244.28 183.049 244.329 182.999 244.404L181.015 246.412C180.395 247.032 180.42 248.049 181.04 248.644L183.049 250.628C183.669 251.248 184.686 251.224 185.281 250.604L187.265 248.595C187.339 248.52 187.389 248.446 187.439 248.372C188.803 249.215 190.266 249.81 191.803 250.132C191.779 250.232 191.779 250.306 191.779 250.405L191.803 253.208C191.803 253.629 191.977 254.026 192.275 254.324C192.572 254.621 192.969 254.77 193.391 254.77L196.193 254.745C196.639 254.745 197.011 254.572 197.309 254.274C197.607 253.976 197.78 253.58 197.755 253.133L197.731 250.331C197.731 250.232 197.706 250.132 197.706 250.058C199.169 249.711 200.607 249.116 201.922 248.272C201.971 248.347 202.021 248.421 202.095 248.471L204.104 250.455C204.724 251.075 205.741 251.05 206.336 250.43L208.32 248.421C208.94 247.801 208.915 246.784 208.295 246.189L206.287 244.205C206.212 244.131 206.138 244.081 206.063 244.032C206.907 242.668 207.502 241.204 207.824 239.667C207.923 239.692 207.998 239.692 208.097 239.692L210.899 239.667C211.346 239.667 211.718 239.493 212.015 239.196C212.313 238.898 212.487 238.501 212.462 238.055L212.437 235.252C212.437 234.384 211.718 233.665 210.825 233.69L208.023 233.715C207.923 233.715 207.824 233.74 207.75 233.74C207.403 232.276 206.807 230.838 205.964 229.524C206.039 229.474 206.113 229.424 206.163 229.35L208.147 227.341C208.767 226.721 208.742 225.704 208.122 225.109L206.113 223.125C205.518 222.555 204.501 222.555 203.906 223.175ZM199.863 242.097C196.987 245.024 192.25 245.048 189.348 242.172C186.422 239.295 186.397 234.558 189.274 231.656C192.151 228.73 196.887 228.705 199.789 231.582C202.715 234.459 202.765 239.196 199.863 242.097Z" stroke="#008D9C" stroke-width="2.0884" stroke-miterlimit="10"/>
<path d="M46.1777 197.085H33.3809V199.218H46.1777V197.085Z" fill="#008D9C"/>
<path d="M84.1212 197.085H51.4844V199.218H84.1212V197.085Z" fill="#008D9C"/>
<path d="M84.1212 220.075H63.9092V222.208H84.1212V220.075Z" fill="#008D9C"/>
<path d="M58.6273 220.075H33.3809V222.208H58.6273V220.075Z" fill="#008D9C"/>
<path d="M61.5041 204.897H33.3809V207.03H61.5041V204.897Z" fill="#008D9C"/>
<path d="M84.1219 204.897H66.8115V207.03H84.1219V204.897Z" fill="#008D9C"/>
<path d="M55.2297 212.585H33.3809V214.718H55.2297V212.585Z" fill="#008D9C"/>
<path d="M84.1213 212.585H64.2812V214.718H84.1213V212.585Z" fill="#008D9C"/>
<path d="M61.8266 212.585H58.0322V214.718H61.8266V212.585Z" fill="#008D9C"/>
<path d="M383.508 397.569H370.711V399.702H383.508V397.569Z" fill="#008D9C"/>
<path d="M421.427 397.569H388.79V399.702H421.427V397.569Z" fill="#008D9C"/>
<path d="M421.427 420.559H401.215V422.691H421.427V420.559Z" fill="#008D9C"/>
<path d="M395.957 420.559H370.711V422.691H395.957V420.559Z" fill="#008D9C"/>
<path d="M398.834 405.406H370.711V407.539H398.834V405.406Z" fill="#008D9C"/>
<path d="M421.427 405.406H404.116V407.539H421.427V405.406Z" fill="#008D9C"/>
<path d="M392.56 413.094H370.711V415.227H392.56V413.094Z" fill="#008D9C"/>
<path d="M421.427 413.094H401.587V415.227H421.427V413.094Z" fill="#008D9C"/>
<path d="M399.131 413.094H395.337V415.227H399.131V413.094Z" fill="#008D9C"/>
<path d="M413.242 133.374L408.208 134.44C408.034 134.465 407.885 134.54 407.737 134.589C406.497 131.911 404.835 129.555 402.826 127.521C402.95 127.397 403.049 127.273 403.149 127.124L405.926 122.784C406.794 121.445 406.397 119.635 405.058 118.767L400.718 115.989C399.379 115.121 397.569 115.518 396.701 116.857L393.923 121.197C393.824 121.346 393.749 121.495 393.7 121.644C391.096 120.701 388.318 120.156 385.466 120.131C385.466 119.957 385.441 119.808 385.417 119.635L384.35 114.6C384.003 113.038 382.465 112.046 380.903 112.368L375.869 113.435C374.306 113.782 373.314 115.32 373.637 116.882L374.703 121.916C374.728 122.09 374.802 122.239 374.852 122.388C372.173 123.603 369.817 125.289 367.784 127.298C367.66 127.174 367.536 127.075 367.387 126.976L363.047 124.198C362.402 123.776 361.633 123.652 360.865 123.801C360.865 123.801 360.865 123.801 360.84 123.801C360.071 123.975 359.426 124.421 359.029 125.066L356.252 129.406C355.384 130.745 355.781 132.556 357.12 133.424L361.46 136.201C361.609 136.3 361.757 136.375 361.906 136.424C360.964 139.028 360.418 141.806 360.393 144.658C360.22 144.658 360.071 144.683 359.897 144.708L354.863 145.774C353.301 146.121 352.309 147.659 352.631 149.221L353.697 154.256C354.045 155.818 355.582 156.81 357.145 156.488L362.179 155.421C362.353 155.396 362.501 155.322 362.65 155.272C363.89 157.951 365.552 160.332 367.561 162.34C367.437 162.464 367.337 162.588 367.238 162.737L364.461 167.077C364.039 167.722 363.915 168.516 364.064 169.26C364.237 170.028 364.684 170.673 365.329 171.07L369.669 173.848C370.338 174.269 371.107 174.393 371.851 174.244C372.57 174.096 373.265 173.649 373.686 172.98L376.464 168.64C376.563 168.491 376.637 168.342 376.687 168.193C379.291 169.136 382.069 169.681 384.921 169.706C384.921 169.88 384.945 170.028 384.97 170.202L386.037 175.236C386.384 176.799 387.921 177.791 389.484 177.468L394.518 176.402C396.081 176.055 397.073 174.517 396.75 172.955L395.684 167.92C395.659 167.747 395.585 167.598 395.535 167.449C398.213 166.209 400.594 164.548 402.603 162.539C402.727 162.663 402.851 162.762 403 162.861L407.34 165.639C408.009 166.06 408.778 166.184 409.522 166.036C410.241 165.887 410.936 165.44 411.357 164.771L414.16 160.456C415.028 159.116 414.631 157.306 413.292 156.438L408.952 153.66C408.803 153.561 408.654 153.487 408.505 153.437C409.448 150.833 409.993 148.056 410.018 145.204C410.192 145.204 410.341 145.179 410.514 145.154L415.549 144.088C417.111 143.74 418.103 142.203 417.781 140.64L416.714 135.606C416.342 134.044 414.805 133.027 413.242 133.374ZM388.07 158.298C380.729 159.86 373.463 155.173 371.901 147.832C370.338 140.492 375.025 133.225 382.366 131.663C389.707 130.1 396.973 134.788 398.536 142.128C400.098 149.469 395.411 156.711 388.07 158.298Z" fill="#008D9C"/>
<path d="M289.912 134.887L301.915 128.687V130.472L291.797 135.556V135.606L301.915 140.69V142.475L289.912 136.275V134.887Z" fill="white"/>
<path d="M303.602 143.492L310.818 124.719H312.579L305.338 143.492H303.602Z" fill="white"/>
<path d="M326.244 136.3L314.241 142.475V140.69L324.434 135.606V135.556L314.241 130.472V128.687L326.244 134.862V136.3Z" fill="white"/>
</svg>
