<svg width="9" height="13" viewBox="0 0 9 13" fill="none" xmlns="http://www.w3.org/2000/svg">
<g clip-path="url(#clip0_2430_4704)">
<g clip-path="url(#clip1_2430_4704)">
<path d="M5.68027 6.69063L1.08027 2.29062C1.01361 2.22396 0.94694 2.12396 0.880273 1.99063C0.813607 1.92396 0.780273 1.82396 0.780273 1.69063C0.780273 1.62396 0.813607 1.52396 0.880273 1.39062C0.94694 1.32396 1.01361 1.22396 1.08027 1.09063C1.14694 1.02396 1.24694 0.990625 1.38027 0.990625C1.44694 0.923958 1.54694 0.890625 1.68027 0.890625C1.81361 0.890625 1.91361 0.923958 1.98027 0.990625C2.11361 0.990625 2.21361 1.02396 2.28027 1.09063L7.58027 6.09062C7.64694 6.15729 7.71361 6.22396 7.78027 6.29063C7.78027 6.42396 7.81361 6.52396 7.88027 6.59062C7.88027 6.72396 7.84694 6.82396 7.78027 6.89062C7.71361 7.02396 7.64694 7.12396 7.58027 7.19063L2.28027 12.1906C2.14694 12.3906 1.94694 12.4906 1.68027 12.4906C1.41361 12.4906 1.21361 12.3906 1.08027 12.1906C0.880273 12.0573 0.780273 11.8573 0.780273 11.5906C0.780273 11.3906 0.880273 11.1906 1.08027 10.9906L5.68027 6.69063Z" fill="#168B9A"/>
</g>
</g>
<defs>
<clipPath id="clip0_2430_4704">
<rect width="8" height="12" fill="white" transform="translate(0.780273 0.890625)"/>
</clipPath>
<clipPath id="clip1_2430_4704">
<rect width="7" height="12" fill="white" transform="translate(0.780273 0.890625)"/>
</clipPath>
</defs>
</svg>
