<?xml version="1.0" encoding="UTF-8"?>
<svg id="_Ñëîé_1" data-name="Ñëîé 1" xmlns="http://www.w3.org/2000/svg" viewBox="0 0 2501.4 1941.6">
  <defs>
    <style>
      .cls-1 {
        fill: #c07255;
      }

      .cls-1, .cls-2, .cls-3, .cls-4, .cls-5, .cls-6, .cls-7, .cls-8, .cls-9, .cls-10, .cls-11, .cls-12, .cls-13, .cls-14, .cls-15, .cls-16, .cls-17, .cls-18, .cls-19, .cls-20, .cls-21, .cls-22, .cls-23, .cls-24, .cls-25, .cls-26, .cls-27, .cls-28, .cls-29, .cls-30, .cls-31, .cls-32, .cls-33, .cls-34, .cls-35, .cls-36, .cls-37, .cls-38 {
        stroke-width: 0px;
      }

      .cls-2 {
        fill: #b5573b;
      }

      .cls-3 {
        fill: #ffedc7;
      }

      .cls-4 {
        fill: #2e302f;
      }

      .cls-5 {
        fill: #0c87b3;
      }

      .cls-6 {
        fill: #cc7459;
      }

      .cls-7 {
        fill: #fede8c;
      }

      .cls-8 {
        fill: #e5e5e5;
      }

      .cls-9 {
        fill: #76d8d4;
      }

      .cls-10 {
        fill: #ec321e;
      }

      .cls-11 {
        fill: #612d0a;
      }

      .cls-12 {
        fill: #f0f0f0;
      }

      .cls-13 {
        fill: #96a128;
      }

      .cls-14 {
        fill: #54493f;
      }

      .cls-15 {
        fill: #bbefec;
      }

      .cls-16 {
        fill: #424443;
      }

      .cls-17 {
        fill: #fcb6c8;
      }

      .cls-18 {
        fill: #fe87a0;
      }

      .cls-19 {
        fill: #fee4ad;
      }

      .cls-20 {
        fill: #fd8821;
      }

      .cls-21 {
        fill: #b292ca;
      }

      .cls-22 {
        fill: #74c9c2;
      }

      .cls-23 {
        fill: #fcce3a;
      }

      .cls-24 {
        fill: #fff;
      }

      .cls-25 {
        fill: #f86856;
      }

      .cls-26 {
        fill: #232625;
      }

      .cls-27 {
        fill: #fecd3d;
      }

      .cls-28 {
        fill: #ba0f03;
      }

      .cls-29 {
        fill: #8a66aa;
      }

      .cls-30 {
        fill: #a60b00;
      }

      .cls-31 {
        fill: #471200;
      }

      .cls-32 {
        fill: #b6bf40;
      }

      .cls-33 {
        fill: #0071a1;
      }

      .cls-34 {
        fill: #5ebab3;
      }

      .cls-35 {
        fill: #fd9724;
      }

      .cls-36 {
        fill: #f3936c;
      }

      .cls-37 {
        fill: #f08d78;
      }

      .cls-38 {
        fill: #f8b396;
      }
    </style>
  </defs>
  <g>
    <g>
      <path class="cls-12" d="M983.5,1146.3c-23.3-.3-46.5-1.2-68.8-2.6l.7-10.4c22.2,1.5,45.1,2.4,68.2,2.6v10.4ZM1052.3,1145.3l-.4-10.4c22.4-.9,45.3-2.3,68.2-4.2l.9,10.4c-23.1,1.9-46.2,3.4-68.7,4.2ZM846.1,1136.9c-23.4-3.1-46.2-6.9-68-11.4l2.1-10.2c21.5,4.5,44.2,8.3,67.3,11.3l-1.4,10.4ZM1189.4,1133.9l-1.3-10.4c22.3-2.8,45.1-6.1,67.7-9.9l1.7,10.3c-22.7,3.8-45.6,7.1-68.1,10ZM1325.1,1111.4l-2.1-10.2c22.1-4.5,44.5-9.5,66.8-14.9l2.5,10.1c-22.3,5.4-44.9,10.5-67.1,15ZM711.1,1108.6c-22.8-6.9-44.7-14.8-65-23.5l4.1-9.6c19.9,8.6,41.4,16.3,63.9,23.1l-3,10ZM1458.8,1079l-2.8-10.1c21.8-6.1,43.9-12.7,65.6-19.5l3.1,10c-21.9,6.9-44,13.5-65.9,19.6ZM584.5,1053.5c-20.6-12.6-39.4-26.5-55.8-41.3l7-7.7c15.9,14.4,34.2,27.9,54.2,40.2l-5.4,8.9ZM1589.9,1037.5l-3.5-9.8c21.5-7.6,43.1-15.6,64.1-23.9l3.8,9.7c-21.2,8.3-42.9,16.4-64.5,24ZM1718,987.4l-4.1-9.6c21-9.1,42-18.6,62.3-28.3l4.5,9.4c-20.5,9.7-41.5,19.3-62.6,28.4ZM482.7,959.9c-13.3-19.5-23.8-40.5-31.1-62.4l9.9-3.3c7.1,21,17.1,41.1,29.8,59.8l-8.6,5.9ZM1842.2,928.3l-4.8-9.3c20.3-10.6,40.5-21.7,60-32.8l5.2,9.1c-19.6,11.2-39.9,22.3-60.4,33ZM1961.6,859.8l-5.6-8.8c19.5-12.3,38.7-25,57-37.7l6,8.6c-18.5,12.8-37.8,25.6-57.4,38ZM438.7,828.9c-.2-4.4-.3-9-.3-13.5,0-18.2,1.8-37,5.4-55.9l10.3,2c-3.5,18.3-5.3,36.4-5.3,54s.1,8.7.3,12.9l-10.4.5ZM2074.5,781.1l-6.4-8.3c18.3-14.1,36.1-28.7,52.9-43.2l6.8,7.9c-16.9,14.6-34.9,29.3-53.4,43.5ZM473.1,696.7l-9.7-3.8c8.1-20.5,18.2-41.5,30.1-62.3l9.1,5.2c-11.7,20.4-21.6,41-29.5,61ZM2178.6,690.9l-7.3-7.4c16.6-16.3,32.4-33,46.9-49.5l7.8,6.9c-14.7,16.7-30.6,33.6-47.4,50.1ZM2269.3,587l-8.4-6.2c13.8-19,26.3-38.1,37.1-56.9l9.1,5.2c-11,19.2-23.6,38.7-37.7,57.9ZM539.7,578.8l-8.4-6.2c13.1-17.9,27.6-36,43.2-53.8l7.8,6.9c-15.4,17.6-29.8,35.4-42.6,53.1ZM629.2,476.2l-7.3-7.4c15.9-15.7,33-31.4,50.7-46.7l6.8,7.9c-17.5,15.2-34.4,30.7-50.2,46.2ZM2337.2,466.8l-9.7-3.8c8.6-21.8,15-43.6,19.1-64.7l10.3,2c-4.2,21.7-10.8,44.1-19.6,66.6ZM732.3,386.7l-6.4-8.3c17.8-13.7,36.5-27.4,55.5-40.7l6,8.6c-18.9,13.2-37.5,26.7-55.1,40.4ZM2351.6,331.3c-1.1-22.6-5.2-44.8-12.3-65.8l9.7-3.9v.3c7.5,22.2,11.8,45.3,13,68.9l-10.4.5ZM844.5,308.6l-5.6-8.8c19.1-12,38.9-24,59-35.5l5.2,9.1c-19.9,11.4-39.6,23.3-58.6,35.2ZM963.1,240.5l-4.8-9.3c20.1-10.5,40.8-20.8,61.6-30.7l4.5,9.4c-20.7,9.8-41.3,20.1-61.2,30.5ZM2309.2,205.2c-12.2-17.9-27.1-34.8-44.4-50.4l7-7.8c17.9,16.1,33.4,33.7,46,52.2l-8.6,5.9ZM1086.6,181.8l-4.1-9.6c20.8-9,42.2-17.8,63.6-26.2l3.8,9.7c-21.2,8.3-42.5,17.1-63.3,26.1ZM1214,131.8l-3.5-9.8c10.9-3.9,22-7.7,32.9-11.3,10.7-3.6,21.5-7.1,32.3-10.5l3.1,10c-10.7,3.4-21.5,6.9-32.1,10.5-10.9,3.6-21.9,7.4-32.8,11.3ZM2210.5,114.7c-18.4-11.2-38.7-21.6-60.3-30.9l4.1-9.6c22.1,9.5,42.8,20.1,61.7,31.5l-5.4,8.9ZM1344.4,90.5l-2.8-10.1c22.1-6.2,44.5-12,66.5-17.4l2.5,10.1c-21.9,5.3-44.2,11.1-66.2,17.3ZM2086.3,60.7c-20.9-6.3-43.1-11.9-66-16.7l2.1-10.2c23.2,4.8,45.7,10.5,66.9,16.9l-3,10ZM1477.4,58.3l-2.1-10.2c22.5-4.6,45.3-8.8,67.6-12.6l1.7,10.3c-22.2,3.7-44.9,7.9-67.2,12.5ZM1612.3,35.9l-1.3-10.4c22.9-2.9,46-5.3,68.4-7.2l.9,10.4c-22.3,1.9-45.2,4.3-68,7.2ZM1953,32.8c-21.9-2.9-44.8-5.1-67.9-6.6l.7-10.4c23.4,1.6,46.5,3.8,68.6,6.7l-1.4,10.4ZM1748.5,24.5l-.4-10.4c18.2-.7,36.3-1.1,54-1.1h.2c4.9,0,9.8,0,14.6,0v10.4c-5,0-9.9-.1-14.8,0-17.6,0-35.6.4-53.6,1Z"/>
      <path class="cls-12" d="M1539.8,1643.1h0c-7.3,0-14.6,0-21.9-.1v-10.4c7.4.1,14.7,0,22,.1,22.2,0,44.5-.5,66.4-1.4l.5,10.4c-22,1-44.5,1.4-66.8,1.4ZM1429.1,1639.3c-29.2-2-58.9-4.8-88.4-8.3l1.2-10.4c29.3,3.5,58.9,6.3,87.9,8.2l-.7,10.4ZM1695.2,1635l-1.1-10.4c29.6-3.1,59-7.3,87.3-12.3l1.8,10.3c-28.6,5-58.2,9.2-88,12.4ZM1252.9,1618.3c-28.9-4.9-58.2-10.6-87.1-16.9l2.2-10.2c28.8,6.3,57.9,11.9,86.6,16.8l-1.7,10.3ZM1870.2,1603.9l-2.6-10.1c29-7.4,57.3-16,84.3-25.5l3.5,9.8c-27.2,9.6-55.9,18.3-85.1,25.8ZM1079.5,1580.6c-14.3-3.8-28.9-7.9-43.2-12.1-14.1-4.1-28.2-8.4-42-12.8l3.1-10c13.7,4.3,27.8,8.6,41.8,12.7,14.3,4.2,28.7,8.2,43,12l-2.7,10.1ZM2037.7,1544.5l-4.5-9.4c27.2-12.8,53.1-27,77.1-42l5.6,8.8c-24.3,15.3-50.6,29.6-78.2,42.6ZM910.3,1527.1c-27.8-10.2-55.6-21.2-82.6-32.6l4.1-9.6c26.9,11.3,54.5,22.2,82.1,32.4l-3.6,9.8ZM746.7,1458c-26.8-12.9-53.4-26.5-79-40.5l5-9.2c25.5,13.9,51.9,27.4,78.6,40.2l-4.5,9.4ZM2187.9,1449.2l-6.8-7.9c22.8-19.4,43.5-40.3,61.6-62.1l8,6.7c-18.5,22.3-39.6,43.6-62.9,63.4ZM590.9,1373c-25.4-15.7-50.4-32.1-74.2-48.8l6-8.6c23.7,16.6,48.5,32.9,73.7,48.5l-5.5,8.9ZM2300.9,1311.9l-9.2-5c13.9-25.7,25-52.8,33.1-80.6l.4-1.3,10,2.9-.4,1.4c-8.3,28.5-19.7,56.3-34,82.7ZM445.4,1271c-23.5-18.7-46.2-38.1-67.6-57.7l7-7.7c21.2,19.4,43.8,38.7,67.1,57.2l-6.5,8.2ZM314.5,1150.9c-20.7-22.1-40.2-44.8-58-67.4l8.2-6.4c17.6,22.4,36.9,44.9,57.4,66.7l-7.6,7.1ZM2350.8,1139.7l-10.4-.7c.7-9.7,1-19.5,1-29.3,0-19-1.3-38.5-3.8-58l10.4-1.3c2.6,19.8,3.9,39.8,3.9,59.3,0,10-.3,20.1-1,30ZM205,1010.8c-16.3-25.8-30.8-52-43.1-77.9l9.4-4.5c12.2,25.6,26.5,51.4,42.5,76.8l-8.8,5.6ZM2318.7,966.3c-8.4-27-19.2-54.5-32.1-81.6l9.4-4.5c13.1,27.6,24.1,55.5,32.6,83l-10,3.1ZM129.4,849.8c-9-29.2-15.4-58.5-19.1-87.2l10.4-1.3c3.6,28.1,9.9,56.8,18.7,85.4l-10,3.1ZM2244.1,807.9c-15.2-24-32.3-48.1-50.9-71.7l8.2-6.5c18.8,23.9,36.1,48.3,51.5,72.6l-8.8,5.6ZM118,674.1l-10.4-.7c2.1-29.9,7.4-59.5,15.6-88.1l10,2.9c-8.1,27.9-13.2,56.8-15.3,85.9ZM2135.7,669.5c-19.6-20.9-40.7-41.7-62.8-61.8l7-7.7c22.2,20.3,43.5,41.3,63.3,62.4l-7.6,7.1ZM2005.8,550.5c-22.6-18-46.4-35.7-70.7-52.7l6-8.6c24.5,17.1,48.5,35,71.2,53.1l-6.5,8.2ZM166.3,507.5l-9.2-4.9c13.9-25.8,30.7-50.7,50-74l8,6.7c-18.9,22.8-35.3,47.2-48.9,72.3ZM1861.4,449.3c-24.7-15.2-50.4-30.1-76.3-44.3l5-9.2c26.1,14.2,52,29.2,76.8,44.5l-5.5,8.9ZM276.6,373l-6.8-7.9c21.9-18.7,46.1-36.4,71.9-52.7l5.6,8.8c-25.4,16-49.2,33.5-70.7,51.8ZM1706.4,364.9c-26.2-12.6-53.3-24.8-80.5-36.3l4.1-9.6c27.3,11.5,54.6,23.8,81,36.5l-4.5,9.4ZM1543.8,296.3c-27.4-10.1-55.5-19.6-83.6-28.5l3.1-10c28.2,8.9,56.5,18.5,84,28.6l-3.6,9.8ZM424.4,279l-4.5-9.4c26-12.3,53.7-23.7,82.4-33.8l3.5,9.8c-28.3,10-55.7,21.2-81.4,33.4ZM1375.4,243.1c-28.4-7.6-57.3-14.6-85.8-20.8l2.2-10.2c28.7,6.2,57.7,13.3,86.2,20.9l-2.7,10.1ZM590.1,220.1l-2.6-10.1c28-7.2,57.3-13.5,86.9-18.8l1.8,10.3c-29.4,5.2-58.4,11.5-86.1,18.6ZM1203,205.6c-29.1-4.9-58.4-9.1-87.3-12.6l1.2-10.4c29.1,3.5,58.6,7.7,87.9,12.6l-1.7,10.3ZM763.5,189.2l-1.1-10.4c28.9-3.1,58.7-5.3,88.6-6.6l.5,10.4c-29.7,1.3-59.3,3.5-88,6.6ZM1027.8,184.8c-29.5-2-59.2-3.2-88.2-3.6v-10.4c29.3.4,59.2,1.6,88.9,3.6l-.7,10.4Z"/>
    </g>
    <path class="cls-12" d="M639.4,1152.1c-433.7,97.4-391.6,204.4-431.6,286.8-40.1,82.4-172.9,214.6,80.2,311.3,253,96.7,371.3-66.1,480-21,108.7,45.1-39.7,129.7,127.2,196.4,166.9,66.7,354.8-96.2,466.3-96.2s632.3,105.2,814.1,0c181.7-105.2,80.9-260.3,130.1-325.6,49.2-65.2,156.9-79.9,131.8-205.3-25.1-125.5-464.8-181.8-965.2-205-500.4-23.2-790.8,49.1-832.8,58.6Z"/>
    <circle class="cls-8" cx="1985.5" cy="118.8" r="49.7" transform="translate(1413.7 2023.9) rotate(-76.7)"/>
    <circle class="cls-8" cx="2127.9" cy="352.6" r="21.2"/>
    <circle class="cls-8" cx="2415.4" cy="480.6" r="35.5"/>
    <circle class="cls-8" cx="1061.2" cy="35.5" r="35.5"/>
    <circle class="cls-8" cx="1134.5" cy="305.3" r="14.8"/>
    <circle class="cls-8" cx="37.5" cy="919.9" r="14.8"/>
    <circle class="cls-8" cx="209.6" cy="685.9" r="14.8"/>
    <circle class="cls-8" cx="194.8" cy="352.6" r="14.8"/>
    <circle class="cls-8" cx="426.9" cy="114.7" r="14.8"/>
    <circle class="cls-8" cx="2181.1" cy="1098.8" r="14.8"/>
    <g>
      <path class="cls-8" d="M2387.7,1217.2l-32.8-124.2-116.9-53.1,263.4-70.5-113.6,247.8ZM2273.5,1042.9l91.6,41.6,25.7,97.3,89-194.1-206.3,55.3Z"/>
      <rect class="cls-8" x="2339.9" y="1027.6" width="170.9" height="12" transform="translate(-94.5 1809.1) rotate(-40.2)"/>
    </g>
    <g>
      <circle class="cls-8" cx="1489.9" cy="95.9" r="27.9"/>
      <circle class="cls-8" cx="1612.3" cy="169.1" r="27.9" transform="translate(58 629.9) rotate(-22.5)"/>
      <circle class="cls-8" cx="1731.9" cy="118.8" r="27.9"/>
      <circle class="cls-8" cx="1818.9" cy="245.7" r="27.9" transform="translate(44.4 714.8) rotate(-22.5)"/>
      <polygon class="cls-8" points="1813.9 249.1 1729.7 126.2 1608.7 175.8 1486.7 101 1493 90.8 1609.8 162.3 1734.1 111.4 1823.8 242.3 1813.9 249.1"/>
    </g>
    <g>
      <path class="cls-8" d="M72.7,1207.1L0,1034.6l251.1-105.9,72.7,172.5-251.1,105.9ZM15.7,1041l63.4,150.3,229-96.5-63.4-150.3-229,96.5Z"/>
      <polygon class="cls-8" points="176.2 1101.7 5.9 1043.5 9.8 1032.1 169.9 1086.9 242.5 934 253.3 939.1 176.2 1101.7"/>
    </g>
    <g>
      <path class="cls-8" d="M685.3,151.6c0,2.5-.9,4.5-2.6,6.1-1.7,1.6-3.8,2.4-6.1,2.4s-2.8-.4-3.9-1.1l-85.1-51.2c-3.1-1.8-4.6-4.3-4.6-7.7s1.5-5.3,4.6-7.7l85.1-51.2c1.5-.7,2.9-1.1,4.4-1.1,2.3,0,4.3.7,5.9,2.2,1.6,1.5,2.4,3.4,2.4,5.7,0,3.4-1.4,5.9-4.2,7.7l-74.1,44.2,74.1,44.2c2.8,1.9,4.2,4.4,4.2,7.4Z"/>
      <path class="cls-8" d="M775.1,7.3c1.4-.9,3-1.3,4.7-1.3,2.5,0,4.5.8,6,2.5s2.3,3.7,2.3,6-.2,2.3-.7,3.5l-68.7,171.5c-1.2,3.2-3.8,4.8-7.9,4.8s-4.3-.8-5.9-2.4c-1.6-1.6-2.4-3.6-2.4-5.9s.2-2.4.7-3.7L771.9,11c.7-1.6,1.8-2.8,3.2-3.7Z"/>
      <path class="cls-8" d="M907.5,100.2c0,3.4-1.5,5.9-4.6,7.7l-85.1,51.2c-1,.7-2.3,1.1-3.9,1.1-2.3,0-4.4-.8-6.1-2.4-1.8-1.6-2.6-3.6-2.6-6.1s1.4-5.5,4.2-7.4l74.1-44.2-74.1-44.2c-2.8-1.8-4.2-4.3-4.2-7.7s.8-4.2,2.4-5.7c1.6-1.5,3.6-2.2,5.9-2.2s2.9.4,4.4,1.1l85.1,51.2c3.1,2.3,4.6,4.9,4.6,7.7Z"/>
    </g>
  </g>
  <g>
    <path class="cls-7" d="M2415.4,848.4c-65.4,73.9-265.3,130.2-406.3,254.1-141.1,123.8-196.2,255-258,276.7s-180.2-23.9-271.2-165.5c-91-141.6-69.8-183.2-56.7-200.4,13-17.3,152-89.8,324.6-231.1,172.6-141.3,398.7-325.6,398.7-325.6l269,391.9Z"/>
    <path class="cls-3" d="M2183.6,719.2c-18.8-27.3-33.8-55.1-45-82.3-33.3-80.2-32.5-152.9,7.7-180.4,118.6-57.9,207,167.6,207,167.6,0,0,22.7-3.2,38.1-17.9,0,0,0,0,0-.2,62.8,102.3,74.3,207.8,24,242.4-37.3,25.6-98.6,5.6-157.6-45.3-26-22.4-51.4-50.8-74.2-83.9Z"/>
    <path class="cls-24" d="M2183.6,719.2c-18.8-27.3-33.8-55.1-45-82.3,29.1-25.6,105.5-68.2,105.5-68.2,0,0-21.3,50.6,13.1,111.2,34.3,60.6,81.5,57.2,99.4,31.5,18-26,4.7-67.2-1-82,18.7,44.8,24,77.9,8.3,98.7-11.2,14.9-70.3,52.7-106.2,75-26-22.4-51.4-50.8-74.2-83.9Z"/>
    <g>
      <path class="cls-10" d="M1750.1,770.9c1.4-1,3.2-1.4,5-1.2,3.9.5,6.6,4.1,6.1,8-4.5,32.6,39.2,138.1,108.7,216.9,35.8,40.6,91.6,88.9,153.7,88.3,3.9,0,7.2,3.1,7.2,7,0,3.9-3.1,7.2-7,7.2-67.6.7-126.8-50.2-164.6-93.1-69.9-79.3-117.6-187.8-112.1-228.3.3-2.1,1.4-3.8,3-4.9Z"/>
      <path class="cls-10" d="M1992.6,853.7c24.3-16.7,48.5-27.9,69.5-27.9,16.3,0,29.8,6.4,40.1,19.2,13.8,17.1,15.5,37.2,4.8,58.1-26.5,51.7-134.7,105.3-239.8,99.6-4-.2-7.6-2.6-9.2-6.3-1.6-3.7-1.1-7.9,1.4-11.1h0c20.9-26.1,77.4-93.2,133.2-131.5ZM2053.7,938.4c19.1-13.1,33.3-27.5,40.6-41.8,8-15.7,7-30-3.2-42.6-7.5-9.4-17-13.9-28.9-13.9-61.1,0-158.9,114-187.2,148.7,67.7,2,135.5-20.7,178.7-50.3Z"/>
      <path class="cls-10" d="M1859.9,789.7c11.9-8.2,27-9.7,39.2-7.9,18.5,2.8,32.5,12.9,36.4,26.4,11,37.9-27.4,112.3-50.3,156.8-4.1,8-7.6,14.8-10.1,19.9-1.9,3.9-6,6.2-10.3,5.6-4.3-.6-7.7-3.8-8.5-8.1h0c-19-100.9-21.5-160.3-7.6-181.3,3.1-4.8,7-8.5,11.2-11.4ZM1868,967.3c1.4-2.8,2.9-5.7,4.6-8.9,20.5-39.8,58.7-113.8,49.3-146.3-2.3-7.8-12.3-14.4-24.9-16.3-12.2-1.9-28.2.6-36.4,13.1-6.3,9.6-13.5,42.9,7.4,158.4Z"/>
      <path class="cls-10" d="M1690.2,947.7c.9-.6,2-1.1,3.2-1.2,3.9-.4,7.4,2.4,7.9,6.3,2,17.8,9.3,30.5,22.5,38.8,43.5,27.4,133.1-3.6,134-3.9l15.7-5.5-6.9,15.2c-6.2,13.8-62.6,134.1-120.2,118.9-11-2.9-19-9.1-23.8-18.5-11.8-23,1.1-57,1.6-58.5,1.4-3.7,5.5-5.5,9.2-4.1,3.7,1.4,5.5,5.5,4.1,9.2-3.1,8.2-9.6,32.5-2.2,46.9,2.9,5.7,7.7,9.3,14.7,11.2,34.3,9.1,76.3-57,96.5-96.5-29.5,8.1-92.7,21.3-130.4-2.4-16.9-10.6-26.7-27.2-29.1-49.3-.3-2.7,1-5.2,3.1-6.7Z"/>
    </g>
  </g>
  <g>
    <path class="cls-15" d="M384.6,591.4c80.1,58.6,97.4,171.1,38.8,251.1-58.6,80.1-171.1,97.5-251.2,38.9-62.6-45.9-86.9-124.7-66.4-195.2l117.7,86.2,81.1-16.8-8.5-82.4-117.7-86.2c61-40.8,143.4-41.5,206.1,4.4Z"/>
    <path class="cls-15" d="M900.5,1414.6c-80.1-58.6-97.4-171.1-38.8-251.1,58.6-80.1,171.1-97.5,251.2-38.9,62.6,45.9,86.9,124.7,66.4,195.2l-117.7-86.2-81.1,16.8,8.5,82.4,117.7,86.2c-61,40.8-143.4,41.5-206.1-4.4Z"/>
    <rect class="cls-15" x="600.5" y="679.8" width="152.6" height="696.7" transform="translate(-552.5 966.8) rotate(-53.8)"/>
  </g>
  <g>
    <path class="cls-29" d="M681.3,494.8c-51.5,80.8-174.9,123.3-197.5,121.9-22.6-1.3-44.1-146,1.6-167.5,45.6-21.5,195.9,45.6,195.9,45.6Z"/>
    <path class="cls-29" d="M758.2,385.6c-1.1,5.8-48.7,40.6-71.8,57.1-.1.1-.3.2-.4.3-7.2,5.2-11.9,8.5-11.9,8.5l-43.1,33.9-100.3-18.8c-.9.5-1.7,1-2.5,1.5-6.6,4-12.9,8.2-18.9,12.5l-19.1,102c-4.8-1.1-10.8-2.5-17.5-4.2-11.3-2.7-24.8-6.1-39.1-9.8-3.8-1-7.6-2-11.5-3-52.8-14-111-31.6-106-40.5,56.1-100.3,197.3-230,218.6-227.6,39.5,4.4,224.9,80.4,223.5,88Z"/>
    <path class="cls-21" d="M690.8,453.3h0s-56.7,32.6-56.7,32.6l-103.3-19.3c-.9.5-1.7,1-2.5,1.5-6.6,4-12.9,8.2-18.9,12.5l-16.1,86.1-20.5,11.7-37,21.2c-1-2.1-2-4.4-3-6.9,0,0,0,0,0-.1-3.4-7.8-7.1-17.2-10.5-27.1-8.8-24.9-16.4-53.7-14.9-72.1,5.2-63.1,175.5-151.6,218.3-115.3,38.7,32.7,54.4,53.3,60.9,64.5,4.2,7.3,4.4,10.6,4.4,10.6Z"/>
    <path class="cls-29" d="M433.6,568.7c7.9-26.7,35.7-59.7,75.7-88.1l-25.5,136.1c-22.8,1.3-40.3-4.2-48.2-17-1.3-2.1-2.3-4.4-3-6.9,0,0,0,0,0-.1-2.1-7.1-1.6-15.2,1-24.1Z"/>
    <path class="cls-29" d="M681.3,494.8l-150.6-28.2c67-40.4,135.1-50.6,155.2-23.6.5.7,1,1.4,1.4,2.1,1.6,2.5,2.7,5.3,3.4,8.3,2.9,11.5-.7,25.9-9.5,41.4Z"/>
    <g>
      <path class="cls-23" d="M393.1,557.9v99h7.4v-97c-2.5-.6-4.9-1.4-7.4-2Z"/>
      <g>
        <path class="cls-23" d="M424,781.4s-8.7,4-21.6,4-21.4-1.9-21.4-1.9l4.3-65.7-10.2,64.4-8.9-4,19.5-102.8c.3-6.2-4.8-27.2,10.9-27.9,16.6-.8,11,28.2,11,28.2l16.4,105.6Z"/>
        <path class="cls-35" d="M407.7,675.8c-2.3,1.9-17.9,2.4-22-.3.3-6.2-4.8-27.2,10.9-27.9,16.6-.8,11,28.2,11,28.2Z"/>
      </g>
    </g>
  </g>
  <g>
    <path class="cls-33" d="M282.4,1486.2s15.3,51,38.3,61.3c23,10.2,1825,28.1,1842.8,15.3,17.9-12.8,33.2-56.2,33.2-56.2,0,0-791.2-63.8-1082.2-74-291-10.2-832.1,53.6-832.1,53.6Z"/>
    <path class="cls-5" d="M581,1274.3c-153.1,89.3-313.9,183.8-298.6,211.8,15.3,28.1,1896.4,48.5,1914.3,20.4,17.9-28.1-288.4-232.3-288.4-232.3l-614.4-12.8-712.9,12.8Z"/>
    <path class="cls-33" d="M581,1274.3s-104.6-763.2-71.5-793.8c33.2-30.6,1444.7-17.9,1477.8,25.5,33.2,43.4-79.1,768.3-79.1,768.3H581Z"/>
    <path class="cls-15" d="M1900.8,621.8c0,2.5,0,5.1-.1,7.7,0,1.3-.1,2.5-.1,3.8-.9,25.6-3.3,57.5-6.6,93.2-.3,3.3-.6,6.5-1,9.9-9.6,100.2-26.4,227.5-40.6,329.1-.5,3.4-.9,6.6-1.4,9.9-13.5,95.3-24.4,165.7-24.4,165.7H669.4s-9.6-70.1-21.7-165.7c-.4-3.3-.8-6.6-1.2-9.9-.3-2.9-.8-5.8-1.1-8.7-12-97-25.9-215.8-34.8-314.2-.3-3.3-.6-6.6-.9-9.9-3.3-37.1-5.8-71-7.2-99.3,0-1.3-.1-2.6-.1-3.8-.6-14.1-1-26.7-1-37.6,0-24.1,1.7-39.5,5.6-43.2,4.2-3.8,32.5-6.8,78.2-9.1,16.1-.8,34.3-1.5,54.5-2.1,3.2-.1,6.5-.2,9.8-.3,15.7-.4,32.3-.8,49.9-1.2,67.5-1.4,148.2-2,234.8-1.9,3.3,0,6.6,0,9.8,0,25.6,0,51.6.2,77.9.3,94.5.6,192.8,2,286.4,4,3.3.1,6.6.2,9.8.3,61.6,1.5,120.9,3.1,175.6,5.1,22,.9,43.2,1.6,63.5,2.6,26,1.1,50.5,2.4,73.3,3.7,3.4.2,6.6.4,9.8.6,1.2.1,2.4.2,3.6.3,40.3,2.5,74.2,5.2,99.7,8.2,30.2,3.6,48.6,7.5,51.9,11.8,2.8,3.7,4.5,13.2,5.1,27.1.2,6.8.3,14.7.1,23.6Z"/>
    <g>
      <polygon class="cls-34" points="638.5 1340 738.3 1340 715.4 1386 589.6 1384.2 638.5 1340"/>
      <polygon class="cls-34" points="775.5 1340 896.4 1340 886.6 1388.3 763.1 1386.6 775.5 1340"/>
      <polygon class="cls-34" points="929 1340 1046.1 1340 1043 1390.5 927.2 1388.9 929 1340"/>
      <polygon class="cls-34" points="1079.6 1340 1194.9 1340 1194.9 1392.6 1083.1 1391 1079.6 1340"/>
      <polygon class="cls-34" points="1352.8 1340 1368.9 1395 1227.6 1393 1218.9 1340 1352.8 1340"/>
      <polygon class="cls-34" points="1522 1340 1547.8 1397.5 1410.5 1395.5 1389.6 1340 1522 1340"/>
      <polygon class="cls-34" points="1697.7 1340 1735.5 1400.1 1585.5 1398 1551.7 1340 1697.7 1340"/>
      <polygon class="cls-34" points="1913.9 1402.5 1773.5 1400.6 1773.4 1400.6 1724.2 1340 1852.1 1340 1913.9 1402.5"/>
    </g>
    <path class="cls-34" d="M1724.2,1324.7v15.2s21.4,11.3,21.1.7c-.3-10.5-21.1-16-21.1-16Z"/>
    <path class="cls-34" d="M1913.9,1387.3v15.2s-28-10.2-23.5-17.7c4.5-7.4,23.5,2.4,23.5,2.4Z"/>
    <path class="cls-34" d="M1551.7,1324.7v15.2s24.2,12.5,22.3,2c-1.9-10.5-22.3-17.2-22.3-17.2Z"/>
    <path class="cls-34" d="M1735.5,1384.8v15.2s-28.2-9.6-23.1-18.2c5.1-8.6,23.1,3,23.1,3Z"/>
    <path class="cls-34" d="M1389.6,1324.7v15.2s10.7,13.8,15.2,3.6c4.5-10.2-15.2-18.8-15.2-18.8Z"/>
    <path class="cls-34" d="M1547.8,1382.2v15.2s-21.1-18.3-18.2-23.8,18.2,8.6,18.2,8.6Z"/>
    <path class="cls-34" d="M1218.9,1324.7v15.2s6,15.4,10.1,3.9c4.1-11.5-10.1-19.1-10.1-19.1Z"/>
    <path class="cls-34" d="M1368.9,1379.7v15.2s-17.7-7-16.4-17.2,16.4,2,16.4,2Z"/>
    <path class="cls-34" d="M1079.6,1324.7v15.2s10,11.3,11,.7c1-10.5-11-16-11-16Z"/>
    <path class="cls-34" d="M1046.1,1324.7v15.2s-10.7,11.3-12,3.3c-1.3-8,12-18.5,12-18.5Z"/>
    <path class="cls-34" d="M927.2,1373.7v15.2s13.8-8.9,11.5-15.8c-2.2-6.9-11.5.6-11.5.6Z"/>
    <path class="cls-34" d="M763.1,1371.4v15.2s23.1-10.2,19.6-19.1c-3.5-8.9-19.6,3.9-19.6,3.9Z"/>
    <path class="cls-34" d="M896.4,1324.7v15.2s-6.8,11.6-10.6,3c-3.8-8.6,10.6-18.2,10.6-18.2Z"/>
    <path class="cls-34" d="M589.6,1369v15.2s27.9-10.7,27.2-20.1c-.6-9.4-27.2,4.9-27.2,4.9Z"/>
    <path class="cls-34" d="M738.3,1324.7v15.2s-14.7,15.4-20.4,5.5c-5.7-9.9,20.4-20.7,20.4-20.7Z"/>
    <polygon class="cls-22" points="638.5 1324.7 738.3 1324.7 715.4 1370.7 589.6 1369 638.5 1324.7"/>
    <polygon class="cls-22" points="775.5 1324.7 896.4 1324.7 886.6 1373.1 763.1 1371.4 775.5 1324.7"/>
    <polygon class="cls-22" points="929 1324.7 1046.1 1324.7 1043 1375.3 927.2 1373.7 929 1324.7"/>
    <polygon class="cls-22" points="1079.6 1324.7 1194.9 1324.7 1194.9 1377.3 1083.1 1375.8 1079.6 1324.7"/>
    <polygon class="cls-22" points="1352.8 1324.7 1368.9 1379.7 1227.6 1377.8 1218.9 1324.7 1352.8 1324.7"/>
    <polygon class="cls-22" points="1522 1324.7 1547.8 1382.2 1410.5 1380.3 1389.6 1324.7 1522 1324.7"/>
    <polygon class="cls-22" points="1697.7 1324.7 1735.5 1384.8 1585.5 1382.8 1551.7 1324.7 1697.7 1324.7"/>
    <polygon class="cls-22" points="1913.9 1387.3 1773.5 1385.4 1773.4 1385.4 1724.2 1324.7 1852.1 1324.7 1913.9 1387.3"/>
    <g>
      <polygon class="cls-34" points="557.9 1413.2 700.3 1416.6 675.2 1466.9 503.1 1462.8 557.9 1413.2"/>
      <polygon class="cls-34" points="754.9 1417.8 880.2 1420.8 869.9 1471.6 741.4 1468.5 754.9 1417.8"/>
      <polygon class="cls-34" points="925.9 1421.9 1040.9 1424.6 1037.8 1475.7 924 1472.9 925.9 1421.9"/>
      <polygon class="cls-34" points="1085.4 1425.7 1194.9 1428.3 1194.9 1479.5 1088.9 1476.9 1085.4 1425.7"/>
      <polygon class="cls-34" points="1379.8 1432.7 1394.8 1484.3 1241.8 1480.6 1233.5 1429.2 1379.8 1432.7"/>
      <polygon class="cls-34" points="1565.6 1437.1 1588.9 1489 1444.2 1485.5 1444.2 1485.5 1424.8 1433.7 1565.6 1437.1"/>
      <polygon class="cls-34" points="1761.5 1441.8 1794.4 1493.9 1639 1490.2 1608.7 1438.1 1761.5 1441.8"/>
      <polygon class="cls-34" points="2009.1 1499.1 1850.3 1495.3 1807.6 1442.8 1957 1446.4 2009.1 1499.1"/>
    </g>
    <path class="cls-34" d="M1807.6,1427.3v15.5s20.1,7.8,20.6,1.1c.5-6.7-20.6-16.6-20.6-16.6Z"/>
    <path class="cls-34" d="M2009.1,1483.6v15.5s-21.1-6.8-23.9-17.6c-2.9-10.8,23.9,2.1,23.9,2.1Z"/>
    <path class="cls-34" d="M1608.7,1422.6v15.5s19,18.8,21.9,7.8c2.9-11-21.9-23.3-21.9-23.3Z"/>
    <path class="cls-34" d="M1794.4,1478.4v15.5s-29.8-7.9-26.5-20.3c3.4-12.4,26.5,4.8,26.5,4.8Z"/>
    <path class="cls-34" d="M1424.8,1418.2v15.5s10,24.6,16.7,12.1c6.7-12.5-16.7-27.6-16.7-27.6Z"/>
    <path class="cls-34" d="M1588.9,1473.5v15.5s-33.5-8.7-28.7-20.2c4.8-11.5,28.7,4.7,28.7,4.7Z"/>
    <path class="cls-34" d="M1233.5,1413.7v15.5s9.7,26.2,14.9,16.6c5.1-9.6-14.9-32.1-14.9-32.1Z"/>
    <path class="cls-34" d="M1394.8,1468.8v15.5s-21.7-13.7-18.4-20.3c3.4-6.6,18.4,4.8,18.4,4.8Z"/>
    <path class="cls-34" d="M741.4,1453v15.5s20.1-11,17.2-19.7c-2.9-8.7-17.2,4.2-17.2,4.2Z"/>
    <path class="cls-34" d="M880.2,1405.3v15.5s-3.8,17.4-10.5,10.7,10.5-26.2,10.5-26.2Z"/>
    <path class="cls-34" d="M700.3,1401.1v15.5s-17.3,14-22.5,8c-5.3-6,22.5-23.5,22.5-23.5Z"/>
    <path class="cls-34" d="M503.1,1462.8v-15.5s18.7-15.2,25.1-7.2c6.4,8-25.1,22.7-25.1,22.7Z"/>
    <path class="cls-34" d="M1085.4,1410.2v15.5s3.6,5.8,6.1,2c2.5-3.8-6.1-17.5-6.1-17.5Z"/>
    <path class="cls-34" d="M1040.9,1409.1v15.5s.5,5.9-4.9,1.7c-5.4-4.2,4.9-17.2,4.9-17.2Z"/>
    <g>
      <polygon class="cls-22" points="557.9 1397.7 700.3 1401.1 675.2 1451.4 503.1 1447.3 557.9 1397.7"/>
      <polygon class="cls-22" points="754.9 1402.3 880.2 1405.3 869.9 1456.1 741.4 1453 754.9 1402.3"/>
      <polygon class="cls-22" points="925.9 1406.4 1040.9 1409.1 1037.8 1460.2 924 1457.4 925.9 1406.4"/>
      <polygon class="cls-22" points="1085.4 1410.2 1194.9 1412.8 1194.9 1464 1088.9 1461.4 1085.4 1410.2"/>
      <polygon class="cls-22" points="1379.8 1417.2 1394.8 1468.8 1241.8 1465.1 1233.5 1413.7 1379.8 1417.2"/>
      <polygon class="cls-22" points="1565.6 1421.6 1588.9 1473.5 1444.2 1470 1444.2 1470 1424.8 1418.2 1565.6 1421.6"/>
      <polygon class="cls-22" points="1761.5 1426.3 1794.4 1478.4 1639 1474.7 1608.7 1422.6 1761.5 1426.3"/>
      <polygon class="cls-22" points="2009.1 1483.6 1850.3 1479.8 1807.6 1427.3 1957 1430.9 2009.1 1483.6"/>
    </g>
    <g>
      <circle class="cls-9" cx="1241.3" cy="869" r="225.5" transform="translate(-250.9 1132.3) rotate(-45)"/>
      <g>
        <path class="cls-5" d="M1181.4,920.5c0,2.5-.9,4.5-2.6,6.1-1.7,1.6-3.8,2.4-6.1,2.4s-2.8-.4-3.9-1.1l-85.1-51.2c-3.1-1.8-4.6-4.3-4.6-7.7s1.5-5.3,4.6-7.7l85.1-51.2c1.5-.7,2.9-1.1,4.4-1.1,2.3,0,4.3.7,5.9,2.2,1.6,1.5,2.4,3.4,2.4,5.7,0,3.4-1.4,5.9-4.2,7.7l-74.1,44.2,74.1,44.2c2.8,1.9,4.2,4.4,4.2,7.4Z"/>
        <path class="cls-5" d="M1271.2,776.2c1.4-.9,3-1.3,4.7-1.3,2.5,0,4.5.8,6,2.5,1.5,1.7,2.3,3.7,2.3,6s-.2,2.3-.7,3.5l-68.7,171.5c-1.2,3.2-3.8,4.8-7.9,4.8s-4.3-.8-5.9-2.4c-1.6-1.6-2.4-3.6-2.4-5.9s.2-2.4.7-3.7l68.7-171.2c.7-1.6,1.8-2.8,3.2-3.7Z"/>
        <path class="cls-5" d="M1403.6,869.1c0,3.4-1.5,5.9-4.6,7.7l-85.1,51.2c-1,.7-2.3,1.1-3.9,1.1-2.3,0-4.4-.8-6.1-2.4-1.8-1.6-2.6-3.6-2.6-6.1s1.4-5.5,4.2-7.4l74.1-44.2-74.1-44.2c-2.8-1.8-4.2-4.3-4.2-7.7s.8-4.2,2.4-5.7c1.6-1.5,3.6-2.2,5.9-2.2s2.9.4,4.4,1.1l85.1,51.2c3.1,2.3,4.6,4.9,4.6,7.7Z"/>
      </g>
    </g>
    <g>
      <circle class="cls-9" cx="1752.2" cy="801.5" r="200"/>
      <g>
        <path class="cls-5" d="M1710.2,770.6c-3.5,0-6.2-2.1-8-6.2-1.5-3.5-3-5.7-4.3-6.5-1.2-.6-4-.9-8.6-.9-8,0-16.9,6.1-26.7,18.4-13.3,16.5-19.9,32.1-19.9,46.9s2.3,13.3,6.9,18.4c4.7,5.3,10.4,8,17,8s11.4-1.5,17.2-4.4c3.2-1.7,8.1-4.9,14.8-9.8,3.2-2.3,5.5-3.5,7.1-3.5,2.4,0,4.4.9,6,2.7s2.4,3.8,2.4,6-1.1,4.7-3.2,6.6c-14.6,12.9-29.4,19.4-44.3,19.4s-21.1-4.4-29-13.2c-7.6-8.5-11.4-18.6-11.4-30.2,0-18.7,7.9-38,23.6-57.7,13.1-16.4,26.3-24.6,39.7-24.6s5.1.1,7.3.4c2.2.2,4.1.6,5.7,1.2,1.9-2.8,4.5-4.2,7.5-4.2s6.2,2.5,7.2,7.5c.9,4.5,1.3,10,1.3,16.5s-.6,4.3-1.8,6c-1.5,2.2-3.6,3.2-6.4,3.2Z"/>
        <path class="cls-5" d="M1796.7,810.3c0,2-.7,3.8-2,5.4-1.4,1.5-3.1,2.3-5.1,2.3s-1.7-.1-3-.3c-1.3-.2-2.4-.3-3.1-.3l-8.3.2c-3.4.1-6.1.1-8.3,0v19.5c0,5-2.5,7.5-7.4,7.5s-4.3-.6-5.5-1.9c-1.2-1.2-1.9-3.1-1.9-5.6v-9.5c0,0-.2-9.6-.2-9.6-6.7.4-11.4.6-14.2.6-8.6,0-12.9-2.5-12.9-7.6s1.5-5.8,4.6-6.7c1.1-.3,3.8-.4,8.3-.4s7.5-.2,14.2-.6v-9.7c0-5,.2-8.5.7-10.5.6-2,1.4-3.5,2.6-4.5,1.2-1,2.7-1.5,4.5-1.5s3.9.7,5.4,2c1.5,1.4,2.2,3.1,2.2,5.2s0,2.4-.3,4.5c-.2,2-.3,3.6-.3,4.6v9.5c0,0,6.3.2,6.3.2,1.1,0,2.8,0,5.1-.2s4-.2,5.1-.2c9.1,0,13.6,2.6,13.6,7.8Z"/>
        <path class="cls-5" d="M1878.3,810.3c0,2-.7,3.8-2,5.4-1.4,1.5-3.1,2.3-5.1,2.3s-1.7-.1-3-.3c-1.3-.2-2.4-.3-3.1-.3l-8.3.2c-3.4.1-6.1.1-8.3,0v19.5c0,5-2.5,7.5-7.4,7.5s-4.3-.6-5.5-1.9c-1.2-1.2-1.9-3.1-1.9-5.6v-9.5c0,0-.2-9.6-.2-9.6-6.7.4-11.4.6-14.2.6-8.6,0-12.9-2.5-12.9-7.6s1.5-5.8,4.6-6.7c1.1-.3,3.8-.4,8.3-.4s7.5-.2,14.2-.6v-9.7c0-5,.2-8.5.7-10.5.6-2,1.4-3.5,2.6-4.5,1.2-1,2.7-1.5,4.5-1.5s3.9.7,5.4,2c1.5,1.4,2.2,3.1,2.2,5.2s0,2.4-.3,4.5c-.2,2-.3,3.6-.3,4.6v9.5c0,0,6.3.2,6.3.2,1.1,0,2.8,0,5.1-.2,2.3-.1,4-.2,5.1-.2,9.1,0,13.6,2.6,13.6,7.8Z"/>
      </g>
    </g>
    <g>
      <circle class="cls-9" cx="1375.9" cy="438.1" r="150.3" transform="translate(93.2 1101.2) rotate(-45)"/>
      <g>
        <path class="cls-5" d="M1312.8,410.5c-.4,1.1-.6,2.8-.6,5s0,2,0,3.6,0,2.8,0,3.6c0,2.7-.2,6.8-.7,12.1s-.7,9.4-.7,12.1.1,5.2.4,9.3c.3,4.1.4,7.2.4,9.3s-.4,2-1.1,2.8-1.7,1.1-2.8,1.1-2-.4-2.8-1.1c-.8-.8-1.1-1.7-1.1-2.8,0-2.1-.1-5.2-.4-9.3-.3-4.1-.4-7.2-.4-9.3s0-4,.2-6c-4.6,0-10.4.8-17.2,2.1l-17.1,3.3c0,2.4-.2,5.9-.7,10.4-.5,4.5-.7,8-.7,10.4s-.4,2.1-1.1,2.8c-.7.8-1.7,1.2-2.8,1.2s-2-.4-2.8-1.2c-.7-.8-1.1-1.7-1.1-2.8,0-2.9.2-7.2.7-12.9.5-5.7.7-10,.7-12.9s0-3.7-.2-6.8c-.1-3-.2-5.3-.2-6.8s.1-5.4.4-9.7c.3-4.3.4-7.5.4-9.7s.4-2.1,1.1-2.8,1.7-1.1,2.8-1.1,2,.4,2.8,1.1,1.1,1.7,1.1,2.8c0,2.2-.1,5.4-.4,9.7-.3,4.3-.4,7.6-.4,9.7l.2,10.3,17.4-3.3c7-1.3,12.8-2,17.6-2,.3-3.9.4-9.7.4-17.5s.3-4.1,1-6.3c.9-2.9,2.2-4.4,3.8-4.4s2,.4,2.8,1.1,1.2,1.7,1.2,2.8-.1,1-.4,1.7Z"/>
        <path class="cls-5" d="M1373,416.4c-2,0-5.1-.2-9.3-.5-4.1-.3-7.2-.4-9.3-.4h-2.9c0,3.7.4,9.8,1.1,18.2.6,7.8.9,13.9.9,18.3s0,2.4.3,4.3c.2,1.9.3,3.4.3,4.4,0,1.8-.3,3.4-.9,4.8-.8,1.8-1.9,2.7-3.5,2.7s-2.1-.4-2.9-1.1c-.9-.8-1.3-1.7-1.3-2.9s0-1,.2-1.8c.1-.8.2-1.4.2-1.8,0-1.3,0-3.3-.3-6-.2-2.7-.3-4.7-.3-6,0-3.9-.3-9.3-.9-16.3-.7-7.6-1-13-1.1-16.3h-3.7c-5.9,0-10.6-.4-14-1.3-2.2-.6-3.3-1.9-3.3-4s.4-2.1,1.1-2.9c.8-.9,1.9-1.4,3.1-1.3.9,0,3.1.3,6.5.7,2.7.3,4.9.5,6.6.5s4.1,0,7.4-.1c3.3,0,5.8-.1,7.4-.1s5.2.1,9.3.4c4.1.3,7.2.4,9.3.4s2.1.4,2.9,1.2c.8.8,1.2,1.8,1.2,3s-.4,2.1-1.2,2.9c-.8.8-1.8,1.2-2.9,1.2Z"/>
        <path class="cls-5" d="M1440.3,471.2c-1.5,0-2.7-.8-3.6-2.3-.8-1.3-1.5-3.5-2.2-6.5l-1.5-7c-1.1-4.3-2.9-13.9-5.3-28.7l-8.1,24.5-2.4,7.7c-1,3.1-2,5.6-3.1,7.5-1.1,2.1-2.7,3.1-4.6,3.1s-2.9-.9-3.8-2.6c-.6-1.1-1.1-2.6-1.6-4.4l-1.2-4.5c-2.7-9.6-5.2-19.8-7.2-30.7l-1.5,7.3-5.2,21.5c-.2,2.5-.9,6.2-2,11.2-.8,2.1-2.2,3.2-4,3.2s-2.4-.5-3.2-1.4c-.7-.8-1-1.8-1-3,0-4.5.9-10.1,2.8-16.7l4.5-16.4,2.4-12.8c1.2-6,2.5-9.9,3.8-11.8,1.1-1.6,2.4-2.4,4-2.4s3.1,1,3.9,3c1.1,2.4,2.2,7.3,3.4,14.8,1.4,8.9,3.7,18.6,6.7,29,4-10.4,7.5-21.3,10.4-32.6l1.2-5.9c.5-2.4,1.1-4.3,1.9-5.8,1.1-2,2.5-3,4.4-3s4.1,2.3,5.3,6.8c.4,1.5,1,4.7,1.6,9.6,1.6,12.3,3.6,22.7,6,31.4l2,7c1,3.7,1.5,6,1.5,6.9s-.4,2.1-1.3,2.9-1.9,1.2-3,1.2Z"/>
        <path class="cls-5" d="M1489.4,466.1c-3.1,1.4-7.9,2.7-14.4,3.9-6,1.1-11,1.6-14.8,1.6s-4.7-.4-5.9-1.3c-1.6-1.1-2.4-3.2-2.4-6.3l.8-13.5c.7-12.4,1.1-26.2,1.1-41.3s.4-2.2,1.2-3c.8-.8,1.7-1.2,2.9-1.2s2.1.4,2.9,1.2,1.2,1.8,1.2,3c0,15.3-.4,29.3-1.1,41.8l-.5,6.2c-.2,2.3-.3,4.2-.2,6,7.1,0,16-1.6,26.8-5,.5-.1.9-.2,1.3-.2,1.2,0,2.1.5,2.9,1.4.7.8,1,1.8,1,2.9,0,1.7-.9,3-2.6,3.8Z"/>
      </g>
    </g>
    <g>
      <circle class="cls-9" cx="978.6" cy="475.9" r="139.9"/>
      <g>
        <path class="cls-5" d="M915.3,453c-.5,0-1.3,0-2.4-.3-1.1-.2-2-.3-2.6-.3-1.3,0-2.8,0-4.5.1l.2,4.6c0,19.4-1.3,33.5-3.9,42.3-1.7,5.8-4.7,8.7-9,8.7s-9-1.6-13.5-4.9c-4.9-3.6-7.4-7.8-7.4-12.5s1.3-4.8,3.9-4.8,3.9,1.6,3.9,4.7,1.5,4.3,4.6,6.4c2.9,2,5.7,3,8.4,3s3.6-6.5,4.5-19.6c.4-6.2.6-14,.6-23.4s0-2.1-.2-4.2h-2.4c-1,0-2.5,0-4.6,0-2,0-3.6,0-4.6,0s-2.1-.4-2.9-1.1c-.8-.7-1.2-1.7-1.2-3,0-2.7,1.8-4,5.4-4s2.2,0,3.9.1c1.7,0,3,.1,3.9.1,1.6,0,4.1,0,7.4-.3,3.3-.2,5.7-.3,7.4-.3,5.9,0,8.9,1.5,8.9,4.5s-.4,2-1.1,2.8c-.8.9-1.7,1.3-2.8,1.3Z"/>
        <path class="cls-5" d="M970.6,504.7c-2.4,0-4.5-3.1-6.2-9.2-.7-2.3-1.5-6.4-2.5-12.3-2.7.4-6.1,1-10.4,2l-10.4,2.1c-1.3,3.4-3.5,8.4-6.7,15-.8,1.5-2,2.2-3.4,2.2s-2-.4-2.8-1.1c-.8-.8-1.2-1.7-1.2-2.8s2-6,5.9-14.3c-.4-.7-.7-1.5-.7-2.3,0-2.1,1.3-3.5,3.8-4.1,3-5.6,6.7-12,11.2-19.2,6.2-9.9,10-14.8,11.5-14.8s3.5,1.4,4.2,4.3l2.5,13.1,5.8,27.1,2.2,6.2c.8,2.1,1.1,3.5,1.1,4.2,0,1.1-.4,2.1-1.2,2.8-.8.8-1.7,1.1-2.8,1.1ZM956.8,460.1l-11.2,18c3.2-.8,7.9-1.8,14.3-2.9l-3.2-15.1Z"/>
        <path class="cls-5" d="M1031.3,450c-1.6,2.4-2.9,5-3.9,7.6l-3,8.6-10.5,28.4c-1.2,3.3-2.7,6.6-4.3,9.8-.8,1.6-2,2.3-3.5,2.3s-3.4-1-4.2-3c-3.2-7.9-6.7-19.3-10.5-34.2l-3.1-10.7c-1.5-5.4-2.3-9-2.3-10.6s.4-2.1,1.2-2.9c.8-.7,1.7-1.1,2.7-1.1,2,0,3.3,1.1,3.8,3.2l1.4,6.8,3.7,13.3c2.5,9.7,4.9,18,7.3,25l.2-.6,10.5-28.4,3.3-9.6c1.5-3.9,3.1-6.8,4.7-8.7.9-1,1.9-1.6,3-1.6s2,.4,2.8,1.2,1.2,1.8,1.2,2.9-.3,1.6-.8,2.3Z"/>
        <path class="cls-5" d="M1081,504.7c-2.4,0-4.5-3.1-6.2-9.2-.7-2.3-1.5-6.4-2.5-12.3-2.7.4-6.1,1-10.4,2l-10.4,2.1c-1.3,3.4-3.5,8.4-6.7,15-.8,1.5-2,2.2-3.4,2.2s-2-.4-2.8-1.1c-.8-.8-1.2-1.7-1.2-2.8s2-6,5.9-14.3c-.4-.7-.7-1.5-.7-2.3,0-2.1,1.3-3.5,3.8-4.1,3-5.6,6.7-12,11.2-19.2,6.2-9.9,10-14.8,11.5-14.8s3.5,1.4,4.2,4.3l2.5,13.1,5.8,27.1,2.2,6.2c.8,2.1,1.1,3.5,1.1,4.2,0,1.1-.4,2.1-1.2,2.8-.8.8-1.7,1.1-2.8,1.1ZM1067.3,460.1l-11.2,18c3.2-.8,7.9-1.8,14.3-2.9l-3.2-15.1Z"/>
      </g>
    </g>
    <g>
      <circle class="cls-9" cx="756" cy="779.1" r="162.5" transform="translate(-329.5 762.8) rotate(-45)"/>
      <g>
        <path class="cls-5" d="M662.6,789.1c-1.2,0-3.8-.3-7.8-.8-.3,6.4-.5,17.7-.5,33.9s-.6,3.1-1.7,4.3c-1.1,1.2-2.5,1.8-4.2,1.8s-3.1-.6-4.2-1.8-1.7-2.6-1.7-4.3v-18.8c0-6.3.4-15.1,1.2-26.5.9-12.3,1.3-21.2,1.4-26.5v-8.8c0-4.2.3-7.3.8-9.2,1-3.8,3.1-5.4,6.3-4.9,1.4-.4,3.3-.7,5.8-1s5.6-.3,9.3-.3c7.8,0,15.1,2.7,22,8,7.5,5.9,11.3,13,11.3,21.3s-4,19-12,25.3c-7.2,5.6-15.8,8.5-25.9,8.5ZM665.8,738.3c-1.9,0-3.6,0-5,.1-1.5,0-2.7.2-3.7.4v11.8c-.1,0-1.5,25.5-1.5,25.5l7,.8c7.2,0,13.2-1.8,18.1-5.4,5.4-4,8.1-9.3,8.1-16.1s-2.6-8.9-7.7-12.4c-4.7-3.2-9.8-4.7-15.3-4.7Z"/>
        <path class="cls-5" d="M797.6,736.5c-.6,1.8-1,4.4-1,7.9s0,3.2.1,5.7c0,2.5.1,4.4.1,5.7,0,4.3-.4,10.6-1.1,19.1-.7,8.5-1.1,14.8-1.1,19.1s.2,8.1.7,14.6c.5,6.5.7,11.4.7,14.7s-.6,3.2-1.8,4.4c-1.2,1.2-2.6,1.8-4.4,1.8s-3.2-.6-4.4-1.8-1.8-2.7-1.8-4.4c0-3.3-.2-8.2-.7-14.7-.5-6.5-.7-11.4-.7-14.6s.1-6.3.3-9.5c-7.3.1-16.3,1.2-27.1,3.3l-26.9,5.2c0,3.8-.4,9.3-1.2,16.4-.8,7.1-1.2,12.5-1.2,16.4s-.6,3.2-1.8,4.4c-1.2,1.2-2.6,1.8-4.4,1.8s-3.2-.6-4.4-1.8c-1.2-1.2-1.8-2.7-1.8-4.4,0-4.5.4-11.3,1.1-20.3s1.1-15.7,1.1-20.3,0-5.9-.3-10.6c-.2-4.7-.3-8.3-.3-10.7s.2-8.4.6-15.2c.4-6.8.6-11.8.6-15.2s.6-3.3,1.8-4.5c1.2-1.2,2.6-1.8,4.4-1.8s3.2.6,4.4,1.8c1.2,1.2,1.8,2.7,1.8,4.5,0,3.4-.2,8.5-.7,15.3-.4,6.8-.7,11.9-.7,15.3l.4,16.2,27.5-5.2c11-2,20.2-3.1,27.7-3.2.5-6.1.7-15.3.7-27.6s.5-6.5,1.6-9.9c1.4-4.6,3.4-6.9,6-6.9s3.1.6,4.4,1.8c1.3,1.2,1.9,2.7,1.9,4.4s-.2,1.5-.6,2.6Z"/>
        <path class="cls-5" d="M831.5,789.1c-1.2,0-3.8-.3-7.8-.8-.3,6.4-.5,17.7-.5,33.9s-.6,3.1-1.7,4.3-2.5,1.8-4.2,1.8-3.1-.6-4.2-1.8c-1.1-1.2-1.7-2.6-1.7-4.3v-18.8c0-6.3.4-15.1,1.2-26.5.9-12.3,1.3-21.2,1.4-26.5v-8.8c0-4.2.3-7.3.8-9.2,1-3.8,3.1-5.4,6.3-4.9,1.4-.4,3.3-.7,5.8-1s5.6-.3,9.3-.3c7.8,0,15.1,2.7,22,8,7.5,5.9,11.3,13,11.3,21.3s-4,19-12,25.3c-7.2,5.6-15.8,8.5-25.9,8.5ZM834.7,738.3c-1.9,0-3.6,0-5,.1-1.5,0-2.7.2-3.7.4v11.8c-.1,0-1.5,25.5-1.5,25.5l7,.8c7.2,0,13.2-1.8,18.1-5.4,5.4-4,8.1-9.3,8.1-16.1s-2.6-8.9-7.7-12.4c-4.7-3.2-9.8-4.7-15.3-4.7Z"/>
      </g>
    </g>
    <g>
      <circle class="cls-9" cx="938.5" cy="1094.5" r="107.6" transform="translate(-499 984.2) rotate(-45)"/>
      <g>
        <path class="cls-5" d="M916.4,1067c-.6,0-1.5-.1-2.8-.3-1.3-.2-2.4-.3-3.1-.3-1.5,0-3.3,0-5.3.1l.2,5.5c0,22.9-1.5,39.5-4.6,49.9-2,6.9-5.6,10.3-10.6,10.3s-10.6-1.9-15.9-5.8c-5.8-4.3-8.7-9.2-8.7-14.8s1.6-5.7,4.7-5.7,4.7,1.9,4.7,5.6,1.8,5.1,5.4,7.6c3.5,2.4,6.8,3.6,9.9,3.6s4.3-7.7,5.3-23.2c.5-7.3.7-16.5.7-27.6s0-2.5-.2-5h-2.8c-1.2,0-3,0-5.4,0-2.4,0-4.2-.1-5.5-.1s-2.5-.4-3.4-1.3c-.9-.9-1.4-2-1.4-3.5,0-3.2,2.1-4.7,6.4-4.7s2.6,0,4.7.1c2.1,0,3.6.1,4.6.1,1.9,0,4.8-.1,8.7-.3,3.9-.2,6.8-.3,8.7-.3,7,0,10.5,1.8,10.5,5.3s-.4,2.3-1.2,3.3c-.9,1-2,1.6-3.3,1.6Z"/>
        <path class="cls-5" d="M966.1,1097c0,1.1-.4,2.1-1.1,3-.8.8-1.7,1.3-2.8,1.3s-.9,0-1.7-.2c-.7-.1-1.3-.2-1.7-.2h-4.6c-1.9.2-3.4.2-4.6,0v10.8c0,2.8-1.4,4.1-4.1,4.1s-2.4-.3-3.1-1-1-1.7-1-3.1v-5.3s0-5.3,0-5.3c-3.7.2-6.3.3-7.9.3-4.8,0-7.1-1.4-7.1-4.2s.8-3.2,2.5-3.7c.6-.2,2.1-.2,4.6-.2s4.2-.1,7.9-.3v-5.4c0-2.8,0-4.7.4-5.8.3-1.1.8-1.9,1.4-2.5.6-.6,1.5-.8,2.5-.8s2.2.4,3,1.1c.8.8,1.2,1.7,1.2,2.9s0,1.4-.2,2.5c-.1,1.1-.2,2-.2,2.6v5.3s3.5.1,3.5.1c.6,0,1.6,0,2.8-.1,1.3,0,2.2-.1,2.8-.1,5,0,7.6,1.4,7.6,4.3Z"/>
        <path class="cls-5" d="M1011.4,1097c0,1.1-.4,2.1-1.1,3-.8.8-1.7,1.3-2.8,1.3s-.9,0-1.7-.2-1.3-.2-1.7-.2h-4.6c-1.9.2-3.4.2-4.6,0v10.8c0,2.8-1.4,4.1-4.1,4.1s-2.4-.3-3.1-1c-.7-.7-1-1.7-1-3.1v-5.3s0-5.3,0-5.3c-3.7.2-6.3.3-7.9.3-4.8,0-7.1-1.4-7.1-4.2s.8-3.2,2.5-3.7c.6-.2,2.1-.2,4.6-.2s4.2-.1,7.9-.3v-5.4c0-2.8,0-4.7.4-5.8.3-1.1.8-1.9,1.4-2.5s1.5-.8,2.5-.8,2.2.4,3,1.1c.8.8,1.2,1.7,1.2,2.9s0,1.4-.2,2.5c-.1,1.1-.2,2-.2,2.6v5.3s3.5.1,3.5.1c.6,0,1.6,0,2.8-.1,1.3,0,2.2-.1,2.8-.1,5,0,7.6,1.4,7.6,4.3Z"/>
      </g>
    </g>
    <g>
      <circle class="cls-9" cx="1482.9" cy="1117.7" r="91.9"/>
      <path class="cls-5" d="M1447,1145.3c0-1.7.5-3.1,1.7-4.1,1.2-1.1,2.7-1.6,4.4-1.6s3.7,1.1,5.2,3.4c2.1,3.1,3.9,5.1,5.5,6.2,3.4,2.3,8.4,3.4,14.9,3.4s12.1-1.4,17.4-4.1c6.9-3.5,10.3-8.3,10.3-14.5s-2.9-9.1-8.7-12c-4.9-2.5-10.9-3.9-18.1-4.1-6.4-.2-11.8-1.6-16.3-4.2-5.7-3.3-8.6-7.9-8.6-14s4.1-13.7,12.2-19.7c7.8-5.6,15.8-8.4,24.1-8.4s8.3.7,13.3,2c6.5,1.7,9.8,4,9.8,6.7s-1.8,5.3-5.4,5.3-4.4-.4-8.5-1.3c-4-.9-7.2-1.3-9.4-1.2-6.3,0-11.6,1.6-16,4.7-4.5,3.1-6.8,6.9-6.8,11.3s3,5.7,9,7.1c2.2.5,6.5,1,12.9,1.5,9.2.7,16.5,3.6,21.7,8.7,4.8,4.7,7.1,10.4,7.1,17.1,0,9.6-4.4,17.3-13.3,23-7.7,5-16.6,7.4-26.8,7.4s-14.1-1.4-20.3-4.2c-7.5-3.5-11.3-8.2-11.4-14.3Z"/>
    </g>
  </g>
  <g>
    <path class="cls-10" d="M1598.8,385.6h294.3v105h-294.3c-29,0-52.5-23.5-52.5-52.5h0c0-29,23.5-52.5,52.5-52.5Z"/>
    <g>
      <path class="cls-28" d="M2032.6,395.6v84.9h5.8v10.1h-172c-29,0-52.5-23.5-52.5-52.5s5.9-27.6,15.4-37.1,22.6-15.4,37.1-15.4h172v10.1h-5.8Z"/>
      <path class="cls-19" d="M2034.1,395.6v84.9h-167.4c-.9,0-1.7,0-2.6,0-22.4-1.3-40.2-19.8-40.2-42.4s4.8-22.3,12.5-30c7.2-7.1,16.9-11.7,27.7-12.3.8,0,1.7,0,2.6,0h167.4Z"/>
      <g>
        <rect class="cls-7" x="1863.3" y="416.2" width="170.8" height="1.6"/>
        <rect class="cls-7" x="1863.3" y="426.7" width="170.8" height="1.6"/>
        <rect class="cls-7" x="1863.3" y="447.8" width="170.8" height="1.6"/>
        <rect class="cls-7" x="1863.3" y="437.3" width="170.8" height="1.6"/>
        <rect class="cls-7" x="1863.3" y="458.3" width="170.8" height="1.6"/>
        <rect class="cls-7" x="1863.3" y="468.8" width="170.8" height="1.6"/>
        <rect class="cls-7" x="1863.3" y="405.7" width="170.8" height="1.6"/>
      </g>
      <path class="cls-30" d="M1864.2,395.7v84.7c-22.4-1.3-40.2-19.8-40.2-42.4s4.8-22.3,12.5-30c7.2-7.1,16.9-11.7,27.7-12.3Z"/>
    </g>
    <polygon class="cls-23" points="1910.3 421.8 1910.3 473.3 1893.2 461.8 1876 473.3 1876 421.8 1910.3 421.8"/>
    <ellipse class="cls-23" cx="1685.1" cy="438.1" rx="100" ry="28.1"/>
  </g>
  <g>
    <path class="cls-35" d="M1943.2,1064.4c-55.6,22.4-68.7,185.1-163.9,203.6-95.2,18.5-218.8-29.4-238,67.4-26.4,133.5,302.4,235.8,488.8,97.8,169.7-125.6-11.6-399.3-86.9-368.9Z"/>
    <path class="cls-11" d="M1826.3,986.3c-10.3-21.4,10.2-64.4,39.1-63.4,27.4.9,32.5,24.1,32.5,24.1,0,0,29.6-18.2,45.2,5,15.6,23.1-6.2,46.1-6.2,46.1,0,0,27.3,3.1,29.3,26.9,2.1,26.6-23.1,37.1-23.1,37.1,0,0,25.2,9.1,23.2,33.2-2,24.1-28.4,27.9-28.4,27.9,0,0,37.4,32.4-8.7,57.2-39.2,21.1-66.5-23.1-69.4-35.4-2.9-12.2-6.3-116.3-6.3-116.3l-27.3-42.5Z"/>
    <g>
      <path class="cls-38" d="M1896.1,1019.8c8.3-2.7,15.7,6.8,9.6,15.9-6.1,9.1-14.5,8.1-17.2,3.9-2.7-4.2,7.6-19.7,7.6-19.7Z"/>
      <path class="cls-6" d="M1900,1025c6.6,1.5-.5,11.2-5.5,10.3-4.9-.8,5.5-10.3,5.5-10.3Z"/>
      <path class="cls-38" d="M1849.4,1099c9.2,3.1,27.1-4.6,27.1-4.6l.8-40.8v-5.1c.1,0-16.9,6.4-16.9,6.4l-10.3,3.8-4.9,18.7-2.6,10.1s-2.5,8.3,6.7,11.4Z"/>
      <path class="cls-36" d="M1845.3,1077.4c10.4.9,25.8-12,32.1-23.8,0,0-9,.3-16.9,1.3l-10.3,3.8-4.9,18.7Z"/>
      <path class="cls-38" d="M1818.4,1012.4c-.5,2.3-.9,4.6-1.2,6.8-2.8,21.9,1.4,40.7,21.1,45.1,27.9,6.2,63.2-25.7,62.4-45,0,0,0,0,0,0-23.8-6.7-38.2-45.8-38.2-45.8,0,0-21.6,16.4-36.2,12.5-3.6,9.2-6.3,18-7.9,26.2Z"/>
      <path class="cls-31" d="M1834.8,1007.1c-.7,3.1-2.4,5.3-3.7,5-1.3-.3-1.7-3.1-1-6.1.7-3.1,2.4-5.3,3.7-5,1.3.3,1.7,3.1,1,6.1Z"/>
      <path class="cls-31" d="M1857.2,1012.1c-.7,3.1-2.4,5.3-3.7,5-1.3-.3-1.7-3.1-1-6.1.7-3.1,2.4-5.3,3.7-5,1.3.3,1.7,3.1,1,6.1Z"/>
      <path class="cls-11" d="M1867.7,1001c.4,2.1-10-3.9-10.2-5.1-.1-1.3,1.3-1.5,3.5-.9s6.5,5.5,6.6,6Z"/>
      <path class="cls-11" d="M1828.1,993.4c-1,1.9,10.7-.8,11.2-2,.5-1.2-.9-1.8-3.1-1.9-2.2,0-7.9,3.4-8.1,3.8Z"/>
      <g>
        <path class="cls-25" d="M1848.5,1045.5c-.9,3.2-5.9,4.5-11.1,3.1-5.3-1.5-8.8-5.3-7.9-8.4.9-3.2,5.9-4.5,11.1-3.1,5.3,1.5,8.8,5.3,7.9,8.4Z"/>
        <path class="cls-31" d="M1841.5,1044.8c-5-.6-10.2-2.2-13.1-4.3-.2-.2-.3-.4,0-.6.2-.2.6-.2.8,0,5.3,3.9,19.6,5.8,23.5,3.1.2-.1.6-.1.8,0,.2.2.2.4,0,.6-2.2,1.4-6.9,1.7-11.9,1.1Z"/>
      </g>
      <path class="cls-37" d="M1874.7,1029.5c-.3,4.2-4.8,7.2-10,6.8-5.2-.4-9.1-4.2-8.7-8.3.3-4.2,4.8-7.2,10-6.8,5.2.4,9.1,4.2,8.7,8.3Z"/>
      <path class="cls-1" d="M1838.8,1028.9c-1.9-.5-3.3-1.7-4-3.2-.7-1.7-.5-3.6.7-5.1,1.4-1.8,3.8-2.5,6.7-2,.3,0,.4.3.3.5,0,.2-.3.4-.5.3-2.5-.4-4.7.2-5.9,1.7-.9,1.2-1.2,2.8-.5,4.2.8,1.7,2.6,2.8,5,3,.2,0,.4.2.4.5,0,.2-.2.4-.5.4-.6,0-1.2-.2-1.7-.3Z"/>
    </g>
    <g>
      <path class="cls-38" d="M1469.4,1406.6c-6.2-.1-65.9-54.2-65.4-57.8.6-4.8,13.7-6.4,29.1-4,9,1.4,18.7,4.3,27.1,8.8,22.8,12.2,29.7,23.1,29.7,23.1-.9,2.3-1.9,4.8-3,7.3-5,10.9-12.4,22.6-17.5,22.6Z"/>
      <path class="cls-14" d="M1469.4,1406.6c-6.2-.1-65.9-54.2-65.4-57.8.6-4.8,13.7-6.4,29.1-4,5.9,10.6,33,32.6,53.9,39.3-5,10.9-12.4,22.6-17.5,22.6Z"/>
    </g>
    <path class="cls-21" d="M1469.5,1365.4c1,.9,2,1.8,3,2.7,6.9,5.7,15.5,10,23.5,8.7,7.4-1.2,76.5-88.2,96.3-91.8,18.3-3.4,165.6,16.4,198.3-21.3,31-35.6-82.1-59.8-82.1-59.8,0,0-105.1-11.9-140.2-2.6-35,9.3-106.7,141.8-108.4,146.8-1.3,3.6,2.9,11,9.5,17.4Z"/>
    <path class="cls-29" d="M1469.5,1365.4c1,.9,2,1.8,3,2.7,11.3-10.8,24-30,38-51.2,22.3-33.9,47.7-72.3,68.7-74.4,11.7-1.1,31.8,1.4,55.1,4.4,46.6,6,99.4,12.7,120.1-4.9l-2.6-3.1c-19.3,16.4-73.4,9.5-116.9,3.9-23.5-3-43.9-5.6-56-4.4-23,2.3-47.8,39.9-71.7,76.3-13.5,20.5-26.5,40.3-37.5,50.8Z"/>
    <path class="cls-29" d="M1719.1,1225.7c-31.2,3.8-40,23-40,23,0,0,53.6,4.3,56.9,0,3.3-4.3-16.9-23-16.9-23Z"/>
    <path class="cls-10" d="M1876.7,1084.5c-25.5,9.7-33.8,1.9-33.8,1.9,0,0-78.9,33.1-85.5,49.8-6.6,16.8,6.6,35.3,6.6,35.3l-55.5,32.4s9.1,73.6,64.7,70.7c55.7-2.9,97.9-65.2,114.7-105.9,19.9-48.1-11.3-84.2-11.3-84.2Z"/>
    <path class="cls-13" d="M1611.9,1064.4s5.4,1.2,13.8,2.9c28.6,5.7,91.6,17.3,91.1,8.4-.2-2.4-1.3-8.1-3.1-15.5-.2-.8-.4-1.7-.7-2.6-.2-.8-.4-1.7-.7-2.6-.7-2.6-1.4-5.3-2.1-8.1-4.2-15.8-9.8-34.7-14.1-48.3-.1-.4-.3-.8-.4-1.2-1.3-4-2.4-7.4-3.4-10.2-1.6-4.5-2.8-7.1-3.3-7.1-2.4,0-48.9,50.7-70.5,76.3-2.6,3.1-4.8,5.7-6.6,7.9,0,0-.1,0-.1.1Z"/>
    <path class="cls-32" d="M1649.4,1145.2c22,49.8,28.4,73.1,29.8,71.4,0,0,2.6,0,6.8.2,18.5.4,68.8,1.4,74-.2,6.4-2-7.9-154.7-12.4-158.7-.4-.3-2.5-.6-5.7-.7-6.1-.2-16.5,0-28.8.3-29.3,1-69.5,3.3-89.3,5.1-1.9.2-3.7.4-5.2.6-3.6.4-6,.8-6.6,1,0,0-.1,0-.1.1-1.7,2.5,17.9,36.6,37.5,80.8Z"/>
    <path class="cls-19" d="M1702.5,991.2c4,14.1,16.1,63.2,16.1,63.2l-86,5.7v-4.5l69.9-64.5Z"/>
    <path class="cls-24" d="M1692.3,987.2c-14.6,13.7-73.7,76.1-73.7,76.1,0,0,123.8-2.5,123.3-6.1-.5-3.6-9.1-11.8-10.7-12.6-1.7-.7-96.1,12.6-96.1,12.6,0,0,68.2-63.6,67.4-65.9-.8-2.2-10.2-4.1-10.2-4.1Z"/>
    <path class="cls-13" d="M1649.4,1145.2c22,49.8,28.4,73.1,29.8,71.4,0,0,2.6,0,6.8.2-12.1-36.9-51.5-129.1-60.2-149.5-1.2-2.6-1.8-4-1.8-4,0,0,0,0,0-.1,0-.1-.1-.3-.2-.4-.3-.7-.9-1.9-1.7-3.1-.9-1.4-2.1-2.9-3.5-3.2-2.6,3.1-4.8,5.7-6.6,7.9,0,0-.1,0-.1.1-1.7,2.5,17.9,36.6,37.5,80.8Z"/>
    <path class="cls-13" d="M1726.4,1080.8c-1.7-.3-73.4,1-72.3,5s20.4,55,20.4,55c0,0,52.1-3.8,56-5.4,3.9-1.6-4.1-54.5-4.1-54.5Z"/>
    <path class="cls-38" d="M1722.3,1132.1c2.2-5.3-10.9-32.6-13.2-32.2-2.3.4-1.1,15-1.1,15,0,0-24.9-23.4-26.9-22.2-2,1.2,13,19.6,13,19.6,0,0-19-17.8-20.9-16s17.4,21.1,17.4,21.1c0,0-19-15.9-19.5-12-.2,1.4,16.1,16.2,16.1,16.2,0,0-13.1-8.8-13.9-7.5s9.1,10.8,18.6,17.1c9.5,6.3,29.4,18.8,30.8,18.1s8.2-7.8,8.2-7.8l-8.8-9.3Z"/>
    <path class="cls-27" d="M1871.9,1103.7c-32.1-16.4-55.6,73.7-63.5,73.7s-70.7-51.1-80.2-50.5c-5.8.3-19,15.8-16.9,22.1,2,5.9,59.2,79.9,103.3,73.1,44.1-6.8,100.3-96.4,57.3-118.3Z"/>
  </g>
  <g>
    <path class="cls-14" d="M403.1,1420.5c-4.2,10.2-8.4,27.1-4.4,30.7,4,3.6,72.9,4.1,74.7,1.6,3.8-5.3-16.7-24-38.1-29.6-21.4-5.6-32.1-2.7-32.1-2.7Z"/>
    <path class="cls-14" d="M316.2,1420.5c-4.2,10.2-8.4,27.1-4.4,30.7,4,3.6,72.9,4.1,74.7,1.6,3.8-5.3-16.7-24-38.1-29.6-21.4-5.6-32.1-2.7-32.1-2.7Z"/>
    <path class="cls-2" d="M451.9,868.7c20.3-12.8,16.2-43.8,0-48.1-16.2-4.3-23.3,4.7-23.3,4.7,0,0-10.3-24.5-32.2-15.5-21.8,9-7.3,28.2-7.3,28.2,0,0-30.3-6.8-36.5,14.4-6.3,21.2,15.8,22.9,15.8,22.9,0,0-25.5,11.1-11.8,34.7,13.8,23.6,33.5,9.8,33.5,9.8,0,0-3,17.2,15.3,13.4,18.3-3.8,46.5-64.6,46.5-64.6Z"/>
    <g>
      <path class="cls-38" d="M386.6,892.7c-7.2-3.1-14.6,4.7-9.9,13.4s12.3,8.5,15,4.9c2.8-3.6-5.1-18.3-5.1-18.3Z"/>
      <path class="cls-6" d="M382.7,897c-6,.7-.5,10,4,9.7,4.5-.3-4-9.7-4-9.7Z"/>
      <path class="cls-38" d="M421.5,967.5c-8.5,2-23.9-6.5-23.9-6.5l2.8-36.5.4-4.6,14.7,7.2,8.8,4.3,2.8,17.2,1.5,9.3s1.5,7.7-7,9.6Z"/>
      <path class="cls-36" d="M427.1,948.6c-9.4-.1-22.1-13-26.6-24.1,0,0,8,1.1,15,2.6l8.8,4.3,2.8,17.2Z"/>
      <path class="cls-38" d="M456.7,892.8c.3,2.1.4,4.2.5,6.2.6,19.8-4.8,36.3-22.8,38.5-25.5,3.1-54.3-28.5-51.9-45.6,0,0,0,0,0,0,21.8-3.9,38.1-37.6,38.1-37.6,0,0,17.9,16.5,31.3,14.3,2.4,8.5,4.1,16.7,4.8,24.1Z"/>
      <path class="cls-31" d="M442.5,886.6c.4,2.8,1.7,4.9,2.9,4.8s1.8-2.6,1.4-5.4c-.4-2.8-1.7-4.9-2.9-4.8-1.2.2-1.8,2.6-1.4,5.4Z"/>
      <path class="cls-31" d="M422,889.2c.4,2.8,1.7,4.9,2.9,4.8,1.2-.2,1.8-2.6,1.4-5.4-.4-2.8-1.7-4.9-2.9-4.8-1.2.2-1.8,2.6-1.4,5.4Z"/>
      <path class="cls-2" d="M413.6,878.4c-.5,1.8,9.3-2.6,9.5-3.7.2-1.1-1.1-1.4-3.1-1.1-2,.3-6.3,4.4-6.5,4.8Z"/>
      <path class="cls-2" d="M449.6,875c.7,1.7-9.5-1.6-9.9-2.7-.4-1.1.9-1.5,2.9-1.4s6.7,3.7,6.9,4.1Z"/>
      <g>
        <path class="cls-25" d="M426.9,919.8c.5,2.9,4.9,4.6,9.7,3.7,4.8-.9,8.3-3.9,7.8-6.9-.5-2.9-4.9-4.6-9.7-3.7-4.8.9-8.3,3.9-7.8,6.9Z"/>
        <path class="cls-31" d="M433.2,919.8c4.6-.1,9.4-1.1,12.1-2.7.2-.1.3-.4,0-.5-.2-.2-.5-.2-.7,0-5.1,3-18,3.5-21.3.8-.2-.1-.5-.2-.7,0-.2.1-.2.4,0,.5,1.8,1.5,6.1,2.1,10.6,2Z"/>
      </g>
      <path class="cls-37" d="M404.9,903.2c0,3.8,3.7,6.9,8.3,6.9,4.6,0,8.5-2.9,8.5-6.7,0-3.8-3.7-6.9-8.3-6.9-4.6,0-8.5,2.9-8.5,6.7Z"/>
      <path class="cls-1" d="M437.1,905.8c1.7-.3,3.1-1.2,3.8-2.5.8-1.5.7-3.2-.1-4.6-1.1-1.7-3.2-2.6-5.8-2.4-.3,0-.4.2-.4.4,0,.2.2.4.4.4,2.3-.2,4.2.6,5.1,2,.7,1.2.8,2.6.1,3.8-.8,1.5-2.5,2.3-4.7,2.3-.2,0-.4.2-.4.4,0,.2.2.4.4.4.5,0,1.1,0,1.6-.1Z"/>
    </g>
    <path class="cls-21" d="M309.1,1419.5c4.5,8,41.9,6.1,44,2.5.9-1.5,48-148.1,48-148.1,0,0-.8,13.5-1.7,32.3h0c-2,42-4.8,110.3-1.4,114.8,4.9,6.5,42.1,4,43.6,0,1.5-4,42.8-205.4,45-253.9,0,0-93.1-117.3-137.3,5.7-44.2,122.9-44.8,238.8-40.3,246.8Z"/>
    <path class="cls-35" d="M478.2,967.8c49.6,21.9,74.2,56.8,74.2,56.8,0,0-51.8,11.3-61.5,1.6-9.8-9.8-12.6-58.4-12.6-58.4Z"/>
    <path class="cls-10" d="M428.4,956.9c-3.9,12-30.4,0-30.4,0,0,0-41.9,5-56.3,25.9-15.3,22.2,4,185.4,7.8,190,3.7,4.6,64.9,11.1,94.6,7.1,29.7-4,38.2-6.6,42.7-12.8,4.5-6.2,3.2-142.5,3.2-142.5,0,0,20.9-1.1,8.3-35.1-12.5-34-69.9-32.6-69.9-32.6Z"/>
    <g>
      <path class="cls-17" d="M601.7,892.3l-262.5,290.7-22.9,25.3-93,102.9c-12.8,14.2-12.8,35.4-.8,49.5,1.2,1.4,2.5,2.7,3.9,4,15.5,13.5,38.9,12.1,52.7-3.1l92.9-103.1,22.9-25.4,262.6-291.6s16.9-34.7,31.1-66c11.1-24.4,20.5-46.6,19-48.6-1.4-1.9-22.6,10.9-45.6,25.7-28.6,18.3-60.1,39.7-60.1,39.7Z"/>
      <polygon class="cls-18" points="339.1 1183 316.2 1208.3 371.9 1258.5 394.8 1233.1 339.1 1183"/>
      <path class="cls-19" d="M601.7,892.3l55.7,49.2s16.9-34.7,31.1-66c11.1-24.4,20.5-46.6,19-48.6-1.4-1.9-22.6,10.9-45.6,25.7-28.6,18.3-60.1,39.7-60.1,39.7Z"/>
      <path class="cls-18" d="M661.7,852.6l26.6,23c11.1-24.4,20.5-46.6,19-48.6-1.4-1.9-22.6,10.9-45.6,25.7Z"/>
    </g>
    <path class="cls-38" d="M445.8,1140.2c2.9-4.9,32.4-10.9,33.5-8.8,1,2.1-11.3,9.8-11.3,9.8,0,0,33.5,5.7,33.8,8,.3,2.3-23.4,1.4-23.4,1.4,0,0,25.6,4.4,25.3,6.9-.3,2.5-27.2-1.2-27.2-1.2,0,0,24.1,5.6,21.3,8.2-1,1-22.6-3-22.6-3,0,0,14.8,5.1,14.3,6.5-.5,1.4-14.1-.8-24.7-4.5-10.7-3.8-32.6-12-32.9-13.6-.3-1.5,1.3-11.1,1.3-11.1l12.7,1.4Z"/>
    <path class="cls-35" d="M341.7,982.8c-27.5,27.6-15.8,117.8-9,131.2,6.8,13.4,95.2,49.4,101.4,46.9s18.2-19.5,15.2-27.5c-3-8-68.4-41.6-72.4-46.1s.8-43.5-3.7-75.4c-4.4-31.7-25.8-34.7-31.5-29Z"/>
    <path class="cls-29" d="M399.5,1306.3l27.9-88s-14.6,18.8-26.3,55.7c0,0-.8,13.5-1.7,32.3Z"/>
    <path class="cls-38" d="M594.2,1031.7c0-6.5-20.5-30.4-23.1-27.9-2.7,2.5,9.4,19.8,9.4,19.8,0,0-19.6-15.2-21.7-13.3s15.6,18.7,15.6,18.7c0,0-15.2-7.2-16.6-5-1.3,2.2,14.5,10.6,14.5,10.6,0,0-10.7-2-11.4.7s33.1,22,33.4-3.8Z"/>
  </g>
  <g>
    <path class="cls-11" d="M1114.2,1175c-11-3.3-15.5-36.1,6-44.6,20.5-8.1,27.5,5.8,27.5,5.8,0,0,5.3-27,29.5-16.7,29.3,12.4,16.7,34.3,22.7,47.1,6,12.8,21,20.4,9.4,44.7-11,23-51.1,13.7-51.1,13.7l-43.9-50Z"/>
    <path class="cls-38" d="M1180.6,1195.6c7-3.5,14.8,4,10.6,12.9-4.2,8.8-11.8,9.1-14.8,5.7-2.9-3.4,4.2-18.5,4.2-18.5Z"/>
    <path class="cls-6" d="M1184.8,1199.7c6,.4,1,10-3.5,9.9-4.5,0,3.5-9.9,3.5-9.9Z"/>
    <path class="cls-38" d="M1149.5,1272.1c8.6,1.6,23.5-7.6,23.5-7.6l-4.6-36.3-.6-4.6-14.3,7.9-8.6,4.7-1.9,17.3-1,9.3s-1.1,7.7,7.5,9.3Z"/>
    <path class="cls-36" d="M1143,1253.5c9.3-.6,21.4-14,25.4-25.4,0,0-7.9,1.5-14.8,3.3l-8.6,4.7-1.9,17.3Z"/>
    <path class="cls-38" d="M1110.6,1199.3c-.2,2.1-.2,4.2-.2,6.2.4,19.8,6.6,36,24.7,37.3,25.6,1.8,52.8-31.1,49.5-48.1,0,0,0,0,0,0-22-2.8-39.9-35.6-39.9-35.6,0,0-17,17.4-30.5,15.9-2,8.6-3.2,16.8-3.6,24.3Z"/>
    <path class="cls-31" d="M1124.5,1192.3c-.3,2.8-1.4,5-2.6,4.9-1.2-.1-2-2.5-1.7-5.3.3-2.8,1.4-5,2.6-4.9,1.2.1,2,2.5,1.7,5.3Z"/>
    <path class="cls-31" d="M1145.1,1193.9c-.3,2.8-1.4,5-2.6,4.9-1.2-.1-2-2.5-1.7-5.3.3-2.8,1.4-5,2.6-4.9,1.2.1,2,2.5,1.7,5.3Z"/>
    <path class="cls-11" d="M1153,1182.7c.6,1.8-9.4-2.1-9.7-3.2-.3-1.1,1-1.5,3-1.3,2,.2,6.5,4,6.7,4.5Z"/>
    <path class="cls-11" d="M1116.8,1181.1c-.6,1.8,9.4-2.1,9.7-3.2.3-1.1-1-1.5-3-1.3-2,.2-6.5,4-6.7,4.5Z"/>
    <g>
      <path class="cls-25" d="M1141.7,1224.7c-.4,2.9-4.6,4.8-9.5,4.2-4.9-.6-8.5-3.5-8.1-6.5.4-2.9,4.6-4.8,9.5-4.2,4.9.6,8.5,3.5,8.1,6.5Z"/>
      <path class="cls-31" d="M1135.4,1225c-4.6,0-9.4-.6-12.2-2.1-.2-.1-.3-.4-.1-.5.2-.2.5-.2.7,0,5.2,2.8,18.1,2.6,21.3-.3.2-.1.5-.2.7,0,.2.1.3.4,0,.5-1.7,1.6-5.9,2.4-10.4,2.5Z"/>
    </g>
    <path class="cls-37" d="M1162.9,1207.1c.2,3.8-3.3,7-8,7.3-4.6.3-8.6-2.5-8.8-6.3-.2-3.8,3.3-7,8-7.3,4.6-.3,8.6,2.5,8.8,6.3Z"/>
    <path class="cls-1" d="M1130.9,1211.2c-1.7-.2-3.1-1-3.9-2.4-.9-1.4-.9-3.2,0-4.6,1-1.7,3.1-2.7,5.7-2.6.3,0,.4.2.4.4,0,.2-.2.4-.4.4-2.3,0-4.1.8-5,2.3-.7,1.2-.7,2.7,0,3.8.9,1.4,2.6,2.2,4.8,2,.2,0,.4.1.4.4,0,.2-.1.4-.4.4-.5,0-1.1,0-1.6,0Z"/>
    <path class="cls-14" d="M1070.8,1690.3c-.6.6-2.6,1.2-5.6,1.7-6.9,1.3-19.3,2.4-32.3,3.2-22.2,1.4-46.1,1.8-47.3.3-4.6-5.9,18-28.1,42.2-35.4,24.2-7.3,36.5-4.5,36.5-4.5,2.9,6.4,6,15.2,7.3,22.4,1.1,5.8,1.1,10.5-.8,12.4Z"/>
    <path class="cls-9" d="M1170.8,1424.4c50.5,75.2-90.8,111.9-90.8,111.9,0,0-6.9,111.8-10.3,120.2-3.3,8.4-31.7,10.3-39.6.7-7.9-9.6-18.6-115.4-9.5-153.6s78.2-91.9,78.2-91.9l72,12.7Z"/>
    <path class="cls-4" d="M1071.6,1677.9s-2.7,7.7-6.4,14.1c-6.9,1.3-19.3,2.4-32.3,3.2,5.6-7.9,24-18.6,38.7-17.2Z"/>
    <path class="cls-14" d="M1118.5,1669.4c5.3,11.5,10.9,30.6,6.5,34.8-4.4,4.2-83,7.9-85.1,5.1-4.6-5.9,18-28.1,42.2-35.4,24.2-7.3,36.5-4.5,36.5-4.5Z"/>
    <path class="cls-5" d="M1074.2,1617.3c-15.7-35.5-22.8-86.4-11.3-119.8,11.3-32.8,104-81.1,104-81.1,0,0,9.4,15-10.3,60.8-19.7,45.8-82.4,140.1-82.4,140.1Z"/>
    <path class="cls-9" d="M1224.9,1438.2c32.2,78.6-90.8,111.9-90.8,111.9,0,0-6.9,111.8-10.3,120.2-3.3,8.4-31.7,10.3-39.6.7-7.9-9.6-18.6-115.4-9.5-153.6,9.1-38.2,78.2-91.9,78.2-91.9l72,12.7Z"/>
    <path class="cls-35" d="M1233.1,1408.4c-13.9,9.7-161.5,19.3-171.2,5.7-2.4-3.3-3.3-12.2-3.2-24,.3-36.9,11.4-102.6,26.8-117.9,2.1-2.1,4.7-3.9,7.5-5.3,18.8-9.9,49.2-5.9,49.2-5.9,8.7,11.7,30.2-1.1,30.2-1.1,0,0,42.7-.5,60.5,13.1,17.9,13.6,13.9,125.7,0,135.3Z"/>
    <path class="cls-27" d="M1079.5,1402.7s-10.5-2.5-20.8-12.6c.3-36.9,11.4-102.6,26.8-117.9,2.1-2.1,4.7-3.9,7.5-5.3-16,19.8-13.5,135.7-13.5,135.7Z"/>
    <path class="cls-35" d="M1145,1435c37.2,8.8,74.6,5.6,79.9,3.2,5.3-2.4,7.2-73.9,7.2-73.9l-87.1,70.7Z"/>
    <g>
      <path class="cls-26" d="M1137.5,1439.9c24.8-2.8,80.9-27.2,79.6-32.4-1-4.1-170.3-18.2-170.3-18.2l90.7,50.5Z"/>
      <path class="cls-26" d="M1217.1,1402.7v4.9s-10.6,2.3-11.1-.9,11.1-4,11.1-4Z"/>
      <path class="cls-4" d="M1137.5,1435c24.8-2.8,80.9-27.2,79.6-32.4-1-4.1-170.3-18.2-170.3-18.2l90.7,50.5Z"/>
      <path class="cls-16" d="M1001.7,1428.3c-3.3-2.7-29.8-96.5-24.2-101.2,5.5-4.7,151.2,2.6,155.8,8.9s11.1,101.3,4.3,103.9c-6.8,2.6-129.1-6.1-135.9-11.6Z"/>
    </g>
    <path class="cls-38" d="M1165.6,1409.6c-2-5.2-29.7-15.4-31-13.5s9.4,11.2,9.4,11.2c0,0-33.2.5-33.8,2.7-.6,2.2,22.4,4.9,22.4,4.9,0,0-25.3.5-25.4,2.9-.1,2.5,26.4,2.9,26.4,2.9,0,0-24.1,1.8-21.7,4.8.9,1.1,22.3.4,22.3.4,0,0-15.1,2.7-14.8,4.1.3,1.4,13.7,1.4,24.6-.7,10.9-2,33.3-6.8,33.8-8.2.5-1.4.4-10.9.4-10.9l-12.4-.6Z"/>
    <path class="cls-27" d="M1230,1272.2c29.7,6.8,52.8,96.3,36.6,125.7-16.2,29.4-94.4,31.8-96.6,29.2-2.1-2.6-7.4-19.2-4-24.7,3.4-5.5,58.5-30.7,62.7-36.6,4.3-6-42.6-103.6,1.2-93.6Z"/>
    <path class="cls-38" d="M987.5,1420.6c0-6.3,19.9-29.5,22.5-27.1,2.6,2.4-9.1,19.3-9.1,19.3,0,0,19-14.7,21-12.9,2,1.8-15.1,18.2-15.1,18.2,0,0,14.8-7,16.1-4.8,1.3,2.1-14.1,10.3-14.1,10.3,0,0,10.4-1.9,11,.7s-32.1,21.4-32.4-3.7Z"/>
  </g>
  <path class="cls-18" d="M884.7,1526.9c3.9-1.1,7.9-1.8,11.8-2.1-11.3-32.2-30.7-59.5-55.3-80.2-7.1,15.5-20.7,28-38.5,33.1-32.2,9.2-65.7-9.5-74.9-41.7-3.4-11.9-3-23.9.5-34.9-18.8-.7-38.1,1.6-57.2,7-19.1,5.5-36.7,13.7-52.3,24.2,8.7,7.5,15.4,17.5,18.8,29.4,9.2,32.2-9.5,65.7-41.7,74.9-17.7,5.1-35.9,1.7-50.1-7.8-10,30.5-12.2,64-4.8,97.3,3.5-1.8,7.2-3.3,11.1-4.4,32.2-9.2,65.7,9.5,74.9,41.7,7.2,25.2-2.7,51.3-22.9,65.8,30.3,24.9,68.1,39.9,107.9,42-4.7-29.8,13.5-59.1,43.2-67.6,29.8-8.5,60.7,6.8,72.4,34.6,32.8-22.8,57-55.5,69.6-92.6-24.8-1.7-47-18.6-54.2-43.9-9.2-32.2,9.5-65.7,41.7-74.9ZM736.4,1637.3c-28.2,8-57.5-8.3-65.6-36.5-8-28.2,8.3-57.5,36.5-65.6,28.2-8,57.5,8.3,65.6,36.5,8,28.2-8.3,57.5-36.5,65.6Z"/>
  <g>
    <path class="cls-23" d="M1579.6,1673.5c15.7,9.8,33.5,20.2,33.5,20.2l203.9,61.1,17.8,5.3,37.8,11.4,16.7,5,17.7,5.3c9.9,3,20.3-2,24.5-11.1.4-.9.8-1.9,1-2.9,3.1-10.8-3.1-21.9-13.8-25.1l-17.3-5.2-16.7-5-38.2-11.4-17.8-5.3-204.3-60.9s-21-.2-39.6.1c-14.6.2-27.7.8-28.3,2-.6,1.2,10.6,8.5,23.2,16.4Z"/>
    <g>
      <rect class="cls-35" x="1750.4" y="1561.4" width="3.5" height="290.1" transform="translate(-378.2 2907.9) rotate(-73.7)"/>
      <rect class="cls-35" x="1745.8" y="1574.8" width="3.5" height="290.1" transform="translate(-394.4 2913) rotate(-73.7)"/>
    </g>
    <path class="cls-19" d="M1613.1,1693.8l11.2-38.8s-21-.2-39.6.1c-14.6.2-27.7.8-28.3,2-.6,1.1,10.6,8.5,23.2,16.4,15.7,9.8,33.5,20.2,33.5,20.2Z"/>
    <path class="cls-35" d="M1579.6,1673.5l5.1-18.4c-14.6.2-27.7.8-28.3,2-.6,1.1,10.6,8.5,23.2,16.4Z"/>
    <polygon class="cls-20" points="1872.7 1771.6 1889.3 1776.5 1901.4 1737.6 1884.7 1732.6 1872.7 1771.6"/>
  </g>
  <g>
    <path class="cls-24" d="M1193.8,1722.7c88.3-4.1,135.3-52.6,135.3-52.6,0,0,41.4,34.7,92.9,26.3,51.6-8.4,1.5,68.7-76.1,78.9-77.6,10.2-152.2-52.6-152.2-52.6Z"/>
    <path class="cls-19" d="M1327.1,1776.4c71-13.9,69.4-98.7,69.4-98.7,0,0,31.7,1.5,52.1-7.7,20.4-9.2,38.3-33.7,38.3-33.7,0,0-6.5,69.9-64.3,110.3-47.5,33.2-95.5,29.7-95.5,29.7Z"/>
  </g>
  <path class="cls-16" d="M862.8,1820c-8.7-3.4-16.9-9.3-21.5-15.1-3.9-4.8-5.6-9.5-4.7-13.7,2.2-10.7,86.8-60.5,136.8-70,20.9-3.9,34.8-.9,41.2,9.1,3.5,5.4,4.4,11.5,2.6,17.9-7.2,26.4-58.4,52.1-60.5,53.2-1.9.9-4.1.2-5-1.7-.9-1.8-.2-4.1,1.7-5,.5-.2,50.3-25.3,56.6-48.5,1.2-4.4.7-8.3-1.7-11.9-3.3-5.2-10.4-7.7-20.8-7.3-45.6,1.6-137.4,56-143.6,65.9-.2,1.8,1,4.4,3.2,7.2,5.9,7.2,18.8,15.1,29.4,15.2,10.9,0,72.2-36.6,90.1-58.1,4-4.8,3.8-6.5,3.7-6.5-3.5-5.2-38,7.2-73.9,26.7-1.8,1-4.1.3-5.1-1.5-1-1.8-.3-4.1,1.5-5.1,22.1-12,74.4-38.4,83.8-24.1,1.8,2.7,1.6,6.1-.6,10-11,20.2-83.4,66.2-99.6,66.1-4.4,0-9.1-1.1-13.6-2.9ZM843.7,1793.2h0Z"/>
</svg>