<?xml version="1.0" encoding="UTF-8"?>
<svg xmlns="http://www.w3.org/2000/svg" viewBox="0 0 1700 982.3">
  <defs>
    <style>
      .cls-1 {
        fill: #59595b;
      }

      .cls-1, .cls-2, .cls-3, .cls-4, .cls-5, .cls-6, .cls-7 {
        stroke-width: 0px;
      }

      .cls-2 {
        fill: #d67729;
      }

      .cls-8 {
        isolation: isolate;
      }

      .cls-3 {
        fill: #7db7c9;
      }

      .cls-4 {
        fill: #47748c;
      }

      .cls-5 {
        fill: #a5a6a9;
      }

      .cls-9 {
        opacity: .5;
      }

      .cls-9, .cls-10 {
        mix-blend-mode: multiply;
      }

      .cls-6 {
        fill: #e5e5e6;
      }

      .cls-7 {
        fill: #dbdbdb;
      }
    </style>
  </defs>
  <g class="cls-8">
    <g id="Objects">
      <path class="cls-6" d="M876.4,102.8h-73.1V29.7h73.1v73.1ZM807.9,98.3h64.1V34.3h-64.1v64.1Z"/>
      <path class="cls-6" d="M1295.1,858.2c-12.3,0-22.3,10-22.3,22.3s10,22.3,22.3,22.3,22.3-10,22.3-22.3-10-22.3-22.3-22.3ZM1295.1,899.9c-10.7,0-19.3-8.7-19.3-19.3s8.7-19.3,19.3-19.3,19.3,8.7,19.3,19.3-8.7,19.3-19.3,19.3Z"/>
      <path class="cls-6" d="M952.4,776.6c-43.1,0-78.1,35-78.1,78.1s35,78.1,78.1,78.1,78.1-35,78.1-78.1-35-78.1-78.1-78.1ZM952.4,926.1c-39.4,0-71.4-31.9-71.4-71.4s31.9-71.4,71.4-71.4,71.4,31.9,71.4,71.4-31.9,71.4-71.4,71.4Z"/>
      <path class="cls-6" d="M527,135.5c-34.2,0-61.9,27.7-61.9,61.9s27.7,61.9,61.9,61.9,61.9-27.7,61.9-61.9-27.7-61.9-61.9-61.9ZM527,254c-31.2,0-56.6-25.3-56.6-56.6s25.3-56.6,56.6-56.6,56.6,25.3,56.6,56.6-25.3,56.6-56.6,56.6Z"/>
      <path class="cls-6" d="M1303.3,206.5c-40.2,0-72.7,32.6-72.7,72.7s32.6,72.7,72.7,72.7,72.7-32.6,72.7-72.7-32.6-72.7-72.7-72.7ZM1303.3,345.6c-36.7,0-66.4-29.7-66.4-66.4s29.7-66.4,66.4-66.4,66.4,29.7,66.4,66.4-29.7,66.4-66.4,66.4Z"/>
      <path class="cls-6" d="M1626.4,746.1h-129.3v-129.3h129.3v129.3ZM1505,738.2h113.4v-113.4h-113.4v113.4Z"/>
      <path class="cls-6" d="M165.9,846.9H45.8v-120.1h120.1v120.1Z"/>
      <g>
        <path class="cls-6" d="M1568.6,392.4c0-6.9,5.6-12.6,12.6-12.6s12.6,5.6,12.6,12.6-5.6,12.6-12.6,12.6-12.6-5.6-12.6-12.6Z"/>
        <g class="cls-9">
          <path class="cls-6" d="M1581.2,404.9c-6.9,0-12.6-5.6-12.6-12.6s5.6-12.6,12.6-12.6v25.2Z"/>
        </g>
      </g>
      <g>
        <circle class="cls-6" cx="486.2" cy="96.7" r="12.6"/>
        <g class="cls-9">
          <path class="cls-6" d="M486.2,109.3c-6.9,0-12.6-5.6-12.6-12.6s5.6-12.6,12.6-12.6v25.2Z"/>
        </g>
      </g>
      <g>
        <circle class="cls-6" cx="249.4" cy="397" r="22.7"/>
        <g class="cls-9">
          <path class="cls-6" d="M249.4,419.7c-12.5,0-22.7-10.2-22.7-22.7s10.2-22.7,22.7-22.7v45.3Z"/>
        </g>
      </g>
      <g>
        <circle class="cls-5" cx="257.9" cy="907.2" r="16.1" transform="translate(-679 798.4) rotate(-67.5)"/>
        <g class="cls-9">
          <path class="cls-6" d="M257.9,923.4c-8.9,0-16.1-7.2-16.1-16.1s7.2-16.1,16.1-16.1v32.2Z"/>
        </g>
      </g>
      <g>
        <path class="cls-6" d="M288.3,956.5c0-5.3,4.3-9.5,9.5-9.5s9.5,4.3,9.5,9.5-4.3,9.5-9.5,9.5-9.5-4.3-9.5-9.5Z"/>
        <g class="cls-9">
          <path class="cls-6" d="M297.8,966c-5.3,0-9.5-4.3-9.5-9.5s4.3-9.5,9.5-9.5v19.1Z"/>
        </g>
      </g>
      <g>
        <rect class="cls-5" x="395.7" y="749.4" width="26.6" height="162.3"/>
        <rect class="cls-5" x="542.4" y="732.5" width="26.6" height="179.2"/>
        <rect class="cls-5" x="507.2" y="775.7" width="26.6" height="136"/>
        <rect class="cls-2" x="470.7" y="800.1" width="26.6" height="111.6"/>
        <rect class="cls-4" x="432.6" y="688.4" width="26.6" height="223.3"/>
        <polygon class="cls-1" points="571.1 932.2 371.9 932.2 371.9 669.9 375.5 669.9 375.5 928.6 571.1 928.6 571.1 932.2"/>
        <rect class="cls-1" x="576.4" y="928.6" width="11.5" height="3.6"/>
        <rect class="cls-1" x="591.9" y="928.6" width="11.5" height="3.6"/>
        <polygon class="cls-1" points="608.1 918 626.1 930.4 608.1 942.8 608.1 918"/>
      </g>
      <g>
        <rect class="cls-2" x="1236.7" y="937" width="34.7" height="3.6"/>
        <rect class="cls-2" x="959.2" y="941.9" width="42.6" height="3.6" transform="translate(-380.3 932.8) rotate(-43.4)"/>
        <rect class="cls-2" x="1037.2" y="918.7" width="3.6" height="46.3" transform="translate(-362.2 997.1) rotate(-44.5)"/>
        <rect class="cls-2" x="1181.5" y="733.8" width="3.6" height="47.6" transform="translate(-119.5 231.3) rotate(-10.6)"/>
        <rect class="cls-2" x="1207.4" y="771.3" width="47.3" height="3.6" transform="translate(-222.5 753.7) rotate(-31.4)"/>
        <rect class="cls-2" x="975.3" y="851.1" width="3.6" height="60.7" transform="translate(-314.7 1132.4) rotate(-53)"/>
        <g>
          <polygon class="cls-4" points="1219.3 781 1192.4 795.2 1165.4 781 1192.4 766.7 1219.3 781"/>
          <polygon class="cls-7" points="1165.4 781 1165.4 810.1 1192.4 824.4 1192.4 795.2 1165.4 781"/>
          <polygon class="cls-5" points="1219.2 781 1219.2 810.1 1192.3 824.4 1192.3 795.2 1219.2 781"/>
        </g>
        <g>
          <polygon class="cls-4" points="1239 921.6 1212 935.9 1185 921.6 1212 907.4 1239 921.6"/>
          <polygon class="cls-7" points="1185 921.6 1185 950.8 1212 965 1212 935.9 1185 921.6"/>
          <polygon class="cls-5" points="1238.9 921.6 1238.9 950.8 1211.9 965 1211.9 935.9 1238.9 921.6"/>
        </g>
        <g>
          <polygon class="cls-4" points="1036.4 899.8 1009.4 914 982.5 899.8 1009.4 885.5 1036.4 899.8"/>
          <polygon class="cls-7" points="982.5 899.8 982.5 928.9 1009.4 943.2 1009.4 914 982.5 899.8"/>
          <polygon class="cls-5" points="1036.3 899.8 1036.3 928.9 1009.4 943.2 1009.4 914 1036.3 899.8"/>
        </g>
        <rect class="cls-1" x="1049.4" y="950.9" width="24.4" height="24.4"/>
        <rect class="cls-1" x="1166.7" y="717.1" width="24.4" height="24.4"/>
        <rect class="cls-1" x="1236.9" y="746.9" width="24.4" height="24.4"/>
        <rect class="cls-1" x="1271.3" y="926.6" width="24.4" height="24.4"/>
        <rect class="cls-1" x="945.9" y="950.9" width="24.4" height="24.4"/>
        <rect class="cls-1" x="940.7" y="846.8" width="24.4" height="24.4"/>
        <path class="cls-1" d="M1035.3,901.6l-2.2-2.9,5.7-4.4,2.2,2.9-5.7,4.4ZM1043.8,894.9l-2.2-2.9,5.7-4.4,2.2,2.9-5.7,4.4ZM1052.4,888.3l-2.2-2.9,5.7-4.4,2.2,2.9-5.7,4.4ZM1061,881.7l-2.2-2.9,5.7-4.4,2.2,2.9-5.7,4.4ZM1069.6,875.1l-2.2-2.9,5.7-4.4,2.2,2.9-5.7,4.4ZM1078.2,868.5l-2.2-2.9,5.7-4.4,2.2,2.9-5.7,4.4Z"/>
        <path class="cls-1" d="M1197.9,915l-1.1-.5,1.6-3.2,1.1.5-1.6,3.2ZM1193.6,912.9l-6.5-3.2,1.6-3.2,6.5,3.2-1.6,3.2ZM1183.8,908.2l-6.5-3.2,1.6-3.2,6.5,3.2-1.6,3.2ZM1174.1,903.4l-6.5-3.2,1.6-3.2,6.5,3.2-1.6,3.2ZM1164.4,898.6l-6.5-3.2,1.6-3.2,6.5,3.2-1.6,3.2ZM1154.6,893.9l-6.5-3.2,1.6-3.2,6.5,3.2-1.6,3.2ZM1144.9,889.1l-6.5-3.2,1.6-3.2,6.5,3.2-1.6,3.2Z"/>
        <path class="cls-1" d="M1147.4,844.1l-2.2-2.8,5.7-4.4,2.2,2.8-5.7,4.4ZM1155.9,837.5l-2.2-2.8,5.7-4.4,2.2,2.8-5.7,4.4ZM1164.4,830.8l-2.2-2.8,5.7-4.4,2.2,2.8-5.7,4.4ZM1173,824.2l-2.2-2.8,5.7-4.4,2.2,2.8-5.7,4.4Z"/>
        <g>
          <polygon class="cls-2" points="1157.7 838.3 1112.2 862.3 1066.7 838.3 1112.2 814.3 1157.7 838.3"/>
          <polygon class="cls-7" points="1066.7 838.3 1066.7 887.5 1112.2 911.5 1112.2 862.3 1066.7 838.3"/>
          <polygon class="cls-5" points="1157.5 838.3 1157.5 887.5 1112.1 911.5 1112.1 862.3 1157.5 838.3"/>
        </g>
      </g>
      <g>
        <rect class="cls-1" x="64.6" y="545.3" width="3.6" height="24.2" transform="translate(-382 219.7) rotate(-46.2)"/>
        <path class="cls-1" d="M128.2,546.9l-3.5-.7,1-5.1,3.5.7-1,5.1ZM129.9,538.2l-3.5-.7,1.4-7.1,3.5.7-1.4,7.1ZM132.1,527.6l-3.5-.7,1.4-7.1,3.5.7-1.4,7.1ZM134.2,517l-3.5-.7,1.4-7.1,3.5.7-1.4,7.1ZM136.3,506.4l-3.5-.7,1.4-7.1,3.5.7-1.4,7.1ZM138.5,495.8l-3.5-.7,1.4-7.1,3.5.7-1.4,7.1Z"/>
        <rect class="cls-1" x="139.6" y="536.8" width="55.3" height="3.6" transform="translate(-333.9 280) rotate(-45.4)"/>
        <rect class="cls-1" x="177.2" y="603.3" width="3.6" height="61.4" transform="translate(-461.2 478.7) rotate(-60.6)"/>
        <rect class="cls-1" x="17.3" y="635.2" width="63.6" height="3.6" transform="translate(-354.2 141.4) rotate(-34.7)"/>
        <g>
          <path class="cls-4" d="M115.2,546.6c-28.3,0-51.2,22.9-51.2,51.2s22.9,51.2,51.2,51.2,51.2-22.9,51.2-51.2-22.9-51.2-51.2-51.2ZM115.2,632.1c-18.9,0-34.3-15.4-34.3-34.3s15.4-34.3,34.3-34.3,34.3,15.4,34.3,34.3-15.4,34.3-34.3,34.3Z"/>
          <g class="cls-9">
            <path class="cls-4" d="M115.2,632.1c-18.9,0-34.3-15.4-34.3-34.3s15.4-34.3,34.3-34.3v-17c-28.3,0-51.2,22.9-51.2,51.2s22.9,51.2,51.2,51.2v-17Z"/>
          </g>
        </g>
        <path class="cls-3" d="M43.8,512.6c-11.5,0-20.9,9.4-20.9,20.9s9.4,20.9,20.9,20.9,20.9-9.4,20.9-20.9-9.4-20.9-20.9-20.9ZM43.8,544c-5.8,0-10.6-4.7-10.6-10.6s4.7-10.6,10.6-10.6,10.6,4.7,10.6,10.6-4.7,10.6-10.6,10.6Z"/>
        <g class="cls-9">
          <path class="cls-3" d="M43.8,547.4c-7.7,0-14-6.3-14-14s6.3-14,14-14v-6.9c-11.5,0-20.9,9.4-20.9,20.9s9.4,20.9,20.9,20.9v-6.9Z"/>
        </g>
        <circle class="cls-2" cx="138.1" cy="485" r="22.9" transform="translate(-302.5 239.7) rotate(-45)"/>
        <circle class="cls-5" cx="22.9" cy="655.1" r="22.9" transform="translate(-619.9 526.9) rotate(-76.7)"/>
        <circle class="cls-5" cx="186.7" cy="518.9" r="13" transform="translate(-351.1 640.9) rotate(-83)"/>
        <circle class="cls-5" cx="205.8" cy="649.1" r="13" transform="translate(-473.2 700.2) rotate(-76.7)"/>
      </g>
      <g>
        <g>
          <path class="cls-3" d="M1065,751.5l-3.3-4.3c20.1-15.2,38.6-32.7,54.8-52,16.3-19.4,30.4-40.7,41.9-63.2,11.7-22.9,20.7-47.2,26.7-72.2,6.2-25.7,9.4-52.3,9.4-79,0-45.1-8.8-88.8-26.2-129.9-16.8-39.7-40.9-75.4-71.5-106.1-30.7-30.7-66.3-54.7-106.1-71.5-41.1-17.4-84.9-26.2-129.9-26.2v-5.4c45.8,0,90.2,9,132,26.7,40.4,17.1,76.7,41.5,107.8,72.7,31.1,31.1,55.6,67.4,72.7,107.8,17.7,41.8,26.7,86.2,26.7,132s-3.2,54.2-9.6,80.3c-6.2,25.4-15.3,50.1-27.2,73.4-11.7,22.9-26,44.5-42.6,64.3-16.5,19.6-35.2,37.4-55.7,52.9Z"/>
          <polygon class="cls-4" points="878.8 160.3 848.6 145 878.8 129.8 878.8 160.3"/>
        </g>
        <g>
          <g>
            <path class="cls-7" d="M1076.6,469l71.3-2.9c-1.7-42.7-12.7-82.9-31-118.8l-63.6,32.4c13.8,27,22,57.2,23.3,89.3Z"/>
            <path class="cls-7" d="M861,693.5c-59.1,0-112.7-23.8-151.7-62.3l-50.1,50.7c51.9,51.3,123.2,82.9,201.9,82.9s9.8-.1,14.7-.4l-3.7-71.2c-3.7.2-7.3.3-11.1.3Z"/>
            <path class="cls-7" d="M1057.1,567.9l64.8,29.8c4.3-9.4,8.2-19.1,11.5-29l-67.6-22.8c-2.5,7.5-5.4,14.8-8.7,21.9Z"/>
            <path class="cls-7" d="M976.3,660.1l38.1,60.3c35-22.2,64.8-51.7,87.4-86.3l-59.8-38.9c-17,26.1-39.4,48.2-65.7,64.9Z"/>
            <path class="cls-7" d="M1074.4,509.7c-1.4,9.5-3.4,18.7-6,27.7l68.5,19.9c3.5-12,6.2-24.4,8-37l-70.5-10.7Z"/>
            <path class="cls-7" d="M1075.6,500.8l70.9,7.7c.6-5.2,1-10.5,1.3-15.8l-71.2-3.7c-.2,4-.5,7.9-.9,11.8Z"/>
            <path class="cls-5" d="M1043.4,362.3l60.3-38.1c-48.4-76.4-131.8-128.3-227.7-133.3l-3.7,71.2c72.1,3.7,134.8,42.8,171.2,100.2Z"/>
            <path class="cls-7" d="M652.8,534.8l-68.8,18.9c3.4,12.3,7.6,24.3,12.5,36l65.7-27.8c-3.7-8.7-6.8-17.8-9.4-27Z"/>
            <path class="cls-7" d="M881.1,692.6l6.6,71c30-2.8,58.6-10.1,85.2-21.4l-27.8-65.7c-20,8.5-41.5,14-64,16.1Z"/>
            <path class="cls-7" d="M645.1,477.7c0-64.8,28.5-122.9,73.7-162.4l-46.6-54c-60.3,52.6-98.4,130.1-98.4,216.4s2.5,43.6,7.2,64.3l69.5-16c-3.6-15.5-5.4-31.7-5.4-48.3Z"/>
            <path class="cls-7" d="M684.9,602.5l-58.2,41.3c7.4,10.4,15.4,20.2,24,29.5l52.2-48.6c-6.5-7-12.5-14.4-18.1-22.2Z"/>
            <path class="cls-7" d="M953.4,672.8l30.5,64.5c2.5-1.2,5-2.4,7.5-3.7l-32.4-63.6c-1.9.9-3.7,1.9-5.6,2.8Z"/>
            <path class="cls-7" d="M665.8,570.1l-64.5,30.5c5.5,11.5,11.7,22.6,18.6,33.2l59.9-38.8c-5.2-8-9.8-16.3-13.9-25Z"/>
            <path class="cls-7" d="M852.3,262l-2.9-71.3c-18.3.7-36.2,3.2-53.4,7.2l16.4,69.5c12.9-3,26.3-4.8,40-5.3Z"/>
            <path class="cls-7" d="M793.4,272.6l-22.7-67.6c-28,9.3-54.1,22.7-77.6,39.7l41.4,58.1c17.8-12.9,37.6-23.1,58.9-30.1Z"/>
          </g>
          <g>
            <path class="cls-2" d="M1001.4,786.3l-2.2-4.9c2.2-1,4.4-2,6.5-3l2.3,4.9c-2.2,1-4.4,2.1-6.6,3Z"/>
            <path class="cls-2" d="M863.8,815.7c-3.4,0-6.8,0-10.2-.2l.2-5.4c4.7.1,9.5.2,14.2.1v5.4c-1.4,0-2.8,0-4.2,0ZM875.3,815.5l-.2-5.4c4.7-.2,9.5-.4,14.2-.8l.4,5.4c-4.8.4-9.7.6-14.4.8ZM846.3,815.2c-4.8-.2-9.7-.6-14.4-1.1l.5-5.4c4.7.4,9.5.8,14.2,1l-.3,5.4ZM897,814l-.5-5.4c4.7-.5,9.5-1,14.1-1.7l.8,5.4c-4.8.7-9.6,1.3-14.4,1.7ZM824.7,813.4c-4.8-.6-9.6-1.2-14.3-2l.9-5.3c4.7.7,9.4,1.4,14.1,1.9l-.6,5.4ZM918.5,811.2l-.9-5.3c4.7-.8,9.4-1.6,14-2.6l1.1,5.3c-4.7,1-9.5,1.9-14.2,2.7ZM803.2,810.2c-4.7-.9-9.5-1.8-14.2-2.9l1.2-5.3c4.6,1,9.3,2,14,2.8l-1,5.3ZM939.8,807l-1.2-5.3c4.6-1.1,9.2-2.2,13.8-3.5l1.4,5.2c-4.6,1.3-9.3,2.5-14,3.6ZM782,805.7c-4.7-1.2-9.4-2.4-14-3.8l1.5-5.2c4.5,1.3,9.2,2.6,13.7,3.7l-1.3,5.3ZM960.7,801.4l-1.6-5.2c4.5-1.4,9.1-2.8,13.5-4.4l1.8,5.1c-4.5,1.6-9.2,3.1-13.8,4.5ZM761.1,799.8c-4.6-1.5-9.2-3-13.7-4.7l1.9-5.1c4.4,1.6,9,3.2,13.5,4.6l-1.6,5.2ZM981.3,794.5l-1.9-5.1c4.4-1.6,8.9-3.4,13.2-5.2l2.1,5c-4.4,1.9-9,3.7-13.5,5.3ZM740.7,792.6c-4.5-1.7-9-3.6-13.4-5.5l2.2-5c4.3,1.9,8.8,3.7,13.2,5.4l-2,5ZM720.7,784.1c-4.4-2-8.7-4.2-13-6.4l2.5-4.8c4.2,2.2,8.5,4.3,12.8,6.3l-2.3,4.9ZM701.3,774.3c-4.2-2.3-8.4-4.7-12.6-7.2l2.8-4.6c4,2.4,8.2,4.8,12.4,7.1l-2.6,4.8ZM682.6,763.4c-4.1-2.6-8.1-5.2-12.1-8l3.1-4.5c3.9,2.7,7.9,5.3,11.9,7.8l-2.9,4.6ZM664.6,751.2c-3.9-2.8-7.8-5.7-11.5-8.7l3.4-4.3c3.7,2.9,7.5,5.8,11.3,8.6l-3.2,4.4ZM647.5,738c-3.7-3.1-7.4-6.2-10.9-9.4l3.6-4c3.5,3.2,7.1,6.3,10.8,9.3l-3.4,4.2ZM631.2,723.7c-3.5-3.3-7-6.7-10.3-10.1l3.9-3.8c3.3,3.4,6.7,6.7,10.2,9.9l-3.7,3.9ZM615.9,708.4c-3.3-3.5-6.5-7.1-9.6-10.8l4.1-3.5c3.1,3.6,6.3,7.1,9.5,10.6l-4,3.7ZM601.6,692.1c-3-3.7-6.1-7.5-8.9-11.4l4.3-3.3c2.8,3.8,5.8,7.5,8.8,11.2l-4.2,3.4ZM588.4,674.9c-2.8-3.9-5.6-7.9-8.2-11.9l4.5-3c2.6,4,5.3,7.9,8.1,11.7l-4.4,3.2ZM576.3,656.9c-2.5-4.1-5-8.2-7.4-12.4l4.7-2.7c2.3,4.1,4.8,8.2,7.3,12.2l-4.6,2.9ZM565.4,638.2c-2.3-4.2-4.5-8.5-6.6-12.9l4.9-2.4c2.1,4.3,4.3,8.5,6.5,12.7l-4.8,2.6ZM555.7,618.8c-2-4.4-4-8.8-5.8-13.3l5-2.1c1.8,4.4,3.7,8.8,5.7,13.1l-4.9,2.3ZM547.2,598.8c-1.7-4.5-3.4-9.1-4.9-13.6l5.1-1.7c1.5,4.5,3.2,9,4.9,13.4l-5,2ZM540,578.3c-1.4-4.6-2.8-9.3-4.1-13.9l5.2-1.4c1.2,4.6,2.6,9.2,4,13.7l-5.2,1.6ZM534.1,557.4c-1.2-4.7-2.2-9.4-3.2-14.1l5.3-1.1c.9,4.6,2,9.3,3.1,13.9l-5.3,1.3ZM529.6,536.2c-.8-4.7-1.6-9.5-2.3-14.3l5.4-.7c.6,4.7,1.4,9.4,2.2,14.1l-5.3,1ZM526.4,514.7c-.5-4.8-1-9.6-1.3-14.4l5.4-.4c.3,4.7.8,9.5,1.3,14.2l-5.4.6ZM524.7,493c-.2-4.8-.4-9.7-.4-14.5h5.4c0,4.7.2,9.5.4,14.2l-5.4.3ZM529.7,471.4h-5.4c0-4.9.3-9.8.5-14.5l5.4.3c-.3,4.7-.5,9.5-.5,14.2ZM530.7,450.1l-5.4-.4c.4-4.8.9-9.6,1.5-14.4l5.4.7c-.6,4.7-1.1,9.5-1.4,14.2ZM533.1,428.9l-5.4-.8c.7-4.8,1.5-9.6,2.4-14.3l5.3,1c-.9,4.6-1.7,9.4-2.3,14ZM536.9,407.9l-5.3-1.1c1-4.7,2.1-9.4,3.3-14.1l5.2,1.3c-1.2,4.6-2.3,9.2-3.2,13.9ZM541.9,387.1l-5.2-1.5c1.3-4.6,2.7-9.3,4.2-13.9l5.2,1.7c-1.5,4.5-2.8,9.1-4.1,13.6ZM548.3,366.7l-5.1-1.8c1.6-4.5,3.3-9.1,5-13.6l5,2c-1.7,4.4-3.4,8.9-5,13.3ZM556,346.8l-5-2.1c1.9-4.4,3.8-8.9,5.9-13.2l4.9,2.3c-2,4.3-4,8.6-5.8,13Z"/>
            <path class="cls-2" d="M564.9,327.3l-4.8-2.4c1.1-2.2,2.2-4.3,3.3-6.5l4.8,2.5c-1.1,2.1-2.2,4.2-3.3,6.4Z"/>
          </g>
          <path class="cls-5" d="M860.8,793c-42.2,0-83.1-8.3-121.6-24.5-37.2-15.7-70.6-38.2-99.3-66.9-28.7-28.7-51.2-62.1-66.9-99.3-16.3-38.5-24.5-79.4-24.5-121.6s8.3-83.1,24.5-121.6c15.7-37.2,38.2-70.6,66.9-99.3,28.7-28.7,62.1-51.2,99.3-66.9,38.5-16.3,79.4-24.5,121.6-24.5s51.5,3.2,76.3,9.4c24.1,6,47.4,15,69.4,26.6,43.1,22.8,80.9,55.9,109.2,95.8l-3.5,2.5c-27.9-39.3-65.1-72-107.7-94.5-21.7-11.5-44.7-20.3-68.5-26.2-24.5-6.1-49.8-9.2-75.2-9.2-41.6,0-81.9,8.1-119.9,24.2-36.7,15.5-69.6,37.7-97.9,66-28.3,28.3-50.5,61.2-66,97.9-16.1,38-24.2,78.3-24.2,119.9s8.1,81.9,24.2,119.9c15.5,36.7,37.7,69.6,66,97.9,28.3,28.3,61.2,50.5,97.9,66,38,16.1,78.3,24.2,119.9,24.2v4.3Z"/>
        </g>
      </g>
      <g>
        <path class="cls-2" d="M1119.4,108.7c-11.2,0-21.4,4.5-28.8,11.7l28.8,29.7v-41.4Z"/>
        <path class="cls-5" d="M1083.8,185.3l33.8-23.9-28.8-29.7c-7.8,7.5-12.6,18.1-12.6,29.7s2.8,17.2,7.6,23.9Z"/>
        <path class="cls-7" d="M1168.3,155.7c-.3-1.4-.6-2.9-1-4.2-.2-.6-.4-1.2-.6-1.8-.4-1.3-.9-2.5-1.5-3.8-.2-.5-.5-1.1-.7-1.6-.6-1.1-1.2-2.3-1.9-3.4-.3-.5-.6-1-.9-1.4-.8-1.1-1.6-2.3-2.5-3.3-.4-.4-.7-.8-1.1-1.2-.8-.9-1.7-1.8-2.6-2.6-.4-.4-.8-.7-1.2-1.1-.9-.8-1.9-1.6-2.9-2.3-.5-.3-.9-.6-1.4-1-1.1-.7-2.1-1.4-3.3-2-.5-.3-1-.5-1.5-.8-1.3-.6-2.7-1.2-4.1-1.7-.6-.2-1.2-.4-1.7-.6-1.4-.4-2.7-.8-4.2-1.1-.7-.1-1.3-.3-2-.4-1.6-.2-3.2-.4-4.8-.5-.6,0-1.1,0-1.7,0s-.8.4-.8.8v41l-2.9,2.1-8,5.7-18,12.7-4.5,3.2c-.2.1-.3.3-.3.5,0,.2,0,.4.1.6,0,0,.1.1.2.2.7,1,1.5,2,2.3,2.9.4.4.7.8,1.1,1.2.8.9,1.7,1.8,2.6,2.6.4.4.8.7,1.2,1.1,1.1.9,2.2,1.7,3.3,2.5.5.3.9.6,1.4.9,1.1.7,2.2,1.3,3.4,1.9.5.3,1,.5,1.6.8,1.2.6,2.5,1,3.8,1.5.6.2,1.2.4,1.8.6,1.4.4,2.8.8,4.2,1,.7.1,1.3.2,2,.3,1.8.2,3.6.4,5.4.4,0,0,0,0,.1,0,.8,0,1.5,0,2.3,0,2-.1,4-.4,6-.8,1-.2,2.1-.5,3.1-.7,3.1-.9,6-2,8.8-3.5,2.8-1.5,5.4-3.4,7.8-5.5,1.3-1.2,2.6-2.4,3.8-3.8,2.1-2.4,3.9-5,5.5-7.8,1.5-2.8,2.7-5.7,3.5-8.8.3-1,.5-2,.7-3.1.4-2,.6-4,.8-6,0-.8,0-1.5,0-2.3s0,0,0-.1c0-1.8-.1-3.7-.4-5.4,0-.7-.2-1.3-.3-2Z"/>
      </g>
      <path class="cls-1" d="M575.6,657.4c-1.6,0-3.3-.1-5-.4h-86.2c-.1,0-.3,0-.4,0-16.2-.6-29.3-14.2-29.3-30.4s3.1-15.5,8.6-21.2c5.2-5.4,12.1-8.6,19.5-9.1,2.2-9,10.3-15.4,19.7-15.4s6.8.9,9.8,2.5c7.9-10.7,20.4-17.1,33.8-17.1s18.4,3.2,25.8,9c7.1,5.6,12.3,13.3,14.6,21.9,5.8,2.2,10.7,5.9,14.4,11,3.9,5.4,5.9,11.6,5.9,18.1,0,17.2-14,31.1-31.1,31.1ZM570.7,653.4h.3c1.5.3,3,.4,4.5.4,15.2,0,27.5-12.3,27.5-27.5s-7.7-22.4-18.7-26.1l-.9-.3-.2-1c-2-8.2-6.9-15.6-13.6-20.9-6.8-5.3-15.1-8.2-23.6-8.2-12.8,0-24.7,6.3-31.8,16.9l-1,1.5-1.5-1c-2.8-1.8-6-2.8-9.3-2.8-8.2,0-15.1,5.8-16.5,13.8l-.3,1.5h-1.5c-7,.3-13.5,3.1-18.4,8.2-4.9,5-7.6,11.7-7.6,18.7,0,14.3,11.6,26.3,25.9,26.8h.2s86.3,0,86.3,0Z"/>
      <g>
        <rect class="cls-1" x="655.4" y="831.9" width="91.1" height="150.4"/>
        <rect class="cls-7" x="668.8" y="847" width="64.3" height="110.2"/>
        <path class="cls-7" d="M695,972.1c0-3.3,2.6-5.9,5.9-5.9s5.9,2.6,5.9,5.9-2.6,5.9-5.9,5.9-5.9-2.6-5.9-5.9Z"/>
        <rect class="cls-2" x="677" y="855.5" width="11.8" height="11.8"/>
        <rect class="cls-2" x="695" y="855.5" width="11.8" height="11.8"/>
        <rect class="cls-2" x="713.1" y="855.5" width="11.8" height="11.8"/>
        <rect class="cls-2" x="677" y="872.2" width="11.8" height="11.8"/>
        <rect class="cls-2" x="695" y="872.2" width="11.8" height="11.8"/>
        <rect class="cls-2" x="713.1" y="872.2" width="11.8" height="11.8"/>
        <rect class="cls-2" x="677" y="888.9" width="11.8" height="11.8"/>
        <rect class="cls-2" x="695" y="888.9" width="11.8" height="11.8"/>
        <rect class="cls-2" x="713.1" y="888.9" width="11.8" height="11.8"/>
        <rect class="cls-2" x="677" y="905.6" width="11.8" height="11.8"/>
        <rect class="cls-2" x="695" y="905.6" width="11.8" height="11.8"/>
        <rect class="cls-2" x="677" y="922.4" width="11.8" height="11.8"/>
        <rect class="cls-2" x="695" y="922.4" width="11.8" height="11.8"/>
        <rect class="cls-2" x="713.1" y="905.6" width="11.8" height="11.8"/>
        <rect class="cls-5" x="677" y="939.6" width="47.9" height="10.2"/>
        <path class="cls-6" d="M741.2,963.1h-78.7l-.8-122.4h78.7l.8,122.4ZM664.3,961.3h75.1l-.8-118.7h-75.1l.8,118.7Z"/>
      </g>
      <g>
        <rect class="cls-4" x="361.4" y="528.2" width="24.5" height="18.5" transform="translate(-270.6 421.6) rotate(-45)"/>
        <circle class="cls-5" cx="418.4" cy="492.6" r="59.3"/>
        <circle class="cls-1" cx="418.4" cy="492.6" r="42"/>
        <rect class="cls-5" x="353.1" y="535.8" width="13.9" height="30.3" transform="translate(-284.2 416) rotate(-45)"/>
        <rect class="cls-2" x="293.8" y="569.8" width="71.9" height="22.9" transform="translate(-314.5 403.4) rotate(-45)"/>
        <path class="cls-1" d="M418.4,545.8c-14.2,0-27.6-5.5-37.6-15.6-20.7-20.7-20.7-54.5,0-75.2,10-10,23.4-15.6,37.6-15.6s27.6,5.5,37.6,15.6c20.7,20.7,20.7,54.5,0,75.2-10,10-23.4,15.6-37.6,15.6ZM418.4,441.2c-13.7,0-26.6,5.3-36.3,15-20,20-20,52.6,0,72.7,9.7,9.7,22.6,15,36.3,15s26.6-5.3,36.3-15c20-20,20-52.6,0-72.7-9.7-9.7-22.6-15-36.3-15Z"/>
      </g>
      <g>
        <g>
          <polygon class="cls-5" points="459.5 251.2 432.8 251.2 432.8 247.6 458.3 247.6 474.1 235.7 499.5 235.7 499.5 239.3 475.3 239.3 459.5 251.2"/>
          <polygon class="cls-5" points="372.8 202.9 369.2 202.9 369.2 154.9 384.9 118.4 388.2 119.9 372.8 155.6 372.8 202.9"/>
          <polygon class="cls-5" points="480.9 225 432.8 225 432.8 221.4 480.1 221.4 515.9 206 517.3 209.3 480.9 225"/>
          <polygon class="cls-5" points="398.6 202.9 395 202.9 395 174.2 382.7 156.9 385.7 154.8 398.6 173 398.6 202.9"/>
          <path class="cls-5" d="M376.5,202.9c0,3-2.5,5.5-5.5,5.5s-5.5-2.5-5.5-5.5,2.5-5.5,5.5-5.5,5.5,2.5,5.5,5.5Z"/>
          <path class="cls-5" d="M402.3,202.9c0,3-2.5,5.5-5.5,5.5s-5.5-2.5-5.5-5.5,2.5-5.5,5.5-5.5,5.5,2.5,5.5,5.5Z"/>
          <circle class="cls-5" cx="432.8" cy="249.4" r="5.5"/>
          <path class="cls-5" d="M522.1,207.6c0,3-2.5,5.5-5.5,5.5s-5.5-2.5-5.5-5.5,2.5-5.5,5.5-5.5,5.5,2.5,5.5,5.5Z"/>
          <path class="cls-5" d="M505,237.5c0,3-2.5,5.5-5.5,5.5s-5.5-2.5-5.5-5.5,2.5-5.5,5.5-5.5,5.5,2.5,5.5,5.5Z"/>
          <path class="cls-5" d="M438.3,223.2c0,3-2.5,5.5-5.5,5.5s-5.5-2.5-5.5-5.5,2.5-5.5,5.5-5.5,5.5,2.5,5.5,5.5Z"/>
          <polygon class="cls-5" points="343.4 202.9 339.7 202.9 339.7 173.6 315.9 131.3 319.1 129.5 343.4 172.7 343.4 202.9"/>
          <circle class="cls-5" cx="341.6" cy="202.9" r="5.5"/>
          <path class="cls-5" d="M323,130.4c0,3-2.5,5.5-5.5,5.5s-5.5-2.5-5.5-5.5,2.5-5.5,5.5-5.5,5.5,2.5,5.5,5.5Z"/>
          <path class="cls-5" d="M389.7,155.9c0,3-2.5,5.5-5.5,5.5s-5.5-2.5-5.5-5.5,2.5-5.5,5.5-5.5,5.5,2.5,5.5,5.5Z"/>
          <g>
            <polygon class="cls-5" points="418.7 202.9 415.1 202.9 415.1 155.1 439.9 129.2 442.5 131.7 418.7 156.6 418.7 202.9"/>
            <path class="cls-5" d="M422.4,202.9c0,3-2.5,5.5-5.5,5.5s-5.5-2.5-5.5-5.5,2.5-5.5,5.5-5.5,5.5,2.5,5.5,5.5Z"/>
            <path class="cls-5" d="M444.7,131.6c0,3-2.5,5.5-5.5,5.5s-5.5-2.5-5.5-5.5,2.5-5.5,5.5-5.5,5.5,2.5,5.5,5.5Z"/>
          </g>
          <g>
            <polygon class="cls-5" points="504.9 298 480 274.2 433.7 274.2 433.7 270.6 481.5 270.6 507.4 295.4 504.9 298"/>
            <path class="cls-5" d="M433.7,277.9c-3,0-5.5-2.5-5.5-5.5s2.5-5.5,5.5-5.5,5.5,2.5,5.5,5.5-2.5,5.5-5.5,5.5Z"/>
            <path class="cls-5" d="M505,300.2c-3,0-5.5-2.5-5.5-5.5s2.5-5.5,5.5-5.5,5.5,2.5,5.5,5.5-2.5,5.5-5.5,5.5Z"/>
          </g>
          <polygon class="cls-5" points="371.8 400 368.5 398.6 383.9 362.8 383.9 315.6 387.5 315.6 387.5 363.6 371.8 400"/>
          <polygon class="cls-5" points="371.1 363.7 358.1 345.5 358.1 315.6 361.7 315.6 361.7 344.3 374 361.6 371.1 363.7"/>
          <polygon class="cls-5" points="316.8 389.3 314.2 386.8 338 361.9 338 315.6 341.6 315.6 341.6 363.4 316.8 389.3"/>
          <path class="cls-5" d="M380.2,315.6c0-3,2.5-5.5,5.5-5.5s5.5,2.5,5.5,5.5-2.5,5.5-5.5,5.5-5.5-2.5-5.5-5.5Z"/>
          <path class="cls-5" d="M354.4,315.6c0-3,2.5-5.5,5.5-5.5s5.5,2.5,5.5,5.5-2.5,5.5-5.5,5.5-5.5-2.5-5.5-5.5Z"/>
          <path class="cls-5" d="M334.4,315.6c0-3,2.5-5.5,5.5-5.5s5.5,2.5,5.5,5.5-2.5,5.5-5.5,5.5-5.5-2.5-5.5-5.5Z"/>
          <polygon class="cls-5" points="437.6 389 413.4 345.8 413.4 315.6 417 315.6 417 344.8 440.8 387.2 437.6 389"/>
          <path class="cls-5" d="M409.7,315.6c0-3,2.5-5.5,5.5-5.5s5.5,2.5,5.5,5.5-2.5,5.5-5.5,5.5-5.5-2.5-5.5-5.5Z"/>
          <path class="cls-5" d="M433.7,388.1c0-3,2.5-5.5,5.5-5.5s5.5,2.5,5.5,5.5-2.5,5.5-5.5,5.5-5.5-2.5-5.5-5.5Z"/>
          <path class="cls-5" d="M364.7,399.3c0-3,2.5-5.5,5.5-5.5s5.5,2.5,5.5,5.5-2.5,5.5-5.5,5.5-5.5-2.5-5.5-5.5Z"/>
          <path class="cls-5" d="M367.1,362.6c0-3,2.5-5.5,5.5-5.5s5.5,2.5,5.5,5.5-2.5,5.5-5.5,5.5-5.5-2.5-5.5-5.5Z"/>
          <g>
            <polygon class="cls-5" points="479.7 309.8 462.4 297.5 433.7 297.5 433.7 293.9 463.6 293.9 481.8 306.9 479.7 309.8"/>
            <path class="cls-5" d="M433.7,290.2c-3,0-5.5,2.5-5.5,5.5s2.5,5.5,5.5,5.5,5.5-2.5,5.5-5.5-2.5-5.5-5.5-5.5Z"/>
            <path class="cls-5" d="M480.7,302.8c-3,0-5.5,2.5-5.5,5.5s2.5,5.5,5.5,5.5,5.5-2.5,5.5-5.5-2.5-5.5-5.5-5.5Z"/>
          </g>
          <g>
            <polygon class="cls-5" points="324.8 223.1 298.1 223.1 282.3 211.3 258.1 211.3 258.1 207.7 283.5 207.7 299.3 219.5 324.8 219.5 324.8 223.1"/>
            <circle class="cls-5" cx="324.8" cy="221.3" r="5.5"/>
            <path class="cls-5" d="M252.6,209.5c0,3,2.5,5.5,5.5,5.5s5.5-2.5,5.5-5.5-2.5-5.5-5.5-5.5-5.5,2.5-5.5,5.5Z"/>
          </g>
          <g>
            <polygon class="cls-5" points="324.8 250.6 276.7 250.6 240.3 234.9 241.7 231.6 277.5 247 324.8 247 324.8 250.6"/>
            <path class="cls-5" d="M235.5,233.3c0,3,2.5,5.5,5.5,5.5s5.5-2.5,5.5-5.5-2.5-5.5-5.5-5.5-5.5,2.5-5.5,5.5Z"/>
            <circle class="cls-5" cx="324.8" cy="248.8" r="5.5"/>
          </g>
          <g>
            <polygon class="cls-5" points="253.8 323.8 251.4 321.2 277.3 296.4 325.1 296.4 325.1 300 278.8 300 253.8 323.8"/>
            <path class="cls-5" d="M325.1,303.7c3,0,5.5-2.5,5.5-5.5s-2.5-5.5-5.5-5.5-5.5,2.5-5.5,5.5,2.5,5.5,5.5,5.5Z"/>
            <path class="cls-5" d="M253.8,326c3,0,5.5-2.5,5.5-5.5s-2.5-5.5-5.5-5.5-5.5,2.5-5.5,5.5,2.5,5.5,5.5,5.5Z"/>
          </g>
          <g>
            <polygon class="cls-5" points="279.1 285.7 277 282.8 295.2 269.8 325.1 269.8 325.1 273.4 296.4 273.4 279.1 285.7"/>
            <path class="cls-5" d="M325.1,266.1c3,0,5.5,2.5,5.5,5.5s-2.5,5.5-5.5,5.5-5.5-2.5-5.5-5.5,2.5-5.5,5.5-5.5Z"/>
            <path class="cls-5" d="M278,278.7c3,0,5.5,2.5,5.5,5.5s-2.5,5.5-5.5,5.5-5.5-2.5-5.5-5.5,2.5-5.5,5.5-5.5Z"/>
          </g>
          <path class="cls-5" d="M312,386.9c0-3,2.5-5.5,5.5-5.5s5.5,2.5,5.5,5.5-2.5,5.5-5.5,5.5-5.5-2.5-5.5-5.5Z"/>
          <rect class="cls-1" x="325.5" y="202.5" width="107.3" height="114.6"/>
          <rect class="cls-3" x="339.7" y="217.7" width="78.9" height="84.3"/>
          <g>
            <rect class="cls-7" x="347" y="223.4" width="6.2" height="5.5"/>
            <rect class="cls-7" x="355.9" y="223.4" width="6.2" height="5.5"/>
            <rect class="cls-7" x="364.8" y="223.4" width="6.2" height="5.5"/>
            <rect class="cls-7" x="373.7" y="223.4" width="6.2" height="5.5"/>
            <rect class="cls-7" x="382.6" y="223.4" width="6.2" height="5.5"/>
            <rect class="cls-7" x="395.5" y="223.4" width="6.2" height="5.5"/>
            <rect class="cls-7" x="347" y="272.4" width="6.2" height="5.5"/>
            <rect class="cls-7" x="355.9" y="272.4" width="6.2" height="5.5"/>
            <rect class="cls-7" x="347" y="280.8" width="6.2" height="5.5"/>
            <rect class="cls-7" x="355.9" y="280.8" width="6.2" height="5.5"/>
            <rect class="cls-7" x="364.8" y="272.4" width="6.2" height="5.5"/>
            <rect class="cls-7" x="373.7" y="272.4" width="6.2" height="5.5"/>
            <rect class="cls-7" x="386.6" y="272.4" width="6.2" height="5.5"/>
            <rect class="cls-7" x="395.5" y="272.4" width="6.2" height="5.5"/>
            <rect class="cls-7" x="347" y="232.1" width="6.2" height="5.5"/>
            <rect class="cls-7" x="355.9" y="232.1" width="6.2" height="5.5"/>
            <rect class="cls-7" x="364.8" y="232.1" width="6.2" height="5.5"/>
            <rect class="cls-7" x="373.7" y="232.1" width="6.2" height="5.5"/>
            <rect class="cls-7" x="382.6" y="232.1" width="6.2" height="5.5"/>
            <rect class="cls-7" x="391.5" y="232.1" width="6.2" height="5.5"/>
            <rect class="cls-7" x="347" y="291.6" width="6.2" height="5.5"/>
            <rect class="cls-7" x="355.9" y="291.6" width="6.2" height="5.5"/>
            <rect class="cls-7" x="364.8" y="291.6" width="6.2" height="5.5"/>
            <rect class="cls-7" x="377.7" y="291.6" width="6.2" height="5.5"/>
            <rect class="cls-7" x="386.6" y="291.6" width="6.2" height="5.5"/>
            <rect class="cls-7" x="395.5" y="291.6" width="6.2" height="5.5"/>
            <rect class="cls-7" x="347" y="240.7" width="6.2" height="5.5"/>
            <rect class="cls-7" x="347" y="249.4" width="8.9" height="7.9"/>
            <rect class="cls-7" x="347" y="260.9" width="8.9" height="7.9"/>
            <rect class="cls-7" x="404.5" y="223.4" width="6.2" height="5.5"/>
            <rect class="cls-7" x="404.5" y="272.4" width="6.2" height="5.5"/>
            <rect class="cls-7" x="404.5" y="280.8" width="6.2" height="5.5"/>
            <rect class="cls-7" x="404.5" y="232.1" width="6.2" height="5.5"/>
            <rect class="cls-7" x="404.5" y="291.6" width="6.2" height="5.5"/>
            <rect class="cls-7" x="404.5" y="240.7" width="6.2" height="5.5"/>
            <rect class="cls-7" x="402.5" y="249.4" width="8.9" height="7.9"/>
            <rect class="cls-7" x="401.7" y="260.9" width="8.9" height="7.9"/>
            <rect class="cls-7" x="364.4" y="260.9" width="8.9" height="7.9"/>
            <rect class="cls-7" x="379.7" y="260.9" width="8.9" height="7.9"/>
            <rect class="cls-7" x="364.8" y="280.8" width="8.9" height="7.9"/>
            <rect class="cls-7" x="379.4" y="280.8" width="8.9" height="7.9"/>
            <rect class="cls-7" x="394" y="280.8" width="8.9" height="7.9"/>
            <rect class="cls-7" x="359.9" y="240.7" width="6.2" height="5.5"/>
            <rect class="cls-7" x="368.8" y="240.7" width="6.2" height="5.5"/>
            <rect class="cls-7" x="385.6" y="240.7" width="6.2" height="5.5"/>
            <rect class="cls-7" x="394.5" y="240.7" width="6.2" height="5.5"/>
            <rect class="cls-7" x="359" y="250.6" width="6.2" height="5.5"/>
            <rect class="cls-7" x="367.9" y="250.6" width="6.2" height="5.5"/>
            <rect class="cls-7" x="376.8" y="250.6" width="6.2" height="5.5"/>
            <rect class="cls-7" x="385.7" y="250.6" width="6.2" height="5.5"/>
            <rect class="cls-7" x="393.8" y="250.6" width="6.2" height="5.5"/>
            <rect class="cls-7" x="390" y="262.1" width="6.2" height="5.5"/>
          </g>
        </g>
        <path class="cls-5" d="M392.7,118.8c0,3.2-2.6,5.7-5.7,5.7s-5.7-2.6-5.7-5.7,2.6-5.7,5.7-5.7,5.7,2.6,5.7,5.7Z"/>
      </g>
      <g>
        <polygon class="cls-5" points="569.1 0 569.1 13.9 701 13.9 701 178.3 713.9 178.3 713.9 0 569.1 0"/>
        <g>
          <polygon class="cls-7" points="671.8 202.3 545.6 202.3 545.6 18 696.9 18 696.9 174.5 671.8 202.3"/>
          <polygon class="cls-5" points="696.9 174.5 671.8 174.5 671.8 202.3 696.9 174.5"/>
        </g>
        <rect class="cls-1" x="591.6" y="43" width="91.5" height="1.8"/>
        <rect class="cls-1" x="557.6" y="52.9" width="125.6" height="1.8"/>
        <rect class="cls-1" x="557.6" y="63.9" width="125.6" height="1.8"/>
        <rect class="cls-1" x="557.6" y="127.5" width="125.6" height="1.8"/>
        <rect class="cls-1" x="557.6" y="138.5" width="125.6" height="1.8"/>
        <rect class="cls-1" x="557.6" y="150.1" width="125.6" height="1.8"/>
        <rect class="cls-1" x="557.6" y="161.1" width="125.6" height="1.8"/>
        <rect class="cls-1" x="557.6" y="172.8" width="100.7" height="1.8"/>
        <rect class="cls-3" x="557.6" y="77.8" width="79.8" height="39.3"/>
        <rect class="cls-2" x="644.5" y="77.8" width="36.1" height="39.3"/>
      </g>
      <g>
        <polygon class="cls-1" points="1389.3 342.2 1353.8 342.2 1329.7 318.1 1295.9 318.1 1266.6 288.8 1226.6 288.8 1197.3 318.1 1125.6 318.1 1125.6 314.5 1195.8 314.5 1225.1 285.2 1268.1 285.2 1297.4 314.5 1331.2 314.5 1355.3 338.6 1387.8 338.6 1411.9 314.5 1462.7 314.5 1462.7 318.1 1413.3 318.1 1389.3 342.2"/>
        <path class="cls-1" d="M1195.6,324.5c-4.6,0-8.3-3.7-8.3-8.3s3.7-8.3,8.3-8.3,8.3,3.7,8.3,8.3-3.7,8.3-8.3,8.3ZM1195.6,310c-3.4,0-6.2,2.8-6.2,6.2s2.8,6.2,6.2,6.2,6.2-2.8,6.2-6.2-2.8-6.2-6.2-6.2Z"/>
        <circle class="cls-2" cx="1225.4" cy="287" r="7.2" transform="translate(-22.3 122.2) rotate(-5.7)"/>
        <path class="cls-5" d="M1274.4,287c0,4-3.2,7.2-7.2,7.2s-7.2-3.2-7.2-7.2,3.2-7.2,7.2-7.2,7.2,3.2,7.2,7.2Z"/>
        <path class="cls-1" d="M1296.7,324.7c-4.6,0-8.3-3.7-8.3-8.3s3.7-8.3,8.3-8.3,8.3,3.7,8.3,8.3-3.7,8.3-8.3,8.3ZM1296.7,310.2c-3.4,0-6.2,2.8-6.2,6.2s2.8,6.2,6.2,6.2,6.2-2.8,6.2-6.2-2.8-6.2-6.2-6.2Z"/>
        <path class="cls-2" d="M1338.2,316.3c0,4-3.2,7.2-7.2,7.2s-7.2-3.2-7.2-7.2,3.2-7.2,7.2-7.2,7.2,3.2,7.2,7.2Z"/>
        <circle class="cls-5" cx="1354.3" cy="340.4" r="7.2"/>
        <path class="cls-5" d="M1395.2,340.4c0,4-3.2,7.2-7.2,7.2s-7.2-3.2-7.2-7.2,3.2-7.2,7.2-7.2,7.2,3.2,7.2,7.2Z"/>
        <path class="cls-5" d="M1419.6,316.2c0,4-3.2,7.2-7.2,7.2s-7.2-3.2-7.2-7.2,3.2-7.2,7.2-7.2,7.2,3.2,7.2,7.2Z"/>
        <path class="cls-5" d="M1135.5,316.2c0,4-3.2,7.2-7.2,7.2s-7.2-3.2-7.2-7.2,3.2-7.2,7.2-7.2,7.2,3.2,7.2,7.2Z"/>
        <path class="cls-2" d="M1470,316.2c0,4-3.2,7.2-7.2,7.2s-7.2-3.2-7.2-7.2,3.2-7.2,7.2-7.2,7.2,3.2,7.2,7.2Z"/>
      </g>
      <g>
        <polygon class="cls-1" points="1611 285.8 1568 285.8 1538.7 256.5 1504.9 256.5 1480.8 232.4 1448.3 232.4 1424.3 256.5 1373.4 256.5 1373.4 252.9 1422.8 252.9 1446.8 228.8 1482.3 228.8 1506.4 252.9 1540.2 252.9 1569.5 282.2 1609.5 282.2 1638.8 252.9 1695.4 252.9 1695.4 256.5 1640.3 256.5 1611 285.8"/>
        <path class="cls-1" d="M1640.5,263.2c-4.6,0-8.3-3.7-8.3-8.3s3.7-8.3,8.3-8.3,8.3,3.7,8.3,8.3-3.7,8.3-8.3,8.3ZM1640.5,248.7c-3.4,0-6.2,2.8-6.2,6.2s2.8,6.2,6.2,6.2,6.2-2.8,6.2-6.2-2.8-6.2-6.2-6.2Z"/>
        <circle class="cls-5" cx="1610.7" cy="284" r="7.2" transform="translate(964.2 1786.3) rotate(-76.7)"/>
        <path class="cls-2" d="M1561.7,284c0-4,3.2-7.2,7.2-7.2s7.2,3.2,7.2,7.2-3.2,7.2-7.2,7.2-7.2-3.2-7.2-7.2Z"/>
        <path class="cls-1" d="M1539.4,263c-4.6,0-8.3-3.7-8.3-8.3s3.7-8.3,8.3-8.3,8.3,3.7,8.3,8.3-3.7,8.3-8.3,8.3ZM1539.4,248.5c-3.4,0-6.2,2.8-6.2,6.2s2.8,6.2,6.2,6.2,6.2-2.8,6.2-6.2-2.8-6.2-6.2-6.2Z"/>
        <circle class="cls-5" cx="1505.2" cy="254.7" r="7.2" transform="translate(911.5 1661.1) rotate(-76.7)"/>
        <circle class="cls-5" cx="1481.9" cy="230.6" r="7.2" transform="translate(1071.9 1673.2) rotate(-83)"/>
        <circle class="cls-2" cx="1448.1" cy="230.6" r="7.2" transform="translate(261.1 1091.5) rotate(-45)"/>
        <circle class="cls-5" cx="1423.7" cy="254.9" r="7.2"/>
        <path class="cls-5" d="M1685.5,254.9c0-4,3.2-7.2,7.2-7.2s7.2,3.2,7.2,7.2-3.2,7.2-7.2,7.2-7.2-3.2-7.2-7.2Z"/>
        <path class="cls-1" d="M1373.4,263.2c-4.6,0-8.3-3.7-8.3-8.3s3.7-8.3,8.3-8.3,8.3,3.7,8.3,8.3-3.7,8.3-8.3,8.3ZM1373.4,248.7c-3.4,0-6.2,2.8-6.2,6.2s2.8,6.2,6.2,6.2,6.2-2.8,6.2-6.2-2.8-6.2-6.2-6.2Z"/>
      </g>
      <g>
        <polygon class="cls-1" points="1159.6 315 1157.1 312.4 1223.5 247.3 1304.7 247.3 1331.8 278.5 1483.4 278.5 1520.8 302.8 1518.9 305.8 1482.3 282.1 1330.1 282.1 1303.1 250.9 1225 250.9 1159.6 315"/>
        <path class="cls-2" d="M1165.6,316.2c0,4-3.2,7.2-7.2,7.2s-7.2-3.2-7.2-7.2,3.2-7.2,7.2-7.2,7.2,3.2,7.2,7.2Z"/>
        <path class="cls-5" d="M1232.6,249c0,4-3.2,7.2-7.2,7.2s-7.2-3.2-7.2-7.2,3.2-7.2,7.2-7.2,7.2,3.2,7.2,7.2Z"/>
        <path class="cls-5" d="M1310.3,249.8c0,4-3.2,7.2-7.2,7.2s-7.2-3.2-7.2-7.2,3.2-7.2,7.2-7.2,7.2,3.2,7.2,7.2Z"/>
        <circle class="cls-5" cx="1330.9" cy="279.7" r="7.2"/>
        <path class="cls-1" d="M1482.6,288.1c-4.6,0-8.3-3.7-8.3-8.3s3.7-8.3,8.3-8.3,8.3,3.7,8.3,8.3-3.7,8.3-8.3,8.3ZM1482.6,273.6c-3.4,0-6.2,2.8-6.2,6.2s2.8,6.2,6.2,6.2,6.2-2.8,6.2-6.2-2.8-6.2-6.2-6.2Z"/>
        <circle class="cls-5" cx="1519.9" cy="304.1" r="7.2"/>
        <rect class="cls-1" x="1172.5" y="242.5" width="3.6" height="45" transform="translate(156.6 908) rotate(-45)"/>
        <path class="cls-2" d="M1165.4,249.8c0,4-3.2,7.2-7.2,7.2s-7.2-3.2-7.2-7.2,3.2-7.2,7.2-7.2,7.2,3.2,7.2,7.2Z"/>
      </g>
      <g>
        <path class="cls-1" d="M339.5,686.8v-10.9h-6.3c-.2-2-.7-3.9-1.3-5.7l5.1-2.9-5.4-9.4-4.7,2.7c-1.3-1.7-2.7-3.2-4.3-4.6l2.5-4.4-9.4-5.4-2.4,4.1c-2-.8-4.1-1.4-6.3-1.8v-4.6h-10.9v4.6c-2.2.4-4.4,1-6.4,1.8l-2.3-3.9-9.4,5.4,2.4,4.2c-1.6,1.4-3.1,3-4.4,4.7l-4.3-2.5-5.4,9.4,4.8,2.8c-.6,1.9-1,3.9-1.2,6h-5.8v10.9h6.5c.4,1.8,1,3.6,1.8,5.3l-5.8,3.3,5.4,9.4,6.3-3.7c1.2,1.3,2.5,2.4,3.8,3.5l-3.7,6.5,9.4,5.4,3.9-6.8c1.5.5,3.1.9,4.8,1.1v7.9h10.9v-8.1c1.6-.3,3.2-.7,4.7-1.3l4,6.9,9.4-5.4-3.9-6.8c1.3-1.1,2.5-2.2,3.6-3.5l6.5,3.8,5.4-9.4-6.2-3.6c.7-1.7,1.2-3.4,1.6-5.2h6.8ZM326.1,679.9c0,13.5-11,24.5-24.5,24.5s-24.5-11-24.5-24.5,11-24.5,24.5-24.5,24.5,11,24.5,24.5Z"/>
        <path class="cls-1" d="M301.6,659.7c-11.2,0-20.2,9.1-20.2,20.2s9.1,20.2,20.2,20.2,20.2-9.1,20.2-20.2-9.1-20.2-20.2-20.2ZM301.6,696.6c-9.2,0-16.7-7.5-16.7-16.7s7.5-16.7,16.7-16.7,16.7,7.5,16.7,16.7-7.5,16.7-16.7,16.7Z"/>
      </g>
      <g>
        <path class="cls-5" d="M776.6,905.3c-4,4-4,10.6,0,14.6,4,4,10.6,4,14.6,0s4-10.6,0-14.6c-4-4-10.6-4-14.6,0Z"/>
        <path class="cls-5" d="M777.4,878.6l.8,14.1c7-1,14.1,1,19.2,6.1,5.3,5.3,7.2,12.7,6,20l14.1,1c1.9-11.5-1.1-23.3-9.5-31.6-8.1-8.1-19.5-11.3-30.6-9.7Z"/>
        <path class="cls-5" d="M776.1,856.3l.8,14.1c13.6-2.1,27.5,1.7,37.4,11.6,10.1,10.1,13.9,24.5,11.4,38.5l14.1,1c3.2-18.2-1.7-36.8-14.9-50-12.9-12.9-31-17.9-48.8-15.1Z"/>
      </g>
      <g>
        <rect class="cls-5" x="1490.1" y="442.4" width="25.1" height="16.6"/>
        <rect class="cls-7" x="1490.1" y="420.3" width="25.1" height="16.6"/>
        <rect class="cls-1" x="1490.1" y="465.4" width="25.1" height="51.8"/>
        <rect class="cls-5" x="1458.4" y="442.4" width="25.1" height="16.6"/>
        <rect class="cls-5" x="1458.4" y="420.3" width="25.1" height="16.6"/>
        <rect class="cls-7" x="1458.4" y="398.4" width="25.1" height="16.6"/>
        <rect class="cls-7" x="1458.4" y="376.3" width="25.1" height="16.6"/>
        <rect class="cls-1" x="1458.4" y="465.4" width="25.1" height="51.8"/>
        <rect class="cls-5" x="1522.6" y="464.9" width="25.1" height="16.6"/>
        <rect class="cls-7" x="1522.6" y="442.8" width="25.1" height="16.6"/>
        <rect class="cls-1" x="1551.1" y="500.5" width="25.1" height="16.6"/>
        <rect class="cls-1" x="1522.6" y="487.9" width="25.1" height="29.3"/>
      </g>
      <g>
        <path class="cls-1" d="M74.2,865.7l-2.7-2.4,4.9-5.3,2.7,2.4-4.9,5.3ZM81.5,857.7l-2.7-2.4,4.9-5.3,2.7,2.4-4.9,5.3ZM88.7,849.7l-2.7-2.4,4.9-5.3,2.7,2.4-4.9,5.3ZM96,841.6l-2.7-2.4,4.9-5.3,2.7,2.4-4.9,5.3ZM181,837.9l-6-4.1,2-3,6,4.1-2,3ZM185.9,835.4l-2.7-2.4,4.9-5.3,2.7,2.4-4.9,5.3ZM103.3,833.6l-2.7-2.4,4.9-5.3,2.7,2.4-4.9,5.3ZM172.1,831.8l-6-4.1,2-3,6,4.1-2,3ZM193.1,827.4l-2.7-2.4,4.9-5.3,2.7,2.4-4.9,5.3ZM163.1,825.7l-6-4.1,2-3,6,4.1-2,3ZM110.6,825.6l-2.7-2.4,4.9-5.3,2.7,2.4-4.9,5.3ZM154.2,819.6l-6-4.1,2-3,6,4.1-2,3ZM200.4,819.4l-2.7-2.4,4.9-5.3,2.7,2.4-4.9,5.3ZM117.9,817.6l-2.7-2.4,4.9-5.3,2.7,2.4-4.9,5.3ZM145.2,813.6l-6-4.1,2-3,6,4.1-2,3ZM282.4,812.8l-2.3-2.8,5.6-4.5,2.3,2.8-5.6,4.5ZM277.5,811.4l-4.2-5.9,2.9-2.1,4.2,5.9-2.9,2.1ZM207.7,811.4l-2.7-2.4,4.9-5.3,2.7,2.4-4.9,5.3ZM125.1,809.6l-2.7-2.4,4.9-5.3,2.7,2.4-4.9,5.3ZM136.2,807.5l-6-4.1,2-3,6,4.1-2,3ZM290.9,806l-2.3-2.8,5.6-4.5,2.3,2.8-5.6,4.5ZM215,803.4l-2.7-2.4,4.9-5.3,2.7,2.4-4.9,5.3ZM271.2,802.6l-4.2-5.9,2.9-2.1,4.2,5.9-2.9,2.1ZM299.3,799.2l-2.3-2.8,5.6-4.5,2.3,2.8-5.6,4.5ZM222.3,795.3l-2.7-2.4,4.9-5.3,2.7,2.4-4.9,5.3ZM264.9,793.8l-4.2-5.9,2.9-2.1,4.2,5.9-2.9,2.1ZM307.7,792.4l-2.3-2.8,5.6-4.5,2.3,2.8-5.6,4.5ZM229.5,787.3l-2.7-2.4,4.9-5.3,2.7,2.4-4.9,5.3ZM316.2,785.6l-2.3-2.8,5.6-4.5,2.3,2.8-5.6,4.5ZM258.6,785l-4.2-5.9,2.9-2.1,4.2,5.9-2.9,2.1ZM236.8,779.3l-2.7-2.4,4.9-5.3,2.7,2.4-4.9,5.3ZM252.3,776.2l-4.2-5.9,2.9-2.1,4.2,5.9-2.9,2.1ZM244.1,771.3l-2.7-2.4,4.2-4.6,2.8.2.6.8-1.3.9.6.5-4.2,4.6Z"/>
        <circle class="cls-4" cx="72.9" cy="864.5" r="7.5" transform="translate(-785.2 736.8) rotate(-76.7)"/>
        <path class="cls-5" d="M136.6,801.6c0,4.1-3.4,7.5-7.5,7.5s-7.5-3.4-7.5-7.5,3.4-7.5,7.5-7.5,7.5,3.4,7.5,7.5Z"/>
        <circle class="cls-5" cx="182.2" cy="835.9" r="7.5" transform="translate(-673.2 821.2) rotate(-76.7)"/>
        <circle class="cls-2" cx="246.9" cy="765.5" r="7.5" transform="translate(-554.8 829.9) rotate(-76.7)"/>
        <circle class="cls-5" cx="280.3" cy="811.4" r="7.5" transform="translate(-573.8 897.7) rotate(-76.7)"/>
        <path class="cls-5" d="M330.7,777.6c0,4.1-3.4,7.5-7.5,7.5s-7.5-3.4-7.5-7.5,3.4-7.5,7.5-7.5,7.5,3.4,7.5,7.5Z"/>
      </g>
      <polygon class="cls-7" points="544.7 686.6 544.7 635.2 515.9 635.2 515.9 686.6 502.3 686.6 530.3 714.5 558.2 686.6 544.7 686.6"/>
      <g>
        <polygon class="cls-5" points="243.9 519.8 284.6 519.8 284.6 497 243.9 497 243.9 486.2 221.8 508.4 243.9 530.5 243.9 519.8"/>
        <polygon class="cls-5" points="295.1 460.2 254.4 460.2 254.4 483 295.1 483 295.1 493.7 317.2 471.6 295.1 449.4 295.1 460.2"/>
      </g>
      <g>
        <g>
          <polygon class="cls-7" points="17.6 337 43 275.4 57.3 340.5 17.6 337"/>
          <polygon class="cls-5" points="43 275.4 68.4 322.6 57.3 340.5 43 275.4"/>
          <polygon class="cls-7" points="129.3 392.7 154.7 331.1 169 396.2 129.3 392.7"/>
          <polygon class="cls-5" points="154.7 331.1 180.1 378.2 169 396.2 154.7 331.1"/>
          <polygon class="cls-3" points="55.3 413.5 92.3 324 113.1 418.6 55.3 413.5"/>
          <polygon class="cls-5" points="92.3 324 129.2 392.5 113.1 418.6 92.3 324"/>
        </g>
        <polygon class="cls-1" points="44.6 269.1 42.8 269.1 42.8 249 83.7 221.7 84.7 223.2 44.6 250 44.6 269.1"/>
        <polygon class="cls-1" points="94.8 320.9 93 320.9 93 300.9 148.6 263.2 149.7 264.7 94.8 301.8 94.8 320.9"/>
        <polygon class="cls-1" points="153.8 327.8 152 327.8 152 307.7 186.4 285.8 187.4 287.3 153.8 308.7 153.8 327.8"/>
        <g>
          <path class="cls-1" d="M90.9,216.8l-7.6-3.6,1.3-.8,6.3,3,.2-6.9,1.3-.8-.3,8.4,7.7,3.6-1.3.8-6.4-3-.2,7-1.3.8.3-8.4Z"/>
          <path class="cls-1" d="M100.5,210.9l-7.6-3.6,1.3-.8,6.3,3,.2-6.9,1.3-.8-.3,8.4,7.7,3.6-1.3.8-6.4-3-.2,7-1.3.8.3-8.4Z"/>
          <path class="cls-1" d="M115.4,201.8c1.7,2.8,2.4,7.1-.5,8.8-2.8,1.7-6.3-.8-8-3.6-1.5-2.5-2.6-7,.5-8.8,3-1.9,6.5,1.1,8,3.6ZM114.3,202.5c-1.2-2-3.9-4.7-6.2-3.3-2.3,1.4-1.1,5,0,7,1.3,2.1,3.9,4.7,6.2,3.3,2.3-1.4,1.2-4.9,0-7Z"/>
          <path class="cls-1" d="M115.4,195.1l-.7-1.1,2-1.2,7.3,12-1.2.7-6.7-10.9-.8.5Z"/>
        </g>
        <g>
          <path class="cls-1" d="M155.3,259.4l-7.6-3.6,1.3-.8,6.3,3,.2-6.9,1.3-.8-.3,8.4,7.7,3.6-1.3.8-6.4-3-.2,7-1.3.8.3-8.4Z"/>
          <path class="cls-1" d="M164.9,253.5l-7.6-3.6,1.3-.8,6.3,3,.2-6.9,1.3-.8-.3,8.4,7.7,3.6-1.3.8-6.4-3-.2,7-1.3.8.3-8.4Z"/>
          <path class="cls-1" d="M179.8,244.4c1.7,2.8,2.4,7.1-.5,8.8-2.8,1.7-6.3-.8-8-3.6-1.5-2.5-2.6-7,.5-8.8,3-1.9,6.5,1.1,8,3.6ZM178.7,245.1c-1.2-2-3.9-4.7-6.2-3.3-2.3,1.4-1.1,5,0,7,1.3,2.1,3.9,4.7,6.2,3.3,2.3-1.4,1.2-4.9,0-7Z"/>
          <path class="cls-1" d="M192.3,243.6l.7,1.1-7.5,4.6,1.3-8.3c.2-1.4.5-3-.2-4.3-.9-1.4-2.6-1.8-4-1-1.5.9-1.7,2.6-.9,4.1l-1.2.7c-1.2-2.1-.7-4.6,1.4-5.9,2-1.2,4.6-.7,5.8,1.3,1.1,1.8.6,3.9.3,5.8l-.8,4.9,5.1-3.1Z"/>
        </g>
        <g>
          <path class="cls-1" d="M193.4,281.2l-7.6-3.6,1.3-.8,6.3,3,.2-6.9,1.3-.8-.3,8.4,7.7,3.6-1.3.8-6.4-3-.2,7-1.3.8.3-8.4Z"/>
          <path class="cls-1" d="M203,275.3l-7.6-3.6,1.3-.8,6.3,3,.2-7,1.3-.8-.3,8.4,7.7,3.6-1.3.8-6.4-3-.2,7-1.3.8.3-8.4Z"/>
          <path class="cls-1" d="M217.9,266.2c1.7,2.8,2.4,7.1-.5,8.8-2.8,1.7-6.3-.8-8-3.6-1.5-2.5-2.6-7,.5-8.8,3-1.9,6.5,1.1,8,3.6ZM216.8,266.9c-1.2-2-3.9-4.7-6.2-3.3-2.3,1.4-1.1,5,0,7,1.3,2.1,3.9,4.7,6.2,3.3,2.3-1.4,1.2-4.9,0-7Z"/>
          <path class="cls-1" d="M222.9,261.6l.3-.2c1.3-.8,1.4-2.3.8-3.2-.7-1.1-2.1-1.5-3.3-.8-1.1.7-1.4,2.1-.9,3.3l-1.1.7c-1-1.8-.3-4.1,1.3-5.1,1.7-1,4-.5,5.1,1.2.7,1.1.6,2.4.2,3.3,1.6,0,3,.7,3.8,2,1.2,2,.6,4.7-1.5,6-1.9,1.2-4.4.6-5.7-1l1.1-.7c1,1.2,2.6,1.4,3.9.6,1.4-.9,1.9-2.7,1-4.2-.9-1.5-2.8-1.8-4.2-1l-.3.2-.7-1.1Z"/>
        </g>
      </g>
      <path class="cls-6" d="M1336.2,177.2c-18.5,0-33.5,15-33.5,33.5s15,33.5,33.5,33.5,33.5-15,33.5-33.5-15-33.5-33.5-33.5ZM1336.2,239.8c-16,0-29-13-29-29s13-29,29-29,29,13,29,29-13,29-29,29Z"/>
      <path class="cls-5" d="M1625.8,402.3c-12.3,0-22.3,10-22.3,22.3s10,22.3,22.3,22.3,22.3-10,22.3-22.3-10-22.3-22.3-22.3ZM1625.8,443.9c-10.7,0-19.3-8.7-19.3-19.3s8.7-19.3,19.3-19.3,19.3,8.7,19.3,19.3-8.7,19.3-19.3,19.3Z"/>
      <path class="cls-6" d="M1165.9,58c-12.3,0-22.3,10-22.3,22.3s10,22.3,22.3,22.3,22.3-10,22.3-22.3-10-22.3-22.3-22.3ZM1165.9,99.6c-10.7,0-19.3-8.7-19.3-19.3s8.7-19.3,19.3-19.3,19.3,8.7,19.3,19.3-8.7,19.3-19.3,19.3Z"/>
      <g>
        <path class="cls-6" d="M1372.7,939.6c0-6.9,5.6-12.6,12.6-12.6s12.6,5.6,12.6,12.6-5.6,12.6-12.6,12.6-12.6-5.6-12.6-12.6Z"/>
        <g class="cls-9">
          <path class="cls-6" d="M1385.3,952.2c-6.9,0-12.6-5.6-12.6-12.6s5.6-12.6,12.6-12.6v25.2Z"/>
        </g>
      </g>
      <g>
        <path class="cls-6" d="M1106.6,51.5c0-6.9,5.6-12.6,12.6-12.6s12.6,5.6,12.6,12.6-5.6,12.6-12.6,12.6-12.6-5.6-12.6-12.6Z"/>
        <g class="cls-9">
          <path class="cls-6" d="M1119.2,64.1c-6.9,0-12.6-5.6-12.6-12.6s5.6-12.6,12.6-12.6v25.2Z"/>
        </g>
      </g>
      <path class="cls-6" d="M205.6,940.6h-73.1v-73.1h73.1v73.1ZM137,936.1h64.1v-64.1h-64.1v64.1Z"/>
      <g>
        <polygon class="cls-4" points="1284.6 378.5 1284.6 408.3 1276.9 408.3 1295.1 428.6 1313.3 408.3 1305.6 408.3 1305.6 378.5 1284.6 378.5"/>
        <polygon class="cls-1" points="1261.7 418.1 1261.7 446.1 1328.5 446.1 1328.5 418.1 1319 418.1 1319 437.3 1271.2 437.3 1271.2 418.1 1261.7 418.1"/>
      </g>
      <path class="cls-5" d="M263.2,714.9c.5-1.4.8-2.9.9-4.4l-3.1-1.5c0-.5,0-1,0-1.5,0-.2,0-.3,0-.5l2.9-1.8c-.3-1.5-.8-3-1.4-4.3l-3.4.2c-.3-.6-.7-1.2-1.1-1.7l1.6-3c-1-1.1-2.1-2.2-3.4-3l-2.8,1.9c-.6-.3-1.2-.6-1.8-.9v-3.4c-1.5-.5-3-.8-4.6-.9l-1.5,3.1c-.5,0-1,0-1.5,0-.2,0-.3,0-.5,0l-1.8-2.9c-1.5.3-3,.8-4.3,1.4l.2,3.4c-.6.3-1.2.7-1.7,1.1l-3-1.6c-1.1,1-2.2,2.1-3,3.4l1.9,2.8c-.3.6-.6,1.2-.9,1.8h-3.4c-.5,1.5-.8,3-.9,4.6l3.1,1.5c0,.5,0,1,0,1.5,0,.2,0,.3,0,.5l-2.9,1.8c.3,1.5.8,3,1.4,4.3l3.4-.2c.3.6.7,1.2,1.1,1.7l-1.6,3c1,1.1,2.1,2.2,3.4,3l2.8-1.9c.6.3,1.2.6,1.8.9v3.4c1.6.5,3,.8,4.6.9l1.5-3.1c.5,0,1,0,1.5,0,.2,0,.3,0,.5,0l1.8,2.9c1.5-.3,3-.8,4.3-1.4l-.2-3.4c.6-.3,1.2-.7,1.7-1.1l3,1.6c1.1-1,2.2-2.1,3-3.4l-1.9-2.8c.3-.6.6-1.2.9-1.8h3.4ZM246,716.6c-4.3.4-8.1-2.8-8.4-7.1-.4-4.3,2.8-8.1,7.1-8.4,4.3-.4,8.1,2.8,8.4,7.1.4,4.3-2.8,8.1-7.1,8.4Z"/>
      <g>
        <rect class="cls-7" x="1420.2" y="694.4" width="129.3" height="83.9"/>
        <polygon class="cls-1" points="1484.9 745.4 1420.2 705.9 1420.2 703.1 1484.9 742.7 1549.5 703.1 1549.5 705.9 1484.9 745.4"/>
        <polygon class="cls-1" points="1420.2 778.3 1420.2 776.6 1465.6 731.7 1467.3 733.4 1421.9 778.3 1420.2 778.3"/>
        <polygon class="cls-1" points="1549.5 778.3 1548.2 778.3 1502.8 733.4 1504.5 731.7 1549.5 776.2 1549.5 778.3"/>
      </g>
      <g>
        <rect class="cls-1" x="747.1" y="79.9" width="84.3" height="48.6"/>
        <polygon class="cls-5" points="770.4 71.6 770.4 66.3 749.9 66.3 749.9 71.6 749.9 73.6 749.9 79.9 755.5 79.9 755.5 74.5 822.9 74.5 822.9 79.9 828.6 79.9 828.6 71.6 770.4 71.6"/>
      </g>
      <g>
        <path class="cls-1" d="M1460,559.2v-15h3.4c4.6,0,7.7,2.8,7.7,7.4s-3.1,7.5-7.7,7.5h-3.4ZM1461.4,557.8h2c3.9,0,6.3-2.2,6.3-6.1s-2.5-6-6.3-6h-2v12.2Z"/>
        <path class="cls-1" d="M1479.9,544.2l7.2,15h-1.5l-2.3-4.7h-7.2l-2.2,4.7h-1.6l7.2-15h.4ZM1476.7,553.1h5.8l-2.9-6.1-2.9,6.1Z"/>
        <path class="cls-1" d="M1495.1,545.6h-3.9v13.6h-1.4v-13.6h-3.9v-1.4h9.2v1.4Z"/>
        <path class="cls-1" d="M1501,544.2l7.2,15h-1.5l-2.3-4.7h-7.2l-2.2,4.7h-1.6l7.2-15h.4ZM1497.9,553.1h5.8l-2.9-6.1-2.9,6.1Z"/>
        <path class="cls-1" d="M1521.8,544.2l7.2,15h-1.5l-2.3-4.7h-7.2l-2.2,4.7h-1.6l7.2-15h.4ZM1518.7,553.1h5.8l-2.9-6.1-2.9,6.1Z"/>
        <path class="cls-1" d="M1531,544.2l9.5,11.5v-11.5h1.4v15h-.4l-9.4-11.5v11.5h-1.4v-15h.3Z"/>
        <path class="cls-1" d="M1551.3,544.2l7.2,15h-1.5l-2.3-4.7h-7.2l-2.2,4.7h-1.6l7.2-15h.4ZM1548.2,553.1h5.8l-2.9-6.1-2.9,6.1Z"/>
        <path class="cls-1" d="M1561.7,557.8h4.8v1.4h-6.3v-15h1.5v13.6Z"/>
        <path class="cls-1" d="M1573.6,551.9v7.3h-1.4v-7.3l-5-7.7h1.7l4.1,6.2,4.1-6.2h1.7l-5.1,7.7Z"/>
        <path class="cls-1" d="M1579.6,556.6l1.3-.6c.5,1.2,1.8,1.9,3.1,1.9s3.3-1.1,3.3-2.8c0-3.5-7-2.3-7-7s1.9-4.2,4.2-4.2,2.9.8,3.6,2.1l-1.3.6c-.5-.8-1.4-1.2-2.3-1.2-1.5,0-2.8,1.3-2.8,2.8,0,3.4,7,2.3,7,7s-2.3,4.2-4.7,4.2-3.7-1-4.4-2.8Z"/>
        <path class="cls-1" d="M1592.7,559.2h-1.4v-15h1.4v15Z"/>
        <path class="cls-1" d="M1594.9,556.6l1.3-.6c.5,1.2,1.8,1.9,3.1,1.9s3.3-1.1,3.3-2.8c0-3.5-7-2.3-7-7s1.9-4.2,4.2-4.2,2.9.8,3.6,2.1l-1.3.6c-.5-.8-1.4-1.2-2.3-1.2-1.5,0-2.8,1.3-2.8,2.8,0,3.4,7,2.3,7,7s-2.3,4.2-4.7,4.2-3.7-1-4.4-2.8Z"/>
      </g>
      <g>
        <path class="cls-1" d="M357.7,927.5v1.4h-15.1v-4.5c0-2.3,1.9-4.2,4.2-4.2s4.2,1.9,4.2,4.2v3.1h6.7ZM349.5,927.5v-3.1c0-1.5-1.2-2.8-2.8-2.8s-2.8,1.2-2.8,2.8v3.1h5.6Z"/>
        <path class="cls-1" d="M357.7,918.5h-15.1v-4.5c0-2.3,1.9-4.2,4.2-4.2s3.4,1.2,4,2.9l6.9-3.4v1.6l-6.7,3.3v2.9h6.7v1.4ZM349.5,917.1v-3.1c0-1.5-1.2-2.8-2.8-2.8s-2.8,1.3-2.8,2.8v3.1h5.6Z"/>
        <path class="cls-1" d="M350.1,908.7c-4.3,0-7.8-3.5-7.8-7.7s3.5-7.7,7.8-7.7,7.8,3.5,7.8,7.7-3.5,7.7-7.8,7.7ZM350.1,907.3c3.5,0,6.3-2.9,6.3-6.3s-2.8-6.3-6.3-6.3-6.3,2.9-6.3,6.3,2.8,6.3,6.3,6.3Z"/>
        <path class="cls-1" d="M344,889.2h4.2v-5.6h1.4v5.6h8.1v1.5h-15.1v-7.6h1.4v6.2Z"/>
        <path class="cls-1" d="M357.7,879.2v1.4h-15.1v-1.4h15.1Z"/>
        <path class="cls-1" d="M344,868.4v3.9h13.7v1.4h-13.7v3.9h-1.4v-9.2h1.4Z"/>
      </g>
      <g>
        <path class="cls-1" d="M897.3,97.4h-1.4v-15.1h1.4v15.1Z"/>
        <path class="cls-1" d="M900.6,82.3l9.5,11.6v-11.6h1.4v15.1h-.4l-9.4-11.6v11.6h-1.4v-15.1h.3Z"/>
        <path class="cls-1" d="M916.1,83.7v4.2h5.6v1.4h-5.6v8.1h-1.5v-15.1h7.6v1.4h-6.2Z"/>
        <path class="cls-1" d="M924.2,89.8c0-4.3,3.5-7.8,7.7-7.8s7.7,3.5,7.7,7.8-3.5,7.8-7.7,7.8-7.7-3.5-7.7-7.8ZM925.6,89.8c0,3.5,2.9,6.3,6.3,6.3s6.3-2.8,6.3-6.3-2.9-6.3-6.3-6.3-6.3,2.8-6.3,6.3Z"/>
        <path class="cls-1" d="M942.3,97.4v-15.1h4.5c2.3,0,4.2,1.9,4.2,4.2s-1.2,3.4-2.9,4l3.4,6.9h-1.6l-3.3-6.7h-2.9v6.7h-1.4ZM943.7,89.3h3.1c1.5,0,2.8-1.2,2.8-2.8s-1.3-2.8-2.8-2.8h-3.1v5.6Z"/>
        <path class="cls-1" d="M967,82.3v15.1h-1.4v-11.2l-5.5,7.7-5.5-7.7v11.2h-1.4v-15.1h.3l6.6,9.2,6.6-9.2h.3Z"/>
        <path class="cls-1" d="M976.4,82.3l7.2,15.1h-1.5l-2.3-4.7h-7.2l-2.2,4.7h-1.6l7.2-15.1h.4ZM973.3,91.3h5.8l-2.9-6.1-2.9,6.1Z"/>
        <path class="cls-1" d="M991.6,83.7h-3.9v13.7h-1.4v-13.7h-3.9v-1.4h9.2v1.4Z"/>
        <path class="cls-1" d="M994.6,97.4h-1.4v-15.1h1.4v15.1Z"/>
        <path class="cls-1" d="M997,89.8c0-4.3,3.5-7.8,7.7-7.8s7.7,3.5,7.7,7.8-3.5,7.8-7.7,7.8-7.7-3.5-7.7-7.8ZM998.4,89.8c0,3.5,2.9,6.3,6.3,6.3s6.3-2.8,6.3-6.3-2.9-6.3-6.3-6.3-6.3,2.8-6.3,6.3Z"/>
        <path class="cls-1" d="M1015.4,82.3l9.5,11.6v-11.6h1.4v15.1h-.4l-9.4-11.6v11.6h-1.4v-15.1h.3Z"/>
      </g>
      <g>
        <rect class="cls-5" x="1150.4" y="475.5" width="280.1" height="183.7"/>
        <rect class="cls-7" x="1174.6" y="500.6" width="231.5" height="133.5"/>
        <polygon class="cls-2" points="1303.6 624.7 1286.8 525.4 1265.9 570.1 1215.7 570.1 1215.7 565 1262.7 565 1289.1 508.6 1304.6 600.7 1317.1 553.3 1365.1 553.3 1365.1 558.4 1321 558.4 1303.6 624.7"/>
        <rect class="cls-1" x="1248.6" y="659.2" width="83.5" height="23.6"/>
        <rect class="cls-5" x="1224.1" y="682.8" width="132.6" height="12.7"/>
        <path class="cls-6" d="M1416.4,645.1h-252v-155.6h252v155.6ZM1166.2,643.3h248.4v-152h-248.4v152Z"/>
      </g>
      <g>
        <path class="cls-1" d="M860.8,634.5l-134.8-77.8v-155.7l134.8-77.8,134.8,77.8v155.7l-1.3.7-133.6,77.1ZM731.1,553.7l129.8,74.9,129.8-74.9v-149.8l-129.8-74.9-129.8,74.9v149.8Z"/>
        <path class="cls-1" d="M731,555l-2.3-2.5,6.5-11.3,3.1,1.8-6.5,11.3-1.2-.7.6,1.3h-.2ZM987.7,553.6l-11.8-5.4,1.5-3.3,9.7,4.4-5.6-9.8,3.1-1.8,6.5,11.3-2.1,1.2h.2c0,0-1.5,3.4-1.5,3.4ZM737.8,551.9l-1.5-3.3,11.8-5.4,1.5,3.3-11.8,5.4ZM969.2,545.3l-11.8-5.4,1.5-3.3,11.8,5.4-1.5,3.3ZM756.3,543.6l-1.5-3.3,11.8-5.4,1.5,3.3-11.8,5.4ZM950.8,537l-11.8-5.4,1.5-3.3,11.8,5.4-1.5,3.3ZM741.9,536.7l-3.1-1.8,6.5-11.3,3.1,1.8-6.5,11.3ZM774.7,535.2l-1.5-3.3,11.8-5.4,1.5,3.3-11.8,5.4ZM977.8,533.3l-6.5-11.3,3.1-1.8,6.5,11.3-3.1,1.8ZM932.4,528.6l-11.8-5.4,1.5-3.3,11.8,5.4-1.5,3.3ZM793.1,526.9l-1.5-3.3,11.8-5.4,1.5,3.3-11.8,5.4ZM914,520.3l-11.8-5.4,1.5-3.3,11.8,5.4-1.5,3.3ZM752.1,519.2l-3.1-1.8,6.5-11.3,3.1,1.8-6.5,11.3ZM811.5,518.6l-1.5-3.3,11.8-5.4,1.5,3.3-11.8,5.4ZM967.7,515.8l-6.5-11.3,3.1-1.8,6.5,11.3-3.1,1.8ZM895.6,512l-11.8-5.4,1.5-3.3,11.8,5.4-1.5,3.3ZM829.9,510.3l-1.5-3.3,11.8-5.4,1.5,3.3-11.8,5.4ZM877.1,503.7l-11.8-5.4,1.5-3.3,11.8,5.4-1.5,3.3ZM848.4,501.9l-1.5-3.3,11.8-5.4,1.5,3.3-11.8,5.4ZM762.2,501.7l-3.1-1.8,6.5-11.3,3.1,1.8-6.5,11.3ZM957.6,498.3l-6.5-11.3,3.1-1.8,6.5,11.3-3.1,1.8ZM772.3,484.2l-3.1-1.8,6.5-11.3,3.1,1.8-6.5,11.3ZM947.5,480.8l-6.5-11.3,3.1-1.8,6.5,11.3-3.1,1.8ZM782.4,466.7l-3.1-1.8,6.5-11.3,3.1,1.8-6.5,11.3ZM937.4,463.3l-6.5-11.3,3.1-1.8,6.5,11.3-3.1,1.8ZM792.5,449.2l-3.1-1.8,6.5-11.3,3.1,1.8-6.5,11.3ZM927.3,445.8l-6.5-11.3,3.1-1.8,6.5,11.3-3.1,1.8ZM802.6,431.7l-3.1-1.8,6.5-11.3,3.1,1.8-6.5,11.3ZM917.1,428.3l-6.5-11.3,3.1-1.8,6.5,11.3-3.1,1.8ZM812.7,414.2l-3.1-1.8,6.5-11.3,3.1,1.8-6.5,11.3ZM907,410.8l-6.5-11.3,3.1-1.8,6.5,11.3-3.1,1.8ZM822.8,396.7l-3.1-1.8,6.5-11.3,3.1,1.8-6.5,11.3ZM896.9,393.3l-6.5-11.3,3.1-1.8,6.5,11.3-3.1,1.8ZM832.9,379.2l-3.1-1.8,6.5-11.3,3.1,1.8-6.5,11.3ZM886.8,375.8l-6.5-11.3,3.1-1.8,6.5,11.3-3.1,1.8ZM843,361.7l-3.1-1.8,6.5-11.3,3.1,1.8-6.5,11.3ZM876.7,358.3l-6.5-11.3,3.1-1.8,6.5,11.3-3.1,1.8ZM853.1,344.2l-3.1-1.8,6.5-11.3,3.1,1.8-6.5,11.3ZM866.6,340.8l-6.5-11.3,3.1-1.8,6.5,11.3-3.1,1.8Z"/>
        <path class="cls-1" d="M863.2,631l-3.1-1.8,6.5-11.3,3.1,1.8-6.5,11.3ZM856.5,627.7l-6.5-11.3,3.1-1.8,6.5,11.3-3.1,1.8ZM873.3,613.5l-3.1-1.8,6.5-11.3,3.1,1.8-6.5,11.3ZM846.4,610.1l-6.5-11.3,3.1-1.8,6.5,11.3-3.1,1.8ZM883.5,596l-3.1-1.8,6.5-11.3,3.1,1.8-6.5,11.3ZM836.3,592.6l-6.5-11.3,3.1-1.8,6.5,11.3-3.1,1.8ZM893.6,578.5l-3.1-1.8,6.5-11.3,3.1,1.8-6.5,11.3ZM826.2,575.1l-6.5-11.3,3.1-1.8,6.5,11.3-3.1,1.8ZM903.7,561l-3.1-1.8,6.5-11.3,3.1,1.8-6.5,11.3ZM816.1,557.6l-6.5-11.3,3.1-1.8,6.5,11.3-3.1,1.8ZM913.8,543.5l-3.1-1.8,6.5-11.3,3.1,1.8-6.5,11.3ZM806,540.1l-6.5-11.3,3.1-1.8,6.5,11.3-3.1,1.8ZM923.9,526l-3.1-1.8,6.5-11.3,3.1,1.8-6.5,11.3ZM795.9,522.6l-6.5-11.3,3.1-1.8,6.5,11.3-3.1,1.8ZM934,508.5l-3.1-1.8,6.5-11.3,3.1,1.8-6.5,11.3ZM785.7,505.1l-6.5-11.3,3.1-1.8,6.5,11.3-3.1,1.8ZM944.1,491l-3.1-1.8,6.5-11.3,3.1,1.8-6.5,11.3ZM775.6,487.6l-6.5-11.3,3.1-1.8,6.5,11.3-3.1,1.8ZM954.2,473.5l-3.1-1.8,6.5-11.3,3.1,1.8-6.5,11.3ZM765.5,470.1l-6.5-11.3,3.1-1.8,6.5,11.3-3.1,1.8ZM858.7,465.5l-11.8-5.4,1.5-3.3,11.8,5.4-1.5,3.3ZM866.8,463.7l-1.5-3.3,11.8-5.4,1.5,3.3-11.8,5.4ZM840.3,457.1l-11.8-5.4,1.5-3.3,11.8,5.4-1.5,3.3ZM964.3,456l-3.1-1.8,6.5-11.3,3.1,1.8-6.5,11.3ZM885.2,455.4l-1.5-3.3,11.8-5.4,1.5,3.3-11.8,5.4ZM755.4,452.6l-6.5-11.3,3.1-1.8,6.5,11.3-3.1,1.8ZM821.9,448.8l-11.8-5.4,1.5-3.3,11.8,5.4-1.5,3.3ZM903.6,447.1l-1.5-3.3,11.8-5.4,1.5,3.3-11.8,5.4ZM803.5,440.5l-11.8-5.4,1.5-3.3,11.8,5.4-1.5,3.3ZM922,438.8l-1.5-3.3,11.8-5.4,1.5,3.3-11.8,5.4ZM974.4,438.5l-3.1-1.8,6.5-11.3,3.1,1.8-6.5,11.3ZM745.3,435.1l-6.5-11.3,3.1-1.8,6.5,11.3-3.1,1.8ZM785,432.2l-11.8-5.4,1.5-3.3,11.8,5.4-1.5,3.3ZM940.5,430.4l-1.5-3.3,11.8-5.4,1.5,3.3-11.8,5.4ZM766.6,423.8l-11.8-5.4,1.5-3.3,11.8,5.4-1.5,3.3ZM958.9,422.1l-1.5-3.3,11.8-5.4,1.5,3.3-11.8,5.4ZM984.5,421l-3.1-1.8,5.6-9.8-9.7,4.4-1.5-3.3,11.8-5.4,1.5,3.3h-.2c0,0,2.1,1.3,2.1,1.3l-6.5,11.3ZM735.2,417.6l-6.5-11.3,2.3-2.5h.2c0,.1-.6,1.4-.6,1.4l1.2-.7,6.5,11.3-3.1,1.8ZM748.2,415.5l-11.8-5.4,1.5-3.3,11.8,5.4-1.5,3.3Z"/>
        <g>
          <circle class="cls-4" cx="860.8" cy="326" r="23.4" transform="translate(230.2 996.6) rotate(-67.5)"/>
          <g class="cls-9">
            <path class="cls-4" d="M860.8,349.4c-12.9,0-23.4-10.5-23.4-23.4s10.5-23.4,23.4-23.4v46.7Z"/>
          </g>
        </g>
        <circle class="cls-3" cx="860.8" cy="631.6" r="26.1"/>
        <g class="cls-9">
          <path class="cls-3" d="M860.8,657.6c-14.4,0-26.1-11.7-26.1-26.1s11.7-26.1,26.1-26.1v52.1Z"/>
        </g>
        <circle class="cls-3" cx="728.5" cy="405.4" r="26.1" transform="translate(211.7 1059.6) rotate(-80.8)"/>
        <g>
          <circle class="cls-2" cx="993.9" cy="403.9" r="29.3"/>
          <g class="cls-9">
            <path class="cls-2" d="M993.9,433.1c-16.2,0-29.3-13.1-29.3-29.3s13.1-29.3,29.3-29.3v58.5Z"/>
          </g>
        </g>
        <g>
          <circle class="cls-3" cx="993.1" cy="553.3" r="17.8"/>
          <g class="cls-9">
            <path class="cls-3" d="M993.1,571.2c-9.9,0-17.8-8-17.8-17.8s8-17.8,17.8-17.8v35.7Z"/>
          </g>
        </g>
        <circle class="cls-5" cx="860.8" cy="478.8" r="57.1" transform="translate(250.3 1251.8) rotate(-80.8)"/>
        <g>
          <path class="cls-4" d="M728.5,513.9c-21.8,0-39.5,17.7-39.5,39.5s17.7,39.5,39.5,39.5,39.5-17.7,39.5-39.5-17.7-39.5-39.5-39.5ZM728.5,573.3c-11.1,0-20-9-20-20s9-20,20-20,20,9,20,20-9,20-20,20Z"/>
          <g class="cls-9">
            <path class="cls-4" d="M728.5,579.8c-14.6,0-26.4-11.8-26.4-26.4s11.8-26.4,26.4-26.4v-13.1c-21.8,0-39.5,17.7-39.5,39.5s17.7,39.5,39.5,39.5v-13.1Z"/>
          </g>
        </g>
        <g class="cls-10">
          <path class="cls-7" d="M925.6,474.7c0,1.4.1,2.7.1,4.1,0,35.9-29.1,64.9-64.9,64.9s-64.9-29.1-64.9-64.9,29.1-64.9,64.9-64.9v-42.7c-59.4,0-107.6,48.2-107.6,107.6s48.2,107.6,107.6,107.6,107.6-48.2,107.6-107.6,0-2.7,0-4.1h-42.7Z"/>
        </g>
        <path class="cls-1" d="M899.6,476.3c-1.3-19.4-16.8-35-36.2-36.2v-4.6h-5.1v4.6c-19.4,1.3-35,16.8-36.2,36.2h-4.6v5.1h4.6c1.3,19.4,16.8,35,36.2,36.2v4.6h5.1v-4.6c19.4-1.3,35-16.8,36.2-36.2h4.6v-5.1h-4.6ZM863.4,457v-3.6c5.9.6,11.1,3.1,15.2,7l-4.6,4.6c-3.4-3.2-8-5.2-13.1-5.2s-9.7,2-13.1,5.2l-4.6-4.6c4-3.8,9.3-6.4,15.1-7v3.6h5.1ZM886.3,481.3c-.6,5.9-3.1,11.1-7,15.1l-4.6-4.6c3.2-3.4,5.2-8,5.2-13.1h0c0-5.1-2-9.7-5.2-13.1l4.6-4.6c3.9,4,6.4,9.3,7,15.2h-3.6v5.1h3.6ZM835.4,476.3c.6-5.9,3.1-11.1,7-15.1l4.6,4.6c-3.2,3.4-5.2,8-5.2,13.1s2,9.7,5.2,13.1l-4.6,4.6c-3.9-4-6.4-9.3-7-15.2h3.6v-5.1h-3.6ZM844.5,478.8c0-4.5,1.8-8.6,4.8-11.5,3-3,7-4.8,11.5-4.8,4.5,0,8.6,1.8,11.5,4.8,3,3,4.8,7,4.8,11.5h0c0,4.5-1.8,8.6-4.8,11.5-3,3-7,4.8-11.5,4.8s-8.6-1.8-11.5-4.8c-3-3-4.8-7-4.8-11.5ZM836.7,454.7c5.6-5.6,13.2-9.3,21.6-9.9v6.3c-13.3,1.2-24,11.8-25.2,25.2h-6.3c.6-8.4,4.3-16,9.9-21.6ZM858.3,512.8c-8.4-.6-16-4.3-21.6-9.9-5.6-5.6-9.3-13.2-9.9-21.6h6.3c1.2,13.3,11.8,24,25.2,25.2v6.3ZM858.3,500.6v3.6c-5.9-.6-11.1-3.1-15.2-7l4.6-4.6c3.4,3.2,8,5.2,13.1,5.2s9.6-2,13.1-5.2l4.6,4.6c-4,3.8-9.3,6.4-15.1,7v-3.6h-5.1ZM885,502.9c-5.6,5.6-13.2,9.3-21.6,9.9v-6.3c13.3-1.2,24-11.8,25.2-25.2h6.3c-.6,8.4-4.3,16-9.9,21.6ZM888.5,476.3c-1.2-13.3-11.8-24-25.2-25.2v-6.3c8.4.6,16,4.3,21.6,9.9,5.6,5.6,9.3,13.2,9.9,21.6h-6.3Z"/>
        <g class="cls-9">
          <path class="cls-3" d="M728.5,431.5c-14.4,0-26.1-11.7-26.1-26.1s11.7-26.1,26.1-26.1v52.1Z"/>
        </g>
      </g>
      <g>
        <path class="cls-1" d="M1347.6,798.5c-26.9,0-48.7,21.8-48.7,48.7s21.8,48.7,48.7,48.7,48.7-21.8,48.7-48.7-21.8-48.7-48.7-48.7ZM1347.6,888.7c-22.9,0-41.5-18.6-41.5-41.5s18.6-41.5,41.5-41.5,41.5,18.6,41.5,41.5-18.6,41.5-41.5,41.5Z"/>
        <circle class="cls-7" cx="1347.6" cy="847.2" r="34.9"/>
        <g>
          <rect class="cls-1" x="1346.1" y="811.9" width="3.3" height="9"/>
          <rect class="cls-1" x="1330.6" y="815.9" width="3.3" height="9" transform="translate(-231.7 776) rotate(-30)"/>
          <rect class="cls-1" x="1319.3" y="827.1" width="3.3" height="9" transform="translate(-59.7 1559.8) rotate(-60)"/>
          <rect class="cls-1" x="1312.3" y="845.4" width="9" height="3.3"/>
          <rect class="cls-1" x="1316.3" y="860.8" width="9" height="3.3" transform="translate(-254.3 776) rotate(-30)"/>
          <rect class="cls-1" x="1327.5" y="872.1" width="9" height="3.3" transform="translate(-90.7 1590.5) rotate(-60)"/>
          <rect class="cls-1" x="1345.8" y="873.5" width="3.3" height="9"/>
          <rect class="cls-1" x="1361.2" y="869.4" width="3.3" height="9" transform="translate(-254.4 798.5) rotate(-30)"/>
          <rect class="cls-1" x="1372.5" y="858.2" width="3.3" height="9" transform="translate(-60 1621.4) rotate(-60)"/>
          <rect class="cls-1" x="1373.9" y="845.7" width="9" height="3.3"/>
          <rect class="cls-1" x="1369.8" y="830.3" width="9" height="3.3" transform="translate(-231.8 798.6) rotate(-30)"/>
          <rect class="cls-1" x="1358.6" y="818.9" width="9" height="3.3" transform="translate(-29.1 1590.7) rotate(-60)"/>
        </g>
        <path class="cls-1" d="M1347.6,886.5c-21.7,0-39.3-17.7-39.3-39.3s17.7-39.3,39.3-39.3,39.3,17.7,39.3,39.3-17.7,39.3-39.3,39.3ZM1347.6,809.6c-20.7,0-37.5,16.8-37.5,37.5s16.8,37.5,37.5,37.5,37.5-16.8,37.5-37.5-16.8-37.5-37.5-37.5Z"/>
        <rect class="cls-2" x="1345.2" y="840" width="23.8" height="3.3" transform="translate(-236.2 734.7) rotate(-28)"/>
        <path class="cls-1" d="M1341.6,847.7c0-2.9,2.4-5.3,5.3-5.3s5.3,2.4,5.3,5.3-2.4,5.3-5.3,5.3-5.3-2.4-5.3-5.3Z"/>
      </g>
      <path class="cls-1" d="M1519,850.3h-5.8v-3.6h5.8v3.6ZM1509.6,850.3h-7.2v-3.6h7.2v3.6ZM1498.7,850.3h-7.2v-3.6h7.2v3.6ZM1487.9,850.3h-7.2v-3.6h7.2v3.6ZM1477.1,850.3h-7.2v-3.6h7.2v3.6ZM1466.2,850.3h-7.2v-3.6h7.2v3.6ZM1455.4,850.3h-7.2v-3.6h7.2v3.6ZM1444.6,850.3h-7.2v-3.6h7.2v3.6ZM1433.7,850.3h-7.2v-3.6h7.2v3.6ZM1422.9,850.3h-7.2v-3.6h7.2v3.6ZM1412.1,850.3h-7.2v-3.6h7.2v3.6Z"/>
      <g>
        <rect class="cls-3" x="1519" y="821.5" width="133.5" height="54.8"/>
        <rect class="cls-1" x="1527.5" y="830.7" width="116.5" height="36.5"/>
        <g>
          <g>
            <polygon class="cls-6" points="1562.3 838.4 1562.3 838.4 1562.3 846.4 1562.3 846.4 1563.7 848.3 1565.1 846.4 1565.1 846.4 1565.1 846.4 1565.1 838.4 1565.1 838.4 1565.1 838.4 1563.7 836.5 1562.3 838.4"/>
            <polygon class="cls-6" points="1562.4 851 1562.4 851 1562.4 859 1562.4 859 1563.8 860.9 1565.1 859 1565.1 859 1565.1 859 1565.1 859 1565.1 859 1565.1 851 1565.1 851 1565.1 851 1565.1 851 1565.1 851 1563.8 849.2 1562.4 851"/>
            <polygon class="cls-6" points="1575.2 838.4 1575.2 838.4 1575.2 846.4 1575.2 846.4 1576.6 848.3 1577.9 846.4 1577.9 846.4 1577.9 846.4 1577.9 838.4 1577.9 838.4 1577.9 838.4 1576.6 836.5 1575.2 838.4"/>
            <polygon class="cls-6" points="1575.2 851 1575.2 851 1575.2 859 1575.2 859 1576.6 860.9 1578 859 1578 859 1578 859 1578 859 1578 859 1578 851 1578 851 1578 851 1578 851 1578 851 1576.6 849.2 1575.2 851"/>
            <path class="cls-6" d="M1566.1,835h0s0,0,0,0ZM1574.1,835h-8s-1.9,1.4-1.9,1.4l1.9,1.4h0s8,0,8,0h0s1.9-1.4,1.9-1.4l-1.9-1.4h0s0,0,0,0h0s0,0,0,0Z"/>
            <path class="cls-6" d="M1566,860h0s0,0,0,0ZM1574,860h-8s-1.9,1.4-1.9,1.4l1.9,1.4h0s8,0,8,0h0s1.9-1.4,1.9-1.4l-1.9-1.4h0s0,0,0,0h0s0,0,0,0Z"/>
          </g>
          <g>
            <polygon class="cls-6" points="1598 838.4 1598 838.4 1598 846.4 1598 846.4 1599.4 848.3 1600.8 846.4 1600.8 846.4 1600.8 846.4 1600.8 838.4 1600.8 838.4 1600.8 838.4 1599.4 836.5 1598 838.4"/>
            <polygon class="cls-6" points="1598.1 851 1598.1 851 1598.1 859 1598.1 859 1599.5 860.9 1600.8 859 1600.8 859 1600.8 859 1600.8 859 1600.8 859 1600.8 851 1600.8 851 1600.8 851 1600.8 851 1600.8 851 1599.5 849.2 1598.1 851"/>
            <polygon class="cls-6" points="1610.9 838.4 1610.9 838.4 1610.9 846.4 1610.9 846.4 1612.3 848.3 1613.6 846.4 1613.6 846.4 1613.6 846.4 1613.6 838.4 1613.6 838.4 1613.6 838.4 1612.3 836.5 1610.9 838.4"/>
            <polygon class="cls-6" points="1610.9 851 1610.9 851 1610.9 859 1610.9 859 1612.3 860.9 1613.7 859 1613.7 859 1613.7 859 1613.7 859 1613.7 859 1613.7 851 1613.7 851 1613.7 851 1613.7 851 1613.7 851 1612.3 849.2 1610.9 851"/>
            <path class="cls-6" d="M1601.8,835h0s0,0,0,0ZM1609.8,835h-8s-1.9,1.4-1.9,1.4l1.9,1.4h0s8,0,8,0h0s1.9-1.4,1.9-1.4l-1.9-1.4h0s0,0,0,0h0s0,0,0,0Z"/>
            <path class="cls-6" d="M1601.7,860h0s0,0,0,0ZM1609.7,860h-8s-1.9,1.4-1.9,1.4l1.9,1.4h0s8,0,8,0h0s1.9-1.4,1.9-1.4l-1.9-1.4h0s0,0,0,0h0s0,0,0,0Z"/>
          </g>
          <g>
            <polygon class="cls-6" points="1533.1 838.4 1533.1 838.4 1533.1 846.4 1533.1 846.4 1534.5 848.3 1535.9 846.4 1535.9 846.4 1535.9 846.4 1535.9 838.4 1535.9 838.4 1535.9 838.4 1534.5 836.5 1533.1 838.4"/>
            <polygon class="cls-6" points="1533.2 851 1533.2 851 1533.2 859 1533.2 859 1534.6 860.9 1535.9 859 1535.9 859 1535.9 859 1536 859 1535.9 859 1535.9 851 1536 851 1535.9 851 1535.9 851 1535.9 851 1534.6 849.2 1533.2 851"/>
            <polygon class="cls-6" points="1546 838.4 1546 838.4 1546 846.4 1546 846.4 1547.4 848.3 1548.7 846.4 1548.8 846.4 1548.8 846.4 1548.8 838.4 1548.8 838.4 1548.7 838.4 1547.4 836.5 1546 838.4"/>
            <polygon class="cls-6" points="1546.1 851 1546 851 1546 859 1546.1 859 1547.4 860.9 1548.8 859 1548.8 859 1548.8 859 1548.8 859 1548.8 859 1548.8 851 1548.8 851 1548.8 851 1548.8 851 1548.8 851 1547.4 849.2 1546.1 851"/>
            <path class="cls-6" d="M1536.9,835h0s0,0,0,0ZM1544.9,835h-8s-1.9,1.4-1.9,1.4l1.9,1.4h0s8,0,8,0h0s1.9-1.4,1.9-1.4l-1.9-1.4h0s0,0,0,0h0s0,0,0,0Z"/>
            <path class="cls-6" d="M1536.8,860h0s0,0,0,0ZM1544.8,860h-8s-1.9,1.4-1.9,1.4l1.9,1.4h0s8,0,8,0h0s1.9-1.4,1.9-1.4l-1.9-1.4h0s0,0,0,0h0s0,0,0,0Z"/>
          </g>
          <g>
            <polygon class="cls-6" points="1554.2 837.2 1554.2 837.2 1554.2 846.3 1554.2 846.3 1555.5 848.4 1556.9 846.3 1556.9 846.3 1556.9 846.2 1556.9 837.2 1556.9 837.2 1556.9 837.2 1556.9 837.2 1555.5 835.1 1554.2 837.2"/>
            <path class="cls-6" d="M1557,860.5h0,0ZM1554.2,851.5h0v9.1h0l1.4,2.1,1.4-2.1h0v-9.1h0,0s0,0,0,0l-1.4-2.1-1.4,2.1Z"/>
          </g>
          <g>
            <polygon class="cls-6" points="1582.4 837.2 1582.4 837.2 1582.4 846.3 1582.4 846.3 1583.8 848.4 1585.1 846.3 1585.1 846.3 1585.1 846.2 1585.1 837.2 1585.1 837.2 1585.1 837.2 1585.1 837.2 1583.8 835.1 1582.4 837.2"/>
            <path class="cls-6" d="M1585.2,860.5h0,0ZM1582.4,851.5h0v9.1h0l1.4,2.1,1.4-2.1h0v-9.1h0,0s0,0,0,0l-1.4-2.1-1.4,2.1Z"/>
          </g>
          <g>
            <polygon class="cls-6" points="1590.7 837.2 1590.7 837.2 1590.7 846.3 1590.7 846.3 1592.1 848.4 1593.5 846.3 1593.5 846.3 1593.5 846.2 1593.5 837.2 1593.5 837.2 1593.5 837.2 1593.5 837.2 1592.1 835.1 1590.7 837.2"/>
            <path class="cls-6" d="M1593.5,860.5h0,0ZM1590.8,851.5h0v9.1h0l1.4,2.1,1.4-2.1h0v-9.1h0,0s0,0,0,0l-1.4-2.1-1.4,2.1Z"/>
          </g>
          <g>
            <polygon class="cls-6" points="1618.6 837.2 1618.6 837.2 1618.6 846.3 1618.6 846.3 1619.9 848.4 1621.3 846.3 1621.3 846.3 1621.3 846.2 1621.3 837.2 1621.3 837.2 1621.3 837.2 1621.3 837.2 1619.9 835.1 1618.6 837.2"/>
            <path class="cls-6" d="M1621.4,860.5h0,0ZM1618.6,851.5h0v9.1h0l1.4,2.1,1.4-2.1h0v-9.1h0,0s0,0,0,0l-1.4-2.1-1.4,2.1Z"/>
          </g>
          <g>
            <polygon class="cls-6" points="1627.3 837.2 1627.3 837.2 1627.3 846.3 1627.3 846.3 1628.7 848.4 1630 846.3 1630 846.3 1630 846.2 1630 837.2 1630 837.2 1630 837.2 1630 837.2 1628.7 835.1 1627.3 837.2"/>
            <path class="cls-6" d="M1630.1,860.5h0,0ZM1627.3,851.5h0v9.1h0l1.4,2.1,1.4-2.1h0v-9.1h0,0s0,0,0,0l-1.4-2.1-1.4,2.1Z"/>
          </g>
          <g>
            <polygon class="cls-6" points="1636.3 837.2 1636.3 837.2 1636.3 846.3 1636.3 846.3 1637.7 848.4 1639.1 846.3 1639.1 846.3 1639.1 846.2 1639.1 837.2 1639.1 837.2 1639.1 837.2 1639.1 837.2 1637.7 835.1 1636.3 837.2"/>
            <path class="cls-6" d="M1639.1,860.5h0,0ZM1636.4,851.5h0v9.1h0l1.4,2.1,1.4-2.1h0v-9.1h0,0s0,0,0,0l-1.4-2.1-1.4,2.1Z"/>
          </g>
        </g>
      </g>
      <path class="cls-1" d="M1379.1,897.2l-1.9-3.1c16.2-10.2,25.9-27.8,25.9-47,0-30.6-24.9-55.5-55.5-55.5v-3.6c32.6,0,59.1,26.5,59.1,59.1s-10.3,39.1-27.6,50Z"/>
      <path class="cls-4" d="M1413.2,848.5c0,3.9-3.2,7.1-7.1,7.1s-7.1-3.2-7.1-7.1,3.2-7.1,7.1-7.1,7.1,3.2,7.1,7.1Z"/>
      <g>
        <g>
          <rect class="cls-1" x="1216.2" y="140.1" width="3.6" height="3.6"/>
          <path class="cls-1" d="M1219.8,136.7h-3.6v-6.7h3.6v6.7ZM1219.8,126.7h-3.6v-6.7h3.6v6.7Z"/>
          <polygon class="cls-1" points="1219.8 116.6 1216.2 116.6 1216.2 111.2 1221.6 111.2 1221.6 114.8 1219.8 114.8 1219.8 116.6"/>
          <path class="cls-1" d="M1377.5,114.8h-7.4v-3.6h7.4v3.6ZM1366.4,114.8h-7.4v-3.6h7.4v3.6ZM1355.2,114.8h-7.4v-3.6h7.4v3.6ZM1344.1,114.8h-7.4v-3.6h7.4v3.6ZM1333,114.8h-7.4v-3.6h7.4v3.6ZM1321.8,114.8h-7.4v-3.6h7.4v3.6ZM1310.7,114.8h-7.4v-3.6h7.4v3.6ZM1299.6,114.8h-7.4v-3.6h7.4v3.6ZM1288.4,114.8h-7.4v-3.6h7.4v3.6ZM1277.3,114.8h-7.4v-3.6h7.4v3.6ZM1266.2,114.8h-7.4v-3.6h7.4v3.6ZM1255,114.8h-7.4v-3.6h7.4v3.6ZM1243.9,114.8h-7.4v-3.6h7.4v3.6ZM1232.8,114.8h-7.4v-3.6h7.4v3.6Z"/>
          <polygon class="cls-1" points="1386.6 116.6 1383 116.6 1383 114.8 1381.2 114.8 1381.2 111.2 1386.6 111.2 1386.6 116.6"/>
          <path class="cls-1" d="M1386.6,134.5h-3.6v-6h3.6v6ZM1386.6,125.5h-3.6v-6h3.6v6Z"/>
          <rect class="cls-1" x="1383" y="137.5" width="3.6" height="3.6"/>
        </g>
        <path class="cls-1" d="M1276.5,146.2h-3.6v-.7h3.6v.7ZM1276.5,141.9h-3.6v-7.2h3.6v7.2ZM1276.5,131h-3.6v-7.2h3.6v7.2ZM1276.5,120.2h-3.6v-7.2h3.6v7.2Z"/>
        <path class="cls-1" d="M1331.8,146.2h-3.6v-.7h3.6v.7ZM1331.8,141.9h-3.6v-7.2h3.6v7.2ZM1331.8,131h-3.6v-7.2h3.6v7.2ZM1331.8,120.2h-3.6v-7.2h3.6v7.2Z"/>
        <path class="cls-1" d="M1304.1,113.5h-3.6v-.7h3.6v.7ZM1304.1,109.2h-3.6v-7.2h3.6v7.2ZM1304.1,98.4h-3.6v-7.2h3.6v7.2ZM1304.1,87.5h-3.6v-7.2h3.6v7.2Z"/>
        <rect class="cls-5" x="1206.3" y="145.7" width="24" height="24"/>
        <rect class="cls-1" x="1262.7" y="145.7" width="24" height="24"/>
        <rect class="cls-5" x="1318" y="145.7" width="24" height="24"/>
        <rect class="cls-5" x="1373.3" y="145.7" width="24" height="24"/>
        <path class="cls-3" d="M1257.9,71c0,9.7,7.9,17.6,17.6,17.6s1.9,0,2.9-.2h51.7c0,0,.1,0,.2,0,9.2-.3,16.6-8,16.6-17.1s-7.4-16.9-16.6-17.1c-.9-5.3-5.5-9.2-10.9-9.2s-4.4.7-6.2,1.9c-4.5-6.7-11.9-10.6-19.9-10.6s-20.7,7.6-23.3,18.2c-7.1,2.4-11.9,9.2-11.9,16.6Z"/>
      </g>
      <path class="cls-1" d="M1547.5,91.7c0,0-.1-.1-.2-.2h-.1c-.6.1-1.2,0-1.9,0s-1.7,0-2.5,0v-.2c-.2,0-.3.1-.3.2-30.2,1.5-54.3,26.5-54.3,57.1s24.1,55.6,54.3,57.1c0,0,.1.1.2.2v-.2c.9,0,1.8,0,2.6,0s1.2,0,1.9,0h.1c0,0,.1,0,.2,0,30.5-1.1,55-26.3,55-57.1s-24.5-55.9-55-57.1ZM1538.4,95c-9,7.4-15.8,16.7-20.1,27.2-4.9-2.3-9.7-5.2-14.1-8.7,8.5-9.9,20.6-16.7,34.2-18.5ZM1491.1,148.8c0-12.5,4.2-24,11.3-33.2,4.6,3.7,9.6,6.8,14.8,9.2-2.7,7.5-4.2,15.6-4.2,24s0,.3,0,.5h-22c0-.2,0-.3,0-.5ZM1491.2,152.2h22c.4,8.3,2.2,16.3,5.2,23.7-5,2.1-9.8,4.9-14.3,8.3-7.5-8.7-12.2-19.8-12.9-31.9ZM1506,186.2c4.2-3.2,8.8-5.8,13.5-7.8,4.3,9.3,10.7,17.5,18.8,24.3-12.7-1.6-24-7.6-32.4-16.5ZM1543.9,203.1c-.1,0-.3,0-.4,0-9.4-6.8-16.7-15.7-21.4-25.7,7-2.6,14.4-4.1,21.8-4.3v30.1ZM1543.9,170.2c-7.8.2-15.6,1.8-22.9,4.6-2.9-7.1-4.7-14.7-5-22.6h28s0,18,0,18ZM1543.9,149.3h-28.1c0-.1,0-.3,0-.5,0-8,1.4-15.7,3.9-22.9,7.7,3.2,15.9,4.9,24.1,5.1v18.2ZM1543.9,128.3c-7.9-.3-15.7-1.9-23.1-4.9,4.6-11.3,12.3-21.2,22.7-28.8.1,0,.3,0,.4,0v33.7ZM1546.8,94.7c10.5,7.7,18.3,17.8,22.8,29.4-7.4,2.7-15.1,4.1-22.8,4.2v-33.6ZM1546.8,131.1c8.1,0,16.1-1.5,23.8-4.4,2.4,7,3.7,14.4,3.7,22.1s0,.3,0,.5h-27.4s0-18.2,0-18.2ZM1546.8,152.1h27.4c-.4,7.7-2,15-4.7,21.9-7.3-2.5-15-3.8-22.6-3.9v-18ZM1546.8,202.9v-30c7.3,0,14.6,1.3,21.5,3.7-4.7,10.3-12,19.3-21.5,26.3ZM1551.6,202.8c8.5-6.9,15-15.5,19.3-25.1,5.1,2,9.9,4.6,14.4,7.9-8.6,9.4-20.5,15.7-33.8,17.3ZM1587.3,183.3c-4.8-3.5-9.9-6.2-15.2-8.3,2.9-7.2,4.6-14.9,4.9-22.9h22.6c-.7,11.8-5.2,22.6-12.3,31.2ZM1599.7,148.8c0,.1,0,.3,0,.4h-22.6c0-.1,0-.3,0-.4,0-8.1-1.3-15.8-3.9-23.1,5.5-2.3,10.8-5.4,15.8-9.2,6.7,9,10.7,20.2,10.7,32.3ZM1572.2,123c-4.3-10.9-11.3-20.5-20.6-28.1,14.3,1.7,26.9,8.8,35.6,19.4-4.7,3.6-9.7,6.6-15,8.8Z"/>
      <path class="cls-1" d="M1547.2,91.7h-3.6v-2.4h3.6v2.4ZM1547.2,85.7h-3.6v-7.2h3.6v7.2ZM1547.2,74.8h-3.6v-1.8h-1.8v-3.6h5.4v5.4ZM1538.1,73h-7.2v-3.6h7.2v3.6ZM1527.3,73h-7.2v-3.6h7.2v3.6ZM1516.5,73h-7.2v-3.6h7.2v3.6ZM1505.7,73h-7.2v-3.6h7.2v3.6ZM1494.8,73h-7.2v-3.6h7.2v3.6ZM1484,73h-7.2v-3.6h7.2v3.6ZM1473.2,73h-7.2v-3.6h7.2v3.6ZM1462.3,73h-7.2v-3.6h7.2v3.6ZM1451.5,73h-7.2v-3.6h7.2v3.6ZM1440.7,73h-7.2v-3.6h7.2v3.6ZM1429.8,73h-7.2v-3.6h7.2v3.6ZM1419,73h-7.2v-3.6h7.2v3.6ZM1408.2,73h-7.2v-3.6h7.2v3.6ZM1397.4,73h-7.2v-3.6h7.2v3.6ZM1386.5,73h-7.2v-3.6h7.2v3.6ZM1375.7,73h-7.2v-3.6h7.2v3.6ZM1364.9,73h-7.2v-3.6h7.2v3.6ZM1354,73h-7.2v-3.6h7.2v3.6Z"/>
      <path class="cls-2" d="M211,113c-18.9,0-34.2,15.3-34.2,34.2s15.3,34.2,34.2,34.2,34.2-15.3,34.2-34.2-15.3-34.2-34.2-34.2ZM206.8,117.2h8.3v25.1h-8.3v-25.1ZM211,174.5c-15,0-27.3-12.2-27.3-27.3s7.8-22.1,18.5-25.8v7.4c-6.9,3.3-11.6,10.3-11.6,18.4s9.1,20.4,20.4,20.4,20.4-9.1,20.4-20.4-4.8-15.1-11.6-18.4v-7.4c10.7,3.7,18.5,13.8,18.5,25.8s-12.2,27.3-27.3,27.3Z"/>
    </g>
  </g>
</svg>