<?xml version="1.0" encoding="UTF-8"?>
<svg id="OBJECTS" xmlns="http://www.w3.org/2000/svg" viewBox="0 0 750 324">
  <defs>
    <style>
      .cls-1, .cls-2, .cls-3, .cls-4 {
        fill: none;
        stroke: #000;
        stroke-linejoin: round;
      }

      .cls-2, .cls-4 {
        stroke-width: 2px;
      }

      .cls-3, .cls-4 {
        stroke-linecap: round;
      }

      .cls-5 {
        fill: #fff;
        stroke-width: 0px;
      }
    </style>
  </defs>
  <g>
    <g>
      <g>
        <path class="cls-5" d="M677.9,316.2c-1.2,0-2.2-1-2.2-2.2v-63.8c0-.6.3-1.2.7-1.6l40.4-36v-25.5c0-.8.7-1.5,1.5-1.5h1.4c.8,0,1.5.7,1.5,1.5v127c0,1.2-1,2.2-2.2,2.2h-41.1Z"/>
        <path class="cls-5" d="M719.7,187v127c0,.4-.3.7-.7.7h-41.1c-.4,0-.7-.3-.7-.7v-63.8c0-.2,0-.4.2-.5l40.9-36.5v-26.2h1.4M719.7,184h-1.4c-1.7,0-3,1.3-3,3v24.9l-39.9,35.6c-.8.7-1.2,1.7-1.2,2.8v63.8c0,2,1.7,3.7,3.7,3.7h41.1c2,0,3.7-1.7,3.7-3.7v-127c0-1.7-1.3-3-3-3h0Z"/>
      </g>
      <g>
        <rect class="cls-5" x="716.8" y="179.9" width="4.4" height="5.3" rx="1.5" ry="1.5"/>
        <path class="cls-5" d="M719.7,181.4v2.3h-1.4v-2.3h1.4M719.7,178.4h-1.4c-1.7,0-3,1.3-3,3v2.3c0,1.7,1.3,3,3,3h1.4c1.7,0,3-1.3,3-3v-2.3c0-1.7-1.3-3-3-3h0Z"/>
      </g>
    </g>
    <g>
      <polygon class="cls-2" points="719 213.5 677.9 250.2 677.9 314 719 314 719 213.5"/>
      <line class="cls-2" x1="719" y1="213.5" x2="719" y2="187"/>
      <line class="cls-2" x1="719" y1="183.7" x2="719" y2="181.4"/>
      <line class="cls-2" x1="714.2" y1="300.9" x2="714.2" y2="308.7"/>
      <line class="cls-2" x1="709.1" y1="300.9" x2="709.1" y2="308.7"/>
      <line class="cls-2" x1="704" y1="300.9" x2="704" y2="308.7"/>
      <line class="cls-2" x1="698.9" y1="300.9" x2="698.9" y2="308.7"/>
      <line class="cls-2" x1="693.9" y1="300.9" x2="693.9" y2="308.7"/>
      <line class="cls-2" x1="688.8" y1="300.9" x2="688.8" y2="308.7"/>
      <line class="cls-2" x1="683.7" y1="300.9" x2="683.7" y2="308.7"/>
      <line class="cls-2" x1="714.2" y1="290.3" x2="714.2" y2="298.1"/>
      <line class="cls-2" x1="709.1" y1="290.3" x2="709.1" y2="298.1"/>
      <line class="cls-2" x1="704" y1="290.3" x2="704" y2="298.1"/>
      <line class="cls-2" x1="698.9" y1="290.3" x2="698.9" y2="298.1"/>
      <line class="cls-2" x1="683.7" y1="290.3" x2="683.7" y2="298.1"/>
      <line class="cls-2" x1="714.2" y1="279.6" x2="714.2" y2="287.4"/>
      <line class="cls-2" x1="704" y1="279.6" x2="704" y2="287.4"/>
      <line class="cls-2" x1="698.9" y1="279.6" x2="698.9" y2="287.4"/>
      <line class="cls-2" x1="693.9" y1="279.6" x2="693.9" y2="287.4"/>
      <line class="cls-2" x1="688.8" y1="279.6" x2="688.8" y2="287.4"/>
      <line class="cls-2" x1="683.7" y1="279.6" x2="683.7" y2="287.4"/>
      <line class="cls-2" x1="714.2" y1="269" x2="714.2" y2="276.8"/>
      <line class="cls-2" x1="709.1" y1="269" x2="709.1" y2="276.8"/>
      <line class="cls-2" x1="698.9" y1="269" x2="698.9" y2="276.8"/>
      <line class="cls-2" x1="693.9" y1="269" x2="693.9" y2="276.8"/>
      <line class="cls-2" x1="688.8" y1="269" x2="688.8" y2="276.8"/>
      <line class="cls-2" x1="683.7" y1="269" x2="683.7" y2="276.8"/>
      <line class="cls-2" x1="714.2" y1="258.3" x2="714.2" y2="266.1"/>
      <line class="cls-2" x1="709.1" y1="258.3" x2="709.1" y2="266.1"/>
      <line class="cls-2" x1="704" y1="258.3" x2="704" y2="266.1"/>
      <line class="cls-2" x1="698.9" y1="258.3" x2="698.9" y2="266.1"/>
      <line class="cls-2" x1="693.9" y1="258.3" x2="693.9" y2="266.1"/>
      <line class="cls-2" x1="683.7" y1="258.3" x2="683.7" y2="266.1"/>
      <line class="cls-2" x1="714.2" y1="247.7" x2="714.2" y2="255.5"/>
      <line class="cls-2" x1="704" y1="247.7" x2="704" y2="255.5"/>
      <line class="cls-2" x1="698.9" y1="247.7" x2="698.9" y2="255.5"/>
      <line class="cls-2" x1="693.9" y1="247.7" x2="693.9" y2="255.5"/>
      <line class="cls-2" x1="714.2" y1="237" x2="714.2" y2="244.8"/>
      <line class="cls-2" x1="709.1" y1="237" x2="709.1" y2="244.8"/>
      <line class="cls-2" x1="704" y1="237" x2="704" y2="244.8"/>
      <line class="cls-2" x1="714.2" y1="226.4" x2="714.2" y2="234.2"/>
      <line class="cls-1" x1="677.9" y1="308.7" x2="719" y2="308.7"/>
      <line class="cls-1" x1="677.9" y1="298.1" x2="719" y2="298.1"/>
      <line class="cls-1" x1="677.9" y1="287.4" x2="719" y2="287.4"/>
      <line class="cls-1" x1="677.9" y1="276.8" x2="719" y2="276.8"/>
      <line class="cls-1" x1="677.9" y1="266.1" x2="719" y2="266.1"/>
      <line class="cls-1" x1="677.9" y1="255.5" x2="719" y2="255.5"/>
      <line class="cls-1" x1="684.2" y1="244.8" x2="719" y2="244.8"/>
      <line class="cls-1" x1="695.8" y1="234.2" x2="719" y2="234.2"/>
    </g>
  </g>
  <g>
    <g>
      <g>
        <path class="cls-5" d="M411.5,316.2c-1.3,0-2.4-1.1-2.4-2.4v-4.2c0-1.3,1.1-2.4,2.4-2.4h3l10.7-81.1v-1.1c0-.4.1-.8.3-1.1l7-53.4c-.3-.4-.5-.9-.5-1.5v-4c0-.5.1-.9.4-1.3l-7.8-46.4c0,0,0-.1,0-.2,0,0,0-.1,0-.2v-1.5h-2c-1.2,0-2.2-.9-2.4-2l-.2-1.7c-.6-.2-1.1-.8-1.1-1.4v-1.7c0-.4.1-.7.3-.9-.7-.2-1.1-.8-1.1-1.5v-1.7c0-.4.2-.8.4-1-.5-.2-.9-.8-.9-1.4v-1.7c0-.4.1-.7.4-1-.5-.2-.9-.8-.9-1.4v-1.7c0-.5.2-.9.6-1.2l-.4-2.6c0-.7.1-1.4.6-1.9.5-.5,1.1-.8,1.8-.8h5v-5c0-1.3,1.1-2.4,2.4-2.4h21c1.3,0,2.4,1.1,2.4,2.4v5h5c.7,0,1.3.3,1.8.8.5.5.7,1.2.6,1.9l-.4,2.6c.3.3.6.7.6,1.2v1.7c0,.6-.4,1.2-.9,1.4.2.3.4.6.4,1v1.7c0,.6-.4,1.2-.9,1.4.2.3.4.6.4,1v1.7c0,.7-.5,1.3-1.1,1.5.2.3.3.6.3.9v1.7c0,.7-.5,1.3-1.1,1.4l-.2,1.7c-.2,1.2-1.2,2-2.3,2h-2v1.5c0,0,0,.1,0,.2,0,0,0,.1,0,.2l-7.8,46.4c.2.4.4.8.4,1.2v4c0,.6-.2,1.1-.5,1.5l7,53.4c.2.3.3.7.3,1.1v1.1l10.7,81.1h2.4c1.3,0,2.4,1.1,2.4,2.4v4.2c0,1.3-1.1,2.4-2.4,2.4h-51.2Z"/>
        <path class="cls-5" d="M447.9,83.8c.5,0,.9.4.9.9v6.5h6.5c.3,0,.5.1.7.3.2.2.2.4.2.7l-.6,4h.8v1.7h-1l-.3,2.4h.8v1.7h-1l-.3,2.4h.9v1.7h-1.1l-.3,2.4h.7v1.7h-.9l-.4,3c0,.4-.4.8-.9.8h-3.5v3s0,0,0,0c0,0,0,0,0,0l-7.9,47.2c.3.1.5.4.5.8v4c0,.4-.3.7-.6.8l7.2,54.6c.1.2.2.4.2.6v1.2l10.9,82.5h3.8c.5,0,.9.4.9.9v4.2c0,.5-.4.9-.9.9h-51.2c-.5,0-.9-.4-.9-.9v-4.2c0-.5.4-.9.9-.9h4.3l10.9-82.5v-1.2c0-.2,0-.4.2-.6l7.2-54.6c-.4-.1-.6-.4-.6-.8v-4c0-.3.2-.6.5-.8l-8-47.1s0,0,0,0c0,0,0,0,0,0v-3h-3.5c-.4,0-.8-.3-.9-.8l-.4-3h-.9v-1.7h.7l-.3-2.4h-1.1v-1.7h.9l-.3-2.4h-1.1v-1.7h.8l-.3-2.4h-1v-1.7h.8l-.6-4c0-.3,0-.5.2-.7.2-.2.4-.3.7-.3h6.5v-6.5c0-.5.4-.9.9-.9h21M447.9,80.8h-21c-2.1,0-3.9,1.7-3.9,3.9v3.5h-3.5c-1.1,0-2.2.5-2.9,1.3-.7.9-1.1,2-.9,3.1l.3,1.9c-.3.5-.5,1.1-.5,1.7v1.7c0,.7.2,1.3.6,1.8,0,.2,0,.4,0,.6v1.7c0,.7.2,1.3.6,1.8,0,.2,0,.4,0,.6v1.7c0,.8.3,1.5.8,2.1,0,.1,0,.2,0,.3v1.7c0,1,.5,1.9,1.2,2.4v1c.4,1.9,2.1,3.3,4,3.3h.5c0,0,0,.2,0,.3,0,0,0,.2,0,.2,0,0,0,0,0,.1l7.7,45.9c-.2.5-.3,1-.3,1.5v4c0,.7.2,1.3.5,1.8l-6.9,52.6c-.2.5-.3,1-.3,1.6v1l-10.5,79.7h-1.7c-2.1,0-3.9,1.7-3.9,3.9v4.2c0,2.1,1.7,3.9,3.9,3.9h51.2c2.1,0,3.9-1.7,3.9-3.9v-4.2c0-2.1-1.7-3.9-3.9-3.9h-1.1l-10.5-79.7v-1c0-.5-.1-1.1-.3-1.6l-6.9-52.6c.3-.6.5-1.2.5-1.9v-4c0-.5-.1-1-.3-1.5l7.7-45.9c0,0,0-.2,0-.3,0-.1,0-.2,0-.4h.5c1.9,0,3.6-1.4,3.8-3.3v-1c.9-.5,1.4-1.4,1.4-2.4v-1.7c0-.1,0-.2,0-.3.5-.5.8-1.3.8-2.1v-1.7c0-.2,0-.4,0-.6.4-.5.6-1.1.6-1.8v-1.7c0-.2,0-.4,0-.6.4-.5.6-1.1.6-1.8v-1.7c0-.6-.2-1.2-.5-1.6l.3-1.9c.2-1.1-.2-2.2-.9-3.1-.7-.9-1.8-1.3-2.9-1.3h-3.5v-3.5c0-2.1-1.7-3.9-3.9-3.9h0Z"/>
      </g>
      <g>
        <path class="cls-5" d="M426.9,80.9c-1.3,0-2.4-1.1-2.4-2.4v-5.5c0-1.3,1.1-2.4,2.4-2.4h8.2v-7.2c0-.8.7-1.5,1.5-1.5h1.7c.8,0,1.5.7,1.5,1.5v7.2h8c1.3,0,2.4,1.1,2.4,2.4v5.5c0,1.3-1.1,2.4-2.4,2.4h-21Z"/>
        <path class="cls-5" d="M438.4,63.5v8.7h9.5c.5,0,.9.4.9.9v5.5c0,.5-.4.9-.9.9h-21c-.5,0-.9-.4-.9-.9v-5.5c0-.5.4-.9.9-.9h9.8v-8.7h1.7M438.4,60.5h-1.7c-1.7,0-3,1.3-3,3v5.7h-6.8c-2.1,0-3.9,1.7-3.9,3.9v5.5c0,2.1,1.7,3.9,3.9,3.9h21c2.1,0,3.9-1.7,3.9-3.9v-5.5c0-2.1-1.7-3.9-3.9-3.9h-6.5v-5.7c0-1.7-1.3-3-3-3h0Z"/>
      </g>
      <g>
        <rect class="cls-5" x="428.9" y="79" width="17.2" height="4.7" rx="1.5" ry="1.5"/>
        <path class="cls-5" d="M444.6,80.5v1.7h-14.2v-1.7h14.2M444.6,77.5h-14.2c-1.7,0-3,1.3-3,3v1.7c0,1.7,1.3,3,3,3h14.2c1.7,0,3-1.3,3-3v-1.7c0-1.7-1.3-3-3-3h0Z"/>
      </g>
      <g>
        <rect class="cls-5" x="435.1" y="58.1" width="4.7" height="4.9" rx="1.5" ry="1.5"/>
        <path class="cls-5" d="M438.4,59.6v1.9h-1.7v-1.9h1.7M438.4,56.6h-1.7c-1.7,0-3,1.3-3,3v1.9c0,1.7,1.3,3,3,3h1.7c1.7,0,3-1.3,3-3v-1.9c0-1.7-1.3-3-3-3h0Z"/>
      </g>
    </g>
    <g>
      <rect class="cls-2" x="411.5" y="309.6" width="51.2" height="4.2"/>
      <polygon class="cls-2" points="439.7 169 435.1 169 416.5 309.6 458.2 309.6 439.7 169"/>
      <rect class="cls-2" x="427.5" y="225" width="19.7" height="4"/>
      <rect class="cls-2" x="434.3" y="165" width="6.1" height="4"/>
      <polygon class="cls-2" points="447.9 117 426.9 117 435 165 439.8 165 447.9 117"/>
      <rect class="cls-2" x="426.9" y="113.1" width="21" height="3.9"/>
      <polygon class="cls-2" points="455.3 92 419.5 92 422.5 113.1 452.3 113.1 455.3 92"/>
      <rect class="cls-2" x="426.9" y="84.6" width="21" height="7.3"/>
      <rect class="cls-2" x="426.9" y="73.1" width="21" height="5.5"/>
      <line class="cls-1" x1="430.4" y1="81.4" x2="444.6" y2="81.4"/>
      <line class="cls-1" x1="437.5" y1="73.1" x2="437.5" y2="63.5"/>
      <line class="cls-1" x1="437.5" y1="61.5" x2="437.5" y2="59.6"/>
      <rect class="cls-1" x="435.1" y="117" width="4.6" height="48.1"/>
      <rect class="cls-1" x="435.1" y="169" width="4.6" height="56"/>
      <rect class="cls-1" x="435.1" y="229" width="4.6" height="80.6"/>
      <line class="cls-1" x1="420.3" y1="109.4" x2="454.5" y2="109.4"/>
      <line class="cls-2" x1="419.5" y1="105.3" x2="455.3" y2="105.3"/>
      <line class="cls-1" x1="418.9" y1="101.1" x2="455.8" y2="101.1"/>
      <line class="cls-2" x1="418.4" y1="97" x2="456.3" y2="97"/>
      <line class="cls-1" x1="426.9" y1="86.8" x2="447.9" y2="86.8"/>
      <line class="cls-1" x1="426.9" y1="75.8" x2="447.9" y2="75.8"/>
      <line class="cls-1" x1="427.5" y1="227" x2="447.3" y2="227"/>
      <line class="cls-1" x1="412.1" y1="311.7" x2="462.7" y2="311.7"/>
      <line class="cls-1" x1="442.5" y1="130.2" x2="443.1" y2="117"/>
      <line class="cls-1" x1="431.9" y1="130.2" x2="431.3" y2="117"/>
    </g>
  </g>
  <g>
    <g>
      <g>
        <rect class="cls-5" x="241.9" y="262.2" width="17.4" height="4.4" rx="1.5" ry="1.5"/>
        <path class="cls-5" d="M257.8,263.7v1.4h-14.4v-1.4h14.4M257.8,260.7h-14.4c-1.7,0-3,1.3-3,3v1.4c0,1.7,1.3,3,3,3h14.4c1.7,0,3-1.3,3-3v-1.4c0-1.7-1.3-3-3-3h0Z"/>
      </g>
      <g>
        <rect class="cls-5" x="241.9" y="259.6" width="8.9" height="4.5" rx="1.5" ry="1.5"/>
        <path class="cls-5" d="M249.3,261.1v1.5h-5.9v-1.5h5.9M249.3,258.1h-5.9c-1.7,0-3,1.3-3,3v1.5c0,1.7,1.3,3,3,3h5.9c1.7,0,3-1.3,3-3v-1.5c0-1.7-1.3-3-3-3h0Z"/>
      </g>
      <g>
        <path class="cls-5" d="M474.1,316.2c-1.2,0-2.2-1-2.2-2.2v-4.1c0-1.1.8-2.1,1.9-2.2v-2.3c-1.9-2-3.9-4.1-5.9-6h-202.1c-2,1.9-4,4-5.9,6v2.3c1.1.1,1.9,1.1,1.9,2.2v4.1c0,1.2-1,2.2-2.2,2.2h-32.6c-1.2,0-2.2-1-2.2-2.2v-4.1c0-1.2,1-2.2,2.2-2.2h2.5l7-40.6c.2-1.1,1.1-1.8,2.2-1.8h19.1c1.2,0,2.2,1,2.2,2.2v13.4c17.8-13.5,40-23.1,66.1-28.6,18.9-3.9,34.2-4.4,39.9-4.4h.3c6.6,0,65.2.9,107.5,33v-13.4c0-1.2,1-2.2,2.2-2.2h19.1c1.1,0,2,.8,2.2,1.8l7,40.6h2.5c1.2,0,2.2,1,2.2,2.2v4.1c0,1.2-1,2.2-2.2,2.2h-32.6Z"/>
        <path class="cls-5" d="M366.4,249.4c7.3,0,67,1.1,109,34.6v-16.5c0-.4.3-.7.7-.7h19.1c.4,0,.7.3.7.6l7.2,41.8h3.7c.4,0,.7.3.7.7v4.1c0,.4-.3.7-.7.7h-32.6c-.4,0-.7-.3-.7-.7v-4.1c0-.4.3-.7.7-.7h1.2v-4.4c-2.2-2.4-4.5-4.8-6.8-7h-203.3c-2.3,2.2-4.6,4.6-6.8,7v4.4h1.2c.4,0,.7.3.7.7v4.1c0,.4-.3.7-.7.7h-32.6c-.4,0-.7-.3-.7-.7v-4.1c0-.4.3-.7.7-.7h3.7l7.2-41.8c0-.3.4-.6.7-.6h19.1c.4,0,.7.3.7.7v16.5c18-14.4,40.8-24.5,67.9-30.2,19.7-4.1,35.3-4.4,39.6-4.4h.3M366.4,246.4h-.3c-5.8,0-21.2.5-40.2,4.5-25.2,5.2-46.8,14.3-64.3,27.1v-10.4c0-2.1-1.7-3.7-3.7-3.7h-19.1c-1.8,0-3.4,1.3-3.7,3.1l-6.7,39.3h-1.2c-2.1,0-3.7,1.7-3.7,3.7v4.1c0,2.1,1.7,3.7,3.7,3.7h32.6c2.1,0,3.7-1.7,3.7-3.7v-4.1c0-1.4-.8-2.6-1.9-3.3v-.7c1.6-1.8,3.3-3.5,5-5.1h200.8c1.7,1.7,3.4,3.4,5,5.1v.7c-1.2.6-1.9,1.9-1.9,3.3v4.1c0,2.1,1.7,3.7,3.7,3.7h32.6c2.1,0,3.7-1.7,3.7-3.7v-4.1c0-2.1-1.7-3.7-3.7-3.7h-1.2l-6.7-39.3c-.3-1.8-1.8-3.1-3.7-3.1h-19.1c-2.1,0-3.7,1.7-3.7,3.7v10.4c-42.5-30.6-99.4-31.5-106-31.5h0Z"/>
      </g>
      <g>
        <rect class="cls-5" x="474.6" y="262.2" width="17.4" height="4.4" rx="1.5" ry="1.5"/>
        <path class="cls-5" d="M490.5,263.7v1.4h-14.4v-1.4h14.4M490.5,260.7h-14.4c-1.7,0-3,1.3-3,3v1.4c0,1.7,1.3,3,3,3h14.4c1.7,0,3-1.3,3-3v-1.4c0-1.7-1.3-3-3-3h0Z"/>
      </g>
      <g>
        <rect class="cls-5" x="483" y="259.6" width="8.9" height="4.5" rx="1.5" ry="1.5"/>
        <path class="cls-5" d="M490.5,261.1v1.5h-5.9v-1.5h5.9M490.5,258.1h-5.9c-1.7,0-3,1.3-3,3v1.5c0,1.7,1.3,3,3,3h5.9c1.7,0,3-1.3,3-3v-1.5c0-1.7-1.3-3-3-3h0Z"/>
      </g>
    </g>
    <g>
      <rect class="cls-2" x="227.1" y="309.9" width="32.6" height="4.1"/>
      <polygon class="cls-2" points="238.7 267.5 257.8 267.5 257.8 309.8 231.5 309.8 238.7 267.5"/>
      <line class="cls-2" x1="257.8" y1="294.9" x2="428.9" y2="294.9"/>
      <rect class="cls-2" x="474.1" y="309.9" width="32.6" height="4.1"/>
      <polygon class="cls-2" points="495.2 267.5 476.1 267.5 476.1 309.8 502.4 309.8 495.2 267.5"/>
      <line class="cls-2" x1="476.1" y1="294.9" x2="305" y2="294.9"/>
      <line class="cls-2" x1="476.1" y1="297.1" x2="257.8" y2="297.1"/>
      <path class="cls-2" d="M476.1,304.5c-43.5-48-106.3-49.4-109.9-49.4s-64.9,1.5-108.4,49.4"/>
      <path class="cls-2" d="M476.1,285.4c-43.7-35.8-107-35.4-109.9-35.4s-64.6-.5-108.4,35.4"/>
      <line class="cls-2" x1="366.1" y1="250.1" x2="366.1" y2="294.9"/>
      <line class="cls-2" x1="354.9" y1="250.1" x2="354.9" y2="294.9"/>
      <line class="cls-2" x1="343.7" y1="251.6" x2="343.7" y2="294.9"/>
      <line class="cls-2" x1="332.5" y1="253.3" x2="332.5" y2="294.9"/>
      <line class="cls-2" x1="321.3" y1="255.7" x2="321.3" y2="294.9"/>
      <line class="cls-2" x1="310" y1="258.7" x2="310" y2="294.9"/>
      <line class="cls-2" x1="298.8" y1="262.4" x2="298.8" y2="294.9"/>
      <line class="cls-2" x1="287.6" y1="267.5" x2="287.6" y2="294.9"/>
      <line class="cls-2" x1="276.4" y1="272.8" x2="276.4" y2="294.9"/>
      <line class="cls-2" x1="265.1" y1="279.8" x2="265.1" y2="294.9"/>
      <line class="cls-2" x1="378.6" y1="250.1" x2="378.6" y2="294.9"/>
      <line class="cls-2" x1="389.8" y1="251.6" x2="389.8" y2="294.9"/>
      <line class="cls-2" x1="401" y1="253.3" x2="401" y2="294.9"/>
      <line class="cls-2" x1="412.3" y1="255.7" x2="412.3" y2="294.9"/>
      <line class="cls-2" x1="423.5" y1="258.7" x2="423.5" y2="294.9"/>
      <line class="cls-2" x1="434.7" y1="262.4" x2="434.7" y2="294.9"/>
      <line class="cls-2" x1="445.9" y1="267.5" x2="445.9" y2="294.9"/>
      <line class="cls-2" x1="457.2" y1="272.8" x2="457.2" y2="294.9"/>
      <line class="cls-2" x1="468.4" y1="279.8" x2="468.4" y2="294.9"/>
      <polyline class="cls-1" points="241.9 267.3 241.9 262.5 252.5 262.5"/>
      <polyline class="cls-1" points="246.4 260.9 255.5 260.9 255.5 267.3"/>
      <line class="cls-1" x1="255.5" y1="274.1" x2="255.5" y2="309.8"/>
      <line class="cls-1" x1="253.7" y1="292.1" x2="253.7" y2="310.1"/>
      <polyline class="cls-1" points="241.2 271.2 237 296.2 241.9 296.2 241.9 300.6 238.4 300.6 238.4 309.8"/>
      <polyline class="cls-1" points="492.3 267.3 492.3 262.5 481.7 262.5"/>
      <polyline class="cls-1" points="487.8 260.9 478.7 260.9 478.7 267.3"/>
      <line class="cls-1" x1="478.7" y1="274.1" x2="478.7" y2="309.8"/>
      <line class="cls-1" x1="480.4" y1="292.1" x2="480.4" y2="310.1"/>
      <polyline class="cls-1" points="492.9 271.2 497.2 296.2 492.3 296.2 492.3 300.6 495.8 300.6 495.8 309.8"/>
      <line class="cls-1" x1="267.2" y1="278.4" x2="267.2" y2="294.9"/>
      <line class="cls-1" x1="278.5" y1="271.6" x2="278.5" y2="294.9"/>
      <line class="cls-1" x1="289.8" y1="266.1" x2="289.8" y2="294.9"/>
      <line class="cls-1" x1="301.1" y1="261.6" x2="301.1" y2="294.9"/>
      <line class="cls-1" x1="312.5" y1="257.9" x2="312.5" y2="294.9"/>
      <line class="cls-1" x1="323.4" y1="255.2" x2="323.4" y2="294.9"/>
      <line class="cls-1" x1="334.6" y1="252.2" x2="334.6" y2="294.9"/>
      <line class="cls-1" x1="346.1" y1="251.6" x2="346.1" y2="294.9"/>
      <line class="cls-1" x1="357.1" y1="250.4" x2="357.1" y2="294.9"/>
      <line class="cls-1" x1="368.6" y1="250.1" x2="368.6" y2="294.9"/>
      <line class="cls-1" x1="380.9" y1="250.8" x2="380.9" y2="294.9"/>
      <line class="cls-1" x1="392.5" y1="252.1" x2="392.5" y2="294.9"/>
      <line class="cls-1" x1="403.3" y1="253.9" x2="403.3" y2="294.9"/>
      <line class="cls-1" x1="414.2" y1="256.2" x2="414.2" y2="293.9"/>
      <line class="cls-1" x1="425.8" y1="259.4" x2="425.8" y2="294.9"/>
      <line class="cls-1" x1="437.1" y1="263.3" x2="437.1" y2="294.9"/>
      <line class="cls-1" x1="448.3" y1="268.1" x2="448.3" y2="294.9"/>
      <line class="cls-1" x1="459.7" y1="273.3" x2="459.7" y2="295.9"/>
      <line class="cls-1" x1="470.2" y1="281" x2="470.2" y2="294.9"/>
    </g>
  </g>
  <g>
    <g>
      <path class="cls-5" d="M31.2,316.2c-1.3,0-2.4-1.1-2.4-2.4v-5.1c0-1.3,1.1-2.4,2.4-2.4h5.8v-3c0-1.3,1.1-2.4,2.4-2.4h25.9l-3.1-4.9c-.4-.6-.5-1.3-.3-1.9.2-.7.7-1.2,1.3-1.5l20.5-9.9c-3.5-8.5-9.5-13.2-9.6-13.2-.8-.6-1.1-1.7-.9-2.6.3-1,1.2-1.6,2.2-1.7.9,0,1.8,0,2.7,0,11.3,0,17.5,4.5,20.8,8.4.3-1.2.4-1.9.5-2.3l-5.6-13.8c-.3-.8-.2-1.7.3-2.4.5-.6,1.1-.9,1.9-.9s.2,0,.4,0c10.4,1.5,16.4,8.1,19.3,12.6,6-12.5,21.1-24.7,43-25.8,0,0,0,0,.1,0,.8,0,1.5.3,1.9.9.5.6.6,1.4.4,2.2-1.8,5.7-3.4,10.8-4.9,15.4,5.2-4,12.9-7.6,24.2-7.8h0c.8,0,1.4.3,1.9.9.5.6.6,1.3.5,2l-2.5,11.1c4.1-3.3,10.9-7,21-7s2.2,0,3.2.1c.7,0,1.4.5,1.8,1.1.4.6.5,1.4.2,2.1l-10.4,29.4h8.1c1.3,0,2.4,1.1,2.4,2.4v7.3h34.9c1.3,0,2.4,1.1,2.4,2.4v3h6.1c1.3,0,2.4,1.1,2.4,2.4v5.1c0,1.3-1.1,2.4-2.4,2.4H31.2Z"/>
      <path class="cls-5" d="M158.8,242.2c.3,0,.6.1.7.4.2.2.2.5.1.8-2.5,7.9-4.7,14.8-6.6,20.8,4.3-4.6,12.7-10.9,27.3-11.2,0,0,0,0,0,0,.3,0,.5.1.7.3.2.2.2.5.2.8l-3.6,16c3.9-4.6,11.5-10.1,23.5-10.1s2.1,0,3.1.1c.3,0,.5.2.7.4.2.2.2.5,0,.8l-11.1,31.4h10.3c.5,0,.9.4.9.9v8.8h36.4c.5,0,.9.4.9.9v4.5h7.6c.5,0,.9.4.9.9v5.1c0,.5-.4.9-.9.9H31.2c-.5,0-.9-.4-.9-.9v-5.1c0-.5.4-.9.9-.9h7.3v-4.5c0-.5.4-.9.9-.9h28.6l-4.6-7.2c-.1-.2-.2-.5-.1-.7,0-.2.2-.5.5-.6l21.7-10.5c-3.6-9.8-10.4-15.1-10.5-15.2-.3-.2-.4-.6-.3-1,.1-.4.4-.6.8-.6.9,0,1.7,0,2.6,0,13.5,0,19.3,6.8,21.4,10.6.8-3.2,1.3-5.4,1.4-6.1l-5.7-14.2c-.1-.3,0-.6.1-.9.2-.2.4-.3.7-.3s0,0,.1,0c12,1.8,17.6,10.3,19.7,14.5,4.7-12.6,19.6-26.5,42.9-27.7,0,0,0,0,0,0M158.8,239.2s-.1,0-.1,0c-21.3,1-36.3,12.3-43.2,24.4-3.4-4.5-9.4-9.8-18.9-11.2-.2,0-.4,0-.6,0-1.2,0-2.3.5-3.1,1.5-.9,1.1-1.1,2.6-.5,3.9l4.7,11.7c-3.9-3.2-9.9-6.1-19.1-6.1s-1.8,0-2.8,0c-1.6,0-3,1.2-3.5,2.8-.5,1.6,0,3.3,1.4,4.2,0,0,5.1,4,8.5,11.3l-19.2,9.3c-1,.5-1.7,1.4-2.1,2.4-.3,1.1-.1,2.2.5,3.2l1.7,2.6h-23.2c-2.2,0-3.9,1.8-3.9,3.9v1.5h-4.3c-2.2,0-3.9,1.8-3.9,3.9v5.1c0,2.2,1.8,3.9,3.9,3.9h219c2.2,0,3.9-1.8,3.9-3.9v-5.1c0-2.2-1.8-3.9-3.9-3.9h-4.6v-1.5c0-2.2-1.8-3.9-3.9-3.9h-33.4v-5.8c0-2.2-1.8-3.9-3.9-3.9h-6l9.7-27.4c.4-1.1.3-2.4-.4-3.4-.6-1-1.8-1.7-3-1.8-1.1,0-2.2-.1-3.4-.1-8.2,0-14.3,2.4-18.7,5l1.6-7.3c.3-1.2,0-2.4-.8-3.3-.7-.9-1.8-1.4-3-1.4s0,0,0,0c-9.2.2-16.2,2.6-21.4,5.6,1.1-3.5,2.3-7.3,3.6-11.3.4-1.2.2-2.5-.6-3.6-.7-1-1.9-1.5-3.1-1.5h0Z"/>
    </g>
    <g>
      <rect class="cls-2" x="31.2" y="308.7" width="219" height="5.1"/>
      <rect class="cls-2" x="39.4" y="303.2" width="202.3" height="5.5"/>
      <polygon class="cls-2" points="115.2 278.1 115.2 278.1 104.7 303.2 138.8 303.2 115.2 278.1"/>
      <path class="cls-2" d="M120.1,303.2l-4.9-25.1c0-13.6,15.9-33.6,43.7-35,0,0-18.5,58.8-19.3,59.4"/>
      <path class="cls-2" d="M150.6,269c2.7-4.7,11.5-14.8,29.8-15.1l-11.1,49.4"/>
      <path class="cls-2" d="M171.6,293.5s10-6.8,21.2,0h11.5v9.7"/>
      <path class="cls-2" d="M175.7,275.3c.6-2.7,8.7-15.9,28.7-14.4l-11.5,32.6"/>
      <path class="cls-2" d="M116,272.4s-4.5-13.8-19.9-16.1l13.9,34.4"/>
      <path class="cls-2" d="M101.9,270.7c.2.4-7.9,32.5-7.9,32.5"/>
      <polyline class="cls-2" points="96.1 294.6 81.9 294.6 81.9 303.2"/>
      <path class="cls-2" d="M99.8,279.7s-3.7-13.5-24.2-12.3c0,0,12.7,9.5,13,27.3"/>
      <polyline class="cls-2" points="86.7 283.7 64.2 294.6 69.7 303.2"/>
      <line class="cls-1" x1="155.2" y1="243.1" x2="136.6" y2="300.9"/>
      <line class="cls-1" x1="147.8" y1="256.3" x2="135.2" y2="298.1"/>
      <line class="cls-1" x1="177.2" y1="253.9" x2="166.3" y2="303.2"/>
      <line class="cls-1" x1="171.7" y1="264.5" x2="163.5" y2="303.2"/>
      <line class="cls-1" x1="200.7" y1="260.9" x2="190" y2="292.1"/>
      <line class="cls-1" x1="192.4" y1="277.2" x2="188" y2="291.4"/>
      <line class="cls-1" x1="201.4" y1="293.5" x2="201.4" y2="302.7"/>
      <line class="cls-1" x1="199.2" y1="296.9" x2="199.2" y2="302.7"/>
      <line class="cls-1" x1="99.3" y1="256.3" x2="111.8" y2="286.2"/>
      <path class="cls-1" d="M80.2,267.3c5,4.9,11.6,12.2,11.1,27.3"/>
      <line class="cls-1" x1="82.4" y1="299.8" x2="94" y2="299.8"/>
      <line class="cls-1" x1="67.2" y1="293.2" x2="72.8" y2="303.2"/>
      <path class="cls-1" d="M117.9,280.9c1.9-10,6.6-18.4,14.7-24.5"/>
      <path class="cls-1" d="M111,269.6c2.2,3.4,4,8.9,5.3,14.8"/>
      <path class="cls-1" d="M94,277c1.9,3.1,3.2,6.5,3.9,9.4"/>
      <path class="cls-1" d="M190,267.3c-3.6,1.4-8.5,5.4-10.7,10.8"/>
      <line class="cls-1" x1="115.2" y1="277.2" x2="128.8" y2="303.2"/>
      <line class="cls-1" x1="115.2" y1="277.2" x2="111.8" y2="303.2"/>
      <line class="cls-1" x1="39.4" y1="305.9" x2="241.4" y2="305.9"/>
    </g>
  </g>
  <g>
    <g>
      <g>
        <path class="cls-5" d="M592,316.2c-1.3,0-2.3-1-2.3-2.3v-123.4h-.6c-.8,0-1.5-.7-1.5-1.5v-1.7c0-.4.2-.8.4-1-.2-.3-.4-.6-.4-1v-1.7c0-.8.6-1.4,1.3-1.5v-8.9c0-.2,0-.3,0-.4,0-.1,0-.2,0-.4l2.7-8.2c.3-1,1.2-1.6,2.2-1.6s1.9.6,2.2,1.6l.6,2,3.7-26.5c.2-1.1,1.2-2,2.3-2s2.2.9,2.3,2l3.7,26.5.6-2c.3-1,1.2-1.6,2.2-1.6s1.9.6,2.2,1.6l2.7,8.2c0,0,0,.2,0,.3,0,0,0,.2,0,.4v9.5c.2.2.2.5.2.8v1.7c0,.4-.2.8-.4,1,.2.3.4.6.4,1v1.7c0,.7-.5,1.3-1.2,1.5l3.4,10.4c0,0,0,.2,0,.3,0,0,0,.2,0,.4v112.3c0,1.3-1,2.3-2.3,2.3h-24.9Z"/>
        <path class="cls-5" d="M602.7,139.3c.4,0,.8.3.8.7l4.6,32.9,2.7-8.2c.1-.3.4-.6.8-.6s.7.2.8.6l2.7,8.3s0,0,0,0c0,0,0,.1,0,.2v10.3h.2v1.7h-2.1v2h2.1v1.7h-1.8l4,12.3s0,0,0,0c0,0,0,.1,0,.2v112.3c0,.5-.4.8-.8.8h-24.9c-.5,0-.8-.4-.8-.8v-124.9h-2.1v-1.7h2.1v-2h-2.1v-1.7h1.3v-10.3c0,0,0-.1,0-.2,0,0,0,0,0,0l2.7-8.3c.1-.3.4-.6.8-.6s.7.2.8.6l2.7,8.2,4.6-32.9c0-.4.4-.7.8-.7M602.7,136.3c-1.9,0-3.5,1.4-3.8,3.3l-3.1,22.1c-.6-.4-1.3-.6-2-.6-1.7,0-3.1,1.1-3.6,2.6l-2.7,8.2c0,.2-.1.4-.1.5,0,.2,0,.4,0,.7v7.9c-.8.5-1.3,1.4-1.3,2.5v1.7c0,.4,0,.7.2,1-.1.3-.2.7-.2,1v1.7c0,1.3.9,2.5,2.1,2.9v122c0,2.1,1.7,3.8,3.8,3.8h24.9c2.1,0,3.8-1.7,3.8-3.8v-112.3c0-.3,0-.5,0-.7,0-.2,0-.4-.1-.5l-3-9.2c.6-.5.9-1.3.9-2.2v-1.7c0-.4,0-.7-.2-1,.1-.3.2-.7.2-1v-1.7c0-.4,0-.8-.2-1.2v-9.2c0-.3,0-.5,0-.7,0-.2,0-.4-.1-.5l-2.7-8.2c-.5-1.6-2-2.6-3.6-2.6s-1.4.2-2,.6l-3.1-22.1c-.3-1.9-1.9-3.3-3.8-3.3h0Z"/>
      </g>
      <g>
        <path class="cls-5" d="M516.7,316.2c-1.3,0-2.3-1-2.3-2.3v-112.3c0,0,0-.1,0-.2,0-.2,0-.4,0-.5l3.4-10.4c-.7-.1-1.2-.7-1.2-1.5v-1.7c0-.4.2-.8.4-1-.2-.3-.4-.6-.4-1v-1.7c0-.3,0-.6.2-.8v-9.5c0,0,0-.1,0-.2,0-.2,0-.4.1-.6l2.7-8.2c.3-1,1.2-1.6,2.2-1.6s1.9.6,2.2,1.6l.7,2,3.7-26.5c.2-1.1,1.2-2,2.3-2s2.2.9,2.3,2l3.7,26.5.6-2c.3-1,1.2-1.6,2.2-1.6s1.9.6,2.2,1.6l2.7,8.2c0,0,0,.2,0,.3,0,0,0,.2,0,.4v8.9c.7.1,1.3.7,1.3,1.5v1.7c0,.4-.2.8-.4,1,.2.3.4.6.4,1v1.7c0,.8-.7,1.5-1.5,1.5h-.6v24.8h1.9l17.7-22.8c.4-.6,1.1-.9,1.8-.9s1.4.3,1.8.9l17.7,22.8h4.2c1.3,0,2.3,1,2.3,2.3v96.2c0,1.3-1,2.3-2.3,2.3h-72.3Z"/>
        <path class="cls-5" d="M530.8,139.3c.4,0,.8.3.8.7l4.6,32.9,2.7-8.2c.1-.3.4-.6.8-.6s.7.2.8.6l2.7,8.3s0,0,0,0c0,0,0,.1,0,.2v10.3h1.3v1.7h-2.1v2h2.1v1.7h-2.1v27.8h4.1l18.1-23.4c.2-.2.4-.3.7-.3s.5.1.7.3l18.1,23.4h5c.5,0,.8.4.8.8v96.2c0,.5-.4.8-.8.8h-72.3c-.5,0-.8-.4-.8-.8v-112.3s0,0,0,0c0,0,0-.2,0-.2l4-12.3h-1.8v-1.7h2.1v-2h-2.1v-1.7h.2v-10.3s0,0,0,0c0,0,0-.2,0-.2l2.7-8.3c.1-.3.4-.6.8-.6s.7.2.8.6l2.7,8.2,4.6-32.9c0-.4.4-.7.8-.7M530.8,136.3c-1.9,0-3.5,1.4-3.8,3.3l-3.1,22.1c-.6-.4-1.3-.6-2-.6-1.7,0-3.1,1.1-3.6,2.6l-2.7,8.3c0,.3-.2.6-.2.9,0,0,0,.2,0,.2v9.2c-.2.4-.2.8-.2,1.2v1.7c0,.4,0,.7.2,1-.1.3-.2.7-.2,1v1.7c0,.8.3,1.6.9,2.2l-3,9.2c0,.3-.2.6-.2.9,0,0,0,.2,0,.3v112.3c0,2.1,1.7,3.8,3.8,3.8h72.3c2.1,0,3.8-1.7,3.8-3.8v-96.2c0-2.1-1.7-3.8-3.8-3.8h-3.5l-17.2-22.2c-.7-.9-1.8-1.5-3-1.5s-2.3.5-3,1.5l-16.9,21.8v-21.5c1.2-.4,2.1-1.5,2.1-2.9v-1.7c0-.4,0-.7-.2-1,.1-.3.2-.7.2-1v-1.7c0-1-.5-1.9-1.3-2.5v-7.9c0-.3,0-.5,0-.7,0-.2,0-.4-.1-.5l-2.7-8.2c-.5-1.6-2-2.6-3.6-2.6s-1.4.2-2,.6l-3.1-22.1c-.3-1.9-1.9-3.3-3.8-3.3h0Z"/>
      </g>
    </g>
    <g>
      <rect class="cls-2" x="516.7" y="201.6" width="8.8" height="112.3"/>
      <polygon class="cls-2" points="521.1 188.2 516.7 201.6 525.5 201.6 521.1 188.2"/>
      <polygon class="cls-2" points="539.7 165 537 173.3 542.4 173.3 539.7 165"/>
      <rect class="cls-2" x="525.5" y="304.2" width="16.1" height="9.6"/>
      <polygon class="cls-2" points="533.6 279.5 525.5 286.9 525.5 287.1 525.5 304.2 541.6 304.2 541.6 287.1 541.6 286.9 533.6 279.5"/>
      <path class="cls-2" d="M533.5,292.6c-1.9,0-3.4,1.5-3.4,3.4v8.2h6.8v-8.2c0-1.9-1.5-3.4-3.4-3.4Z"/>
      <path class="cls-2" d="M533.5,231.9c-1.9,0-3.4,1.5-3.4,3.4v8.4h6.9v-8.4c0-1.9-1.5-3.4-3.4-3.4Z"/>
      <path class="cls-1" d="M534.7,232.1c-1.3.5-2.3,1.8-2.3,3.2v8.4h3.9"/>
      <path class="cls-1" d="M534.7,292.6c-1.3.5-2.3,1.8-2.3,3.2v8.4h3.9"/>
      <path class="cls-1" d="M601.2,232.1c-1.3.5-2.3,1.8-2.3,3.2v8.4h3.9"/>
      <path class="cls-1" d="M601.2,292.6c-1.3.5-2.3,1.8-2.3,3.2v8.4h3.9"/>
      <path class="cls-1" d="M530.8,176.7c-1.3,0-2.3,1-2.3,2.3v5.5h4.5v-5.5c0-1.2-1-2.3-2.3-2.3Z"/>
      <rect class="cls-2" x="525.5" y="257.7" width="16.1" height="46.5"/>
      <rect class="cls-2" x="525.5" y="257.7" width="63.5" height="5"/>
      <rect class="cls-1" x="516.7" y="217.7" width="24.9" height="4.8"/>
      <polyline class="cls-2" points="521.1 188.2 541.6 188.2 541.6 222.5 525.5 222.5"/>
      <line class="cls-1" x1="518.2" y1="188.2" x2="544.5" y2="188.2"/>
      <line class="cls-2" x1="518.2" y1="184.4" x2="544.5" y2="184.4"/>
      <rect class="cls-2" x="521.1" y="184.4" width="20.5" height="3.7"/>
      <polygon class="cls-2" points="530.8 140.1 524.7 184.4 537 184.4 530.8 140.1"/>
      <rect class="cls-2" x="537" y="173.3" width="5.4" height="10.6"/>
      <polygon class="cls-2" points="522 165 519.3 173.3 524.7 173.3 522 165"/>
      <rect class="cls-2" x="519.3" y="173.3" width="5.4" height="10.6"/>
      <rect class="cls-2" x="525.5" y="222.5" width="16.1" height="35.2"/>
      <line class="cls-1" x1="528.1" y1="268.9" x2="531.3" y2="268.9"/>
      <line class="cls-1" x1="535.7" y1="268.9" x2="539" y2="268.9"/>
      <rect class="cls-2" x="608.1" y="201.6" width="8.8" height="112.3"/>
      <polygon class="cls-2" points="612.4 188.2 616.8 201.6 608.1 201.6 612.4 188.2"/>
      <polygon class="cls-2" points="593.9 165 596.6 173.3 591.2 173.3 593.9 165"/>
      <rect class="cls-2" x="592" y="304.2" width="16.1" height="9.6"/>
      <polygon class="cls-2" points="599.9 279.5 608.1 286.9 608.1 287.1 608.1 304.2 592 304.2 592 287.1 592 286.9 599.9 279.5"/>
      <path class="cls-2" d="M600,292.6c1.9,0,3.4,1.5,3.4,3.4v8.2h-6.8v-8.2c0-1.9,1.5-3.4,3.4-3.4Z"/>
      <path class="cls-2" d="M600,231.9c1.9,0,3.4,1.5,3.4,3.4v8.4h-6.9v-8.4c0-1.9,1.5-3.4,3.5-3.4Z"/>
      <path class="cls-1" d="M602.7,176.7c1.2,0,2.3,1,2.3,2.3v5.5h-4.5v-5.5c0-1.2,1-2.3,2.3-2.3Z"/>
      <rect class="cls-2" x="592" y="257.7" width="16.1" height="46.5"/>
      <rect class="cls-1" x="592" y="217.7" width="24.9" height="4.8"/>
      <polyline class="cls-2" points="612.4 188.2 592 188.2 592 222.5 608.1 222.5"/>
      <line class="cls-1" x1="615.4" y1="188.2" x2="589" y2="188.2"/>
      <line class="cls-2" x1="615.4" y1="184.4" x2="589" y2="184.4"/>
      <rect class="cls-2" x="592" y="184.4" width="20.5" height="3.7"/>
      <polygon class="cls-2" points="602.7 140.1 608.9 184.4 596.6 184.4 602.7 140.1"/>
      <rect class="cls-2" x="591.2" y="173.3" width="5.4" height="10.6"/>
      <polygon class="cls-2" points="611.6 165 614.3 173.3 608.9 173.3 611.6 165"/>
      <rect class="cls-2" x="608.9" y="173.3" width="5.4" height="10.6"/>
      <rect class="cls-2" x="592" y="222.5" width="16.1" height="35.2"/>
      <line class="cls-1" x1="605.5" y1="268.9" x2="602.2" y2="268.9"/>
      <line class="cls-1" x1="597.8" y1="268.9" x2="594.5" y2="268.9"/>
      <rect class="cls-2" x="541.6" y="217.7" width="47.4" height="96.2"/>
      <rect class="cls-2" x="541.6" y="217.7" width="5.4" height="96.2"/>
      <rect class="cls-2" x="583.7" y="217.7" width="5.4" height="96.2"/>
      <polygon class="cls-2" points="578.5 275.8 565.3 262.8 552.1 275.8 552.1 313.8 578.5 313.8 578.5 275.8"/>
      <path class="cls-2" d="M565.3,282.1s-7.6,7.3-7.6,11.5v20.3h15.3v-20.3c0-4.2-7.6-11.5-7.6-11.5Z"/>
      <path class="cls-1" d="M567.1,283.8c-2.3,2.4-5.9,6.8-5.9,9.7v20.3h5.2"/>
      <path class="cls-2" d="M580.2,237.8c0,8.2-6.7,14.9-14.9,14.9s-14.9-6.7-14.9-14.9,6.7-14.9,14.9-14.9,14.9,6.7,14.9,14.9Z"/>
      <line class="cls-1" x1="565.3" y1="222.9" x2="565.3" y2="252.7"/>
      <line class="cls-1" x1="557.9" y1="224.9" x2="572.7" y2="250.7"/>
      <line class="cls-1" x1="552.4" y1="230.4" x2="578.2" y2="245.2"/>
      <line class="cls-1" x1="550.4" y1="237.8" x2="580.2" y2="237.8"/>
      <line class="cls-1" x1="552.4" y1="245.2" x2="578.2" y2="230.4"/>
      <line class="cls-1" x1="557.9" y1="250.7" x2="572.7" y2="224.9"/>
      <polygon class="cls-2" points="565.3 193.9 547 217.7 583.7 217.7 565.3 193.9"/>
      <polygon class="cls-1" points="575.9 275.8 565.3 262.8 554.7 275.8 554.7 313.8 575.9 313.8 575.9 275.8"/>
      <polygon class="cls-1" points="565.3 201.2 552.6 217.7 578.1 217.7 565.3 201.2"/>
      <line class="cls-1" x1="523.2" y1="201.6" x2="523.2" y2="313.8"/>
      <line class="cls-1" x1="518.9" y1="201.6" x2="518.9" y2="313.8"/>
      <line class="cls-1" x1="614.6" y1="201.6" x2="614.6" y2="313.8"/>
      <line class="cls-1" x1="610.3" y1="201.6" x2="610.3" y2="313.8"/>
      <line class="cls-1" x1="537.8" y1="196.3" x2="537.8" y2="188.2"/>
      <line class="cls-1" x1="534.5" y1="196.3" x2="534.5" y2="188.2"/>
      <line class="cls-1" x1="531.1" y1="196.3" x2="531.1" y2="188.2"/>
      <line class="cls-1" x1="527.7" y1="196.3" x2="527.7" y2="188.2"/>
      <line class="cls-1" x1="524.3" y1="196.3" x2="524.3" y2="188.2"/>
      <line class="cls-1" x1="609.5" y1="196.3" x2="609.5" y2="188.2"/>
      <line class="cls-1" x1="606.1" y1="196.3" x2="606.1" y2="188.2"/>
      <line class="cls-1" x1="602.7" y1="196.3" x2="602.7" y2="188.2"/>
      <line class="cls-1" x1="599.3" y1="196.3" x2="599.3" y2="188.2"/>
      <line class="cls-1" x1="596" y1="196.3" x2="596" y2="188.2"/>
    </g>
  </g>
  <g>
    <g>
      <g>
        <path class="cls-5" d="M629.9,316.2c-1.3,0-2.3-1-2.3-2.3v-46.1l2.1-36.5-1.6-22.7-.4-1c-.1-.4-.1-.8,0-1.1,0-.2,0-.4,0-.7l-.3-3.8s0,0,0-.1v-39.5c0-1.3,1-2.3,2.3-2.3h5.5v-2h-2.7c-1.3,0-2.3-1-2.3-2.3v-7.7c0-.3,0-.6.2-.8,0,0,0-.2,0-.2l14.8-28.9v-2.7c0-.8.7-1.5,1.5-1.5h1.7c.8,0,1.5.7,1.5,1.5v2.7l14.8,28.9c0,0,0,.2,0,.2.1.3.2.5.2.8v7.7c0,1.3-1,2.3-2.3,2.3h-2.7v2h6.3c1.2,0,2.2.9,2.3,2.1l3.9,44.5c0,.1,0,.2,0,.4l-3.9,61v45.9c0,1.3-1,2.3-2.3,2.3h-36.5Z"/>
        <path class="cls-5" d="M648.6,115.3v3l15,29.2h0c0,.1,0,.2,0,.4v7.7c0,.5-.4.8-.8.8h-4.2v5s0,0,0,0h7.8c.4,0,.8.3.8.8l3.9,44.5s0,0,0,.1l-3.9,61v46c0,.5-.4.8-.8.8h-36.5c-.5,0-.8-.4-.8-.8v-46.1l2.1-36.5-1.6-23-.4-1.2h.3c0-.1,0-.7,0-.7h-.1c0-.1.1-.3.1-.3l-.3-4.3v-39.5c0-.5.4-.8.8-.8h7s0,0,0,0v-5h-4.2c-.5,0-.8-.4-.8-.8v-7.7c0-.1,0-.3.1-.4h0s15-29.2,15-29.2v-3h1.7M648.6,112.3h-1.7c-1.7,0-3,1.3-3,3v2.3l-14.6,28.6c0,.1-.1.3-.2.4-.2.4-.2.9-.2,1.3v7.7c0,1.1.5,2.1,1.2,2.8h-.2c-2.1,0-3.8,1.7-3.8,3.8v39.5c0,0,0,.1,0,.2l.3,3.6c0,.2,0,.4,0,.5-.2.6-.2,1.3,0,1.9l.3.9,1.6,22.4-2.1,36.3c0,0,0,.1,0,.2v46.1c0,2.1,1.7,3.8,3.8,3.8h36.5c2.1,0,3.8-1.7,3.8-3.8v-45.9s3.9-60.9,3.9-60.9c0-.2,0-.4,0-.6l-3.9-44.5c-.2-2-1.8-3.5-3.8-3.5h-1c.7-.7,1.2-1.7,1.2-2.8v-7.7c0-.5,0-.9-.2-1.3,0-.1-.1-.3-.2-.4l-14.6-28.6v-2.3c0-1.7-1.3-3-3-3h0Z"/>
      </g>
      <g>
        <rect class="cls-5" x="645.4" y="100.1" width="4.7" height="13.2" rx="1.5" ry="1.5"/>
        <path class="cls-5" d="M648.6,101.6v10.2h-1.7v-10.2h1.7M648.6,98.6h-1.7c-1.7,0-3,1.3-3,3v10.2c0,1.7,1.3,3,3,3h1.7c1.7,0,3-1.3,3-3v-10.2c0-1.7-1.3-3-3-3h0Z"/>
      </g>
    </g>
    <g>
      <polygon class="cls-2" points="666.4 313.8 629.9 313.8 629.9 267.8 632 231.2 629.9 201.8 629.9 162.3 666.4 162.3 670.3 206.8 666.4 267.8 666.4 313.8"/>
      <line class="cls-2" x1="629.9" y1="267.8" x2="666.4" y2="267.8"/>
      <polyline class="cls-2" points="666.4 162.3 630.7 206.8 666.4 313.8"/>
      <line class="cls-2" x1="632" y1="231.2" x2="651.4" y2="267.9"/>
      <line class="cls-2" x1="670.3" y1="206.8" x2="651.4" y2="267.9"/>
      <polyline class="cls-2" points="629.9 267.8 640.6 237.9 629.9 162.3"/>
      <line class="cls-2" x1="629.9" y1="267.8" x2="643.3" y2="313.8"/>
      <line class="cls-2" x1="643.3" y1="313.8" x2="651.4" y2="267.9"/>
      <line class="cls-2" x1="670.3" y1="206.8" x2="629.9" y2="206.8"/>
      <rect class="cls-2" x="632.7" y="147.9" width="30.1" height="7.7"/>
      <rect class="cls-2" x="637.7" y="155.7" width="20.1" height="5.8"/>
      <line class="cls-2" x1="647.7" y1="147.9" x2="647.7" y2="113.9"/>
      <line class="cls-1" x1="647.7" y1="111.9" x2="647.7" y2="101.6"/>
      <line class="cls-2" x1="647.7" y1="118.5" x2="632.7" y2="147.9"/>
      <line class="cls-2" x1="647.7" y1="118.5" x2="662.8" y2="147.9"/>
      <line class="cls-1" x1="666.4" y1="167.8" x2="630.7" y2="206.8"/>
      <line class="cls-1" x1="669.3" y1="222.5" x2="651.7" y2="267.1"/>
      <line class="cls-1" x1="651.4" y1="267.9" x2="666.4" y2="304.2"/>
      <line class="cls-1" x1="629.9" y1="267.8" x2="642.5" y2="242"/>
      <line class="cls-1" x1="629.9" y1="267.8" x2="639.9" y2="313.8"/>
      <line class="cls-1" x1="640.6" y1="236.6" x2="633.6" y2="162.3"/>
      <line class="cls-1" x1="647.7" y1="118.5" x2="639.5" y2="147.9"/>
      <line class="cls-1" x1="647.7" y1="118.5" x2="655.9" y2="147.9"/>
      <line class="cls-1" x1="630" y1="158.5" x2="665.5" y2="158.5"/>
    </g>
  </g>
  <g>
    <path class="cls-4" d="M194.1,215.1s8.6-3.2,12,4.7"/>
    <path class="cls-4" d="M210.9,207.8s-8.2,4-4.7,12"/>
  </g>
  <path class="cls-4" d="M216.6,198.3s10.6,4.3,11.3,11.5h.1c6.3-3.4,15.8,2.9,15.8,2.9"/>
  <line class="cls-2" y1="313.8" x2="750" y2="313.8"/>
  <line class="cls-2" x1="750" y1="323" y2="323"/>
  <g>
    <path class="cls-2" d="M96,46.5c-.5,0-1,0-1.4.2,0,0,0,0,0,0,0-5.8-4.7-10.5-10.5-10.5s-9.6,3.8-10.4,8.8c-1.1-.8-2.4-1.3-3.9-1.3-3.7,0-6.7,3-6.7,6.7s3,6.7,6.7,6.7,5-1.6,6.1-3.9c1.9,2.4,4.9,3.9,8.2,3.9s5.3-1.1,7.2-2.9c.9,1.7,2.7,2.9,4.7,2.9,2.9,0,5.3-2.4,5.3-5.3s-2.4-5.3-5.3-5.3Z"/>
    <path class="cls-1" d="M63.2,48.5c.6,3.1,3.3,5.3,6.6,5.3s5-1.6,6.1-3.9c1.9,2.4,4.9,3.9,8.2,3.9s5.3-1.1,7.2-2.9c.9,1.7,2.7,2.9,4.7,2.9s4.4-1.5,5.1-3.7"/>
    <path class="cls-1" d="M83.9,31.2c1.2,0,2.3.1,3.4.4"/>
    <path class="cls-1" d="M72.7,36c1.7-1.8,3.8-3.1,6.2-4"/>
    <path class="cls-1" d="M102.7,57.7c-1.6,1.8-3.9,2.9-6.5,2.9"/>
  </g>
  <g>
    <path class="cls-2" d="M352.9,140.5c-1.9,0-3.7.7-5.1,1.9-1.5-3-4.6-5-8.2-5s-1.6.1-2.4.3c-.9-1.5-2.6-2.5-4.5-2.5-2.9,0-5.3,2.4-5.3,5.3s1.3,4,3.1,4.8c0,.4,0,.8,0,1.3,0,5.1,4.1,9.1,9.1,9.1s5.3-1.3,7-3.3c1.4,2,3.7,3.3,6.2,3.3,4.2,0,7.6-3.4,7.6-7.6s-3.4-7.6-7.6-7.6Z"/>
    <path class="cls-1" d="M330.6,145.3c.7,4.4,4.5,7.8,9,7.8s5.3-1.3,7-3.3c1.4,2,3.7,3.3,6.2,3.3,3.7,0,6.9-2.7,7.5-6.3"/>
    <path class="cls-1" d="M364.2,151.6c-.7,2.3-2.1,4.2-3.9,5.7"/>
    <path class="cls-1" d="M326.5,132.6c1.7-1.3,3.9-2.1,6.2-2.1"/>
    <path class="cls-1" d="M322.7,140.5c0-1.9.5-3.6,1.4-5.1"/>
  </g>
  <g>
    <g>
      <path class="cls-5" d="M125.5,23.5c-3.9,0-7.3-2.9-7.9-6.8-.3-2.1.2-4.2,1.5-5.9,1.3-1.7,3.1-2.8,5.2-3.2.4,0,.8,0,1.2,0,2,0,3.9.7,5.3,2,.5-.2,1-.4,1.6-.5.3,0,.7,0,1,0,3.2,0,6.1,2.4,6.5,5.6.3,1.7-.2,3.5-1.2,4.9-1,1.4-2.6,2.4-4.3,2.6-.3,0-.7,0-1,0-1,0-2-.2-2.8-.6-1.1.9-2.4,1.5-3.9,1.7-.4,0-.8,0-1.2,0Z"/>
      <path class="cls-5" d="M125.5,9.1c2,0,3.8.9,5,2.4.6-.4,1.3-.7,2.1-.8.3,0,.5,0,.8,0,2.5,0,4.7,1.8,5.1,4.4.4,2.8-1.5,5.4-4.3,5.8-.3,0-.5,0-.8,0-1.1,0-2.2-.4-3.1-1-1,1.1-2.3,1.9-3.9,2.1-.3,0-.7,0-1,0-3.1,0-5.9-2.3-6.4-5.5-.5-3.5,1.9-6.8,5.4-7.4.3,0,.7,0,1,0M125.5,6.1h0c-.5,0-1,0-1.4.1-2.5.4-4.7,1.7-6.2,3.8-1.5,2-2.1,4.5-1.7,7,.7,4.6,4.7,8.1,9.4,8.1s1,0,1.4-.1c1.4-.2,2.7-.7,3.9-1.5.8.3,1.7.4,2.6.4s.8,0,1.2,0c2.1-.3,4-1.5,5.3-3.2,1.3-1.7,1.8-3.9,1.5-6-.6-3.9-4-6.9-8-6.9s-.8,0-1.2,0c-.4,0-.7.1-1.1.2-1.6-1.2-3.6-1.8-5.6-1.8h0Z"/>
    </g>
    <path class="cls-2" d="M132.6,10.6c-.8.1-1.5.4-2.1.8-1.4-1.7-3.6-2.7-6-2.3-3.5.5-6,3.8-5.4,7.4.5,3.5,3.8,6,7.4,5.4,1.6-.2,2.9-1,3.9-2.1,1.1.8,2.4,1.2,3.8,1,2.8-.4,4.7-3,4.3-5.8-.4-2.8-3-4.7-5.8-4.3Z"/>
    <path class="cls-1" d="M119.1,14.3c.7,3.4,3.9,5.7,7.3,5.1,1.6-.2,2.9-1,3.9-2.1,1.1.8,2.4,1.2,3.8,1,2.1-.3,3.7-1.9,4.2-3.8"/>
  </g>
  <g>
    <g>
      <path class="cls-5" d="M525.3,83.2c-.4,0-.8,0-1.2,0-1.4-.2-2.8-.8-3.9-1.7-.9.4-1.8.6-2.8.6s-.7,0-1,0c-3.6-.6-6.1-3.9-5.6-7.6.5-3.2,3.3-5.6,6.5-5.6s.7,0,1,0c.6,0,1.1.2,1.6.5,1.5-1.3,3.3-2,5.3-2s.8,0,1.2,0c2.1.3,4,1.4,5.2,3.2,1.3,1.7,1.8,3.8,1.5,5.9-.6,3.9-4,6.8-7.9,6.8Z"/>
      <path class="cls-5" d="M525.2,68.7c.3,0,.6,0,1,0,3.5.5,6,3.8,5.4,7.4-.5,3.2-3.2,5.5-6.4,5.5s-.7,0-1,0c-1.6-.2-2.9-1-3.9-2.1-.9.6-1.9,1-3.1,1s-.5,0-.8,0c-2.8-.4-4.7-3-4.3-5.8.4-2.5,2.6-4.4,5.1-4.4s.5,0,.8,0c.8.1,1.5.4,2.1.8,1.2-1.5,3-2.4,5-2.4M525.2,65.7c-2,0-4,.7-5.6,1.8-.4-.1-.7-.2-1.1-.2-.4,0-.8,0-1.2,0-4,0-7.4,3-8,6.9-.7,4.4,2.4,8.6,6.8,9.3.4,0,.8,0,1.2,0,.9,0,1.8-.1,2.6-.4,1.2.8,2.5,1.3,3.9,1.5.5,0,1,.1,1.4.1,4.6,0,8.7-3.5,9.4-8.1.4-2.5-.2-5-1.7-7-1.5-2-3.7-3.4-6.2-3.8-.5,0-1-.1-1.4-.1h0Z"/>
    </g>
    <path class="cls-2" d="M518.1,70.3c.8.1,1.5.4,2.1.8,1.4-1.7,3.6-2.7,6-2.3,3.5.5,6,3.8,5.4,7.4-.5,3.5-3.8,6-7.4,5.4-1.6-.2-2.9-1-3.9-2.1-1.1.8-2.4,1.2-3.8,1-2.8-.4-4.7-3-4.3-5.8.4-2.8,3-4.7,5.8-4.3Z"/>
    <path class="cls-1" d="M531.6,74c-.7,3.4-3.9,5.7-7.3,5.1-1.6-.2-2.9-1-3.9-2.1-1.1.8-2.4,1.2-3.8,1-2.1-.3-3.7-1.9-4.2-3.8"/>
  </g>
  <g>
    <g>
      <g>
        <path class="cls-5" d="M606.5,28.8c-1.6,0-3.1-.5-4.4-1.3-1.2.5-2.5.8-3.9.9-.1,0-.2,0-.4,0-1.7,0-3.4-.4-4.9-1.2-1.2.6-2.6.9-3.9.9-.1,0-.2,0-.4,0-1.7,0-3.4-.4-4.9-1.2-1.2.6-2.5,1-3.9,1-.1,0-.2,0-.3,0-5,0-9.1-4-9.3-9-.2-5.1,3.9-9.5,9-9.6h.3c.7,0,1.3,0,2,.2,1.4-1.2,3-2.1,4.9-2.5,1-3.1,3.9-5.3,7.2-5.4h.3c3.7,0,6.9,2.6,7.7,6.1,2.7,1,4.8,2.9,6,5.5,3.8.5,6.7,3.6,6.9,7.6,0,2.1-.7,4.1-2.1,5.7-1.4,1.5-3.4,2.4-5.5,2.5h-.3Z"/>
        <path class="cls-5" d="M593.8,3c3.3,0,6,2.5,6.3,5.8,2.9.8,5.3,2.9,6.3,5.8h0c3.4,0,6.3,2.7,6.4,6.2.1,3.5-2.6,6.5-6.2,6.6,0,0-.1,0-.2,0-1.6,0-3.1-.6-4.2-1.6-1.2.7-2.6,1.1-4.1,1.1-.1,0-.2,0-.3,0-1.8,0-3.4-.5-4.8-1.4-1.2.6-2.6,1-4,1.1-.1,0-.2,0-.3,0-1.8,0-3.5-.5-4.9-1.4-1.1.7-2.5,1.2-3.9,1.2,0,0-.2,0-.3,0-4.2,0-7.7-3.3-7.8-7.6-.1-4.3,3.2-7.9,7.5-8.1,0,0,.2,0,.3,0,.8,0,1.6.1,2.4.4,1.4-1.5,3.4-2.6,5.6-2.9.5-2.9,3-5.1,6.1-5.2,0,0,.1,0,.2,0M593.8,0h0c-.1,0-.2,0-.3,0-3.7.1-6.9,2.4-8.3,5.7-1.5.4-2.9,1.2-4.2,2.2-.5,0-1-.1-1.5-.1s-.2,0-.4,0c-6,.2-10.6,5.2-10.4,11.2.2,5.9,4.9,10.5,10.8,10.5s.2,0,.4,0c1.3,0,2.6-.3,3.8-.8,1.6.7,3.2,1,4.9,1s.3,0,.4,0c1.3,0,2.6-.3,3.8-.8,1.6.7,3.2,1,4.9,1s.3,0,.4,0c1.3,0,2.5-.3,3.7-.7,1.4.8,2.9,1.2,4.5,1.2s.2,0,.3,0c2.5,0,4.8-1.1,6.5-3,1.7-1.8,2.6-4.2,2.5-6.7-.1-4.4-3.2-8-7.4-8.9-1.3-2.3-3.3-4.2-5.8-5.2-1.2-3.8-4.8-6.5-8.9-6.5h0Z"/>
      </g>
      <path class="cls-2" d="M612.9,20.7c-.1-3.5-3-6.2-6.4-6.2-1-2.8-3.4-5-6.3-5.8-.3-3.3-3.2-5.9-6.6-5.8-3.1.1-5.5,2.3-6.1,5.2-2.2.3-4.2,1.3-5.6,2.9-.8-.3-1.7-.4-2.7-.4-4.3.1-7.7,3.8-7.5,8.1.1,4.3,3.8,7.7,8.1,7.5,1.5,0,2.8-.5,3.9-1.2,1.5,1,3.3,1.5,5.2,1.4,1.5,0,2.8-.4,4-1.1,1.5.9,3.3,1.4,5.2,1.4,1.5,0,2.9-.5,4.1-1.1,1.2,1,2.7,1.6,4.4,1.6,3.5-.1,6.3-3.1,6.2-6.6Z"/>
      <path class="cls-1" d="M572,16.4c.8,3.6,4.1,6.3,7.9,6.2,1.5,0,2.8-.5,3.9-1.2,1.5,1,3.3,1.5,5.2,1.4,1.5,0,2.8-.4,4-1.1,1.5.9,3.3,1.4,5.2,1.4,1.5,0,2.9-.5,4.1-1.1,1.2,1,2.7,1.6,4.4,1.6,2.6,0,4.9-1.8,5.8-4.1"/>
    </g>
    <path class="cls-3" d="M610.7,30.1c-1.2.5-2.6.8-4,.7"/>
    <path class="cls-3" d="M616.7,21.4c0,2.7-1.2,5-3,6.7"/>
    <path class="cls-3" d="M573.7,8c1.7-.8,3.6-1.3,5.6-1.2"/>
    <path class="cls-3" d="M567.2,18.2c.1-3.5,1.7-6.5,4.1-8.6"/>
  </g>
  <g>
    <path class="cls-2" d="M294.5,95.2c7.5-7.5,22.1,5.7,28.6-.9"/>
    <path class="cls-1" d="M295.4,99.7c3.2-3.2,7.7-2.5,12.3-1.1"/>
  </g>
  <g>
    <path class="cls-2" d="M663.6,59.6c7.5-7.4,22,5.9,28.6-.6"/>
    <path class="cls-1" d="M664.4,64c3.2-3.1,7.7-2.4,12.3-.9"/>
  </g>
  <g>
    <path class="cls-2" d="M78.1,157.8c4,13.1,20.3,21.1,23.6,20.1,3.3-1,12-17.8,8.3-29.9-2.7-8.8-9.2-15.7-21.1-12.1-11.2,3.4-13.4,13-10.7,21.8Z"/>
    <path class="cls-2" d="M83.2,156.3c3.7,12.2,16.5,22.3,18.4,21.7,2.2-.7,6.6-16.7,3.1-28.3-2.7-8.8-8.2-16-15.9-13.6-8.2,2.5-8.3,11.4-5.6,20.2Z"/>
    <path class="cls-2" d="M88.6,154.6c3.5,11.5,13,23.3,13,23.3,0,0,1.2-15.3-2.3-26.6-2.7-8.8-7.6-16.2-10.6-15.3-3,.9-2.9,9.8-.2,18.6Z"/>
    <line class="cls-2" x1="101.6" y1="178" x2="106.6" y2="183.1"/>
    <line class="cls-2" x1="101.6" y1="178" x2="100.1" y2="185"/>
    <rect class="cls-2" x="100.7" y="183.9" width="6.8" height="4.7" transform="translate(-50 38.7) rotate(-17)"/>
    <path class="cls-1" d="M80.5,157.1c3.7,12.2,18.7,21.6,21.1,20.9,2.8-.9,9.3-17.6,5.8-29.1-2.7-8.8-9-15.8-18.7-12.8-10.2,3.1-11,12.3-8.3,21.1Z"/>
    <path class="cls-1" d="M86.4,155.3c3.5,11.5,15.3,22.7,15.3,22.7,0,0,3.4-16,0-27.3-2.7-8.8-8.6-15.9-12.8-14.6-4.2,1.3-5.1,10.5-2.4,19.3Z"/>
    <path class="cls-1" d="M92.3,153.5c3.5,11.5,9.3,24.5,9.3,24.5,0,0-2.5-14.2-6-25.5-2.7-8.8-5.9-16.7-6.9-16.4-.9.3.8,8.6,3.5,17.4Z"/>
  </g>
  <g>
    <path class="cls-2" d="M188.7,87.5c.4,7,6.3,12.4,13.3,12,7-.4,12.4-6.3,12-13.3-.4-7-6.3-12.4-13.3-12-7,.4-12.4,6.3-12,13.3Z"/>
    <g>
      <line class="cls-1" x1="200.5" y1="70" x2="200.2" y2="64.6"/>
      <line class="cls-1" x1="202.6" y1="109.1" x2="202.3" y2="103.7"/>
      <line class="cls-1" x1="209.1" y1="71.8" x2="211.5" y2="67"/>
      <line class="cls-1" x1="191.3" y1="106.7" x2="193.8" y2="101.9"/>
      <line class="cls-1" x1="215.5" y1="77.7" x2="220.1" y2="74.7"/>
      <line class="cls-1" x1="182.8" y1="99" x2="187.3" y2="96"/>
      <line class="cls-1" x1="218.2" y1="86" x2="223.6" y2="85.7"/>
      <line class="cls-1" x1="179.2" y1="88" x2="184.6" y2="87.7"/>
      <line class="cls-1" x1="216.4" y1="94.5" x2="221.2" y2="96.9"/>
      <line class="cls-1" x1="181.6" y1="76.8" x2="186.4" y2="79.2"/>
      <line class="cls-1" x1="210.6" y1="101" x2="213.5" y2="105.5"/>
      <line class="cls-1" x1="189.3" y1="68.2" x2="192.2" y2="72.7"/>
    </g>
  </g>
</svg>