<svg version="1.2" xmlns="http://www.w3.org/2000/svg" viewBox="0 0 228 164" width="228" height="164"><style>.a{fill:#767677}.b{fill:#467bbe}.c{fill:#ed342c}.d{fill:#01ab4e}.e{fill:#fcb514}</style><path fill-rule="evenodd" class="a" d="m69 97.5v12.4h-3.9v-30.4h10.4q3.9 0 6.7 2.6 2.8 2.6 2.8 6.4 0 3.9-2.8 6.5-2.8 2.5-6.7 2.5zm0-14.3v10.6h6.5q2.3 0 3.9-1.6 1.5-1.5 1.5-3.7 0-2.1-1.5-3.7-1.6-1.6-3.9-1.6z"/><path fill-rule="evenodd" class="a" d="m95.4 88.4q4.3 0 6.8 2.3 2.6 2.3 2.6 6.3v12.9h-3.8v-2.9h-0.2q-2.4 3.5-6.4 3.5-3.4 0-5.8-2-2.3-2-2.3-5.1 0-3.2 2.5-5.1 2.4-1.9 6.5-1.9 3.5 0 5.7 1.2v-0.9q0-2-1.6-3.4-1.6-1.4-3.8-1.4-3.2 0-5.2 2.7l-3.4-2.1q2.8-4.1 8.4-4.1zm-5 15.1q0 1.5 1.3 2.5 1.2 1.1 3 1.1 2.5 0 4.4-1.9 1.9-1.8 1.9-4.3-1.8-1.4-5.1-1.4-2.4 0-3.9 1.1-1.6 1.2-1.6 2.9z"/><path class="a" d="m109.2 89.1h3.7v3.4h0.2q1.7-4 7.2-4h0.8v4.1l-1.8-0.1q-2.7 0-4.5 1.6-1.7 1.7-1.7 4.3v11.5h-3.9zm24.3 21.1q-2.5 0-4.2-1.6-1.7-1.5-1.7-4.3v-11.7h-3.7v-3.5h3.7v-6.4h3.9v6.4h5.1v3.5h-5.1v10.4q0 2.1 0.8 2.8 0.8 0.8 1.8 0.8 0.5 0 0.9-0.1 0.5-0.2 0.9-0.3l1.2 3.5q-1.5 0.5-3.6 0.5z"/><path class="a" d="m140.5 89.1h3.8v2.8h0.2q0.8-1.5 2.7-2.5 1.8-1 3.8-1 3.9 0 5.9 2.2 2.1 2.2 2.1 6.2v13.1h-3.9v-12.9q-0.2-5.1-5.2-5.1-2.3 0-3.9 1.9-1.5 1.9-1.5 4.6v11.5h-4z"/><path fill-rule="evenodd" class="a" d="m172.9 110.5q-4.6 0-7.6-3.1-2.9-3.1-2.9-7.9 0-4.8 2.9-8 2.8-3.1 7.4-3.1 4.6 0 7.3 3 2.8 3 2.8 8.4l-0.1 0.4h-16.3q0 3 2 4.9 2 1.9 4.7 1.9 3.7 0 5.8-3.8l3.5 1.7q-1.4 2.7-3.9 4.2-2.5 1.4-5.6 1.4zm-6.2-13.5h11.9q-0.2-2.2-1.8-3.6-1.6-1.5-4.2-1.5-2.2 0-3.8 1.4-1.6 1.4-2.1 3.7z"/><path class="a" d="m190.2 109.9h-3.9v-20.8h3.8v3.4h0.1q0.6-1.7 2.5-2.9 1.8-1.1 3.6-1.1 1.7 0 2.9 0.5l-1.2 3.8q-0.7-0.3-2.3-0.3-2.2 0-3.8 1.7-1.7 1.8-1.7 4.2z"/><path class="b" d="m73.9 61.7v2.6h6.4q-0.3 2.6-2.1 4-1.7 1.3-4.3 1.3-2.9 0-4.9-2-2-2.1-2-5 0-3 2-5 2-2.1 4.9-2.1 2.8 0 4.8 1.9l1.9-1.9q-2.8-2.6-6.7-2.6-2.6 0-4.9 1.3-2.3 1.3-3.6 3.6-1.3 2.2-1.3 4.8 0 2.6 1.3 4.8 1.3 2.2 3.6 3.6 2.3 1.3 4.9 1.3 4 0 6.6-2.5 2.5-2.4 2.5-6.4 0-1-0.1-1.7z"/><path fill-rule="evenodd" class="c" d="m94.7 61.6q1.8 1.8 1.8 4.4 0 2.7-1.8 4.5-1.8 1.8-4.5 1.8-2.6 0-4.4-1.8-1.8-1.8-1.8-4.5 0-2.6 1.8-4.4 1.8-1.8 4.4-1.8 2.7 0 4.5 1.8zm-0.9 4.4q0-1.6-1.1-2.7-1-1.1-2.5-1.1-1.5 0-2.5 1.1-1 1.1-1 2.7 0 1.6 1 2.7 1 1.1 2.5 1.1 1.5 0 2.5-1.1 1.1-1.1 1.1-2.7z"/><path class="d" d="m125.2 71.9h2.8v-18.4h-2.8z"/><path fill-rule="evenodd" class="e" d="m108.4 61.6q1.8 1.8 1.8 4.4 0 2.7-1.8 4.5-1.8 1.8-4.5 1.8-2.6 0-4.4-1.8-1.9-1.8-1.9-4.5 0-2.6 1.8-4.4 1.8-1.8 4.5-1.8 2.7 0 4.5 1.8zm-0.9 4.4q0-1.6-1.1-2.7-1-1.1-2.5-1.1-1.5 0-2.5 1.1-1 1.1-1 2.7 0 1.6 1 2.7 1 1.1 2.5 1.1 1.5 0 2.5-1.1 1.1-1.1 1.1-2.7z"/><path fill-rule="evenodd" class="c" d="m138.6 68.1l2.1 1.4q-1.9 2.8-5.2 2.8-2.7 0-4.4-1.8-1.8-1.8-1.8-4.5 0-2.6 1.7-4.4 1.7-1.8 4.2-1.8 0.9 0 1.7 0.3 0.9 0.2 1.6 0.8 0.6 0.5 1.2 1.2 0.5 0.8 0.8 1.7l0.3 0.7-8.3 3.4q0.9 1.9 3 1.9 1.9 0 3.1-1.7zm-6.6-2.3l5.6-2.3q-0.2-0.6-0.9-0.9-0.6-0.4-1.4-0.4-1.3 0-2.3 1-1 1.1-1 2.6z"/><path fill-rule="evenodd" class="b" d="m120.7 60.2h2.6v11.2q0 3.1-1.6 4.8-1.5 1.7-4.3 1.7-1 0-1.8-0.3-0.9-0.3-1.6-0.7-0.7-0.5-1.3-1.2-0.5-0.7-0.9-1.5l2.4-1q0.5 1 1.3 1.6 0.8 0.6 1.9 0.6 3.3 0 3.3-3.9v-0.6h-0.1q-1.2 1.4-3.3 1.4-2.4 0-4.2-1.8-1.8-1.9-1.8-4.5 0-2.5 1.8-4.4 1.8-1.8 4.2-1.8 2.1 0 3.3 1.4h0.1zm0.2 5.9q0-1.6-1-2.8-0.9-1-2.3-1-1.5 0-2.5 1.1-1 1.1-1 2.7 0 1.6 1 2.6 1 1.1 2.5 1.1 1.4 0 2.3-1 1-1.1 1-2.7z"/><path class="b" d="m29 119.9h19.9v-75.8h-19.9z"/></svg>