<svg width="14" height="11" viewBox="0 0 14 11" fill="none" xmlns="http://www.w3.org/2000/svg">
<path d="M13.6713 1.79025C13.838 1.95691 13.9213 2.1593 13.9213 2.39739C13.9213 2.63549 13.838 2.83787 13.6713 3.00453L7.20703 9.46882L5.99275 10.6831C5.82608 10.8498 5.6237 10.9331 5.3856 10.9331C5.14751 10.9331 4.94513 10.8498 4.77846 10.6831L3.56417 9.46882L0.332031 6.23668C0.165365 6.07001 0.0820312 5.86763 0.0820312 5.62953C0.0820312 5.39144 0.165365 5.18906 0.332031 5.02239L1.54632 3.8081C1.71298 3.64144 1.91536 3.5581 2.15346 3.5581C2.39156 3.5581 2.59394 3.64144 2.7606 3.8081L5.3856 6.44203L11.2427 0.575962C11.4094 0.409295 11.6118 0.325962 11.8499 0.325962C12.088 0.325962 12.2904 0.409295 12.457 0.575962L13.6713 1.79025Z" fill="black"/>
</svg>
