<svg version="1.2" xmlns="http://www.w3.org/2000/svg" viewBox="0 0 731 654" width="731" height="654">
	<title>digitalmarketingBanner-svg</title>
	<style>
		tspan { white-space:pre } 
		.s0 { fill: #ffffff;stroke: #231f20;stroke-miterlimit:10 } 
		.s1 { fill: #ffffff;stroke: #231f20;stroke-miterlimit:10;stroke-width: 3 } 
		.s2 { fill: #4cd0dc } 
		.s3 { fill: #ffffff } 
		.s4 { fill: #afdcda } 
		.s5 { fill: none;stroke: #000000;stroke-linecap: round;stroke-miterlimit:10;stroke-width: 4 } 
		.s6 { fill: #fdc33d } 
		.s7 { fill: none;stroke: #231f20;stroke-miterlimit:10;stroke-width: 3 } 
		.s8 { fill: #8f9b23 } 
		.s9 { fill: #d83f25 } 
		.s10 { fill: none;stroke: #231f20;stroke-linecap: round;stroke-miterlimit:10;stroke-width: 3 } 
		.s11 { fill: #adb72a } 
		.t12 { font-size: 80px;fill: #000000;font-weight: 800;font-family: "OpenSans-Extrabold", "Open Sans" } 
		.s13 { fill: none;stroke: #000000;stroke-linecap: round;stroke-miterlimit:10;stroke-width: 3 } 
	</style>
	<g id="background">
		<path class="s0" d="m-25.5-59.5h800v800h-800z"/>
	</g>
	<g id="object">
		<g>
			<g>
				<path class="s1" d="m612.8 213.5c-32 0-57.9-25.9-57.9-57.9 0-32 25.9-57.9 57.9-57.9 32 0 57.9 25.9 57.9 57.9 0 32-25.9 57.9-57.9 57.9z"/>
				<path class="s2" d="m612.8 197.5c-23.2 0-41.9-18.7-41.9-41.9 0-23.2 18.7-41.9 41.9-41.9 23.2 0 41.9 18.7 41.9 41.9 0 23.2-18.7 41.9-41.9 41.9z"/>
				<path class="s3" d="m612.8 181.6c-14.4 0-26-11.6-26-26 0-14.4 11.6-26 26-26 14.4 0 26 11.6 26 26 0 14.4-11.6 26-26 26z"/>
				<path class="s2" d="m612.8 169.4c-7.6 0-13.8-6.2-13.8-13.8 0-7.6 6.2-13.8 13.8-13.8 7.6 0 13.8 6.2 13.8 13.8 0 7.6-6.2 13.8-13.8 13.8z"/>
			</g>
			<path class="s4" d="m331.1 549.1l166.8-154.3 166.7 154.3h-333.5z"/>
			<path fill-rule="evenodd" class="s5" d="m411.4 435.3h49.1c24.8 0 44.9-20.1 44.9-44.9v-88.2"/>
			<g>
				<path class="s1" d="m265.3 340.8h160.1c2.4 0 4.3 1.9 4.3 4.3v113.6c0 2.4-1.9 4.3-4.3 4.3h-160.1c-2.4 0-4.3-1.9-4.3-4.3v-113.6c0-2.4 1.9-4.3 4.3-4.3z"/>
				<path class="s6" d="m269.5 350.4h151.7v89.2h-151.7z"/>
				<path class="s1" d="m334.5 463h30.3v20.8h-30.3z"/>
				<path class="s1" d="m327.4 483.9h44.4v6.3h-44.4z"/>
			</g>
			<g>
				<path class="s2" d="m471.2 289.6h84c3.3 0 5.9 2.6 5.9 5.9v63c0 3.3-2.6 5.9-5.9 5.9h-84c-3.3 0-5.9-2.6-5.9-5.9v-63c0-3.3 2.6-5.9 5.9-5.9z"/>
				<path class="s7" d="m464.3 283.6h84c3.3 0 5.9 2.6 5.9 5.9v63c0 3.3-2.6 5.9-5.9 5.9h-84c-3.3 0-5.9-2.6-5.9-5.9v-63c0-3.3 2.6-5.9 5.9-5.9z"/>
				<path fill-rule="evenodd" class="s7" d="m546.7 283.6h-80.7c-4.2 0-7.6 3.4-7.6 7.6v15.9l47.9 13.9 47.9-13.5v-16.4c0-4.2-3.4-7.6-7.6-7.6z"/>
				<path fill-rule="evenodd" class="s7" d="m490.1 282.1v-5.1c0-3.9 3.2-7.1 7.1-7.1h13.5c3.9 0 7.1 3.2 7.1 7.1v5.1"/>
				<path class="s3" d="m496.1 332.8h20.4v10.6h-20.4z"/>
			</g>
			<g>
				<path class="s8" d="m640.3 290.9c-22.6 0-40.9 12.5-40.9 28 0 15.5 9.3 20.5 22.8 25.1l-10.8 14.1 19-12c3.2 0.5 6.5 0.8 9.9 0.8 22.6 0 40.9-12.5 40.9-28 0-15.5-18.3-28-40.9-28z"/>
				<g>
					<path class="s3" d="m613.2 321.7c-1.5 0-2.8-1.3-2.8-2.8 0-1.5 1.3-2.8 2.8-2.8 1.5 0 2.8 1.3 2.8 2.8 0 1.5-1.3 2.8-2.8 2.8z"/>
					<path class="s3" d="m632.3 321.7c-1.5 0-2.8-1.3-2.8-2.8 0-1.5 1.3-2.8 2.8-2.8 1.5 0 2.8 1.3 2.8 2.8 0 1.5-1.3 2.8-2.8 2.8z"/>
					<path class="s3" d="m651.5 321.7c-1.5 0-2.8-1.3-2.8-2.8 0-1.5 1.3-2.8 2.8-2.8 1.5 0 2.8 1.3 2.8 2.8 0 1.5-1.3 2.8-2.8 2.8z"/>
				</g>
				<path fill-rule="evenodd" class="s7" d="m632.3 290.9c-22.6 0-40.9 12.5-40.9 28 0 15.5 9.3 20.5 22.8 25.1l-10.8 14.1 19-12c3.2 0.5 6.5 0.8 9.9 0.8 22.6 0 40.9-12.5 40.9-28 0-15.5-18.3-28-40.9-28z"/>
			</g>
			<g>
				<path class="s9" d="m591.2 385.6h57.8c3.9 0 7 3.1 7 7v46.3c0 3.9-3.1 7-7 7h-57.8c-3.9 0-7-3.1-7-7v-46.3c0-3.9 3.1-7 7-7z"/>
				<path class="s7" d="m583.9 379.3h57.8c3.9 0 7 3.1 7 7v46.3c0 3.9-3.1 7-7 7h-57.8c-3.9 0-7-3.1-7-7v-46.3c0-3.9 3.1-7 7-7z"/>
				<path class="s3" d="m602.1 394.8l25.5 14.7-25.5 14.7v-29.4z"/>
			</g>
			<g>
				<path class="s6" d="m113.3 426c-13.5 0-24.5-11-24.5-24.5 0-13.5 11-24.5 24.5-24.5 13.5 0 24.5 11 24.5 24.5 0 13.5-11 24.5-24.5 24.5z"/>
				<path class="s10" d="m113.3 434.4c-18.2 0-32.9-14.7-32.9-32.9 0-18.2 14.7-32.9 32.9-32.9 18.2 0 32.9 14.7 32.9 32.9 0 18.2-14.7 32.9-32.9 32.9z"/>
				<path class="s10" d="m113.3 418.4c-9.3 0-16.9-7.6-16.9-16.9 0-9.3 7.6-16.9 16.9-16.9 9.3 0 16.9 7.6 16.9 16.9 0 9.3-7.6 16.9-16.9 16.9z"/>
				<g>
					<g>
						<path class="s10" d="m113.3 378.1v-22.2"/>
						<path class="s10" d="m113.3 447.1v-22.2"/>
					</g>
					<g>
						<path class="s10" d="m136.7 401.5h22.2"/>
						<path class="s10" d="m67.7 401.5h22.2"/>
					</g>
				</g>
			</g>
			<g>
				<path class="s6" d="m143.6 229.4h67.7v49.4h-67.7z"/>
				<path class="s7" d="m136.2 222h67.7v49.4h-67.7z"/>
				<path class="s7" d="m136.2 236.9l33.9 17.9 33.9-17.9v-14.9h-67.8v14.9z"/>
			</g>
			<g>
				<path class="s7" d="m398 180.4h103.5c2.8 0 5 2.2 5 5v64.4c0 2.8-2.2 5-5 5h-103.5c-2.8 0-5-2.2-5-5v-64.4c0-2.8 2.2-5 5-5z"/>
				<path class="s11" d="m398.3 186.5h102.5v38.5h-102.5z"/>
				<path class="s11" d="m430.8 228.5h37.9v22.3h-37.9z"/>
				<path fill-rule="evenodd" class="s7" d="m510.6 151.8h-121.7c-2 0-3.5 2-2.8 3.9l6.1 18.2c0.5 1.5 1.9 2.5 3.5 2.5h108.2c1.6 0 3-1 3.5-2.5l6.1-18.2c0.6-1.9-0.8-3.9-2.8-3.9z"/>
				<path class="s11" d="m506.4 155.6h-113.2c-1.9 0-3.2 1.4-2.6 2.7l5.7 12.8c0.5 1 1.8 1.8 3.2 1.8h100.7c1.5 0 2.8-0.7 3.2-1.8l5.7-12.8c0.6-1.3-0.7-2.7-2.6-2.7z"/>
			</g>
			<g>
				<path class="s1" d="m245.3 221.6h39.2c1.5 0 2.8 1.3 2.8 2.8v80.6c0 1.5-1.3 2.8-2.8 2.8h-39.2c-1.5 0-2.8-1.3-2.8-2.8v-80.6c0-1.5 1.3-2.8 2.8-2.8z"/>
				<path class="s2" d="m246.4 228.1h36.8v67.5h-36.8z"/>
				<path class="s2" d="m264.8 303.3c-1.5 0-2.8-1.3-2.8-2.8 0-1.5 1.3-2.8 2.8-2.8 1.5 0 2.8 1.3 2.8 2.8 0 1.5-1.3 2.8-2.8 2.8z"/>
			</g>
			<g>
				<path class="s11" d="m95.7 471.5h25.3v77.1h-25.3z"/>
				<path class="s11" d="m130.9 446.7h25.3v101.9h-25.3z"/>
				<path class="s11" d="m167.4 460.8h25.3v87.8h-25.3z"/>
				<path class="s11" d="m202.6 432.5h25.3v116.1h-25.3z"/>
			</g>
			<g>
				<path class="s1" d="m561 250.3c-10.7 0-19.3-8.6-19.3-19.3 0-10.7 8.6-19.3 19.3-19.3 10.7 0 19.3 8.6 19.3 19.3 0 10.7-8.6 19.3-19.3 19.3z"/>
				<path class="s6" d="m561 231c-2.3 7.9-11.1 5.6-11.1 5.6l7.9 13.4 3.2 0.3 3.2-0.3 7.9-13.4c0 0-8.8 2.2-11.1-5.6z"/>
				<path class="s2" d="m552.8 244.8h16.6v13.6c0 3.7-3 6.7-6.7 6.7h-3.1c-3.7 0-6.7-3-6.7-6.7v-13.6z"/>
			</g>
			<g>
				<path class="s10" d="m91.4 548.6h573.2"/>
				<g>
					<text id="M" style="transform: matrix(1,0,0,1,117.1,548.6)" >
						<tspan x="0" y="0" class="t12">M
</tspan>
					</text>
					<text id="ARK" style="transform: matrix(1,0,0,1,186.8,548.6)" >
						<tspan x="0" y="0" class="t12">ARK
</tspan>
					</text>
					<text id="E" style="transform: matrix(1,0,0,1,340.6,548.6)" >
						<tspan x="0" y="0" class="t12">E
</tspan>
					</text>
					<text id="TING" style="transform: matrix(1,0,0,1,387.4,548.6)" >
						<tspan x="0" y="0" class="t12">TING
</tspan>
					</text>
				</g>
			</g>
			<g>
				<path class="s5" d="m115 87.5"/>
				<path class="s5" d="m124.2 87.5h161.3"/>
				<path class="s5" d="m290.2 87.5"/>
			</g>
			<g>
				<path class="s11" d="m140.4 310h90.1v43.7h-90.1z"/>
				<path class="s7" d="m134.6 304.6h87.5v40.4h-87.5z"/>
				<path class="s3" d="m178.4 337.2c-6.9 0-12.4-5.5-12.4-12.4 0-6.9 5.5-12.4 12.4-12.4 6.9 0 12.4 5.5 12.4 12.4 0 6.9-5.5 12.4-12.4 12.4z"/>
			</g>
			<g>
				<path class="s1" d="m341.2 251.4c-17 0-30.7-13.7-30.7-30.7 0-17 13.7-30.7 30.7-30.7 17 0 30.7 13.7 30.7 30.7 0 17-13.7 30.7-30.7 30.7z"/>
				<path class="s1" d="m337.6 256.9h7.1v46.4h-7.1z"/>
				<path class="s6" d="m341.2 245.7c-13.8 0-25-11.2-25-25 0-13.8 11.2-25 25-25 13.8 0 25 11.2 25 25 0 13.8-11.2 25-25 25z"/>
				<path class="s3" d="m348.7 219.4c-4.1 0-7.5-3.4-7.5-7.5 0-4.1 3.4-7.5 7.5-7.5 4.1 0 7.5 3.4 7.5 7.5 0 4.1-3.4 7.5-7.5 7.5z"/>
			</g>
			<g>
				<path class="s7" d="m234.8 196.2c-19.4 0-35.1-15.7-35.1-35.1 0-19.4 15.7-35.1 35.1-35.1 19.4 0 35.1 15.7 35.1 35.1 0 19.4-15.7 35.1-35.1 35.1z"/>
				<path class="s9" d="m234.8 186.8c-14.2 0-25.7-11.5-25.7-25.7 0-14.2 11.5-25.7 25.7-25.7 14.2 0 25.7 11.5 25.7 25.7 0 14.2-11.5 25.7-25.7 25.7z"/>
				<path class="s10" d="m234.8 161.1v-46.1"/>
				<path class="s10" d="m234.8 161.1l14.4 14.6"/>
			</g>
			<g>
				<path class="s11" d="m325.3 167.8c-4-0.2-7.8-1.1-11.6-2.7v-9.1q3.2 1.7 6.9 2.7c2.5 0.7 4.7 1.1 6.5 1.1 1.8 0 2.7-0.2 3.4-0.6 0.7-0.4 1.1-1 1.1-1.9 0-0.9-0.3-1.1-0.8-1.5-0.5-0.4-1.4-0.9-2.6-1.4-1.2-0.5-2.9-1.2-4.9-1.9-2.3-0.9-4.2-1.8-5.6-2.9-1.4-1.1-2.5-2.3-3.1-3.6-0.6-1.3-1-3-1-4.9 0-3 1-5.4 2.9-7.1 1.9-1.7 4.8-2.7 8.7-3.1v-3.8h5.7v3.7c3.6 0.2 7.3 1.1 11 2.7l-3.3 7.8c-3.8-1.7-7.3-2.6-10.3-2.6-3 0-2.5 0.2-3.1 0.5-0.6 0.4-0.9 0.9-0.9 1.6 0 0.7 0.2 1.1 0.6 1.5 0.4 0.4 1.2 0.8 2.2 1.3 1.1 0.5 2.5 1 4.4 1.7 3.8 1.4 6.6 2.9 8.2 4.6 1.7 1.7 2.5 3.9 2.5 6.7 0 2.8-1 5.6-2.9 7.5-1.9 1.9-4.8 3.1-8.5 3.6v5.3h-5.7v-5.1z"/>
				<path fill-rule="evenodd" class="s7" d="m320.3 165.4c-4-0.2-7.8-1.1-11.6-2.7v-9.1q3.2 1.6 6.9 2.7c2.5 0.7 4.7 1.1 6.5 1.1 1.8 0 2.7-0.2 3.4-0.6 0.7-0.4 1.1-1 1.1-1.9 0-0.9-0.3-1.1-0.8-1.5-0.5-0.4-1.4-0.9-2.6-1.4-1.2-0.5-2.9-1.2-4.9-1.9-2.3-0.9-4.2-1.8-5.6-2.9-1.4-1.1-2.5-2.3-3.1-3.6-0.6-1.3-1-3-1-4.9 0-3 1-5.4 2.9-7.1 1.9-1.7 4.8-2.7 8.7-3.1v-3.8h5.7v3.7c3.6 0.2 7.3 1.1 11 2.7l-3.3 7.8c-3.8-1.7-7.3-2.6-10.3-2.6-3 0-2.5 0.2-3.1 0.5-0.6 0.4-0.9 0.9-0.9 1.6 0 0.7 0.2 1.1 0.6 1.5 0.4 0.4 1.2 0.8 2.2 1.3 1.1 0.5 2.5 1 4.4 1.7 3.8 1.4 6.6 2.9 8.2 4.6 1.7 1.7 2.5 3.9 2.5 6.7 0 2.8-1 5.6-2.9 7.5-1.9 1.9-4.8 3.1-8.5 3.6v5.3h-5.7v-5.1z"/>
			</g>
			<g>
				<path class="s13" d="m175.3 131.8v78"/>
				<path class="s13" d="m175.3 216.1v8.5"/>
				<path class="s13" d="m175.3 230.9v4.3"/>
				<path class="s13" d="m175.3 105.8v8.5"/>
				<path class="s13" d="m175.3 120.7v4.2"/>
				<path class="s13" d="m164.9 131.8v88.6"/>
			</g>
			<g>
				<path class="s13" d="m441.3 326.1h-78"/>
				<path class="s13" d="m356.9 326.1h-8.4"/>
				<path class="s13" d="m342.1 326.1h-4.2"/>
				<path class="s13" d="m467.2 326.1h-8.5"/>
				<path class="s13" d="m452.4 326.1h-4.3"/>
				<path class="s13" d="m441.3 315.8h-88.6"/>
			</g>
			<g>
				<path class="s13" d="m641.6 584.7h-78"/>
				<path class="s13" d="m557.3 584.7h-8.5"/>
				<path class="s13" d="m542.5 584.7h-4.3"/>
				<path class="s13" d="m667.6 584.7h-8.5"/>
				<path class="s13" d="m652.7 584.7h-4.2"/>
				<path class="s13" d="m641.6 574.3h-88.5"/>
			</g>
			<g>
				<path class="s13" d="m273.5 387.5h-78"/>
				<path class="s13" d="m189.2 387.5h-8.5"/>
				<path class="s13" d="m174.3 387.5h-4.2"/>
				<path class="s13" d="m299.4 387.5h-8.5"/>
				<path class="s13" d="m284.6 387.5h-4.2"/>
				<path class="s13" d="m273.5 377.1h-88.6"/>
				<path class="s13" d="m273.5 399.2h-62.2"/>
				<path class="s13" d="m273.5 412.4h-43"/>
			</g>
			<g>
				<path class="s13" d="m640.3 200.9v78"/>
				<path class="s13" d="m640.3 285.2v8.5"/>
				<path class="s13" d="m640.3 300.1v4.2"/>
				<path class="s13" d="m640.3 175v8.5"/>
				<path class="s13" d="m640.3 189.8v4.3"/>
				<path class="s13" d="m630 200.9v88.6"/>
			</g>
			<g>
				<path class="s13" d="m113.3 122.4l13.3 13.3"/>
				<path class="s13" d="m126.6 122.4l-13.3 13.3"/>
			</g>
			<g>
				<path class="s13" d="m376.2 278.8l13.3 13.3"/>
				<path class="s13" d="m389.5 278.8l-13.3 13.3"/>
			</g>
			<g>
				<path class="s13" d="m506.5 574.3l13.3 13.4"/>
				<path class="s13" d="m519.8 574.3l-13.3 13.4"/>
			</g>
			<path class="s13" d="m120 174.6c-3.7 0-6.7-3-6.7-6.7 0-3.7 3-6.7 6.7-6.7 3.7 0 6.7 3 6.7 6.7 0 3.7-3 6.7-6.7 6.7z"/>
			<path class="s13" d="m602.1 271.8c-3.7 0-6.7-3-6.7-6.7 0-3.7 3-6.7 6.7-6.7 3.7 0 6.7 3 6.7 6.7 0 3.7-3 6.7-6.7 6.7z"/>
			<path class="s13" d="m340 408.2c-3.7 0-6.7-3-6.7-6.7 0-3.7 3-6.7 6.7-6.7 3.7 0 6.7 3 6.7 6.7 0 3.7-3 6.7-6.7 6.7z"/>
			<path fill-rule="evenodd" class="s5" d="m376.2 105.8h52.8c21.1 0 38.2 17.1 38.2 38.2v20.1"/>
			<g>
				<path class="s2" d="m616.2 113.8h-81.7l-10.5-10.3h-28.7l10.5 10.3h9.7c-1 0-1.8 0.8-1.8 1.8v1.1c0 1 0.8 1.8 1.8 1.8h-9.7l-10.5 10.3h28.7l10.5-10.3h81.7c1 0 1.8-0.8 1.8-1.8v-1.1c0-1-0.8-1.8-1.8-1.8z"/>
				<path class="s7" d="m508.6 122.3v-1c0-1 0.8-1.8 1.8-1.8h100.8c1 0 1.8 0.8 1.8 1.8v1c0 1-0.8 1.8-1.8 1.8h-100.8c-1 0-1.8-0.8-1.8-1.8z"/>
				<path class="s7" d="m529.4 124.1l-10.5 10.3h-28.8l10.6-10.3h28.7z"/>
				<path class="s7" d="m529.4 119.5l-10.5-10.3h-28.8l10.6 10.3h28.7z"/>
			</g>
			<g>
				<g>
					<path class="s13" d="m354.9 575l13.3 13.3"/>
					<path class="s13" d="m368.2 575l-13.3 13.3"/>
				</g>
				<path fill-rule="evenodd" class="s5" d="m180.7 420v110.2c0 28.4 23 51.4 51.4 51.4h119.6"/>
			</g>
			<path fill-rule="evenodd" class="s5" d="m158.9 324.8h-25.6c-20.8 0-37.7-16.9-37.7-37.7v-106.8"/>
		</g>
	</g>
</svg>