<?xml version="1.0" encoding="UTF-8"?>
<svg id="objects" xmlns="http://www.w3.org/2000/svg" xmlns:xlink="http://www.w3.org/1999/xlink" viewBox="0 0 403.6 336.5">
  <defs>
    <style>
      .cls-1, .cls-2 {
        opacity: .7;
      }

      .cls-3 {
        fill: #2c755d;
      }

      .cls-3, .cls-4, .cls-5, .cls-6, .cls-7, .cls-8, .cls-9, .cls-10, .cls-11, .cls-12, .cls-13, .cls-14, .cls-15, .cls-16, .cls-2 {
        stroke-width: 0px;
      }

      .cls-17 {
        opacity: .5;
      }

      .cls-18 {
        stroke: #334856;
        stroke-width: 4.3px;
      }

      .cls-18, .cls-19, .cls-20 {
        stroke-miterlimit: 10;
      }

      .cls-18, .cls-9, .cls-20 {
        fill: none;
      }

      .cls-21 {
        font-size: 19.1px;
      }

      .cls-22 {
        clip-path: url(#clippath-2);
      }

      .cls-23 {
        font-size: 28.6px;
      }

      .cls-5 {
        fill: #efda86;
      }

      .cls-6 {
        fill: #594b31;
      }

      .cls-7 {
        opacity: .8;
      }

      .cls-7, .cls-10 {
        fill: #fff;
      }

      .cls-24 {
        font-family: Quicksand-Bold, 'Quicksand Bold';
        font-weight: 700;
      }

      .cls-24, .cls-11 {
        fill: #446382;
      }

      .cls-19 {
        fill: #9bcbd3;
      }

      .cls-19, .cls-20 {
        stroke: #fff;
        stroke-width: 3.2px;
      }

      .cls-8 {
        fill: #7a6947;
      }

      .cls-25 {
        clip-path: url(#clippath-1);
      }

      .cls-12 {
        fill: #abd7db;
      }

      .cls-26, .cls-15 {
        opacity: 0;
      }

      .cls-27 {
        clip-path: url(#clippath);
      }

      .cls-13 {
        fill: #dbdbdb;
      }

      .cls-14, .cls-2 {
        fill: #334856;
      }

      .cls-16 {
        fill: #4d8974;
      }
    </style>
    <clipPath id="clippath">
      <polygon class="cls-9" points="190.2 175.2 64.6 216.2 70.4 231.9 190.2 193 190.2 175.2"/>
    </clipPath>
    <clipPath id="clippath-1">
      <polygon class="cls-9" points="319.1 156.2 250.4 94.8 185.4 152.5 174.3 140 250.4 72.4 330.3 143.7 319.1 156.2"/>
    </clipPath>
    <clipPath id="clippath-2">
      <rect class="cls-9" x="105.4" y="146.4" width="29" height="16.7"/>
    </clipPath>
  </defs>
  <g>
    <path class="cls-12" d="M369.6,315.7c21.5-32.1,34-70.6,34-112.1C403.6,92.1,313.2,1.8,201.8,1.8S0,92.1,0,203.6s12.5,80,34,112.1h335.6Z"/>
    <g>
      <circle class="cls-10" cx="121.1" cy="146" r="9.9" transform="translate(-67.8 128.4) rotate(-45)"/>
      <circle class="cls-10" cx="145.5" cy="89" r="20.5" transform="translate(-16.7 36.1) rotate(-13.4)"/>
      <circle class="cls-10" cx="133.5" cy="29.2" r="29.2" transform="translate(18.5 102.9) rotate(-45)"/>
      <ellipse class="cls-10" cx="101.6" cy="74.8" rx="20.7" ry="19"/>
      <path class="cls-10" d="M99.1,114.3c0,6.7,5.4,12.1,12.1,12.1s12.1-5.4,12.1-12.1-5.4-12.1-12.1-12.1-12.1,5.4-12.1,12.1Z"/>
      <circle class="cls-10" cx="131.5" cy="124.4" r="5.2"/>
    </g>
  </g>
  <g>
    <polygon class="cls-13" points="78.3 313.2 88.4 313.2 88.4 286.8 83.4 281.9 78.3 286.8 78.3 313.2"/>
    <polygon class="cls-7" points="68.3 313.2 78.3 313.2 78.3 286.8 73.3 281.9 68.3 286.8 68.3 313.2"/>
    <polygon class="cls-13" points="58.2 313.2 68.3 313.2 68.3 286.8 63.3 281.9 58.2 286.8 58.2 313.2"/>
    <polygon class="cls-7" points="48.2 313.2 58.2 313.2 58.2 286.8 53.2 281.9 48.2 286.8 48.2 313.2"/>
    <polygon class="cls-13" points="354.7 313.2 364.8 313.2 364.8 286.8 359.8 281.9 354.7 286.8 354.7 313.2"/>
    <polygon class="cls-7" points="344.7 313.2 354.7 313.2 354.7 286.8 349.7 281.9 344.7 286.8 344.7 313.2"/>
    <polygon class="cls-13" points="334.6 313.2 344.7 313.2 344.7 286.8 339.6 281.9 334.6 286.8 334.6 313.2"/>
    <polygon class="cls-7" points="324.5 313.2 334.6 313.2 334.6 286.8 329.6 281.9 324.5 286.8 324.5 313.2"/>
    <polygon class="cls-13" points="314.5 313.2 324.5 313.2 324.5 286.8 319.5 281.9 314.5 286.8 314.5 313.2"/>
    <g>
      <polygon class="cls-13" points="39.4 313.2 48.1 313.2 48.1 287.6 43.8 282.9 39.4 287.6 39.4 313.2"/>
      <g>
        <path class="cls-16" d="M24,258.4c0,38.8,7.6,39.9,16.9,39.9s16.9-1.1,16.9-39.9-7.6-100.7-16.9-100.7-16.9,61.8-16.9,100.7Z"/>
        <path class="cls-3" d="M40.9,157.7c0,0-.1,0-.2,0,5.2,20.9,8.8,58.3,8.8,84.9,0,38.8-7.6,39.9-16.9,39.9s-5,0-7.2-1c2.6,16.2,8.6,16.8,15.5,16.8s16.9-1.1,16.9-39.9-7.6-100.7-16.9-100.7Z"/>
      </g>
      <rect class="cls-8" x="38.2" y="298.2" width="5.5" height="15"/>
      <rect class="cls-6" x="38.2" y="298.2" width="5.5" height="4.3"/>
    </g>
  </g>
  <g>
    <polygon class="cls-5" points="190.1 141.5 190.1 184.2 83.4 217.8 83.4 313.9 190.1 313.9 192.6 313.9 314.5 313.9 314.5 141.5 250.4 83.6 190.1 141.5"/>
    <g>
      <g>
        <circle class="cls-13" cx="252.3" cy="150.4" r="18.6"/>
        <path class="cls-13" d="M252.3,170.6c-11.1,0-20.2-9.1-20.2-20.2s9.1-20.2,20.2-20.2,20.2,9.1,20.2,20.2-9.1,20.2-20.2,20.2ZM252.3,133.4c-9.4,0-17,7.6-17,17s7.6,17,17,17,17-7.6,17-17-7.6-17-17-17Z"/>
      </g>
      <rect class="cls-13" x="250.7" y="131.8" width="3.2" height="37.2"/>
      <rect class="cls-13" x="233.7" y="148.8" width="37.2" height="3.2"/>
    </g>
    <g>
      <path class="cls-13" d="M223.4,226.8c-8.6,0-15.5,6.5-15.5,14.5v46.7h31.1v-46.7c0-8-7-14.5-15.5-14.5Z"/>
      <path class="cls-13" d="M240.5,289.6h-34.3v-48.3c0-8.9,7.7-16.1,17.1-16.1s17.1,7.2,17.1,16.1v48.3ZM209.4,286.5h27.9v-45.1c0-7.1-6.3-12.9-13.9-12.9s-13.9,5.8-13.9,12.9v45.1Z"/>
    </g>
    <path class="cls-13" d="M143.4,225.2c-17.4,0-32.9,12.1-32.9,21.7v42.7h65.8v-42.7c0-9.6-15.5-21.7-32.9-21.7Z"/>
    <rect class="cls-5" x="109.8" y="157.2" width="20.7" height="46.4"/>
    <rect class="cls-15" x="109.8" y="157.2" width="20.7" height="11.9"/>
    <rect class="cls-11" x="105.4" y="146.4" width="29" height="16.7"/>
    <g class="cls-1">
      <rect class="cls-14" x="105.4" y="158.4" width="29" height="4.7"/>
    </g>
    <g class="cls-26">
      <polygon class="cls-4" points="190.1 184.2 83.4 217.8 83.4 236.8 190.1 203.3 190.1 184.2"/>
      <polygon class="cls-4" points="250.4 83.6 190.1 141.5 190.1 160.6 250.4 105.9 314.5 160.6 314.5 141.5 250.4 83.6"/>
    </g>
    <polygon class="cls-11" points="319.1 156.2 250.4 94.8 185.4 152.5 174.3 140 250.4 72.4 330.3 143.7 319.1 156.2"/>
    <polygon class="cls-2" points="250.3 89 182.5 149.2 185.4 152.5 250.4 94.8 319.1 156.2 322 153 250.3 89"/>
    <polygon class="cls-11" points="190.2 175.2 64.6 216.2 70.4 231.9 190.2 193 190.2 175.2"/>
    <polygon class="cls-2" points="190.2 187.9 69 228.3 70.4 231.9 190.2 193 190.2 187.9"/>
    <path class="cls-19" d="M221.2,226.8c-8.6,0-15.5,6.5-15.5,14.5v46.7h31.1v-46.7c0-8-7-14.5-15.5-14.5Z"/>
    <g>
      <line class="cls-20" x1="205.7" y1="247.5" x2="236.7" y2="247.5"/>
      <line class="cls-20" x1="205.7" y1="267" x2="236.7" y2="267"/>
      <line class="cls-20" x1="221.2" y1="245.9" x2="221.2" y2="289.6"/>
    </g>
    <g>
      <path class="cls-19" d="M141.1,226.8c-17.3,0-31.3,12.1-31.3,20.1v41.1h62.6v-41.1c0-8-14-20.1-31.3-20.1Z"/>
      <g>
        <line class="cls-20" x1="109.8" y1="249.1" x2="173.1" y2="249.1"/>
        <line class="cls-20" x1="109.8" y1="268.6" x2="173.1" y2="268.6"/>
        <line class="cls-20" x1="125.4" y1="249.1" x2="125.4" y2="288"/>
        <line class="cls-20" x1="141.1" y1="249.1" x2="141.1" y2="288"/>
        <line class="cls-20" x1="156.7" y1="249.1" x2="156.7" y2="288"/>
        <line class="cls-20" x1="172.3" y1="249.1" x2="172.3" y2="288"/>
        <line class="cls-20" x1="109.8" y1="249.1" x2="109.8" y2="288"/>
      </g>
    </g>
    <g>
      <g>
        <path class="cls-13" d="M262.6,309.8v-84.7c0-8.9,7.7-16.1,17.1-16.1s17.1,7.2,17.1,16.1v84.7h-34.3Z"/>
        <path class="cls-13" d="M279.7,210.5c8.6,0,15.5,6.5,15.5,14.5v83.1h-31.1v-83.1c0-8,7-14.5,15.5-14.5M279.7,207.4c-10.3,0-18.7,7.9-18.7,17.7v86.3h37.5v-86.3c0-9.8-8.4-17.7-18.7-17.7h0Z"/>
      </g>
      <g>
        <path class="cls-13" d="M260.5,309.8v-84.7c0-8.9,7.7-16.1,17.1-16.1s17.1,7.2,17.1,16.1v84.7h-34.3Z"/>
        <path class="cls-10" d="M277.6,210.5c8.6,0,15.5,6.5,15.5,14.5v83.1h-31.1v-83.1c0-8,7-14.5,15.5-14.5M277.6,207.4c-10.3,0-18.7,7.9-18.7,17.7v86.3h37.5v-86.3c0-9.8-8.4-17.7-18.7-17.7h0Z"/>
      </g>
      <path class="cls-7" d="M266.4,296.7h22.4v-71.7c0-5.6-5-10.2-11.2-10.2s-11.2,4.6-11.2,10.2v71.7Z"/>
    </g>
    <g>
      <circle class="cls-19" cx="250.7" cy="149" r="18.6" transform="translate(-31.9 220.9) rotate(-45)"/>
      <line class="cls-20" x1="250.7" y1="130.4" x2="250.7" y2="167.6"/>
      <line class="cls-20" x1="232.1" y1="149" x2="269.3" y2="149"/>
    </g>
    <rect class="cls-15" x="105.4" y="283.5" width="74.8" height="14.9"/>
    <rect class="cls-15" x="202.2" y="283.5" width="41.7" height="14.9"/>
    <path class="cls-16" d="M235.4,276.4c-2.4,0-4.4,1.4-5.4,3.4-.3,0-.5,0-.8,0-.5-2.3-2.5-4.1-5-4.1s-4.6,1.8-5,4.2c-.7-.3-1.5-.5-2.3-.5s-.7,0-1,0c-1.2-2.3-3.5-3.9-6.3-3.9s-7,3.1-7,7,3.1,7,7,7,2.8-.4,3.9-1.2c.9.8,2,1.2,3.3,1.2,2.5,0,4.6-1.8,5-4.2.7.3,1.5.5,2.3.5s.6,0,.9,0c.5,2.3,2.5,4.1,5,4.1s3-.7,3.9-1.8c.4.1.9.2,1.4.2,3.3,0,6-2.7,6-6s-2.7-6-6-6Z"/>
    <path class="cls-16" d="M172.9,278.6c-1.6,0-3,.8-3.8,2-1.1-1.2-2.8-2-4.6-2s-2.1.3-2.9.7c-.2-4.6-4-8.2-8.6-8.2s-8,3.3-8.5,7.5c-.2,0-.4,0-.6,0-1.8,0-3.5.7-4.7,2-.2-3.8-3.3-6.8-7.1-6.8s-6.6,2.7-7.1,6.1c-1-.8-2.2-1.3-3.5-1.3s-2.2.3-3.1.9c-1.1-2.3-3.5-3.9-6.3-3.9s-7,3.1-7,7,3.1,7,7,7,3.7-.8,5-2.1c1,1.3,2.6,2.1,4.3,2.1,2.5,0,4.6-1.7,5.3-4,1.3,1.4,3.2,2.4,5.3,2.4s3.9-.9,5.2-2.3c.3,3.4,3.1,6.1,6.6,6.1s5.1-1.7,6.1-4.1c.9.4,2,.6,3,.6,2.1,0,3.9-.7,5.4-1.9.7,2.7,3.2,4.7,6.1,4.7s5-1.7,5.9-4c.7.5,1.6.8,2.5.8,2.6,0,4.7-2.1,4.7-4.7s-2.1-4.7-4.7-4.7Z"/>
    <rect class="cls-11" x="101.9" y="283.5" width="78.4" height="9"/>
    <rect class="cls-14" x="101.9" y="289.6" width="78.4" height="2.8"/>
    <rect class="cls-11" x="199" y="283.5" width="44.9" height="9"/>
    <rect class="cls-14" x="199" y="289.6" width="44.9" height="2.8"/>
    <path class="cls-10" d="M112.5,281.4c0-.3-.3-.6-.6-.7,0-.3-.3-.6-.7-.6s-.6.3-.7.6c-.3,0-.6.3-.6.7s.3.6.6.7c0,.3.3.6.7.6s.6-.3.7-.6c.3,0,.6-.3.6-.7Z"/>
    <path class="cls-10" d="M116.8,278c0-.3-.3-.6-.6-.7,0-.3-.3-.6-.7-.6s-.6.3-.7.6c-.3,0-.6.3-.6.7s.3.6.6.7c0,.3.3.6.7.6s.6-.3.7-.6c.3,0,.6-.3.6-.7Z"/>
    <path class="cls-10" d="M120.9,281.4c0-.3-.3-.6-.6-.7,0-.3-.3-.6-.7-.6s-.6.3-.7.6c-.3,0-.6.3-.6.7s.3.6.6.7c0,.3.3.6.7.6s.6-.3.7-.6c.3,0,.6-.3.6-.7Z"/>
    <path class="cls-10" d="M130.9,276.8c0-.3-.3-.6-.6-.7,0-.3-.3-.6-.7-.6s-.6.3-.7.6c-.3,0-.6.3-.6.7s.3.6.6.7c0,.3.3.6.7.6s.6-.3.7-.6c.3,0,.6-.3.6-.7Z"/>
    <path class="cls-10" d="M127.9,281.4c0-.3-.3-.6-.6-.7,0-.3-.3-.6-.7-.6s-.6.3-.7.6c-.3,0-.6.3-.6.7s.3.6.6.7c0,.3.3.6.7.6s.6-.3.7-.6c.3,0,.6-.3.6-.7Z"/>
    <path class="cls-10" d="M136,280.1c0-.3-.3-.6-.6-.7,0-.3-.3-.6-.7-.6s-.6.3-.7.6c-.3,0-.6.3-.6.7s.3.6.6.7c0,.3.3.6.7.6s.6-.3.7-.6c.3,0,.6-.3.6-.7Z"/>
    <path class="cls-10" d="M149.4,276.8c0-.3-.3-.6-.6-.7,0-.3-.3-.6-.7-.6s-.6.3-.7.6c-.3,0-.6.3-.6.7s.3.6.6.7c0,.3.3.6.7.6s.6-.3.7-.6c.3,0,.6-.3.6-.7Z"/>
    <path class="cls-10" d="M156.4,280.5c0-.3-.3-.6-.6-.7,0-.3-.3-.6-.7-.6s-.6.3-.7.6c-.3,0-.6.3-.6.7s.3.6.6.7c0,.3.3.6.7.6s.6-.3.7-.6c.3,0,.6-.3.6-.7Z"/>
    <path class="cls-10" d="M159.8,274.4c0-.3-.3-.6-.6-.7,0-.3-.3-.6-.7-.6s-.6.3-.7.6c-.3,0-.6.3-.6.7s.3.6.6.7c0,.3.3.6.7.6s.6-.3.7-.6c.3,0,.6-.3.6-.7Z"/>
    <path class="cls-10" d="M167.7,280.5c0-.3-.3-.6-.6-.7,0-.3-.3-.6-.7-.6s-.6.3-.7.6c-.3,0-.6.3-.6.7s.3.6.6.7c0,.3.3.6.7.6s.6-.3.7-.6c.3,0,.6-.3.6-.7Z"/>
    <path class="cls-10" d="M176.2,281.4c0-.3-.3-.6-.6-.7,0-.3-.3-.6-.7-.6s-.6.3-.7.6c-.3,0-.6.3-.6.7s.3.6.6.7c0,.3.3.6.7.6s.6-.3.7-.6c.3,0,.6-.3.6-.7Z"/>
    <path class="cls-10" d="M210.5,278c0-.3-.3-.6-.6-.7,0-.3-.3-.6-.7-.6s-.6.3-.7.6c-.3,0-.6.3-.6.7s.3.6.6.7c0,.3.3.6.7.6s.6-.3.7-.6c.3,0,.6-.3.6-.7Z"/>
    <path class="cls-10" d="M207.2,281.5c0-.3-.3-.6-.6-.7,0-.3-.3-.6-.7-.6s-.6.3-.7.6c-.3,0-.6.3-.6.7s.3.6.6.7c0,.3.3.6.7.6s.6-.3.7-.6c.3,0,.6-.3.6-.7Z"/>
    <path class="cls-10" d="M215.1,281.4c0-.3-.3-.6-.6-.7,0-.3-.3-.6-.7-.6s-.6.3-.7.6c-.3,0-.6.3-.6.7s.3.6.6.7c0,.3.3.6.7.6s.6-.3.7-.6c.3,0,.6-.3.6-.7Z"/>
    <path class="cls-10" d="M224.3,278.9c0-.3-.3-.6-.6-.7,0-.3-.3-.6-.7-.6s-.6.3-.7.6c-.3,0-.6.3-.6.7s.3.6.6.7c0,.3.3.6.7.6s.6-.3.7-.6c.3,0,.6-.3.6-.7Z"/>
    <path class="cls-10" d="M237.6,279.3c0-.3-.3-.6-.6-.7,0-.3-.3-.6-.7-.6s-.6.3-.7.6c-.3,0-.6.3-.6.7s.3.6.6.7c0,.3.3.6.7.6s.6-.3.7-.6c.3,0,.6-.3.6-.7Z"/>
    <path class="cls-10" d="M228.3,281.4c0-.3-.3-.6-.6-.7,0-.3-.3-.6-.7-.6s-.6.3-.7.6c-.3,0-.6.3-.6.7s.3.6.6.7c0,.3.3.6.7.6s.6-.3.7-.6c.3,0,.6-.3.6-.7Z"/>
    <g>
      <path class="cls-5" d="M273.8,255.6c0,2.1,1.7,3.8,3.8,3.8s3.8-1.7,3.8-3.8-1.7-3.8-3.8-3.8-3.8,1.7-3.8,3.8Z"/>
      <g>
        <path class="cls-15" d="M273.8,255.6c0,2.1,1.7,3.8,3.8,3.8s3.8-1.7,3.8-3.8-1.7-3.8-3.8-3.8-3.8,1.7-3.8,3.8Z"/>
        <path class="cls-5" d="M273.8,254.7c0,1.6,1.3,2.9,2.9,2.9s2.9-1.3,2.9-2.9-1.3-2.9-2.9-2.9-2.9,1.3-2.9,2.9Z"/>
      </g>
    </g>
    <rect class="cls-14" x="243.7" y="283.5" width="2.1" height="9"/>
    <rect class="cls-11" x="253.9" y="304.4" width="50.5" height="8.8"/>
    <rect class="cls-14" x="253.9" y="309.1" width="50.5" height="4.2"/>
    <g class="cls-17">
      <g class="cls-27">
        <line class="cls-18" x1="68.3" y1="207.2" x2="78.3" y2="233"/>
        <line class="cls-18" x1="81" y1="204.3" x2="91" y2="230.1"/>
        <line class="cls-18" x1="91.9" y1="199.3" x2="102" y2="225.2"/>
        <line class="cls-18" x1="104.7" y1="194.2" x2="114.7" y2="220.1"/>
        <line class="cls-18" x1="117.4" y1="191.3" x2="127.4" y2="217.2"/>
        <line class="cls-18" x1="130.1" y1="188.5" x2="140.2" y2="214.3"/>
        <line class="cls-18" x1="142.8" y1="185.6" x2="152.9" y2="211.4"/>
        <line class="cls-18" x1="155.5" y1="182.7" x2="165.6" y2="208.6"/>
        <line class="cls-18" x1="168.2" y1="179.8" x2="178.3" y2="205.7"/>
        <line class="cls-18" x1="180.9" y1="176.9" x2="191" y2="202.8"/>
      </g>
    </g>
    <g class="cls-17">
      <g class="cls-25">
        <g>
          <line class="cls-18" x1="173.6" y1="128.5" x2="192.3" y2="149.1"/>
          <line class="cls-18" x1="186.7" y1="124.1" x2="205.4" y2="144.7"/>
          <line class="cls-18" x1="195.3" y1="114.4" x2="214" y2="135"/>
          <line class="cls-18" x1="204.6" y1="105.3" x2="223.3" y2="125.9"/>
          <line class="cls-18" x1="215.5" y1="98.1" x2="234.1" y2="118.6"/>
          <line class="cls-18" x1="226.3" y1="90.8" x2="245" y2="111.4"/>
          <line class="cls-18" x1="237.2" y1="83.6" x2="255.8" y2="104.2"/>
        </g>
        <g>
          <line class="cls-18" x1="328.8" y1="126.7" x2="310.2" y2="147.3"/>
          <line class="cls-18" x1="315.7" y1="122.4" x2="297.1" y2="142.9"/>
          <line class="cls-18" x1="307.2" y1="112.7" x2="288.5" y2="133.2"/>
          <line class="cls-18" x1="297.9" y1="103.6" x2="279.2" y2="124.2"/>
          <line class="cls-18" x1="287" y1="96.3" x2="268.4" y2="116.9"/>
          <line class="cls-18" x1="276.2" y1="89.1" x2="257.5" y2="109.7"/>
          <line class="cls-18" x1="265.3" y1="81.9" x2="246.7" y2="102.4"/>
        </g>
      </g>
    </g>
    <g class="cls-17">
      <g class="cls-22">
        <line class="cls-18" x1="112.8" y1="143" x2="112.8" y2="170.7"/>
        <line class="cls-18" x1="126.5" y1="142.8" x2="126.5" y2="170.6"/>
      </g>
    </g>
  </g>
  <g>
    <rect class="cls-11" x="346.6" y="208.5" width="12.8" height="105.2"/>
    <rect class="cls-14" x="346.6" y="212.3" width="12.8" height="72.9"/>
    <g>
      <rect class="cls-10" x="308.6" y="218.9" width="88.7" height="56.9"/>
      <path class="cls-11" d="M394.1,222.1v50.5h-82.3v-50.5h82.3M400.6,215.7h-95.1v63.4h95.1v-63.4h0Z"/>
    </g>
    <text class="cls-24" transform="translate(337.2 241)"><tspan class="cls-21"><tspan x="0" y="0">FOR</tspan></tspan><tspan class="cls-23"><tspan x="-14.9" y="26">RENT</tspan></tspan></text>
  </g>
  <g>
    <path class="cls-16" d="M394.2,324.5c0,6.3-5.1,11.4-11.4,11.4H12.8c-6.3,0-11.4-5.1-11.4-11.4h0c0-6.3,5.1-11.4,11.4-11.4h370c6.3,0,11.4,5.1,11.4,11.4h0Z"/>
    <path class="cls-3" d="M12.8,336.5h370c6.3,0,11.4-5.1,11.4-11.4H1.4c0,6.3,5.1,11.4,11.4,11.4Z"/>
  </g>
</svg>