<?xml version="1.0" encoding="UTF-8"?>
<!DOCTYPE svg PUBLIC "-//W3C//DTD SVG 1.1//EN" "http://www.w3.org/Graphics/SVG/1.1/DTD/svg11.dtd">
<svg xmlns="http://www.w3.org/2000/svg" version="1.1" width="666px" height="355px" style="shape-rendering:geometricPrecision; text-rendering:geometricPrecision; image-rendering:optimizeQuality; fill-rule:evenodd; clip-rule:evenodd" xmlns:xlink="http://www.w3.org/1999/xlink">
<g><path style="opacity:1" fill="#fefefe" d="M -0.5,-0.5 C 221.5,-0.5 443.5,-0.5 665.5,-0.5C 665.5,117.833 665.5,236.167 665.5,354.5C 443.5,354.5 221.5,354.5 -0.5,354.5C -0.5,236.167 -0.5,117.833 -0.5,-0.5 Z"/></g>
<g><path style="opacity:1" fill="#ff603a" d="M 320.5,21.5 C 358.893,18.9341 384.726,35.6008 398,71.5C 404.592,108.815 391.092,135.982 357.5,153C 322.508,164.384 294.341,155.218 273,125.5C 255.774,91.0529 261.274,60.8862 289.5,35C 298.968,28.2604 309.301,23.7604 320.5,21.5 Z"/></g>
<g><path style="opacity:1" fill="#ffeee9" d="M 310.5,147.5 C 309.15,146.35 309.316,145.683 311,145.5C 343.384,153.96 368.05,143.96 385,115.5C 388.872,107.269 390.705,98.602 390.5,89.5C 389.281,60.1069 374.615,40.9403 346.5,32C 312.578,26.2824 288.745,39.1158 275,70.5C 273.358,76.7325 272.525,83.0659 272.5,89.5C 273.177,114.681 284.844,132.847 307.5,144C 306.944,144.383 306.611,144.883 306.5,145.5C 283.048,134.131 270.715,115.298 269.5,89C 271.477,62.3723 284.477,43.3723 308.5,32C 344.877,21.6172 371.711,33.1172 389,66.5C 398.163,95.3284 391.33,119.495 368.5,139C 350.6,151.613 331.267,154.447 310.5,147.5 Z"/></g>
<g><path style="opacity:1" fill="#fff8f6" d="M 369.5,103.5 C 368.713,105.104 367.38,105.771 365.5,105.5C 365.789,109.106 365.456,112.606 364.5,116C 356.5,120.667 348.5,125.333 340.5,130C 334.5,134.667 328.5,134.667 322.5,130C 314.5,125.333 306.5,120.667 298.5,116C 297.544,112.606 297.211,109.106 297.5,105.5C 295.62,105.771 294.287,105.104 293.5,103.5C 293.171,97.4632 293.504,91.4632 294.5,85.5C 295.167,85.1667 295.833,84.8333 296.5,84.5C 297.167,81.5 297.833,78.5 298.5,75.5C 309.105,68.699 320.105,62.699 331.5,57.5C 342.98,62.8247 354.147,68.8247 365,75.5C 365.179,78.5535 365.679,81.5535 366.5,84.5C 367.167,84.8333 367.833,85.1667 368.5,85.5C 369.496,91.4632 369.829,97.4632 369.5,103.5 Z"/></g>
<g><path style="opacity:1" fill="#fef3e8" d="M 390.5,89.5 C 383.833,89.5 377.167,89.5 370.5,89.5C 370.819,94.3633 370.486,99.03 369.5,103.5C 369.829,97.4632 369.496,91.4632 368.5,85.5C 367.833,85.1667 367.167,84.8333 366.5,84.5C 365.679,81.5535 365.179,78.5535 365,75.5C 354.147,68.8247 342.98,62.8247 331.5,57.5C 320.105,62.699 309.105,68.699 298.5,75.5C 297.833,78.5 297.167,81.5 296.5,84.5C 295.833,84.8333 295.167,85.1667 294.5,85.5C 293.504,91.4632 293.171,97.4632 293.5,103.5C 292.514,99.03 292.181,94.3633 292.5,89.5C 285.833,89.5 279.167,89.5 272.5,89.5C 272.525,83.0659 273.358,76.7325 275,70.5C 288.745,39.1158 312.578,26.2824 346.5,32C 374.615,40.9403 389.281,60.1069 390.5,89.5 Z"/></g>
<g><path style="opacity:1" fill="#ff7558" d="M 328.5,60.5 C 330.527,60.3379 332.527,60.5045 334.5,61C 343.335,66.5852 352.335,71.9186 361.5,77C 362.435,79.3806 362.768,81.8806 362.5,84.5C 360.833,84.5 359.167,84.5 357.5,84.5C 357.714,82.8561 357.38,81.3561 356.5,80C 348.13,75.483 339.796,70.983 331.5,66.5C 322.885,70.4744 314.551,74.9744 306.5,80C 305.62,81.3561 305.286,82.8561 305.5,84.5C 303.833,84.5 302.167,84.5 300.5,84.5C 300.5,81.8333 300.5,79.1667 300.5,76.5C 310.449,72.1936 319.782,66.8603 328.5,60.5 Z"/></g>
<g><path style="opacity:1" fill="#ff7451" d="M 325.5,34.5 C 327.914,36.2245 330.58,37.5578 333.5,38.5C 333.238,37.0222 333.571,35.6888 334.5,34.5C 336.28,37.6743 337.114,41.0076 337,44.5C 334.316,45.0682 331.816,46.0682 329.5,47.5C 329.167,47.1667 328.833,46.8333 328.5,46.5C 330.345,44.4636 330.845,42.1303 330,39.5C 328.89,37.9632 327.39,37.2965 325.5,37.5C 325.5,36.5 325.5,35.5 325.5,34.5 Z"/></g>
<g><path style="opacity:1" fill="#fee3d4" d="M 333.5,40.5 C 335.048,40.8212 335.715,41.8212 335.5,43.5C 332.752,43.5983 332.086,42.5983 333.5,40.5 Z"/></g>
<g><path style="opacity:1" fill="#ffa08b" d="M 335.5,75.5 C 336.735,75.7214 337.735,76.3881 338.5,77.5C 340.264,74.8228 341.43,75.1562 342,78.5C 342.414,78.0426 342.914,77.7093 343.5,77.5C 344.429,78.6888 344.762,80.0222 344.5,81.5C 342.173,81.6646 340.007,82.3313 338,83.5C 336.989,82.6634 335.822,82.33 334.5,82.5C 334.674,80.139 335.007,77.8056 335.5,75.5 Z"/></g>
<g><path style="opacity:1" fill="#ffa895" d="M 317.5,76.5 C 318.75,76.5774 319.583,77.244 320,78.5C 322.26,76.0028 323.593,76.6695 324,80.5C 324.967,76.8227 326.634,76.1561 329,78.5C 330.3,77.2927 331.8,76.6261 333.5,76.5C 333.5,78.1667 333.5,79.8333 333.5,81.5C 328.346,81.987 323.346,81.987 318.5,81.5C 317.548,79.9547 317.215,78.288 317.5,76.5 Z"/></g>
<g><path style="opacity:1" fill="#ff7557" d="M 295.5,87.5 C 319.5,87.5 343.5,87.5 367.5,87.5C 367.5,92.5 367.5,97.5 367.5,102.5C 343.5,102.5 319.5,102.5 295.5,102.5C 295.5,97.5 295.5,92.5 295.5,87.5 Z"/></g>
<g><path style="opacity:1" fill="#fcead7" d="M 272.5,89.5 C 279.167,89.5 285.833,89.5 292.5,89.5C 292.181,94.3633 292.514,99.03 293.5,103.5C 294.287,105.104 295.62,105.771 297.5,105.5C 297.211,109.106 297.544,112.606 298.5,116C 306.5,120.667 314.5,125.333 322.5,130C 328.5,134.667 334.5,134.667 340.5,130C 348.5,125.333 356.5,120.667 364.5,116C 365.456,112.606 365.789,109.106 365.5,105.5C 367.38,105.771 368.713,105.104 369.5,103.5C 370.486,99.03 370.819,94.3633 370.5,89.5C 377.167,89.5 383.833,89.5 390.5,89.5C 390.705,98.602 388.872,107.269 385,115.5C 368.05,143.96 343.384,153.96 311,145.5C 309.316,145.683 309.15,146.35 310.5,147.5C 308.847,147.34 307.514,146.674 306.5,145.5C 306.611,144.883 306.944,144.383 307.5,144C 284.844,132.847 273.177,114.681 272.5,89.5 Z"/></g>
<g><path style="opacity:1" fill="#ffcec4" d="M 316.5,91.5 C 319.238,90.9648 321.072,91.9648 322,94.5C 325.05,94.4711 328.217,93.8044 331.5,92.5C 332.298,94.0777 332.798,95.7444 333,97.5C 333.401,95.4788 334.568,94.1455 336.5,93.5C 338.167,94.8333 339.833,94.8333 341.5,93.5C 344.239,95.2308 343.906,96.3975 340.5,97C 341.167,97.3333 341.833,97.6667 342.5,98C 340.687,97.9536 339.021,98.1203 337.5,98.5C 336.262,94.6893 335.596,94.6893 335.5,98.5C 333.833,98.5 332.167,98.5 330.5,98.5C 329.833,94.5 329.167,94.5 328.5,98.5C 326.167,98.5 323.833,98.5 321.5,98.5C 321.5,97.5 321.5,96.5 321.5,95.5C 320.5,95.5 319.5,95.5 318.5,95.5C 318.719,96.675 318.386,97.675 317.5,98.5C 316.526,96.2573 316.192,93.924 316.5,91.5 Z"/></g>
<g><path style="opacity:1" fill="#fff3f2" d="M 344.5,94.5 C 345.239,94.369 345.906,94.5357 346.5,95C 345.118,99.7055 344.451,99.5388 344.5,94.5 Z"/></g>
<g><path style="opacity:1" fill="#ff7658" d="M 300.5,105.5 C 302.167,105.5 303.833,105.5 305.5,105.5C 305.261,107.467 305.594,109.301 306.5,111C 314.801,115.82 323.134,120.653 331.5,125.5C 339.833,120.667 348.167,115.833 356.5,111C 357.406,109.301 357.739,107.467 357.5,105.5C 359.167,105.5 360.833,105.5 362.5,105.5C 362.817,108.572 362.484,111.572 361.5,114.5C 351.5,120.167 341.5,125.833 331.5,131.5C 321.5,125.833 311.5,120.167 301.5,114.5C 300.516,111.572 300.183,108.572 300.5,105.5 Z"/></g>
<g><path style="opacity:1" fill="#ffbdaf" d="M 313.5,107.5 C 319.956,107.597 326.623,107.597 333.5,107.5C 333.5,108.5 333.5,109.5 333.5,110.5C 329.97,111.011 326.804,110.344 324,108.5C 323.667,109.167 323.333,109.833 323,110.5C 320,110.5 317,110.5 314,110.5C 313.517,109.552 313.351,108.552 313.5,107.5 Z"/></g>
<g><path style="opacity:1" fill="#ffb5a5" d="M 334.5,107.5 C 339.833,107.5 345.167,107.5 350.5,107.5C 350.5,108.5 350.5,109.5 350.5,110.5C 345.821,110.666 341.155,110.499 336.5,110C 335.244,109.583 334.577,108.75 334.5,107.5 Z"/></g>
<g><path style="opacity:1" fill="#ffad9c" d="M 322.5,112.5 C 328.731,112.718 334.564,112.718 340,112.5C 340.483,113.448 340.649,114.448 340.5,115.5C 334.467,115.087 328.634,115.087 323,115.5C 322.517,114.552 322.351,113.552 322.5,112.5 Z"/></g>
<g><path style="opacity:1" fill="#f37d60" d="M 263.5,187.5 C 265.924,187.192 268.257,187.526 270.5,188.5C 271.005,191.188 272.338,193.355 274.5,195C 277.753,197.874 281.253,200.374 285,202.5C 290.746,200.88 291.912,197.547 288.5,192.5C 288.798,188.774 290.798,187.607 294.5,189C 295.097,190.062 295.43,191.228 295.5,192.5C 294.162,195.067 293.662,197.734 294,200.5C 302.506,203.898 304.84,209.898 301,218.5C 299.786,220.049 298.286,221.215 296.5,222C 292.452,222.434 288.452,222.434 284.5,222C 282.473,224.094 280.806,226.427 279.5,229C 274.917,229.934 273.417,228.1 275,223.5C 278.524,222.793 281.024,220.793 282.5,217.5C 279.872,213.701 279.872,209.868 282.5,206C 277.376,200.777 271.376,197.11 264.5,195C 262.163,192.806 261.83,190.306 263.5,187.5 Z"/></g>
<g><path style="opacity:1" fill="#3f5063" d="M 416.5,192.5 C 417.828,197.119 418.494,202.119 418.5,207.5C 418.494,212.881 417.828,217.881 416.5,222.5C 416.631,221.761 416.464,221.094 416,220.5C 411,224.5 406,224.5 401,220.5C 399,215.833 399,211.167 401,206.5C 405.969,202.587 410.969,202.587 416,206.5C 416.499,201.845 416.666,197.179 416.5,192.5 Z"/></g>
<g><path style="opacity:1" fill="#6b7888" d="M 416.5,192.5 C 417.209,191.596 418.209,191.263 419.5,191.5C 419.5,202.167 419.5,212.833 419.5,223.5C 418.209,223.737 417.209,223.404 416.5,222.5C 417.828,217.881 418.494,212.881 418.5,207.5C 418.494,202.119 417.828,197.119 416.5,192.5 Z"/></g>
<g><path style="opacity:1" fill="#838e9b" d="M 181.5,205.5 C 177.702,206.483 173.702,206.817 169.5,206.5C 169.5,202.5 169.5,198.5 169.5,194.5C 168.167,194.5 166.833,194.5 165.5,194.5C 165.5,203.833 165.5,213.167 165.5,222.5C 166.833,222.5 168.167,222.5 169.5,222.5C 169.185,218.629 169.518,214.962 170.5,211.5C 170.5,215.5 170.5,219.5 170.5,223.5C 168.5,223.5 166.5,223.5 164.5,223.5C 164.5,213.5 164.5,203.5 164.5,193.5C 166.5,193.5 168.5,193.5 170.5,193.5C 170.5,197.5 170.5,201.5 170.5,205.5C 174.167,205.5 177.833,205.5 181.5,205.5 Z"/></g>
<g><path style="opacity:1" fill="#34475b" d="M 181.5,205.5 C 181.5,201.833 181.5,198.167 181.5,194.5C 183.167,194.5 184.833,194.5 186.5,194.5C 186.5,204.167 186.5,213.833 186.5,223.5C 184.833,223.5 183.167,223.5 181.5,223.5C 181.5,219.5 181.5,215.5 181.5,211.5C 177.833,211.5 174.167,211.5 170.5,211.5C 169.518,214.962 169.185,218.629 169.5,222.5C 168.167,222.5 166.833,222.5 165.5,222.5C 165.5,213.167 165.5,203.833 165.5,194.5C 166.833,194.5 168.167,194.5 169.5,194.5C 169.5,198.5 169.5,202.5 169.5,206.5C 173.702,206.817 177.702,206.483 181.5,205.5 Z"/></g>
<g><path style="opacity:1" fill="#768391" d="M 217.5,202.5 C 216.493,200.639 216.16,197.972 216.5,194.5C 215.167,194.5 213.833,194.5 212.5,194.5C 212.5,201.5 212.5,208.5 212.5,215.5C 211.508,208.352 211.175,201.019 211.5,193.5C 213.5,193.5 215.5,193.5 217.5,193.5C 217.5,196.5 217.5,199.5 217.5,202.5 Z"/></g>
<g><path style="opacity:1" fill="#3b4d61" d="M 217.5,202.5 C 228.314,200.15 233.481,204.483 233,215.5C 229.029,223.58 223.196,225.413 215.5,221C 213.84,219.512 212.84,217.679 212.5,215.5C 212.5,208.5 212.5,201.5 212.5,194.5C 213.833,194.5 215.167,194.5 216.5,194.5C 216.16,197.972 216.493,200.639 217.5,202.5 Z"/></g>
<g><path style="opacity:1" fill="#3b4d61" d="M 239.5,194.5 C 242.85,194.335 246.183,194.502 249.5,195C 250.5,196 251.5,197 252.5,198C 251.333,199.167 250.167,200.333 249,201.5C 245.763,198.505 243.263,198.838 241.5,202.5C 241.608,203.442 241.941,204.275 242.5,205C 251.208,205.697 254.374,210.197 252,218.5C 246.487,224.99 240.654,225.157 234.5,219C 235.685,217.647 237.019,216.48 238.5,215.5C 241.923,218.412 244.923,218.079 247.5,214.5C 243.651,211.981 239.817,209.314 236,206.5C 234.593,201.643 235.76,197.643 239.5,194.5 Z"/></g>
<g><path style="opacity:1" fill="#3e5063" d="M 340.5,194.5 C 341.978,194.238 343.311,194.571 344.5,195.5C 348.5,204.5 352.5,213.5 356.5,222.5C 355.311,223.429 353.978,223.762 352.5,223.5C 351.833,220.833 351.167,218.167 350.5,215.5C 345.125,215.172 339.792,215.505 334.5,216.5C 333.764,218.541 332.931,220.541 332,222.5C 330.817,223.731 329.651,223.731 328.5,222.5C 332.515,213.141 336.515,203.807 340.5,194.5 Z"/></g>
<g><path style="opacity:1" fill="#374a5e" d="M 309.5,196.5 C 311.308,197.918 311.975,199.918 311.5,202.5C 312.833,202.5 314.167,202.5 315.5,202.5C 315.5,203.833 315.5,205.167 315.5,206.5C 314.167,206.5 312.833,206.5 311.5,206.5C 311.335,210.182 311.501,213.848 312,217.5C 313.356,218.38 314.856,218.714 316.5,218.5C 316.01,223.737 313.343,224.903 308.5,222C 307.874,221.25 307.374,220.416 307,219.5C 306.5,212.174 306.334,204.841 306.5,197.5C 307.791,197.737 308.791,197.404 309.5,196.5 Z"/></g>
<g><path style="opacity:1" fill="#f3f4f5" d="M 341.5,198.5 C 344.693,202.38 347.026,206.88 348.5,212C 344.459,212.827 340.459,212.66 336.5,211.5C 338.457,207.256 340.124,202.923 341.5,198.5 Z"/></g>
<g><path style="opacity:1" fill="#3f5164" d="M 189.5,201.5 C 191.5,201.5 193.5,201.5 195.5,201.5C 195.334,206.511 195.501,211.511 196,216.5C 198.592,217.982 200.925,217.648 203,215.5C 203.499,210.845 203.666,206.179 203.5,201.5C 205.167,201.5 206.833,201.5 208.5,201.5C 208.666,206.844 208.499,212.177 208,217.5C 201.583,225.754 195.583,225.421 190,216.5C 189.501,211.511 189.334,206.511 189.5,201.5 Z"/></g>
<g><path style="opacity:1" fill="#3b4d61" d="M 261.5,201.5 C 274.419,199.908 279.253,205.241 276,217.5C 274.2,221.235 271.2,222.902 267,222.5C 265.236,222.456 263.569,222.122 262,221.5C 261.502,224.482 261.335,227.482 261.5,230.5C 259.833,230.5 258.167,230.5 256.5,230.5C 256.334,222.493 256.5,214.493 257,206.5C 258.707,204.963 260.207,203.296 261.5,201.5 Z"/></g>
<g><path style="opacity:1" fill="#435467" d="M 363.5,203.5 C 367.96,202.885 371.96,203.885 375.5,206.5C 374.758,207.287 373.925,207.953 373,208.5C 369.117,204.537 365.451,204.87 362,209.5C 360.735,219.906 364.902,223.073 374.5,219C 374.957,219.414 375.291,219.914 375.5,220.5C 369.344,224.983 363.844,224.316 359,218.5C 357.254,212.342 358.754,207.342 363.5,203.5 Z"/></g>
<g><path style="opacity:1" fill="#405265" d="M 381.5,203.5 C 384.518,203.335 387.518,203.502 390.5,204C 392,204.833 393.167,206 394,207.5C 394.499,212.823 394.666,218.156 394.5,223.5C 392.876,223.64 391.71,222.973 391,221.5C 386.616,224.441 382.616,224.107 379,220.5C 378.056,217.653 378.556,215.153 380.5,213C 384.026,211.663 387.692,211.163 391.5,211.5C 390.113,205.263 386.613,203.93 381,207.5C 380.5,207.167 380,206.833 379.5,206.5C 380.193,205.482 380.859,204.482 381.5,203.5 Z"/></g>
<g><path style="opacity:1" fill="#4b5c6e" d="M 429.5,203.5 C 438.346,202.024 443.013,205.69 443.5,214.5C 438.167,214.5 432.833,214.5 427.5,214.5C 427.393,216.903 428.393,218.736 430.5,220C 434.186,220.807 437.686,220.307 441,218.5C 441.5,218.833 442,219.167 442.5,219.5C 436.303,225.162 430.47,224.829 425,218.5C 422.766,212.369 424.266,207.369 429.5,203.5 Z"/></g>
<g><path style="opacity:1" fill="#47586b" d="M 447.5,203.5 C 449.143,203.48 450.476,204.147 451.5,205.5C 455.642,202.593 459.476,202.926 463,206.5C 467.333,202.5 471.667,202.5 476,206.5C 476.499,212.157 476.666,217.824 476.5,223.5C 475.5,223.5 474.5,223.5 473.5,223.5C 473.666,218.156 473.499,212.823 473,207.5C 468.869,204.457 465.869,205.457 464,210.5C 463.501,214.821 463.334,219.154 463.5,223.5C 462.5,223.5 461.5,223.5 460.5,223.5C 460.666,218.156 460.499,212.823 460,207.5C 455.965,205.556 452.965,206.556 451,210.5C 450.501,214.821 450.334,219.154 450.5,223.5C 449.5,223.5 448.5,223.5 447.5,223.5C 447.5,216.833 447.5,210.167 447.5,203.5 Z"/></g>
<g><path style="opacity:1" fill="#425366" d="M 480.5,203.5 C 481.675,203.281 482.675,203.614 483.5,204.5C 485.41,209.317 487.576,213.984 490,218.5C 491.864,213.909 493.53,209.243 495,204.5C 496.011,203.663 497.178,203.33 498.5,203.5C 495.304,212.582 491.804,221.582 488,230.5C 485.782,232.619 483.282,232.952 480.5,231.5C 485.183,230.647 487.516,227.813 487.5,223C 485.061,216.516 482.728,210.016 480.5,203.5 Z"/></g>
<g><path style="opacity:1" fill="#f8f9f9" d="M 264.5,206.5 C 272.818,206.987 274.485,210.487 269.5,217C 261.088,216.812 259.421,213.312 264.5,206.5 Z"/></g>
<g><path style="opacity:1" fill="#fefaf8" d="M 289.5,206.5 C 297.818,206.987 299.485,210.487 294.5,217C 286.088,216.812 284.421,213.312 289.5,206.5 Z"/></g>
<g><path style="opacity:1" fill="#f7f8f9" d="M 406.5,205.5 C 414.149,205.314 417.315,208.981 416,216.5C 413.442,220.212 409.942,221.378 405.5,220C 401.268,214.809 401.601,209.975 406.5,205.5 Z"/></g>
<g><path style="opacity:1" fill="#f4f5f6" d="M 432.5,205.5 C 436.693,205.362 439.027,207.362 439.5,211.5C 435.445,211.824 431.445,211.491 427.5,210.5C 428.882,208.451 430.548,206.785 432.5,205.5 Z"/></g>
<g><path style="opacity:1" fill="#f5f6f7" d="M 220.5,206.5 C 226.33,206.161 228.83,208.827 228,214.5C 224.952,218.01 221.619,218.343 218,215.5C 216.927,211.9 217.76,208.9 220.5,206.5 Z"/></g>
<g><path style="opacity:1" fill="#f3f4f5" d="M 384.5,213.5 C 386.833,213.5 389.167,213.5 391.5,213.5C 391.427,219.546 388.427,221.713 382.5,220C 380.933,217.094 381.6,214.928 384.5,213.5 Z"/></g>
<g><path style="opacity:1" fill="#33475b" d="M 172.5,254.5 C 173.833,254.5 175.167,254.5 176.5,254.5C 176.5,262.833 176.5,271.167 176.5,279.5C 175.167,279.5 173.833,279.5 172.5,279.5C 172.5,271.167 172.5,262.833 172.5,254.5 Z"/></g>
<g><path style="opacity:1" fill="#364a5e" d="M 479.5,254.5 C 481.167,254.5 482.833,254.5 484.5,254.5C 484.5,255.5 484.5,256.5 484.5,257.5C 480.932,257.759 479.599,259.759 480.5,263.5C 481.833,263.5 483.167,263.5 484.5,263.5C 484.5,264.5 484.5,265.5 484.5,266.5C 483.167,266.5 481.833,266.5 480.5,266.5C 480.5,270.833 480.5,275.167 480.5,279.5C 479.167,279.5 477.833,279.5 476.5,279.5C 476.5,275.167 476.5,270.833 476.5,266.5C 475.5,266.5 474.5,266.5 473.5,266.5C 473.5,265.5 473.5,264.5 473.5,263.5C 474.5,263.5 475.5,263.5 476.5,263.5C 475.924,259.888 476.924,256.888 479.5,254.5 Z"/></g>
<g><path style="opacity:1" fill="#3a4d61" d="M 527.5,254.5 C 528.833,254.5 530.167,254.5 531.5,254.5C 531.5,262.833 531.5,271.167 531.5,279.5C 529.549,279.773 528.049,279.107 527,277.5C 519.836,281.333 515.336,279.333 513.5,271.5C 515.336,263.667 519.836,261.667 527,265.5C 527.499,261.848 527.665,258.182 527.5,254.5 Z"/></g>
<g><path style="opacity:1" fill="#384b5f" d="M 283.5,256.5 C 287.514,256.334 291.514,256.501 295.5,257C 299.823,259.783 300.49,263.283 297.5,267.5C 294.34,269.027 291.007,269.693 287.5,269.5C 287.5,272.833 287.5,276.167 287.5,279.5C 286.167,279.5 284.833,279.5 283.5,279.5C 283.5,271.833 283.5,264.167 283.5,256.5 Z"/></g>
<g><path style="opacity:1" fill="#3f5164" d="M 138.5,256.5 C 142.167,256.164 145.5,256.997 148.5,259C 146.615,261.501 144.282,261.667 141.5,259.5C 138.26,260.037 137.26,261.703 138.5,264.5C 141.125,265.764 143.792,266.931 146.5,268C 149.779,275.243 147.279,279.076 139,279.5C 136.226,279.695 134.059,278.695 132.5,276.5C 134.093,274.34 135.76,274.173 137.5,276C 142.472,277.347 144.472,275.68 143.5,271C 139.757,270.049 136.59,268.215 134,265.5C 133.053,261.279 134.553,258.279 138.5,256.5 Z"/></g>
<g><path style="opacity:1" fill="#405265" d="M 212.5,256.5 C 215.166,256.066 216.333,257.066 216,259.5C 212.403,261.066 211.237,260.066 212.5,256.5 Z"/></g>
<g><path style="opacity:1" fill="#3d5063" d="M 408.5,256.5 C 413.241,255.963 417.574,256.963 421.5,259.5C 421.167,260.5 420.5,261.167 419.5,261.5C 408.062,257.77 403.895,261.77 407,273.5C 410.755,277.016 414.755,277.349 419,274.5C 420.225,274.862 421.391,275.362 422.5,276C 408.681,283.176 401.847,279.009 402,263.5C 403.694,260.642 405.861,258.309 408.5,256.5 Z"/></g>
<g><path style="opacity:1" fill="#405265" d="M 467.5,256.5 C 470.166,256.066 471.333,257.066 471,259.5C 467.403,261.066 466.237,260.066 467.5,256.5 Z"/></g>
<g><path style="opacity:1" fill="#405265" d="M 487.5,256.5 C 490.166,256.066 491.333,257.066 491,259.5C 487.403,261.066 486.237,260.066 487.5,256.5 Z"/></g>
<g><path style="opacity:1" fill="#3a4d61" d="M 201.5,258.5 C 202.833,258.5 204.167,258.5 205.5,258.5C 205.5,260.167 205.5,261.833 205.5,263.5C 206.833,263.5 208.167,263.5 209.5,263.5C 209.5,264.5 209.5,265.5 209.5,266.5C 208.167,266.5 206.833,266.5 205.5,266.5C 205.335,269.518 205.502,272.518 206,275.5C 207.011,276.337 208.178,276.67 209.5,276.5C 209.5,277.5 209.5,278.5 209.5,279.5C 207.208,279.756 205.041,279.423 203,278.5C 201.646,274.637 201.146,270.637 201.5,266.5C 200.5,266.5 199.5,266.5 198.5,266.5C 198.5,265.5 198.5,264.5 198.5,263.5C 199.5,263.5 200.5,263.5 201.5,263.5C 201.5,261.833 201.5,260.167 201.5,258.5 Z"/></g>
<g><path style="opacity:1" fill="#f9fafa" d="M 287.5,259.5 C 289.527,259.338 291.527,259.505 293.5,260C 296.167,262 296.167,264 293.5,266C 291.527,266.495 289.527,266.662 287.5,266.5C 287.5,264.167 287.5,261.833 287.5,259.5 Z"/></g>
<g><path style="opacity:1" fill="#394c60" d="M 333.5,258.5 C 334.833,258.5 336.167,258.5 337.5,258.5C 337.5,260.167 337.5,261.833 337.5,263.5C 338.833,263.5 340.167,263.5 341.5,263.5C 341.5,264.5 341.5,265.5 341.5,266.5C 340.167,266.5 338.833,266.5 337.5,266.5C 337.335,269.518 337.502,272.518 338,275.5C 339.011,276.337 340.178,276.67 341.5,276.5C 341.5,277.5 341.5,278.5 341.5,279.5C 339.208,279.756 337.041,279.423 335,278.5C 333.646,274.637 333.146,270.637 333.5,266.5C 330.315,266.02 327.481,266.686 325,268.5C 324.501,272.152 324.335,275.818 324.5,279.5C 323.167,279.5 321.833,279.5 320.5,279.5C 320.5,274.167 320.5,268.833 320.5,263.5C 322.451,263.227 323.951,263.893 325,265.5C 327.481,263.686 330.315,263.02 333.5,263.5C 333.5,261.833 333.5,260.167 333.5,258.5 Z"/></g>
<g><path style="opacity:1" fill="#394c60" d="M 456.5,258.5 C 457.833,258.5 459.167,258.5 460.5,258.5C 460.5,260.167 460.5,261.833 460.5,263.5C 461.833,263.5 463.167,263.5 464.5,263.5C 464.5,264.5 464.5,265.5 464.5,266.5C 463.167,266.5 461.833,266.5 460.5,266.5C 460.335,269.518 460.502,272.518 461,275.5C 462.011,276.337 463.178,276.67 464.5,276.5C 464.5,277.5 464.5,278.5 464.5,279.5C 462.208,279.756 460.041,279.423 458,278.5C 456.646,274.637 456.146,270.637 456.5,266.5C 453.315,266.02 450.481,266.686 448,268.5C 447.501,272.152 447.335,275.818 447.5,279.5C 446.167,279.5 444.833,279.5 443.5,279.5C 443.5,274.167 443.5,268.833 443.5,263.5C 445.451,263.227 446.951,263.893 448,265.5C 450.481,263.686 453.315,263.02 456.5,263.5C 456.5,261.833 456.5,260.167 456.5,258.5 Z"/></g>
<g><path style="opacity:1" fill="#35485c" d="M 181.5,263.5 C 182.833,263.5 184.167,263.5 185.5,263.5C 185.335,267.182 185.501,270.848 186,274.5C 187.916,277.033 189.916,277.033 192,274.5C 192.499,270.848 192.665,267.182 192.5,263.5C 193.833,263.5 195.167,263.5 196.5,263.5C 196.5,268.833 196.5,274.167 196.5,279.5C 194.549,279.773 193.049,279.107 192,277.5C 188.925,280.059 185.925,280.059 183,277.5C 181.621,272.964 181.121,268.297 181.5,263.5 Z"/></g>
<g><path style="opacity:1" fill="#33475b" d="M 212.5,263.5 C 213.833,263.5 215.167,263.5 216.5,263.5C 216.5,268.833 216.5,274.167 216.5,279.5C 215.167,279.5 213.833,279.5 212.5,279.5C 212.5,274.167 212.5,268.833 212.5,263.5 Z"/></g>
<g><path style="opacity:1" fill="#34485c" d="M 381.5,263.5 C 383.451,263.227 384.951,263.893 386,265.5C 387.11,263.963 388.61,263.297 390.5,263.5C 390.5,264.5 390.5,265.5 390.5,266.5C 388.61,266.297 387.11,266.963 386,268.5C 385.501,272.152 385.335,275.818 385.5,279.5C 384.167,279.5 382.833,279.5 381.5,279.5C 381.5,274.167 381.5,268.833 381.5,263.5 Z"/></g>
<g><path style="opacity:1" fill="#33475b" d="M 467.5,263.5 C 468.833,263.5 470.167,263.5 471.5,263.5C 471.5,268.833 471.5,274.167 471.5,279.5C 470.167,279.5 468.833,279.5 467.5,279.5C 467.5,274.167 467.5,268.833 467.5,263.5 Z"/></g>
<g><path style="opacity:1" fill="#33475b" d="M 487.5,263.5 C 488.833,263.5 490.167,263.5 491.5,263.5C 491.5,268.833 491.5,274.167 491.5,279.5C 490.167,279.5 488.833,279.5 487.5,279.5C 487.5,274.167 487.5,268.833 487.5,263.5 Z"/></g>
<g><path style="opacity:1" fill="#3f5164" d="M 156.5,263.5 C 160.753,262.986 164.587,263.986 168,266.5C 170.725,274.372 167.892,278.706 159.5,279.5C 153.541,278.261 151.041,274.594 152,268.5C 153.193,266.503 154.693,264.836 156.5,263.5 Z"/></g>
<g><path style="opacity:1" fill="#3f5164" d="M 224.5,263.5 C 228.753,262.986 232.587,263.986 236,266.5C 238.725,274.372 235.892,278.706 227.5,279.5C 221.541,278.261 219.041,274.594 220,268.5C 221.193,266.503 222.693,264.836 224.5,263.5 Z"/></g>
<g><path style="opacity:1" fill="#374a5e" d="M 240.5,263.5 C 242.451,263.227 243.951,263.893 245,265.5C 248.619,262.657 251.952,262.99 255,266.5C 255.499,270.821 255.666,275.154 255.5,279.5C 254.167,279.5 252.833,279.5 251.5,279.5C 251.666,275.486 251.499,271.486 251,267.5C 248.733,266.065 246.733,266.398 245,268.5C 244.501,272.152 244.335,275.818 244.5,279.5C 243.167,279.5 241.833,279.5 240.5,279.5C 240.5,274.167 240.5,268.833 240.5,263.5 Z"/></g>
<g><path style="opacity:1" fill="#405265" d="M 261.5,263.5 C 265.167,263.164 268.5,263.997 271.5,266C 270.892,266.87 270.059,267.37 269,267.5C 266.419,265.86 264.252,266.194 262.5,268.5C 265.525,269.429 268.358,270.762 271,272.5C 272.042,275.804 270.875,277.971 267.5,279C 264.12,279.938 261.12,279.271 258.5,277C 259.333,276.167 260.167,275.333 261,274.5C 263.257,277.119 265.423,277.119 267.5,274.5C 264.617,273.262 261.783,271.928 259,270.5C 258.333,269.167 258.333,267.833 259,266.5C 260.045,265.627 260.878,264.627 261.5,263.5 Z"/></g>
<g><path style="opacity:1" fill="#3c4f62" d="M 305.5,263.5 C 308.93,263.107 312.096,263.773 315,265.5C 316.379,270.036 316.879,274.703 316.5,279.5C 314.549,279.773 313.049,279.107 312,277.5C 308.381,280.343 305.048,280.01 302,276.5C 301.175,274.299 301.675,272.466 303.5,271C 306.444,270.03 309.444,269.196 312.5,268.5C 311.829,267.054 310.662,266.388 309,266.5C 306.628,267.767 304.462,267.6 302.5,266C 303.571,265.148 304.571,264.315 305.5,263.5 Z"/></g>
<g><path style="opacity:1" fill="#374a5e" d="M 343.5,263.5 C 345.451,263.227 346.951,263.893 348,265.5C 351.619,262.657 354.952,262.99 358,266.5C 358.499,270.821 358.666,275.154 358.5,279.5C 357.167,279.5 355.833,279.5 354.5,279.5C 354.666,275.486 354.499,271.486 354,267.5C 351.733,266.065 349.733,266.398 348,268.5C 347.501,272.152 347.335,275.818 347.5,279.5C 346.167,279.5 344.833,279.5 343.5,279.5C 343.5,274.167 343.5,268.833 343.5,263.5 Z"/></g>
<g><path style="opacity:1" fill="#3d4f63" d="M 366.5,263.5 C 373.984,262.214 377.984,265.214 378.5,272.5C 374.116,272.174 369.783,272.508 365.5,273.5C 367.944,277.021 370.778,277.355 374,274.5C 376.122,275.22 376.622,276.387 375.5,278C 364.492,281.321 360.325,277.488 363,266.5C 364.518,265.837 365.685,264.837 366.5,263.5 Z"/></g>
<g><path style="opacity:1" fill="#3d4f63" d="M 428.5,263.5 C 435.984,262.214 439.984,265.214 440.5,272.5C 436.116,272.174 431.783,272.508 427.5,273.5C 429.944,277.021 432.778,277.355 436,274.5C 438.122,275.22 438.622,276.387 437.5,278C 426.492,281.321 422.325,277.488 425,266.5C 426.518,265.837 427.685,264.837 428.5,263.5 Z"/></g>
<g><path style="opacity:1" fill="#3d4f63" d="M 499.5,263.5 C 506.984,262.214 510.984,265.214 511.5,272.5C 507.116,272.174 502.783,272.508 498.5,273.5C 500.944,277.021 503.778,277.355 507,274.5C 509.122,275.22 509.622,276.387 508.5,278C 497.492,281.321 493.325,277.488 496,266.5C 497.518,265.837 498.685,264.837 499.5,263.5 Z"/></g>
<g><path style="opacity:1" fill="#f5f6f7" d="M 157.5,266.5 C 164.842,266.207 166.842,269.207 163.5,275.5C 155.848,276.555 153.848,273.555 157.5,266.5 Z"/></g>
<g><path style="opacity:1" fill="#f5f6f7" d="M 225.5,266.5 C 232.842,266.207 234.842,269.207 231.5,275.5C 223.848,276.555 221.848,273.555 225.5,266.5 Z"/></g>
<g><path style="opacity:1" fill="#f4f5f6" d="M 367.5,266.5 C 370.157,266.162 372.49,266.829 374.5,268.5C 371.554,269.655 368.554,269.821 365.5,269C 366.381,268.292 367.047,267.458 367.5,266.5 Z"/></g>
<g><path style="opacity:1" fill="#f4f5f6" d="M 429.5,266.5 C 432.157,266.162 434.49,266.829 436.5,268.5C 433.554,269.655 430.554,269.821 427.5,269C 428.381,268.292 429.047,267.458 429.5,266.5 Z"/></g>
<g><path style="opacity:1" fill="#f4f5f6" d="M 500.5,266.5 C 503.157,266.162 505.49,266.829 507.5,268.5C 504.554,269.655 501.554,269.821 498.5,269C 499.381,268.292 500.047,267.458 500.5,266.5 Z"/></g>
<g><path style="opacity:1" fill="#f5f5f7" d="M 519.5,266.5 C 526.842,266.207 528.842,269.207 525.5,275.5C 517.848,276.555 515.848,273.555 519.5,266.5 Z"/></g>
<g><path style="opacity:1" fill="#eff1f2" d="M 306.5,272.5 C 308.604,272.201 310.604,272.534 312.5,273.5C 310.992,276.418 308.825,277.084 306,275.5C 305.53,274.423 305.697,273.423 306.5,272.5 Z"/></g>
<g><path style="opacity:1" fill="#3b4e61" d="M 195.5,306.5 C 196.833,306.5 198.167,306.5 199.5,306.5C 199.925,313.615 199.425,320.615 198,327.5C 194.333,330.167 190.667,330.167 187,327.5C 186.517,326.552 186.351,325.552 186.5,324.5C 188.954,324.321 191.121,324.987 193,326.5C 193.5,326.167 194,325.833 194.5,325.5C 195.46,319.227 195.793,312.893 195.5,306.5 Z"/></g>
<g><path style="opacity:1" fill="#3b4e61" d="M 210.5,306.5 C 212.144,306.286 213.644,306.62 215,307.5C 217.976,314.767 221.143,321.934 224.5,329C 220.885,329.952 218.552,328.619 217.5,325C 214.118,324.176 210.784,324.343 207.5,325.5C 206.729,329.181 204.729,330.181 201.5,328.5C 204.897,321.304 207.897,313.97 210.5,306.5 Z"/></g>
<g><path style="opacity:1" fill="#3d5063" d="M 244.5,306.5 C 245.833,306.5 247.167,306.5 248.5,306.5C 249.076,311.715 250.409,316.715 252.5,321.5C 254.299,316.937 255.799,312.27 257,307.5C 258.699,306.594 260.533,306.261 262.5,306.5C 263.363,311.616 264.696,316.616 266.5,321.5C 268.309,316.596 269.642,311.596 270.5,306.5C 272.199,306.34 273.866,306.506 275.5,307C 272.951,314.023 270.785,321.19 269,328.5C 267.644,329.38 266.144,329.714 264.5,329.5C 263.641,323.922 261.974,318.589 259.5,313.5C 257.215,318.639 255.549,323.972 254.5,329.5C 252.549,329.773 251.049,329.107 250,327.5C 247.693,320.604 245.86,313.604 244.5,306.5 Z"/></g>
<g><path style="opacity:1" fill="#33475b" d="M 278.5,306.5 C 279.833,306.5 281.167,306.5 282.5,306.5C 282.5,314.167 282.5,321.833 282.5,329.5C 281.167,329.5 279.833,329.5 278.5,329.5C 278.5,321.833 278.5,314.167 278.5,306.5 Z"/></g>
<g><path style="opacity:1" fill="#36495d" d="M 287.5,306.5 C 289.467,306.261 291.301,306.594 293,307.5C 295.748,312.666 298.748,317.666 302,322.5C 302.499,317.177 302.666,311.844 302.5,306.5C 303.833,306.5 305.167,306.5 306.5,306.5C 306.5,314.167 306.5,321.833 306.5,329.5C 304.533,329.739 302.699,329.406 301,328.5C 298,323.167 295,317.833 292,312.5C 291.501,318.157 291.334,323.824 291.5,329.5C 290.167,329.5 288.833,329.5 287.5,329.5C 287.5,321.833 287.5,314.167 287.5,306.5 Z"/></g>
<g><path style="opacity:1" fill="#394c60" d="M 311.5,306.5 C 317.105,305.908 322.439,306.741 327.5,309C 332.669,314.896 332.669,320.896 327.5,327C 322.439,329.259 317.105,330.092 311.5,329.5C 311.5,321.833 311.5,314.167 311.5,306.5 Z"/></g>
<g><path style="opacity:1" fill="#34485c" d="M 335.5,306.5 C 340.5,306.5 345.5,306.5 350.5,306.5C 350.5,307.5 350.5,308.5 350.5,309.5C 346.833,309.5 343.167,309.5 339.5,309.5C 339.5,311.833 339.5,314.167 339.5,316.5C 342.833,316.5 346.167,316.5 349.5,316.5C 349.5,317.5 349.5,318.5 349.5,319.5C 346.167,319.5 342.833,319.5 339.5,319.5C 339.5,321.833 339.5,324.167 339.5,326.5C 343.5,326.5 347.5,326.5 351.5,326.5C 351.5,327.5 351.5,328.5 351.5,329.5C 346.167,329.5 340.833,329.5 335.5,329.5C 335.5,321.833 335.5,314.167 335.5,306.5 Z"/></g>
<g><path style="opacity:1" fill="#384b5f" d="M 355.5,306.5 C 359.514,306.334 363.514,306.501 367.5,307C 373.019,311.588 372.685,315.754 366.5,319.5C 368.375,322.751 370.375,325.918 372.5,329C 370.833,329.667 369.167,329.667 367.5,329C 365.873,326.246 364.373,323.412 363,320.5C 361.989,319.663 360.822,319.33 359.5,319.5C 359.5,322.833 359.5,326.167 359.5,329.5C 358.167,329.5 356.833,329.5 355.5,329.5C 355.5,321.833 355.5,314.167 355.5,306.5 Z"/></g>
<g><path style="opacity:1" fill="#33475b" d="M 402.5,306.5 C 403.833,306.5 405.167,306.5 406.5,306.5C 406.5,314.167 406.5,321.833 406.5,329.5C 405.167,329.5 403.833,329.5 402.5,329.5C 402.5,321.833 402.5,314.167 402.5,306.5 Z"/></g>
<g><path style="opacity:1" fill="#36495d" d="M 411.5,306.5 C 413.467,306.261 415.301,306.594 417,307.5C 419.748,312.666 422.748,317.666 426,322.5C 426.499,317.177 426.666,311.844 426.5,306.5C 427.833,306.5 429.167,306.5 430.5,306.5C 430.5,314.167 430.5,321.833 430.5,329.5C 428.533,329.739 426.699,329.406 425,328.5C 422,323.167 419,317.833 416,312.5C 415.501,318.157 415.334,323.824 415.5,329.5C 414.167,329.5 412.833,329.5 411.5,329.5C 411.5,321.833 411.5,314.167 411.5,306.5 Z"/></g>
<g><path style="opacity:1" fill="#33475b" d="M 459.5,306.5 C 460.833,306.5 462.167,306.5 463.5,306.5C 463.5,309.833 463.5,313.167 463.5,316.5C 466.833,316.5 470.167,316.5 473.5,316.5C 473.5,313.167 473.5,309.833 473.5,306.5C 474.833,306.5 476.167,306.5 477.5,306.5C 477.5,314.167 477.5,321.833 477.5,329.5C 476.167,329.5 474.833,329.5 473.5,329.5C 473.5,326.167 473.5,322.833 473.5,319.5C 470.167,319.5 466.833,319.5 463.5,319.5C 463.5,322.833 463.5,326.167 463.5,329.5C 462.167,329.5 460.833,329.5 459.5,329.5C 459.5,321.833 459.5,314.167 459.5,306.5 Z"/></g>
<g><path style="opacity:1" fill="#3e5164" d="M 231.5,306.5 C 235.167,306.164 238.5,306.997 241.5,309C 240.667,309.833 239.833,310.667 239,311.5C 235.411,308.443 232.578,308.943 230.5,313C 233.853,315.347 237.353,317.514 241,319.5C 241.502,327.653 237.669,330.82 229.5,329C 226.183,327.915 225.849,326.415 228.5,324.5C 232.2,327.525 235.2,327.025 237.5,323C 237.355,322.228 237.022,321.561 236.5,321C 232.757,320.049 229.59,318.215 227,315.5C 226.053,311.279 227.553,308.279 231.5,306.5 Z"/></g>
<g><path style="opacity:1" fill="#3e5164" d="M 387.5,306.5 C 391.167,306.164 394.5,306.997 397.5,309C 396.667,309.833 395.833,310.667 395,311.5C 391.411,308.443 388.578,308.943 386.5,313C 389.853,315.347 393.353,317.514 397,319.5C 397.502,327.653 393.669,330.82 385.5,329C 382.183,327.915 381.849,326.415 384.5,324.5C 388.2,327.525 391.2,327.025 393.5,323C 393.355,322.228 393.022,321.561 392.5,321C 388.757,320.049 385.59,318.215 383,315.5C 382.053,311.279 383.553,308.279 387.5,306.5 Z"/></g>
<g><path style="opacity:1" fill="#3c4f62" d="M 441.5,306.5 C 446.08,306.113 450.414,306.947 454.5,309C 453.646,310.022 452.646,310.855 451.5,311.5C 440.062,307.77 435.895,311.77 439,323.5C 441.995,326.265 445.495,327.098 449.5,326C 450.423,323.959 450.756,321.792 450.5,319.5C 448.833,319.5 447.167,319.5 445.5,319.5C 445.5,318.5 445.5,317.5 445.5,316.5C 448.5,316.5 451.5,316.5 454.5,316.5C 454.793,320.437 454.46,324.27 453.5,328C 448.013,330.185 442.68,329.851 437.5,327C 431.263,318.575 432.597,311.741 441.5,306.5 Z"/></g>
<g><path style="opacity:1" fill="#fbfcfc" d="M 315.5,309.5 C 327.171,309.677 330.171,314.844 324.5,325C 321.607,326.149 318.607,326.649 315.5,326.5C 315.5,320.833 315.5,315.167 315.5,309.5 Z"/></g>
<g><path style="opacity:1" fill="#fafafb" d="M 359.5,309.5 C 361.527,309.338 363.527,309.505 365.5,310C 368.167,312 368.167,314 365.5,316C 363.527,316.495 361.527,316.662 359.5,316.5C 359.5,314.167 359.5,311.833 359.5,309.5 Z"/></g>
<g><path style="opacity:1" fill="#eceef0" d="M 212.5,312.5 C 213.93,315.197 215.263,318.031 216.5,321C 214.098,321.814 211.765,321.647 209.5,320.5C 210.508,317.805 211.508,315.138 212.5,312.5 Z"/></g>
</svg>
