<svg version="1.2" xmlns="http://www.w3.org/2000/svg" viewBox="0 0 900 900" width="900" height="900"><defs><clipPath clipPathUnits="userSpaceOnUse" id="cp1"><path d="m636.13 394.78l-0.59 211.27c-0.01 1.07-0.71 2.14-2.12 2.96l0.6-211.27c1.41-0.82 2.11-1.89 2.11-2.96z"/></clipPath><clipPath clipPathUnits="userSpaceOnUse" id="cp2"><path d="m469.14 606.01l0.6-211.27c0 1.09 0.71 2.17 2.15 3l-0.6 211.27c-1.44-0.83-2.15-1.92-2.15-3z"/></clipPath><clipPath clipPathUnits="userSpaceOnUse" id="cp3"><path d="m558.35 441.72l-0.6 211.26c-2.83 1.65-7.44 1.65-10.29 0l0.6-211.26c2.85 1.64 7.46 1.64 10.29 0z"/></clipPath><clipPath clipPathUnits="userSpaceOnUse" id="cp4"><path d="m482.2 390.22l-0.1 6.45c0 0.91 0.6 1.82 1.8 2.52l0.09-6.45c-1.19-0.69-1.79-1.6-1.79-2.52z"/></clipPath><clipPath clipPathUnits="userSpaceOnUse" id="cp5"><path d="m623.68 396.64l0.09-6.45c0.01 0.92-0.6 1.85-1.82 2.55l-0.1 6.45c1.22-0.7 1.83-1.63 1.83-2.55z"/></clipPath><clipPath clipPathUnits="userSpaceOnUse" id="cp6"><path d="m548.38 430.16l-0.09 6.45c2.41 1.4 6.33 1.4 8.75 0l0.1-6.45c-2.43 1.4-6.35 1.4-8.76 0z"/></clipPath><clipPath clipPathUnits="userSpaceOnUse" id="cp7"><path d="m516.16 460.9l-0.6 211.27c0 1.07-0.71 2.14-2.12 2.96l0.6-211.27c1.41-0.82 2.11-1.89 2.12-2.96z"/></clipPath><clipPath clipPathUnits="userSpaceOnUse" id="cp8"><path d="m349.17 672.13l0.59-211.27c0 1.09 0.72 2.17 2.15 3l-0.6 211.27c-1.43-0.83-2.15-1.92-2.14-3z"/></clipPath><clipPath clipPathUnits="userSpaceOnUse" id="cp9"><path d="m438.37 507.84l-0.6 211.27c-2.83 1.64-7.44 1.64-10.29 0l0.6-211.27c2.85 1.64 7.46 1.64 10.29 0z"/></clipPath><clipPath clipPathUnits="userSpaceOnUse" id="cp10"><path d="m362.22 456.34l-0.1 6.45c0.01 0.91 0.61 1.83 1.8 2.52l0.1-6.45c-1.2-0.69-1.8-1.6-1.8-2.52z"/></clipPath><clipPath clipPathUnits="userSpaceOnUse" id="cp11"><path d="m503.7 462.76l0.1-6.45c0 0.92-0.61 1.85-1.83 2.55l-0.09 6.45c1.22-0.7 1.83-1.63 1.82-2.55z"/></clipPath><clipPath clipPathUnits="userSpaceOnUse" id="cp12"><path d="m428.4 496.28l-0.09 6.45c2.41 1.4 6.33 1.4 8.76 0l0.09-6.45c-2.42 1.4-6.35 1.4-8.76 0z"/></clipPath><clipPath clipPathUnits="userSpaceOnUse" id="cp13"><path d="m394.92 534.12l-0.6 211.27c0 1.07-0.71 2.14-2.12 2.96l0.6-211.27c1.41-0.82 2.11-1.89 2.12-2.96z"/></clipPath><clipPath clipPathUnits="userSpaceOnUse" id="cp14"><path d="m227.93 745.35l0.59-211.27c0 1.08 0.72 2.17 2.15 3l-0.6 211.27c-1.43-0.83-2.15-1.92-2.14-3z"/></clipPath><clipPath clipPathUnits="userSpaceOnUse" id="cp15"><path d="m317.13 581.06l-0.6 211.26c-2.83 1.65-7.44 1.65-10.29 0l0.6-211.26c2.85 1.64 7.46 1.64 10.29 0z"/></clipPath><clipPath clipPathUnits="userSpaceOnUse" id="cp16"><path d="m240.98 529.56l-0.1 6.45c0.01 0.91 0.61 1.82 1.8 2.52l0.1-6.45c-1.2-0.7-1.8-1.61-1.8-2.52z"/></clipPath><clipPath clipPathUnits="userSpaceOnUse" id="cp17"><path d="m382.46 535.98l0.1-6.45c0 0.92-0.61 1.85-1.83 2.55l-0.09 6.45c1.22-0.7 1.83-1.63 1.82-2.55z"/></clipPath><clipPath clipPathUnits="userSpaceOnUse" id="cp18"><path d="m307.16 569.5l-0.09 6.45c2.41 1.4 6.33 1.4 8.76 0l0.09-6.45c-2.42 1.4-6.35 1.4-8.76 0z"/></clipPath><clipPath clipPathUnits="userSpaceOnUse" id="cp19"><path d="m406.82 511.9l2.27 1.32q-0.25-0.14-0.62 0.06l-2.27-1.32q0.37-0.2 0.62-0.06z"/></clipPath><clipPath clipPathUnits="userSpaceOnUse" id="cp20"><path d="m406.82 511.9l2.27 1.32q-0.25-0.14-0.62 0.06l-2.27-1.32q0.37-0.2 0.62-0.06z"/></clipPath><clipPath clipPathUnits="userSpaceOnUse" id="cp21"><path d="m406.82 511.9l2.27 1.32q-0.25-0.14-0.62 0.06l-2.27-1.32q0.37-0.2 0.62-0.06z"/></clipPath><clipPath clipPathUnits="userSpaceOnUse" id="cp22"><path d="m379.02 531.39l-2.27-1.32c0-0.55 0.38-1.21 0.86-1.49l2.27 1.32c-0.48 0.28-0.87 0.94-0.86 1.49z"/></clipPath><clipPath clipPathUnits="userSpaceOnUse" id="cp23"><path d="m379.02 531.39l-2.27-1.32c0-0.55 0.38-1.21 0.86-1.49l2.27 1.32c-0.48 0.28-0.87 0.94-0.86 1.49z"/></clipPath><clipPath clipPathUnits="userSpaceOnUse" id="cp24"><path d="m379.02 531.39l-2.27-1.32c0-0.55 0.38-1.21 0.86-1.49l2.27 1.32c-0.48 0.28-0.87 0.94-0.86 1.49z"/></clipPath><clipPath clipPathUnits="userSpaceOnUse" id="cp25"><path d="m531.64 95.37l30.77 17.88c-10.27-5.97-24.5-5.13-40.2 3.94q-5.04 2.91-9.82 6.66l-30.78-17.88q4.79-3.75 9.83-6.66c15.7-9.07 29.93-9.91 40.2-3.94z"/></clipPath><clipPath clipPathUnits="userSpaceOnUse" id="cp26"><path d="m459.5 73.92l30.77 17.88c-15.4-8.95-36.74-7.69-60.29 5.9l-30.77-17.88c23.55-13.59 44.89-14.85 60.29-5.9z"/></clipPath><clipPath clipPathUnits="userSpaceOnUse" id="cp27"><path d="m348 218.75l-30.77-17.88c9.12-47.61 42.33-98.15 81.98-121.05l30.77 17.88c-39.65 22.9-72.86 73.44-81.98 121.05z"/></clipPath><clipPath clipPathUnits="userSpaceOnUse" id="cp28"><path d="m298.34 357.23l-30.77-17.88c-10.15-5.89-16.44-18.43-16.49-36.24-0.1-35.86 25.12-79.53 56.32-97.55q5.04-2.9 9.83-4.69l30.77 17.88q-4.79 1.79-9.83 4.69c-31.2 18.02-56.42 61.69-56.32 97.55 0.06 17.82 6.34 30.35 16.49 36.24z"/></clipPath></defs><style>.a{fill:#50cef5}.b{fill:#7f7f7f}.c{fill:#909294}.d{fill:#a1a5a9}.e{fill:#b3b8bf}.f{fill:#c4cbd4}.g{fill:#d5dee9}.h{fill:#e6f1fe}.i{opacity:0;fill:#7f7f7f}.j{opacity:.17;fill:#929394}.k{opacity:.33;fill:#a4a7a9}.l{opacity:.5;fill:#b7bbbf}.m{opacity:.67;fill:#caced4}.n{opacity:.83;fill:#dce2e9}.o{fill:#eff6fe}.p{opacity:.02;fill:#818181}.q{opacity:.04;fill:#838484}.r{opacity:.06;fill:#868686}.s{opacity:.08;fill:#888889}.t{opacity:.1;fill:#8a8b8b}.u{opacity:.12;fill:#8c8d8e}.v{opacity:.14;fill:#8e8f90}.w{opacity:.16;fill:#919293}.x{opacity:.18;fill:#939495}.y{opacity:.2;fill:#959698}.z{opacity:.22;fill:#97999a}.A{opacity:.24;fill:#999b9d}.B{opacity:.25;fill:#9c9d9f}.C{opacity:.27;fill:#9ea0a2}.D{opacity:.29;fill:#a0a2a4}.E{opacity:.31;fill:#a2a4a7}.F{opacity:.35;fill:#a7a9ac}.G{opacity:.37;fill:#a9abae}.H{opacity:.39;fill:#abaeb1}.I{opacity:.41;fill:#adb0b3}.J{opacity:.43;fill:#afb2b6}.K{opacity:.45;fill:#b2b5b8}.L{opacity:.47;fill:#b4b7bb}.M{opacity:.49;fill:#b6b9bd}.N{opacity:.51;fill:#b8bcc0}.O{opacity:.53;fill:#babec2}.P{opacity:.55;fill:#bcc0c5}.Q{opacity:.57;fill:#bfc3c7}.R{opacity:.59;fill:#c1c5ca}.S{opacity:.61;fill:#c3c7cc}.T{opacity:.63;fill:#c5cacf}.U{opacity:.65;fill:#c7ccd1}.V{opacity:.69;fill:#ccd1d6}.W{opacity:.71;fill:#ced3d9}.X{opacity:.73;fill:#d0d5db}.Y{opacity:.75;fill:#d2d8de}.Z{opacity:.76;fill:#d5dae0}.a0{opacity:.78;fill:#d7dce3}.a1{opacity:.8;fill:#d9dfe5}.a2{opacity:.82;fill:#dbe1e8}.a3{opacity:.84;fill:#dde3ea}.a4{opacity:.86;fill:#e0e6ed}.a5{opacity:.88;fill:#e2e8ef}.a6{opacity:.9;fill:#e4eaf2}.a7{opacity:.92;fill:#e6edf4}.a8{opacity:.94;fill:#e8eff7}.a9{opacity:.96;fill:#ebf1f9}.aa{opacity:.98;fill:#edf4fc}.ab{fill:#fff}.ac{fill:#242a31}.ad{fill:#10191b}.ae{fill:#37404a}.af{fill:#f3a984}.ag{fill:#f4f4f4}.ah{fill:#d4e2fc}.ai{fill:#283032}.aj{fill:#f5a783}.ak{fill:#ee9c76}.al{fill:#ffbfa2}.am{fill:#f8b495}.an{fill:#c99c83}.ao{fill:#b98c74}.ap{fill:#98a4e0}.aq{fill:#c6d5fa}.ar{fill:#dae8fd}.as{fill:#1499fc}.at{fill:#cddcfb}.au{fill:#3a4648}.av{fill:#021b74}.aw{fill:#13b7fd}.ax{fill:#30383a}.ay{fill:#0d1315}.az{fill:#15d9fd}.aA{fill:#353f41}.aB{fill:#becef9}.aC{opacity:.4;fill:#eff6fe}.aD{opacity:.3;fill:#eff6fe}.aE{opacity:.7;fill:#eff6fe}.aF{opacity:.5;fill:#eff6fe}</style><path class="a" d="m417.4 804.7l-0.4-0.2-71.8-41.6 0.7-1.2 71.5 41.4 235.5-136-86.2-49.7 0.7-1.2 88.3 50.9-1.1 0.6z"/><path class="a" d="m362.2 763.1l-2.4-1.3 0.7-1.2 2.4 1.4z"/><path class="a" d="m429.1 801.7l-4.8-2.8 0.7-1.2 4.8 2.8zm-9.6-5.5l-4.8-2.8 0.7-1.1 4.8 2.7zm-9.5-5.5l-4.8-2.8 0.7-1.1 4.7 2.7zm-9.5-5.5l-4.8-2.8 0.7-1.1 4.8 2.7zm-9.6-5.5l-4.8-2.8 0.7-1.1 4.8 2.7zm-9.6-5.5l-4.7-2.8 0.6-1.1 4.8 2.7zm-9.5-5.5l-4.8-2.7 0.7-1.2 4.8 2.7z"/><path class="a" d="m436.6 806l-2.7-1.6 0.7-1.1 2 1.1 2-1.1 0.7 1.1z"/><path class="a" d="m444 801.8l-0.7-1.2 4.7-2.7 0.6 1.2zm9.3-5.4l-0.6-1.2 4.6-2.7 0.7 1.2zm9.3-5.4l-0.7-1.2 4.7-2.6 0.7 1.2zm9.3-5.4l-0.7-1.2 4.6-2.7 0.7 1.2zm9.3-5.4l-0.7-1.2 4.7-2.7 0.7 1.2zm9.3-5.3l-0.7-1.2 4.7-2.7 0.6 1.2zm9.3-5.4l-0.6-1.2 4.6-2.7 0.7 1.2zm9.3-5.4l-0.7-1.1 4.7-2.7 0.7 1.2zm9.3-5.4l-0.7-1.2 4.6-2.7 0.7 1.2zm9.3-5.4l-0.7-1.2 4.7-2.7 0.7 1.2zm9.3-5.3l-0.7-1.2 4.6-2.7 0.7 1.2zm9.3-5.4l-0.6-1.2 4.6-2.7 0.7 1.2z"/><path class="a" d="m555.7 737.3l-0.7-1.2 1.3-0.8-1.3-0.8 0.7-1.2 3.4 2z"/><path class="a" d="m550.1 731.6l-4.9-2.9 0.7-1.2 4.9 2.9zm-9.8-5.7l-4.8-2.9 0.7-1.2 4.8 2.9zm-9.7-5.8l-4.9-2.9 0.7-1.2 4.9 2.9zm-9.8-5.8l-4.9-2.9 0.7-1.1 4.9 2.9zm-9.7-5.8l-4.9-2.9 0.7-1.2 4.9 2.9zm-9.8-5.8l-4.9-2.9 0.7-1.2 4.9 2.9zm-9.8-5.7l-4.8-2.9 0.7-1.2 4.8 2.9zm-9.7-5.8l-4.9-2.9 0.7-1.2 4.9 2.9zm-9.8-5.8l-4.9-2.8 0.7-1.2 4.9 2.9z"/><path class="a" d="m462.3 679.6l-2.4-1.4 0.7-1.2 2.4 1.4z"/><path class="a" d="m453.4 684.7l-2.3-1.4 0.7-1.2 2.3 1.4z"/><path class="a" d="m525.7 727.4l-4.5-2.7 0.7-1.1 4.5 2.6zm-9-5.3l-4.5-2.7 0.7-1.2 4.5 2.7zm-9.1-5.3l-4.5-2.7 0.7-1.2 4.5 2.7zm-9-5.4l-4.5-2.6 0.7-1.2 4.5 2.7zm-9-5.4l-4.6-2.6 0.7-1.2 4.6 2.6zm-9.1-5.3l-4.5-2.7 0.7-1.1 4.5 2.6zm-9-5.3l-4.5-2.7 0.7-1.2 4.5 2.7zm-9-5.3l-4.6-2.7 0.7-1.2 4.6 2.7z"/><path class="a" d="m532.9 731.7l-2.7-1.6 0.7-1.2 2 1.2 2.1-1.2 0.7 1.2z"/><path class="a" d="m540.4 727.3l-0.7-1.2 4.7-2.8 0.7 1.2zm9.4-5.6l-0.7-1.2 4.7-2.7 0.7 1.1zm9.4-5.5l-0.7-1.2 4.7-2.8 0.7 1.2zm9.5-5.6l-0.7-1.2 4.7-2.8 0.7 1.2zm9.4-5.6l-0.7-1.1 4.7-2.8 0.7 1.2zm9.4-5.6l-0.7-1.2 4.7-2.8 0.7 1.2zm9.4-5.6l-0.7-1.2 4.8-2.7 0.7 1.1zm9.4-5.5l-0.7-1.2 4.7-2.8 0.7 1.2zm9.4-5.6l-0.7-1.2 4.7-2.8 0.7 1.2zm9.4-5.6l-0.7-1.1 4.7-2.8 0.7 1.2zm9.5-5.6l-0.7-1.2 4.7-2.8 0.7 1.2zm9.4-5.6l-0.7-1.2 4.7-2.7 0.7 1.1z"/><path class="a" d="m653.4 660.4l-0.7-1.2 1.3-0.8-1.3-0.7 0.7-1.2 3.4 1.9z"/><path class="a" d="m647.9 654.9l-4.8-2.7 0.6-1.2 4.8 2.7zm-9.6-5.4l-4.8-2.8 0.7-1.2 4.8 2.8zm-9.7-5.5l-4.8-2.7 0.7-1.2 4.8 2.7zm-9.6-5.5l-4.8-2.7 0.6-1.2 4.9 2.7zm-9.7-5.4l-4.8-2.8 0.7-1.2 4.8 2.8zm-9.6-5.5l-4.9-2.7 0.7-1.2 4.8 2.7zm-9.6-5.5l-4.8-2.7 0.6-1.2 4.9 2.7zm-9.7-5.4l-4.8-2.8 0.7-1.2 4.8 2.8zm-9.6-5.5l-4.9-2.7 0.7-1.2 4.8 2.7zm-9.6-5.5l-4.8-2.7 0.7-1.2 4.8 2.7zm-9.7-5.4l-4.8-2.8 0.7-1.2 4.8 2.8z"/><path class="a" d="m541.8 594.7l-2.4-1.3 0.7-1.2 2.4 1.3z"/><g style="mix-blend-mode:overlay"><g style="opacity:0"><path class="b" d="m572 181.7c39.7-22.9 73.1-10.8 82.4 26.2q4.8-3.8 9.9-6.7c31.2-18 56.5-3.6 56.7 32.3 0 33.6-22.1 74.1-50.5 93.9l-189.9 109.9c-31.2 18-56.6 3.6-56.7-32.3-0.1-35.9 25.1-79.5 56.3-97.6q5.1-2.9 9.9-4.6c9.1-47.7 42.3-98.2 81.9-121.1z"/></g><g style="opacity:.17"><path class="c" d="m548.4 167.7c39.6-22.9 73-10.8 82.4 26.2q4.8-3.8 9.8-6.7c31.2-18 56.6-3.6 56.7 32.3 0.1 33.6-22.1 74.1-50.5 93.9l-189.9 109.9c-31.2 18-56.6 3.6-56.7-32.3-0.1-35.9 25.1-79.5 56.4-97.6q5-2.9 9.8-4.6c9.1-47.7 42.3-98.2 82-121.1z"/></g><g style="opacity:.33"><path class="d" d="m524.7 153.7c39.6-22.9 73-10.8 82.4 26.2q4.8-3.8 9.8-6.7c31.2-18 56.6-3.6 56.7 32.3 0.1 33.6-22 74.1-50.5 93.8l-189.9 110c-31.2 18-56.5 3.6-56.6-32.3-0.1-35.9 25.1-79.5 56.3-97.6q5-2.9 9.8-4.6c9.1-47.7 42.3-98.2 82-121.1z"/></g><g style="opacity:.5"><path class="e" d="m501 139.7c39.7-22.9 73.1-10.8 82.4 26.2q4.8-3.8 9.8-6.7c31.2-18 56.6-3.6 56.7 32.3 0.1 33.6-22 74.1-50.5 93.8l-189.8 110c-31.2 18-56.6 3.6-56.7-32.3-0.1-35.9 25.1-79.5 56.3-97.6q5-2.9 9.8-4.6c9.1-47.7 42.4-98.2 82-121.1z"/></g><g style="opacity:.67"><path class="f" d="m477.3 125.7c39.7-22.9 73.1-10.8 82.4 26.2q4.8-3.8 9.9-6.7c31.2-18 56.5-3.6 56.6 32.3 0.1 33.6-22 74.1-50.4 93.8l-189.9 110c-31.2 18-56.6 3.6-56.7-32.3-0.1-35.9 25.1-79.5 56.3-97.6q5.1-2.9 9.9-4.6c9.1-47.7 42.3-98.2 81.9-121.1z"/></g><g style="opacity:.83"><path class="g" d="m453.7 111.7c39.6-22.9 73-10.8 82.4 26.2q4.7-3.8 9.8-6.7c31.2-18 56.6-3.6 56.7 32.3 0.1 33.6-22.1 74.1-50.5 93.8l-189.9 110c-31.2 18-56.6 3.6-56.7-32.3-0.1-35.9 25.1-79.5 56.4-97.6q5-2.9 9.8-4.6c9.1-47.7 42.3-98.2 82-121.1z"/></g><path class="h" d="m430 97.7c39.6-22.9 73-10.8 82.4 26.1q4.8-3.7 9.8-6.6c31.2-18 56.6-3.6 56.7 32.3 0.1 33.6-22 74.1-50.5 93.8l-189.9 110c-31.2 18-56.5 3.6-56.6-32.3-0.1-35.9 25.1-79.5 56.3-97.6q5-2.9 9.8-4.6c9.1-47.7 42.3-98.2 82-121.1z"/></g><g style="mix-blend-mode:overlay"><path class="i" d="m502 533.7c0.9 108.8-86.5 197.9-195.4 198.8-108.8 1-197.9-86.5-198.8-195.3-1-108.9 86.5-197.9 195.3-198.9 108.9-0.9 197.9 86.5 198.9 195.4z"/><path class="j" d="m473.9 533.9c0.8 93.4-74.2 169.8-167.5 170.6-93.4 0.8-169.8-74.2-170.6-167.6-0.8-93.3 74.2-169.7 167.6-170.5 93.3-0.8 169.7 74.2 170.5 167.5z"/><path class="k" d="m445.9 534.2c0.7 77.9-61.9 141.6-139.8 142.2-77.9 0.7-141.6-61.8-142.2-139.7-0.7-77.9 61.8-141.6 139.7-142.3 77.9-0.7 141.6 61.9 142.3 139.8z"/><path class="l" d="m417.8 534.4c0.6 62.4-49.5 113.5-111.9 114-62.4 0.6-113.5-49.6-114-112-0.6-62.4 49.6-113.4 112-113.9 62.4-0.6 113.4 49.5 113.9 111.9z"/><path class="m" d="m389.8 534.7c0.4 46.9-37.3 85.2-84.2 85.7-46.9 0.4-85.2-37.3-85.7-84.2-0.4-46.9 37.3-85.3 84.2-85.7 46.9-0.4 85.3 37.3 85.7 84.2z"/><path class="n" d="m361.8 534.9c0.2 31.4-25 57.1-56.4 57.4-31.4 0.3-57.1-25-57.4-56.4-0.3-31.4 25-57.1 56.4-57.4 31.4-0.2 57.1 25 57.4 56.4z"/><path class="o" d="m333.7 535.2c0.2 15.9-12.6 28.9-28.6 29.1-15.9 0.1-28.9-12.7-29.1-28.6-0.1-15.9 12.7-29 28.6-29.1 15.9-0.2 29 12.6 29.1 28.6z"/></g><g style="mix-blend-mode:overlay"><path class="i" d="m757.5 386.1c1 108.9-86.5 197.9-195.3 198.9-108.9 0.9-197.9-86.5-198.8-195.4-1-108.8 86.5-197.9 195.3-198.8 108.9-1 197.9 86.5 198.8 195.3z"/><path class="j" d="m729.5 386.4c0.8 93.4-74.2 169.7-167.6 170.5-93.3 0.9-169.7-74.2-170.5-167.5-0.8-93.4 74.2-169.8 167.6-170.6 93.3-0.8 169.7 74.2 170.5 167.6z"/><path class="k" d="m701.5 386.6c0.6 77.9-61.9 141.6-139.8 142.3-77.9 0.7-141.6-61.9-142.3-139.8-0.7-77.9 61.9-141.6 139.8-142.2 77.9-0.7 141.6 61.9 142.3 139.7z"/><path class="l" d="m673.4 386.9c0.6 62.4-49.6 113.4-112 113.9-62.3 0.6-113.4-49.5-113.9-111.9-0.6-62.4 49.6-113.4 112-114 62.3-0.5 113.4 49.6 113.9 112z"/><path class="m" d="m645.4 387.1c0.4 46.9-37.3 85.3-84.2 85.7-46.9 0.4-85.3-37.3-85.7-84.2-0.4-46.9 37.3-85.2 84.2-85.7 46.9-0.4 85.3 37.3 85.7 84.2z"/><path class="n" d="m617.3 387.4c0.3 31.4-24.9 57.1-56.4 57.4-31.4 0.2-57.1-25-57.3-56.4-0.3-31.4 24.9-57.1 56.3-57.4 31.5-0.3 57.2 25 57.4 56.4z"/><path class="o" d="m589.3 387.6c0.1 15.9-12.7 29-28.6 29.1-15.9 0.2-29-12.6-29.1-28.6-0.1-15.9 12.7-28.9 28.6-29.1 15.9-0.1 29 12.7 29.1 28.6z"/></g><g style="mix-blend-mode:overlay"><path class="i" d="m629.8 448c0.9 108.8-86.5 197.9-195.4 198.8-108.9 1-197.9-86.5-198.8-195.3-1-108.9 86.5-197.9 195.3-198.9 108.9-0.9 197.9 86.5 198.9 195.4z"/><path class="p" d="m626.5 448c0.9 107-85.1 194.6-192.1 195.5-107.1 1-194.6-85-195.5-192.1-1-107 85-194.5 192.1-195.5 107-0.9 194.5 85.1 195.5 192.1z"/><path class="q" d="m623.2 448c0.9 105.3-83.7 191.3-188.9 192.2-105.2 0.9-191.2-83.6-192.1-188.8-1-105.2 83.6-191.2 188.8-192.2 105.2-0.9 191.2 83.6 192.2 188.8z"/><path class="r" d="m619.9 448.1c0.9 103.4-82.2 187.9-185.6 188.8-103.4 0.9-187.9-82.1-188.8-185.5-0.9-103.4 82.1-188 185.5-188.9 103.4-0.9 188 82.2 188.9 185.6z"/><path class="s" d="m616.6 448.1c0.9 101.6-80.8 184.6-182.3 185.5-101.6 0.9-184.6-80.7-185.5-182.3-0.9-101.5 80.7-184.6 182.2-185.5 101.6-0.9 184.7 80.7 185.6 182.3z"/><path class="t" d="m613.3 448.1c0.8 99.8-79.3 181.3-179 182.2-99.8 0.9-181.4-79.2-182.2-179-0.9-99.7 79.2-181.3 179-182.2 99.7-0.9 181.3 79.3 182.2 179z"/><path class="u" d="m610 448.2c0.8 97.9-77.9 178-175.8 178.8-97.9 0.9-178-77.8-178.8-175.7-0.9-97.9 77.8-178 175.7-178.9 97.9-0.8 178 77.8 178.9 175.8z"/><path class="v" d="m606.7 448.2c0.8 96.1-76.4 174.7-172.5 175.5-96.1 0.9-174.7-76.3-175.5-172.4-0.9-96.1 76.3-174.7 172.4-175.6 96.1-0.8 174.7 76.4 175.6 172.5z"/><path class="w" d="m603.4 448.2c0.8 94.3-75 171.4-169.2 172.2-94.3 0.9-171.4-74.9-172.2-169.2-0.9-94.2 74.9-171.3 169.2-172.2 94.2-0.8 171.3 74.9 172.2 169.2z"/><path class="x" d="m600.1 448.2c0.8 92.5-73.5 168.1-166 168.9-92.4 0.8-168-73.4-168.8-165.9-0.9-92.5 73.4-168.1 165.9-168.9 92.4-0.8 168.1 73.5 168.9 165.9z"/><path class="y" d="m596.8 448.3c0.8 90.6-72.1 164.7-162.7 165.5-90.6 0.8-164.7-72-165.5-162.6-0.8-90.7 72-164.8 162.6-165.6 90.6-0.8 164.8 72 165.6 162.7z"/><path class="z" d="m593.5 448.3c0.8 88.8-70.6 161.4-159.4 162.2-88.8 0.8-161.5-70.5-162.2-159.4-0.8-88.8 70.5-161.4 159.3-162.2 88.9-0.8 161.5 70.6 162.3 159.4z"/><path class="A" d="m590.2 448.3c0.7 87-69.2 158.2-156.2 158.9-86.9 0.8-158.1-69.1-158.8-156.1-0.8-87 69.1-158.1 156.1-158.9 87-0.8 158.1 69.1 158.9 156.1z"/><path class="B" d="m586.9 448.4c0.7 85.1-67.7 154.8-152.9 155.5-85.1 0.8-154.8-67.6-155.5-152.8-0.8-85.2 67.6-154.8 152.8-155.6 85.2-0.7 154.8 67.7 155.6 152.9z"/><path class="C" d="m583.6 448.4c0.7 83.3-66.3 151.5-149.6 152.2-83.4 0.8-151.5-66.2-152.2-149.5-0.8-83.4 66.2-151.6 149.5-152.3 83.4-0.7 151.5 66.2 152.3 149.6z"/><path class="D" d="m580.3 448.4c0.7 81.5-64.8 148.2-146.3 148.9-81.6 0.8-148.2-64.8-148.9-146.3-0.8-81.5 64.7-148.2 146.3-148.9 81.5-0.7 148.2 64.8 148.9 146.3z"/><path class="E" d="m577 448.5c0.7 79.7-63.4 144.8-143.1 145.5-79.7 0.7-144.8-63.3-145.6-143-0.7-79.7 63.4-144.9 143.1-145.6 79.7-0.7 144.9 63.4 145.6 143.1z"/><path class="k" d="m573.7 448.5c0.7 77.9-61.9 141.6-139.8 142.2-77.9 0.7-141.6-61.9-142.3-139.7-0.6-77.9 61.9-141.6 139.8-142.3 77.9-0.7 141.6 61.9 142.3 139.8z"/><path class="F" d="m570.4 448.5c0.6 76.1-60.5 138.3-136.5 138.9-76.1 0.7-138.3-60.4-139-136.5-0.6-76 60.5-138.2 136.5-138.9 76.1-0.7 138.3 60.5 139 136.5z"/><path class="G" d="m567.1 448.5c0.6 74.3-59 135-133.3 135.6-74.2 0.7-134.9-59-135.6-133.2-0.6-74.2 59-134.9 133.3-135.6 74.2-0.6 134.9 59 135.6 133.2z"/><path class="H" d="m563.8 448.6c0.6 72.4-57.6 131.6-130 132.2-72.4 0.7-131.6-57.5-132.3-129.9-0.6-72.4 57.6-131.7 130-132.3 72.4-0.6 131.6 57.6 132.3 130z"/><path class="I" d="m560.5 448.6c0.6 70.6-56.1 128.3-126.7 128.9-70.6 0.7-128.3-56.1-129-126.6-0.6-70.6 56.1-128.4 126.7-129 70.6-0.6 128.4 56.1 129 126.7z"/><path class="J" d="m557.2 448.6c0.6 68.8-54.7 125-123.4 125.6-68.8 0.6-125.1-54.6-125.7-123.4-0.6-68.7 54.7-125 123.5-125.6 68.7-0.6 125 54.7 125.6 123.4z"/><path class="K" d="m553.9 448.7c0.6 66.9-53.2 121.7-120.2 122.2-66.9 0.6-121.7-53.2-122.3-120.1-0.5-67 53.2-121.7 120.2-122.3 66.9-0.6 121.7 53.2 122.3 120.2z"/><path class="L" d="m550.6 448.7c0.6 65.1-51.8 118.4-116.9 118.9-65.1 0.6-118.4-51.7-119-116.8-0.5-65.2 51.8-118.4 116.9-119 65.1-0.6 118.4 51.8 119 116.9z"/><path class="M" d="m547.3 448.7c0.5 63.3-50.3 115.1-113.6 115.6-63.3 0.6-115.1-50.3-115.7-113.6-0.5-63.3 50.3-115 113.7-115.6 63.3-0.6 115 50.3 115.6 113.6z"/><path class="N" d="m544 448.7c0.5 61.5-48.9 111.8-110.4 112.3-61.4 0.6-111.7-48.8-112.3-110.3-0.5-61.5 48.9-111.8 110.4-112.3 61.5-0.5 111.7 48.9 112.3 110.3z"/><path class="O" d="m540.7 448.8c0.5 59.6-47.4 108.4-107.1 108.9-59.6 0.6-108.4-47.4-109-107-0.5-59.7 47.5-108.5 107.1-109 59.7-0.5 108.5 47.4 109 107.1z"/><path class="P" d="m537.4 448.8c0.5 57.8-46 105.1-103.8 105.6-57.9 0.6-105.2-45.9-105.7-103.8-0.5-57.8 46-105.1 103.8-105.6 57.9-0.5 105.2 46 105.7 103.8z"/><path class="Q" d="m534.1 448.8c0.5 56-44.5 101.9-100.5 102.3-56.1 0.5-101.9-44.5-102.4-100.5-0.5-56 44.6-101.8 100.6-102.3 56-0.5 101.8 44.5 102.3 100.5z"/><path class="R" d="m530.8 448.9c0.5 54.2-43.1 98.5-97.3 98.9-54.2 0.5-98.5-43-99-97.2-0.4-54.2 43.1-98.5 97.3-99 54.2-0.5 98.5 43.1 99 97.3z"/><path class="S" d="m527.5 448.9c0.4 52.4-41.6 95.2-94 95.6-52.4 0.5-95.2-41.6-95.7-93.9-0.4-52.4 41.7-95.2 94-95.7 52.4-0.5 95.2 41.6 95.7 94z"/><path class="T" d="m524.2 448.9c0.4 50.6-40.2 91.9-90.7 92.4-50.6 0.4-91.9-40.2-92.4-90.8-0.4-50.5 40.2-91.9 90.8-92.3 50.5-0.4 91.8 40.2 92.3 90.7z"/><path class="U" d="m520.9 448.9c0.4 48.8-38.7 88.6-87.5 89.1-48.7 0.4-88.5-38.8-89-87.5-0.4-48.7 38.8-88.6 87.5-89 48.7-0.4 88.6 38.7 89 87.4z"/><path class="m" d="m517.6 449c0.4 46.9-37.3 85.2-84.2 85.7-46.9 0.4-85.3-37.3-85.7-84.2-0.4-46.9 37.3-85.3 84.2-85.7 46.9-0.4 85.3 37.3 85.7 84.2z"/><path class="V" d="m514.3 449c0.4 45.1-35.8 82-80.9 82.4-45.1 0.3-82-35.9-82.4-81-0.4-45 35.9-81.9 80.9-82.3 45.1-0.4 82 35.8 82.4 80.9z"/><path class="W" d="m511 449c0.4 43.3-34.4 78.7-77.6 79.1-43.3 0.3-78.7-34.4-79.1-77.7-0.4-43.2 34.4-78.6 77.7-79 43.2-0.4 78.6 34.4 79 77.6z"/><path class="X" d="m507.7 449.1c0.4 41.4-32.9 75.3-74.4 75.7-41.4 0.3-75.3-33-75.7-74.4-0.3-41.5 33-75.3 74.4-75.7 41.4-0.4 75.3 32.9 75.7 74.4z"/><path class="Y" d="m504.4 449.1c0.3 39.6-31.5 72-71.1 72.4-39.6 0.3-72-31.5-72.4-71.1-0.3-39.7 31.5-72.1 71.1-72.4 39.6-0.4 72 31.5 72.4 71.1z"/><path class="Z" d="m501.1 449.1c0.3 37.8-30 68.7-67.8 69.1-37.8 0.3-68.7-30.1-69.1-67.9-0.3-37.8 30.1-68.7 67.9-69 37.8-0.3 68.7 30 69 67.8z"/><path class="a0" d="m497.8 449.2c0.3 35.9-28.6 65.3-64.6 65.7-35.9 0.3-65.4-28.6-65.7-64.6-0.3-36 28.6-65.4 64.6-65.7 36-0.3 65.4 28.6 65.7 64.6z"/><path class="a1" d="m494.5 449.2c0.3 34.1-27.1 62.1-61.3 62.4-34.1 0.3-62.1-27.2-62.4-61.3-0.3-34.2 27.2-62.1 61.3-62.4 34.2-0.3 62.1 27.1 62.4 61.3z"/><path class="a2" d="m491.2 449.2c0.3 32.3-25.7 58.8-58 59.1-32.4 0.2-58.8-25.7-59.1-58.1-0.3-32.3 25.7-58.7 58-59 32.4-0.3 58.8 25.7 59.1 58z"/><path class="a3" d="m487.9 449.2c0.3 30.5-24.2 55.5-54.8 55.8-30.5 0.2-55.4-24.3-55.7-54.8-0.2-30.5 24.3-55.4 54.8-55.7 30.5-0.3 55.4 24.2 55.7 54.7z"/><path class="a4" d="m484.6 449.3c0.3 28.7-22.8 52.1-51.5 52.4-28.7 0.2-52.1-22.8-52.4-51.5-0.2-28.7 22.8-52.2 51.5-52.4 28.7-0.3 52.1 22.8 52.4 51.5z"/><path class="a5" d="m481.3 449.3c0.2 26.9-21.3 48.8-48.2 49.1-26.9 0.2-48.8-21.4-49.1-48.2-0.2-26.9 21.4-48.9 48.2-49.1 26.9-0.3 48.9 21.3 49.1 48.2z"/><path class="a6" d="m478 449.3c0.2 25.1-19.9 45.5-44.9 45.8-25.1 0.2-45.6-19.9-45.8-45-0.2-25 19.9-45.5 45-45.7 25-0.2 45.5 19.9 45.7 44.9z"/><path class="a7" d="m474.7 449.4c0.2 23.2-18.5 42.2-41.7 42.4-23.2 0.2-42.2-18.5-42.4-41.7-0.2-23.2 18.5-42.2 41.7-42.4 23.2-0.2 42.2 18.4 42.4 41.7z"/><path class="a8" d="m471.4 449.4c0.2 21.4-17 38.9-38.4 39.1-21.4 0.2-38.9-17-39.1-38.4-0.2-21.4 17-38.9 38.4-39.1 21.4-0.2 38.9 17 39.1 38.4z"/><path class="a9" d="m468.1 449.4c0.2 19.6-15.6 35.6-35.1 35.8-19.6 0.1-35.6-15.6-35.8-35.2-0.2-19.5 15.6-35.5 35.1-35.7 19.6-0.2 35.6 15.5 35.8 35.1z"/><path class="aa" d="m464.8 449.4c0.2 17.8-14.1 32.3-31.9 32.5-17.7 0.1-32.2-14.1-32.4-31.9-0.1-17.7 14.1-32.3 31.9-32.4 17.7-0.2 32.2 14.1 32.4 31.8z"/><path class="o" d="m461.5 449.5c0.1 15.9-12.7 28.9-28.6 29.1-15.9 0.1-28.9-12.7-29.1-28.6-0.1-16 12.7-29 28.6-29.1 15.9-0.2 29 12.6 29.1 28.6z"/></g><path class="ab" d="m673.1 550.7c1.5-3.5 2.9-8.1 4.9-13.9 0.5-1.6 0.8-3.2 0.9-4.9 0-1.6-0.5-3-1.3-4.5-0.4-0.7-0.9-1.5-1.6-1.6-0.7-0.2-1.4 0.2-2 0.6-3.3 2.6-5.1 6.7-5.9 10.7-0.7 3.7-1.9 7.2-2.6 11-0.1 0.7-0.3 1.4-0.3 2.1 0.1 3.5 2.4 5.6 4.7 4.5 1.1-0.5 2.4-2.1 3.2-4z"/><path class="ac" d="m688.4 628.2c-2.6 2.7-4.8 5.6-7.1 8.6-0.7 0.9-1.5 1.3-2 2.3-0.4 0.7-0.8 2.2-0.6 3 0.3 1.2 2.9 1.2 3.9 1.2 1.4-0.1 2.6-0.5 3.7-1.1 1.2-0.7 1.8-1.6 2.2-2.8 0.4-1.1 0.8-2.3 1.7-3 0.8-0.7 2.1-1 2.6-2 0.2-0.5 0.2-1.1 0.1-1.7-0.1-1-0.5-2.1-0.6-3.1-0.1-0.7 0-1.6-0.4-2.3-0.2-0.6-1.1-0.9-1.7-0.9-0.7 0.1-1.4 0.5-1.9 1z"/><path class="ad" d="m687.9 627.5c-2.5 2.6-4.8 5.6-7 8.5-0.7 0.8-1.3 1.7-1.8 2.6-0.4 0.8-1 1.8-0.7 2.7 0.3 1.1 2.8 1.1 3.8 1.1 1.3-0.1 2.5-0.4 3.7-1.1 1.1-0.6 1.7-1.5 2.1-2.7 0.4-1.1 0.8-2.3 1.7-3 0.8-0.7 2.1-1 2.5-2 0.3-0.5 0.2-1.1 0.2-1.6-0.1-1.1-0.5-2.1-0.7-3.1 0-0.8 0-1.6-0.3-2.3-0.3-0.6-1.1-0.9-1.7-0.9-0.7 0.1-1.4 0.5-1.9 1z"/><path class="ac" d="m679.9 623.2c-3 2.1-5.8 4.6-8.6 7.1-0.8 0.7-1.6 1.1-2.3 1.9-0.6 0.7-1.3 2-1.2 2.9 0.1 1.2 2.7 1.7 3.6 1.8 1.4 0.2 2.6 0.1 3.9-0.4 1.2-0.4 2-1.2 2.7-2.3 0.6-1 1.1-2.1 2.2-2.7 0.9-0.5 2.2-0.6 2.9-1.5 0.3-0.4 0.4-1 0.4-1.6 0.1-1-0.1-2.1 0-3.1 0-0.8 0.2-1.6 0.1-2.4-0.2-0.6-1-1.1-1.6-1.2-0.7 0-1.5 0.2-2 0.7z"/><path class="ad" d="m679.6 622.4c-3 2.1-5.8 4.6-8.5 7.1-0.8 0.7-1.6 1.4-2.3 2.2-0.5 0.7-1.3 1.6-1.2 2.5 0.1 1.2 2.6 1.7 3.6 1.8 1.3 0.2 2.5 0 3.8-0.4 1.2-0.4 2-1.2 2.6-2.3 0.6-1 1.2-2.1 2.2-2.6 0.9-0.6 2.2-0.6 2.9-1.5 0.3-0.5 0.4-1 0.4-1.6 0.1-1-0.1-2.1 0-3.1 0-0.8 0.2-1.6 0-2.4-0.1-0.6-0.9-1-1.5-1.1-0.7-0.1-1.4 0.2-2 0.6z"/><path class="ac" d="m671.4 580.1c1.1 6.2 1 24.4 7 22.6 1.9-0.6 5-4.1 5.2-8.2 0-2.2-0.2-5.4-0.1-7.7 0-4.6 4-19.6-5.5-22.1-1.5-0.4-3.8-3.1-4.9-2.1-0.3 0.2-1 1.2-1.5 3.4-0.3 1.2-0.4 3-0.6 4.7-0.3 2.8-0.2 6 0.4 9.4z"/><path class="ac" d="m676.5 625.2c0.3 1.3 1.2 2.7 5.6 2.4 1.2-0.1 1.8-3.7 2-4.6 0.7-4.1-0.2-9-0.1-13.1 0.2-6.7-1-8.6-1.4-11.6-0.1-1.3 0-2.7-0.7-3.7-1.8-2.5-6.1-0.3-7.2 2.7-0.5 1.3-0.3 1.9 0 3.1 1.1 5.4 1.8 24.7 1.8 24.8z"/><path class="ae" d="m682.1 597.7c-0.1 1.5 0 2.9 0.1 4.3q0.1 3.4 0.3 6.8c0.7 12.8 0.6 19.3 1.6 22 0.8 2.2 3.7 2.1 5.6 1.5 0.9-0.3 1.6-0.8 2.1-1.5 0.5-0.7 0.7-1.5 0.8-2.4 1.3-8.1 1.1-16.1-0.7-24.1-0.4-1.9-0.9-3.9-1.9-5.5-0.4-0.6-2.8 3.2-3.4 2.9-0.6-0.4 0.9-1.5 0.1-1.5-1.4 0.1-2.7 0.8-3.7 1.8z"/><path class="ae" d="m693 565.4l-0.6-0.7c-2.1 1-4.6 0.7-7 0.9-5.3 0.5-5.7 1.5-9.2-0.9-0.7 3.6 0.1 7 0.1 7.8-0.3 4.2 3.6 4.6 3.7 6.8 0.2 5.1 0.7 15.2 1.4 20.2 0.2 2 0.5 4 1.6 5.7 1.1 2 3.2 3.1 5.5 2.9 0.6 0 1.2-0.2 1.7-0.6 1-0.9 2.1-0.6 2-2-0.3-4 0.3-9.7 1.3-13.6 1.9-7.9 2.7-16.6-0.5-26.5z"/><path class="af" d="m693.2 556.9q-0.2 2-0.3 4 0.1-2 0.3-4z"/><path class="af" d="m692.9 560.9q-0.1 1.2-0.1 2.5 0 0 0.1-0.1-0.1-1.2 0-2.4z"/><path class="ag" d="m692.9 560.9q0.1-2 0.3-4 0.3-2.5 0.9-5c0.7-3 1.5-5.3 2.3-8.3 0.4-1.6 1.4-4.1 1.6-5.3 0.3-2.7-1.3-4.7-4.8-7.1-2.3-1.6-7-3.7-11.7-5.1-6.4-2.1-7.3 0.3-9.2 5.4-1.7 4.8-1.2 12.7-0.4 17.8q0.6 4.1 0.7 8.2c0.1 2.3-0.2 4.6-0.5 6.9 5.6 4 13.3 2.9 19.7 1.4q0.6-0.1 1.2-0.4-0.2-2.2-0.1-4.5z"/><path class="ah" d="m686.6 541.8c-1.3 3.6 0.6 7.2 0.6 10.8 0.2 4.7 0 9.4-0.3 14.2 1.7-0.3 3.4-0.6 4.9-1q0.6-0.1 1.2-0.4-0.2-2.2-0.1-4.5 0.1-2 0.3-4 0.3-2.5 0.9-5c0.7-3 1.5-5.3 2.3-8.3 0.4-1.6 1.4-4.1 1.6-5.3 0.1-1.6-0.3-3-1.5-4.3-3.9 2.1-8.2 3.4-9.9 7.8z"/><path class="ae" d="m681.4 561.1c-0.7 0.6-1.5 1.3-2.2 1.9-1-1.6-1-1.7-1.9-3.3-0.1-9.3 0.3-18.1 2.6-27 0.8 0.6 1.3 0.9 2.1 1.5-1.1 8.6-1.8 17.5-0.6 26.9z"/><path class="ai" d="m678.9 532.5q0 0.1 0 0.1c0 0.3 0.2 0.6 0.3 0.9q0.3 0.8 0.7 1.5c0.2 0.3 0.4 0.5 0.6 0.7 0.4 0.1 0.7 0 1-0.2 0.4-0.2 1-0.5 0.9-0.9 0-0.4-0.2-0.7-0.3-1.1-0.2-0.8-0.6-1.7-1.3-2.1-0.7-0.5-1.3 0.2-1.7 0.8-0.1 0.1-0.1 0.2-0.2 0.3z"/><path class="aj" d="m688.7 528.7c0.1 5.2-9.6 5.3-9.5 0.4 0.2-6.8 0.6-7.6 3.8-8.6 0.9-0.3 1.8-0.6 2.8-0.6 3.4 0 2.1 1.7 1.9 2.9-0.4 3.6 0.9 4 1 5.9z"/><path class="ak" d="m688.7 528.7c-0.1-1.9-1.4-2.3-1-5.9 0.2-1.2 1.5-2.9-1.9-2.9-1 0-1.9 0.3-2.8 0.6-3.1 1-3.6 1.8-3.8 8.3 2.7-0.2 5.1-3.2 7.9-1.4 0.7 0.5 1.2 1.2 1.5 2q0.1-0.3 0.1-0.7z"/><path class="aj" d="m687.1 527.4c-2.8-1.8-5.2 1.2-7.9 1.4q0 0.2 0 0.3c-0.1 4.7 8.8 4.8 9.4 0.3-0.3-0.8-0.8-1.5-1.5-2z"/><path class="ab" d="m680.8 531.9c-0.2 0.6-0.9 0.8-1.4 1.1-0.2 0.1-0.6 0.4-0.8 0.4-0.3-0.1-0.5-0.5-0.6-0.7-0.7-1.7-1.1-3.5-1.1-5.3 0-0.6 0.1-1.3 0.5-1.7 0.5-0.3 1.2-0.4 1.6-0.2 0.6 0.3 0.7 1.3 0.5 1.8-0.7 1.7 0.1 3.7 1.3 4.6z"/><path class="ab" d="m680.7 532c0 0 0.9 1.3 1.9 2.2 0.3 0.2 0.5 0.5 0.8 0.4 1.7-0.5 5.2-3.5 5.9-5.4 0.3-0.6-0.2-1.5-0.6-2-0.1-0.1-0.6-0.8-0.7-0.9-0.1 0.1-0.4 1.4-1 2.3-1.4 2-3.9 3-6.3 3.4z"/><path class="al" d="m678.1 560.8c-0.5 0-1.9 0-2.4 0.1-0.5 0.1 0.9 0.7 0.6 1.1-0.5 0.7-1.4 1.1-1.3 1.9 0.1 0.6 0.2 1.2 0.4 1.8 0.3 0.6 0.6 1.1 1.2 1.4q0.3 0.2 0.7 0.2 0.2 0 0.5-0.1 1.3-0.3 2.6-0.7 0.3-0.1 0.6-0.2 0.4-0.2 0.6-0.5c0.6-0.8 0.7-1.8 0.5-2.7-0.1-0.5-0.3-1-0.6-1.4-0.3-0.3-0.8-0.3-1.2-0.4q-1-0.3-2.2-0.5z"/><path class="al" d="m680.2 561.1q-1.2-0.9-2.4-1.8c-0.4-0.2-0.7-0.5-1-0.6-0.3-0.1-0.6-0.1-0.9-0.2-0.3-0.1-0.5-0.2-0.8-0.2-0.8-0.1-1.7 0.2-2.4 0.5-0.3 0.2-0.7 0.3-0.9 0.6-0.1 0.1-0.3 0.4-0.1 0.6q0.1 0.1 0.2 0.1c0.3 0.1 0.6 0.3 0.9 0.2 0.3 0 0.7-0.2 1-0.2 0.6-0.1 1.2 0.3 1.6 0.8 0.4 0.5 0.6 1 1 1.6 0.3 0.5 0.8 1 1.4 1.1q0.4 0 0.7-0.1c0.5 0 1-0.1 1.4-0.4 0.4-0.2 0.7-0.6 0.8-1 0.2-0.5-0.1-0.7-0.5-1z"/><path class="ab" d="m680.3 566.1c1 0.8 2.5 0.7 3.7 0.5 3.7-0.5 18.6-1.6 16.4-7.9-0.4-1-2-1.3-3.1-1.5-1.3-0.2-11.7 1.7-16.4 4.1-0.6 0.3-1.2 0.6-1.5 1.2-0.5 1 0.2 2.9 0.9 3.6z"/><path class="ae" d="m671.8 550.5l-12.9-7.5 0.6-0.4 12.9 7.4z"/><path class="ac" d="m672.4 550l5.5 16.8-1.1-0.7-5-15.6z"/><path class="ad" d="m677.3 567.2l-13-7.5-5.4-16.7 12.9 7.5z"/><path class="al" d="m676.6 564.3c0.5-0.3 0.1-2-0.1-2.2-0.5-0.7-0.4 0.4-2.4 0.4-0.5 0-1.1-0.1-1.6-0.3-0.4-0.1-0.8-0.3-1.1-0.1-0.3 0.1-0.4 0.5-0.2 0.8-0.5-0.2-0.6 0.7-0.3 1.2 0.8 0.9-0.5 1 1 2.2q-0.1 0.1-0.3 0.2c0.2 1.6 4.2 1.1 5.9 0.8 2.9-0.5 0.4-2.8-0.9-3z"/><path class="al" d="m663 553.9c-0.9 0.4-1.4-0.6-1-1 0.4-0.4 1.8-0.5 2.1 0.2 0.3 0.6-0.5 0.5-1.1 0.8z"/><path class="al" d="m660.5 548.8c-0.5 0.4-0.1 1.4 0.2 1.4 0.2 0 0.3-0.1 0.5-0.1q0.5-0.3 1.1-0.2c0.2 0.1 0.4 0.1 0.5 0.1 0.2 0 0.3-0.1 0.4-0.3 0.3-0.7-0.8-1.1-1.2-1.2-0.8-0.2-1.2 0.1-1.5 0.3z"/><path class="al" d="m660.9 551.5c0.4 0.4 0.6-0.4 1.8-0.2 0.2 0.1 0.3 0.1 0.5 0.1 0.2 0 0.3-0.1 0.4-0.3 0.2-0.7-0.9-1.1-1.2-1.2-1.6-0.3-2.3 0.8-1.5 1.6z"/><path class="al" d="m661.4 552.7c0.5 0.2 0.6 0 1.5-0.1 1.5-0.2 1-1.5-0.8-1.2-0.1 0-0.6 0.1-0.7 0.1-0.5 0.2-0.5 1 0 1.2z"/><path class="ab" d="m701.1 557.5c0.1-3.9-0.3-8.7-0.6-14.8-0.1-1.6-0.4-3.3-1-4.8-0.6-1.6-1.6-2.7-2.9-3.8-0.5-0.5-1.3-1-2-0.9-0.7 0.2-1.2 0.8-1.6 1.4-2.1 3.5-2.3 8.1-1.5 12 0.7 3.7 0.9 7.5 1.6 11.2 0.1 0.7 0.2 1.5 0.5 2.1 1.4 3.2 4.2 4.3 6 2.5 0.9-0.9 1.4-2.9 1.5-4.9z"/><path class="al" d="m675.9 512.4c-0.7 1-1.1 2.3-1.1 3.6q0 0.9 0.3 1.7c0.2 0.5 0.5 1 0.5 1.5 0 0.7-0.5 1.4-0.7 2-0.2 0.6-0.3 1.2-0.1 1.8 0.2 0.3 0.4 0.5 0.6 0.8 0.8 1.4 0 3.4 1.5 4.3 0.4 0.3 0.8 0.3 1.3 0.4 0.5 0 3-0.7 4-1.1 1.1-0.5 2.1-1.7 2.9-2.6 0.6-0.7 1.6-1.6 2-2.4 0.1-0.3-0.2-0.3 0.1-0.4 0.2-0.1 0.3-1.1 0.5-1.1 0.2-0.1 0.5-0.3 0.7-0.4 0.3-0.2 0.5 0.6 0.6 0.2 0.5-1.6 1.1-3.3 1-5.1-0.1-1.6 0-2.9-1.1-4.3-0.7-1-1.8-1.7-3-2.2-1.9-0.7-3.9-0.7-5.8-0.1-1.7 0.6-3.3 1.8-4.2 3.4z"/><path class="am" d="m690 515.6c-0.1-1.6 0-2.9-1.1-4.3-0.7-1-1.8-1.7-3-2.2-1.1-0.4-2.3-0.6-3.5-0.5-1.7 3.4 0.8 7.9-1.1 11.5-0.6 0.8-1.9 1.5-1.9 2.5-0.4 1.9 1.5 3.6 0.4 5.5 0.9-0.2 1.9-0.5 2.4-0.7 1.1-0.5 2.1-1.7 2.9-2.6 0.6-0.7 1.6-1.6 2-2.4 0.1-0.3-0.2-0.3 0.1-0.4 0.2-0.1 0.3-1.1 0.5-1.1 0.2-0.1 0.5-0.3 0.7-0.4 0.3-0.2 0.5 0.6 0.6 0.2 0.5-1.6 1.1-3.3 1-5.1z"/><path class="an" d="m681.9 513.8c0.4-0.1 0.9 0 1.3 0.1 0.7 0.4 1.1 1.1 1.2 1.9 0.3 1.7-0.3 3.3-0.3 5 0 0.2 0 0.5 0.1 0.7 0.3 0.6 1 0.3 1.3-0.1 0.2-0.2 0.4-0.5 0.6-0.8 0.2-0.2 0.5-0.4 0.8-0.5 0.6-0.1 1 0.3 1 0.8 0.1 0.4 0 0.9-0.1 1.3 0 0.1-0.2 0.9 0.1 0.9 0.3 0 3.1-2.9 3.2-7.7 0.1-4.7-3.1-5.5-3.1-5.5 0 0-1.4-2.4-5.2-2.3-1.9 0.1-3.9 0.8-5.5 1.8q-0.1 0.1-0.2 0.1c-0.8 0.6-1.6 1.2-2.1 2-1.5 2.2 0.5 4 2.8 3.6 1.1-0.2 2.1-0.7 3.2-1q0.4-0.2 0.9-0.3z"/><path class="ao" d="m681.9 513.8c0.4-0.1 0.9 0 1.3 0.1 0.7 0.4 1.1 1.1 1.2 1.9 0.3 1.7-0.3 3.3-0.3 5 0 0.2 0 0.5 0.1 0.7 0.3 0.6 1 0.3 1.3-0.1 0.2-0.2 0.4-0.5 0.6-0.8 0.2-0.2 0.5-0.4 0.8-0.5 0.6-0.1 1 0.3 1 0.8 0.1 0.4 0 0.9-0.1 1.3 0 0.1-0.2 0.9 0.1 0.9 0.3 0 3.1-2.9 3.2-7.7 0.1-4.7-3.1-5.5-3.1-5.5 0 0-1.9 0.7-3.3 1.5-1.3 0.9-2.8 2.4-2.8 2.4z"/><path class="am" d="m687.4 518.8c1.4-0.1 1.8 1.7 0.8 3-0.3 0.4-0.7 0.7-1.1 1-2.5 2.1-3.1-0.2-2.3-0.9 1.8-1.6 0.9-3 2.6-3.1z"/><path class="af" d="m686.6 522.1c0.2-0.1 1.7-1.1 0.7-1.7-0.3-0.2-0.7 0.1-0.7 0.4 0 0.2 0 0.3 0 0.5q0 0.1-0.1 0.3c-0.2 0.2-0.6 0.4-0.5 0.7 0 0.3 0.5-0.1 0.6-0.2z"/><path class="a" d="m580 733.9l-89-51.7 0.7-1.2 88.3 51.3 64-36.9 0.7 1.2z"/><path class="a" d="m564.8 763.3l-109.7-63.3 0.7-1.2 109.7 63.3z"/><path class="a" d="m424.8 829.2l-39.3-22.8 35.8-20.7-72.9-42.2 0.7-1.2 74.9 43.4-35.7 20.7 37.2 21.6z"/><path class="a" d="m717.8 679l-73.6-42.2-34.1 19.8-0.3-0.2c-20.1-12-50.7-30-52.3-30.5l0.3-1.3c1.4 0.1 39.9 23 52.3 30.4l34.1-19.8 74.3 42.6z"/><path class="a" d="m561.2 760.6c2.1-1.3 5.6-1.3 7.7-0.1 2.2 1.2 2.2 3.2 0.1 4.5-2.1 1.2-5.6 1.2-7.8 0-2.1-1.2-2.1-3.2 0-4.4z"/><path class="a" d="m640.4 693.6c2.2-1.2 5.6-1.3 7.8 0 2.1 1.2 2.1 3.2 0 4.4-2.1 1.3-5.6 1.3-7.7 0.1-2.2-1.2-2.2-3.2-0.1-4.5z"/><path class="a" d="m712.7 675.4c2.1-1.3 5.6-1.3 7.7-0.1 2.2 1.2 2.2 3.2 0.1 4.5-2.1 1.2-5.6 1.3-7.8 0-2.1-1.2-2.1-3.2 0-4.4z"/><path class="a" d="m421.3 826.4c2.1-1.2 5.6-1.2 7.7 0 2.2 1.2 2.2 3.2 0 4.4-2.1 1.3-5.5 1.3-7.7 0.1-2.1-1.2-2.2-3.2 0-4.5z"/><path fill-rule="evenodd" class="ap" d="m636.1 394.8q0 0 0 0l-0.6 211.2q0 0.3 0 0.5 0 0.1 0 0.1-0.1 0.2-0.1 0.4-0.1 0-0.1 0 0 0.1 0 0.1-0.1 0.2-0.2 0.4 0 0.1-0.1 0.1-0.1 0.2-0.3 0.4-0.1 0.1-0.2 0.2-0.1 0.1-0.3 0.3-0.1 0.1-0.2 0.1-0.3 0.2-0.6 0.4l-75.7 44q-0.5 0.3-1.1 0.5-0.2 0.1-0.4 0.2-0.5 0.1-0.9 0.2-0.3 0.1-0.5 0.1-0.4 0.1-0.9 0.1-0.3 0.1-0.6 0.1-0.4 0-0.8 0 0 0 0 0-0.4 0-0.7 0-0.3 0-0.6-0.1-0.4 0-0.8-0.1-0.3 0-0.6-0.1-0.4-0.1-0.8-0.3-0.2 0-0.4-0.1-0.6-0.2-1.1-0.5l-76.2-44c-1.4-0.8-2.2-1.9-2.2-3l0.6-211.3q0 0 0 0c0-1 0.7-2.1 2.2-2.9l75.6-44c2.9-1.6 7.5-1.6 10.3 0l76.2 44c1.4 0.8 2.2 1.9 2.1 3zm0 0q0 0 0 0zm0 0.4q0 0.1-0.1 0.2 0.1-0.1 0.1-0.2 0 0 0 0zm-0.1 0.5q-0.1 0-0.1 0.1 0-0.1 0.1-0.1zm-166.2-0.7q0 0.1 0 0.2 0-0.1 0-0.2zm165.3 1.9q0.1-0.1 0.2-0.1-0.1 0-0.2 0.1zm-0.4 0.4q0 0 0.1-0.1-0.1 0.1-0.1 0.1zm-164.7-1.5q0 0.1 0 0.2 0-0.1 0-0.2zm-0.2-0.4q0 0.1 0.1 0.2-0.1-0.1-0.1-0.2zm0.6 1.2q0.1 0 0.2 0.1-0.1-0.1-0.2-0.1zm-0.2-0.4q0 0.1 0.1 0.1-0.1 0-0.1-0.1zm1.1 1.1q0 0.1 0.1 0.1-0.1 0-0.1-0.1zm-0.5-0.4q0.1 0.1 0.1 0.2 0-0.1-0.1-0.2z"/><path class="aq" d="m636.1 394.8l-0.6 211.2c0 1.1-0.7 2.2-2.1 3l0.6-211.3c1.4-0.8 2.1-1.8 2.1-2.9z"/><g clip-path="url(#cp1)"><path class="aq" d="m636.1 394.8l-0.6 211.2q0 0.6-0.2 1l0.6-211.2q0.2-0.5 0.2-1z"/><path class="aq" d="m635.9 395.8l-0.6 211.2c-0.3 0.8-0.9 1.4-1.9 2l0.6-211.3c1-0.5 1.6-1.2 1.9-1.9z"/></g><path class="ar" d="m469.1 606l0.6-211.3c0 1.1 0.8 2.2 2.2 3l-0.6 211.3c-1.4-0.8-2.2-1.9-2.2-3z"/><g clip-path="url(#cp2)"><path class="ar" d="m471.9 397.7l-0.6 211.3c-1.4-0.8-2.2-1.9-2.2-3l0.6-211.3c0 1.1 0.8 2.2 2.2 3z"/></g><path class="aq" d="m634 397.7l-0.6 211.3-75.7 44 0.6-211.3z"/><path class="as" d="m561.2 443.4l69.9-40.7-0.5 204.7-70 40.6z"/><path class="ar" d="m548.1 441.7l-0.6 211.3-76.2-44 0.6-211.3z"/><g clip-path="url(#cp3)"><path class="at" d="m558.3 441.7l-0.6 211.3c-1.4 0.8-3.3 1.2-5.2 1.2l0.6-211.3c1.9 0.1 3.8-0.3 5.2-1.2z"/><path class="ah" d="m553.1 442.9l-0.6 211.3c-1.8 0-3.7-0.4-5-1.2l0.6-211.3c1.3 0.8 3.2 1.2 5 1.2z"/></g><path class="h" d="m634 391.8c2.8 1.6 2.9 4.3 0 5.9l-75.7 44c-2.8 1.7-7.4 1.7-10.2 0l-76.2-44c-2.9-1.6-2.9-4.3 0-5.9l75.6-44c2.9-1.6 7.5-1.6 10.3 0z"/><path class="o" d="m574.7 441.5l-9 5.2v7l9-5.1z"/><path class="o" d="m606.6 430.2l19.4-11.3v-7l-19.4 11.2z"/><path class="o" d="m578.4 446.5l23.9-13.9v-7.1l-23.9 13.9z"/><path class="o" d="m596.7 446.9l-4.9 2.8v-7.1l4.9-2.8z"/><path class="o" d="m626 430l-4.9 2.8v-7.1l4.9-2.8z"/><path class="o" d="m617.8 427.7l-18.1 10.4v7.1l18.1-10.4z"/><path class="o" d="m617.8 447.8l-18.1 10.4v7.1l18.1-10.4z"/><path class="o" d="m588.5 444.6l-22.8 13.1v7.1l22.8-13.1z"/><path class="o" d="m584.8 456.4l-19.1 11.2v7.1l19.1-11.2z"/><path class="o" d="m617.2 437.9v7.1l8.8-5.1v-7.1z"/><path class="o" d="m592 452.4v7.1l10.3-5.9v-7.1z"/><path class="o" d="m626 450.3l-4.9 2.8v-7.1l4.9-2.8z"/><path class="o" d="m596.7 459.9l-31 18.1v7.1l31-18.1z"/><path class="o" d="m574.7 565.9l-9 5.2v7l9-5.1z"/><path class="o" d="m606.6 554.6l19.4-11.3v-7l-19.4 11.2z"/><path class="o" d="m596.7 571.3l-4.9 2.8v-7.1l4.9-2.8z"/><path class="o" d="m626 554.4l-4.9 2.8v-7.1l4.9-2.8z"/><path class="o" d="m617.8 552.1l-18.1 10.4v7.1l18.1-10.4z"/><path class="o" d="m617.8 572.2l-18.1 10.4v7.1l18.1-10.4z"/><path class="o" d="m588.5 569l-22.8 13.1v7.1l22.8-13.1z"/><path class="o" d="m617.2 562.3v7.1l8.8-5.1v-7.1z"/><path class="o" d="m592 576.8v7.1l10.3-5.9v-7.1z"/><path class="o" d="m626 574.7l-4.9 2.8v-7.1l4.9-2.8z"/><path class="o" d="m596.7 584.3l-31 18.1v7.1l31-18.1z"/><path class="o" d="m574.7 524.4l-9 5.2v7.1l9-5.2z"/><path class="o" d="m606.6 513.1l19.4-11.2v-7.1l-19.4 11.2z"/><path class="o" d="m578.4 529.4l23.9-13.8v-7.1l-23.9 13.8z"/><path class="o" d="m596.7 529.8l-4.9 2.9v-7.1l4.9-2.8z"/><path class="o" d="m626 512.9l-4.9 2.8v-7l4.9-2.9z"/><path class="o" d="m617.8 510.6l-18.1 10.4v7.1l18.1-10.4z"/><path class="o" d="m617.8 530.8l-18.1 10.4v7l18.1-10.4z"/><path class="o" d="m588.5 527.5l-22.8 13.2v7l22.8-13.1z"/><path class="o" d="m584.8 539.4l-19.1 11.1v7.1l19.1-11.2z"/><path class="o" d="m612.5 523.5l-5.9 3.4v7.1l5.9-3.4z"/><path class="o" d="m626 533.2l-4.9 2.8v-7l4.9-2.9z"/><path class="o" d="m596.7 542.8l-31 18.1v7.1l31-18.1z"/><path class="o" d="m606.6 471.6l19.4-11.2v-7.1l-19.4 11.2z"/><path class="o" d="m578.4 487.9l23.9-13.8v-7.1l-23.9 13.8z"/><path class="o" d="m596.7 488.4l-4.9 2.8v-7.1l4.9-2.8z"/><path class="o" d="m626 471.5l-4.9 2.8v-7.1l4.9-2.8z"/><path class="o" d="m617.8 469.1l-18.1 10.5v7l18.1-10.4z"/><path class="o" d="m617.8 489.3l-18.1 10.4v7.1l18.1-10.4z"/><path class="o" d="m588.5 486l-22.8 13.2v7.1l22.8-13.2z"/><path class="o" d="m584.8 497.9l-19.1 11.2v7.1l19.1-11.2z"/><path class="o" d="m626 491.8l-4.9 2.8v-7.1l4.9-2.8z"/><path class="o" d="m596.7 501.3l-31 18.2v7.1l31-18.2z"/><path class="o" d="m617.8 593.7l-18.1 10.5v7l18.1-10.4z"/><path class="o" d="m584.8 602.4l-19.1 11.1v7.1l19.1-11.2z"/><path class="o" d="m626 596.2l-4.9 2.8v-7l4.9-2.9z"/><path class="o" d="m596.7 605.8l-31 18.1v7.1l31-18.1z"/><path class="ap" d="m541.9 472.9l-64.5-37.2v4.2l64.5 37.3z"/><path class="ap" d="m541.9 487.9l-64.5-37.3v4.3l64.5 37.3z"/><path class="ap" d="m541.9 524.5l-64.5-37.2v4.3l64.5 37.2z"/><path class="ap" d="m541.9 547l-64.5-37.2v4.3l64.5 37.2z"/><path class="ap" d="m541.9 561.2l-64.5-37.3v4.3l64.5 37.3z"/><path class="ap" d="m541.9 597.8l-64.5-37.2v4.3l64.5 37.2z"/><path class="ap" d="m541.9 619l-64.5-37.3v4.3l64.5 37.3z"/><path fill-rule="evenodd" class="ap" d="m482.2 390.3c0-1 0.6-1.9 1.8-2.6l64.8-37.4c2.5-1.4 6.4-1.4 8.8 0l64.4 37.4c1.2 0.7 1.8 1.6 1.8 2.5l-0.1 6.4c0 1-0.6 1.9-1.8 2.6l-64.9 37.4q-0.4 0.3-0.9 0.5-0.2 0-0.4 0.1-0.3 0.1-0.7 0.2-0.2 0-0.4 0.1-0.4 0-0.7 0.1-0.3 0-0.5 0-0.3 0-0.6 0.1-0.1 0-0.1 0-0.3 0-0.7-0.1-0.2 0-0.5 0-0.3-0.1-0.7-0.1-0.2-0.1-0.4-0.1-0.4-0.1-0.8-0.2-0.1-0.1-0.3-0.1-0.6-0.2-1-0.5l-64.4-37.4q-0.3-0.2-0.5-0.3-0.1-0.1-0.1-0.1-0.2-0.2-0.4-0.3 0-0.1 0-0.1-0.2-0.2-0.4-0.4 0-0.1 0-0.1-0.1-0.2-0.2-0.3 0-0.1 0-0.1 0 0 0 0-0.1-0.2-0.1-0.3 0-0.1-0.1-0.1 0-0.2 0-0.4l0.1-6.5q0 0 0 0.1zm0.1 0.4q0 0-0.1-0.1 0 0.1 0.1 0.1zm0.6 1.2q0.1 0.1 0.1 0.1 0 0-0.1-0.1zm0.5 0.4q0 0 0.1 0.1-0.1-0.1-0.1-0.1zm-1-1.3q0 0 0 0.1 0-0.1 0-0.1zm141.1 0.2q0.1-0.1 0.1-0.1 0 0-0.1 0.1zm0.2-0.7q0.1 0 0.1-0.1 0 0.1-0.1 0.1zm0 0.4q0-0.1 0-0.2 0 0.1 0 0.2zm-0.6 1q0-0.1 0.1-0.2-0.1 0.1-0.1 0.2zm0.2-0.3q0.1-0.1 0.1-0.2 0 0.1-0.1 0.2zm-0.9 0.9q0-0.1 0.1-0.1-0.1 0-0.1 0.1zm0.3-0.3q0.1-0.1 0.2-0.2-0.1 0.1-0.2 0.2z"/><path class="aq" d="m482.2 390.2l-0.1 6.5c0 0.9 0.6 1.8 1.8 2.5l0.1-6.5c-1.2-0.7-1.8-1.6-1.8-2.5z"/><g clip-path="url(#cp4)"><path class="aq" d="m482.2 390.2l-0.1 6.5q0 0.4 0.2 0.8l0.1-6.4q-0.2-0.4-0.2-0.9z"/><path class="aq" d="m482.4 391.1l-0.1 6.4c0.2 0.6 0.8 1.2 1.6 1.7l0.1-6.5c-0.8-0.4-1.4-1-1.6-1.6z"/></g><path class="ar" d="m623.7 396.6l0.1-6.4c0 0.9-0.6 1.8-1.9 2.5v6.5c1.2-0.7 1.8-1.6 1.8-2.6z"/><g clip-path="url(#cp5)"><path class="ar" d="m621.9 392.7v6.5c1.2-0.7 1.8-1.6 1.8-2.6l0.1-6.4c0 0.9-0.6 1.8-1.9 2.5z"/></g><path class="aq" d="m484 392.7l-0.1 6.5 64.4 37.4 0.1-6.4z"/><path class="ar" d="m557.1 430.2l-0.1 6.4 64.9-37.4v-6.5z"/><g clip-path="url(#cp6)"><path class="at" d="m548.4 430.2l-0.1 6.4c1.2 0.7 2.8 1.1 4.5 1.1l0.1-6.5c-1.7 0-3.3-0.3-4.5-1z"/><path class="ah" d="m552.9 431.2l-0.1 6.5c1.5-0.1 3.1-0.4 4.2-1.1l0.1-6.4c-1.1 0.6-2.7 1-4.2 1z"/></g><path class="o" d="m484 387.7c-2.4 1.4-2.4 3.6 0 5l64.4 37.5c2.4 1.4 6.3 1.4 8.7 0l64.8-37.5c2.5-1.4 2.5-3.6 0.1-5l-64.4-37.4c-2.4-1.4-6.3-1.4-8.8 0z"/><path class="ar" d="m603.1 392l-3 1.8-44.1 25.5c-1.8 1-4.6 1-6.4 0l-43.8-25.5-3-1.8c-1.7-1-1.7-2.6 0-3.6l47.2-27.3c1.7-1 4.6-1 6.3 0l46.9 27.3c1.7 1 1.7 2.6-0.1 3.6z"/><path class="aq" d="m600.1 393.8l-44.1 25.5c-1.8 1-4.6 1-6.4 0l-43.8-25.5 44.2-25.5c1.7-1 4.6-1 6.3 0z"/><path fill-rule="evenodd" class="ap" d="m516.2 461q0-0.1 0-0.1l-0.6 211.3q0 0.2-0.1 0.4 0 0.1 0 0.2-0.1 0.1-0.1 0.3 0 0 0 0.1-0.1 0-0.1 0-0.1 0.2-0.2 0.4 0 0.1-0.1 0.1-0.1 0.2-0.3 0.5-0.1 0-0.1 0.1-0.2 0.2-0.4 0.3-0.1 0.1-0.2 0.1-0.2 0.2-0.6 0.4l-75.6 44q-0.6 0.3-1.2 0.6-0.2 0-0.4 0.1-0.4 0.1-0.9 0.2-0.2 0.1-0.5 0.1-0.4 0.1-0.8 0.2-0.3 0-0.6 0-0.4 0-0.8 0-0.1 0-0.1 0-0.4 0-0.7 0-0.3 0-0.6 0-0.4-0.1-0.8-0.2-0.3 0-0.5-0.1-0.5-0.1-0.9-0.2-0.2-0.1-0.4-0.2-0.6-0.2-1.1-0.5l-76.2-44c-1.4-0.8-2.1-1.9-2.1-3l0.6-211.2q0 0 0 0c0-1.1 0.7-2.2 2.1-3l75.7-44c2.8-1.6 7.4-1.6 10.2 0l76.2 44c1.5 0.8 2.2 2 2.2 3.1zm0-0.1q0 0 0 0zm-0.1 0.5q0 0 0 0 0 0 0 0 0 0 0 0zm0 0.1q0 0 0-0.1 0 0.1 0 0.1zm0-0.1q0 0 0 0 0 0 0 0zm0 0q0 0 0 0 0 0 0 0zm-1.4 2q0 0 0.1-0.1-0.1 0.1-0.1 0.1zm1.3-1.6q0 0 0 0.1 0-0.1 0-0.1zm0 0.1q-0.1 0-0.1 0 0 0 0.1 0zm-166 0q0 0.1 0.1 0.2-0.1-0.1-0.1-0.2zm165.2 1.1q0 0 0.1-0.1-0.1 0.1-0.1 0.1zm-165.4-1.9q0 0.1 0 0.2 0-0.1 0-0.2zm0.1 0.4q0 0.1 0 0.2 0-0.1 0-0.2zm0.6 1.2q0 0.1 0.1 0.1-0.1 0-0.1-0.1zm-0.3-0.4q0 0.1 0.1 0.2-0.1-0.1-0.1-0.2zm1.1 1.1q0 0.1 0.1 0.1-0.1 0-0.1-0.1zm-0.5-0.4q0.1 0.1 0.2 0.2-0.1-0.1-0.2-0.2z"/><path class="aq" d="m516.2 460.9l-0.6 211.3c0 1-0.7 2.1-2.2 2.9l0.6-211.2c1.5-0.9 2.2-1.9 2.2-3z"/><g clip-path="url(#cp7)"><path class="aq" d="m516.2 460.9l-0.6 211.3q0 0.5-0.2 1l0.5-211.3q0.3-0.5 0.3-1z"/><path class="aq" d="m515.9 461.9l-0.5 211.3c-0.4 0.7-1 1.4-2 1.9l0.6-211.2c1-0.6 1.6-1.3 1.9-2z"/></g><path class="ar" d="m349.2 672.1l0.6-211.2c0 1 0.7 2.1 2.1 3l-0.6 211.2c-1.4-0.8-2.1-1.9-2.1-3z"/><g clip-path="url(#cp8)"><path class="ar" d="m351.9 463.9l-0.6 211.2c-1.4-0.8-2.1-1.9-2.1-3l0.6-211.2c0 1 0.7 2.1 2.1 3z"/></g><path class="aq" d="m514 463.9l-0.6 211.2-75.6 44 0.6-211.3z"/><path class="as" d="m441.2 509.5l70-40.6-0.6 204.6-69.9 40.6z"/><path class="ar" d="m428.1 507.8l-0.6 211.3-76.2-44 0.6-211.2z"/><g clip-path="url(#cp9)"><path class="at" d="m438.4 507.8l-0.6 211.3c-1.5 0.8-3.4 1.3-5.3 1.2l0.6-211.2c1.9 0 3.8-0.4 5.3-1.3z"/><path class="ah" d="m433.1 509.1l-0.6 211.2c-1.8 0-3.6-0.4-5-1.2l0.6-211.3c1.4 0.8 3.2 1.3 5 1.3z"/></g><path class="h" d="m514 457.9c2.9 1.6 2.9 4.3 0 6l-75.6 43.9c-2.9 1.7-7.5 1.7-10.3 0l-76.2-43.9c-2.8-1.7-2.9-4.4 0-6l75.7-44c2.8-1.6 7.4-1.6 10.2 0z"/><path class="o" d="m454.7 507.6l-8.9 5.2v7.1l8.9-5.2z"/><path class="o" d="m486.6 496.3l19.4-11.2v-7.1l-19.4 11.2z"/><path class="o" d="m458.4 512.6l24-13.9v-7l-24 13.8z"/><path class="o" d="m476.7 513l-4.8 2.8v-7l4.8-2.8z"/><path class="o" d="m506 496.1l-4.8 2.8v-7l4.8-2.9z"/><path class="o" d="m497.8 493.8l-18 10.4v7.1l18-10.4z"/><path class="o" d="m497.8 513.9l-18 10.5v7l18-10.4z"/><path class="o" d="m468.5 510.7l-22.7 13.1v7.1l22.7-13.1z"/><path class="o" d="m464.8 522.6l-19 11.1v7.1l19-11.2z"/><path class="o" d="m497.2 504v7.1l8.8-5.1v-7.1z"/><path class="o" d="m472.1 518.6v7l10.3-5.9v-7.1z"/><path class="o" d="m506 516.4l-4.8 2.8v-7.1l4.8-2.8z"/><path class="o" d="m476.7 526l-30.9 18.1v7.1l30.9-18.1z"/><path class="o" d="m454.7 632l-8.9 5.2v7.1l8.9-5.2z"/><path class="o" d="m486.6 620.7l19.4-11.2v-7.1l-19.4 11.2z"/><path class="o" d="m476.7 637.4l-4.8 2.8v-7l4.8-2.9z"/><path class="o" d="m506 620.5l-4.8 2.8v-7l4.8-2.9z"/><path class="o" d="m497.8 618.2l-18 10.4v7.1l18-10.4z"/><path class="o" d="m497.8 638.3l-18 10.5v7l18-10.4z"/><path class="o" d="m468.5 635.1l-22.7 13.1v7.1l22.7-13.1z"/><path class="o" d="m497.2 628.4v7.1l8.8-5.1v-7.1z"/><path class="o" d="m472.1 643v7l10.3-5.9v-7.1z"/><path class="o" d="m506 640.8l-4.8 2.8v-7.1l4.8-2.8z"/><path class="o" d="m476.7 650.4l-30.9 18.1v7.1l30.9-18.1z"/><path class="o" d="m454.7 590.6l-8.9 5.1v7.1l8.9-5.2z"/><path class="o" d="m486.6 579.2l19.4-11.2v-7.1l-19.4 11.2z"/><path class="o" d="m458.4 595.5l24-13.8v-7.1l-24 13.8z"/><path class="o" d="m476.7 596l-4.8 2.8v-7.1l4.8-2.8z"/><path class="o" d="m506 579l-4.8 2.9v-7.1l4.8-2.8z"/><path class="o" d="m497.8 576.7l-18 10.4v7.1l18-10.4z"/><path class="o" d="m497.8 596.9l-18 10.4v7.1l18-10.5z"/><path class="o" d="m468.5 593.6l-22.7 13.2v7l22.7-13.1z"/><path class="o" d="m464.8 605.5l-19 11.2v7l19-11.1z"/><path class="o" d="m492.6 589.6l-6 3.5v7l6-3.4z"/><path class="o" d="m506 599.3l-4.8 2.9v-7.1l4.8-2.8z"/><path class="o" d="m476.7 608.9l-30.9 18.2v7l30.9-18.1z"/><path class="o" d="m486.6 537.7l19.4-11.2v-7l-19.4 11.2z"/><path class="o" d="m458.4 554l24-13.8v-7.1l-24 13.9z"/><path class="o" d="m476.7 554.5l-4.8 2.8v-7.1l4.8-2.8z"/><path class="o" d="m506 537.6l-4.8 2.8v-7.1l4.8-2.8z"/><path class="o" d="m497.8 535.3l-18 10.4v7.1l18-10.5z"/><path class="o" d="m497.8 555.4l-18 10.4v7.1l18-10.4z"/><path class="o" d="m468.5 552.2l-22.7 13.1v7.1l22.7-13.2z"/><path class="o" d="m464.8 564l-19 11.2v7.1l19-11.2z"/><path class="o" d="m506 557.9l-4.8 2.8v-7.1l4.8-2.8z"/><path class="o" d="m476.7 567.5l-30.9 18.1v7.1l30.9-18.2z"/><path class="o" d="m497.8 659.9l-18 10.4v7.1l18-10.5z"/><path class="o" d="m464.8 668.5l-19 11.2v7l19-11.1z"/><path class="o" d="m506 662.3l-4.8 2.8v-7l4.8-2.8z"/><path class="o" d="m476.7 671.9l-30.9 18.2v7l30.9-18.1z"/><path class="ap" d="m422 539l-64.6-37.2v4.3l64.6 37.2z"/><path class="ap" d="m422 554l-64.6-37.3v4.3l64.6 37.3z"/><path class="ap" d="m422 590.7l-64.6-37.3v4.3l64.6 37.2z"/><path class="ap" d="m422 613.2l-64.6-37.3v4.3l64.6 37.3z"/><path class="ap" d="m422 627.3l-64.6-37.3v4.3l64.6 37.3z"/><path class="ap" d="m422 664l-64.6-37.3v4.3l64.6 37.3z"/><path class="ap" d="m422 685.1l-64.6-37.3v4.3l64.6 37.3z"/><path fill-rule="evenodd" class="ap" d="m362.2 456.4c0-1 0.6-1.9 1.8-2.6l64.9-37.4c2.4-1.4 6.3-1.4 8.7 0l64.4 37.4c1.2 0.7 1.8 1.6 1.8 2.5q0 0 0 0l-0.1 6.5c0 0.9-0.6 1.8-1.8 2.5l-64.8 37.4q-0.5 0.3-1 0.5-0.2 0-0.4 0.1-0.3 0.1-0.7 0.2-0.2 0.1-0.4 0.1-0.4 0.1-0.7 0.1-0.2 0-0.5 0-0.3 0.1-0.6 0.1 0 0-0.1 0-0.3 0-0.6-0.1-0.3 0-0.6 0-0.3 0-0.7-0.1-0.2 0-0.4-0.1-0.4-0.1-0.7-0.2-0.2 0-0.4-0.1-0.5-0.2-1-0.5l-64.4-37.4q-0.3-0.2-0.5-0.3 0-0.1-0.1-0.1-0.2-0.2-0.3-0.3-0.1-0.1-0.1-0.1-0.2-0.2-0.3-0.4-0.1 0-0.1-0.1-0.1-0.1-0.2-0.3 0 0 0-0.1 0 0 0 0-0.1-0.2-0.1-0.3 0-0.1 0-0.1-0.1-0.2-0.1-0.4l0.1-6.5q0 0.1 0 0.1zm141.6-0.1q0 0 0 0zm-140.8 1.7q0 0 0 0 0 0 0 0 0 0 0 0zm0 0q0 0.1 0.1 0.1-0.1 0-0.1-0.1zm0.4 0.4q0 0.1 0.1 0.1-0.1 0-0.1-0.1zm-1-1.3q0 0 0 0 0 0 0 0zm0 0.1q0 0 0-0.1 0 0.1 0 0.1zm0-0.1q0 0 0 0 0 0 0 0 0 0 0 0zm0 0q0 0 0 0 0 0 0 0zm140.9 0.6q0.1-0.1 0.1-0.2 0 0.1-0.1 0.2zm-141-1q0 0.1 0 0.2 0-0.1 0-0.2zm141.2 0.6q0.1 0 0.1-0.1 0 0.1-0.1 0.1zm0.3-0.6q0-0.1 0-0.2 0 0.1 0 0.2zm-0.1 0.3q0-0.1 0-0.2 0 0.1 0 0.2zm-0.6 1q0-0.1 0.1-0.2-0.1 0.1-0.1 0.2zm-0.7 0.6q0.1-0.1 0.1-0.1 0 0-0.1 0.1zm0.4-0.3q0-0.1 0.1-0.1-0.1 0-0.1 0.1z"/><path class="aq" d="m362.2 456.3l-0.1 6.5c0 0.9 0.6 1.8 1.8 2.5l0.1-6.4c-1.2-0.7-1.8-1.6-1.8-2.6z"/><g clip-path="url(#cp10)"><path class="aq" d="m362.2 456.3l-0.1 6.5q0 0.4 0.2 0.8l0.1-6.4q-0.2-0.4-0.2-0.9z"/><path class="aq" d="m362.4 457.2l-0.1 6.4c0.3 0.7 0.8 1.2 1.6 1.7l0.1-6.4c-0.8-0.5-1.3-1.1-1.6-1.7z"/></g><path class="ar" d="m503.7 462.8l0.1-6.5c0 0.9-0.6 1.9-1.8 2.6l-0.1 6.4c1.2-0.7 1.8-1.6 1.8-2.5z"/><g clip-path="url(#cp11)"><path class="ar" d="m502 458.9l-0.1 6.4c1.2-0.7 1.8-1.6 1.8-2.5l0.1-6.5c0 0.9-0.6 1.9-1.8 2.6z"/></g><path class="aq" d="m364 458.9l-0.1 6.4 64.4 37.4 0.1-6.4z"/><path class="ar" d="m437.2 496.3l-0.1 6.4 64.8-37.4 0.1-6.4z"/><g clip-path="url(#cp12)"><path class="at" d="m428.4 496.3l-0.1 6.4c1.2 0.7 2.9 1.1 4.5 1.1l0.1-6.5c-1.6 0-3.3-0.3-4.5-1z"/><path class="ah" d="m432.9 497.3l-0.1 6.5c1.5 0 3.1-0.4 4.3-1.1l0.1-6.4c-1.2 0.7-2.8 1-4.3 1z"/></g><path class="o" d="m364 453.8c-2.4 1.4-2.4 3.7 0 5.1l64.4 37.4c2.4 1.4 6.3 1.4 8.8 0l64.8-37.4c2.4-1.4 2.4-3.7 0-5.1l-64.4-37.4c-2.4-1.4-6.3-1.4-8.7 0z"/><path class="ar" d="m483.2 458.2l-3 1.7-44.2 25.5c-1.7 1-4.6 1-6.3 0l-43.8-25.5-3.1-1.7c-1.7-1.1-1.7-2.7 0-3.7l47.2-27.2c1.7-1.1 4.6-1.1 6.4 0l46.8 27.2c1.7 1 1.7 2.7 0 3.7z"/><path class="aq" d="m480.2 459.9l-44.2 25.5c-1.7 1-4.6 1-6.3 0l-43.8-25.5 44.1-25.5c1.7-1 4.6-1 6.4 0z"/><path fill-rule="evenodd" class="ap" d="m394.9 534.2q0-0.1 0-0.1l-0.6 211.3q0 0.2 0 0.4 0 0.1-0.1 0.2 0 0.1-0.1 0.3 0 0 0 0.1 0 0 0 0.1-0.1 0.2-0.2 0.3-0.1 0.1-0.1 0.1-0.2 0.3-0.4 0.5 0 0-0.1 0.1-0.1 0.2-0.3 0.3-0.1 0.1-0.2 0.2-0.3 0.2-0.6 0.3l-75.7 44q-0.5 0.3-1.1 0.6-0.2 0-0.5 0.1-0.4 0.1-0.8 0.3-0.3 0-0.5 0-0.5 0.1-0.9 0.2-0.3 0-0.6 0-0.4 0-0.8 0.1 0 0 0 0-0.4-0.1-0.8-0.1-0.3 0-0.5 0-0.4-0.1-0.8-0.2-0.3 0-0.6-0.1-0.4-0.1-0.8-0.2-0.2-0.1-0.4-0.1-0.6-0.3-1.2-0.6l-76.1-44c-1.5-0.8-2.2-1.9-2.2-3l0.6-211.2c0-1.1 0.7-2.2 2.1-3l75.7-44c2.8-1.6 7.5-1.6 10.3 0l76.2 44c1.4 0.9 2.1 2 2.1 3.1zm0-0.1q0 0 0 0zm0 0.5q0 0-0.1 0.1 0.1-0.1 0.1-0.1 0 0 0 0zm0 0q0 0 0 0 0 0 0 0zm-166.3 0.1q0 0.1 0.1 0.2-0.1-0.1-0.1-0.2zm0.4 0.8q0 0.1 0.1 0.2-0.1-0.1-0.1-0.2zm164.9 0.7q0.1 0 0.1-0.1 0 0 0 0 0 0.1-0.1 0.1zm-0.5 0.4q0.1 0 0.2 0-0.1 0-0.2 0zm1.3-1.6q0 0.1 0 0.1 0 0 0-0.1zm-165.9 0.1q0 0.1 0 0.2 0-0.1 0-0.2zm-0.3-0.8q0 0.1 0.1 0.2-0.1-0.1-0.1-0.2zm0.7 1.6q0.1 0.1 0.2 0.2-0.1-0.1-0.2-0.2zm0.8 0.8q0.1 0 0.2 0.1-0.1-0.1-0.2-0.1zm-0.4-0.4q0 0 0.1 0.1-0.1-0.1-0.1-0.1z"/><path class="aq" d="m394.9 534.1l-0.6 211.3c0 1.1-0.7 2.1-2.1 2.9l0.6-211.2c1.4-0.8 2.1-1.9 2.1-3z"/><g clip-path="url(#cp13)"><path class="aq" d="m394.9 534.1l-0.6 211.3q0 0.5-0.2 1l0.6-211.3q0.2-0.5 0.2-1z"/><path class="aq" d="m394.7 535.1l-0.6 211.3c-0.3 0.7-0.9 1.4-1.9 1.9l0.6-211.2c1-0.6 1.6-1.3 1.9-2z"/></g><path class="ar" d="m227.9 745.3l0.6-211.2c0 1.1 0.7 2.2 2.2 3l-0.6 211.2c-1.5-0.8-2.2-1.9-2.2-3z"/><g clip-path="url(#cp14)"><path class="ar" d="m230.7 537.1l-0.6 211.2c-1.5-0.8-2.2-1.9-2.2-3l0.6-211.2c0 1.1 0.7 2.2 2.2 3z"/></g><path class="aq" d="m392.8 537.1l-0.6 211.2-75.7 44 0.6-211.2z"/><path class="as" d="m320 582.7l69.9-40.6-0.6 204.6-69.9 40.6z"/><path class="ar" d="m306.8 581.1l-0.6 211.2-76.1-44 0.6-211.2z"/><g clip-path="url(#cp15)"><path class="at" d="m317.1 581.1l-0.6 211.2c-1.4 0.9-3.3 1.3-5.2 1.3l0.6-211.3c1.9 0 3.8-0.4 5.2-1.2z"/><path class="ah" d="m311.9 582.3l-0.6 211.3c-1.9-0.1-3.7-0.5-5.1-1.3l0.6-211.2c1.4 0.8 3.2 1.2 5.1 1.2z"/></g><path class="h" d="m392.8 531.1c2.8 1.7 2.8 4.3 0 6l-75.7 44c-2.8 1.6-7.4 1.6-10.3 0l-76.1-44c-2.9-1.7-2.9-4.3-0.1-6l75.7-44c2.8-1.6 7.5-1.6 10.3 0z"/><path class="o" d="m333.5 580.8l-9 5.2v7.1l9-5.2z"/><path class="o" d="m365.4 569.5l19.4-11.2v-7.1l-19.4 11.2z"/><path class="o" d="m337.2 585.8l23.9-13.8v-7.1l-23.9 13.8z"/><path class="o" d="m355.5 586.2l-4.9 2.9v-7.1l4.9-2.8z"/><path class="o" d="m384.8 569.3l-4.9 2.8v-7l4.9-2.8z"/><path class="o" d="m376.6 567l-18.1 10.4v7.1l18.1-10.4z"/><path class="o" d="m376.6 587.2l-18.1 10.4v7.1l18.1-10.5z"/><path class="o" d="m347.3 583.9l-22.8 13.2v7l22.8-13.1z"/><path class="o" d="m343.5 595.8l-19 11.1v7.1l19-11.1z"/><path class="o" d="m376 577.2v7.1l8.8-5.1v-7.1z"/><path class="o" d="m350.8 591.8v7.1l10.3-6v-7.1z"/><path class="o" d="m384.8 589.6l-4.9 2.8v-7l4.9-2.8z"/><path class="o" d="m355.5 599.2l-31 18.2v7l31-18.1z"/><path class="o" d="m333.5 705.2l-9 5.2v7.1l9-5.2z"/><path class="o" d="m365.4 693.9l19.4-11.2v-7.1l-19.4 11.2z"/><path class="o" d="m355.5 710.6l-4.9 2.9v-7.1l4.9-2.8z"/><path class="o" d="m384.8 693.7l-4.9 2.8v-7l4.9-2.8z"/><path class="o" d="m376.6 691.4l-18.1 10.4v7.1l18.1-10.4z"/><path class="o" d="m376.6 711.6l-18.1 10.4v7l18.1-10.4z"/><path class="o" d="m347.3 708.3l-22.8 13.2v7l22.8-13.1z"/><path class="o" d="m376 701.6v7.1l8.8-5.1v-7.1z"/><path class="o" d="m350.8 716.2v7l10.3-5.9v-7.1z"/><path class="o" d="m384.8 714l-4.9 2.8v-7l4.9-2.9z"/><path class="o" d="m355.5 723.6l-31 18.1v7.1l31-18.1z"/><path class="o" d="m333.5 663.8l-9 5.1v7.1l9-5.1z"/><path class="o" d="m365.4 652.4l19.4-11.2v-7.1l-19.4 11.2z"/><path class="o" d="m337.2 668.7l23.9-13.8v-7.1l-23.9 13.9z"/><path class="o" d="m355.5 669.2l-4.9 2.8v-7.1l4.9-2.8z"/><path class="o" d="m384.8 652.3l-4.9 2.8v-7.1l4.9-2.8z"/><path class="o" d="m376.6 649.9l-18.1 10.5v7l18.1-10.4z"/><path class="o" d="m376.6 670.1l-18.1 10.4v7.1l18.1-10.4z"/><path class="o" d="m347.3 666.8l-22.8 13.2v7.1l22.8-13.2z"/><path class="o" d="m343.5 678.7l-19 11.2v7.1l19-11.2z"/><path class="o" d="m371.3 662.9l-5.9 3.4v7.1l5.9-3.5z"/><path class="o" d="m384.8 672.6l-4.9 2.8v-7.1l4.9-2.8z"/><path class="o" d="m355.5 682.2l-31 18.1v7.1l31-18.2z"/><path class="o" d="m365.4 611l19.4-11.2v-7.1l-19.4 11.2z"/><path class="o" d="m337.2 627.3l23.9-13.9v-7l-23.9 13.8z"/><path class="o" d="m355.5 627.7l-4.9 2.8v-7l4.9-2.9z"/><path class="o" d="m384.8 610.8l-4.9 2.8v-7.1l4.9-2.8z"/><path class="o" d="m376.6 608.5l-18.1 10.4v7.1l18.1-10.4z"/><path class="o" d="m376.6 628.6l-18.1 10.4v7.1l18.1-10.4z"/><path class="o" d="m347.3 625.4l-22.8 13.1v7.1l22.8-13.1z"/><path class="o" d="m343.5 637.2l-19 11.2v7.1l19-11.2z"/><path class="o" d="m384.8 631.1l-4.9 2.8v-7.1l4.9-2.8z"/><path class="o" d="m355.5 640.7l-31 18.1v7.1l31-18.1z"/><path class="o" d="m376.6 733.1l-18.1 10.4v7.1l18.1-10.4z"/><path class="o" d="m343.5 741.7l-19 11.2v7.1l19-11.2z"/><path class="o" d="m384.8 735.6l-4.9 2.8v-7.1l4.9-2.8z"/><path class="o" d="m355.5 745.1l-31 18.2v7.1l31-18.2z"/><path class="ap" d="m300.7 612.3l-64.5-37.3v4.3l64.5 37.3z"/><path class="ap" d="m300.7 627.2l-64.5-37.3v4.3l64.5 37.3z"/><path class="ap" d="m300.7 663.9l-64.5-37.3v4.3l64.5 37.3z"/><path class="ap" d="m300.7 686.4l-64.5-37.3v4.3l64.5 37.3z"/><path class="ap" d="m300.7 700.5l-64.5-37.2v4.2l64.5 37.3z"/><path class="ap" d="m300.7 737.2l-64.5-37.3v4.3l64.5 37.3z"/><path class="ap" d="m300.7 758.3l-64.5-37.2v4.2l64.5 37.3z"/><path fill-rule="evenodd" class="ap" d="m242.8 527l64.8-37.4c2.4-1.4 6.4-1.4 8.8 0l64.4 37.4c1.2 0.7 1.8 1.6 1.8 2.5l-0.1 6.5c0 0.9-0.6 1.8-1.9 2.5l-64.8 37.4q-0.4 0.3-0.9 0.5-0.2 0.1-0.4 0.1-0.3 0.1-0.7 0.2-0.2 0.1-0.5 0.1-0.3 0.1-0.6 0.1-0.3 0-0.5 0.1-0.3 0-0.6 0-0.1 0-0.1 0-0.3 0-0.7 0-0.2 0-0.5-0.1-0.3 0-0.7-0.1-0.2 0-0.5-0.1-0.3-0.1-0.7-0.2-0.2 0-0.3-0.1-0.6-0.2-1-0.5l-64.4-37.4q-0.3-0.1-0.5-0.3-0.1-0.1-0.2-0.1-0.1-0.1-0.3-0.3 0 0-0.1-0.1-0.1-0.2-0.3-0.4 0 0 0 0-0.1-0.2-0.2-0.4 0 0 0 0 0-0.1-0.1-0.1 0-0.1 0-0.3-0.1 0-0.1-0.1 0-0.2 0-0.4l0.1-6.4q0 0 0 0c0-0.9 0.6-1.9 1.8-2.6zm-1.8 3q0 0 0.1 0.1-0.1-0.1-0.1-0.1zm0.8 1.4q0-0.1-0.1-0.1 0.1 0 0.1 0.1zm-0.7-1.1q0 0.1 0 0.1 0 0 0-0.1zm0 0.1q0.1 0 0.1 0 0 0-0.1 0zm141.2 0.2q0-0.1 0.1-0.2-0.1 0.1-0.1 0.2zm0.2-0.7q0 0 0 0zm0-0.2q0 0.1 0 0.2 0-0.1 0-0.2zm-140.4 1.9q0.1 0.1 0.1 0.1 0 0-0.1-0.1zm140.3-1.4q0.1-0.1 0.1-0.1 0 0-0.1 0.1zm-0.6 1q0.1-0.1 0.2-0.1-0.1 0-0.2 0.1zm0.3-0.3q0-0.1 0.1-0.2-0.1 0.1-0.1 0.2zm-0.9 0.9q0 0 0.1-0.1-0.1 0.1-0.1 0.1zm0.3-0.3q0.1 0 0.2-0.1-0.1 0.1-0.2 0.1z"/><path class="aq" d="m241 529.6l-0.1 6.4c0 0.9 0.6 1.8 1.8 2.5l0.1-6.4c-1.2-0.7-1.8-1.6-1.8-2.5z"/><g clip-path="url(#cp16)"><path class="aq" d="m241 529.6l-0.1 6.4q0 0.4 0.2 0.9l0.1-6.5q-0.2-0.4-0.2-0.8z"/><path class="aq" d="m241.2 530.4l-0.1 6.5c0.2 0.6 0.8 1.2 1.6 1.6l0.1-6.4c-0.8-0.5-1.4-1.1-1.6-1.7z"/></g><path class="ar" d="m382.5 536l0.1-6.5c0 1-0.6 1.9-1.9 2.6l-0.1 6.4c1.3-0.7 1.9-1.6 1.9-2.5z"/><g clip-path="url(#cp17)"><path class="ar" d="m380.7 532.1l-0.1 6.4c1.3-0.7 1.9-1.6 1.9-2.5l0.1-6.5c0 1-0.6 1.9-1.9 2.6z"/></g><path class="aq" d="m242.8 532.1l-0.1 6.4 64.4 37.4 0.1-6.4z"/><path class="ar" d="m315.9 569.5l-0.1 6.4 64.8-37.4 0.1-6.4z"/><g clip-path="url(#cp18)"><path class="at" d="m307.2 569.5l-0.1 6.4c1.2 0.8 2.8 1.1 4.5 1.1l0.1-6.5c-1.7 0.1-3.3-0.3-4.5-1z"/><path class="ah" d="m311.7 570.5l-0.1 6.5c1.5 0 3-0.4 4.2-1.1l0.1-6.4c-1.2 0.7-2.7 1-4.2 1z"/></g><path class="o" d="m242.8 527c-2.4 1.4-2.4 3.7 0 5.1l64.4 37.4c2.4 1.4 6.3 1.4 8.7 0l64.8-37.4c2.5-1.4 2.5-3.7 0.1-5.1l-64.4-37.4c-2.4-1.4-6.4-1.4-8.8 0z"/><path class="ar" d="m361.9 531.4l-3 1.7-44.1 25.5c-1.8 1-4.6 1-6.4 0l-43.8-25.5-3-1.7c-1.8-1-1.8-2.7 0-3.7l47.2-27.2c1.7-1 4.6-1 6.3 0l46.8 27.2c1.8 1 1.8 2.7 0 3.7z"/><path class="aq" d="m358.9 533.1l-44.1 25.5c-1.8 1-4.6 1-6.4 0l-43.8-25.5 44.2-25.4c1.7-1.1 4.6-1.1 6.3 0z"/><path class="a" d="m435.7 461.2h-2.7v-187.4h2.7z"/><path class="a" d="m313 532.8h-2.8v-113.6l0.7-0.4 243.1-139.9v114.9h-2.7v-110.2l-238.3 137.2z"/><path class="a" d="m318.3 530.1c-3.8-2.2-9.9-2.2-13.7 0-3.8 2.2-3.8 5.7 0 7.9 3.8 2.1 9.9 2.1 13.7 0 3.7-2.2 3.7-5.7 0-7.9z"/><path class="a" d="m444.4 460.8c-1.8-7.4-18.3-7.4-20 0 1.7 7.5 18.2 7.5 20 0z"/><path class="a" d="m562.7 393.8c-1.8-7.5-18.3-7.5-20.1 0 1.8 7.4 18.3 7.4 20.1 0z"/><path class="al" d="m386.6 543.5c1.8 1.5 3.4 10.8-4 10.6-3.9-0.1-7.3-2.7-10.6-4.8-1.9-1.2-0.9-3.3-2.9-4.3-9.1-4.7-20.8-7.2-19.1-18.2 0.1-1.3 0.5-6.5 1.4-7.1 0.7-0.4 4.6 0.9 5.4 1.1 8.4 1.4 9.5 1.4 10.8 2.4 0.3 6.2 1.3 7.3 4.7 9.4 1.6 0.9 12.9 9.7 14.3 10.9z"/><path class="ai" d="m388.7 581.6v-6.8h1.9l-0.5 6.9c-0.5 0.3-1 0.4-1.4-0.1z"/><path class="ai" d="m401.2 580.5c0.9 1.2 2.1 3 2.9 4.2 0.2 0.3 0.4 0.7 0.4 1.1-0.1 0.4-0.4 0.8-0.7 1-0.4 0.2-0.8 0.3-1.2 0.3-1.6 0.3-3.3 0.2-4.9-0.2-0.8-0.3-1.7-0.6-2.3-1.2-0.9-0.9-1.2-2.2-1.5-3.5-0.4-1.2-0.9-2.5-2-3.1-0.3-0.1-0.7-0.2-1-0.4-2.3-1-2.8-4.1-1.5-6.2 0.7-1.1 1.6-1 2.7-0.5 1.4 0.5 2.1 1.6 3.1 2.6q0.2 0.2 0.4 0.4c1.1 0.9-0.4-3.9 0.2-2.6 1.7 3.6 4.2 6.8 5.4 8.1z"/><path class="ak" d="m394.5 533.3c0.7 0.7 1.3 1.7 1.4 2.9 0.6 4.3 0.5 8.9 0.4 13.2-0.1 3.9-0.9 7.7-0.9 11.6 0 2.5 0.3 9.4 0.9 11.8 0.3 1.3-2.1 2.2-3.3 1.6-0.8-0.4-2.4-1.4-2.5-2.3-0.5-5.2-3.2-9.8-4.5-14.8-1-4.2-1.1-8.7-0.3-12.9 0.6-3.5 0.8-7.9 3.4-10.7 1.7-1.8 3.9-1.7 5.4-0.4z"/><path class="ak" d="m396 571.2q0.2 1.3 0.5 2.6c0.1 0.4 0.2 0.8 0.3 1.1q0.3 0.6 0.6 1.2 0.6 1.1 1.3 2c0.5 0.7 1.1 1.2 1.4 1.9 0.2 0.5 0.5 1.5 0 1.8-0.3 0.2-0.8 0.2-1.1 0.1-1.1-0.2-2.1-1-2.9-1.8-0.8-0.8-1.5-1.6-2.4-2.3-0.6-0.4-1.3-0.7-1.9-1.1-1.2-0.9-2.2-2.2-2.1-3.7 0.1-0.8 0.6-1.5 0.6-2.2 0.1-0.8 0.1-1.7 0.5-2.4z"/><path class="au" d="m395 588.5q0 0.3 0 0.7c0.1 0.7-0.2 1.5-0.8 2-0.4 0.4-1 0.5-1.6 0.5-2.1-0.1-3.9-1.8-4.9-3.5-1.3-2-1.7-4.7-3.4-6.5-0.4-0.4-0.9-0.7-1.3-1.1-0.6-0.7-0.9-1.6-0.9-2.4-0.1-0.8 0-1.6 0.4-2.2 0.8-1.3 2.6-1.4 3.8-0.8 0.9 0.5 2.3 0.2 3 1 0.8 1 0.7 1.2 1.2 2.1 1.4 2.5 3.1 6 4 8.7 0.2 0.5 0.4 1 0.5 1.5z"/><path class="am" d="m384.8 532.3c1.5 9.8 0.8 21.8 2.1 31.6 0.4 2.7 2.7 13.5 3.7 16 0.5 1.4-3.1 2.2-4.5 1.7-0.9-0.3-2.6-4-2.8-5-1.4-5.5-5-10.1-7.2-15.3-2.2-5.4-3-13.5-1.8-19.2 0.2-1.2 0.6-2.5 1.7-2.9z"/><path class="am" d="m388.3 575.6c0.3 0.6 1.2 0.5 1.4 1.2 0.2 0.7 0.8 2.6 1.2 3.3 0.3 0.8 0.8 2 0.8 3 0.1 0.8-0.1 1.4-0.8 1.9q-1.2 0.8-2.4 0c-0.8-0.6-1.5-1.4-2.1-2.2-0.5-0.7-1.1-1.5-1.5-2.3-0.8-1.6-1.7-3.4-1.9-5.2 0-0.2-0.1-2.6 0.1-2.6 0.3 0.2 0.6 0.4 1 0.5q1.9 1.1 3.9 2.1c0.5 0.3 0-0.2 0.3 0.3z"/><path class="as" d="m367.8 505.2c-1.8-4.1-3.5-9.5-5.8-16.3-0.6-1.8-1-3.8-1-5.7 0-2 0.6-3.7 1.5-5.4 0.4-0.8 1-1.7 1.9-1.9 0.8-0.1 1.6 0.3 2.3 0.8 3.9 3 4.5 7 5.4 11.6 0.9 4.4 0.8 10 1.1 14.4 0.1 0.9 1.1 8.5-1.6 7.3-1.4-0.6-2.9-2.5-3.8-4.8z"/><path class="as" d="m368.7 501.1c0.9-0.7 2-4.8 2.6-3.9 0.4 0.6 5 7.8 6.9 10.4-2.5 1.8-4.8 3.8-6.9 6-2.8-3.5-5.4-7.3-5.4-9.7 0-1.2 1.5-1.8 2.8-2.8z"/><path class="af" d="m341 509.5c0.2 1.6 0.4 3.3 0.5 5q-0.2-2.5-0.5-5z"/><path class="af" d="m341.5 514.5q0 1.6 0 3.1 0 0 0 0 0-1.6 0-3.1z"/><path class="av" d="m390.3 545.5c-1.5 1.1-3.2 2.1-4.9 2.9-3 1.5-7 3.1-10.4 2.7-2.9-0.2-5.1-3.3-7.7-4.4-8.2-3.3-11.7-4-17-8.2-5.2-4.1-5.6-10.5-4.8-16.7 0.2-1.4 0.4-2.8 0.6-4.1 0.2-0.7 0.3-2.2 1-2.6 0.8-0.5 5.5 1.1 6.5 1.3 10.1 1.7 13.8-2.1 15.5-0.9 4.3 2.9 8.7 5.6 13.2 8.2 3.6 2 6.9 4.1 10.3 6.3 1.8 1.1 2.9 2.9 3.8 4.8 0.8 1.5 1.1 4.3 0.2 5.8-0.6 0.8-1.3 1.4-2.1 1.9q-2 1.6-4.2 3z"/><path class="af" d="m346.6 478c2.3-1.1 4.9-1.8 7.3-2.3q0.6-0.1 1.2-0.3c3-0.6 6.2-0.5 8.9 0.8q0.1 0 0.1 0v18.3h-17.5z"/><path class="aw" d="m338.7 485.9c0.4-4.2 5.2-6.5 8.7-8.6 0.5 3.4 2 6.6 5.5 7.8 1.8 0.8 4.2 0 5.3-1.6 1.8-2.5 1.6-5.5 1.3-8.6 1.6 0.2 3.1 0.6 4.5 1.3 1.4 0.6 2.6 1.6 3.4 2.8 0.6 0.9 0.6 2.4 0.8 3.4q0.5 2 1.3 3.9c0.6 1.5 1.7 2.9 2.2 4.5 0.5 1.5 0.2 3.8-0.3 5.3-0.2 0.8-0.6 1.6-1 2.3q-0.9 1.8-1.7 3.6c-0.5 1.1-0.9 2.3-1.1 3.5-0.1 1.1 0 2.1 0.2 3.2 0.4 2.9 2.5 6.8-0.1 9.2-1.6 1.5-3.5 2.7-5.5 3.5q-1.4 0.6-2.9 0.9c-4.1 0.7-8.9-0.4-12.2-2.9-0.4-0.3-0.6-0.5-0.7-0.9 0-0.2 0-0.7 0-1 0-1.1 0.2-2.2 0.2-3.3 0.2-2.2 0.2-4.5-0.2-6.7-1.2-6.8-5.6-12.5-7.4-19.1q-0.4-1.3-0.3-2.5z"/><path class="as" d="m340 482.7c5.2 1 4.5 10.6 7.2 14.8 2 3.2 6.2 2.5 9.8 2.7-2.3 1.3-3.8 3.3-3.8 5.8-0.3 5.3 0.1 10.9 1.2 16.3-2.6-0.4-5.2-1.3-7.3-2.9-0.4-0.3-0.6-0.5-0.7-0.9 0-0.2 0-0.7 0-1 0-1.1 0.2-2.2 0.2-3.3 0.2-2.2 0.2-4.5-0.2-6.7-1.2-6.8-5.6-12.5-7.4-19.1q-0.4-1.3-0.3-2.5c0.1-1.2 0.6-2.3 1.3-3.2z"/><path class="as" d="m356.3 485c0.2 0.7 3.2 1.2 3.5 1.2 0.4-0.1 0.6-0.6 0.7-0.9 0.9-2.1 1.3-4.4 1.4-6.7 0-0.7-0.1-1.5-0.7-2-0.5-0.4-1.4-0.5-2-0.3-0.7 0.3-0.4 0.4-0.2 1 0.9 2.2-1.2 6.6-2.7 7.7z"/><path class="ac" d="m354.4 456.6c0 3.7-3 6.6-6.6 6.6-2.8 0-5.1-1.6-6.1-3.9-0.4-0.8-0.6-1.8-0.6-2.7 0-3.7 3-6.7 6.7-6.7q0.8 0 1.5 0.2c3 0.7 5.1 3.4 5.1 6.5z"/><path class="af" d="m348.3 478.1c-0.2 6.4 11.1 6.5 10.9 0.5-0.2-8.5-0.7-9.5-4.4-10.8-1-0.3-2.1-0.6-3.2-0.6-3.9-0.1-2.4 2-2.2 3.5 0.4 4.4-1 5.1-1.1 7.4z"/><path class="ak" d="m348.3 478.1c0.1-2.3 1.5-3 1.1-7.4-0.2-1.5-1.7-3.6 2.2-3.5 1.1 0 2.2 0.3 3.2 0.6 3.6 1.3 4.2 2.3 4.4 10.4-3.1-0.3-5.9-4-9.1-1.8-0.8 0.7-1.4 1.6-1.8 2.5q0-0.4 0-0.8z"/><path class="al" d="m353 473.8q-0.5-0.4-1-0.8c-1-1-2.3-2.2-3-3.4-2.4-4.1-2.5-9.6 0.9-13.1 2.4-2.5 6.3-3.6 9.6-2.6 0.9 0.2 1.8 0.6 2.6 1.1 0.8 0.3 1.5 0.8 2 1.4 0.4 0.4 0.7 0.8 0.9 1.3 0.3 0.5 0.6 1.1 0.7 1.7 0.7 2.6-1.1 5.3 0 7.9 0.2 0.6 0.5 1.1 0.7 1.7 0.2 0.5 0.3 1.2-0.1 1.7-0.3 0.5-0.7 0.7-0.8 1.3-0.3 0.7-0.4 1.5-0.6 2.3-0.3 0.8-0.5 1.6-0.9 2.3-1 1.8-2.5 2-4.3 1.2-2.4-0.9-4.7-2.3-6.7-4z"/><path class="al" d="m360.2 469.2c-0.8-3.3-4.6-4.3-6.2-7-1.4-2.2-2.3-4.5-2.7-6.9 2.3-1.6 5.4-2.2 8.2-1.4 0.9 0.2 1.8 0.6 2.6 1.1 0.8 0.3 1.5 0.8 2 1.4 0.4 0.4 0.7 0.8 0.9 1.3 0.3 0.5 0.6 1.1 0.7 1.7 0.7 2.6-1.1 5.3 0 7.9 0.2 0.6 0.5 1.1 0.7 1.7 0.2 0.5 0.3 1.2-0.1 1.7-0.3 0.5-0.7 0.7-0.8 1.3-0.3 0.7-0.4 1.5-0.6 2.3-0.3 0.8-0.5 1.6-0.9 2.3-0.7 1.3-1.7 1.7-2.8 1.6-2.1-2.4-0.3-6.1-1-9z"/><path class="am" d="m349.9 456.5q0.6-0.7 1.4-1.2c0.4 2.4 1.3 4.7 2.7 6.9 1.6 2.7 5.4 3.7 6.2 7 0.7 2.9-1.1 6.6 1 9q-0.7 0-1.5-0.4c-2.4-0.9-4.7-2.3-6.7-4q-0.5-0.4-1-0.8c-1-1-2.3-2.2-3-3.4-2.4-4.1-2.5-9.6 0.9-13.1z"/><path class="ae" d="m345.1 461.5c0.2-5.1 1.8-5.9 3.7-7.6 1.7-1.8 4.4-2.3 6.8-2.3 2.6 0.1 5 1 7.1 2.3q0.2 0.1 0.3 0.1c1.5 1 2.7 2.1 3 4 0.1 0.5 0.3 1.7-0.1 2.1-0.4 0.3-2.2 0.2-2.5 0.2-1.1 0-2.1-0.8-3.2-0.6-0.8 0.1-1.6 0.7-1.8 1.6-0.1 0.6 0 1.3-0.4 1.8-0.4 0.6-1.1 0.8-1.6 1.3-1.1 1-1 2.9-2.3 3.6-0.7 0.3-1.7 0.1-2.5-0.1-0.8-0.2-1.9-0.2-2.3 0.5-0.2 0.3 0 0.6 0 0.9 0 0.4 0.1 1.9 0.1 1.9 0 0-0.3 0-0.5-0.1-0.6-0.3-1.1-1.1-1.5-1.6-1.6-2.3-2.4-5.2-2.3-8z"/><path class="am" d="m349.8 466.1c-1.8-0.1-2.2 2.1-1 3.8 0.3 0.5 1 0.9 1.4 1.3 3.1 2.7 3.9-0.2 2.9-1.1-2.3-2.1-1.1-3.8-3.3-4z"/><path class="af" d="m350.9 470.1c-0.2-0.2-2.2-1.3-0.8-2.1 0.3-0.3 0.8 0.1 0.8 0.5 0 0.2 0 0.4 0 0.6q0 0.2 0.1 0.3c0.2 0.3 0.8 0.6 0.7 1-0.1 0.4-0.7-0.2-0.8-0.3z"/><path class="as" d="m356.3 485c0 0-1.6 1.9-3.1 2.8-0.4 0.2-0.7 0.5-1.1 0.3-2-1.1-5.6-5.6-6-8.1-0.1-0.9 0.3-2.1 0.9-2.7 0.1-0.1 1.4-0.5 1.5-0.6 0.1 0.2 0.2 1.9 0.7 3.1 1.2 2.8 4.2 4.2 7.1 5.2z"/><path class="ae" d="m402.5 530l-0.1 2.6-30.3 17.7v-2.7z"/><path class="ax" d="m372.1 547.6v2.7l-18.8-10.9v-2.6z"/><path class="ae" d="m402.5 530l-30.4 17.6-18.8-10.8 30.3-17.6z"/><path class="ay" d="m378.8 528.3l-8.2 4.8-4.5-2.6 8.2-4.8z"/><path class="ay" d="m361.6 539.7l27.7-16.1 9.9 5.7-27.7 16.1z"/><path class="az" d="m337.5 512.6c-0.8-4.5-1.3-10.3-2.1-17.6-0.3-1.9-0.2-4 0.2-5.9 0.4-2 1.4-3.5 2.7-5 0.6-0.7 1.3-1.5 2.3-1.5 0.8 0.1 1.5 0.7 2 1.3 3.3 3.8 4.4 9.2 4.2 14-0.1 4.5 0.4 9 0.3 13.5 0 0.9 0 1.8-0.2 2.6-1 4-4.2 5.9-6.6 4.1-1.2-0.9-2.3-3.1-2.8-5.5z"/><path class="am" d="m380.5 523.2c0.3 0.5 1.2 1.8 1.6 2.2 0.4 0.4 0.1-1.2 0.6-1.2 0.9 0 1.8 0.5 2.4 0 0.5-0.4 1-0.9 1.4-1.5 0.4-0.5 0.6-1.2 0.6-1.8q0-0.4-0.2-0.8-0.2-0.2-0.4-0.4-1.1-0.9-2.2-1.9-0.3-0.3-0.6-0.4-0.4-0.2-0.8-0.2c-1-0.1-2 0.4-2.7 1.2-0.4 0.3-0.8 0.8-0.9 1.3-0.1 0.4 0.2 0.9 0.4 1.3q0.3 1.1 0.8 2.2z"/><path class="am" d="m379.6 521.2q-0.1 1.6-0.2 3.3c0 0.4 0 0.8 0.1 1.2 0 0.3 0.2 0.6 0.3 0.9 0.1 0.3 0.2 0.6 0.3 0.9 0.4 0.8 1.2 1.3 1.9 1.8 0.3 0.2 0.7 0.4 1 0.5 0.3 0 0.5-0.1 0.6-0.3q0.1-0.1 0-0.3c0-0.3-0.1-0.6-0.3-0.9-0.2-0.3-0.6-0.5-0.9-0.8-0.4-0.5-0.4-1.2-0.2-1.9 0.2-0.6 0.6-1.2 0.9-1.8 0.2-0.6 0.4-1.3 0.1-1.9q-0.2-0.4-0.4-0.6c-0.4-0.4-0.8-0.8-1.3-1-0.4-0.2-0.9-0.3-1.4-0.2-0.5 0.2-0.5 0.6-0.5 1.1z"/><path class="am" d="m384.6 522.5c-0.6-0.2-1.8 1.1-1.9 1.5-0.3 0.8 0.6 0.1 1.7 1.8 0.3 0.5 0.6 1 0.8 1.6 0.1 0.4 0.1 1 0.5 1.1 0.3 0.2 0.7 0 0.9-0.3 0.1 0.6 1 0.1 1.2-0.5 0.3-1.2 1.2-0.1 1.3-2.1q0.2 0 0.4 0.1c1.4-1.1-1.5-4.4-2.8-5.7-2.2-2.3-2.7 1.3-2.1 2.5z"/><path class="as" d="m371.3 513.6c2.1-2.2 4.4-4.2 6.9-6 2.3 3.2 4.3 6.6 5.5 9.3 1.2 2.5-3.7 4.8-4.8 3.5-1-1-5-3.7-7.6-6.8z"/><path class="al" d="m366 532.6c0.5 0.2 2 1.3 2.4 1.7 0.4 0.5-1.4 0.1-1.4 0.7 0 1 0.6 2-0.1 2.7-0.5 0.5-1 1.1-1.6 1.5-0.7 0.4-1.4 0.6-2.2 0.5-0.3 0-0.5-0.1-0.8-0.2q-0.2-0.2-0.4-0.5-1-1.3-2.1-2.5-0.2-0.3-0.4-0.6-0.2-0.5-0.2-1c-0.1-1.1 0.6-2.2 1.4-3 0.4-0.3 1-0.7 1.6-0.8 0.4-0.1 0.9 0.2 1.3 0.4q1.3 0.4 2.5 1.1z"/><path class="al" d="m363.8 531.4q1.8 0 3.6-0.1c0.5 0 1 0 1.4 0.1 0.4 0.1 0.7 0.3 1.1 0.5 0.3 0.1 0.6 0.2 0.9 0.3 0.9 0.5 1.4 1.4 1.9 2.2 0.2 0.4 0.4 0.8 0.5 1.2 0 0.2 0 0.5-0.3 0.6-0.1 0.1-0.2 0-0.3 0-0.4-0.1-0.8-0.2-1-0.4-0.4-0.2-0.6-0.7-0.9-1-0.5-0.5-1.4-0.5-2.1-0.3-0.7 0.2-1.3 0.6-2 0.9-0.7 0.2-1.5 0.4-2.2 0q-0.3-0.2-0.6-0.5c-0.5-0.4-0.9-0.9-1.1-1.4-0.2-0.5-0.3-1.1-0.1-1.6 0.2-0.5 0.7-0.5 1.2-0.5z"/><path class="az" d="m360 534.9c-1.5 0.4-3.1-0.6-4.2-1.5-2.9-2.1-16.7-13.6-17.6-18.9-0.2-1.3 1.3-2.1 2.5-3.1 0.9-0.9 5.6 0.1 6.4 1.1 1.4 1.6 11.5 11.9 15 17 0.5 0.7 0.9 1.5 0.9 2.3 0 1.3-1.8 2.9-3 3.1z"/><path class="al" d="m365.1 537.1c-0.3-0.7 1.3-2.1 1.7-2.2 0.9-0.2 0.1 0.7 2 2 0.5 0.4 1.1 0.8 1.7 1 0.5 0.1 1.1 0.2 1.2 0.6 0.2 0.4 0 0.8-0.4 1 0.7 0.1 0.1 1.1-0.5 1.3-1.4 0.3-0.2 1.3-2.5 1.4q0.1 0.2 0.1 0.4c-1.3 1.5-4.9-1.9-6.2-3.3-2.5-2.6 1.5-3 2.9-2.2z"/><g clip-path="url(#cp19)"></g><path class="au" d="m406.8 511.9l2.3 1.3q-0.3-0.1-0.6 0.1l-2.3-1.3q0.4-0.2 0.6-0.1z"/><g clip-path="url(#cp20)"><path class="au" d="m408.5 513.3l-2.3-1.3q0.1-0.1 0.3-0.1l2.2 1.3q-0.1 0-0.2 0.1z"/><path class="au" d="m408.7 513.2l-2.2-1.3q0.2-0.1 0.3 0l2.3 1.3q-0.2-0.1-0.4 0z"/><path class="au" d="m409.1 513.2l-2.3-1.3q0 0 0 0l2.3 1.3q0 0 0 0z"/></g><g clip-path="url(#cp21)"></g><path class="au" d="m379.9 529.9l-2.3-1.3 28.6-16.6 2.3 1.3z"/><g clip-path="url(#cp22)"></g><path class="au" d="m379 531.4l-2.3-1.3c0-0.6 0.4-1.2 0.9-1.5l2.3 1.3c-0.5 0.3-0.9 0.9-0.9 1.5z"/><g clip-path="url(#cp23)"><path class="aA" d="m379.5 530.3l-2.3-1.4q0.2-0.2 0.4-0.3l2.3 1.3q-0.3 0.1-0.4 0.4z"/><path class="aA" d="m379.2 530.7l-2.3-1.3q0.1-0.2 0.3-0.5l2.3 1.4q-0.2 0.2-0.3 0.4z"/></g><g clip-path="url(#cp24)"></g><path class="ae" d="m408.5 513.3c0.4-0.3 0.8-0.1 0.8 0.5l-6.8 16.2-30.4 17.6 6.8-16.2c0 0 0.2-1 1-1.5z"/><path class="ax" d="m372.1 547.6l-2.2-1.3 7-16.9 2.3 1.3z"/><g style="mix-blend-mode:overlay"><path class="i" d="m618.6 731.7c29.5 17.1 29.5 44.7 0 61.8-29.6 17.1-77.5 17.1-107 0-29.5-17.1-29.5-44.7 0-61.8 29.5-17 77.4-17 107 0z"/><path class="j" d="m610.1 736.6c24.9 14.4 24.9 37.7 0 52-24.9 14.4-65.2 14.4-90 0-24.9-14.3-24.9-37.6 0-52 24.8-14.4 65.1-14.4 90 0z"/><path class="k" d="m601.7 741.5c20.2 11.7 20.2 30.6 0 42.2-20.2 11.7-53 11.7-73.2 0-20.2-11.6-20.2-30.5 0-42.2 20.2-11.7 53-11.7 73.2 0z"/><path class="l" d="m593.2 746.4c15.5 8.9 15.5 23.5 0 32.4-15.5 9-40.7 9-56.2 0-15.6-8.9-15.6-23.5 0-32.4 15.5-9 40.7-9 56.2 0z"/><path class="m" d="m584.7 751.3c10.9 6.2 10.9 16.4 0 22.7-10.8 6.2-28.4 6.2-39.3 0-10.8-6.3-10.8-16.5 0-22.7 10.9-6.3 28.5-6.3 39.3 0z"/><path class="n" d="m576.3 756.1c6.2 3.6 6.2 9.4 0 13-6.2 3.6-16.2 3.6-22.4 0-6.2-3.6-6.2-9.4 0-13 6.2-3.5 16.2-3.5 22.4 0z"/><path class="o" d="m567.8 761c1.6 0.9 1.6 2.3 0 3.2-1.5 0.9-3.9 0.9-5.5 0-1.5-0.9-1.5-2.3 0-3.2 1.6-0.9 4-0.9 5.5 0z"/></g><g style="mix-blend-mode:overlay"><path class="i" d="m770.1 646.1c29.5 17 29.5 44.7 0 61.7-29.6 17.1-77.5 17.1-107 0-29.5-17-29.5-44.7 0-61.7 29.5-17.1 77.4-17.1 107 0z"/><path class="j" d="m761.6 651c24.9 14.3 24.9 37.6 0 52-24.9 14.3-65.2 14.3-90 0-24.9-14.4-24.9-37.7 0-52 24.8-14.4 65.1-14.4 90 0z"/><path class="k" d="m753.2 655.8c20.2 11.7 20.2 30.6 0 42.3-20.2 11.6-53 11.6-73.2 0-20.2-11.7-20.2-30.6 0-42.3 20.2-11.6 53-11.6 73.2 0z"/><path class="l" d="m744.7 660.7c15.5 9 15.5 23.5 0 32.5-15.5 9-40.7 9-56.2 0-15.6-9-15.6-23.5 0-32.5 15.5-8.9 40.7-8.9 56.2 0z"/><path class="m" d="m736.2 665.6c10.9 6.3 10.9 16.4 0 22.7-10.8 6.3-28.4 6.3-39.3 0-10.8-6.3-10.8-16.4 0-22.7 10.9-6.3 28.5-6.3 39.3 0z"/><path class="n" d="m727.8 670.5c6.2 3.6 6.2 9.4 0 12.9-6.2 3.6-16.2 3.6-22.4 0-6.2-3.5-6.2-9.3 0-12.9 6.2-3.6 16.2-3.6 22.4 0z"/><path class="o" d="m719.3 675.4c1.6 0.8 1.6 2.3 0 3.1-1.5 0.9-3.9 0.9-5.5 0-1.5-0.8-1.5-2.3 0-3.1 1.6-0.9 4-0.9 5.5 0z"/></g><g style="mix-blend-mode:overlay"><path class="i" d="m661.8 174.3c0 1.6-1.3 2.9-2.9 2.9-1.7 0-3-1.3-3-2.9 0-1.6 1.3-2.9 3-2.9 1.6 0 2.9 1.3 2.9 2.9z"/><path class="j" d="m661.8 211.5c0 1.7-1.3 3-2.9 3-1.7 0-3-1.3-3-3 0-1.6 1.3-2.9 3-2.9 1.6 0 2.9 1.3 2.9 2.9z"/><path class="k" d="m661.8 248.8c0 1.6-1.3 3-2.9 3-1.7 0-3-1.4-3-3 0-1.7 1.3-3 3-3 1.6 0 2.9 1.3 2.9 3z"/><path class="l" d="m661.9 286c0 1.7-1.4 3-3 3-1.7 0-3.1-1.3-3.1-3 0-1.7 1.4-3.1 3.1-3.1 1.6 0 3 1.4 3 3.1z"/><path class="m" d="m661.9 323.2c0 1.7-1.3 3.1-3 3.1-1.8 0-3.1-1.4-3.1-3.1 0-1.7 1.3-3.1 3.1-3.1 1.7 0 3 1.4 3 3.1z"/><path class="n" d="m662 360.4c0 1.7-1.4 3.1-3.1 3.1-1.8 0-3.2-1.4-3.2-3.1 0-1.7 1.4-3.1 3.2-3.1 1.7 0 3.1 1.4 3.1 3.1z"/><path class="o" d="m662 397.6c0 1.8-1.4 3.2-3.1 3.2-1.8 0-3.2-1.4-3.2-3.2 0-1.7 1.4-3.1 3.2-3.1 1.7 0 3.1 1.4 3.1 3.1z"/></g><g style="mix-blend-mode:overlay"><path class="i" d="m211.8 432.9c0 1.6-1.3 2.9-2.9 2.9-1.6 0-2.9-1.3-2.9-2.9 0-1.6 1.3-2.9 2.9-2.9 1.6 0 2.9 1.3 2.9 2.9z"/><path class="j" d="m211.8 470.1c0 1.6-1.3 2.9-2.9 2.9-1.6 0-3-1.3-3-2.9 0-1.6 1.4-3 3-3 1.6 0 2.9 1.4 2.9 3z"/><path class="k" d="m211.9 507.3c0 1.7-1.4 3-3 3-1.7 0-3-1.3-3-3 0-1.6 1.3-3 3-3 1.6 0 3 1.4 3 3z"/><path class="l" d="m211.9 544.5c0 1.7-1.3 3.1-3 3.1-1.7 0-3-1.4-3-3.1 0-1.7 1.3-3 3-3 1.7 0 3 1.3 3 3z"/><path class="m" d="m212 581.7c0 1.7-1.4 3.1-3.1 3.1-1.7 0-3.1-1.4-3.1-3.1 0-1.7 1.4-3 3.1-3 1.7 0 3.1 1.3 3.1 3z"/><path class="n" d="m212 619c0 1.7-1.4 3.1-3.1 3.1-1.7 0-3.1-1.4-3.1-3.1 0-1.8 1.4-3.2 3.1-3.2 1.7 0 3.1 1.4 3.1 3.2z"/><path class="o" d="m212.1 656.2c0 1.7-1.5 3.2-3.2 3.2-1.8 0-3.2-1.5-3.2-3.2 0-1.8 1.4-3.2 3.2-3.2 1.7 0 3.2 1.4 3.2 3.2z"/></g><g style="mix-blend-mode:overlay"><path class="i" d="m341.1 656.9c0 1.6-1.3 2.9-2.9 2.9-1.6 0-2.9-1.3-2.9-2.9 0-1.6 1.3-2.9 2.9-2.9 1.6 0 2.9 1.3 2.9 2.9z"/><path class="j" d="m341.1 676c0 1.6-1.3 2.9-2.9 2.9-1.7 0-3-1.3-3-2.9 0-1.7 1.3-3 3-3 1.6 0 2.9 1.3 2.9 3z"/><path class="k" d="m341.2 695c0 1.6-1.4 3-3 3-1.7 0-3-1.4-3-3 0-1.7 1.3-3 3-3 1.6 0 3 1.3 3 3z"/><path class="l" d="m341.2 714c0 1.7-1.4 3-3 3-1.7 0-3.1-1.3-3.1-3 0-1.7 1.4-3.1 3.1-3.1 1.6 0 3 1.4 3 3.1z"/><path class="m" d="m341.2 733c0 1.7-1.3 3.1-3 3.1-1.7 0-3.1-1.4-3.1-3.1 0-1.7 1.4-3.1 3.1-3.1 1.7 0 3 1.4 3 3.1z"/><path class="n" d="m341.3 752c0 1.7-1.4 3.1-3.1 3.1-1.8 0-3.2-1.4-3.2-3.1 0-1.7 1.4-3.1 3.2-3.1 1.7 0 3.1 1.4 3.1 3.1z"/><path class="o" d="m341.3 771c0 1.8-1.4 3.2-3.1 3.2-1.8 0-3.2-1.4-3.2-3.2 0-1.7 1.4-3.2 3.2-3.2 1.7 0 3.1 1.5 3.1 3.2z"/></g><g style="mix-blend-mode:overlay"><path class="i" d="m292.4 315.5c0 1.6-1.3 2.9-2.9 2.9-1.6 0-2.9-1.3-2.9-2.9 0-1.6 1.3-2.9 2.9-2.9 1.6 0 2.9 1.3 2.9 2.9z"/><path class="j" d="m292.4 334.6c0 1.6-1.3 2.9-2.9 2.9-1.6 0-3-1.3-3-2.9 0-1.7 1.4-3 3-3 1.6 0 2.9 1.3 2.9 3z"/><path class="k" d="m292.5 353.6c0 1.6-1.4 3-3 3-1.7 0-3-1.4-3-3 0-1.7 1.3-3 3-3 1.6 0 3 1.3 3 3z"/><path class="l" d="m292.5 372.6c0 1.7-1.3 3-3 3-1.7 0-3.1-1.3-3.1-3 0-1.7 1.4-3.1 3.1-3.1 1.7 0 3 1.4 3 3.1z"/><path class="m" d="m292.6 391.6c0 1.7-1.4 3.1-3.1 3.1-1.7 0-3.1-1.4-3.1-3.1 0-1.7 1.4-3.1 3.1-3.1 1.7 0 3.1 1.4 3.1 3.1z"/><path class="n" d="m292.6 410.6c0 1.7-1.4 3.1-3.1 3.1-1.7 0-3.1-1.4-3.1-3.1 0-1.7 1.4-3.1 3.1-3.1 1.7 0 3.1 1.4 3.1 3.1z"/><path class="o" d="m292.7 429.6c0 1.8-1.5 3.2-3.2 3.2-1.8 0-3.2-1.4-3.2-3.2 0-1.7 1.4-3.2 3.2-3.2 1.7 0 3.2 1.5 3.2 3.2z"/></g><path class="aB" d="m531.6 95.4l30.8 17.9c-10.3-6-24.5-5.2-40.2 3.9q-5 2.9-9.8 6.6l-30.8-17.8q4.8-3.8 9.8-6.7c15.7-9.1 30-9.9 40.2-3.9z"/><g clip-path="url(#cp25)"><path class="aB" d="m512.4 123.8l-30.8-17.8q4.8-3.8 9.8-6.7c6-3.5 11.8-5.7 17.2-6.9l30.8 17.9c-5.4 1.2-11.2 3.4-17.2 6.9q-5 2.9-9.8 6.6z"/><path class="aB" d="m539.4 110.3l-30.8-17.9c8.4-1.7 15.9-0.8 22 2.4l30.8 17.9c-6.2-3.2-13.7-4.1-22-2.4z"/><path class="aB" d="m561.4 112.7l-30.8-17.9q0.5 0.3 1 0.6l30.8 17.9q-0.5-0.3-1-0.6z"/></g><path class="aB" d="m459.5 73.9l30.8 17.9c-15.4-9-36.8-7.7-60.3 5.9l-30.8-17.9c23.6-13.6 44.9-14.8 60.3-5.9z"/><g clip-path="url(#cp26)"><path class="aB" d="m430 97.7l-30.8-17.9c9-5.2 17.6-8.6 25.8-10.3l30.7 17.9c-8.1 1.7-16.7 5.1-25.7 10.3z"/><path class="aB" d="m455.7 87.4l-30.7-17.9c12.5-2.6 23.7-1.3 33 3.6l30.8 17.9c-9.3-4.9-20.5-6.2-33.1-3.6z"/><path class="aB" d="m488.8 91l-30.8-17.9q0.8 0.4 1.5 0.8l30.8 17.9q-0.8-0.4-1.5-0.8z"/></g><path class="aB" d="m348 218.8l-30.8-17.9c9.1-47.6 42.4-98.2 82-121.1l30.8 17.9c-39.7 22.9-72.9 73.4-82 121.1z"/><g clip-path="url(#cp27)"><path class="aB" d="m348 218.8l-30.8-17.9c2.5-13 6.8-26.2 12.5-38.9l30.7 17.8c-5.6 12.8-9.9 26-12.4 39z"/><path class="aB" d="m360.4 179.8l-30.7-17.8c7.3-16.6 17.1-32.4 28.5-46.3l30.7 17.9c-11.3 13.9-21.1 29.7-28.5 46.2z"/><path class="aB" d="m388.9 133.6l-30.7-17.9c12.1-14.8 26.1-27.3 41-35.9l30.8 17.9c-14.9 8.6-28.9 21.1-41.1 35.9z"/></g><path class="aB" d="m298.3 357.2l-30.7-17.8c-10.2-5.9-16.5-18.5-16.5-36.3-0.1-35.8 25.1-79.5 56.3-97.5q5-2.9 9.8-4.7l30.8 17.9q-4.8 1.7-9.8 4.6c-31.2 18.1-56.4 61.7-56.3 97.6 0 17.8 6.3 30.3 16.4 36.2z"/><g clip-path="url(#cp28)"><path class="aB" d="m298.3 357.2l-30.7-17.8c-10.2-5.9-16.5-18.5-16.5-36.3-0.1-13.7 3.6-28.6 9.9-42.8l30.8 17.9c-6.3 14.2-10 29.1-9.9 42.8 0 17.8 6.3 30.3 16.4 36.2z"/><path class="aB" d="m291.8 278.2l-30.8-17.9c4.9-11 11.5-21.6 19-30.8l30.8 17.9c-7.6 9.2-14.1 19.8-19 30.8z"/><path class="aB" d="m310.8 247.4l-30.8-17.9c8.1-9.9 17.5-18.2 27.4-23.9q5-2.9 9.8-4.7l30.8 17.9q-4.8 1.7-9.8 4.6c-10 5.8-19.3 14.1-27.4 24z"/></g><path class="o" d="m430 97.7c39.6-22.9 73-10.8 82.4 26.1q4.8-3.7 9.8-6.6c31.2-18 56.6-3.6 56.7 32.3 0.1 33.6-22 74.1-50.5 93.8l-189.9 110c-31.2 18-56.5 3.6-56.6-32.3-0.1-35.9 25.1-79.5 56.3-97.6q5-2.9 9.8-4.6c9.1-47.7 42.3-98.2 82-121.1z"/><g style="opacity:.7"><path class="az" d="m398.8 222.7q-0.9 0.5-1.9 0.7c-3.1 0.6-4.8-2.3-3.7-6.5 4.8-19.3 16.4-38.5 30.9-51.3 21.4-18.7 43.2-19.1 52-0.9 1.4 2.7 0 7.6-3 10.9-3.1 3.2-6.6 3.7-7.9 0.9-6.4-13.3-22.4-13-38 0.7-10.7 9.4-19.2 23.4-22.7 37.5-0.8 3.4-3.2 6.5-5.7 8z"/><path class="az" d="m385.3 218.8l15.2 20.7 14.5-38.4z"/><path class="az" d="m436.7 264.8c-16.3 9.4-32 7.9-39.7-4.9-1.5-2.6-0.3-7.4 2.6-10.8 2.9-3.4 6.5-4.2 8-1.7 6.9 11.6 22.6 10.6 37.2-2.3 10.9-9.5 19.4-23.8 22.8-38.1 1-4.2 4.4-8.2 7.5-8.8 3.2-0.7 4.9 2.2 3.9 6.4-4.7 19.6-16.3 39.1-31.2 52.1-3.7 3.3-7.4 5.9-11.1 8.1z"/><path class="az" d="m486.8 204.1l-12.9-23.4-16.7 38.1z"/></g><g style="mix-blend-mode:overlay"><path class="aC" d="m603.3 164.9l6.6-3.8v-7.6l-6.6 3.8z"/><path class="aD" d="m480.7 300.3l6.6-3.8v-7.6l-6.6 3.8z"/><path class="o" d="m330.2 383.8l6.6-3.7v-7.6l-6.6 3.8z"/><path class="aE" d="m498.7 306l6.6-3.8v-7.6l-6.6 3.8z"/><path class="o" d="m179.4 584.6l6.6-3.8v-7.5l-6.6 3.7z"/><path class="aF" d="m227.4 490.4l6.5-3.8v-7.6l-6.5 3.8z"/></g></svg>