<?xml version="1.0" encoding="utf-8"?>
<!-- Generator: Adobe Illustrator 27.5.0, SVG Export Plug-In . SVG Version: 6.00 Build 0)  -->
<svg version="1.1" xmlns="http://www.w3.org/2000/svg" xmlns:xlink="http://www.w3.org/1999/xlink" x="0px" y="0px"
	 viewBox="0 0 500 500" style="enable-background:new 0 0 500 500;" xml:space="preserve">
<g id="BACKGROUND">
	<rect id="Rectangle" style="fill:#FFFFFF;" width="500" height="500"/>
</g>
<g id="OBJECTS">
	<g>
		<path id="_x3C_Path_x3E__00000098192004759918720970000006433018129341334684_" style="fill:#F5F8FF;" d="M131.696,384.843
			c-15.181,0-79.473-51.443-56.293-100.649c20.187-42.853,63.85,19.611,50.499-67.883c-5.603-36.72,35.927-77.281,76.99-53.411
			c23.186,13.478,63.499,23.945,76.724-2.33c28.665-56.95,111.989-53.671,136.544,5.24c26.296,63.087-31.871,58.261-9.914,91.015
			c12.547,18.717,20.921,17.54,33.908,47.83c15.203,35.457-3.531,80.675-39.002,80.675L131.696,384.843z"/>
		<path style="fill:#E1ECFA;" d="M207.276,260.622l-2.582-0.919c-1.289-0.459-2.165-1.697-2.097-3.063
			c0.091-1.812-0.018-3.611-0.312-5.368c-0.23-1.371,0.509-2.723,1.765-3.319l2.708-1.286c1.575-0.748,2.245-2.631,1.497-4.206
			l-1.608-3.385c-0.748-1.575-2.631-2.245-4.206-1.497l-2.866,1.362c-1.249,0.593-2.76,0.348-3.702-0.664
			c-1.286-1.38-2.736-2.625-4.336-3.699c-1.176-0.79-1.631-2.304-1.156-3.639l0.812-2.281c0.585-1.642-0.273-3.448-1.915-4.032
			l-3.531-1.257c-1.642-0.585-3.448,0.273-4.032,1.915l-1.046,2.938c-0.457,1.284-1.685,2.099-3.048,2.097
			c-1.552-0.003-3.089,0.14-4.594,0.42c-1.325,0.246-2.668-0.319-3.356-1.478l-2.141-3.603c-0.891-1.499-2.827-1.992-4.326-1.102
			l-3.222,1.914c-1.499,0.891-1.992,2.827-1.101,4.326l1.665,2.803c0.738,1.243,0.547,2.837-0.489,3.846
			c-0.975,0.948-1.877,1.982-2.695,3.094c-0.811,1.103-2.272,1.51-3.561,1.051l-2.583-0.919c-1.642-0.585-3.448,0.273-4.032,1.915
			l-1.257,3.531c-0.585,1.642,0.273,3.448,1.916,4.032l2.565,0.913c1.297,0.462,2.181,1.706,2.114,3.081
			c-0.051,1.037-0.036,2.07,0.041,3.093c0.111,1.461-0.828,2.796-2.23,3.221l-2.121,0.643c-1.668,0.506-2.611,2.268-2.105,3.937
			l1.087,3.587c0.505,1.668,2.268,2.611,3.937,2.105l3.276-0.993c1.27-0.385,2.623,0.083,3.441,1.128
			c1.145,1.461,2.457,2.803,3.921,3.991c1.057,0.858,1.496,2.264,1.039,3.547l-1.047,2.941c-0.585,1.642,0.273,3.448,1.915,4.032
			l3.531,1.257c1.642,0.585,3.448-0.273,4.032-1.916l0.812-2.281c0.475-1.336,1.785-2.221,3.196-2.09
			c1.909,0.177,3.809,0.13,5.668-0.124c1.365-0.186,2.686,0.576,3.277,1.821l1.385,2.915c0.748,1.575,2.631,2.245,4.206,1.497
			l3.385-1.608c1.575-0.748,2.245-2.631,1.497-4.206l-1.298-2.733c-0.597-1.257-0.315-2.773,0.732-3.69
			c1.348-1.181,2.578-2.515,3.66-3.986c0.81-1.103,2.273-1.508,3.562-1.049l2.58,0.918c1.643,0.585,3.448-0.273,4.032-1.915
			l1.257-3.531C209.776,263.012,208.919,261.206,207.276,260.622z M190.521,259.785c-2.541,7.14-10.389,10.868-17.529,8.327
			c-7.14-2.541-10.867-10.389-8.326-17.528c2.541-7.14,10.389-10.868,17.528-8.327C189.334,244.798,193.062,252.645,190.521,259.785
			z"/>
		
			<ellipse transform="matrix(0.7071 -0.7071 0.7071 0.7071 31.8405 320.4982)" style="fill:#E1ECFA;" cx="402.796" cy="121.814" rx="8.331" ry="8.331"/>
		
			<ellipse transform="matrix(0.2289 -0.9734 0.9734 0.2289 128.7035 445.9879)" style="fill:#E1ECFA;" cx="345.874" cy="141.752" rx="8.331" ry="8.331"/>
		<polyline style="fill:none;stroke:#E1ECFA;stroke-width:5;stroke-miterlimit:10;" points="402.796,122.561 347.394,140.512 
			283.844,180.79 		"/>
		<path style="fill:#E1ECFA;" d="M414.805,385.329h-22.738c-4.633,0-8.388-3.755-8.388-8.388V154.024
			c0-4.633,3.755-8.388,8.388-8.388h22.738c4.633,0,8.388,3.756,8.388,8.388V376.94
			C423.193,381.573,419.438,385.329,414.805,385.329z"/>
		<path style="fill:#E1ECFA;" d="M360.632,386.517h-22.738c-4.633,0-8.388-3.756-8.388-8.388V190.065
			c0-4.633,3.755-8.388,8.388-8.388h22.738c4.633,0,8.388,3.756,8.388,8.388v188.063
			C369.021,382.761,365.265,386.517,360.632,386.517z"/>
		<path style="fill:#E1ECFA;" d="M307.914,385.843h-22.738c-4.633,0-8.388-3.756-8.388-8.388V222.686
			c0-4.633,3.756-8.388,8.388-8.388h22.738c4.633,0,8.388,3.756,8.388,8.388v154.768
			C316.302,382.087,312.547,385.843,307.914,385.843z"/>
	</g>
	<g>
		<path style="fill:#E69724;" d="M242.477,234.515c-38.016,1.33-72.322,17.179-97.608,42.145c-1.671,1.65-1.626,4.365,0.095,5.963
			l60.967,56.643c1.526,1.418,3.89,1.497,5.464,0.132c8.821-7.654,20.184-12.272,32.537-13.415c2.112-0.195,3.746-1.929,3.746-4.05
			V239.56C247.678,236.714,245.321,234.415,242.477,234.515z"/>
		<path style="fill:#F0C66C;" d="M101.721,385.488h84.046c2.196,0,3.986-1.723,4.118-3.915c0.798-13.224,4.231-23.37,12.02-32.772
			c1.382-1.668,1.182-4.139-0.407-5.612l-60.379-55.979c-1.689-1.566-4.335-1.447-5.879,0.264
			c-22.54,24.972-36.62,57.727-37.65,93.766C97.524,383.564,99.395,385.488,101.721,385.488z"/>
		<path style="fill:#F0C66C;" d="M252.9,238.615l0,83.28c0,2.145,1.647,3.903,3.782,4.11c12.573,1.222,23.391,5.866,32.525,13.536
			c1.586,1.332,3.93,1.234,5.448-0.176l61.015-56.688c1.72-1.598,1.766-4.312,0.096-5.962
			c-25.501-25.205-60.189-41.132-98.609-42.231C254.829,234.418,252.9,236.287,252.9,238.615z"/>
		<path style="fill:#E69724;" d="M402.409,381.211c-1.028-36.009-15.086-68.739-37.593-93.703c-1.544-1.713-4.194-1.832-5.883-0.262
			l-60.353,56.073c-1.559,1.448-1.765,3.854-0.46,5.535c7.946,10.239,10.647,18.52,12.11,32.903
			c0.214,2.102,1.989,3.702,4.102,3.702h83.947C400.605,385.46,402.476,383.536,402.409,381.211z"/>
		<path style="fill:#BAD4EF;" d="M249.834,330.418c-28.908,0-52.613,22.274-54.891,50.595c-0.194,2.408,1.702,4.475,4.118,4.475
			h101.546c2.415,0,4.311-2.067,4.118-4.475C302.447,352.691,278.741,330.418,249.834,330.418z"/>
		<path style="fill:#315782;" d="M255.945,356.381c-1.896-3.132-5.308-4.777-8.725-4.576l-27.691-48.777
			c-0.134-0.236-0.291-0.458-0.468-0.663l-22.264-25.738c-0.383-0.443-1.092-0.011-0.873,0.533l12.62,31.379
			c0.096,0.237,0.213,0.465,0.35,0.681l30.44,47.717c-1.474,2.851-1.484,6.375,0.301,9.322c2.728,4.504,8.59,5.944,13.094,3.217
			C257.232,366.748,258.672,360.885,255.945,356.381z"/>
	</g>
	<g>
		<polygon id="_x3C_Path_x3E__00000138563062923775684380000012454294533470615700_" style="fill:#E1B39D;" points="391.105,372.27 
			391.324,379.363 398.872,378.113 398.842,372.231 		"/>
		<path id="_x3C_Path_x3E__00000160180017862853162350000000287591358521787573_" style="fill:#2F526E;" d="M398.872,378.113
			c-7.802-0.119-10.357-0.129-20.145,4.786c-1.32,0.73-0.779,2.748,0.73,2.74l17.988-0.089
			C400.053,385.7,398.872,378.113,398.872,378.113z"/>
		<polygon id="_x3C_Path_x3E__00000112624079694796329930000007839038440083317391_" style="fill:#E1B39D;" points="
			426.033,371.788 426.215,378.908 433.787,379.484 433.75,372.197 		"/>
		<path id="_x3C_Path_x3E_" style="fill:#315780;" d="M429.663,378.083c-0.986,0.004-4.121,0.211-5.745,1.823
			c-2.097,2.082-1.817,5.686-0.965,5.689l13.343,0.045c0.645,0.05,0.432-3.108-1.06-5.117
			C433.893,378.712,432.775,378.068,429.663,378.083z"/>
		<path style="fill:#315782;" d="M427.398,284.223c0.804,5.478,4.284,30.452,3.897,50.001c-0.001,0.059,0.002,0.117,0.008,0.176
			l4.546,38.963c0.095,0.817-0.543,1.535-1.366,1.535h-8.862c-0.64,0-1.195-0.441-1.34-1.064
			c-1.537-6.619-9.737-42.038-10.35-46.736c-0.676-5.186-1.353-12.176-1.353-12.176l-5.625,22.952
			c-0.008,0.031-0.014,0.062-0.02,0.094l-6.25,36.291c-0.115,0.668-0.699,1.152-1.377,1.142l-9.295-0.147
			c-0.789-0.012-1.406-0.685-1.35-1.473l2.944-41.219c0.003-0.035,0.007-0.071,0.012-0.106l7.471-49.88
			c0.106-0.707,0.735-1.215,1.449-1.169l25.59,1.651C426.775,283.101,427.304,283.581,427.398,284.223z"/>
		
			<line style="fill:none;stroke:#264154;stroke-width:0.5;stroke-linecap:round;stroke-miterlimit:10;" x1="412.592" y1="314.922" x2="409.092" y2="287.101"/>
		<polyline style="fill:none;stroke:#264154;stroke-width:0.5;stroke-linecap:round;stroke-miterlimit:10;" points="
			410.329,312.722 402.782,337.469 397.664,372.231 		"/>
		<polyline style="fill:none;stroke:#264154;stroke-width:0.5;stroke-linecap:round;stroke-miterlimit:10;" points="
			425.721,295.161 428.224,334.048 433.359,372.231 		"/>
		<path style="fill:none;stroke:#264154;stroke-width:0.5;stroke-linecap:round;stroke-miterlimit:10;" d="M405.281,289.138
			c0,0,1.339,9.411,5.048,9.28"/>
		<path style="fill:none;stroke:#264154;stroke-width:0.5;stroke-linecap:round;stroke-miterlimit:10;" d="M418.779,287.101
			c0,0,1.414,6.093,5.785,11.319"/>
		<path style="fill:#F0C66C;" d="M426.734,264.332c-0.021-0.486-0.321-4.688,0.165-4.716l7.749,1.077
			c0.309-4.123-1.058-23.785-11.005-24.797c-7.095-0.721-10.619-0.229-16.184-0.006c-4.03,0.162-7.766,2.169-10.104,5.454
			c-2.911,4.09-6.581,9.891-7.735,14.551c-1.716,6.93,5.805,10.013,8.023,10.761c0.362,0.122,0.601,0.457,0.603,0.839l0.062,15.511
			c0.003,0.762,0.626,1.376,1.388,1.369l27.013-0.267c0.485-0.029,0.857-0.442,0.837-0.927L426.734,264.332z"/>
		<path style="fill:#E1B39D;" d="M408.059,233.414l-0.021,3.147c0,0,0.745,4.426,5.706,4.555c4.961,0.129,5.375-5.287,5.375-5.287
			l-1.471-4.829l0.003-5.342l1.938-8.177l-20.299-6.985c0,0-1.258,11.998,0.001,16.196
			C400.549,230.889,403.717,235.101,408.059,233.414z"/>
		<path style="fill:#315782;" d="M398.79,213.66c0,0,7.562-2.108,9.649,2.935c2.087,5.043,2.006,3.896,2.875,2.931
			c0.869-0.964,3.901-0.685,3.557,1.966c-0.438,3.37-1.184,6.189,2.778,9.507c0,0-0.096-4.968,2.84-9.265
			c2.936-4.297,2.524-13.977-7.26-15.583c-9.785-1.606-4.553-3.89-12.269-2.692C393.245,204.658,393.733,213.23,398.79,213.66z"/>
		
			<line style="fill:none;stroke:#E69724;stroke-width:0.5;stroke-linecap:round;stroke-miterlimit:10;" x1="402.494" y1="247.047" x2="400.415" y2="256.221"/>
		<path style="fill:#315782;" d="M378.83,248.381l20.216-1.332c0.455-0.03,0.868,0.263,0.991,0.701l8.874,31.669
			c0.166,0.591-0.257,1.185-0.87,1.222l-20.25,1.219c-0.453,0.027-0.863-0.265-0.986-0.702l-8.841-31.556
			C377.801,249.013,378.219,248.422,378.83,248.381z"/>
		<path style="fill:#E1B39D;" d="M425.883,256.38l0.351,5.465l-19.658,0.408c0,0-0.571-2.903-2.177-4.27
			c-1.606-1.367-2.319-1.258-2.418-0.722c-0.099,0.536,1.562,2.404,1.184,3.352c-0.163,2.369-7.882-3.78-8.198-2.228
			c-0.695,0.552,0.675,2,0.675,2c-0.834,0.065-1.625,1.479-0.58,2.027c-0.865,0.269-0.824,2.041,0.073,2.247
			c-2.124,1.995,5.301,6.714,10.899,3.011c0,0,23.765,3.423,25.647,1.787c1.882-1.636,1.95-10.743,1.95-10.743L425.883,256.38z"/>
		<path style="fill:#F0C66C;" d="M423.657,242.842l1.144,16.438l9.846,1.414c0.352,0.038-0.882-2.849-0.985-3.188l-1.504-3.319
			L423.657,242.842z"/>
		<path style="fill:#E1B39D;" d="M379.964,264.783c-0.365-1.161-0.41-2.872,0.72-3.529c2.219-1.291,2.745-1.835,3.526-1.398
			c0.775,0.434-0.019,1.57-0.019,1.57c0.836-0.036,1.791,1.274,0.819,1.943c0.891,0.163,1.063,1.928,0.198,2.239
			c1.255,0.922-0.103,3.029-2.838,3.227C380.539,268.967,380.269,265.755,379.964,264.783z"/>
		
			<line style="fill:none;stroke:#E69724;stroke-width:0.5;stroke-linecap:round;stroke-miterlimit:10;" x1="426.235" y1="261.635" x2="423.657" y2="247.361"/>
		
			<line style="fill:none;stroke:#E69724;stroke-width:0.5;stroke-linecap:round;stroke-miterlimit:10;" x1="401.766" y1="281.862" x2="424.564" y2="281.405"/>
	</g>
	<g>
		<path style="fill:#315782;" d="M129.539,353.91l-3.148-1.12c-1.571-0.559-2.64-2.068-2.556-3.734
			c0.111-2.209-0.022-4.402-0.381-6.544c-0.28-1.672,0.621-3.319,2.152-4.046l3.302-1.568c1.92-0.912,2.737-3.207,1.825-5.127
			l-1.96-4.127c-0.912-1.92-3.208-2.737-5.127-1.825l-3.494,1.66c-1.523,0.723-3.364,0.425-4.513-0.809
			c-1.567-1.682-3.335-3.2-5.286-4.51c-1.434-0.963-1.989-2.808-1.409-4.436l0.99-2.78c0.713-2.002-0.333-4.203-2.335-4.916
			l-4.304-1.532c-2.002-0.713-4.203,0.333-4.916,2.335l-1.275,3.582c-0.557,1.565-2.055,2.559-3.716,2.556
			c-1.892-0.004-3.766,0.171-5.6,0.512c-1.616,0.3-3.252-0.389-4.092-1.802l-2.61-4.392c-1.086-1.827-3.447-2.429-5.274-1.343
			l-3.928,2.334c-1.827,1.086-2.428,3.447-1.343,5.274l2.03,3.417c0.9,1.515,0.667,3.459-0.596,4.688
			c-1.188,1.156-2.288,2.416-3.285,3.771c-0.988,1.345-2.77,1.841-4.341,1.282l-3.148-1.12c-2.002-0.713-4.203,0.333-4.916,2.335
			l-1.532,4.304c-0.713,2.002,0.333,4.203,2.335,4.916l3.127,1.113c1.581,0.563,2.659,2.08,2.577,3.756
			c-0.062,1.264-0.044,2.523,0.05,3.771c0.135,1.781-1.009,3.408-2.719,3.926l-2.586,0.784c-2.034,0.616-3.183,2.765-2.567,4.799
			l1.326,4.372c0.616,2.034,2.765,3.183,4.799,2.566l3.994-1.21c1.548-0.469,3.197,0.101,4.195,1.375
			c1.395,1.782,2.995,3.417,4.781,4.866c1.289,1.046,1.823,2.76,1.267,4.324l-1.276,3.586c-0.713,2.002,0.333,4.203,2.335,4.916
			l4.304,1.532c2.002,0.713,4.203-0.333,4.916-2.335l0.99-2.781c0.579-1.628,2.176-2.707,3.896-2.548
			c2.327,0.216,4.644,0.158,6.91-0.151c1.664-0.227,3.274,0.702,3.995,2.22l1.688,3.553c0.912,1.92,3.207,2.737,5.127,1.825
			l4.127-1.96c1.92-0.912,2.737-3.207,1.825-5.127l-1.582-3.331c-0.728-1.532-0.384-3.381,0.892-4.499
			c1.644-1.44,3.143-3.065,4.462-4.86c0.988-1.344,2.771-1.838,4.342-1.279l3.146,1.12c2.002,0.713,4.203-0.333,4.916-2.335
			l1.532-4.305C132.587,356.824,131.542,354.623,129.539,353.91z M109.113,352.891c-3.098,8.704-12.665,13.249-21.369,10.151
			c-8.704-3.098-13.248-12.665-10.151-21.369s12.665-13.249,21.368-10.151C107.666,334.62,112.211,344.187,109.113,352.891z"/>
		<path style="fill:#315782;" d="M177.586,369.424l-1.764-0.865c-0.88-0.432-1.404-1.385-1.243-2.352
			c0.212-1.283,0.282-2.573,0.215-3.848c-0.052-0.995,0.585-1.897,1.527-2.22l2.033-0.695c1.182-0.404,1.813-1.691,1.409-2.873
			l-0.869-2.542c-0.404-1.182-1.691-1.813-2.873-1.409l-2.152,0.736c-0.938,0.321-1.994,0.023-2.582-0.774
			c-0.803-1.088-1.734-2.092-2.786-2.988c-0.773-0.658-0.974-1.773-0.527-2.685l0.764-1.558c0.55-1.122,0.087-2.477-1.035-3.028
			l-2.412-1.183c-1.122-0.55-2.477-0.087-3.028,1.035l-0.984,2.007c-0.43,0.877-1.371,1.357-2.341,1.245
			c-1.105-0.129-2.211-0.152-3.306-0.076c-0.964,0.067-1.874-0.445-2.27-1.326l-1.231-2.74c-0.512-1.14-1.851-1.649-2.991-1.137
			l-2.451,1.101c-1.14,0.512-1.649,1.851-1.137,2.991l0.957,2.132c0.424,0.945,0.158,2.065-0.661,2.699
			c-0.771,0.596-1.498,1.258-2.171,1.983c-0.667,0.719-1.741,0.89-2.622,0.458l-1.764-0.865c-1.122-0.55-2.477-0.087-3.028,1.035
			l-1.183,2.412c-0.55,1.122-0.087,2.478,1.035,3.028l1.752,0.859c0.886,0.434,1.414,1.393,1.254,2.366
			c-0.121,0.735-0.194,1.471-0.223,2.206c-0.04,1.05-0.818,1.924-1.851,2.112l-1.563,0.285c-1.229,0.224-2.044,1.402-1.82,2.632
			l0.482,2.643c0.224,1.229,1.402,2.044,2.632,1.82l2.414-0.44c0.936-0.171,1.861,0.273,2.359,1.084
			c0.696,1.134,1.521,2.196,2.467,3.162c0.683,0.697,0.881,1.734,0.451,2.611l-0.985,2.009c-0.55,1.122-0.087,2.477,1.035,3.028
			l2.412,1.183c1.122,0.55,2.478,0.087,3.028-1.035l0.764-1.558c0.447-0.912,1.452-1.436,2.447-1.228
			c1.345,0.282,2.702,0.403,4.046,0.374c0.987-0.021,1.866,0.629,2.185,1.564l0.749,2.189c0.404,1.182,1.691,1.813,2.873,1.409
			l2.542-0.869c1.182-0.404,1.813-1.691,1.409-2.873l-0.702-2.052c-0.323-0.944,0.001-2.001,0.822-2.568
			c1.057-0.732,2.041-1.581,2.931-2.54c0.667-0.719,1.741-0.888,2.622-0.457l1.763,0.864c1.122,0.55,2.477,0.087,3.028-1.035
			l1.183-2.412C179.171,371.33,178.708,369.974,177.586,369.424z M165.722,367.463c-2.391,4.877-8.284,6.892-13.161,4.501
			c-4.877-2.392-6.892-8.284-4.501-13.161c2.391-4.877,8.284-6.892,13.161-4.501S168.113,362.586,165.722,367.463z"/>
	</g>
	<g>
		<g>
			
				<ellipse id="Ellipse_00000171714266029810011960000000756364014817308845_" transform="matrix(0.9264 -0.3764 0.3764 0.9264 -54.2786 80.0258)" style="fill:#F0C66C;" cx="177.631" cy="178.901" rx="27.109" ry="27.109"/>
			
				<ellipse id="Ellipse_00000161625256400150880080000012379079514579207047_" transform="matrix(0.9111 -0.4121 0.4121 0.9111 -57.9402 89.098)" style="fill:none;stroke:#F0C66C;stroke-width:0.5;stroke-miterlimit:10;" cx="177.631" cy="178.901" rx="30.022" ry="30.022"/>
			<path style="fill:none;stroke:#FFFFFF;stroke-miterlimit:10;" d="M170.924,180.844l-4.931,12.565
				c-0.154,0.392,0.268,0.761,0.636,0.556l3.747-2.082c0.248-0.138,0.561-0.013,0.646,0.258l1.282,4.071
				c0.127,0.403,0.69,0.423,0.846,0.03l4.451-11.271c0.078-0.199,0.006-0.425-0.173-0.541l-5.841-3.799
				C171.348,180.476,171.027,180.579,170.924,180.844z"/>
			<path style="fill:none;stroke:#FFFFFF;stroke-miterlimit:10;" d="M184.339,181.404l4.931,12.565
				c0.154,0.392-0.268,0.761-0.636,0.556l-3.747-2.082c-0.248-0.138-0.561-0.013-0.646,0.258l-1.282,4.071
				c-0.127,0.403-0.69,0.423-0.846,0.03l-4.451-11.271c-0.078-0.199-0.006-0.425,0.173-0.541l5.841-3.799
				C183.915,181.037,184.235,181.14,184.339,181.404z"/>
			<circle style="fill:#F0C66C;stroke:#FFFFFF;stroke-miterlimit:10;" cx="177.631" cy="174.034" r="13.318"/>
			<path style="fill:#FFFFFF;stroke:#F0C66C;stroke-miterlimit:10;" d="M183.919,174.034c0,3.472-2.815,6.287-6.288,6.287
				s-6.288-2.815-6.288-6.287c0-3.473,2.815-6.288,6.288-6.288S183.919,170.562,183.919,174.034z"/>
			<g>
				<path style="fill:#F0C66C;" d="M176.463,176.365c-0.246,0.228-0.641,0.16-0.797-0.136l-0.989-1.87
					c-0.129-0.244-0.036-0.547,0.208-0.676c0.246-0.129,0.547-0.036,0.676,0.208l0.691,1.307l3.553-3.29
					c0.202-0.189,0.519-0.176,0.707,0.027c0.188,0.203,0.176,0.519-0.027,0.706L176.463,176.365z"/>
			</g>
		</g>
		<g>
			
				<ellipse id="Ellipse_00000046328785889648161480000012095558864803588772_" transform="matrix(0.9264 -0.3764 0.3764 0.9264 -80.2104 54.1509)" style="fill:#F0C66C;" cx="98.457" cy="232.318" rx="27.109" ry="27.109"/>
			
				<ellipse id="Ellipse_00000008107827841384048480000008971723217042154133_" transform="matrix(0.9511 -0.3088 0.3088 0.9511 -66.9259 41.7557)" style="fill:none;stroke:#F0C66C;stroke-width:0.5;stroke-miterlimit:10;" cx="98.457" cy="232.318" rx="30.022" ry="30.022"/>
			<path style="fill:none;stroke:#FFFFFF;stroke-miterlimit:10;" d="M83.349,234.436c0.543,6.519,5.754,11.712,12.282,12.221
				c0.568,0.044,1.057-0.403,1.057-0.973v-11.338c0-0.537-0.435-0.971-0.972-0.971H84.321
				C83.75,233.374,83.301,233.866,83.349,234.436z"/>
			<path style="fill:none;stroke:#FFFFFF;stroke-miterlimit:10;" d="M98.458,234.346v11.338c0,0.57,0.489,1.017,1.057,0.973
				c6.528-0.51,11.739-5.703,12.282-12.221c0.048-0.57-0.401-1.061-0.972-1.061H99.43C98.893,233.374,98.458,233.809,98.458,234.346
				z"/>
			<path style="fill:#FFFFFF;" d="M113.444,228.44c-0.543-6.519-5.754-11.712-12.282-12.221c-0.568-0.044-1.057,0.403-1.057,0.973
				v11.338c0,0.537,0.435,0.972,0.972,0.972h11.395C113.043,229.501,113.491,229.009,113.444,228.44z"/>
			<path style="fill:none;stroke:#FFFFFF;stroke-miterlimit:10;" d="M96.688,230.752v-11.338c0-0.57-0.489-1.017-1.057-0.973
				c-6.528,0.51-11.739,5.703-12.282,12.221c-0.048,0.57,0.401,1.061,0.973,1.061h11.395
				C96.253,231.724,96.688,231.289,96.688,230.752z"/>
		</g>
		<g>
			
				<ellipse id="Ellipse_00000143595218871136369700000006950580999599198886_" transform="matrix(0.9264 -0.3764 0.3764 0.9264 -44.3785 116.4358)" style="fill:#F0C66C;" cx="275.748" cy="171.774" rx="27.109" ry="27.109"/>
			
				<ellipse id="Ellipse_00000084493103705689088950000005043844548873175961_" transform="matrix(0.9267 -0.3758 0.3758 0.9267 -44.3389 116.207)" style="fill:none;stroke:#F0C66C;stroke-width:0.5;stroke-miterlimit:10;" cx="275.748" cy="171.774" rx="30.022" ry="30.022"/>
			<path style="fill:#FFFFFF;" d="M257.485,172.788h12.386c0.089,0,0.161,0.067,0.162,0.156c0.008,0.965-0.241,6.076-6.367,6.076
				c-6.026,0-6.36-5.033-6.365-6.053C257.299,172.865,257.382,172.788,257.485,172.788z"/>
			<path style="fill:none;stroke:#FFFFFF;stroke-miterlimit:10;" d="M257.736,172.392l5.803-11.122c0.037-0.071,0.132-0.071,0.169,0
				l5.805,11.128c0.091,0.175-0.027,0.39-0.215,0.39h-11.343C257.764,172.788,257.643,172.57,257.736,172.392z"/>
			<path style="fill:#FFFFFF;" d="M283.397,186.957h-15.39c-0.35,0-0.573-0.375-0.406-0.682l1.433-2.638
				c0.209-0.385,0.612-0.625,1.05-0.625h11.075c0.422,0,0.813,0.223,1.028,0.586l1.592,2.686
				C283.957,186.58,283.743,186.957,283.397,186.957z"/>
			<rect x="274.601" y="157.848" style="fill:#FFFFFF;" width="2.187" height="25.164"/>
			<path style="fill:#FFFFFF;" d="M278.258,159.155c0,1.416-1.148,2.564-2.564,2.564c-1.416,0-2.564-1.148-2.564-2.564
				c0-1.416,1.148-2.564,2.564-2.564C277.111,156.591,278.258,157.739,278.258,159.155z"/>
			<path style="fill:none;stroke:#FFFFFF;stroke-miterlimit:10;" d="M263.729,161.27c0,0,7.533,0.148,10.097-2.416"/>
			<path style="fill:#FFFFFF;" d="M293.97,172.788h-12.281c-0.124,0-0.226,0.095-0.225,0.219c0.005,1.106,0.365,6.013,6.367,6.013
				c5.947,0,6.35-4.901,6.365-6.011C294.197,172.885,294.095,172.788,293.97,172.788z"/>
			<path style="fill:none;stroke:#FFFFFF;stroke-miterlimit:10;" d="M293.697,172.398l-5.621-10.845
				c-0.099-0.192-0.361-0.192-0.461,0l-5.62,10.845c-0.091,0.176,0.03,0.39,0.221,0.39h11.26
				C293.667,172.788,293.788,172.574,293.697,172.398z"/>
			<path style="fill:none;stroke:#FFFFFF;stroke-miterlimit:10;" d="M287.829,161.409c0,0-7.659,0.009-10.223-2.555"/>
		</g>
	</g>
	
		<line style="fill:none;stroke:#315782;stroke-linecap:round;stroke-miterlimit:10;" x1="57.44" y1="385.843" x2="444.078" y2="385.843"/>
</g>
</svg>
