<svg xmlns="http://www.w3.org/2000/svg" width="1139" height="157" viewBox="0 0 1139 157" fill="none"><g opacity="0.5"><rect x="21.1432" y="14" width="7.27332" height="7.27332" transform="rotate(135 21.1432 14)" fill="#AFAFAF"></rect><rect x="26.586" y="14" width="14.9707" height="14.9707" transform="rotate(135 26.586 14)" stroke="#AFAFAF" stroke-width="2"></rect><rect x="1128.14" y="144" width="7.27332" height="7.27332" transform="rotate(135 1128.14 144)" fill="#AFAFAF"></rect><rect x="1133.59" y="144" width="14.9707" height="14.9707" transform="rotate(135 1133.59 144)" stroke="#AFAFAF" stroke-width="2"></rect><path d="M33.5 79H1105.1C1123.1 79 1137.6 64.4 1137.6 46.5C1137.6 28.6 1123 14 1105.1 14H26.5" stroke="#AFAFAF" stroke-width="2" stroke-miterlimit="10"></path><path d="M1112.5 144H33.9C16 144 1.40002 129.4 1.40002 111.5C1.40002 93.6 15.9 79 33.9 79H1105.5" stroke="#AFAFAF" stroke-width="2" stroke-miterlimit="10"></path><path d="M915 79L930 66.9426L930 92.0574L915 79Z" fill="#D9D9D9"></path><path d="M426 14L411 26.0574L411 0.942627L426 14Z" fill="#D9D9D9"></path><path d="M297 144L282 156.057L282 130.943L297 144Z" fill="#D9D9D9"></path></g></svg>