<svg width="627" height="501" viewBox="0 0 627 501" fill="none" xmlns="http://www.w3.org/2000/svg">
<path d="M457.697 462.872C453.914 462.872 450.716 461.666 450.393 460.075C450.057 458.4 453.062 456.925 457.112 456.791C468.833 456.396 480.448 455.5 491.628 454.137C495.517 453.662 499.598 454.586 500.743 456.202C501.881 457.816 499.654 459.51 495.765 459.985C483.634 461.465 471.035 462.433 458.313 462.867C458.107 462.872 457.902 462.877 457.715 462.877L457.697 462.872ZM527.569 454.33C524.956 454.33 522.424 453.747 521.099 452.722C519.177 451.242 520.527 449.396 524.092 448.598C534.394 446.303 544.174 443.548 553.152 440.416C556.25 439.331 560.885 439.504 563.479 440.795C566.08 442.086 565.682 444.005 562.571 445.084C552.816 448.482 542.208 451.467 531.016 453.966C529.915 454.209 528.727 454.33 527.557 454.33H527.569ZM583.344 434.88C581.758 434.88 580.159 434.666 578.815 434.227C575.63 433.186 575.07 431.273 577.577 429.951C584.856 426.114 591.133 421.964 596.254 417.627C598.045 416.116 602.432 415.494 606.071 416.232C609.704 416.976 611.204 418.796 609.431 420.307C603.856 425.029 597.019 429.538 589.112 433.715C587.656 434.477 585.516 434.88 583.344 434.88ZM615.279 407.722C614.706 407.722 614.134 407.696 613.568 407.637C609.617 407.247 607.197 405.602 608.137 403.962C610.88 399.224 612.286 394.386 612.33 389.58C612.348 387.905 615.633 386.547 619.665 386.547H619.696C623.746 386.552 627.019 387.923 627 389.604C626.956 394.879 625.401 400.185 622.409 405.383C621.606 406.777 618.595 407.717 615.279 407.717V407.722ZM615.472 377.543C612.156 377.543 609.132 376.598 608.342 375.196C605.673 370.525 601.666 365.937 596.447 361.563C594.642 360.06 596.123 358.232 599.744 357.483C603.371 356.732 607.77 357.349 609.574 358.852C615.297 363.641 619.684 368.666 622.614 373.789C623.553 375.428 621.108 377.068 617.176 377.458C616.604 377.512 616.032 377.543 615.472 377.543ZM583.257 350.47C581.117 350.47 578.989 350.08 577.533 349.337C570.23 345.572 561.899 342.107 552.791 339.024C549.649 337.963 549.164 336.044 551.733 334.74C554.284 333.436 558.907 333.243 562.042 334.301C571.947 337.648 581.011 341.423 588.962 345.518C591.501 346.827 591.015 348.745 587.861 349.799C586.511 350.256 584.887 350.475 583.257 350.475V350.47ZM526.81 331.384C525.678 331.384 524.521 331.275 523.451 331.043C513.049 328.812 502.062 327.023 490.776 325.724C486.875 325.275 484.586 323.594 485.674 321.972C486.757 320.351 490.795 319.4 494.708 319.852C506.958 321.265 518.903 323.209 530.195 325.628C533.791 326.4 535.215 328.234 533.349 329.734C532.043 330.782 529.479 331.384 526.823 331.384H526.81ZM135.77 320.883C135.123 320.883 134.451 320.844 133.804 320.772C121.554 319.359 109.627 317.402 98.3356 314.977C94.7396 314.205 93.3274 312.364 95.1938 310.872C97.054 309.38 101.484 308.796 105.08 309.568C115.469 311.804 126.456 313.601 137.736 314.905C141.637 315.357 143.926 317.038 142.844 318.657C141.929 320.005 138.999 320.888 135.782 320.888L135.77 320.883ZM71.1045 306.968C69.4745 306.968 67.832 306.743 66.4695 306.286C56.6086 302.948 47.5627 299.175 39.5682 295.083C37.0112 293.774 37.4964 291.86 40.6507 290.799C43.8049 289.741 48.4088 289.942 50.9658 291.251C58.3133 295.021 66.6624 298.494 75.7394 301.571C78.8813 302.635 79.3479 304.549 76.7846 305.86C75.3288 306.596 73.2198 306.981 71.0921 306.981L71.1045 306.968ZM25.3211 283.466C22.6522 283.466 20.0703 282.857 18.7762 281.803C12.9405 277.045 8.39268 272.056 5.25087 266.969C4.243 265.343 6.60092 263.68 10.5328 263.259C14.4523 262.838 18.4527 263.819 19.4668 265.451C22.3411 270.107 26.5094 274.674 31.8661 279.035C33.6952 280.536 32.258 282.369 28.6496 283.13C27.5795 283.355 26.4534 283.458 25.3336 283.458L25.3211 283.466ZM7.36615 254.206C3.39067 254.206 0.118208 252.884 0.031107 251.222C3.97524e-07 250.765 0 250.308 0 249.851C0 247.87 0.22397 245.866 0.634584 243.899C1.2505 241.053 2.30192 238.19 3.78262 235.388C4.65361 233.744 8.56688 232.708 12.5299 233.067C16.4867 233.426 18.9815 235.053 18.1167 236.698C16.7667 239.251 15.8024 241.851 15.2549 244.441C14.8754 246.23 14.6825 248.053 14.6825 249.856C14.6825 250.271 14.6825 250.69 14.7136 251.105C14.8007 252.786 11.578 254.175 7.52791 254.212C7.48436 254.212 7.42214 254.212 7.37859 254.212L7.36615 254.206ZM22.8575 224.722C21.7998 224.722 20.7173 224.624 19.7032 224.423C16.0512 223.697 14.4959 221.882 16.2379 220.358C21.6816 215.62 28.4629 211.081 36.3704 206.878C38.8589 205.556 43.469 205.318 46.6668 206.353C49.8646 207.389 50.4183 209.302 47.9297 210.629C40.6818 214.487 34.4604 218.641 29.4708 222.984C28.2079 224.082 25.5824 224.722 22.8388 224.722H22.8575ZM67.6143 200.877C65.5177 200.877 63.4335 200.505 61.9777 199.787C59.3834 198.496 59.794 196.575 62.8922 195.498C72.6287 192.111 83.2673 189.131 94.4908 186.634C98.0681 185.842 102.498 186.402 104.42 187.884C106.33 189.369 104.98 191.21 101.415 192.008C91.069 194.303 81.2889 197.045 72.3239 200.164C70.9427 200.639 69.2692 200.877 67.6143 200.877ZM131.85 186.616C128.684 186.616 125.753 185.756 124.814 184.424C123.669 182.808 125.896 181.114 129.785 180.647C141.948 179.164 154.546 178.196 167.238 177.77C171.288 177.636 174.822 178.886 175.145 180.561C175.469 182.237 172.457 183.711 168.426 183.843C156.717 184.241 145.102 185.129 133.91 186.495C133.219 186.58 132.528 186.616 131.838 186.616H131.85ZM457.51 169.797C454.294 169.797 451.345 168.914 450.449 167.566C449.366 165.947 451.656 164.266 455.557 163.814C466.836 162.51 477.811 160.713 488.213 158.477C491.809 157.705 496.238 158.289 498.099 159.781C499.965 161.273 498.553 163.114 494.957 163.886C483.677 166.319 471.738 168.268 459.488 169.681C458.829 169.753 458.17 169.789 457.522 169.789L457.51 169.797ZM522.169 155.882C520.048 155.882 517.932 155.497 516.483 154.762C513.913 153.458 514.399 151.539 517.534 150.478C526.617 147.403 534.967 143.93 542.314 140.16C544.865 138.856 549.487 138.655 552.629 139.708C555.783 140.769 556.262 142.688 553.712 143.992C545.717 148.084 536.665 151.857 526.81 155.195C525.442 155.657 523.799 155.877 522.169 155.877V155.882ZM567.959 132.386C566.839 132.386 565.7 132.277 564.643 132.05C561.034 131.288 559.597 129.455 561.426 127.957C566.77 123.596 570.951 119.026 573.826 114.373C574.84 112.739 578.828 111.758 582.759 112.178C586.673 112.599 589.049 114.257 588.041 115.889C584.9 120.975 580.339 125.964 574.516 130.723C573.222 131.776 570.64 132.386 567.971 132.386H567.959ZM585.914 103.126C585.914 103.126 585.808 103.126 585.764 103.126C581.714 103.09 578.504 101.7 578.579 100.02C578.591 99.6064 578.61 99.1856 578.61 98.7698C578.61 96.9676 578.417 95.1472 578.037 93.3553C577.477 90.7655 576.526 88.1654 575.176 85.6117C574.311 83.967 576.806 82.348 580.762 81.9814C584.725 81.6225 588.626 82.663 589.503 84.3026C590.99 87.1042 592.042 89.9676 592.658 92.8131C593.087 94.7806 593.292 96.7842 593.292 98.7647C593.292 99.2217 593.292 99.6787 593.261 100.136C593.174 101.799 589.92 103.121 585.926 103.121L585.914 103.126ZM570.422 73.6414C567.679 73.6414 565.053 73.001 563.79 71.9062C558.801 67.5632 552.598 63.4061 545.338 59.5512C542.843 58.224 543.397 56.3107 546.594 55.2753C549.798 54.2399 554.402 54.4774 556.897 55.7994C564.804 60.003 571.58 64.5345 577.023 69.2803C578.765 70.796 577.216 72.6189 573.558 73.3444C572.55 73.5433 571.461 73.6414 570.404 73.6414H570.422ZM525.666 49.7988C524.004 49.7988 522.331 49.5664 520.956 49.0861C511.991 45.967 502.205 43.2249 491.865 40.9294C488.287 40.1367 486.95 38.2906 488.86 36.8033C490.763 35.3187 495.212 34.7635 498.789 35.5562C510.013 38.0479 520.645 41.025 530.388 44.4126C533.498 45.4919 533.909 47.4155 531.296 48.7014C529.846 49.4192 527.762 49.791 525.666 49.791V49.7988ZM461.423 35.5355C460.733 35.5355 460.048 35.4942 459.358 35.4142C448.147 34.0509 436.544 33.1601 424.835 32.765C420.804 32.6307 417.799 31.1564 418.122 29.4806C418.44 27.8049 421.98 26.5578 426.023 26.692C438.728 27.1181 451.332 28.0863 463.476 29.5659C467.365 30.0409 469.598 31.7296 468.454 33.3434C467.514 34.6706 464.596 35.5355 461.411 35.5355H461.423Z" fill="#84DEFF"/>
<path d="M417.883 67.8919C393.926 85.0912 349.113 80.6058 226.066 80.7233C111.116 80.8285 64.6728 84.8231 41.8663 67.8919C28.8556 58.224 28.0528 45.0914 28.019 44.4356C27.3612 28.4757 43.9037 15.8051 54.6813 9.97715C85.1687 -6.50245 123.445 2.60453 234.378 2.2787C337.279 1.9776 375.576 -6.06113 406.455 9.97715C431.063 22.7591 433.117 39.6656 433.117 39.6656C434.517 51.2329 426.475 61.7216 417.883 67.8919Z" fill="#563DD3"/>
<path d="M569.871 209.891C545.911 227.091 501.1 222.606 378.059 222.723C263.112 222.828 216.667 226.823 193.864 209.891C180.841 200.222 180.044 187.085 180.019 186.433C179.363 170.472 195.897 157.801 206.682 151.977C237.165 135.496 275.436 144.6 386.374 144.28C489.273 143.977 527.569 135.94 558.454 151.977C583.06 164.76 585.117 181.669 585.117 181.669C586.515 193.235 578.475 203.727 569.878 209.895L569.871 209.891Z" fill="#2E8799"/>
<path d="M466.889 348.891C442.927 366.092 398.118 361.604 275.069 361.722C160.117 361.829 113.673 365.824 90.871 348.891C77.8486 339.223 77.0532 326.086 77.0191 325.43C76.3603 309.47 92.8986 296.8 103.678 290.976C134.157 274.497 172.439 283.599 283.374 283.28C386.28 282.977 424.576 274.94 455.458 290.976C480.072 303.758 482.117 320.666 482.117 320.666C483.516 332.232 475.478 342.722 466.879 348.891H466.889Z" fill="#FFBF18"/>
<path d="M569.871 486.89C545.911 504.092 501.1 499.604 378.059 499.722C263.112 499.829 216.667 503.824 193.864 486.89C180.841 477.221 180.044 464.084 180.019 463.432C179.363 447.471 195.897 434.802 206.682 428.978C237.165 412.497 275.436 421.601 386.374 421.279C489.273 420.978 527.569 412.939 558.454 428.978C583.06 441.76 585.117 458.668 585.117 458.668C586.515 470.234 578.475 480.725 569.878 486.896L569.871 486.89Z" fill="#F45665"/>
<path d="M144.76 50V47.56H148.08C148.693 47.56 149.173 47.38 149.52 47.02C149.867 46.66 150.04 46.22 150.04 45.7C150.04 45.34 149.96 45.02 149.8 44.74C149.64 44.46 149.413 44.24 149.12 44.08C148.84 43.92 148.493 43.84 148.08 43.84H144.76V41.46H147.82C148.34 41.46 148.76 41.3333 149.08 41.08C149.4 40.8133 149.56 40.4133 149.56 39.88C149.56 39.36 149.4 38.9733 149.08 38.72C148.76 38.4533 148.34 38.32 147.82 38.32H144.76V35.88H148.42C149.327 35.88 150.093 36.0467 150.72 36.38C151.36 36.7133 151.847 37.16 152.18 37.72C152.513 38.28 152.68 38.9 152.68 39.58C152.68 40.4467 152.4 41.18 151.84 41.78C151.28 42.38 150.453 42.7933 149.36 43.02L149.44 41.96C150.627 42.1867 151.54 42.6467 152.18 43.34C152.833 44.0333 153.16 44.8867 153.16 45.9C153.16 46.6733 152.967 47.3733 152.58 48C152.207 48.6133 151.66 49.1 150.94 49.46C150.233 49.82 149.38 50 148.38 50H144.76ZM142.36 50V35.88H145.46V50H142.36ZM159.213 50.22C158.319 50.22 157.526 50.04 156.833 49.68C156.153 49.3067 155.619 48.8 155.233 48.16C154.846 47.5067 154.653 46.76 154.653 45.92V40.28H157.713V45.88C157.713 46.2133 157.766 46.5 157.873 46.74C157.993 46.98 158.166 47.1667 158.393 47.3C158.619 47.4333 158.893 47.5 159.213 47.5C159.666 47.5 160.026 47.36 160.293 47.08C160.559 46.7867 160.693 46.3867 160.693 45.88V40.28H163.753V45.9C163.753 46.7533 163.559 47.5067 163.173 48.16C162.786 48.8 162.253 49.3067 161.573 49.68C160.893 50.04 160.106 50.22 159.213 50.22ZM169.214 50.24C168.64 50.24 168.074 50.1667 167.514 50.02C166.967 49.8733 166.454 49.6667 165.974 49.4C165.507 49.12 165.107 48.8 164.774 48.44L166.514 46.68C166.834 47.0267 167.214 47.3 167.654 47.5C168.094 47.6867 168.574 47.78 169.094 47.78C169.454 47.78 169.727 47.7267 169.914 47.62C170.114 47.5133 170.214 47.3667 170.214 47.18C170.214 46.94 170.094 46.76 169.854 46.64C169.627 46.5067 169.334 46.3933 168.974 46.3C168.614 46.1933 168.234 46.08 167.834 45.96C167.434 45.84 167.054 45.6733 166.694 45.46C166.334 45.2467 166.04 44.9533 165.814 44.58C165.587 44.1933 165.474 43.7067 165.474 43.12C165.474 42.4933 165.634 41.9533 165.954 41.5C166.274 41.0333 166.727 40.6667 167.314 40.4C167.9 40.1333 168.587 40 169.374 40C170.2 40 170.96 40.1467 171.654 40.44C172.36 40.72 172.934 41.14 173.374 41.7L171.634 43.46C171.327 43.1 170.98 42.8467 170.594 42.7C170.22 42.5533 169.854 42.48 169.494 42.48C169.147 42.48 168.887 42.5333 168.714 42.64C168.54 42.7333 168.454 42.8733 168.454 43.06C168.454 43.26 168.567 43.42 168.794 43.54C169.02 43.66 169.314 43.7667 169.674 43.86C170.034 43.9533 170.414 44.0667 170.814 44.2C171.214 44.3333 171.594 44.5133 171.954 44.74C172.314 44.9667 172.607 45.2733 172.834 45.66C173.06 46.0333 173.174 46.5267 173.174 47.14C173.174 48.0867 172.814 48.84 172.094 49.4C171.387 49.96 170.427 50.24 169.214 50.24ZM174.834 50V40.28H177.894V50H174.834ZM176.374 38.94C175.894 38.94 175.494 38.78 175.174 38.46C174.867 38.1267 174.714 37.7267 174.714 37.26C174.714 36.78 174.867 36.38 175.174 36.06C175.494 35.74 175.894 35.58 176.374 35.58C176.854 35.58 177.247 35.74 177.554 36.06C177.861 36.38 178.014 36.78 178.014 37.26C178.014 37.7267 177.861 38.1267 177.554 38.46C177.247 38.78 176.854 38.94 176.374 38.94ZM186.469 50V44.46C186.469 43.9533 186.309 43.5467 185.989 43.24C185.682 42.92 185.289 42.76 184.809 42.76C184.475 42.76 184.182 42.8333 183.929 42.98C183.675 43.1133 183.475 43.3133 183.329 43.58C183.182 43.8333 183.109 44.1267 183.109 44.46L181.929 43.88C181.929 43.12 182.095 42.4533 182.429 41.88C182.762 41.3067 183.222 40.8667 183.809 40.56C184.409 40.24 185.082 40.08 185.829 40.08C186.549 40.08 187.182 40.2533 187.729 40.6C188.289 40.9333 188.729 41.38 189.049 41.94C189.369 42.5 189.529 43.1133 189.529 43.78V50H186.469ZM180.049 50V40.28H183.109V50H180.049ZM196.294 50.22C195.241 50.22 194.301 50.0067 193.474 49.58C192.661 49.14 192.021 48.5333 191.554 47.76C191.087 46.9867 190.854 46.1133 190.854 45.14C190.854 44.1667 191.081 43.3 191.534 42.54C192.001 41.7667 192.627 41.16 193.414 40.72C194.201 40.28 195.087 40.06 196.074 40.06C197.034 40.06 197.881 40.2667 198.614 40.68C199.347 41.0933 199.921 41.6667 200.334 42.4C200.761 43.1333 200.974 43.9733 200.974 44.92C200.974 45.0933 200.961 45.28 200.934 45.48C200.921 45.6667 200.887 45.8867 200.834 46.14L192.454 46.16V44.06L199.534 44.04L198.214 44.92C198.201 44.36 198.114 43.9 197.954 43.54C197.794 43.1667 197.554 42.8867 197.234 42.7C196.927 42.5 196.547 42.4 196.094 42.4C195.614 42.4 195.194 42.5133 194.834 42.74C194.487 42.9533 194.214 43.26 194.014 43.66C193.827 44.06 193.734 44.5467 193.734 45.12C193.734 45.6933 193.834 46.1867 194.034 46.6C194.247 47 194.541 47.3133 194.914 47.54C195.301 47.7533 195.754 47.86 196.274 47.86C196.754 47.86 197.187 47.78 197.574 47.62C197.961 47.4467 198.301 47.1933 198.594 46.86L200.274 48.54C199.794 49.1 199.214 49.52 198.534 49.8C197.854 50.08 197.107 50.22 196.294 50.22ZM205.991 50.24C205.418 50.24 204.851 50.1667 204.291 50.02C203.744 49.8733 203.231 49.6667 202.751 49.4C202.284 49.12 201.884 48.8 201.551 48.44L203.291 46.68C203.611 47.0267 203.991 47.3 204.431 47.5C204.871 47.6867 205.351 47.78 205.871 47.78C206.231 47.78 206.504 47.7267 206.691 47.62C206.891 47.5133 206.991 47.3667 206.991 47.18C206.991 46.94 206.871 46.76 206.631 46.64C206.404 46.5067 206.111 46.3933 205.751 46.3C205.391 46.1933 205.011 46.08 204.611 45.96C204.211 45.84 203.831 45.6733 203.471 45.46C203.111 45.2467 202.818 44.9533 202.591 44.58C202.364 44.1933 202.251 43.7067 202.251 43.12C202.251 42.4933 202.411 41.9533 202.731 41.5C203.051 41.0333 203.504 40.6667 204.091 40.4C204.678 40.1333 205.364 40 206.151 40C206.978 40 207.738 40.1467 208.431 40.44C209.138 40.72 209.711 41.14 210.151 41.7L208.411 43.46C208.104 43.1 207.758 42.8467 207.371 42.7C206.998 42.5533 206.631 42.48 206.271 42.48C205.924 42.48 205.664 42.5333 205.491 42.64C205.318 42.7333 205.231 42.8733 205.231 43.06C205.231 43.26 205.344 43.42 205.571 43.54C205.798 43.66 206.091 43.7667 206.451 43.86C206.811 43.9533 207.191 44.0667 207.591 44.2C207.991 44.3333 208.371 44.5133 208.731 44.74C209.091 44.9667 209.384 45.2733 209.611 45.66C209.838 46.0333 209.951 46.5267 209.951 47.14C209.951 48.0867 209.591 48.84 208.871 49.4C208.164 49.96 207.204 50.24 205.991 50.24ZM215.151 50.24C214.578 50.24 214.011 50.1667 213.451 50.02C212.905 49.8733 212.391 49.6667 211.911 49.4C211.445 49.12 211.045 48.8 210.711 48.44L212.451 46.68C212.771 47.0267 213.151 47.3 213.591 47.5C214.031 47.6867 214.511 47.78 215.031 47.78C215.391 47.78 215.665 47.7267 215.851 47.62C216.051 47.5133 216.151 47.3667 216.151 47.18C216.151 46.94 216.031 46.76 215.791 46.64C215.565 46.5067 215.271 46.3933 214.911 46.3C214.551 46.1933 214.171 46.08 213.771 45.96C213.371 45.84 212.991 45.6733 212.631 45.46C212.271 45.2467 211.978 44.9533 211.751 44.58C211.525 44.1933 211.411 43.7067 211.411 43.12C211.411 42.4933 211.571 41.9533 211.891 41.5C212.211 41.0333 212.665 40.6667 213.251 40.4C213.838 40.1333 214.525 40 215.311 40C216.138 40 216.898 40.1467 217.591 40.44C218.298 40.72 218.871 41.14 219.311 41.7L217.571 43.46C217.265 43.1 216.918 42.8467 216.531 42.7C216.158 42.5533 215.791 42.48 215.431 42.48C215.085 42.48 214.825 42.5333 214.651 42.64C214.478 42.7333 214.391 42.8733 214.391 43.06C214.391 43.26 214.505 43.42 214.731 43.54C214.958 43.66 215.251 43.7667 215.611 43.86C215.971 43.9533 216.351 44.0667 216.751 44.2C217.151 44.3333 217.531 44.5133 217.891 44.74C218.251 44.9667 218.545 45.2733 218.771 45.66C218.998 46.0333 219.111 46.5267 219.111 47.14C219.111 48.0867 218.751 48.84 218.031 49.4C217.325 49.96 216.365 50.24 215.151 50.24ZM231.56 50.22C230.507 50.22 229.527 50.04 228.62 49.68C227.727 49.3067 226.94 48.7867 226.26 48.12C225.593 47.4533 225.073 46.68 224.7 45.8C224.327 44.9067 224.14 43.9467 224.14 42.92C224.14 41.8933 224.327 40.94 224.7 40.06C225.073 39.1667 225.593 38.3933 226.26 37.74C226.927 37.0867 227.707 36.58 228.6 36.22C229.507 35.8467 230.487 35.66 231.54 35.66C232.66 35.66 233.653 35.84 234.52 36.2C235.4 36.56 236.167 37.0533 236.82 37.68L234.72 39.8C234.347 39.4 233.893 39.0867 233.36 38.86C232.84 38.6333 232.233 38.52 231.54 38.52C230.927 38.52 230.36 38.6267 229.84 38.84C229.333 39.04 228.893 39.3333 228.52 39.72C228.16 40.1067 227.873 40.5733 227.66 41.12C227.46 41.6667 227.36 42.2667 227.36 42.92C227.36 43.5867 227.46 44.1933 227.66 44.74C227.873 45.2867 228.16 45.7533 228.52 46.14C228.893 46.5267 229.333 46.8267 229.84 47.04C230.36 47.2533 230.927 47.36 231.54 47.36C232.26 47.36 232.887 47.2467 233.42 47.02C233.953 46.7933 234.413 46.48 234.8 46.08L236.92 48.2C236.24 48.8267 235.46 49.32 234.58 49.68C233.713 50.04 232.707 50.22 231.56 50.22ZM242.815 50.22C241.815 50.22 240.908 50 240.095 49.56C239.295 49.1067 238.661 48.4933 238.195 47.72C237.728 46.9467 237.495 46.08 237.495 45.12C237.495 44.16 237.728 43.3 238.195 42.54C238.661 41.78 239.295 41.18 240.095 40.74C240.895 40.2867 241.801 40.06 242.815 40.06C243.828 40.06 244.735 40.28 245.535 40.72C246.335 41.16 246.968 41.7667 247.435 42.54C247.901 43.3 248.135 44.16 248.135 45.12C248.135 46.08 247.901 46.9467 247.435 47.72C246.968 48.4933 246.335 49.1067 245.535 49.56C244.735 50 243.828 50.22 242.815 50.22ZM242.815 47.44C243.255 47.44 243.641 47.3467 243.975 47.16C244.308 46.96 244.561 46.6867 244.735 46.34C244.921 45.98 245.015 45.5733 245.015 45.12C245.015 44.6667 244.921 44.2733 244.735 43.94C244.548 43.5933 244.288 43.3267 243.955 43.14C243.635 42.94 243.255 42.84 242.815 42.84C242.388 42.84 242.008 42.94 241.675 43.14C241.341 43.3267 241.081 43.5933 240.895 43.94C240.708 44.2867 240.615 44.6867 240.615 45.14C240.615 45.58 240.708 45.98 240.895 46.34C241.081 46.6867 241.341 46.96 241.675 47.16C242.008 47.3467 242.388 47.44 242.815 47.44ZM256.078 50V44.46C256.078 43.9533 255.918 43.5467 255.598 43.24C255.291 42.92 254.898 42.76 254.418 42.76C254.085 42.76 253.791 42.8333 253.538 42.98C253.285 43.1133 253.085 43.3133 252.938 43.58C252.791 43.8333 252.718 44.1267 252.718 44.46L251.538 43.88C251.538 43.12 251.705 42.4533 252.038 41.88C252.371 41.3067 252.831 40.8667 253.418 40.56C254.018 40.24 254.691 40.08 255.438 40.08C256.158 40.08 256.791 40.2533 257.338 40.6C257.898 40.9333 258.338 41.38 258.658 41.94C258.978 42.5 259.138 43.1133 259.138 43.78V50H256.078ZM249.658 50V40.28H252.718V50H249.658ZM262.366 50V36.26H265.426V50H262.366ZM260.166 42.88V40.28H267.626V42.88H260.166ZM268.975 50V40.28H272.035V50H268.975ZM270.515 38.94C270.035 38.94 269.635 38.78 269.315 38.46C269.008 38.1267 268.855 37.7267 268.855 37.26C268.855 36.78 269.008 36.38 269.315 36.06C269.635 35.74 270.035 35.58 270.515 35.58C270.995 35.58 271.388 35.74 271.695 36.06C272.001 36.38 272.155 36.78 272.155 37.26C272.155 37.7267 272.001 38.1267 271.695 38.46C271.388 38.78 270.995 38.94 270.515 38.94ZM280.609 50V44.46C280.609 43.9533 280.449 43.5467 280.129 43.24C279.823 42.92 279.429 42.76 278.949 42.76C278.616 42.76 278.323 42.8333 278.069 42.98C277.816 43.1133 277.616 43.3133 277.469 43.58C277.323 43.8333 277.249 44.1267 277.249 44.46L276.069 43.88C276.069 43.12 276.236 42.4533 276.569 41.88C276.903 41.3067 277.363 40.8667 277.949 40.56C278.549 40.24 279.223 40.08 279.969 40.08C280.689 40.08 281.323 40.2533 281.869 40.6C282.429 40.9333 282.869 41.38 283.189 41.94C283.509 42.5 283.669 43.1133 283.669 43.78V50H280.609ZM274.189 50V40.28H277.249V50H274.189ZM289.955 50.22C289.061 50.22 288.268 50.04 287.575 49.68C286.895 49.3067 286.361 48.8 285.975 48.16C285.588 47.5067 285.395 46.76 285.395 45.92V40.28H288.455V45.88C288.455 46.2133 288.508 46.5 288.615 46.74C288.735 46.98 288.908 47.1667 289.135 47.3C289.361 47.4333 289.635 47.5 289.955 47.5C290.408 47.5 290.768 47.36 291.035 47.08C291.301 46.7867 291.435 46.3867 291.435 45.88V40.28H294.495V45.9C294.495 46.7533 294.301 47.5067 293.915 48.16C293.528 48.8 292.995 49.3067 292.315 49.68C291.635 50.04 290.848 50.22 289.955 50.22ZM296.416 50V40.28H299.476V50H296.416ZM297.956 38.94C297.476 38.94 297.076 38.78 296.756 38.46C296.449 38.1267 296.296 37.7267 296.296 37.26C296.296 36.78 296.449 36.38 296.756 36.06C297.076 35.74 297.476 35.58 297.956 35.58C298.436 35.58 298.829 35.74 299.136 36.06C299.443 36.38 299.596 36.78 299.596 37.26C299.596 37.7267 299.443 38.1267 299.136 38.46C298.829 38.78 298.436 38.94 297.956 38.94ZM303.011 50V36.26H306.071V50H303.011ZM300.811 42.88V40.28H308.271V42.88H300.811ZM312.619 50.04L308.619 40.28H311.919L314.459 48.02H313.239L315.839 40.28H319.139L314.979 50.04H312.619ZM310.119 54.1L313.039 47.8L314.979 50.04L313.259 54.1H310.119Z" fill="white"/>
<path d="M293.36 191V176.88H296.5V191H293.36ZM295.76 191V188.28H303.5V191H295.76ZM295.76 185.1V182.48H302.8V185.1H295.76ZM295.76 179.58V176.88H303.4V179.58H295.76ZM311.405 191L309.065 187.22L308.405 186.8L304.585 181.28H308.165L310.345 184.82L310.985 185.22L314.945 191H311.405ZM304.405 191L308.385 185.34L310.125 187.3L307.745 191H304.405ZM310.965 186.78L309.225 184.82L311.425 181.28H314.745L310.965 186.78ZM321.707 191.2C321.054 191.2 320.454 191.073 319.907 190.82C319.361 190.567 318.914 190.22 318.567 189.78C318.221 189.327 318.021 188.813 317.967 188.24V184.14C318.021 183.567 318.221 183.047 318.567 182.58C318.914 182.113 319.361 181.747 319.907 181.48C320.454 181.213 321.054 181.08 321.707 181.08C322.627 181.08 323.441 181.3 324.147 181.74C324.867 182.18 325.427 182.78 325.827 183.54C326.241 184.3 326.447 185.167 326.447 186.14C326.447 187.113 326.241 187.98 325.827 188.74C325.427 189.5 324.867 190.1 324.147 190.54C323.441 190.98 322.627 191.2 321.707 191.2ZM316.107 195.1V181.28H319.167V183.78L318.667 186.14L319.127 188.5V195.1H316.107ZM321.147 188.44C321.587 188.44 321.967 188.34 322.287 188.14C322.621 187.94 322.881 187.667 323.067 187.32C323.254 186.973 323.347 186.58 323.347 186.14C323.347 185.687 323.254 185.287 323.067 184.94C322.881 184.593 322.621 184.327 322.287 184.14C321.967 183.94 321.594 183.84 321.167 183.84C320.741 183.84 320.361 183.94 320.027 184.14C319.707 184.327 319.454 184.593 319.267 184.94C319.081 185.287 318.987 185.687 318.987 186.14C318.987 186.58 319.074 186.973 319.247 187.32C319.434 187.667 319.694 187.94 320.027 188.14C320.361 188.34 320.734 188.44 321.147 188.44ZM332.802 191.22C331.749 191.22 330.809 191.007 329.982 190.58C329.169 190.14 328.529 189.533 328.062 188.76C327.595 187.987 327.362 187.113 327.362 186.14C327.362 185.167 327.589 184.3 328.042 183.54C328.509 182.767 329.135 182.16 329.922 181.72C330.709 181.28 331.595 181.06 332.582 181.06C333.542 181.06 334.389 181.267 335.122 181.68C335.855 182.093 336.429 182.667 336.842 183.4C337.269 184.133 337.482 184.973 337.482 185.92C337.482 186.093 337.469 186.28 337.442 186.48C337.429 186.667 337.395 186.887 337.342 187.14L328.962 187.16V185.06L336.042 185.04L334.722 185.92C334.709 185.36 334.622 184.9 334.462 184.54C334.302 184.167 334.062 183.887 333.742 183.7C333.435 183.5 333.055 183.4 332.602 183.4C332.122 183.4 331.702 183.513 331.342 183.74C330.995 183.953 330.722 184.26 330.522 184.66C330.335 185.06 330.242 185.547 330.242 186.12C330.242 186.693 330.342 187.187 330.542 187.6C330.755 188 331.049 188.313 331.422 188.54C331.809 188.753 332.262 188.86 332.782 188.86C333.262 188.86 333.695 188.78 334.082 188.62C334.469 188.447 334.809 188.193 335.102 187.86L336.782 189.54C336.302 190.1 335.722 190.52 335.042 190.8C334.362 191.08 333.615 191.22 332.802 191.22ZM338.959 191V181.28H342.019V191H338.959ZM342.019 185.66L340.739 184.66C340.992 183.527 341.419 182.647 342.019 182.02C342.619 181.393 343.452 181.08 344.519 181.08C344.986 181.08 345.392 181.153 345.739 181.3C346.099 181.433 346.412 181.647 346.679 181.94L344.859 184.24C344.726 184.093 344.559 183.98 344.359 183.9C344.159 183.82 343.932 183.78 343.679 183.78C343.172 183.78 342.766 183.94 342.459 184.26C342.166 184.567 342.019 185.033 342.019 185.66ZM348.972 191V177.26H352.032V191H348.972ZM346.772 183.88V181.28H354.232V183.88H346.772ZM359.669 191V176.88H362.809V191H359.669ZM368.988 191V177.08H372.128V191H368.988ZM364.568 179.62V176.88H376.548V179.62H364.568ZM388.458 191.22C387.431 191.22 386.464 191.033 385.558 190.66C384.664 190.287 383.884 189.773 383.218 189.12C382.551 188.453 382.024 187.68 381.638 186.8C381.264 185.907 381.078 184.947 381.078 183.92C381.078 182.893 381.271 181.94 381.658 181.06C382.044 180.18 382.578 179.413 383.258 178.76C383.951 178.093 384.758 177.58 385.678 177.22C386.598 176.847 387.584 176.66 388.638 176.66C389.851 176.66 390.951 176.88 391.938 177.32C392.938 177.76 393.764 178.367 394.418 179.14L392.278 181.28C391.824 180.693 391.291 180.253 390.678 179.96C390.064 179.667 389.371 179.52 388.598 179.52C387.771 179.52 387.031 179.707 386.378 180.08C385.724 180.44 385.211 180.953 384.838 181.62C384.478 182.273 384.298 183.04 384.298 183.92C384.298 184.8 384.478 185.573 384.838 186.24C385.198 186.907 385.691 187.427 386.317 187.8C386.944 188.173 387.664 188.36 388.478 188.36C389.304 188.36 390.004 188.207 390.578 187.9C391.164 187.58 391.611 187.127 391.918 186.54C392.238 185.94 392.398 185.213 392.398 184.36L394.478 185.76L388.178 185.66V183H395.598V183.46C395.598 185.153 395.291 186.58 394.678 187.74C394.078 188.887 393.238 189.753 392.158 190.34C391.091 190.927 389.858 191.22 388.458 191.22ZM401.541 191.22C400.647 191.22 399.854 191.04 399.161 190.68C398.481 190.307 397.947 189.8 397.561 189.16C397.174 188.507 396.981 187.76 396.981 186.92V181.28H400.041V186.88C400.041 187.213 400.094 187.5 400.201 187.74C400.321 187.98 400.494 188.167 400.721 188.3C400.947 188.433 401.221 188.5 401.541 188.5C401.994 188.5 402.354 188.36 402.621 188.08C402.887 187.787 403.021 187.387 403.021 186.88V181.28H406.081V186.9C406.081 187.753 405.887 188.507 405.501 189.16C405.114 189.8 404.581 190.307 403.901 190.68C403.221 191.04 402.434 191.22 401.541 191.22ZM408.002 191V181.28H411.062V191H408.002ZM409.542 179.94C409.062 179.94 408.662 179.78 408.342 179.46C408.035 179.127 407.882 178.727 407.882 178.26C407.882 177.78 408.035 177.38 408.342 177.06C408.662 176.74 409.062 176.58 409.542 176.58C410.022 176.58 410.415 176.74 410.722 177.06C411.029 177.38 411.182 177.78 411.182 178.26C411.182 178.727 411.029 179.127 410.722 179.46C410.415 179.78 410.022 179.94 409.542 179.94ZM417.357 191.2C416.437 191.2 415.617 190.98 414.897 190.54C414.19 190.1 413.63 189.5 413.217 188.74C412.817 187.98 412.617 187.113 412.617 186.14C412.617 185.167 412.817 184.3 413.217 183.54C413.63 182.78 414.19 182.18 414.897 181.74C415.617 181.3 416.437 181.08 417.357 181.08C418.023 181.08 418.623 181.207 419.157 181.46C419.703 181.713 420.15 182.067 420.497 182.52C420.857 182.96 421.057 183.467 421.097 184.04V188.14C421.057 188.713 420.863 189.233 420.517 189.7C420.17 190.153 419.723 190.52 419.177 190.8C418.63 191.067 418.023 191.2 417.357 191.2ZM417.897 188.44C418.337 188.44 418.717 188.347 419.037 188.16C419.357 187.96 419.61 187.687 419.797 187.34C419.983 186.993 420.077 186.593 420.077 186.14C420.077 185.687 419.983 185.293 419.797 184.96C419.623 184.613 419.37 184.34 419.037 184.14C418.717 183.94 418.343 183.84 417.917 183.84C417.49 183.84 417.11 183.94 416.777 184.14C416.457 184.34 416.197 184.613 415.997 184.96C415.81 185.307 415.717 185.7 415.717 186.14C415.717 186.58 415.81 186.973 415.997 187.32C416.183 187.667 416.443 187.94 416.777 188.14C417.11 188.34 417.483 188.44 417.897 188.44ZM422.957 191H419.957V188.38L420.417 186.02L419.897 183.66V176.48H422.957V191ZM429.171 191.2C428.278 191.2 427.478 190.98 426.771 190.54C426.078 190.1 425.525 189.5 425.111 188.74C424.711 187.98 424.511 187.113 424.511 186.14C424.511 185.167 424.711 184.3 425.111 183.54C425.525 182.78 426.078 182.18 426.771 181.74C427.478 181.3 428.278 181.08 429.171 181.08C429.825 181.08 430.411 181.207 430.931 181.46C431.465 181.713 431.898 182.067 432.231 182.52C432.565 182.96 432.751 183.467 432.791 184.04V188.24C432.751 188.813 432.565 189.327 432.231 189.78C431.911 190.22 431.485 190.567 430.951 190.82C430.418 191.073 429.825 191.2 429.171 191.2ZM429.791 188.44C430.445 188.44 430.971 188.227 431.371 187.8C431.771 187.36 431.971 186.807 431.971 186.14C431.971 185.687 431.878 185.287 431.691 184.94C431.518 184.593 431.265 184.327 430.931 184.14C430.611 183.94 430.238 183.84 429.811 183.84C429.385 183.84 429.005 183.94 428.671 184.14C428.351 184.327 428.091 184.593 427.891 184.94C427.705 185.287 427.611 185.687 427.611 186.14C427.611 186.58 427.705 186.973 427.891 187.32C428.078 187.667 428.338 187.94 428.671 188.14C429.005 188.34 429.378 188.44 429.791 188.44ZM431.851 191V188.38L432.311 186.02L431.851 183.66V181.28H434.851V191H431.851ZM443.426 191V185.46C443.426 184.953 443.266 184.547 442.946 184.24C442.639 183.92 442.246 183.76 441.766 183.76C441.432 183.76 441.139 183.833 440.886 183.98C440.632 184.113 440.432 184.313 440.286 184.58C440.139 184.833 440.066 185.127 440.066 185.46L438.886 184.88C438.886 184.12 439.052 183.453 439.386 182.88C439.719 182.307 440.179 181.867 440.766 181.56C441.366 181.24 442.039 181.08 442.786 181.08C443.506 181.08 444.139 181.253 444.686 181.6C445.246 181.933 445.686 182.38 446.006 182.94C446.326 183.5 446.486 184.113 446.486 184.78V191H443.426ZM437.006 191V181.28H440.066V191H437.006ZM453.151 191.22C452.151 191.22 451.244 191 450.431 190.56C449.618 190.12 448.978 189.513 448.511 188.74C448.044 187.967 447.811 187.1 447.811 186.14C447.811 185.167 448.044 184.3 448.511 183.54C448.991 182.767 449.638 182.16 450.451 181.72C451.264 181.28 452.178 181.06 453.191 181.06C453.951 181.06 454.644 181.193 455.271 181.46C455.911 181.713 456.478 182.1 456.971 182.62L455.011 184.58C454.784 184.327 454.518 184.14 454.211 184.02C453.918 183.9 453.578 183.84 453.191 183.84C452.751 183.84 452.358 183.94 452.011 184.14C451.678 184.327 451.411 184.593 451.211 184.94C451.024 185.273 450.931 185.667 450.931 186.12C450.931 186.573 451.024 186.973 451.211 187.32C451.411 187.667 451.684 187.94 452.031 188.14C452.378 188.34 452.764 188.44 453.191 188.44C453.591 188.44 453.944 188.373 454.251 188.24C454.571 188.093 454.844 187.893 455.071 187.64L457.011 189.6C456.504 190.133 455.931 190.54 455.291 190.82C454.651 191.087 453.938 191.22 453.151 191.22ZM462.939 191.22C461.885 191.22 460.945 191.007 460.119 190.58C459.305 190.14 458.665 189.533 458.199 188.76C457.732 187.987 457.499 187.113 457.499 186.14C457.499 185.167 457.725 184.3 458.179 183.54C458.645 182.767 459.272 182.16 460.059 181.72C460.845 181.28 461.732 181.06 462.719 181.06C463.679 181.06 464.525 181.267 465.259 181.68C465.992 182.093 466.565 182.667 466.979 183.4C467.405 184.133 467.619 184.973 467.619 185.92C467.619 186.093 467.605 186.28 467.579 186.48C467.565 186.667 467.532 186.887 467.479 187.14L459.099 187.16V185.06L466.179 185.04L464.859 185.92C464.845 185.36 464.759 184.9 464.599 184.54C464.439 184.167 464.199 183.887 463.879 183.7C463.572 183.5 463.192 183.4 462.739 183.4C462.259 183.4 461.839 183.513 461.479 183.74C461.132 183.953 460.859 184.26 460.659 184.66C460.472 185.06 460.379 185.547 460.379 186.12C460.379 186.693 460.479 187.187 460.679 187.6C460.892 188 461.185 188.313 461.559 188.54C461.945 188.753 462.399 188.86 462.919 188.86C463.399 188.86 463.832 188.78 464.219 188.62C464.605 188.447 464.945 188.193 465.239 187.86L466.919 189.54C466.439 190.1 465.859 190.52 465.179 190.8C464.499 191.08 463.752 191.22 462.939 191.22Z" fill="white"/>
<path d="M260.76 468V465.56H264.08C264.693 465.56 265.173 465.38 265.52 465.02C265.867 464.66 266.04 464.22 266.04 463.7C266.04 463.34 265.96 463.02 265.8 462.74C265.64 462.46 265.413 462.24 265.12 462.08C264.84 461.92 264.493 461.84 264.08 461.84H260.76V459.46H263.82C264.34 459.46 264.76 459.333 265.08 459.08C265.4 458.813 265.56 458.413 265.56 457.88C265.56 457.36 265.4 456.973 265.08 456.72C264.76 456.453 264.34 456.32 263.82 456.32H260.76V453.88H264.42C265.327 453.88 266.093 454.047 266.72 454.38C267.36 454.713 267.847 455.16 268.18 455.72C268.513 456.28 268.68 456.9 268.68 457.58C268.68 458.447 268.4 459.18 267.84 459.78C267.28 460.38 266.453 460.793 265.36 461.02L265.44 459.96C266.627 460.187 267.54 460.647 268.18 461.34C268.833 462.033 269.16 462.887 269.16 463.9C269.16 464.673 268.967 465.373 268.58 466C268.207 466.613 267.66 467.1 266.94 467.46C266.233 467.82 265.38 468 264.38 468H260.76ZM258.36 468V453.88H261.46V468H258.36ZM275.692 468.22C274.639 468.22 273.699 468.007 272.873 467.58C272.059 467.14 271.419 466.533 270.953 465.76C270.486 464.987 270.253 464.113 270.253 463.14C270.253 462.167 270.479 461.3 270.933 460.54C271.399 459.767 272.026 459.16 272.813 458.72C273.599 458.28 274.486 458.06 275.473 458.06C276.433 458.06 277.279 458.267 278.013 458.68C278.746 459.093 279.319 459.667 279.733 460.4C280.159 461.133 280.372 461.973 280.372 462.92C280.372 463.093 280.359 463.28 280.333 463.48C280.319 463.667 280.286 463.887 280.233 464.14L271.853 464.16V462.06L278.933 462.04L277.613 462.92C277.599 462.36 277.513 461.9 277.353 461.54C277.193 461.167 276.953 460.887 276.633 460.7C276.326 460.5 275.946 460.4 275.493 460.4C275.013 460.4 274.593 460.513 274.233 460.74C273.886 460.953 273.613 461.26 273.413 461.66C273.226 462.06 273.133 462.547 273.133 463.12C273.133 463.693 273.233 464.187 273.433 464.6C273.646 465 273.939 465.313 274.313 465.54C274.699 465.753 275.153 465.86 275.673 465.86C276.153 465.86 276.586 465.78 276.973 465.62C277.359 465.447 277.699 465.193 277.993 464.86L279.673 466.54C279.193 467.1 278.613 467.52 277.933 467.8C277.253 468.08 276.506 468.22 275.692 468.22ZM283.23 468V454.26H286.29V468H283.23ZM281.03 460.88V458.28H294.65V460.88H281.03ZM289.39 468V454.26H292.45V468H289.39ZM300.595 468.22C299.542 468.22 298.602 468.007 297.775 467.58C296.962 467.14 296.322 466.533 295.855 465.76C295.388 464.987 295.155 464.113 295.155 463.14C295.155 462.167 295.382 461.3 295.835 460.54C296.302 459.767 296.928 459.16 297.715 458.72C298.502 458.28 299.388 458.06 300.375 458.06C301.335 458.06 302.182 458.267 302.915 458.68C303.648 459.093 304.222 459.667 304.635 460.4C305.062 461.133 305.275 461.973 305.275 462.92C305.275 463.093 305.262 463.28 305.235 463.48C305.222 463.667 305.188 463.887 305.135 464.14L296.755 464.16V462.06L303.835 462.04L302.515 462.92C302.502 462.36 302.415 461.9 302.255 461.54C302.095 461.167 301.855 460.887 301.535 460.7C301.228 460.5 300.848 460.4 300.395 460.4C299.915 460.4 299.495 460.513 299.135 460.74C298.788 460.953 298.515 461.26 298.315 461.66C298.128 462.06 298.035 462.547 298.035 463.12C298.035 463.693 298.135 464.187 298.335 464.6C298.548 465 298.842 465.313 299.215 465.54C299.602 465.753 300.055 465.86 300.575 465.86C301.055 465.86 301.488 465.78 301.875 465.62C302.262 465.447 302.602 465.193 302.895 464.86L304.575 466.54C304.095 467.1 303.515 467.52 302.835 467.8C302.155 468.08 301.408 468.22 300.595 468.22ZM306.752 468V458.28H309.812V468H306.752ZM309.812 462.66L308.532 461.66C308.785 460.527 309.212 459.647 309.812 459.02C310.412 458.393 311.245 458.08 312.312 458.08C312.779 458.08 313.185 458.153 313.532 458.3C313.892 458.433 314.205 458.647 314.472 458.94L312.652 461.24C312.519 461.093 312.352 460.98 312.152 460.9C311.952 460.82 311.725 460.78 311.472 460.78C310.965 460.78 310.559 460.94 310.252 461.26C309.959 461.567 309.812 462.033 309.812 462.66ZM322.127 462.18V459.86H325.107C325.734 459.86 326.214 459.7 326.547 459.38C326.894 459.06 327.067 458.627 327.067 458.08C327.067 457.573 326.901 457.153 326.567 456.82C326.234 456.487 325.754 456.32 325.127 456.32H322.127V453.88H325.487C326.421 453.88 327.241 454.06 327.947 454.42C328.654 454.767 329.207 455.253 329.607 455.88C330.007 456.507 330.207 457.227 330.207 458.04C330.207 458.867 330.007 459.593 329.607 460.22C329.207 460.833 328.647 461.313 327.927 461.66C327.207 462.007 326.361 462.18 325.387 462.18H322.127ZM319.727 468V453.88H322.867V468H319.727ZM327.407 468L323.007 461.92L325.887 461.14L331.127 468H327.407ZM336.767 468.22C335.713 468.22 334.773 468.007 333.947 467.58C333.133 467.14 332.493 466.533 332.027 465.76C331.56 464.987 331.327 464.113 331.327 463.14C331.327 462.167 331.553 461.3 332.007 460.54C332.473 459.767 333.1 459.16 333.887 458.72C334.673 458.28 335.56 458.06 336.547 458.06C337.507 458.06 338.353 458.267 339.087 458.68C339.82 459.093 340.393 459.667 340.807 460.4C341.233 461.133 341.447 461.973 341.447 462.92C341.447 463.093 341.433 463.28 341.407 463.48C341.393 463.667 341.36 463.887 341.307 464.14L332.927 464.16V462.06L340.007 462.04L338.687 462.92C338.673 462.36 338.587 461.9 338.427 461.54C338.267 461.167 338.027 460.887 337.707 460.7C337.4 460.5 337.02 460.4 336.567 460.4C336.087 460.4 335.667 460.513 335.307 460.74C334.96 460.953 334.687 461.26 334.487 461.66C334.3 462.06 334.207 462.547 334.207 463.12C334.207 463.693 334.307 464.187 334.507 464.6C334.72 465 335.013 465.313 335.387 465.54C335.773 465.753 336.227 465.86 336.747 465.86C337.227 465.86 337.66 465.78 338.047 465.62C338.433 465.447 338.773 465.193 339.067 464.86L340.747 466.54C340.267 467.1 339.687 467.52 339.007 467.8C338.327 468.08 337.58 468.22 336.767 468.22ZM346.464 468.24C345.89 468.24 345.324 468.167 344.764 468.02C344.217 467.873 343.704 467.667 343.224 467.4C342.757 467.12 342.357 466.8 342.024 466.44L343.764 464.68C344.084 465.027 344.464 465.3 344.904 465.5C345.344 465.687 345.824 465.78 346.344 465.78C346.704 465.78 346.977 465.727 347.164 465.62C347.364 465.513 347.464 465.367 347.464 465.18C347.464 464.94 347.344 464.76 347.104 464.64C346.877 464.507 346.584 464.393 346.224 464.3C345.864 464.193 345.484 464.08 345.084 463.96C344.684 463.84 344.304 463.673 343.944 463.46C343.584 463.247 343.29 462.953 343.064 462.58C342.837 462.193 342.724 461.707 342.724 461.12C342.724 460.493 342.884 459.953 343.204 459.5C343.524 459.033 343.977 458.667 344.564 458.4C345.15 458.133 345.837 458 346.624 458C347.45 458 348.21 458.147 348.904 458.44C349.61 458.72 350.184 459.14 350.624 459.7L348.884 461.46C348.577 461.1 348.23 460.847 347.844 460.7C347.47 460.553 347.104 460.48 346.744 460.48C346.397 460.48 346.137 460.533 345.964 460.64C345.79 460.733 345.704 460.873 345.704 461.06C345.704 461.26 345.817 461.42 346.044 461.54C346.27 461.66 346.564 461.767 346.924 461.86C347.284 461.953 347.664 462.067 348.064 462.2C348.464 462.333 348.844 462.513 349.204 462.74C349.564 462.967 349.857 463.273 350.084 463.66C350.31 464.033 350.424 464.527 350.424 465.14C350.424 466.087 350.064 466.84 349.344 467.4C348.637 467.96 347.677 468.24 346.464 468.24ZM356.764 468.22C355.764 468.22 354.857 468 354.044 467.56C353.244 467.107 352.611 466.493 352.144 465.72C351.677 464.947 351.444 464.08 351.444 463.12C351.444 462.16 351.677 461.3 352.144 460.54C352.611 459.78 353.244 459.18 354.044 458.74C354.844 458.287 355.751 458.06 356.764 458.06C357.777 458.06 358.684 458.28 359.484 458.72C360.284 459.16 360.917 459.767 361.384 460.54C361.851 461.3 362.084 462.16 362.084 463.12C362.084 464.08 361.851 464.947 361.384 465.72C360.917 466.493 360.284 467.107 359.484 467.56C358.684 468 357.777 468.22 356.764 468.22ZM356.764 465.44C357.204 465.44 357.591 465.347 357.924 465.16C358.257 464.96 358.511 464.687 358.684 464.34C358.871 463.98 358.964 463.573 358.964 463.12C358.964 462.667 358.871 462.273 358.684 461.94C358.497 461.593 358.237 461.327 357.904 461.14C357.584 460.94 357.204 460.84 356.764 460.84C356.337 460.84 355.957 460.94 355.624 461.14C355.291 461.327 355.031 461.593 354.844 461.94C354.657 462.287 354.564 462.687 354.564 463.14C354.564 463.58 354.657 463.98 354.844 464.34C355.031 464.687 355.291 464.96 355.624 465.16C355.957 465.347 356.337 465.44 356.764 465.44ZM367.927 468.22C367.034 468.22 366.241 468.04 365.547 467.68C364.867 467.307 364.334 466.8 363.947 466.16C363.561 465.507 363.367 464.76 363.367 463.92V458.28H366.427V463.88C366.427 464.213 366.481 464.5 366.587 464.74C366.707 464.98 366.881 465.167 367.107 465.3C367.334 465.433 367.607 465.5 367.927 465.5C368.381 465.5 368.741 465.36 369.007 465.08C369.274 464.787 369.407 464.387 369.407 463.88V458.28H372.467V463.9C372.467 464.753 372.274 465.507 371.887 466.16C371.501 466.8 370.967 467.307 370.287 467.68C369.607 468.04 368.821 468.22 367.927 468.22ZM374.389 468V458.28H377.449V468H374.389ZM377.449 462.66L376.169 461.66C376.422 460.527 376.849 459.647 377.449 459.02C378.049 458.393 378.882 458.08 379.949 458.08C380.415 458.08 380.822 458.153 381.169 458.3C381.529 458.433 381.842 458.647 382.109 458.94L380.289 461.24C380.155 461.093 379.989 460.98 379.789 460.9C379.589 460.82 379.362 460.78 379.109 460.78C378.602 460.78 378.195 460.94 377.889 461.26C377.595 461.567 377.449 462.033 377.449 462.66ZM387.35 468.22C386.35 468.22 385.444 468 384.63 467.56C383.817 467.12 383.177 466.513 382.71 465.74C382.244 464.967 382.01 464.1 382.01 463.14C382.01 462.167 382.244 461.3 382.71 460.54C383.19 459.767 383.837 459.16 384.65 458.72C385.464 458.28 386.377 458.06 387.39 458.06C388.15 458.06 388.844 458.193 389.47 458.46C390.11 458.713 390.677 459.1 391.17 459.62L389.21 461.58C388.984 461.327 388.717 461.14 388.41 461.02C388.117 460.9 387.777 460.84 387.39 460.84C386.95 460.84 386.557 460.94 386.21 461.14C385.877 461.327 385.61 461.593 385.41 461.94C385.224 462.273 385.13 462.667 385.13 463.12C385.13 463.573 385.224 463.973 385.41 464.32C385.61 464.667 385.884 464.94 386.23 465.14C386.577 465.34 386.964 465.44 387.39 465.44C387.79 465.44 388.144 465.373 388.45 465.24C388.77 465.093 389.044 464.893 389.27 464.64L391.21 466.6C390.704 467.133 390.13 467.54 389.49 467.82C388.85 468.087 388.137 468.22 387.35 468.22ZM397.138 468.22C396.084 468.22 395.144 468.007 394.318 467.58C393.504 467.14 392.864 466.533 392.398 465.76C391.931 464.987 391.698 464.113 391.698 463.14C391.698 462.167 391.924 461.3 392.378 460.54C392.844 459.767 393.471 459.16 394.258 458.72C395.044 458.28 395.931 458.06 396.918 458.06C397.878 458.06 398.724 458.267 399.458 458.68C400.191 459.093 400.764 459.667 401.178 460.4C401.604 461.133 401.818 461.973 401.818 462.92C401.818 463.093 401.804 463.28 401.778 463.48C401.764 463.667 401.731 463.887 401.678 464.14L393.298 464.16V462.06L400.378 462.04L399.058 462.92C399.044 462.36 398.958 461.9 398.798 461.54C398.638 461.167 398.398 460.887 398.078 460.7C397.771 460.5 397.391 460.4 396.938 460.4C396.458 460.4 396.038 460.513 395.678 460.74C395.331 460.953 395.058 461.26 394.858 461.66C394.671 462.06 394.578 462.547 394.578 463.12C394.578 463.693 394.678 464.187 394.878 464.6C395.091 465 395.384 465.313 395.758 465.54C396.144 465.753 396.598 465.86 397.118 465.86C397.598 465.86 398.031 465.78 398.418 465.62C398.804 465.447 399.144 465.193 399.438 464.86L401.118 466.54C400.638 467.1 400.058 467.52 399.378 467.8C398.698 468.08 397.951 468.22 397.138 468.22ZM405.757 468L411.357 453.88H414.197L419.737 468H416.417L412.177 456.28H413.317L409.017 468H405.757ZM408.937 465.44V462.88H416.637V465.44H408.937ZM421.107 468V453.48H424.167V468H421.107ZM426.322 468V453.48H429.382V468H426.322ZM436.217 468.22C435.217 468.22 434.31 468 433.497 467.56C432.697 467.107 432.064 466.493 431.597 465.72C431.13 464.947 430.897 464.08 430.897 463.12C430.897 462.16 431.13 461.3 431.597 460.54C432.064 459.78 432.697 459.18 433.497 458.74C434.297 458.287 435.204 458.06 436.217 458.06C437.23 458.06 438.137 458.28 438.937 458.72C439.737 459.16 440.37 459.767 440.837 460.54C441.304 461.3 441.537 462.16 441.537 463.12C441.537 464.08 441.304 464.947 440.837 465.72C440.37 466.493 439.737 467.107 438.937 467.56C438.137 468 437.23 468.22 436.217 468.22ZM436.217 465.44C436.657 465.44 437.044 465.347 437.377 465.16C437.71 464.96 437.964 464.687 438.137 464.34C438.324 463.98 438.417 463.573 438.417 463.12C438.417 462.667 438.324 462.273 438.137 461.94C437.95 461.593 437.69 461.327 437.357 461.14C437.037 460.94 436.657 460.84 436.217 460.84C435.79 460.84 435.41 460.94 435.077 461.14C434.744 461.327 434.484 461.593 434.297 461.94C434.11 462.287 434.017 462.687 434.017 463.14C434.017 463.58 434.11 463.98 434.297 464.34C434.484 464.687 434.744 464.96 435.077 465.16C435.41 465.347 435.79 465.44 436.217 465.44ZM447.76 468.22C446.76 468.22 445.854 468 445.04 467.56C444.227 467.12 443.587 466.513 443.12 465.74C442.654 464.967 442.42 464.1 442.42 463.14C442.42 462.167 442.654 461.3 443.12 460.54C443.6 459.767 444.247 459.16 445.06 458.72C445.874 458.28 446.787 458.06 447.8 458.06C448.56 458.06 449.254 458.193 449.88 458.46C450.52 458.713 451.087 459.1 451.58 459.62L449.62 461.58C449.394 461.327 449.127 461.14 448.82 461.02C448.527 460.9 448.187 460.84 447.8 460.84C447.36 460.84 446.967 460.94 446.62 461.14C446.287 461.327 446.02 461.593 445.82 461.94C445.634 462.273 445.54 462.667 445.54 463.12C445.54 463.573 445.634 463.973 445.82 464.32C446.02 464.667 446.294 464.94 446.64 465.14C446.987 465.34 447.374 465.44 447.8 465.44C448.2 465.44 448.554 465.373 448.86 465.24C449.18 465.093 449.454 464.893 449.68 464.64L451.62 466.6C451.114 467.133 450.54 467.54 449.9 467.82C449.26 468.087 448.547 468.22 447.76 468.22ZM456.808 468.2C455.915 468.2 455.115 467.98 454.408 467.54C453.715 467.1 453.161 466.5 452.748 465.74C452.348 464.98 452.148 464.113 452.148 463.14C452.148 462.167 452.348 461.3 452.748 460.54C453.161 459.78 453.715 459.18 454.408 458.74C455.115 458.3 455.915 458.08 456.808 458.08C457.461 458.08 458.048 458.207 458.568 458.46C459.101 458.713 459.535 459.067 459.868 459.52C460.201 459.96 460.388 460.467 460.428 461.04V465.24C460.388 465.813 460.201 466.327 459.868 466.78C459.548 467.22 459.121 467.567 458.588 467.82C458.055 468.073 457.461 468.2 456.808 468.2ZM457.428 465.44C458.081 465.44 458.608 465.227 459.008 464.8C459.408 464.36 459.608 463.807 459.608 463.14C459.608 462.687 459.515 462.287 459.328 461.94C459.155 461.593 458.901 461.327 458.568 461.14C458.248 460.94 457.875 460.84 457.448 460.84C457.021 460.84 456.641 460.94 456.308 461.14C455.988 461.327 455.728 461.593 455.528 461.94C455.341 462.287 455.248 462.687 455.248 463.14C455.248 463.58 455.341 463.973 455.528 464.32C455.715 464.667 455.975 464.94 456.308 465.14C456.641 465.34 457.015 465.44 457.428 465.44ZM459.488 468V465.38L459.948 463.02L459.488 460.66V458.28H462.488V468H459.488ZM466.023 468V454.26H469.083V468H466.023ZM463.823 460.88V458.28H471.283V460.88H463.823ZM472.631 468V458.28H475.691V468H472.631ZM474.171 456.94C473.691 456.94 473.291 456.78 472.971 456.46C472.664 456.127 472.511 455.727 472.511 455.26C472.511 454.78 472.664 454.38 472.971 454.06C473.291 453.74 473.691 453.58 474.171 453.58C474.651 453.58 475.044 453.74 475.351 454.06C475.657 454.38 475.811 454.78 475.811 455.26C475.811 455.727 475.657 456.127 475.351 456.46C475.044 456.78 474.651 456.94 474.171 456.94ZM482.526 468.22C481.526 468.22 480.619 468 479.806 467.56C479.006 467.107 478.372 466.493 477.906 465.72C477.439 464.947 477.206 464.08 477.206 463.12C477.206 462.16 477.439 461.3 477.906 460.54C478.372 459.78 479.006 459.18 479.806 458.74C480.606 458.287 481.512 458.06 482.526 458.06C483.539 458.06 484.446 458.28 485.246 458.72C486.046 459.16 486.679 459.767 487.146 460.54C487.612 461.3 487.846 462.16 487.846 463.12C487.846 464.08 487.612 464.947 487.146 465.72C486.679 466.493 486.046 467.107 485.246 467.56C484.446 468 483.539 468.22 482.526 468.22ZM482.526 465.44C482.966 465.44 483.352 465.347 483.686 465.16C484.019 464.96 484.272 464.687 484.446 464.34C484.632 463.98 484.726 463.573 484.726 463.12C484.726 462.667 484.632 462.273 484.446 461.94C484.259 461.593 483.999 461.327 483.666 461.14C483.346 460.94 482.966 460.84 482.526 460.84C482.099 460.84 481.719 460.94 481.386 461.14C481.052 461.327 480.792 461.593 480.606 461.94C480.419 462.287 480.326 462.687 480.326 463.14C480.326 463.58 480.419 463.98 480.606 464.34C480.792 464.687 481.052 464.96 481.386 465.16C481.719 465.347 482.099 465.44 482.526 465.44ZM495.789 468V462.46C495.789 461.953 495.629 461.547 495.309 461.24C495.002 460.92 494.609 460.76 494.129 460.76C493.796 460.76 493.502 460.833 493.249 460.98C492.996 461.113 492.796 461.313 492.649 461.58C492.502 461.833 492.429 462.127 492.429 462.46L491.249 461.88C491.249 461.12 491.416 460.453 491.749 459.88C492.082 459.307 492.542 458.867 493.129 458.56C493.729 458.24 494.402 458.08 495.149 458.08C495.869 458.08 496.502 458.253 497.049 458.6C497.609 458.933 498.049 459.38 498.369 459.94C498.689 460.5 498.849 461.113 498.849 461.78V468H495.789ZM489.369 468V458.28H492.429V468H489.369Z" fill="white"/>
<path d="M169.36 331V316.88H172.5V331H169.36ZM174.939 331V321.28H177.999V331H174.939ZM181.159 331V325.32C181.159 324.827 181.006 324.447 180.699 324.18C180.406 323.9 180.039 323.76 179.599 323.76C179.293 323.76 179.019 323.827 178.779 323.96C178.539 324.08 178.346 324.253 178.199 324.48C178.066 324.707 177.999 324.987 177.999 325.32L176.819 324.8C176.819 324.027 176.986 323.367 177.319 322.82C177.653 322.26 178.106 321.833 178.679 321.54C179.253 321.233 179.899 321.08 180.619 321.08C181.299 321.08 181.906 321.233 182.439 321.54C182.986 321.847 183.419 322.273 183.739 322.82C184.059 323.367 184.219 324.02 184.219 324.78V331H181.159ZM187.379 331V325.32C187.379 324.827 187.226 324.447 186.919 324.18C186.626 323.9 186.259 323.76 185.819 323.76C185.513 323.76 185.239 323.827 184.999 323.96C184.759 324.08 184.566 324.253 184.419 324.48C184.286 324.707 184.219 324.987 184.219 325.32L182.459 325.08C182.486 324.253 182.679 323.547 183.039 322.96C183.413 322.36 183.899 321.9 184.499 321.58C185.113 321.247 185.799 321.08 186.559 321.08C187.306 321.08 187.966 321.24 188.539 321.56C189.126 321.867 189.586 322.313 189.919 322.9C190.266 323.473 190.439 324.167 190.439 324.98V331H187.379ZM198 331.2C197.347 331.2 196.747 331.073 196.2 330.82C195.654 330.567 195.207 330.22 194.86 329.78C194.514 329.327 194.314 328.813 194.26 328.24V324.14C194.314 323.567 194.514 323.047 194.86 322.58C195.207 322.113 195.654 321.747 196.2 321.48C196.747 321.213 197.347 321.08 198 321.08C198.92 321.08 199.734 321.3 200.44 321.74C201.16 322.18 201.72 322.78 202.12 323.54C202.534 324.3 202.74 325.167 202.74 326.14C202.74 327.113 202.534 327.98 202.12 328.74C201.72 329.5 201.16 330.1 200.44 330.54C199.734 330.98 198.92 331.2 198 331.2ZM192.4 335.1V321.28H195.46V323.78L194.96 326.14L195.42 328.5V335.1H192.4ZM197.44 328.44C197.88 328.44 198.26 328.34 198.58 328.14C198.914 327.94 199.174 327.667 199.36 327.32C199.547 326.973 199.64 326.58 199.64 326.14C199.64 325.687 199.547 325.287 199.36 324.94C199.174 324.593 198.914 324.327 198.58 324.14C198.26 323.94 197.887 323.84 197.46 323.84C197.034 323.84 196.654 323.94 196.32 324.14C196 324.327 195.747 324.593 195.56 324.94C195.374 325.287 195.28 325.687 195.28 326.14C195.28 326.58 195.367 326.973 195.54 327.32C195.727 327.667 195.987 327.94 196.32 328.14C196.654 328.34 197.027 328.44 197.44 328.44ZM204.295 331V321.28H207.355V331H204.295ZM207.355 325.66L206.075 324.66C206.328 323.527 206.755 322.647 207.355 322.02C207.955 321.393 208.788 321.08 209.855 321.08C210.322 321.08 210.728 321.153 211.075 321.3C211.435 321.433 211.748 321.647 212.015 321.94L210.195 324.24C210.062 324.093 209.895 323.98 209.695 323.9C209.495 323.82 209.268 323.78 209.015 323.78C208.508 323.78 208.102 323.94 207.795 324.26C207.502 324.567 207.355 325.033 207.355 325.66ZM217.237 331.22C216.237 331.22 215.33 331 214.517 330.56C213.717 330.107 213.083 329.493 212.617 328.72C212.15 327.947 211.917 327.08 211.917 326.12C211.917 325.16 212.15 324.3 212.617 323.54C213.083 322.78 213.717 322.18 214.517 321.74C215.317 321.287 216.223 321.06 217.237 321.06C218.25 321.06 219.157 321.28 219.957 321.72C220.757 322.16 221.39 322.767 221.857 323.54C222.323 324.3 222.557 325.16 222.557 326.12C222.557 327.08 222.323 327.947 221.857 328.72C221.39 329.493 220.757 330.107 219.957 330.56C219.157 331 218.25 331.22 217.237 331.22ZM217.237 328.44C217.677 328.44 218.063 328.347 218.397 328.16C218.73 327.96 218.983 327.687 219.157 327.34C219.343 326.98 219.437 326.573 219.437 326.12C219.437 325.667 219.343 325.273 219.157 324.94C218.97 324.593 218.71 324.327 218.377 324.14C218.057 323.94 217.677 323.84 217.237 323.84C216.81 323.84 216.43 323.94 216.097 324.14C215.763 324.327 215.503 324.593 215.317 324.94C215.13 325.287 215.037 325.687 215.037 326.14C215.037 326.58 215.13 326.98 215.317 327.34C215.503 327.687 215.763 327.96 216.097 328.16C216.43 328.347 216.81 328.44 217.237 328.44ZM226.867 331L222.747 321.28H226.047L228.847 329.38H227.407L230.207 321.28H233.447L229.327 331H226.867ZM239.075 331.22C238.022 331.22 237.082 331.007 236.255 330.58C235.442 330.14 234.802 329.533 234.335 328.76C233.869 327.987 233.635 327.113 233.635 326.14C233.635 325.167 233.862 324.3 234.315 323.54C234.782 322.767 235.409 322.16 236.195 321.72C236.982 321.28 237.869 321.06 238.855 321.06C239.815 321.06 240.662 321.267 241.395 321.68C242.129 322.093 242.702 322.667 243.115 323.4C243.542 324.133 243.755 324.973 243.755 325.92C243.755 326.093 243.742 326.28 243.715 326.48C243.702 326.667 243.669 326.887 243.615 327.14L235.235 327.16V325.06L242.315 325.04L240.995 325.92C240.982 325.36 240.895 324.9 240.735 324.54C240.575 324.167 240.335 323.887 240.015 323.7C239.709 323.5 239.329 323.4 238.875 323.4C238.395 323.4 237.975 323.513 237.615 323.74C237.269 323.953 236.995 324.26 236.795 324.66C236.609 325.06 236.515 325.547 236.515 326.12C236.515 326.693 236.615 327.187 236.815 327.6C237.029 328 237.322 328.313 237.695 328.54C238.082 328.753 238.535 328.86 239.055 328.86C239.535 328.86 239.969 328.78 240.355 328.62C240.742 328.447 241.082 328.193 241.375 327.86L243.055 329.54C242.575 330.1 241.995 330.52 241.315 330.8C240.635 331.08 239.889 331.22 239.075 331.22ZM249.372 331.2C248.452 331.2 247.632 330.98 246.912 330.54C246.206 330.1 245.646 329.5 245.232 328.74C244.832 327.98 244.632 327.113 244.632 326.14C244.632 325.167 244.832 324.3 245.232 323.54C245.646 322.78 246.206 322.18 246.912 321.74C247.632 321.3 248.452 321.08 249.372 321.08C250.039 321.08 250.639 321.207 251.172 321.46C251.719 321.713 252.166 322.067 252.512 322.52C252.872 322.96 253.072 323.467 253.112 324.04V328.14C253.072 328.713 252.879 329.233 252.532 329.7C252.186 330.153 251.739 330.52 251.192 330.8C250.646 331.067 250.039 331.2 249.372 331.2ZM249.912 328.44C250.352 328.44 250.732 328.347 251.052 328.16C251.372 327.96 251.626 327.687 251.812 327.34C251.999 326.993 252.092 326.593 252.092 326.14C252.092 325.687 251.999 325.293 251.812 324.96C251.639 324.613 251.386 324.34 251.052 324.14C250.732 323.94 250.359 323.84 249.932 323.84C249.506 323.84 249.126 323.94 248.792 324.14C248.472 324.34 248.212 324.613 248.012 324.96C247.826 325.307 247.732 325.7 247.732 326.14C247.732 326.58 247.826 326.973 248.012 327.32C248.199 327.667 248.459 327.94 248.792 328.14C249.126 328.34 249.499 328.44 249.912 328.44ZM254.972 331H251.972V328.38L252.432 326.02L251.912 323.66V316.48H254.972V331ZM267.915 331.22C266.862 331.22 265.882 331.04 264.975 330.68C264.082 330.307 263.295 329.787 262.615 329.12C261.949 328.453 261.429 327.68 261.055 326.8C260.682 325.907 260.495 324.947 260.495 323.92C260.495 322.893 260.682 321.94 261.055 321.06C261.429 320.167 261.949 319.393 262.615 318.74C263.282 318.087 264.062 317.58 264.955 317.22C265.862 316.847 266.842 316.66 267.895 316.66C269.015 316.66 270.009 316.84 270.875 317.2C271.755 317.56 272.522 318.053 273.175 318.68L271.075 320.8C270.702 320.4 270.249 320.087 269.715 319.86C269.195 319.633 268.589 319.52 267.895 319.52C267.282 319.52 266.715 319.627 266.195 319.84C265.689 320.04 265.249 320.333 264.875 320.72C264.515 321.107 264.229 321.573 264.015 322.12C263.815 322.667 263.715 323.267 263.715 323.92C263.715 324.587 263.815 325.193 264.015 325.74C264.229 326.287 264.515 326.753 264.875 327.14C265.249 327.527 265.689 327.827 266.195 328.04C266.715 328.253 267.282 328.36 267.895 328.36C268.615 328.36 269.242 328.247 269.775 328.02C270.309 327.793 270.769 327.48 271.155 327.08L273.275 329.2C272.595 329.827 271.815 330.32 270.935 330.68C270.069 331.04 269.062 331.22 267.915 331.22ZM277.08 331.04L273.08 321.28H276.38L278.92 329.02H277.7L280.3 321.28H283.6L279.44 331.04H277.08ZM274.58 335.1L277.5 328.8L279.44 331.04L277.72 335.1H274.58ZM290.129 331.2C289.476 331.2 288.876 331.067 288.329 330.8C287.783 330.52 287.336 330.153 286.989 329.7C286.643 329.233 286.443 328.713 286.389 328.14V324.04C286.443 323.467 286.643 322.96 286.989 322.52C287.336 322.067 287.783 321.713 288.329 321.46C288.876 321.207 289.476 321.08 290.129 321.08C291.049 321.08 291.863 321.3 292.569 321.74C293.289 322.18 293.849 322.78 294.249 323.54C294.663 324.3 294.869 325.167 294.869 326.14C294.869 327.113 294.663 327.98 294.249 328.74C293.849 329.5 293.289 330.1 292.569 330.54C291.863 330.98 291.049 331.2 290.129 331.2ZM284.529 331V316.48H287.589V323.66L287.089 326.02L287.549 328.38V331H284.529ZM289.589 328.44C290.016 328.44 290.389 328.34 290.709 328.14C291.043 327.94 291.303 327.667 291.489 327.32C291.676 326.973 291.769 326.58 291.769 326.14C291.769 325.687 291.676 325.287 291.489 324.94C291.303 324.593 291.043 324.327 290.709 324.14C290.389 323.94 290.016 323.84 289.589 323.84C289.163 323.84 288.783 323.94 288.449 324.14C288.116 324.327 287.856 324.593 287.669 324.94C287.496 325.287 287.409 325.687 287.409 326.14C287.409 326.593 287.503 326.993 287.689 327.34C287.876 327.687 288.129 327.96 288.449 328.16C288.783 328.347 289.163 328.44 289.589 328.44ZM301.224 331.22C300.17 331.22 299.23 331.007 298.404 330.58C297.59 330.14 296.95 329.533 296.484 328.76C296.017 327.987 295.784 327.113 295.784 326.14C295.784 325.167 296.01 324.3 296.464 323.54C296.93 322.767 297.557 322.16 298.344 321.72C299.13 321.28 300.017 321.06 301.004 321.06C301.964 321.06 302.81 321.267 303.544 321.68C304.277 322.093 304.85 322.667 305.264 323.4C305.69 324.133 305.904 324.973 305.904 325.92C305.904 326.093 305.89 326.28 305.864 326.48C305.85 326.667 305.817 326.887 305.764 327.14L297.384 327.16V325.06L304.464 325.04L303.144 325.92C303.13 325.36 303.044 324.9 302.884 324.54C302.724 324.167 302.484 323.887 302.164 323.7C301.857 323.5 301.477 323.4 301.024 323.4C300.544 323.4 300.124 323.513 299.764 323.74C299.417 323.953 299.144 324.26 298.944 324.66C298.757 325.06 298.664 325.547 298.664 326.12C298.664 326.693 298.764 327.187 298.964 327.6C299.177 328 299.47 328.313 299.844 328.54C300.23 328.753 300.684 328.86 301.204 328.86C301.684 328.86 302.117 328.78 302.504 328.62C302.89 328.447 303.23 328.193 303.524 327.86L305.204 329.54C304.724 330.1 304.144 330.52 303.464 330.8C302.784 331.08 302.037 331.22 301.224 331.22ZM307.381 331V321.28H310.441V331H307.381ZM310.441 325.66L309.161 324.66C309.414 323.527 309.841 322.647 310.441 322.02C311.041 321.393 311.874 321.08 312.941 321.08C313.407 321.08 313.814 321.153 314.161 321.3C314.521 321.433 314.834 321.647 315.101 321.94L313.281 324.24C313.147 324.093 312.981 323.98 312.781 323.9C312.581 323.82 312.354 323.78 312.101 323.78C311.594 323.78 311.187 323.94 310.881 324.26C310.587 324.567 310.441 325.033 310.441 325.66ZM319.241 331.24C318.668 331.24 318.101 331.167 317.541 331.02C316.994 330.873 316.481 330.667 316.001 330.4C315.534 330.12 315.134 329.8 314.801 329.44L316.541 327.68C316.861 328.027 317.241 328.3 317.681 328.5C318.121 328.687 318.601 328.78 319.121 328.78C319.481 328.78 319.754 328.727 319.941 328.62C320.141 328.513 320.241 328.367 320.241 328.18C320.241 327.94 320.121 327.76 319.881 327.64C319.654 327.507 319.361 327.393 319.001 327.3C318.641 327.193 318.261 327.08 317.861 326.96C317.461 326.84 317.081 326.673 316.721 326.46C316.361 326.247 316.068 325.953 315.841 325.58C315.614 325.193 315.501 324.707 315.501 324.12C315.501 323.493 315.661 322.953 315.981 322.5C316.301 322.033 316.754 321.667 317.341 321.4C317.928 321.133 318.614 321 319.401 321C320.228 321 320.988 321.147 321.681 321.44C322.388 321.72 322.961 322.14 323.401 322.7L321.661 324.46C321.354 324.1 321.008 323.847 320.621 323.7C320.248 323.553 319.881 323.48 319.521 323.48C319.174 323.48 318.914 323.533 318.741 323.64C318.568 323.733 318.481 323.873 318.481 324.06C318.481 324.26 318.594 324.42 318.821 324.54C319.048 324.66 319.341 324.767 319.701 324.86C320.061 324.953 320.441 325.067 320.841 325.2C321.241 325.333 321.621 325.513 321.981 325.74C322.341 325.967 322.634 326.273 322.861 326.66C323.088 327.033 323.201 327.527 323.201 328.14C323.201 329.087 322.841 329.84 322.121 330.4C321.414 330.96 320.454 331.24 319.241 331.24ZM329.661 331.22C328.608 331.22 327.668 331.007 326.841 330.58C326.028 330.14 325.388 329.533 324.921 328.76C324.455 327.987 324.221 327.113 324.221 326.14C324.221 325.167 324.448 324.3 324.901 323.54C325.368 322.767 325.995 322.16 326.781 321.72C327.568 321.28 328.455 321.06 329.441 321.06C330.401 321.06 331.248 321.267 331.981 321.68C332.715 322.093 333.288 322.667 333.701 323.4C334.128 324.133 334.341 324.973 334.341 325.92C334.341 326.093 334.328 326.28 334.301 326.48C334.288 326.667 334.255 326.887 334.201 327.14L325.821 327.16V325.06L332.901 325.04L331.581 325.92C331.568 325.36 331.481 324.9 331.321 324.54C331.161 324.167 330.921 323.887 330.601 323.7C330.295 323.5 329.915 323.4 329.461 323.4C328.981 323.4 328.561 323.513 328.201 323.74C327.855 323.953 327.581 324.26 327.381 324.66C327.195 325.06 327.101 325.547 327.101 326.12C327.101 326.693 327.201 327.187 327.401 327.6C327.615 328 327.908 328.313 328.281 328.54C328.668 328.753 329.121 328.86 329.641 328.86C330.121 328.86 330.555 328.78 330.941 328.62C331.328 328.447 331.668 328.193 331.961 327.86L333.641 329.54C333.161 330.1 332.581 330.52 331.901 330.8C331.221 331.08 330.475 331.22 329.661 331.22ZM340.518 331.22C339.518 331.22 338.612 331 337.798 330.56C336.985 330.12 336.345 329.513 335.878 328.74C335.412 327.967 335.178 327.1 335.178 326.14C335.178 325.167 335.412 324.3 335.878 323.54C336.358 322.767 337.005 322.16 337.818 321.72C338.632 321.28 339.545 321.06 340.558 321.06C341.318 321.06 342.012 321.193 342.638 321.46C343.278 321.713 343.845 322.1 344.338 322.62L342.378 324.58C342.152 324.327 341.885 324.14 341.578 324.02C341.285 323.9 340.945 323.84 340.558 323.84C340.118 323.84 339.725 323.94 339.378 324.14C339.045 324.327 338.778 324.593 338.578 324.94C338.392 325.273 338.298 325.667 338.298 326.12C338.298 326.573 338.392 326.973 338.578 327.32C338.778 327.667 339.052 327.94 339.398 328.14C339.745 328.34 340.132 328.44 340.558 328.44C340.958 328.44 341.312 328.373 341.618 328.24C341.938 328.093 342.212 327.893 342.438 327.64L344.378 329.6C343.872 330.133 343.298 330.54 342.658 330.82C342.018 331.087 341.305 331.22 340.518 331.22ZM350.06 331.22C349.167 331.22 348.373 331.04 347.68 330.68C347 330.307 346.467 329.8 346.08 329.16C345.693 328.507 345.5 327.76 345.5 326.92V321.28H348.56V326.88C348.56 327.213 348.613 327.5 348.72 327.74C348.84 327.98 349.013 328.167 349.24 328.3C349.467 328.433 349.74 328.5 350.06 328.5C350.513 328.5 350.873 328.36 351.14 328.08C351.407 327.787 351.54 327.387 351.54 326.88V321.28H354.6V326.9C354.6 327.753 354.407 328.507 354.02 329.16C353.633 329.8 353.1 330.307 352.42 330.68C351.74 331.04 350.953 331.22 350.06 331.22ZM356.521 331V321.28H359.581V331H356.521ZM359.581 325.66L358.301 324.66C358.555 323.527 358.981 322.647 359.581 322.02C360.181 321.393 361.015 321.08 362.081 321.08C362.548 321.08 362.955 321.153 363.301 321.3C363.661 321.433 363.975 321.647 364.241 321.94L362.421 324.24C362.288 324.093 362.121 323.98 361.921 323.9C361.721 323.82 361.495 323.78 361.241 323.78C360.735 323.78 360.328 323.94 360.021 324.26C359.728 324.567 359.581 325.033 359.581 325.66ZM365.057 331V321.28H368.117V331H365.057ZM366.597 319.94C366.117 319.94 365.717 319.78 365.397 319.46C365.09 319.127 364.937 318.727 364.937 318.26C364.937 317.78 365.09 317.38 365.397 317.06C365.717 316.74 366.117 316.58 366.597 316.58C367.077 316.58 367.47 316.74 367.777 317.06C368.083 317.38 368.237 317.78 368.237 318.26C368.237 318.727 368.083 319.127 367.777 319.46C367.47 319.78 367.077 319.94 366.597 319.94ZM371.651 331V317.26H374.711V331H371.651ZM369.451 323.88V321.28H376.911V323.88H369.451ZM381.26 331.04L377.26 321.28H380.56L383.1 329.02H381.88L384.48 321.28H387.78L383.62 331.04H381.26ZM378.76 335.1L381.68 328.8L383.62 331.04L381.9 335.1H378.76Z" fill="white"/>
</svg>
