<svg width="576" height="520" viewBox="0 0 576 520" fill="none" xmlns="http://www.w3.org/2000/svg">
<path d="M342.033 474.877C339.999 474.877 338.279 473.68 338.105 472.102C337.925 470.439 339.54 468.975 341.718 468.842C348.021 468.45 354.267 467.561 360.279 466.208C362.37 465.736 364.564 466.654 365.18 468.258C365.792 469.859 364.594 471.54 362.503 472.012C355.98 473.48 349.205 474.441 342.364 474.872C342.254 474.877 342.143 474.882 342.043 474.882L342.033 474.877ZM379.605 466.4C378.2 466.4 376.839 465.821 376.126 464.804C375.092 463.335 375.818 461.503 377.735 460.711C383.275 458.433 388.534 455.699 393.362 452.59C395.028 451.514 397.52 451.686 398.915 452.967C400.313 454.248 400.099 456.152 398.427 457.223C393.181 460.596 387.477 463.558 381.459 466.039C380.866 466.28 380.227 466.4 379.599 466.4H379.605ZM409.597 447.096C408.744 447.096 407.884 446.884 407.162 446.448C405.449 445.415 405.148 443.516 406.496 442.204C410.41 438.396 413.785 434.278 416.539 429.973C417.502 428.474 419.861 427.857 421.818 428.589C423.772 429.327 424.578 431.134 423.624 432.633C420.627 437.32 416.95 441.794 412.698 445.941C411.915 446.697 410.765 447.096 409.597 447.096ZM426.769 420.143C426.461 420.143 426.154 420.118 425.849 420.059C423.725 419.672 422.423 418.039 422.929 416.412C424.404 411.71 425.16 406.908 425.183 402.139C425.193 400.476 426.96 399.128 429.128 399.128H429.144C431.322 399.133 433.082 400.494 433.072 402.162C433.048 407.397 432.212 412.663 430.603 417.822C430.171 419.205 428.552 420.138 426.769 420.138V420.143ZM426.873 390.192C425.09 390.192 423.464 389.254 423.039 387.863C421.604 383.227 419.449 378.673 416.642 374.332C415.672 372.841 416.469 371.027 418.416 370.284C420.366 369.538 422.731 370.15 423.701 371.642C426.779 376.395 429.138 381.382 430.713 386.466C431.218 388.093 429.904 389.721 427.789 390.108C427.482 390.161 427.174 390.192 426.873 390.192ZM409.55 363.324C408.399 363.324 407.255 362.937 406.472 362.199C402.545 358.463 398.065 355.024 393.168 351.964C391.478 350.911 391.217 349.007 392.599 347.713C393.97 346.419 396.456 346.226 398.142 347.277C403.468 350.598 408.342 354.345 412.618 358.409C413.983 359.708 413.722 361.612 412.026 362.657C411.3 363.111 410.427 363.329 409.55 363.329V363.324ZM379.197 344.381C378.588 344.381 377.966 344.274 377.391 344.043C371.797 341.829 365.889 340.053 359.82 338.764C357.723 338.318 356.492 336.65 357.077 335.041C357.659 333.432 359.83 332.489 361.935 332.937C368.522 334.339 374.945 336.268 381.017 338.669C382.951 339.436 383.717 341.255 382.713 342.744C382.011 343.784 380.632 344.381 379.204 344.381H379.197ZM168.924 333.959C168.576 333.959 168.214 333.921 167.866 333.849C161.279 332.448 154.866 330.505 148.794 328.099C146.86 327.333 146.101 325.506 147.105 324.024C148.105 322.543 150.487 321.964 152.421 322.73C158.007 324.949 163.915 326.733 169.981 328.027C172.078 328.476 173.309 330.144 172.727 331.75C172.236 333.088 170.66 333.965 168.93 333.965L168.924 333.959ZM134.151 320.15C133.275 320.15 132.391 319.927 131.659 319.473C126.356 316.16 121.492 312.416 117.193 308.354C115.818 307.055 116.079 305.156 117.775 304.103C119.471 303.052 121.947 303.252 123.322 304.552C127.273 308.293 131.763 311.739 136.644 314.794C138.333 315.85 138.584 317.749 137.206 319.05C136.423 319.781 135.289 320.163 134.144 320.163L134.151 320.15ZM109.532 296.825C108.097 296.825 106.709 296.221 106.013 295.175C102.875 290.452 100.429 285.501 98.7398 280.453C98.1978 278.839 99.4658 277.189 101.58 276.771C103.688 276.353 105.839 277.327 106.384 278.946C107.93 283.567 110.171 288.1 113.052 292.428C114.035 293.917 113.262 295.736 111.322 296.492C110.747 296.715 110.141 296.818 109.539 296.818L109.532 296.825ZM99.8772 267.787C97.7395 267.787 95.9798 266.474 95.933 264.824C95.9163 264.371 95.9163 263.917 95.9163 263.463C95.9163 261.498 96.0367 259.509 96.2575 257.557C96.5887 254.733 97.1541 251.891 97.9503 249.111C98.4186 247.478 100.523 246.451 102.654 246.807C104.782 247.163 106.123 248.777 105.658 250.41C104.932 252.944 104.414 255.525 104.119 258.095C103.915 259.871 103.811 261.68 103.811 263.469C103.811 263.881 103.811 264.296 103.828 264.709C103.875 266.377 102.142 267.756 99.9642 267.792C99.9408 267.792 99.9074 267.792 99.8839 267.792L99.8772 267.787ZM108.207 238.525C107.639 238.525 107.057 238.427 106.511 238.227C104.547 237.507 103.711 235.706 104.648 234.194C107.575 229.492 111.222 224.987 115.474 220.815C116.812 219.503 119.291 219.267 121.01 220.295C122.73 221.322 123.028 223.221 121.689 224.538C117.792 228.367 114.447 232.49 111.764 236.8C111.084 237.889 109.673 238.525 108.197 238.525H108.207ZM132.274 214.859C131.147 214.859 130.026 214.49 129.243 213.778C127.848 212.497 128.069 210.59 129.735 209.522C134.971 206.16 140.691 203.202 146.727 200.724C148.65 199.938 151.032 200.494 152.066 201.965C153.093 203.438 152.367 205.265 150.45 206.057C144.887 208.335 139.628 211.057 134.807 214.152C134.064 214.624 133.164 214.859 132.274 214.859ZM166.816 200.706C165.113 200.706 163.537 199.853 163.032 198.531C162.417 196.927 163.614 195.246 165.705 194.782C172.246 193.311 179.02 192.35 185.845 191.927C188.023 191.794 189.923 193.034 190.097 194.697C190.271 196.36 188.652 197.824 186.484 197.954C180.188 198.349 173.942 199.23 167.923 200.586C167.552 200.671 167.181 200.706 166.809 200.706H166.816ZM341.932 184.014C340.203 184.014 338.617 183.138 338.135 181.8C337.553 180.193 338.784 178.525 340.882 178.077C346.947 176.782 352.848 174.999 358.442 172.78C360.376 172.014 362.758 172.593 363.758 174.074C364.762 175.555 364.002 177.382 362.068 178.148C356.003 180.562 349.583 182.497 342.996 183.899C342.642 183.97 342.287 184.006 341.939 184.006L341.932 184.014ZM376.701 170.204C375.561 170.204 374.423 169.823 373.644 169.092C372.262 167.798 372.523 165.894 374.209 164.841C379.093 161.789 383.583 158.342 387.534 154.601C388.906 153.307 391.391 153.107 393.081 154.153C394.777 155.206 395.034 157.11 393.663 158.404C389.364 162.465 384.496 166.209 379.197 169.523C378.461 169.981 377.578 170.199 376.701 170.199V170.204ZM401.324 146.885C400.722 146.885 400.109 146.777 399.541 146.552C397.6 145.796 396.827 143.977 397.811 142.49C400.685 138.162 402.933 133.626 404.478 129.009C405.024 127.387 407.168 126.413 409.283 126.831C411.387 127.248 412.665 128.893 412.123 130.513C410.433 135.561 407.981 140.512 404.85 145.235C404.154 146.28 402.766 146.885 401.33 146.885H401.324ZM410.979 117.846C410.979 117.846 410.922 117.846 410.898 117.846C408.72 117.81 406.994 116.432 407.034 114.763C407.041 114.353 407.051 113.936 407.051 113.523C407.051 111.735 406.947 109.928 406.743 108.15C406.442 105.579 405.93 102.999 405.204 100.464C404.739 98.8321 406.081 97.2253 408.209 96.8614C410.34 96.5052 412.437 97.538 412.909 99.1652C413.709 101.946 414.274 104.787 414.605 107.611C414.836 109.564 414.946 111.553 414.946 113.518C414.946 113.972 414.946 114.425 414.93 114.879C414.883 116.529 413.133 117.841 410.985 117.841L410.979 117.846ZM402.649 88.5844C401.173 88.5844 399.761 87.9489 399.082 86.8623C396.399 82.5521 393.064 78.4264 389.16 74.6005C387.818 73.2834 388.116 71.3845 389.836 70.3569C391.558 69.3293 394.034 69.5651 395.376 70.8771C399.628 75.049 403.271 79.5463 406.198 84.2562C407.135 85.7605 406.302 87.5696 404.335 88.2897C403.793 88.487 403.207 88.5844 402.639 88.5844H402.649ZM378.582 64.9217C377.688 64.9217 376.788 64.6911 376.049 64.2145C371.228 61.1189 365.966 58.3975 360.406 56.1194C358.482 55.3327 357.763 53.5004 358.79 52.0244C359.814 50.5509 362.206 50 364.129 50.7867C370.164 53.2595 375.882 56.2142 381.121 59.5762C382.793 60.6474 383.014 62.5565 381.609 63.8327C380.83 64.545 379.709 64.9141 378.582 64.9141V64.9217ZM344.037 50.7662C343.665 50.7662 343.297 50.7252 342.926 50.6457C336.897 49.2927 330.658 48.4086 324.362 48.0166C322.194 47.8833 320.578 46.4201 320.752 44.757C320.923 43.0939 322.827 41.8562 325.001 41.9894C331.833 42.4122 338.61 43.3732 345.141 44.8415C347.232 45.3131 348.433 46.989 347.817 48.5906C347.312 49.9077 345.743 50.7662 344.03 50.7662H344.037Z" fill="#84DEFF"/>
<path d="M317.466 84.1697C297.959 105.493 261.469 99.9319 161.277 100.078C67.6778 100.208 29.8612 105.16 11.2907 84.1697C0.696679 72.1838 0.0429624 55.9026 0.0154957 55.0896C-0.520112 35.3031 12.9497 19.5946 21.7255 12.3693C46.5502 -8.06149 77.717 3.229 168.045 2.82504C251.833 2.45176 283.017 -7.51435 308.16 12.3693C328.197 28.2159 329.87 49.1759 329.87 49.1759C331.01 63.5165 324.462 76.52 317.466 84.1697Z" fill="#563DD3"/>
<path d="M506.456 230.785C486.946 252.11 450.459 246.548 350.272 246.694C256.674 246.825 218.856 251.777 200.289 230.785C189.685 218.799 189.036 202.511 189.015 201.703C188.481 181.915 201.944 166.206 210.726 158.985C235.547 138.553 266.71 149.839 357.042 149.443C440.829 149.067 472.012 139.103 497.16 158.985C517.195 174.833 518.871 195.797 518.871 195.797C520.009 210.136 513.462 223.143 506.462 230.79L506.456 230.785Z" fill="#2E8799"/>
<path d="M354.471 378.379C334.959 399.704 298.473 394.141 198.28 394.287C104.679 394.419 66.8613 399.372 48.2946 378.379C37.691 366.393 37.0433 350.107 37.0155 349.293C36.4791 329.507 49.9456 313.799 58.7231 306.578C83.5408 286.148 114.712 297.433 205.042 297.037C288.834 296.661 320.017 286.698 345.163 306.578C365.205 322.425 366.87 343.387 366.87 343.387C368.01 357.726 361.464 370.732 354.463 378.379H354.471Z" fill="#FFBF18"/>
<path d="M563.456 503.49C543.946 524.817 507.459 519.254 407.272 519.399C313.674 519.532 275.856 524.485 257.289 503.49C246.685 491.504 246.036 475.216 246.015 474.408C245.481 454.621 258.944 438.914 267.726 431.693C292.547 411.261 323.71 422.547 414.042 422.149C497.829 421.775 529.011 411.809 554.159 431.693C574.195 447.541 575.87 468.502 575.87 468.502C577.008 482.841 570.462 495.848 563.462 503.498L563.456 503.49Z" fill="#F45665"/>
<path d="M78.76 58.1203V55.6803H82.08C82.6933 55.6803 83.1733 55.5003 83.52 55.1403C83.8667 54.7803 84.04 54.3403 84.04 53.8203C84.04 53.4603 83.96 53.1403 83.8 52.8603C83.64 52.5803 83.4133 52.3603 83.12 52.2003C82.84 52.0403 82.4933 51.9603 82.08 51.9603H78.76V49.5803H81.82C82.34 49.5803 82.76 49.4536 83.08 49.2003C83.4 48.9336 83.56 48.5336 83.56 48.0003C83.56 47.4803 83.4 47.0936 83.08 46.8403C82.76 46.5736 82.34 46.4403 81.82 46.4403H78.76V44.0003H82.42C83.3267 44.0003 84.0933 44.167 84.72 44.5003C85.36 44.8336 85.8467 45.2803 86.18 45.8403C86.5133 46.4003 86.68 47.0203 86.68 47.7003C86.68 48.567 86.4 49.3003 85.84 49.9003C85.28 50.5003 84.4533 50.9136 83.36 51.1403L83.44 50.0803C84.6267 50.307 85.54 50.767 86.18 51.4603C86.8333 52.1536 87.16 53.007 87.16 54.0203C87.16 54.7936 86.9667 55.4936 86.58 56.1203C86.2067 56.7336 85.66 57.2203 84.94 57.5803C84.2333 57.9403 83.38 58.1203 82.38 58.1203H78.76ZM76.36 58.1203V44.0003H79.46V58.1203H76.36ZM93.2125 58.3403C92.3192 58.3403 91.5258 58.1603 90.8325 57.8003C90.1525 57.427 89.6192 56.9203 89.2325 56.2803C88.8458 55.627 88.6525 54.8803 88.6525 54.0403V48.4003H91.7125V54.0003C91.7125 54.3336 91.7658 54.6203 91.8725 54.8603C91.9925 55.1003 92.1658 55.287 92.3925 55.4203C92.6192 55.5536 92.8925 55.6203 93.2125 55.6203C93.6658 55.6203 94.0258 55.4803 94.2925 55.2003C94.5592 54.907 94.6925 54.507 94.6925 54.0003V48.4003H97.7525V54.0203C97.7525 54.8736 97.5592 55.627 97.1725 56.2803C96.7858 56.9203 96.2525 57.427 95.5725 57.8003C94.8925 58.1603 94.1058 58.3403 93.2125 58.3403ZM103.214 58.3603C102.64 58.3603 102.074 58.287 101.514 58.1403C100.967 57.9936 100.454 57.787 99.9738 57.5203C99.5071 57.2403 99.1071 56.9203 98.7738 56.5603L100.514 54.8003C100.834 55.147 101.214 55.4203 101.654 55.6203C102.094 55.807 102.574 55.9003 103.094 55.9003C103.454 55.9003 103.727 55.847 103.914 55.7403C104.114 55.6336 104.214 55.487 104.214 55.3003C104.214 55.0603 104.094 54.8803 103.854 54.7603C103.627 54.627 103.334 54.5136 102.974 54.4203C102.614 54.3136 102.234 54.2003 101.834 54.0803C101.434 53.9603 101.054 53.7936 100.694 53.5803C100.334 53.367 100.04 53.0736 99.8138 52.7003C99.5871 52.3136 99.4738 51.827 99.4738 51.2403C99.4738 50.6136 99.6338 50.0736 99.9538 49.6203C100.274 49.1536 100.727 48.787 101.314 48.5203C101.9 48.2536 102.587 48.1203 103.374 48.1203C104.2 48.1203 104.96 48.267 105.654 48.5603C106.36 48.8403 106.934 49.2603 107.374 49.8203L105.634 51.5803C105.327 51.2203 104.98 50.967 104.594 50.8203C104.22 50.6736 103.854 50.6003 103.494 50.6003C103.147 50.6003 102.887 50.6536 102.714 50.7603C102.54 50.8536 102.454 50.9936 102.454 51.1803C102.454 51.3803 102.567 51.5403 102.794 51.6603C103.02 51.7803 103.314 51.887 103.674 51.9803C104.034 52.0736 104.414 52.187 104.814 52.3203C105.214 52.4536 105.594 52.6336 105.954 52.8603C106.314 53.087 106.607 53.3936 106.834 53.7803C107.06 54.1536 107.174 54.647 107.174 55.2603C107.174 56.207 106.814 56.9603 106.094 57.5203C105.387 58.0803 104.427 58.3603 103.214 58.3603ZM108.834 58.1203V48.4003H111.894V58.1203H108.834ZM110.374 47.0603C109.894 47.0603 109.494 46.9003 109.174 46.5803C108.867 46.247 108.714 45.847 108.714 45.3803C108.714 44.9003 108.867 44.5003 109.174 44.1803C109.494 43.8603 109.894 43.7003 110.374 43.7003C110.854 43.7003 111.247 43.8603 111.554 44.1803C111.861 44.5003 112.014 44.9003 112.014 45.3803C112.014 45.847 111.861 46.247 111.554 46.5803C111.247 46.9003 110.854 47.0603 110.374 47.0603ZM120.469 58.1203V52.5803C120.469 52.0736 120.309 51.667 119.989 51.3603C119.682 51.0403 119.289 50.8803 118.809 50.8803C118.475 50.8803 118.182 50.9536 117.929 51.1003C117.675 51.2336 117.475 51.4336 117.329 51.7003C117.182 51.9536 117.109 52.247 117.109 52.5803L115.929 52.0003C115.929 51.2403 116.095 50.5736 116.429 50.0003C116.762 49.427 117.222 48.987 117.809 48.6803C118.409 48.3603 119.082 48.2003 119.829 48.2003C120.549 48.2003 121.182 48.3736 121.729 48.7203C122.289 49.0536 122.729 49.5003 123.049 50.0603C123.369 50.6203 123.529 51.2336 123.529 51.9003V58.1203H120.469ZM114.049 58.1203V48.4003H117.109V58.1203H114.049ZM130.294 58.3403C129.241 58.3403 128.301 58.127 127.474 57.7003C126.661 57.2603 126.021 56.6536 125.554 55.8803C125.087 55.107 124.854 54.2336 124.854 53.2603C124.854 52.287 125.081 51.4203 125.534 50.6603C126.001 49.887 126.627 49.2803 127.414 48.8403C128.201 48.4003 129.087 48.1803 130.074 48.1803C131.034 48.1803 131.881 48.387 132.614 48.8003C133.347 49.2136 133.921 49.787 134.334 50.5203C134.761 51.2536 134.974 52.0936 134.974 53.0403C134.974 53.2136 134.961 53.4003 134.934 53.6003C134.921 53.787 134.887 54.007 134.834 54.2603L126.454 54.2803V52.1803L133.534 52.1603L132.214 53.0403C132.201 52.4803 132.114 52.0203 131.954 51.6603C131.794 51.287 131.554 51.007 131.234 50.8203C130.927 50.6203 130.547 50.5203 130.094 50.5203C129.614 50.5203 129.194 50.6336 128.834 50.8603C128.487 51.0736 128.214 51.3803 128.014 51.7803C127.827 52.1803 127.734 52.667 127.734 53.2403C127.734 53.8136 127.834 54.307 128.034 54.7203C128.247 55.1203 128.541 55.4336 128.914 55.6603C129.301 55.8736 129.754 55.9803 130.274 55.9803C130.754 55.9803 131.187 55.9003 131.574 55.7403C131.961 55.567 132.301 55.3136 132.594 54.9803L134.274 56.6603C133.794 57.2203 133.214 57.6403 132.534 57.9203C131.854 58.2003 131.107 58.3403 130.294 58.3403ZM139.991 58.3603C139.418 58.3603 138.851 58.287 138.291 58.1403C137.744 57.9936 137.231 57.787 136.751 57.5203C136.284 57.2403 135.884 56.9203 135.551 56.5603L137.291 54.8003C137.611 55.147 137.991 55.4203 138.431 55.6203C138.871 55.807 139.351 55.9003 139.871 55.9003C140.231 55.9003 140.504 55.847 140.691 55.7403C140.891 55.6336 140.991 55.487 140.991 55.3003C140.991 55.0603 140.871 54.8803 140.631 54.7603C140.404 54.627 140.111 54.5136 139.751 54.4203C139.391 54.3136 139.011 54.2003 138.611 54.0803C138.211 53.9603 137.831 53.7936 137.471 53.5803C137.111 53.367 136.818 53.0736 136.591 52.7003C136.364 52.3136 136.251 51.827 136.251 51.2403C136.251 50.6136 136.411 50.0736 136.731 49.6203C137.051 49.1536 137.504 48.787 138.091 48.5203C138.678 48.2536 139.364 48.1203 140.151 48.1203C140.978 48.1203 141.738 48.267 142.431 48.5603C143.138 48.8403 143.711 49.2603 144.151 49.8203L142.411 51.5803C142.104 51.2203 141.758 50.967 141.371 50.8203C140.998 50.6736 140.631 50.6003 140.271 50.6003C139.924 50.6003 139.664 50.6536 139.491 50.7603C139.318 50.8536 139.231 50.9936 139.231 51.1803C139.231 51.3803 139.344 51.5403 139.571 51.6603C139.798 51.7803 140.091 51.887 140.451 51.9803C140.811 52.0736 141.191 52.187 141.591 52.3203C141.991 52.4536 142.371 52.6336 142.731 52.8603C143.091 53.087 143.384 53.3936 143.611 53.7803C143.838 54.1536 143.951 54.647 143.951 55.2603C143.951 56.207 143.591 56.9603 142.871 57.5203C142.164 58.0803 141.204 58.3603 139.991 58.3603ZM149.151 58.3603C148.578 58.3603 148.011 58.287 147.451 58.1403C146.905 57.9936 146.391 57.787 145.911 57.5203C145.445 57.2403 145.045 56.9203 144.711 56.5603L146.451 54.8003C146.771 55.147 147.151 55.4203 147.591 55.6203C148.031 55.807 148.511 55.9003 149.031 55.9003C149.391 55.9003 149.665 55.847 149.851 55.7403C150.051 55.6336 150.151 55.487 150.151 55.3003C150.151 55.0603 150.031 54.8803 149.791 54.7603C149.565 54.627 149.271 54.5136 148.911 54.4203C148.551 54.3136 148.171 54.2003 147.771 54.0803C147.371 53.9603 146.991 53.7936 146.631 53.5803C146.271 53.367 145.978 53.0736 145.751 52.7003C145.525 52.3136 145.411 51.827 145.411 51.2403C145.411 50.6136 145.571 50.0736 145.891 49.6203C146.211 49.1536 146.665 48.787 147.251 48.5203C147.838 48.2536 148.525 48.1203 149.311 48.1203C150.138 48.1203 150.898 48.267 151.591 48.5603C152.298 48.8403 152.871 49.2603 153.311 49.8203L151.571 51.5803C151.265 51.2203 150.918 50.967 150.531 50.8203C150.158 50.6736 149.791 50.6003 149.431 50.6003C149.085 50.6003 148.825 50.6536 148.651 50.7603C148.478 50.8536 148.391 50.9936 148.391 51.1803C148.391 51.3803 148.505 51.5403 148.731 51.6603C148.958 51.7803 149.251 51.887 149.611 51.9803C149.971 52.0736 150.351 52.187 150.751 52.3203C151.151 52.4536 151.531 52.6336 151.891 52.8603C152.251 53.087 152.545 53.3936 152.771 53.7803C152.998 54.1536 153.111 54.647 153.111 55.2603C153.111 56.207 152.751 56.9603 152.031 57.5203C151.325 58.0803 150.365 58.3603 149.151 58.3603ZM165.56 58.3403C164.507 58.3403 163.527 58.1603 162.62 57.8003C161.727 57.427 160.94 56.907 160.26 56.2403C159.593 55.5736 159.073 54.8003 158.7 53.9203C158.327 53.027 158.14 52.067 158.14 51.0403C158.14 50.0136 158.327 49.0603 158.7 48.1803C159.073 47.287 159.593 46.5136 160.26 45.8603C160.927 45.207 161.707 44.7003 162.6 44.3403C163.507 43.967 164.487 43.7803 165.54 43.7803C166.66 43.7803 167.653 43.9603 168.52 44.3203C169.4 44.6803 170.167 45.1736 170.82 45.8003L168.72 47.9203C168.347 47.5203 167.893 47.207 167.36 46.9803C166.84 46.7536 166.233 46.6403 165.54 46.6403C164.927 46.6403 164.36 46.747 163.84 46.9603C163.333 47.1603 162.893 47.4536 162.52 47.8403C162.16 48.227 161.873 48.6936 161.66 49.2403C161.46 49.787 161.36 50.387 161.36 51.0403C161.36 51.707 161.46 52.3136 161.66 52.8603C161.873 53.407 162.16 53.8736 162.52 54.2603C162.893 54.647 163.333 54.947 163.84 55.1603C164.36 55.3736 164.927 55.4803 165.54 55.4803C166.26 55.4803 166.887 55.367 167.42 55.1403C167.953 54.9136 168.413 54.6003 168.8 54.2003L170.92 56.3203C170.24 56.947 169.46 57.4403 168.58 57.8003C167.713 58.1603 166.707 58.3403 165.56 58.3403ZM176.815 58.3403C175.815 58.3403 174.908 58.1203 174.095 57.6803C173.295 57.227 172.661 56.6136 172.195 55.8403C171.728 55.067 171.495 54.2003 171.495 53.2403C171.495 52.2803 171.728 51.4203 172.195 50.6603C172.661 49.9003 173.295 49.3003 174.095 48.8603C174.895 48.407 175.801 48.1803 176.815 48.1803C177.828 48.1803 178.735 48.4003 179.535 48.8403C180.335 49.2803 180.968 49.887 181.435 50.6603C181.901 51.4203 182.135 52.2803 182.135 53.2403C182.135 54.2003 181.901 55.067 181.435 55.8403C180.968 56.6136 180.335 57.227 179.535 57.6803C178.735 58.1203 177.828 58.3403 176.815 58.3403ZM176.815 55.5603C177.255 55.5603 177.641 55.467 177.975 55.2803C178.308 55.0803 178.561 54.807 178.735 54.4603C178.921 54.1003 179.015 53.6936 179.015 53.2403C179.015 52.787 178.921 52.3936 178.735 52.0603C178.548 51.7136 178.288 51.447 177.955 51.2603C177.635 51.0603 177.255 50.9603 176.815 50.9603C176.388 50.9603 176.008 51.0603 175.675 51.2603C175.341 51.447 175.081 51.7136 174.895 52.0603C174.708 52.407 174.615 52.807 174.615 53.2603C174.615 53.7003 174.708 54.1003 174.895 54.4603C175.081 54.807 175.341 55.0803 175.675 55.2803C176.008 55.467 176.388 55.5603 176.815 55.5603ZM190.078 58.1203V52.5803C190.078 52.0736 189.918 51.667 189.598 51.3603C189.291 51.0403 188.898 50.8803 188.418 50.8803C188.085 50.8803 187.791 50.9536 187.538 51.1003C187.285 51.2336 187.085 51.4336 186.938 51.7003C186.791 51.9536 186.718 52.247 186.718 52.5803L185.538 52.0003C185.538 51.2403 185.705 50.5736 186.038 50.0003C186.371 49.427 186.831 48.987 187.418 48.6803C188.018 48.3603 188.691 48.2003 189.438 48.2003C190.158 48.2003 190.791 48.3736 191.338 48.7203C191.898 49.0536 192.338 49.5003 192.658 50.0603C192.978 50.6203 193.138 51.2336 193.138 51.9003V58.1203H190.078ZM183.658 58.1203V48.4003H186.718V58.1203H183.658ZM196.366 58.1203V44.3803H199.426V58.1203H196.366ZM194.166 51.0003V48.4003H201.626V51.0003H194.166ZM202.975 58.1203V48.4003H206.035V58.1203H202.975ZM204.515 47.0603C204.035 47.0603 203.635 46.9003 203.315 46.5803C203.008 46.247 202.855 45.847 202.855 45.3803C202.855 44.9003 203.008 44.5003 203.315 44.1803C203.635 43.8603 204.035 43.7003 204.515 43.7003C204.995 43.7003 205.388 43.8603 205.695 44.1803C206.001 44.5003 206.155 44.9003 206.155 45.3803C206.155 45.847 206.001 46.247 205.695 46.5803C205.388 46.9003 204.995 47.0603 204.515 47.0603ZM214.609 58.1203V52.5803C214.609 52.0736 214.449 51.667 214.129 51.3603C213.823 51.0403 213.429 50.8803 212.949 50.8803C212.616 50.8803 212.323 50.9536 212.069 51.1003C211.816 51.2336 211.616 51.4336 211.469 51.7003C211.323 51.9536 211.249 52.247 211.249 52.5803L210.069 52.0003C210.069 51.2403 210.236 50.5736 210.569 50.0003C210.903 49.427 211.363 48.987 211.949 48.6803C212.549 48.3603 213.223 48.2003 213.969 48.2003C214.689 48.2003 215.323 48.3736 215.869 48.7203C216.429 49.0536 216.869 49.5003 217.189 50.0603C217.509 50.6203 217.669 51.2336 217.669 51.9003V58.1203H214.609ZM208.189 58.1203V48.4003H211.249V58.1203H208.189ZM223.955 58.3403C223.061 58.3403 222.268 58.1603 221.575 57.8003C220.895 57.427 220.361 56.9203 219.975 56.2803C219.588 55.627 219.395 54.8803 219.395 54.0403V48.4003H222.455V54.0003C222.455 54.3336 222.508 54.6203 222.615 54.8603C222.735 55.1003 222.908 55.287 223.135 55.4203C223.361 55.5536 223.635 55.6203 223.955 55.6203C224.408 55.6203 224.768 55.4803 225.035 55.2003C225.301 54.907 225.435 54.507 225.435 54.0003V48.4003H228.495V54.0203C228.495 54.8736 228.301 55.627 227.915 56.2803C227.528 56.9203 226.995 57.427 226.315 57.8003C225.635 58.1603 224.848 58.3403 223.955 58.3403ZM230.416 58.1203V48.4003H233.476V58.1203H230.416ZM231.956 47.0603C231.476 47.0603 231.076 46.9003 230.756 46.5803C230.449 46.247 230.296 45.847 230.296 45.3803C230.296 44.9003 230.449 44.5003 230.756 44.1803C231.076 43.8603 231.476 43.7003 231.956 43.7003C232.436 43.7003 232.829 43.8603 233.136 44.1803C233.443 44.5003 233.596 44.9003 233.596 45.3803C233.596 45.847 233.443 46.247 233.136 46.5803C232.829 46.9003 232.436 47.0603 231.956 47.0603ZM237.011 58.1203V44.3803H240.071V58.1203H237.011ZM234.811 51.0003V48.4003H242.271V51.0003H234.811ZM246.619 58.1603L242.619 48.4003H245.919L248.459 56.1403H247.239L249.839 48.4003H253.139L248.979 58.1603H246.619ZM244.119 62.2203L247.039 55.9203L248.979 58.1603L247.259 62.2203H244.119Z" fill="white"/>
<path d="M262.36 205.714V191.594H265.5V205.714H262.36ZM264.76 205.714V202.994H272.5V205.714H264.76ZM264.76 199.814V197.194H271.8V199.814H264.76ZM264.76 194.294V191.594H272.4V194.294H264.76ZM280.405 205.714L278.065 201.934L277.405 201.514L273.585 195.994H277.165L279.345 199.534L279.985 199.934L283.945 205.714H280.405ZM273.405 205.714L277.385 200.054L279.125 202.014L276.745 205.714H273.405ZM279.965 201.494L278.225 199.534L280.425 195.994H283.745L279.965 201.494ZM290.707 205.914C290.054 205.914 289.454 205.788 288.907 205.534C288.361 205.281 287.914 204.934 287.567 204.494C287.221 204.041 287.021 203.528 286.967 202.954V198.854C287.021 198.281 287.221 197.761 287.567 197.294C287.914 196.828 288.361 196.461 288.907 196.194C289.454 195.928 290.054 195.794 290.707 195.794C291.627 195.794 292.441 196.014 293.147 196.454C293.867 196.894 294.427 197.494 294.827 198.254C295.241 199.014 295.447 199.881 295.447 200.854C295.447 201.828 295.241 202.694 294.827 203.454C294.427 204.214 293.867 204.814 293.147 205.254C292.441 205.694 291.627 205.914 290.707 205.914ZM285.107 209.814V195.994H288.167V198.494L287.667 200.854L288.127 203.214V209.814H285.107ZM290.147 203.154C290.587 203.154 290.967 203.054 291.287 202.854C291.621 202.654 291.881 202.381 292.067 202.034C292.254 201.688 292.347 201.294 292.347 200.854C292.347 200.401 292.254 200.001 292.067 199.654C291.881 199.308 291.621 199.041 291.287 198.854C290.967 198.654 290.594 198.554 290.167 198.554C289.741 198.554 289.361 198.654 289.027 198.854C288.707 199.041 288.454 199.308 288.267 199.654C288.081 200.001 287.987 200.401 287.987 200.854C287.987 201.294 288.074 201.688 288.247 202.034C288.434 202.381 288.694 202.654 289.027 202.854C289.361 203.054 289.734 203.154 290.147 203.154ZM301.802 205.934C300.749 205.934 299.809 205.721 298.982 205.294C298.169 204.854 297.529 204.248 297.062 203.474C296.595 202.701 296.362 201.828 296.362 200.854C296.362 199.881 296.589 199.014 297.042 198.254C297.509 197.481 298.135 196.874 298.922 196.434C299.709 195.994 300.595 195.774 301.582 195.774C302.542 195.774 303.389 195.981 304.122 196.394C304.855 196.808 305.429 197.381 305.842 198.114C306.269 198.848 306.482 199.688 306.482 200.634C306.482 200.808 306.469 200.994 306.442 201.194C306.429 201.381 306.395 201.601 306.342 201.854L297.962 201.874V199.774L305.042 199.754L303.722 200.634C303.709 200.074 303.622 199.614 303.462 199.254C303.302 198.881 303.062 198.601 302.742 198.414C302.435 198.214 302.055 198.114 301.602 198.114C301.122 198.114 300.702 198.228 300.342 198.454C299.995 198.668 299.722 198.974 299.522 199.374C299.335 199.774 299.242 200.261 299.242 200.834C299.242 201.408 299.342 201.901 299.542 202.314C299.755 202.714 300.049 203.028 300.422 203.254C300.809 203.468 301.262 203.574 301.782 203.574C302.262 203.574 302.695 203.494 303.082 203.334C303.469 203.161 303.809 202.908 304.102 202.574L305.782 204.254C305.302 204.814 304.722 205.234 304.042 205.514C303.362 205.794 302.615 205.934 301.802 205.934ZM307.959 205.714V195.994H311.019V205.714H307.959ZM311.019 200.374L309.739 199.374C309.992 198.241 310.419 197.361 311.019 196.734C311.619 196.108 312.452 195.794 313.519 195.794C313.986 195.794 314.392 195.868 314.739 196.014C315.099 196.148 315.412 196.361 315.679 196.654L313.859 198.954C313.726 198.808 313.559 198.694 313.359 198.614C313.159 198.534 312.932 198.494 312.679 198.494C312.172 198.494 311.766 198.654 311.459 198.974C311.166 199.281 311.019 199.748 311.019 200.374ZM317.972 205.714V191.974H321.032V205.714H317.972ZM315.772 198.594V195.994H323.232V198.594H315.772ZM328.669 205.714V191.594H331.809V205.714H328.669ZM337.988 205.714V191.794H341.128V205.714H337.988ZM333.568 194.334V191.594H345.548V194.334H333.568ZM357.458 205.934C356.431 205.934 355.464 205.748 354.558 205.374C353.664 205.001 352.884 204.488 352.218 203.834C351.551 203.168 351.024 202.394 350.638 201.514C350.264 200.621 350.078 199.661 350.078 198.634C350.078 197.608 350.271 196.654 350.658 195.774C351.044 194.894 351.578 194.128 352.258 193.474C352.951 192.808 353.758 192.294 354.678 191.934C355.598 191.561 356.584 191.374 357.638 191.374C358.851 191.374 359.951 191.594 360.938 192.034C361.938 192.474 362.764 193.081 363.418 193.854L361.278 195.994C360.824 195.408 360.291 194.968 359.678 194.674C359.064 194.381 358.371 194.234 357.598 194.234C356.771 194.234 356.031 194.421 355.378 194.794C354.724 195.154 354.211 195.668 353.838 196.334C353.478 196.988 353.298 197.754 353.298 198.634C353.298 199.514 353.478 200.288 353.838 200.954C354.198 201.621 354.691 202.141 355.317 202.514C355.944 202.888 356.664 203.074 357.478 203.074C358.304 203.074 359.004 202.921 359.578 202.614C360.164 202.294 360.611 201.841 360.918 201.254C361.238 200.654 361.398 199.928 361.398 199.074L363.478 200.474L357.178 200.374V197.714H364.598V198.174C364.598 199.868 364.291 201.294 363.678 202.454C363.078 203.601 362.238 204.468 361.158 205.054C360.091 205.641 358.858 205.934 357.458 205.934ZM370.541 205.934C369.647 205.934 368.854 205.754 368.161 205.394C367.481 205.021 366.947 204.514 366.561 203.874C366.174 203.221 365.981 202.474 365.981 201.634V195.994H369.041V201.594C369.041 201.928 369.094 202.214 369.201 202.454C369.321 202.694 369.494 202.881 369.721 203.014C369.947 203.148 370.221 203.214 370.541 203.214C370.994 203.214 371.354 203.074 371.621 202.794C371.887 202.501 372.021 202.101 372.021 201.594V195.994H375.081V201.614C375.081 202.468 374.887 203.221 374.501 203.874C374.114 204.514 373.581 205.021 372.901 205.394C372.221 205.754 371.434 205.934 370.541 205.934ZM377.002 205.714V195.994H380.062V205.714H377.002ZM378.542 194.654C378.062 194.654 377.662 194.494 377.342 194.174C377.035 193.841 376.882 193.441 376.882 192.974C376.882 192.494 377.035 192.094 377.342 191.774C377.662 191.454 378.062 191.294 378.542 191.294C379.022 191.294 379.415 191.454 379.722 191.774C380.029 192.094 380.182 192.494 380.182 192.974C380.182 193.441 380.029 193.841 379.722 194.174C379.415 194.494 379.022 194.654 378.542 194.654ZM386.357 205.914C385.437 205.914 384.617 205.694 383.897 205.254C383.19 204.814 382.63 204.214 382.217 203.454C381.817 202.694 381.617 201.828 381.617 200.854C381.617 199.881 381.817 199.014 382.217 198.254C382.63 197.494 383.19 196.894 383.897 196.454C384.617 196.014 385.437 195.794 386.357 195.794C387.023 195.794 387.623 195.921 388.157 196.174C388.703 196.428 389.15 196.781 389.497 197.234C389.857 197.674 390.057 198.181 390.097 198.754V202.854C390.057 203.428 389.863 203.948 389.517 204.414C389.17 204.868 388.723 205.234 388.177 205.514C387.63 205.781 387.023 205.914 386.357 205.914ZM386.897 203.154C387.337 203.154 387.717 203.061 388.037 202.874C388.357 202.674 388.61 202.401 388.797 202.054C388.983 201.708 389.077 201.308 389.077 200.854C389.077 200.401 388.983 200.008 388.797 199.674C388.623 199.328 388.37 199.054 388.037 198.854C387.717 198.654 387.343 198.554 386.917 198.554C386.49 198.554 386.11 198.654 385.777 198.854C385.457 199.054 385.197 199.328 384.997 199.674C384.81 200.021 384.717 200.414 384.717 200.854C384.717 201.294 384.81 201.688 384.997 202.034C385.183 202.381 385.443 202.654 385.777 202.854C386.11 203.054 386.483 203.154 386.897 203.154ZM391.957 205.714H388.957V203.094L389.417 200.734L388.897 198.374V191.194H391.957V205.714ZM398.171 205.914C397.278 205.914 396.478 205.694 395.771 205.254C395.078 204.814 394.525 204.214 394.111 203.454C393.711 202.694 393.511 201.828 393.511 200.854C393.511 199.881 393.711 199.014 394.111 198.254C394.525 197.494 395.078 196.894 395.771 196.454C396.478 196.014 397.278 195.794 398.171 195.794C398.825 195.794 399.411 195.921 399.931 196.174C400.465 196.428 400.898 196.781 401.231 197.234C401.565 197.674 401.751 198.181 401.791 198.754V202.954C401.751 203.528 401.565 204.041 401.231 204.494C400.911 204.934 400.485 205.281 399.951 205.534C399.418 205.788 398.825 205.914 398.171 205.914ZM398.791 203.154C399.445 203.154 399.971 202.941 400.371 202.514C400.771 202.074 400.971 201.521 400.971 200.854C400.971 200.401 400.878 200.001 400.691 199.654C400.518 199.308 400.265 199.041 399.931 198.854C399.611 198.654 399.238 198.554 398.811 198.554C398.385 198.554 398.005 198.654 397.671 198.854C397.351 199.041 397.091 199.308 396.891 199.654C396.705 200.001 396.611 200.401 396.611 200.854C396.611 201.294 396.705 201.688 396.891 202.034C397.078 202.381 397.338 202.654 397.671 202.854C398.005 203.054 398.378 203.154 398.791 203.154ZM400.851 205.714V203.094L401.311 200.734L400.851 198.374V195.994H403.851V205.714H400.851ZM412.426 205.714V200.174C412.426 199.668 412.266 199.261 411.946 198.954C411.639 198.634 411.246 198.474 410.766 198.474C410.432 198.474 410.139 198.548 409.886 198.694C409.632 198.828 409.432 199.028 409.286 199.294C409.139 199.548 409.066 199.841 409.066 200.174L407.886 199.594C407.886 198.834 408.052 198.168 408.386 197.594C408.719 197.021 409.179 196.581 409.766 196.274C410.366 195.954 411.039 195.794 411.786 195.794C412.506 195.794 413.139 195.968 413.686 196.314C414.246 196.648 414.686 197.094 415.006 197.654C415.326 198.214 415.486 198.828 415.486 199.494V205.714H412.426ZM406.006 205.714V195.994H409.066V205.714H406.006ZM422.151 205.934C421.151 205.934 420.244 205.714 419.431 205.274C418.618 204.834 417.978 204.228 417.511 203.454C417.044 202.681 416.811 201.814 416.811 200.854C416.811 199.881 417.044 199.014 417.511 198.254C417.991 197.481 418.638 196.874 419.451 196.434C420.264 195.994 421.178 195.774 422.191 195.774C422.951 195.774 423.644 195.908 424.271 196.174C424.911 196.428 425.478 196.814 425.971 197.334L424.011 199.294C423.784 199.041 423.518 198.854 423.211 198.734C422.918 198.614 422.578 198.554 422.191 198.554C421.751 198.554 421.358 198.654 421.011 198.854C420.678 199.041 420.411 199.308 420.211 199.654C420.024 199.988 419.931 200.381 419.931 200.834C419.931 201.288 420.024 201.688 420.211 202.034C420.411 202.381 420.684 202.654 421.031 202.854C421.378 203.054 421.764 203.154 422.191 203.154C422.591 203.154 422.944 203.088 423.251 202.954C423.571 202.808 423.844 202.608 424.071 202.354L426.011 204.314C425.504 204.848 424.931 205.254 424.291 205.534C423.651 205.801 422.938 205.934 422.151 205.934ZM431.939 205.934C430.885 205.934 429.945 205.721 429.119 205.294C428.305 204.854 427.665 204.248 427.199 203.474C426.732 202.701 426.499 201.828 426.499 200.854C426.499 199.881 426.725 199.014 427.179 198.254C427.645 197.481 428.272 196.874 429.059 196.434C429.845 195.994 430.732 195.774 431.719 195.774C432.679 195.774 433.525 195.981 434.259 196.394C434.992 196.808 435.565 197.381 435.979 198.114C436.405 198.848 436.619 199.688 436.619 200.634C436.619 200.808 436.605 200.994 436.579 201.194C436.565 201.381 436.532 201.601 436.479 201.854L428.099 201.874V199.774L435.179 199.754L433.859 200.634C433.845 200.074 433.759 199.614 433.599 199.254C433.439 198.881 433.199 198.601 432.879 198.414C432.572 198.214 432.192 198.114 431.739 198.114C431.259 198.114 430.839 198.228 430.479 198.454C430.132 198.668 429.859 198.974 429.659 199.374C429.472 199.774 429.379 200.261 429.379 200.834C429.379 201.408 429.479 201.901 429.679 202.314C429.892 202.714 430.185 203.028 430.559 203.254C430.945 203.468 431.399 203.574 431.919 203.574C432.399 203.574 432.832 203.494 433.219 203.334C433.605 203.161 433.945 202.908 434.239 202.574L435.919 204.254C435.439 204.814 434.859 205.234 434.179 205.514C433.499 205.794 432.752 205.934 431.939 205.934Z" fill="white"/>
<path d="M292.76 477.444V475.004H296.08C296.693 475.004 297.173 474.824 297.52 474.464C297.867 474.104 298.04 473.664 298.04 473.144C298.04 472.784 297.96 472.464 297.8 472.184C297.64 471.904 297.413 471.684 297.12 471.524C296.84 471.364 296.493 471.284 296.08 471.284H292.76V468.904H295.82C296.34 468.904 296.76 468.777 297.08 468.524C297.4 468.257 297.56 467.857 297.56 467.324C297.56 466.804 297.4 466.417 297.08 466.164C296.76 465.897 296.34 465.764 295.82 465.764H292.76V463.324H296.42C297.327 463.324 298.093 463.49 298.72 463.824C299.36 464.157 299.847 464.604 300.18 465.164C300.513 465.724 300.68 466.344 300.68 467.024C300.68 467.89 300.4 468.624 299.84 469.224C299.28 469.824 298.453 470.237 297.36 470.464L297.44 469.404C298.627 469.63 299.54 470.09 300.18 470.784C300.833 471.477 301.16 472.33 301.16 473.344C301.16 474.117 300.967 474.817 300.58 475.444C300.207 476.057 299.66 476.544 298.94 476.904C298.233 477.264 297.38 477.444 296.38 477.444H292.76ZM290.36 477.444V463.324H293.46V477.444H290.36ZM307.692 477.664C306.639 477.664 305.699 477.45 304.873 477.024C304.059 476.584 303.419 475.977 302.953 475.204C302.486 474.43 302.253 473.557 302.253 472.584C302.253 471.61 302.479 470.744 302.933 469.984C303.399 469.21 304.026 468.604 304.813 468.164C305.599 467.724 306.486 467.504 307.473 467.504C308.433 467.504 309.279 467.71 310.013 468.124C310.746 468.537 311.319 469.11 311.733 469.844C312.159 470.577 312.372 471.417 312.372 472.364C312.372 472.537 312.359 472.724 312.333 472.924C312.319 473.11 312.286 473.33 312.233 473.584L303.853 473.604V471.504L310.933 471.484L309.613 472.364C309.599 471.804 309.513 471.344 309.353 470.984C309.193 470.61 308.953 470.33 308.633 470.144C308.326 469.944 307.946 469.844 307.493 469.844C307.013 469.844 306.593 469.957 306.233 470.184C305.886 470.397 305.613 470.704 305.413 471.104C305.226 471.504 305.133 471.99 305.133 472.564C305.133 473.137 305.233 473.63 305.433 474.044C305.646 474.444 305.939 474.757 306.313 474.984C306.699 475.197 307.153 475.304 307.673 475.304C308.153 475.304 308.586 475.224 308.973 475.064C309.359 474.89 309.699 474.637 309.993 474.304L311.673 475.984C311.193 476.544 310.613 476.964 309.933 477.244C309.253 477.524 308.506 477.664 307.692 477.664ZM315.23 477.444V463.704H318.29V477.444H315.23ZM313.03 470.324V467.724H326.65V470.324H313.03ZM321.39 477.444V463.704H324.45V477.444H321.39ZM332.595 477.664C331.542 477.664 330.602 477.45 329.775 477.024C328.962 476.584 328.322 475.977 327.855 475.204C327.388 474.43 327.155 473.557 327.155 472.584C327.155 471.61 327.382 470.744 327.835 469.984C328.302 469.21 328.928 468.604 329.715 468.164C330.502 467.724 331.388 467.504 332.375 467.504C333.335 467.504 334.182 467.71 334.915 468.124C335.648 468.537 336.222 469.11 336.635 469.844C337.062 470.577 337.275 471.417 337.275 472.364C337.275 472.537 337.262 472.724 337.235 472.924C337.222 473.11 337.188 473.33 337.135 473.584L328.755 473.604V471.504L335.835 471.484L334.515 472.364C334.502 471.804 334.415 471.344 334.255 470.984C334.095 470.61 333.855 470.33 333.535 470.144C333.228 469.944 332.848 469.844 332.395 469.844C331.915 469.844 331.495 469.957 331.135 470.184C330.788 470.397 330.515 470.704 330.315 471.104C330.128 471.504 330.035 471.99 330.035 472.564C330.035 473.137 330.135 473.63 330.335 474.044C330.548 474.444 330.842 474.757 331.215 474.984C331.602 475.197 332.055 475.304 332.575 475.304C333.055 475.304 333.488 475.224 333.875 475.064C334.262 474.89 334.602 474.637 334.895 474.304L336.575 475.984C336.095 476.544 335.515 476.964 334.835 477.244C334.155 477.524 333.408 477.664 332.595 477.664ZM338.752 477.444V467.724H341.812V477.444H338.752ZM341.812 472.104L340.532 471.104C340.785 469.97 341.212 469.09 341.812 468.464C342.412 467.837 343.245 467.524 344.312 467.524C344.779 467.524 345.185 467.597 345.532 467.744C345.892 467.877 346.205 468.09 346.472 468.384L344.652 470.684C344.519 470.537 344.352 470.424 344.152 470.344C343.952 470.264 343.725 470.224 343.472 470.224C342.965 470.224 342.559 470.384 342.252 470.704C341.959 471.01 341.812 471.477 341.812 472.104ZM354.127 471.624V469.304H357.107C357.734 469.304 358.214 469.144 358.547 468.824C358.894 468.504 359.067 468.07 359.067 467.524C359.067 467.017 358.901 466.597 358.567 466.264C358.234 465.93 357.754 465.764 357.127 465.764H354.127V463.324H357.487C358.421 463.324 359.241 463.504 359.947 463.864C360.654 464.21 361.207 464.697 361.607 465.324C362.007 465.95 362.207 466.67 362.207 467.484C362.207 468.31 362.007 469.037 361.607 469.664C361.207 470.277 360.647 470.757 359.927 471.104C359.207 471.45 358.361 471.624 357.387 471.624H354.127ZM351.727 477.444V463.324H354.867V477.444H351.727ZM359.407 477.444L355.007 471.364L357.887 470.584L363.127 477.444H359.407ZM368.767 477.664C367.713 477.664 366.773 477.45 365.947 477.024C365.133 476.584 364.493 475.977 364.027 475.204C363.56 474.43 363.327 473.557 363.327 472.584C363.327 471.61 363.553 470.744 364.007 469.984C364.473 469.21 365.1 468.604 365.887 468.164C366.673 467.724 367.56 467.504 368.547 467.504C369.507 467.504 370.353 467.71 371.087 468.124C371.82 468.537 372.393 469.11 372.807 469.844C373.233 470.577 373.447 471.417 373.447 472.364C373.447 472.537 373.433 472.724 373.407 472.924C373.393 473.11 373.36 473.33 373.307 473.584L364.927 473.604V471.504L372.007 471.484L370.687 472.364C370.673 471.804 370.587 471.344 370.427 470.984C370.267 470.61 370.027 470.33 369.707 470.144C369.4 469.944 369.02 469.844 368.567 469.844C368.087 469.844 367.667 469.957 367.307 470.184C366.96 470.397 366.687 470.704 366.487 471.104C366.3 471.504 366.207 471.99 366.207 472.564C366.207 473.137 366.307 473.63 366.507 474.044C366.72 474.444 367.013 474.757 367.387 474.984C367.773 475.197 368.227 475.304 368.747 475.304C369.227 475.304 369.66 475.224 370.047 475.064C370.433 474.89 370.773 474.637 371.067 474.304L372.747 475.984C372.267 476.544 371.687 476.964 371.007 477.244C370.327 477.524 369.58 477.664 368.767 477.664ZM378.464 477.684C377.89 477.684 377.324 477.61 376.764 477.464C376.217 477.317 375.704 477.11 375.224 476.844C374.757 476.564 374.357 476.244 374.024 475.884L375.764 474.124C376.084 474.47 376.464 474.744 376.904 474.944C377.344 475.13 377.824 475.224 378.344 475.224C378.704 475.224 378.977 475.17 379.164 475.064C379.364 474.957 379.464 474.81 379.464 474.624C379.464 474.384 379.344 474.204 379.104 474.084C378.877 473.95 378.584 473.837 378.224 473.744C377.864 473.637 377.484 473.524 377.084 473.404C376.684 473.284 376.304 473.117 375.944 472.904C375.584 472.69 375.29 472.397 375.064 472.024C374.837 471.637 374.724 471.15 374.724 470.564C374.724 469.937 374.884 469.397 375.204 468.944C375.524 468.477 375.977 468.11 376.564 467.844C377.15 467.577 377.837 467.444 378.624 467.444C379.45 467.444 380.21 467.59 380.904 467.884C381.61 468.164 382.184 468.584 382.624 469.144L380.884 470.904C380.577 470.544 380.23 470.29 379.844 470.144C379.47 469.997 379.104 469.924 378.744 469.924C378.397 469.924 378.137 469.977 377.964 470.084C377.79 470.177 377.704 470.317 377.704 470.504C377.704 470.704 377.817 470.864 378.044 470.984C378.27 471.104 378.564 471.21 378.924 471.304C379.284 471.397 379.664 471.51 380.064 471.644C380.464 471.777 380.844 471.957 381.204 472.184C381.564 472.41 381.857 472.717 382.084 473.104C382.31 473.477 382.424 473.97 382.424 474.584C382.424 475.53 382.064 476.284 381.344 476.844C380.637 477.404 379.677 477.684 378.464 477.684ZM388.764 477.664C387.764 477.664 386.857 477.444 386.044 477.004C385.244 476.55 384.611 475.937 384.144 475.164C383.677 474.39 383.444 473.524 383.444 472.564C383.444 471.604 383.677 470.744 384.144 469.984C384.611 469.224 385.244 468.624 386.044 468.184C386.844 467.73 387.751 467.504 388.764 467.504C389.777 467.504 390.684 467.724 391.484 468.164C392.284 468.604 392.917 469.21 393.384 469.984C393.851 470.744 394.084 471.604 394.084 472.564C394.084 473.524 393.851 474.39 393.384 475.164C392.917 475.937 392.284 476.55 391.484 477.004C390.684 477.444 389.777 477.664 388.764 477.664ZM388.764 474.884C389.204 474.884 389.591 474.79 389.924 474.604C390.257 474.404 390.511 474.13 390.684 473.784C390.871 473.424 390.964 473.017 390.964 472.564C390.964 472.11 390.871 471.717 390.684 471.384C390.497 471.037 390.237 470.77 389.904 470.584C389.584 470.384 389.204 470.284 388.764 470.284C388.337 470.284 387.957 470.384 387.624 470.584C387.291 470.77 387.031 471.037 386.844 471.384C386.657 471.73 386.564 472.13 386.564 472.584C386.564 473.024 386.657 473.424 386.844 473.784C387.031 474.13 387.291 474.404 387.624 474.604C387.957 474.79 388.337 474.884 388.764 474.884ZM399.927 477.664C399.034 477.664 398.241 477.484 397.547 477.124C396.867 476.75 396.334 476.244 395.947 475.604C395.561 474.95 395.367 474.204 395.367 473.364V467.724H398.427V473.324C398.427 473.657 398.481 473.944 398.587 474.184C398.707 474.424 398.881 474.61 399.107 474.744C399.334 474.877 399.607 474.944 399.927 474.944C400.381 474.944 400.741 474.804 401.007 474.524C401.274 474.23 401.407 473.83 401.407 473.324V467.724H404.467V473.344C404.467 474.197 404.274 474.95 403.887 475.604C403.501 476.244 402.967 476.75 402.287 477.124C401.607 477.484 400.821 477.664 399.927 477.664ZM406.389 477.444V467.724H409.449V477.444H406.389ZM409.449 472.104L408.169 471.104C408.422 469.97 408.849 469.09 409.449 468.464C410.049 467.837 410.882 467.524 411.949 467.524C412.415 467.524 412.822 467.597 413.169 467.744C413.529 467.877 413.842 468.09 414.109 468.384L412.289 470.684C412.155 470.537 411.989 470.424 411.789 470.344C411.589 470.264 411.362 470.224 411.109 470.224C410.602 470.224 410.195 470.384 409.889 470.704C409.595 471.01 409.449 471.477 409.449 472.104ZM419.35 477.664C418.35 477.664 417.444 477.444 416.63 477.004C415.817 476.564 415.177 475.957 414.71 475.184C414.244 474.41 414.01 473.544 414.01 472.584C414.01 471.61 414.244 470.744 414.71 469.984C415.19 469.21 415.837 468.604 416.65 468.164C417.464 467.724 418.377 467.504 419.39 467.504C420.15 467.504 420.844 467.637 421.47 467.904C422.11 468.157 422.677 468.544 423.17 469.064L421.21 471.024C420.984 470.77 420.717 470.584 420.41 470.464C420.117 470.344 419.777 470.284 419.39 470.284C418.95 470.284 418.557 470.384 418.21 470.584C417.877 470.77 417.61 471.037 417.41 471.384C417.224 471.717 417.13 472.11 417.13 472.564C417.13 473.017 417.224 473.417 417.41 473.764C417.61 474.11 417.884 474.384 418.23 474.584C418.577 474.784 418.964 474.884 419.39 474.884C419.79 474.884 420.144 474.817 420.45 474.684C420.77 474.537 421.044 474.337 421.27 474.084L423.21 476.044C422.704 476.577 422.13 476.984 421.49 477.264C420.85 477.53 420.137 477.664 419.35 477.664ZM429.138 477.664C428.084 477.664 427.144 477.45 426.318 477.024C425.504 476.584 424.864 475.977 424.398 475.204C423.931 474.43 423.698 473.557 423.698 472.584C423.698 471.61 423.924 470.744 424.378 469.984C424.844 469.21 425.471 468.604 426.258 468.164C427.044 467.724 427.931 467.504 428.918 467.504C429.878 467.504 430.724 467.71 431.458 468.124C432.191 468.537 432.764 469.11 433.178 469.844C433.604 470.577 433.818 471.417 433.818 472.364C433.818 472.537 433.804 472.724 433.778 472.924C433.764 473.11 433.731 473.33 433.678 473.584L425.298 473.604V471.504L432.378 471.484L431.058 472.364C431.044 471.804 430.958 471.344 430.798 470.984C430.638 470.61 430.398 470.33 430.078 470.144C429.771 469.944 429.391 469.844 428.938 469.844C428.458 469.844 428.038 469.957 427.678 470.184C427.331 470.397 427.058 470.704 426.858 471.104C426.671 471.504 426.578 471.99 426.578 472.564C426.578 473.137 426.678 473.63 426.878 474.044C427.091 474.444 427.384 474.757 427.758 474.984C428.144 475.197 428.598 475.304 429.118 475.304C429.598 475.304 430.031 475.224 430.418 475.064C430.804 474.89 431.144 474.637 431.438 474.304L433.118 475.984C432.638 476.544 432.058 476.964 431.378 477.244C430.698 477.524 429.951 477.664 429.138 477.664ZM437.757 477.444L443.357 463.324H446.197L451.737 477.444H448.417L444.177 465.724H445.317L441.017 477.444H437.757ZM440.937 474.884V472.324H448.637V474.884H440.937ZM453.107 477.444V462.924H456.167V477.444H453.107ZM458.322 477.444V462.924H461.382V477.444H458.322ZM468.217 477.664C467.217 477.664 466.31 477.444 465.497 477.004C464.697 476.55 464.064 475.937 463.597 475.164C463.13 474.39 462.897 473.524 462.897 472.564C462.897 471.604 463.13 470.744 463.597 469.984C464.064 469.224 464.697 468.624 465.497 468.184C466.297 467.73 467.204 467.504 468.217 467.504C469.23 467.504 470.137 467.724 470.937 468.164C471.737 468.604 472.37 469.21 472.837 469.984C473.304 470.744 473.537 471.604 473.537 472.564C473.537 473.524 473.304 474.39 472.837 475.164C472.37 475.937 471.737 476.55 470.937 477.004C470.137 477.444 469.23 477.664 468.217 477.664ZM468.217 474.884C468.657 474.884 469.044 474.79 469.377 474.604C469.71 474.404 469.964 474.13 470.137 473.784C470.324 473.424 470.417 473.017 470.417 472.564C470.417 472.11 470.324 471.717 470.137 471.384C469.95 471.037 469.69 470.77 469.357 470.584C469.037 470.384 468.657 470.284 468.217 470.284C467.79 470.284 467.41 470.384 467.077 470.584C466.744 470.77 466.484 471.037 466.297 471.384C466.11 471.73 466.017 472.13 466.017 472.584C466.017 473.024 466.11 473.424 466.297 473.784C466.484 474.13 466.744 474.404 467.077 474.604C467.41 474.79 467.79 474.884 468.217 474.884ZM479.76 477.664C478.76 477.664 477.854 477.444 477.04 477.004C476.227 476.564 475.587 475.957 475.12 475.184C474.654 474.41 474.42 473.544 474.42 472.584C474.42 471.61 474.654 470.744 475.12 469.984C475.6 469.21 476.247 468.604 477.06 468.164C477.874 467.724 478.787 467.504 479.8 467.504C480.56 467.504 481.254 467.637 481.88 467.904C482.52 468.157 483.087 468.544 483.58 469.064L481.62 471.024C481.394 470.77 481.127 470.584 480.82 470.464C480.527 470.344 480.187 470.284 479.8 470.284C479.36 470.284 478.967 470.384 478.62 470.584C478.287 470.77 478.02 471.037 477.82 471.384C477.634 471.717 477.54 472.11 477.54 472.564C477.54 473.017 477.634 473.417 477.82 473.764C478.02 474.11 478.294 474.384 478.64 474.584C478.987 474.784 479.374 474.884 479.8 474.884C480.2 474.884 480.554 474.817 480.86 474.684C481.18 474.537 481.454 474.337 481.68 474.084L483.62 476.044C483.114 476.577 482.54 476.984 481.9 477.264C481.26 477.53 480.547 477.664 479.76 477.664ZM488.808 477.644C487.915 477.644 487.115 477.424 486.408 476.984C485.715 476.544 485.161 475.944 484.748 475.184C484.348 474.424 484.148 473.557 484.148 472.584C484.148 471.61 484.348 470.744 484.748 469.984C485.161 469.224 485.715 468.624 486.408 468.184C487.115 467.744 487.915 467.524 488.808 467.524C489.461 467.524 490.048 467.65 490.568 467.904C491.101 468.157 491.535 468.51 491.868 468.964C492.201 469.404 492.388 469.91 492.428 470.484V474.684C492.388 475.257 492.201 475.77 491.868 476.224C491.548 476.664 491.121 477.01 490.588 477.264C490.055 477.517 489.461 477.644 488.808 477.644ZM489.428 474.884C490.081 474.884 490.608 474.67 491.008 474.244C491.408 473.804 491.608 473.25 491.608 472.584C491.608 472.13 491.515 471.73 491.328 471.384C491.155 471.037 490.901 470.77 490.568 470.584C490.248 470.384 489.875 470.284 489.448 470.284C489.021 470.284 488.641 470.384 488.308 470.584C487.988 470.77 487.728 471.037 487.528 471.384C487.341 471.73 487.248 472.13 487.248 472.584C487.248 473.024 487.341 473.417 487.528 473.764C487.715 474.11 487.975 474.384 488.308 474.584C488.641 474.784 489.015 474.884 489.428 474.884ZM491.488 477.444V474.824L491.948 472.464L491.488 470.104V467.724H494.488V477.444H491.488ZM498.023 477.444V463.704H501.083V477.444H498.023ZM495.823 470.324V467.724H503.283V470.324H495.823ZM504.631 477.444V467.724H507.691V477.444H504.631ZM506.171 466.384C505.691 466.384 505.291 466.224 504.971 465.904C504.664 465.57 504.511 465.17 504.511 464.704C504.511 464.224 504.664 463.824 504.971 463.504C505.291 463.184 505.691 463.024 506.171 463.024C506.651 463.024 507.044 463.184 507.351 463.504C507.657 463.824 507.811 464.224 507.811 464.704C507.811 465.17 507.657 465.57 507.351 465.904C507.044 466.224 506.651 466.384 506.171 466.384ZM514.526 477.664C513.526 477.664 512.619 477.444 511.806 477.004C511.006 476.55 510.372 475.937 509.906 475.164C509.439 474.39 509.206 473.524 509.206 472.564C509.206 471.604 509.439 470.744 509.906 469.984C510.372 469.224 511.006 468.624 511.806 468.184C512.606 467.73 513.512 467.504 514.526 467.504C515.539 467.504 516.446 467.724 517.246 468.164C518.046 468.604 518.679 469.21 519.146 469.984C519.612 470.744 519.846 471.604 519.846 472.564C519.846 473.524 519.612 474.39 519.146 475.164C518.679 475.937 518.046 476.55 517.246 477.004C516.446 477.444 515.539 477.664 514.526 477.664ZM514.526 474.884C514.966 474.884 515.352 474.79 515.686 474.604C516.019 474.404 516.272 474.13 516.446 473.784C516.632 473.424 516.726 473.017 516.726 472.564C516.726 472.11 516.632 471.717 516.446 471.384C516.259 471.037 515.999 470.77 515.666 470.584C515.346 470.384 514.966 470.284 514.526 470.284C514.099 470.284 513.719 470.384 513.386 470.584C513.052 470.77 512.792 471.037 512.606 471.384C512.419 471.73 512.326 472.13 512.326 472.584C512.326 473.024 512.419 473.424 512.606 473.784C512.792 474.13 513.052 474.404 513.386 474.604C513.719 474.79 514.099 474.884 514.526 474.884ZM527.789 477.444V471.904C527.789 471.397 527.629 470.99 527.309 470.684C527.002 470.364 526.609 470.204 526.129 470.204C525.796 470.204 525.502 470.277 525.249 470.424C524.996 470.557 524.796 470.757 524.649 471.024C524.502 471.277 524.429 471.57 524.429 471.904L523.249 471.324C523.249 470.564 523.416 469.897 523.749 469.324C524.082 468.75 524.542 468.31 525.129 468.004C525.729 467.684 526.402 467.524 527.149 467.524C527.869 467.524 528.502 467.697 529.049 468.044C529.609 468.377 530.049 468.824 530.369 469.384C530.689 469.944 530.849 470.557 530.849 471.224V477.444H527.789ZM521.369 477.444V467.724H524.429V477.444H521.369Z" fill="white"/>
<path d="M93.36 353.308V339.188H96.5V353.308H93.36ZM98.9394 353.308V343.588H101.999V353.308H98.9394ZM105.159 353.308V347.628C105.159 347.135 105.006 346.755 104.699 346.488C104.406 346.208 104.039 346.068 103.599 346.068C103.293 346.068 103.019 346.135 102.779 346.268C102.539 346.388 102.346 346.562 102.199 346.788C102.066 347.015 101.999 347.295 101.999 347.628L100.819 347.108C100.819 346.335 100.986 345.675 101.319 345.128C101.653 344.568 102.106 344.142 102.679 343.848C103.253 343.542 103.899 343.388 104.619 343.388C105.299 343.388 105.906 343.542 106.439 343.848C106.986 344.155 107.419 344.582 107.739 345.128C108.059 345.675 108.219 346.328 108.219 347.088V353.308H105.159ZM111.379 353.308V347.628C111.379 347.135 111.226 346.755 110.919 346.488C110.626 346.208 110.259 346.068 109.819 346.068C109.513 346.068 109.239 346.135 108.999 346.268C108.759 346.388 108.566 346.562 108.419 346.788C108.286 347.015 108.219 347.295 108.219 347.628L106.459 347.388C106.486 346.562 106.679 345.855 107.039 345.268C107.413 344.668 107.899 344.208 108.499 343.888C109.113 343.555 109.799 343.388 110.559 343.388C111.306 343.388 111.966 343.548 112.539 343.868C113.126 344.175 113.586 344.622 113.919 345.208C114.266 345.782 114.439 346.475 114.439 347.288V353.308H111.379ZM122 353.508C121.347 353.508 120.747 353.382 120.2 353.128C119.654 352.875 119.207 352.528 118.86 352.088C118.514 351.635 118.314 351.122 118.26 350.548V346.448C118.314 345.875 118.514 345.355 118.86 344.888C119.207 344.422 119.654 344.055 120.2 343.788C120.747 343.522 121.347 343.388 122 343.388C122.92 343.388 123.734 343.608 124.44 344.048C125.16 344.488 125.72 345.088 126.12 345.848C126.534 346.608 126.74 347.475 126.74 348.448C126.74 349.422 126.534 350.288 126.12 351.048C125.72 351.808 125.16 352.408 124.44 352.848C123.734 353.288 122.92 353.508 122 353.508ZM116.4 357.408V343.588H119.46V346.088L118.96 348.448L119.42 350.808V357.408H116.4ZM121.44 350.748C121.88 350.748 122.26 350.648 122.58 350.448C122.914 350.248 123.174 349.975 123.36 349.628C123.547 349.282 123.64 348.888 123.64 348.448C123.64 347.995 123.547 347.595 123.36 347.248C123.174 346.902 122.914 346.635 122.58 346.448C122.26 346.248 121.887 346.148 121.46 346.148C121.034 346.148 120.654 346.248 120.32 346.448C120 346.635 119.747 346.902 119.56 347.248C119.374 347.595 119.28 347.995 119.28 348.448C119.28 348.888 119.367 349.282 119.54 349.628C119.727 349.975 119.987 350.248 120.32 350.448C120.654 350.648 121.027 350.748 121.44 350.748ZM128.295 353.308V343.588H131.355V353.308H128.295ZM131.355 347.968L130.075 346.968C130.328 345.835 130.755 344.955 131.355 344.328C131.955 343.702 132.788 343.388 133.855 343.388C134.322 343.388 134.728 343.462 135.075 343.608C135.435 343.742 135.748 343.955 136.015 344.248L134.195 346.548C134.062 346.402 133.895 346.288 133.695 346.208C133.495 346.128 133.268 346.088 133.015 346.088C132.508 346.088 132.102 346.248 131.795 346.568C131.502 346.875 131.355 347.342 131.355 347.968ZM141.237 353.528C140.237 353.528 139.33 353.308 138.517 352.868C137.717 352.415 137.083 351.802 136.617 351.028C136.15 350.255 135.917 349.388 135.917 348.428C135.917 347.468 136.15 346.608 136.617 345.848C137.083 345.088 137.717 344.488 138.517 344.048C139.317 343.595 140.223 343.368 141.237 343.368C142.25 343.368 143.157 343.588 143.957 344.028C144.757 344.468 145.39 345.075 145.857 345.848C146.323 346.608 146.557 347.468 146.557 348.428C146.557 349.388 146.323 350.255 145.857 351.028C145.39 351.802 144.757 352.415 143.957 352.868C143.157 353.308 142.25 353.528 141.237 353.528ZM141.237 350.748C141.677 350.748 142.063 350.655 142.397 350.468C142.73 350.268 142.983 349.995 143.157 349.648C143.343 349.288 143.437 348.882 143.437 348.428C143.437 347.975 143.343 347.582 143.157 347.248C142.97 346.902 142.71 346.635 142.377 346.448C142.057 346.248 141.677 346.148 141.237 346.148C140.81 346.148 140.43 346.248 140.097 346.448C139.763 346.635 139.503 346.902 139.317 347.248C139.13 347.595 139.037 347.995 139.037 348.448C139.037 348.888 139.13 349.288 139.317 349.648C139.503 349.995 139.763 350.268 140.097 350.468C140.43 350.655 140.81 350.748 141.237 350.748ZM150.867 353.308L146.747 343.588H150.047L152.847 351.688H151.407L154.207 343.588H157.447L153.327 353.308H150.867ZM163.075 353.528C162.022 353.528 161.082 353.315 160.255 352.888C159.442 352.448 158.802 351.842 158.335 351.068C157.869 350.295 157.635 349.422 157.635 348.448C157.635 347.475 157.862 346.608 158.315 345.848C158.782 345.075 159.409 344.468 160.195 344.028C160.982 343.588 161.869 343.368 162.855 343.368C163.815 343.368 164.662 343.575 165.395 343.988C166.129 344.402 166.702 344.975 167.115 345.708C167.542 346.442 167.755 347.282 167.755 348.228C167.755 348.402 167.742 348.588 167.715 348.788C167.702 348.975 167.669 349.195 167.615 349.448L159.235 349.468V347.368L166.315 347.348L164.995 348.228C164.982 347.668 164.895 347.208 164.735 346.848C164.575 346.475 164.335 346.195 164.015 346.008C163.709 345.808 163.329 345.708 162.875 345.708C162.395 345.708 161.975 345.822 161.615 346.048C161.269 346.262 160.995 346.568 160.795 346.968C160.609 347.368 160.515 347.855 160.515 348.428C160.515 349.002 160.615 349.495 160.815 349.908C161.029 350.308 161.322 350.622 161.695 350.848C162.082 351.062 162.535 351.168 163.055 351.168C163.535 351.168 163.969 351.088 164.355 350.928C164.742 350.755 165.082 350.502 165.375 350.168L167.055 351.848C166.575 352.408 165.995 352.828 165.315 353.108C164.635 353.388 163.889 353.528 163.075 353.528ZM173.372 353.508C172.452 353.508 171.632 353.288 170.912 352.848C170.206 352.408 169.646 351.808 169.232 351.048C168.832 350.288 168.632 349.422 168.632 348.448C168.632 347.475 168.832 346.608 169.232 345.848C169.646 345.088 170.206 344.488 170.912 344.048C171.632 343.608 172.452 343.388 173.372 343.388C174.039 343.388 174.639 343.515 175.172 343.768C175.719 344.022 176.166 344.375 176.512 344.828C176.872 345.268 177.072 345.775 177.112 346.348V350.448C177.072 351.022 176.879 351.542 176.532 352.008C176.186 352.462 175.739 352.828 175.192 353.108C174.646 353.375 174.039 353.508 173.372 353.508ZM173.912 350.748C174.352 350.748 174.732 350.655 175.052 350.468C175.372 350.268 175.626 349.995 175.812 349.648C175.999 349.302 176.092 348.902 176.092 348.448C176.092 347.995 175.999 347.602 175.812 347.268C175.639 346.922 175.386 346.648 175.052 346.448C174.732 346.248 174.359 346.148 173.932 346.148C173.506 346.148 173.126 346.248 172.792 346.448C172.472 346.648 172.212 346.922 172.012 347.268C171.826 347.615 171.732 348.008 171.732 348.448C171.732 348.888 171.826 349.282 172.012 349.628C172.199 349.975 172.459 350.248 172.792 350.448C173.126 350.648 173.499 350.748 173.912 350.748ZM178.972 353.308H175.972V350.688L176.432 348.328L175.912 345.968V338.788H178.972V353.308ZM191.915 353.528C190.862 353.528 189.882 353.348 188.975 352.988C188.082 352.615 187.295 352.095 186.615 351.428C185.949 350.762 185.429 349.988 185.055 349.108C184.682 348.215 184.495 347.255 184.495 346.228C184.495 345.202 184.682 344.248 185.055 343.368C185.429 342.475 185.949 341.702 186.615 341.048C187.282 340.395 188.062 339.888 188.955 339.528C189.862 339.155 190.842 338.968 191.895 338.968C193.015 338.968 194.009 339.148 194.875 339.508C195.755 339.868 196.522 340.362 197.175 340.988L195.075 343.108C194.702 342.708 194.249 342.395 193.715 342.168C193.195 341.942 192.589 341.828 191.895 341.828C191.282 341.828 190.715 341.935 190.195 342.148C189.689 342.348 189.249 342.642 188.875 343.028C188.515 343.415 188.229 343.882 188.015 344.428C187.815 344.975 187.715 345.575 187.715 346.228C187.715 346.895 187.815 347.502 188.015 348.048C188.229 348.595 188.515 349.062 188.875 349.448C189.249 349.835 189.689 350.135 190.195 350.348C190.715 350.562 191.282 350.668 191.895 350.668C192.615 350.668 193.242 350.555 193.775 350.328C194.309 350.102 194.769 349.788 195.155 349.388L197.275 351.508C196.595 352.135 195.815 352.628 194.935 352.988C194.069 353.348 193.062 353.528 191.915 353.528ZM201.08 353.348L197.08 343.588H200.38L202.92 351.328H201.7L204.3 343.588H207.6L203.44 353.348H201.08ZM198.58 357.408L201.5 351.108L203.44 353.348L201.72 357.408H198.58ZM214.129 353.508C213.476 353.508 212.876 353.375 212.329 353.108C211.783 352.828 211.336 352.462 210.989 352.008C210.643 351.542 210.443 351.022 210.389 350.448V346.348C210.443 345.775 210.643 345.268 210.989 344.828C211.336 344.375 211.783 344.022 212.329 343.768C212.876 343.515 213.476 343.388 214.129 343.388C215.049 343.388 215.863 343.608 216.569 344.048C217.289 344.488 217.849 345.088 218.249 345.848C218.663 346.608 218.869 347.475 218.869 348.448C218.869 349.422 218.663 350.288 218.249 351.048C217.849 351.808 217.289 352.408 216.569 352.848C215.863 353.288 215.049 353.508 214.129 353.508ZM208.529 353.308V338.788H211.589V345.968L211.089 348.328L211.549 350.688V353.308H208.529ZM213.589 350.748C214.016 350.748 214.389 350.648 214.709 350.448C215.043 350.248 215.303 349.975 215.489 349.628C215.676 349.282 215.769 348.888 215.769 348.448C215.769 347.995 215.676 347.595 215.489 347.248C215.303 346.902 215.043 346.635 214.709 346.448C214.389 346.248 214.016 346.148 213.589 346.148C213.163 346.148 212.783 346.248 212.449 346.448C212.116 346.635 211.856 346.902 211.669 347.248C211.496 347.595 211.409 347.995 211.409 348.448C211.409 348.902 211.503 349.302 211.689 349.648C211.876 349.995 212.129 350.268 212.449 350.468C212.783 350.655 213.163 350.748 213.589 350.748ZM225.224 353.528C224.17 353.528 223.23 353.315 222.404 352.888C221.59 352.448 220.95 351.842 220.484 351.068C220.017 350.295 219.784 349.422 219.784 348.448C219.784 347.475 220.01 346.608 220.464 345.848C220.93 345.075 221.557 344.468 222.344 344.028C223.13 343.588 224.017 343.368 225.004 343.368C225.964 343.368 226.81 343.575 227.544 343.988C228.277 344.402 228.85 344.975 229.264 345.708C229.69 346.442 229.904 347.282 229.904 348.228C229.904 348.402 229.89 348.588 229.864 348.788C229.85 348.975 229.817 349.195 229.764 349.448L221.384 349.468V347.368L228.464 347.348L227.144 348.228C227.13 347.668 227.044 347.208 226.884 346.848C226.724 346.475 226.484 346.195 226.164 346.008C225.857 345.808 225.477 345.708 225.024 345.708C224.544 345.708 224.124 345.822 223.764 346.048C223.417 346.262 223.144 346.568 222.944 346.968C222.757 347.368 222.664 347.855 222.664 348.428C222.664 349.002 222.764 349.495 222.964 349.908C223.177 350.308 223.47 350.622 223.844 350.848C224.23 351.062 224.684 351.168 225.204 351.168C225.684 351.168 226.117 351.088 226.504 350.928C226.89 350.755 227.23 350.502 227.524 350.168L229.204 351.848C228.724 352.408 228.144 352.828 227.464 353.108C226.784 353.388 226.037 353.528 225.224 353.528ZM231.381 353.308V343.588H234.441V353.308H231.381ZM234.441 347.968L233.161 346.968C233.414 345.835 233.841 344.955 234.441 344.328C235.041 343.702 235.874 343.388 236.941 343.388C237.407 343.388 237.814 343.462 238.161 343.608C238.521 343.742 238.834 343.955 239.101 344.248L237.281 346.548C237.147 346.402 236.981 346.288 236.781 346.208C236.581 346.128 236.354 346.088 236.101 346.088C235.594 346.088 235.187 346.248 234.881 346.568C234.587 346.875 234.441 347.342 234.441 347.968ZM243.241 353.548C242.668 353.548 242.101 353.475 241.541 353.328C240.994 353.182 240.481 352.975 240.001 352.708C239.534 352.428 239.134 352.108 238.801 351.748L240.541 349.988C240.861 350.335 241.241 350.608 241.681 350.808C242.121 350.995 242.601 351.088 243.121 351.088C243.481 351.088 243.754 351.035 243.941 350.928C244.141 350.822 244.241 350.675 244.241 350.488C244.241 350.248 244.121 350.068 243.881 349.948C243.654 349.815 243.361 349.702 243.001 349.608C242.641 349.502 242.261 349.388 241.861 349.268C241.461 349.148 241.081 348.982 240.721 348.768C240.361 348.555 240.068 348.262 239.841 347.888C239.614 347.502 239.501 347.015 239.501 346.428C239.501 345.802 239.661 345.262 239.981 344.808C240.301 344.342 240.754 343.975 241.341 343.708C241.928 343.442 242.614 343.308 243.401 343.308C244.228 343.308 244.988 343.455 245.681 343.748C246.388 344.028 246.961 344.448 247.401 345.008L245.661 346.768C245.354 346.408 245.008 346.155 244.621 346.008C244.248 345.862 243.881 345.788 243.521 345.788C243.174 345.788 242.914 345.842 242.741 345.948C242.568 346.042 242.481 346.182 242.481 346.368C242.481 346.568 242.594 346.728 242.821 346.848C243.048 346.968 243.341 347.075 243.701 347.168C244.061 347.262 244.441 347.375 244.841 347.508C245.241 347.642 245.621 347.822 245.981 348.048C246.341 348.275 246.634 348.582 246.861 348.968C247.088 349.342 247.201 349.835 247.201 350.448C247.201 351.395 246.841 352.148 246.121 352.708C245.414 353.268 244.454 353.548 243.241 353.548ZM253.661 353.528C252.608 353.528 251.668 353.315 250.841 352.888C250.028 352.448 249.388 351.842 248.921 351.068C248.455 350.295 248.221 349.422 248.221 348.448C248.221 347.475 248.448 346.608 248.901 345.848C249.368 345.075 249.995 344.468 250.781 344.028C251.568 343.588 252.455 343.368 253.441 343.368C254.401 343.368 255.248 343.575 255.981 343.988C256.715 344.402 257.288 344.975 257.701 345.708C258.128 346.442 258.341 347.282 258.341 348.228C258.341 348.402 258.328 348.588 258.301 348.788C258.288 348.975 258.255 349.195 258.201 349.448L249.821 349.468V347.368L256.901 347.348L255.581 348.228C255.568 347.668 255.481 347.208 255.321 346.848C255.161 346.475 254.921 346.195 254.601 346.008C254.295 345.808 253.915 345.708 253.461 345.708C252.981 345.708 252.561 345.822 252.201 346.048C251.855 346.262 251.581 346.568 251.381 346.968C251.195 347.368 251.101 347.855 251.101 348.428C251.101 349.002 251.201 349.495 251.401 349.908C251.615 350.308 251.908 350.622 252.281 350.848C252.668 351.062 253.121 351.168 253.641 351.168C254.121 351.168 254.555 351.088 254.941 350.928C255.328 350.755 255.668 350.502 255.961 350.168L257.641 351.848C257.161 352.408 256.581 352.828 255.901 353.108C255.221 353.388 254.475 353.528 253.661 353.528ZM264.518 353.528C263.518 353.528 262.612 353.308 261.798 352.868C260.985 352.428 260.345 351.822 259.878 351.048C259.412 350.275 259.178 349.408 259.178 348.448C259.178 347.475 259.412 346.608 259.878 345.848C260.358 345.075 261.005 344.468 261.818 344.028C262.632 343.588 263.545 343.368 264.558 343.368C265.318 343.368 266.012 343.502 266.638 343.768C267.278 344.022 267.845 344.408 268.338 344.928L266.378 346.888C266.152 346.635 265.885 346.448 265.578 346.328C265.285 346.208 264.945 346.148 264.558 346.148C264.118 346.148 263.725 346.248 263.378 346.448C263.045 346.635 262.778 346.902 262.578 347.248C262.392 347.582 262.298 347.975 262.298 348.428C262.298 348.882 262.392 349.282 262.578 349.628C262.778 349.975 263.052 350.248 263.398 350.448C263.745 350.648 264.132 350.748 264.558 350.748C264.958 350.748 265.312 350.682 265.618 350.548C265.938 350.402 266.212 350.202 266.438 349.948L268.378 351.908C267.872 352.442 267.298 352.848 266.658 353.128C266.018 353.395 265.305 353.528 264.518 353.528ZM274.06 353.528C273.167 353.528 272.373 353.348 271.68 352.988C271 352.615 270.467 352.108 270.08 351.468C269.693 350.815 269.5 350.068 269.5 349.228V343.588H272.56V349.188C272.56 349.522 272.613 349.808 272.72 350.048C272.84 350.288 273.013 350.475 273.24 350.608C273.467 350.742 273.74 350.808 274.06 350.808C274.513 350.808 274.873 350.668 275.14 350.388C275.407 350.095 275.54 349.695 275.54 349.188V343.588H278.6V349.208C278.6 350.062 278.407 350.815 278.02 351.468C277.633 352.108 277.1 352.615 276.42 352.988C275.74 353.348 274.953 353.528 274.06 353.528ZM280.521 353.308V343.588H283.581V353.308H280.521ZM283.581 347.968L282.301 346.968C282.555 345.835 282.981 344.955 283.581 344.328C284.181 343.702 285.015 343.388 286.081 343.388C286.548 343.388 286.955 343.462 287.301 343.608C287.661 343.742 287.975 343.955 288.241 344.248L286.421 346.548C286.288 346.402 286.121 346.288 285.921 346.208C285.721 346.128 285.495 346.088 285.241 346.088C284.735 346.088 284.328 346.248 284.021 346.568C283.728 346.875 283.581 347.342 283.581 347.968ZM289.057 353.308V343.588H292.117V353.308H289.057ZM290.597 342.248C290.117 342.248 289.717 342.088 289.397 341.768C289.09 341.435 288.937 341.035 288.937 340.568C288.937 340.088 289.09 339.688 289.397 339.368C289.717 339.048 290.117 338.888 290.597 338.888C291.077 338.888 291.47 339.048 291.777 339.368C292.083 339.688 292.237 340.088 292.237 340.568C292.237 341.035 292.083 341.435 291.777 341.768C291.47 342.088 291.077 342.248 290.597 342.248ZM295.651 353.308V339.568H298.711V353.308H295.651ZM293.451 346.188V343.588H300.911V346.188H293.451ZM305.26 353.348L301.26 343.588H304.56L307.1 351.328H305.88L308.48 343.588H311.78L307.62 353.348H305.26ZM302.76 357.408L305.68 351.108L307.62 353.348L305.9 357.408H302.76Z" fill="white"/>
</svg>
