<svg width="1012" height="1036" viewBox="0 0 1012 1036" fill="none" xmlns="http://www.w3.org/2000/svg">
<path d="M618.121 943.323C614.954 943.323 612.277 940.891 612.006 937.682C611.725 934.302 614.241 931.328 617.631 931.057C627.444 930.26 637.168 928.453 646.527 925.703C649.782 924.745 653.199 926.609 654.157 929.87C655.111 933.125 653.246 936.542 649.991 937.5C639.835 940.484 629.288 942.438 618.637 943.312C618.465 943.323 618.293 943.333 618.137 943.333L618.121 943.323ZM676.616 926.094C674.428 926.094 672.309 924.917 671.199 922.849C669.59 919.865 670.72 916.141 673.704 914.531C682.329 909.901 690.517 904.344 698.032 898.026C700.626 895.839 704.506 896.188 706.678 898.792C708.855 901.396 708.522 905.266 705.918 907.443C697.751 914.297 688.871 920.318 679.501 925.359C678.579 925.849 677.585 926.094 676.605 926.094H676.616ZM723.309 886.859C721.98 886.859 720.642 886.427 719.517 885.542C716.85 883.443 716.381 879.583 718.48 876.917C724.574 869.177 729.829 860.807 734.116 852.057C735.616 849.01 739.288 847.755 742.335 849.245C745.376 850.745 746.631 854.417 745.147 857.464C740.48 866.99 734.756 876.083 728.137 884.51C726.918 886.047 725.126 886.859 723.309 886.859ZM750.043 832.078C749.564 832.078 749.085 832.026 748.611 831.906C745.303 831.12 743.277 827.802 744.064 824.495C746.361 814.938 747.538 805.177 747.574 795.484C747.59 792.104 750.34 789.365 753.715 789.365H753.741C757.131 789.375 759.871 792.141 759.855 795.531C759.819 806.172 758.517 816.875 756.012 827.359C755.34 830.172 752.819 832.068 750.043 832.068V832.078ZM750.204 771.203C747.428 771.203 744.897 769.297 744.236 766.469C742.001 757.047 738.647 747.792 734.277 738.969C732.767 735.938 734.006 732.25 737.038 730.74C740.074 729.224 743.756 730.469 745.267 733.5C750.059 743.161 753.73 753.297 756.184 763.63C756.97 766.938 754.923 770.245 751.631 771.031C751.152 771.141 750.673 771.203 750.204 771.203ZM723.236 716.594C721.444 716.594 719.663 715.807 718.444 714.307C712.329 706.714 705.355 699.724 697.73 693.505C695.1 691.365 694.694 687.495 696.845 684.865C698.98 682.234 702.85 681.844 705.475 683.979C713.767 690.729 721.355 698.344 728.012 706.604C730.137 709.245 729.73 713.115 727.09 715.24C725.96 716.161 724.6 716.604 723.236 716.604V716.594ZM675.98 678.094C675.032 678.094 674.064 677.875 673.168 677.406C664.46 672.906 655.262 669.297 645.814 666.677C642.548 665.771 640.631 662.38 641.543 659.109C642.449 655.839 645.829 653.922 649.105 654.833C659.361 657.682 669.361 661.604 678.814 666.484C681.824 668.042 683.017 671.74 681.454 674.766C680.361 676.88 678.215 678.094 675.991 678.094H675.98ZM348.616 656.911C348.074 656.911 347.512 656.833 346.97 656.688C336.715 653.839 326.73 649.891 317.277 645C314.267 643.443 313.085 639.729 314.647 636.719C316.204 633.708 319.913 632.531 322.923 634.089C331.621 638.599 340.819 642.224 350.262 644.854C353.527 645.766 355.444 649.156 354.538 652.422C353.772 655.141 351.319 656.922 348.626 656.922L348.616 656.911ZM294.48 628.844C293.116 628.844 291.741 628.391 290.6 627.469C282.345 620.734 274.772 613.125 268.079 604.87C265.939 602.229 266.345 598.37 268.986 596.229C271.626 594.094 275.48 594.5 277.621 597.141C283.772 604.745 290.762 611.75 298.361 617.958C300.991 620.104 301.381 623.964 299.236 626.609C298.017 628.094 296.251 628.87 294.47 628.87L294.48 628.844ZM256.152 581.438C253.918 581.438 251.756 580.208 250.673 578.083C245.788 568.484 241.98 558.422 239.35 548.161C238.506 544.88 240.48 541.526 243.772 540.677C247.053 539.828 250.402 541.807 251.251 545.099C253.657 554.49 257.147 563.703 261.631 572.5C263.163 575.526 261.96 579.224 258.939 580.76C258.043 581.214 257.1 581.422 256.163 581.422L256.152 581.438ZM241.121 522.417C237.793 522.417 235.053 519.75 234.98 516.396C234.954 515.474 234.954 514.552 234.954 513.63C234.954 509.635 235.142 505.594 235.486 501.625C236.001 495.885 236.881 490.109 238.121 484.458C238.85 481.141 242.126 479.052 245.444 479.776C248.756 480.5 250.845 483.781 250.121 487.099C248.991 492.25 248.184 497.495 247.725 502.719C247.407 506.328 247.246 510.005 247.246 513.641C247.246 514.479 247.246 515.323 247.272 516.161C247.345 519.552 244.647 522.354 241.256 522.427C241.22 522.427 241.168 522.427 241.131 522.427L241.121 522.417ZM254.09 462.943C253.204 462.943 252.298 462.745 251.449 462.339C248.392 460.875 247.09 457.214 248.548 454.141C253.105 444.583 258.782 435.427 265.402 426.948C267.486 424.281 271.345 423.802 274.022 425.891C276.699 427.979 277.163 431.839 275.079 434.516C269.012 442.297 263.803 450.677 259.626 459.438C258.569 461.651 256.371 462.943 254.074 462.943H254.09ZM291.559 414.844C289.803 414.844 288.059 414.094 286.84 412.646C284.668 410.042 285.012 406.167 287.605 403.995C295.756 397.161 304.663 391.151 314.059 386.115C317.053 384.516 320.762 385.646 322.371 388.635C323.97 391.63 322.84 395.344 319.855 396.953C311.194 401.583 303.006 407.115 295.501 413.406C294.345 414.365 292.944 414.844 291.559 414.844ZM345.335 386.078C342.684 386.078 340.23 384.344 339.444 381.656C338.486 378.396 340.35 374.979 343.605 374.036C353.788 371.047 364.335 369.094 374.96 368.234C378.35 367.964 381.309 370.484 381.579 373.865C381.85 377.245 379.329 380.219 375.954 380.484C366.152 381.286 356.428 383.078 347.059 385.833C346.48 386.005 345.902 386.078 345.324 386.078H345.335ZM617.965 352.151C615.272 352.151 612.803 350.37 612.053 347.651C611.147 344.385 613.064 340.995 616.329 340.083C625.772 337.453 634.96 333.828 643.668 329.318C646.678 327.76 650.387 328.938 651.944 331.948C653.506 334.958 652.324 338.672 649.314 340.229C639.871 345.135 629.876 349.068 619.621 351.917C619.069 352.062 618.517 352.135 617.975 352.135L617.965 352.151ZM672.095 324.083C670.319 324.083 668.548 323.307 667.335 321.823C665.184 319.193 665.59 315.323 668.215 313.182C675.819 306.979 682.809 299.974 688.96 292.37C691.095 289.74 694.965 289.333 697.595 291.458C700.236 293.599 700.637 297.469 698.501 300.099C691.809 308.354 684.23 315.964 675.98 322.698C674.835 323.63 673.46 324.073 672.095 324.073V324.083ZM710.428 276.688C709.491 276.688 708.538 276.469 707.652 276.01C704.631 274.474 703.428 270.776 704.96 267.755C709.434 258.958 712.934 249.74 715.34 240.354C716.189 237.057 719.527 235.078 722.819 235.927C726.095 236.776 728.085 240.12 727.241 243.411C724.611 253.672 720.793 263.734 715.918 273.333C714.835 275.458 712.673 276.688 710.439 276.688H710.428ZM725.46 217.667C725.46 217.667 725.371 217.667 725.335 217.667C721.944 217.594 719.256 214.792 719.319 211.401C719.329 210.568 719.345 209.719 719.345 208.88C719.345 205.245 719.184 201.573 718.866 197.958C718.397 192.734 717.6 187.49 716.47 182.339C715.746 179.021 717.835 175.755 721.147 175.016C724.465 174.292 727.73 176.391 728.465 179.698C729.71 185.349 730.59 191.125 731.105 196.865C731.465 200.833 731.637 204.875 731.637 208.87C731.637 209.792 731.637 210.714 731.611 211.635C731.538 214.99 728.814 217.656 725.47 217.656L725.46 217.667ZM712.491 158.193C710.194 158.193 707.996 156.901 706.939 154.693C702.762 145.932 697.569 137.547 691.491 129.771C689.402 127.094 689.866 123.234 692.543 121.146C695.225 119.057 699.079 119.536 701.168 122.203C707.788 130.682 713.46 139.823 718.017 149.396C719.475 152.453 718.178 156.13 715.116 157.594C714.272 157.995 713.361 158.193 712.475 158.193H712.491ZM675.022 110.099C673.631 110.099 672.23 109.63 671.079 108.661C663.574 102.37 655.381 96.8385 646.725 92.2083C643.73 90.6094 642.611 86.8854 644.21 83.8854C645.803 80.8906 649.527 79.7708 652.522 81.3698C661.918 86.3958 670.819 92.401 678.975 99.2344C681.579 101.411 681.923 105.292 679.736 107.885C678.522 109.333 676.777 110.083 675.022 110.083V110.099ZM621.241 81.3281C620.663 81.3281 620.09 81.2448 619.512 81.0833C610.126 78.3333 600.413 76.5364 590.611 75.7396C587.236 75.4687 584.72 72.4948 584.991 69.1146C585.256 65.7344 588.22 63.2187 591.605 63.4896C602.241 64.3489 612.793 66.3021 622.96 69.2864C626.215 70.2448 628.085 73.651 627.126 76.9062C626.34 79.5833 623.897 81.3281 621.23 81.3281H621.241Z" fill="#84DEFF"/>
<path d="M601.983 171.463C564.993 214.901 495.8 203.573 305.816 203.87C128.331 204.135 56.6231 214.224 21.4096 171.463C1.32105 147.047 0.0814657 113.88 0.029383 112.224C-0.986242 71.9164 24.5554 39.9164 41.1961 25.1976C88.269 -16.4222 147.368 6.57784 318.649 5.75492C477.529 4.99451 536.66 -15.3076 584.337 25.1976C622.331 57.4789 625.503 100.177 625.503 100.177C627.665 129.39 615.248 155.88 601.983 171.463Z" fill="#563DD3"/>
<path d="M976.356 448.45C940.997 491.888 874.867 480.56 693.288 480.856C523.653 481.122 455.111 491.211 421.46 448.45C402.242 424.034 401.064 390.856 401.028 389.211C400.059 348.903 424.46 316.903 440.377 302.195C485.361 260.575 541.84 283.565 705.559 282.758C857.413 281.992 913.929 261.695 959.507 302.195C995.82 334.476 998.856 377.179 998.856 377.179C1000.92 406.388 989.054 432.883 976.367 448.461L976.356 448.45Z" fill="#2E8799"/>
<path d="M594.899 725.461C558.336 768.903 489.967 757.57 302.217 757.867C126.821 758.138 55.9562 768.226 21.1646 725.461C1.29476 701.044 0.0812149 667.867 0.0291323 666.211C-0.976076 625.903 24.2583 593.903 40.7062 579.195C87.2114 537.575 145.623 560.565 314.889 559.758C471.904 558.992 530.336 538.695 577.456 579.195C615.014 611.476 618.133 654.179 618.133 654.179C620.269 683.388 608.003 709.883 594.883 725.461H594.899Z" fill="#FFBF18"/>
<path d="M988.356 1001.45C952.997 1044.89 886.867 1033.56 705.288 1033.85C535.653 1034.12 467.111 1044.21 433.46 1001.45C414.242 977.031 413.064 943.854 413.028 942.208C412.059 901.901 436.46 869.906 452.377 855.198C497.361 813.578 553.84 836.567 717.559 835.755C869.413 834.995 925.929 814.692 971.507 855.198C1007.82 887.479 1010.86 930.177 1010.86 930.177C1012.92 959.385 1001.05 985.88 988.367 1001.46L988.356 1001.45Z" fill="#F45665"/>
<path d="M138.52 119V114.12H145.16C146.387 114.12 147.347 113.76 148.04 113.04C148.733 112.32 149.08 111.44 149.08 110.4C149.08 109.68 148.92 109.04 148.6 108.48C148.28 107.92 147.827 107.48 147.24 107.16C146.68 106.84 145.987 106.68 145.16 106.68H138.52V101.92H144.64C145.68 101.92 146.52 101.667 147.16 101.16C147.8 100.627 148.12 99.8267 148.12 98.76C148.12 97.72 147.8 96.9467 147.16 96.44C146.52 95.9067 145.68 95.64 144.64 95.64H138.52V90.76H145.84C147.653 90.76 149.187 91.0933 150.44 91.76C151.72 92.4267 152.693 93.32 153.36 94.44C154.027 95.56 154.36 96.8 154.36 98.16C154.36 99.8933 153.8 101.36 152.68 102.56C151.56 103.76 149.907 104.587 147.72 105.04L147.88 102.92C150.253 103.373 152.08 104.293 153.36 105.68C154.667 107.067 155.32 108.773 155.32 110.8C155.32 112.347 154.933 113.747 154.16 115C153.413 116.227 152.32 117.2 150.88 117.92C149.467 118.64 147.76 119 145.76 119H138.52ZM133.72 119V90.76H139.92V119H133.72ZM167.425 119.44C165.638 119.44 164.052 119.08 162.665 118.36C161.305 117.613 160.238 116.6 159.465 115.32C158.692 114.013 158.305 112.52 158.305 110.84V99.56H164.425V110.76C164.425 111.427 164.532 112 164.745 112.48C164.985 112.96 165.332 113.333 165.785 113.6C166.238 113.867 166.785 114 167.425 114C168.332 114 169.052 113.72 169.585 113.16C170.118 112.573 170.385 111.773 170.385 110.76V99.56H176.505V110.8C176.505 112.507 176.118 114.013 175.345 115.32C174.572 116.6 173.505 117.613 172.145 118.36C170.785 119.08 169.212 119.44 167.425 119.44ZM187.428 119.48C186.281 119.48 185.148 119.333 184.028 119.04C182.934 118.747 181.908 118.333 180.948 117.8C180.014 117.24 179.214 116.6 178.548 115.88L182.028 112.36C182.668 113.053 183.428 113.6 184.308 114C185.188 114.373 186.148 114.56 187.188 114.56C187.908 114.56 188.454 114.453 188.828 114.24C189.228 114.027 189.428 113.733 189.428 113.36C189.428 112.88 189.188 112.52 188.708 112.28C188.254 112.013 187.668 111.787 186.948 111.6C186.228 111.387 185.468 111.16 184.668 110.92C183.867 110.68 183.108 110.347 182.388 109.92C181.668 109.493 181.081 108.907 180.628 108.16C180.174 107.387 179.948 106.413 179.948 105.24C179.948 103.987 180.268 102.907 180.908 102C181.548 101.067 182.454 100.333 183.628 99.8C184.801 99.2667 186.174 99 187.748 99C189.401 99 190.921 99.2933 192.308 99.88C193.721 100.44 194.868 101.28 195.748 102.4L192.268 105.92C191.654 105.2 190.961 104.693 190.188 104.4C189.441 104.107 188.708 103.96 187.988 103.96C187.294 103.96 186.774 104.067 186.428 104.28C186.081 104.467 185.908 104.747 185.908 105.12C185.908 105.52 186.134 105.84 186.588 106.08C187.041 106.32 187.628 106.533 188.348 106.72C189.068 106.907 189.828 107.133 190.628 107.4C191.428 107.667 192.188 108.027 192.908 108.48C193.628 108.933 194.214 109.547 194.668 110.32C195.121 111.067 195.348 112.053 195.348 113.28C195.348 115.173 194.628 116.68 193.188 117.8C191.774 118.92 189.854 119.48 187.428 119.48ZM198.668 119V99.56H204.788V119H198.668ZM201.748 96.88C200.788 96.88 199.988 96.56 199.348 95.92C198.734 95.2533 198.428 94.4533 198.428 93.52C198.428 92.56 198.734 91.76 199.348 91.12C199.988 90.48 200.788 90.16 201.748 90.16C202.708 90.16 203.494 90.48 204.108 91.12C204.721 91.76 205.028 92.56 205.028 93.52C205.028 94.4533 204.721 95.2533 204.108 95.92C203.494 96.56 202.708 96.88 201.748 96.88ZM221.938 119V107.92C221.938 106.907 221.618 106.093 220.978 105.48C220.364 104.84 219.578 104.52 218.618 104.52C217.951 104.52 217.364 104.667 216.858 104.96C216.351 105.227 215.951 105.627 215.658 106.16C215.364 106.667 215.218 107.253 215.218 107.92L212.858 106.76C212.858 105.24 213.191 103.907 213.858 102.76C214.524 101.613 215.444 100.733 216.618 100.12C217.818 99.48 219.164 99.16 220.658 99.16C222.098 99.16 223.364 99.5067 224.458 100.2C225.578 100.867 226.458 101.76 227.098 102.88C227.738 104 228.057 105.227 228.057 106.56V119H221.938ZM209.098 119V99.56H215.218V119H209.098ZM241.588 119.44C239.481 119.44 237.601 119.013 235.948 118.16C234.321 117.28 233.041 116.067 232.108 114.52C231.175 112.973 230.708 111.227 230.708 109.28C230.708 107.333 231.161 105.6 232.068 104.08C233.001 102.533 234.255 101.32 235.828 100.44C237.401 99.56 239.175 99.12 241.148 99.12C243.068 99.12 244.761 99.5333 246.228 100.36C247.695 101.187 248.841 102.333 249.668 103.8C250.521 105.267 250.948 106.947 250.948 108.84C250.948 109.187 250.921 109.56 250.868 109.96C250.841 110.333 250.775 110.773 250.668 111.28L233.908 111.32V107.12L248.068 107.08L245.428 108.84C245.401 107.72 245.228 106.8 244.908 106.08C244.588 105.333 244.108 104.773 243.468 104.4C242.855 104 242.095 103.8 241.188 103.8C240.228 103.8 239.388 104.027 238.668 104.48C237.975 104.907 237.428 105.52 237.028 106.32C236.655 107.12 236.468 108.093 236.468 109.24C236.468 110.387 236.668 111.373 237.068 112.2C237.495 113 238.081 113.627 238.828 114.08C239.601 114.507 240.508 114.72 241.548 114.72C242.508 114.72 243.375 114.56 244.148 114.24C244.921 113.893 245.601 113.387 246.188 112.72L249.548 116.08C248.588 117.2 247.428 118.04 246.068 118.6C244.708 119.16 243.215 119.44 241.588 119.44ZM260.982 119.48C259.836 119.48 258.702 119.333 257.582 119.04C256.489 118.747 255.462 118.333 254.502 117.8C253.569 117.24 252.769 116.6 252.102 115.88L255.582 112.36C256.222 113.053 256.982 113.6 257.862 114C258.742 114.373 259.702 114.56 260.742 114.56C261.462 114.56 262.009 114.453 262.382 114.24C262.782 114.027 262.982 113.733 262.982 113.36C262.982 112.88 262.742 112.52 262.262 112.28C261.809 112.013 261.222 111.787 260.502 111.6C259.782 111.387 259.022 111.16 258.222 110.92C257.422 110.68 256.662 110.347 255.942 109.92C255.222 109.493 254.636 108.907 254.182 108.16C253.729 107.387 253.502 106.413 253.502 105.24C253.502 103.987 253.822 102.907 254.462 102C255.102 101.067 256.009 100.333 257.182 99.8C258.356 99.2667 259.729 99 261.302 99C262.956 99 264.476 99.2933 265.862 99.88C267.276 100.44 268.422 101.28 269.302 102.4L265.822 105.92C265.209 105.2 264.516 104.693 263.742 104.4C262.996 104.107 262.262 103.96 261.542 103.96C260.849 103.96 260.329 104.067 259.982 104.28C259.636 104.467 259.462 104.747 259.462 105.12C259.462 105.52 259.689 105.84 260.142 106.08C260.596 106.32 261.182 106.533 261.902 106.72C262.622 106.907 263.382 107.133 264.182 107.4C264.982 107.667 265.742 108.027 266.462 108.48C267.182 108.933 267.769 109.547 268.222 110.32C268.676 111.067 268.902 112.053 268.902 113.28C268.902 115.173 268.182 116.68 266.742 117.8C265.329 118.92 263.409 119.48 260.982 119.48ZM279.303 119.48C278.156 119.48 277.023 119.333 275.903 119.04C274.809 118.747 273.783 118.333 272.823 117.8C271.889 117.24 271.089 116.6 270.423 115.88L273.903 112.36C274.543 113.053 275.303 113.6 276.183 114C277.063 114.373 278.023 114.56 279.063 114.56C279.783 114.56 280.329 114.453 280.703 114.24C281.103 114.027 281.303 113.733 281.303 113.36C281.303 112.88 281.063 112.52 280.583 112.28C280.129 112.013 279.543 111.787 278.823 111.6C278.103 111.387 277.343 111.16 276.543 110.92C275.742 110.68 274.983 110.347 274.263 109.92C273.543 109.493 272.956 108.907 272.503 108.16C272.049 107.387 271.823 106.413 271.823 105.24C271.823 103.987 272.143 102.907 272.783 102C273.423 101.067 274.329 100.333 275.503 99.8C276.676 99.2667 278.049 99 279.623 99C281.276 99 282.796 99.2933 284.183 99.88C285.596 100.44 286.743 101.28 287.623 102.4L284.143 105.92C283.529 105.2 282.836 104.693 282.063 104.4C281.316 104.107 280.583 103.96 279.863 103.96C279.169 103.96 278.649 104.067 278.303 104.28C277.956 104.467 277.783 104.747 277.783 105.12C277.783 105.52 278.009 105.84 278.463 106.08C278.916 106.32 279.503 106.533 280.223 106.72C280.943 106.907 281.703 107.133 282.503 107.4C283.303 107.667 284.063 108.027 284.783 108.48C285.503 108.933 286.089 109.547 286.543 110.32C286.996 111.067 287.223 112.053 287.223 113.28C287.223 115.173 286.503 116.68 285.063 117.8C283.649 118.92 281.729 119.48 279.303 119.48ZM312.12 119.44C310.013 119.44 308.053 119.08 306.24 118.36C304.453 117.613 302.88 116.573 301.52 115.24C300.187 113.907 299.147 112.36 298.4 110.6C297.653 108.813 297.28 106.893 297.28 104.84C297.28 102.787 297.653 100.88 298.4 99.12C299.147 97.3333 300.187 95.7867 301.52 94.48C302.853 93.1733 304.413 92.16 306.2 91.44C308.013 90.6933 309.973 90.32 312.08 90.32C314.32 90.32 316.307 90.68 318.04 91.4C319.8 92.12 321.333 93.1067 322.64 94.36L318.44 98.6C317.693 97.8 316.787 97.1733 315.72 96.72C314.68 96.2667 313.467 96.04 312.08 96.04C310.853 96.04 309.72 96.2533 308.68 96.68C307.667 97.08 306.787 97.6667 306.04 98.44C305.32 99.2133 304.747 100.147 304.32 101.24C303.92 102.333 303.72 103.533 303.72 104.84C303.72 106.173 303.92 107.387 304.32 108.48C304.747 109.573 305.32 110.507 306.04 111.28C306.787 112.053 307.667 112.653 308.68 113.08C309.72 113.507 310.853 113.72 312.08 113.72C313.52 113.72 314.773 113.493 315.84 113.04C316.907 112.587 317.827 111.96 318.6 111.16L322.84 115.4C321.48 116.653 319.92 117.64 318.16 118.36C316.427 119.08 314.413 119.44 312.12 119.44ZM334.629 119.44C332.629 119.44 330.816 119 329.189 118.12C327.589 117.213 326.323 115.987 325.389 114.44C324.456 112.893 323.989 111.16 323.989 109.24C323.989 107.32 324.456 105.6 325.389 104.08C326.323 102.56 327.589 101.36 329.189 100.48C330.789 99.5733 332.603 99.12 334.629 99.12C336.656 99.12 338.469 99.56 340.069 100.44C341.669 101.32 342.936 102.533 343.869 104.08C344.803 105.6 345.269 107.32 345.269 109.24C345.269 111.16 344.803 112.893 343.869 114.44C342.936 115.987 341.669 117.213 340.069 118.12C338.469 119 336.656 119.44 334.629 119.44ZM334.629 113.88C335.509 113.88 336.283 113.693 336.949 113.32C337.616 112.92 338.123 112.373 338.469 111.68C338.843 110.96 339.029 110.147 339.029 109.24C339.029 108.333 338.843 107.547 338.469 106.88C338.096 106.187 337.576 105.653 336.909 105.28C336.269 104.88 335.509 104.68 334.629 104.68C333.776 104.68 333.016 104.88 332.349 105.28C331.683 105.653 331.163 106.187 330.789 106.88C330.416 107.573 330.229 108.373 330.229 109.28C330.229 110.16 330.416 110.96 330.789 111.68C331.163 112.373 331.683 112.92 332.349 113.32C333.016 113.693 333.776 113.88 334.629 113.88ZM361.156 119V107.92C361.156 106.907 360.836 106.093 360.196 105.48C359.583 104.84 358.796 104.52 357.836 104.52C357.17 104.52 356.583 104.667 356.076 104.96C355.57 105.227 355.17 105.627 354.876 106.16C354.583 106.667 354.436 107.253 354.436 107.92L352.076 106.76C352.076 105.24 352.41 103.907 353.076 102.76C353.743 101.613 354.663 100.733 355.836 100.12C357.036 99.48 358.383 99.16 359.876 99.16C361.316 99.16 362.583 99.5067 363.676 100.2C364.796 100.867 365.676 101.76 366.316 102.88C366.956 104 367.276 105.227 367.276 106.56V119H361.156ZM348.316 119V99.56H354.436V119H348.316ZM373.733 119V91.52H379.853V119H373.733ZM369.333 104.76V99.56H384.253V104.76H369.333ZM386.949 119V99.56H393.069V119H386.949ZM390.029 96.88C389.069 96.88 388.269 96.56 387.629 95.92C387.016 95.2533 386.709 94.4533 386.709 93.52C386.709 92.56 387.016 91.76 387.629 91.12C388.269 90.48 389.069 90.16 390.029 90.16C390.989 90.16 391.776 90.48 392.389 91.12C393.002 91.76 393.309 92.56 393.309 93.52C393.309 94.4533 393.002 95.2533 392.389 95.92C391.776 96.56 390.989 96.88 390.029 96.88ZM410.219 119V107.92C410.219 106.907 409.899 106.093 409.259 105.48C408.645 104.84 407.859 104.52 406.899 104.52C406.232 104.52 405.645 104.667 405.139 104.96C404.632 105.227 404.232 105.627 403.939 106.16C403.645 106.667 403.499 107.253 403.499 107.92L401.139 106.76C401.139 105.24 401.472 103.907 402.139 102.76C402.805 101.613 403.725 100.733 404.899 100.12C406.099 99.48 407.445 99.16 408.939 99.16C410.379 99.16 411.645 99.5067 412.739 100.2C413.859 100.867 414.739 101.76 415.379 102.88C416.019 104 416.339 105.227 416.339 106.56V119H410.219ZM397.379 119V99.56H403.499V119H397.379ZM428.909 119.44C427.123 119.44 425.536 119.08 424.149 118.36C422.789 117.613 421.723 116.6 420.949 115.32C420.176 114.013 419.789 112.52 419.789 110.84V99.56H425.909V110.76C425.909 111.427 426.016 112 426.229 112.48C426.469 112.96 426.816 113.333 427.269 113.6C427.723 113.867 428.269 114 428.909 114C429.816 114 430.536 113.72 431.069 113.16C431.603 112.573 431.869 111.773 431.869 110.76V99.56H437.989V110.8C437.989 112.507 437.603 114.013 436.829 115.32C436.056 116.6 434.989 117.613 433.629 118.36C432.269 119.08 430.696 119.44 428.909 119.44ZM441.832 119V99.56H447.952V119H441.832ZM444.912 96.88C443.952 96.88 443.152 96.56 442.512 95.92C441.899 95.2533 441.592 94.4533 441.592 93.52C441.592 92.56 441.899 91.76 442.512 91.12C443.152 90.48 443.952 90.16 444.912 90.16C445.872 90.16 446.659 90.48 447.272 91.12C447.885 91.76 448.192 92.56 448.192 93.52C448.192 94.4533 447.885 95.2533 447.272 95.92C446.659 96.56 445.872 96.88 444.912 96.88ZM455.022 119V91.52H461.142V119H455.022ZM450.622 104.76V99.56H465.542V104.76H450.622ZM474.238 119.08L466.238 99.56H472.838L477.918 115.04H475.478L480.678 99.56H487.278L478.958 119.08H474.238ZM469.238 127.2L475.078 114.6L478.958 119.08L475.518 127.2H469.238Z" fill="white"/>
<path d="M520.72 396V367.76H527V396H520.72ZM525.52 396V390.56H541V396H525.52ZM525.52 384.2V378.96H539.6V384.2H525.52ZM525.52 373.16V367.76H540.8V373.16H525.52ZM556.809 396L552.129 388.44L550.809 387.6L543.169 376.56H550.329L554.689 383.64L555.969 384.44L563.889 396H556.809ZM542.809 396L550.769 384.68L554.249 388.6L549.489 396H542.809ZM555.929 387.56L552.449 383.64L556.849 376.56H563.489L555.929 387.56ZM577.415 396.4C576.108 396.4 574.908 396.147 573.815 395.64C572.721 395.133 571.828 394.44 571.135 393.56C570.441 392.653 570.041 391.627 569.935 390.48V382.28C570.041 381.133 570.441 380.093 571.135 379.16C571.828 378.227 572.721 377.493 573.815 376.96C574.908 376.427 576.108 376.16 577.415 376.16C579.255 376.16 580.881 376.6 582.295 377.48C583.735 378.36 584.855 379.56 585.655 381.08C586.481 382.6 586.895 384.333 586.895 386.28C586.895 388.227 586.481 389.96 585.655 391.48C584.855 393 583.735 394.2 582.295 395.08C580.881 395.96 579.255 396.4 577.415 396.4ZM566.215 404.2V376.56H572.335V381.56L571.335 386.28L572.255 391V404.2H566.215ZM576.295 390.88C577.175 390.88 577.935 390.68 578.575 390.28C579.241 389.88 579.761 389.333 580.135 388.64C580.508 387.947 580.695 387.16 580.695 386.28C580.695 385.373 580.508 384.573 580.135 383.88C579.761 383.187 579.241 382.653 578.575 382.28C577.935 381.88 577.188 381.68 576.335 381.68C575.481 381.68 574.721 381.88 574.055 382.28C573.415 382.653 572.908 383.187 572.535 383.88C572.161 384.573 571.975 385.373 571.975 386.28C571.975 387.16 572.148 387.947 572.495 388.64C572.868 389.333 573.388 389.88 574.055 390.28C574.721 390.68 575.468 390.88 576.295 390.88ZM599.604 396.44C597.497 396.44 595.617 396.013 593.964 395.16C592.337 394.28 591.057 393.067 590.124 391.52C589.19 389.973 588.724 388.227 588.724 386.28C588.724 384.333 589.177 382.6 590.084 381.08C591.017 379.533 592.27 378.32 593.844 377.44C595.417 376.56 597.19 376.12 599.164 376.12C601.084 376.12 602.777 376.533 604.244 377.36C605.71 378.187 606.857 379.333 607.684 380.8C608.537 382.267 608.964 383.947 608.964 385.84C608.964 386.187 608.937 386.56 608.884 386.96C608.857 387.333 608.79 387.773 608.684 388.28L591.924 388.32V384.12L606.084 384.08L603.444 385.84C603.417 384.72 603.244 383.8 602.924 383.08C602.604 382.333 602.124 381.773 601.484 381.4C600.87 381 600.11 380.8 599.204 380.8C598.244 380.8 597.404 381.027 596.684 381.48C595.99 381.907 595.444 382.52 595.044 383.32C594.67 384.12 594.484 385.093 594.484 386.24C594.484 387.387 594.684 388.373 595.084 389.2C595.51 390 596.097 390.627 596.844 391.08C597.617 391.507 598.524 391.72 599.564 391.72C600.524 391.72 601.39 391.56 602.164 391.24C602.937 390.893 603.617 390.387 604.204 389.72L607.564 393.08C606.604 394.2 605.444 395.04 604.084 395.6C602.724 396.16 601.23 396.44 599.604 396.44ZM611.918 396V376.56H618.038V396H611.918ZM618.038 385.32L615.478 383.32C615.984 381.053 616.838 379.293 618.038 378.04C619.238 376.787 620.904 376.16 623.038 376.16C623.971 376.16 624.784 376.307 625.478 376.6C626.198 376.867 626.824 377.293 627.358 377.88L623.718 382.48C623.451 382.187 623.118 381.96 622.718 381.8C622.318 381.64 621.864 381.56 621.358 381.56C620.344 381.56 619.531 381.88 618.918 382.52C618.331 383.133 618.038 384.067 618.038 385.32ZM631.943 396V368.52H638.063V396H631.943ZM627.543 381.76V376.56H642.463V381.76H627.543ZM653.337 396V367.76H659.617V396H653.337ZM671.976 396V368.16H678.256V396H671.976ZM663.136 373.24V367.76H687.096V373.24H663.136ZM710.915 396.44C708.862 396.44 706.928 396.067 705.115 395.32C703.328 394.573 701.768 393.547 700.435 392.24C699.102 390.907 698.048 389.36 697.275 387.6C696.528 385.813 696.155 383.893 696.155 381.84C696.155 379.787 696.542 377.88 697.315 376.12C698.088 374.36 699.155 372.827 700.515 371.52C701.902 370.187 703.515 369.16 705.355 368.44C707.195 367.693 709.168 367.32 711.275 367.32C713.702 367.32 715.902 367.76 717.875 368.64C719.875 369.52 721.528 370.733 722.835 372.28L718.555 376.56C717.648 375.387 716.582 374.507 715.355 373.92C714.128 373.333 712.742 373.04 711.195 373.04C709.542 373.04 708.062 373.413 706.755 374.16C705.448 374.88 704.422 375.907 703.675 377.24C702.955 378.547 702.595 380.08 702.595 381.84C702.595 383.6 702.955 385.147 703.675 386.48C704.395 387.813 705.382 388.853 706.635 389.6C707.888 390.347 709.328 390.72 710.955 390.72C712.608 390.72 714.008 390.413 715.155 389.8C716.328 389.16 717.222 388.253 717.835 387.08C718.475 385.88 718.795 384.427 718.795 382.72L722.955 385.52L710.355 385.32V380H725.195V380.92C725.195 384.307 724.582 387.16 723.355 389.48C722.155 391.773 720.475 393.507 718.315 394.68C716.182 395.853 713.715 396.44 710.915 396.44ZM737.081 396.44C735.295 396.44 733.708 396.08 732.321 395.36C730.961 394.613 729.895 393.6 729.121 392.32C728.348 391.013 727.961 389.52 727.961 387.84V376.56H734.081V387.76C734.081 388.427 734.188 389 734.401 389.48C734.641 389.96 734.988 390.333 735.441 390.6C735.895 390.867 736.441 391 737.081 391C737.988 391 738.708 390.72 739.241 390.16C739.775 389.573 740.041 388.773 740.041 387.76V376.56H746.161V387.8C746.161 389.507 745.775 391.013 745.001 392.32C744.228 393.6 743.161 394.613 741.801 395.36C740.441 396.08 738.868 396.44 737.081 396.44ZM750.004 396V376.56H756.124V396H750.004ZM753.084 373.88C752.124 373.88 751.324 373.56 750.684 372.92C750.07 372.253 749.764 371.453 749.764 370.52C749.764 369.56 750.07 368.76 750.684 368.12C751.324 367.48 752.124 367.16 753.084 367.16C754.044 367.16 754.83 367.48 755.444 368.12C756.057 368.76 756.364 369.56 756.364 370.52C756.364 371.453 756.057 372.253 755.444 372.92C754.83 373.56 754.044 373.88 753.084 373.88ZM768.713 396.4C766.873 396.4 765.233 395.96 763.793 395.08C762.38 394.2 761.26 393 760.433 391.48C759.633 389.96 759.233 388.227 759.233 386.28C759.233 384.333 759.633 382.6 760.433 381.08C761.26 379.56 762.38 378.36 763.793 377.48C765.233 376.6 766.873 376.16 768.713 376.16C770.047 376.16 771.247 376.413 772.313 376.92C773.407 377.427 774.3 378.133 774.993 379.04C775.713 379.92 776.113 380.933 776.193 382.08V390.28C776.113 391.427 775.727 392.467 775.033 393.4C774.34 394.307 773.447 395.04 772.353 395.6C771.26 396.133 770.047 396.4 768.713 396.4ZM769.793 390.88C770.673 390.88 771.433 390.693 772.073 390.32C772.713 389.92 773.22 389.373 773.593 388.68C773.967 387.987 774.153 387.187 774.153 386.28C774.153 385.373 773.967 384.587 773.593 383.92C773.247 383.227 772.74 382.68 772.073 382.28C771.433 381.88 770.687 381.68 769.833 381.68C768.98 381.68 768.22 381.88 767.553 382.28C766.913 382.68 766.393 383.227 765.993 383.92C765.62 384.613 765.433 385.4 765.433 386.28C765.433 387.16 765.62 387.947 765.993 388.64C766.367 389.333 766.887 389.88 767.553 390.28C768.22 390.68 768.967 390.88 769.793 390.88ZM779.913 396H773.913V390.76L774.833 386.04L773.793 381.32V366.96H779.913V396ZM792.342 396.4C790.556 396.4 788.956 395.96 787.543 395.08C786.156 394.2 785.049 393 784.223 391.48C783.423 389.96 783.023 388.227 783.023 386.28C783.023 384.333 783.423 382.6 784.223 381.08C785.049 379.56 786.156 378.36 787.543 377.48C788.956 376.6 790.556 376.16 792.342 376.16C793.649 376.16 794.823 376.413 795.863 376.92C796.929 377.427 797.796 378.133 798.463 379.04C799.129 379.92 799.503 380.933 799.583 382.08V390.48C799.503 391.627 799.129 392.653 798.463 393.56C797.823 394.44 796.969 395.133 795.903 395.64C794.836 396.147 793.649 396.4 792.342 396.4ZM793.583 390.88C794.889 390.88 795.943 390.453 796.743 389.6C797.543 388.72 797.943 387.613 797.943 386.28C797.943 385.373 797.756 384.573 797.383 383.88C797.036 383.187 796.529 382.653 795.863 382.28C795.223 381.88 794.476 381.68 793.623 381.68C792.769 381.68 792.009 381.88 791.343 382.28C790.703 382.653 790.183 383.187 789.783 383.88C789.409 384.573 789.223 385.373 789.223 386.28C789.223 387.16 789.409 387.947 789.783 388.64C790.156 389.333 790.676 389.88 791.343 390.28C792.009 390.68 792.756 390.88 793.583 390.88ZM797.703 396V390.76L798.623 386.04L797.703 381.32V376.56H803.703V396H797.703ZM820.852 396V384.92C820.852 383.907 820.532 383.093 819.892 382.48C819.278 381.84 818.492 381.52 817.532 381.52C816.865 381.52 816.278 381.667 815.772 381.96C815.265 382.227 814.865 382.627 814.572 383.16C814.278 383.667 814.132 384.253 814.132 384.92L811.772 383.76C811.772 382.24 812.105 380.907 812.772 379.76C813.438 378.613 814.358 377.733 815.532 377.12C816.732 376.48 818.078 376.16 819.572 376.16C821.012 376.16 822.278 376.507 823.372 377.2C824.492 377.867 825.372 378.76 826.012 379.88C826.652 381 826.972 382.227 826.972 383.56V396H820.852ZM808.012 396V376.56H814.132V396H808.012ZM840.302 396.44C838.302 396.44 836.489 396 834.862 395.12C833.236 394.24 831.956 393.027 831.022 391.48C830.089 389.933 829.622 388.2 829.622 386.28C829.622 384.333 830.089 382.6 831.022 381.08C831.982 379.533 833.276 378.32 834.902 377.44C836.529 376.56 838.356 376.12 840.382 376.12C841.902 376.12 843.289 376.387 844.542 376.92C845.822 377.427 846.956 378.2 847.942 379.24L844.022 383.16C843.569 382.653 843.036 382.28 842.422 382.04C841.836 381.8 841.156 381.68 840.382 381.68C839.502 381.68 838.716 381.88 838.022 382.28C837.356 382.653 836.822 383.187 836.422 383.88C836.049 384.547 835.862 385.333 835.862 386.24C835.862 387.147 836.049 387.947 836.422 388.64C836.822 389.333 837.369 389.88 838.062 390.28C838.756 390.68 839.529 390.88 840.382 390.88C841.182 390.88 841.889 390.747 842.502 390.48C843.142 390.187 843.689 389.787 844.142 389.28L848.022 393.2C847.009 394.267 845.862 395.08 844.582 395.64C843.302 396.173 841.876 396.44 840.302 396.44ZM859.877 396.44C857.771 396.44 855.891 396.013 854.237 395.16C852.611 394.28 851.331 393.067 850.397 391.52C849.464 389.973 848.997 388.227 848.997 386.28C848.997 384.333 849.451 382.6 850.357 381.08C851.291 379.533 852.544 378.32 854.117 377.44C855.691 376.56 857.464 376.12 859.437 376.12C861.357 376.12 863.051 376.533 864.517 377.36C865.984 378.187 867.131 379.333 867.957 380.8C868.811 382.267 869.237 383.947 869.237 385.84C869.237 386.187 869.211 386.56 869.157 386.96C869.131 387.333 869.064 387.773 868.957 388.28L852.197 388.32V384.12L866.357 384.08L863.717 385.84C863.691 384.72 863.517 383.8 863.197 383.08C862.877 382.333 862.397 381.773 861.757 381.4C861.144 381 860.384 380.8 859.477 380.8C858.517 380.8 857.677 381.027 856.957 381.48C856.264 381.907 855.717 382.52 855.317 383.32C854.944 384.12 854.757 385.093 854.757 386.24C854.757 387.387 854.957 388.373 855.357 389.2C855.784 390 856.371 390.627 857.117 391.08C857.891 391.507 858.797 391.72 859.837 391.72C860.797 391.72 861.664 391.56 862.437 391.24C863.211 390.893 863.891 390.387 864.477 389.72L867.837 393.08C866.877 394.2 865.717 395.04 864.357 395.6C862.997 396.16 861.504 396.44 859.877 396.44Z" fill="white"/>
<path d="M467.52 949V944.12H474.16C475.387 944.12 476.347 943.76 477.04 943.04C477.733 942.32 478.08 941.44 478.08 940.4C478.08 939.68 477.92 939.04 477.6 938.48C477.28 937.92 476.827 937.48 476.24 937.16C475.68 936.84 474.987 936.68 474.16 936.68H467.52V931.92H473.64C474.68 931.92 475.52 931.667 476.16 931.16C476.8 930.627 477.12 929.827 477.12 928.76C477.12 927.72 476.8 926.947 476.16 926.44C475.52 925.907 474.68 925.64 473.64 925.64H467.52V920.76H474.84C476.653 920.76 478.187 921.093 479.44 921.76C480.72 922.427 481.693 923.32 482.36 924.44C483.027 925.56 483.36 926.8 483.36 928.16C483.36 929.893 482.8 931.36 481.68 932.56C480.56 933.76 478.907 934.587 476.72 935.04L476.88 932.92C479.253 933.373 481.08 934.293 482.36 935.68C483.667 937.067 484.32 938.773 484.32 940.8C484.32 942.347 483.933 943.747 483.16 945C482.413 946.227 481.32 947.2 479.88 947.92C478.467 948.64 476.76 949 474.76 949H467.52ZM462.72 949V920.76H468.92V949H462.72ZM497.385 949.44C495.278 949.44 493.398 949.013 491.745 948.16C490.118 947.28 488.838 946.067 487.905 944.52C486.972 942.973 486.505 941.227 486.505 939.28C486.505 937.333 486.958 935.6 487.865 934.08C488.798 932.533 490.052 931.32 491.625 930.44C493.198 929.56 494.972 929.12 496.945 929.12C498.865 929.12 500.558 929.533 502.025 930.36C503.492 931.187 504.638 932.333 505.465 933.8C506.318 935.267 506.745 936.947 506.745 938.84C506.745 939.187 506.718 939.56 506.665 939.96C506.638 940.333 506.572 940.773 506.465 941.28L489.705 941.32V937.12L503.865 937.08L501.225 938.84C501.198 937.72 501.025 936.8 500.705 936.08C500.385 935.333 499.905 934.773 499.265 934.4C498.652 934 497.892 933.8 496.985 933.8C496.025 933.8 495.185 934.027 494.465 934.48C493.772 934.907 493.225 935.52 492.825 936.32C492.452 937.12 492.265 938.093 492.265 939.24C492.265 940.387 492.465 941.373 492.865 942.2C493.292 943 493.878 943.627 494.625 944.08C495.398 944.507 496.305 944.72 497.345 944.72C498.305 944.72 499.172 944.56 499.945 944.24C500.718 943.893 501.398 943.387 501.985 942.72L505.345 946.08C504.385 947.2 503.225 948.04 501.865 948.6C500.505 949.16 499.012 949.44 497.385 949.44ZM512.459 949V921.52H518.579V949H512.459ZM508.059 934.76V929.56H535.299V934.76H508.059ZM524.779 949V921.52H530.899V949H524.779ZM547.19 949.44C545.083 949.44 543.203 949.013 541.55 948.16C539.923 947.28 538.643 946.067 537.71 944.52C536.776 942.973 536.31 941.227 536.31 939.28C536.31 937.333 536.763 935.6 537.67 934.08C538.603 932.533 539.856 931.32 541.43 930.44C543.003 929.56 544.776 929.12 546.75 929.12C548.67 929.12 550.363 929.533 551.83 930.36C553.296 931.187 554.443 932.333 555.27 933.8C556.123 935.267 556.55 936.947 556.55 938.84C556.55 939.187 556.523 939.56 556.47 939.96C556.443 940.333 556.376 940.773 556.27 941.28L539.51 941.32V937.12L553.67 937.08L551.03 938.84C551.003 937.72 550.83 936.8 550.51 936.08C550.19 935.333 549.71 934.773 549.07 934.4C548.456 934 547.696 933.8 546.79 933.8C545.83 933.8 544.99 934.027 544.27 934.48C543.576 934.907 543.03 935.52 542.63 936.32C542.256 937.12 542.07 938.093 542.07 939.24C542.07 940.387 542.27 941.373 542.67 942.2C543.096 943 543.683 943.627 544.43 944.08C545.203 944.507 546.11 944.72 547.15 944.72C548.11 944.72 548.976 944.56 549.75 944.24C550.523 943.893 551.203 943.387 551.79 942.72L555.15 946.08C554.19 947.2 553.03 948.04 551.67 948.6C550.31 949.16 548.816 949.44 547.19 949.44ZM559.504 949V929.56H565.624V949H559.504ZM565.624 938.32L563.064 936.32C563.57 934.053 564.424 932.293 565.624 931.04C566.824 929.787 568.49 929.16 570.624 929.16C571.557 929.16 572.37 929.307 573.064 929.6C573.784 929.867 574.41 930.293 574.944 930.88L571.304 935.48C571.037 935.187 570.704 934.96 570.304 934.8C569.904 934.64 569.45 934.56 568.944 934.56C567.93 934.56 567.117 934.88 566.504 935.52C565.917 936.133 565.624 937.067 565.624 938.32ZM590.254 937.36V932.72H596.214C597.468 932.72 598.428 932.4 599.094 931.76C599.788 931.12 600.134 930.253 600.134 929.16C600.134 928.147 599.801 927.307 599.134 926.64C598.468 925.973 597.508 925.64 596.254 925.64H590.254V920.76H596.974C598.841 920.76 600.481 921.12 601.894 921.84C603.308 922.533 604.414 923.507 605.214 924.76C606.014 926.013 606.414 927.453 606.414 929.08C606.414 930.733 606.014 932.187 605.214 933.44C604.414 934.667 603.294 935.627 601.854 936.32C600.414 937.013 598.721 937.36 596.774 937.36H590.254ZM585.454 949V920.76H591.734V949H585.454ZM600.814 949L592.014 936.84L597.774 935.28L608.254 949H600.814ZM619.533 949.44C617.427 949.44 615.547 949.013 613.893 948.16C612.267 947.28 610.987 946.067 610.053 944.52C609.12 942.973 608.653 941.227 608.653 939.28C608.653 937.333 609.107 935.6 610.013 934.08C610.947 932.533 612.2 931.32 613.773 930.44C615.347 929.56 617.12 929.12 619.093 929.12C621.013 929.12 622.707 929.533 624.173 930.36C625.64 931.187 626.787 932.333 627.613 933.8C628.467 935.267 628.893 936.947 628.893 938.84C628.893 939.187 628.867 939.56 628.813 939.96C628.787 940.333 628.72 940.773 628.613 941.28L611.853 941.32V937.12L626.013 937.08L623.373 938.84C623.347 937.72 623.173 936.8 622.853 936.08C622.533 935.333 622.053 934.773 621.413 934.4C620.8 934 620.04 933.8 619.133 933.8C618.173 933.8 617.333 934.027 616.613 934.48C615.92 934.907 615.373 935.52 614.973 936.32C614.6 937.12 614.413 938.093 614.413 939.24C614.413 940.387 614.613 941.373 615.013 942.2C615.44 943 616.027 943.627 616.773 944.08C617.547 944.507 618.453 944.72 619.493 944.72C620.453 944.72 621.32 944.56 622.093 944.24C622.867 943.893 623.547 943.387 624.133 942.72L627.493 946.08C626.533 947.2 625.373 948.04 624.013 948.6C622.653 949.16 621.16 949.44 619.533 949.44ZM638.928 949.48C637.781 949.48 636.648 949.333 635.528 949.04C634.434 948.747 633.408 948.333 632.448 947.8C631.514 947.24 630.714 946.6 630.048 945.88L633.528 942.36C634.168 943.053 634.928 943.6 635.808 944C636.688 944.373 637.648 944.56 638.688 944.56C639.408 944.56 639.954 944.453 640.328 944.24C640.728 944.027 640.928 943.733 640.928 943.36C640.928 942.88 640.688 942.52 640.208 942.28C639.754 942.013 639.168 941.787 638.448 941.6C637.728 941.387 636.968 941.16 636.168 940.92C635.367 940.68 634.608 940.347 633.888 939.92C633.168 939.493 632.581 938.907 632.128 938.16C631.674 937.387 631.448 936.413 631.448 935.24C631.448 933.987 631.768 932.907 632.408 932C633.048 931.067 633.954 930.333 635.128 929.8C636.301 929.267 637.674 929 639.248 929C640.901 929 642.421 929.293 643.808 929.88C645.221 930.44 646.368 931.28 647.248 932.4L643.768 935.92C643.154 935.2 642.461 934.693 641.688 934.4C640.941 934.107 640.208 933.96 639.488 933.96C638.794 933.96 638.274 934.067 637.928 934.28C637.581 934.467 637.408 934.747 637.408 935.12C637.408 935.52 637.634 935.84 638.088 936.08C638.541 936.32 639.128 936.533 639.848 936.72C640.568 936.907 641.328 937.133 642.128 937.4C642.928 937.667 643.688 938.027 644.408 938.48C645.128 938.933 645.714 939.547 646.168 940.32C646.621 941.067 646.848 942.053 646.848 943.28C646.848 945.173 646.128 946.68 644.688 947.8C643.274 948.92 641.354 949.48 638.928 949.48ZM659.528 949.44C657.528 949.44 655.714 949 654.088 948.12C652.488 947.213 651.221 945.987 650.288 944.44C649.354 942.893 648.888 941.16 648.888 939.24C648.888 937.32 649.354 935.6 650.288 934.08C651.221 932.56 652.488 931.36 654.088 930.48C655.688 929.573 657.501 929.12 659.528 929.12C661.554 929.12 663.368 929.56 664.968 930.44C666.568 931.32 667.834 932.533 668.768 934.08C669.701 935.6 670.168 937.32 670.168 939.24C670.168 941.16 669.701 942.893 668.768 944.44C667.834 945.987 666.568 947.213 664.968 948.12C663.368 949 661.554 949.44 659.528 949.44ZM659.528 943.88C660.408 943.88 661.181 943.693 661.848 943.32C662.514 942.92 663.021 942.373 663.368 941.68C663.741 940.96 663.928 940.147 663.928 939.24C663.928 938.333 663.741 937.547 663.368 936.88C662.994 936.187 662.474 935.653 661.808 935.28C661.168 934.88 660.408 934.68 659.528 934.68C658.674 934.68 657.914 934.88 657.248 935.28C656.581 935.653 656.061 936.187 655.688 936.88C655.314 937.573 655.128 938.373 655.128 939.28C655.128 940.16 655.314 940.96 655.688 941.68C656.061 942.373 656.581 942.92 657.248 943.32C657.914 943.693 658.674 943.88 659.528 943.88ZM681.855 949.44C680.068 949.44 678.481 949.08 677.095 948.36C675.735 947.613 674.668 946.6 673.895 945.32C673.121 944.013 672.735 942.52 672.735 940.84V929.56H678.855V940.76C678.855 941.427 678.961 942 679.175 942.48C679.415 942.96 679.761 943.333 680.215 943.6C680.668 943.867 681.215 944 681.855 944C682.761 944 683.481 943.72 684.015 943.16C684.548 942.573 684.815 941.773 684.815 940.76V929.56H690.935V940.8C690.935 942.507 690.548 944.013 689.775 945.32C689.001 946.6 687.935 947.613 686.575 948.36C685.215 949.08 683.641 949.44 681.855 949.44ZM694.777 949V929.56H700.897V949H694.777ZM700.897 938.32L698.337 936.32C698.844 934.053 699.697 932.293 700.897 931.04C702.097 929.787 703.764 929.16 705.897 929.16C706.831 929.16 707.644 929.307 708.337 929.6C709.057 929.867 709.684 930.293 710.217 930.88L706.577 935.48C706.311 935.187 705.977 934.96 705.577 934.8C705.177 934.64 704.724 934.56 704.217 934.56C703.204 934.56 702.391 934.88 701.777 935.52C701.191 936.133 700.897 937.067 700.897 938.32ZM720.701 949.44C718.701 949.44 716.887 949 715.261 948.12C713.634 947.24 712.354 946.027 711.421 944.48C710.487 942.933 710.021 941.2 710.021 939.28C710.021 937.333 710.487 935.6 711.421 934.08C712.381 932.533 713.674 931.32 715.301 930.44C716.927 929.56 718.754 929.12 720.781 929.12C722.301 929.12 723.687 929.387 724.941 929.92C726.221 930.427 727.354 931.2 728.341 932.24L724.421 936.16C723.967 935.653 723.434 935.28 722.821 935.04C722.234 934.8 721.554 934.68 720.781 934.68C719.901 934.68 719.114 934.88 718.421 935.28C717.754 935.653 717.221 936.187 716.821 936.88C716.447 937.547 716.261 938.333 716.261 939.24C716.261 940.147 716.447 940.947 716.821 941.64C717.221 942.333 717.767 942.88 718.461 943.28C719.154 943.68 719.927 943.88 720.781 943.88C721.581 943.88 722.287 943.747 722.901 943.48C723.541 943.187 724.087 942.787 724.541 942.28L728.421 946.2C727.407 947.267 726.261 948.08 724.981 948.64C723.701 949.173 722.274 949.44 720.701 949.44ZM740.276 949.44C738.169 949.44 736.289 949.013 734.636 948.16C733.009 947.28 731.729 946.067 730.796 944.52C729.862 942.973 729.396 941.227 729.396 939.28C729.396 937.333 729.849 935.6 730.756 934.08C731.689 932.533 732.942 931.32 734.516 930.44C736.089 929.56 737.862 929.12 739.836 929.12C741.756 929.12 743.449 929.533 744.916 930.36C746.382 931.187 747.529 932.333 748.356 933.8C749.209 935.267 749.636 936.947 749.636 938.84C749.636 939.187 749.609 939.56 749.556 939.96C749.529 940.333 749.462 940.773 749.356 941.28L732.596 941.32V937.12L746.756 937.08L744.116 938.84C744.089 937.72 743.916 936.8 743.596 936.08C743.276 935.333 742.796 934.773 742.156 934.4C741.542 934 740.782 933.8 739.876 933.8C738.916 933.8 738.076 934.027 737.356 934.48C736.662 934.907 736.116 935.52 735.716 936.32C735.342 937.12 735.156 938.093 735.156 939.24C735.156 940.387 735.356 941.373 735.756 942.2C736.182 943 736.769 943.627 737.516 944.08C738.289 944.507 739.196 944.72 740.236 944.72C741.196 944.72 742.062 944.56 742.836 944.24C743.609 943.893 744.289 943.387 744.876 942.72L748.236 946.08C747.276 947.2 746.116 948.04 744.756 948.6C743.396 949.16 741.902 949.44 740.276 949.44ZM757.514 949L768.714 920.76H774.394L785.474 949H778.834L770.354 925.56H772.634L764.034 949H757.514ZM763.874 943.88V938.76H779.274V943.88H763.874ZM788.215 949V919.96H794.335V949H788.215ZM798.644 949V919.96H804.764V949H798.644ZM818.434 949.44C816.434 949.44 814.621 949 812.994 948.12C811.394 947.213 810.127 945.987 809.194 944.44C808.261 942.893 807.794 941.16 807.794 939.24C807.794 937.32 808.261 935.6 809.194 934.08C810.127 932.56 811.394 931.36 812.994 930.48C814.594 929.573 816.407 929.12 818.434 929.12C820.461 929.12 822.274 929.56 823.874 930.44C825.474 931.32 826.741 932.533 827.674 934.08C828.607 935.6 829.074 937.32 829.074 939.24C829.074 941.16 828.607 942.893 827.674 944.44C826.741 945.987 825.474 947.213 823.874 948.12C822.274 949 820.461 949.44 818.434 949.44ZM818.434 943.88C819.314 943.88 820.087 943.693 820.754 943.32C821.421 942.92 821.927 942.373 822.274 941.68C822.647 940.96 822.834 940.147 822.834 939.24C822.834 938.333 822.647 937.547 822.274 936.88C821.901 936.187 821.381 935.653 820.714 935.28C820.074 934.88 819.314 934.68 818.434 934.68C817.581 934.68 816.821 934.88 816.154 935.28C815.487 935.653 814.967 936.187 814.594 936.88C814.221 937.573 814.034 938.373 814.034 939.28C814.034 940.16 814.221 940.96 814.594 941.68C814.967 942.373 815.487 942.92 816.154 943.32C816.821 943.693 817.581 943.88 818.434 943.88ZM841.521 949.44C839.521 949.44 837.708 949 836.081 948.12C834.454 947.24 833.174 946.027 832.241 944.48C831.308 942.933 830.841 941.2 830.841 939.28C830.841 937.333 831.308 935.6 832.241 934.08C833.201 932.533 834.494 931.32 836.121 930.44C837.748 929.56 839.574 929.12 841.601 929.12C843.121 929.12 844.508 929.387 845.761 929.92C847.041 930.427 848.174 931.2 849.161 932.24L845.241 936.16C844.788 935.653 844.254 935.28 843.641 935.04C843.054 934.8 842.374 934.68 841.601 934.68C840.721 934.68 839.934 934.88 839.241 935.28C838.574 935.653 838.041 936.187 837.641 936.88C837.268 937.547 837.081 938.333 837.081 939.24C837.081 940.147 837.268 940.947 837.641 941.64C838.041 942.333 838.588 942.88 839.281 943.28C839.974 943.68 840.748 943.88 841.601 943.88C842.401 943.88 843.108 943.747 843.721 943.48C844.361 943.187 844.908 942.787 845.361 942.28L849.241 946.2C848.228 947.267 847.081 948.08 845.801 948.64C844.521 949.173 843.094 949.44 841.521 949.44ZM859.616 949.4C857.829 949.4 856.229 948.96 854.816 948.08C853.429 947.2 852.323 946 851.496 944.48C850.696 942.96 850.296 941.227 850.296 939.28C850.296 937.333 850.696 935.6 851.496 934.08C852.323 932.56 853.429 931.36 854.816 930.48C856.229 929.6 857.829 929.16 859.616 929.16C860.923 929.16 862.096 929.413 863.136 929.92C864.203 930.427 865.069 931.133 865.736 932.04C866.403 932.92 866.776 933.933 866.856 935.08V943.48C866.776 944.627 866.403 945.653 865.736 946.56C865.096 947.44 864.243 948.133 863.176 948.64C862.109 949.147 860.923 949.4 859.616 949.4ZM860.856 943.88C862.163 943.88 863.216 943.453 864.016 942.6C864.816 941.72 865.216 940.613 865.216 939.28C865.216 938.373 865.029 937.573 864.656 936.88C864.309 936.187 863.803 935.653 863.136 935.28C862.496 934.88 861.749 934.68 860.896 934.68C860.043 934.68 859.283 934.88 858.616 935.28C857.976 935.653 857.456 936.187 857.056 936.88C856.683 937.573 856.496 938.373 856.496 939.28C856.496 940.16 856.683 940.947 857.056 941.64C857.429 942.333 857.949 942.88 858.616 943.28C859.283 943.68 860.029 943.88 860.856 943.88ZM864.976 949V943.76L865.896 939.04L864.976 934.32V929.56H870.976V949H864.976ZM878.045 949V921.52H884.165V949H878.045ZM873.645 934.76V929.56H888.565V934.76H873.645ZM891.262 949V929.56H897.382V949H891.262ZM894.342 926.88C893.382 926.88 892.582 926.56 891.942 925.92C891.328 925.253 891.022 924.453 891.022 923.52C891.022 922.56 891.328 921.76 891.942 921.12C892.582 920.48 893.382 920.16 894.342 920.16C895.302 920.16 896.088 920.48 896.702 921.12C897.315 921.76 897.622 922.56 897.622 923.52C897.622 924.453 897.315 925.253 896.702 925.92C896.088 926.56 895.302 926.88 894.342 926.88ZM911.051 949.44C909.051 949.44 907.238 949 905.611 948.12C904.011 947.213 902.745 945.987 901.811 944.44C900.878 942.893 900.411 941.16 900.411 939.24C900.411 937.32 900.878 935.6 901.811 934.08C902.745 932.56 904.011 931.36 905.611 930.48C907.211 929.573 909.025 929.12 911.051 929.12C913.078 929.12 914.891 929.56 916.491 930.44C918.091 931.32 919.358 932.533 920.291 934.08C921.225 935.6 921.691 937.32 921.691 939.24C921.691 941.16 921.225 942.893 920.291 944.44C919.358 945.987 918.091 947.213 916.491 948.12C914.891 949 913.078 949.44 911.051 949.44ZM911.051 943.88C911.931 943.88 912.705 943.693 913.371 943.32C914.038 942.92 914.545 942.373 914.891 941.68C915.265 940.96 915.451 940.147 915.451 939.24C915.451 938.333 915.265 937.547 914.891 936.88C914.518 936.187 913.998 935.653 913.331 935.28C912.691 934.88 911.931 934.68 911.051 934.68C910.198 934.68 909.438 934.88 908.771 935.28C908.105 935.653 907.585 936.187 907.211 936.88C906.838 937.573 906.651 938.373 906.651 939.28C906.651 940.16 906.838 940.96 907.211 941.68C907.585 942.373 908.105 942.92 908.771 943.32C909.438 943.693 910.198 943.88 911.051 943.88ZM937.578 949V937.92C937.578 936.907 937.258 936.093 936.618 935.48C936.005 934.84 935.218 934.52 934.258 934.52C933.591 934.52 933.005 934.667 932.498 934.96C931.991 935.227 931.591 935.627 931.298 936.16C931.005 936.667 930.858 937.253 930.858 937.92L928.498 936.76C928.498 935.24 928.831 933.907 929.498 932.76C930.165 931.613 931.085 930.733 932.258 930.12C933.458 929.48 934.805 929.16 936.298 929.16C937.738 929.16 939.005 929.507 940.098 930.2C941.218 930.867 942.098 931.76 942.738 932.88C943.378 934 943.698 935.227 943.698 936.56V949H937.578ZM924.738 949V929.56H930.858V949H924.738Z" fill="white"/>
<path d="M86.72 673V644.76H93V673H86.72ZM97.8788 673V653.56H103.999V673H97.8788ZM110.319 673V661.64C110.319 660.653 110.012 659.893 109.399 659.36C108.812 658.8 108.079 658.52 107.199 658.52C106.585 658.52 106.039 658.653 105.559 658.92C105.079 659.16 104.692 659.507 104.399 659.96C104.132 660.413 103.999 660.973 103.999 661.64L101.639 660.6C101.639 659.053 101.972 657.733 102.639 656.64C103.305 655.52 104.212 654.667 105.359 654.08C106.505 653.467 107.799 653.16 109.239 653.16C110.599 653.16 111.812 653.467 112.879 654.08C113.972 654.693 114.839 655.547 115.479 656.64C116.119 657.733 116.439 659.04 116.439 660.56V673H110.319ZM122.759 673V661.64C122.759 660.653 122.452 659.893 121.839 659.36C121.252 658.8 120.519 658.52 119.639 658.52C119.025 658.52 118.479 658.653 117.999 658.92C117.519 659.16 117.132 659.507 116.839 659.96C116.572 660.413 116.439 660.973 116.439 661.64L112.919 661.16C112.972 659.507 113.359 658.093 114.079 656.92C114.825 655.72 115.799 654.8 116.999 654.16C118.225 653.493 119.599 653.16 121.119 653.16C122.612 653.16 123.932 653.48 125.079 654.12C126.252 654.733 127.172 655.627 127.839 656.8C128.532 657.947 128.879 659.333 128.879 660.96V673H122.759ZM144.001 673.4C142.694 673.4 141.494 673.147 140.401 672.64C139.307 672.133 138.414 671.44 137.721 670.56C137.027 669.653 136.627 668.627 136.521 667.48V659.28C136.627 658.133 137.027 657.093 137.721 656.16C138.414 655.227 139.307 654.493 140.401 653.96C141.494 653.427 142.694 653.16 144.001 653.16C145.841 653.16 147.467 653.6 148.881 654.48C150.321 655.36 151.441 656.56 152.241 658.08C153.067 659.6 153.481 661.333 153.481 663.28C153.481 665.227 153.067 666.96 152.241 668.48C151.441 670 150.321 671.2 148.881 672.08C147.467 672.96 145.841 673.4 144.001 673.4ZM132.801 681.2V653.56H138.921V658.56L137.921 663.28L138.841 668V681.2H132.801ZM142.881 667.88C143.761 667.88 144.521 667.68 145.161 667.28C145.827 666.88 146.347 666.333 146.721 665.64C147.094 664.947 147.281 664.16 147.281 663.28C147.281 662.373 147.094 661.573 146.721 660.88C146.347 660.187 145.827 659.653 145.161 659.28C144.521 658.88 143.774 658.68 142.921 658.68C142.067 658.68 141.307 658.88 140.641 659.28C140.001 659.653 139.494 660.187 139.121 660.88C138.747 661.573 138.561 662.373 138.561 663.28C138.561 664.16 138.734 664.947 139.081 665.64C139.454 666.333 139.974 666.88 140.641 667.28C141.307 667.68 142.054 667.88 142.881 667.88ZM156.59 673V653.56H162.71V673H156.59ZM162.71 662.32L160.15 660.32C160.656 658.053 161.51 656.293 162.71 655.04C163.91 653.787 165.576 653.16 167.71 653.16C168.643 653.16 169.456 653.307 170.15 653.6C170.87 653.867 171.496 654.293 172.03 654.88L168.39 659.48C168.123 659.187 167.79 658.96 167.39 658.8C166.99 658.64 166.536 658.56 166.03 658.56C165.016 658.56 164.203 658.88 163.59 659.52C163.003 660.133 162.71 661.067 162.71 662.32ZM182.473 673.44C180.473 673.44 178.66 673 177.033 672.12C175.433 671.213 174.166 669.987 173.233 668.44C172.3 666.893 171.833 665.16 171.833 663.24C171.833 661.32 172.3 659.6 173.233 658.08C174.166 656.56 175.433 655.36 177.033 654.48C178.633 653.573 180.446 653.12 182.473 653.12C184.5 653.12 186.313 653.56 187.913 654.44C189.513 655.32 190.78 656.533 191.713 658.08C192.646 659.6 193.113 661.32 193.113 663.24C193.113 665.16 192.646 666.893 191.713 668.44C190.78 669.987 189.513 671.213 187.913 672.12C186.313 673 184.5 673.44 182.473 673.44ZM182.473 667.88C183.353 667.88 184.126 667.693 184.793 667.32C185.46 666.92 185.966 666.373 186.313 665.68C186.686 664.96 186.873 664.147 186.873 663.24C186.873 662.333 186.686 661.547 186.313 660.88C185.94 660.187 185.42 659.653 184.753 659.28C184.113 658.88 183.353 658.68 182.473 658.68C181.62 658.68 180.86 658.88 180.193 659.28C179.526 659.653 179.006 660.187 178.633 660.88C178.26 661.573 178.073 662.373 178.073 663.28C178.073 664.16 178.26 664.96 178.633 665.68C179.006 666.373 179.526 666.92 180.193 667.32C180.86 667.693 181.62 667.88 182.473 667.88ZM201.733 673L193.493 653.56H200.093L205.693 669.76H202.813L208.413 653.56H214.893L206.653 673H201.733ZM226.151 673.44C224.044 673.44 222.164 673.013 220.511 672.16C218.884 671.28 217.604 670.067 216.671 668.52C215.737 666.973 215.271 665.227 215.271 663.28C215.271 661.333 215.724 659.6 216.631 658.08C217.564 656.533 218.817 655.32 220.391 654.44C221.964 653.56 223.737 653.12 225.711 653.12C227.631 653.12 229.324 653.533 230.791 654.36C232.257 655.187 233.404 656.333 234.231 657.8C235.084 659.267 235.511 660.947 235.511 662.84C235.511 663.187 235.484 663.56 235.431 663.96C235.404 664.333 235.337 664.773 235.231 665.28L218.471 665.32V661.12L232.631 661.08L229.991 662.84C229.964 661.72 229.791 660.8 229.471 660.08C229.151 659.333 228.671 658.773 228.031 658.4C227.417 658 226.657 657.8 225.751 657.8C224.791 657.8 223.951 658.027 223.231 658.48C222.537 658.907 221.991 659.52 221.591 660.32C221.217 661.12 221.031 662.093 221.031 663.24C221.031 664.387 221.231 665.373 221.631 666.2C222.057 667 222.644 667.627 223.391 668.08C224.164 668.507 225.071 668.72 226.111 668.72C227.071 668.72 227.937 668.56 228.711 668.24C229.484 667.893 230.164 667.387 230.751 666.72L234.111 670.08C233.151 671.2 231.991 672.04 230.631 672.6C229.271 673.16 227.777 673.44 226.151 673.44ZM246.745 673.4C244.905 673.4 243.265 672.96 241.825 672.08C240.411 671.2 239.291 670 238.465 668.48C237.665 666.96 237.265 665.227 237.265 663.28C237.265 661.333 237.665 659.6 238.465 658.08C239.291 656.56 240.411 655.36 241.825 654.48C243.265 653.6 244.905 653.16 246.745 653.16C248.078 653.16 249.278 653.413 250.345 653.92C251.438 654.427 252.331 655.133 253.025 656.04C253.745 656.92 254.145 657.933 254.225 659.08V667.28C254.145 668.427 253.758 669.467 253.065 670.4C252.371 671.307 251.478 672.04 250.385 672.6C249.291 673.133 248.078 673.4 246.745 673.4ZM247.825 667.88C248.705 667.88 249.465 667.693 250.105 667.32C250.745 666.92 251.251 666.373 251.625 665.68C251.998 664.987 252.185 664.187 252.185 663.28C252.185 662.373 251.998 661.587 251.625 660.92C251.278 660.227 250.771 659.68 250.105 659.28C249.465 658.88 248.718 658.68 247.865 658.68C247.011 658.68 246.251 658.88 245.585 659.28C244.945 659.68 244.425 660.227 244.025 660.92C243.651 661.613 243.465 662.4 243.465 663.28C243.465 664.16 243.651 664.947 244.025 665.64C244.398 666.333 244.918 666.88 245.585 667.28C246.251 667.68 246.998 667.88 247.825 667.88ZM257.945 673H251.945V667.76L252.865 663.04L251.825 658.32V643.96H257.945V673ZM283.831 673.44C281.724 673.44 279.764 673.08 277.951 672.36C276.164 671.613 274.591 670.573 273.231 669.24C271.898 667.907 270.858 666.36 270.111 664.6C269.364 662.813 268.991 660.893 268.991 658.84C268.991 656.787 269.364 654.88 270.111 653.12C270.858 651.333 271.898 649.787 273.231 648.48C274.564 647.173 276.124 646.16 277.911 645.44C279.724 644.693 281.684 644.32 283.791 644.32C286.031 644.32 288.018 644.68 289.751 645.4C291.511 646.12 293.044 647.107 294.351 648.36L290.151 652.6C289.404 651.8 288.498 651.173 287.431 650.72C286.391 650.267 285.178 650.04 283.791 650.04C282.564 650.04 281.431 650.253 280.391 650.68C279.378 651.08 278.498 651.667 277.751 652.44C277.031 653.213 276.458 654.147 276.031 655.24C275.631 656.333 275.431 657.533 275.431 658.84C275.431 660.173 275.631 661.387 276.031 662.48C276.458 663.573 277.031 664.507 277.751 665.28C278.498 666.053 279.378 666.653 280.391 667.08C281.431 667.507 282.564 667.72 283.791 667.72C285.231 667.72 286.484 667.493 287.551 667.04C288.618 666.587 289.538 665.96 290.311 665.16L294.551 669.4C293.191 670.653 291.631 671.64 289.871 672.36C288.138 673.08 286.124 673.44 283.831 673.44ZM302.16 673.08L294.16 653.56H300.76L305.84 669.04H303.4L308.6 653.56H315.2L306.88 673.08H302.16ZM297.16 681.2L303 668.6L306.88 673.08L303.44 681.2H297.16ZM328.258 673.4C326.952 673.4 325.752 673.133 324.658 672.6C323.565 672.04 322.672 671.307 321.978 670.4C321.285 669.467 320.885 668.427 320.778 667.28V659.08C320.885 657.933 321.285 656.92 321.978 656.04C322.672 655.133 323.565 654.427 324.658 653.92C325.752 653.413 326.952 653.16 328.258 653.16C330.098 653.16 331.725 653.6 333.138 654.48C334.578 655.36 335.698 656.56 336.498 658.08C337.325 659.6 337.738 661.333 337.738 663.28C337.738 665.227 337.325 666.96 336.498 668.48C335.698 670 334.578 671.2 333.138 672.08C331.725 672.96 330.098 673.4 328.258 673.4ZM317.058 673V643.96H323.178V658.32L322.178 663.04L323.098 667.76V673H317.058ZM327.178 667.88C328.032 667.88 328.778 667.68 329.418 667.28C330.085 666.88 330.605 666.333 330.978 665.64C331.352 664.947 331.538 664.16 331.538 663.28C331.538 662.373 331.352 661.573 330.978 660.88C330.605 660.187 330.085 659.653 329.418 659.28C328.778 658.88 328.032 658.68 327.178 658.68C326.325 658.68 325.565 658.88 324.898 659.28C324.232 659.653 323.712 660.187 323.338 660.88C322.992 661.573 322.818 662.373 322.818 663.28C322.818 664.187 323.005 664.987 323.378 665.68C323.752 666.373 324.258 666.92 324.898 667.32C325.565 667.693 326.325 667.88 327.178 667.88ZM350.447 673.44C348.341 673.44 346.461 673.013 344.808 672.16C343.181 671.28 341.901 670.067 340.968 668.52C340.034 666.973 339.568 665.227 339.568 663.28C339.568 661.333 340.021 659.6 340.928 658.08C341.861 656.533 343.114 655.32 344.688 654.44C346.261 653.56 348.034 653.12 350.008 653.12C351.928 653.12 353.621 653.533 355.088 654.36C356.554 655.187 357.701 656.333 358.528 657.8C359.381 659.267 359.807 660.947 359.807 662.84C359.807 663.187 359.781 663.56 359.728 663.96C359.701 664.333 359.634 664.773 359.528 665.28L342.768 665.32V661.12L356.928 661.08L354.288 662.84C354.261 661.72 354.088 660.8 353.768 660.08C353.448 659.333 352.968 658.773 352.328 658.4C351.714 658 350.954 657.8 350.048 657.8C349.088 657.8 348.248 658.027 347.528 658.48C346.834 658.907 346.288 659.52 345.888 660.32C345.514 661.12 345.328 662.093 345.328 663.24C345.328 664.387 345.528 665.373 345.928 666.2C346.354 667 346.941 667.627 347.688 668.08C348.461 668.507 349.368 668.72 350.408 668.72C351.368 668.72 352.234 668.56 353.008 668.24C353.781 667.893 354.461 667.387 355.048 666.72L358.408 670.08C357.448 671.2 356.288 672.04 354.928 672.6C353.568 673.16 352.074 673.44 350.447 673.44ZM362.762 673V653.56H368.882V673H362.762ZM368.882 662.32L366.322 660.32C366.828 658.053 367.682 656.293 368.882 655.04C370.082 653.787 371.748 653.16 373.882 653.16C374.815 653.16 375.628 653.307 376.322 653.6C377.042 653.867 377.668 654.293 378.202 654.88L374.562 659.48C374.295 659.187 373.962 658.96 373.562 658.8C373.162 658.64 372.708 658.56 372.202 658.56C371.188 658.56 370.375 658.88 369.762 659.52C369.175 660.133 368.882 661.067 368.882 662.32ZM386.482 673.48C385.336 673.48 384.202 673.333 383.082 673.04C381.989 672.747 380.962 672.333 380.002 671.8C379.069 671.24 378.269 670.6 377.602 669.88L381.082 666.36C381.722 667.053 382.482 667.6 383.362 668C384.242 668.373 385.202 668.56 386.242 668.56C386.962 668.56 387.509 668.453 387.882 668.24C388.282 668.027 388.482 667.733 388.482 667.36C388.482 666.88 388.242 666.52 387.762 666.28C387.309 666.013 386.722 665.787 386.002 665.6C385.282 665.387 384.522 665.16 383.722 664.92C382.922 664.68 382.162 664.347 381.442 663.92C380.722 663.493 380.136 662.907 379.682 662.16C379.229 661.387 379.002 660.413 379.002 659.24C379.002 657.987 379.322 656.907 379.962 656C380.602 655.067 381.509 654.333 382.682 653.8C383.856 653.267 385.229 653 386.802 653C388.456 653 389.976 653.293 391.362 653.88C392.776 654.44 393.922 655.28 394.802 656.4L391.322 659.92C390.709 659.2 390.016 658.693 389.242 658.4C388.496 658.107 387.762 657.96 387.042 657.96C386.349 657.96 385.829 658.067 385.482 658.28C385.136 658.467 384.962 658.747 384.962 659.12C384.962 659.52 385.189 659.84 385.642 660.08C386.096 660.32 386.682 660.533 387.402 660.72C388.122 660.907 388.882 661.133 389.682 661.4C390.482 661.667 391.242 662.027 391.962 662.48C392.682 662.933 393.269 663.547 393.722 664.32C394.176 665.067 394.402 666.053 394.402 667.28C394.402 669.173 393.682 670.68 392.242 671.8C390.829 672.92 388.909 673.48 386.482 673.48ZM407.322 673.44C405.216 673.44 403.336 673.013 401.683 672.16C400.056 671.28 398.776 670.067 397.843 668.52C396.909 666.973 396.443 665.227 396.443 663.28C396.443 661.333 396.896 659.6 397.803 658.08C398.736 656.533 399.989 655.32 401.563 654.44C403.136 653.56 404.909 653.12 406.883 653.12C408.803 653.12 410.496 653.533 411.963 654.36C413.429 655.187 414.576 656.333 415.403 657.8C416.256 659.267 416.682 660.947 416.682 662.84C416.682 663.187 416.656 663.56 416.603 663.96C416.576 664.333 416.509 664.773 416.403 665.28L399.643 665.32V661.12L413.803 661.08L411.163 662.84C411.136 661.72 410.963 660.8 410.643 660.08C410.323 659.333 409.843 658.773 409.203 658.4C408.589 658 407.829 657.8 406.923 657.8C405.963 657.8 405.123 658.027 404.403 658.48C403.709 658.907 403.163 659.52 402.763 660.32C402.389 661.12 402.203 662.093 402.203 663.24C402.203 664.387 402.403 665.373 402.803 666.2C403.229 667 403.816 667.627 404.563 668.08C405.336 668.507 406.243 668.72 407.283 668.72C408.243 668.72 409.109 668.56 409.883 668.24C410.656 667.893 411.336 667.387 411.923 666.72L415.283 670.08C414.323 671.2 413.163 672.04 411.803 672.6C410.443 673.16 408.949 673.44 407.322 673.44ZM429.037 673.44C427.037 673.44 425.223 673 423.597 672.12C421.97 671.24 420.69 670.027 419.757 668.48C418.823 666.933 418.357 665.2 418.357 663.28C418.357 661.333 418.823 659.6 419.757 658.08C420.717 656.533 422.01 655.32 423.637 654.44C425.263 653.56 427.09 653.12 429.117 653.12C430.637 653.12 432.023 653.387 433.277 653.92C434.557 654.427 435.69 655.2 436.677 656.24L432.757 660.16C432.303 659.653 431.77 659.28 431.157 659.04C430.57 658.8 429.89 658.68 429.117 658.68C428.237 658.68 427.45 658.88 426.757 659.28C426.09 659.653 425.557 660.187 425.157 660.88C424.783 661.547 424.597 662.333 424.597 663.24C424.597 664.147 424.783 664.947 425.157 665.64C425.557 666.333 426.103 666.88 426.797 667.28C427.49 667.68 428.263 667.88 429.117 667.88C429.917 667.88 430.623 667.747 431.237 667.48C431.877 667.187 432.423 666.787 432.877 666.28L436.757 670.2C435.743 671.267 434.597 672.08 433.317 672.64C432.037 673.173 430.61 673.44 429.037 673.44ZM448.12 673.44C446.334 673.44 444.747 673.08 443.36 672.36C442 671.613 440.934 670.6 440.16 669.32C439.387 668.013 439 666.52 439 664.84V653.56H445.12V664.76C445.12 665.427 445.227 666 445.44 666.48C445.68 666.96 446.027 667.333 446.48 667.6C446.934 667.867 447.48 668 448.12 668C449.027 668 449.747 667.72 450.28 667.16C450.814 666.573 451.08 665.773 451.08 664.76V653.56H457.2V664.8C457.2 666.507 456.814 668.013 456.04 669.32C455.267 670.6 454.2 671.613 452.84 672.36C451.48 673.08 449.907 673.44 448.12 673.44ZM461.043 673V653.56H467.163V673H461.043ZM467.163 662.32L464.603 660.32C465.109 658.053 465.963 656.293 467.163 655.04C468.363 653.787 470.029 653.16 472.163 653.16C473.096 653.16 473.909 653.307 474.603 653.6C475.323 653.867 475.949 654.293 476.483 654.88L472.843 659.48C472.576 659.187 472.243 658.96 471.843 658.8C471.443 658.64 470.989 658.56 470.483 658.56C469.469 658.56 468.656 658.88 468.043 659.52C467.456 660.133 467.163 661.067 467.163 662.32ZM478.113 673V653.56H484.233V673H478.113ZM481.193 650.88C480.233 650.88 479.433 650.56 478.793 649.92C478.18 649.253 477.873 648.453 477.873 647.52C477.873 646.56 478.18 645.76 478.793 645.12C479.433 644.48 480.233 644.16 481.193 644.16C482.153 644.16 482.94 644.48 483.553 645.12C484.166 645.76 484.473 646.56 484.473 647.52C484.473 648.453 484.166 649.253 483.553 649.92C482.94 650.56 482.153 650.88 481.193 650.88ZM491.303 673V645.52H497.423V673H491.303ZM486.903 658.76V653.56H501.823V658.76H486.903ZM510.519 673.08L502.519 653.56H509.119L514.199 669.04H511.759L516.959 653.56H523.559L515.239 673.08H510.519ZM505.519 681.2L511.359 668.6L515.239 673.08L511.799 681.2H505.519Z" fill="white"/>
</svg>
