<svg version="1.2" xmlns="http://www.w3.org/2000/svg" viewBox="0 0 1000 1000" width="1000" height="1000"><style>.a{fill:#4d75a0}.b{fill:none;stroke:#3c5b8c;stroke-miterlimit:10;stroke-width:4}.c{fill:#fcbe32}.d{fill:none;stroke:#f98c32;stroke-miterlimit:10;stroke-width:5}.e{opacity:.75;mix-blend-mode:multiply;fill:#66737f}.f{fill:#a1d7ff}.g{fill:#dceff7}.h{fill:#abc6dd}.i{fill:#f98c32}.j{fill:#282f39}.k{fill:#168cdb}.l{fill:#d5ecf7}.m{fill:#808285}.n{fill:#e1e8f9}.o{fill:#6bbfff}.p{fill:#d3dbed}.q{fill:#fff}.r{fill:#46a6e8}.s{fill:none;stroke:#46a6e8;stroke-miterlimit:10;stroke-width:2}.t{fill:none;stroke:#f5534e;stroke-miterlimit:10;stroke-width:10}.u{fill:none;stroke:#282f39;stroke-miterlimit:10;stroke-width:2}.v{mix-blend-mode:multiply;fill:#d5ecf7}.w{fill:#f5534e}.x{fill:#3c5b8c}.y{fill:none;stroke:#a1d7ff;stroke-miterlimit:10;stroke-width:4}.z{fill:none;stroke:#168cdb;stroke-miterlimit:10;stroke-width:4}.A{fill:none;stroke:#a1d7ff;stroke-linecap:round;stroke-linejoin:round;stroke-width:3}</style><path class="a" d="m343.8 677.4h-114.2v-13.4h114.6z"/><path class="b" d="m236.3 664v13.4"/><path class="b" d="m245.8 664v13.4"/><path class="b" d="m255.2 664v13.4"/><path class="b" d="m264.7 664v13.4"/><path class="b" d="m274.1 664v13.4"/><path class="b" d="m283.6 664v13.4"/><path class="b" d="m293.1 664v13.4"/><path class="b" d="m302.5 664v13.4"/><path class="b" d="m312 664v13.4"/><path class="b" d="m321.4 664v13.4"/><path class="b" d="m330.9 664v13.4"/><path class="b" d="m340.3 664v13.4"/><path class="a" d="m679.3 617.2l121.6-0.1v13.5h-121.6z"/><path class="b" d="m794.2 630.6v-13.5"/><path class="b" d="m784.7 630.6v-13.4"/><path class="b" d="m775.3 630.6v-13.4"/><path class="b" d="m765.8 630.6v-13.4"/><path class="b" d="m756.4 630.6v-13.4"/><path class="b" d="m746.9 630.6v-13.4"/><path class="b" d="m737.5 630.6v-13.4"/><path class="b" d="m728 630.6v-13.4"/><path class="b" d="m718.6 630.6l-0.1-13.4"/><path class="b" d="m709.1 630.6v-13.4"/><path class="b" d="m699.6 630.6v-13.4"/><path class="b" d="m690.2 630.6v-13.4"/><path class="b" d="m680.7 630.6v-13.4"/><path class="a" d="m787.5 742.4l-0.1-121.5h13.5v121.5z"/><path class="b" d="m800.9 627.6h-13.5"/><path class="b" d="m800.9 637.1h-13.4"/><path class="b" d="m800.9 646.5h-13.4"/><path class="b" d="m800.9 656h-13.4"/><path class="b" d="m800.9 665.4h-13.4"/><path class="b" d="m800.9 674.9h-13.4"/><path class="b" d="m800.9 684.3h-13.4"/><path class="b" d="m800.9 693.8h-13.4"/><path class="b" d="m800.9 703.2h-13.4"/><path class="b" d="m800.9 712.7h-13.4"/><path class="b" d="m800.9 722.1h-13.4"/><path class="b" d="m800.9 731.6h-13.4"/><path class="b" d="m800.9 741h-13.4"/><path class="c" d="m780.5 623.9c0-7.6 6.1-13.7 13.7-13.7 7.5 0 13.6 6.1 13.6 13.7 0 7.5-6.1 13.6-13.6 13.6-7.6 0-13.7-6.1-13.7-13.6z"/><path class="d" d="m787.4 623.9c0-3.7 3.1-6.8 6.8-6.8 3.7 0 6.7 3.1 6.7 6.8 0 3.7-3 6.7-6.7 6.7-3.7 0-6.8-3-6.8-6.7z"/><path class="e" d="m800.9 693.5h-13.4v-20.5h13.4z"/><path class="a" d="m696.1 689.8l139.6-0.1v-13.4l-139.6 0.1z"/><path class="b" d="m829 676.3v13.4"/><path class="b" d="m819.5 676.3v13.4"/><path class="b" d="m810.1 676.3v13.4"/><path class="b" d="m800.6 676.3v13.4"/><path class="b" d="m791.2 676.3v13.5"/><path class="b" d="m781.7 676.3v13.5"/><path class="b" d="m772.2 676.3l0.1 13.5"/><path class="b" d="m762.8 676.3v13.5"/><path class="b" d="m753.3 676.3v13.5"/><path class="b" d="m743.9 676.3v13.5"/><path class="b" d="m734.4 676.3v13.5"/><path class="b" d="m725 676.3v13.5"/><path class="b" d="m715.5 676.3v13.5"/><path class="b" d="m706 676.3v13.5"/><path class="b" d="m696.5 676.3l0.1 13.5"/><path class="a" d="m832.2 555.2v121.6h13.5l-0.1-121.6z"/><path class="b" d="m845.7 670h-13.5"/><path class="b" d="m845.7 660.6h-13.5"/><path class="b" d="m845.7 651.1h-13.5"/><path class="b" d="m845.7 641.7h-13.5"/><path class="b" d="m845.7 632.2h-13.5"/><path class="b" d="m845.7 622.8h-13.5"/><path class="b" d="m845.7 613.3h-13.5"/><path class="b" d="m845.7 603.9h-13.5"/><path class="b" d="m845.7 594.4h-13.5"/><path class="b" d="m845.6 585h-13.4"/><path class="b" d="m845.6 575.5h-13.4"/><path class="b" d="m845.6 566.1h-13.4"/><path class="b" d="m845.6 556.6h-13.4"/><path class="c" d="m825.3 683c0 7.6 6.1 13.7 13.7 13.7 7.5 0 13.6-6.1 13.6-13.7 0-7.5-6.1-13.7-13.6-13.6-7.6 0-13.7 6.1-13.7 13.6z"/><path class="d" d="m832.3 683c0 3.7 3 6.7 6.7 6.7 3.7 0 6.7-3 6.7-6.7 0-3.7-3-6.7-6.7-6.7-3.7 0-6.8 3-6.7 6.7z"/><path class="f" d="m826.8 571.6h24.3l42.2-60.9-108.8 0.1z"/><path class="c" d="m851.2 596.5h-24.5c-2.8 0-5.1-2.3-5.1-5.1v-18.2c0-2.9 2.3-5.1 5.1-5.1h24.5c2.8 0 5.1 2.2 5.1 5v18.3c0 2.8-2.3 5.1-5.1 5.1z"/><path class="a" d="m757.8 552.2v-176.3h-13.4v176.5z"/><path class="b" d="m744.4 370.3h13.4"/><path class="b" d="m744.4 379.7h13.4"/><path class="b" d="m744.4 389.2h13.4"/><path class="b" d="m744.4 398.6h13.4"/><path class="b" d="m744.4 408.1h13.4"/><path class="b" d="m744.4 417.5h13.4"/><path class="b" d="m744.4 427h13.4"/><path class="b" d="m744.4 436.4h13.4"/><path class="b" d="m744.4 445.9h13.4"/><path class="b" d="m744.4 455.3h13.4"/><path class="b" d="m744.4 464.8h13.4"/><path class="b" d="m744.4 474.2h13.4"/><path class="b" d="m744.4 483.7h13.4"/><path class="b" d="m744.4 493.1h13.4"/><path class="b" d="m744.4 502.6h13.4"/><path class="b" d="m744.4 512h13.4"/><path class="b" d="m744.4 521.5h13.4"/><path class="b" d="m744.4 530.9h13.4"/><path class="b" d="m744.4 540.4h13.4"/><path class="b" d="m744.4 549.8h13.4"/><path class="a" d="m654.4 420.5v-44.6h-13.4v44.6z"/><path class="b" d="m641 371.4h13.4"/><path class="b" d="m641 380.8h13.4"/><path class="b" d="m641 390.3h13.4"/><path class="b" d="m641 399.7h13.4"/><path class="b" d="m641 409.2h13.4"/><path class="a" d="m638 382.6h121.6v-13.4h-121.6z"/><path class="b" d="m752.8 369.2v13.4"/><path class="b" d="m743.4 369.2v13.4"/><path class="b" d="m733.9 369.2v13.4"/><path class="b" d="m724.5 369.2v13.4"/><path class="b" d="m715 369.2v13.4"/><path class="b" d="m705.6 369.2v13.4"/><path class="b" d="m696.1 369.2v13.4"/><path class="b" d="m686.7 369.2v13.4"/><path class="b" d="m677.2 369.2v13.4"/><path class="b" d="m667.8 369.2v13.4"/><path class="b" d="m658.3 369.2v13.4"/><path class="b" d="m648.9 369.2v13.4"/><path class="b" d="m639.4 369.2v13.4"/><path class="c" d="m751.1 389.6c7.5 0 13.6-6.1 13.6-13.7 0-7.5-6.1-13.7-13.6-13.7-7.6 0-13.7 6.2-13.7 13.7 0 7.6 6.1 13.7 13.7 13.7z"/><path class="d" d="m751.1 382.6c3.7 0 6.7-3 6.7-6.7 0-3.7-3-6.7-6.7-6.7-3.7 0-6.7 3-6.7 6.7 0 3.7 3 6.7 6.7 6.7z"/><path class="a" d="m638 557.5h121.6v-13.4h-121.6z"/><path class="b" d="m752.8 544.1v13.4"/><path class="b" d="m743.4 544.1v13.4"/><path class="b" d="m733.9 544.1v13.4"/><path class="b" d="m724.5 544.1v13.4"/><path class="b" d="m715 544.1v13.4"/><path class="b" d="m705.6 544.1v13.4"/><path class="b" d="m696.1 544.1v13.4"/><path class="b" d="m686.7 544.1v13.4"/><path class="b" d="m677.2 544.1v13.4"/><path class="b" d="m667.8 544.1v13.4"/><path class="b" d="m658.3 544.1v13.4"/><path class="b" d="m648.9 544.1v13.4"/><path class="b" d="m639.4 544.1v13.4"/><path class="c" d="m751.1 564.5c7.5 0 13.6-6.2 13.6-13.7 0-7.6-6.1-13.7-13.6-13.7-7.6 0-13.7 6.1-13.7 13.7 0 7.5 6.1 13.7 13.7 13.7z"/><path class="d" d="m751.1 557.5c3.7 0 6.7-3 6.7-6.7 0-3.7-3-6.7-6.7-6.7-3.7 0-6.7 3-6.7 6.7 0 3.7 3 6.7 6.7 6.7z"/><path class="c" d="m647.7 389.6c7.6 0 13.7-6.1 13.7-13.7 0-7.5-6.1-13.7-13.7-13.7-7.5 0-13.7 6.2-13.7 13.7 0 7.6 6.2 13.7 13.7 13.7z"/><path class="d" d="m647.7 382.6c3.7 0 6.7-3 6.7-6.7 0-3.7-3-6.7-6.7-6.7-3.7 0-6.7 3-6.7 6.7 0 3.7 3 6.7 6.7 6.7z"/><path class="g" d="m625.7 449.4v-16.2c0-12.2 9.8-22.1 22-22.1 12.2 0 22.1 9.9 22.1 22.1v16.2h-12.9v-16.2c0-5.1-4.1-9.2-9.2-9.2-5 0-9.1 4.1-9.1 9.2v16.2z"/><path class="h" d="m665.9 433.8v15.6h3.9v-16.2c0-11.9-9.5-21.5-21.2-22 9.9 2.2 17.3 11.5 17.3 22.6z"/><path class="h" d="m645.4 424.4c-0.5-0.1-1-0.2-1.5-0.2-5 0-9.1 4.3-9.1 9.6v15.6h3.8v-16.2c0-4.3 2.9-7.8 6.8-8.8z"/><path class="a" d="m338.5 730.6h-147.7v-13.4h147.7z"/><path class="b" d="m197.5 717.2v13.4"/><path class="b" d="m206.9 717.2v13.4"/><path class="b" d="m216.4 717.2v13.4"/><path class="b" d="m225.9 717.2v13.4"/><path class="b" d="m235.3 717.2v13.4"/><path class="b" d="m244.8 717.2v13.4"/><path class="b" d="m254.2 717.2v13.4"/><path class="b" d="m263.7 717.2v13.4"/><path class="b" d="m273.1 717.2v13.4"/><path class="b" d="m282.6 717.2v13.4"/><path class="b" d="m292 717.2v13.4"/><path class="b" d="m301.5 717.2v13.4"/><path class="b" d="m310.9 717.2v13.4"/><path class="b" d="m320.4 717.2v13.4"/><path class="b" d="m329.8 717.2v13.4"/><path class="a" d="m345.2 595.4v121.5h-13.4v-121.5z"/><path class="b" d="m331.8 710.2h13.4"/><path class="b" d="m331.8 700.8h13.4"/><path class="b" d="m331.8 691.3h13.4"/><path class="b" d="m331.8 681.9h13.4"/><path class="b" d="m331.8 672.4h13.4"/><path class="b" d="m331.8 662.9h13.4"/><path class="b" d="m331.8 653.5h13.4"/><path class="b" d="m331.8 644h13.4"/><path class="b" d="m331.8 634.6h13.4"/><path class="b" d="m331.8 625.1h13.4"/><path class="b" d="m331.8 615.7h13.4"/><path class="b" d="m331.8 606.2h13.4"/><path class="b" d="m331.8 596.8h13.4"/><path class="c" d="m352.1 723.9c0 7.5-6.1 13.7-13.6 13.7-7.6 0-13.7-6.2-13.7-13.7 0-7.6 6.1-13.7 13.7-13.7 7.5 0 13.6 6.1 13.6 13.7z"/><path class="d" d="m345.2 723.9c0 3.7-3 6.7-6.7 6.7-3.7 0-6.7-3-6.7-6.7 0-3.7 3-6.7 6.7-6.7 3.7 0 6.7 3 6.7 6.7z"/><path class="g" d="m154.7 701.8h16.1c12.2 0 22.1 9.9 22.1 22.1 0 12.1-9.9 22-22.1 22h-16.1v-12.9h16.1c5.1 0 9.2-4.1 9.2-9.1 0-5.1-4.1-9.2-9.2-9.2h-16.1z"/><path class="h" d="m170.2 742.1h-15.5v3.8h16.1c11.9 0 21.6-9.4 22.1-21.1-2.3 9.9-11.6 17.3-22.7 17.3z"/><path class="h" d="m179.7 721.6c0.1-0.5 0.1-1 0.1-1.5 0-5-4.3-9.1-9.6-9.1h-15.5v3.7h16.1c4.3 0 7.8 3 8.9 6.9z"/><path class="f" d="m150.3 673.4v16.7l-46.6 29v-74.7z"/><path class="i" d="m156 733.4h7.9c2.5 0 4.4-2 4.4-4.4v-36.9h-16.7v36.9c0 2.4 2 4.4 4.4 4.4z"/><path class="c" d="m100.7 726.1c3.6 0 6.5-2.9 6.5-6.5v-75.8c0-3.6-2.9-6.5-6.5-6.5-3.5 0-6.4 2.9-6.4 6.5v75.8c0 3.6 2.9 6.5 6.4 6.5z"/><path class="c" d="m144.6 697.2h23.3c3.2 0 5.9-2.7 5.9-5.9v-19.1c0-3.3-2.7-5.9-5.9-5.9h-23.3z"/><path class="a" d="m399.4 602.9h-121.5v-13.5h121.5z"/><path class="b" d="m284.6 589.4v13.5"/><path class="b" d="m294.1 589.4v13.5"/><path class="b" d="m303.5 589.4v13.5"/><path class="b" d="m313 589.4v13.5"/><path class="b" d="m322.4 589.4v13.5"/><path class="b" d="m331.9 589.4v13.5"/><path class="b" d="m341.3 589.4v13.5"/><path class="b" d="m350.8 589.4v13.5"/><path class="b" d="m360.2 589.4v13.5"/><path class="b" d="m369.7 589.4v13.5"/><path class="b" d="m379.1 589.4v13.5"/><path class="b" d="m388.6 589.4v13.5"/><path class="b" d="m398 589.4v13.5"/><path class="a" d="m275.3 468.4v121.5h-13.4v-121.5z"/><path class="b" d="m261.9 583.2h13.4"/><path class="b" d="m261.9 573.7h13.4"/><path class="b" d="m261.9 564.3h13.4"/><path class="b" d="m261.9 554.8h13.4"/><path class="b" d="m261.9 545.4h13.4"/><path class="b" d="m261.9 535.9h13.4"/><path class="b" d="m261.9 526.5h13.4"/><path class="b" d="m261.9 517h13.4"/><path class="b" d="m261.9 507.6h13.4"/><path class="b" d="m261.9 498.1h13.4"/><path class="b" d="m261.9 488.7h13.4"/><path class="b" d="m261.9 479.2h13.4"/><path class="b" d="m261.9 469.8h13.4"/><path class="a" d="m386.4 464.8h-108.5v-13.4h108.5z"/><path class="b" d="m284.6 451.4v13.4"/><path class="b" d="m294.1 451.4v13.4"/><path class="b" d="m303.5 451.4v13.4"/><path class="b" d="m313 451.4v13.4"/><path class="b" d="m322.4 451.4v13.4"/><path class="b" d="m331.9 451.4v13.4"/><path class="b" d="m341.3 451.4v13.4"/><path class="b" d="m350.8 451.4v13.4"/><path class="b" d="m360.2 451.4v13.4"/><path class="b" d="m369.7 451.4v13.4"/><path class="b" d="m379.1 451.4v13.4"/><path class="b" d="m388.6 451.4v13.4"/><path class="c" d="m282.3 458.1c0 7.5-6.1 13.6-13.7 13.6-7.5 0-13.7-6.1-13.7-13.6 0-7.6 6.2-13.7 13.7-13.7 7.6 0 13.7 6.1 13.7 13.7z"/><path class="d" d="m275.3 458.1c0 3.7-3 6.7-6.7 6.7-3.7 0-6.7-3-6.7-6.7 0-3.7 3-6.7 6.7-6.7 3.7 0 6.7 3 6.7 6.7z"/><path class="c" d="m282.3 596.2c0 7.5-6.1 13.6-13.7 13.6-7.5 0-13.7-6.1-13.7-13.6 0-7.6 6.2-13.7 13.7-13.7 7.6 0 13.7 6.1 13.7 13.7z"/><path class="d" d="m275.3 596.2c0 3.7-3 6.7-6.7 6.7-3.7 0-6.7-3-6.7-6.7 0-3.7 3-6.8 6.7-6.8 3.7 0 6.7 3.1 6.7 6.8z"/><path class="g" d="m421.1 436h-16.2c-12.1 0-22 9.9-22 22.1 0 12.1 9.9 22 22 22h16.2v-12.9h-16.2c-5 0-9.1-4.1-9.1-9.1 0-5.1 4.1-9.2 9.1-9.2h16.2z"/><path class="h" d="m405.6 476.3h15.5v3.8h-16.2c-11.8 0-21.5-9.4-22-21.2 2.3 9.9 11.6 17.4 22.7 17.4z"/><path class="h" d="m396.1 455.8c-0.1-0.5-0.1-1-0.1-1.5 0-5 4.3-9.1 9.6-9.1h15.5v3.7h-16.2c-4.2 0-7.8 2.9-8.8 6.9z"/><path class="e" d="m275.3 573.2h-13.4v-19.3h13.4z"/><path class="j" d="m553.2 807.8h-87.8l9.6-63.1h68.7z"/><path class="j" d="m680.8 759h-342.9c-11.2 0-20.2-9-20.2-20.2v-214.3c0-11.1 9-20.1 20.2-20.1h342.9c11.1 0 20.1 9 20.1 20.1v214.3c0 11.2-9 20.2-20.1 20.2z"/><path class="k" d="m681.5 724.7h-344.3v-199.1h344.3z"/><path class="l" d="m640.2 818.3h-261.7c0-11.5 9.3-20.8 20.8-20.8h220.1c11.5 0 20.8 9.3 20.8 20.8z"/><path class="l" d="m317.7 724.7v15.7c0 10.3 8.3 18.6 18.6 18.6h346.1c10.2 0 18.5-8.3 18.5-18.6v-15.7z"/><path class="m" d="m515.3 741.9c0 3.2-2.7 5.9-6 5.9-3.2 0-5.9-2.7-5.9-5.9 0-3.3 2.7-6 5.9-6 3.3 0 6 2.7 6 6z"/><g style="opacity:.55"><path class="n" d="m664.5 705.2h-219.4v-153.7h219.4z"/><path class="o" d="m664.5 575.6h-219.4v-24.1h219.4z"/><path class="f" d="m616.2 563.5c0 2.8-2.2 5-5 5-2.8 0-5-2.2-5-5 0-2.7 2.2-4.9 5-4.9 2.8 0 5 2.2 5 4.9z"/><path class="f" d="m635.6 563.5c0 2.8-2.3 5-5 5-2.8 0-5-2.2-5-5 0-2.7 2.2-4.9 5-4.9 2.7 0 5 2.2 5 4.9z"/><path class="f" d="m654.9 563.5c0 2.8-2.2 5-4.9 5-2.8 0-5-2.2-5-5 0-2.7 2.2-4.9 5-4.9 2.7 0 4.9 2.2 4.9 4.9z"/><path class="p" d="m558.7 643h84.4v-49.9h-84.4z"/><path class="p" d="m466.5 599h82.1v-5.9h-82.1z"/><path class="p" d="m466.5 613.7h82.1v-5.9h-82.1z"/><path class="p" d="m466.5 628.3h82.1v-5.9h-82.1z"/><path class="p" d="m466.5 643h82.1v-6h-82.1z"/><path class="p" d="m466.5 657.6h176.6v-5.9h-176.6z"/><path class="p" d="m466.5 672.2h176.6v-5.9h-176.6z"/><path class="p" d="m466.5 686.9h176.6v-5.9h-176.6z"/></g><path class="i" d="m193.1 438.9h-64.5c-4.9 0-8.9-4-8.9-8.8v-44.3c0-4.9 4-8.8 8.9-8.8h31.3l42.1 53.1c0 4.8-4 8.8-8.9 8.8z"/><path class="c" d="m190.7 449.1h-59.7c-6.2 0-11.3-5-11.3-11.3v-39.3c0-6.3 5.1-11.3 11.3-11.3h59.7c6.2 0 11.3 5 11.3 11.3v39.3c0 6.3-5.1 11.3-11.3 11.3z"/><path class="q" d="m228.3 479.2h-23.8c-9.3 0-16.8-7.6-16.8-16.9v-23.7c0-9.3 7.5-16.8 16.8-16.8h23.8c9.3 0 16.8 7.5 16.8 16.8v23.7c0 9.3-7.5 16.9-16.8 16.9z"/><path class="r" d="m229.1 463.2c0 4.1-3.3 7.4-7.3 7.4-4.1 0-7.4-3.3-7.4-7.4 0-4 3.3-7.3 7.4-7.3 4 0 7.3 3.3 7.3 7.3z"/><path class="r" d="m209.1 451.5c0 3.6-3 6.6-6.7 6.6-3.7 0-6.7-3-6.7-6.6 0-3.7 3-6.7 6.7-6.7 3.7 0 6.7 3 6.7 6.7z"/><path class="r" d="m226.1 434.1c0 2.4-1.9 4.3-4.3 4.3-2.4 0-4.4-1.9-4.4-4.3 0-2.4 2-4.4 4.4-4.4 2.4 0 4.3 2 4.3 4.4z"/><path class="s" d="m221.8 434.1l-19.4 17.4 19.4 11.7"/><path class="q" d="m304.3 348c0 6.7-5.3 12-11.9 12-6.7 0-12-5.3-12-12 0-6.6 5.3-11.9 12-11.9 6.6 0 11.9 5.3 11.9 11.9z"/><path fill-rule="evenodd" class="q" d="m329.9 357.8c-0.9 3.5-2.3 6.8-4 9.9l11.1 7.5c-4.3 7.1-10.4 13.1-17.5 17.5l-7.5-11.2c-3 1.8-6.4 3.2-9.9 4.1l2.6 13.2c-3.9 1-8.1 1.5-12.3 1.5-4.3 0-8.5-0.5-12.4-1.5l2.6-13.2c-3.5-0.9-6.9-2.3-9.9-4.1l-7.5 11.2c-7.1-4.4-13.2-10.4-17.5-17.5l11.2-7.5c-1.8-3.1-3.2-6.4-4.1-9.9l-13.2 2.6c-1-4-1.5-8.1-1.5-12.4 0-4.2 0.5-8.4 1.5-12.3l13.2 2.5c0.9-3.5 2.3-6.8 4.1-9.8l-11.2-7.5c4.3-7.2 10.4-13.2 17.5-17.5l7.5 11.1c3-1.8 6.4-3.1 9.9-4.1l-2.6-13.1c3.9-1 8.1-1.5 12.4-1.5 4.2 0 8.4 0.5 12.3 1.5l-2.6 13.1c3.5 1 6.9 2.3 9.9 4.1l7.5-11.1c7.1 4.3 13.2 10.3 17.5 17.5l-11.1 7.5c1.7 3 3.1 6.3 4 9.8l13.2-2.5c1 3.9 1.5 8.1 1.5 12.3 0 4.3-0.5 8.4-1.5 12.4zm-12-9.8c0-14.1-11.4-25.6-25.6-25.6-14.1 0-25.6 11.5-25.6 25.6 0 14.2 11.5 25.6 25.6 25.6 14.2 0 25.6-11.4 25.6-25.6z"/><path class="q" d="m860.1 773.1c0 4.1-3.3 7.5-7.5 7.5-4.1 0-7.4-3.4-7.4-7.5 0-4.1 3.3-7.5 7.4-7.5 4.2 0 7.5 3.4 7.5 7.5z"/><path fill-rule="evenodd" class="q" d="m876.1 779.2c-0.6 2.2-1.5 4.2-2.6 6.1l7 4.7c-2.7 4.5-6.5 8.2-10.9 10.9l-4.7-6.9c-1.9 1.1-4 2-6.2 2.5l1.6 8.2q-3.7 1-7.7 1-4 0-7.7-1l1.6-8.2c-2.2-0.5-4.2-1.4-6.1-2.5l-4.7 6.9c-4.4-2.7-8.2-6.4-10.9-10.9l7-4.7c-1.2-1.9-2-3.9-2.6-6.1l-8.2 1.6q-0.9-3.7-0.9-7.7 0-4 0.9-7.7l8.2 1.6c0.6-2.2 1.4-4.3 2.6-6.2l-7-4.6c2.7-4.5 6.5-8.2 10.9-10.9l4.7 6.9c1.9-1.1 3.9-2 6.1-2.5l-1.6-8.3q3.7-0.9 7.7-0.9 4 0 7.7 0.9l-1.6 8.3c2.2 0.5 4.3 1.4 6.2 2.5l4.7-6.9c4.4 2.7 8.2 6.4 10.9 10.9l-7 4.6c1.1 1.9 2 4 2.6 6.2l8.2-1.6q0.9 3.7 0.9 7.7 0 4-0.9 7.7zm-7.5-6.1c0-8.8-7.1-15.9-15.9-15.9-8.9 0-16 7.1-16 15.9 0 8.8 7.1 16 16 16 8.8 0 15.9-7.2 15.9-16z"/><path class="n" d="m689.8 559.9h-157.8v-110.5h157.8z"/><path class="k" d="m689.8 466.8h-157.8v-17.4h157.8z"/><path class="f" d="m655.1 458.1c0 1.9-1.6 3.5-3.6 3.5-2 0-3.6-1.6-3.6-3.5 0-2 1.6-3.6 3.6-3.6 2 0 3.6 1.6 3.6 3.6z"/><path class="f" d="m669 458.1c0 1.9-1.6 3.5-3.6 3.5-1.9 0-3.5-1.6-3.5-3.5 0-2 1.6-3.6 3.5-3.6 2 0 3.6 1.6 3.6 3.6z"/><path class="f" d="m683 458.1c0 1.9-1.6 3.5-3.6 3.5-2 0-3.6-1.6-3.6-3.5 0-2 1.6-3.6 3.6-3.6 2 0 3.6 1.6 3.6 3.6z"/><path class="p" d="m613.8 515.2h60.7v-35.9h-60.7z"/><path class="p" d="m547.4 483.6h59.1v-4.3h-59.1z"/><path class="p" d="m547.4 494.1h59.1v-4.2h-59.1z"/><path class="p" d="m547.4 504.6h59.1v-4.2h-59.1z"/><path class="p" d="m547.4 515.2h59.1v-4.3h-59.1z"/><path class="p" d="m547.4 525.7h127.1v-4.3h-127.1z"/><path class="p" d="m547.4 536.2h127.1v-4.2h-127.1z"/><path class="p" d="m547.4 546.8h127.1v-4.3h-127.1z"/><path class="q" d="m643.4 322.4h-86.9c-5.5 0-10-4.5-10-10v-38.7c0-5.5 4.5-10 10-10h60.5c5.5 0 10 4.5 10 10v34.2z"/><path class="r" d="m568.9 296.9c0 3.5-2.9 6.4-6.4 6.4-3.6 0-6.5-2.9-6.5-6.4 0-3.6 2.9-6.4 6.5-6.4 3.5 0 6.4 2.8 6.4 6.4z"/><path class="r" d="m591.2 296.9c0 3.5-2.9 6.4-6.4 6.4-3.6 0-6.5-2.9-6.5-6.4 0-3.6 2.9-6.4 6.5-6.4 3.5 0 6.4 2.8 6.4 6.4z"/><path class="r" d="m613.5 296.9c0 3.5-2.9 6.4-6.4 6.4-3.6 0-6.4-2.9-6.4-6.4 0-3.6 2.8-6.4 6.4-6.4 3.5 0 6.4 2.8 6.4 6.4z"/><path class="q" d="m284.6 824.5c0 25.5-20.6 46.1-46.1 46.1-25.5 0-46.1-20.6-46.1-46.1 0-25.5 20.6-46.1 46.1-46.1 25.5 0 46.1 20.6 46.1 46.1z"/><path class="t" d="m274.7 824.5c0 20-16.2 36.3-36.2 36.3-20 0-36.2-16.3-36.2-36.3 0-20 16.2-36.2 36.2-36.2 20 0 36.2 16.2 36.2 36.2z"/><path class="t" d="m259.3 824.5c0 11.5-9.3 20.8-20.8 20.8-11.5 0-20.8-9.3-20.8-20.8 0-11.5 9.3-20.8 20.8-20.8 11.5 0 20.8 9.3 20.8 20.8z"/><path class="t" d="m244.3 824.5c0 3.2-2.6 5.8-5.8 5.8-3.2 0-5.8-2.6-5.8-5.8 0-3.2 2.6-5.8 5.8-5.8 3.2 0 5.8 2.6 5.8 5.8z"/><path class="u" d="m242.2 820.8l48.1-48.1"/><path class="j" d="m238.5 824.5l18.4-7.7-9.4-1.3-1.3-9.4z"/><path class="j" d="m291.6 771.4l-0.4-5.5-8.5 8.5 0.5 5.5 5.4 0.4 8.5-8.5z"/><path class="q" d="m417.7 553.6l-56.9 56.9 56.9 60.2 56.8-60.2z"/><path class="o" d="m392.3 515.3h91.1c-10.9 0-19.6 8.8-19.6 19.6v133.5h-91.1v-133.5c0-10.8 8.8-19.6 19.6-19.6z"/><path class="v" d="m455.9 649h-75.3v-3.3h75.3z"/><path class="v" d="m455.9 638.6h-75.3v-3.3h75.3z"/><path class="v" d="m455.9 659.6h-75.3v-3.3h75.3z"/><path class="v" d="m455.9 670.1h-75.3v-3.3h75.3z"/><path class="v" d="m455.9 628.2h-75.3v-3.3h75.3z"/><path class="v" d="m455.9 617.8h-75.3v-3.3h75.3z"/><path class="v" d="m455.9 607.4h-75.3v-3.3h75.3z"/><path class="v" d="m455.9 597h-75.3v-3.3h75.3z"/><path class="v" d="m455.9 586.6h-75.3v-3.3h75.3z"/><path class="v" d="m455.9 576.2h-75.3v-3.3h75.3z"/><path class="v" d="m455.9 565.8h-75.3v-3.3h75.3z"/><path class="v" d="m455.9 555.4h-75.3v-3.3h75.3z"/><path class="v" d="m455.9 545h-75.3v-3.3h75.3z"/><path class="v" d="m455.9 534.6h-75.3v-3.3h75.3z"/><path class="f" d="m483 515.3h-91.1c10.9 0 19.6 8.8 19.6 19.6v13.8h91.1v-13.8c0-10.8-8.8-19.6-19.6-19.6z"/><path class="v" d="m417.7 640.4l-56.9-29.9v75.6z"/><path class="v" d="m417.7 640.4l56.8-29.9v75.6z"/><path class="q" d="m417.7 648.3l-56.9-37.8v75.6z"/><path class="q" d="m417.7 648.3l56.8-37.8v75.6z"/><path class="v" d="m439.1 583.3c0 11.5-9.4 20.8-20.9 20.8-11.5 0-20.8-9.3-20.8-20.8 0-11.5 9.3-20.9 20.8-20.9 11.5 0 20.9 9.4 20.9 20.9z"/><path class="w" d="m439.1 577.7c0 11.5-9.4 20.9-20.9 20.9-11.5 0-20.8-9.4-20.8-20.9 0-11.5 9.3-20.8 20.8-20.8 11.5 0 20.9 9.3 20.9 20.8z"/><path fill-rule="evenodd" class="q" d="m430.5 576.4q0 2.2-0.7 3.9-0.7 1.8-2 2.9-1.2 1-2.9 1-1.1 0-2-0.6-0.8-0.5-1.2-1.4h-0.2q-1.6 2-4.1 2-2.7 0-4.2-1.6-1.5-1.6-1.5-4.4 0-3.1 2-5.1 2-1.9 5.2-1.9 1.3 0 2.8 0.2 1.6 0.3 2.6 0.6l-0.4 7.4q0 2 1.2 2 0.9 0 1.5-1.4 0.6-1.4 0.6-3.6 0-2.4-1-4.3-1-1.8-2.8-2.8-1.9-1-4.2-1-3 0-5.3 1.3-2.2 1.2-3.4 3.6-1.2 2.3-1.2 5.4 0 4.1 2.2 6.3 2.3 2.2 6.4 2.2 1.6 0 3.5-0.3 1.9-0.4 3.8-1.1v2.9q-3.2 1.4-7.1 1.4-5.7 0-8.9-3-3.2-3-3.2-8.3 0-3.7 1.6-6.8 1.7-3 4.7-4.7 3-1.7 6.9-1.7 3.3 0 5.8 1.3 2.6 1.4 4 3.9 1.5 2.5 1.5 5.7zm-15.4 1.9q0 3.1 2.6 3.1 1.4 0 2.1-0.9 0.7-1 0.8-3.1l0.2-3.3q-0.8-0.2-1.7-0.2-1.9 0-2.9 1.2-1.1 1.2-1.1 3.2z"/><path class="v" d="m417.7 625.4l-56.9 60.7h113.7z"/><path class="q" d="m417.7 629.2l-56.9 56.9h113.7z"/><path class="w" d="m460.9 467.2h-42.1c-9.3 0-16.8-7.5-16.8-16.8v-42c0-9.3 7.5-16.9 16.8-16.9h42.1c9.3 0 16.8 7.6 16.8 16.9v42c0 9.3-7.5 16.8-16.8 16.8z"/><path class="q" d="m460.3 429.4l-31.6-18.3v36.5z"/><path class="a" d="m237.9 557.3v121.5h-13.4v-121.5z"/><path class="b" d="m224.5 672.1h13.4"/><path class="b" d="m224.5 662.6h13.4"/><path class="b" d="m224.5 653.2h13.4"/><path class="b" d="m224.5 643.7h13.4"/><path class="b" d="m224.5 634.3h13.4"/><path class="b" d="m224.5 624.8h13.4"/><path class="b" d="m224.5 615.4h13.4"/><path class="b" d="m224.5 605.9h13.4"/><path class="b" d="m224.5 596.5h13.4"/><path class="b" d="m224.5 587h13.4"/><path class="b" d="m224.5 577.6h13.4"/><path class="b" d="m224.5 568.1h13.4"/><path class="b" d="m224.5 558.7h13.4"/><path class="c" d="m244.9 672.4c0 7.5-6.1 13.7-13.7 13.7-7.5 0-13.7-6.2-13.7-13.7 0-7.6 6.2-13.7 13.7-13.7 7.6 0 13.7 6.1 13.7 13.7z"/><path class="d" d="m237.9 672.4c0 3.7-3 6.7-6.7 6.7-3.7 0-6.7-3-6.7-6.7 0-3.7 3-6.7 6.7-6.7 3.7 0 6.7 3 6.7 6.7z"/><path class="a" d="m343.8 569.7h-114.2v-13.4h114.6z"/><path class="b" d="m236.3 556.3v13.4"/><path class="b" d="m245.8 556.3v13.4"/><path class="b" d="m255.2 556.3v13.4"/><path class="b" d="m264.7 556.3v13.4"/><path class="b" d="m274.1 556.3v13.4"/><path class="b" d="m283.6 556.3v13.4"/><path class="b" d="m293.1 556.3v13.4"/><path class="b" d="m302.5 556.3v13.4"/><path class="b" d="m312 556.3v13.4"/><path class="b" d="m321.4 556.3v13.4"/><path class="b" d="m330.9 556.3v13.4"/><path class="b" d="m340.3 556.3v13.4"/><path class="c" d="m244.9 563c0 7.5-6.1 13.7-13.7 13.7-7.5 0-13.7-6.2-13.7-13.7 0-7.6 6.2-13.7 13.7-13.7 7.6 0 13.7 6.1 13.7 13.7z"/><path class="d" d="m237.9 563c0 3.7-3 6.7-6.7 6.7-3.7 0-6.7-3-6.7-6.7 0-3.7 3-6.7 6.7-6.7 3.7 0 6.7 3 6.7 6.7z"/><path class="g" d="m372.7 540.9h-16.2c-12.2 0-22 9.9-22 22.1 0 12.1 9.8 22 22 22h16.2v-12.9h-16.2c-5 0-9.1-4.1-9.1-9.1 0-5.1 4.1-9.2 9.1-9.2h16.2z"/><path class="h" d="m357.1 581.2h15.6v3.8h-16.2c-11.9 0-21.5-9.4-22-21.1 2.3 9.9 11.5 17.3 22.6 17.3z"/><path class="h" d="m347.7 560.7c-0.1-0.5-0.2-1-0.2-1.5 0-5 4.3-9.1 9.6-9.1h15.6v3.7h-16.2c-4.2 0-7.8 3-8.8 6.9z"/><path class="a" d="m743.9 779.2l44.6-44.5 9.5 9.5-44.6 44.5z"/><path class="b" d="m793.2 748.9l-9.5-9.5"/><path class="b" d="m786.5 755.6l-9.5-9.5"/><path class="b" d="m779.9 762.3l-9.5-9.5"/><path class="b" d="m773.2 768.9l-9.5-9.4"/><path class="b" d="m766.5 775.6l-9.5-9.5"/><path class="b" d="m759.8 782.3l-9.5-9.5"/><path class="b" d="m753.1 789l-9.5-9.5"/><path class="c" d="m780.5 738.6c0-7.5 6.1-13.7 13.7-13.7 7.5 0 13.6 6.2 13.6 13.7 0 7.6-6.1 13.7-13.6 13.7-7.6 0-13.7-6.1-13.7-13.7z"/><path class="d" d="m787.4 738.6c0-3.7 3.1-6.7 6.8-6.7 3.7 0 6.7 3 6.7 6.7 0 3.7-3 6.7-6.7 6.7-3.7 0-6.8-3-6.8-6.7z"/><path class="q" d="m708.5 793l11.4-11.5c8.6-8.6 22.6-8.6 31.2 0 8.6 8.6 8.6 22.6 0 31.2l-11.4 11.5-9.2-9.2 11.5-11.4c3.5-3.6 3.5-9.4 0-13-3.6-3.5-9.4-3.5-13 0l-11.4 11.5z"/><path class="h" d="m748 810.5l-11 11 2.7 2.7 11.4-11.5c8.4-8.4 8.6-21.9 0.6-30.5 5.4 8.6 4.1 20.4-3.7 28.3z"/><path class="h" d="m740.1 789.3c-0.3-0.4-0.5-0.8-0.9-1.2-3.6-3.6-9.5-3.4-13.3 0.3l-11 11 2.7 2.7 11.4-11.4c3-3.1 7.6-3.5 11.1-1.4z"/><path class="x" d="m701.5 749.4l-11.8 11.8 41 40.9c3.3 3.3 8.5 3.3 11.8 0 3.2-3.2 3.2-8.5 0-11.7z"/><path class="x" d="m712.9 731c0 23-18.6 41.6-41.5 41.6-23 0-41.6-18.6-41.6-41.6 0-23 18.6-41.6 41.6-41.6 22.9 0 41.5 18.6 41.5 41.6z"/><path class="f" d="m700.7 731c0 16.2-13.2 29.3-29.3 29.3-16.2 0-29.3-13.1-29.3-29.3 0-16.2 13.1-29.3 29.3-29.3 16.1 0 29.3 13.1 29.3 29.3z"/><path class="q" d="m679.9 712.1c-1.2-0.5-2.6 0-3.1 1.2-0.5 1.2 0 2.6 1.2 3.1 5.7 2.6 9.4 8.3 9.4 14.6 0 1.3 1 2.4 2.3 2.4 1.4 0 2.4-1.1 2.4-2.4 0-8.1-4.8-15.5-12.2-18.9z"/><path class="q" d="m672.6 710.3q-0.6-0.1-1.2-0.1c-1.4 0-2.4 1.1-2.4 2.4 0 1.3 1 2.4 2.4 2.4q0.4 0 0.9 0 0.1 0 0.1 0c1.3 0 2.3-1 2.4-2.2 0.1-1.3-0.9-2.4-2.2-2.5z"/><path class="q" d="m160.9 603.9c0 3.4-2.8 6.2-6.2 6.2-3.5 0-6.2-2.8-6.2-6.2 0-3.4 2.7-6.2 6.2-6.2 3.4 0 6.2 2.8 6.2 6.2z"/><path fill-rule="evenodd" class="q" d="m174.1 609q-0.7 2.7-2.1 5.1l5.8 3.8c-2.3 3.7-5.4 6.9-9.1 9.1l-3.9-5.8q-2.3 1.4-5.1 2.2l1.4 6.8q-3.1 0.7-6.4 0.8-3.4-0.1-6.5-0.8l1.4-6.8q-2.7-0.8-5.1-2.2l-3.9 5.8c-3.7-2.2-6.8-5.4-9.1-9.1l5.8-3.8q-1.4-2.4-2.1-5.1l-6.8 1.3q-0.8-3.1-0.8-6.4 0-3.3 0.8-6.4l6.8 1.3q0.7-2.7 2.1-5.1l-5.8-3.9c2.3-3.7 5.4-6.8 9.1-9l3.9 5.7q2.4-1.4 5.1-2.1l-1.4-6.8q3.1-0.8 6.5-0.8 3.3 0 6.4 0.8l-1.4 6.8q2.8 0.7 5.1 2.1l3.9-5.7c3.7 2.2 6.8 5.3 9.1 9l-5.8 3.9q1.4 2.4 2.1 5.1l6.9-1.3q0.7 3.1 0.7 6.4 0 3.3-0.7 6.4zm-6.3-5.1c0-7.3-5.9-13.2-13.2-13.2-7.3 0-13.3 5.9-13.3 13.2 0 7.3 6 13.3 13.3 13.3 7.3 0 13.2-6 13.2-13.3z"/><path class="q" d="m816.1 394.2h-86.1v-60.1h86.1z"/><path class="n" d="m806.6 387.6h-67.1v-46.9h67.1z"/><path class="f" d="m787.2 364.2l-19.4 23.4h38.8z"/><path class="o" d="m765.1 356.8l-25.6 30.8h51.2z"/><path class="c" d="m793.2 354c0 3.3-2.7 6-6 6-3.2 0-5.9-2.7-5.9-6 0-3.2 2.7-5.9 5.9-5.9 3.3 0 6 2.7 6 5.9z"/><path class="q" d="m905.7 444.8c0 13.8-11.2 25-25 25-13.7 0-24.9-11.2-24.9-25 0-13.8 11.2-25 24.9-25 13.8 0 25 11.2 25 25z"/><path class="r" d="m876.9 454c0 2.2-1.8 4-4 4-2.2 0-4-1.8-4-4 0-2.2 1.8-4 4-4 2.2 0 4 1.8 4 4z"/><path class="r" d="m895.4 457.8h-4c0-12.2-10-22.2-22.3-22.2v-4.1c14.5 0 26.3 11.8 26.3 26.3z"/><path class="r" d="m886.5 457.8h-4.1c0-7.3-5.9-13.3-13.3-13.3v-4.1c9.6 0 17.4 7.9 17.4 17.4z"/><path class="y" d="m806.6 442.7v13.5"/><path class="y" d="m876.9 465.2v13.5"/><path class="y" d="m886.5 496.6v13.6"/><path class="y" d="m801.9 390.2v13.5"/><path class="y" d="m793.2 430.5v13.5"/><path class="y" d="m866.1 388.9v13.5"/><path class="y" d="m821.3 475v13.6"/><path class="y" d="m831.2 439.9v13.5"/><path class="y" d="m831.2 381.8v13.5"/><path class="y" d="m866.1 487.2v13.5"/><path class="y" d="m845.2 413v13.6"/><path class="y" d="m845.2 500.8v13.5"/><path class="z" d="m811 497v13.5"/><path class="z" d="m880.7 398.1v13.5"/><path class="z" d="m821.3 430.5v13.5"/><path class="z" d="m798.7 465.2v13.5"/><path class="z" d="m843.2 369.2v13.5"/><path class="z" d="m790.7 404.8v13.5"/><path class="z" d="m853.9 475v13.6"/><path class="z" d="m877.8 484.5v13.5"/><path class="y" d="m787.2 487.2v13.5"/><path class="A" d="m386.4 290v13.8"/><path class="A" d="m393.2 296.9h-13.7"/><path class="A" d="m602.4 364.2v13.7"/><path class="A" d="m609.3 371.1h-13.7"/><path class="A" d="m906.5 588.5v13.7"/><path class="A" d="m913.3 595.4h-13.7"/><path class="A" d="m93.5 473.6v13.8"/><path class="A" d="m100.4 480.5h-13.7"/><path class="A" d="m343.8 870.6v13.8"/><path class="A" d="m350.7 877.5h-13.8"/><path class="A" d="m264.7 630.1v13.7"/><path class="A" d="m271.6 637h-13.8"/><path class="A" d="m734.2 719.2v13.8"/><path class="A" d="m741.1 726.1h-13.8"/><path class="A" d="m560.3 418.3c0 2.6-2.1 4.7-4.7 4.7-2.5 0-4.6-2.1-4.6-4.7 0-2.6 2.1-4.7 4.6-4.7 2.6 0 4.7 2.1 4.7 4.7z"/><path class="A" d="m460.6 362.2c0 2.6-2.1 4.7-4.7 4.7-2.6 0-4.7-2.1-4.7-4.7 0-2.5 2.1-4.6 4.7-4.6 2.6 0 4.7 2.1 4.7 4.6z"/><path class="A" d="m212.3 525.6c0 2.6-2.1 4.7-4.7 4.7-2.6 0-4.7-2.1-4.7-4.7 0-2.5 2.1-4.6 4.7-4.6 2.6 0 4.7 2.1 4.7 4.6z"/><path class="A" d="m678.3 842.2c0 2.6-2.1 4.7-4.7 4.7-2.6 0-4.7-2.1-4.7-4.7 0-2.6 2.1-4.7 4.7-4.7 2.6 0 4.7 2.1 4.7 4.7z"/><path class="A" d="m763 585c0 2.5-2.1 4.6-4.7 4.6-2.6 0-4.7-2.1-4.7-4.6 0-2.6 2.1-4.7 4.7-4.7 2.6 0 4.7 2.1 4.7 4.7z"/><path class="A" d="m162.9 776.3c0 2.6-2.1 4.7-4.7 4.7-2.6 0-4.7-2.1-4.7-4.7 0-2.6 2.1-4.7 4.7-4.7 2.6 0 4.7 2.1 4.7 4.7z"/><path class="A" d="m489.9 846.9c0 2.6-2.1 4.6-4.7 4.6-2.6 0-4.7-2-4.7-4.6 0-2.6 2.1-4.7 4.7-4.7 2.6 0 4.7 2.1 4.7 4.7z"/></svg>