<svg width="25" height="26" viewBox="0 0 25 26" fill="none" xmlns="http://www.w3.org/2000/svg">
<g clip-path="url(#clip0_6899_3773)">
<path d="M25 12.7395C25 5.83594 19.4036 0.239502 12.5 0.239502C5.59644 0.239502 0 5.83594 0 12.7395C0 19.6431 5.59644 25.2395 12.5 25.2395C19.4036 25.2395 25 19.6431 25 12.7395Z" fill="#168B9A"/>
<mask id="mask0_6899_3773" style="mask-type:luminance" maskUnits="userSpaceOnUse" x="0" y="0" width="25" height="26">
<path d="M25 0.239502H0V25.2395H25V0.239502Z" fill="white"/>
</mask>
<g mask="url(#mask0_6899_3773)">
<mask id="mask1_6899_3773" style="mask-type:luminance" maskUnits="userSpaceOnUse" x="0" y="0" width="25" height="26">
<path d="M24.9918 0.239502H0V25.2395H24.9918V0.239502Z" fill="white"/>
</mask>
<g mask="url(#mask1_6899_3773)">
<path d="M11.7689 0.239502H13.2336C13.6517 0.29187 14.0722 0.329494 14.4879 0.403137C17.6305 0.918576 20.459 2.61104 22.3987 5.13667C24.3385 7.6623 25.244 10.8317 24.9312 14.0008C24.7056 16.6005 23.6334 19.0544 21.8791 20.9862C20.7761 22.2659 19.42 23.3034 17.8963 24.0333C16.3726 24.7632 14.7142 25.1697 13.0257 25.2273C10.6036 25.3638 8.19769 24.7558 6.13113 23.4852C4.57267 22.5754 3.23316 21.3343 2.20734 19.8496C1.18151 18.365 0.494456 16.6731 0.194749 14.8936C0.107196 14.4247 0.0638236 13.9477 0 13.4747V12.0068C0.019638 11.8308 0.0400926 11.6558 0.0597306 11.4798C0.342117 8.77117 1.49874 6.22808 3.35471 4.23511C5.21067 2.24215 7.66505 0.907677 10.3467 0.433427C10.8181 0.350784 11.2951 0.30578 11.7689 0.239502ZM10.5579 14.7987C10.5055 14.7536 10.4621 14.7168 10.4204 14.6816C9.80231 14.1159 9.18431 13.55 8.56623 12.9838C8.0753 12.5403 7.60891 12.0747 7.09341 11.6639C6.92497 11.5306 6.72378 11.4451 6.51092 11.4162C6.29806 11.3873 6.08135 11.4163 5.8835 11.4999C5.68565 11.5836 5.51395 11.7189 5.38635 11.8917C5.25876 12.0645 5.17996 12.2684 5.15824 12.4822C5.13331 12.7013 5.16453 12.9233 5.24898 13.1272C5.33343 13.331 5.46834 13.51 5.64101 13.6473C6.98402 14.8671 8.32569 16.0884 9.66598 17.3115C9.78615 17.4519 9.93598 17.5641 10.1046 17.6398C10.2731 17.7157 10.4564 17.7533 10.6412 17.75C10.8261 17.7468 11.0079 17.7026 11.1737 17.6208C11.3395 17.5391 11.4852 17.4218 11.6003 17.2771C14.1881 14.7094 16.7752 12.1415 19.3614 9.57325C19.431 9.5045 19.4989 9.43417 19.5611 9.35975C19.6793 9.21925 19.7651 9.05442 19.8122 8.877C19.8594 8.69958 19.8669 8.51391 19.8341 8.33326C19.8015 8.15261 19.7293 7.98139 19.6228 7.83181C19.5164 7.68224 19.3782 7.55799 19.2182 7.46791C18.9586 7.31742 18.6537 7.26424 18.3584 7.31791C18.0631 7.37159 17.7965 7.52859 17.6063 7.76084C15.3212 10.0443 13.0369 12.3283 10.7535 14.6128C10.6937 14.6718 10.6291 14.7308 10.5579 14.7987Z" fill="#168B9A"/>
<path d="M10.554 14.7988C10.6251 14.7309 10.6906 14.6719 10.752 14.6098C13.0365 12.3258 15.3208 10.0417 17.6048 7.75774C17.795 7.52549 18.0616 7.36847 18.357 7.31481C18.6523 7.26113 18.957 7.31432 19.2168 7.46481C19.3768 7.55489 19.5149 7.67914 19.6214 7.82871C19.7278 7.97828 19.8 8.1495 19.8327 8.33015C19.8655 8.5108 19.858 8.69642 19.8108 8.87383C19.7635 9.05125 19.6778 9.21608 19.5596 9.35658C19.4975 9.43192 19.4287 9.50142 19.36 9.57017C16.7732 12.1384 14.1862 14.7063 11.5989 17.274C11.4837 17.4186 11.338 17.536 11.1722 17.6178C11.0065 17.6995 10.8246 17.7436 10.6398 17.7469C10.455 17.7502 10.2717 17.7126 10.1031 17.6368C9.93445 17.5609 9.7847 17.4488 9.66454 17.3083C8.32368 16.0864 6.98204 14.8648 5.63956 13.6434C5.46689 13.5061 5.33199 13.3271 5.24754 13.1233C5.16309 12.9194 5.13184 12.6974 5.15677 12.4783C5.17849 12.2645 5.25729 12.0606 5.38488 11.8878C5.51248 11.715 5.68418 11.5797 5.88203 11.496C6.07988 11.4123 6.29659 11.3834 6.50945 11.4123C6.72231 11.4412 6.9235 11.5267 7.09195 11.66C7.60581 12.0691 8.07384 12.5363 8.56479 12.9798C9.18395 13.5444 9.80195 14.1103 10.419 14.6777C10.4574 14.7194 10.5016 14.7546 10.554 14.7988Z" fill="white"/>
</g>
</g>
</g>
<defs>
<clipPath id="clip0_6899_3773">
<rect width="25" height="25" fill="white" transform="translate(0 0.239502)"/>
</clipPath>
</defs>
</svg>
