<?xml version="1.0" encoding="UTF-8"?> <svg xmlns="http://www.w3.org/2000/svg" xmlns:xlink="http://www.w3.org/1999/xlink" width="74px" height="59px" viewBox="0 0 74 59" version="1.1"><title>offer-icon-1</title><g id="HI-LP:-Omnichannel-Communications-:-Wireframe" stroke="none" stroke-width="1" fill="none" fill-rule="evenodd"><g id="offer-icon-1" transform="translate(0.000000, 2.000000)" fill-rule="nonzero"><circle id="Oval-Copy-5" fill="#A3EDC1" cx="12.5" cy="28.5" r="12.5"></circle><g id="Group-56" transform="translate(8.037498, 0.000000)" stroke="#001447" stroke-width="3"><circle id="Oval" cx="9.9625025" cy="14" r="5.5"></circle><circle id="Oval-Copy-4" cx="54.9625025" cy="14" r="5.5"></circle><circle id="Oval-Copy-3" cx="32.4625025" cy="10" r="10"></circle><path d="M17.7036053,50.605274 L0,50.605274 L0,36.7017435 C-2.37505183e-15,31.8130279 3.96308703,27.8499409 8.85180264,27.8499409 C13.7405182,27.8499409 17.7036053,31.8130279 17.7036053,36.7017435 L17.7036053,50.605274 L17.7036053,50.605274 Z" id="Path-14"></path><path d="M64,50.605274 L48,50.605274 L48,35.8499409 C48,31.4316629 51.581722,27.8499409 56,27.8499409 C60.418278,27.8499409 64,31.4316629 64,35.8499409 L64,50.605274 L64,50.605274 Z" id="Path-14-Copy-2"></path><path d="M48,54.8499409 L18,54.8499409 L18,41.8499409 C18,33.5656697 24.7157288,26.8499409 33,26.8499409 C41.2842712,26.8499409 48,33.5656697 48,41.8499409 L48,54.8499409 L48,54.8499409 Z" id="Path-14-Copy"></path></g></g></g></svg> 