<?xml version="1.0" encoding="utf-8"?>
<!-- Generator: Adobe Illustrator 27.5.0, SVG Export Plug-In . SVG Version: 6.00 Build 0)  -->
<svg version="1.1" xmlns="http://www.w3.org/2000/svg" xmlns:xlink="http://www.w3.org/1999/xlink" x="0px" y="0px"
	 viewBox="0 0 500 500" style="enable-background:new 0 0 500 500;" xml:space="preserve">
<g id="Background_complete">
	<path style="fill:#E0E0E0;" d="M240.4,181.011c3.475-4.133,16.664-6.899,23.946-0.37c0,0-2.509-3.876,0-7.188
		c0,0-3.312,2.151-6.272,0c-2.96-2.151-3.669-12.901-3.669-12.901s-0.696,10.919-5.563,11.917c-4.867,0.997-7.984-5.927-7.984-5.927
		s2.647,7.595,1.323,8.781c-1.323,1.185-3.97,0-3.97,0L240.4,181.011z"/>
	<path style="fill:#E0E0E0;" d="M230.83,191.542c0,0-4.792,9.301,0,17.618c-2.009-1.284-4.502-1.557-6.742-0.74
		c0,0,1.882-1.988,1.612-4.096c-0.27-2.107-8.931-5.086-8.931-5.086s6.824,0.627,8.31-1.737c1.486-2.365-3.763-6.943-3.763-6.943
		s5.739,3.098,6.981,2.107c1.242-0.991,0-4.096,0-4.096L230.83,191.542z"/>
	<path style="fill:#E0E0E0;" d="M273.699,210.275c0,0,4.842-6.711,0.991-16.903l3.324-1.994c0,0-1.254,2.126-0.496,3.475
		c0.759,1.348,7.815,0.414,7.815,0.414s-5.582,1.123-5.826,4.07c-0.245,2.948,6.943,7.257,6.943,7.257s-6.573-1.643-7.934,0
		c-1.361,1.643,1.549,4.829,1.549,4.829S276.804,209.083,273.699,210.275z"/>
	<path style="fill:#E0E0E0;" d="M82.011,143.887c-2.626,3.999-4.392,8.392-5.333,12.923l-7.216,0.68l-0.001,13.975l7.217,0.68
		c0.94,4.53,2.707,8.923,5.333,12.923l-4.609,5.567l9.882,9.882l5.567-4.609c4,2.626,8.392,4.392,12.923,5.332l0.679,7.217
		l13.975-0.001l0.68-7.216c4.531-0.941,8.924-2.707,12.923-5.333l5.567,4.609l9.883-9.882l-4.609-5.567
		c2.625-4,4.392-8.392,5.332-12.923l7.216-0.68l0.001-13.975l-7.216-0.68c-0.941-4.53-2.708-8.922-5.334-12.922l4.609-5.568
		l-9.882-9.882l-5.567,4.609c-4-2.626-8.393-4.393-12.923-5.334l-0.68-7.217l-13.976,0.001l-0.679,7.216
		c-4.53,0.941-8.923,2.706-12.922,5.333l-5.568-4.609l-9.882,9.883L82.011,143.887z M126.819,151.099
		c7.387,7.388,7.388,19.368,0,26.756c-7.389,7.389-19.368,7.388-26.756,0.001c-7.388-7.389-7.388-19.367,0-26.756
		C107.452,143.711,119.43,143.711,126.819,151.099z"/>
	<path style="fill:#F0F0F0;" d="M168.382,76.42c-1.43,2.178-2.392,4.57-2.904,7.038l-3.93,0.37l0,7.611l3.931,0.37
		c0.512,2.467,1.474,4.859,2.904,7.038l-2.51,3.032l5.382,5.382l3.032-2.51c2.178,1.43,4.57,2.392,7.038,2.904l0.37,3.931l7.611,0
		l0.37-3.93c2.467-0.513,4.86-1.474,7.038-2.904l3.032,2.51l5.382-5.382l-2.51-3.032c1.43-2.178,2.392-4.571,2.904-7.038l3.93-0.37
		l0.001-7.611l-3.93-0.37c-0.512-2.467-1.475-4.859-2.905-7.037l2.51-3.032l-5.382-5.382l-3.032,2.51
		c-2.179-1.43-4.571-2.393-7.038-2.905l-0.37-3.93l-7.611,0l-0.37,3.93c-2.467,0.512-4.859,1.474-7.038,2.904l-3.032-2.51
		l-5.382,5.382L168.382,76.42z M192.785,80.348c4.023,4.024,4.024,10.548,0,14.571c-4.024,4.024-10.548,4.024-14.572,0
		c-4.024-4.024-4.024-10.548,0-14.572C182.238,76.325,188.761,76.325,192.785,80.348z"/>
	<path style="fill:#E0E0E0;" d="M308.004,220.715c-1.005,1.531-1.681,3.212-2.042,4.947l-2.763,0.26l0,5.35l2.763,0.26
		c0.36,1.734,1.036,3.416,2.042,4.947l-1.764,2.131l3.783,3.783l2.131-1.764c1.531,1.005,3.213,1.682,4.947,2.041l0.26,2.763l5.35,0
		l0.26-2.762c1.734-0.36,3.416-1.036,4.947-2.042l2.131,1.764l3.783-3.783l-1.764-2.131c1.005-1.531,1.681-3.213,2.041-4.947
		l2.762-0.26l0-5.35l-2.762-0.26c-0.36-1.734-1.037-3.416-2.042-4.946l1.764-2.131l-3.783-3.783l-2.131,1.764
		c-1.531-1.005-3.213-1.682-4.947-2.042l-0.26-2.763l-5.35,0l-0.26,2.762c-1.734,0.36-3.416,1.036-4.947,2.041l-2.131-1.764
		l-3.783,3.783L308.004,220.715z M325.156,223.476c2.828,2.828,2.828,7.414,0,10.242c-2.828,2.828-7.414,2.828-10.242,0
		c-2.828-2.828-2.828-7.414,0-10.242C317.743,220.648,322.328,220.648,325.156,223.476z"/>
	<path style="fill:#E0E0E0;" d="M293.285,265.257c-1.43,2.178-2.392,4.57-2.905,7.038l-3.93,0.37l0,7.611l3.931,0.37
		c0.512,2.467,1.474,4.859,2.904,7.038l-2.51,3.032l5.382,5.382l3.032-2.51c2.178,1.43,4.57,2.392,7.038,2.904l0.37,3.931l7.611,0
		l0.37-3.93c2.467-0.512,4.86-1.474,7.038-2.905l3.032,2.51l5.382-5.382l-2.51-3.032c1.43-2.178,2.392-4.57,2.904-7.038l3.93-0.37
		l0.001-7.611l-3.93-0.371c-0.512-2.467-1.475-4.859-2.905-7.037l2.51-3.032l-5.382-5.382l-3.032,2.51
		c-2.179-1.43-4.571-2.393-7.038-2.905l-0.37-3.93l-7.611,0l-0.37,3.93c-2.467,0.512-4.859,1.474-7.038,2.904l-3.032-2.51
		l-5.382,5.382L293.285,265.257z M317.688,269.185c4.023,4.024,4.023,10.548,0,14.572c-4.024,4.024-10.548,4.024-14.572,0
		c-4.024-4.024-4.024-10.547,0-14.572C307.14,265.161,313.664,265.161,317.688,269.185z"/>
	<path style="fill:#F0F0F0;" d="M349.839,250.327c-2.02,3.076-3.379,6.456-4.103,9.941l-5.552,0.523l0,10.751l5.552,0.523
		c0.723,3.485,2.082,6.864,4.103,9.942l-3.546,4.283l7.603,7.602l4.283-3.546c3.077,2.02,6.456,3.379,9.941,4.102l0.523,5.552
		L379.393,300l0.523-5.551c3.486-0.724,6.865-2.083,9.942-4.103l4.283,3.546l7.603-7.602l-3.546-4.283
		c2.02-3.077,3.379-6.456,4.102-9.941l5.551-0.523l0.001-10.751l-5.551-0.523c-0.724-3.485-2.083-6.864-4.103-9.941l3.546-4.283
		l-7.602-7.602l-4.283,3.546c-3.077-2.02-6.457-3.38-9.941-4.103l-0.523-5.552l-10.751,0.001l-0.523,5.552
		c-3.485,0.724-6.864,2.082-9.941,4.102l-4.283-3.546l-7.603,7.603L349.839,250.327z M384.309,255.876
		c5.683,5.684,5.683,14.899,0,20.583c-5.684,5.684-14.9,5.684-20.583,0c-5.684-5.684-5.684-14.899,0-20.583
		C369.41,250.192,378.625,250.192,384.309,255.876z"/>
	<path style="fill:#F0F0F0;" d="M295.662,86.059c-1.675,2.55-2.801,5.351-3.401,8.24l-4.602,0.433l0,8.911l4.602,0.434
		c0.599,2.889,1.726,5.69,3.401,8.24l-2.939,3.55l6.301,6.301l3.55-2.939c2.55,1.674,5.351,2.801,8.24,3.4l0.433,4.602l8.911-0.001
		l0.434-4.601c2.889-0.6,5.69-1.726,8.241-3.401l3.55,2.939l6.302-6.301l-2.939-3.55c1.674-2.55,2.801-5.351,3.4-8.24l4.601-0.434
		l0.001-8.911l-4.601-0.434c-0.6-2.888-1.727-5.689-3.401-8.24l2.939-3.55l-6.301-6.301l-3.55,2.939
		c-2.551-1.674-5.352-2.801-8.24-3.401l-0.433-4.602l-8.912,0l-0.433,4.602c-2.889,0.6-5.69,1.726-8.24,3.401l-3.55-2.939
		l-6.301,6.302L295.662,86.059z M324.234,90.658c4.711,4.711,4.711,12.35,0,17.061c-4.712,4.711-12.35,4.711-17.061,0
		c-4.711-4.711-4.711-12.35,0-17.061C311.884,85.947,319.522,85.947,324.234,90.658z"/>
	<path style="fill:#F0F0F0;" d="M68.054,278.227c-1.581,2.407-2.644,5.051-3.21,7.778l-4.343,0.409l0,8.411l4.344,0.409
		c0.566,2.727,1.629,5.37,3.21,7.778l-2.774,3.351l5.948,5.948l3.351-2.774c2.407,1.58,5.051,2.644,7.778,3.209l0.409,4.344
		l8.411-0.001l0.409-4.343c2.727-0.566,5.371-1.629,7.778-3.21l3.351,2.774l5.948-5.948l-2.774-3.351
		c1.58-2.407,2.643-5.051,3.209-7.778l4.343-0.409l0.001-8.411l-4.343-0.409c-0.566-2.726-1.63-5.37-3.21-7.777l2.774-3.351
		l-5.948-5.948l-3.351,2.774c-2.408-1.58-5.051-2.644-7.778-3.21l-0.409-4.344l-8.411,0l-0.409,4.343
		c-2.727,0.566-5.37,1.629-7.777,3.21l-3.351-2.774l-5.948,5.948L68.054,278.227z M95.023,282.568
		c4.446,4.447,4.447,11.657,0,16.103c-4.447,4.447-11.657,4.447-16.104,0c-4.447-4.447-4.447-11.656,0-16.104
		C83.366,278.121,90.576,278.121,95.023,282.568z"/>
	<g>
		<g>
			<g>
				<g>
					<g>
						<path style="fill:#E0E0E0;" d="M443.92,330.198H263.174c-3.232,0-5.862-2.63-5.862-5.862V61.062
							c0-3.232,2.63-5.862,5.862-5.862H443.92c3.232,0,5.862,2.629,5.862,5.862v263.273
							C449.783,327.568,447.153,330.198,443.92,330.198z M263.174,55.45c-3.095,0-5.612,2.518-5.612,5.612v263.273
							c0,3.095,2.518,5.612,5.612,5.612H443.92c3.095,0,5.612-2.518,5.612-5.612V61.062c0-3.094-2.518-5.612-5.612-5.612H263.174z"
							/>
					</g>
				</g>
				<g>
					<g>
						<path style="fill:#E0E0E0;" d="M235.493,330.198H54.746c-3.232,0-5.862-2.63-5.862-5.862V61.062
							c0-3.232,2.629-5.862,5.862-5.862h180.747c3.232,0,5.862,2.629,5.862,5.862v263.273
							C241.355,327.568,238.725,330.198,235.493,330.198z M54.746,55.45c-3.094,0-5.612,2.518-5.612,5.612v263.273
							c0,3.095,2.518,5.612,5.612,5.612h180.747c3.095,0,5.612-2.518,5.612-5.612V61.062c0-3.094-2.518-5.612-5.612-5.612H54.746z"
							/>
					</g>
				</g>
			</g>
			<g>
				<g>
					<rect x="0" y="391.267" style="fill:#E0E0E0;" width="500" height="0.25"/>
				</g>
			</g>
		</g>
		<rect x="51.672" y="405.531" style="fill:#E0E0E0;" width="16.06" height="0.25"/>
		<rect x="170.352" y="402.821" style="fill:#E0E0E0;" width="53.53" height="0.25"/>
		<rect x="68.732" y="414.821" style="fill:#E0E0E0;" width="36.25" height="0.25"/>
		<rect x="378.352" y="402.691" style="fill:#E0E0E0;" width="43.19" height="0.25"/>
		<rect x="430.452" y="402.691" style="fill:#E0E0E0;" width="6.33" height="0.25"/>
		<rect x="316.212" y="408.921" style="fill:#E0E0E0;" width="53.89" height="0.25"/>
	</g>
</g>
<g id="Background_simple" style="display:none;">
	<g style="display:inline;">
		<path style="fill:#407BFF;" d="M438.372,136.453c-5.233-14.282-15.775-27.857-31.97-39.653
			c-19.088-13.903-48.546-27.752-86.225-22.006c-69.561,10.609-69.443,49.585-116.687,43.489
			c-53.514-6.905-115.706,1.228-131.649,41.355c-30.281,76.217,165.815,160.042,270.878,130.78
			C408.127,272.202,466.16,212.287,438.372,136.453z"/>
		<path style="opacity:0.9;fill:#FFFFFF;" d="M438.372,136.453c-5.233-14.282-15.775-27.857-31.97-39.653
			c-19.088-13.903-48.546-27.752-86.225-22.006c-69.561,10.609-69.443,49.585-116.687,43.489
			c-53.514-6.905-115.706,1.228-131.649,41.355c-30.281,76.217,165.815,160.042,270.878,130.78
			C408.127,272.202,466.16,212.287,438.372,136.453z"/>
	</g>
</g>
<g id="Shadow">
	<g>
		<g>
			<path style="fill:#F5F5F5;" d="M458.875,444.735c0,3.387-93.517,6.132-208.875,6.132s-208.875-2.746-208.875-6.132
				c0-3.387,93.516-6.132,208.875-6.132S458.875,441.348,458.875,444.735z"/>
		</g>
	</g>
</g>
<g id="Light_Bulb">
	<g id="freepik--light-bulb--inject-2">
		<g>
			<g>
				<path style="fill:#263238;" d="M260.551,232.509c0,2.539-3.531,4.575-7.824,4.507c-4.293-0.069-7.74-2.143-7.71-4.682
					c0.031-2.539,3.531-4.575,7.816-4.499C257.12,227.91,260.581,229.977,260.551,232.509z"/>
				<path style="fill:#263238;" d="M263.906,224.136c0.421-0.4,0.675-0.945,0.709-1.525c0-2.486-5.239-4.575-11.766-4.636
					c-6.527-0.061-11.843,1.883-11.873,4.369c0.026,0.576,0.268,1.12,0.679,1.525c-0.123,0.236-0.194,0.496-0.206,0.763
					c0.016,0.581,0.267,1.131,0.694,1.525c-0.139,0.247-0.214,0.525-0.221,0.808c0.017,0.586,0.277,1.138,0.717,1.525
					c-0.154,0.247-0.239,0.532-0.244,0.824c0.036,0.578,0.313,1.114,0.762,1.479c-0.161,0.248-0.251,0.535-0.259,0.831
					c0,2.067,4.354,3.813,9.784,3.859c5.429,0.046,9.845-1.525,9.868-3.637c-0.001-0.297-0.086-0.588-0.244-0.839
					c0.447-0.36,0.724-0.891,0.762-1.464c-0.003-0.289-0.079-0.572-0.221-0.824c0.442-0.371,0.716-0.904,0.763-1.479
					c-0.002-0.285-0.073-0.564-0.206-0.816c0.441-0.375,0.716-0.91,0.762-1.487C264.141,224.653,264.053,224.379,263.906,224.136z"
					/>
				<path style="opacity:0.3;fill:#FFFFFF;enable-background:new    ;" d="M263.906,224.136c0.421-0.4,0.675-0.945,0.709-1.525
					c0-2.486-5.239-4.575-11.766-4.636c-6.527-0.061-11.843,1.883-11.873,4.369c0.026,0.576,0.268,1.12,0.679,1.525
					c-0.123,0.236-0.194,0.496-0.206,0.763c0.016,0.581,0.267,1.131,0.694,1.525c-0.139,0.247-0.214,0.525-0.221,0.808
					c0.017,0.586,0.277,1.138,0.717,1.525c-0.154,0.247-0.239,0.532-0.244,0.824c0.036,0.578,0.313,1.114,0.762,1.479
					c-0.161,0.248-0.251,0.535-0.259,0.831c0,2.067,4.354,3.813,9.784,3.859c5.429,0.046,9.845-1.525,9.868-3.637
					c-0.001-0.297-0.086-0.588-0.244-0.839c0.447-0.36,0.724-0.891,0.762-1.464c-0.003-0.289-0.079-0.572-0.221-0.824
					c0.442-0.371,0.716-0.904,0.763-1.479c-0.002-0.285-0.073-0.564-0.206-0.816c0.441-0.375,0.716-0.91,0.762-1.487
					C264.141,224.653,264.053,224.379,263.906,224.136z"/>
				<path style="fill:#407BFF;" d="M273.698,202.174c0.136-11.551-9.118-21.026-20.67-21.161
					c-11.551-0.136-21.026,9.118-21.162,20.67c-0.074,6.269,2.668,12.24,7.47,16.269c0.884,0.729,1.347,1.849,1.235,2.989
					c-0.004,0.056-0.004,0.112,0,0.168c0,2.524,5.338,4.636,11.957,4.713c6.619,0.076,12.026-1.914,12.056-4.446
					c0-0.053,0-0.107,0-0.16c-0.103-1.164,0.387-2.302,1.304-3.027C270.755,214.286,273.62,208.411,273.698,202.174z"/>
				<path style="opacity:0.5;fill:#FFFFFF;enable-background:new    ;" d="M273.711,202.174c0.136-11.551-9.118-21.026-20.67-21.161
					c-11.551-0.136-21.026,9.118-21.162,20.67c-0.074,6.269,2.668,12.24,7.47,16.269c0.884,0.729,1.347,1.849,1.235,2.989
					c-0.004,0.056-0.004,0.112,0,0.168c0,2.524,5.338,4.636,11.957,4.713c6.619,0.076,12.026-1.914,12.056-4.446
					c0-0.053,0-0.107,0-0.16c-0.103-1.164,0.387-2.302,1.304-3.027C270.769,214.286,273.634,208.411,273.711,202.174z"/>
				<path style="opacity:0.2;fill:#FFFFFF;enable-background:new    ;" d="M263.426,190.026c0,4.072-4.766,7.382-10.676,7.382
					c-5.91,0-10.676-3.31-10.676-7.382s4.766-7.389,10.676-7.389C258.66,182.637,263.426,185.947,263.426,190.026z"/>
			</g>
			<path style="fill:none;stroke:#FFFFFF;stroke-width:0.5;stroke-linecap:round;stroke-linejoin:round;stroke-miterlimit:10;" d="
				M236.844,209.879c-1.82-3.121-2.544-6.868-2.016-10.442c0.528-3.574,2.303-6.952,4.947-9.415"/>
			<g>
				<path style="fill:#263238;" d="M243.122,230.842c6.06,2.493,12.99,2.576,19.109,0.232
					C256.246,233.727,249.041,233.638,243.122,230.842L243.122,230.842z"/>
			</g>
			<g>
				<path style="fill:#263238;" d="M242.98,228.597c6.06,2.493,12.99,2.576,19.109,0.232
					C256.104,231.482,248.899,231.393,242.98,228.597L242.98,228.597z"/>
			</g>
			<g>
				<path style="fill:#263238;" d="M242.838,226.352c6.06,2.493,12.99,2.576,19.109,0.232
					C255.962,229.237,248.757,229.148,242.838,226.352L242.838,226.352z"/>
			</g>
			<path style="fill:none;stroke:#263238;stroke-width:0.5;stroke-linecap:round;stroke-linejoin:round;stroke-miterlimit:10;" d="
				M248.258,221.389c1.604-5.462,1.886-11.42,0.807-17.047c-0.175-0.909-0.585-2.005-1.401-2.025
				c-0.73-0.018-1.21,0.879-1.367,1.692c-0.557,2.875,0.933,5.795,2.84,7.78c1.032,1.075,2.283,2.012,3.68,2.081
				c1.402,0.069,2.739-0.761,3.754-1.866c1.942-2.114,2.909-5.425,2.206-8.38c-0.297-1.249-1.184-2.591-2.299-2.353
				c-0.672,0.144-1.163,0.854-1.337,1.608c-0.173,0.754-0.088,1.551,0.01,2.322c0.71,5.561,2.068,11.014,4.026,16.171"/>
		</g>
	</g>
</g>
<g id="Speech_Bubble">
	<g>
		<g>
			<path style="fill:#407BFF;" d="M354.494,152.798c0.622,0.125,9.4,10.435,9.4,10.435l7.524-10.917L354.494,152.798z"/>
			<path style="opacity:0.5;fill:#FFFFFF;" d="M354.494,152.798c0.622,0.125,9.4,10.435,9.4,10.435l7.524-10.917L354.494,152.798z"
				/>
		</g>
		<g>
			<g>
				<path style="fill:#407BFF;" d="M410.262,152.917h-89.334c-2.262,0-4.095-1.833-4.095-4.095V99.134
					c0-2.261,1.833-4.095,4.095-4.095h89.334c2.261,0,4.095,1.833,4.095,4.095v49.689
					C414.357,151.084,412.523,152.917,410.262,152.917z"/>
				<path style="opacity:0.5;fill:#FFFFFF;" d="M410.262,152.917h-89.334c-2.262,0-4.095-1.833-4.095-4.095V99.134
					c0-2.261,1.833-4.095,4.095-4.095h89.334c2.261,0,4.095,1.833,4.095,4.095v49.689
					C414.357,151.084,412.523,152.917,410.262,152.917z"/>
			</g>
			<path style="fill:none;stroke:#263238;stroke-width:0.5;stroke-miterlimit:10;" d="M331.496,127.188
				c0.423-0.381,11.838-11.651,11.838-11.651l11.258,5.541l11.004-12.947l11.258,16.222l10.98-7.165"/>
			<rect x="329.744" y="132.261" style="fill:#407BFF;" width="5.278" height="11.694"/>
			<rect x="340.611" y="124.534" style="fill:#407BFF;" width="5.278" height="19.422"/>
			<rect x="351.684" y="126.487" style="fill:#407BFF;" width="5.278" height="17.469"/>
			<rect x="362.956" y="115.536" style="fill:#407BFF;" width="5.278" height="28.42"/>
			<rect x="374.349" y="130.606" style="fill:#407BFF;" width="5.278" height="13.35"/>
			<path style="fill:#407BFF;" d="M335.219,125.863c0,1.566-1.27,2.836-2.836,2.836c-1.566,0-2.836-1.269-2.836-2.836
				s1.27-2.836,2.836-2.836C333.949,123.027,335.219,124.297,335.219,125.863z"/>
			<path style="fill:#407BFF;" d="M346.085,115.536c0,1.566-1.27,2.836-2.836,2.836c-1.566,0-2.836-1.27-2.836-2.836
				c0-1.566,1.27-2.836,2.836-2.836C344.816,112.701,346.085,113.97,346.085,115.536z"/>
			<path style="fill:#407BFF;" d="M357.427,120.192c0,1.566-1.27,2.836-2.836,2.836c-1.566,0-2.836-1.27-2.836-2.836
				c0-1.566,1.27-2.836,2.836-2.836C356.157,117.356,357.427,118.626,357.427,120.192z"/>
			<path style="fill:#407BFF;" d="M368.431,108.13c0,1.566-1.27,2.836-2.836,2.836c-1.566,0-2.836-1.27-2.836-2.836
				c0-1.566,1.27-2.836,2.836-2.836C367.161,105.294,368.431,106.564,368.431,108.13z"/>
			<path style="fill:#407BFF;" d="M379.689,124.352c0,1.566-1.27,2.836-2.836,2.836c-1.566,0-2.836-1.27-2.836-2.836
				c0-1.566,1.27-2.836,2.836-2.836C378.419,121.516,379.689,122.786,379.689,124.352z"/>
			<rect x="385.629" y="123.913" style="fill:#407BFF;" width="5.278" height="20.043"/>
			<rect x="340.611" y="124.534" style="opacity:0.3;" width="5.278" height="19.422"/>
			<rect x="362.956" y="115.536" style="opacity:0.3;" width="5.278" height="28.42"/>
			<rect x="385.629" y="123.913" style="opacity:0.3;" width="5.278" height="20.043"/>
			<rect x="397.305" y="130.606" style="fill:#407BFF;" width="5.278" height="13.35"/>
			
				<line style="fill:none;stroke:#263238;stroke-width:0.5;stroke-miterlimit:10;" x1="387.832" y1="117.187" x2="399.944" y2="123.913"/>
			<path style="fill:#407BFF;" d="M391.3,117.187c0,1.566-1.27,2.836-2.836,2.836c-1.566,0-2.836-1.27-2.836-2.836
				c0-1.566,1.27-2.836,2.836-2.836C390.031,114.352,391.3,115.621,391.3,117.187z"/>
			<path style="fill:#407BFF;" d="M402.78,123.913c0,1.566-1.27,2.836-2.836,2.836c-1.566,0-2.836-1.269-2.836-2.836
				c0-1.566,1.27-2.835,2.836-2.835C401.51,121.077,402.78,122.347,402.78,123.913z"/>
		</g>
	</g>
</g>
<g id="Character_1">
	<g>
		<g>
			<g>
				<g>
					<path style="fill:#407BFF;" d="M333.206,384.62v-46.53c0-2.118,2.442-3.304,4.107-1.995l29.573,23.265
						c1.292,1.016,1.292,2.973,0,3.989l-29.573,23.265C335.648,387.924,333.206,386.738,333.206,384.62z"/>
				</g>
				<g>
					<rect x="198.489" y="347.524" style="fill:#407BFF;" width="139.514" height="27.663"/>
				</g>
			</g>
			<g>
				<path style="fill:#407BFF;" d="M222.944,375.233H92.104l14.937-14.089l-14.937-14.266h130.84
					c56.169,0,101.867-45.697,101.867-101.867c0-56.169-45.697-101.867-101.867-101.867v-28.354
					c71.804,0,130.221,58.417,130.221,130.221C353.165,316.816,294.748,375.233,222.944,375.233z"/>
			</g>
			<g style="opacity:0.4;">
				<path style="fill:#FFFFFF;" d="M222.944,375.233H92.104l14.937-14.089l-14.937-14.266h130.84
					c56.169,0,101.867-45.697,101.867-101.867c0-56.169-45.697-101.867-101.867-101.867v-28.354
					c71.804,0,130.221,58.417,130.221,130.221C353.165,316.816,294.748,375.233,222.944,375.233z"/>
			</g>
			<g>
				<g>
					<path style="fill:#407BFF;" d="M125.872,336.003c-21.979-24.375-34.083-55.889-34.083-88.735
						c0-60.178,40.599-112.894,98.729-128.195l-9.768,12.263l17.115,15.648c-45.463,11.967-77.214,53.205-77.214,100.284
						c0,25.695,9.466,50.344,26.655,69.408L125.872,336.003z"/>
				</g>
				<path style="fill:#407BFF;" d="M128.721,337.655c1.071-0.268,36.402,0,36.402,0l-17.816-20.979l-21.435,19.327L128.721,337.655z
					"/>
			</g>
			<g>
				<path style="fill:#407BFF;" d="M223.497,104.457l2.619,46.456c0.119,2.115-2.252,3.437-3.988,2.223l-30.836-21.563
					c-1.347-0.942-1.457-2.896-0.225-3.983l28.217-24.893C220.872,101.295,223.377,102.342,223.497,104.457z"/>
				<path style="opacity:0.4;fill:#FFFFFF;" d="M223.497,104.457l2.619,46.456c0.119,2.115-2.252,3.437-3.988,2.223l-30.836-21.563
					c-1.347-0.942-1.457-2.896-0.225-3.983l28.217-24.893C220.872,101.295,223.377,102.342,223.497,104.457z"/>
			</g>
		</g>
		<g>
			<g>
				<g>
					<g>
						<path style="fill:#263238;" d="M208.938,203.634c5.448,3.637,7.004,8.865,6.934,12.65c-0.676,5.111-2.448,8.729-3.828,13.697
							l-13.554-29.914C201.656,200.695,203.081,200.045,208.938,203.634z"/>
						<path style="fill:#263238;" d="M202.142,200.991c-5.309-2.469-10.519,0.444-13.556,2.469
							c-3.324,2.82-5.283,6.927-5.383,11.285c0,4.074,0,9.013,2.469,11.136c1.384,1.23,3.221,1.821,5.062,1.63l20.149-18.594
							C208.691,205.576,205.682,202.847,202.142,200.991z"/>
						<g>
							<path style="fill:#B97964;" d="M202.486,256.07c-1.549,1.598-2.964,1.065-5.031,0.219
								c-12.304-4.425-8.663-10.366-8.663-10.366c2.334-2.739,2.436-6.015,1.586-11.008c-0.017-0.146-0.023-0.292-0.019-0.439
								c0.008-0.667,0.222-1.314,0.613-1.854c1.028-1.504,3.081-1.889,4.585-0.861c0.001,0.001,0.003,0.002,0.004,0.003l5.508,1.574
								l0,0c0.015,0.076,0.03,0.151,0.047,0.236c0.015,2.731-0.063,4.852-0.044,6.52c0.04,0.199,0.004,0.412,0.013,0.607l0,0
								c0.04,0.199,0.025,0.418,0.025,0.615c0.132,2.285,3.998,5.64,5.573,6.437C207.638,248.299,207.743,250.681,202.486,256.07z"
								/>
							<path style="opacity:0.2;enable-background:new    ;" d="M201.065,233.319L201.065,233.319
								c0.003,0.084,0.02,0.167,0.049,0.246c0.015,2.731-0.063,4.852-0.044,6.52c-0.011,0.202-0.006,0.405,0.013,0.607l0,0
								c0.012,0.213,0.037,0.424,0.078,0.634l0,0c-4.186-1.138-7.922-3.532-10.706-6.859l0,0c0.005-0.657,0.202-1.297,0.566-1.844
								c1.014-1.513,3.06-1.922,4.577-0.915L201.065,233.319z"/>
							<path style="fill:#B97964;" d="M186.219,215.937c0.211,9.42,0.092,13.397,4.567,18.512
								c6.739,7.682,18.024,5.632,20.621-3.612c2.27-8.322,1.59-22.301-7.29-26.623
								C195.237,199.892,186.016,206.506,186.219,215.937z"/>
							<path style="fill:#B97964;" d="M182.048,224.005c0.953,2.033,2.664,3.404,4.293,3.962c2.449,0.839,4.082-3.075,3.44-5.655
								c-0.578-2.322-2.911-4.024-5.388-3.738C181.953,218.857,180.959,221.68,182.048,224.005z"/>
							
								<path style="opacity:0.2;fill:none;stroke:#000000;stroke-width:0.5;stroke-linecap:round;stroke-linejoin:round;stroke-miterlimit:10;" d="
								M187.38,223.949c0.016-0.901-0.338-1.802-0.962-2.451c-0.625-0.649-1.512-1.037-2.412-1.056"/>
							<g>
								<g>
									<path style="fill:#263238;" d="M198.491,219.992c-0.038,1.004,0.434,1.871,1.055,1.937c0.621,0.065,1.154-0.695,1.193-1.7
										c0.038-1.004-0.434-1.871-1.055-1.937C199.063,218.227,198.53,218.988,198.491,219.992z"/>
									<path style="fill:#263238;" d="M207.817,220.752c-0.035,0.973,0.439,1.815,1.057,1.881
										c0.619,0.065,1.149-0.671,1.184-1.644c0.035-0.973-0.439-1.815-1.057-1.88
										C208.382,219.043,207.852,219.779,207.817,220.752z"/>
									<path style="fill:#263238;" d="M196.813,216.341c0.119,0.024,0.244-0.001,0.345-0.079c1.571-1.225,3.171-0.613,3.189-0.606
										c0.237,0.091,0.495-0.025,0.571-0.269c0.076-0.243-0.056-0.516-0.296-0.612c-0.084-0.032-2.091-0.803-4.04,0.719
										c-0.194,0.152-0.223,0.447-0.064,0.659C196.595,216.255,196.702,216.319,196.813,216.341z"/>
									<path style="fill:#263238;" d="M211.354,216.273c0.098-0.024,0.183-0.088,0.234-0.188c0.104-0.207,0.022-0.488-0.183-0.627
										c-2.058-1.398-3.738-0.61-3.809-0.574c-0.2,0.097-0.268,0.361-0.153,0.591c0.115,0.23,0.37,0.337,0.569,0.241
										c0.065-0.032,1.378-0.621,3.015,0.49C211.133,216.278,211.251,216.299,211.354,216.273z"/>
									<path style="fill:#A24E3F;" d="M205.32,220.077c0,0,1.18,3.664,2.662,6.011c0.259,0.41,0.031,0.958-0.437,1.086
										c-1.204,0.331-2.537-0.173-2.537-0.173L205.32,220.077z"/>
								</g>
								<path style="fill:#263238;" d="M199.325,218.304l2.213-0.329C201.538,217.975,200.214,219.492,199.325,218.304z"/>
								<path style="fill:#263238;" d="M208.776,219.112l2.213-0.329C210.989,218.783,209.666,220.3,208.776,219.112z"/>
							</g>
						</g>
						<g>
							<path style="fill:#263238;" d="M204.393,229.587c-0.781,0.876-1.83,2.645-1.83,2.645c-0.178-0.066-0.355-0.132-0.529-0.208
								c-2.383-0.957-3.173-2.189-3.325-3.264c-0.081-0.588,0.036-1.134,0.187-1.557c0.169-0.491,0.402-0.802,0.402-0.802
								c0.96,1.262,3.113,2.326,4.287,2.846C204.075,229.471,204.393,229.587,204.393,229.587z"/>
							<path style="fill:#FFFFFF;" d="M203.585,229.248l-0.56,0.766c-2.243-0.907-3.7-1.847-4.129-2.81
								c0.169-0.491,0.402-0.802,0.402-0.802C200.258,227.664,202.411,228.728,203.585,229.248z"/>
							<path style="fill:#DE5753;" d="M202.034,232.025c-2.383-0.957-3.173-2.189-3.325-3.264c0.799,0.357,1.724,0.878,2.436,1.588
								C201.691,230.889,201.933,231.482,202.034,232.025z"/>
						</g>
						<path style="fill:#263238;" d="M189.481,218.233c0,0,5.382-6.148,5.549-11.408c0,0,19.254-4.272,17.479,12.346
							c0,0,4.162-14.371-11.569-16.717c-15.731-2.346-18.977,18.199-11.847,25.359C189.12,227.74,186.152,222.085,189.481,218.233z"
							/>
						<path style="fill:#263238;" d="M172.699,205.718c0.368,4.286,4.14,7.463,8.426,7.096c4.286-0.367,7.463-4.14,7.096-8.426
							c-0.345-4.029-3.716-7.124-7.76-7.124C175.991,197.473,172.526,201.247,172.699,205.718z"/>
						<path style="fill:#263238;" d="M208.092,204.512c2.07,1.987,3.454,4.582,3.951,7.408c0,2.049-2.79,3.531-2.79,3.531
							l-3.408-4.469v3.926c-5.58-0.612-8.807-3.575-10.717-7.852l3.111-5.556C198.24,201.499,206.24,202.907,208.092,204.512z"/>
						<g>
							<path style="fill:#263238;" d="M181.499,210.209c-0.48,2.223-1.795,4.254-3.626,5.602c0.985,0.082,1.995-0.161,2.835-0.684
								c-0.04,0.803-0.218,1.599-0.525,2.342c2.258-1.88,3.592-4.822,3.515-7.76L181.499,210.209z"/>
						</g>
					</g>
					<g>
						<g>
							<g>
								<path style="fill:#263238;" d="M291.715,412.952l-9.336,0.267c0,0-16.665-32.084-24.668-50.077
									c-9.456-21.261-7.374-28.108-10.21-28.232c-5.236-0.229-58.668,24.338-72.053,10.713
									c-13.385-13.625,5.978-46.461,5.978-46.461s29.825-4.606,32.258,2.67c0.596,2.15,1.895,4.372,2.208,6.581
									c0.36,2.182,1.086,5.406,1.086,5.406l0,0c0.707-0.177,21.147-2.155,33.834-1.865c7.643,0.175,14.451,4.817,17.492,11.831
									C279.772,350.231,291.715,412.952,291.715,412.952z"/>
								<path style="fill:#263238;" d="M197.663,348.905c0,0,2.182,0,35.999-1.527c0,0-4.643,10.965-5.935,33.548
									c-0.532,9.289,0.951,39.379-0.212,52.695c0.589,0.831,6.804,3.584,10.594,0.802c0,0,21.941-79.18,21.723-89.925
									c-0.218-10.745-12.676-13.909-12.676-13.909S223.157,344.498,197.663,348.905z"/>
								<path style="opacity:0.2;enable-background:new    ;" d="M229.119,340.047c4.629-1.866,9.176-3.925,13.631-6.171
									c7.729-3.897,17.233,1.117,17.959,9.743c0.024,0.287,0.04,0.58,0.047,0.879c0.109,4.364-3.786,20.727-9.361,38.52
									c0.144-1.053,0.345-2.099,0.6-3.131c5.531-22.221,8.302-33.763,5.531-39.141c-1.864-3.341-4.823-5.938-8.378-7.353
									L218.93,348.12c-16.647,0.731-19.134,0.764-19.429,0.764C209.653,346.975,219.58,344.013,229.119,340.047z"/>
								<g>
									<g>
										<path style="fill:#407BFF;" d="M239.691,429.929c0.037-0.48-0.375-0.878-0.856-0.878h-2.844
											c-0.718-0.017-1.499,1.264-1.937,1.833c-1.89,2.454-3.242,1.477-5.176-0.92c-1.261-0.178-1.637,1.266-1.75,1.653
											l-2.58,8.57c-0.223,0.716,0.175,1.477,0.891,1.7c0.127,0.04,0.26,0.061,0.393,0.062c3.853,0.093,5.676,0.137,10.471,0.253
											l14.665,0.354c3.998,0.096,4.924-3.912,3.286-4.325c-7.366-1.815-12.557-4.121-14.794-6.33
											C239.148,431.608,239.623,430.809,239.691,429.929z"/>
										
											<path style="fill:none;stroke:#FFFFFF;stroke-width:0.5;stroke-linecap:round;stroke-linejoin:round;stroke-miterlimit:10;" d="
											M240.954,432.816c-1.096,0.123-2.126,0.751-2.736,1.67"/>
										
											<path style="fill:none;stroke:#FFFFFF;stroke-width:0.5;stroke-linecap:round;stroke-linejoin:round;stroke-miterlimit:10;" d="
											M243.013,434.095c-1.097,0.123-2.126,0.751-2.736,1.671"/>
										
											<path style="fill:none;stroke:#FFFFFF;stroke-width:0.5;stroke-linecap:round;stroke-linejoin:round;stroke-miterlimit:10;" d="
											M245.558,435.402c-1.096,0.123-2.126,0.751-2.736,1.67"/>
									</g>
								</g>
								<g>
									<g>
										<path style="fill:#407BFF;" d="M291.262,406.697l-2.986,1.076c-0.675,0.243-1.177,0.81-1.38,1.499
											c-0.874,2.972-2.488,2.549-5.158,1.014c-1.24,0.29-1.068,1.772-1.033,2.174l0.694,8.923
											c0.051,0.748,0.698,1.313,1.446,1.263c0.133-0.009,0.264-0.037,0.389-0.085c3.626-1.307,5.341-1.925,9.854-3.552
											l13.801-4.974c3.762-1.356,3.175-5.428,1.499-5.221c-7.523,0.972-13.197,0.7-16.082-0.551
											C291.778,408.054,292.092,407.64,291.262,406.697z"/>
										
											<path style="fill:none;stroke:#FFFFFF;stroke-width:0.5;stroke-linecap:round;stroke-linejoin:round;stroke-miterlimit:10;" d="
											M294.165,408.654c-0.978,0.511-1.71,1.469-1.947,2.547"/>
										
											<path style="fill:none;stroke:#FFFFFF;stroke-width:0.5;stroke-linecap:round;stroke-linejoin:round;stroke-miterlimit:10;" d="
											M296.524,408.982c-0.978,0.511-1.71,1.469-1.947,2.547"/>
										
											<path style="fill:none;stroke:#FFFFFF;stroke-width:0.5;stroke-linecap:round;stroke-linejoin:round;stroke-miterlimit:10;" d="
											M299.256,409.324c-0.978,0.511-1.71,1.469-1.947,2.547"/>
									</g>
								</g>
							</g>
							<path style="fill:#263238;" d="M222.328,313.271l-4.292,0.413c0,0-0.353-2.951-0.713-5.133
								c-0.313-2.209-2.74-9.636-3.335-11.786c-12.28,1.219-33.113,0.481-33.113,0.481s-18.801,34.773-5.438,48.366
								c8.029,8.149,31.679,3.379,49.19-3.781L222.328,313.271z"/>
							<path style="opacity:0.3;enable-background:new    ;" d="M218.036,312.502l-18.829,3.927c0,0,10.305-5.589,18.116-7.858
								C217.683,310.797,218.036,312.502,218.036,312.502z"/>
						</g>
					</g>
					<g>
						<g>
							<path style="fill:#B97964;" d="M245.652,268.242c0.104-1.658-4.803,7.827-4.803,7.827l-8.285-5.849l6.596-6.635
								c0,0,6.697,4.373,6.595,4.515"/>
						</g>
						<path style="fill:#407BFF;" d="M212.396,246.77c4.438,2.175,7.804,6.045,9.371,10.733c2.81,8.408,4.03,18.506,4.03,18.506
							l10.467-9.322l7.797,5.792c0,0-10.241,15.52-17.133,21.572c-5.723,5.025-12.21-4.723-12.21-4.723l-2.818-42.802
							L212.396,246.77z"/>
						<polygon style="opacity:0.2;" points="192.164,302.34 189.913,337.629 169.731,335.223 169.731,331.596 						"/>
						<g>
							<path style="fill:#FFFFFF;" d="M182.401,303.222c-0.789-8.952-3.968-25.358-9.442-42.587
								c-1.781-5.603,4.582-11.797,4.582-11.797s4.107-0.324,4.86-0.408c0.825-0.097,1.673-0.181,2.522-0.253
								c6.394-0.53,11.629-0.916,17.33-0.59c1.434,0.084,2.904,0.205,4.35,0.325c0.466,0.048,3.492,0.094,3.946,0.142
								c0,0,8.197,9.592,8.639,16.363c0.239,3.783,2.067,5.411,1.864,14.46c-0.036,6.145-4.496,15.097-4.902,23.736L182.401,303.222
								z"/>
						</g>
						<path style="fill:#407BFF;" d="M193.575,273.14c-0.43-14.049-2.089-22.97-2.843-26.38c-0.198-0.896-1.043-1.489-1.954-1.377
							l-5.428,1.143c-5.316,1.417-8.167,0.652-11.126,4.603c-0.573,0.765-1.053,6.649-1.01,7.456
							c0.072,1.446,1.076,5.88,2.414,11.229c0.92,3.711,2.008,7.88,3.048,11.808c1.334,5.007,2.447,6.311,2.877,7.916
							l-13.766,40.609c-0.388,1.086,0.344,2.248,1.49,2.367l19.758,2.065c0.967,0.101,1.835-0.588,1.951-1.553
							C189.972,324.78,194.07,289.288,193.575,273.14z"/>
						<path style="fill:#407BFF;" d="M219.538,300.665c0,0,4.147-25.692,3.044-32.122s-10.684-22.017-10.684-22.017l-4.373-0.301
							l-5.176-2.099c0,0,11.948,14.417,14.882,24.819c1.93,6.84-1.918,28.46-1.474,33.675l2.224,10.796l5.496-0.245L219.538,300.665
							z"/>
						<g>
							<path style="fill:#407BFF;" d="M189.994,243.168c0,0,5.374,10.607,3.341,37.298l-8.929-19.187l3.232-5.243l-4.289-8.57
								c0,0,4.588-2.951,6.516-4.511L189.994,243.168z"/>
						</g>
						<g style="opacity:0.2;">
							<path d="M189.994,243.168c0,0,5.374,10.607,3.341,37.298l-8.929-19.187l3.232-5.243l-4.289-8.57c0,0,4.588-2.951,6.516-4.511
								L189.994,243.168z"/>
						</g>
						<path style="fill:#407BFF;" d="M217.509,280.622c0,0,2-5.886,1.634-11.319c-0.365-5.432-0.45-9.485-0.45-9.485l-6.164-4.555
							l0.811-5.553c0,0-2.972-1.825-5.733-3.695c-1.887-1.277-5.588-3.21-6.074-3.061c0,0,15.74,19.919,15.82,28.069
							C217.429,278.885,217.509,280.622,217.509,280.622z"/>
						<path style="opacity:0.3;" d="M217.509,280.622c0,0,2-5.886,1.634-11.319c-0.365-5.432-0.45-9.485-0.45-9.485l-6.164-4.555
							l0.811-5.553c0,0-2.972-1.825-5.733-3.695c-1.887-1.277-5.588-3.21-6.074-3.061c0,0,15.74,19.919,15.82,28.069
							C217.429,278.885,217.509,280.622,217.509,280.622z"/>
						<path style="opacity:0.3;" d="M220.536,294.28l2.147-19.815l0.794,20.458C223.477,294.923,221.416,294.821,220.536,294.28z"/>
						<path style="fill:#FFFFFF;" d="M205.506,248.267l-4.232-5.815l-2.015,3.461l-8.355-5.033l-1.038,2.075l2.968,8.707
							c0,0,7.418,3.036,7.811,3.036S205.506,248.267,205.506,248.267z"/>
						<polygon style="opacity:0.3;" points="205.701,248.539 203.969,252.823 199.663,248.539 196.732,253.57 192.356,251.426 
							197.021,255.12 199.72,249.608 204.658,254.259 						"/>
						<polygon style="opacity:0.3;" points="182.636,288.994 180.948,270.069 179.649,290.679 199.207,298.631 						"/>
						<path style="fill:#407BFF;" d="M174.896,248.539c0,0-6.211,1.524-7.405,8.307c-1.194,6.783-2.776,40.691-1.426,42.838
							c1.35,2.147,39.141,14.3,39.141,14.3l4.046-10.495l-28.548-13.81c0,0,0.233-9.689,0.466-17.239
							c0.123-3.992,0.246-7.385,0.335-8.432C181.762,260.981,174.896,248.539,174.896,248.539z"/>
						<path style="fill:#B97964;" d="M209.11,304.144c0,0,11.879,2.852,14.634,5.224c1.222,1.053,1.188,2.775,1.188,2.775
							L205.695,313L209.11,304.144z"/>
						<path style="opacity:0.3;" d="M174.787,303.598c0.381,0.142,16.721,5.959,16.721,5.959v2.051l-17.556-5.547L174.787,303.598z"
							/>
						
							<path style="opacity:0.2;fill:none;stroke:#000000;stroke-width:0.5;stroke-linecap:round;stroke-linejoin:round;stroke-miterlimit:10;" d="
							M199.72,249.608c8.901,15.523,8.409,35.711,8.901,52.853"/>
					</g>
				</g>
				<g>
					<g>
						<g>
							<g>
								<g>
									<g>
										<g>
											<path style="fill:#B97964;" d="M239.596,264.557c0,0-1.613-2.568-1.026-5.005c0.587-2.438,0.406-4.54,0.968-6.322
												c0.562-1.782,1.561,0.533,1.842,1.873c0.282,1.339,0.615,2.855,1.587,2.48c0.972-0.374,6.619-7.326,8.026-7.692
												c1.406-0.366,0.844,1.044,0.844,1.044s1.417-1.652,2.224-1.268c0.21,0.099,0.536,0.671,0.008,1.525
												c-1.188,1.921-3.887,5.824-3.887,5.824c0.15-0.227,3.827-4.807,4.467-5.421c0.837-0.802,1.64-0.754,2.09-0.254
												c0.64,0.712-3.725,6.545-3.737,6.92c0,0,2.4-3.442,3.628-3.309c1.228,0.133-0.165,2.383-1.77,4.133
												c-1.471,1.604-3.937,5.137-5.591,6.622c-2.038,1.831-3.817,2.603-6.171,1.573
												C240.744,266.248,239.596,264.557,239.596,264.557z"/>
										</g>
									</g>
								</g>
							</g>
						</g>
					</g>
					
						<path style="opacity:0.3;fill:none;stroke:#000000;stroke-width:0.5;stroke-linecap:round;stroke-linejoin:round;stroke-miterlimit:10;" d="
						M251.609,251.114c-1.102,1.352-2.143,2.754-3.118,4.201"/>
					
						<path style="opacity:0.3;fill:none;stroke:#000000;stroke-width:0.5;stroke-linecap:round;stroke-linejoin:round;stroke-miterlimit:10;" d="
						M252.116,259.629c-1.311-1.833-3.173-3.266-5.28-4.066"/>
					
						<path style="opacity:0.3;fill:none;stroke:#000000;stroke-width:0.5;stroke-linecap:round;stroke-linejoin:round;stroke-miterlimit:10;" d="
						M243.251,258.67c0.618,0.68,0.989,1.578,1.031,2.496c0.042,0.917-0.246,1.846-0.799,2.579"/>
				</g>
			</g>
			<g>
				<g>
					<g>
						<path style="fill:#263238;" d="M257.204,312.47h-30.816c-0.532-0.004-0.959-0.352-0.955-0.779
							c0.001-0.08,0.017-0.16,0.049-0.236l13.709-31.429c0.346-0.898,1.378-1.511,2.549-1.515h30.835
							c0.521,0,0.944,0.34,0.944,0.758c0,0.088-0.019,0.175-0.056,0.257l-13.709,31.429
							C259.402,311.849,258.373,312.461,257.204,312.47z"/>
						<path style="opacity:0.7;fill:#FFFFFF;" d="M272.575,278.51H241.74c-1.171,0.004-2.203,0.618-2.549,1.516l-13.709,31.429
							c-0.031,0.076-0.048,0.156-0.049,0.236c-0.005,0.427,0.423,0.776,0.955,0.779h30.816c1.169-0.009,2.198-0.621,2.549-1.515
							l13.709-31.429c0.037-0.082,0.056-0.17,0.056-0.257C273.519,278.85,273.096,278.51,272.575,278.51z"/>
						<path style="fill:#FFFFFF;" d="M253.477,296.19c-0.666,1.508-2.016,2.544-3.022,2.333c-1.006-0.211-1.275-1.585-0.628-3.098
							c0.646-1.512,2.012-2.524,3.018-2.314C253.851,293.323,254.151,294.642,253.477,296.19z"/>
					</g>
					<path style="opacity:0.3;" d="M241.923,278.51h-0.183c-1.171,0.004-2.203,0.618-2.549,1.516l-13.709,31.429
						c-0.031,0.076-0.048,0.156-0.049,0.236c-0.005,0.427,0.423,0.776,0.955,0.779h0.987L241.923,278.51z"/>
				</g>
				<polygon style="fill:#263238;" points="201.391,312.745 201.391,315.29 225.941,312.787 226.309,309.557 				"/>
				<polygon style="opacity:0.7;fill:#FFFFFF;" points="201.391,312.745 201.391,315.29 225.941,312.787 226.309,309.557 				"/>
			</g>
		</g>
		<path style="opacity:0.3;" d="M134.494,149.79h18.035c2.247,0,4.068-1.821,4.068-4.068v-12.435
			C156.598,133.287,141.202,143.143,134.494,149.79z"/>
	</g>
	<path style="opacity:0.2;" d="M340.261,204.171c0,0-2.333,1.2-2.327,3.901c0.007,2.701,3.397,7.318,3.219,8.846
		c-0.179,1.528-0.357,6.125,1.249,8.109c1.606,1.984,9.739,3.627,9.731,3.569c-0.007-0.058-0.908-5.686-2.021-11.679
		C349.001,210.925,340.261,204.171,340.261,204.171"/>
</g>
<g id="Plant">
	<g>
		<g>
			<g>
				<path style="fill:#407BFF;" d="M100.605,304.144c-14.372,16.812-18.57,41.697-10.507,62.293
					c8.958-7.995,15.266-20.182,15.665-30.841C106.162,324.936,103.372,314.445,100.605,304.144z"/>
			</g>
			<g>
				<path style="fill:#407BFF;" d="M98.098,368.379c-4.877,7.472-7.211,16.572-6.534,25.469c7.77-2.705,14.619-11.481,18.725-18.61
					c4.106-7.129,6.402-15.136,8.492-23.093C110.364,355.107,102.974,360.907,98.098,368.379z"/>
			</g>
			<g>
				<g>
					<path style="fill:#263238;" d="M96.229,333.482c-5.775,20.771-8.721,42.309-8.7,63.87c0.006,6.115,0.255,12.228,0.732,18.324
						c0.037,0.478,0.788,0.482,0.75,0c-1.681-21.508-0.431-43.219,3.751-64.385c1.17-5.921,2.574-11.794,4.19-17.609
						C97.081,333.215,96.358,333.016,96.229,333.482L96.229,333.482z"/>
				</g>
			</g>
			<g>
				<g>
					<path style="fill:#263238;" d="M88.578,400.898c5.9-14.035,13.651-27.18,22.609-39.473c0.285-0.391-0.366-0.765-0.648-0.379
						c-9,12.35-16.757,25.552-22.684,39.652C87.668,401.143,88.393,401.337,88.578,400.898L88.578,400.898z"/>
				</g>
			</g>
			<g>
				<path style="fill:#407BFF;" d="M80.136,380.022c4.066,6.231,6.013,13.818,5.448,21.237c-6.479-2.255-12.19-9.573-15.614-15.518
					c-3.424-5.944-5.339-12.621-7.081-19.256C69.908,368.955,76.069,373.792,80.136,380.022z"/>
			</g>
			<g>
				<g>
					<path style="fill:#263238;" d="M88.402,406.154c-4.846-11.518-11.237-22.191-18.587-32.277
						c-0.282-0.386-0.933-0.012-0.648,0.379c7.308,10.028,13.693,20.644,18.511,32.098C87.863,406.792,88.59,406.599,88.402,406.154
						L88.402,406.154z"/>
				</g>
			</g>
			<g>
				<g>
					<path style="fill:#263238;" d="M88.609,410.055c9.143-9.406,18.477-18.622,27.62-28.028c0.337-0.346-0.193-0.877-0.53-0.53
						c-9.143,9.406-18.477,18.622-27.62,28.028C87.742,409.871,88.272,410.402,88.609,410.055L88.609,410.055z"/>
				</g>
			</g>
			<g>
				<path style="fill:#407BFF;" d="M116.516,377.65c-7.932,7.649-15.159,16.03-21.559,25l1.451,0
					c6.037-0.283,11.898-3.261,15.685-7.971S117.535,383.607,116.516,377.65z"/>
			</g>
			<g>
				<g>
					<g>
						<path style="fill:#263238;" d="M78.901,359.447c3.406,5.57,6.615,11.257,9.621,17.052c0.222,0.429,0.87,0.05,0.648-0.379
							c-3.006-5.795-6.215-11.482-9.621-17.052C79.297,358.657,78.648,359.033,78.901,359.447L78.901,359.447z"/>
					</g>
				</g>
				<g>
					<path style="fill:#407BFF;" d="M70.756,331.286c-1.299,5.842-2.587,13.439-2.6,19.523c-0.013,6.084,1.843,12.02,5.3,16.096
						c3.457,4.076,10.435,5.862,13.249,3.529L70.756,331.286z"/>
				</g>
			</g>
		</g>
		<rect x="70.578" y="412.715" style="fill:#263238;" width="34.65" height="6.422"/>
		<polygon style="fill:#263238;" points="99.616,442.013 78.1,442.013 74.19,417.665 102.705,417.665 		"/>
		<polygon style="opacity:0.2;" points="74.446,419.256 102.503,419.256 102.154,422.012 74.888,422.012 		"/>
	</g>
</g>
<g id="Screen">
	<g>
		<g>
			<g>
				<path style="fill:#407BFF;" d="M147.65,145.442H79.232c-2.726,0-4.936-2.21-4.936-4.936V84.544c0-2.726,2.21-4.936,4.936-4.936
					h68.418c2.726,0,4.936,2.21,4.936,4.936v55.962C152.586,143.232,150.376,145.442,147.65,145.442z"/>
				<path style="opacity:0.5;fill:#FFFFFF;" d="M147.65,145.442H79.232c-2.726,0-4.936-2.21-4.936-4.936V84.544
					c0-2.726,2.21-4.936,4.936-4.936h68.418c2.726,0,4.936,2.21,4.936,4.936v55.962C152.586,143.232,150.376,145.442,147.65,145.442
					z"/>
				<path style="fill:#407BFF;" d="M152.586,91.088h-78.29v-6.853c0-2.555,2.071-4.627,4.627-4.627h69.118
					c2.511,0,4.546,2.035,4.546,4.546V91.088z"/>
			</g>
			<g>
				<path style="opacity:0.5;fill:#FFFFFF;" d="M148.165,86.185c0,1.384-1.122,2.506-2.506,2.506c-1.384,0-2.506-1.122-2.506-2.506
					c0-1.384,1.122-2.506,2.506-2.506C147.043,83.679,148.165,84.801,148.165,86.185z"/>
				<path style="opacity:0.5;fill:#FFFFFF;" d="M141.043,86.185c0,1.384-1.122,2.506-2.506,2.506c-1.384,0-2.506-1.122-2.506-2.506
					c0-1.384,1.122-2.506,2.506-2.506C139.921,83.679,141.043,84.801,141.043,86.185z"/>
				<path style="opacity:0.5;fill:#FFFFFF;" d="M133.921,86.185c0,1.384-1.122,2.506-2.506,2.506c-1.384,0-2.506-1.122-2.506-2.506
					c0-1.384,1.122-2.506,2.506-2.506C132.799,83.679,133.921,84.801,133.921,86.185z"/>
			</g>
		</g>
		<g>
			<path style="fill:#F5F5F5;" d="M112.21,118.082L119,99.429c2.529,0.921,4.845,2.346,6.807,4.19
				c1.961,1.844,3.527,4.067,4.602,6.535L112.21,118.082z"/>
			<path style="fill:#407BFF;" d="M112.21,118.082l5.786,18.989c-1.875,0.571-3.825,0.862-5.786,0.862
				c-10.89,0-19.851-8.961-19.851-19.851c0-10.89,8.961-19.851,19.851-19.851c2.284,0,4.551,0.394,6.701,1.165L112.21,118.082z"/>
			<path style="fill:#407BFF;" d="M112.21,118.082l18.236-7.842c1.065,2.477,1.615,5.146,1.615,7.842
				c0,8.682-5.695,16.403-13.99,18.966L112.21,118.082z"/>
			<path style="opacity:0.3;" d="M112.21,118.082l18.236-7.842c1.065,2.477,1.615,5.146,1.615,7.842
				c0,8.682-5.695,16.403-13.99,18.966L112.21,118.082z"/>
		</g>
	</g>
</g>
<g id="Character_2_00000083798181020747381990000002522276009728083075_">
	<g>
		<path style="fill:#407BFF;" d="M388.321,184.235c-3.356,0.673-4.686,3.37-8.053,10.403c-4.243,8.865-10.429,24.847-11.83,24.981
			c-1.97,0.188-27.152-9.626-27.152-9.626l-3.917,4.426c0,0,13.189,17.637,34.067,23.236c3.751,1.007,8.486-3.242,13.001-9.051
			c0.885-1.129,1.748-2.323,2.611-3.552c4.646-6.886,8.812-14.084,12.47-21.542L388.321,184.235L388.321,184.235z"/>
		<path style="opacity:0.2;enable-background:new    ;" d="M387.262,195.483c-0.973,4.301-3.252,10.758-5.051,15.341
			c-0.582,1.483-0.838,3.09-0.568,4.66c0.777,4.523,1.842,8.328,3.142,11.933c0.727,2.113,3.991,1.96,4.092,4.192
			c0.885-1.129,1.748-2.324,2.611-3.552l1.925-7.612L387.262,195.483z"/>
		<path style="fill:#263238;" d="M372.62,223.07c1.176-0.333,1.859-1.556,1.526-2.732l-8.42-35.406
			c-0.5-1.678-2.012-2.852-3.762-2.921l-26.986-0.564c-0.293-0.036-0.591-0.014-0.875,0.067c-1.176,0.333-1.859,1.556-1.526,2.732
			l8.42,35.406c0.499,1.68,2.011,2.858,3.762,2.932l26.986,0.553C372.038,223.174,372.336,223.151,372.62,223.07z"/>
		<path style="opacity:0.2;fill:#FFFFFF;enable-background:new    ;" d="M372.62,223.07c1.176-0.333,1.859-1.556,1.526-2.732
			l-8.42-35.406c-0.5-1.678-2.012-2.852-3.762-2.921l-26.986-0.564c-0.293-0.036-0.591-0.014-0.875,0.067
			c-1.176,0.333-1.859,1.556-1.526,2.732l8.42,35.406c0.499,1.68,2.011,2.858,3.762,2.932l26.986,0.553
			C372.038,223.174,372.336,223.151,372.62,223.07z"/>
		<path style="fill:#263238;" d="M369.852,223.014c1.176-0.332,1.86-1.555,1.528-2.731l-8.42-35.406
			c-0.501-1.675-2.005-2.85-3.751-2.932l-26.997-0.553c-0.293-0.036-0.591-0.013-0.875,0.067c-1.176,0.333-1.859,1.556-1.526,2.732
			l8.431,35.406c0.501,1.675,2.005,2.85,3.751,2.932l26.997,0.553C369.279,223.116,369.572,223.093,369.852,223.014z"/>
		<path style="opacity:0.3;fill:#FFFFFF;enable-background:new    ;" d="M369.852,223.014c1.176-0.332,1.86-1.555,1.528-2.731
			l-8.42-35.406c-0.501-1.675-2.005-2.85-3.751-2.932l-26.997-0.553c-0.293-0.036-0.591-0.013-0.875,0.067
			c-1.176,0.333-1.859,1.556-1.526,2.732l8.431,35.406c0.501,1.675,2.005,2.85,3.751,2.932l26.997,0.553
			C369.279,223.116,369.572,223.093,369.852,223.014z"/>
		<path style="opacity:0.2;fill:#FFFFFF;enable-background:new    ;" d="M347.098,199.663c0.106-1.117,1.098-1.937,2.215-1.831
			c1.582,0.087,2.933,1.174,3.355,2.701c0.075,0.253,0.1,0.517,0.074,0.78c-0.112,1.108-1.102,1.915-2.209,1.802
			c-1.582-0.084-2.935-1.168-3.363-2.693C347.098,200.176,347.074,199.918,347.098,199.663z"/>
		<path style="fill:#E9B376;" d="M336.372,203.83c0.531-0.044,2.788,1.073,3.85,0.332c1.062-0.741,0.066-1.35,0.066-1.35
			c-1.947-0.476-4.083-2.91-5.267-2.213s-3.142,1.571-2.855,2.678c0.325,1.024,0.717,2.026,1.173,2.999
			c-0.309,0.493-0.35,1.108-0.111,1.638c0.243,0.612,0.781,1.057,1.427,1.184c-0.371,0.375-0.564,0.89-0.531,1.416
			c0.088,0.841,2.301,1.947,2.301,1.947s-0.432,1.316,0.077,1.826c0.864,0.711,2.012,0.973,3.098,0.708
			c1.295-0.31,2.18-0.752,2.091-2.058c-0.089-1.306-2.423-1.306-2.423-1.306s4.382-1.328,3.452-2.158
			c-0.929-0.83-4.426-0.73-4.426-0.73s5.931-1.173,4.99-2.39c-0.941-1.217-6.849-0.885-6.849-0.885S335.841,203.874,336.372,203.83z
			"/>
		<g>
			<g>
				<g>
					<g>
						<polygon style="fill:#E9B376;" points="386.794,413.878 389.317,435.362 381.609,436.428 373.504,416.238 						"/>
					</g>
				</g>
			</g>
			<path style="fill:#407BFF;" d="M375.49,431.169c-0.121-1.311-0.028-2.405,1.506-2.484l2.172-0.112
				c0.821,0,1.408,0.503,2.066,0.923c4.979,3.177,7.022-0.925,8.954-0.923c2.483-0.002,0.885,7.278,1.003,7.66l2.713,8.448
				c0.236,0.706-0.241,2.229-1.065,2.43c-0.147,0.036-0.299,0.053-0.451,0.051c-4.407,0-6.493,0-11.978,0h-16.777
				c-4.573,0-4.626-5.137-2.742-5.502c8.471-1.602,11.813-4.145,14.604-6.004C375.495,435.657,375.676,433.185,375.49,431.169z"/>
			<path style="opacity:0.4;fill:#FFFFFF;" d="M363.633,447.163h16.777c5.486,0,7.571,0,11.978,0
				c0.152,0.002,0.305-0.015,0.451-0.051c0.56-0.137,0.952-0.882,1.077-1.568l-0.012-0.643h-33.943
				C360.413,446.096,361.55,447.163,363.633,447.163z"/>
			<g>
				<g>
					<path style="fill:#263238;" d="M371.003,438.768c0.35,0.296,0.674,0.621,0.965,0.976c0.035,0.042,0.069,0.085,0.102,0.128
						c-0.025-0.031-0.005-0.007,0.008,0.01c0.018,0.024,0.036,0.048,0.054,0.073c0.068,0.092,0.134,0.186,0.198,0.281
						c0.127,0.189,0.243,0.385,0.352,0.585c0.093,0.173,0.347,0.242,0.513,0.135c0.176-0.113,0.234-0.328,0.134-0.513
						c-0.452-0.838-1.069-1.589-1.797-2.204c-0.15-0.126-0.385-0.158-0.53,0C370.875,438.377,370.843,438.633,371.003,438.768
						L371.003,438.768z"/>
				</g>
			</g>
			<g>
				<g>
					<path style="fill:#263238;" d="M373.647,437.296c0.321,0.281,0.622,0.586,0.896,0.913c0.033,0.04,0.066,0.079,0.098,0.12
						c0.014,0.018,0.029,0.036,0.043,0.054c0.016,0.02,0.047,0.061,0.015,0.019c0.062,0.082,0.123,0.164,0.182,0.248
						c0.124,0.176,0.241,0.357,0.351,0.543c0.1,0.169,0.342,0.245,0.513,0.134c0.17-0.11,0.241-0.332,0.135-0.513
						c-0.454-0.767-1.032-1.461-1.702-2.048c-0.148-0.129-0.387-0.156-0.53,0C373.517,436.908,373.489,437.158,373.647,437.296
						L373.647,437.296z"/>
				</g>
			</g>
			<g>
				<g>
					<path style="fill:#263238;" d="M375.601,436.075c0.154,0.077,0.302,0.165,0.443,0.263c0.035,0.024,0.069,0.05,0.103,0.076
						c0.037,0.028-0.064-0.051-0.012-0.009c0.018,0.015,0.036,0.029,0.054,0.044c0.065,0.054,0.128,0.111,0.189,0.169
						c0.06,0.058,0.118,0.119,0.174,0.182c0.025,0.028,0.05,0.057,0.074,0.087c0.014,0.017,0.028,0.037,0.043,0.053
						c-0.01-0.013-0.02-0.027-0.031-0.04c0.009,0.012,0.018,0.024,0.027,0.036c0.099,0.133,0.186,0.273,0.262,0.42
						c0.091,0.174,0.349,0.241,0.513,0.134c0.178-0.114,0.232-0.327,0.135-0.513c-0.347-0.667-0.926-1.214-1.595-1.55
						c-0.175-0.088-0.414-0.052-0.513,0.134C375.376,435.732,375.413,435.981,375.601,436.075L375.601,436.075z"/>
				</g>
			</g>
			<g>
				<g>
					<path style="fill:#263238;" d="M375.792,433.442c0.196,0.002,0.392,0.012,0.586,0.032c0.161,0.016,0.293,0.035,0.481,0.071
						c0.369,0.071,0.73,0.175,1.081,0.309c0.184,0.07,0.419-0.077,0.461-0.262c0.049-0.214-0.065-0.386-0.262-0.461
						c-0.748-0.285-1.548-0.429-2.348-0.438c-0.196-0.002-0.384,0.174-0.375,0.375C375.426,433.273,375.581,433.44,375.792,433.442
						L375.792,433.442z"/>
				</g>
			</g>
			<g style="opacity:0.3;">
				<path d="M383.889,433.713c0.044,0.755,0.334,1.583,1.064,1.933c0.453,0.217,0.989,0.208,1.499,0.195
					c1.526-0.04,3.052-0.081,4.578-0.122l0.019-0.04c0.241-1.988,0.888-6.84-1.004-6.838c-1.489-0.002-3.052,2.784-6.165,1.971
					C383.905,431.864,383.859,433.205,383.889,433.713z"/>
			</g>
			<g>
				<path style="fill:#263238;" d="M362.988,347.149c1.372-12.425,18.686-78.368,18.686-78.368l22.012-0.535l33.866-0.957
					c0,0,1.956,17.675,1.981,40.823c0,0-1.639,98.831-2.98,122.353l-18.599,0.718c-2.114-18.483-4.913-76.149-4.913-76.149
					c-1.275-10.448-2.425-41.288-3.339-50.094c-0.38-1.949-0.753-3.913-1.116-5.869c-3.612,9.551-20.19,50.414-21.47,56.273
					l6.802,77.722l-20.005-0.765C373.912,432.303,361.616,359.574,362.988,347.149z"/>
				<path d="M393.314,271.343c-2.039,6.343-7.49,11.438-14.214,13.29c-0.363,0.1-0.208,0.638,0.156,0.537
					c6.923-1.907,12.527-7.15,14.625-13.679C393.992,271.148,393.424,271.001,393.314,271.343L393.314,271.343z"/>
				<path d="M410.184,272.272c-0.397,5.549-0.785,11.107-1.182,16.656c-0.019,0.358-0.605,0.358-0.586,0
					c0.208-2.846,0.406-5.701,0.605-8.557c-1.447,1.056-3.139-0.224-3.612-1.638c-0.775-2.291-0.482-5.012,0.123-7.303
					c0.095-0.349,0.662-0.197,0.567,0.143c-0.426,1.611-0.605,3.258-0.482,4.914c0.057,0.841,0.142,1.808,0.558,2.578
					c0.463,0.859,1.636,1.584,2.572,0.806c0.104-0.081,0.217-0.09,0.312-0.045c0.18-2.515,0.359-5.039,0.539-7.554
					C409.616,271.914,410.202,271.914,410.184,272.272z"/>
				<path d="M423.98,271.25c-0.083,7.356,5.9,13.517,13.636,14.095c0.371,0.028,0.369-0.52,0-0.547
					c-7.423-0.555-13.137-6.508-13.058-13.548C424.563,270.898,423.984,270.897,423.98,271.25L423.98,271.25z"/>
			</g>
			<g>
				<g>
					<polygon style="fill:#263238;" points="421.174,414.919 424.45,436.969 432.284,437.333 434.82,416.075 					"/>
				</g>
			</g>
			<g>
				<path style="fill:#407BFF;" d="M438.954,447.207h-17.522c0,0-0.382-0.675,0.055-2.473c0.067-0.28,0.154-0.588,0.267-0.923
					c0.006-0.017,0.01-0.033,0.016-0.05c0.164-0.497,0.352-1.109,0.552-1.77c0.803-2.691,1.349-8.882,1.349-8.882
					s3.313-3.051,6.724-1.621c2.992,1.254,2.527,2.844,2.527,2.844s0.048,4.106,2.317,5.964c1.403,1.148,2.798,2.037,3.469,3.465
					c0.125,0.267,0.224,0.551,0.295,0.859c0.008,0.037,0.016,0.076,0.022,0.115C439.164,445.423,439.156,446.23,438.954,447.207z"/>
			</g>
			<path style="opacity:0.4;fill:#FFFFFF;" d="M421.486,444.735c-0.437,1.797-0.055,2.473-0.055,2.473h17.522
				c0.202-0.977,0.21-1.784,0.071-2.473H421.486z"/>
			<g>
				<g>
					<path style="fill:#263238;" d="M431.971,437.233c-0.985-0.704-2.278-0.613-3.165,0.18c-0.238,0.213-0.604-0.122-0.366-0.336
						c1.106-0.99,2.686-1.045,3.896-0.18C432.599,437.085,432.23,437.418,431.971,437.233L431.971,437.233z"/>
				</g>
			</g>
			<g>
				<g>
					<path style="fill:#263238;" d="M432.465,438.734c-0.986-0.704-2.279-0.613-3.165,0.18c-0.238,0.213-0.604-0.122-0.366-0.335
						c1.106-0.99,2.686-1.045,3.896-0.18C433.093,438.586,432.725,438.919,432.465,438.734L432.465,438.734z"/>
				</g>
			</g>
			<g>
				<g>
					<path style="fill:#263238;" d="M432.962,440.114c-0.986-0.705-2.279-0.613-3.165,0.18c-0.238,0.213-0.604-0.122-0.366-0.335
						c1.106-0.99,2.686-1.045,3.896-0.18C433.59,439.966,433.222,440.299,432.962,440.114L432.962,440.114z"/>
				</g>
			</g>
			<path style="fill:#407BFF;" d="M381.82,263.638c-3.12,5.125-3.12,9.241-0.146,10.29c0,0,27.029,4.583,54.677,1.442
				c6.657,0.367,3.399-5.804,3.399-5.804l0.148-85.331c-21.01-4.46-46.43-0.338-51.576,0L381.82,263.638z"/>
			<path style="opacity:0.2;enable-background:new    ;" d="M439.811,233.852v-28.223c0,0,4.137,28.926,2.054,36.102
				L439.811,233.852z"/>
			<g>
				<path style="fill:#263238;" d="M401.629,146.483c0,0-10.208-5.748-4.149-11.914c4.78-4.863,9.007-4.154,15.401-2.99
					c15.668,2.853,14.756,9.382,14.756,9.382L401.629,146.483z"/>
				<g>
					<path style="fill:#E9B376;" d="M421.581,179.358c0,0-0.838-6.01,2.681-16.427c0-0.011-0.545-0.282-0.545-0.293
						c0.486-1.457,0.994-2.801,1.469-3.965c0.011-0.034,0.011-0.045,0.011-0.045l-14.82,8.291c0.192,3.389-1.303,9.856-2.145,12.577
						c0,0-2.039,4.907,4.584,5.414C417.655,185.279,421.581,179.358,421.581,179.358z"/>
					<path style="opacity:0.2;" d="M409.922,171.651l8.388-1.511c-0.866,2.55-3.285,5.513-9.077,5.511
						C409.233,175.651,409.935,172.785,409.922,171.651z"/>
				</g>
				<g>
					<path style="fill:#E9B376;" d="M425.613,151.621c-1.371,9.107-1.961,14.271-7.007,18.52c-7.589,6.39-18.285,1.323-19.665-8.038
						c-1.242-8.426,1.209-21.904,10.505-24.668C418.604,134.71,426.984,142.514,425.613,151.621z"/>
					<path style="fill:#263238;" d="M427.747,140.713c-11.181-10.769-22.555-4.728-26.91,1.176l19.508,0.231
						c0.853-0.015,1.336,0.873,1.151,2.497c0,0-6.763,12.128,2.56,18.935c3.335-1.277,4.013-6.825,5.314-10.049
						C431.307,148.698,433.755,141.628,427.747,140.713z"/>
					<path style="fill:#E9B376;" d="M428.555,159.574c-0.94,2.293-2.856,3.927-4.752,4.669c-2.853,1.116-3.607-1.962-3.094-4.824
						c0.462-2.576,1.5-5.672,4.497-5.565C428.159,153.96,429.63,156.952,428.555,159.574z"/>
					<path style="fill:#263238;" d="M411.463,153.347c-0.083,0.937-0.647,1.648-1.26,1.588c-0.613-0.06-1.043-0.869-0.96-1.806
						c0.083-0.937,0.647-1.648,1.259-1.588C411.115,151.601,411.545,152.41,411.463,153.347z"/>
					<path style="fill:#263238;" d="M402.716,152.906c-0.083,0.937-0.647,1.648-1.259,1.588c-0.613-0.06-1.043-0.869-0.96-1.806
						c0.083-0.937,0.647-1.648,1.259-1.587C402.369,151.161,402.799,151.969,402.716,152.906z"/>
					<path style="fill:#D58745;" d="M406.102,152.222c0,0-3.378,4.394-4.496,6.206c1.2,1.293,3.495,0.949,3.495,0.949
						L406.102,152.222z"/>
					<path style="fill:#263238;" d="M414.953,148.892c-0.147,0.045-0.313,0.013-0.435-0.101c-1.442-1.345-3.023-0.985-3.039-0.981
						c-0.236,0.057-0.476-0.089-0.535-0.324c-0.059-0.236,0.086-0.473,0.321-0.53c0.083-0.02,2.065-0.472,3.854,1.197
						c0.179,0.167,0.189,0.444,0.023,0.62C415.089,148.832,415.023,148.871,414.953,148.892z"/>
					
						<path style="fill:none;stroke:#263238;stroke-width:0.75;stroke-linecap:round;stroke-linejoin:round;stroke-miterlimit:10;" d="
						M407.908,162.634c1.519,0.146,2.765-0.508,4.042-1.536"/>
				</g>
				
					<path style="opacity:0.2;fill:none;stroke:#000000;stroke-width:0.5;stroke-linecap:round;stroke-linejoin:round;stroke-miterlimit:10;" d="
					M426.687,156.857c-0.321-0.579-1.055-0.847-1.71-0.746c-0.654,0.101-1.226,0.512-1.664,1.008
					c-0.525,0.596-0.891,1.332-1.05,2.111"/>
				<path style="fill:#263238;" d="M399.36,148.164c-0.08-0.025-0.154-0.073-0.211-0.143c-0.154-0.189-0.128-0.468,0.058-0.622
					c1.873-1.546,3.803-0.933,3.893-0.917c0.231,0.075,0.36,0.323,0.288,0.555c-0.072,0.231-0.316,0.359-0.546,0.287
					c-0.079-0.029-1.572-0.481-3.075,0.759C399.65,148.182,399.496,148.207,399.36,148.164z"/>
				<path style="opacity:0.3;fill:#FFFFFF;" d="M430.75,149.698l-11.193,0.275c0,0,0.4-1.893,1.201-3.785H431.5
					C431.5,146.188,431.425,147.534,430.75,149.698z"/>
				<g style="opacity:0.2;">
					<path d="M412.684,158.98c0.808,0.874,1.239,2.084,1.166,3.272c0,0,0.543-0.941,0.303-1.935
						C413.912,159.322,412.684,158.98,412.684,158.98z"/>
				</g>
			</g>
			<g>
				<polygon style="fill:#407BFF;" points="408.567,176.932 402.795,182.125 412.431,193.809 426.351,182.073 422.225,176.007 
					413.524,183.274 				"/>
				<polygon style="opacity:0.8;fill:#FFFFFF;" points="408.567,176.932 402.795,182.125 412.431,193.809 426.351,182.073 
					422.225,176.007 413.524,183.274 				"/>
			</g>
		</g>
		<path style="opacity:0.2;enable-background:new    ;" d="M439.533,245.885v10.031c0,0-22.193-6.478-35.268-18.169
			c-9.309-8.324-7.853-11.83-7.853-11.83l10.544,1.018L439.533,245.885z"/>
		<path style="opacity:0.2;enable-background:new    ;" d="M432.569,208.072l1.418,23.581c3.938,2.505,6.545-0.967,7.144-4.555
			v-6.789L432.569,208.072z"/>
		<path style="fill:#407BFF;" d="M432.544,209.588c0,0,7.13,18.606,5.349,19.734c-1.781,1.128-30.782-4.364-30.782-4.364
			l-4.481,6.428c0.963,4.227,50.021,30.854,54.026,8.581c2.086-11.594-5.993-38.973-9.045-47.481
			c-0.854-2.382-5.154-7.469-7.576-8.203c-0.909-0.276-1.781-0.362-2.501-0.227C428.264,185.792,432.544,209.588,432.544,209.588z"
			/>
		<path style="fill:#976827;" d="M435.525,231.609"/>
		<path style="fill:#E9B376;" d="M402.204,232.012c-3.361,0.266-3.479-4.797-5.228-4.996c-1.017-0.098-2.014-0.352-2.954-0.752
			c0,0,1.107,3.043,0,2.799c-1.106-0.243-4.658-0.421-5.532-3.319c-0.874-2.899,2.29-9.095,3.01-9.958
			c0.719-0.863,4.503-0.598,4.503-0.598s-4.072-1.051-6.307-1.361c-2.235-0.31-2.659-2.864,0.459-2.299
			c1.281,0.232,11.391,0.307,12.486,1.348c1.095,1.04,5.156,11.261,5.156,11.261C409.303,225,405.479,233.572,402.204,232.012z"/>
		<g style="opacity:0.3;">
			<path d="M396.041,214.868c1.037-0.072,2.079-0.005,3.098,0.199c0.153,0.042,0.244,0.2,0.202,0.353
				c-0.036,0.134-0.163,0.223-0.302,0.211c-0.965-0.193-1.95-0.26-2.932-0.199C395.743,215.432,395.676,214.89,396.041,214.868z"/>
			<path d="M390.83,217.933c-0.321,0.166-0.653-0.299-0.332-0.465c1.892-1.007,3.884-0.443,5.798,0.199
				c0.343,0.111,0.1,0.631-0.243,0.52C394.371,217.623,392.512,217.081,390.83,217.933z"/>
			<path d="M389.347,220.433c1.632-0.975,3.645-1.062,5.355-0.232c0.134,0.085,0.175,0.262,0.09,0.397
				c-0.068,0.108-0.199,0.158-0.322,0.123c-1.53-0.746-3.331-0.679-4.802,0.177C389.358,221.086,389.026,220.621,389.347,220.433z"
				/>
			<path d="M392.065,224.677c-0.146-0.297-0.264-0.608-0.344-0.935c-0.078-0.354,0.454-0.553,0.542-0.199
				c0.236,1.089,0.913,2.03,1.87,2.6c0.321,0.177,0.078,0.697-0.232,0.52h0.033c-0.601-0.339-1.101-0.812-1.491-1.364
				c-0.038,0.002-0.071,0.02-0.114,0.003c-0.595-0.209-1.257-0.033-1.671,0.443c-0.243,0.277-0.675-0.089-0.431-0.365
				C390.692,224.844,391.382,224.601,392.065,224.677z"/>
		</g>
	</g>
</g>
</svg>
