<svg width="30" height="28" viewBox="0 0 30 28" fill="none" xmlns="http://www.w3.org/2000/svg">
<g clip-path="url(#clip0_7524_6162)">
<path d="M28 14.2756C28 7.37208 22.4036 1.77563 15.5 1.77563C8.59644 1.77563 3 7.37208 3 14.2756C3 21.1792 8.59644 26.7756 15.5 26.7756C22.4036 26.7756 28 21.1792 28 14.2756Z" fill="#168B9A"/>
<mask id="mask0_7524_6162" style="mask-type:luminance" maskUnits="userSpaceOnUse" x="3" y="1" width="25" height="26">
<path d="M28 1.77563H3V26.7756H28V1.77563Z" fill="white"/>
</mask>
<g mask="url(#mask0_7524_6162)">
<mask id="mask1_7524_6162" style="mask-type:luminance" maskUnits="userSpaceOnUse" x="3" y="1" width="25" height="26">
<path d="M27.9918 1.77563H3V26.7756H27.9918V1.77563Z" fill="white"/>
</mask>
<g mask="url(#mask1_7524_6162)">
<path d="M14.7689 1.77563H16.2336C16.6517 1.828 17.0722 1.86563 17.4879 1.93927C20.6305 2.45471 23.459 4.14717 25.3987 6.6728C27.3385 9.19843 28.244 12.3678 27.9312 15.537C27.7056 18.1366 26.6334 20.5905 24.8791 22.5224C23.7761 23.802 22.42 24.8396 20.8963 25.5695C19.3726 26.2993 17.7142 26.7058 16.0257 26.7634C13.6036 26.8999 11.1977 26.292 9.13113 25.0213C7.57267 24.1116 6.23316 22.8704 5.20734 21.3857C4.18151 19.9011 3.49446 18.2092 3.19475 16.4297C3.1072 15.9608 3.06382 15.4838 3 15.0108V13.5429C3.01964 13.367 3.04009 13.1919 3.05973 13.016C3.34212 10.3073 4.49874 7.76421 6.35471 5.77124C8.21067 3.77828 10.665 2.44381 13.3467 1.96956C13.8181 1.88692 14.2951 1.84191 14.7689 1.77563ZM13.5579 16.3348C13.5055 16.2897 13.4621 16.253 13.4204 16.2177C12.8023 15.6521 12.1843 15.0861 11.5662 14.5199C11.0753 14.0764 10.6089 13.6108 10.0934 13.2001C9.92497 13.0667 9.72378 12.9812 9.51092 12.9523C9.29806 12.9235 9.08135 12.9524 8.8835 13.0361C8.68565 13.1197 8.51395 13.2551 8.38635 13.4278C8.25876 13.6006 8.17996 13.8046 8.15824 14.0183C8.13331 14.2375 8.16453 14.4595 8.24898 14.6633C8.33343 14.8671 8.46834 15.0461 8.64101 15.1835C9.98402 16.4032 11.3257 17.6246 12.666 18.8476C12.7861 18.9881 12.936 19.1002 13.1046 19.176C13.2731 19.2518 13.4564 19.2894 13.6412 19.2861C13.8261 19.2829 14.0079 19.2387 14.1737 19.157C14.3395 19.0752 14.4852 18.9579 14.6003 18.8132C17.1881 16.2456 19.7752 13.6776 22.3614 11.1094C22.431 11.0406 22.4989 10.9703 22.5611 10.8959C22.6793 10.7554 22.7651 10.5906 22.8122 10.4131C22.8594 10.2357 22.8669 10.05 22.8341 9.86939C22.8015 9.68874 22.7293 9.51752 22.6228 9.36794C22.5164 9.21838 22.3782 9.09413 22.2182 9.00404C21.9586 8.85355 21.6537 8.80038 21.3584 8.85404C21.0631 8.90772 20.7965 9.06473 20.6063 9.29698C18.3212 11.5805 16.0369 13.8645 13.7535 16.149C13.6937 16.2079 13.6291 16.2669 13.5579 16.3348Z" fill="#168B9A"/>
<path d="M13.554 16.335C13.6251 16.267 13.6906 16.208 13.752 16.1459C16.0365 13.8619 18.3208 11.5779 20.6048 9.29387C20.795 9.06162 21.0616 8.90461 21.357 8.85094C21.6523 8.79727 21.957 8.85045 22.2168 9.00094C22.3768 9.09102 22.5149 9.21527 22.6214 9.36484C22.7278 9.51442 22.8 9.68563 22.8327 9.86628C22.8655 10.0469 22.858 10.2325 22.8108 10.41C22.7635 10.5874 22.6778 10.7522 22.5596 10.8927C22.4975 10.9681 22.4287 11.0375 22.36 11.1063C19.7732 13.6746 17.1862 16.2425 14.5989 18.8101C14.4837 18.9547 14.338 19.0721 14.1722 19.1539C14.0065 19.2356 13.8246 19.2797 13.6398 19.2831C13.455 19.2863 13.2717 19.2487 13.1031 19.1729C12.9345 19.0971 12.7847 18.985 12.6645 18.8445C11.3237 17.6226 9.98204 16.4009 8.63956 15.1796C8.46689 15.0422 8.33199 14.8632 8.24754 14.6594C8.16309 14.4555 8.13184 14.2336 8.15677 14.0144C8.17849 13.8006 8.25729 13.5967 8.38488 13.4239C8.51248 13.2511 8.68418 13.1158 8.88203 13.0321C9.07988 12.9485 9.29659 12.9195 9.50945 12.9484C9.72231 12.9773 9.9235 13.0628 10.092 13.1961C10.6058 13.6052 11.0738 14.0725 11.5648 14.516C12.184 15.0805 12.802 15.6465 13.419 16.2138C13.4574 16.2556 13.5016 16.2907 13.554 16.335Z" fill="white"/>
</g>
</g>
</g>
<defs>
<clipPath id="clip0_7524_6162">
<rect width="25" height="25" fill="white" transform="translate(3 1.77563)"/>
</clipPath>
</defs>
</svg>
