<svg width="1200" height="905" viewBox="0 0 1200 905" fill="none" xmlns="http://www.w3.org/2000/svg">
<g clip-path="url(#clip0_7662_5073)">
<rect width="1200" height="905" fill="white"/>
<path d="M1320 -62.8H-120V690.8H1320V-62.8Z" fill="white"/>
<path d="M1200 0H0V905H1200V0Z" fill="white"/>
<path d="M508.594 344.661L533.307 347.5L521.193 354.703L516.859 368.125L508.594 344.661Z" fill="#F37E5F"/>
<path d="M482.32 459.813L499.951 442.266L498.018 456.229L505.815 467.979L482.32 459.813Z" fill="#BB7C79"/>
<path d="M555.964 555.995L553.234 531.266L562.953 541.484L576.995 542.714L555.964 555.995Z" fill="#817799"/>
<path d="M674.076 552.151L653.039 538.87L667.086 537.641L676.805 527.422L674.076 552.151Z" fill="#48637B"/>
<path d="M747.714 459.807L724.219 467.969L732.01 456.224L730.083 442.255L747.714 459.807Z" fill="#48A5D9"/>
<path d="M721.432 344.656L713.161 368.12L708.844 354.698L696.719 347.5L721.432 344.656Z" fill="#F35F67"/>
<path d="M615.016 293.411L628.208 314.505L615.021 309.521L601.828 314.505L615.016 293.411Z" fill="#FDAE48"/>
<path d="M517.294 290.87C517.294 332.927 483.201 367.021 441.148 367.021C399.086 367.021 364.992 332.927 364.992 290.87C364.992 248.813 399.086 214.719 441.148 214.719C483.201 214.719 517.294 248.813 517.294 290.87Z" fill="#F37E5F"/>
<mask id="mask0_7662_5073" style="mask-type:luminance" maskUnits="userSpaceOnUse" x="322" y="401" width="154" height="155">
<path d="M322 401.938H475.099V555.271H322V401.938Z" fill="white"/>
</mask>
<g mask="url(#mask0_7662_5073)">
<path d="M474.341 478.995C474.341 521.047 440.247 555.146 398.195 555.146C356.133 555.146 322.039 521.047 322.039 478.995C322.039 436.938 356.133 402.844 398.195 402.844C440.247 402.844 474.341 436.938 474.341 478.995Z" fill="#BB7C79"/>
</g>
<mask id="mask1_7662_5073" style="mask-type:luminance" maskUnits="userSpaceOnUse" x="441" y="553" width="155" height="153">
<path d="M441.977 553.495H595.102V706H441.977V553.495Z" fill="white"/>
</mask>
<g mask="url(#mask1_7662_5073)">
<path d="M594.661 629.859C594.661 671.917 560.568 706.016 518.505 706.016C476.448 706.016 442.359 671.917 442.359 629.859C442.359 587.807 476.448 553.714 518.505 553.714C560.568 553.714 594.661 587.807 594.661 629.859Z" fill="#817799"/>
</g>
<mask id="mask2_7662_5073" style="mask-type:luminance" maskUnits="userSpaceOnUse" x="635" y="553" width="154" height="153">
<path d="M635.102 553.495H788.164V706H635.102V553.495Z" fill="white"/>
</mask>
<g mask="url(#mask2_7662_5073)">
<path d="M787.643 629.859C787.643 671.911 753.549 706.01 711.492 706.01C669.435 706.01 635.336 671.911 635.336 629.859C635.336 587.807 669.435 553.708 711.492 553.708C753.549 553.708 787.643 587.807 787.643 629.859Z" fill="#48637B"/>
</g>
<mask id="mask3_7662_5073" style="mask-type:luminance" maskUnits="userSpaceOnUse" x="755" y="402" width="153" height="154">
<path d="M755.453 402.214H907.953V555.271H755.453V402.214Z" fill="white"/>
</mask>
<g mask="url(#mask3_7662_5073)">
<path d="M907.958 478.99C907.958 521.047 873.87 555.141 831.813 555.141C789.75 555.141 755.656 521.047 755.656 478.99C755.656 436.927 789.75 402.844 831.813 402.844C873.87 402.844 907.958 436.927 907.958 478.99Z" fill="#48A5D9"/>
</g>
<path d="M865.029 290.865C865.029 332.922 830.935 367.016 788.878 367.016C746.82 367.016 712.727 332.922 712.727 290.865C712.727 248.807 746.82 214.714 788.878 214.714C830.935 214.714 865.029 248.807 865.029 290.865Z" fill="#F35F67"/>
<mask id="mask4_7662_5073" style="mask-type:luminance" maskUnits="userSpaceOnUse" x="537" y="131" width="156" height="154">
<path d="M537.766 131H692.432V284.604H537.766V131Z" fill="white"/>
</mask>
<g mask="url(#mask4_7662_5073)">
<path d="M691.161 207.146C691.161 249.198 657.068 283.297 615.016 283.297C572.953 283.297 538.859 249.198 538.859 207.146C538.859 165.094 572.953 130.995 615.016 130.995C657.068 130.995 691.161 165.094 691.161 207.146Z" fill="#F9A44A"/>
</g>
<mask id="mask5_7662_5073" style="mask-type:luminance" maskUnits="userSpaceOnUse" x="549" y="141" width="132" height="132">
<path d="M549.359 141.49H680.672V272.802H549.359V141.49Z" fill="white"/>
</mask>
<g mask="url(#mask5_7662_5073)">
<mask id="mask6_7662_5073" style="mask-type:luminance" maskUnits="userSpaceOnUse" x="549" y="141" width="132" height="132">
<path d="M680.672 207.146C680.672 243.406 651.276 272.802 615.021 272.802C578.76 272.802 549.359 243.406 549.359 207.146C549.359 170.885 578.76 141.49 615.021 141.49C651.276 141.49 680.672 170.885 680.672 207.146Z" fill="white"/>
</mask>
<g mask="url(#mask6_7662_5073)">
<mask id="mask7_7662_5073" style="mask-type:luminance" maskUnits="userSpaceOnUse" x="549" y="141" width="132" height="132">
<path d="M680.672 207.146C680.672 243.406 651.276 272.802 615.021 272.802C578.76 272.802 549.359 243.406 549.359 207.146C549.359 170.885 578.76 141.49 615.021 141.49C651.276 141.49 680.672 170.885 680.672 207.146Z" fill="white"/>
</mask>
<g mask="url(#mask7_7662_5073)">
<path d="M549.359 272.802H680.672V141.49H549.359V272.802Z" fill="url(#paint0_linear_7662_5073)"/>
</g>
</g>
</g>
<path d="M562.542 338.854L562.526 338.828C536.536 353.865 519.318 378.536 512.969 405.906L517.62 402.604L522.526 399.115L525.797 404.172L528.896 408.958C534.328 386.276 548.62 365.839 570.073 353.203L573.802 342.089L562.542 338.854Z" fill="#F37E5F"/>
<path d="M511.393 414.047L511.367 414.042C506.914 443.734 515.477 472.578 532.914 494.604L533.237 488.911L533.565 482.901L539.56 483.495L545.232 484.062C530.878 465.661 523.81 441.75 527.315 417.104L520.951 407.26L511.393 414.047Z" fill="#BB7C79"/>
<path d="M538.294 500.917L538.273 500.932C558.716 522.927 586.602 534.214 614.701 534.318L610.451 530.521L605.956 526.505L610.154 522.198L614.133 518.12C590.805 517.865 567.69 508.479 550.607 490.37L538.951 489.214L538.294 500.917Z" fill="#817799"/>
<path d="M622.992 534.047V534.073C652.93 531.807 679.143 517.042 696.737 495.135L691.122 496.094L685.18 497.109L684.435 491.13L683.716 485.479C668.977 503.562 647.232 515.776 622.424 517.844L614.242 526.24L622.992 534.047Z" fill="#48637B"/>
<path d="M701.695 488.49L701.716 488.5C718.612 463.688 723.409 433.979 717.263 406.562L714.497 411.557L711.586 416.833L706.456 413.698L701.591 410.729C706.534 433.526 702.518 458.141 688.68 478.823L690.143 490.453L701.695 488.49Z" fill="#48A5D9"/>
<path d="M715.146 398.552L715.172 398.547C706.302 369.854 686.073 347.583 660.807 335.302L662.984 340.573L665.292 346.141L659.635 348.193L654.281 350.146C675.198 360.495 691.938 378.979 699.479 402.708L709.484 408.807L715.146 398.552Z" fill="#F35F67"/>
<path d="M653.224 331.958L653.229 331.932C625.271 320.984 595.245 322.911 569.891 335.01L575.37 336.589L581.161 338.255L579.245 343.958L577.432 349.365C598.557 339.469 623.453 337.896 646.698 346.797L657.714 342.781L653.224 331.958Z" fill="#FDAE48"/>
<path d="M536.057 420.83L545.897 407.81H553.217L543.347 420.83H536.057ZM536.057 425V420.83L539.327 420.05H552.947V425H536.057ZM536.537 408.59V403.64H553.217V407.81L549.887 408.59H536.537ZM562.438 425.36C560.818 425.36 559.368 425.03 558.088 424.37C556.828 423.69 555.828 422.76 555.088 421.58C554.368 420.4 554.008 419.07 554.008 417.59C554.008 416.11 554.368 414.79 555.088 413.63C555.808 412.47 556.798 411.56 558.058 410.9C559.338 410.22 560.788 409.88 562.408 409.88C564.028 409.88 565.468 410.22 566.728 410.9C567.988 411.56 568.978 412.47 569.698 413.63C570.438 414.79 570.808 416.11 570.808 417.59C570.808 419.07 570.448 420.4 569.728 421.58C569.008 422.76 568.018 423.69 566.758 424.37C565.498 425.03 564.058 425.36 562.438 425.36ZM562.408 420.2C562.908 420.2 563.338 420.1 563.698 419.9C564.078 419.68 564.368 419.38 564.568 419C564.768 418.6 564.868 418.14 564.868 417.62C564.868 417.1 564.758 416.65 564.538 416.27C564.338 415.87 564.058 415.57 563.698 415.37C563.338 415.15 562.908 415.04 562.408 415.04C561.928 415.04 561.498 415.15 561.118 415.37C560.758 415.59 560.468 415.9 560.248 416.3C560.048 416.68 559.948 417.13 559.948 417.65C559.948 418.15 560.048 418.6 560.248 419C560.468 419.38 560.758 419.68 561.118 419.9C561.498 420.1 561.928 420.2 562.408 420.2ZM582.025 425V416.72C582.025 416.14 581.855 415.7 581.515 415.4C581.195 415.08 580.785 414.92 580.285 414.92C579.945 414.92 579.635 414.99 579.355 415.13C579.095 415.27 578.885 415.48 578.725 415.76C578.585 416.02 578.515 416.34 578.515 416.72L576.235 415.7C576.235 414.5 576.475 413.47 576.955 412.61C577.455 411.75 578.135 411.09 578.995 410.63C579.875 410.17 580.895 409.94 582.055 409.94C583.255 409.94 584.295 410.18 585.175 410.66C586.055 411.12 586.725 411.76 587.185 412.58C587.665 413.38 587.905 414.31 587.905 415.37V425H582.025ZM572.635 425V403.04H578.515V425H572.635ZM597.858 425.36C596.238 425.36 594.788 425.03 593.508 424.37C592.248 423.69 591.248 422.76 590.508 421.58C589.788 420.4 589.428 419.07 589.428 417.59C589.428 416.11 589.788 414.79 590.508 413.63C591.228 412.47 592.218 411.56 593.478 410.9C594.758 410.22 596.208 409.88 597.828 409.88C599.448 409.88 600.888 410.22 602.148 410.9C603.408 411.56 604.398 412.47 605.118 413.63C605.858 414.79 606.228 416.11 606.228 417.59C606.228 419.07 605.868 420.4 605.148 421.58C604.428 422.76 603.438 423.69 602.178 424.37C600.918 425.03 599.478 425.36 597.858 425.36ZM597.828 420.2C598.328 420.2 598.758 420.1 599.118 419.9C599.498 419.68 599.788 419.38 599.988 419C600.188 418.6 600.288 418.14 600.288 417.62C600.288 417.1 600.178 416.65 599.958 416.27C599.758 415.87 599.478 415.57 599.118 415.37C598.758 415.15 598.328 415.04 597.828 415.04C597.348 415.04 596.918 415.15 596.538 415.37C596.178 415.59 595.888 415.9 595.668 416.3C595.468 416.68 595.368 417.13 595.368 417.65C595.368 418.15 595.468 418.6 595.668 419C595.888 419.38 596.178 419.68 596.538 419.9C596.918 420.1 597.348 420.2 597.828 420.2ZM608.758 419.81V414.89H619.828V419.81H608.758ZM634.15 425.36C632.51 425.36 630.98 425.09 629.56 424.55C628.16 423.99 626.93 423.21 625.87 422.21C624.81 421.21 623.98 420.04 623.38 418.7C622.8 417.34 622.51 415.87 622.51 414.29C622.51 412.69 622.8 411.22 623.38 409.88C623.98 408.54 624.8 407.38 625.84 406.4C626.9 405.42 628.13 404.66 629.53 404.12C630.93 403.56 632.45 403.28 634.09 403.28C635.75 403.28 637.27 403.54 638.65 404.06C640.03 404.58 641.23 405.3 642.25 406.22L638.26 410.24C637.78 409.72 637.19 409.31 636.49 409.01C635.81 408.71 635.01 408.56 634.09 408.56C633.29 408.56 632.55 408.69 631.87 408.95C631.21 409.21 630.64 409.59 630.16 410.09C629.68 410.59 629.3 411.2 629.02 411.92C628.76 412.62 628.63 413.41 628.63 414.29C628.63 415.19 628.76 416 629.02 416.72C629.3 417.42 629.68 418.02 630.16 418.52C630.64 419.02 631.21 419.41 631.87 419.69C632.55 419.95 633.29 420.08 634.09 420.08C634.99 420.08 635.79 419.94 636.49 419.66C637.21 419.38 637.83 418.97 638.35 418.43L642.37 422.45C641.31 423.37 640.12 424.09 638.8 424.61C637.48 425.11 635.93 425.36 634.15 425.36ZM649.31 416.48V412.34H652.94C653.76 412.34 654.38 412.14 654.8 411.74C655.24 411.34 655.46 410.81 655.46 410.15C655.46 409.49 655.24 408.96 654.8 408.56C654.38 408.16 653.76 407.96 652.94 407.96H649.31V403.64H653.9C655.38 403.64 656.68 403.91 657.8 404.45C658.92 404.99 659.8 405.74 660.44 406.7C661.08 407.66 661.4 408.78 661.4 410.06C661.4 411.34 661.07 412.46 660.41 413.42C659.77 414.38 658.87 415.13 657.71 415.67C656.55 416.21 655.18 416.48 653.6 416.48H649.31ZM644.45 425V403.64H650.45V425H644.45ZM655.97 425L650.15 415.88L655.55 414.71L662.78 425H655.97ZM664.284 425V403.64H668.634L676.584 415.28H674.694L682.614 403.64H686.964V425H681.024V413.48L681.894 413.72L677.544 419.96H673.704L669.384 413.72L670.224 413.48V425H664.284ZM588.812 457.5V453.18H592.682C593.142 453.18 593.562 453.09 593.942 452.91C594.342 452.71 594.662 452.42 594.902 452.04C595.142 451.64 595.262 451.15 595.262 450.57C595.262 449.99 595.142 449.51 594.902 449.13C594.662 448.73 594.342 448.44 593.942 448.26C593.562 448.06 593.142 447.96 592.682 447.96H588.812V443.64H593.852C595.232 443.64 596.472 443.92 597.572 444.48C598.692 445.02 599.572 445.81 600.212 446.85C600.872 447.87 601.202 449.11 601.202 450.57C601.202 452.01 600.872 453.25 600.212 454.29C599.572 455.33 598.692 456.13 597.572 456.69C596.472 457.23 595.232 457.5 593.852 457.5H588.812ZM583.952 465V443.64H589.952V465H583.952ZM603.162 465V443.04H609.042V465H603.162ZM618.883 465.36C617.443 465.36 616.163 465.08 615.043 464.52C613.943 463.96 613.073 463.18 612.433 462.18C611.793 461.18 611.473 460.04 611.473 458.76V450.24H617.353V458.82C617.353 459.12 617.413 459.39 617.533 459.63C617.673 459.87 617.853 460.06 618.073 460.2C618.313 460.32 618.583 460.38 618.883 460.38C619.303 460.38 619.653 460.24 619.933 459.96C620.233 459.66 620.383 459.28 620.383 458.82V450.24H626.263V458.76C626.263 460.06 625.943 461.21 625.303 462.21C624.683 463.19 623.813 463.96 622.693 464.52C621.593 465.08 620.323 465.36 618.883 465.36ZM634.56 465.45C633.64 465.45 632.72 465.33 631.8 465.09C630.88 464.85 630.02 464.52 629.22 464.1C628.44 463.68 627.78 463.2 627.24 462.66L630.33 459.48C630.81 459.96 631.38 460.34 632.04 460.62C632.72 460.9 633.43 461.04 634.17 461.04C634.51 461.04 634.77 461 634.95 460.92C635.15 460.82 635.25 460.69 635.25 460.53C635.25 460.25 635.08 460.04 634.74 459.9C634.42 459.76 634 459.63 633.48 459.51C632.98 459.39 632.44 459.24 631.86 459.06C631.3 458.86 630.76 458.6 630.24 458.28C629.72 457.94 629.3 457.48 628.98 456.9C628.66 456.3 628.5 455.54 628.5 454.62C628.5 453.68 628.76 452.85 629.28 452.13C629.82 451.39 630.57 450.81 631.53 450.39C632.51 449.95 633.64 449.73 634.92 449.73C636.22 449.73 637.48 449.95 638.7 450.39C639.92 450.83 640.89 451.49 641.61 452.37L638.49 455.55C637.99 454.99 637.44 454.62 636.84 454.44C636.24 454.24 635.74 454.14 635.34 454.14C634.96 454.14 634.69 454.2 634.53 454.32C634.39 454.42 634.32 454.55 634.32 454.71C634.32 454.93 634.48 455.11 634.8 455.25C635.12 455.39 635.53 455.52 636.03 455.64C636.55 455.76 637.09 455.92 637.65 456.12C638.21 456.32 638.74 456.6 639.24 456.96C639.76 457.32 640.18 457.8 640.5 458.4C640.82 458.98 640.98 459.74 640.98 460.68C640.98 462.14 640.4 463.3 639.24 464.16C638.08 465.02 636.52 465.45 634.56 465.45Z" fill="#006EB9"/>
<mask id="mask8_7662_5073" style="mask-type:luminance" maskUnits="userSpaceOnUse" x="375" y="225" width="132" height="132">
<path d="M375.484 225.214H506.802V356.531H375.484V225.214Z" fill="white"/>
</mask>
<g mask="url(#mask8_7662_5073)">
<mask id="mask9_7662_5073" style="mask-type:luminance" maskUnits="userSpaceOnUse" x="375" y="225" width="132" height="132">
<path d="M506.802 290.87C506.802 327.125 477.401 356.531 441.146 356.531C404.885 356.531 375.484 327.125 375.484 290.87C375.484 254.615 404.885 225.214 441.146 225.214C477.401 225.214 506.802 254.615 506.802 290.87Z" fill="white"/>
</mask>
<g mask="url(#mask9_7662_5073)">
<mask id="mask10_7662_5073" style="mask-type:luminance" maskUnits="userSpaceOnUse" x="375" y="225" width="132" height="132">
<path d="M506.802 290.87C506.802 327.125 477.401 356.531 441.146 356.531C404.885 356.531 375.484 327.125 375.484 290.87C375.484 254.615 404.885 225.214 441.146 225.214C477.401 225.214 506.802 254.615 506.802 290.87Z" fill="white"/>
</mask>
<g mask="url(#mask10_7662_5073)">
<path d="M375.484 356.531H506.802V225.214H375.484V356.531Z" fill="url(#paint1_linear_7662_5073)"/>
</g>
</g>
</g>
<path d="M418.531 282.02L424.921 273.254H428.341L421.933 282.02H418.531ZM418.531 284V282.02L420.403 281.57H428.179V284H418.531ZM418.891 273.722V271.292H428.341V273.254L426.433 273.722H418.891ZM433.722 284.198C432.822 284.198 432.006 284 431.274 283.604C430.554 283.196 429.984 282.644 429.564 281.948C429.144 281.252 428.934 280.472 428.934 279.608C428.934 278.744 429.144 277.97 429.564 277.286C429.984 276.602 430.554 276.062 431.274 275.666C431.994 275.258 432.81 275.054 433.722 275.054C434.634 275.054 435.45 275.252 436.17 275.648C436.89 276.044 437.46 276.59 437.88 277.286C438.3 277.97 438.51 278.744 438.51 279.608C438.51 280.472 438.3 281.252 437.88 281.948C437.46 282.644 436.89 283.196 436.17 283.604C435.45 284 434.634 284.198 433.722 284.198ZM433.722 281.696C434.118 281.696 434.466 281.612 434.766 281.444C435.066 281.264 435.294 281.018 435.45 280.706C435.618 280.382 435.702 280.016 435.702 279.608C435.702 279.2 435.618 278.846 435.45 278.546C435.282 278.234 435.048 277.994 434.748 277.826C434.46 277.646 434.118 277.556 433.722 277.556C433.338 277.556 432.996 277.646 432.696 277.826C432.396 277.994 432.162 278.234 431.994 278.546C431.826 278.858 431.742 279.218 431.742 279.626C431.742 280.022 431.826 280.382 431.994 280.706C432.162 281.018 432.396 281.264 432.696 281.444C432.996 281.612 433.338 281.696 433.722 281.696ZM445.659 284V279.014C445.659 278.558 445.515 278.192 445.227 277.916C444.951 277.628 444.597 277.484 444.165 277.484C443.865 277.484 443.601 277.55 443.373 277.682C443.145 277.802 442.965 277.982 442.833 278.222C442.701 278.45 442.635 278.714 442.635 279.014L441.573 278.492C441.573 277.808 441.717 277.208 442.005 276.692C442.293 276.176 442.695 275.78 443.211 275.504C443.727 275.216 444.321 275.072 444.993 275.072C445.677 275.072 446.277 275.216 446.793 275.504C447.309 275.78 447.705 276.17 447.981 276.674C448.269 277.166 448.413 277.742 448.413 278.402V284H445.659ZM439.881 284V270.932H442.635V284H439.881ZM454.394 284.198C453.494 284.198 452.678 284 451.946 283.604C451.226 283.196 450.656 282.644 450.236 281.948C449.816 281.252 449.606 280.472 449.606 279.608C449.606 278.744 449.816 277.97 450.236 277.286C450.656 276.602 451.226 276.062 451.946 275.666C452.666 275.258 453.482 275.054 454.394 275.054C455.306 275.054 456.122 275.252 456.842 275.648C457.562 276.044 458.132 276.59 458.552 277.286C458.972 277.97 459.182 278.744 459.182 279.608C459.182 280.472 458.972 281.252 458.552 281.948C458.132 282.644 457.562 283.196 456.842 283.604C456.122 284 455.306 284.198 454.394 284.198ZM454.394 281.696C454.79 281.696 455.138 281.612 455.438 281.444C455.738 281.264 455.966 281.018 456.122 280.706C456.29 280.382 456.374 280.016 456.374 279.608C456.374 279.2 456.29 278.846 456.122 278.546C455.954 278.234 455.72 277.994 455.42 277.826C455.132 277.646 454.79 277.556 454.394 277.556C454.01 277.556 453.668 277.646 453.368 277.826C453.068 277.994 452.834 278.234 452.666 278.546C452.498 278.858 452.414 279.218 452.414 279.626C452.414 280.022 452.498 280.382 452.666 280.706C452.834 281.018 453.068 281.264 453.368 281.444C453.668 281.612 454.01 281.696 454.394 281.696ZM400.864 312.198C399.916 312.198 399.034 312.036 398.218 311.712C397.414 311.376 396.706 310.908 396.094 310.308C395.494 309.708 395.026 309.012 394.69 308.22C394.354 307.416 394.186 306.552 394.186 305.628C394.186 304.704 394.354 303.846 394.69 303.054C395.026 302.25 395.494 301.554 396.094 300.966C396.694 300.378 397.396 299.922 398.2 299.598C399.016 299.262 399.898 299.094 400.846 299.094C401.854 299.094 402.748 299.256 403.528 299.58C404.32 299.904 405.01 300.348 405.598 300.912L403.708 302.82C403.372 302.46 402.964 302.178 402.484 301.974C402.016 301.77 401.47 301.668 400.846 301.668C400.294 301.668 399.784 301.764 399.316 301.956C398.86 302.136 398.464 302.4 398.128 302.748C397.804 303.096 397.546 303.516 397.354 304.008C397.174 304.5 397.084 305.04 397.084 305.628C397.084 306.228 397.174 306.774 397.354 307.266C397.546 307.758 397.804 308.178 398.128 308.526C398.464 308.874 398.86 309.144 399.316 309.336C399.784 309.528 400.294 309.624 400.846 309.624C401.494 309.624 402.058 309.522 402.538 309.318C403.018 309.114 403.432 308.832 403.78 308.472L405.688 310.38C405.076 310.944 404.374 311.388 403.582 311.712C402.802 312.036 401.896 312.198 400.864 312.198ZM410.436 312.18C409.632 312.18 408.912 311.982 408.276 311.586C407.652 311.19 407.154 310.65 406.782 309.966C406.422 309.282 406.242 308.502 406.242 307.626C406.242 306.75 406.422 305.97 406.782 305.286C407.154 304.602 407.652 304.062 408.276 303.666C408.912 303.27 409.632 303.072 410.436 303.072C411.024 303.072 411.552 303.186 412.02 303.414C412.5 303.642 412.89 303.96 413.19 304.368C413.49 304.764 413.658 305.22 413.694 305.736V309.516C413.658 310.032 413.49 310.494 413.19 310.902C412.902 311.298 412.518 311.61 412.038 311.838C411.558 312.066 411.024 312.18 410.436 312.18ZM410.994 309.696C411.582 309.696 412.056 309.504 412.416 309.12C412.776 308.724 412.956 308.226 412.956 307.626C412.956 307.218 412.872 306.858 412.704 306.546C412.548 306.234 412.32 305.994 412.02 305.826C411.732 305.646 411.396 305.556 411.012 305.556C410.628 305.556 410.286 305.646 409.986 305.826C409.698 305.994 409.464 306.234 409.284 306.546C409.116 306.858 409.032 307.218 409.032 307.626C409.032 308.022 409.116 308.376 409.284 308.688C409.452 309 409.686 309.246 409.986 309.426C410.286 309.606 410.622 309.696 410.994 309.696ZM412.848 312V309.642L413.262 307.518L412.848 305.394V303.252H415.548V312H412.848ZM417.487 312V303.252H420.241V312H417.487ZM423.085 312V306.888C423.085 306.444 422.947 306.102 422.671 305.862C422.407 305.61 422.077 305.484 421.681 305.484C421.405 305.484 421.159 305.544 420.943 305.664C420.727 305.772 420.553 305.928 420.421 306.132C420.301 306.336 420.241 306.588 420.241 306.888L419.179 306.42C419.179 305.724 419.329 305.13 419.629 304.638C419.929 304.134 420.337 303.75 420.853 303.486C421.369 303.21 421.951 303.072 422.599 303.072C423.211 303.072 423.757 303.21 424.237 303.486C424.729 303.762 425.119 304.146 425.407 304.638C425.695 305.13 425.839 305.718 425.839 306.402V312H423.085ZM428.683 312V306.888C428.683 306.444 428.545 306.102 428.269 305.862C428.005 305.61 427.675 305.484 427.279 305.484C427.003 305.484 426.757 305.544 426.541 305.664C426.325 305.772 426.151 305.928 426.019 306.132C425.899 306.336 425.839 306.588 425.839 306.888L424.255 306.672C424.279 305.928 424.453 305.292 424.777 304.764C425.113 304.224 425.551 303.81 426.091 303.522C426.643 303.222 427.261 303.072 427.945 303.072C428.617 303.072 429.211 303.216 429.727 303.504C430.255 303.78 430.669 304.182 430.969 304.71C431.281 305.226 431.437 305.85 431.437 306.582V312H428.683ZM438.241 312.18C437.653 312.18 437.113 312.066 436.621 311.838C436.129 311.61 435.727 311.298 435.415 310.902C435.103 310.494 434.923 310.032 434.875 309.516V305.826C434.923 305.31 435.103 304.842 435.415 304.422C435.727 304.002 436.129 303.672 436.621 303.432C437.113 303.192 437.653 303.072 438.241 303.072C439.069 303.072 439.801 303.27 440.437 303.666C441.085 304.062 441.589 304.602 441.949 305.286C442.321 305.97 442.507 306.75 442.507 307.626C442.507 308.502 442.321 309.282 441.949 309.966C441.589 310.65 441.085 311.19 440.437 311.586C439.801 311.982 439.069 312.18 438.241 312.18ZM433.201 315.69V303.252H435.955V305.502L435.505 307.626L435.919 309.75V315.69H433.201ZM437.737 309.696C438.133 309.696 438.475 309.606 438.763 309.426C439.063 309.246 439.297 309 439.465 308.688C439.633 308.376 439.717 308.022 439.717 307.626C439.717 307.218 439.633 306.858 439.465 306.546C439.297 306.234 439.063 305.994 438.763 305.826C438.475 305.646 438.139 305.556 437.755 305.556C437.371 305.556 437.029 305.646 436.729 305.826C436.441 305.994 436.213 306.234 436.045 306.546C435.877 306.858 435.793 307.218 435.793 307.626C435.793 308.022 435.871 308.376 436.027 308.688C436.195 309 436.429 309.246 436.729 309.426C437.029 309.606 437.365 309.696 437.737 309.696ZM447.561 312.18C446.757 312.18 446.037 311.982 445.401 311.586C444.777 311.19 444.279 310.65 443.907 309.966C443.547 309.282 443.367 308.502 443.367 307.626C443.367 306.75 443.547 305.97 443.907 305.286C444.279 304.602 444.777 304.062 445.401 303.666C446.037 303.27 446.757 303.072 447.561 303.072C448.149 303.072 448.677 303.186 449.145 303.414C449.625 303.642 450.015 303.96 450.315 304.368C450.615 304.764 450.783 305.22 450.819 305.736V309.516C450.783 310.032 450.615 310.494 450.315 310.902C450.027 311.298 449.643 311.61 449.163 311.838C448.683 312.066 448.149 312.18 447.561 312.18ZM448.119 309.696C448.707 309.696 449.181 309.504 449.541 309.12C449.901 308.724 450.081 308.226 450.081 307.626C450.081 307.218 449.997 306.858 449.829 306.546C449.673 306.234 449.445 305.994 449.145 305.826C448.857 305.646 448.521 305.556 448.137 305.556C447.753 305.556 447.411 305.646 447.111 305.826C446.823 305.994 446.589 306.234 446.409 306.546C446.241 306.858 446.157 307.218 446.157 307.626C446.157 308.022 446.241 308.376 446.409 308.688C446.577 309 446.811 309.246 447.111 309.426C447.411 309.606 447.747 309.696 448.119 309.696ZM449.973 312V309.642L450.387 307.518L449.973 305.394V303.252H452.673V312H449.973ZM454.612 312V303.252H457.366V312H454.612ZM455.998 302.046C455.566 302.046 455.206 301.902 454.918 301.614C454.642 301.314 454.504 300.954 454.504 300.534C454.504 300.102 454.642 299.742 454.918 299.454C455.206 299.166 455.566 299.022 455.998 299.022C456.43 299.022 456.784 299.166 457.06 299.454C457.336 299.742 457.474 300.102 457.474 300.534C457.474 300.954 457.336 301.314 457.06 301.614C456.784 301.902 456.43 302.046 455.998 302.046ZM463.013 315.924C462.053 315.924 461.207 315.756 460.475 315.42C459.755 315.096 459.185 314.634 458.765 314.034L460.457 312.342C460.769 312.714 461.117 312.996 461.501 313.188C461.897 313.38 462.371 313.476 462.923 313.476C463.607 313.476 464.141 313.308 464.525 312.972C464.921 312.636 465.119 312.162 465.119 311.55V309.318L465.587 307.41L465.173 305.502V303.252H467.873V311.478C467.873 312.378 467.663 313.158 467.243 313.818C466.823 314.478 466.247 314.994 465.515 315.366C464.783 315.738 463.949 315.924 463.013 315.924ZM462.887 311.73C462.083 311.73 461.369 311.538 460.745 311.154C460.121 310.77 459.629 310.248 459.269 309.588C458.909 308.928 458.729 308.196 458.729 307.392C458.729 306.576 458.909 305.844 459.269 305.196C459.629 304.536 460.121 304.02 460.745 303.648C461.369 303.264 462.083 303.072 462.887 303.072C463.487 303.072 464.021 303.186 464.489 303.414C464.969 303.63 465.353 303.942 465.641 304.35C465.941 304.746 466.109 305.208 466.145 305.736V309.066C466.109 309.582 465.941 310.044 465.641 310.452C465.353 310.848 464.969 311.16 464.489 311.388C464.009 311.616 463.475 311.73 462.887 311.73ZM463.409 309.282C463.793 309.282 464.123 309.198 464.399 309.03C464.687 308.862 464.903 308.64 465.047 308.364C465.203 308.076 465.281 307.752 465.281 307.392C465.281 307.032 465.203 306.708 465.047 306.42C464.903 306.132 464.687 305.904 464.399 305.736C464.123 305.568 463.793 305.484 463.409 305.484C463.037 305.484 462.707 305.568 462.419 305.736C462.131 305.904 461.909 306.132 461.753 306.42C461.597 306.708 461.519 307.032 461.519 307.392C461.519 307.728 461.597 308.046 461.753 308.346C461.909 308.634 462.125 308.862 462.401 309.03C462.689 309.198 463.025 309.282 463.409 309.282ZM475.595 312V307.014C475.595 306.558 475.451 306.192 475.163 305.916C474.887 305.628 474.533 305.484 474.101 305.484C473.801 305.484 473.537 305.55 473.309 305.682C473.081 305.802 472.901 305.982 472.769 306.222C472.637 306.45 472.571 306.714 472.571 307.014L471.509 306.492C471.509 305.808 471.659 305.208 471.959 304.692C472.259 304.176 472.673 303.78 473.201 303.504C473.741 303.216 474.347 303.072 475.019 303.072C475.667 303.072 476.237 303.228 476.729 303.54C477.233 303.84 477.629 304.242 477.917 304.746C478.205 305.25 478.349 305.802 478.349 306.402V312H475.595ZM469.817 312V303.252H472.571V312H469.817ZM483.304 312.216C482.788 312.216 482.278 312.15 481.774 312.018C481.282 311.886 480.82 311.7 480.388 311.46C479.968 311.208 479.608 310.92 479.308 310.596L480.874 309.012C481.162 309.324 481.504 309.57 481.9 309.75C482.296 309.918 482.728 310.002 483.196 310.002C483.52 310.002 483.766 309.954 483.934 309.858C484.114 309.762 484.204 309.63 484.204 309.462C484.204 309.246 484.096 309.084 483.88 308.976C483.676 308.856 483.412 308.754 483.088 308.67C482.764 308.574 482.422 308.472 482.062 308.364C481.702 308.256 481.36 308.106 481.036 307.914C480.712 307.722 480.448 307.458 480.244 307.122C480.04 306.774 479.938 306.336 479.938 305.808C479.938 305.244 480.082 304.758 480.37 304.35C480.658 303.93 481.066 303.6 481.594 303.36C482.122 303.12 482.74 303 483.448 303C484.192 303 484.876 303.132 485.5 303.396C486.136 303.648 486.652 304.026 487.048 304.53L485.482 306.114C485.206 305.79 484.894 305.562 484.546 305.43C484.21 305.298 483.88 305.232 483.556 305.232C483.244 305.232 483.01 305.28 482.854 305.376C482.698 305.46 482.62 305.586 482.62 305.754C482.62 305.934 482.722 306.078 482.926 306.186C483.13 306.294 483.394 306.39 483.718 306.474C484.042 306.558 484.384 306.66 484.744 306.78C485.104 306.9 485.446 307.062 485.77 307.266C486.094 307.47 486.358 307.746 486.562 308.094C486.766 308.43 486.868 308.874 486.868 309.426C486.868 310.278 486.544 310.956 485.896 311.46C485.26 311.964 484.396 312.216 483.304 312.216Z" fill="black"/>
<path d="M561.796 213.02L568.186 204.254H571.606L565.198 213.02H561.796ZM561.796 215V213.02L563.668 212.57H571.444V215H561.796ZM562.156 204.722V202.292H571.606V204.254L569.698 204.722H562.156ZM576.987 215.198C576.087 215.198 575.271 215 574.539 214.604C573.819 214.196 573.249 213.644 572.829 212.948C572.409 212.252 572.199 211.472 572.199 210.608C572.199 209.744 572.409 208.97 572.829 208.286C573.249 207.602 573.819 207.062 574.539 206.666C575.259 206.258 576.075 206.054 576.987 206.054C577.899 206.054 578.715 206.252 579.435 206.648C580.155 207.044 580.725 207.59 581.145 208.286C581.565 208.97 581.775 209.744 581.775 210.608C581.775 211.472 581.565 212.252 581.145 212.948C580.725 213.644 580.155 214.196 579.435 214.604C578.715 215 577.899 215.198 576.987 215.198ZM576.987 212.696C577.383 212.696 577.731 212.612 578.031 212.444C578.331 212.264 578.559 212.018 578.715 211.706C578.883 211.382 578.967 211.016 578.967 210.608C578.967 210.2 578.883 209.846 578.715 209.546C578.547 209.234 578.313 208.994 578.013 208.826C577.725 208.646 577.383 208.556 576.987 208.556C576.603 208.556 576.261 208.646 575.961 208.826C575.661 208.994 575.427 209.234 575.259 209.546C575.091 209.858 575.007 210.218 575.007 210.626C575.007 211.022 575.091 211.382 575.259 211.706C575.427 212.018 575.661 212.264 575.961 212.444C576.261 212.612 576.603 212.696 576.987 212.696ZM588.924 215V210.014C588.924 209.558 588.78 209.192 588.492 208.916C588.216 208.628 587.862 208.484 587.43 208.484C587.13 208.484 586.866 208.55 586.638 208.682C586.41 208.802 586.23 208.982 586.098 209.222C585.966 209.45 585.9 209.714 585.9 210.014L584.838 209.492C584.838 208.808 584.982 208.208 585.27 207.692C585.558 207.176 585.96 206.78 586.476 206.504C586.992 206.216 587.586 206.072 588.258 206.072C588.942 206.072 589.542 206.216 590.058 206.504C590.574 206.78 590.97 207.17 591.246 207.674C591.534 208.166 591.678 208.742 591.678 209.402V215H588.924ZM583.146 215V201.932H585.9V215H583.146ZM597.659 215.198C596.759 215.198 595.943 215 595.211 214.604C594.491 214.196 593.921 213.644 593.501 212.948C593.081 212.252 592.871 211.472 592.871 210.608C592.871 209.744 593.081 208.97 593.501 208.286C593.921 207.602 594.491 207.062 595.211 206.666C595.931 206.258 596.747 206.054 597.659 206.054C598.571 206.054 599.387 206.252 600.107 206.648C600.827 207.044 601.397 207.59 601.817 208.286C602.237 208.97 602.447 209.744 602.447 210.608C602.447 211.472 602.237 212.252 601.817 212.948C601.397 213.644 600.827 214.196 600.107 214.604C599.387 215 598.571 215.198 597.659 215.198ZM597.659 212.696C598.055 212.696 598.403 212.612 598.703 212.444C599.003 212.264 599.231 212.018 599.387 211.706C599.555 211.382 599.639 211.016 599.639 210.608C599.639 210.2 599.555 209.846 599.387 209.546C599.219 209.234 598.985 208.994 598.685 208.826C598.397 208.646 598.055 208.556 597.659 208.556C597.275 208.556 596.933 208.646 596.633 208.826C596.333 208.994 596.099 209.234 595.931 209.546C595.763 209.858 595.679 210.218 595.679 210.626C595.679 211.022 595.763 211.382 595.931 211.706C596.099 212.018 596.333 212.264 596.633 212.444C596.933 212.612 597.275 212.696 597.659 212.696ZM604.187 211.616V209.204H610.559V211.616H604.187ZM616.218 215.198C615.174 215.198 614.274 215.03 613.518 214.694C612.774 214.346 612.09 213.824 611.466 213.128L613.302 211.31C613.71 211.778 614.16 212.144 614.652 212.408C615.156 212.66 615.738 212.786 616.398 212.786C616.998 212.786 617.46 212.678 617.784 212.462C618.12 212.246 618.288 211.946 618.288 211.562C618.288 211.214 618.18 210.932 617.964 210.716C617.748 210.5 617.46 210.314 617.1 210.158C616.752 210.002 616.362 209.852 615.93 209.708C615.51 209.564 615.09 209.402 614.67 209.222C614.25 209.03 613.86 208.796 613.5 208.52C613.152 208.232 612.87 207.878 612.654 207.458C612.438 207.026 612.33 206.486 612.33 205.838C612.33 205.058 612.516 204.386 612.888 203.822C613.272 203.258 613.8 202.832 614.472 202.544C615.144 202.244 615.918 202.094 616.794 202.094C617.682 202.094 618.492 202.25 619.224 202.562C619.968 202.874 620.58 203.3 621.06 203.84L619.224 205.658C618.84 205.262 618.45 204.968 618.054 204.776C617.67 204.584 617.232 204.488 616.74 204.488C616.248 204.488 615.858 204.584 615.57 204.776C615.282 204.956 615.138 205.22 615.138 205.568C615.138 205.892 615.246 206.156 615.462 206.36C615.678 206.552 615.96 206.72 616.308 206.864C616.668 207.008 617.058 207.152 617.478 207.296C617.91 207.44 618.336 207.608 618.756 207.8C619.176 207.992 619.56 208.238 619.908 208.538C620.268 208.826 620.556 209.198 620.772 209.654C620.988 210.098 621.096 210.65 621.096 211.31C621.096 212.522 620.664 213.476 619.8 214.172C618.936 214.856 617.742 215.198 616.218 215.198ZM626.532 215.198C625.728 215.198 625.014 215.036 624.39 214.712C623.778 214.376 623.298 213.92 622.95 213.344C622.602 212.756 622.428 212.084 622.428 211.328V206.252H625.182V211.292C625.182 211.592 625.23 211.85 625.326 212.066C625.434 212.282 625.59 212.45 625.794 212.57C625.998 212.69 626.244 212.75 626.532 212.75C626.94 212.75 627.264 212.624 627.504 212.372C627.744 212.108 627.864 211.748 627.864 211.292V206.252H630.618V211.31C630.618 212.078 630.444 212.756 630.096 213.344C629.748 213.92 629.268 214.376 628.656 214.712C628.044 215.036 627.336 215.198 626.532 215.198ZM632.347 215V206.252H635.101V215H632.347ZM635.101 210.194L633.949 209.294C634.177 208.274 634.561 207.482 635.101 206.918C635.641 206.354 636.391 206.072 637.351 206.072C637.771 206.072 638.137 206.138 638.449 206.27C638.773 206.39 639.055 206.582 639.295 206.846L637.657 208.916C637.537 208.784 637.387 208.682 637.207 208.61C637.027 208.538 636.823 208.502 636.595 208.502C636.139 208.502 635.773 208.646 635.497 208.934C635.233 209.21 635.101 209.63 635.101 210.194ZM642.712 215L639.004 206.252H641.974L644.494 213.542H643.198L645.718 206.252H648.634L644.926 215H642.712ZM653.7 215.198C652.752 215.198 651.906 215.006 651.162 214.622C650.43 214.226 649.854 213.68 649.434 212.984C649.014 212.288 648.804 211.502 648.804 210.626C648.804 209.75 649.008 208.97 649.416 208.286C649.836 207.59 650.4 207.044 651.108 206.648C651.816 206.252 652.614 206.054 653.502 206.054C654.366 206.054 655.128 206.24 655.788 206.612C656.448 206.984 656.964 207.5 657.336 208.16C657.72 208.82 657.912 209.576 657.912 210.428C657.912 210.584 657.9 210.752 657.876 210.932C657.864 211.1 657.834 211.298 657.786 211.526L650.244 211.544V209.654L656.616 209.636L655.428 210.428C655.416 209.924 655.338 209.51 655.194 209.186C655.05 208.85 654.834 208.598 654.546 208.43C654.27 208.25 653.928 208.16 653.52 208.16C653.088 208.16 652.71 208.262 652.386 208.466C652.074 208.658 651.828 208.934 651.648 209.294C651.48 209.654 651.396 210.092 651.396 210.608C651.396 211.124 651.486 211.568 651.666 211.94C651.858 212.3 652.122 212.582 652.458 212.786C652.806 212.978 653.214 213.074 653.682 213.074C654.114 213.074 654.504 213.002 654.852 212.858C655.2 212.702 655.506 212.474 655.77 212.174L657.282 213.686C656.85 214.19 656.328 214.568 655.716 214.82C655.104 215.072 654.432 215.198 653.7 215.198ZM661.801 215.036L658.201 206.252H661.171L663.457 213.218H662.359L664.699 206.252H667.669L663.925 215.036H661.801ZM659.551 218.69L662.179 213.02L663.925 215.036L662.377 218.69H659.551Z" fill="black"/>
<mask id="mask11_7662_5073" style="mask-type:luminance" maskUnits="userSpaceOnUse" x="723" y="225" width="132" height="132">
<path d="M723.227 225.208H854.534V356.526H723.227V225.208Z" fill="white"/>
</mask>
<g mask="url(#mask11_7662_5073)">
<mask id="mask12_7662_5073" style="mask-type:luminance" maskUnits="userSpaceOnUse" x="723" y="225" width="132" height="132">
<path d="M854.534 290.865C854.534 327.125 825.138 356.526 788.878 356.526C752.617 356.526 723.227 327.125 723.227 290.865C723.227 254.609 752.617 225.208 788.878 225.208C825.138 225.208 854.534 254.609 854.534 290.865Z" fill="white"/>
</mask>
<g mask="url(#mask12_7662_5073)">
<mask id="mask13_7662_5073" style="mask-type:luminance" maskUnits="userSpaceOnUse" x="723" y="225" width="132" height="132">
<path d="M854.534 290.865C854.534 327.125 825.138 356.526 788.878 356.526C752.617 356.526 723.227 327.125 723.227 290.865C723.227 254.609 752.617 225.208 788.878 225.208C825.138 225.208 854.534 254.609 854.534 290.865Z" fill="white"/>
</mask>
<g mask="url(#mask13_7662_5073)">
<path d="M723.227 356.526H854.534V225.208H723.227V356.526Z" fill="url(#paint2_linear_7662_5073)"/>
</g>
</g>
</g>
<path d="M744.4 295.02L750.79 286.254H754.21L747.802 295.02H744.4ZM744.4 297V295.02L746.272 294.57H754.048V297H744.4ZM744.76 286.722V284.292H754.21V286.254L752.302 286.722H744.76ZM759.591 297.198C758.691 297.198 757.875 297 757.143 296.604C756.423 296.196 755.853 295.644 755.433 294.948C755.013 294.252 754.803 293.472 754.803 292.608C754.803 291.744 755.013 290.97 755.433 290.286C755.853 289.602 756.423 289.062 757.143 288.666C757.863 288.258 758.679 288.054 759.591 288.054C760.503 288.054 761.319 288.252 762.039 288.648C762.759 289.044 763.329 289.59 763.749 290.286C764.169 290.97 764.379 291.744 764.379 292.608C764.379 293.472 764.169 294.252 763.749 294.948C763.329 295.644 762.759 296.196 762.039 296.604C761.319 297 760.503 297.198 759.591 297.198ZM759.591 294.696C759.987 294.696 760.335 294.612 760.635 294.444C760.935 294.264 761.163 294.018 761.319 293.706C761.487 293.382 761.571 293.016 761.571 292.608C761.571 292.2 761.487 291.846 761.319 291.546C761.151 291.234 760.917 290.994 760.617 290.826C760.329 290.646 759.987 290.556 759.591 290.556C759.207 290.556 758.865 290.646 758.565 290.826C758.265 290.994 758.031 291.234 757.863 291.546C757.695 291.858 757.611 292.218 757.611 292.626C757.611 293.022 757.695 293.382 757.863 293.706C758.031 294.018 758.265 294.264 758.565 294.444C758.865 294.612 759.207 294.696 759.591 294.696ZM771.528 297V292.014C771.528 291.558 771.384 291.192 771.096 290.916C770.82 290.628 770.466 290.484 770.034 290.484C769.734 290.484 769.47 290.55 769.242 290.682C769.014 290.802 768.834 290.982 768.702 291.222C768.57 291.45 768.504 291.714 768.504 292.014L767.442 291.492C767.442 290.808 767.586 290.208 767.874 289.692C768.162 289.176 768.564 288.78 769.08 288.504C769.596 288.216 770.19 288.072 770.862 288.072C771.546 288.072 772.146 288.216 772.662 288.504C773.178 288.78 773.574 289.17 773.85 289.674C774.138 290.166 774.282 290.742 774.282 291.402V297H771.528ZM765.75 297V283.932H768.504V297H765.75ZM780.263 297.198C779.363 297.198 778.547 297 777.815 296.604C777.095 296.196 776.525 295.644 776.105 294.948C775.685 294.252 775.475 293.472 775.475 292.608C775.475 291.744 775.685 290.97 776.105 290.286C776.525 289.602 777.095 289.062 777.815 288.666C778.535 288.258 779.351 288.054 780.263 288.054C781.175 288.054 781.991 288.252 782.711 288.648C783.431 289.044 784.001 289.59 784.421 290.286C784.841 290.97 785.051 291.744 785.051 292.608C785.051 293.472 784.841 294.252 784.421 294.948C784.001 295.644 783.431 296.196 782.711 296.604C781.991 297 781.175 297.198 780.263 297.198ZM780.263 294.696C780.659 294.696 781.007 294.612 781.307 294.444C781.607 294.264 781.835 294.018 781.991 293.706C782.159 293.382 782.243 293.016 782.243 292.608C782.243 292.2 782.159 291.846 781.991 291.546C781.823 291.234 781.589 290.994 781.289 290.826C781.001 290.646 780.659 290.556 780.263 290.556C779.879 290.556 779.537 290.646 779.237 290.826C778.937 290.994 778.703 291.234 778.535 291.546C778.367 291.858 778.283 292.218 778.283 292.626C778.283 293.022 778.367 293.382 778.535 293.706C778.703 294.018 778.937 294.264 779.237 294.444C779.537 294.612 779.879 294.696 780.263 294.696ZM786.791 293.616V291.204H793.163V293.616H786.791ZM799.201 297.18C798.373 297.18 797.635 296.982 796.987 296.586C796.351 296.19 795.847 295.65 795.475 294.966C795.115 294.282 794.935 293.502 794.935 292.626C794.935 291.75 795.115 290.97 795.475 290.286C795.847 289.602 796.351 289.062 796.987 288.666C797.635 288.27 798.373 288.072 799.201 288.072C799.801 288.072 800.341 288.186 800.821 288.414C801.313 288.642 801.715 288.96 802.027 289.368C802.351 289.764 802.531 290.22 802.567 290.736V294.426C802.531 294.942 802.357 295.41 802.045 295.83C801.733 296.238 801.331 296.568 800.839 296.82C800.347 297.06 799.801 297.18 799.201 297.18ZM799.687 294.696C800.083 294.696 800.425 294.612 800.713 294.444C801.001 294.264 801.229 294.018 801.397 293.706C801.565 293.394 801.649 293.034 801.649 292.626C801.649 292.218 801.565 291.864 801.397 291.564C801.241 291.252 801.013 291.006 800.713 290.826C800.425 290.646 800.089 290.556 799.705 290.556C799.321 290.556 798.979 290.646 798.679 290.826C798.391 291.006 798.157 291.252 797.977 291.564C797.809 291.876 797.725 292.23 797.725 292.626C797.725 293.022 797.809 293.376 797.977 293.688C798.145 294 798.379 294.246 798.679 294.426C798.979 294.606 799.315 294.696 799.687 294.696ZM804.241 297H801.541V294.642L801.955 292.518L801.487 290.394V283.932H804.241V297ZM810.5 297.198C809.552 297.198 808.706 297.006 807.962 296.622C807.23 296.226 806.654 295.68 806.234 294.984C805.814 294.288 805.604 293.502 805.604 292.626C805.604 291.75 805.808 290.97 806.216 290.286C806.636 289.59 807.2 289.044 807.908 288.648C808.616 288.252 809.414 288.054 810.302 288.054C811.166 288.054 811.928 288.24 812.588 288.612C813.248 288.984 813.764 289.5 814.136 290.16C814.52 290.82 814.712 291.576 814.712 292.428C814.712 292.584 814.7 292.752 814.676 292.932C814.664 293.1 814.634 293.298 814.586 293.526L807.044 293.544V291.654L813.416 291.636L812.228 292.428C812.216 291.924 812.138 291.51 811.994 291.186C811.85 290.85 811.634 290.598 811.346 290.43C811.07 290.25 810.728 290.16 810.32 290.16C809.888 290.16 809.51 290.262 809.186 290.466C808.874 290.658 808.628 290.934 808.448 291.294C808.28 291.654 808.196 292.092 808.196 292.608C808.196 293.124 808.286 293.568 808.466 293.94C808.658 294.3 808.922 294.582 809.258 294.786C809.606 294.978 810.014 295.074 810.482 295.074C810.914 295.074 811.304 295.002 811.652 294.858C812 294.702 812.306 294.474 812.57 294.174L814.082 295.686C813.65 296.19 813.128 296.568 812.516 296.82C811.904 297.072 811.232 297.198 810.5 297.198ZM819.227 297.216C818.711 297.216 818.201 297.15 817.697 297.018C817.205 296.886 816.743 296.7 816.311 296.46C815.891 296.208 815.531 295.92 815.231 295.596L816.797 294.012C817.085 294.324 817.427 294.57 817.823 294.75C818.219 294.918 818.651 295.002 819.119 295.002C819.443 295.002 819.689 294.954 819.857 294.858C820.037 294.762 820.127 294.63 820.127 294.462C820.127 294.246 820.019 294.084 819.803 293.976C819.599 293.856 819.335 293.754 819.011 293.67C818.687 293.574 818.345 293.472 817.985 293.364C817.625 293.256 817.283 293.106 816.959 292.914C816.635 292.722 816.371 292.458 816.167 292.122C815.963 291.774 815.861 291.336 815.861 290.808C815.861 290.244 816.005 289.758 816.293 289.35C816.581 288.93 816.989 288.6 817.517 288.36C818.045 288.12 818.663 288 819.371 288C820.115 288 820.799 288.132 821.423 288.396C822.059 288.648 822.575 289.026 822.971 289.53L821.405 291.114C821.129 290.79 820.817 290.562 820.469 290.43C820.133 290.298 819.803 290.232 819.479 290.232C819.167 290.232 818.933 290.28 818.777 290.376C818.621 290.46 818.543 290.586 818.543 290.754C818.543 290.934 818.645 291.078 818.849 291.186C819.053 291.294 819.317 291.39 819.641 291.474C819.965 291.558 820.307 291.66 820.667 291.78C821.027 291.9 821.369 292.062 821.693 292.266C822.017 292.47 822.281 292.746 822.485 293.094C822.689 293.43 822.791 293.874 822.791 294.426C822.791 295.278 822.467 295.956 821.819 296.46C821.183 296.964 820.319 297.216 819.227 297.216ZM829.883 297L826.823 292.464L829.865 288.252H832.943L829.271 292.986L829.361 291.852L833.123 297H829.883ZM824.285 297V283.932H827.039V297H824.285Z" fill="black"/>
<mask id="mask14_7662_5073" style="mask-type:luminance" maskUnits="userSpaceOnUse" x="766" y="413" width="132" height="132">
<path d="M766.156 413.328H897.469V544.646H766.156V413.328Z" fill="white"/>
</mask>
<g mask="url(#mask14_7662_5073)">
<mask id="mask15_7662_5073" style="mask-type:luminance" maskUnits="userSpaceOnUse" x="766" y="413" width="132" height="132">
<path d="M897.469 478.99C897.469 515.24 868.073 544.646 831.813 544.646C795.547 544.646 766.156 515.24 766.156 478.99C766.156 442.729 795.547 413.328 831.813 413.328C868.073 413.328 897.469 442.729 897.469 478.99Z" fill="white"/>
</mask>
<g mask="url(#mask15_7662_5073)">
<mask id="mask16_7662_5073" style="mask-type:luminance" maskUnits="userSpaceOnUse" x="766" y="413" width="132" height="132">
<path d="M897.469 478.99C897.469 515.24 868.073 544.646 831.813 544.646C795.547 544.646 766.156 515.24 766.156 478.99C766.156 442.729 795.547 413.328 831.813 413.328C868.073 413.328 897.469 442.729 897.469 478.99Z" fill="white"/>
</mask>
<g mask="url(#mask16_7662_5073)">
<path d="M766.156 544.646H897.469V413.328H766.156V544.646Z" fill="url(#paint3_linear_7662_5073)"/>
</g>
</g>
</g>
<path d="M809.531 470.02L815.921 461.254H819.341L812.933 470.02H809.531ZM809.531 472V470.02L811.403 469.57H819.179V472H809.531ZM809.891 461.722V459.292H819.341V461.254L817.433 461.722H809.891ZM824.722 472.198C823.822 472.198 823.006 472 822.274 471.604C821.554 471.196 820.984 470.644 820.564 469.948C820.144 469.252 819.934 468.472 819.934 467.608C819.934 466.744 820.144 465.97 820.564 465.286C820.984 464.602 821.554 464.062 822.274 463.666C822.994 463.258 823.81 463.054 824.722 463.054C825.634 463.054 826.45 463.252 827.17 463.648C827.89 464.044 828.46 464.59 828.88 465.286C829.3 465.97 829.51 466.744 829.51 467.608C829.51 468.472 829.3 469.252 828.88 469.948C828.46 470.644 827.89 471.196 827.17 471.604C826.45 472 825.634 472.198 824.722 472.198ZM824.722 469.696C825.118 469.696 825.466 469.612 825.766 469.444C826.066 469.264 826.294 469.018 826.45 468.706C826.618 468.382 826.702 468.016 826.702 467.608C826.702 467.2 826.618 466.846 826.45 466.546C826.282 466.234 826.048 465.994 825.748 465.826C825.46 465.646 825.118 465.556 824.722 465.556C824.338 465.556 823.996 465.646 823.696 465.826C823.396 465.994 823.162 466.234 822.994 466.546C822.826 466.858 822.742 467.218 822.742 467.626C822.742 468.022 822.826 468.382 822.994 468.706C823.162 469.018 823.396 469.264 823.696 469.444C823.996 469.612 824.338 469.696 824.722 469.696ZM836.659 472V467.014C836.659 466.558 836.515 466.192 836.227 465.916C835.951 465.628 835.597 465.484 835.165 465.484C834.865 465.484 834.601 465.55 834.373 465.682C834.145 465.802 833.965 465.982 833.833 466.222C833.701 466.45 833.635 466.714 833.635 467.014L832.573 466.492C832.573 465.808 832.717 465.208 833.005 464.692C833.293 464.176 833.695 463.78 834.211 463.504C834.727 463.216 835.321 463.072 835.993 463.072C836.677 463.072 837.277 463.216 837.793 463.504C838.309 463.78 838.705 464.17 838.981 464.674C839.269 465.166 839.413 465.742 839.413 466.402V472H836.659ZM830.881 472V458.932H833.635V472H830.881ZM845.394 472.198C844.494 472.198 843.678 472 842.946 471.604C842.226 471.196 841.656 470.644 841.236 469.948C840.816 469.252 840.606 468.472 840.606 467.608C840.606 466.744 840.816 465.97 841.236 465.286C841.656 464.602 842.226 464.062 842.946 463.666C843.666 463.258 844.482 463.054 845.394 463.054C846.306 463.054 847.122 463.252 847.842 463.648C848.562 464.044 849.132 464.59 849.552 465.286C849.972 465.97 850.182 466.744 850.182 467.608C850.182 468.472 849.972 469.252 849.552 469.948C849.132 470.644 848.562 471.196 847.842 471.604C847.122 472 846.306 472.198 845.394 472.198ZM845.394 469.696C845.79 469.696 846.138 469.612 846.438 469.444C846.738 469.264 846.966 469.018 847.122 468.706C847.29 468.382 847.374 468.016 847.374 467.608C847.374 467.2 847.29 466.846 847.122 466.546C846.954 466.234 846.72 465.994 846.42 465.826C846.132 465.646 845.79 465.556 845.394 465.556C845.01 465.556 844.668 465.646 844.368 465.826C844.068 465.994 843.834 466.234 843.666 466.546C843.498 466.858 843.414 467.218 843.414 467.626C843.414 468.022 843.498 468.382 843.666 468.706C843.834 469.018 844.068 469.264 844.368 469.444C844.668 469.612 845.01 469.696 845.394 469.696ZM800.914 495.374V493.178H803.65C803.998 493.178 804.316 493.106 804.604 492.962C804.892 492.818 805.12 492.608 805.288 492.332C805.456 492.056 805.54 491.72 805.54 491.324C805.54 490.94 805.456 490.61 805.288 490.334C805.12 490.058 804.892 489.848 804.604 489.704C804.316 489.56 803.998 489.488 803.65 489.488H800.914V487.292H804.064C804.868 487.292 805.594 487.454 806.242 487.778C806.89 488.102 807.4 488.57 807.772 489.182C808.156 489.782 808.348 490.496 808.348 491.324C808.348 492.152 808.156 492.872 807.772 493.484C807.4 494.084 806.89 494.552 806.242 494.888C805.594 495.212 804.868 495.374 804.064 495.374H800.914ZM798.754 500V487.292H801.58V500H798.754ZM809.805 500V491.252H812.559V500H809.805ZM812.559 495.194L811.407 494.294C811.635 493.274 812.019 492.482 812.559 491.918C813.099 491.354 813.849 491.072 814.809 491.072C815.229 491.072 815.595 491.138 815.907 491.27C816.231 491.39 816.513 491.582 816.753 491.846L815.115 493.916C814.995 493.784 814.845 493.682 814.665 493.61C814.485 493.538 814.281 493.502 814.053 493.502C813.597 493.502 813.231 493.646 812.955 493.934C812.691 494.21 812.559 494.63 812.559 495.194ZM821.453 500.198C820.553 500.198 819.737 500 819.005 499.604C818.285 499.196 817.715 498.644 817.295 497.948C816.875 497.252 816.665 496.472 816.665 495.608C816.665 494.744 816.875 493.97 817.295 493.286C817.715 492.602 818.285 492.062 819.005 491.666C819.725 491.258 820.541 491.054 821.453 491.054C822.365 491.054 823.181 491.252 823.901 491.648C824.621 492.044 825.191 492.59 825.611 493.286C826.031 493.97 826.241 494.744 826.241 495.608C826.241 496.472 826.031 497.252 825.611 497.948C825.191 498.644 824.621 499.196 823.901 499.604C823.181 500 822.365 500.198 821.453 500.198ZM821.453 497.696C821.849 497.696 822.197 497.612 822.497 497.444C822.797 497.264 823.025 497.018 823.181 496.706C823.349 496.382 823.433 496.016 823.433 495.608C823.433 495.2 823.349 494.846 823.181 494.546C823.013 494.234 822.779 493.994 822.479 493.826C822.191 493.646 821.849 493.556 821.453 493.556C821.069 493.556 820.727 493.646 820.427 493.826C820.127 493.994 819.893 494.234 819.725 494.546C819.557 494.858 819.473 495.218 819.473 495.626C819.473 496.022 819.557 496.382 819.725 496.706C819.893 497.018 820.127 497.264 820.427 497.444C820.727 497.612 821.069 497.696 821.453 497.696ZM827.108 503.924C826.472 503.924 825.932 503.816 825.488 503.6C825.044 503.396 824.654 503.102 824.318 502.718L826.028 501.008C826.16 501.164 826.298 501.272 826.442 501.332C826.574 501.404 826.73 501.44 826.91 501.44C827.174 501.44 827.39 501.362 827.558 501.206C827.738 501.05 827.828 500.81 827.828 500.486V491.252H830.582V500.45C830.582 501.158 830.432 501.77 830.132 502.286C829.832 502.802 829.418 503.204 828.89 503.492C828.374 503.78 827.78 503.924 827.108 503.924ZM829.232 490.046C828.8 490.046 828.44 489.902 828.152 489.614C827.876 489.314 827.738 488.954 827.738 488.534C827.738 488.102 827.876 487.742 828.152 487.454C828.44 487.166 828.8 487.022 829.232 487.022C829.664 487.022 830.018 487.166 830.294 487.454C830.57 487.742 830.708 488.102 830.708 488.534C830.708 488.954 830.57 489.314 830.294 489.614C830.018 489.902 829.664 490.046 829.232 490.046ZM836.854 500.198C835.906 500.198 835.06 500.006 834.316 499.622C833.584 499.226 833.008 498.68 832.588 497.984C832.168 497.288 831.958 496.502 831.958 495.626C831.958 494.75 832.162 493.97 832.57 493.286C832.99 492.59 833.554 492.044 834.262 491.648C834.97 491.252 835.768 491.054 836.656 491.054C837.52 491.054 838.282 491.24 838.942 491.612C839.602 491.984 840.118 492.5 840.49 493.16C840.874 493.82 841.066 494.576 841.066 495.428C841.066 495.584 841.054 495.752 841.03 495.932C841.018 496.1 840.988 496.298 840.94 496.526L833.398 496.544V494.654L839.77 494.636L838.582 495.428C838.57 494.924 838.492 494.51 838.348 494.186C838.204 493.85 837.988 493.598 837.7 493.43C837.424 493.25 837.082 493.16 836.674 493.16C836.242 493.16 835.864 493.262 835.54 493.466C835.228 493.658 834.982 493.934 834.802 494.294C834.634 494.654 834.55 495.092 834.55 495.608C834.55 496.124 834.64 496.568 834.82 496.94C835.012 497.3 835.276 497.582 835.612 497.786C835.96 497.978 836.368 498.074 836.836 498.074C837.268 498.074 837.658 498.002 838.006 497.858C838.354 497.702 838.66 497.474 838.924 497.174L840.436 498.686C840.004 499.19 839.482 499.568 838.87 499.82C838.258 500.072 837.586 500.198 836.854 500.198ZM846.625 500.198C845.725 500.198 844.909 500 844.177 499.604C843.445 499.208 842.869 498.662 842.449 497.966C842.029 497.27 841.819 496.49 841.819 495.626C841.819 494.75 842.029 493.97 842.449 493.286C842.881 492.59 843.463 492.044 844.195 491.648C844.927 491.252 845.749 491.054 846.661 491.054C847.345 491.054 847.969 491.174 848.533 491.414C849.109 491.642 849.619 491.99 850.063 492.458L848.299 494.222C848.095 493.994 847.855 493.826 847.579 493.718C847.315 493.61 847.009 493.556 846.661 493.556C846.265 493.556 845.911 493.646 845.599 493.826C845.299 493.994 845.059 494.234 844.879 494.546C844.711 494.846 844.627 495.2 844.627 495.608C844.627 496.016 844.711 496.376 844.879 496.688C845.059 497 845.305 497.246 845.617 497.426C845.929 497.606 846.277 497.696 846.661 497.696C847.021 497.696 847.339 497.636 847.615 497.516C847.903 497.384 848.149 497.204 848.353 496.976L850.099 498.74C849.643 499.22 849.127 499.586 848.551 499.838C847.975 500.078 847.333 500.198 846.625 500.198ZM852.426 500V487.634H855.18V500H852.426ZM850.446 493.592V491.252H857.16V493.592H850.446ZM861.384 500.216C860.868 500.216 860.358 500.15 859.854 500.018C859.362 499.886 858.9 499.7 858.468 499.46C858.048 499.208 857.688 498.92 857.388 498.596L858.954 497.012C859.242 497.324 859.584 497.57 859.98 497.75C860.376 497.918 860.808 498.002 861.276 498.002C861.6 498.002 861.846 497.954 862.014 497.858C862.194 497.762 862.284 497.63 862.284 497.462C862.284 497.246 862.176 497.084 861.96 496.976C861.756 496.856 861.492 496.754 861.168 496.67C860.844 496.574 860.502 496.472 860.142 496.364C859.782 496.256 859.44 496.106 859.116 495.914C858.792 495.722 858.528 495.458 858.324 495.122C858.12 494.774 858.018 494.336 858.018 493.808C858.018 493.244 858.162 492.758 858.45 492.35C858.738 491.93 859.146 491.6 859.674 491.36C860.202 491.12 860.82 491 861.528 491C862.272 491 862.956 491.132 863.58 491.396C864.216 491.648 864.732 492.026 865.128 492.53L863.562 494.114C863.286 493.79 862.974 493.562 862.626 493.43C862.29 493.298 861.96 493.232 861.636 493.232C861.324 493.232 861.09 493.28 860.934 493.376C860.778 493.46 860.7 493.586 860.7 493.754C860.7 493.934 860.802 494.078 861.006 494.186C861.21 494.294 861.474 494.39 861.798 494.474C862.122 494.558 862.464 494.66 862.824 494.78C863.184 494.9 863.526 495.062 863.85 495.266C864.174 495.47 864.438 495.746 864.642 496.094C864.846 496.43 864.948 496.874 864.948 497.426C864.948 498.278 864.624 498.956 863.976 499.46C863.34 499.964 862.476 500.216 861.384 500.216Z" fill="black"/>
<mask id="mask17_7662_5073" style="mask-type:luminance" maskUnits="userSpaceOnUse" x="645" y="564" width="133" height="132">
<path d="M645.828 564.198H777.151V695.516H645.828V564.198Z" fill="white"/>
</mask>
<g mask="url(#mask17_7662_5073)">
<mask id="mask18_7662_5073" style="mask-type:luminance" maskUnits="userSpaceOnUse" x="645" y="564" width="133" height="132">
<path d="M777.151 629.859C777.151 666.12 747.75 695.516 711.49 695.516C675.229 695.516 645.828 666.12 645.828 629.859C645.828 593.599 675.229 564.198 711.49 564.198C747.75 564.198 777.151 593.599 777.151 629.859Z" fill="white"/>
</mask>
<g mask="url(#mask18_7662_5073)">
<mask id="mask19_7662_5073" style="mask-type:luminance" maskUnits="userSpaceOnUse" x="645" y="564" width="133" height="132">
<path d="M777.151 629.859C777.151 666.12 747.75 695.516 711.49 695.516C675.229 695.516 645.828 666.12 645.828 629.859C645.828 593.599 675.229 564.198 711.49 564.198C747.75 564.198 777.151 593.599 777.151 629.859Z" fill="white"/>
</mask>
<g mask="url(#mask19_7662_5073)">
<path d="M645.828 695.516H777.151V564.198H645.828V695.516Z" fill="url(#paint4_linear_7662_5073)"/>
</g>
</g>
</g>
<path d="M657.407 635.02L663.797 626.254H667.217L660.809 635.02H657.407ZM657.407 637V635.02L659.279 634.57H667.055V637H657.407ZM657.767 626.722V624.292H667.217V626.254L665.309 626.722H657.767ZM672.598 637.198C671.698 637.198 670.882 637 670.15 636.604C669.43 636.196 668.86 635.644 668.44 634.948C668.02 634.252 667.81 633.472 667.81 632.608C667.81 631.744 668.02 630.97 668.44 630.286C668.86 629.602 669.43 629.062 670.15 628.666C670.87 628.258 671.686 628.054 672.598 628.054C673.51 628.054 674.326 628.252 675.046 628.648C675.766 629.044 676.336 629.59 676.756 630.286C677.176 630.97 677.386 631.744 677.386 632.608C677.386 633.472 677.176 634.252 676.756 634.948C676.336 635.644 675.766 636.196 675.046 636.604C674.326 637 673.51 637.198 672.598 637.198ZM672.598 634.696C672.994 634.696 673.342 634.612 673.642 634.444C673.942 634.264 674.17 634.018 674.326 633.706C674.494 633.382 674.578 633.016 674.578 632.608C674.578 632.2 674.494 631.846 674.326 631.546C674.158 631.234 673.924 630.994 673.624 630.826C673.336 630.646 672.994 630.556 672.598 630.556C672.214 630.556 671.872 630.646 671.572 630.826C671.272 630.994 671.038 631.234 670.87 631.546C670.702 631.858 670.618 632.218 670.618 632.626C670.618 633.022 670.702 633.382 670.87 633.706C671.038 634.018 671.272 634.264 671.572 634.444C671.872 634.612 672.214 634.696 672.598 634.696ZM684.535 637V632.014C684.535 631.558 684.391 631.192 684.103 630.916C683.827 630.628 683.473 630.484 683.041 630.484C682.741 630.484 682.477 630.55 682.249 630.682C682.021 630.802 681.841 630.982 681.709 631.222C681.577 631.45 681.511 631.714 681.511 632.014L680.449 631.492C680.449 630.808 680.593 630.208 680.881 629.692C681.169 629.176 681.571 628.78 682.087 628.504C682.603 628.216 683.197 628.072 683.869 628.072C684.553 628.072 685.153 628.216 685.669 628.504C686.185 628.78 686.581 629.17 686.857 629.674C687.145 630.166 687.289 630.742 687.289 631.402V637H684.535ZM678.757 637V623.932H681.511V637H678.757ZM693.27 637.198C692.37 637.198 691.554 637 690.822 636.604C690.102 636.196 689.532 635.644 689.112 634.948C688.692 634.252 688.482 633.472 688.482 632.608C688.482 631.744 688.692 630.97 689.112 630.286C689.532 629.602 690.102 629.062 690.822 628.666C691.542 628.258 692.358 628.054 693.27 628.054C694.182 628.054 694.998 628.252 695.718 628.648C696.438 629.044 697.008 629.59 697.428 630.286C697.848 630.97 698.058 631.744 698.058 632.608C698.058 633.472 697.848 634.252 697.428 634.948C697.008 635.644 696.438 636.196 695.718 636.604C694.998 637 694.182 637.198 693.27 637.198ZM693.27 634.696C693.666 634.696 694.014 634.612 694.314 634.444C694.614 634.264 694.842 634.018 694.998 633.706C695.166 633.382 695.25 633.016 695.25 632.608C695.25 632.2 695.166 631.846 694.998 631.546C694.83 631.234 694.596 630.994 694.296 630.826C694.008 630.646 693.666 630.556 693.27 630.556C692.886 630.556 692.544 630.646 692.244 630.826C691.944 630.994 691.71 631.234 691.542 631.546C691.374 631.858 691.29 632.218 691.29 632.626C691.29 633.022 691.374 633.382 691.542 633.706C691.71 634.018 691.944 634.264 692.244 634.444C692.544 634.612 692.886 634.696 693.27 634.696ZM699.798 633.616V631.204H706.17V633.616H699.798ZM711.829 637.198C710.785 637.198 709.885 637.03 709.129 636.694C708.385 636.346 707.701 635.824 707.077 635.128L708.913 633.31C709.321 633.778 709.771 634.144 710.263 634.408C710.767 634.66 711.349 634.786 712.009 634.786C712.609 634.786 713.071 634.678 713.395 634.462C713.731 634.246 713.899 633.946 713.899 633.562C713.899 633.214 713.791 632.932 713.575 632.716C713.359 632.5 713.071 632.314 712.711 632.158C712.363 632.002 711.973 631.852 711.541 631.708C711.121 631.564 710.701 631.402 710.281 631.222C709.861 631.03 709.471 630.796 709.111 630.52C708.763 630.232 708.481 629.878 708.265 629.458C708.049 629.026 707.941 628.486 707.941 627.838C707.941 627.058 708.127 626.386 708.499 625.822C708.883 625.258 709.411 624.832 710.083 624.544C710.755 624.244 711.529 624.094 712.405 624.094C713.293 624.094 714.103 624.25 714.835 624.562C715.579 624.874 716.191 625.3 716.671 625.84L714.835 627.658C714.451 627.262 714.061 626.968 713.665 626.776C713.281 626.584 712.843 626.488 712.351 626.488C711.859 626.488 711.469 626.584 711.181 626.776C710.893 626.956 710.749 627.22 710.749 627.568C710.749 627.892 710.857 628.156 711.073 628.36C711.289 628.552 711.571 628.72 711.919 628.864C712.279 629.008 712.669 629.152 713.089 629.296C713.521 629.44 713.947 629.608 714.367 629.8C714.787 629.992 715.171 630.238 715.519 630.538C715.879 630.826 716.167 631.198 716.383 631.654C716.599 632.098 716.707 632.65 716.707 633.31C716.707 634.522 716.275 635.476 715.411 636.172C714.547 636.856 713.353 637.198 711.829 637.198ZM721.856 637.18C721.052 637.18 720.332 636.982 719.696 636.586C719.072 636.19 718.574 635.65 718.202 634.966C717.842 634.282 717.662 633.502 717.662 632.626C717.662 631.75 717.842 630.97 718.202 630.286C718.574 629.602 719.072 629.062 719.696 628.666C720.332 628.27 721.052 628.072 721.856 628.072C722.444 628.072 722.972 628.186 723.44 628.414C723.92 628.642 724.31 628.96 724.61 629.368C724.91 629.764 725.078 630.22 725.114 630.736V634.516C725.078 635.032 724.91 635.494 724.61 635.902C724.322 636.298 723.938 636.61 723.458 636.838C722.978 637.066 722.444 637.18 721.856 637.18ZM722.414 634.696C723.002 634.696 723.476 634.504 723.836 634.12C724.196 633.724 724.376 633.226 724.376 632.626C724.376 632.218 724.292 631.858 724.124 631.546C723.968 631.234 723.74 630.994 723.44 630.826C723.152 630.646 722.816 630.556 722.432 630.556C722.048 630.556 721.706 630.646 721.406 630.826C721.118 630.994 720.884 631.234 720.704 631.546C720.536 631.858 720.452 632.218 720.452 632.626C720.452 633.022 720.536 633.376 720.704 633.688C720.872 634 721.106 634.246 721.406 634.426C721.706 634.606 722.042 634.696 722.414 634.696ZM724.268 637V634.642L724.682 632.518L724.268 630.394V628.252H726.968V637H724.268ZM728.908 637V623.932H731.662V637H728.908ZM737.921 637.198C736.973 637.198 736.127 637.006 735.383 636.622C734.651 636.226 734.075 635.68 733.655 634.984C733.235 634.288 733.025 633.502 733.025 632.626C733.025 631.75 733.229 630.97 733.637 630.286C734.057 629.59 734.621 629.044 735.329 628.648C736.037 628.252 736.835 628.054 737.723 628.054C738.587 628.054 739.349 628.24 740.009 628.612C740.669 628.984 741.185 629.5 741.557 630.16C741.941 630.82 742.133 631.576 742.133 632.428C742.133 632.584 742.121 632.752 742.097 632.932C742.085 633.1 742.055 633.298 742.007 633.526L734.465 633.544V631.654L740.837 631.636L739.649 632.428C739.637 631.924 739.559 631.51 739.415 631.186C739.271 630.85 739.055 630.598 738.767 630.43C738.491 630.25 738.149 630.16 737.741 630.16C737.309 630.16 736.931 630.262 736.607 630.466C736.295 630.658 736.049 630.934 735.869 631.294C735.701 631.654 735.617 632.092 735.617 632.608C735.617 633.124 735.707 633.568 735.887 633.94C736.079 634.3 736.343 634.582 736.679 634.786C737.027 634.978 737.435 635.074 737.903 635.074C738.335 635.074 738.725 635.002 739.073 634.858C739.421 634.702 739.727 634.474 739.991 634.174L741.503 635.686C741.071 636.19 740.549 636.568 739.937 636.82C739.325 637.072 738.653 637.198 737.921 637.198ZM746.648 637.216C746.132 637.216 745.622 637.15 745.118 637.018C744.626 636.886 744.164 636.7 743.732 636.46C743.312 636.208 742.952 635.92 742.652 635.596L744.218 634.012C744.506 634.324 744.848 634.57 745.244 634.75C745.64 634.918 746.072 635.002 746.54 635.002C746.864 635.002 747.11 634.954 747.278 634.858C747.458 634.762 747.548 634.63 747.548 634.462C747.548 634.246 747.44 634.084 747.224 633.976C747.02 633.856 746.756 633.754 746.432 633.67C746.108 633.574 745.766 633.472 745.406 633.364C745.046 633.256 744.704 633.106 744.38 632.914C744.056 632.722 743.792 632.458 743.588 632.122C743.384 631.774 743.282 631.336 743.282 630.808C743.282 630.244 743.426 629.758 743.714 629.35C744.002 628.93 744.41 628.6 744.938 628.36C745.466 628.12 746.084 628 746.792 628C747.536 628 748.22 628.132 748.844 628.396C749.48 628.648 749.996 629.026 750.392 629.53L748.826 631.114C748.55 630.79 748.238 630.562 747.89 630.43C747.554 630.298 747.224 630.232 746.9 630.232C746.588 630.232 746.354 630.28 746.198 630.376C746.042 630.46 745.964 630.586 745.964 630.754C745.964 630.934 746.066 631.078 746.27 631.186C746.474 631.294 746.738 631.39 747.062 631.474C747.386 631.558 747.728 631.66 748.088 631.78C748.448 631.9 748.79 632.062 749.114 632.266C749.438 632.47 749.702 632.746 749.906 633.094C750.11 633.43 750.212 633.874 750.212 634.426C750.212 635.278 749.888 635.956 749.24 636.46C748.604 636.964 747.74 637.216 746.648 637.216ZM751.706 637V628.252H754.46V637H751.706ZM753.092 627.046C752.66 627.046 752.3 626.902 752.012 626.614C751.736 626.314 751.598 625.954 751.598 625.534C751.598 625.102 751.736 624.742 752.012 624.454C752.3 624.166 752.66 624.022 753.092 624.022C753.524 624.022 753.878 624.166 754.154 624.454C754.43 624.742 754.568 625.102 754.568 625.534C754.568 625.954 754.43 626.314 754.154 626.614C753.878 626.902 753.524 627.046 753.092 627.046ZM760.054 637.18C759.25 637.18 758.53 636.982 757.894 636.586C757.27 636.19 756.772 635.65 756.4 634.966C756.04 634.282 755.86 633.502 755.86 632.626C755.86 631.75 756.04 630.97 756.4 630.286C756.772 629.602 757.27 629.062 757.894 628.666C758.53 628.27 759.25 628.072 760.054 628.072C760.642 628.072 761.17 628.186 761.638 628.414C762.118 628.642 762.508 628.96 762.808 629.368C763.108 629.764 763.276 630.22 763.312 630.736V634.516C763.276 635.032 763.108 635.494 762.808 635.902C762.52 636.298 762.136 636.61 761.656 636.838C761.176 637.066 760.642 637.18 760.054 637.18ZM760.612 634.696C761.2 634.696 761.674 634.504 762.034 634.12C762.394 633.724 762.574 633.226 762.574 632.626C762.574 632.218 762.49 631.858 762.322 631.546C762.166 631.234 761.938 630.994 761.638 630.826C761.35 630.646 761.014 630.556 760.63 630.556C760.246 630.556 759.904 630.646 759.604 630.826C759.316 630.994 759.082 631.234 758.902 631.546C758.734 631.858 758.65 632.218 758.65 632.626C758.65 633.022 758.734 633.376 758.902 633.688C759.07 634 759.304 634.246 759.604 634.426C759.904 634.606 760.24 634.696 760.612 634.696ZM762.466 640.69V634.75L762.88 632.626L762.466 630.502V628.252H765.166V640.69H762.466Z" fill="black"/>
<mask id="mask20_7662_5073" style="mask-type:luminance" maskUnits="userSpaceOnUse" x="452" y="564" width="133" height="132">
<path d="M452.852 564.203H584.169V695.521H452.852V564.203Z" fill="white"/>
</mask>
<g mask="url(#mask20_7662_5073)">
<mask id="mask21_7662_5073" style="mask-type:luminance" maskUnits="userSpaceOnUse" x="452" y="564" width="133" height="132">
<path d="M584.169 629.859C584.169 666.12 554.768 695.521 518.508 695.521C482.247 695.521 452.852 666.12 452.852 629.859C452.852 593.604 482.247 564.203 518.508 564.203C554.768 564.203 584.169 593.604 584.169 629.859Z" fill="white"/>
</mask>
<g mask="url(#mask21_7662_5073)">
<mask id="mask22_7662_5073" style="mask-type:luminance" maskUnits="userSpaceOnUse" x="452" y="564" width="133" height="132">
<path d="M584.169 629.859C584.169 666.12 554.768 695.521 518.508 695.521C482.247 695.521 452.852 666.12 452.852 629.859C452.852 593.604 482.247 564.203 518.508 564.203C554.768 564.203 584.169 593.604 584.169 629.859Z" fill="white"/>
</mask>
<g mask="url(#mask22_7662_5073)">
<path d="M452.852 695.521H584.169V564.203H452.852V695.521Z" fill="url(#paint5_linear_7662_5073)"/>
</g>
</g>
</g>
<path d="M498.245 621.02L504.635 612.254H508.055L501.647 621.02H498.245ZM498.245 623V621.02L500.117 620.57H507.893V623H498.245ZM498.605 612.722V610.292H508.055V612.254L506.147 612.722H498.605ZM513.436 623.198C512.536 623.198 511.72 623 510.988 622.604C510.268 622.196 509.698 621.644 509.278 620.948C508.858 620.252 508.648 619.472 508.648 618.608C508.648 617.744 508.858 616.97 509.278 616.286C509.698 615.602 510.268 615.062 510.988 614.666C511.708 614.258 512.524 614.054 513.436 614.054C514.348 614.054 515.164 614.252 515.884 614.648C516.604 615.044 517.174 615.59 517.594 616.286C518.014 616.97 518.224 617.744 518.224 618.608C518.224 619.472 518.014 620.252 517.594 620.948C517.174 621.644 516.604 622.196 515.884 622.604C515.164 623 514.348 623.198 513.436 623.198ZM513.436 620.696C513.832 620.696 514.18 620.612 514.48 620.444C514.78 620.264 515.008 620.018 515.164 619.706C515.332 619.382 515.416 619.016 515.416 618.608C515.416 618.2 515.332 617.846 515.164 617.546C514.996 617.234 514.762 616.994 514.462 616.826C514.174 616.646 513.832 616.556 513.436 616.556C513.052 616.556 512.71 616.646 512.41 616.826C512.11 616.994 511.876 617.234 511.708 617.546C511.54 617.858 511.456 618.218 511.456 618.626C511.456 619.022 511.54 619.382 511.708 619.706C511.876 620.018 512.11 620.264 512.41 620.444C512.71 620.612 513.052 620.696 513.436 620.696ZM525.373 623V618.014C525.373 617.558 525.229 617.192 524.941 616.916C524.665 616.628 524.311 616.484 523.879 616.484C523.579 616.484 523.315 616.55 523.087 616.682C522.859 616.802 522.679 616.982 522.547 617.222C522.415 617.45 522.349 617.714 522.349 618.014L521.287 617.492C521.287 616.808 521.431 616.208 521.719 615.692C522.007 615.176 522.409 614.78 522.925 614.504C523.441 614.216 524.035 614.072 524.707 614.072C525.391 614.072 525.991 614.216 526.507 614.504C527.023 614.78 527.419 615.17 527.695 615.674C527.983 616.166 528.127 616.742 528.127 617.402V623H525.373ZM519.595 623V609.932H522.349V623H519.595ZM534.108 623.198C533.208 623.198 532.392 623 531.66 622.604C530.94 622.196 530.37 621.644 529.95 620.948C529.53 620.252 529.32 619.472 529.32 618.608C529.32 617.744 529.53 616.97 529.95 616.286C530.37 615.602 530.94 615.062 531.66 614.666C532.38 614.258 533.196 614.054 534.108 614.054C535.02 614.054 535.836 614.252 536.556 614.648C537.276 615.044 537.846 615.59 538.266 616.286C538.686 616.97 538.896 617.744 538.896 618.608C538.896 619.472 538.686 620.252 538.266 620.948C537.846 621.644 537.276 622.196 536.556 622.604C535.836 623 535.02 623.198 534.108 623.198ZM534.108 620.696C534.504 620.696 534.852 620.612 535.152 620.444C535.452 620.264 535.68 620.018 535.836 619.706C536.004 619.382 536.088 619.016 536.088 618.608C536.088 618.2 536.004 617.846 535.836 617.546C535.668 617.234 535.434 616.994 535.134 616.826C534.846 616.646 534.504 616.556 534.108 616.556C533.724 616.556 533.382 616.646 533.082 616.826C532.782 616.994 532.548 617.234 532.38 617.546C532.212 617.858 532.128 618.218 532.128 618.626C532.128 619.022 532.212 619.382 532.38 619.706C532.548 620.018 532.782 620.264 533.082 620.444C533.382 620.612 533.724 620.696 534.108 620.696ZM480.098 651L485.138 638.292H487.694L492.68 651H489.692L485.876 640.452H486.902L483.032 651H480.098ZM482.96 648.696V646.392H489.89V648.696H482.96ZM499.691 651V646.014C499.691 645.558 499.547 645.192 499.259 644.916C498.983 644.628 498.629 644.484 498.197 644.484C497.897 644.484 497.633 644.55 497.405 644.682C497.177 644.802 496.997 644.982 496.865 645.222C496.733 645.45 496.667 645.714 496.667 646.014L495.605 645.492C495.605 644.808 495.755 644.208 496.055 643.692C496.355 643.176 496.769 642.78 497.297 642.504C497.837 642.216 498.443 642.072 499.115 642.072C499.763 642.072 500.333 642.228 500.825 642.54C501.329 642.84 501.725 643.242 502.013 643.746C502.301 644.25 502.445 644.802 502.445 645.402V651H499.691ZM493.913 651V642.252H496.667V651H493.913ZM507.868 651.18C507.064 651.18 506.344 650.982 505.708 650.586C505.084 650.19 504.586 649.65 504.214 648.966C503.854 648.282 503.674 647.502 503.674 646.626C503.674 645.75 503.854 644.97 504.214 644.286C504.586 643.602 505.084 643.062 505.708 642.666C506.344 642.27 507.064 642.072 507.868 642.072C508.456 642.072 508.984 642.186 509.452 642.414C509.932 642.642 510.322 642.96 510.622 643.368C510.922 643.764 511.09 644.22 511.126 644.736V648.516C511.09 649.032 510.922 649.494 510.622 649.902C510.334 650.298 509.95 650.61 509.47 650.838C508.99 651.066 508.456 651.18 507.868 651.18ZM508.426 648.696C509.014 648.696 509.488 648.504 509.848 648.12C510.208 647.724 510.388 647.226 510.388 646.626C510.388 646.218 510.304 645.858 510.136 645.546C509.98 645.234 509.752 644.994 509.452 644.826C509.164 644.646 508.828 644.556 508.444 644.556C508.06 644.556 507.718 644.646 507.418 644.826C507.13 644.994 506.896 645.234 506.716 645.546C506.548 645.858 506.464 646.218 506.464 646.626C506.464 647.022 506.548 647.376 506.716 647.688C506.884 648 507.118 648.246 507.418 648.426C507.718 648.606 508.054 648.696 508.426 648.696ZM510.28 651V648.642L510.694 646.518L510.28 644.394V642.252H512.98V651H510.28ZM514.919 651V637.932H517.673V651H514.919ZM522.313 651.036L518.713 642.252H521.683L523.969 649.218H522.871L525.211 642.252H528.181L524.437 651.036H522.313ZM520.063 654.69L522.691 649.02L524.437 651.036L522.889 654.69H520.063ZM530.329 651V638.634H533.083V651H530.329ZM528.349 644.592V642.252H535.063V644.592H528.349ZM536.277 651V642.252H539.031V651H536.277ZM537.663 641.046C537.231 641.046 536.871 640.902 536.583 640.614C536.307 640.314 536.169 639.954 536.169 639.534C536.169 639.102 536.307 638.742 536.583 638.454C536.871 638.166 537.231 638.022 537.663 638.022C538.095 638.022 538.449 638.166 538.725 638.454C539.001 638.742 539.139 639.102 539.139 639.534C539.139 639.954 539.001 640.314 538.725 640.614C538.449 640.902 538.095 641.046 537.663 641.046ZM545.2 651.198C544.3 651.198 543.484 651 542.752 650.604C542.02 650.208 541.444 649.662 541.024 648.966C540.604 648.27 540.394 647.49 540.394 646.626C540.394 645.75 540.604 644.97 541.024 644.286C541.456 643.59 542.038 643.044 542.77 642.648C543.502 642.252 544.324 642.054 545.236 642.054C545.92 642.054 546.544 642.174 547.108 642.414C547.684 642.642 548.194 642.99 548.638 643.458L546.874 645.222C546.67 644.994 546.43 644.826 546.154 644.718C545.89 644.61 545.584 644.556 545.236 644.556C544.84 644.556 544.486 644.646 544.174 644.826C543.874 644.994 543.634 645.234 543.454 645.546C543.286 645.846 543.202 646.2 543.202 646.608C543.202 647.016 543.286 647.376 543.454 647.688C543.634 648 543.88 648.246 544.192 648.426C544.504 648.606 544.852 648.696 545.236 648.696C545.596 648.696 545.914 648.636 546.19 648.516C546.478 648.384 546.724 648.204 546.928 647.976L548.674 649.74C548.218 650.22 547.702 650.586 547.126 650.838C546.55 651.078 545.908 651.198 545.2 651.198ZM553.086 651.216C552.57 651.216 552.06 651.15 551.556 651.018C551.064 650.886 550.602 650.7 550.17 650.46C549.75 650.208 549.39 649.92 549.09 649.596L550.656 648.012C550.944 648.324 551.286 648.57 551.682 648.75C552.078 648.918 552.51 649.002 552.978 649.002C553.302 649.002 553.548 648.954 553.716 648.858C553.896 648.762 553.986 648.63 553.986 648.462C553.986 648.246 553.878 648.084 553.662 647.976C553.458 647.856 553.194 647.754 552.87 647.67C552.546 647.574 552.204 647.472 551.844 647.364C551.484 647.256 551.142 647.106 550.818 646.914C550.494 646.722 550.23 646.458 550.026 646.122C549.822 645.774 549.72 645.336 549.72 644.808C549.72 644.244 549.864 643.758 550.152 643.35C550.44 642.93 550.848 642.6 551.376 642.36C551.904 642.12 552.522 642 553.23 642C553.974 642 554.658 642.132 555.282 642.396C555.918 642.648 556.434 643.026 556.83 643.53L555.264 645.114C554.988 644.79 554.676 644.562 554.328 644.43C553.992 644.298 553.662 644.232 553.338 644.232C553.026 644.232 552.792 644.28 552.636 644.376C552.48 644.46 552.402 644.586 552.402 644.754C552.402 644.934 552.504 645.078 552.708 645.186C552.912 645.294 553.176 645.39 553.5 645.474C553.824 645.558 554.166 645.66 554.526 645.78C554.886 645.9 555.228 646.062 555.552 646.266C555.876 646.47 556.14 646.746 556.344 647.094C556.548 647.43 556.65 647.874 556.65 648.426C556.65 649.278 556.326 649.956 555.678 650.46C555.042 650.964 554.178 651.216 553.086 651.216Z" fill="black"/>
<mask id="mask23_7662_5073" style="mask-type:luminance" maskUnits="userSpaceOnUse" x="332" y="413" width="132" height="132">
<path d="M332.531 413.333H463.844V544.651H332.531V413.333Z" fill="white"/>
</mask>
<g mask="url(#mask23_7662_5073)">
<mask id="mask24_7662_5073" style="mask-type:luminance" maskUnits="userSpaceOnUse" x="332" y="413" width="132" height="132">
<path d="M463.844 478.995C463.844 515.25 434.448 544.651 398.193 544.651C361.932 544.651 332.531 515.25 332.531 478.995C332.531 442.734 361.932 413.333 398.193 413.333C434.448 413.333 463.844 442.734 463.844 478.995Z" fill="white"/>
</mask>
<g mask="url(#mask24_7662_5073)">
<mask id="mask25_7662_5073" style="mask-type:luminance" maskUnits="userSpaceOnUse" x="332" y="413" width="132" height="132">
<path d="M463.844 478.995C463.844 515.25 434.448 544.651 398.193 544.651C361.932 544.651 332.531 515.25 332.531 478.995C332.531 442.734 361.932 413.333 398.193 413.333C434.448 413.333 463.844 442.734 463.844 478.995Z" fill="white"/>
</mask>
<g mask="url(#mask25_7662_5073)">
<path d="M332.531 544.651H463.844V413.333H332.531V544.651Z" fill="url(#paint6_linear_7662_5073)"/>
</g>
</g>
</g>
<path d="M378.245 470.02L384.635 461.254H388.055L381.647 470.02H378.245ZM378.245 472V470.02L380.117 469.57H387.893V472H378.245ZM378.605 461.722V459.292H388.055V461.254L386.147 461.722H378.605ZM393.436 472.198C392.536 472.198 391.72 472 390.988 471.604C390.268 471.196 389.698 470.644 389.278 469.948C388.858 469.252 388.648 468.472 388.648 467.608C388.648 466.744 388.858 465.97 389.278 465.286C389.698 464.602 390.268 464.062 390.988 463.666C391.708 463.258 392.524 463.054 393.436 463.054C394.348 463.054 395.164 463.252 395.884 463.648C396.604 464.044 397.174 464.59 397.594 465.286C398.014 465.97 398.224 466.744 398.224 467.608C398.224 468.472 398.014 469.252 397.594 469.948C397.174 470.644 396.604 471.196 395.884 471.604C395.164 472 394.348 472.198 393.436 472.198ZM393.436 469.696C393.832 469.696 394.18 469.612 394.48 469.444C394.78 469.264 395.008 469.018 395.164 468.706C395.332 468.382 395.416 468.016 395.416 467.608C395.416 467.2 395.332 466.846 395.164 466.546C394.996 466.234 394.762 465.994 394.462 465.826C394.174 465.646 393.832 465.556 393.436 465.556C393.052 465.556 392.71 465.646 392.41 465.826C392.11 465.994 391.876 466.234 391.708 466.546C391.54 466.858 391.456 467.218 391.456 467.626C391.456 468.022 391.54 468.382 391.708 468.706C391.876 469.018 392.11 469.264 392.41 469.444C392.71 469.612 393.052 469.696 393.436 469.696ZM405.373 472V467.014C405.373 466.558 405.229 466.192 404.941 465.916C404.665 465.628 404.311 465.484 403.879 465.484C403.579 465.484 403.315 465.55 403.087 465.682C402.859 465.802 402.679 465.982 402.547 466.222C402.415 466.45 402.349 466.714 402.349 467.014L401.287 466.492C401.287 465.808 401.431 465.208 401.719 464.692C402.007 464.176 402.409 463.78 402.925 463.504C403.441 463.216 404.035 463.072 404.707 463.072C405.391 463.072 405.991 463.216 406.507 463.504C407.023 463.78 407.419 464.17 407.695 464.674C407.983 465.166 408.127 465.742 408.127 466.402V472H405.373ZM399.595 472V458.932H402.349V472H399.595ZM414.108 472.198C413.208 472.198 412.392 472 411.66 471.604C410.94 471.196 410.37 470.644 409.95 469.948C409.53 469.252 409.32 468.472 409.32 467.608C409.32 466.744 409.53 465.97 409.95 465.286C410.37 464.602 410.94 464.062 411.66 463.666C412.38 463.258 413.196 463.054 414.108 463.054C415.02 463.054 415.836 463.252 416.556 463.648C417.276 464.044 417.846 464.59 418.266 465.286C418.686 465.97 418.896 466.744 418.896 467.608C418.896 468.472 418.686 469.252 418.266 469.948C417.846 470.644 417.276 471.196 416.556 471.604C415.836 472 415.02 472.198 414.108 472.198ZM414.108 469.696C414.504 469.696 414.852 469.612 415.152 469.444C415.452 469.264 415.68 469.018 415.836 468.706C416.004 468.382 416.088 468.016 416.088 467.608C416.088 467.2 416.004 466.846 415.836 466.546C415.668 466.234 415.434 465.994 415.134 465.826C414.846 465.646 414.504 465.556 414.108 465.556C413.724 465.556 413.382 465.646 413.082 465.826C412.782 465.994 412.548 466.234 412.38 466.546C412.212 466.858 412.128 467.218 412.128 467.626C412.128 468.022 412.212 468.382 412.38 468.706C412.548 469.018 412.782 469.264 413.082 469.444C413.382 469.612 413.724 469.696 414.108 469.696ZM358.864 500.198C357.916 500.198 357.034 500.036 356.218 499.712C355.414 499.376 354.706 498.908 354.094 498.308C353.494 497.708 353.026 497.012 352.69 496.22C352.354 495.416 352.186 494.552 352.186 493.628C352.186 492.704 352.354 491.846 352.69 491.054C353.026 490.25 353.494 489.554 354.094 488.966C354.694 488.378 355.396 487.922 356.2 487.598C357.016 487.262 357.898 487.094 358.846 487.094C359.854 487.094 360.748 487.256 361.528 487.58C362.32 487.904 363.01 488.348 363.598 488.912L361.708 490.82C361.372 490.46 360.964 490.178 360.484 489.974C360.016 489.77 359.47 489.668 358.846 489.668C358.294 489.668 357.784 489.764 357.316 489.956C356.86 490.136 356.464 490.4 356.128 490.748C355.804 491.096 355.546 491.516 355.354 492.008C355.174 492.5 355.084 493.04 355.084 493.628C355.084 494.228 355.174 494.774 355.354 495.266C355.546 495.758 355.804 496.178 356.128 496.526C356.464 496.874 356.86 497.144 357.316 497.336C357.784 497.528 358.294 497.624 358.846 497.624C359.494 497.624 360.058 497.522 360.538 497.318C361.018 497.114 361.432 496.832 361.78 496.472L363.688 498.38C363.076 498.944 362.374 499.388 361.582 499.712C360.802 500.036 359.896 500.198 358.864 500.198ZM368.436 500.18C367.632 500.18 366.912 499.982 366.276 499.586C365.652 499.19 365.154 498.65 364.782 497.966C364.422 497.282 364.242 496.502 364.242 495.626C364.242 494.75 364.422 493.97 364.782 493.286C365.154 492.602 365.652 492.062 366.276 491.666C366.912 491.27 367.632 491.072 368.436 491.072C369.024 491.072 369.552 491.186 370.02 491.414C370.5 491.642 370.89 491.96 371.19 492.368C371.49 492.764 371.658 493.22 371.694 493.736V497.516C371.658 498.032 371.49 498.494 371.19 498.902C370.902 499.298 370.518 499.61 370.038 499.838C369.558 500.066 369.024 500.18 368.436 500.18ZM368.994 497.696C369.582 497.696 370.056 497.504 370.416 497.12C370.776 496.724 370.956 496.226 370.956 495.626C370.956 495.218 370.872 494.858 370.704 494.546C370.548 494.234 370.32 493.994 370.02 493.826C369.732 493.646 369.396 493.556 369.012 493.556C368.628 493.556 368.286 493.646 367.986 493.826C367.698 493.994 367.464 494.234 367.284 494.546C367.116 494.858 367.032 495.218 367.032 495.626C367.032 496.022 367.116 496.376 367.284 496.688C367.452 497 367.686 497.246 367.986 497.426C368.286 497.606 368.622 497.696 368.994 497.696ZM370.848 500V497.642L371.262 495.518L370.848 493.394V491.252H373.548V500H370.848ZM375.487 500V491.252H378.241V500H375.487ZM381.085 500V494.888C381.085 494.444 380.947 494.102 380.671 493.862C380.407 493.61 380.077 493.484 379.681 493.484C379.405 493.484 379.159 493.544 378.943 493.664C378.727 493.772 378.553 493.928 378.421 494.132C378.301 494.336 378.241 494.588 378.241 494.888L377.179 494.42C377.179 493.724 377.329 493.13 377.629 492.638C377.929 492.134 378.337 491.75 378.853 491.486C379.369 491.21 379.951 491.072 380.599 491.072C381.211 491.072 381.757 491.21 382.237 491.486C382.729 491.762 383.119 492.146 383.407 492.638C383.695 493.13 383.839 493.718 383.839 494.402V500H381.085ZM386.683 500V494.888C386.683 494.444 386.545 494.102 386.269 493.862C386.005 493.61 385.675 493.484 385.279 493.484C385.003 493.484 384.757 493.544 384.541 493.664C384.325 493.772 384.151 493.928 384.019 494.132C383.899 494.336 383.839 494.588 383.839 494.888L382.255 494.672C382.279 493.928 382.453 493.292 382.777 492.764C383.113 492.224 383.551 491.81 384.091 491.522C384.643 491.222 385.261 491.072 385.945 491.072C386.617 491.072 387.211 491.216 387.727 491.504C388.255 491.78 388.669 492.182 388.969 492.71C389.281 493.226 389.437 493.85 389.437 494.582V500H386.683ZM396.241 500.18C395.653 500.18 395.113 500.066 394.621 499.838C394.129 499.61 393.727 499.298 393.415 498.902C393.103 498.494 392.923 498.032 392.875 497.516V493.826C392.923 493.31 393.103 492.842 393.415 492.422C393.727 492.002 394.129 491.672 394.621 491.432C395.113 491.192 395.653 491.072 396.241 491.072C397.069 491.072 397.801 491.27 398.437 491.666C399.085 492.062 399.589 492.602 399.949 493.286C400.321 493.97 400.507 494.75 400.507 495.626C400.507 496.502 400.321 497.282 399.949 497.966C399.589 498.65 399.085 499.19 398.437 499.586C397.801 499.982 397.069 500.18 396.241 500.18ZM391.201 503.69V491.252H393.955V493.502L393.505 495.626L393.919 497.75V503.69H391.201ZM395.737 497.696C396.133 497.696 396.475 497.606 396.763 497.426C397.063 497.246 397.297 497 397.465 496.688C397.633 496.376 397.717 496.022 397.717 495.626C397.717 495.218 397.633 494.858 397.465 494.546C397.297 494.234 397.063 493.994 396.763 493.826C396.475 493.646 396.139 493.556 395.755 493.556C395.371 493.556 395.029 493.646 394.729 493.826C394.441 493.994 394.213 494.234 394.045 494.546C393.877 494.858 393.793 495.218 393.793 495.626C393.793 496.022 393.871 496.376 394.027 496.688C394.195 497 394.429 497.246 394.729 497.426C395.029 497.606 395.365 497.696 395.737 497.696ZM405.561 500.18C404.757 500.18 404.037 499.982 403.401 499.586C402.777 499.19 402.279 498.65 401.907 497.966C401.547 497.282 401.367 496.502 401.367 495.626C401.367 494.75 401.547 493.97 401.907 493.286C402.279 492.602 402.777 492.062 403.401 491.666C404.037 491.27 404.757 491.072 405.561 491.072C406.149 491.072 406.677 491.186 407.145 491.414C407.625 491.642 408.015 491.96 408.315 492.368C408.615 492.764 408.783 493.22 408.819 493.736V497.516C408.783 498.032 408.615 498.494 408.315 498.902C408.027 499.298 407.643 499.61 407.163 499.838C406.683 500.066 406.149 500.18 405.561 500.18ZM406.119 497.696C406.707 497.696 407.181 497.504 407.541 497.12C407.901 496.724 408.081 496.226 408.081 495.626C408.081 495.218 407.997 494.858 407.829 494.546C407.673 494.234 407.445 493.994 407.145 493.826C406.857 493.646 406.521 493.556 406.137 493.556C405.753 493.556 405.411 493.646 405.111 493.826C404.823 493.994 404.589 494.234 404.409 494.546C404.241 494.858 404.157 495.218 404.157 495.626C404.157 496.022 404.241 496.376 404.409 496.688C404.577 497 404.811 497.246 405.111 497.426C405.411 497.606 405.747 497.696 406.119 497.696ZM407.973 500V497.642L408.387 495.518L407.973 493.394V491.252H410.673V500H407.973ZM412.612 500V491.252H415.366V500H412.612ZM413.998 490.046C413.566 490.046 413.206 489.902 412.918 489.614C412.642 489.314 412.504 488.954 412.504 488.534C412.504 488.102 412.642 487.742 412.918 487.454C413.206 487.166 413.566 487.022 413.998 487.022C414.43 487.022 414.784 487.166 415.06 487.454C415.336 487.742 415.474 488.102 415.474 488.534C415.474 488.954 415.336 489.314 415.06 489.614C414.784 489.902 414.43 490.046 413.998 490.046ZM421.013 503.924C420.053 503.924 419.207 503.756 418.475 503.42C417.755 503.096 417.185 502.634 416.765 502.034L418.457 500.342C418.769 500.714 419.117 500.996 419.501 501.188C419.897 501.38 420.371 501.476 420.923 501.476C421.607 501.476 422.141 501.308 422.525 500.972C422.921 500.636 423.119 500.162 423.119 499.55V497.318L423.587 495.41L423.173 493.502V491.252H425.873V499.478C425.873 500.378 425.663 501.158 425.243 501.818C424.823 502.478 424.247 502.994 423.515 503.366C422.783 503.738 421.949 503.924 421.013 503.924ZM420.887 499.73C420.083 499.73 419.369 499.538 418.745 499.154C418.121 498.77 417.629 498.248 417.269 497.588C416.909 496.928 416.729 496.196 416.729 495.392C416.729 494.576 416.909 493.844 417.269 493.196C417.629 492.536 418.121 492.02 418.745 491.648C419.369 491.264 420.083 491.072 420.887 491.072C421.487 491.072 422.021 491.186 422.489 491.414C422.969 491.63 423.353 491.942 423.641 492.35C423.941 492.746 424.109 493.208 424.145 493.736V497.066C424.109 497.582 423.941 498.044 423.641 498.452C423.353 498.848 422.969 499.16 422.489 499.388C422.009 499.616 421.475 499.73 420.887 499.73ZM421.409 497.282C421.793 497.282 422.123 497.198 422.399 497.03C422.687 496.862 422.903 496.64 423.047 496.364C423.203 496.076 423.281 495.752 423.281 495.392C423.281 495.032 423.203 494.708 423.047 494.42C422.903 494.132 422.687 493.904 422.399 493.736C422.123 493.568 421.793 493.484 421.409 493.484C421.037 493.484 420.707 493.568 420.419 493.736C420.131 493.904 419.909 494.132 419.753 494.42C419.597 494.708 419.519 495.032 419.519 495.392C419.519 495.728 419.597 496.046 419.753 496.346C419.909 496.634 420.125 496.862 420.401 497.03C420.689 497.198 421.025 497.282 421.409 497.282ZM433.595 500V495.014C433.595 494.558 433.451 494.192 433.163 493.916C432.887 493.628 432.533 493.484 432.101 493.484C431.801 493.484 431.537 493.55 431.309 493.682C431.081 493.802 430.901 493.982 430.769 494.222C430.637 494.45 430.571 494.714 430.571 495.014L429.509 494.492C429.509 493.808 429.659 493.208 429.959 492.692C430.259 492.176 430.673 491.78 431.201 491.504C431.741 491.216 432.347 491.072 433.019 491.072C433.667 491.072 434.237 491.228 434.729 491.54C435.233 491.84 435.629 492.242 435.917 492.746C436.205 493.25 436.349 493.802 436.349 494.402V500H433.595ZM427.817 500V491.252H430.571V500H427.817ZM441.304 500.216C440.788 500.216 440.278 500.15 439.774 500.018C439.282 499.886 438.82 499.7 438.388 499.46C437.968 499.208 437.608 498.92 437.308 498.596L438.874 497.012C439.162 497.324 439.504 497.57 439.9 497.75C440.296 497.918 440.728 498.002 441.196 498.002C441.52 498.002 441.766 497.954 441.934 497.858C442.114 497.762 442.204 497.63 442.204 497.462C442.204 497.246 442.096 497.084 441.88 496.976C441.676 496.856 441.412 496.754 441.088 496.67C440.764 496.574 440.422 496.472 440.062 496.364C439.702 496.256 439.36 496.106 439.036 495.914C438.712 495.722 438.448 495.458 438.244 495.122C438.04 494.774 437.938 494.336 437.938 493.808C437.938 493.244 438.082 492.758 438.37 492.35C438.658 491.93 439.066 491.6 439.594 491.36C440.122 491.12 440.74 491 441.448 491C442.192 491 442.876 491.132 443.5 491.396C444.136 491.648 444.652 492.026 445.048 492.53L443.482 494.114C443.206 493.79 442.894 493.562 442.546 493.43C442.21 493.298 441.88 493.232 441.556 493.232C441.244 493.232 441.01 493.28 440.854 493.376C440.698 493.46 440.62 493.586 440.62 493.754C440.62 493.934 440.722 494.078 440.926 494.186C441.13 494.294 441.394 494.39 441.718 494.474C442.042 494.558 442.384 494.66 442.744 494.78C443.104 494.9 443.446 495.062 443.77 495.266C444.094 495.47 444.358 495.746 444.562 496.094C444.766 496.43 444.868 496.874 444.868 497.426C444.868 498.278 444.544 498.956 443.896 499.46C443.26 499.964 442.396 500.216 441.304 500.216Z" fill="black"/>
</g>
<defs>
<linearGradient id="paint0_linear_7662_5073" x1="615.015" y1="272.803" x2="615.015" y2="141.488" gradientUnits="userSpaceOnUse">
<stop stop-color="#F5F5F5"/>
<stop offset="0.0625" stop-color="#F5F5F5"/>
<stop offset="0.09375" stop-color="#F5F5F5"/>
<stop offset="0.125" stop-color="#F6F6F6"/>
<stop offset="0.15625" stop-color="#F6F6F6"/>
<stop offset="0.1875" stop-color="#F7F7F7"/>
<stop offset="0.25" stop-color="#F7F7F7"/>
<stop offset="0.28125" stop-color="#F7F7F7"/>
<stop offset="0.3125" stop-color="#F8F8F8"/>
<stop offset="0.375" stop-color="#F8F8F8"/>
<stop offset="0.4375" stop-color="#F8F8F8"/>
<stop offset="0.46875" stop-color="#F9F9F9"/>
<stop offset="0.5" stop-color="#FAFAFA"/>
<stop offset="0.5625" stop-color="#FAFAFA"/>
<stop offset="0.59375" stop-color="#FAFAFA"/>
<stop offset="0.625" stop-color="#FBFBFB"/>
<stop offset="0.65625" stop-color="#FBFBFB"/>
<stop offset="0.6875" stop-color="#FCFCFC"/>
<stop offset="0.75" stop-color="#FCFCFC"/>
<stop offset="0.78125" stop-color="#FCFCFC"/>
<stop offset="0.8125" stop-color="#FDFDFD"/>
<stop offset="0.875" stop-color="#FDFDFD"/>
<stop offset="0.90625" stop-color="#FDFDFD"/>
<stop offset="0.9375" stop-color="#FEFEFE"/>
<stop offset="0.96875" stop-color="#FEFEFE"/>
<stop offset="1" stop-color="white"/>
</linearGradient>
<linearGradient id="paint1_linear_7662_5073" x1="441.143" y1="356.53" x2="441.143" y2="225.214" gradientUnits="userSpaceOnUse">
<stop stop-color="#F5F5F5"/>
<stop offset="0.0625" stop-color="#F5F5F5"/>
<stop offset="0.09375" stop-color="#F5F5F5"/>
<stop offset="0.125" stop-color="#F6F6F6"/>
<stop offset="0.15625" stop-color="#F6F6F6"/>
<stop offset="0.1875" stop-color="#F7F7F7"/>
<stop offset="0.25" stop-color="#F7F7F7"/>
<stop offset="0.28125" stop-color="#F7F7F7"/>
<stop offset="0.3125" stop-color="#F8F8F8"/>
<stop offset="0.375" stop-color="#F8F8F8"/>
<stop offset="0.4375" stop-color="#F8F8F8"/>
<stop offset="0.46875" stop-color="#F9F9F9"/>
<stop offset="0.5" stop-color="#FAFAFA"/>
<stop offset="0.5625" stop-color="#FAFAFA"/>
<stop offset="0.59375" stop-color="#FAFAFA"/>
<stop offset="0.625" stop-color="#FBFBFB"/>
<stop offset="0.65625" stop-color="#FBFBFB"/>
<stop offset="0.6875" stop-color="#FCFCFC"/>
<stop offset="0.75" stop-color="#FCFCFC"/>
<stop offset="0.78125" stop-color="#FCFCFC"/>
<stop offset="0.8125" stop-color="#FDFDFD"/>
<stop offset="0.875" stop-color="#FDFDFD"/>
<stop offset="0.90625" stop-color="#FDFDFD"/>
<stop offset="0.9375" stop-color="#FEFEFE"/>
<stop offset="0.96875" stop-color="#FEFEFE"/>
<stop offset="1" stop-color="white"/>
</linearGradient>
<linearGradient id="paint2_linear_7662_5073" x1="788.879" y1="356.525" x2="788.879" y2="225.209" gradientUnits="userSpaceOnUse">
<stop stop-color="#F5F5F5"/>
<stop offset="0.0625" stop-color="#F5F5F5"/>
<stop offset="0.09375" stop-color="#F5F5F5"/>
<stop offset="0.125" stop-color="#F6F6F6"/>
<stop offset="0.15625" stop-color="#F6F6F6"/>
<stop offset="0.1875" stop-color="#F7F7F7"/>
<stop offset="0.25" stop-color="#F7F7F7"/>
<stop offset="0.28125" stop-color="#F7F7F7"/>
<stop offset="0.3125" stop-color="#F8F8F8"/>
<stop offset="0.375" stop-color="#F8F8F8"/>
<stop offset="0.4375" stop-color="#F8F8F8"/>
<stop offset="0.46875" stop-color="#F9F9F9"/>
<stop offset="0.5" stop-color="#FAFAFA"/>
<stop offset="0.5625" stop-color="#FAFAFA"/>
<stop offset="0.59375" stop-color="#FAFAFA"/>
<stop offset="0.625" stop-color="#FBFBFB"/>
<stop offset="0.65625" stop-color="#FBFBFB"/>
<stop offset="0.6875" stop-color="#FCFCFC"/>
<stop offset="0.75" stop-color="#FCFCFC"/>
<stop offset="0.78125" stop-color="#FCFCFC"/>
<stop offset="0.8125" stop-color="#FDFDFD"/>
<stop offset="0.875" stop-color="#FDFDFD"/>
<stop offset="0.90625" stop-color="#FDFDFD"/>
<stop offset="0.9375" stop-color="#FEFEFE"/>
<stop offset="0.96875" stop-color="#FEFEFE"/>
<stop offset="1" stop-color="white"/>
</linearGradient>
<linearGradient id="paint3_linear_7662_5073" x1="831.808" y1="544.645" x2="831.808" y2="413.329" gradientUnits="userSpaceOnUse">
<stop stop-color="#F5F5F5"/>
<stop offset="0.0625" stop-color="#F5F5F5"/>
<stop offset="0.09375" stop-color="#F5F5F5"/>
<stop offset="0.125" stop-color="#F6F6F6"/>
<stop offset="0.15625" stop-color="#F6F6F6"/>
<stop offset="0.1875" stop-color="#F7F7F7"/>
<stop offset="0.25" stop-color="#F7F7F7"/>
<stop offset="0.28125" stop-color="#F7F7F7"/>
<stop offset="0.3125" stop-color="#F8F8F8"/>
<stop offset="0.375" stop-color="#F8F8F8"/>
<stop offset="0.4375" stop-color="#F8F8F8"/>
<stop offset="0.46875" stop-color="#F9F9F9"/>
<stop offset="0.5" stop-color="#FAFAFA"/>
<stop offset="0.5625" stop-color="#FAFAFA"/>
<stop offset="0.59375" stop-color="#FAFAFA"/>
<stop offset="0.625" stop-color="#FBFBFB"/>
<stop offset="0.65625" stop-color="#FBFBFB"/>
<stop offset="0.6875" stop-color="#FCFCFC"/>
<stop offset="0.75" stop-color="#FCFCFC"/>
<stop offset="0.78125" stop-color="#FCFCFC"/>
<stop offset="0.8125" stop-color="#FDFDFD"/>
<stop offset="0.875" stop-color="#FDFDFD"/>
<stop offset="0.90625" stop-color="#FDFDFD"/>
<stop offset="0.9375" stop-color="#FEFEFE"/>
<stop offset="0.96875" stop-color="#FEFEFE"/>
<stop offset="1" stop-color="white"/>
</linearGradient>
<linearGradient id="paint4_linear_7662_5073" x1="711.49" y1="695.515" x2="711.49" y2="564.199" gradientUnits="userSpaceOnUse">
<stop stop-color="#F5F5F5"/>
<stop offset="0.0625" stop-color="#F5F5F5"/>
<stop offset="0.09375" stop-color="#F5F5F5"/>
<stop offset="0.125" stop-color="#F6F6F6"/>
<stop offset="0.15625" stop-color="#F6F6F6"/>
<stop offset="0.1875" stop-color="#F7F7F7"/>
<stop offset="0.25" stop-color="#F7F7F7"/>
<stop offset="0.28125" stop-color="#F7F7F7"/>
<stop offset="0.3125" stop-color="#F8F8F8"/>
<stop offset="0.375" stop-color="#F8F8F8"/>
<stop offset="0.4375" stop-color="#F8F8F8"/>
<stop offset="0.46875" stop-color="#F9F9F9"/>
<stop offset="0.5" stop-color="#FAFAFA"/>
<stop offset="0.5625" stop-color="#FAFAFA"/>
<stop offset="0.59375" stop-color="#FAFAFA"/>
<stop offset="0.625" stop-color="#FBFBFB"/>
<stop offset="0.65625" stop-color="#FBFBFB"/>
<stop offset="0.6875" stop-color="#FCFCFC"/>
<stop offset="0.75" stop-color="#FCFCFC"/>
<stop offset="0.78125" stop-color="#FCFCFC"/>
<stop offset="0.8125" stop-color="#FDFDFD"/>
<stop offset="0.875" stop-color="#FDFDFD"/>
<stop offset="0.90625" stop-color="#FDFDFD"/>
<stop offset="0.9375" stop-color="#FEFEFE"/>
<stop offset="0.96875" stop-color="#FEFEFE"/>
<stop offset="1" stop-color="white"/>
</linearGradient>
<linearGradient id="paint5_linear_7662_5073" x1="518.512" y1="695.521" x2="518.512" y2="564.205" gradientUnits="userSpaceOnUse">
<stop stop-color="#F5F5F5"/>
<stop offset="0.0625" stop-color="#F5F5F5"/>
<stop offset="0.09375" stop-color="#F5F5F5"/>
<stop offset="0.125" stop-color="#F6F6F6"/>
<stop offset="0.15625" stop-color="#F6F6F6"/>
<stop offset="0.1875" stop-color="#F7F7F7"/>
<stop offset="0.25" stop-color="#F7F7F7"/>
<stop offset="0.28125" stop-color="#F7F7F7"/>
<stop offset="0.3125" stop-color="#F8F8F8"/>
<stop offset="0.375" stop-color="#F8F8F8"/>
<stop offset="0.4375" stop-color="#F8F8F8"/>
<stop offset="0.46875" stop-color="#F9F9F9"/>
<stop offset="0.5" stop-color="#FAFAFA"/>
<stop offset="0.5625" stop-color="#FAFAFA"/>
<stop offset="0.59375" stop-color="#FAFAFA"/>
<stop offset="0.625" stop-color="#FBFBFB"/>
<stop offset="0.65625" stop-color="#FBFBFB"/>
<stop offset="0.6875" stop-color="#FCFCFC"/>
<stop offset="0.75" stop-color="#FCFCFC"/>
<stop offset="0.78125" stop-color="#FCFCFC"/>
<stop offset="0.8125" stop-color="#FDFDFD"/>
<stop offset="0.875" stop-color="#FDFDFD"/>
<stop offset="0.90625" stop-color="#FDFDFD"/>
<stop offset="0.9375" stop-color="#FEFEFE"/>
<stop offset="0.96875" stop-color="#FEFEFE"/>
<stop offset="1" stop-color="white"/>
</linearGradient>
<linearGradient id="paint6_linear_7662_5073" x1="398.189" y1="544.651" x2="398.189" y2="413.335" gradientUnits="userSpaceOnUse">
<stop stop-color="#F5F5F5"/>
<stop offset="0.0625" stop-color="#F5F5F5"/>
<stop offset="0.09375" stop-color="#F5F5F5"/>
<stop offset="0.125" stop-color="#F6F6F6"/>
<stop offset="0.15625" stop-color="#F6F6F6"/>
<stop offset="0.1875" stop-color="#F7F7F7"/>
<stop offset="0.25" stop-color="#F7F7F7"/>
<stop offset="0.28125" stop-color="#F7F7F7"/>
<stop offset="0.3125" stop-color="#F8F8F8"/>
<stop offset="0.375" stop-color="#F8F8F8"/>
<stop offset="0.4375" stop-color="#F8F8F8"/>
<stop offset="0.46875" stop-color="#F9F9F9"/>
<stop offset="0.5" stop-color="#FAFAFA"/>
<stop offset="0.5625" stop-color="#FAFAFA"/>
<stop offset="0.59375" stop-color="#FAFAFA"/>
<stop offset="0.625" stop-color="#FBFBFB"/>
<stop offset="0.65625" stop-color="#FBFBFB"/>
<stop offset="0.6875" stop-color="#FCFCFC"/>
<stop offset="0.75" stop-color="#FCFCFC"/>
<stop offset="0.78125" stop-color="#FCFCFC"/>
<stop offset="0.8125" stop-color="#FDFDFD"/>
<stop offset="0.875" stop-color="#FDFDFD"/>
<stop offset="0.90625" stop-color="#FDFDFD"/>
<stop offset="0.9375" stop-color="#FEFEFE"/>
<stop offset="0.96875" stop-color="#FEFEFE"/>
<stop offset="1" stop-color="white"/>
</linearGradient>
<clipPath id="clip0_7662_5073">
<rect width="1200" height="905" fill="white"/>
</clipPath>
</defs>
</svg>
