<svg width="369" height="262" viewBox="0 0 369 262" fill="none" xmlns="http://www.w3.org/2000/svg">
<path d="M287.614 250.264H116.653C113.986 250.264 111.803 248.082 111.803 245.414V133.925C111.803 131.258 113.985 129.075 116.653 129.075H287.614C290.281 129.075 292.464 131.257 292.464 133.925V245.414C292.463 248.082 290.281 250.264 287.614 250.264Z" fill="#58627A"/>
<path d="M287.614 251.264H116.653C113.427 251.264 110.803 248.64 110.803 245.414V133.925C110.803 130.699 113.427 128.075 116.653 128.075H287.614C290.84 128.075 293.464 130.699 293.464 133.925V245.414C293.463 248.64 290.839 251.264 287.614 251.264ZM116.653 130.076C114.53 130.076 112.803 131.803 112.803 133.926V245.415C112.803 247.538 114.53 249.265 116.653 249.265H287.614C289.737 249.265 291.464 247.538 291.464 245.415V133.925C291.464 131.802 289.737 130.075 287.614 130.075H116.653V130.076Z" fill="#435564"/>
<path d="M287.614 129.076H116.653C113.986 129.076 111.803 131.258 111.803 133.926V135.993C111.803 133.373 113.985 131.229 116.653 131.229H287.614C290.281 131.229 292.464 133.373 292.464 135.993V133.926C292.463 131.258 290.281 129.076 287.614 129.076Z" fill="#6E7A91"/>
<path d="M282.555 241.043H121.711C119.044 241.043 116.861 239.023 116.861 236.555V139.654C116.861 137.185 119.043 135.166 121.711 135.166H282.555C285.222 135.166 287.405 137.186 287.405 139.654V236.555C287.405 239.023 285.222 241.043 282.555 241.043Z" fill="#FD858F"/>
<path d="M229.607 154.832H174.659V170.263H229.607V154.832Z" fill="#F4BDC3"/>
<path d="M156.87 181.954H124.701V197.385H156.87V181.954Z" fill="#F4BDC3"/>
<path d="M218.218 181.954H186.049V197.385H218.218V181.954Z" fill="#F4BDC3"/>
<path d="M278.717 181.514H246.548V196.945H278.717V181.514Z" fill="#F4BDC3"/>
<path d="M203.174 172.587H202.49V180.345H203.174V172.587Z" fill="#F4BDC3"/>
<path d="M202.832 177.01H205.103L203.967 178.976L202.832 180.943L201.696 178.976L200.561 177.01H202.832Z" fill="#F4BDC3"/>
<path d="M203.174 199.405H202.49V207.163H203.174V199.405Z" fill="#F4BDC3"/>
<path d="M202.832 203.828H205.103L203.967 205.795L202.832 207.761L201.696 205.795L200.561 203.828H202.832Z" fill="#F4BDC3"/>
<path d="M135.874 199.405H135.19V207.163H135.874V199.405Z" fill="#F4BDC3"/>
<path d="M135.532 203.828H137.803L136.668 205.795L135.532 207.761L134.397 205.795L133.262 203.828H135.532Z" fill="#F4BDC3"/>
<path d="M154.961 200.387L154.477 200.871L159.962 206.357L160.447 205.872L154.961 200.387Z" fill="#F4BDC3"/>
<path d="M157.849 203.756L159.455 202.151L160.043 204.344L160.631 206.538L158.437 205.95L156.244 205.362L157.849 203.756Z" fill="#F4BDC3"/>
<path d="M268.773 199.405H268.088V207.163H268.773V199.405Z" fill="#F4BDC3"/>
<path d="M268.43 203.828H266.159L267.295 205.795L268.43 207.761L269.565 205.795L270.701 203.828H268.43Z" fill="#F4BDC3"/>
<path d="M248.992 200.372L243.507 205.859L243.991 206.343L249.476 200.856L248.992 200.372Z" fill="#F4BDC3"/>
<path d="M246.113 203.756L244.507 202.151L243.92 204.344L243.332 206.538L245.525 205.95L247.719 205.362L246.113 203.756Z" fill="#F4BDC3"/>
<path d="M175.637 189.328H167.879V190.012H175.637V189.328Z" fill="#F4BDC3"/>
<path d="M171.215 189.67V191.941L169.248 190.805L167.281 189.67L169.248 188.534L171.215 187.399V189.67Z" fill="#F4BDC3"/>
<path d="M236.65 189.328H228.891V190.012H236.65V189.328Z" fill="#F4BDC3"/>
<path d="M233.314 189.67V191.941L235.281 190.805L237.247 189.67L235.281 188.534L233.314 187.399V189.67Z" fill="#F4BDC3"/>
<path d="M135.311 231.003C141.171 231.003 145.922 226.252 145.922 220.392C145.922 214.532 141.171 209.781 135.311 209.781C129.451 209.781 124.7 214.532 124.7 220.392C124.7 226.252 129.451 231.003 135.311 231.003Z" fill="#F4BDC3"/>
<path d="M168.414 230.563C174.274 230.563 179.025 225.812 179.025 219.952C179.025 214.092 174.274 209.341 168.414 209.341C162.554 209.341 157.803 214.092 157.803 219.952C157.803 225.812 162.554 230.563 168.414 230.563Z" fill="#F4BDC3"/>
<path d="M201.958 230.563C207.818 230.563 212.569 225.812 212.569 219.952C212.569 214.092 207.818 209.341 201.958 209.341C196.098 209.341 191.347 214.092 191.347 219.952C191.347 225.812 196.098 230.563 201.958 230.563Z" fill="#F4BDC3"/>
<path d="M235.501 230.563C241.361 230.563 246.112 225.812 246.112 219.952C246.112 214.092 241.361 209.341 235.501 209.341C229.641 209.341 224.89 214.092 224.89 219.952C224.89 225.812 229.641 230.563 235.501 230.563Z" fill="#F4BDC3"/>
<path d="M267.675 230.563C273.535 230.563 278.286 225.812 278.286 219.952C278.286 214.092 273.535 209.341 267.675 209.341C261.815 209.341 257.064 214.092 257.064 219.952C257.064 225.812 261.815 230.563 267.675 230.563Z" fill="#F4BDC3"/>
<path d="M294.59 259.748H109.676C105.52 259.748 102.15 256.379 102.15 252.222C102.15 251.277 102.916 250.511 103.861 250.511H300.404C301.349 250.511 302.115 251.277 302.115 252.222C302.116 256.378 298.747 259.748 294.59 259.748Z" fill="white"/>
<path d="M294.59 260.748H109.676C104.975 260.748 101.15 256.924 101.15 252.223C101.15 250.728 102.366 249.512 103.861 249.512H300.404C301.899 249.512 303.115 250.728 303.115 252.223C303.116 256.923 299.292 260.748 294.59 260.748ZM103.862 251.511C103.47 251.511 103.151 251.83 103.151 252.222C103.151 255.82 106.079 258.747 109.677 258.747H294.591C298.189 258.747 301.116 255.819 301.116 252.222C301.116 251.83 300.797 251.511 300.405 251.511H103.862Z" fill="#435564"/>
<path d="M255.529 250.511H148.738V247.238C148.738 245.581 150.081 244.238 151.738 244.238H252.529C254.186 244.238 255.529 245.581 255.529 247.238V250.511Z" fill="#58627A"/>
<path d="M256.529 251.511H147.738V247.238C147.738 245.032 149.533 243.238 151.738 243.238H252.529C254.735 243.238 256.529 245.032 256.529 247.238V251.511ZM149.738 249.511H254.529V247.238C254.529 246.135 253.632 245.238 252.529 245.238H151.738C150.635 245.238 149.738 246.135 149.738 247.238V249.511Z" fill="#435564"/>
<g opacity="0.21">
<path d="M197.912 249.771H182.395L223.012 129.689H238.529L197.912 249.771Z" fill="#FEFEFE"/>
</g>
<g opacity="0.21">
<path d="M210.59 249.771H202.832L243.449 129.689H251.207L210.59 249.771Z" fill="#FEFEFE"/>
</g>
<path d="M287.614 251.264H116.653C113.427 251.264 110.803 248.64 110.803 245.414V133.925C110.803 130.699 113.427 128.075 116.653 128.075H287.614C290.84 128.075 293.464 130.699 293.464 133.925V245.414C293.463 248.64 290.839 251.264 287.614 251.264ZM116.653 130.076C114.53 130.076 112.803 131.803 112.803 133.926V245.415C112.803 247.538 114.53 249.265 116.653 249.265H287.614C289.737 249.265 291.464 247.538 291.464 245.415V133.925C291.464 131.802 289.737 130.075 287.614 130.075H116.653V130.076Z" fill="#435564"/>
<path d="M123.267 260.339H20.251C17.941 260.339 16.051 258.449 16.051 256.139V192.895C16.051 190.585 17.941 188.695 20.251 188.695H123.267C125.577 188.695 127.467 190.585 127.467 192.895V256.139C127.467 258.449 125.577 260.339 123.267 260.339Z" fill="#58627A"/>
<path d="M123.267 261.339H20.251C17.384 261.339 15.051 259.006 15.051 256.139V192.895C15.051 190.028 17.384 187.696 20.251 187.696H123.267C126.134 187.696 128.467 190.028 128.467 192.895V256.139C128.467 259.006 126.134 261.339 123.267 261.339ZM20.251 189.696C18.486 189.696 17.051 191.132 17.051 192.895V256.139C17.051 257.904 18.487 259.339 20.251 259.339H123.267C125.031 259.339 126.467 257.904 126.467 256.139V192.895C126.467 191.131 125.031 189.696 123.267 189.696H20.251Z" fill="#435564"/>
<path d="M112.291 255.704H24.527C23.223 255.704 22.156 254.637 22.156 253.333V196.581C22.156 195.277 23.223 194.21 24.527 194.21H112.291C113.595 194.21 114.662 195.277 114.662 196.581V253.333C114.661 254.637 113.595 255.704 112.291 255.704Z" fill="#F5C54C"/>
<path d="M53.091 197.478H25.291V225.278H53.091V197.478Z" fill="#FFE4A9"/>
<path d="M53.091 227.959H25.291V230.64H53.091V227.959Z" fill="#FFE4A9"/>
<path d="M110.64 197.478H56.072V200.042H110.64V197.478Z" fill="#FFE4A9"/>
<path d="M110.64 202.535H56.072V205.099H110.64V202.535Z" fill="#FFE4A9"/>
<path d="M110.64 207.718H56.072V210.282H110.64V207.718Z" fill="#FFE4A9"/>
<path d="M110.64 212.826H56.072V215.39H110.64V212.826Z" fill="#FFE4A9"/>
<path d="M110.64 217.935H56.072V220.499H110.64V217.935Z" fill="#FFE4A9"/>
<path d="M110.64 222.992H56.072V225.556H110.64V222.992Z" fill="#FFE4A9"/>
<path d="M110.64 228.175H56.072V230.739H110.64V228.175Z" fill="#FFE4A9"/>
<path d="M110.64 233.283H56.072V235.847H110.64V233.283Z" fill="#FFE4A9"/>
<path d="M110.64 238.392H56.072V240.956H110.64V238.392Z" fill="#FFE4A9"/>
<path d="M110.64 243.448H56.072V246.012H110.64V243.448Z" fill="#FFE4A9"/>
<path d="M110.64 248.631H56.072V251.195H110.64V248.631Z" fill="#FFE4A9"/>
<path d="M53.091 233.321H25.291V236.002H53.091V233.321Z" fill="#FFE4A9"/>
<path d="M53.091 238.684H25.291V241.365H53.091V238.684Z" fill="#FFE4A9"/>
<path d="M53.091 243.152H25.291V245.833H53.091V243.152Z" fill="#FFE4A9"/>
<path d="M53.091 248.514H25.291V251.195H53.091V248.514Z" fill="#FFE4A9"/>
<path d="M124.26 226.977C124.26 228.658 122.897 230.022 121.215 230.022C119.533 230.022 118.17 228.659 118.17 226.977C118.17 225.295 119.533 223.932 121.215 223.932C122.897 223.932 124.26 225.296 124.26 226.977Z" fill="#58627A"/>
<path d="M121.215 231.022C118.985 231.022 117.171 229.208 117.171 226.977C117.171 224.748 118.985 222.933 121.215 222.933C123.445 222.933 125.26 224.747 125.26 226.977C125.26 229.208 123.446 231.022 121.215 231.022ZM121.215 224.933C120.088 224.933 119.171 225.85 119.171 226.977C119.171 228.105 120.088 229.022 121.215 229.022C122.343 229.022 123.26 228.105 123.26 226.977C123.26 225.85 122.343 224.933 121.215 224.933Z" fill="#435564"/>
<g opacity="0.21">
<path d="M55.677 260.339H43.761L72.25 188.695H84.166L55.677 260.339Z" fill="#FEFEFE"/>
</g>
<g opacity="0.21">
<path d="M93.1481 188.695C92.7161 188.855 92.2401 188.96 91.6931 188.96C91.6031 188.96 91.5271 188.94 91.4401 188.935L63.0471 260.338H69.0051L97.4941 188.694H93.1481V188.695Z" fill="#FEFEFE"/>
</g>
<path d="M123.267 261.339H20.251C17.384 261.339 15.051 259.006 15.051 256.139V192.895C15.051 190.028 17.384 187.696 20.251 187.696H123.267C126.134 187.696 128.467 190.028 128.467 192.895V256.139C128.467 259.006 126.134 261.339 123.267 261.339ZM20.251 189.696C18.486 189.696 17.051 191.132 17.051 192.895V256.139C17.051 257.904 18.487 259.339 20.251 259.339H123.267C125.031 259.339 126.467 257.904 126.467 256.139V192.895C126.467 191.131 125.031 189.696 123.267 189.696H20.251Z" fill="#435564"/>
<path d="M333.347 232.318H304.132C301.474 232.318 299.299 230.143 299.299 227.485V168.966C299.299 166.308 301.474 164.133 304.132 164.133H333.347C336.005 164.133 338.18 166.308 338.18 168.966V227.485C338.18 230.143 336.005 232.318 333.347 232.318Z" fill="#58627A"/>
<path d="M333.346 233.318H304.132C300.915 233.318 298.298 230.702 298.298 227.485V168.965C298.298 165.748 300.915 163.132 304.132 163.132H333.346C336.563 163.132 339.18 165.748 339.18 168.965V227.485C339.18 230.702 336.563 233.318 333.346 233.318ZM304.132 165.132C302.018 165.132 300.298 166.852 300.298 168.965V227.485C300.298 229.598 302.018 231.318 304.132 231.318H333.346C335.46 231.318 337.18 229.598 337.18 227.485V168.965C337.18 166.852 335.46 165.132 333.346 165.132H304.132Z" fill="#435564"/>
<path d="M332.548 225.064H304.931C303.347 225.064 302.052 223.768 302.052 222.185V171.839C302.052 170.255 303.348 168.96 304.931 168.96H332.548C334.132 168.96 335.427 170.256 335.427 171.839V222.185C335.427 223.768 334.132 225.064 332.548 225.064Z" fill="#A9DB63"/>
<path d="M312.277 182.262H307.332C306.049 182.262 304.999 181.212 304.999 179.929V174.984C304.999 173.701 306.049 172.651 307.332 172.651H312.277C313.56 172.651 314.61 173.701 314.61 174.984V179.929C314.61 181.212 313.56 182.262 312.277 182.262Z" fill="#E7F9CA"/>
<path d="M312.277 197.746H307.332C306.049 197.746 304.999 196.696 304.999 195.413V190.468C304.999 189.185 306.049 188.135 307.332 188.135H312.277C313.56 188.135 314.61 189.185 314.61 190.468V195.413C314.61 196.696 313.56 197.746 312.277 197.746Z" fill="#E7F9CA"/>
<path d="M312.277 213.23H307.332C306.049 213.23 304.999 212.18 304.999 210.897V205.952C304.999 204.669 306.049 203.619 307.332 203.619H312.277C313.56 203.619 314.61 204.669 314.61 205.952V210.897C314.61 212.18 313.56 213.23 312.277 213.23Z" fill="#E7F9CA"/>
<path d="M333.019 173.044H316.847V174.386H333.019V173.044Z" fill="#E7F9CA"/>
<path d="M333.019 176.141H316.847V177.483H333.019V176.141Z" fill="#E7F9CA"/>
<path d="M333.019 179.237H316.847V180.579H333.019V179.237Z" fill="#E7F9CA"/>
<path d="M333.019 188.528H316.847V189.87H333.019V188.528Z" fill="#E7F9CA"/>
<path d="M333.019 191.624H316.847V192.966H333.019V191.624Z" fill="#E7F9CA"/>
<path d="M333.019 194.721H316.847V196.063H333.019V194.721Z" fill="#E7F9CA"/>
<path d="M333.019 204.011H316.847V205.353H333.019V204.011Z" fill="#E7F9CA"/>
<path d="M333.019 207.108H316.847V208.45H333.019V207.108Z" fill="#E7F9CA"/>
<path d="M333.019 210.205H316.847V211.547H333.019V210.205Z" fill="#E7F9CA"/>
<path d="M323.729 167.029H312.718C312.434 167.029 312.202 166.797 312.202 166.513C312.202 166.229 312.434 165.997 312.718 165.997H323.729C324.013 165.997 324.245 166.229 324.245 166.513C324.245 166.797 324.012 167.029 323.729 167.029Z" fill="#435564"/>
<path d="M318.955 230.693C320.119 230.693 321.062 229.75 321.062 228.586C321.062 227.422 320.119 226.479 318.955 226.479C317.791 226.479 316.848 227.422 316.848 228.586C316.848 229.75 317.791 230.693 318.955 230.693Z" fill="#58627A"/>
<path d="M318.955 231.694C317.241 231.694 315.848 230.3 315.848 228.587C315.848 226.873 317.242 225.48 318.955 225.48C320.669 225.48 322.062 226.873 322.062 228.587C322.062 230.3 320.669 231.694 318.955 231.694ZM318.955 227.479C318.345 227.479 317.848 227.976 317.848 228.586C317.848 229.196 318.345 229.693 318.955 229.693C319.565 229.693 320.062 229.196 320.062 228.586C320.062 227.976 319.565 227.479 318.955 227.479Z" fill="#435564"/>
<path d="M327.3 222.055H310.609C309.569 222.055 308.718 221.204 308.718 220.164V218.68C308.718 217.64 309.569 216.789 310.609 216.789H327.3C328.34 216.789 329.191 217.64 329.191 218.68V220.164C329.191 221.204 328.34 222.055 327.3 222.055Z" fill="#80B729"/>
<g opacity="0.17">
<path d="M324.933 232.318H316.847L324.675 164.133H332.761L324.933 232.318Z" fill="#FEFEFE"/>
</g>
<g opacity="0.17">
<path d="M314.61 232.318H310.696L318.524 164.133H322.438L314.61 232.318Z" fill="#FEFEFE"/>
</g>
<path d="M333.346 233.318H304.132C300.915 233.318 298.298 230.702 298.298 227.485V168.965C298.298 165.748 300.915 163.132 304.132 163.132H333.346C336.563 163.132 339.18 165.748 339.18 168.965V227.485C339.18 230.702 336.563 233.318 333.346 233.318ZM304.132 165.132C302.018 165.132 300.298 166.852 300.298 168.965V227.485C300.298 229.598 302.018 231.318 304.132 231.318H333.346C335.46 231.318 337.18 229.598 337.18 227.485V168.965C337.18 166.852 335.46 165.132 333.346 165.132H304.132Z" fill="#435564"/>
<path d="M74.013 145.995C81.035 145.995 86.931 140.485 87.154 133.467C87.16 133.281 87.163 133.095 87.163 132.908C87.163 123.382 79.441 115.659 69.915 115.659C69.747 115.659 69.581 115.667 69.414 115.672C69.414 115.668 69.414 115.664 69.414 115.659C69.414 111.412 65.971 107.969 61.724 107.969C60.023 107.969 58.451 108.522 57.178 109.458C54.602 101.461 47.104 95.6741 38.251 95.6741C27.757 95.6741 19.167 103.805 18.424 114.11C10.954 115.512 5.30103 122.064 5.30103 129.94C5.30103 137.13 10.012 143.217 16.515 145.288C18.077 145.786 19.717 145.994 21.356 145.994H74.013V145.995Z" fill="white"/>
<path d="M163.656 104.653C170.678 104.653 176.574 99.143 176.797 92.125C176.803 91.939 176.806 91.753 176.806 91.566C176.806 82.04 169.084 74.318 159.558 74.318C159.39 74.318 159.224 74.326 159.057 74.331C159.057 74.327 159.057 74.323 159.057 74.318C159.057 70.071 155.614 66.628 151.367 66.628C149.666 66.628 148.094 67.182 146.821 68.117C144.245 60.121 136.747 54.333 127.894 54.333C117.4 54.333 108.81 62.464 108.067 72.769C100.597 74.171 94.9441 80.723 94.9441 88.599C94.9441 95.789 99.6551 101.876 106.158 103.948C107.72 104.446 109.36 104.654 110.999 104.654H163.656V104.653Z" fill="white"/>
<path d="M266.31 121.711C273.332 121.711 279.228 116.201 279.451 109.183C279.457 108.997 279.46 108.811 279.46 108.624C279.46 99.0979 271.738 91.3749 262.212 91.3749C262.044 91.3749 261.878 91.3829 261.711 91.3879C261.711 91.3839 261.711 91.3789 261.711 91.3749C261.711 87.1279 258.268 83.6849 254.021 83.6849C252.32 83.6849 250.748 84.2379 249.475 85.1739C246.899 77.1769 239.401 71.3899 230.548 71.3899C220.054 71.3899 211.464 79.5209 210.721 89.8259C203.251 91.2279 197.598 97.7799 197.598 105.656C197.598 112.846 202.309 118.933 208.812 121.004C210.374 121.502 212.014 121.71 213.653 121.71L266.31 121.711Z" fill="white"/>
<path d="M45.344 142.841C35.969 142.841 28.342 135.214 28.342 125.839C28.342 116.464 35.969 108.837 45.344 108.837C54.719 108.837 62.346 116.464 62.346 125.839C62.346 135.214 54.719 142.841 45.344 142.841ZM45.344 110.837C37.072 110.837 30.342 117.567 30.342 125.839C30.342 134.111 37.072 140.841 45.344 140.841C53.616 140.841 60.346 134.111 60.346 125.839C60.346 117.567 53.616 110.837 45.344 110.837Z" fill="#28B5FF"/>
<path d="M45.7582 142.751L44.9312 140.931C50.8372 138.249 54.6532 132.326 54.6532 125.839C54.6532 119.353 50.8372 113.429 44.9312 110.748L45.7582 108.927C52.3772 111.932 56.6532 118.571 56.6532 125.84C56.6532 133.109 52.3762 139.747 45.7582 142.751Z" fill="#28B5FF"/>
<path d="M44.6451 142.558C44.4171 142.558 44.1901 142.505 43.9791 142.397C37.7131 139.214 33.8201 132.87 33.8201 125.839C33.8201 118.673 38.0111 112.074 44.4971 109.027C44.8561 108.86 45.2671 108.888 45.5981 109.098C45.9301 109.309 46.1281 109.67 46.1281 110.063V141.069C46.1281 141.59 45.8621 142.065 45.4161 142.339C45.1781 142.485 44.9121 142.558 44.6451 142.558ZM44.1281 111.474C39.0401 114.407 35.8191 119.905 35.8191 125.839C35.8191 131.823 38.9811 137.252 44.1281 140.205V111.474Z" fill="#28B5FF"/>
<path d="M31.5549 118.763L31.2319 116.789C35.9879 116.01 40.8369 115.631 45.6589 115.659C50.1239 115.687 54.6199 116.067 59.0239 116.789L58.7009 118.763C54.3999 118.058 50.0079 117.687 45.6469 117.659C40.9539 117.634 36.2019 118.001 31.5549 118.763Z" fill="#28B5FF"/>
<path d="M45.1179 136.035C44.9439 136.035 44.7709 136.034 44.5969 136.033C40.1349 136.005 35.6379 135.625 31.2319 134.903L31.5549 132.928C35.8589 133.634 40.2509 134.005 44.6099 134.032C49.3189 134.049 54.0599 133.689 58.6999 132.928L59.0239 134.901C54.4439 135.654 49.7679 136.035 45.1179 136.035Z" fill="#28B5FF"/>
<path d="M60.954 124.839H29.342V126.839H60.954V124.839Z" fill="#28B5FF"/>
<path d="M108.723 86.5989C107.979 87.3249 106.827 88.3739 105.268 89.7479C105.925 90.3889 106.945 91.3129 108.329 92.5229C108.767 92.8739 108.985 93.2679 108.985 93.7069C108.985 94.1279 108.816 94.4979 108.479 94.8179C108.142 95.1379 107.741 95.2979 107.277 95.2979C106.786 95.2979 106.173 94.9869 105.439 94.3659L103.915 92.8949C103.101 92.1159 102.321 91.5939 101.577 91.3319C100.693 91.0259 100.251 90.5399 100.251 89.8739C100.251 89.2699 100.645 88.7949 101.433 88.4489C102.221 88.1029 103.096 87.4659 104.06 86.5369C105.373 85.2589 106.166 84.5189 106.438 84.3169C106.796 84.0459 107.173 83.9089 107.567 83.9089C108.031 83.9089 108.432 84.0669 108.769 84.3819C109.106 84.6959 109.275 85.0639 109.275 85.4839C109.275 85.8949 109.091 86.2659 108.723 86.5989Z" fill="#28B5FF"/>
<path d="M117.91 95.552C116.416 95.552 115.164 95.128 114.153 94.279C113.087 93.383 112.554 92.202 112.554 90.735C112.554 89.384 113.032 87.989 113.99 86.549C115.076 84.906 116.339 84.085 117.778 84.085C118.484 84.085 119.309 84.275 120.253 84.655C121.4 85.123 121.974 85.663 121.974 86.274C121.974 86.607 121.859 86.902 121.628 87.16C121.384 87.438 121.068 87.577 120.681 87.577C120.389 87.577 120.037 87.419 119.627 87.103C119.216 86.788 118.6 86.629 117.779 86.629C117.256 86.629 116.69 87.142 116.078 88.167C115.495 89.158 115.202 90.014 115.202 90.733C115.202 91.445 115.46 92.005 115.976 92.413C116.465 92.8 117.11 92.993 117.911 92.993C118.366 92.993 118.923 92.82 119.581 92.474C120.24 92.128 120.657 91.954 120.833 91.954C121.2 91.954 121.514 92.086 121.775 92.352C122.037 92.617 122.167 92.919 122.167 93.258C122.167 93.787 121.59 94.317 120.436 94.846C119.403 95.317 118.561 95.552 117.91 95.552Z" fill="#28B5FF"/>
<path d="M128.133 95.5111C126.877 95.5111 125.798 95.0801 124.895 94.2181C123.904 93.2751 123.385 92.0151 123.337 90.4401C123.289 88.9391 123.7 87.6031 124.569 86.4281C125.601 85.0431 127.037 84.3511 128.877 84.3511C130.234 84.3511 131.314 84.8941 132.115 85.9801C132.835 86.9581 133.194 88.1691 133.194 89.6151C133.194 91.1901 132.773 92.5341 131.931 93.6471C130.988 94.8901 129.722 95.5111 128.133 95.5111ZM128.744 87.0391C127.909 87.0331 127.251 87.4131 126.769 88.1801C126.362 88.8251 126.158 89.5781 126.158 90.4411C126.158 91.2551 126.389 91.8801 126.851 92.3151C127.217 92.6611 127.645 92.8351 128.134 92.8351C128.725 92.8351 129.237 92.6351 129.672 92.2341C130.168 91.7661 130.432 91.1311 130.466 90.3301C130.553 88.1421 129.98 87.0451 128.744 87.0391Z" fill="#28B5FF"/>
<path d="M142.359 84.676C142.447 82.361 142.552 80.762 142.674 79.88C142.789 79.079 143.231 78.678 143.998 78.678C144.398 78.678 144.721 78.808 144.965 79.069C145.21 79.33 145.332 79.649 145.332 80.026C145.332 81.02 145.256 82.501 145.103 84.468C144.95 86.435 144.874 87.916 144.874 88.91C144.874 91.337 144.952 92.962 145.108 93.785C145.128 93.895 145.139 93.994 145.139 94.083C145.139 94.46 145.003 94.77 144.732 95.014C144.461 95.257 144.145 95.379 143.785 95.379C143.282 95.379 142.909 95.155 142.665 94.707C142.203 94.985 141.724 95.167 141.229 95.252C140.733 95.337 140.221 95.379 139.691 95.379C138.17 95.379 136.907 94.894 135.903 93.923C134.878 92.932 134.365 91.669 134.365 90.135C134.365 88.309 134.881 86.834 135.913 85.711C136.945 84.588 138.292 84.026 139.955 84.026C140.464 84.026 140.919 84.08 141.319 84.189C141.721 84.296 142.067 84.459 142.359 84.676ZM142.155 87.884C141.931 87.457 141.639 87.137 141.279 86.927C140.919 86.717 140.491 86.612 139.996 86.612C138.992 86.612 138.238 86.902 137.736 87.483C137.234 88.063 136.982 88.934 136.982 90.095C136.982 90.828 137.253 91.456 137.797 91.979C138.34 92.502 138.971 92.763 139.691 92.763C140.214 92.763 140.611 92.702 140.882 92.579C141.065 92.497 141.377 92.281 141.819 91.928C141.935 91.833 142.046 91.728 142.155 91.612C142.142 91.285 142.142 90.043 142.155 87.884Z" fill="#28B5FF"/>
<path d="M152.287 95.3781C150.664 95.3781 149.337 94.9911 148.306 94.2171C147.165 93.3621 146.595 92.1561 146.595 90.6021C146.595 88.8841 147.047 87.4321 147.95 86.2441C148.954 84.9271 150.309 84.2681 152.013 84.2681C153.194 84.2681 154.175 84.4581 154.956 84.8381C155.981 85.3401 156.494 86.1211 156.494 87.1801C156.494 87.9271 156.076 88.5891 155.241 89.1661C154.861 89.4311 154.097 89.8181 152.949 90.3271L149.517 91.8451C149.843 92.1981 150.237 92.4631 150.699 92.6391C151.161 92.8161 151.69 92.9041 152.287 92.9041C153.197 92.9041 153.967 92.7171 154.598 92.3441C155.162 92.0111 155.613 91.8451 155.952 91.8451C156.658 91.8451 157.011 92.1881 157.011 92.8731C157.011 93.6471 156.444 94.2781 155.311 94.7671C154.361 95.1751 153.353 95.3781 152.287 95.3781ZM152.012 86.7331C151.381 86.7331 150.841 86.9431 150.393 87.3641C149.945 87.7851 149.585 88.4161 149.313 89.2581C150.08 88.9251 150.844 88.5961 151.605 88.2701C152.521 87.8561 153.251 87.4721 153.794 87.1191C153.339 86.8621 152.745 86.7331 152.012 86.7331Z" fill="#28B5FF"/>
<path d="M169.459 90.3578C167.349 92.1708 165.142 93.7549 162.839 95.1129C162.515 95.3059 162.191 95.4019 161.867 95.4019C161.394 95.4019 160.993 95.2398 160.665 94.9158C160.337 94.5918 160.172 94.2189 160.172 93.7979C160.172 93.3159 160.409 92.9038 160.882 92.5618C161.906 91.8688 163.425 90.8078 165.44 89.3788C164.433 88.6528 163.465 87.8478 162.537 86.9648C161.364 85.8628 160.777 85.0889 160.777 84.6429C160.777 84.2139 160.954 83.8438 161.309 83.5338C161.664 83.2228 162.069 83.0688 162.524 83.0688C162.997 83.0688 163.421 83.2619 163.798 83.6469C165.759 85.6609 167.515 87.0408 169.065 87.7838C169.774 88.1258 170.129 88.5769 170.129 89.1369C170.129 89.5659 169.906 89.9728 169.459 90.3578Z" fill="#28B5FF"/>
<path d="M237.709 96.255C235.388 96.255 223.808 96.075 223.808 92.529C223.808 88.982 235.388 88.802 237.709 88.802C240.03 88.802 251.61 88.982 251.61 92.529C251.61 96.075 240.03 96.255 237.709 96.255ZM226.139 92.529C227.247 93.177 231.196 94.144 237.71 94.144C244.223 94.144 248.173 93.177 249.281 92.529C248.173 91.88 244.225 90.913 237.71 90.913C231.196 90.913 227.247 91.88 226.139 92.529Z" fill="#28B5FF"/>
<path d="M237.709 100.714C235.388 100.714 223.808 100.534 223.808 96.9881V92.5291H225.919V96.832C226.599 97.467 230.646 98.604 237.709 98.604C244.772 98.604 248.819 97.467 249.499 96.832V92.5291H251.61V96.9881C251.61 100.534 240.03 100.714 237.709 100.714Z" fill="#28B5FF"/>
<path d="M237.709 105.991C235.388 105.991 223.808 105.811 223.808 102.265V97.8059H225.919V102.109C226.599 102.744 230.646 103.881 237.709 103.881C244.772 103.881 248.819 102.744 249.499 102.109V97.8059H251.61V102.265C251.61 105.811 240.03 105.991 237.709 105.991Z" fill="#28B5FF"/>
<path d="M237.709 111.267C235.388 111.267 223.808 111.087 223.808 107.541V103.082H225.919V107.385C226.599 108.02 230.646 109.157 237.709 109.157C244.772 109.157 248.819 108.02 249.499 107.385V103.082H251.61V107.541C251.61 111.088 240.03 111.267 237.709 111.267Z" fill="#28B5FF"/>
<path d="M237.709 116.544C235.388 116.544 223.808 116.364 223.808 112.818V108.359H225.919V112.662C226.599 113.297 230.646 114.434 237.709 114.434C244.772 114.434 248.819 113.297 249.499 112.662V108.359H251.61V112.818C251.61 116.364 240.03 116.544 237.709 116.544Z" fill="#28B5FF"/>
<path d="M355.736 96.551C362.758 96.551 368.654 91.041 368.877 84.023C368.883 83.837 368.886 83.651 368.886 83.464C368.886 73.938 361.164 66.216 351.637 66.216C351.469 66.216 351.303 66.224 351.136 66.229C351.136 66.225 351.136 66.221 351.136 66.216C351.136 61.969 347.693 58.526 343.446 58.526C341.745 58.526 340.173 59.08 338.9 60.015C336.324 52.019 328.826 46.231 319.973 46.231C309.479 46.231 300.889 54.362 300.146 64.667C292.676 66.069 287.023 72.621 287.023 80.497C287.023 87.687 291.734 93.774 298.237 95.846C299.799 96.344 301.439 96.552 303.078 96.552L355.736 96.551Z" fill="white"/>
<path d="M68.712 57.3361C75.734 57.3361 81.63 51.8261 81.853 44.8081C81.859 44.6221 81.862 44.4361 81.862 44.2491C81.862 34.7231 74.14 27.0011 64.614 27.0011C64.446 27.0011 64.28 27.0091 64.113 27.0141C64.113 27.0101 64.113 27.0061 64.113 27.0011C64.113 22.7541 60.67 19.3111 56.423 19.3111C54.722 19.3111 53.15 19.8641 51.877 20.8001C49.301 12.8031 41.803 7.01611 32.95 7.01611C22.456 7.01611 13.866 15.1471 13.123 25.4521C5.653 26.8531 0 33.4061 0 41.2821C0 48.4721 4.711 54.5591 11.214 56.6311C12.776 57.1291 14.416 57.3371 16.055 57.3371L68.712 57.3361Z" fill="white"/>
<path d="M245.999 50.32C253.021 50.32 258.917 44.81 259.141 37.792C259.147 37.606 259.15 37.42 259.15 37.233C259.15 27.707 251.428 19.985 241.902 19.985C241.734 19.985 241.568 19.993 241.401 19.998C241.401 19.994 241.401 19.99 241.401 19.985C241.401 15.738 237.958 12.295 233.711 12.295C232.01 12.295 230.438 12.849 229.165 13.784C226.589 5.788 219.091 0 210.238 0C199.744 0 191.154 8.131 190.411 18.436C182.941 19.838 177.288 26.39 177.288 34.266C177.288 41.456 181.999 47.543 188.502 49.615C190.064 50.113 191.704 50.321 193.343 50.321H245.999V50.32Z" fill="white"/>
<path d="M356.633 80.835L355.352 83.41L352.616 82.049L353.363 80.547L350.949 79.346L349.561 82.136L347.791 81.255L345.315 86.231L323.909 75.58L325.254 72.876L323.118 71.813C323.405 67.461 321.109 63.159 316.96 61.095C311.449 58.353 304.758 60.597 302.016 66.109C299.274 71.62 301.518 78.311 307.03 81.053C311.179 83.117 315.995 82.355 319.293 79.501L319.23 79.627L321.366 80.69L322.774 77.86L353.837 93.316L354.373 92.239L354.972 91.036L359.37 82.197L356.633 80.835ZM305.197 69.8C304.264 69.335 303.884 68.202 304.348 67.269C304.812 66.336 305.946 65.956 306.879 66.42C307.812 66.884 308.193 68.018 307.728 68.951C307.264 69.884 306.131 70.264 305.197 69.8Z" fill="#28B5FF"/>
<path d="M64.739 41.821C64.764 41.997 64.786 42.204 64.801 42.432C64.734 41.396 64.46 40.375 63.992 39.434C64.668 38.668 65.344 37.901 66.019 37.135L62.033 33.509C61.359 34.239 60.685 34.969 60.01 35.699C58.757 35.171 57.408 34.984 56.094 35.13C56.577 35.076 56.995 35.074 57.318 35.088C56.99 34.117 56.661 33.147 56.333 32.176L51.202 33.823C51.507 34.798 51.812 35.773 52.117 36.748C52.141 36.729 52.17 36.709 52.195 36.689C51.694 37.072 51.23 37.521 50.818 38.036C50.574 38.342 50.357 38.66 50.166 38.989C50.28 38.793 50.391 38.619 50.49 38.475C49.493 38.239 48.496 38.003 47.498 37.767L46.176 42.991C47.164 43.249 48.153 43.507 49.142 43.765C49.122 43.575 49.107 43.348 49.103 43.097C49.141 44.963 49.84 46.804 51.158 48.242C50.48 47.513 50.068 46.793 49.829 46.295C49.13 47.044 48.43 47.793 47.731 48.542L51.612 52.281C52.32 51.557 53.028 50.833 53.736 50.109C54.801 50.589 55.942 50.815 57.075 50.798C56.849 50.802 56.643 50.796 56.468 50.785C56.78 51.761 57.092 52.737 57.403 53.714L62.561 52.154C62.273 51.174 61.984 50.194 61.696 49.214C61.694 49.215 61.692 49.217 61.69 49.219C62.205 48.831 62.68 48.372 63.101 47.845C63.349 47.534 63.57 47.21 63.764 46.875C63.705 46.977 63.647 47.074 63.594 47.159C64.599 47.357 65.605 47.555 66.61 47.753L67.734 42.483C66.735 42.263 65.737 42.042 64.739 41.821ZM49.345 40.998C49.343 41.007 49.34 41.016 49.338 41.026C49.339 41.021 49.34 41.017 49.341 41.013C49.342 41.008 49.343 41.003 49.345 40.998ZM50.102 39.103C50.07 39.16 50.039 39.217 50.009 39.274C50.04 39.215 50.071 39.159 50.102 39.103ZM49.91 39.467C49.895 39.497 49.881 39.528 49.866 39.558C49.881 39.527 49.896 39.497 49.91 39.467ZM49.595 40.197C49.594 40.199 49.593 40.201 49.593 40.203C49.593 40.202 49.594 40.199 49.595 40.197ZM49.462 40.586C49.461 40.591 49.459 40.595 49.458 40.6C49.459 40.595 49.46 40.59 49.462 40.586ZM49.103 42.771C49.101 42.857 49.1 42.943 49.101 43.029C49.1 42.945 49.101 42.86 49.103 42.771ZM49.117 42.459C49.113 42.519 49.109 42.579 49.107 42.639C49.109 42.581 49.113 42.52 49.117 42.459ZM64.815 42.767C64.813 42.666 64.809 42.566 64.803 42.466C64.809 42.562 64.813 42.662 64.815 42.767ZM54.563 35.457C54.553 35.46 54.543 35.464 54.534 35.467C54.542 35.464 54.549 35.461 54.557 35.459C54.559 35.458 54.561 35.457 54.563 35.457ZM56.01 35.141C55.918 35.152 55.825 35.164 55.733 35.179C55.828 35.164 55.92 35.152 56.01 35.141ZM52.458 36.499C52.397 36.541 52.337 36.584 52.277 36.628C52.334 36.586 52.395 36.543 52.458 36.499ZM53.788 35.751C53.772 35.758 53.756 35.766 53.74 35.773C53.755 35.766 53.771 35.758 53.788 35.751ZM53.436 35.917C53.422 35.924 53.407 35.932 53.393 35.939C53.407 35.931 53.421 35.924 53.436 35.917ZM53.112 36.088C53.097 36.096 53.083 36.105 53.068 36.113C53.084 36.105 53.097 36.096 53.112 36.088ZM52.814 36.264C52.8 36.272 52.787 36.282 52.773 36.29C52.787 36.281 52.799 36.273 52.814 36.264ZM57.1 50.798C57.206 50.796 57.312 50.792 57.417 50.785C57.307 50.792 57.201 50.796 57.1 50.798ZM59.176 50.479C59.201 50.472 59.226 50.465 59.25 50.458C59.244 50.46 59.239 50.462 59.233 50.464C59.214 50.469 59.196 50.473 59.176 50.479ZM57.516 50.779C57.599 50.773 57.682 50.766 57.765 50.757C57.68 50.766 57.597 50.773 57.516 50.779ZM57.909 50.741C57.979 50.733 58.049 50.723 58.118 50.713C58.047 50.723 57.978 50.732 57.909 50.741ZM58.307 50.682C58.366 50.672 58.424 50.661 58.482 50.649C58.423 50.661 58.365 50.672 58.307 50.682ZM61.434 49.402C61.505 49.353 61.575 49.303 61.644 49.252C61.579 49.3 61.509 49.35 61.434 49.402ZM61.186 49.566C61.222 49.543 61.258 49.52 61.294 49.497C61.259 49.519 61.223 49.543 61.186 49.566ZM61.7 46.727C59.609 49.345 55.791 49.773 53.173 47.682C50.555 45.591 50.127 41.773 52.218 39.155C54.309 36.537 58.127 36.109 60.745 38.2C63.363 40.291 63.791 44.109 61.7 46.727ZM63.917 46.594C63.877 46.67 63.838 46.743 63.799 46.812C63.84 46.739 63.879 46.667 63.917 46.594ZM64.643 44.587C64.645 44.579 64.646 44.572 64.648 44.564C64.647 44.569 64.646 44.574 64.645 44.58C64.644 44.582 64.644 44.585 64.643 44.587ZM63.992 46.449C64.011 46.412 64.028 46.373 64.046 46.336C64.028 46.373 64.01 46.412 63.992 46.449ZM64.815 43.102C64.816 43.03 64.817 42.959 64.817 42.887C64.817 42.957 64.816 43.028 64.815 43.102ZM64.8 43.443C64.803 43.391 64.807 43.339 64.809 43.287C64.807 43.338 64.804 43.39 64.8 43.443Z" fill="#28B5FF"/>
<path d="M43.576 29.035C43.705 29.269 43.846 29.548 43.988 29.861C43.342 28.44 42.415 27.151 41.256 26.078C41.798 24.641 42.34 23.204 42.882 21.767L35.35 18.791C34.791 20.176 34.232 21.561 33.672 22.946C31.63 22.87 29.634 23.326 27.865 24.23C28.515 23.897 29.102 23.672 29.563 23.521C28.585 22.331 27.607 21.141 26.629 19.952L20.294 24.997C21.242 26.205 22.189 27.414 23.137 28.622C23.161 28.583 23.19 28.538 23.216 28.497C22.715 29.302 22.302 30.18 21.997 31.123C21.817 31.683 21.682 32.246 21.587 32.809C21.643 32.472 21.706 32.17 21.769 31.913C20.242 32.112 18.715 32.311 17.187 32.509L18.108 40.555C19.635 40.392 21.162 40.229 22.688 40.066C22.559 39.809 22.418 39.499 22.277 39.149C23.324 41.751 25.285 43.967 27.903 45.287C26.562 44.623 25.601 43.83 24.998 43.258C24.413 44.683 23.829 46.108 23.244 47.533L30.688 50.723C31.298 49.329 31.908 47.934 32.518 46.54C34.27 46.648 35.994 46.359 37.577 45.732C37.261 45.857 36.969 45.959 36.717 46.037C37.675 47.243 38.632 48.449 39.59 49.656L46.01 44.719C45.083 43.495 44.156 42.27 43.23 41.046C43.228 41.049 43.226 41.053 43.223 41.056C43.74 40.236 44.164 39.339 44.475 38.374C44.659 37.805 44.796 37.231 44.891 36.658C44.863 36.833 44.833 36.999 44.802 37.147C46.321 36.89 47.839 36.634 49.358 36.378L48.133 28.372C46.616 28.594 45.096 28.815 43.576 29.035ZM21.5 36.069C21.502 36.083 21.503 36.097 21.505 36.112C21.504 36.105 21.503 36.099 21.502 36.092C21.501 36.084 21.501 36.077 21.5 36.069ZM21.556 33.003C21.541 33.099 21.529 33.196 21.517 33.292C21.529 33.193 21.542 33.097 21.556 33.003ZM21.48 33.616C21.475 33.666 21.471 33.717 21.467 33.767C21.472 33.716 21.476 33.665 21.48 33.616ZM21.426 34.811C21.426 34.814 21.426 34.818 21.426 34.821C21.426 34.817 21.426 34.814 21.426 34.811ZM21.445 35.428C21.445 35.435 21.446 35.443 21.446 35.45C21.446 35.442 21.446 35.435 21.445 35.428ZM22.104 38.689C22.147 38.811 22.191 38.932 22.238 39.052C22.193 38.936 22.148 38.815 22.104 38.689ZM21.827 37.794C21.84 37.844 21.853 37.894 21.867 37.944C21.853 37.895 21.84 37.844 21.827 37.794ZM21.957 38.244C21.984 38.33 22.01 38.417 22.039 38.503C22.011 38.419 21.984 38.331 21.957 38.244ZM44.185 30.324C44.128 30.184 44.07 30.045 44.008 29.907C44.067 30.039 44.126 30.178 44.185 30.324ZM25.886 25.504C25.874 25.514 25.862 25.524 25.85 25.534C25.86 25.526 25.869 25.518 25.878 25.51C25.881 25.508 25.884 25.506 25.886 25.504ZM27.753 24.291C27.629 24.356 27.506 24.422 27.384 24.491C27.509 24.419 27.631 24.354 27.753 24.291ZM27.121 24.648C27.047 24.693 26.972 24.736 26.899 24.782C26.974 24.735 27.047 24.693 27.121 24.648ZM23.482 28.089C23.419 28.181 23.357 28.273 23.296 28.367C23.354 28.278 23.417 28.184 23.482 28.089ZM25.401 25.912C25.38 25.931 25.359 25.95 25.338 25.969C25.36 25.95 25.38 25.931 25.401 25.912ZM24.953 26.33C24.934 26.349 24.915 26.368 24.896 26.387C24.916 26.368 24.934 26.349 24.953 26.33ZM24.547 26.75C24.531 26.768 24.514 26.786 24.498 26.804C24.514 26.786 24.53 26.768 24.547 26.75ZM24.183 27.163C24.167 27.182 24.151 27.202 24.135 27.221C24.152 27.202 24.167 27.183 24.183 27.163ZM23.857 27.569C23.842 27.588 23.828 27.608 23.814 27.627C23.829 27.608 23.842 27.589 23.857 27.569ZM37.615 45.718C37.763 45.659 37.909 45.596 38.054 45.531C37.903 45.599 37.757 45.661 37.615 45.718ZM40.364 44.164C40.395 44.141 40.427 44.118 40.457 44.095C40.45 44.101 40.443 44.106 40.436 44.112C40.412 44.13 40.388 44.146 40.364 44.164ZM38.189 45.469C38.303 45.416 38.416 45.362 38.528 45.306C38.413 45.363 38.3 45.418 38.189 45.469ZM38.722 45.206C38.816 45.157 38.909 45.106 39.001 45.055C38.907 45.107 38.814 45.158 38.722 45.206ZM39.249 44.911C39.326 44.866 39.403 44.819 39.478 44.772C39.402 44.82 39.326 44.866 39.249 44.911ZM39.787 44.573C39.846 44.534 39.906 44.494 39.965 44.453C39.905 44.495 39.846 44.534 39.787 44.573ZM42.964 41.448C43.037 41.342 43.11 41.235 43.179 41.126C43.113 41.228 43.042 41.336 42.964 41.448ZM42.703 41.811C42.741 41.759 42.78 41.708 42.818 41.656C42.781 41.707 42.742 41.759 42.703 41.811ZM41.914 37.548C40.368 42.341 35.229 44.973 30.437 43.427C25.644 41.881 23.012 36.742 24.558 31.95C26.104 27.157 31.243 24.525 36.035 26.071C40.828 27.617 43.46 32.755 41.914 37.548ZM44.959 36.181C44.943 36.31 44.927 36.432 44.909 36.55C44.928 36.427 44.944 36.304 44.959 36.181ZM44.913 32.974C44.911 32.962 44.909 32.951 44.907 32.939C44.908 32.947 44.91 32.955 44.911 32.963C44.912 32.967 44.912 32.97 44.913 32.974ZM44.988 35.937C44.994 35.874 44.999 35.812 45.004 35.749C44.998 35.812 44.994 35.876 44.988 35.937ZM44.363 30.795C44.327 30.693 44.29 30.592 44.251 30.492C44.289 30.59 44.327 30.691 44.363 30.795ZM44.804 32.369C44.797 32.333 44.789 32.298 44.781 32.262C44.789 32.298 44.796 32.333 44.804 32.369ZM44.672 31.805C44.658 31.751 44.644 31.697 44.629 31.643C44.644 31.696 44.658 31.75 44.672 31.805ZM44.525 31.283C44.502 31.208 44.479 31.133 44.454 31.058C44.478 31.132 44.501 31.207 44.525 31.283Z" fill="#28B5FF"/>
<path d="M211.828 33.8172C211.891 27.7652 216.865 22.8922 222.917 22.9542L233.892 23.0672C239.944 23.1302 244.817 28.1042 244.754 34.1562C244.691 40.2082 239.717 45.0812 233.665 45.0182L222.69 44.9042C216.638 44.8432 211.765 39.8692 211.828 33.8172ZM240.64 34.1142C240.679 30.3312 237.634 27.2222 233.851 27.1832L222.876 27.0702C219.093 27.0312 215.984 30.0762 215.945 33.8592C215.906 37.6422 218.951 40.7512 222.734 40.7902L233.709 40.9032C237.491 40.9432 240.6 37.8972 240.64 34.1142Z" fill="#28B5FF"/>
<path d="M213.975 44.0761C214.976 43.7281 215.822 43.3161 216.511 42.9171C215.321 42.0811 214.306 41.0151 213.527 39.7851C212.481 40.2961 211.268 40.6711 210.262 40.6601L200.183 40.5561L199.286 40.5471C197.868 40.5321 196.553 40.0861 195.465 39.3341C193.653 38.0811 192.472 35.9801 192.497 33.6161C192.536 29.8341 195.645 26.7881 199.428 26.8271L202.031 26.8541L206.213 26.8971L210.404 26.9401C210.614 26.9421 210.821 26.9571 211.026 26.9781C211.073 26.9831 211.12 26.9871 211.167 26.9931C211.364 27.0171 211.559 27.0481 211.75 27.0891C211.789 27.0971 211.826 27.1081 211.864 27.1161C212.026 27.1531 212.185 27.1961 212.342 27.2451C212.39 27.2601 212.439 27.2731 212.487 27.2891C212.661 27.3471 212.831 27.4121 212.999 27.4831C213.055 27.5071 213.109 27.5321 213.164 27.5571C213.301 27.6191 213.435 27.6861 213.566 27.7561C213.607 27.7781 213.649 27.7981 213.69 27.8211C214.973 28.5441 215.995 29.6701 216.597 31.0221C216.693 31.2391 216.779 31.4611 216.854 31.6881C216.855 31.6901 216.855 31.6911 216.855 31.6931C216.925 31.9061 216.982 32.1241 217.031 32.3451C217.035 32.3651 217.041 32.3841 217.046 32.4041C217.089 32.6061 217.118 32.8131 217.143 33.0211C217.147 33.0591 217.155 33.0961 217.159 33.1341C217.183 33.3751 217.195 33.6201 217.192 33.8681V33.8701C217.19 34.0371 217.175 34.1991 217.161 34.3631C217.081 35.1621 216.841 36.0261 216.538 36.7191C216.73 37.1791 217.068 37.8401 217.659 38.5051C218.316 39.2451 219.011 39.6811 219.474 39.9241C220.091 38.9311 221.074 37.0541 221.271 34.6531H221.273C221.274 34.6381 221.274 34.6221 221.275 34.6071C221.293 34.3791 221.306 34.1481 221.308 33.9111C221.311 33.6631 221.302 33.4181 221.288 33.1741C221.285 33.1121 221.28 33.0511 221.276 32.9901C221.259 32.7621 221.237 32.5361 221.207 32.3121C221.205 32.2981 221.204 32.2831 221.202 32.2681C221.168 32.0251 221.124 31.7841 221.074 31.5461C221.064 31.5001 221.054 31.4551 221.044 31.4091C220.993 31.1821 220.937 30.9581 220.873 30.7361C220.87 30.7271 220.868 30.7181 220.865 30.7081C220.794 30.4661 220.714 30.2281 220.627 29.9941C220.618 29.9711 220.609 29.9481 220.601 29.9261C220.514 29.6951 220.42 29.4671 220.317 29.2441C220.209 29.0081 220.092 28.7771 219.968 28.5501C219.967 28.5481 219.965 28.5451 219.964 28.5431C219.029 26.8371 217.655 25.4041 215.992 24.3991C215.984 24.3941 215.977 24.3901 215.97 24.3861C215.52 24.1161 215.05 23.8771 214.562 23.6721C214.537 23.6611 214.511 23.6511 214.486 23.6411C214.253 23.5461 214.017 23.4571 213.777 23.3771C213.77 23.3751 213.764 23.3721 213.757 23.3701C213.517 23.2911 213.272 23.2211 213.025 23.1591C212.98 23.1471 212.935 23.1371 212.889 23.1261C212.653 23.0691 212.414 23.0191 212.172 22.9781C212.161 22.9761 212.15 22.9741 212.139 22.9721C211.892 22.9311 211.642 22.9011 211.39 22.8761C211.331 22.8701 211.272 22.8651 211.213 22.8611C210.959 22.8411 210.704 22.8261 210.446 22.8231L204.636 22.7631L202.25 22.7381L199.47 22.7091C198.524 22.6991 197.605 22.8101 196.727 23.0271C191.984 24.1981 188.434 28.4651 188.381 33.5711C188.328 38.6771 191.789 43.0171 196.507 44.2861C197.381 44.5211 198.298 44.6511 199.243 44.6601L199.687 44.6651L210.218 44.7741C211.379 44.7891 212.704 44.5181 213.975 44.0761Z" fill="#28B5FF"/>
<path d="M104.763 177.983H45.7319V151.345H46.7319V176.983H104.763V177.983Z" fill="#ACD9E5"/>
<path d="M114.745 121.711H113.745V116.158H82.4389V87.5281H38.2739V59.9241H39.2739V86.5281H83.4389V115.158H114.745V121.711Z" fill="#ACD9E5"/>
<path d="M134.303 107.174H133.303V124.839H134.303V107.174Z" fill="#ACD9E5"/>
<path d="M191.847 124.839H190.847V70.8911H212.068V59.4241H217.717V49.7151H218.717V60.4241H213.068V71.8911H191.847V124.839Z" fill="#ACD9E5"/>
<path d="M305.5 149.678H297.407V148.678H304.5V112.952H282.907V111.952H305.5V149.678Z" fill="#ACD9E5"/>
<path d="M330.607 159.178H299.298V158.178H329.607V98.678H330.607V159.178Z" fill="#ACD9E5"/>
</svg>
