<svg width="642" height="386" viewBox="0 0 642 386" fill="none" xmlns="http://www.w3.org/2000/svg">
<path d="M157.487 27.9189H64.921V120.485H157.487V27.9189Z" fill="#5295FE"/>
<path d="M145.04 46.853H88.138C86.099 46.853 84.431 45.185 84.431 43.146C84.431 41.107 86.099 39.439 88.138 39.439H145.04C147.079 39.439 148.747 41.107 148.747 43.146C148.746 45.185 147.078 46.853 145.04 46.853Z" fill="#F3F8FF"/>
<path d="M77.493 39.4399H77.368C75.329 39.4399 73.661 41.1079 73.661 43.1469C73.661 45.1859 75.329 46.8539 77.368 46.8539H77.493C79.532 46.8539 81.2 45.1859 81.2 43.1469C81.2 41.1069 79.532 39.4399 77.493 39.4399Z" fill="#F3F8FF"/>
<path d="M145.04 62.381H88.138C86.099 62.381 84.431 60.713 84.431 58.674C84.431 56.635 86.099 54.967 88.138 54.967H145.04C147.079 54.967 148.747 56.635 148.747 58.674C148.746 60.713 147.078 62.381 145.04 62.381Z" fill="#F3F8FF"/>
<path d="M77.493 54.967H77.368C75.329 54.967 73.661 56.635 73.661 58.674C73.661 60.713 75.329 62.381 77.368 62.381H77.493C79.532 62.381 81.2 60.713 81.2 58.674C81.2 56.635 79.532 54.967 77.493 54.967Z" fill="#F3F8FF"/>
<path d="M145.04 77.9089H88.138C86.099 77.9089 84.431 76.2409 84.431 74.2019C84.431 72.1629 86.099 70.4949 88.138 70.4949H145.04C147.079 70.4949 148.747 72.1629 148.747 74.2019C148.746 76.2409 147.078 77.9089 145.04 77.9089Z" fill="#F3F8FF"/>
<path d="M77.493 70.4949H77.368C75.329 70.4949 73.661 72.1629 73.661 74.2019C73.661 76.2409 75.329 77.9089 77.368 77.9089H77.493C79.532 77.9089 81.2 76.2409 81.2 74.2019C81.2 72.1629 79.532 70.4949 77.493 70.4949Z" fill="#F3F8FF"/>
<path d="M145.04 93.436H88.138C86.099 93.436 84.431 91.768 84.431 89.729C84.431 87.69 86.099 86.022 88.138 86.022H145.04C147.079 86.022 148.747 87.69 148.747 89.729C148.746 91.769 147.078 93.436 145.04 93.436Z" fill="#F3F8FF"/>
<path d="M77.493 86.0229H77.368C75.329 86.0229 73.661 87.6909 73.661 89.7299C73.661 91.7689 75.329 93.437 77.368 93.437H77.493C79.532 93.437 81.2 91.7689 81.2 89.7299C81.2 87.6909 79.532 86.0229 77.493 86.0229Z" fill="#F3F8FF"/>
<path d="M145.04 108.964H88.138C86.099 108.964 84.431 107.296 84.431 105.257C84.431 103.218 86.099 101.55 88.138 101.55H145.04C147.079 101.55 148.747 103.218 148.747 105.257C148.746 107.296 147.078 108.964 145.04 108.964Z" fill="#F3F8FF"/>
<path d="M77.493 101.551H77.368C75.329 101.551 73.661 103.219 73.661 105.258C73.661 107.297 75.329 108.965 77.368 108.965H77.493C79.532 108.965 81.2 107.297 81.2 105.258C81.2 103.219 79.532 101.551 77.493 101.551Z" fill="#F3F8FF"/>
<path d="M540.812 374.266H641.862L620.158 348.292C620.158 348.292 646.058 313.213 623.597 285.432C605.569 263.135 572.835 262.897 562.516 287.804C562.516 287.804 568.744 261.627 542.235 254.002C506.773 243.802 477.833 308.085 540.812 374.266Z" fill="#6BDDBC"/>
<path d="M556.705 372.427L602.723 284.958" stroke="#3A9B9B" stroke-width="2" stroke-miterlimit="10" stroke-linecap="round"/>
<path d="M537.254 264.321L544.551 372.965" stroke="#3A9B9B" stroke-width="2" stroke-miterlimit="10" stroke-linecap="round"/>
<path d="M577.292 288.795C577.292 288.795 565.489 259.685 596.766 247.113C596.766 247.113 608.336 281.156 577.292 288.795Z" fill="#3A9B9B"/>
<path d="M598.807 258.628C593.263 260.435 582.44 264.869 575.211 273.642C574.557 282.045 577.292 288.795 577.292 288.795C596.489 284.072 599.389 269.252 598.807 258.628Z" fill="#3A8987"/>
<path d="M540.059 325.325L539.32 323.537C584.22 304.991 556.163 223.485 555.875 222.664L557.701 222.022C557.775 222.23 565.055 243.158 566.555 266.158C568.558 296.878 559.396 317.339 540.059 325.325Z" fill="#9CF7C3"/>
<path d="M563.88 223.103C564.5 218.913 561.607 215.014 557.417 214.393C553.227 213.773 549.328 216.666 548.707 220.856C548.087 225.046 550.98 228.945 555.17 229.566C559.36 230.186 563.259 227.293 563.88 223.103Z" fill="#FFB000"/>
<path d="M563.142 218.545C563.03 221.771 560.387 224.354 557.134 224.354C553.81 224.354 551.115 221.659 551.115 218.335C551.115 217.455 551.309 216.621 551.648 215.867C549.809 217.268 548.616 219.475 548.616 221.965C548.616 226.201 552.05 229.634 556.285 229.634C560.52 229.634 563.954 226.2 563.954 221.965C563.954 220.735 563.657 219.576 563.142 218.545Z" fill="#FF8B00"/>
<path d="M537.439 330.567L536.533 328.856C569.111 311.604 579.188 288.675 581.905 272.48C584.847 254.946 580.064 241.35 580.015 241.214L581.838 240.559C582.043 241.131 586.839 254.772 583.815 272.8C581.025 289.426 570.716 312.944 537.439 330.567Z" fill="#9CF7C3"/>
<path d="M588.471 236.487C588.471 240.722 585.037 244.156 580.802 244.156C576.567 244.156 573.133 240.722 573.133 236.487C573.133 232.251 576.567 228.818 580.802 228.818C585.037 228.817 588.471 232.251 588.471 236.487Z" fill="#FFB000"/>
<path d="M587.658 233.066C587.546 236.292 584.903 238.875 581.65 238.875C578.326 238.875 575.631 236.18 575.631 232.856C575.631 231.976 575.825 231.142 576.164 230.388C574.325 231.789 573.132 233.996 573.132 236.486C573.132 240.722 576.566 244.155 580.801 244.155C585.037 244.155 588.47 240.721 588.47 236.486C588.471 235.256 588.174 234.097 587.658 233.066Z" fill="#FF8B00"/>
<path d="M577.195 288.872C577.195 288.872 577.769 257.465 611.47 258.182C611.47 258.182 608.745 294.035 577.195 288.872Z" fill="#3A9B9B"/>
<path d="M101.05 374.266H0L21.704 348.292C21.704 348.292 -4.196 313.213 18.265 285.432C36.293 263.135 69.027 262.897 79.346 287.804C79.346 287.804 73.118 261.627 99.627 254.002C135.089 243.802 164.029 308.085 101.05 374.266Z" fill="#6BDDBC"/>
<path d="M85.157 372.427L39.139 284.958" stroke="#3A9B9B" stroke-width="2" stroke-miterlimit="10" stroke-linecap="round"/>
<path d="M104.608 264.321L97.311 372.965" stroke="#3A9B9B" stroke-width="2" stroke-miterlimit="10" stroke-linecap="round"/>
<path d="M64.57 288.795C64.57 288.795 76.373 259.685 45.096 247.113C45.096 247.113 33.526 281.156 64.57 288.795Z" fill="#3A9B9B"/>
<path d="M43.054 258.628C48.599 260.435 59.421 264.869 66.651 273.642C67.305 282.045 64.57 288.795 64.57 288.795C45.373 284.072 42.473 269.252 43.054 258.628Z" fill="#3A8987"/>
<path d="M101.803 325.325L102.542 323.537C57.643 304.991 85.699 223.485 85.987 222.664L84.161 222.022C84.087 222.23 76.807 243.158 75.307 266.158C73.304 296.878 82.466 317.339 101.803 325.325Z" fill="#9CF7C3"/>
<path d="M86.2165 229.607C90.4375 229.258 93.5761 225.552 93.2267 221.331C92.8773 217.11 89.1722 213.972 84.9511 214.321C80.73 214.671 77.5914 218.376 77.9409 222.597C78.2903 226.818 81.9954 229.956 86.2165 229.607Z" fill="#FFB000"/>
<path d="M78.72 218.545C78.832 221.771 81.475 224.354 84.728 224.354C88.052 224.354 90.747 221.659 90.747 218.335C90.747 217.455 90.553 216.621 90.214 215.867C92.053 217.268 93.246 219.475 93.246 221.965C93.246 226.201 89.812 229.634 85.577 229.634C81.341 229.634 77.908 226.2 77.908 221.965C77.908 220.735 78.205 219.576 78.72 218.545Z" fill="#FF8B00"/>
<path d="M104.423 330.567L105.329 328.856C72.751 311.604 62.674 288.675 59.957 272.48C57.015 254.946 61.797 241.35 61.847 241.214L60.024 240.559C59.819 241.131 55.023 254.772 58.047 272.8C60.837 289.426 71.146 312.944 104.423 330.567Z" fill="#9CF7C3"/>
<path d="M53.391 236.487C53.391 240.722 56.825 244.156 61.06 244.156C65.295 244.156 68.729 240.722 68.729 236.487C68.729 232.251 65.295 228.818 61.06 228.818C56.825 228.817 53.391 232.251 53.391 236.487Z" fill="#FFB000"/>
<path d="M54.203 233.066C54.315 236.292 56.958 238.875 60.211 238.875C63.535 238.875 66.23 236.18 66.23 232.856C66.23 231.976 66.036 231.142 65.697 230.388C67.537 231.789 68.729 233.996 68.729 236.486C68.729 240.722 65.295 244.155 61.06 244.155C56.824 244.155 53.391 240.721 53.391 236.486C53.391 235.256 53.688 234.097 54.203 233.066Z" fill="#FF8B00"/>
<path d="M64.667 288.872C64.667 288.872 64.093 257.465 30.392 258.182C30.392 258.182 33.117 294.035 64.667 288.872Z" fill="#3A9B9B"/>
<path d="M572.93 385.441H68.932C55.478 385.441 49.356 368.645 59.653 359.987L128.442 302.15H513.419L582.208 359.987C592.507 368.646 586.384 385.441 572.93 385.441Z" fill="#595975"/>
<path d="M572.93 375.092H68.932C55.478 375.092 49.356 358.296 59.653 349.638L128.442 291.801H513.419L582.208 349.638C592.507 358.296 586.384 375.092 572.93 375.092Z" fill="#F3F8FF"/>
<path d="M123.579 284.259V65.3351C123.579 60.2291 127.718 56.0901 132.824 56.0901H509.036C514.142 56.0901 518.281 60.2291 518.281 65.3351V284.259C518.281 289.365 514.142 293.504 509.036 293.504H132.825C127.719 293.505 123.579 289.366 123.579 284.259Z" fill="#323244"/>
<path d="M507.923 71.6592V283.186H133.858H133.857V71.6592H507.923Z" fill="#F3F8FF"/>
<path d="M507.923 283.186V252.91C395.754 263.454 238.766 120.926 133.858 111.17V283.186H507.923Z" fill="#D9E6FF"/>
<path d="M479.7 306.821H508.376L502.3 301.444C502.197 301.353 502.12 301.245 502.066 301.128H474.347L479.7 306.821Z" fill="#595975"/>
<path d="M416.549 306.821H445.695L441.552 301.3C441.512 301.247 441.497 301.185 441.47 301.127H413.357L416.549 306.821Z" fill="#595975"/>
<path d="M456.622 321.381L452.612 316.037H421.717L424.713 321.381H456.622Z" fill="#595975"/>
<path d="M490.734 321.381L485.709 316.037H455.033L459.043 321.381H490.734Z" fill="#595975"/>
<path d="M524.829 321.381L518.79 316.037H488.366L493.39 321.381H524.829Z" fill="#595975"/>
<path d="M448.117 306.821H477.044L471.929 301.382C471.858 301.306 471.814 301.217 471.772 301.128H443.845L448.117 306.821Z" fill="#595975"/>
<path d="M190.81 314.101H221.319L224.408 308.757H194.913L190.81 314.101Z" fill="#595975"/>
<path d="M256.311 308.757H226.643L223.554 314.101H254.23L256.311 308.757Z" fill="#595975"/>
<path d="M384.988 306.821H414.33L411.174 301.192C411.162 301.171 411.163 301.148 411.153 301.127H382.893L384.988 306.821Z" fill="#595975"/>
<path d="M321.994 306.821H351.535L350.495 301.128H322.059L321.994 306.821Z" fill="#595975"/>
<path d="M321.827 321.381H354.195L353.219 316.037H321.888L321.827 321.381Z" fill="#595975"/>
<path d="M158.082 314.101H188.369L192.472 308.757H163.199L158.082 314.101Z" fill="#595975"/>
<path d="M321.971 308.757L321.91 314.101H352.865L351.889 308.757H321.971Z" fill="#595975"/>
<path d="M422.494 321.381L419.497 316.037H388.38L390.347 321.381H422.494Z" fill="#595975"/>
<path d="M388.284 321.381L386.317 316.037H355.186L356.163 321.381H388.284Z" fill="#595975"/>
<path d="M353.502 306.821H382.925L380.83 301.128H352.462L353.502 306.821Z" fill="#595975"/>
<path d="M288.581 306.821L289.719 301.128H261.36L259.143 306.821H288.581Z" fill="#595975"/>
<path d="M417.635 308.757L420.631 314.101H451.159L447.148 308.757H417.635Z" fill="#595975"/>
<path d="M516.603 314.101L510.564 308.757H481.52L486.545 314.101H516.603Z" fill="#595975"/>
<path d="M415.415 308.757H385.701L387.668 314.101H418.412L415.415 308.757Z" fill="#595975"/>
<path d="M449.569 308.757L453.58 314.101H483.889L478.864 308.757H449.569Z" fill="#595975"/>
<path d="M385.604 314.101L383.638 308.757H353.856L354.833 314.101H385.604Z" fill="#595975"/>
<path d="M177.188 328.662L181.292 323.317H149.256L143.964 328.843H177.099C177.128 328.782 177.145 328.718 177.188 328.662Z" fill="#595975"/>
<path d="M200.633 301.309L196.4 306.821H225.527L228.818 301.128H200.721C200.692 301.189 200.675 301.253 200.633 301.309Z" fill="#595975"/>
<path d="M141.534 328.583L146.576 323.318H114.793L108.453 328.844H141.369C141.412 328.751 141.46 328.66 141.534 328.583Z" fill="#595975"/>
<path d="M139.885 301.449L133.721 306.821H162.373L167.825 301.128H140.123C140.068 301.247 139.99 301.357 139.885 301.449Z" fill="#595975"/>
<path d="M170.256 301.388L165.053 306.821H193.958L198.33 301.128H170.421C170.378 301.22 170.33 301.311 170.256 301.388Z" fill="#595975"/>
<path d="M212.84 328.768L215.991 323.317H183.733L179.49 328.843H212.815C212.827 328.819 212.827 328.792 212.84 328.768Z" fill="#595975"/>
<path d="M423.579 323.317H355.602C355.579 323.323 355.562 323.338 355.538 323.342C355.479 323.353 355.421 323.358 355.363 323.358C355.281 323.358 355.205 323.336 355.128 323.316H321.056C320.987 323.331 320.922 323.358 320.848 323.358C320.844 323.358 320.84 323.358 320.837 323.358C320.768 323.357 320.708 323.331 320.643 323.316H218.227L215.033 328.842H426.677L423.579 323.317Z" fill="#595975"/>
<path d="M492.554 323.317H460.496L464.514 328.67C464.554 328.723 464.569 328.785 464.596 328.842H497.75L492.554 323.317Z" fill="#595975"/>
<path d="M527.017 323.317H495.211L500.168 328.589C500.239 328.665 500.283 328.754 500.325 328.843H533.261L527.017 323.317Z" fill="#595975"/>
<path d="M458.075 323.317H425.798L428.86 328.778C428.872 328.799 428.871 328.822 428.881 328.843H462.222L458.075 323.317Z" fill="#595975"/>
<path d="M117.014 321.381H148.43L153.548 316.037H123.146L117.014 321.381Z" fill="#595975"/>
<path d="M220.2 316.037H189.323L185.22 321.381H217.111L220.2 316.037Z" fill="#595975"/>
<path d="M253.476 316.037H222.435L219.346 321.381H251.395L253.476 316.037Z" fill="#595975"/>
<path d="M231.01 301.203L227.762 306.821H257.064L259.281 301.128H231.035C231.024 301.152 231.024 301.179 231.01 301.203Z" fill="#595975"/>
<path d="M186.882 316.037H156.228L151.11 321.381H182.779L186.882 316.037Z" fill="#595975"/>
<path d="M125.368 314.101H155.402L160.519 308.757H131.499L125.368 314.101Z" fill="#595975"/>
<path d="M286.739 316.037H255.554L253.473 321.381H285.671L286.739 316.037Z" fill="#595975"/>
<path d="M320.035 308.757H290.168L289.1 314.101H319.974L320.035 308.757Z" fill="#595975"/>
<path d="M320.122 301.128H291.693L290.555 306.821H320.057L320.122 301.128Z" fill="#595975"/>
<path d="M319.952 316.037H288.713L287.645 321.381H319.891L319.952 316.037Z" fill="#595975"/>
<path d="M288.194 308.757H258.389L256.308 314.101H287.126L288.194 308.757Z" fill="#595975"/>
<path d="M310.846 336.867H291.569L242.02 352.768L235.981 360.804C235.841 360.99 235.736 361.185 235.648 361.384L310.846 336.867Z" fill="white"/>
<path d="M400.105 353.118L388.753 338.013C388.211 337.291 387.361 336.867 386.458 336.867H341.32L260.818 365.4H368.052L400.105 353.118Z" fill="white"/>
<path d="M403.586 366.369H238.276C236.812 366.369 235.496 365.555 234.842 364.246C234.188 362.936 234.328 361.395 235.207 360.224L252.335 337.433C253.056 336.473 254.203 335.9 255.404 335.9H386.459C387.66 335.9 388.807 336.473 389.528 337.433L406.656 360.224C407.535 361.394 407.676 362.935 407.022 364.245C406.368 365.555 405.05 366.369 403.586 366.369ZM255.404 337.835C254.809 337.835 254.24 338.12 253.883 338.595L236.755 361.386C236.313 361.975 236.245 362.721 236.574 363.38C236.903 364.04 237.54 364.433 238.277 364.433H403.587C404.324 364.433 404.961 364.04 405.289 363.38C405.619 362.721 405.551 361.975 405.108 361.386L387.98 338.595C387.623 338.119 387.054 337.835 386.459 337.835H255.404Z" fill="#595975"/>
<path d="M326.201 64.3811C326.201 67.2921 323.841 69.6511 320.931 69.6511C318.021 69.6511 315.661 67.2911 315.661 64.3811C315.661 61.4701 318.021 59.1111 320.931 59.1111C323.841 59.1111 326.201 61.4701 326.201 64.3811Z" fill="#595975"/>
<path d="M320.931 67.177C322.475 67.177 323.727 65.9252 323.727 64.381C323.727 62.8368 322.475 61.585 320.931 61.585C319.387 61.585 318.135 62.8368 318.135 64.381C318.135 65.9252 319.387 67.177 320.931 67.177Z" fill="#323244"/>
<path d="M333.188 64.3811C333.188 65.0021 332.684 65.5061 332.063 65.5061C331.442 65.5061 330.938 65.0021 330.938 64.3811C330.938 63.7601 331.442 63.2561 332.063 63.2561C332.684 63.2561 333.188 63.7601 333.188 64.3811Z" fill="#AAE83F"/>
<path d="M81.3902 184.994C86.7577 167.614 77.0201 149.174 59.6406 143.807C42.2611 138.439 23.8209 148.177 18.4533 165.556C13.0858 182.936 22.8234 201.376 40.2029 206.743C57.5825 212.111 76.0226 202.373 81.3902 184.994Z" fill="#FFB000"/>
<path d="M76.889 183.281C81.3091 168.387 72.8177 152.729 57.9231 148.309C43.0284 143.889 27.3707 152.38 22.9506 167.275C18.5305 182.17 27.0219 197.827 41.9165 202.247C56.8112 206.667 72.4689 198.176 76.889 183.281Z" fill="white"/>
<path d="M74.957 175.278C74.957 189.109 63.744 200.321 49.913 200.321C36.082 200.321 24.87 189.109 24.87 175.278C24.87 161.447 36.082 150.235 49.913 150.235C63.744 150.235 74.957 161.447 74.957 175.278Z" fill="white"/>
<path d="M49.914 150.235C36.083 150.235 24.871 161.447 24.871 175.278C24.871 175.742 24.886 176.201 24.91 176.659C38.067 174.974 56.367 178.532 74.196 169.14C71.458 158.276 61.626 150.235 49.914 150.235Z" fill="#D9E6FF"/>
<path d="M52.315 175.278C52.315 176.604 51.24 177.679 49.913 177.679C48.587 177.679 47.512 176.604 47.512 175.278C47.512 173.952 48.587 172.877 49.913 172.877C51.24 172.876 52.315 173.952 52.315 175.278Z" fill="#424260"/>
<path d="M57.175 183.329C56.944 183.329 56.712 183.241 56.536 183.064L48.781 175.309V158.125C48.781 157.626 49.186 157.22 49.686 157.22C50.186 157.22 50.591 157.625 50.591 158.125V174.56L57.816 181.785C58.169 182.138 58.169 182.711 57.816 183.064C57.638 183.241 57.406 183.329 57.175 183.329Z" fill="#424260"/>
<path d="M503.721 74.2841L434.936 73.951C435.02 56.6441 441.633 39.9911 453.444 27.3411C466.162 13.7201 483.884 5.83506 502.516 5.50806L503.721 74.2841Z" fill="#5295FE"/>
<path d="M503.721 74.2841L520.279 129.466C514.907 131.078 509.329 131.897 503.721 131.897C472.115 131.897 446.108 105.89 446.108 74.2841C446.108 70.6151 446.459 66.9551 447.155 63.3521L503.721 74.2841Z" fill="#FF5050"/>
<path d="M503.721 74.284L548.072 54.21C548.474 55.099 548.85 55.999 549.198 56.911C558.729 81.859 546.042 110.23 521.094 119.761C511.313 123.497 500.583 123.981 490.506 121.138L503.721 74.284Z" fill="#FFB000"/>
<path d="M503.721 74.2839L477.423 44.0589C490.034 33.0869 508.245 31.1089 522.917 39.1179C541.209 49.1039 548.811 71.7799 540.233 90.7729L503.721 74.2839Z" fill="#9129E3"/>
<path d="M503.721 74.284L525.325 55.409C529.891 60.635 532.409 67.344 532.409 74.284C532.409 90.022 519.459 102.972 503.721 102.972C487.983 102.972 475.033 90.022 475.033 74.284C475.033 58.546 487.983 45.5959 503.721 45.5959C503.826 45.5959 503.931 45.5969 504.036 45.5979L503.721 74.284Z" fill="#80E1E8"/>
<path d="M514.606 76.7557C515.971 70.7402 512.201 64.7571 506.185 63.392C500.17 62.0269 494.187 65.7968 492.822 71.8123C491.457 77.8278 495.227 83.811 501.242 85.176C507.257 86.5411 513.241 82.7712 514.606 76.7557Z" fill="#F9F9F9"/>
<path d="M230.509 92.1431H207.904V251.791H230.509V92.1431Z" fill="#C2D9FF"/>
<path d="M264.417 92.1431H241.812V251.791H264.417V92.1431Z" fill="#C2D9FF"/>
<path d="M298.325 92.1431H275.72V251.791H298.325V92.1431Z" fill="#C2D9FF"/>
<path d="M332.233 92.1431H309.628V251.791H332.233V92.1431Z" fill="#C2D9FF"/>
<path d="M366.142 92.1431H343.536V251.791H366.142V92.1431Z" fill="#C2D9FF"/>
<path d="M400.05 92.1431H377.445V251.791H400.05V92.1431Z" fill="#C2D9FF"/>
<path d="M433.958 92.1431H411.353V251.791H433.958V92.1431Z" fill="#C2D9FF"/>
<path d="M230.509 202.052H207.904V251.791H230.509V202.052Z" fill="#FFB000"/>
<path d="M264.417 128H241.812V251.791H264.417V128Z" fill="#5295FE"/>
<path d="M298.325 112.8H275.72V251.792H298.325V112.8Z" fill="#80E1E8"/>
<path d="M332.233 223.099H309.628V251.792H332.233V223.099Z" fill="#5295FE"/>
<path d="M366.142 181.785H343.536V251.791H366.142V181.785Z" fill="#80E1E8"/>
<path d="M400.05 151.385H377.445V251.792H400.05V151.385Z" fill="#5295FE"/>
<path d="M433.958 194.257H411.353V251.791H433.958V194.257Z" fill="#80E1E8"/>
<path d="M217.55 202.994L253.147 128.682L287.185 112.313L321.223 223.002L355.781 181.688L389.559 151.288L422.298 195.199" stroke="#FF5050" stroke-width="4" stroke-miterlimit="10" stroke-linecap="round" stroke-linejoin="round"/>
<path d="M292.643 112.664C292.643 115.579 290.28 117.942 287.365 117.942C284.45 117.942 282.087 115.579 282.087 112.664C282.087 109.749 284.45 107.386 287.365 107.386C290.28 107.386 292.643 109.749 292.643 112.664Z" fill="#F3F8FF"/>
<path d="M258.101 128.794C258.101 131.709 255.738 134.072 252.823 134.072C249.908 134.072 247.545 131.709 247.545 128.794C247.545 125.879 249.908 123.516 252.823 123.516C255.738 123.516 258.101 125.879 258.101 128.794Z" fill="#F3F8FF"/>
<path d="M217.519 209.092C220.434 209.092 222.797 206.729 222.797 203.814C222.797 200.899 220.434 198.536 217.519 198.536C214.604 198.536 212.241 200.899 212.241 203.814C212.241 206.729 214.604 209.092 217.519 209.092Z" fill="#F3F8FF"/>
<path d="M321.451 227.809C324.366 227.809 326.729 225.446 326.729 222.531C326.729 219.616 324.366 217.253 321.451 217.253C318.536 217.253 316.173 219.616 316.173 222.531C316.173 225.446 318.536 227.809 321.451 227.809Z" fill="#F3F8FF"/>
<path d="M355.385 186.875C358.3 186.875 360.663 184.512 360.663 181.597C360.663 178.682 358.3 176.319 355.385 176.319C352.47 176.319 350.107 178.682 350.107 181.597C350.107 184.512 352.47 186.875 355.385 186.875Z" fill="#F3F8FF"/>
<path d="M389.319 157.963C392.234 157.963 394.597 155.6 394.597 152.685C394.597 149.77 392.234 147.407 389.319 147.407C386.404 147.407 384.041 149.77 384.041 152.685C384.041 155.6 386.404 157.963 389.319 157.963Z" fill="#F3F8FF"/>
<path d="M427.413 189.235L415.819 198.566L428.08 202.28L427.413 189.235Z" fill="#FF5050"/>
<path d="M404.809 13.574H308.756V29.088H404.809V13.574Z" fill="#F3F8FF"/>
<path d="M348.116 29.0874L366.554 29.0874V13.5734L348.116 13.5734V29.0874Z" fill="#5295FE"/>
<path d="M337.848 29.0874L356.286 29.0874V13.5734L337.848 13.5734V29.0874Z" fill="#80E1E8"/>
<path d="M342.651 13.574H308.756V29.088H342.651V13.574Z" fill="#FFB000"/>
<path d="M583.559 188.861C585.047 191.104 588.07 191.717 590.313 190.229L594.664 187.343L593.628 192.461C593.094 195.098 594.799 197.669 597.437 198.203L599.775 198.676C602.413 199.21 604.984 197.505 605.518 194.867L606.554 189.749L609.441 194.101C610.928 196.343 613.952 196.956 616.194 195.469L618.183 194.15C620.425 192.663 621.037 189.638 619.55 187.396L616.664 183.045L621.782 184.081C624.42 184.615 626.99 182.91 627.524 180.272L627.998 177.934C628.531 175.296 626.826 172.726 624.189 172.191L619.072 171.155L623.423 168.269C625.665 166.782 626.277 163.758 624.79 161.515L623.471 159.527C621.984 157.284 618.959 156.672 616.717 158.159L612.366 161.045L613.401 155.927C613.935 153.29 612.23 150.719 609.592 150.185L607.253 149.711C604.616 149.177 602.045 150.883 601.511 153.52L600.474 158.638L597.588 154.287C596.1 152.044 593.077 151.432 590.834 152.919L588.845 154.238C586.602 155.726 585.991 158.749 587.478 160.992L590.364 165.343L585.246 164.307C582.609 163.773 580.038 165.478 579.504 168.116L579.03 170.455C578.496 173.092 580.202 175.664 582.839 176.197L587.956 177.233L583.605 180.119C581.362 181.607 580.75 184.63 582.238 186.873L583.559 188.861ZM599.143 167.603C602.783 165.189 607.691 166.182 610.105 169.823C612.519 173.463 611.525 178.37 607.886 180.784C604.246 183.199 599.339 182.205 596.925 178.565C594.51 174.925 595.503 170.017 599.143 167.603Z" fill="#5295FE"/>
<path d="M560.142 196.264C559.824 197.263 560.378 198.33 561.377 198.648L565.032 199.81C564.914 200.953 564.997 202.126 565.318 203.271L561.921 205.03C560.99 205.512 560.626 206.657 561.108 207.588C561.59 208.52 562.735 208.884 563.667 208.402L567.063 206.643C567.813 207.566 568.723 208.311 569.725 208.875L568.564 212.53C568.246 213.529 568.799 214.597 569.798 214.914C570.797 215.231 571.865 214.679 572.182 213.68L573.343 210.025C574.487 210.144 575.66 210.06 576.805 209.739L578.563 213.136C579.045 214.067 580.191 214.431 581.122 213.949C582.053 213.467 582.417 212.322 581.935 211.391L580.177 207.994C581.1 207.244 581.845 206.335 582.408 205.333L586.063 206.495C587.062 206.812 588.13 206.26 588.448 205.26C588.765 204.261 588.213 203.193 587.214 202.876L583.559 201.714C583.678 200.57 583.595 199.397 583.274 198.253L586.671 196.495C587.602 196.013 587.967 194.867 587.484 193.936C587.002 193.005 585.857 192.641 584.925 193.123L581.528 194.881C580.778 193.958 579.869 193.213 578.867 192.649L580.028 188.994C580.345 187.995 579.793 186.928 578.794 186.61C577.795 186.293 576.727 186.845 576.41 187.845L575.248 191.5C574.104 191.382 572.932 191.464 571.787 191.785L570.029 188.388C569.547 187.457 568.402 187.093 567.471 187.575C566.54 188.057 566.176 189.202 566.658 190.134L568.416 193.531C567.493 194.28 566.748 195.19 566.184 196.192L562.529 195.031C561.528 194.712 560.46 195.264 560.142 196.264ZM571.921 196.175C574.454 194.864 577.571 195.854 578.882 198.387C580.193 200.92 579.203 204.036 576.67 205.348C574.137 206.659 571.02 205.668 569.71 203.135C568.397 200.602 569.388 197.486 571.921 196.175Z" fill="#5295FE"/>
<path d="M531.069 170.4C531.45 172.179 533.2 173.311 534.979 172.931L541.484 171.538C542.289 173.363 543.422 175.059 544.891 176.507L541.285 182.076C540.298 183.603 540.734 185.642 542.261 186.63C543.788 187.617 545.827 187.181 546.814 185.654L550.419 180.084C552.342 180.83 554.353 181.17 556.348 181.157L557.741 187.662C558.122 189.44 559.872 190.573 561.651 190.193C563.43 189.812 564.563 188.061 564.182 186.283L562.788 179.778C564.614 178.973 566.309 177.84 567.757 176.371L573.327 179.976C574.854 180.964 576.892 180.527 577.881 179.002C578.869 177.474 578.432 175.435 576.906 174.448L571.336 170.843C572.082 168.92 572.422 166.909 572.408 164.914L578.914 163.521C580.692 163.14 581.824 161.39 581.443 159.611C581.062 157.833 579.312 156.7 577.534 157.081L571.03 158.475C570.225 156.649 569.091 154.954 567.623 153.505L571.227 147.935C572.215 146.409 571.779 144.37 570.252 143.382C568.725 142.394 566.686 142.83 565.699 144.357L562.094 149.927C560.171 149.18 558.159 148.841 556.165 148.854L554.772 142.349C554.391 140.57 552.641 139.437 550.862 139.819C549.084 140.2 547.951 141.95 548.332 143.729L549.725 150.233C547.9 151.038 546.204 152.172 544.756 153.641L539.186 150.036C537.659 149.048 535.62 149.484 534.632 151.011C533.644 152.538 534.081 154.576 535.607 155.564L541.177 159.169C540.43 161.092 540.09 163.103 540.104 165.098L533.6 166.492C531.821 166.872 530.688 168.622 531.069 170.4ZM545.685 158.164C549.464 152.326 557.26 150.656 563.098 154.435C568.937 158.213 570.607 166.009 566.827 171.847C563.049 177.685 555.253 179.355 549.415 175.576C543.576 171.798 541.907 164.002 545.685 158.164Z" fill="#5295FE"/>
<path d="M219.809 41.347C230.398 41.347 238.982 32.7629 238.982 22.174C238.982 11.585 230.398 3.00098 219.809 3.00098C209.22 3.00098 200.636 11.585 200.636 22.174C200.636 32.7629 209.22 41.347 219.809 41.347Z" stroke="#F3F8FF" stroke-width="6" stroke-miterlimit="10"/>
<path d="M241.983 22.174H235.983C235.983 13.256 228.728 6 219.81 6V0C232.036 0 241.983 9.948 241.983 22.174Z" fill="#80E1E8"/>
<path d="M277.634 41.347C288.223 41.347 296.807 32.7629 296.807 22.174C296.807 11.585 288.223 3.00098 277.634 3.00098C267.045 3.00098 258.461 11.585 258.461 22.174C258.461 32.7629 267.045 41.347 277.634 41.347Z" stroke="#F3F8FF" stroke-width="6" stroke-miterlimit="10"/>
<path d="M277.634 44.348C271.283 44.348 265.226 41.617 261.016 36.854L265.511 32.88C268.583 36.355 273.001 38.347 277.634 38.347C286.552 38.347 293.807 31.092 293.807 22.174C293.807 13.256 286.552 6 277.634 6V0C289.861 0 299.807 9.947 299.807 22.174C299.807 34.401 289.861 44.348 277.634 44.348Z" fill="#5295FE"/>
<path d="M205.989 246.381L187.227 219.492C185.188 216.688 181.263 216.068 178.459 218.107C175.656 220.146 175.035 224.071 177.074 226.875L195.836 253.764L205.989 246.381Z" fill="#FFB692"/>
<path d="M184.302 190.296L176.092 222.039C175.29 225.411 177.373 228.795 180.745 229.598C184.117 230.4 187.502 228.317 188.304 224.945L196.514 193.202L184.302 190.296Z" fill="#FFB692"/>
<path d="M196.138 194.656L193.358 192.451L184.302 190.297L176.092 222.04C175.735 223.539 175.952 225.04 176.595 226.315L189.526 220.22L196.138 194.656Z" fill="#D88D87"/>
<path d="M195.535 210.782L200.027 194.382C201.062 189.718 198.122 185.099 193.458 184.063C188.795 183.027 184.175 185.968 183.139 190.632L178.647 207.033L195.535 210.782Z" fill="#3A9B9B"/>
<path d="M195.609 241.6L194.523 242.436C191.482 244.778 190.916 249.141 193.258 252.182C195.6 255.223 199.963 255.789 203.004 253.447L204.09 252.611C207.131 250.269 207.697 245.906 205.355 242.865C203.013 239.825 198.65 239.258 195.609 241.6Z" fill="#FFB692"/>
<path d="M199.667 251.498L208.624 245.955C208.624 245.955 203.739 238.689 200.589 240.633C197.127 242.77 201.326 246.606 201.326 246.606C201.326 246.606 198.337 248.222 199.667 251.498Z" fill="#FFB692"/>
<path d="M200.589 240.634C200.132 241.01 199.684 241.425 199.515 241.975C199.339 242.513 199.408 243.083 199.605 243.601C200.007 244.636 200.825 245.532 201.663 246.238V246.239L202.151 246.701L201.564 247.048C201.244 247.237 200.889 247.535 200.622 247.843C200.347 248.158 200.134 248.516 200.001 248.896C199.869 249.276 199.802 249.68 199.843 250.089C199.858 250.499 199.988 250.906 200.13 251.308L200.131 251.311L199.405 251.074C200.866 250.098 202.4 249.241 203.947 248.406C205.486 247.556 207.048 246.745 208.625 245.957C207.216 247.017 205.793 248.053 204.346 249.051C202.908 250.063 201.456 251.054 199.931 251.925L199.371 252.245L199.204 251.688L199.203 251.685C199.027 251.199 198.869 250.695 198.845 250.156C198.795 249.624 198.88 249.07 199.059 248.562C199.238 248.051 199.522 247.585 199.868 247.188C200.224 246.788 200.596 246.46 201.09 246.169L200.99 246.978L200.989 246.977C200.547 246.497 200.187 246.009 199.858 245.473C199.535 244.941 199.267 244.363 199.126 243.743C198.984 243.129 199.002 242.449 199.285 241.88C199.561 241.295 200.09 240.941 200.589 240.634Z" fill="#D88D87"/>
<path d="M196.538 252.275C195.761 252.802 195.556 253.869 196.083 254.647L200.243 260.236C200.77 261.013 201.837 261.218 202.615 260.691C203.392 260.164 203.597 259.097 203.07 258.319L198.911 252.73C198.383 251.952 197.315 251.747 196.538 252.275Z" fill="#FFB692"/>
<path d="M201.525 256.245C200.656 255.378 199.854 254.457 199.079 253.517L198.52 252.832C198.357 252.66 198.156 252.527 197.931 252.462C197.486 252.305 196.98 252.42 196.639 252.726C196.283 253.02 196.13 253.524 196.215 253.982C196.265 254.23 196.341 254.391 196.543 254.658L197.052 255.412C197.73 256.418 198.368 257.453 198.966 258.522C198.114 257.642 197.302 256.729 196.53 255.787L195.951 255.08C195.769 254.879 195.525 254.506 195.45 254.154C195.263 253.428 195.514 252.607 196.083 252.102C196.644 251.587 197.497 251.438 198.197 251.702C198.549 251.831 198.857 252.066 199.09 252.353C199.302 252.647 199.447 252.863 199.62 253.128C200.296 254.136 200.945 255.163 201.525 256.245Z" fill="#D88D87"/>
<path d="M199.538 250.637C198.761 251.164 198.556 252.231 199.083 253.009L203.243 258.598C203.77 259.375 204.837 259.58 205.615 259.053C206.392 258.526 206.597 257.459 206.07 256.681L201.911 251.091C201.383 250.315 200.315 250.11 199.538 250.637Z" fill="#FFB692"/>
<path d="M204.526 254.607C203.657 253.74 202.855 252.819 202.08 251.879L201.521 251.194C201.358 251.022 201.157 250.889 200.932 250.824C200.487 250.667 199.981 250.782 199.64 251.088C199.284 251.382 199.131 251.886 199.216 252.344C199.266 252.592 199.342 252.753 199.544 253.02L200.053 253.774C200.731 254.78 201.369 255.815 201.967 256.884C201.115 256.004 200.303 255.091 199.531 254.149L198.952 253.442C198.769 253.241 198.526 252.868 198.451 252.516C198.264 251.79 198.514 250.969 199.084 250.464C199.645 249.949 200.498 249.8 201.198 250.065C201.55 250.194 201.858 250.429 202.091 250.716C202.302 251.01 202.448 251.226 202.621 251.491C203.296 252.499 203.944 253.526 204.526 254.607Z" fill="#D88D87"/>
<path d="M202.661 249.106C201.884 249.633 201.679 250.7 202.206 251.478L206.366 257.067C206.893 257.844 207.96 258.049 208.738 257.522C209.515 256.995 209.72 255.928 209.193 255.15L205.034 249.56C204.506 248.784 203.439 248.579 202.661 249.106Z" fill="#FFB692"/>
<path d="M207.649 253.076C206.78 252.209 205.978 251.288 205.203 250.347L204.644 249.662C204.481 249.49 204.28 249.357 204.055 249.292C203.61 249.135 203.104 249.25 202.763 249.556C202.407 249.85 202.254 250.354 202.339 250.812C202.389 251.06 202.465 251.221 202.667 251.488L203.176 252.242C203.854 253.248 204.492 254.283 205.09 255.352C204.238 254.472 203.426 253.559 202.654 252.617L202.075 251.909C201.893 251.708 201.649 251.335 201.574 250.983C201.387 250.257 201.637 249.436 202.207 248.931C202.768 248.416 203.621 248.267 204.321 248.532C204.673 248.661 204.981 248.896 205.214 249.183C205.425 249.477 205.571 249.693 205.744 249.958C206.42 250.967 207.068 251.995 207.649 253.076Z" fill="#D88D87"/>
<path d="M204.622 246.144C203.845 246.671 203.64 247.739 204.167 248.516L208.327 254.105C208.854 254.882 209.921 255.087 210.699 254.56C211.476 254.033 211.681 252.966 211.154 252.188L206.995 246.599C206.467 245.822 205.399 245.617 204.622 246.144Z" fill="#FFB692"/>
<path d="M209.61 250.115C208.741 249.248 207.939 248.327 207.164 247.387L206.605 246.702C206.442 246.53 206.241 246.397 206.016 246.332C205.571 246.175 205.065 246.29 204.724 246.596C204.368 246.89 204.215 247.394 204.3 247.852C204.35 248.1 204.426 248.261 204.628 248.528L205.137 249.282C205.815 250.288 206.453 251.323 207.051 252.392C206.199 251.512 205.387 250.599 204.615 249.657L204.036 248.95C203.854 248.749 203.61 248.376 203.535 248.024C203.348 247.298 203.599 246.477 204.168 245.972C204.729 245.457 205.582 245.308 206.282 245.573C206.634 245.702 206.942 245.937 207.175 246.224C207.386 246.518 207.532 246.734 207.705 246.999C208.38 248.006 209.029 249.034 209.61 250.115Z" fill="#D88D87"/>
<path d="M190.472 359.047H189.07C186.279 359.047 183.996 356.764 183.996 353.973V347.007C183.996 344.216 186.279 341.933 189.07 341.933H190.472C193.263 341.933 195.546 344.216 195.546 347.007V353.973C195.546 356.764 193.263 359.047 190.472 359.047Z" fill="#6BDDBC"/>
<path d="M183.789 349.88H184.182C184.478 349.88 184.749 350.062 184.841 350.343C185.506 352.376 187.415 353.845 189.67 353.845C191.925 353.845 193.834 352.375 194.499 350.343C194.591 350.062 194.863 349.88 195.158 349.88H198.893C199.011 349.88 199.126 349.909 199.23 349.966L208.916 355.249C210.328 356.019 211.476 357.195 212.212 358.624L213.577 361.274C214.556 363.175 213.176 365.438 211.038 365.438H185.773C183.972 365.438 182.558 363.895 182.715 362.101L183.789 349.88Z" fill="#5295FE"/>
<path d="M190.455 353.782C190.199 353.822 189.938 353.846 189.671 353.846C187.862 353.846 186.289 352.892 185.388 351.469C184.834 351.279 184.271 351.104 183.696 350.945L182.717 362.1C182.56 363.894 183.974 365.437 185.775 365.437H199.997C198.766 360.782 195.315 356.637 190.455 353.782Z" fill="#3D7AD3"/>
<path d="M186.177 358.495C186.177 360.445 187.414 362.026 188.941 362.026C190.468 362.026 191.705 360.445 191.705 358.495C191.705 356.545 190.468 354.964 188.941 354.964C187.414 354.964 186.177 356.544 186.177 358.495Z" fill="white"/>
<path d="M183.951 366.353H213.033C213.802 366.353 214.431 365.724 214.431 364.955C214.431 364.186 213.802 363.557 213.033 363.557H183.951C183.182 363.557 182.553 364.186 182.553 364.955C182.552 365.724 183.182 366.353 183.951 366.353Z" fill="#EAAC3D"/>
<path d="M178.088 253.206L182.669 296.929L199.021 295.216L194.44 251.493L178.088 253.206Z" fill="#3E3D5E"/>
<path d="M198.205 348.584L198.878 292.821C189.799 292.711 182.349 290.871 182.24 299.951L181.765 348.385L198.205 348.584Z" fill="#3E3D5E"/>
<path d="M198.891 342.323H180.863V349.069H198.891V342.323Z" fill="#4E4E7F"/>
<path d="M169.894 263.109H182.114C189.507 263.109 195.556 257.06 195.556 249.667C195.556 244.718 191.507 240.669 186.558 240.669H165.451C160.502 240.669 156.453 244.718 156.453 249.667C156.452 257.06 162.501 263.109 169.894 263.109Z" fill="#3E3D5E"/>
<path d="M170.492 359.047H169.09C166.299 359.047 164.016 356.764 164.016 353.973V347.007C164.016 344.216 166.299 341.933 169.09 341.933H170.492C173.283 341.933 175.566 344.216 175.566 347.007V353.973C175.566 356.764 173.282 359.047 170.492 359.047Z" fill="#6BDDBC"/>
<path d="M163.808 349.88H164.201C164.497 349.88 164.768 350.062 164.86 350.343C165.525 352.376 167.434 353.845 169.689 353.845C171.944 353.845 173.853 352.375 174.518 350.343C174.61 350.062 174.882 349.88 175.177 349.88H178.912C179.03 349.88 179.146 349.909 179.249 349.966L188.935 355.249C190.347 356.019 191.495 357.195 192.231 358.624L193.596 361.274C194.575 363.175 193.195 365.438 191.057 365.438H165.792C163.991 365.438 162.577 363.895 162.734 362.101L163.808 349.88Z" fill="#5295FE"/>
<path d="M166.196 358.495C166.196 360.445 167.433 362.026 168.96 362.026C170.486 362.026 171.724 360.445 171.724 358.495C171.724 356.545 170.487 354.964 168.96 354.964C167.434 354.963 166.196 356.544 166.196 358.495Z" fill="white"/>
<path d="M163.97 366.353H193.052C193.821 366.353 194.45 365.724 194.45 364.955C194.45 364.186 193.821 363.557 193.052 363.557H163.97C163.201 363.557 162.572 364.186 162.572 364.955C162.572 365.724 163.201 366.353 163.97 366.353Z" fill="#F4C85B"/>
<path d="M159.062 253.206L163.643 296.929L179.995 295.216L175.414 251.493L159.062 253.206Z" fill="#3E3D5E"/>
<path d="M179.179 348.584L179.852 292.821C170.773 292.711 163.323 290.871 163.214 299.951L162.739 348.385L179.179 348.584Z" fill="#3E3D5E"/>
<path d="M179.673 342.323H161.645V349.069H179.673V342.323Z" fill="#4E4E7F"/>
<path d="M164.98 240.669H187.027C190.276 240.669 193.112 242.511 194.551 245.202C179.529 256.822 165.087 255.703 156.865 253.522C156.605 252.511 156.452 251.459 156.452 250.37V249.197C156.452 244.506 160.289 240.669 164.98 240.669Z" fill="#262638"/>
<path d="M197.021 247.601C190.017 249.531 179.906 251.325 167.935 250.082C163.084 249.578 158.743 248.66 154.984 247.601C154.984 230.772 154.984 213.942 154.984 197.113C154.984 187.745 162.579 180.15 171.947 180.15H175.152C187.23 180.15 197.021 189.941 197.021 202.019V247.601Z" fill="#6BDDBC"/>
<path d="M197.021 214.096V201.339L178.215 208.154L163.055 188.432C160.891 191.28 154.984 193.325 154.984 195.552C167.519 235.58 190.315 219.869 197.021 214.096Z" fill="#69C9AB"/>
<path d="M162.439 249.29C162.777 249.35 163.115 249.411 163.459 249.467V182.441C163.114 182.641 162.768 182.841 162.439 183.064V249.29Z" fill="#3A9B9B"/>
<path d="M166.793 182.936C166.306 185.701 170.888 188.818 177.026 189.898C183.165 190.979 188.535 189.613 189.022 186.849C189.509 184.084 184.927 180.967 178.788 179.886C172.651 178.807 167.28 180.172 166.793 182.936Z" fill="#FFB692"/>
<path d="M184.861 181.63C184.861 164.718 181.559 173.507 177.485 173.507C173.411 173.507 170.109 165.808 170.109 181.63C170.109 187.557 173.411 187.045 177.485 187.045C181.559 187.045 184.861 187.557 184.861 181.63Z" fill="#FFB692"/>
<path d="M170.264 176.69C170.959 167.636 173.928 173.508 177.486 173.508C181.43 173.508 184.651 165.268 184.852 180.098C178.549 182.158 173.66 179.766 170.264 176.69Z" fill="#D88D87"/>
<path d="M188.497 159.941C187.641 162.26 188.197 164.639 189.737 165.255C191.278 165.871 193.221 164.491 194.076 162.172C194.932 159.853 194.376 157.474 192.836 156.858C191.295 156.242 189.352 157.622 188.497 159.941Z" fill="#FFB692"/>
<path d="M190.141 160.512C189.906 160.418 189.656 160.397 189.405 160.436C189.418 160.397 189.429 160.359 189.443 160.32C190.009 158.788 191.292 157.876 192.31 158.283C193.328 158.69 193.695 160.262 193.13 161.793C192.695 162.971 191.836 163.779 191 163.906C191.505 162.412 191.134 160.909 190.141 160.512Z" fill="#D88D87"/>
<path d="M176.336 143.045H182.899C188.02 143.045 192.211 147.235 192.211 152.357V165.913C192.211 173.065 186.36 178.916 179.208 178.916C172.056 178.916 166.205 173.065 166.205 165.913V153.176C166.205 147.604 170.764 143.045 176.336 143.045Z" fill="#FFB692"/>
<path d="M182.899 143.045H176.336C172.243 143.045 168.704 145.51 167.11 149.025C176.415 157.799 185.904 158.168 192.212 156.939V152.357C192.211 147.235 188.02 143.045 182.899 143.045Z" fill="#D88D87"/>
<path d="M165.316 160.482C159.643 146.556 166.966 140.264 173.259 141.089C179.551 141.914 182.956 142.224 182.956 142.224L181.409 137.066C181.409 137.066 186.154 138.304 187.495 142.533L187.392 135.003C187.392 135.003 195.128 139.542 195.644 148.929C196.16 158.316 183.369 159.554 174.704 151.095C174.704 151.095 174.291 162.339 165.316 160.482Z" fill="#323244"/>
<path d="M186.713 164.956C186.713 164.956 183.32 165.577 183.305 166.213C183.29 166.849 184.941 167.152 185.395 166.88C185.85 166.607 186.713 164.956 186.713 164.956Z" fill="#D88D87"/>
<path d="M187.554 159.989C187.505 160.777 188.104 161.456 188.893 161.505C189.681 161.554 190.36 160.954 190.409 160.166C190.458 159.378 189.858 158.699 189.07 158.65C188.281 158.601 187.603 159.2 187.554 159.989Z" fill="#34344F"/>
<path d="M177.626 160.049C177.577 160.837 178.177 161.516 178.965 161.565C179.753 161.614 180.432 161.014 180.481 160.226C180.53 159.438 179.93 158.759 179.142 158.71C178.354 158.661 177.675 159.261 177.626 160.049Z" fill="#34344F"/>
<path d="M183.975 157.588C184.357 159.229 184.848 160.818 185.374 162.397C185.641 163.185 185.908 163.972 186.208 164.751L186.265 164.897C186.288 164.961 186.242 164.853 186.273 164.798C186.292 164.757 186.274 164.79 186.28 164.784C186.265 164.82 186.197 164.901 186.136 164.966L185.708 165.391C185.413 165.682 185.108 165.973 184.827 166.305C185.244 166.178 185.629 165.994 186.003 165.783C186.186 165.67 186.373 165.563 186.548 165.416C186.638 165.339 186.724 165.274 186.827 165.138C186.856 165.086 186.876 165.079 186.907 164.987C186.943 164.88 186.916 164.719 186.911 164.735L186.861 164.586C186.592 163.791 186.291 163.005 185.989 162.22C185.378 160.65 184.731 159.093 183.975 157.588Z" fill="#D88D87"/>
<path d="M185.145 168.367C183.559 167.907 181.359 167.154 179.332 166.063C177.999 165.345 176.551 166.971 177.097 168.597C177.678 170.327 178.872 172.031 181.287 172.557C183.266 172.988 184.611 172.623 185.521 171.986C186.809 171.083 186.558 168.777 185.145 168.367Z" fill="#34344F"/>
<path d="M181.286 172.557C178.871 172.031 177.677 170.327 177.096 168.597C177.014 168.353 176.982 168.11 176.982 167.875C177.899 167.594 179.076 167.584 180.582 168.119C182.909 168.946 183.866 170.784 184.21 172.57C184.211 172.574 184.211 172.577 184.211 172.58C183.437 172.784 182.479 172.817 181.286 172.557Z" fill="#FF9292"/>
<path d="M182.708 170.711C182.415 171.092 181.5 170.908 180.664 170.299C179.828 169.69 179.388 168.886 179.681 168.505C179.974 168.123 180.889 168.308 181.725 168.917C182.56 169.526 183.001 170.33 182.708 170.711Z" fill="#FFABAB"/>
<path d="M185.145 168.367C183.559 167.907 181.359 167.154 179.332 166.063C178.513 165.622 177.653 166.067 177.236 166.851C178.345 168.127 180.141 169.274 182.321 169.963C183.719 170.404 185.095 170.6 186.337 170.577C186.464 169.637 186.036 168.625 185.145 168.367Z" fill="white"/>
<path d="M170.452 160.044C171.222 162.392 170.579 164.749 169.017 165.308C167.455 165.867 165.564 164.416 164.794 162.068C164.024 159.719 164.667 157.363 166.229 156.804C167.791 156.245 169.682 157.696 170.452 160.044Z" fill="#FFB692"/>
<path d="M168.787 160.555C169.025 160.47 169.276 160.458 169.526 160.506C169.514 160.467 169.505 160.428 169.492 160.389C168.983 158.837 167.734 157.879 166.702 158.248C165.67 158.617 165.245 160.174 165.754 161.726C166.145 162.919 166.974 163.758 167.805 163.916C167.355 162.403 167.781 160.914 168.787 160.555Z" fill="#D88D87"/>
<path d="M195.458 151.317C195.623 150.591 195.691 149.795 195.643 148.929C195.603 148.205 195.508 147.519 195.389 146.853C194.17 150.051 191.83 152.7 187.391 152.488C181.286 152.197 178.197 146.467 176.663 141.522C175.644 141.397 174.511 141.254 173.259 141.09C171.564 140.868 169.796 141.167 168.225 141.988C180.79 156.506 189.992 155.03 195.458 151.317Z" fill="#5F5F82"/>
<path d="M210.415 190.38L210.42 186.7L210.572 184.673C210.656 183.554 211.632 182.715 212.751 182.799L220.754 183.4C220.775 183.382 220.784 183.452 220.784 183.585C220.781 184.845 220.118 185.929 219.142 186.573C220.35 187.587 221.231 188.953 221.642 190.499C221.804 192.403 220.224 193.999 218.318 193.856L213.284 193.478C211.664 193.357 210.412 192.005 210.415 190.38Z" fill="#F29D7E"/>
<path d="M215.726 190.398L255.085 139.305C255.253 139.086 255.567 139.045 255.786 139.214C256.001 139.38 256.044 139.687 255.884 139.906L217.748 191.919C217.335 192.483 216.543 192.605 215.979 192.191C215.415 191.778 215.293 190.986 215.707 190.422C215.713 190.415 215.721 190.404 215.726 190.398Z" fill="#323244"/>
<path d="M209.458 191.071L186.252 205.471C183.398 207.438 182.678 211.346 184.645 214.201C186.612 217.055 190.52 217.775 193.375 215.808L216.581 201.407L209.458 191.071Z" fill="#FFB692"/>
<path d="M209.631 198.157L210.505 199.31C212.953 202.539 217.554 203.172 220.784 200.725C224.013 198.277 224.646 193.676 222.199 190.446L221.325 189.293C218.877 186.064 214.276 185.431 211.047 187.878C207.817 190.327 207.184 194.928 209.631 198.157Z" fill="#FFB692"/>
<path d="M217.724 195.075C218.073 196.067 219.17 196.593 220.162 196.244L227.399 193.336C228.391 192.987 228.917 191.89 228.568 190.898C228.219 189.906 227.122 189.38 226.13 189.729L218.893 192.637C217.901 192.987 217.375 194.084 217.724 195.075Z" fill="#FFB692"/>
<path d="M218.311 198.083C218.596 199.095 219.657 199.69 220.669 199.405L228.077 196.964C229.089 196.679 229.684 195.618 229.399 194.606C229.114 193.594 228.053 192.999 227.041 193.284L219.633 195.725C218.621 196.01 218.026 197.071 218.311 198.083Z" fill="#FFB692"/>
<path d="M215.974 188.528C216.323 189.52 217.42 190.046 218.412 189.697L225.649 186.789C226.641 186.44 227.167 185.343 226.818 184.351C226.469 183.359 225.372 182.833 224.38 183.182L217.143 186.09C216.152 186.439 215.626 187.536 215.974 188.528Z" fill="#FFB692"/>
<path d="M216.562 191.536C216.847 192.548 217.908 193.143 218.92 192.858L226.328 190.417C227.34 190.132 227.935 189.071 227.65 188.059C227.365 187.047 226.304 186.452 225.292 186.737L217.884 189.178C216.872 189.463 216.277 190.524 216.562 191.536Z" fill="#FFB692"/>
<path d="M157.977 200.866L186.886 216.336C189.974 217.912 193.754 216.686 195.329 213.598C196.904 210.511 195.679 206.73 192.591 205.155L163.682 189.685L157.977 200.866Z" fill="#FFB692"/>
<path d="M179.318 212.286C179.546 208.079 179.628 202.348 178.854 197.803L175.538 196.029L167.495 205.959L179.318 212.286Z" fill="#D88D87"/>
<path d="M180.536 194.786L165.659 186.55C161.372 184.443 156.188 186.211 154.082 190.498C151.975 194.785 153.743 199.969 158.03 202.075L172.907 210.311L180.536 194.786Z" fill="#3A9B9B"/>
<path d="M455.245 150.877C455.245 178.202 439.296 183.682 451.39 201.067C463.484 218.452 501.127 206.056 490.242 182.775C479.357 159.494 479.962 145.586 479.962 145.586L455.245 150.877Z" fill="#323244"/>
<path d="M408.561 216.064L441.348 215.82C444.814 215.862 447.59 218.706 447.548 222.172C447.506 225.638 444.662 228.414 441.196 228.372L408.409 228.616L408.561 216.064Z" fill="#D88D87"/>
<path d="M463.666 197.381L446.719 225.449C444.87 228.381 440.994 229.259 438.062 227.409C435.13 225.56 434.253 221.684 436.102 218.752L453.049 190.684L463.666 197.381Z" fill="#D88D87"/>
<path d="M454.892 359.047H456.294C459.085 359.047 461.368 356.764 461.368 353.973V347.007C461.368 344.216 459.085 341.933 456.294 341.933H454.892C452.101 341.933 449.818 344.216 449.818 347.007V353.973C449.818 356.764 452.101 359.047 454.892 359.047Z" fill="#FFB000"/>
<path d="M461.575 349.88H461.182C460.886 349.88 460.615 350.062 460.523 350.343C459.858 352.376 457.949 353.845 455.694 353.845C453.439 353.845 451.53 352.375 450.865 350.343C450.773 350.062 450.501 349.88 450.206 349.88H446.471C446.353 349.88 446.237 349.909 446.134 349.966L436.448 355.249C435.036 356.019 433.888 357.195 433.152 358.624L431.787 361.274C430.808 363.175 432.188 365.438 434.326 365.438H459.591C461.392 365.438 462.806 363.895 462.649 362.101L461.575 349.88Z" fill="#9129E3"/>
<path d="M459.187 358.495C459.187 360.445 457.95 362.026 456.423 362.026C454.897 362.026 453.659 360.445 453.659 358.495C453.659 356.545 454.896 354.964 456.423 354.964C457.95 354.963 459.187 356.544 459.187 358.495Z" fill="white"/>
<path d="M461.413 366.353H432.331C431.562 366.353 430.933 365.724 430.933 364.955C430.933 364.186 431.562 363.557 432.331 363.557H461.413C462.182 363.557 462.811 364.186 462.811 364.955C462.811 365.724 462.182 366.353 461.413 366.353Z" fill="#EAAC3D"/>
<path d="M450.952 251.489L446.372 295.212L462.724 296.925L467.305 253.202L450.952 251.489Z" fill="#5295FE"/>
<path d="M447.159 348.584L446.486 292.821C455.566 292.711 463.015 290.871 463.124 299.951L463.599 348.385L447.159 348.584Z" fill="#5295FE"/>
<path d="M475.47 263.109H463.25C455.857 263.109 449.808 257.06 449.808 249.667C449.808 244.718 453.857 240.669 458.806 240.669H479.913C484.862 240.669 488.911 244.718 488.911 249.667C488.912 257.06 482.863 263.109 475.47 263.109Z" fill="#5295FE"/>
<path d="M486.21 359.047H487.612C490.403 359.047 492.686 356.764 492.686 353.973V347.007C492.686 344.216 490.403 341.933 487.612 341.933H486.21C483.419 341.933 481.136 344.216 481.136 347.007V353.973C481.136 356.764 483.42 359.047 486.21 359.047Z" fill="#FFB000"/>
<path d="M492.894 349.88H492.501C492.205 349.88 491.934 350.062 491.842 350.343C491.177 352.376 489.268 353.845 487.013 353.845C484.758 353.845 482.849 352.375 482.184 350.343C482.092 350.062 481.82 349.88 481.525 349.88H477.79C477.672 349.88 477.556 349.909 477.453 349.966L467.767 355.249C466.355 356.019 465.207 357.195 464.471 358.624L463.106 361.274C462.127 363.175 463.507 365.438 465.645 365.438H490.91C492.711 365.438 494.125 363.895 493.968 362.101L492.894 349.88Z" fill="#9129E3"/>
<path d="M490.506 358.495C490.506 360.445 489.269 362.026 487.743 362.026C486.217 362.026 484.98 360.445 484.98 358.495C484.98 356.545 486.217 354.964 487.743 354.964C489.268 354.963 490.506 356.544 490.506 358.495Z" fill="white"/>
<path d="M492.732 366.353H463.65C462.881 366.353 462.252 365.724 462.252 364.955C462.252 364.186 462.881 363.557 463.65 363.557H492.732C493.501 363.557 494.13 364.186 494.13 364.955C494.13 365.724 493.501 366.353 492.732 366.353Z" fill="#F4C85B"/>
<path d="M489.055 252.245L488.891 296.771L472.613 296.205V252.245H489.055Z" fill="#5295FE"/>
<path d="M477.816 349.164L472.649 296.063C481.685 295.171 488.638 290.3 489.529 299.336L494.177 347.549L477.816 349.164Z" fill="#5295FE"/>
<path d="M480.384 240.669H458.337C455.088 240.669 452.252 242.511 450.813 245.202C465.835 256.822 480.277 255.703 488.499 253.522C488.759 252.511 488.912 251.459 488.912 250.37V249.197C488.912 244.506 485.074 240.669 480.384 240.669Z" fill="#3B6BB2"/>
<path d="M451.405 190.395L450.366 185.144C454.98 182.068 459.223 180.659 468.709 180.659C472.547 181.107 475.993 181.815 478.899 182.566C484.583 184.037 488.379 189.38 487.848 195.227L484.497 211.31L490.755 247.63C472.217 251.963 446.937 247.63 446.937 247.63L452.417 212.377C446.727 207.297 448.643 200.073 451.405 190.395Z" fill="#FF5050"/>
<path d="M473.836 213.926C462.628 206.768 456.988 213.058 456.988 213.058C456.988 213.058 468.124 216.746 473.836 213.926Z" fill="#AD475B"/>
<path d="M460.503 181.63C460.503 164.718 463.805 173.507 467.879 173.507C471.953 173.507 475.255 165.808 475.255 181.63C475.255 187.557 471.953 187.045 467.879 187.045C463.805 187.045 460.503 187.557 460.503 181.63Z" fill="#FFB692"/>
<path d="M475.1 176.69C474.405 167.636 471.436 173.508 467.878 173.508C463.934 173.508 460.713 165.268 460.512 180.098C466.815 182.158 471.704 179.766 475.1 176.69Z" fill="#D88D87"/>
<path d="M456.867 159.941C457.723 162.26 457.167 164.639 455.627 165.255C454.086 165.871 452.144 164.491 451.288 162.172C450.432 159.853 450.987 157.474 452.528 156.858C454.069 156.242 456.012 157.622 456.867 159.941Z" fill="#FFB692"/>
<path d="M455.222 160.512C455.457 160.418 455.707 160.397 455.958 160.436C455.945 160.397 455.934 160.359 455.92 160.32C455.355 158.788 454.071 157.876 453.053 158.283C452.035 158.69 451.668 160.262 452.233 161.793C452.668 162.971 453.527 163.779 454.363 163.906C453.859 162.412 454.23 160.909 455.222 160.512Z" fill="#D88D87"/>
<path d="M469.028 143.045H462.465C457.344 143.045 453.153 147.235 453.153 152.357V165.913C453.153 173.065 459.004 178.916 466.156 178.916C473.308 178.916 479.159 173.065 479.159 165.913V153.176C479.159 147.604 474.6 143.045 469.028 143.045Z" fill="#FFB692"/>
<path d="M462.465 143.045H469.028C473.121 143.045 476.66 145.51 478.254 149.025C468.949 157.799 459.46 158.168 453.152 156.939V152.357C453.153 147.235 457.343 143.045 462.465 143.045Z" fill="#D88D87"/>
<path d="M477.741 161.056C468.246 160.93 467.415 154.127 467.717 151.406C467.717 151.406 459.931 158.738 453.28 156.47C453.28 156.47 450.114 150.704 452.675 145.812C455.188 141.012 463.711 142.033 463.711 142.033C463.711 142.033 472.174 136.933 478.148 142.562C487.295 151.179 477.741 161.056 477.741 161.056Z" fill="#323244"/>
<path d="M458.651 164.956C458.651 164.956 462.044 165.577 462.059 166.213C462.074 166.849 460.423 167.152 459.969 166.88C459.514 166.607 458.651 164.956 458.651 164.956Z" fill="#D88D87"/>
<path d="M457.81 159.989C457.859 160.777 457.26 161.456 456.471 161.505C455.683 161.554 455.004 160.954 454.955 160.166C454.906 159.378 455.506 158.699 456.294 158.65C457.082 158.601 457.761 159.2 457.81 159.989Z" fill="#34344F"/>
<path d="M467.738 160.049C467.787 160.837 467.187 161.516 466.399 161.565C465.611 161.614 464.932 161.014 464.883 160.226C464.834 159.438 465.434 158.759 466.222 158.71C467.01 158.661 467.689 159.261 467.738 160.049Z" fill="#34344F"/>
<path d="M461.388 157.588C461.006 159.229 460.515 160.818 459.989 162.397C459.722 163.185 459.455 163.972 459.155 164.751L459.098 164.897C459.075 164.961 459.121 164.853 459.09 164.798C459.071 164.757 459.089 164.79 459.083 164.784C459.098 164.82 459.166 164.901 459.227 164.966L459.655 165.391C459.95 165.682 460.254 165.973 460.536 166.305C460.118 166.178 459.734 165.994 459.36 165.783C459.177 165.67 458.99 165.563 458.815 165.416C458.725 165.339 458.639 165.274 458.536 165.138C458.507 165.086 458.487 165.079 458.456 164.987C458.42 164.88 458.447 164.719 458.452 164.735L458.502 164.586C458.771 163.791 459.072 163.005 459.374 162.22C459.986 160.65 460.633 159.093 461.388 157.588Z" fill="#D88D87"/>
<path d="M466.413 160.401C468.737 160.817 468.851 158.719 468.851 158.719L466.281 158.908L466.413 160.401Z" fill="#34344F"/>
<path d="M456.36 160.401C454.036 160.817 453.922 158.719 453.922 158.719L456.492 158.908L456.36 160.401Z" fill="#34344F"/>
<path d="M458.477 169.249C458.477 169.249 462.719 169.501 466.584 167.023C466.584 167.023 466.276 170.047 462.943 170.719C459.611 171.391 458.477 169.249 458.477 169.249Z" fill="#D88D87"/>
<path d="M458.477 169.249L466.584 167.023C466.584 167.023 463.244 169.753 458.477 169.249Z" fill="#E59793"/>
<path d="M474.912 160.044C474.142 162.392 474.785 164.749 476.347 165.308C477.909 165.867 479.8 164.416 480.57 162.068C481.34 159.719 480.697 157.363 479.135 156.804C477.573 156.245 475.682 157.696 474.912 160.044Z" fill="#FFB692"/>
<path d="M476.577 160.555C476.338 160.47 476.088 160.458 475.838 160.506C475.85 160.467 475.859 160.428 475.872 160.389C476.381 158.837 477.63 157.879 478.662 158.248C479.694 158.617 480.119 160.174 479.61 161.726C479.219 162.919 478.39 163.758 477.559 163.916C478.009 162.403 477.583 160.914 476.577 160.555Z" fill="#D88D87"/>
<path d="M436.22 212.192L434.629 208.874L433.618 207.111C433.06 206.137 431.818 205.801 430.844 206.359L423.882 210.351C423.855 210.344 423.877 210.411 423.935 210.53C424.481 211.666 425.547 212.358 426.704 212.518C426.051 213.954 425.844 215.566 426.141 217.139C426.815 218.927 428.93 219.686 430.587 218.735L434.966 216.224C436.376 215.416 436.923 213.657 436.22 212.192Z" fill="#F29D7E"/>
<path d="M436.587 211.156L469.062 215.673C472.485 216.218 474.819 219.434 474.275 222.857C473.731 226.28 470.514 228.614 467.091 228.07L434.616 223.553L436.587 211.156Z" fill="#FFB692"/>
<path d="M439.486 217.625L439.194 219.042C438.377 223.011 434.498 225.566 430.529 224.749C426.56 223.932 424.005 220.053 424.822 216.084L425.114 214.667C425.931 210.698 429.81 208.143 433.779 208.96C437.748 209.776 440.303 213.656 439.486 217.625Z" fill="#FFB692"/>
<path d="M432.698 218.218C432.811 219.263 432.048 220.211 431.002 220.324L423.219 220.819C422.174 220.932 421.226 220.169 421.113 219.123C421 218.078 421.763 217.13 422.809 217.017L430.593 216.522C431.638 216.41 432.585 217.173 432.698 218.218Z" fill="#FFB692"/>
<path d="M433.465 221.186C433.644 222.222 432.943 223.216 431.907 223.396L424.171 224.387C423.135 224.566 422.141 223.865 421.962 222.829C421.783 221.793 422.484 220.799 423.52 220.62L431.256 219.629C432.291 219.448 433.285 220.15 433.465 221.186Z" fill="#FFB692"/>
<path d="M432.082 211.387C432.195 212.432 431.432 213.38 430.386 213.493L417.44 214.583C416.394 214.696 415.447 213.933 415.334 212.887C415.221 211.842 415.984 210.894 417.03 210.781L429.977 209.691C431.021 209.578 431.969 210.341 432.082 211.387Z" fill="#FFB692"/>
<path d="M432.221 214.524C432.4 215.56 431.699 216.554 430.663 216.734L422.927 217.725C421.891 217.904 420.897 217.203 420.717 216.167C420.538 215.131 421.239 214.137 422.275 213.957L430.011 212.966C431.047 212.787 432.041 213.488 432.221 214.524Z" fill="#FFB692"/>
<path d="M483.065 184.629C486.203 185.97 487.694 189.573 486.421 192.74L473.762 224.227C472.4 227.415 468.711 228.894 465.524 227.532C462.337 226.17 460.857 222.482 462.219 219.294L474.777 188.059C476.09 184.793 479.83 183.246 483.065 184.629Z" fill="#FFB692"/>
<path d="M387.701 226.722H435.986V225.073H387.701V226.722Z" fill="#EFF6FF"/>
<path d="M387.701 226.722H420.714V225.073H387.701V226.722Z" fill="#A0B8E8"/>
<path d="M387.699 225.081L420.716 225.077L413.822 201.861H380.838L387.699 225.081Z" fill="#A0B8E8"/>
<path d="M413.822 201.861H415.075L422.067 225.147L420.715 225.073L413.822 201.861Z" fill="#EFF6FF"/>
<path d="M395.785 214.69C396.387 216.54 398.16 217.622 399.744 217.106C401.328 216.59 402.124 214.672 401.521 212.822C400.919 210.972 399.146 209.89 397.562 210.406C395.979 210.922 395.183 212.84 395.785 214.69Z" fill="#EFF6FF"/>
<path d="M401.241 227.965C398.036 229.359 395.202 227.826 394.831 226.525C394.459 225.224 393.855 224.063 393.855 224.063L396.967 219.65C396.967 219.65 398.848 220.904 397.432 223.575C397.432 223.575 400.684 223.181 401.241 227.965Z" fill="#D88D87"/>
<path d="M411.786 228.476C411.786 228.476 400.916 229.451 398.826 228.197C396.736 226.943 395.971 214.539 403.239 213.844C412.947 212.915 411.786 228.476 411.786 228.476Z" fill="#FFB692"/>
<path d="M158.269 77.8485L151.777 74.7117V97.2885L158.269 92.6925V77.8485ZM148.752 78.0501V92.3577L143.525 94.3875V76.6761L148.752 78.0501ZM136.53 79.0221L136.511 91.8381L140.512 90.8985V79.5921L136.53 79.0221Z" fill="#5C4C9F"/>
<path d="M168.699 86.2629L165.866 82.1853H164.379V89.6883H165.781V84.2121L168.661 88.3239L171.56 84.1839V89.6943H172.953V82.1841H171.5L168.699 86.2629ZM177.674 89.6877L177.665 89.0097C177.245 89.5521 176.558 89.8149 175.824 89.8149C174.755 89.8149 174.002 89.1969 174.002 88.3059C174.002 87.3309 174.697 86.7543 176.09 86.5659L177.615 86.3541V86.2701C177.615 85.7103 177.148 85.4061 176.338 85.4061C175.565 85.4061 174.907 85.6941 174.335 86.1519V84.9399C174.85 84.5667 175.565 84.3219 176.427 84.3219C178.077 84.3219 178.974 85.0677 178.974 86.3229V89.6973L177.674 89.6877ZM176.157 88.8057C177.026 88.8057 177.626 88.3053 177.626 87.5847V87.2967L176.31 87.4917C175.671 87.5847 175.347 87.8307 175.347 88.2117C175.356 88.5765 175.684 88.8117 176.157 88.8117M183.616 85.6269C183.558 85.5927 183.435 85.5849 183.253 85.5849C182.232 85.5849 181.603 86.2887 181.603 87.3729V89.6871H180.22V84.4311H181.593V85.3299C181.879 84.7197 182.585 84.3219 183.348 84.3219C183.501 84.3219 183.587 84.3303 183.616 84.3561V85.6269ZM184.513 89.6877H185.897V87.6021L186.202 87.3621L188.31 89.6937H190.018L187.26 86.7201L189.825 84.4311H188.117L185.895 86.4147V82.1847H184.511L184.513 89.6877ZM195.271 89.2557C194.661 89.5947 193.869 89.8155 192.992 89.8155C191.036 89.8155 189.806 88.6371 189.806 87.0519C189.806 85.4751 191.036 84.3135 192.772 84.3135C194.499 84.3135 195.605 85.4667 195.605 87.0267C195.605 87.1965 195.605 87.2979 195.566 87.4587H191.19C191.294 88.1877 191.973 88.7643 193.078 88.7643C193.822 88.7643 194.547 88.5267 195.263 88.0605V89.2557H195.271ZM194.241 86.5257C194.156 85.8057 193.583 85.3137 192.744 85.3137C191.905 85.3137 191.285 85.8987 191.19 86.5257H194.241ZM199.125 88.6857C199.355 88.6857 199.592 88.6437 199.773 88.5249V89.6271C199.544 89.7459 199.191 89.8221 198.715 89.8221C197.523 89.8221 196.826 89.1777 196.826 88.0821V85.5021H195.777L198.209 82.7469V84.4509H199.773V85.5021H198.21V87.8589C198.21 88.4589 198.496 88.6989 199.125 88.6989M206.488 87.0657C206.488 88.6089 205.153 89.8209 203.34 89.8209C201.528 89.8209 200.193 88.6089 200.193 87.0657C200.193 85.5225 201.528 84.3105 203.34 84.3105C205.143 84.3105 206.488 85.5225 206.488 87.0657ZM201.576 87.0657C201.576 87.9645 202.349 88.6857 203.331 88.6857C204.323 88.6857 205.086 87.9657 205.086 87.0657C205.086 86.1657 204.313 85.4457 203.331 85.4457C202.349 85.4457 201.576 86.1657 201.576 87.0657Z" fill="#1F1646"/>
</svg>
