<svg version="1.2" xmlns="http://www.w3.org/2000/svg" viewBox="0 0 1000 747" width="1000" height="747"><style>.a{fill:#e8f0ff}.b{fill:#b4d3f8}.c{fill:#ef9d30}.d{fill:#ddae19}.e{fill:#f1c830}.f{fill:none;stroke:#10284f;stroke-linecap:round;stroke-miterlimit:10;stroke-width:3;stroke-dasharray:11.813679999999998}.g{fill:#fff}.h{fill:#10284f}.i{fill:#4c2018}.j{fill:#23396a}.k{fill:#6b3324}.l{fill:#00b74b}.m{fill:#27325b}.n{fill:#038e3c}.o{fill:#363e66}.p{fill:#6371ba}.q{fill:#5363a3}.r{fill:#ff0f46}.s{fill:#ffab82}.t{fill:#ff875f}.u{fill:#ff0146}.v{fill:#008cff}.w{fill:#a3073f}</style><path class="a" d="m913.2 458c-13.9-16.1-26.4-32.5-32.6-53.6-9.5-32.4-8.7-66.8-21.2-98.6-4-10.3-9.7-20.3-17.6-28.6-23.1-24.1-59.9-35.6-89.3-51.6-46.7-25.4-66.3-59.8-90.3-102.8-23.5-42.5-64.5-64.9-114.3-74.7-92.7-18.3-178.2 32.5-236.3 100.9-12.6 14.7-22.9 32.9-37.5 45.1-29.3 24.6-69.4 34.1-103.7 49.2-40.3 17.7-58 56.2-70 95.8-14.4 47.6-24 96.5-32.2 145.6-7.6 45.2-24.2 100.8-13.9 146.3 5.9 26.3 40 64.1 69.5 64.3 0 0 729.8 4.7 730.1 4.7 18.7 0.1 45.4-18.2 59.1-29.3 18.4-14.9 30.5-33 38.9-54 18.3-46 16.9-93.2-16.7-133.5-7.2-8.7-14.8-16.9-22-25.2z"/><path class="b" d="m123.1 697h687.2c14.9-16.9 24.6-38.4 26.5-60.8 3.4-39.4-17.5-79.7-51.5-99.8-26.1-15.3-62.6-25.2-68.7-59.4-2.9-15.9-0.2-32.3 0.2-48.5 0.3-16.3-2.3-33.8-13.7-45.4-19.7-20.1-52.7-12.6-80.7-14.5-71.9-4.9-121-77.6-190.2-97.8-42.1-12.2-89.8-2.9-124.1 24.4-23.4 18.7-40.2 45.4-47.5 74.3-6.5 25.4 7 55.8-17.2 73.8-13.7 10.1-31.1 13-47.6 17-16.5 4.1-33.8 10.6-43 24.9-12.8 20.1-4.5 46.5 5.1 68.3 9.7 21.9 20.5 46.4 11.6 68.6-6.9 17.2-24 27.9-34.9 43-6.8 9.3-10.5 20.4-11.5 31.9z"/><path class="c" d="m809.5 306.9l-1.4 24.3-67.8-78.4z"/><path class="d" d="m801.3 314.1l6.8 17.1-67.8-78.4z"/><path class="e" d="m740.3 252.8l61 61.3-24.2 27.2z"/><path class="e" d="m740.3 252.8l69.2 54.1 25.8-14z"/><path class="f" d="m144.8 573.5c-39.3-42.5-49.4-109.5-24.2-161.6 25.2-52.1 84-85.8 141.7-81.3 55.8 4.3 104.2 40.4 142.3 81.4 38 41.1 69.3 88.4 110.6 126.2 80.2 73.3 197.2 104.2 303.2 80.1 36-8.2 72.5-23.7 94.2-53.7 21.6-30 22.4-77-6.3-100.4-12.5-10.3-28.6-14.8-44.2-19.4-15.6-4.5-31.6-9.7-43.5-20.8-11.8-11.1-17.9-29.9-9.8-44 4.3-7.2 11.7-12.3 15.5-19.8 3.9-7.4 1.4-19.5-7-20"/><path class="b" d="m669.5 303.7l64.9 0.9 6.4 75.6-3.1 44.9-59-2.7-29.1-40.7z"/><path class="g" d="m689.3 327.6c0.7 0.2 17.2 9.4 17.2 9.4l10.5-8.9z"/><path class="g" d="m669.5 303.7l5.6 41 6.2 32.8-3.2 33.1 0.6 11.8h-74.3l2.8-20.4 4.2-31.7-12.3-53.5-8.7-12z"/><path class="b" d="m622.4 343.6l8.8 9.6 28.8-9.6z"/><path class="b" d="m723.3 309.8l-118.1-1.6c-2.1 0-2.1 3.2 0 3.3l117.8 1.5c2.1 0 2.4-3.2 0.3-3.2z"/><path class="b" d="m678 316.1l-60-0.7c-2.1 0-2.1 3.2-0.1 3.2l59.9 0.7c2.1 0 2.3-3.1 0.2-3.2z"/><path class="b" d="m725.2 326.3l-109.5-1.3c-2.1 0-2.1 3.2-0.1 3.2l109.3 1.2c2 0 2.3-3.1 0.3-3.1z"/><path class="b" d="m722.9 342.3l-103.3-1c-2.1 0-2.1 3.1-0.1 3.1l103.2 0.9c2 0.1 2.2-3 0.2-3z"/><path class="b" d="m720.7 358l-107-0.8c-2 0-2.1 3 0 3l106.8 0.7c2 0.1 2.2-2.9 0.2-2.9z"/><path class="b" d="m721.1 367.6l-102.1-0.7c-2 0-2 3 0 3l101.9 0.6c2 0 2.2-2.9 0.2-2.9z"/><path class="b" d="m714.1 377.6l-57.4-0.3c-1.2 0-1.3 1.9 0 1.9l57.2 0.3c1.3 0 1.4-1.9 0.2-1.9z"/><path class="b" d="m703.8 387.6l-74.7-0.3c-1.7 0-1.7 2.3-0.1 2.3l74.6 0.3c1.6 0 1.7-2.3 0.2-2.3z"/><path class="b" d="m707.9 397.6l-93.2-0.2c-1.6-0.1-1.6 2.2 0 2.2l93.1 0.3c1.5 0 1.7-2.3 0.1-2.3z"/><path class="b" d="m717.7 410.1l-107.6-0.1c-1.9 0-1.9 2.7 0 2.7l107.3 0.2c1.9 0 2.2-2.8 0.3-2.8z"/><path class="h" d="m428.9 371.5v56.6h15.1v-58.2z"/><path class="i" d="m673.9 615.2h-203.8v-185.8h203.8z"/><path class="i" d="m671.3 472.3h-504.6v-44.7h504.6z"/><path class="i" d="m809.2 615.2h-147.1v-185.8h147.1z"/><path class="j" d="m674 699.2l6.1-278.1-15-1.6 0.8 279.7z"/><path class="h" d="m665.9 699.2l-0.8-279.7-15 1.6 7.8 278.1z"/><path class="j" d="m812.7 699.2l6.1-278.1-15-1.6 0.9 279.7z"/><path class="h" d="m804.7 699.2l-0.9-279.7-15 1.6 7.8 278.1z"/><path class="j" d="m169.1 699.2l6.1-278.1-15-1.6 0.9 279.7z"/><path class="h" d="m161.1 699.2l-0.9-279.7-15 1.6 7.8 278.1z"/><path class="k" d="m832.7 434.1h-699.4v-15.5h699.4z"/><path class="k" d="m632.4 537.7h-146.8v-52.1h146.8z"/><path class="i" d="m573.2 508.4h-35.1v-11h35.1z"/><path class="k" d="m632.4 603.8h-146.8v-52.1h146.8z"/><path class="i" d="m573.2 571.5h-35.1v-11h35.1z"/><path class="h" d="m414 186.4c0 20.4-16.5 37-37 37-20.4 0-36.9-16.6-36.9-37 0-20.4 16.5-36.9 36.9-36.9 20.5 0 37 16.5 37 36.9z"/><path class="g" d="m408.8 186.4c0 8.9-3.6 16.9-9.4 22.6-4-4-9.2-4.9-12-6-3.2-1.3-3.2-2.5-3.8-6.2 1.4-0.8 3.4-2.1 5.2-7.5 6.8-0.8 6.9-9.1 4.9-9.5-1-0.2-1.8 0.3-1.8 0.3 0 0 0.9-1.2 1.1-5.3-0.3-6.1-3.7-10.5-7.9-11.9-3.7-1.2-12.8-1-16.5 0.2-4.2 1.4-7.9 5.6-8.2 11.7 0.2 4.1 1.1 5.3 1.1 5.3 0 0-0.8-0.5-1.8-0.3-2 0.4-1.8 8.7 5 9.5 1.7 5.4 3.7 6.7 5.1 7.5-0.5 3.7-0.5 4.9-3.8 6.2-2.7 1.1-7.7 2-11.6 5.7-5.7-5.7-9.2-13.6-9.2-22.3 0-17.5 14.3-31.8 31.8-31.8 17.6 0 31.8 14.3 31.8 31.8z"/><path class="j" d="m480.2 164.9h-45.3c-2 0-3.7-1.7-3.7-3.8 0-2.1 1.7-3.8 3.7-3.8h45.3c2.1 0 3.8 1.7 3.8 3.8 0 2.1-1.7 3.8-3.8 3.8z"/><path class="l" d="m537.2 179.6h-102.3c-2 0-3.7-1.7-3.7-3.8 0-2.1 1.7-3.8 3.7-3.8h102.3c2 0 3.7 1.7 3.7 3.8 0 2.1-1.7 3.8-3.7 3.8z"/><path class="l" d="m537.2 198.3h-102.3c-2 0-3.7-1.7-3.7-3.8 0-2.1 1.7-3.7 3.7-3.7h102.3c2 0 3.7 1.6 3.7 3.7 0 2.1-1.7 3.8-3.7 3.8z"/><path class="l" d="m537.2 217h-102.3c-2 0-3.7-1.7-3.7-3.8 0-2 1.7-3.7 3.7-3.7h102.3c2 0 3.7 1.7 3.7 3.7 0 2.1-1.7 3.8-3.7 3.8z"/><path class="m" d="m767.3 696.6l-0.4-13.2-25.6-1.7-25.6 1.7-0.4 13.2z"/><path class="m" d="m685.1 621.8c0 0 17.8-9.8 57-9.8 39.2 0 57.5 9.8 57.5 9.8 0 0-23.4 19.7-55.2 22.8-31.9 3.1-59.3-22.8-59.3-22.8z"/><path class="l" d="m803.9 530c-5.4 7.5-3.8 11.7-2.7 18.3 1 6.6-6.2 12.6-13.2 16.9-7 4.3-6.5 8-6.5 13.9 0 5.9 1.6 13.8-4.5 16.5-6.1 2.7-11.1 2.1-12.4 8.8-1.2 6.6 0 11.8-5 15.5-5 3.8-13.4 3.8-15.9 10.8-1.3-7.2 5.2-10.4 5.3-17.6 0.2-7.1-9.3-18.8-4.8-27.4 4.5-8.6 14-3.2 16.1-12.9 2.2-9.6-2.5-15.9 3.1-21.3 5.5-5.4 18.1-0.2 21.6-9.3 3.6-9.1 1.5-8.2 6-12.7 5.5-6.1 14.8-6.1 15.2-13.1 0 0 3 6.1-2.3 13.6z"/><path class="n" d="m803.9 530c-5.4 7.5-3.8 11.7-2.7 18.3 1 6.6-6.2 12.6-13.2 16.9-7 4.3-6.5 8-6.5 13.9 0 5.9 1.6 13.8-4.5 16.5-6.1 2.7-11.1 2.1-12.4 8.8-1.2 6.6 0 11.8-5 15.5-5 3.8-13.4 3.8-15.9 10.8 0-5.2 5.4-8.8 9.5-12 4.1-3.1 3-9.1 2.2-17.5-0.8-8.4 1.1-9.4 10.9-14.9 9.8-5.5 2.7-12.3 4.7-20.1 2-7.8 15.2-8.4 19.9-14.1 4.7-5.6-1.5-14.2 7.8-21.9 9.4-7.6 7.5-13.8 7.5-13.8 0 0 3 6.1-2.3 13.6z"/><path class="l" d="m750.7 476.6c-1.5 12.2 3 16 8.5 23.1 5.5 7 0.8 18.7-4.6 28.2-5.4 9.4-2.5 13.4 1.2 20.4 3.8 6.9 10.7 15 5.3 22.1-5.4 7.1-11.6 9.6-8.9 18.1 2.8 8.6 7.6 13.8 4.1 21.4-3.5 7.6-13.3 13-11.8 22.8-6-7.6-0.5-15.5-4.9-24-4.3-8.5-22.9-16-23.1-28.9-0.2-13 14.3-12.7 10.6-25.4-3.6-12.7-13.1-17-10-26.9 3.1-9.8 21-11.7 19.4-24.7-1.6-12.9-3.5-10.4-1.2-18.6 2.6-10.7 13.5-16.6 9.4-25 0 0 7.5 5.2 6 17.4z"/><path class="n" d="m750.7 476.6c-1.5 12.2 3 16 8.5 23.1 5.5 7 0.8 18.7-4.6 28.2-5.4 9.4-2.5 13.4 1.2 20.4 3.8 6.9 10.7 15 5.3 22.1-5.4 7.1-11.6 9.6-8.9 18.1 2.8 8.6 7.6 13.8 4.1 21.4-3.5 7.6-13.3 13-11.8 22.8-3.3-6.2 0.8-13.8 3.6-20.1 2.8-6.3-2.4-12.6-8.7-21.9-6.3-9.3-4.6-11.7 3.3-24.4 7.9-12.6-4.6-16.1-7.3-26.5-2.7-10.3 12.4-19.5 14.3-29.1 1.9-9.6-10.9-15.7-4.8-30.6 6.1-14.8-0.2-20.9-0.2-20.9 0 0 7.5 5.2 6 17.4z"/><path class="l" d="m685.8 520.8c4 9.2 8.7 10 15.4 12.7 6.7 2.8 8.2 12.8 8.2 21.7 0 8.8 3.7 10.5 9.1 13.8 5.5 3.3 13.6 6.2 12.7 13.4-0.9 7.2-4.3 11.5 1.2 16.3 5.4 4.9 10.9 6.7 11.5 13.4 0.7 6.8-4.1 14.5 1 20.8-7.4-2.9-6.7-10.7-13.2-14.9-6.5-4.2-22.6-1.9-28-10.9-5.4-9 4.9-14.7-2.8-22.1-7.7-7.4-16.1-6.7-18-14.8-1.8-8.2 10-16.8 3.6-25.2-6.4-8.5-6.7-6-8.4-12.6-2.5-8.6 2.7-17.2-3.5-21.4 0 0 7.3 0.6 11.2 9.8z"/><path class="n" d="m685.8 520.8c4 9.2 8.7 10 15.4 12.7 6.7 2.8 8.2 12.8 8.2 21.7 0 8.8 3.7 10.5 9.1 13.8 5.5 3.3 13.6 6.2 12.7 13.4-0.9 7.2-4.3 11.5 1.2 16.3 5.4 4.9 10.9 6.7 11.5 13.4 0.7 6.8-4.1 14.5 1 20.8-4.9-3-5.1-10-5.7-15.6-0.6-5.5-6.8-7.8-15-11.8-8.2-4-8-6.4-7.5-18.5 0.4-12-9.8-9.4-16-15.6-6.1-6.2 0.9-18.8-1.7-26.3-2.6-7.5-14.1-6.6-15.8-19.5-1.8-12.9-8.6-14.6-8.6-14.6 0 0 7.3 0.6 11.2 9.8z"/><path class="l" d="m847.1 550.2c-12.9 3.1-20.4 13.4-22.9 21.6-3.7 12.2-7.2 15.7-15 18.7-11.3 4.4-0.7 14-14.4 24.7q-0.5 0.3-0.9 0.6c-8.8 6.1-18.8 1.2-28.3 9.4-11.7 10.1-24.3 7.6-24.9 7.5q0 0 0 0c0 0 6.3-1.1 11.4-20.6 4.1-16.9 18.8-9.7 24.6-19.4 3.5-5.8 1.7-15.7 9.8-20.9 8.1-5.2 13.7-0.9 23.3-7.9 9.5-6.9 14.6-17.9 36.9-13.8q0.1 0 0.1 0.1 0 0 0 0 0.1 0 0.2 0 0 0 0.1 0 0 0 0 0z"/><path class="n" d="m847.1 550.2c-12.9 3.1-20.4 13.4-22.9 21.6-3.7 12.2-7.2 15.7-15 18.7-11.3 4.4-0.7 14-14.4 24.7q-0.5 0.3-0.9 0.6c-8.8 6.1-18.8 1.2-28.3 9.4-11.7 10.1-24.3 7.6-24.9 7.5q0 0 0 0c14.9-4.3 13.6-14.7 19.9-19 6.3-4.2 26.3-5.5 28.3-17.9 2-12.3 5.5-15.8 13.1-17.9 7.6-2 10.1-5.5 20.7-18.1 9.5-11.4 21.7-10 24-9.7q0.1 0 0.1 0.1 0 0 0 0 0.1 0 0.2 0 0 0 0.1 0 0 0 0 0z"/><path class="n" d="m638.2 550.2c12.8 3.1 20.4 13.4 22.9 21.6 3.7 12.2 7.1 15.7 15 18.7 11.3 4.4 0.7 14 14.4 24.7q0.4 0.3 0.8 0.6c8.8 6.1 18.8 1.2 28.3 9.4 11.8 10.1 24.4 7.6 24.9 7.5q0 0 0 0c0 0-6.3-1.1-11.4-20.6-4.1-16.9-18.7-9.7-24.5-19.4-3.5-5.8-1.8-15.7-9.8-20.9-8.1-5.2-13.8-0.9-23.4-7.9-9.5-6.9-14.5-17.9-36.8-13.8q-0.1 0-0.2 0.1 0 0 0 0-0.1 0-0.1 0-0.1 0-0.1 0 0 0 0 0z"/><path class="l" d="m638.2 550.2c12.8 3.1 20.4 13.4 22.9 21.6 3.7 12.2 7.1 15.7 15 18.7 11.3 4.4 0.7 14 14.4 24.7q0.4 0.3 0.8 0.6c8.8 6.1 18.8 1.2 28.3 9.4 11.8 10.1 24.4 7.6 24.9 7.5q0 0 0 0c-14.8-4.3-13.6-14.7-19.9-19-6.3-4.2-26.2-5.5-28.2-17.9-2-12.3-5.6-15.8-13.1-17.9-7.6-2-10.1-5.5-20.7-18.1-9.6-11.4-21.7-10-24-9.7q-0.1 0-0.2 0.1 0 0 0 0-0.1 0-0.1 0-0.1 0-0.1 0 0 0 0 0z"/><path class="o" d="m780.9 684.8c12.9-39.4 18.7-63 18.7-63 0 0-32 9-57.3 9.1-25.2-0.1-57.2-9.1-57.2-9.1 0 0 5.8 23.6 18.7 63z"/><path class="p" d="m656.8 267.6l-11.5 1.2 7.8 8.4 4.4 4.9-9 9.5-5.1-4.1-8.9-7.2-0.5 11.5-0.2 6.5-13.2 0.4-0.7-6.5-1.2-11.4-8.4 7.8-4.9 4.4-9.5-9 4.1-5.1 7.2-8.9-11.5-0.5-6.5-0.3-0.4-13.1 6.5-0.7 11.4-1.2-7.8-8.5-4.4-4.8 9-9.6 5.1 4.1 8.9 7.3 0.5-11.5 0.3-6.6 13.1-0.4 0.7 6.5 1.2 11.5 8.5-7.8 4.8-4.4 9.6 9-4.1 5.1-7.3 8.9 11.5 0.5 6.6 0.2 0.4 13.2z"/><path class="q" d="m656.8 267.6l-11.5 1.2 7.8 8.4c-2.4 4.1-5.7 7.7-9.7 10.3l-8.9-7.2-0.5 11.5q-3.4 0.9-7 1-3.6 0.1-7.1-0.6l-1.2-11.4-8.4 7.8c-4.1-2.4-7.7-5.7-10.3-9.7l7.2-8.9-11.5-0.5q-0.9-3.4-1-7-0.1-3.7 0.6-7.1l11.4-1.2-7.8-8.5c2.4-4.1 5.7-7.6 9.7-10.3l8.9 7.3 0.5-11.5q3.4-0.9 7-1 3.7-0.1 7.1 0.5l1.2 11.5 8.5-7.8c4.1 2.4 7.6 5.7 10.3 9.7l-7.3 8.9 11.5 0.5q0.9 3.4 1 7 0.1 3.6-0.5 7.1z"/><path class="p" d="m653.5 260.6c0.5 15.2-11.4 27.9-26.6 28.4-15.2 0.5-27.9-11.5-28.4-26.7-0.5-15.1 11.5-27.8 26.7-28.3 15.1-0.5 27.8 11.4 28.3 26.6z"/><path class="q" d="m646.1 260.9c0.3 11-8.4 20.3-19.5 20.6-11 0.4-20.3-8.3-20.6-19.4-0.4-11.1 8.3-20.3 19.4-20.7 11.1-0.3 20.3 8.4 20.7 19.5z"/><path class="p" d="m635.7 261.2c0.2 5.3-4 9.8-9.4 10-5.3 0.1-9.8-4.1-10-9.4-0.1-5.4 4.1-9.8 9.4-10 5.4-0.2 9.8 4 10 9.4z"/><path class="p" d="m709 231.9l-9.9 0.8 6.5 7.4 3.7 4.3-8.1 8-4.2-3.7-7.5-6.4-0.8 9.9-0.4 5.6h-11.3l-0.4-5.6-0.8-9.9-7.5 6.4-4.2 3.7-8.1-8 3.7-4.3 6.5-7.4-9.9-0.8-5.6-0.4v-11.3l5.6-0.4 9.9-0.8-6.5-7.5-3.7-4.3 8.1-8 4.2 3.7 7.5 6.5 0.8-9.9 0.4-5.6h11.3l0.4 5.6 0.8 9.9 7.5-6.5 4.2-3.7 8.1 8-3.7 4.3-6.5 7.5 9.9 0.8 5.6 0.4v11.3z"/><path class="q" d="m709 231.9l-9.9 0.8 6.5 7.4c-2.2 3.5-5.2 6.5-8.6 8.6l-7.5-6.4-0.8 9.9q-2.9 0.6-6.1 0.6-3.1 0-6-0.6l-0.8-9.9-7.5 6.4c-3.4-2.1-6.4-5.1-8.6-8.6l6.5-7.4-9.9-0.8q-0.7-2.9-0.7-6.1 0-3.1 0.7-6l9.9-0.8-6.5-7.5c2.2-3.5 5.2-6.4 8.6-8.6l7.5 6.5 0.8-9.9q2.9-0.7 6-0.7 3.2 0 6.1 0.7l0.8 9.9 7.5-6.5c3.4 2.2 6.4 5.1 8.6 8.6l-6.5 7.5 9.9 0.8q0.6 2.9 0.7 6-0.1 3.2-0.7 6.1z"/><path class="p" d="m706.4 225.8c0 13.1-10.7 23.8-23.8 23.8-13.1 0-23.7-10.7-23.7-23.8 0-13.1 10.6-23.7 23.7-23.7 13.1 0 23.8 10.6 23.8 23.7z"/><path class="q" d="m700 225.8c0 9.6-7.8 17.3-17.4 17.3-9.5 0-17.3-7.7-17.3-17.3 0-9.5 7.8-17.3 17.3-17.3 9.6 0 17.4 7.8 17.4 17.3z"/><path class="p" d="m691 225.8c0 4.7-3.7 8.4-8.4 8.4-4.6 0-8.3-3.7-8.3-8.4 0-4.6 3.7-8.3 8.3-8.3 4.7 0 8.4 3.7 8.4 8.3z"/><path class="p" d="m654.8 201.8l-7.5 0.6 4.9 5.6 2.8 3.3-6.1 6-3.2-2.8-5.7-4.9-0.6 7.5-0.3 4.3h-8.6l-0.3-4.3-0.5-7.5-5.7 4.9-3.2 2.8-6.1-6 2.8-3.3 4.9-5.6-7.5-0.6-4.3-0.3v-8.6l4.3-0.3 7.5-0.6-4.9-5.6-2.8-3.3 6.1-6 3.2 2.8 5.7 4.9 0.5-7.5 0.3-4.3h8.6l0.3 4.3 0.6 7.5 5.7-4.9 3.2-2.8 6.1 6-2.8 3.3-4.9 5.6 7.5 0.6 4.2 0.3v8.6z"/><path class="q" d="m654.8 201.8l-7.5 0.6 4.9 5.6c-1.7 2.7-3.9 4.9-6.5 6.5l-5.7-4.9-0.6 7.5q-2.2 0.5-4.6 0.5-2.3 0-4.6-0.5l-0.5-7.5-5.7 4.9c-2.6-1.6-4.9-3.8-6.5-6.5l4.9-5.6-7.5-0.6q-0.5-2.2-0.5-4.6 0-2.4 0.5-4.6l7.5-0.6-4.9-5.6c1.6-2.7 3.9-4.9 6.5-6.5l5.7 4.9 0.5-7.5q2.3-0.5 4.6-0.5 2.4 0 4.6 0.5l0.6 7.5 5.7-4.9c2.6 1.6 4.8 3.8 6.5 6.5l-4.9 5.6 7.5 0.6q0.5 2.2 0.5 4.6 0 2.4-0.5 4.6z"/><path class="p" d="m652.8 197.2c0 9.9-8 18-18 18-9.9 0-17.9-8.1-17.9-18 0-9.9 8-18 17.9-18 10 0 18 8.1 18 18z"/><path class="q" d="m647.9 197.2c0 7.2-5.8 13.1-13.1 13.1-7.2 0-13.1-5.9-13.1-13.1 0-7.2 5.9-13.1 13.1-13.1 7.3 0 13.1 5.9 13.1 13.1z"/><path class="p" d="m641.2 197.2c0 3.5-2.9 6.3-6.4 6.3-3.5 0-6.3-2.8-6.3-6.3 0-3.5 2.8-6.3 6.3-6.3 3.5 0 6.4 2.8 6.4 6.3z"/><path class="r" d="m453.2 145.1h-10.8v-35.1h10.8z"/><path class="r" d="m486.6 145.1h-10.8v-55h10.8z"/><path class="r" d="m469.7 145.1h-10.7v-32.9h10.7z"/><path class="r" d="m504.1 145.1h-10.7v-44.4h10.7z"/><path class="r" d="m521.7 145.1h-10.8v-44.4h10.8z"/><path class="r" d="m539.8 145.1h-10.8v-55.6h10.8z"/><path class="o" d="m544.2 144.4h-108.1v-58.4c0-0.9-1.3-0.8-1.3 0.1v58.6c0 0.5 0 1 0.6 1h108.9c0.9 0 0.7-1.3-0.1-1.3z"/><path class="h" d="m573 386.7h-255v-154.1h255z"/><path class="q" d="m564.5 239.5v140.2h-238v-140.2z"/><path class="p" d="m564.5 239.5v140.2h-238v-39.5c58.6-11.2 150.6-37.9 227-100.7z"/><path class="c" d="m499.6 379.7h-139.6c1.3-4.9 3.3-9.8 6.4-13.3 8.7-9.5 43.6-26.6 43.6-26.6l35.5 1.8c0 0 40.9 18.1 50.2 26.5 1.8 1.7 4.1 6.7 3.9 11.6z"/><path class="s" d="m445.5 341.6c-6.3 10.8-16.9 11.5-16.9 11.5 0 0-14.3-2.6-20-10.8 2.3-2.7 3.4-7.3 4.1-11.5 0.7-5.3 0.6-10.1 0.6-10.1l27.8-0.8c0 0 0.1 5 0.8 10.2 0.6 4.6 1.7 9.4 3.6 11.5z"/><path class="t" d="m441.9 330.1c-3 2.3-8.2 5.6-14.4 5.7-5.4 0.1-11-2.6-14.8-5 0.7-5.3 0.6-10.1 0.6-10.1l27.8-0.8c0 0 0.1 5 0.8 10.2z"/><path class="s" d="m399.5 283.4c0 0 3.6 28.1 8.5 35.7 4.9 7.5 12.4 12.4 20.6 12.4 8.2 0 16.6-7.7 18.4-13.2 1.8-5.5 6.6-20.6 6.6-31.3 0-10.7-12.1-19.2-13.5-19.5-1.3-0.3-27.4 1.9-27.4 1.9l-11.8 5z"/><path class="h" d="m402.5 296v-9.9c0 0 7.6-1.3 7.6-9.1h33.4c0 0-3.4 9.1 6 11.2 1.8 8.4 2.6 9.4 2.6 9.4l4.7-7.3c0 0 2.8-16.2-5.4-27.1-9.6-12.8-29.3-9.2-39.7-6.8-5.5 1.2-7.7 4.3-8.5 6.9-0.9 2.7-2.5 5-4.6 6.8q-1 0.8-1.9 2c-5.9 6.7-0.4 19.5-0.4 19.5z"/><path class="s" d="m402.9 296.6c0 0-1.9-7-9.1-7.1-7.1-0.2-2.3 23.8 12.9 20.7-1.1-6.6-3.8-13.6-3.8-13.6z"/><path class="s" d="m451.1 296.6c0 0 1.9-7 9.1-7.1 7.1-0.2 2.3 23.8-12.9 20.7 1.1-6.6 3.8-13.6 3.8-13.6z"/><path class="e" d="m411.7 334.6c0 0-3.9 0.8-5.7 3.9-0.8 1.4-1.5 2.8-2.2 4-1 1.8-0.9 4 0.3 5.7 2.7 4.1 8.2 11.7 13.3 14.6 3.1-6.1 6.7-11.7 10.5-9.3-1.1-4.3-9.4-5.8-12.6-9.1-3.1-3.3-3.8-8.3-3.6-9.8z"/><path class="e" d="m442.3 334.6c0 0 3.6 0.8 5.1 3.9 0.7 1.4 1.4 2.8 2 4 0.8 1.8 0.8 4-0.2 5.7-2.5 4.1-7.4 11.7-11.9 14.6-2.8-6.1-6-11.7-9.4-9.3 1-4.3 8.4-5.8 11.2-9.1 2.8-3.3 3.5-8.3 3.2-9.8z"/><path class="j" d="m537.3 308.3l9.7 12.5-6.9 5.4-9.8-12.5q-1.8-2.3-3.2-4.8-1.5-2.6-2.5-5.4l-8.8-11.1 4.2-3.3 8.8 11.2c3.2 2.2 6 4.9 8.5 8z"/><path class="h" d="m520 289.1l3.7 4.6q-1 0.9-2.1 1.8-1 0.8-2.2 1.5l-3.6-4.6z"/><path class="j" d="m523.9 259.7c8.2 10.4 6.3 25.4-4 33.5-10.4 8.1-25.4 6.3-33.5-4.1-8.1-10.4-6.3-25.3 4.1-33.5 10.4-8.1 25.3-6.2 33.4 4.1z"/><path class="a" d="m519.9 262.9c6.4 8.1 5 19.9-3.2 26.3-5.7 4.4-13.1 5.1-19.3 2.3-2.7-1.2-5.1-3.1-7-5.5-6.4-8.2-4.9-20 3.2-26.4 5.2-4 11.9-4.9 17.8-2.9 3.2 1.2 6.2 3.2 8.5 6.2z"/><path class="b" d="m519.9 262.9c6.4 8.1 5 19.9-3.2 26.3-5.7 4.4-13.1 5.1-19.3 2.3q0.7-1 1.3-2c3.8-6.5 5.8-13.8 8.1-21 1.3-4 2.7-8 4.6-11.8 3.2 1.2 6.2 3.2 8.5 6.2z"/><path class="g" d="m507.1 279.8c2 2.7 1.6 6.5-1.1 8.6-2.7 2.1-6.5 1.6-8.6-1-2.1-2.7-1.6-6.5 1.1-8.6 2.6-2.1 6.5-1.6 8.6 1z"/><path class="g" d="m499.7 266.1c1.4 1.8 1.1 4.4-0.7 5.8-1.7 1.3-4.3 1-5.7-0.7-1.4-1.8-1-4.4 0.7-5.8 1.8-1.4 4.4-1 5.7 0.7z"/><path class="h" d="m554.8 331.4l-6.3 4.9c-0.6 0.5-1.5 0.4-1.9-0.2l-19-24.3c-0.5-0.6-0.4-1.5 0.2-2l6.3-4.9c0.6-0.5 1.5-0.3 1.9 0.3l19 24.3c0.5 0.6 0.4 1.4-0.2 1.9z"/><path class="l" d="m502.7 653.9c5.3 6.5 4.4 16.1-2.1 21.4-6.4 5.4-16 4.5-21.4-2-5.4-6.5-4.5-16.1 2-21.4 6.5-5.4 16.1-4.5 21.5 2z"/><path class="u" d="m243.2 269.4c5.4 6.5 4.5 16.1-2 21.4-6.5 5.4-16.1 4.5-21.5-2-5.3-6.5-4.4-16.1 2.1-21.4 6.4-5.4 16-4.5 21.4 2z"/><path class="v" d="m453.7 630.4c2.9 3.5 2.4 8.8-1.1 11.7-3.5 2.9-8.8 2.4-11.7-1.1-2.9-3.5-2.4-8.8 1.1-11.7 3.5-2.9 8.8-2.4 11.7 1.1z"/><path class="o" d="m775.3 374.8c3 3.5 2.5 8.7-1.1 11.7-3.5 2.9-8.8 2.4-11.7-1.1-2.9-3.6-2.4-8.8 1.1-11.7 3.6-3 8.8-2.5 11.7 1.1z"/><path class="e" d="m586 150.4c2.9 3.5 2.4 8.7-1.1 11.7-3.5 2.9-8.8 2.4-11.7-1.1-2.9-3.6-2.4-8.8 1.1-11.7 3.5-3 8.8-2.5 11.7 1.1z"/><path class="k" d="m243.9 680.6l0.6 17.1h43.2l-12.2-28.4z"/><path class="h" d="m228.6 546.5l14.3 134.1h36.5l4.7-135.7z"/><path class="j" d="m304.2 647.6h-15.6l-2.4-92.2h20.5z"/><path class="h" d="m306.7 555.4l-2.5 92.2h-7.6l1.4-92.2z"/><path class="p" d="m366.6 698.5c-8.3-8.7-32.8-10.7-44.5-20.6-11.7-9.8-13.6-54.1-13.6-54.1h-13.6-1.4-9.6c0 0-1.9 44.3-13.6 54.1-11.6 9.9-36.2 11.9-44.5 20.6 0 0 61.2 0.5 68.4 0.1 7.1 0.4 72.4-0.1 72.4-0.1z"/><path class="q" d="m366.6 698.5c0 0-39.5 0.3-60.4 0.2 8.1 0 17.8-0.2 17.8-0.2-3.2-8.7-12.9-10.7-17.6-20.6-4.6-9.8-5.3-54.1-5.3-54.1h7.4c0 0 1.9 44.3 13.6 54.1 11.7 9.9 36.2 11.9 44.5 20.6z"/><path class="u" d="m196.6 528.3c-1.5 7 0 17.5 0 23.1 0 5.6 4.5 8.4 16.1 8.4 11.6 0 177.9 0 177.9 0v-48.3c0 0-193.2 12.8-194 16.8z"/><path class="s" d="m467.2 324.8c5.9-2 26.9-5.6 29.4-4.7 2.6 0.8-3 8.7-16.1 9.7 11.2 0.5 15.8 1.4 15.8 1.4 0 0 20.8-14.7 25.6-13.3 4.8 1.3-2.4 5.1-4.7 7.3-2.3 2.2-13.6 19.7-21.5 21-3.8 0.7-9.1 0.9-13.5 1-5.6 0.2-10.7 2.9-13.9 7.5l-12.6 18.2-21-16.8c0 0 26.6-29.2 32.5-31.3z"/><path class="k" d="m354.5 682l-3.1 17h97.6c0 0-2.1-10.2-15.9-14.3-13.8-4-21.6-12-21.6-12l-55.6 7.6"/><path class="j" d="m313.5 472.8c5.2 0 116.1-3.2 132.4 15.6 16.2 18.8-34.4 184.3-34.4 184.3-8.4 6.3-18.5 9.6-29 9.5l-28-0.2 23.2-153.4c0 0-136.2 4.6-149.9-1.9-13.6-6.5 85.7-53.9 85.7-53.9z"/><path class="g" d="m465.5 367.5c0 0.1-0.9 2.6-5.4 9.5-34-0.4-27.8-11.9-30.9-17.6 3.1-2.5 7.5-7.8 10.6-10.4 18.1 2.3 25.5 18.5 25.7 18.5z"/><path class="h" d="m275.1 288.6c0 0-1.1-6-9-21.6-7.9-15.6-7.9-32.6 6.8-41.8 14.6-9.3 31.8-12 36.2-11.4 6.1 0.8 7.9 7.7 7.9 7.7 0 0 13.8-2.8 18.3 11.2 2.2 7.1-1.3 16.4-1.3 16.4 0 0-13.4 27.5-13.6 28.3-0.1 0.8-17.1 16.2-19.6 17.5-2.5 1.4-17.9 5.2-19.1 5-1.1-0.2-6.6-11.3-6.6-11.3z"/><path class="s" d="m332.2 292c-1.4 0.9-4.4 1.5-8.8 2.1q-0.4 0.1-0.8 0.1c-3 0.7-5.6 2.4-7.3 4.9-0.7 1-1.3 2.2-1.6 3.5l-1.8 6.4c-22.3 8.9-41-2.3-41-2.3 0 0 3.6-11.8 4.2-18.1 1-0.2 5.2-2.2 5.4-2.3-0.1 0.1-0.9 1.4 0 2.1 1 0.8 9.6-3 9.6-3 0 0 7.4 3.7 9.9 3.1 0.6-0.2 0.5-3 0.5-3 0 0 2.5 0.5 5.7 1.7 1.6-3.6 4-12.7-3.9-23.8-2.5-3.5 3.7-6.4 6-7.7 1.7-0.9 3.8 0.3 3.8 2.3 0 1.8 0.1 4.4 0.4 7.9 1.6-0.6 2.6-2.2 3.2-4.2 1.7-5.7 4.4-10.9 8.1-15.4 2.2-2.7 5.5-4.2 8.9-4.2 5.4 20.8 2 48.2-0.5 49.9z"/><path class="t" d="m301.7 262.7c0.2 3.7 4.1 5.8 7.4 6.8 2 2 4.2 1.8 3.3-0.3-0.8-2-0.4-12.7-0.1-14.4 0.5-2.6-2.7-1.9-3.8 0.4-2.9 0.9-7.1 2.2-6.8 7.5z"/><path class="j" d="m349.6 358.6c-0.2 2.2-0.5 4.9-0.9 7.8-1.5 14.5-3.1 36.5-4.5 54.7-1 13.2-1.9 24.4-2.5 29.2-1.7 13 0.5 69.8-33.5 80.3-78.3 0-119.3 0-119.3 0 0 0 5.5-172.6 14.3-193.4 8.8-20.9 16.2-25.6 27.5-26.7 11.2-1.1 28.8-0.5 28.8-0.5 0 0 3.6-9.4 22-10.2 18.4-0.8 31.3 11.3 31.3 11.3 0 0 33.5-1.4 39 1.9 5.5 3.3 0.6 24.4-2.2 45.6z"/><path class="h" d="m310.5 310.5q-24.9-0.6-49.7-1.3c-2.3 0-2.2 3.4 0 3.5q24.9 0.6 49.8 1.2c2.2 0.1 2.1-3.4-0.1-3.4z"/><path class="h" d="m337.8 474.7c-1.7 10.8-3.3 21.8-7.6 31.9-4.1 9.7-10.8 19.3-21.7 21.6-2.2 0.5-1.2 3.8 0.9 3.3 11.2-2.3 18.6-11.8 23.1-21.7 4.9-10.8 6.8-22.6 8.6-34.2 0.4-2.2-3-3.1-3.3-0.9z"/><path class="h" d="m348.7 366.4c-1.4 14.5-3.1 36.5-4.5 54.7-20.2-35.1-16.8-70-16.8-70 0 0 10.6 7.5 21.3 15.3z"/><path class="j" d="m460.1 377c-13.2 20.6-38.9 57.5-55 59.9-39.9 6.1-77.1-64-78.1-66.7-11.3-32 16.4-64.3 26.6-57.2 7.4 5.1 45.5 64.5 46.1 65.4q0 0 0 0c0 0 4.2-3.1 10.6-8.1 5.5-4.2 12.7-11.7 21.9-17.7 9.1 4.8 19.8 12.8 27.9 24.4z"/><path class="h" d="m418.4 402.2l-18.7-23.8c0 0 4.2-3.1 10.6-8.1 5.8 14.6 8.1 31.9 8.1 31.9z"/><path class="h" d="m322.6 294.2c-3 0.7-5.6 2.4-7.3 4.9-2.1-3.5-5-9.3-3.8-14.1 0 0 0.6 5.5 11.1 9.2z"/><path class="h" d="m497.7 331q-12.4-1.4-24.8-2c-1-0.1-1 1.4 0 1.4q12.4 0.7 24.8 2.1c1 0.1 0.9-1.4 0-1.5z"/><path class="h" d="m516.4 325.1q-10.2 6.8-20.3 13.7c-0.8 0.6 0 1.8 0.8 1.3q10.1-6.9 20.3-13.8c0.8-0.5 0-1.8-0.8-1.2z"/><path class="u" d="m192.4 335c-9 0-21.7 2.8-23.5 23.4-1.7 20.7 0 137.7 0 149.6 0 11.9 3.9 29.4 17.9 29.4 14 0 100.8 0 113.4 0 12.6 0 22.4-11.2 22.4-24.5 0-13.3 0-144.3 0-152.7 0-8.4-1.4-25.2-20.3-25.2-18.9 0-109.9 0-109.9 0z"/><path class="w" d="m322.6 360.2v152.7c0 13.3-7.1 24.5-16.4 24.5h-19.9c9.2 0 16.4-11.2 16.4-24.5v-152.7c0-8.4-1-25.2-14.9-25.2h20c13.8 0 14.8 16.8 14.8 25.2z"/><path class="j" d="m303.3 353.7c0-2.3-3.5-2.2-3.5 0q0 2.9 0 5.8 0 7.8 0 15.6 0 11.3 0 22.6 0 13.3 0 26.6 0 13.9 0 27.8 0 13.1 0 26.2 0 10.9 0 21.7 0 7.2 0 14.4c0 3 0.1 6.1-0.6 9-0.7 3.3-2.8 5.5-5.5 7.2-2.2 1.4-4.6 2.7-7 3.4-1.4 0.5-4.2 1-4.2 2.9 0 5 14.5-4.3 15.8-5.3 5.5-4.4 5-12.2 5-18.6q0-8 0-16 0-11.3 0-22.7 0-13.3 0-26.6 0-13.9 0-27.7 0-13.1 0-26.1 0-10.8 0-21.6 0-7.1 0-14.3 0-2.2 0-4.3z"/><path class="j" d="m310.7 535.6h-117c-2.2 0-2.2 3.4 0.1 3.4h116.9c2.2 0 2.2-3.4 0-3.4z"/><path fill-rule="evenodd" class="h" d="m89 620.7c-0.6-6.4 0.1-13.6 4.8-18.3 5.2-5.1 12.8-5.2 19.2-2.7 7.5 2.8 14 8.1 19.4 14.5 4.8-9.5 12.6-17.3 23-21.2 13.6-5.3 28.7-2.1 38.6 8.9 11.3 12.7 13.3 30.1 13.3 46.5 0 16.7-0.7 34-6.2 50h-3.6q1.5-4.2 2.6-8.5c3.8-15.5 4.2-32.1 3.7-47.9-0.5-14.5-3.7-30-14.8-40.2-10-9.2-24.3-10-36.2-3.9-8.3 4.2-14.3 11.2-18 19.3 3.6 4.9 6.6 10.2 8.8 15.4 2.9 6.8 5.2 14.6 5.3 22 0.1 6.7-4.4 12.6-11.6 10.7-7.6-1.9-9.9-9.9-10.6-16.7-0.8-7.6-0.4-15.4 1.4-22.9q1-4.1 2.6-7.9c-3.4-4.2-7.4-8.1-11.8-11.1-5.3-3.7-13.2-7.2-19.6-4.1-12.2 6-6 25.1-2.7 34.6 8.5 24.8 25.4 46.6 47.2 61.2h-6q-1.3-0.9-2.6-1.9c-12.2-9.3-22.6-21-30.6-34.2-3.9-6.4-7.2-13.2-9.9-20.2-2.6-6.9-4.9-14.1-5.7-21.4zm41.7 9.7c-1.2 6.7-1.4 14-0.2 20.8 0.6 3.5 1.8 7.4 4.9 9.5 2.6 1.9 6.7 2.4 8.7-0.5 2-2.7 1.5-6.6 1-9.7-0.5-3.5-1.3-7-2.4-10.4-2-6.5-5.1-12.7-9-18.3q-0.3-0.4-0.5-0.7c-1.1 3-2 6.1-2.5 9.3z"/><path class="h" d="m851 696.3h-726.4c-2.2 0-2.2 3.5 0.1 3.5h726.4c2.2 0 2.1-3.5-0.1-3.5z"/></svg>