<svg width="474" height="380" viewBox="0 0 474 380" fill="none" xmlns="http://www.w3.org/2000/svg">
<path d="M58.5129 262.36C89.3083 262.36 114.273 258.252 114.273 253.185C114.273 248.118 89.3083 244.01 58.5129 244.01C27.7175 244.01 2.75293 248.118 2.75293 253.185C2.75293 258.252 27.7175 262.36 58.5129 262.36Z" fill="#DEDEDE"/>
<path d="M417.977 258.395C448.772 258.395 473.737 254.287 473.737 249.22C473.737 244.153 448.772 240.045 417.977 240.045C387.181 240.045 362.217 244.153 362.217 249.22C362.217 254.287 387.181 258.395 417.977 258.395Z" fill="#DEDEDE"/>
<path d="M393.02 379.622C418.768 379.622 439.641 375.514 439.641 370.447C439.641 365.38 418.768 361.272 393.02 361.272C367.272 361.272 346.399 365.38 346.399 370.447C346.399 375.514 367.272 379.622 393.02 379.622Z" fill="#DEDEDE"/>
<path d="M382.367 347.983C382.367 351.981 365.899 355.221 345.585 355.221C325.271 355.221 308.803 351.98 308.803 347.983C308.803 343.985 325.271 340.745 345.585 340.745C365.899 340.744 382.367 343.985 382.367 347.983Z" fill="#DEDEDE"/>
<path d="M78.0087 340.957C103.757 340.957 124.63 336.849 124.63 331.782C124.63 326.715 103.757 322.607 78.0087 322.607C52.2606 322.607 31.3877 326.715 31.3877 331.782C31.3877 336.849 52.2606 340.957 78.0087 340.957Z" fill="#DEDEDE"/>
<path d="M274.099 371.171C299.847 371.171 320.72 367.063 320.72 361.996C320.72 356.929 299.847 352.821 274.099 352.821C248.35 352.821 227.478 356.929 227.478 361.996C227.478 367.063 248.35 371.171 274.099 371.171Z" fill="#DEDEDE"/>
<path d="M247.029 344.345C323.744 344.345 385.933 336.652 385.933 327.161C385.933 317.671 323.744 309.977 247.029 309.977C170.314 309.977 108.125 317.671 108.125 327.161C108.125 336.652 170.314 344.345 247.029 344.345Z" fill="#DEDEDE"/>
<path d="M95.8928 201.738C95.8738 195.993 94.7108 190.519 92.6198 185.529L102.693 181.306C99.9828 174.841 96.0768 169.049 91.0838 164.09L83.3868 171.841C79.4768 167.958 74.8108 164.839 69.6308 162.711L73.7838 152.603C67.3588 149.962 60.5538 148.624 53.5578 148.624H53.4278L53.4928 159.546C47.7348 159.555 42.2468 160.715 37.2448 162.806L33.0308 152.727C26.5618 155.432 20.7668 159.332 15.8038 164.319L23.5458 172.023C19.6588 175.929 16.5358 180.592 14.4028 185.769L4.29976 181.606C1.64676 188.047 0.301758 194.87 0.301758 201.882L0.304758 202.142L10.3258 201.969H11.2238C11.2358 207.704 12.3898 213.17 14.4678 218.156L4.38276 222.358C7.07976 228.83 10.9738 234.63 15.9588 239.6L23.6698 231.865C27.5728 235.756 32.2328 238.885 37.4068 241.023L33.2338 251.122C39.6878 253.789 46.5258 255.141 53.5598 255.141H54.0788L54.5958 255.092L53.6038 244.228V244.221C59.3398 244.215 64.8058 243.065 69.7928 240.992L73.9868 251.081C80.4618 248.39 86.2648 244.501 91.2368 239.525L83.5108 231.807C87.4068 227.908 90.5398 223.25 92.6828 218.077L102.778 222.258C105.458 215.787 106.817 208.933 106.817 201.769L95.8928 201.738ZM53.5588 222.134C42.3738 222.134 33.3068 213.067 33.3068 201.882C33.3068 190.697 42.3738 181.63 53.5588 181.63C64.7438 181.63 73.8108 190.697 73.8108 201.882C73.8108 213.067 64.7438 222.134 53.5588 222.134Z" fill="#133447"/>
<path d="M53.5587 159.544C30.1767 159.544 11.2217 178.499 11.2217 201.882C11.2217 225.264 30.1767 244.22 53.5587 244.22C76.9407 244.22 95.8967 225.265 95.8967 201.882C95.8957 178.5 76.9407 159.544 53.5587 159.544ZM53.5587 222.134C42.3737 222.134 33.3067 213.067 33.3067 201.882C33.3067 190.697 42.3737 181.63 53.5587 181.63C64.7437 181.63 73.8107 190.697 73.8107 201.882C73.8107 213.067 64.7437 222.134 53.5587 222.134Z" fill="#1E5370"/>
<path d="M62.3363 210.661C67.1854 205.812 67.1854 197.95 62.3363 193.101C57.4872 188.251 49.6252 188.251 44.7762 193.101C39.9271 197.95 39.9271 205.812 44.7761 210.661C49.6252 215.51 57.4872 215.51 62.3363 210.661Z" fill="#133447"/>
<path d="M459.841 204.839C460.695 199.158 460.378 193.571 459.07 188.321L469.668 185.679C467.972 178.877 464.992 172.558 460.811 166.898L452.025 173.389C448.75 168.957 444.613 165.164 439.817 162.274L445.459 152.915C439.511 149.328 432.988 146.971 426.073 145.908L425.945 145.888L424.349 156.693C418.656 155.826 413.056 156.139 407.794 157.445L405.161 146.843C398.356 148.533 392.035 151.507 386.372 155.682L392.853 164.473C388.418 167.743 384.621 171.877 381.727 176.669L372.373 171.019C368.771 176.982 366.405 183.521 365.339 190.451L365.303 190.709L375.233 192.061L376.121 192.198C375.261 197.869 375.57 203.446 376.866 208.69L366.26 211.31C367.942 218.117 370.909 224.441 375.08 230.111L383.877 223.638C387.143 228.077 391.274 231.878 396.063 234.777L390.404 244.124C396.378 247.741 402.931 250.117 409.882 251.186L410.395 251.265L410.913 251.295L411.584 240.406L411.585 240.399C417.255 241.265 422.833 240.959 428.077 239.669L430.689 250.278C437.497 248.602 443.824 245.641 449.495 241.478L443.032 232.675C447.475 229.413 451.28 225.286 454.185 220.499L463.527 226.166C467.16 220.178 469.545 213.61 470.633 206.529L459.841 204.839ZM413.513 227.576C397.481 225.11 386.483 210.115 388.948 194.082C391.414 178.05 406.409 167.052 422.442 169.517C438.475 171.982 449.472 186.978 447.007 203.011C444.542 219.044 429.545 230.041 413.513 227.576Z" fill="#003C5E"/>
<path d="M424.413 156.701C401.302 153.147 379.686 169 376.132 192.111C372.578 215.222 388.431 236.838 411.542 240.392C434.653 243.946 456.269 228.093 459.823 204.982C463.377 181.871 447.524 160.255 424.413 156.701ZM413.513 227.576C397.481 225.11 386.483 210.115 388.948 194.082C391.414 178.05 406.409 167.052 422.442 169.517C438.474 171.983 449.472 186.978 447.007 203.011C444.542 219.044 429.545 230.041 413.513 227.576Z" fill="#133447"/>
<path d="M320.883 301.011H149.117L159.794 255.74H310.206L320.883 301.011Z" fill="#003757"/>
<path d="M329.333 327.857H140.667C131.847 327.857 124.63 320.641 124.63 311.82C124.63 303 131.847 295.783 140.667 295.783H329.333C338.153 295.783 345.37 303 345.37 311.82C345.37 320.64 338.153 327.857 329.333 327.857Z" fill="#005C91"/>
<path d="M329.333 314.507H140.667C134.228 314.507 128.659 310.653 126.113 305.145C125.171 307.182 124.631 309.439 124.631 311.82C124.631 320.64 131.847 327.857 140.668 327.857H329.334C338.154 327.857 345.371 320.641 345.371 311.82C345.371 309.438 344.831 307.182 343.889 305.145C341.342 310.653 335.772 314.507 329.333 314.507Z" fill="#003757"/>
<path d="M259.818 304.021H162.026C160.889 304.021 159.959 303.091 159.959 301.954C159.959 300.817 160.889 299.887 162.026 299.887H259.818C260.955 299.887 261.885 300.817 261.885 301.954C261.885 303.091 260.955 304.021 259.818 304.021Z" fill="#5498BF"/>
<path d="M307.974 304.021H272.694C271.557 304.021 270.627 303.091 270.627 301.954C270.627 300.817 271.557 299.887 272.694 299.887H307.974C309.111 299.887 310.041 300.817 310.041 301.954C310.041 303.091 309.111 304.021 307.974 304.021Z" fill="#5498BF"/>
<path d="M409.739 258.185H60.2607C55.7347 258.185 52.0317 254.482 52.0317 249.956V41.8191C52.0317 37.2931 55.7347 33.5901 60.2607 33.5901H409.739C414.265 33.5901 417.968 37.2931 417.968 41.8191V249.957C417.968 254.482 414.265 258.185 409.739 258.185Z" fill="#005C91"/>
<path d="M404.224 228.175H65.7756C61.9436 228.175 58.8086 225.04 58.8086 221.208V55.0781C58.8086 51.2461 61.9436 48.1111 65.7756 48.1111H404.224C408.056 48.1111 411.191 51.2461 411.191 55.0781V221.207C411.191 225.039 408.056 228.175 404.224 228.175Z" fill="#003C5E"/>
<path d="M401.269 225.12H68.7309C64.9979 225.12 61.9438 222.066 61.9438 218.333V57.953C61.9438 54.22 64.9979 51.166 68.7309 51.166H401.269C405.002 51.166 408.056 54.22 408.056 57.953V218.333C408.056 222.066 405.002 225.12 401.269 225.12Z" fill="#BAF1FF"/>
<path d="M84.0389 225.094H385.962L394.851 51.2641C394.446 51.1851 394.03 51.1411 393.606 51.1411H76.3939C75.9699 51.1411 75.5549 51.1851 75.1489 51.2641L84.0389 225.094Z" fill="#99D0DE"/>
<path d="M238.603 250.688C242.791 248.685 244.562 243.667 242.559 239.48C240.557 235.292 235.539 233.521 231.351 235.523C227.164 237.526 225.392 242.544 227.395 246.732C229.397 250.919 234.416 252.69 238.603 250.688Z" fill="#E8FBFF"/>
<path d="M240.715 243.11C240.715 246.267 238.156 248.825 235 248.825C231.843 248.825 229.285 246.266 229.285 243.11C229.285 239.953 231.844 237.395 235 237.395C238.157 237.394 240.715 239.953 240.715 243.11Z" fill="#003757"/>
<path d="M385.933 0.61499H84.0669V225.12H385.933V0.61499Z" fill="white"/>
<path d="M256.632 157.989H244.577C241.715 157.989 239.373 155.647 239.373 152.785V140.73C239.373 137.868 241.715 135.526 244.577 135.526H256.632C259.494 135.526 261.836 137.868 261.836 140.73V152.785C261.836 155.647 259.495 157.989 256.632 157.989Z" fill="#005C91"/>
<path d="M293.681 157.989H281.626C278.764 157.989 276.422 155.647 276.422 152.785V140.73C276.422 137.868 278.764 135.526 281.626 135.526H293.681C296.543 135.526 298.885 137.868 298.885 140.73V152.785C298.885 155.647 296.543 157.989 293.681 157.989Z" fill="#BAF1FF"/>
<path d="M367.779 157.989H355.724C352.862 157.989 350.52 155.647 350.52 152.785V140.73C350.52 137.868 352.862 135.526 355.724 135.526H367.779C370.641 135.526 372.983 137.868 372.983 140.73V152.785C372.983 155.647 370.641 157.989 367.779 157.989Z" fill="#8BC9D9"/>
<path d="M330.73 157.989H318.675C315.813 157.989 313.471 155.647 313.471 152.785V140.73C313.471 137.868 315.813 135.526 318.675 135.526H330.73C333.592 135.526 335.934 137.868 335.934 140.73V152.785C335.934 155.647 333.592 157.989 330.73 157.989Z" fill="#FF9CBD"/>
<path d="M179.617 196.448H163.884L157.854 225.094H186.501L179.617 196.448Z" fill="#BAF1FF"/>
<path d="M130.973 138.143H97.3418V225.094H130.973V138.143Z" fill="#BAF1FF"/>
<path d="M160.622 225.094H126.991L138.483 178.323H154.038L160.622 225.094Z" fill="#BAF1FF"/>
<path d="M230.784 62.7029H96.9868V124.682H230.784V62.7029Z" fill="#FF9CBD"/>
<path d="M230.784 62.7029H96.9868V124.682H230.784V62.7029Z" fill="#FF9CBD"/>
<path d="M373.182 62.7029H239.385V124.682H373.182V62.7029Z" fill="#BAF1FF"/>
<path d="M381.859 5.00806H88.1406V19.1741H381.859V5.00806Z" fill="#BAF1FF"/>
<path d="M317.882 9.125H152.118V15.056H317.882V9.125Z" fill="#8BC9D9"/>
<path d="M369.628 15.8312C369.373 15.5762 369.373 15.1602 369.628 14.9052L376.184 8.34921C376.439 8.09421 376.855 8.09421 377.11 8.34921C377.365 8.60421 377.365 9.02021 377.11 9.27521L370.554 15.8312C370.299 16.0862 369.882 16.0862 369.628 15.8312Z" fill="white"/>
<path d="M377.109 15.8312C377.364 15.5762 377.364 15.1602 377.109 14.9052L370.553 8.34921C370.298 8.09421 369.882 8.09421 369.627 8.34921C369.372 8.60421 369.372 9.02021 369.627 9.27521L376.183 15.8312C376.438 16.0862 376.855 16.0862 377.109 15.8312Z" fill="white"/>
<path d="M360.346 8.6731C362.23 8.6731 363.763 10.2061 363.763 12.0901C363.763 13.9741 362.23 15.5071 360.346 15.5071C358.462 15.5071 356.929 13.9741 356.929 12.0901C356.928 10.2061 358.461 8.6731 360.346 8.6731ZM360.346 7.6731C357.906 7.6731 355.929 9.6511 355.929 12.0901C355.929 14.5291 357.907 16.5071 360.346 16.5071C362.786 16.5071 364.763 14.5291 364.763 12.0901C364.763 9.6511 362.785 7.6731 360.346 7.6731Z" fill="white"/>
<path d="M351.306 15.8081H343.34C343.064 15.8081 342.84 15.5841 342.84 15.3081C342.84 15.0321 343.064 14.8081 343.34 14.8081H351.306C351.582 14.8081 351.806 15.0321 351.806 15.3081C351.806 15.5841 351.582 15.8081 351.306 15.8081Z" fill="white"/>
<path d="M101.325 15.5229H93.3599C93.0839 15.5229 92.8599 15.2989 92.8599 15.0229C92.8599 14.7469 93.0839 14.5229 93.3599 14.5229H101.325C101.601 14.5229 101.825 14.7469 101.825 15.0229C101.825 15.2989 101.602 15.5229 101.325 15.5229Z" fill="white"/>
<path d="M101.325 12.5901H93.3599C93.0839 12.5901 92.8599 12.3661 92.8599 12.0901C92.8599 11.8141 93.0839 11.5901 93.3599 11.5901H101.325C101.601 11.5901 101.825 11.8141 101.825 12.0901C101.825 12.3671 101.602 12.5901 101.325 12.5901Z" fill="white"/>
<path d="M101.325 9.65796H93.3599C93.0839 9.65796 92.8599 9.43396 92.8599 9.15796C92.8599 8.88196 93.0839 8.65796 93.3599 8.65796H101.325C101.601 8.65796 101.825 8.88196 101.825 9.15796C101.825 9.43496 101.602 9.65796 101.325 9.65796Z" fill="white"/>
<path opacity="0.15" d="M161.731 182.862H158.849V182.693C158.849 181.715 158.048 180.914 157.07 180.914H143.295C142.316 180.914 141.516 181.715 141.516 182.693V184.718C141.516 185.696 142.317 186.497 143.295 186.497H157.07C158.048 186.497 158.849 185.696 158.849 184.718V184.549H160.887V189.549H150.182C149.718 189.549 149.339 189.928 149.339 190.392V196.789C148.301 197.144 147.544 198.121 147.544 199.276V203.321C146.963 203.724 146.233 204.173 145.3 204.68C143.688 205.555 143.015 206.537 142.757 207.356C137.871 208.527 131.301 210.134 125.259 211.218C118.144 212.523 111.823 213.146 110.201 213.327C109.929 213.36 109.668 213.396 109.417 213.437C109.091 213.064 108.73 212.726 108.297 212.469C108.297 212.469 102.862 213.501 98.7447 214.15C98.4037 214.204 97.0467 214.536 95.0887 214.843C95.0107 214.167 94.9707 213.591 94.9567 213.107C96.4977 212.597 97.8057 211.602 98.6827 210.042C102.572 203.124 101.132 196.774 98.8607 192.467L98.8627 192.464C98.8627 192.464 96.1637 181.069 83.1807 184.548C74.4747 186.881 72.2237 202.717 71.6837 212.904C71.3937 212.742 71.0957 212.572 70.7867 212.387C68.6757 211.094 66.1607 209.225 64.0517 206.696C61.8977 204.206 60.1887 201.062 59.0857 197.852C58.2797 195.602 57.7957 193.342 57.4367 191.322C58.1297 190.753 58.8477 189.65 58.8047 187.504C58.7217 183.412 59.3717 182.319 59.8997 181.597C60.4277 180.875 58.6997 179.799 57.5487 182.566C56.3967 185.333 56.3967 185.333 56.3967 185.333C56.3967 185.333 54.8447 179.233 52.7877 177.468C52.5027 177.223 52.2547 177.144 52.0337 177.178V190.67C52.3357 190.955 52.6567 191.208 52.9937 191.409C52.7677 193.699 52.7507 196.39 53.2207 199.266C53.5127 201.294 54.0967 203.382 54.8567 205.435C55.6267 207.489 56.6857 209.461 57.8797 211.27C60.2697 214.916 63.3687 217.706 65.9897 219.588C68.6357 221.458 70.8027 222.501 71.7027 222.896C72.0867 223.066 72.4547 223.206 72.8137 223.332C72.6817 223.954 72.5657 224.592 72.4917 225.263C72.4917 225.263 74.7067 226.179 79.0707 226.646C79.0707 226.646 88.5527 233.26 82.2947 247.647C80.7367 251.229 79.4237 254.774 78.2877 258.184H108.039C107.083 254.517 105.892 250.903 104.404 247.647C99.2487 236.369 106.041 234.145 106.205 226.377C106.205 226.377 109.284 226.194 111.185 224.506C111.185 224.506 111.335 223.574 111.405 222.217C113.333 221.988 119.932 220.883 127.086 218.679C133.238 216.812 139.735 214.111 144.264 211.584C145.003 212.034 146.065 212.265 147.547 212.205V214.89C147.547 216.341 148.734 217.528 150.185 217.528C151.636 217.528 152.823 216.341 152.823 214.89V210.996C156.43 209.262 159.131 205.702 157.001 204.939C155.971 204.57 154.369 204.625 152.823 204.818V199.274C152.823 198.119 152.066 197.142 151.028 196.787V191.233H161.733C162.197 191.233 162.576 190.854 162.576 190.39V183.704C162.574 183.242 162.194 182.862 161.731 182.862Z" fill="black"/>
<path opacity="0.15" d="M382.473 60.509C380.038 61.682 377.09 67.198 377.09 67.198C377.09 67.198 377.09 67.198 376.601 64.207C376.111 61.214 374.159 61.805 374.511 62.646C374.863 63.487 375.248 64.72 374.215 68.673C373.673 70.745 374.124 72.004 374.673 72.737C373.851 74.603 372.849 76.669 371.533 78.639C369.702 81.464 367.29 84.065 364.591 85.918C362.117 87.684 359.436 88.803 357.158 89.519C356.575 87.915 356.147 86.942 356.147 86.942C350.408 91.853 343.951 92.773 338.927 92.506C339.32 89.948 339.37 87.968 339.267 86.488C339.827 86.257 340.384 86.005 340.934 85.712C341.539 85.39 342.095 85.034 342.629 84.664C345.864 83.739 348.35 80.697 350.029 77.436C352.731 72.19 352.606 64.668 346.865 60.448C341.235 56.309 336.464 56.536 329.36 56.887C329.36 56.887 327.607 60.155 329.816 64.281C326.017 67.512 322.015 73.313 323.834 81.803C324.571 85.244 327.481 87.253 331.165 87.717C331.161 88.534 331.089 89.633 330.869 91.056C330.65 90.993 330.488 90.947 330.405 90.933C326.196 90.198 317.037 84.884 317.037 84.884C315.924 85.518 314.877 86.581 313.931 87.819C313.72 87.62 313.501 87.416 313.268 87.204C311.71 85.574 310.029 83.225 308.799 80.321C308.531 79.58 308.165 78.856 307.938 78.068C307.722 77.27 307.505 76.466 307.289 75.664C307.156 75.265 307.084 74.851 307.032 74.432L306.838 73.183C306.77 72.766 306.701 72.351 306.634 71.939C306.551 71.527 306.496 71.114 306.491 70.698C306.438 69.866 306.386 69.049 306.336 68.253C306.272 67.454 306.198 66.671 306.243 65.918C306.252 65.336 306.253 64.775 306.251 64.227C307.04 63.79 307.934 62.823 308.217 60.682C308.758 56.584 309.585 55.617 310.232 54.998C310.879 54.378 309.286 52.973 307.692 55.515C307.156 56.369 306.801 56.937 306.564 57.313C306.098 58.056 306.098 58.056 306.098 58.056C306.098 58.056 305.448 51.667 303.621 49.507C301.792 47.345 298.676 53.183 299.425 57.906C299.895 60.868 300.666 62.642 301.623 63.624C301.478 64.118 301.332 64.625 301.185 65.156C300.933 65.942 300.805 66.798 300.677 67.686C300.55 68.581 300.42 69.499 300.287 70.434C300.207 70.902 300.179 71.385 300.183 71.878C300.175 72.371 300.168 72.866 300.16 73.364C300.156 73.866 300.153 74.37 300.149 74.875C300.136 75.381 300.147 75.891 300.227 76.407C300.354 77.442 300.482 78.479 300.609 79.508C300.766 80.541 301.096 81.56 301.343 82.573C302.487 86.61 304.568 90.255 306.677 92.802C307.757 93.994 308.703 95.045 309.585 95.775C309.304 96.46 309.145 96.895 309.145 96.895C310.775 98.473 312.739 99.67 314.669 100.568C315.441 100.927 316.207 101.239 316.944 101.508C317.681 101.778 318.389 102.005 319.044 102.195C320.027 102.481 320.892 102.684 321.559 102.823C322.004 102.916 322.361 102.98 322.607 103.021C322.853 103.062 322.987 103.08 322.987 103.08C323.146 107.368 322.987 111.537 322.642 115.432C322.543 116.544 322.43 117.634 322.304 118.699C322.241 119.231 322.175 119.757 322.107 120.275C321.696 123.386 321.189 126.249 320.671 128.768C320.585 129.188 320.498 129.598 320.411 129.998C320.238 130.798 320.064 131.559 319.894 132.275C319.842 132.493 319.792 132.698 319.741 132.907L318.759 132.893L318.627 124.694C318.612 123.767 317.834 123.003 316.889 122.988C315.944 122.973 315.19 123.713 315.205 124.641L315.572 146.947L316.988 233.006L317.188 245.169L317.402 258.183H366.594L366.584 257.304L366.184 221.026L366.05 208.869L365.916 196.679L365.781 184.457L365.646 172.201L365.511 159.913L365.239 135.236L365.131 125.416C365.121 124.494 364.355 123.734 363.42 123.72C362.485 123.705 361.735 124.441 361.746 125.364L361.839 133.521L356.522 133.444C356.273 132.895 356.032 132.343 355.804 131.786C355.185 130.279 354.639 128.748 354.158 127.219C353.677 125.689 353.26 124.161 352.899 122.661C350.49 112.642 350.576 103.848 350.576 103.848C350.861 103.86 351.148 103.861 351.435 103.852C352.296 103.824 353.16 103.705 353.992 103.533C356.485 103.016 358.685 102.017 359.629 101.55C359.944 101.394 360.119 101.298 360.119 101.298C359.978 100.162 359.784 99.041 359.562 97.95C359.608 97.933 359.651 97.919 359.698 97.902C362.714 96.758 366.41 94.86 369.606 91.952C371.2 90.511 372.699 88.878 373.932 87.09C375.156 85.3 376.215 83.431 376.973 81.543C378.104 78.879 378.713 76.268 379.024 73.989C380.767 73.495 382.483 72.046 382.944 69.578C383.724 65.385 384.907 59.337 382.473 60.509ZM346.542 178.541L334.409 178.568C334.313 175.636 334.195 172.531 334.091 169.394L345.252 169.366C345.694 172.51 346.12 175.623 346.542 178.541ZM343.947 160.526C344.231 162.315 344.505 164.15 344.772 165.995L333.986 166.023C333.929 164.015 333.883 162.018 333.858 160.072C333.84 158.996 333.831 157.941 333.826 156.904L343.379 156.877C343.572 158.065 343.763 159.283 343.947 160.526ZM334.02 146.63C334.057 145.863 334.1 145.156 334.145 144.489L334.891 144.487C335.583 144.605 336.297 144.689 337.059 144.686C338.14 144.683 339.164 144.609 340.129 144.47L341.12 144.467C341.312 145.402 341.521 146.449 341.742 147.614C342.072 149.375 342.44 151.372 342.815 153.528L333.834 153.554C333.858 151.005 333.92 148.652 334.02 146.63ZM317.827 132.411L317.823 132.206H317.881C317.862 132.275 317.845 132.343 317.827 132.411ZM318.018 141.212L317.906 136.048C319.458 136.584 321.002 137.043 322.53 137.422C322.517 137.526 322.498 137.623 322.486 137.728C322.47 137.861 322.454 138.021 322.438 138.193C322.429 138.283 322.421 138.38 322.412 138.48C322.407 138.539 322.402 138.602 322.397 138.664C322.342 139.332 322.291 140.183 322.254 141.199L318.018 141.212ZM318.288 153.6L318.091 144.54L322.206 144.527C322.209 145.078 322.216 145.645 322.231 146.238C322.283 148.443 322.42 150.934 322.64 153.587L318.288 153.6ZM318.361 156.949L322.954 156.936C323.081 158.147 323.224 159.38 323.384 160.627C323.609 162.416 323.869 164.232 324.155 166.049L318.56 166.063L318.361 156.949ZM318.632 169.432L324.714 169.417C325.266 172.566 325.886 175.669 326.544 178.586L318.831 178.603L318.632 169.432ZM318.905 181.993L327.346 181.975C327.771 183.686 328.204 185.299 328.638 186.787C328.098 187.307 327.598 188.038 327.198 189.091C326.901 189.872 326.864 190.581 326.967 191.205L319.105 191.22L318.905 181.993ZM362.723 245.945L363.026 255.471L320.502 255.474L320.295 245.96L362.723 245.945ZM362.612 242.445L320.22 242.464L320.014 233.007L362.31 232.977L362.612 242.445ZM361.9 220.091L362.2 229.499L319.939 229.533L319.735 220.136L361.9 220.091ZM361.79 216.635L319.659 216.684L319.456 207.344L361.492 207.284L361.79 216.635ZM360.978 191.141L356.788 191.149C356.776 191.058 356.781 190.97 356.761 190.878C356.665 190.435 356.506 189.984 356.26 189.547C355.55 188.283 354.525 187.381 353.41 186.835C353.613 185.342 353.792 183.687 353.946 181.919L360.683 181.905L360.978 191.141ZM360.576 178.51L354.201 178.524C354.385 175.619 354.502 172.509 354.541 169.343L360.284 169.329L360.576 178.51ZM360.176 165.956L354.552 165.97C354.541 163.893 354.497 161.817 354.415 159.785C354.384 158.792 354.341 157.814 354.292 156.847L359.886 156.831L360.176 165.956ZM359.779 153.478L354.087 153.495C353.894 150.789 353.652 148.266 353.408 146.071C353.343 145.498 353.277 144.956 353.21 144.429L359.49 144.409L359.779 153.478ZM357.802 135.557C356.995 134.446 356.258 133.277 355.574 132.073L359.096 132.061L359.383 141.077L352.739 141.099C352.679 140.715 352.621 140.367 352.566 140.041C352.561 140.009 352.556 139.981 352.55 139.949C352.501 139.658 352.454 139.394 352.41 139.154C352.393 139.058 352.376 138.966 352.36 138.879C352.345 138.8 352.331 138.723 352.317 138.65C352.286 138.49 352.258 138.342 352.232 138.22C352.167 137.899 352.096 137.591 352.021 137.292C355.653 136.417 357.802 135.557 357.802 135.557ZM348.68 194.604L353.765 194.595C353.847 194.595 353.922 194.574 354.002 194.567L361.086 194.554L361.382 203.848L319.381 203.912L319.179 194.629L348.356 194.577C348.464 194.589 348.571 194.604 348.68 194.604ZM347.047 181.933C347.327 183.754 347.608 185.459 347.892 186.993C347.142 187.467 346.418 188.248 345.827 189.566C345.572 190.135 345.475 190.67 345.465 191.169L338.185 191.183C338.29 190.713 338.293 190.211 338.153 189.703C338.033 189.266 337.85 188.826 337.581 188.406C336.802 187.185 335.728 186.348 334.585 185.874C334.572 184.64 334.545 183.328 334.509 181.959L347.047 181.933Z" fill="black"/>
<path opacity="0.15" d="M296.416 176.887L284.538 172.726C281.718 171.738 278.396 173.307 277.155 176.213L271.932 188.452C270.692 191.358 271.984 194.544 274.805 195.532L286.683 199.693C286.741 199.713 286.801 199.726 286.86 199.745C287.065 200.262 287.276 200.843 287.495 201.518C288.029 203.162 288.8 204.041 289.549 204.506C289.055 206.832 288.596 209.541 287.933 212.376C287.727 213.319 287.55 214.284 287.329 215.248C287.088 216.205 286.844 217.171 286.6 218.139C286.174 220.089 285.538 221.967 285.006 223.806C284.06 226.627 283.074 229.259 282.047 231.359C281.003 229.44 280.166 228.259 280.166 228.259C274.008 234.481 269.373 237.538 265.972 238.985C266.18 237.638 266.285 236.373 266.331 235.285C268.006 234.526 269.7 233.411 271.334 231.875C274.007 229.363 275.79 226.233 276.857 223.018C277.066 223.131 277.305 223.205 277.598 223.2C280.417 223.154 284.098 215.775 281.07 214.544C280.378 214.263 279.747 214.258 279.18 214.404C279.184 213.954 279.18 213.503 279.144 213.051C278.455 204.332 273.742 200.481 263.816 201.953C253.89 203.426 251.343 212.363 251.343 212.363C251.294 212.539 251.267 212.712 251.224 212.888C250.708 212.653 250.076 212.564 249.292 212.748C245.949 213.534 247.269 221.262 250.013 221.697C250.485 221.772 250.888 221.644 251.239 221.397C251.095 224.461 251.601 227.806 253.145 231.313C254.024 233.309 255.458 234.766 257.231 235.616C257.185 236.742 257.06 238.076 256.791 239.379C252.188 237.682 245.938 231.82 245.938 231.82C245.921 231.83 245.905 231.842 245.888 231.852C245.747 231.623 245.606 231.377 245.441 231.119C245.196 230.716 244.911 230.29 244.677 229.779C243.587 227.844 242.552 225.129 241.781 222.049C241.615 221.269 241.346 220.507 241.241 219.681C241.102 218.862 240.963 218.038 240.824 217.215C240.666 216.392 240.647 215.534 240.543 214.701C240.477 213.86 240.323 213.037 240.315 212.204C240.279 211.372 240.244 210.556 240.21 209.76C240.17 208.963 240.102 208.187 240.129 207.432C240.132 206.567 240.121 205.744 240.098 204.963C240.235 204.944 240.377 204.918 240.531 204.877C241.535 204.604 242.864 203.78 243.992 201.517C244.466 200.565 244.894 199.791 245.287 199.145L246.851 199.693C249.671 200.681 252.993 199.112 254.234 196.206L259.457 183.967C260.697 181.061 259.404 177.875 256.584 176.887L244.706 172.726C241.886 171.738 238.564 173.307 237.323 176.213L232.1 188.452C230.86 191.358 232.153 194.544 234.973 195.532L235.915 195.862C235.871 196.04 235.819 196.217 235.785 196.394C235.158 199.633 235.273 201.713 235.872 203.01C235.439 204.232 234.993 205.651 234.543 207.216C234.288 208.017 234.134 208.867 233.961 209.746C233.797 210.631 233.628 211.54 233.456 212.466C233.27 213.396 233.24 214.357 233.133 215.328C233.064 216.3 232.92 217.287 232.93 218.278C232.933 219.274 232.936 220.271 232.939 221.261C232.92 222.258 233.084 223.237 233.156 224.213C233.551 228.103 234.474 231.756 235.67 234.508C235.924 235.212 236.249 235.839 236.537 236.42C236.836 236.996 237.07 237.539 237.357 237.988C237.914 238.892 238.317 239.579 238.607 239.951C238.617 239.965 238.627 239.976 238.637 239.99C237.609 241.76 237.023 243.084 237.023 243.084C240.681 251.544 246.399 253.635 246.399 253.635C246.295 255.174 246.19 256.69 246.085 258.185H276.037C276.455 252.852 277.023 249.358 277.023 249.358C282.113 249.5 286.102 244.726 286.102 244.726C286.091 244.23 286.057 243.736 286.01 243.244L286.012 243.242C286.448 242.781 286.962 241.951 287.725 240.848C288.119 240.297 288.411 239.665 288.805 238.977C289.181 238.287 289.607 237.537 289.928 236.731C291.482 233.508 292.608 229.46 293.478 225.232C294.931 217.662 294.998 209.579 294.459 204.026C295.819 202.928 296.678 200.673 296.593 196.394C296.565 195.008 296.225 193.608 295.716 192.341L299.29 183.967C300.529 181.061 299.236 177.875 296.416 176.887Z" fill="black"/>
<path d="M270.174 111.348C280.764 111.348 289.348 102.764 289.348 92.174C289.348 81.5845 280.764 73 270.174 73C259.584 73 251 81.5845 251 92.174C251 102.764 259.584 111.348 270.174 111.348Z" fill="white"/>
<path d="M356.372 95.9261H300.266C298.802 95.9261 297.604 94.7281 297.604 93.2641C297.604 91.8001 298.802 90.6021 300.266 90.6021H356.372C357.836 90.6021 359.034 91.8001 359.034 93.2641C359.034 94.7281 357.836 95.9261 356.372 95.9261Z" fill="white"/>
<path d="M356.372 83.9238H300.266C298.802 83.9238 297.604 82.7259 297.604 81.2619C297.604 79.7979 298.802 78.5999 300.266 78.5999H356.372C357.836 78.5999 359.034 79.7979 359.034 81.2619C359.034 82.7259 357.836 83.9238 356.372 83.9238Z" fill="white"/>
<path d="M356.372 107.928H300.266C298.802 107.928 297.604 106.73 297.604 105.266C297.604 103.802 298.802 102.604 300.266 102.604H356.372C357.836 102.604 359.034 103.802 359.034 105.266C359.034 106.73 357.836 107.928 356.372 107.928Z" fill="white"/>
<path d="M322.418 348.571C321.491 348.571 320.739 347.819 320.739 346.892V122.517C320.739 121.59 321.491 120.838 322.418 120.838C323.345 120.838 324.097 121.589 324.097 122.517V346.893C324.097 347.819 323.345 348.571 322.418 348.571Z" fill="#0E2533"/>
<path d="M368.321 348.571C367.394 348.571 366.642 347.819 366.642 346.892V122.517C366.642 121.59 367.394 120.838 368.321 120.838C369.248 120.838 370 121.589 370 122.517V346.893C370 347.819 369.248 348.571 368.321 348.571Z" fill="#0E2533"/>
<path d="M368.321 134.081H322.418C321.491 134.081 320.739 133.33 320.739 132.402C320.739 131.475 321.491 130.723 322.418 130.723H368.321C369.248 130.723 370 131.474 370 132.402C370 133.33 369.248 134.081 368.321 134.081Z" fill="#0E2533"/>
<path d="M368.321 146.549H322.418C321.491 146.549 320.739 145.798 320.739 144.87C320.739 143.943 321.491 143.191 322.418 143.191H368.321C369.248 143.191 370 143.943 370 144.87C370 145.798 369.248 146.549 368.321 146.549Z" fill="#0E2533"/>
<path d="M368.321 159.017H322.418C321.491 159.017 320.739 158.265 320.739 157.338C320.739 156.411 321.491 155.659 322.418 155.659H368.321C369.248 155.659 370 156.41 370 157.338C370 158.266 369.248 159.017 368.321 159.017Z" fill="#0E2533"/>
<path d="M368.321 171.485H322.418C321.491 171.485 320.739 170.734 320.739 169.806C320.739 168.879 321.491 168.127 322.418 168.127H368.321C369.248 168.127 370 168.879 370 169.806C370 170.733 369.248 171.485 368.321 171.485Z" fill="#0E2533"/>
<path d="M368.321 183.953H322.418C321.491 183.953 320.739 183.201 320.739 182.274C320.739 181.347 321.491 180.595 322.418 180.595H368.321C369.248 180.595 370 181.347 370 182.274C370 183.201 369.248 183.953 368.321 183.953Z" fill="#0E2533"/>
<path d="M368.321 196.421H322.418C321.491 196.421 320.739 195.669 320.739 194.742C320.739 193.815 321.491 193.063 322.418 193.063H368.321C369.248 193.063 370 193.815 370 194.742C370 195.669 369.248 196.421 368.321 196.421Z" fill="#0E2533"/>
<path d="M368.321 208.889H322.418C321.491 208.889 320.739 208.137 320.739 207.21C320.739 206.283 321.491 205.531 322.418 205.531H368.321C369.248 205.531 370 206.283 370 207.21C370 208.137 369.248 208.889 368.321 208.889Z" fill="#0E2533"/>
<path d="M368.321 221.356H322.418C321.491 221.356 320.739 220.604 320.739 219.677C320.739 218.75 321.491 217.998 322.418 217.998H368.321C369.248 217.998 370 218.75 370 219.677C370 220.604 369.248 221.356 368.321 221.356Z" fill="#0E2533"/>
<path d="M368.321 233.824H322.418C321.491 233.824 320.739 233.072 320.739 232.145C320.739 231.218 321.491 230.466 322.418 230.466H368.321C369.248 230.466 370 231.218 370 232.145C370 233.072 369.248 233.824 368.321 233.824Z" fill="#0E2533"/>
<path d="M368.321 246.293H322.418C321.491 246.293 320.739 245.541 320.739 244.614C320.739 243.687 321.491 242.935 322.418 242.935H368.321C369.248 242.935 370 243.687 370 244.614C370 245.541 369.248 246.293 368.321 246.293Z" fill="#0E2533"/>
<path d="M368.321 258.761H322.418C321.491 258.761 320.739 258.009 320.739 257.082C320.739 256.155 321.491 255.403 322.418 255.403H368.321C369.248 255.403 370 256.155 370 257.082C370 258.009 369.248 258.761 368.321 258.761Z" fill="#0E2533"/>
<path d="M368.321 271.228H322.418C321.491 271.228 320.739 270.476 320.739 269.549C320.739 268.622 321.491 267.87 322.418 267.87H368.321C369.248 267.87 370 268.622 370 269.549C370 270.477 369.248 271.228 368.321 271.228Z" fill="#0E2533"/>
<path d="M368.321 283.696H322.418C321.491 283.696 320.739 282.944 320.739 282.017C320.739 281.09 321.491 280.338 322.418 280.338H368.321C369.248 280.338 370 281.09 370 282.017C370 282.944 369.248 283.696 368.321 283.696Z" fill="#0E2533"/>
<path d="M368.321 296.164H322.418C321.491 296.164 320.739 295.412 320.739 294.485C320.739 293.558 321.491 292.806 322.418 292.806H368.321C369.248 292.806 370 293.558 370 294.485C370 295.412 369.248 296.164 368.321 296.164Z" fill="#0E2533"/>
<path d="M368.321 308.632H322.418C321.491 308.632 320.739 307.88 320.739 306.953C320.739 306.026 321.491 305.274 322.418 305.274H368.321C369.248 305.274 370 306.026 370 306.953C370 307.88 369.248 308.632 368.321 308.632Z" fill="#0E2533"/>
<path d="M368.321 321.101H322.418C321.491 321.101 320.739 320.349 320.739 319.422C320.739 318.495 321.491 317.743 322.418 317.743H368.321C369.248 317.743 370 318.495 370 319.422C370 320.349 369.248 321.101 368.321 321.101Z" fill="#0E2533"/>
<path d="M368.321 333.568H322.418C321.491 333.568 320.739 332.816 320.739 331.889C320.739 330.962 321.491 330.21 322.418 330.21H368.321C369.248 330.21 370 330.962 370 331.889C370 332.816 369.248 333.568 368.321 333.568Z" fill="#0E2533"/>
<path d="M312.964 62.703C313.744 62.26 314.644 61.286 314.957 59.15C315.551 55.1 316.372 54.129 317.012 53.504C317.652 52.879 316.125 51.533 314.533 54.072C313.998 54.926 313.642 55.492 313.406 55.868L312.964 62.703Z" fill="#FFBE8F"/>
<path d="M373.013 29.1079H96.9868V55.4769H373.013V29.1079Z" fill="#8BC9D9"/>
<path d="M333.732 35.7405C333.686 35.3551 333.501 35.0559 333.177 34.8429C332.852 34.63 332.454 34.5235 331.983 34.5235C331.638 34.5235 331.336 34.5793 331.077 34.6908C330.821 34.8024 330.621 34.9558 330.477 35.151C330.335 35.3462 330.264 35.5681 330.264 35.8166C330.264 36.0245 330.313 36.2032 330.412 36.3528C330.513 36.4999 330.643 36.6229 330.8 36.7217C330.957 36.8181 331.122 36.898 331.294 36.9613C331.467 37.0222 331.625 37.0716 331.77 37.1097L332.561 37.3227C332.764 37.3759 332.989 37.4494 333.238 37.5432C333.489 37.6371 333.728 37.7651 333.957 37.9274C334.187 38.0871 334.377 38.2925 334.527 38.5435C334.677 38.7945 334.751 39.1026 334.751 39.4677C334.751 39.8886 334.641 40.2689 334.421 40.6086C334.202 40.9484 333.883 41.2184 333.462 41.4187C333.044 41.619 332.535 41.7192 331.937 41.7192C331.379 41.7192 330.896 41.6292 330.488 41.4492C330.082 41.2691 329.763 41.0181 329.53 40.6961C329.299 40.3741 329.168 40.0001 329.138 39.5742H330.111C330.137 39.8683 330.236 40.1117 330.408 40.3044C330.583 40.4946 330.804 40.6365 331.07 40.7304C331.339 40.8216 331.628 40.8673 331.937 40.8673C332.297 40.8673 332.62 40.809 332.907 40.6923C333.193 40.5732 333.42 40.4083 333.588 40.1979C333.755 39.9849 333.839 39.7364 333.839 39.4525C333.839 39.1938 333.766 38.9834 333.622 38.8211C333.477 38.6589 333.287 38.527 333.051 38.4256C332.816 38.3242 332.561 38.2354 332.287 38.1594L331.328 37.8855C330.72 37.7106 330.238 37.4608 329.883 37.1363C329.528 36.8118 329.351 36.3871 329.351 35.8622C329.351 35.4261 329.469 35.0458 329.704 34.7212C329.943 34.3942 330.262 34.1406 330.663 33.9606C331.066 33.778 331.516 33.6868 332.013 33.6868C332.515 33.6868 332.961 33.7768 333.352 33.9568C333.742 34.1343 334.052 34.3777 334.28 34.687C334.511 34.9963 334.632 35.3475 334.645 35.7405H333.732ZM336.302 41.5823V33.7933H341.003V34.63H337.245V37.2618H340.76V38.0985H337.245V40.7456H341.064V41.5823H336.302ZM343.022 41.5823H342.034L344.894 33.7933H345.867L348.727 41.5823H347.738L345.411 35.0255H345.35L343.022 41.5823ZM343.388 38.5397H347.373V39.3764H343.388V38.5397ZM349.941 41.5823V33.7933H352.572C353.181 33.7933 353.68 33.8972 354.071 34.1051C354.461 34.3105 354.75 34.5932 354.938 34.9532C355.126 35.3133 355.219 35.7228 355.219 36.1817C355.219 36.6406 355.126 37.0476 354.938 37.4025C354.75 37.7575 354.463 38.0364 354.075 38.2392C353.687 38.4395 353.191 38.5397 352.588 38.5397H350.458V37.6878H352.557C352.973 37.6878 353.308 37.6269 353.561 37.5052C353.817 37.3835 354.002 37.2111 354.116 36.988C354.233 36.7623 354.291 36.4936 354.291 36.1817C354.291 35.8698 354.233 35.5973 354.116 35.364C354 35.1307 353.813 34.9507 353.557 34.8239C353.301 34.6946 352.963 34.63 352.542 34.63H350.884V41.5823H349.941ZM353.607 38.0833L355.524 41.5823H354.428L352.542 38.0833H353.607ZM363.059 36.2273H362.116C362.06 35.956 361.962 35.7177 361.823 35.5123C361.686 35.3069 361.519 35.1345 361.321 34.9951C361.126 34.8531 360.909 34.7466 360.67 34.6756C360.432 34.6046 360.184 34.5691 359.925 34.5691C359.453 34.5691 359.026 34.6883 358.643 34.9266C358.263 35.165 357.96 35.5161 357.734 35.9801C357.511 36.4441 357.4 37.0133 357.4 37.6878C357.4 38.3622 357.511 38.9314 357.734 39.3954C357.96 39.8594 358.263 40.2106 358.643 40.4489C359.026 40.6872 359.453 40.8064 359.925 40.8064C360.184 40.8064 360.432 40.7709 360.67 40.6999C360.909 40.6289 361.126 40.5237 361.321 40.3843C361.519 40.2423 361.686 40.0686 361.823 39.8632C361.962 39.6553 362.06 39.417 362.116 39.1482H363.059C362.988 39.5463 362.859 39.9025 362.671 40.2169C362.483 40.5313 362.25 40.7988 361.971 41.0194C361.692 41.2374 361.379 41.4035 361.032 41.5176C360.687 41.6317 360.318 41.6888 359.925 41.6888C359.261 41.6888 358.67 41.5265 358.153 41.202C357.635 40.8774 357.228 40.416 356.932 39.8176C356.635 39.2192 356.487 38.5093 356.487 37.6878C356.487 36.8663 356.635 36.1563 356.932 35.558C357.228 34.9596 357.635 34.4981 358.153 34.1736C358.67 33.849 359.261 33.6868 359.925 33.6868C360.318 33.6868 360.687 33.7438 361.032 33.8579C361.379 33.972 361.692 34.1394 361.971 34.3599C362.25 34.578 362.483 34.8442 362.671 35.1586C362.859 35.4705 362.988 35.8267 363.059 36.2273ZM364.583 41.5823V33.7933H365.526V37.2618H369.679V33.7933H370.623V41.5823H369.679V38.0985H365.526V41.5823H364.583Z" fill="#005C91"/>
<path d="M364.589 46.4858H105.411V47.7368H364.589V46.4858Z" fill="#005C91"/>
<path d="M313.406 55.8689C312.94 56.6119 312.94 56.6119 312.94 56.6119C312.94 56.6119 312.416 50.3399 310.678 48.2589C308.94 46.1789 305.814 51.9879 306.459 56.6159C307.264 62.3929 309.307 63.5319 311.66 63.0709C311.66 63.0709 312.264 63.0999 312.963 62.7029L313.406 55.8689Z" fill="#FFBE8F"/>
<path d="M326.666 44.4279C326.538 44.4279 326.41 44.3789 326.313 44.2819L323.045 41.0149C322.85 40.8199 322.85 40.5029 323.045 40.3079C323.24 40.1129 323.557 40.1129 323.752 40.3079L327.019 43.5749C327.214 43.7699 327.214 44.0869 327.019 44.2819C326.922 44.3789 326.794 44.4279 326.666 44.4279Z" fill="#005C91"/>
<path d="M320.275 34.1208C321.188 34.1208 322.046 34.4758 322.691 35.1218C324.023 36.4538 324.023 38.6218 322.691 39.9548C322.046 40.6008 321.187 40.9558 320.275 40.9558C319.362 40.9558 318.504 40.6008 317.859 39.9548C316.527 38.6228 316.527 36.4548 317.859 35.1218C318.504 34.4758 319.363 34.1208 320.275 34.1208ZM320.275 33.1208C319.145 33.1208 318.014 33.5518 317.151 34.4148C315.426 36.1398 315.426 38.9368 317.151 40.6618C318.014 41.5248 319.144 41.9558 320.275 41.9558C321.405 41.9558 322.536 41.5248 323.398 40.6618C325.123 38.9368 325.123 36.1398 323.398 34.4148C322.536 33.5518 321.406 33.1208 320.275 33.1208Z" fill="#005C91"/>
<path d="M324.154 42.4169C323.898 42.4169 323.642 42.3189 323.447 42.1239L322.691 41.3679C322.3 40.9769 322.3 40.3449 322.691 39.9539C323.082 39.5629 323.714 39.5629 324.105 39.9539L324.861 40.7099C325.252 41.1009 325.252 41.7329 324.861 42.1239C324.666 42.3189 324.41 42.4169 324.154 42.4169Z" fill="#005C91"/>
<path d="M337.817 60.7828C333.71 63.6118 327.939 69.9258 329.865 79.6998C331.079 85.8618 339.35 87.2498 346.58 83.2388C353.81 79.2278 355.926 71.6158 355.018 66.3858C354.111 61.1558 344.403 56.2458 337.817 60.7828Z" fill="#FFBE8F"/>
<path d="M340.159 95.5399C339.873 95.5399 339.583 95.5089 339.293 95.4449C337.136 94.9679 335.773 92.8339 336.249 90.6759C337.377 85.5729 336.837 83.5539 336.831 83.5339C336.882 83.7129 336.93 83.7929 336.93 83.7929L344.27 80.6089C344.642 81.4669 345.728 84.8559 344.062 92.4009C343.648 94.2679 341.995 95.5399 340.159 95.5399Z" fill="#FFBE8F"/>
<path d="M337.715 64.6889C337.715 64.6889 334.828 69.1879 333.77 70.7999C333.77 70.7999 335.706 72.2689 337.024 70.5629C338.341 68.8569 339.286 65.6419 341.969 65.6859C343.754 65.7149 343.5 67.5929 342.72 69.1069C341.527 71.4239 339.618 72.6049 338.397 72.4609C338.397 72.4609 335.191 77.5719 341.666 81.2129C348.141 84.8539 352.908 80.0959 355.632 74.8269C358.356 69.5589 358.323 62.0989 352.735 58.0469C347.267 54.0819 342.591 54.4169 335.637 54.9279C335.637 54.9279 333.088 59.6169 337.715 64.6889Z" fill="#003C5E"/>
<path d="M380.967 67.386C379.973 69.728 378.713 72.745 376.834 75.576C374.995 78.429 372.582 81.071 369.894 82.973C367.24 84.923 364.351 86.136 361.992 86.885C359.614 87.611 357.772 87.908 357.02 88.036C353.129 88.681 351.58 89.852 351.402 92.97C351.32 94.508 351.829 95.667 353.022 96.37C354.207 97.064 356.073 97.314 358.586 96.87C359.554 96.702 361.908 96.208 364.925 95.026C367.92 93.827 371.597 91.86 374.791 88.893C376.384 87.423 377.885 85.762 379.124 83.952C380.354 82.14 381.421 80.253 382.19 78.354C383.803 74.578 384.403 70.917 384.564 68.172L380.967 67.386Z" fill="#FFBE8F"/>
<path d="M309.372 59.511C308.944 60.719 308.497 62.141 308.044 63.717C307.786 64.498 307.646 65.344 307.506 66.222C307.367 67.107 307.224 68.016 307.079 68.941C306.993 69.405 306.957 69.882 306.952 70.368C306.936 70.854 306.92 71.344 306.904 71.836C306.892 72.331 306.879 72.829 306.867 73.328C306.845 73.828 306.848 74.332 306.916 74.84C307.022 75.86 307.128 76.882 307.233 77.898C307.368 78.916 307.671 79.917 307.894 80.915C308.938 84.889 310.905 88.461 312.919 90.947C313.98 92.14 314.907 93.194 315.776 93.903C316.197 94.272 316.558 94.607 316.883 94.859C317.217 95.101 317.487 95.296 317.686 95.44C319.758 96.922 321.601 97.398 322.954 97.178C324.301 96.963 325.2 96.035 325.621 94.558C326.047 93.067 326.068 91.923 325.618 90.921C325.176 89.93 324.252 89.114 322.862 88.112C322.725 88.019 322.538 87.893 322.307 87.737C322.08 87.576 321.833 87.355 321.532 87.124C320.904 86.689 320.254 86.004 319.446 85.265C317.951 83.68 316.349 81.385 315.197 78.534C314.948 77.806 314.603 77.097 314.395 76.322C314.198 75.537 314 74.747 313.802 73.958C313.679 73.566 313.616 73.158 313.573 72.745L313.405 71.515C313.345 71.105 313.286 70.696 313.227 70.291C313.154 69.886 313.107 69.479 313.109 69.068C313.071 68.248 313.035 67.442 312.999 66.657C312.95 65.869 312.892 65.099 312.947 64.355C312.994 62.867 313.005 61.483 312.974 60.263L309.372 59.511Z" fill="#FFBE8F"/>
<path d="M330.513 137.771C330.513 137.771 334.483 146.757 343.597 146.757C352.711 146.757 358.13 142.172 356.65 132.554C356.65 132.554 337.839 129.345 330.513 137.771Z" fill="#005C91"/>
<path d="M358.835 190.225C360.167 183.364 361.058 172.134 360.951 161.956C360.949 156.872 360.663 152.051 360.346 148.203C360.022 144.355 359.595 141.472 359.384 140.286C358.303 134.159 355.431 131.806 351.344 133.189C347.231 134.572 346.031 136.955 347.018 142.489C347.207 143.556 347.735 146.148 348.326 149.718C348.909 153.287 349.621 157.809 350.219 162.668C351.517 172.366 352.483 183.349 353.681 190.163L358.835 190.225Z" fill="#005C91"/>
<path d="M339.891 191.01C340.189 183.822 339.771 172.338 339.904 162.187C339.951 157.112 340.141 152.382 340.422 148.705C340.701 145.022 341.074 142.427 341.221 141.397C341.595 138.704 341.575 137.042 340.929 135.961C340.606 135.436 340.126 134.948 339.546 134.425C339.251 134.148 338.983 133.796 338.693 133.434C338.395 133.074 338.06 132.699 337.67 132.327C337.28 131.954 336.886 131.635 336.47 131.392C336.055 131.141 335.618 130.974 335.125 130.974C334.106 130.97 333.107 131.388 332.202 132.155C330.414 133.675 329.249 136.279 328.778 139.688C328.587 141.016 328.306 144.178 328.315 148.274C328.318 152.374 328.589 157.43 329.161 162.713C330.272 173.288 332.564 184.777 334.783 191.701L339.891 191.01Z" fill="#005C91"/>
<path d="M358.835 190.225C360.167 183.364 361.058 172.134 360.951 161.956C360.949 156.872 360.663 152.051 360.346 148.203C360.022 144.355 359.595 141.472 359.384 140.286C358.303 134.159 355.431 131.806 351.344 133.189C347.231 134.572 346.031 136.955 347.018 142.489C347.207 143.556 347.735 146.148 348.326 149.718C348.909 153.287 349.621 157.809 350.219 162.668C351.517 172.366 352.483 183.349 353.681 190.163L358.835 190.225Z" fill="#005C91"/>
<path d="M359.671 142.124C359.558 141.33 359.458 140.699 359.384 140.286C358.892 137.496 358.025 135.498 356.844 134.27C356.804 133.717 356.741 133.146 356.65 132.555C356.65 132.555 346.711 130.863 338.468 133.174C338.226 132.895 337.969 132.611 337.671 132.326C337.28 131.953 336.887 131.634 336.471 131.391C336.056 131.14 335.619 130.973 335.126 130.973C334.107 130.969 333.108 131.387 332.203 132.154C330.415 133.674 329.25 136.277 328.779 139.687C328.715 140.131 328.642 140.795 328.572 141.614C341.038 145.062 352.685 143.663 359.671 142.124Z" fill="#004973"/>
<path d="M336.169 88.6378C337.25 88.8088 350.601 93.7448 361.546 84.1618C361.546 84.1618 364.482 91.0258 365.303 98.4128C365.303 98.4128 360.346 101.251 355.846 101.135C355.846 101.135 355.347 123.66 365.198 137.615C365.198 137.615 344.677 145.55 323.062 137.615C323.062 137.615 329.126 120.393 328.713 100.867C328.713 100.867 320.276 99.8888 315.263 94.9658C315.263 94.9658 318.758 85.5078 323.17 82.8928C323.17 82.8928 332.052 87.9888 336.169 88.6378Z" fill="#FF595F"/>
<path d="M355.845 101.135C360.345 101.251 365.302 98.4128 365.302 98.4128C365.302 98.4128 359.3 100.742 353.798 99.1268C353.798 99.1268 352.549 126.047 365.196 137.614C355.347 123.66 355.845 101.135 355.845 101.135Z" fill="#CC3F44"/>
<path d="M332.15 99.7728C320.04 98.8038 315.261 94.9648 315.261 94.9648C320.275 99.8878 328.711 100.866 328.711 100.866C329.124 120.392 323.06 137.614 323.06 137.614C331.893 125.724 332.15 99.7728 332.15 99.7728Z" fill="#CC3F44"/>
<path d="M381.057 70.5029C381.057 70.5029 378.525 69.5499 379.586 65.5959C380.646 61.6429 380.277 60.4259 379.938 59.5979C379.599 58.7709 381.533 58.1399 381.989 61.1019C382.444 64.0639 382.444 64.0639 382.444 64.0639C382.444 64.0639 385.412 58.5129 387.832 57.2929C390.252 56.0719 389.028 62.1129 388.216 66.3009C387.404 70.4899 383.035 71.8589 381.057 70.5029Z" fill="#FFBE8F"/>
<path d="M356.18 188.21C354.716 188.32 352.715 188.618 351.306 191.486C350.825 192.465 350.801 193.354 350.978 194.1C351.31 195.499 352.618 196.448 354.056 196.448H359.216C361.161 196.448 362.738 194.707 362.371 192.797C362.287 192.36 362.14 191.917 361.904 191.486C360.648 189.187 358.274 188.053 356.18 188.21Z" fill="#003C5E"/>
<path d="M337.041 187.41C335.587 187.61 333.608 188.031 332.378 190.98C331.958 191.987 331.989 192.876 332.212 193.609C332.63 194.985 333.994 195.852 335.429 195.763L340.579 195.444C342.52 195.324 343.986 193.489 343.503 191.605C343.392 191.174 343.218 190.74 342.956 190.325C341.561 188.11 339.122 187.124 337.041 187.41Z" fill="#003C5E"/>
<path d="M94.0027 185.049C97.0207 189.019 100.532 196.82 95.6497 205.503C92.5717 210.978 84.2817 209.713 78.6647 203.645C73.0487 197.577 73.4167 189.684 75.9117 184.999C78.4087 180.314 89.1637 178.681 94.0027 185.049Z" fill="#FFBE8F"/>
<path d="M88.7215 218.514C86.8855 218.514 85.2315 217.242 84.8195 215.375C83.1525 207.83 84.2385 204.442 84.6105 203.583L91.9505 206.767C91.9505 206.767 91.9985 206.687 92.0495 206.507C92.0435 206.528 91.5045 208.547 92.6315 213.651C93.1085 215.807 91.7455 217.943 89.5885 218.42C89.2975 218.482 89.0075 218.514 88.7215 218.514Z" fill="#FFBE8F"/>
<path d="M50.3206 184.274C49.8196 186.977 49.5246 190.676 50.1866 194.728C50.4786 196.756 51.0626 198.844 51.8226 200.897C52.5926 202.951 53.6516 204.923 54.8456 206.732C57.2356 210.378 60.3346 213.168 62.9556 215.05C65.6016 216.919 67.7686 217.963 68.6686 218.358C71.0016 219.391 72.8726 219.595 74.1896 219.205C75.5166 218.808 76.2886 217.805 76.5776 216.292C77.1516 213.222 75.9276 211.714 72.3046 210.156C71.6046 209.851 69.8876 209.121 67.7526 207.847C65.6416 206.555 63.1266 204.685 61.0176 202.156C58.8636 199.665 57.1536 196.522 56.0516 193.312C54.9056 190.113 54.4046 186.883 54.0006 184.371L50.3206 184.274Z" fill="#FFBE8F"/>
<path d="M139.62 203.236C139.767 202.351 140.371 201.171 142.267 200.14C145.864 198.186 146.492 197.08 146.858 196.264C147.224 195.448 149.014 196.417 147.18 198.787C146.563 199.584 146.154 200.113 145.882 200.464L139.62 203.236Z" fill="#FFBE8F"/>
<path d="M147.15 199.186C146.686 199.186 146.307 198.807 146.307 198.343V185.852C146.307 185.388 146.687 185.009 147.15 185.009C147.614 185.009 147.993 185.388 147.993 185.852V198.343C147.993 198.807 147.614 199.186 147.15 199.186Z" fill="#003757"/>
<path d="M146.307 185.853C146.307 185.389 146.687 185.01 147.15 185.01H158.698C159.162 185.01 159.541 185.389 159.541 185.853C159.541 186.317 159.161 186.696 158.698 186.696H147.15C146.686 186.696 146.307 186.316 146.307 185.853Z" fill="#003757"/>
<path d="M158.698 178.323C159.162 178.323 159.541 178.703 159.541 179.166V185.852C159.541 186.316 159.161 186.695 158.698 186.695C158.234 186.695 157.855 186.316 157.855 185.852V179.166C157.855 178.703 158.235 178.323 158.698 178.323Z" fill="#003757"/>
<path d="M159.542 179.167C159.542 179.631 159.162 180.01 158.699 180.01H150.555C150.091 180.01 149.712 179.631 149.712 179.167C149.712 178.703 150.091 178.324 150.555 178.324H158.699C159.162 178.323 159.542 178.703 159.542 179.167Z" fill="#003757"/>
<path d="M154.038 181.958H140.263C139.284 181.958 138.484 181.157 138.484 180.179V178.154C138.484 177.176 139.285 176.375 140.263 176.375H154.038C155.016 176.375 155.817 177.176 155.817 178.154V180.179C155.817 181.158 155.016 181.958 154.038 181.958Z" fill="#70C6DB"/>
<path d="M147.15 212.991C145.699 212.991 144.512 211.804 144.512 210.353V194.737C144.512 193.286 145.699 192.099 147.15 192.099C148.601 192.099 149.788 193.286 149.788 194.737V210.353C149.788 211.803 148.601 212.991 147.15 212.991Z" fill="#005C91"/>
<path d="M145.882 200.465C145.345 201.158 145.345 201.158 145.345 201.158C145.345 201.158 151.413 199.487 153.965 200.401C156.517 201.315 152.142 206.252 147.575 207.243C141.875 208.48 140.101 206.954 139.722 204.587C139.722 204.587 139.487 204.03 139.619 203.237L145.882 200.465Z" fill="#FFBE8F"/>
<path d="M142.159 202.238C137.194 203.398 129.34 205.401 122.226 206.678C115.111 207.983 108.79 208.606 107.168 208.787C102.965 209.29 101.37 210.692 101.462 213.791C101.55 216.863 103.684 218.24 108.24 217.694C110.003 217.498 116.744 216.392 124.051 214.14C131.369 211.92 139.188 208.516 143.584 205.632L142.159 202.238Z" fill="#FFBE8F"/>
<path d="M100.823 329.131C101.92 325.825 102.984 321.36 103.609 316.502C104.262 311.642 104.641 306.376 104.784 301.41C105.062 291.476 104.496 282.722 104.268 280.459C103.671 274.602 101.365 272.347 97.0899 272.933C92.8029 273.52 91.1959 276.081 91.7699 281.709C91.9899 283.885 93.1069 292.272 94.0349 301.762C94.4949 306.506 94.8809 311.515 95.1699 316.157C95.4839 320.808 95.5439 325.044 95.7289 328.346L100.823 329.131Z" fill="#FFBE8F"/>
<path d="M56.4019 310.149C58.1459 310.586 60.2599 310.894 62.6319 310.808C64.9979 310.721 67.6059 310.208 70.1659 309.184C72.7249 308.16 75.2139 306.629 77.4089 304.717C78.5049 303.759 79.5329 302.708 80.4589 301.567C80.9299 301.003 81.3719 300.414 81.7869 299.802C81.8929 299.647 81.9979 299.508 82.1039 299.34L82.4159 298.791L83.0219 297.683C84.3989 294.845 85.0279 292.408 85.6219 290.102C86.1469 287.83 86.5469 285.734 86.8129 283.902C87.3689 280.228 87.5959 277.525 87.6599 276.408C87.9719 270.631 85.9589 268.147 81.6519 268.148C77.3179 268.147 75.4079 270.357 75.1199 275.692C75.0619 276.722 74.9889 279.237 74.7749 282.546C74.6779 284.208 74.4999 286.036 74.2729 287.952C74.0199 289.808 73.6689 291.845 73.1949 293.314L73.0269 293.788L72.9509 294.034C72.9139 294.124 72.8519 294.23 72.8039 294.328C72.6099 294.734 72.3939 295.136 72.1519 295.531C71.6869 296.331 71.1389 297.103 70.5409 297.836C69.3379 299.298 67.9219 300.595 66.3849 301.63C64.8469 302.662 63.1919 303.437 61.5489 303.967C59.9039 304.494 58.2849 304.791 56.8229 305.011L56.4019 310.149Z" fill="#FFBE8F"/>
<path d="M95.7126 209.612C94.6316 209.783 83.3566 212.752 74.9886 208.844C74.9886 208.844 70.2776 213.339 69.4566 220.727C69.4566 220.727 71.6716 221.643 76.0356 222.11C76.0356 222.11 85.5176 228.724 79.2596 243.111C71.8516 260.141 69.9306 276.36 66.6836 280.959C66.6836 280.959 87.2046 288.894 108.82 280.959C108.82 280.959 108.259 258.186 101.368 243.111C96.2126 231.833 103.005 229.609 103.169 221.841C103.169 221.841 106.248 221.658 108.149 219.97C108.149 219.97 109.676 210.547 105.264 207.931C105.264 207.931 99.8286 208.962 95.7126 209.612Z" fill="#FF595F"/>
<path d="M53.1668 187.377C53.1668 187.377 55.8528 187.058 55.7708 182.966C55.6888 178.874 56.3378 177.78 56.8658 177.059C57.3938 176.337 55.6658 175.261 54.5148 178.028C53.3628 180.795 53.3628 180.795 53.3628 180.795C53.3628 180.795 51.8108 174.695 49.7538 172.93C47.6968 171.165 47.4388 177.323 47.2238 181.584C47.0088 185.844 50.9228 188.22 53.1668 187.377Z" fill="#FFBE8F"/>
<path d="M95.598 325.659C95.598 325.659 100.233 326.621 101.895 325.659C101.895 325.659 104.169 326.883 107.667 326.621C111.165 326.359 113.526 326.815 113.089 328.861C112.652 330.907 99.636 332.793 96.298 331.169C94.5 330.294 95.598 325.222 95.598 325.222" fill="#003757"/>
<path d="M60.0838 304.31C60.0838 304.31 57.5968 308.338 57.9338 310.228C57.9338 310.228 56.0068 311.947 55.0588 315.325C54.1108 318.703 52.8758 320.766 51.1018 319.657C49.3288 318.548 51.9998 305.67 54.6658 303.087C56.1018 301.696 60.4938 304.46 60.4938 304.46" fill="#003757"/>
<path d="M95.8296 187.926C95.8296 187.926 87.3216 198.227 85.4426 218.555C85.4426 218.555 75.3636 221.117 68.5306 217.017C68.5306 217.017 67.1636 183.488 80.1466 180.009C93.1296 176.531 95.8296 187.926 95.8296 187.926Z" fill="#003C5E"/>
<path d="M94.6676 192.098C94.6676 192.098 93.1306 188.489 90.2266 189.685C87.3226 190.881 90.2706 197.714 92.8966 197.714C95.5216 197.714 94.6676 192.098 94.6676 192.098Z" fill="#FFBE8F"/>
<path d="M261.681 208.178C258.138 212.585 254.99 221.319 260.257 231.312C263.577 237.612 271.941 238.579 278.494 231.874C285.047 225.169 284.873 214.067 282.189 208.679C279.504 203.293 267.362 201.11 261.681 208.178Z" fill="#FFBE8F"/>
<path d="M268.443 247.621C267.985 247.621 267.52 247.551 267.061 247.404C264.674 246.641 263.359 244.089 264.122 241.703C265.07 238.737 264.711 234.583 264.492 233.232C264.093 230.764 265.765 228.432 268.233 228.027C270.702 227.621 273.029 229.284 273.441 231.751C273.56 232.463 274.55 238.871 272.762 244.465C272.146 246.392 270.363 247.621 268.443 247.621Z" fill="#FFBE8F"/>
<path d="M294.652 202.343C294.167 205.061 293.954 208.607 293.4 212.375C293.276 213.318 293.183 214.283 293.046 215.247C292.887 216.204 292.727 217.17 292.567 218.139C292.31 220.089 291.837 221.967 291.465 223.806C290.568 227.412 289.581 230.724 288.435 232.99C288.197 233.601 287.897 234.087 287.643 234.551C287.378 235 287.185 235.471 286.94 235.785C286.471 236.432 286.177 237.001 285.954 237.224C284.93 238.65 284.432 239.489 284.355 240.536C284.29 241.566 284.503 242.828 284.98 244.513C285.449 246.192 286.654 247.202 288.443 247.075C290.2 246.971 292.417 245.682 294.156 243.243C294.552 242.782 294.994 241.952 295.661 240.849C296.007 240.298 296.244 239.666 296.578 238.978C296.894 238.288 297.255 237.538 297.506 236.732C298.78 233.509 299.555 229.461 300.058 225.233C300.948 216.763 300.049 207.641 298.821 202.152L294.652 202.343Z" fill="#FFBE8F"/>
<path d="M245.347 204.878C246.327 204.605 247.585 203.781 248.516 201.517C250.282 197.225 251.453 196.383 252.328 195.871C253.203 195.359 251.894 193.459 249.445 195.815C248.621 196.607 248.075 197.133 247.712 197.482L245.347 204.878Z" fill="#FFBE8F"/>
<path d="M251.216 199.693L238.977 195.532C236.071 194.544 234.502 191.358 235.49 188.452L239.651 176.213C240.639 173.307 243.825 171.738 246.731 172.726L258.97 176.887C261.876 177.875 263.445 181.061 262.457 183.967L258.296 196.206C257.308 199.112 254.122 200.681 251.216 199.693Z" fill="#BAF1FF"/>
<path d="M247.711 197.481C246.994 198.17 246.994 198.17 246.994 198.17C246.994 198.17 248.141 191.126 246.801 188.359C245.461 185.593 240.426 191.125 239.863 196.393C239.16 202.97 241.096 204.784 243.811 204.924C243.811 204.924 244.467 205.121 245.346 204.877L247.711 197.481Z" fill="#FFBE8F"/>
<path d="M295.188 204.878C294.208 204.605 292.95 203.781 292.019 201.517C290.253 197.225 289.082 196.383 288.207 195.871C287.332 195.359 288.641 193.459 291.09 195.815C291.913 196.607 292.46 197.133 292.823 197.482L295.188 204.878Z" fill="#FFBE8F"/>
<path d="M291.049 199.693L278.81 195.532C275.904 194.544 274.335 191.358 275.323 188.452L279.484 176.213C280.472 173.307 283.658 171.738 286.564 172.726L298.803 176.887C301.709 177.875 303.278 181.061 302.29 183.967L298.129 196.206C297.141 199.112 293.955 200.681 291.049 199.693Z" fill="#FF9CBD"/>
<path d="M292.824 197.481C293.541 198.17 293.541 198.17 293.541 198.17C293.541 198.17 292.394 191.126 293.734 188.359C295.074 185.593 300.109 191.125 300.672 196.393C301.375 202.97 299.439 204.784 296.724 204.924C296.724 204.924 296.068 205.121 295.189 204.877L292.824 197.481Z" fill="#FFBE8F"/>
<path d="M240.552 202.909C240.216 204.153 239.884 205.609 239.562 207.216C239.376 208.017 239.296 208.867 239.2 209.746C239.113 210.631 239.023 211.54 238.932 212.465C238.827 213.395 238.88 214.356 238.857 215.327C238.873 216.299 238.814 217.286 238.91 218.277C238.999 219.273 239.089 220.27 239.178 221.26C239.246 222.257 239.494 223.236 239.651 224.212C240.383 228.102 241.624 231.755 243.058 234.507C243.373 235.211 243.753 235.838 244.091 236.419C244.44 236.995 244.721 237.538 245.047 237.987C245.682 238.891 246.145 239.578 246.467 239.95C248.055 241.918 249.757 242.904 251.188 243.033C252.647 243.157 253.866 242.412 254.794 240.932C256.651 237.914 256.594 236.2 254.366 233.538C254.143 233.288 253.803 232.804 253.306 232.2C253.051 231.904 252.824 231.511 252.536 231.116C252.256 230.713 251.934 230.287 251.656 229.776C250.398 227.841 249.127 225.126 248.089 222.046C247.856 221.266 247.521 220.504 247.344 219.678C247.134 218.859 246.923 218.035 246.713 217.212C246.483 216.39 246.39 215.531 246.214 214.698C246.075 213.857 245.849 213.034 245.769 212.201C245.661 211.369 245.555 210.553 245.452 209.757C245.343 208.96 245.207 208.184 245.169 207.429C245.043 205.924 244.89 204.529 244.709 203.306L240.552 202.909Z" fill="#FFBE8F"/>
<path d="M255.781 293.836C255.781 293.836 260.285 303.381 270.598 304.054C283.935 304.924 287.087 298.887 285.431 287.978C285.431 287.978 264.108 284.297 255.781 293.836Z" fill="#FF595F"/>
<path d="M292.945 352.737C291.285 352.858 289.015 353.191 287.411 356.44C286.863 357.549 286.834 358.557 287.033 359.404C287.407 360.991 288.888 362.07 290.518 362.074L296.369 362.085C298.575 362.089 300.366 360.119 299.955 357.952C299.861 357.457 299.695 356.953 299.429 356.464C298.009 353.855 295.32 352.563 292.945 352.737Z" fill="#003757"/>
<path d="M295.901 354.574C296.216 346.588 295.322 333.784 293.95 322.335C292.622 310.885 290.793 300.788 290.205 298.182C288.708 291.447 285.761 289.075 281.031 290.34C276.293 291.606 274.851 294.752 276.299 301.262C276.911 303.781 279.273 313.495 281.946 324.49C284.645 335.51 287.595 347.86 290.115 355.399L295.901 354.574Z" fill="#FF595F"/>
<path d="M254.365 354.041C252.706 354.185 250.442 354.55 248.883 357.821C247.93 359.82 248.634 361.472 249.326 362.454C250.015 362.795 250.591 363.08 251.28 363.42L259.16 363.326C260.357 363.312 261.366 362.419 261.511 361.231C261.639 360.183 261.577 358.882 260.9 357.678C259.444 355.089 256.737 353.835 254.365 354.041Z" fill="#003757"/>
<path d="M258.486 356.469C260.487 348.53 262.576 335.598 264.669 324.173C265.71 318.46 266.754 313.13 267.684 308.97C268.608 304.806 269.396 301.809 269.695 300.574C270.474 297.385 270.604 295.065 269.962 293.267C269.326 291.48 267.9 290.202 265.592 289.366C263.294 288.533 261.355 288.637 259.702 289.906C258.06 291.17 256.734 293.608 255.854 297.214C255.517 298.607 254.808 302.007 254.164 306.536C253.512 311.067 252.94 316.722 252.564 322.694C251.801 334.64 251.8 347.865 252.657 356.053L258.486 356.469Z" fill="#FF595F"/>
<path d="M266.073 239.786C267.298 239.982 273.623 243.084 287.011 228.259C287.011 228.259 293.461 236.348 294.375 244.727C294.375 244.727 290.801 249.501 285.698 249.359C285.698 249.359 283.826 274.101 290.884 292.406C290.884 292.406 274.929 301.546 255.78 293.837C255.78 293.837 255.869 275.778 255.445 253.636C255.445 253.636 249.545 251.544 245.153 243.085C245.153 243.085 248.084 234.777 253.092 231.821C253.092 231.821 261.407 239.041 266.073 239.786Z" fill="#BAF1FF"/>
<path d="M259.097 216.041C259.097 216.041 258.066 211.963 254.791 212.748C251.516 213.534 253.507 221.262 256.289 221.697C259.071 222.132 259.097 216.041 259.097 216.041Z" fill="#FFBE8F"/>
<path d="M282.004 217.209C282.004 217.209 283.589 213.312 286.724 214.543C289.859 215.774 286.819 223.152 284.003 223.199C281.188 223.246 282.004 217.209 282.004 217.209Z" fill="#FFBE8F"/>
<path d="M256.809 212.363C256.809 212.363 258.58 203.425 268.378 201.953C278.176 200.48 283.223 204.332 284.669 213.051C286.115 221.77 280.109 230.459 270.699 230.011C261.29 229.563 255.057 221.428 256.809 212.363Z" fill="#003C5E"/>
<path d="M425.407 320.775H360.633V370.447H425.407V320.775Z" fill="#005C91"/>
<path d="M377.884 309.977L360.633 320.775H425.407L408.156 309.977H377.884Z" fill="#003C5E"/>
<path d="M408.156 309.977H377.884V320.775H408.156V309.977Z" fill="#133447"/>
<path d="M360.633 320.775L369.96 332.442H393.02H415.589L425.407 320.775H360.633Z" fill="#00CFFF"/>
<path d="M408.156 309.977L425.407 315.376L438.905 324.603L425.407 320.775L408.156 309.977Z" fill="#00CFFF"/>
<path d="M377.884 309.977L359.084 315.376L345.585 324.603L360.633 320.775L377.884 309.977Z" fill="#00CFFF"/>
<path d="M148.8 78.0199C148.204 78.0199 147.61 78.0179 147.014 78.0179C145.602 78.0149 144.299 79.0949 143.304 79.9509C142.35 80.8159 141.482 81.7689 140.709 82.7989C140.419 82.0239 140.069 81.2719 139.662 80.5489C139.405 80.0183 139.038 79.5483 138.585 79.17C138.133 78.7916 137.606 78.5135 137.038 78.3539C136.45 78.2741 135.856 78.2537 135.264 78.2929C134.766 78.2909 133.351 78.2929 133.351 78.2929C133.351 78.2929 131.934 78.2909 131.437 78.2929C130.845 78.2537 130.251 78.2741 129.663 78.3539C129.095 78.5135 128.568 78.7916 128.116 79.17C127.663 79.5483 127.296 80.0183 127.039 80.5489C126.635 81.2705 126.287 82.0224 126 82.7979C125.227 81.7679 124.358 80.8149 123.405 79.9499C122.408 79.0939 121.107 78.0139 119.693 78.0169L117.907 78.0189C117.056 78.0203 116.206 78.0216 115.357 78.0229C114.737 78.0259 113.367 77.8629 113.691 78.8709C113.771 79.1149 114.047 79.3339 114.204 79.5369L114.717 80.2539L115.437 81.4619L117.017 84.4719C118.201 86.6716 119.572 88.7659 121.113 90.7319C122.276 92.1679 123.68 93.6179 125.418 94.3299C124.106 96.7679 122.797 99.2079 121.492 101.65L117.862 108.24C117.66 108.557 117.531 108.916 117.483 109.289C117.484 109.963 118.485 109.983 118.963 109.986L120.513 109.97C121.411 109.96 122.309 109.95 123.207 109.94L124.807 109.904C125.473 109.845 126.118 109.645 126.7 109.316C127.282 108.988 127.786 108.538 128.18 107.998C128.438 107.638 130.852 103.678 131.83 102.078L133.357 99.6619L134.883 102.078L138.533 107.998C138.927 108.538 139.431 108.988 140.013 109.316C140.595 109.645 141.24 109.845 141.906 109.904C142.436 109.954 142.976 109.934 143.506 109.94C144.403 109.949 145.301 109.959 146.2 109.97L147.75 109.986C148.228 109.983 149.23 109.963 149.23 109.289C149.183 108.915 149.053 108.557 148.85 108.239L148.68 107.937L145.223 101.65C143.914 99.2099 142.604 96.7699 141.293 94.3299C143.033 93.6169 144.436 92.1679 145.599 90.7319C147.141 88.7659 148.512 86.6719 149.696 84.4719L151.278 81.4619L151.998 80.2539C152.158 80.0069 152.328 79.7669 152.51 79.5369C152.715 79.3429 152.888 79.1169 153.024 78.8709C153.348 77.8629 151.978 78.0259 151.359 78.0229C150.507 78.0216 149.656 78.0203 148.806 78.0189L148.8 78.0199Z" fill="#F9C638"/>
<path d="M136.3 83.633L136.572 83.587C136.697 83.5606 136.821 83.5248 136.941 83.48C137.187 83.3945 137.415 83.265 137.614 83.098C137.704 83.0341 137.779 82.9529 137.837 82.859C137.049 82.874 136.462 82.869 136.074 82.839C135.968 82.823 135.891 83.096 135.841 83.639C135.836 83.681 136.091 83.654 136.301 83.625M132.33 87.298C132.32 87.308 132.315 87.324 132.315 87.338C132.315 87.352 132.325 87.372 132.337 87.383C132.374 87.418 132.415 87.449 132.457 87.477C132.707 87.643 133 87.729 133.299 87.725C133.599 87.7305 133.894 87.6439 134.143 87.477C134.187 87.4489 134.229 87.4175 134.269 87.383C134.299 87.358 134.313 87.319 134.291 87.283C134.263 87.255 134.219 87.255 134.191 87.281L134.078 87.366C133.846 87.5143 133.576 87.593 133.301 87.593C133.026 87.593 132.757 87.5143 132.525 87.366H132.523C132.486 87.3397 132.451 87.3113 132.417 87.281C132.405 87.271 132.389 87.265 132.372 87.266C132.355 87.267 132.34 87.276 132.33 87.286V87.298ZM135.784 86.782C135.781 86.7756 135.778 86.7689 135.776 86.762C135.778 86.769 135.781 86.776 135.786 86.782H135.784ZM137.641 84.578C137.572 84.4253 137.469 84.2905 137.34 84.184C136.98 83.914 136.48 83.934 136.143 84.234C136.001 84.3786 135.887 84.5481 135.806 84.734C135.604 85.1672 135.505 85.6412 135.516 86.119C135.525 86.3373 135.61 86.5457 135.755 86.709C135.946 86.8833 136.186 86.9941 136.443 87.026C136.696 87.102 136.967 87.091 137.211 86.993C137.454 86.815 137.617 86.5479 137.664 86.25C137.777 85.901 137.826 85.5345 137.81 85.168C137.789 84.9595 137.732 84.7563 137.64 84.568L137.641 84.578Z" fill="#2A2D2C"/>
<path d="M136.767 85.458C136.891 85.4107 137.02 85.3746 137.151 85.35C136.871 85.37 136.725 85.257 136.699 85.012L136.647 84.512C136.657 84.734 136.614 84.955 136.523 85.157C136.49 85.213 136.444 85.2595 136.388 85.292L136.221 85.345C136.159 85.3671 136.095 85.3812 136.03 85.387C136.336 85.36 136.5 85.437 136.527 85.607L136.627 86.092C136.632 85.712 136.684 85.507 136.777 85.468M137.15 86.216L137.12 85.901C137.125 86.038 137.1 86.174 137.047 86.301C137.024 86.336 136.994 86.365 136.947 86.386L136.849 86.416C136.809 86.429 136.769 86.438 136.729 86.442C136.915 86.426 137.029 86.472 137.029 86.577L137.082 86.873C137.082 86.639 137.112 86.516 137.175 86.493C137.25 86.4619 137.329 86.4391 137.409 86.425C137.237 86.435 137.145 86.363 137.129 86.225" fill="white"/>
<path d="M130.742 83.647C130.688 83.095 130.612 82.822 130.508 82.847C130.108 82.877 129.533 82.882 128.743 82.867C128.801 82.9604 128.876 83.0416 128.965 83.106C129.165 83.2727 129.393 83.4021 129.638 83.488C129.758 83.5324 129.881 83.5681 130.006 83.595C130.032 83.601 130.146 83.622 130.278 83.641C130.478 83.671 130.743 83.698 130.741 83.655M130.804 86.793L130.812 86.773C130.81 86.78 130.807 86.786 130.804 86.793ZM128.78 85.18C128.763 85.5466 128.812 85.9132 128.926 86.262C128.949 86.4096 129 86.5512 129.078 86.6788C129.155 86.8063 129.257 86.9172 129.378 87.005C129.623 87.103 129.894 87.105 130.146 87.038C130.403 87.006 130.643 86.896 130.846 86.721C130.991 86.5577 131.076 86.3493 131.085 86.131C131.097 85.653 130.997 85.179 130.785 84.746C130.708 84.5555 130.593 84.3821 130.448 84.236C130.112 83.936 129.612 83.916 129.252 84.186C129.122 84.292 129.02 84.426 128.952 84.58C128.859 84.768 128.8 84.9713 128.78 85.18Z" fill="#2A2D2C"/>
<path d="M129.822 85.458C129.697 85.4107 129.569 85.3746 129.438 85.35C129.718 85.37 129.864 85.257 129.89 85.012L129.942 84.512C129.932 84.734 129.975 84.9552 130.068 85.157C130.1 85.213 130.146 85.259 130.201 85.292L130.368 85.345C130.43 85.367 130.494 85.381 130.56 85.387C130.254 85.36 130.088 85.437 130.063 85.607L129.963 86.092C129.958 85.712 129.906 85.507 129.813 85.468M129.438 86.216L129.47 85.901C129.466 86.0377 129.49 86.1738 129.543 86.3C129.565 86.334 129.595 86.363 129.631 86.385L129.731 86.415C129.771 86.428 129.811 86.437 129.851 86.441C129.664 86.425 129.551 86.471 129.551 86.576L129.499 86.872C129.499 86.638 129.467 86.515 129.406 86.492C129.331 86.4608 129.252 86.438 129.172 86.424C129.344 86.434 129.437 86.362 129.452 86.224M117.98 108.3L117.737 108.797C117.666 108.951 117.624 109.117 117.615 109.286V109.288C117.612 109.401 117.658 109.508 117.74 109.586C117.839 109.67 117.955 109.73 118.08 109.762C118.369 109.83 118.666 109.86 118.963 109.853L119.123 109.854L123.208 109.806L123.488 109.805L123.818 109.806L124.796 109.77C126.096 109.656 127.301 108.97 128.076 107.918C128.26 107.64 128.438 107.359 128.612 107.075L129.626 105.433L131.72 102.008L133.247 99.59C133.259 99.5715 133.276 99.5563 133.295 99.5455C133.315 99.5347 133.337 99.5287 133.359 99.528C133.404 99.526 133.445 99.552 133.459 99.59L134.989 102.008L138.096 107.074L138.633 107.917C139.015 108.442 139.505 108.88 140.071 109.199C140.636 109.519 141.264 109.714 141.911 109.77C142.236 109.798 142.562 109.81 142.889 109.806L143.221 109.805L143.501 109.806C144.398 109.816 145.296 109.826 146.195 109.836L147.595 109.853L147.755 109.852C147.975 109.855 148.195 109.84 148.413 109.809C148.619 109.789 148.816 109.712 148.979 109.584C149.02 109.546 149.052 109.5 149.074 109.449C149.095 109.397 149.106 109.342 149.104 109.286V109.282C149.094 109.112 149.054 108.947 148.984 108.782C148.912 108.609 148.819 108.436 148.74 108.289L148.572 108L145.112 101.7C143.802 99.26 142.493 96.82 141.184 94.38C141.167 94.347 141.164 94.308 141.177 94.273C141.19 94.238 141.217 94.209 141.251 94.195C142.954 93.499 144.347 92.065 145.504 90.637C147.042 88.677 148.408 86.587 149.589 84.394L150.786 82.092C149.868 83.4743 148.73 84.6972 147.418 85.712C145.488 87.267 142.218 88.812 137.613 90.312C133.18 91.7607 129.918 93.4474 127.829 95.372L125.735 97.235C125.292 97.6979 124.857 98.168 124.429 98.645C123.372 99.849 122.382 101.11 121.464 102.423L120.45 103.863L118.15 108L117.982 108.296" fill="white"/>
<path d="M152.804 78.7999C152.762 78.8989 152.701 78.9889 152.625 79.0649L152.329 79.3949L152.327 79.3969C152.139 79.6329 151.964 79.8789 151.801 80.1329L151.078 81.3499L149.495 84.3619C148.317 86.5499 146.955 88.6339 145.42 90.5889C144.267 92.0149 142.884 93.4329 141.208 94.1189C141.148 94.1439 141.098 94.1939 141.076 94.2569C141.054 94.3199 141.059 94.3889 141.09 94.4569C142.402 96.8949 143.712 99.3349 145.02 101.777L148.48 108.067L148.648 108.364L148.888 108.849C148.953 108.99 148.991 109.143 149.001 109.298V109.303C149.005 109.387 148.971 109.469 148.909 109.526C148.759 109.639 148.582 109.708 148.395 109.726C148.182 109.756 147.968 109.769 147.753 109.768H147.578C147.124 109.768 146.666 109.756 146.206 109.752C145.307 109.741 144.409 109.731 143.512 109.722L143.268 109.72L142.888 109.721C142.563 109.721 142.242 109.717 141.931 109.687C141.299 109.631 140.686 109.441 140.133 109.129C139.58 108.817 139.1 108.391 138.726 107.878L138.543 107.598L135.087 101.974L133.557 99.5539C133.514 99.4869 133.439 99.4459 133.359 99.4459C133.279 99.4459 133.205 99.4859 133.161 99.5539C133.16 99.5559 132.005 101.364 131.631 101.974L129.54 105.38L128.527 107.02L128.177 107.578L127.994 107.858C127.237 108.896 126.068 109.555 124.789 109.668C124.479 109.698 124.159 109.702 123.832 109.702C123.706 109.702 123.579 109.701 123.452 109.701L123.208 109.703C122.31 109.711 121.412 109.721 120.514 109.733L119.142 109.749H118.967C118.679 109.756 118.392 109.726 118.112 109.661C118.002 109.635 117.899 109.583 117.812 109.509C117.75 109.452 117.716 109.369 117.722 109.285V109.281C117.732 109.126 117.77 108.973 117.835 108.831C117.905 108.664 117.995 108.494 118.073 108.346L118.24 108.05L121.7 101.76C123.009 99.3199 124.317 96.8799 125.626 94.4399C125.658 94.3819 125.663 94.3119 125.641 94.2399C125.619 94.1679 125.571 94.1269 125.509 94.1019C123.833 93.4169 122.449 91.9989 121.297 90.5719C119.764 88.6159 118.401 86.5319 117.224 84.3449L115.641 81.3329L114.917 80.1169C114.754 79.8629 114.579 79.6169 114.391 79.3809C114.296 79.2589 114.186 79.1509 114.094 79.0509C114.018 78.9754 113.958 78.8857 113.916 78.7869C113.893 78.7209 113.88 78.6519 113.878 78.5819C113.874 78.5259 113.892 78.4719 113.928 78.4269C114.018 78.3452 114.131 78.2938 114.252 78.2799C114.44 78.2472 114.63 78.2324 114.82 78.2359L115.36 78.2439C116.211 78.2426 117.061 78.2413 117.91 78.2399C118.505 78.2399 119.1 78.2396 119.695 78.2389H119.702C120.375 78.2689 121.027 78.4789 121.589 78.8509C122.178 79.2252 122.735 79.648 123.253 80.1149C124.195 80.9698 125.054 81.9127 125.817 82.9309C125.87 82.9979 125.954 83.0309 126.037 83.0169C126.12 83.0029 126.191 82.9469 126.22 82.8669C126.506 82.103 126.851 81.3624 127.252 80.6519L127.256 80.6439C127.734 79.6969 128.701 78.7789 129.719 78.5719C129.999 78.5199 130.283 78.4964 130.567 78.5019L131.447 78.5159H132.164H135.274L136.154 78.5019C136.438 78.4964 136.722 78.5198 137.001 78.5719C138.019 78.7789 138.987 79.6959 139.465 80.6439L139.469 80.6519C139.87 81.3626 140.215 82.1031 140.501 82.8669C140.531 82.9469 140.601 83.0049 140.684 83.0169C140.767 83.0289 140.854 82.9969 140.904 82.9309C141.667 81.9129 142.525 80.9699 143.467 80.1149C143.986 79.6482 144.544 79.2255 145.133 78.8509C145.695 78.4809 146.347 78.2689 147.02 78.2389H147.026C147.621 78.2389 148.216 78.2393 148.812 78.2399C149.661 78.2413 150.512 78.2426 151.364 78.2439H151.382L151.902 78.2359C152.142 78.2259 152.384 78.2539 152.617 78.3199C152.684 78.3401 152.744 78.3769 152.793 78.4269C152.829 78.4705 152.846 78.5259 152.842 78.5819C152.84 78.6518 152.827 78.7209 152.804 78.7869V78.7999ZM153.148 78.1359C152.992 77.9729 152.785 77.8659 152.562 77.8359C152.344 77.7959 152.122 77.7789 151.902 77.7829L151.362 77.7909C150.511 77.7896 149.66 77.7883 148.809 77.7869C148.213 77.7869 147.609 77.7849 147.023 77.7849H147.017C146.259 77.8142 145.523 78.0492 144.888 78.4649C144.276 78.8529 143.688 79.2909 143.158 79.7649C142.29 80.545 141.496 81.4036 140.786 82.3299C140.521 81.6779 140.216 81.0429 139.873 80.4299C139.32 79.2959 138.307 78.4539 137.091 78.1199C136.791 78.0599 136.465 78.0339 136.149 78.0399L135.269 78.0539H134.552H133.356H132.16H131.44C131.165 78.0539 130.867 78.0399 130.562 78.0399C130.245 78.0339 129.929 78.0599 129.618 78.1199C128.398 78.4559 127.385 79.2999 126.833 80.4379C126.491 81.0499 126.188 81.6819 125.923 82.3309C125.213 81.4043 124.419 80.5456 123.551 79.7659C123.011 79.2819 122.434 78.8439 121.823 78.4659C121.188 78.0502 120.452 77.8152 119.694 77.7859H119.681L117.901 77.7879C117.05 77.7893 116.2 77.7906 115.351 77.7919H115.334C115.197 77.7919 115.011 77.7839 114.814 77.7839C114.519 77.7727 114.223 77.8102 113.94 77.8949C113.796 77.9419 113.667 78.0257 113.565 78.1379C113.457 78.2664 113.399 78.43 113.403 78.5979C113.405 78.7163 113.425 78.8337 113.463 78.9459C113.525 79.1074 113.618 79.2546 113.738 79.3789L114.014 79.6839C114.192 79.9069 114.359 80.1399 114.514 80.3809L115.229 81.5809L116.809 84.5809C118 86.7922 119.377 88.8976 120.927 90.8739C122.047 92.2559 123.403 93.6619 125.092 94.4299C123.819 96.7966 122.552 99.1646 121.292 101.534L117.662 108.134L117.404 108.659C117.314 108.857 117.264 109.069 117.256 109.287V109.297C117.255 109.401 117.276 109.504 117.316 109.6C117.357 109.696 117.417 109.782 117.492 109.854C117.709 110.034 117.974 110.147 118.254 110.177C118.49 110.21 118.729 110.227 118.968 110.223H119.146L123.216 110.176L123.456 110.175H123.836L124.838 110.138C126.252 110.013 127.543 109.283 128.378 108.136L128.578 107.833L132.038 102.203L132.938 100.771L133.365 100.101L133.791 100.771L134.691 102.203L136.785 105.629L137.8 107.273L138.15 107.833L138.348 108.136C138.761 108.703 139.291 109.175 139.901 109.52C140.512 109.866 141.189 110.077 141.888 110.139C142.221 110.167 142.556 110.18 142.89 110.176H143.27L143.51 110.177L147.582 110.224H147.76C148.09 110.232 148.42 110.196 148.743 110.118C148.926 110.072 149.096 109.981 149.237 109.855C149.392 109.709 149.477 109.505 149.474 109.292V109.287C149.466 109.07 149.416 108.856 149.326 108.658C149.244 108.461 149.146 108.278 149.066 108.132L148.892 107.824L145.438 101.544C144.168 99.1773 142.897 96.8093 141.626 94.4399C143.316 93.6719 144.669 92.2659 145.79 90.8839C147.34 88.9076 148.719 86.8022 149.91 84.5909L151.49 81.5909L152.205 80.3909C152.359 80.1505 152.526 79.9179 152.703 79.6939V79.6959C152.767 79.6129 152.873 79.5079 152.98 79.3899C153.1 79.2661 153.194 79.1191 153.255 78.9579C153.293 78.8459 153.313 78.7279 153.315 78.6079C153.319 78.4399 153.261 78.2759 153.153 78.1479L153.148 78.1359Z" fill="#2A2D2C"/>
<path d="M186.37 84.2799C185.34 84.8199 184.957 85.7299 184.957 88.2459C185.335 87.9059 185.774 87.6389 186.252 87.4619C186.724 87.2837 187.169 87.0418 187.575 86.7429C188.445 86.1059 188.579 85.2849 188.579 83.9029C188.579 83.9029 187.161 83.8629 186.369 84.2789" fill="#F9C638"/>
<path d="M180.265 84.868C179.728 85.3914 179.352 86.0571 179.18 86.787L176.4 97.554L174.088 88.742C173.863 87.805 173.458 86.647 172.816 85.864C171.998 84.866 170.336 84.804 170.158 84.804C169.98 84.804 168.318 84.866 167.5 85.864C166.858 86.647 166.452 87.804 166.227 88.742L163.927 97.554L161.147 86.787C160.976 86.0567 160.6 85.3904 160.063 84.867C158.703 83.667 156.661 83.924 156.661 83.924L161.983 104.046C161.983 104.046 163.739 104.172 164.617 103.724C165.771 103.136 166.32 102.682 167.019 99.944L169.544 89.824C169.624 89.572 169.726 88.969 170.169 88.969C170.622 88.969 170.715 89.571 170.794 89.824C170.954 90.324 172.697 97.504 173.319 99.944C174.017 102.681 174.567 103.136 175.719 103.724C176.597 104.172 178.353 104.046 178.353 104.046L183.673 83.924C183.673 83.924 181.633 83.667 180.271 84.867M188.586 87.2C188.293 87.5879 187.92 87.9084 187.493 88.14C187.005 88.412 186.537 88.597 186.035 88.838C185.193 89.242 184.965 89.692 184.965 90.378V104.038C184.965 104.038 186.308 104.208 187.185 103.76C188.315 103.184 188.585 102.628 188.585 100.126L188.586 87.2ZM201.842 94.034L208.594 83.991C208.594 83.991 205.744 83.506 204.334 84.791C203.627 85.4968 202.986 86.2668 202.421 87.091L199.937 90.673C199.901 90.7856 199.831 90.884 199.735 90.954C199.64 91.0241 199.525 91.0622 199.407 91.063C199.164 91.063 198.95 90.906 198.877 90.663L196.4 87.1C195.835 86.276 195.195 85.506 194.487 84.8C193.087 83.516 190.227 84 190.227 84L196.979 94.043L190.244 104.055C190.244 104.055 193.212 104.429 194.622 103.155C195.288 102.5 195.884 101.776 196.399 100.997L198.884 97.415C198.92 97.3024 198.991 97.204 199.086 97.1339C199.181 97.0639 199.296 97.0257 199.414 97.025C199.657 97.025 199.871 97.182 199.944 97.425L202.428 101.007C202.968 101.782 203.581 102.504 204.258 103.165C205.658 104.449 208.585 104.065 208.585 104.065L201.851 94.053" fill="#2A2D2C"/>
</svg>
