<svg width="750" height="500" viewBox="0 0 750 500" fill="none" xmlns="http://www.w3.org/2000/svg">
<path d="M381.621 440.333C506.414 440.333 607.579 436.941 607.579 432.757C607.579 428.573 506.414 425.181 381.621 425.181C256.828 425.181 155.663 428.573 155.663 432.757C155.663 436.941 256.828 440.333 381.621 440.333Z" fill="#7DD6F5"/>
<path d="M535.514 222.452H586.621C588.362 222.452 589.774 223.864 589.774 225.605V286.373C589.774 288.114 588.362 289.526 586.621 289.526H535.514" stroke="#2F9FB6" stroke-width="2.1019" stroke-miterlimit="10" stroke-linecap="round" stroke-dasharray="2.1 5.25"/>
<path d="M402.757 173.435V172.384" stroke="#2F9FB6" stroke-width="2.1019" stroke-miterlimit="10" stroke-linecap="round"/>
<path d="M402.757 167.043V147.316C402.757 145.575 401.345 144.163 399.604 144.163H259.885C258.144 144.163 256.732 145.574 256.732 147.316V169.714" stroke="#2F9FB6" stroke-width="2.1019" stroke-miterlimit="10" stroke-linecap="round" stroke-dasharray="2.14 5.34"/>
<path d="M256.732 172.384V173.435" stroke="#2F9FB6" stroke-width="2.1019" stroke-miterlimit="10" stroke-linecap="round"/>
<path d="M319.312 390.372H206.189C204.448 390.372 203.036 388.961 203.036 387.219V320.705H322.465V387.219C322.465 388.961 321.054 390.372 319.312 390.372Z" stroke="#2F9FB6" stroke-width="2.1019" stroke-miterlimit="10" stroke-linecap="round" stroke-dasharray="2.1 5.25"/>
<path d="M402.757 375.855H348.023V416.208H402.757V375.855Z" fill="#002353"/>
<path d="M457.421 432.757H297.535V424.483C297.535 419.913 301.239 416.209 305.809 416.209H449.147C453.717 416.209 457.421 419.913 457.421 424.483V432.757Z" fill="#1E476D"/>
<path d="M385.62 157.314L367.344 126.542C370.957 116.982 371.095 106.085 366.887 95.8939C358.097 74.6059 333.713 64.4739 312.425 73.2639C291.137 82.0539 281.005 106.438 289.795 127.726C298.585 149.014 322.969 159.146 344.257 150.356C347.884 148.858 351.178 146.899 354.119 144.589C367.693 150.126 385.62 157.314 385.62 157.314Z" fill="#097D8B"/>
<path d="M316.244 112.561C316.244 115.792 313.625 118.411 310.394 118.411C307.163 118.411 304.544 115.792 304.544 112.561C304.544 109.33 307.163 106.711 310.394 106.711C313.625 106.711 316.244 109.33 316.244 112.561Z" fill="white"/>
<path d="M333.114 112.561C333.114 115.792 330.495 118.411 327.264 118.411C324.033 118.411 321.414 115.792 321.414 112.561C321.414 109.33 324.033 106.711 327.264 106.711C330.495 106.711 333.114 109.33 333.114 112.561Z" fill="white"/>
<path d="M349.984 112.561C349.984 115.792 347.365 118.411 344.134 118.411C340.903 118.411 338.284 115.792 338.284 112.561C338.284 109.33 340.903 106.711 344.134 106.711C347.365 106.711 349.984 109.33 349.984 112.561Z" fill="white"/>
<path d="M595.418 175.882H591.216C590.883 174.793 590.444 173.752 589.906 172.77L592.77 169.905C593.373 169.302 593.373 168.324 592.77 167.721L588.295 163.246C587.692 162.643 586.714 162.643 586.111 163.246L583.241 166.116C582.225 165.562 581.142 165.12 580.013 164.786V160.891C580.013 160.038 579.322 159.347 578.469 159.347H572.141C571.288 159.347 570.597 160.038 570.597 160.891V164.786C569.427 165.132 568.31 165.599 567.262 166.181L564.62 163.539C564.017 162.936 563.039 162.936 562.436 163.539L557.961 168.014C557.358 168.617 557.358 169.595 557.961 170.198L560.644 172.882C560.068 173.954 559.618 175.101 559.287 176.297H555.607C554.754 176.297 554.063 176.988 554.063 177.841V184.169C554.063 185.022 554.754 185.713 555.607 185.713H559.43C559.798 186.884 560.303 187.992 560.908 189.036L558.254 191.69C557.651 192.293 557.651 193.271 558.254 193.874L562.729 198.349C563.332 198.952 564.31 198.952 564.913 198.349L567.731 195.531C568.766 196.063 569.864 196.484 571.011 196.791V200.704C571.011 201.557 571.702 202.248 572.555 202.248H578.883C579.736 202.248 580.427 201.557 580.427 200.704V196.558C581.515 196.205 582.55 195.739 583.527 195.18L586.403 198.056C587.006 198.659 587.984 198.659 588.587 198.056L593.062 193.581C593.665 192.978 593.665 192 593.062 191.397L590.058 188.393C590.568 187.414 590.98 186.379 591.289 185.299H595.416C596.269 185.299 596.96 184.608 596.96 183.755V177.427C596.963 176.574 596.271 175.882 595.418 175.882ZM575.305 187.99C571.305 187.99 568.051 184.736 568.051 180.736C568.051 176.736 571.305 173.482 575.305 173.482C579.305 173.482 582.559 176.736 582.559 180.736C582.56 184.736 579.305 187.99 575.305 187.99Z" fill="#DA9500"/>
<path d="M189.581 369.93H184.428C184.02 368.595 183.481 367.317 182.821 366.113L186.334 362.6C187.074 361.86 187.074 360.661 186.334 359.922L180.847 354.435C180.108 353.695 178.908 353.695 178.169 354.435L174.649 357.955C173.403 357.276 172.075 356.734 170.69 356.324V351.548C170.69 350.502 169.842 349.654 168.796 349.654H161.036C159.99 349.654 159.142 350.502 159.142 351.548V356.324C157.707 356.748 156.337 357.321 155.052 358.034L151.812 354.794C151.072 354.054 149.873 354.054 149.134 354.794L143.647 360.281C142.907 361.021 142.907 362.22 143.647 362.959L146.938 366.25C146.231 367.565 145.68 368.971 145.273 370.438H140.76C139.714 370.438 138.866 371.286 138.866 372.332V380.092C138.866 381.138 139.714 381.986 140.76 381.986H145.448C145.899 383.422 146.519 384.78 147.261 386.061L144.007 389.315C143.267 390.055 143.267 391.254 144.007 391.993L149.494 397.48C150.234 398.22 151.433 398.22 152.172 397.48L155.628 394.024C156.898 394.677 158.244 395.192 159.65 395.569V400.367C159.65 401.413 160.498 402.261 161.544 402.261H169.304C170.35 402.261 171.198 401.413 171.198 400.367V395.282C172.532 394.849 173.802 394.278 175 393.593L178.527 397.12C179.266 397.86 180.466 397.86 181.205 397.12L186.692 391.633C187.432 390.893 187.432 389.694 186.692 388.955L183.008 385.271C183.634 384.071 184.139 382.801 184.518 381.476H189.579C190.625 381.476 191.473 380.628 191.473 379.582V371.822C191.475 370.778 190.627 369.93 189.581 369.93ZM164.917 384.778C160.012 384.778 156.021 380.788 156.021 375.882C156.021 370.977 160.012 366.986 164.917 366.986C169.822 366.986 173.813 370.977 173.813 375.882C173.813 380.787 169.822 384.778 164.917 384.778Z" fill="#DA9500"/>
<path d="M496.696 82.6099H418.147V161.159H496.696V82.6099Z" fill="#1E476D"/>
<path d="M489.772 89.731H425.07V142.261H489.772V89.731Z" fill="white"/>
<path d="M425.07 118.724L443.454 102.073L461.025 118.724L476.486 105.641L489.772 118.724V142.261H425.07V118.724Z" fill="#D5D5D7"/>
<path d="M466.016 101.41C466.016 103.783 464.092 105.708 461.719 105.708C459.346 105.708 457.421 103.784 457.421 101.41C457.421 99.0368 459.345 97.1128 461.719 97.1128C464.093 97.1128 466.016 99.0358 466.016 101.41Z" fill="#DA9500"/>
<path d="M191.135 177.543C189.682 177.543 188.281 177.756 186.945 178.126C183.389 172.634 177.221 168.992 170.191 168.992C166.36 168.992 162.793 170.09 159.754 171.962C155.579 163.432 146.817 157.556 136.68 157.556C122.499 157.556 111.003 169.052 111.003 183.233C111.003 183.903 111.037 184.564 111.087 185.221C110.806 185.201 110.525 185.178 110.239 185.178C103.685 185.178 98.373 190.491 98.373 197.044C98.373 203.598 103.686 208.91 110.239 208.91H191.135C199.797 208.91 206.819 201.888 206.819 193.226C206.819 184.564 199.797 177.543 191.135 177.543Z" fill="white"/>
<path d="M544.282 118.612C545.19 118.612 546.065 118.745 546.899 118.976C549.12 115.546 552.972 113.272 557.362 113.272C559.755 113.272 561.982 113.958 563.88 115.127C566.487 109.8 571.96 106.13 578.291 106.13C587.148 106.13 594.328 113.31 594.328 122.167C594.328 122.585 594.307 122.998 594.276 123.408C594.452 123.396 594.627 123.381 594.806 123.381C598.899 123.381 602.217 126.699 602.217 130.792C602.217 134.885 598.899 138.203 594.806 138.203H544.283C538.873 138.203 534.487 133.817 534.487 128.407C534.487 122.998 538.872 118.612 544.282 118.612Z" fill="white"/>
<path d="M236.147 110.576H256.732C253.695 103.894 246.978 99.239 239.16 99.239C230.855 99.239 223.796 104.492 221.069 111.848H153.938C150.237 111.848 147.238 114.848 147.238 118.548C147.238 122.248 150.238 125.249 153.938 125.249H221.069C223.796 132.605 230.855 137.858 239.16 137.858C246.978 137.858 253.695 133.203 256.732 126.521H236.147V110.576ZM153.629 121.429C152.038 121.429 150.748 120.139 150.748 118.547C150.748 116.956 152.038 115.666 153.629 115.666C155.22 115.666 156.51 116.956 156.51 118.547C156.51 120.139 155.22 121.429 153.629 121.429Z" fill="#95959A"/>
<path d="M520.215 375.855H230.565C222.116 375.855 215.267 369.006 215.267 360.557V188.733C215.267 180.284 222.116 173.435 230.565 173.435H520.215C528.664 173.435 535.513 180.284 535.513 188.733V360.557C535.514 369.006 528.664 375.855 520.215 375.855Z" fill="#1E476D"/>
<path d="M525.715 188.733C525.715 185.7 523.248 183.233 520.216 183.233H230.566C227.533 183.233 225.066 185.7 225.066 188.733V205.814H525.715V188.733Z" fill="#D7D8DC"/>
<path d="M225.065 205.814V344.436C225.065 347.469 227.532 349.936 230.565 349.936H520.215C523.247 349.936 525.714 347.469 525.714 344.436V205.814H225.065Z" fill="#097D8B"/>
<path d="M457.13 214.087H267.64V349.935H457.13V214.087Z" fill="#ECEDEF"/>
<path d="M425.124 289.525H296.072V295.083H425.124V289.525Z" fill="#DA9500"/>
<path d="M425.124 304.421H296.072V309.979H425.124V304.421Z" fill="#ADACB2"/>
<path d="M425.124 319.316H296.072V324.874H425.124V319.316Z" fill="#ADACB2"/>
<path d="M425.124 334.211H296.072V339.769H425.124V334.211Z" fill="#ADACB2"/>
<path d="M492.798 187.12H262.834V200.587H492.798V187.12Z" fill="white"/>
<path d="M503.034 194.524C503.034 195.773 502.021 196.786 500.772 196.786C499.523 196.786 498.51 195.774 498.51 194.524C498.51 193.274 499.523 192.262 500.772 192.262C502.022 192.262 503.034 193.275 503.034 194.524Z" fill="#068695"/>
<path d="M511.397 194.524C511.397 195.773 510.384 196.786 509.135 196.786C507.886 196.786 506.873 195.774 506.873 194.524C506.873 193.274 507.886 192.262 509.135 192.262C510.385 192.262 511.397 193.275 511.397 194.524Z" fill="#E5B449"/>
<path d="M519.76 194.524C519.76 195.773 518.747 196.786 517.498 196.786C516.249 196.786 515.236 195.774 515.236 194.524C515.236 193.274 516.249 192.262 517.498 192.262C518.748 192.262 519.76 193.275 519.76 194.524Z" fill="#BF2F57"/>
<path d="M235.9 192.355L230.869 195.495L235.9 198.635" stroke="#868589" stroke-width="1.3874" stroke-miterlimit="10" stroke-linecap="round" stroke-linejoin="round"/>
<path d="M241.359 192.355L246.39 195.495L241.359 198.635" stroke="#868589" stroke-width="1.3874" stroke-miterlimit="10" stroke-linecap="round" stroke-linejoin="round"/>
<path d="M254.9 190.655L258.838 194.344H257.128V198.393H252.672V194.344H250.963L254.9 190.655ZM254.9 189.518C254.621 189.518 254.341 189.62 254.123 189.825L250.185 193.514C249.845 193.833 249.734 194.327 249.905 194.761C250.076 195.195 250.496 195.48 250.962 195.48H251.535V198.393C251.535 199.021 252.044 199.53 252.672 199.53H257.128C257.756 199.53 258.265 199.021 258.265 198.393V195.48H258.838C259.304 195.48 259.724 195.195 259.895 194.761C260.066 194.327 259.955 193.833 259.615 193.514L255.677 189.825C255.459 189.621 255.179 189.518 254.9 189.518Z" fill="#868589"/>
<path d="M489.645 282.303H449.938C448.197 282.303 446.785 280.891 446.785 279.15V233.1C446.785 231.359 448.197 229.947 449.938 229.947H489.645C491.386 229.947 492.798 231.358 492.798 233.1V279.15C492.798 280.891 491.387 282.303 489.645 282.303Z" fill="#2F9FB6"/>
<path d="M468.556 237.687C469.805 237.687 470.818 236.674 470.818 235.425C470.818 234.176 469.805 233.163 468.556 233.163C467.307 233.163 466.294 234.176 466.294 235.425C466.294 236.674 467.307 237.687 468.556 237.687Z" fill="#068695"/>
<path d="M479.181 235.425C479.181 236.674 478.168 237.687 476.919 237.687C475.67 237.687 474.657 236.674 474.657 235.425C474.657 234.176 475.67 233.163 476.919 233.163C478.168 233.164 479.181 234.176 479.181 235.425Z" fill="#E5B449"/>
<path d="M485.282 237.687C486.531 237.687 487.544 236.674 487.544 235.425C487.544 234.176 486.531 233.163 485.282 233.163C484.033 233.163 483.02 234.176 483.02 235.425C483.02 236.674 484.033 237.687 485.282 237.687Z" fill="#BF2F57"/>
<path d="M452.04 273.895V240.712H487.544V273.895C487.544 275.636 486.132 277.048 484.391 277.048H455.193C453.451 277.048 452.04 275.637 452.04 273.895Z" fill="white"/>
<path d="M472.86 258.46C475.391 257.272 477.148 254.708 477.148 251.728C477.148 247.619 473.817 244.287 469.707 244.287C465.597 244.287 462.266 247.618 462.266 251.728C462.266 254.709 464.023 257.272 466.554 258.46C463.04 259.607 460.499 262.907 460.499 266.804V277.048H478.915V266.804C478.915 262.907 476.374 259.607 472.86 258.46Z" fill="#ADACB2"/>
<path d="M281.213 331.825H142.579C140.838 331.825 139.426 330.414 139.426 328.672V250.378C139.426 248.637 140.838 247.225 142.579 247.225H281.213C282.954 247.225 284.366 248.637 284.366 250.378V328.672C284.366 330.414 282.954 331.825 281.213 331.825Z" fill="#2F9FB6"/>
<path d="M144.326 323.256V259.187H279.466V323.256C279.466 325.283 277.823 326.926 275.796 326.926H147.996C145.969 326.926 144.326 325.282 144.326 323.256Z" fill="white"/>
<path d="M185.306 294.685V292.402L203.682 283.042V286.695L189.586 293.486L189.7 293.258V293.829L189.586 293.6L203.682 300.391V304.044L185.306 294.685ZM221.149 274.368L211.732 309.351H208.651L218.067 274.368H221.149ZM244.487 294.685L226.11 304.044V300.391L240.206 293.6L240.092 293.829V293.258L240.206 293.486L226.11 286.695V283.042L244.487 292.402V294.685Z" fill="#DA9500"/>
<path d="M213.395 319.316H152.217V322.095H213.395V319.316Z" fill="#ADACB2"/>
<path d="M258.994 253.845C258.994 255.094 257.981 256.107 256.732 256.107C255.483 256.107 254.47 255.094 254.47 253.845C254.47 252.596 255.483 251.583 256.732 251.583C257.981 251.583 258.994 252.596 258.994 253.845Z" fill="#068695"/>
<path d="M267.357 253.845C267.357 255.094 266.344 256.107 265.095 256.107C263.846 256.107 262.833 255.094 262.833 253.845C262.833 252.596 263.846 251.583 265.095 251.583C266.344 251.583 267.357 252.596 267.357 253.845Z" fill="#E5B449"/>
<path d="M275.72 253.845C275.72 255.094 274.707 256.107 273.458 256.107C272.209 256.107 271.196 255.094 271.196 253.845C271.196 252.596 272.209 251.583 273.458 251.583C274.707 251.583 275.72 252.596 275.72 253.845Z" fill="#BF2F57"/>
<path d="M612.394 273.626H555.44V361.812H624.986V286.217L612.394 273.626Z" fill="#D5D5D7"/>
<path d="M612.394 286.217H624.986L612.394 273.626V286.217Z" fill="#C1C1C4"/>
<path d="M616.637 302.665H563.803V306.755H616.637V302.665Z" fill="#95959A"/>
<path d="M616.637 294.833H563.803V298.923H616.637V294.833Z" fill="#95959A"/>
<path d="M616.637 310.496H563.803V314.586H616.637V310.496Z" fill="#95959A"/>
<path d="M616.637 318.328H563.803V322.418H616.637V318.328Z" fill="#95959A"/>
<path d="M616.637 326.16H563.803V330.25H616.637V326.16Z" fill="#95959A"/>
<path d="M616.637 333.991H563.803V338.081H616.637V333.991Z" fill="#95959A"/>
<path d="M616.637 341.823H563.803V345.913H616.637V341.823Z" fill="#95959A"/>
<path d="M616.637 349.655H563.803V353.745H616.637V349.655Z" fill="#95959A"/>
<path d="M568.352 245.432H511.397V333.618H580.943V258.024L568.352 245.432Z" fill="#ECEDEF"/>
<path d="M568.352 258.024H580.943L568.352 245.432V258.024Z" fill="#D7D8DC"/>
<path d="M572.594 274.471H519.76V278.561H572.594V274.471Z" fill="#ADACB2"/>
<path d="M572.594 266.639H519.76V270.729H572.594V266.639Z" fill="#ADACB2"/>
<path d="M572.594 282.303H519.76V286.393H572.594V282.303Z" fill="#ADACB2"/>
<path d="M572.594 290.134H519.76V294.224H572.594V290.134Z" fill="#ADACB2"/>
<path d="M572.594 297.966H519.76V302.056H572.594V297.966Z" fill="#ADACB2"/>
<path d="M572.594 305.798H519.76V309.888H572.594V305.798Z" fill="#ADACB2"/>
<path d="M572.594 313.629H519.76V317.719H572.594V313.629Z" fill="#ADACB2"/>
<path d="M572.594 321.461H519.76V325.551H572.594V321.461Z" fill="#ADACB2"/>
<path d="M562.154 400.148H491.88V383.822H562.154C566.662 383.822 570.317 387.477 570.317 391.985C570.316 396.493 566.662 400.148 562.154 400.148Z" fill="#1E476D"/>
<path d="M491.879 385.945H486.906V398.023H491.879V385.945Z" fill="#002353"/>
<path d="M486.906 389.269H429.102V394.701H486.906V389.269Z" fill="#95959A"/>
<path d="M433.587 397.116L415.885 395.145V388.825L433.587 386.853V397.116Z" fill="#ADACB2"/>
<path d="M354.5 267.9H349.88V268.38C351.324 268.38 351.564 268.68 351.564 270.498V273.771C351.564 275.601 351.324 275.937 349.88 275.937C348.773 275.793 348.003 275.167 346.992 274.06L345.789 272.76C347.377 272.46 348.244 271.46 348.244 270.354C348.244 268.958 347.041 267.851 344.779 267.851H340.255V268.331C341.699 268.331 341.939 268.631 341.939 270.449V273.722C341.939 275.552 341.699 275.888 340.255 275.888V276.368H345.357V275.888C343.913 275.888 343.673 275.551 343.673 273.722V272.808H344.106L346.946 276.368H354.454C358.16 276.368 359.748 274.395 359.748 272.085C359.796 269.823 358.208 267.898 354.502 267.898L354.5 267.9ZM343.72 272.087V268.68H344.78C345.935 268.68 346.464 269.498 346.464 270.413C346.464 271.328 345.934 272.097 344.78 272.097L343.72 272.087ZM354.597 275.647H354.404C353.49 275.647 353.344 275.407 353.344 274.251V268.671H354.594C357.289 268.671 357.77 270.644 357.77 272.136C357.77 273.724 357.24 275.649 354.594 275.649L354.597 275.647ZM325.912 273.06L327.692 267.814C328.222 266.274 327.992 265.841 326.344 265.841V265.311H331.204V265.841C329.568 265.841 329.184 266.226 328.557 268.103L325.62 276.9H325.235L322.588 268.863L319.94 276.9H319.603L316.763 268.093C316.137 266.216 315.763 265.831 314.26 265.831V265.301H319.94V265.831C318.4 265.831 318.015 266.168 318.544 267.804L320.277 273.05L322.877 265.3H323.357L325.912 273.06ZM334.67 276.815C331.83 276.815 329.52 274.745 329.52 272.195C329.52 269.692 331.82 267.575 334.67 267.575C337.52 267.575 339.82 269.645 339.82 272.195C339.82 274.745 337.52 276.815 334.67 276.815ZM334.67 268.345C332.312 268.345 331.494 270.463 331.494 272.147C331.494 273.831 332.312 275.949 334.67 275.949C337.076 275.949 337.895 273.831 337.895 272.147C337.895 270.511 337.077 268.345 334.67 268.345ZM366.147 275.948V276.478H360.227V275.948C361.96 275.948 362.247 275.515 362.247 272.916V268.776C362.247 266.176 361.947 265.792 360.227 265.792V265.262H365.569C368.216 265.262 369.709 266.61 369.709 268.438C369.709 270.218 368.217 271.614 365.569 271.614H364.125V272.962C364.125 275.512 364.425 275.946 366.145 275.946L366.147 275.948ZM365.569 266.226H364.125V270.702H365.569C367.013 270.702 367.687 269.702 367.687 268.488C367.687 267.274 367.013 266.226 365.569 266.226ZM387.372 274.07L387.228 274.55C386.988 275.416 386.698 275.705 384.87 275.705H384.533C383.185 275.705 382.945 275.405 382.945 273.587V272.384C384.965 272.384 385.111 272.577 385.111 273.924H385.591V270.074H385.111C385.111 271.422 384.967 271.614 382.945 271.614V268.73H384.341C386.171 268.73 386.459 269.03 386.699 269.885L386.843 270.365H387.276L387.083 267.959H379.527V268.439C380.971 268.439 381.211 268.739 381.211 270.557V273.83C381.211 275.514 381.018 275.948 379.863 275.996C378.803 275.852 378.033 275.226 377.023 274.119L375.82 272.819C377.408 272.519 378.275 271.519 378.275 270.413C378.275 269.017 377.072 267.91 374.81 267.91H370.286V268.39C371.73 268.39 371.97 268.69 371.97 270.508V273.781C371.97 275.611 371.73 275.947 370.286 275.947V276.427H375.388V275.947C373.944 275.947 373.704 275.61 373.704 273.781V272.867H374.137L376.977 276.427H387.565L387.709 274.021H387.372V274.07ZM373.752 272.097V268.68H374.812C375.967 268.68 376.496 269.498 376.496 270.413C376.496 271.328 375.966 272.097 374.812 272.097H373.752Z" fill="#00749A"/>
<path d="M392.618 276.815C391.608 276.815 390.693 276.285 390.318 275.949C390.174 276.093 389.981 276.479 389.885 276.815H389.405V273.255H389.935C390.128 274.939 391.331 275.95 392.823 275.95C393.641 275.95 394.315 275.47 394.315 274.7C394.315 274.026 393.737 273.497 392.679 273.016L391.235 272.342C390.225 271.862 389.455 270.994 389.455 269.887C389.455 268.637 390.61 267.587 392.198 267.587C393.064 267.587 393.786 267.877 394.218 268.261C394.362 268.165 394.458 267.876 394.555 267.587H395.035V270.619H394.505C394.312 269.416 393.639 268.405 392.291 268.405C391.569 268.405 390.895 268.838 390.895 269.465C390.895 270.139 391.425 270.475 392.675 271.053L394.071 271.727C395.321 272.305 395.804 273.267 395.804 274.027C395.756 275.663 394.36 276.817 392.628 276.817L392.618 276.815Z" fill="#00749A"/>
<path d="M400.56 276.815C399.55 276.815 398.635 276.285 398.26 275.949C398.116 276.093 397.923 276.479 397.827 276.815H397.347V273.255H397.877C398.07 274.939 399.273 275.95 400.765 275.95C401.583 275.95 402.257 275.47 402.257 274.7C402.257 274.026 401.679 273.497 400.621 273.016L399.177 272.342C398.167 271.862 397.397 270.994 397.397 269.887C397.397 268.637 398.552 267.587 400.14 267.587C401.006 267.587 401.728 267.877 402.16 268.261C402.304 268.165 402.4 267.876 402.497 267.587H402.977V270.619H402.447C402.254 269.416 401.581 268.405 400.233 268.405C399.511 268.405 398.837 268.838 398.837 269.465C398.837 270.139 399.367 270.475 400.617 271.053L402.013 271.727C403.263 272.305 403.746 273.267 403.746 274.027C403.698 275.663 402.302 276.817 400.57 276.817L400.56 276.815Z" fill="#00749A"/>
<path d="M345.803 246.485C345.803 251.719 348.81 256.229 353.209 258.345L346.973 241.14C346.249 242.81 345.803 244.591 345.803 246.485ZM367.91 245.815C367.91 244.2 367.297 243.031 366.796 242.195C366.128 241.081 365.516 240.19 365.516 239.077C365.516 237.852 366.463 236.737 367.743 236.737H367.91C365.57 234.569 362.452 233.287 359.01 233.287C354.388 233.343 350.38 235.681 347.985 239.245H348.82C350.212 239.245 352.328 239.078 352.328 239.078C353.052 239.022 353.108 240.08 352.428 240.192C352.428 240.192 351.704 240.292 350.925 240.292L355.725 254.547L358.62 245.917L356.56 240.293L355.168 240.193C354.444 240.137 354.555 239.079 355.224 239.079C355.224 239.079 357.396 239.246 358.676 239.246C360.068 239.246 362.184 239.079 362.184 239.079C362.908 239.023 362.964 240.081 362.284 240.193C362.284 240.193 361.56 240.293 360.781 240.293L365.581 254.493L366.917 250.093C367.474 248.255 367.919 246.975 367.919 245.805L367.91 245.815ZM359.223 247.655L355.27 259.125C356.44 259.459 357.72 259.682 359 259.682C360.56 259.682 362.007 259.404 363.4 258.958C363.344 258.902 363.344 258.858 363.3 258.791L359.223 247.655ZM370.583 240.195L370.683 241.531C370.683 242.867 370.46 244.371 369.681 246.264L365.681 257.901C369.579 255.618 372.251 251.386 372.251 246.486C372.195 244.203 371.583 242.086 370.581 240.194L370.583 240.195ZM359 231.116C350.536 231.116 343.632 238.021 343.632 246.484C343.632 254.947 350.536 261.853 359 261.853C367.464 261.853 374.368 254.948 374.368 246.485C374.368 238.022 367.464 231.116 359 231.116ZM359 261.184C350.926 261.184 344.356 254.614 344.356 246.484C344.356 238.4 350.926 231.84 359 231.84C367.074 231.84 373.644 238.41 373.644 246.484C373.644 254.614 367.074 261.184 359 261.184Z" fill="#00749A"/>
</svg>
