<?xml version="1.0" encoding="utf-8"?>
<!-- Generator: Adobe Illustrator 27.5.0, SVG Export Plug-In . SVG Version: 6.00 Build 0)  -->
<svg version="1.1" xmlns="http://www.w3.org/2000/svg" xmlns:xlink="http://www.w3.org/1999/xlink" x="0px" y="0px"
	 viewBox="0 0 500 500" style="enable-background:new 0 0 500 500;" xml:space="preserve">
<g id="BACKGROUND">
	<g>
		<g>
			<rect style="fill:#FFFFFF;" width="500" height="500"/>
			<g>
				<g>
					<g>
						
							<linearGradient id="SVGID_1_" gradientUnits="userSpaceOnUse" x1="-1115.173" y1="189.2491" x2="-1115.173" y2="430.5034" gradientTransform="matrix(-1 0 0 1 -879.5887 0)">
							<stop  offset="0" style="stop-color:#F8FAFB"/>
							<stop  offset="0.5134" style="stop-color:#C6DFF2"/>
							<stop  offset="1" style="stop-color:#F8FAFB"/>
						</linearGradient>
						<path style="fill:url(#SVGID_1_);" d="M46.567,296.265h3.069v-14.303c0-16.987,13.771-30.758,30.757-30.758h5.717v-50.206
							c0-11.263,9.131-20.394,20.394-20.394h53.82v-9.448c0-8.828,7.156-15.984,15.984-15.984h151.369
							c8.828,0,15.984,7.156,15.984,15.984v9.657c9.95,1.354,17.625,9.863,17.625,20.184v44.994h25.527
							c16.987,0,30.758,13.771,30.758,30.758v55.095h6.333c5.739,0,10.391,4.652,10.391,10.391v50.668h-55.492v0h-148.98h-59.319
							H82.487H49.635H36.874v-86.945C36.874,300.605,41.213,296.265,46.567,296.265z"/>
						
							<linearGradient id="SVGID_00000119100790258272283410000012131315454103202967_" gradientUnits="userSpaceOnUse" x1="-1143.4973" y1="189.2491" x2="-1143.4973" y2="430.5034" gradientTransform="matrix(-1 0 0 1 -879.5887 0)">
							<stop  offset="0" style="stop-color:#C6DFF2"/>
							<stop  offset="0.5536" style="stop-color:#E4EFF7"/>
							<stop  offset="1" style="stop-color:#F8FAFB"/>
						</linearGradient>
						<path style="fill:url(#SVGID_00000119100790258272283410000012131315454103202967_);" d="M64.384,296.265h3.069v-14.303
							c0-16.987,13.771-30.758,30.757-30.758h5.717v-50.206c0-11.263,9.131-20.394,20.394-20.394h74.834v-9.448
							c0-8.828,7.156-15.984,15.984-15.984h151.369c8.828,0,15.984,7.156,15.984,15.984v9.657
							c9.95,1.354,17.625,9.863,17.625,20.184v44.994h25.527c16.987,0,30.758,13.771,30.758,30.758v55.095h6.333
							c5.739,0,10.391,4.652,10.391,10.391v50.668h-55.492v0h-148.98h-59.319H100.304H67.453H54.691v-86.945
							C54.691,300.605,59.031,296.265,64.384,296.265z"/>
						
							<linearGradient id="SVGID_00000165212328676910331980000010907142440312452268_" gradientUnits="userSpaceOnUse" x1="255.1608" y1="183.5325" x2="255.1608" y2="431.559">
							<stop  offset="0" style="stop-color:#EFCF64"/>
							<stop  offset="0.3708" style="stop-color:#E38378"/>
							<stop  offset="1" style="stop-color:#4136EB"/>
						</linearGradient>
						<path style="fill:url(#SVGID_00000165212328676910331980000010907142440312452268_);" d="M449.484,293.553h-3.155v-14.704
							c0-17.464-14.157-31.621-31.621-31.621h-5.877v-51.616c0-11.579-9.387-20.967-20.966-20.967h-55.331v-9.713
							c0-9.075-7.357-16.432-16.433-16.432H160.483c-9.075,0-16.432,7.357-16.432,16.432v9.928
							c-10.229,1.392-18.12,10.14-18.12,20.751v46.257H99.687c-17.464,0-31.621,14.157-31.621,31.621v56.641h-6.511
							c-5.9,0-10.683,4.783-10.683,10.683v52.09h57.05v0h153.162h60.984h90.488h33.773h13.12v-89.386
							C459.449,298.014,454.988,293.553,449.484,293.553z"/>
					</g>
					
						<linearGradient id="SVGID_00000146484110119768198690000013966439409508805761_" gradientUnits="userSpaceOnUse" x1="255.1599" y1="334.9644" x2="255.1599" y2="381.5877" gradientTransform="matrix(-1 0 0 1 510.3198 0)">
						<stop  offset="0" style="stop-color:#868AEB"/>
						<stop  offset="0.5654" style="stop-color:#C7C9FC"/>
						<stop  offset="1" style="stop-color:#F8FAFB"/>
					</linearGradient>
					<path style="fill:url(#SVGID_00000146484110119768198690000013966439409508805761_);" d="M50.871,392.201v-28.503
						l35.026-15.611c5.478-2.442,11.579-3.123,17.461-1.949l153.713,30.671l59.7-23.877c15.543-6.216,32.788-6.714,48.664-1.403
						l68.984,23.077l25.029-7.83v25.425h-57.05v0H249.237h-60.984H97.765H63.991H50.871z"/>
					
						<linearGradient id="SVGID_00000047769465573635829000000009036133429139409843_" gradientUnits="userSpaceOnUse" x1="252.0158" y1="359.3244" x2="252.0158" y2="394.6557">
						<stop  offset="0" style="stop-color:#868AEB"/>
						<stop  offset="0.5654" style="stop-color:#C7C9FC"/>
						<stop  offset="1" style="stop-color:#F8FAFB"/>
					</linearGradient>
					<path style="fill:url(#SVGID_00000047769465573635829000000009036133429139409843_);" d="M334.506,361.233l-116.624,21.743
						c-6.56,1.223-13.319,0.835-19.696-1.132l-14.094-4.346c-26.794-8.263-55.374-8.806-82.462-1.568l-70.075,18.725h440.923
						l-78.935-28.594C374.647,359.217,354.264,357.55,334.506,361.233z"/>
				</g>
				<g>
					<polygon style="fill:#A8B5C3;" points="160.052,179.671 160.444,180.685 161.458,181.077 160.444,181.469 160.052,182.483 
						159.66,181.469 158.646,181.077 159.66,180.685 					"/>
					<polygon style="fill:#A8B5C3;" points="386.759,209.138 387.151,210.153 388.165,210.544 387.151,210.936 386.759,211.951 
						386.368,210.936 385.353,210.544 386.368,210.153 					"/>
					<polygon style="fill:#A8B5C3;" points="398.618,226.787 399.402,228.816 401.43,229.6 399.402,230.383 398.618,232.412 
						397.835,230.383 395.806,229.6 397.835,228.816 					"/>
					<polygon style="fill:#A8B5C3;" points="154.514,157.039 155.297,159.067 157.326,159.851 155.297,160.634 154.514,162.663 
						153.73,160.634 151.701,159.851 153.73,159.067 					"/>
				</g>
				<g>
					
						<linearGradient id="SVGID_00000039104983974367269700000000175427652288277932_" gradientUnits="userSpaceOnUse" x1="398.618" y1="237.2069" x2="398.618" y2="341.9059">
						<stop  offset="0" style="stop-color:#4D5DEC"/>
						<stop  offset="0.327" style="stop-color:#4136EB"/>
						<stop  offset="1" style="stop-color:#420087"/>
					</linearGradient>
					
						<circle style="fill:url(#SVGID_00000039104983974367269700000000175427652288277932_);" cx="398.618" cy="289.556" r="52.349"/>
					<polygon style="fill:#5049F9;" points="425.755,277.391 400.954,305.176 398.618,257.719 397.06,289.364 377.191,266.641 
						396.865,293.333 395.375,323.59 370.592,299.963 395.204,327.061 391.973,392.695 405.263,392.695 401.143,309.005 					"/>
				</g>
				<g>
					<polygon style="fill:#5049F9;" points="445.357,384.608 431.623,391.799 430.636,374.155 429.535,386.528 426.085,383.755 
						429.535,387.879 429.285,394.92 415.915,386.824 429.285,396.342 429.285,398.333 431.987,398.333 431.714,393.429 					"/>
					
						<linearGradient id="SVGID_00000163759426971868006640000004518445883431880364_" gradientUnits="userSpaceOnUse" x1="430.6345" y1="361.8289" x2="430.6345" y2="398.3333">
						<stop  offset="0" style="stop-color:#AFAFEF"/>
						<stop  offset="1" style="stop-color:#9090FB"/>
					</linearGradient>
					<path style="fill:url(#SVGID_00000163759426971868006640000004518445883431880364_);" d="M430.636,361.829
						c-13.805,0-24.998,11.191-24.998,24.995c0,4.15,1.013,8.064,2.805,11.509h20.842v-1.991l-13.37-9.518l13.37,8.096l0.25-7.04
						l-3.45-4.125l3.45,2.773l1.101-12.374l0.987,17.645l13.734-7.191l-13.643,8.821l0.273,4.904h20.842
						c1.792-3.445,2.802-7.359,2.802-11.509C455.631,373.019,444.441,361.829,430.636,361.829z"/>
				</g>
				<g>
					<polygon style="fill:#5049F9;" points="74.325,384.608 60.591,391.799 59.604,374.155 58.503,386.528 55.053,383.755 
						58.503,387.879 58.253,394.92 44.883,386.824 58.253,396.342 58.253,398.333 60.955,398.333 60.682,393.429 					"/>
					
						<linearGradient id="SVGID_00000158721542893255334630000004395759917095484858_" gradientUnits="userSpaceOnUse" x1="59.6027" y1="361.8289" x2="59.6027" y2="398.3333">
						<stop  offset="0" style="stop-color:#AFAFEF"/>
						<stop  offset="1" style="stop-color:#9090FB"/>
					</linearGradient>
					<path style="fill:url(#SVGID_00000158721542893255334630000004395759917095484858_);" d="M59.604,361.829
						c-13.805,0-24.998,11.191-24.998,24.995c0,4.15,1.013,8.064,2.805,11.509h20.842v-1.991l-13.37-9.518l13.37,8.096l0.25-7.04
						l-3.45-4.125l3.45,2.773l1.101-12.374l0.987,17.645l13.734-7.191l-13.643,8.821l0.273,4.904h20.842
						c1.792-3.445,2.802-7.359,2.802-11.509C84.599,373.019,73.409,361.829,59.604,361.829z"/>
				</g>
				<g>
					
						<linearGradient id="SVGID_00000072258692019796889400000012138830218484601753_" gradientUnits="userSpaceOnUse" x1="121.1236" y1="203.5517" x2="121.1236" y2="330.9126">
						<stop  offset="0" style="stop-color:#4D5DEC"/>
						<stop  offset="0.327" style="stop-color:#4136EB"/>
						<stop  offset="1" style="stop-color:#420087"/>
					</linearGradient>
					
						<circle style="fill:url(#SVGID_00000072258692019796889400000012138830218484601753_);" cx="121.124" cy="267.232" r="63.681"/>
					<polygon style="fill:#5049F9;" points="154.134,252.434 123.966,286.233 121.124,228.504 119.228,266.998 95.059,239.356 
						118.991,271.827 117.179,308.632 87.032,279.892 116.971,312.854 113.041,392.695 129.207,392.695 124.195,290.89 					"/>
				</g>
				<g>
					<ellipse style="fill:#DFEAF2;" cx="239.237" cy="425.034" rx="11.196" ry="1.521"/>
					<path style="fill:#DFEAF2;" d="M445.891,416.641c0,0.84-5.013,1.521-11.196,1.521c-6.183,0-11.196-0.681-11.196-1.521
						s5.012-1.521,11.196-1.521C440.878,415.119,445.891,415.801,445.891,416.641z"/>
					<path style="fill:#DFEAF2;" d="M48.668,409.651c0,0.84-5.013,1.521-11.196,1.521c-6.183,0-11.196-0.681-11.196-1.521
						c0-0.84,5.013-1.521,11.196-1.521C43.655,408.13,48.668,408.811,48.668,409.651z"/>
					<path style="fill:#DFEAF2;" d="M192.848,416.236c0,0.42-2.506,0.76-5.598,0.76c-3.092,0-5.598-0.341-5.598-0.76
						c0-0.42,2.506-0.76,5.598-0.76C190.341,415.475,192.848,415.816,192.848,416.236z"/>
					<path style="fill:#DFEAF2;" d="M297.812,440.101c0,0.42-2.506,0.76-5.598,0.76c-3.092,0-5.598-0.34-5.598-0.76
						c0-0.42,2.506-0.76,5.598-0.76C295.306,439.34,297.812,439.681,297.812,440.101z"/>
					<path style="fill:#DFEAF2;" d="M323.441,442.382c0,0.42-2.506,0.76-5.598,0.76c-3.092,0-5.598-0.341-5.598-0.76
						c0-0.42,2.506-0.76,5.598-0.76C320.935,441.622,323.441,441.962,323.441,442.382z"/>
					<path style="fill:#DFEAF2;" d="M461.229,434.944c0,0.42-2.506,0.761-5.598,0.761c-3.092,0-5.598-0.341-5.598-0.761
						c0-0.42,2.506-0.76,5.598-0.76C458.723,434.183,461.229,434.524,461.229,434.944z"/>
					<path style="fill:#DFEAF2;" d="M407.028,410.444c0,0.42-2.506,0.761-5.598,0.761c-3.091,0-5.598-0.341-5.598-0.761
						c0-0.42,2.506-0.76,5.598-0.76C404.522,409.683,407.028,410.024,407.028,410.444z"/>
					<path style="fill:#DFEAF2;" d="M280.884,415.475c0,0.42-2.506,0.76-5.598,0.76c-3.092,0-5.598-0.34-5.598-0.76
						c0-0.42,2.506-0.76,5.598-0.76C278.377,414.715,280.884,415.055,280.884,415.475z"/>
					<path style="fill:#DFEAF2;" d="M449.022,403.351c0,0.42-2.506,0.761-5.598,0.761c-3.092,0-5.598-0.34-5.598-0.761
						c0-0.42,2.506-0.76,5.598-0.76C446.516,402.59,449.022,402.931,449.022,403.351z"/>
					<path style="fill:#DFEAF2;" d="M388.087,434.183c0,0.42-2.506,0.76-5.598,0.76c-3.092,0-5.598-0.34-5.598-0.76
						c0-0.42,2.506-0.76,5.598-0.76C385.58,433.423,388.087,433.763,388.087,434.183z"/>
					<path style="fill:#DFEAF2;" d="M247.118,403.714c0,0.42-2.506,0.76-5.598,0.76s-5.598-0.34-5.598-0.76
						c0-0.42,2.506-0.76,5.598-0.76S247.118,403.294,247.118,403.714z"/>
					<path style="fill:#DFEAF2;" d="M148.219,433.203c0,0.844-5.036,1.528-11.248,1.528c-6.212,0-11.248-0.684-11.248-1.528
						c0-0.844,5.036-1.528,11.248-1.528C143.183,431.675,148.219,432.359,148.219,433.203z"/>
					<path style="fill:#DFEAF2;" d="M350.352,426.555c0,0.844-5.036,1.528-11.248,1.528c-6.212,0-11.248-0.684-11.248-1.528
						c0-0.844,5.036-1.528,11.248-1.528C345.316,425.027,350.352,425.711,350.352,426.555z"/>
					<path style="fill:#DFEAF2;" d="M114.454,420.674c0,0.42-2.506,0.76-5.598,0.76c-3.092,0-5.598-0.34-5.598-0.76
						c0-0.42,2.506-0.76,5.598-0.76C111.947,419.914,114.454,420.254,114.454,420.674z"/>
					<path style="fill:#DFEAF2;" d="M182.8,421.006c0,0.42-2.506,0.76-5.598,0.76c-3.092,0-5.598-0.34-5.598-0.76
						c0-0.42,2.506-0.76,5.598-0.76C180.293,420.245,182.8,420.586,182.8,421.006z"/>
					<ellipse style="fill:#DFEAF2;" cx="349.647" cy="408.13" rx="5.598" ry="0.761"/>
					<path style="fill:#DFEAF2;" d="M70.799,419.498c0,0.42-2.506,0.76-5.598,0.76c-3.092,0-5.598-0.34-5.598-0.76
						c0-0.42,2.506-0.76,5.598-0.76C68.292,418.737,70.799,419.078,70.799,419.498z"/>
					<path style="fill:#DFEAF2;" d="M140.493,403.351c0,0.42-2.506,0.761-5.598,0.761c-3.092,0-5.598-0.34-5.598-0.761
						c0-0.42,2.506-0.76,5.598-0.76C137.986,402.59,140.493,402.931,140.493,403.351z"/>
					<path style="fill:#DFEAF2;" d="M208.845,441.622c0,0.42-2.506,0.76-5.598,0.76c-3.092,0-5.598-0.34-5.598-0.76
						c0-0.42,2.506-0.76,5.598-0.76C206.339,440.861,208.845,441.202,208.845,441.622z"/>
				</g>
				<g>
					<g>
						
							<linearGradient id="SVGID_00000182501110621420156830000001007886491155156371_" gradientUnits="userSpaceOnUse" x1="320.7251" y1="368.8139" x2="320.7251" y2="402.3107">
							<stop  offset="0" style="stop-color:#4D5DEC"/>
							<stop  offset="0.327" style="stop-color:#4136EB"/>
							<stop  offset="1" style="stop-color:#420087"/>
						</linearGradient>
						<path style="fill:url(#SVGID_00000182501110621420156830000001007886491155156371_);" d="M331.737,402.311h-12.479
							c0-15.997-18.098-31.708-4.453-33.406c4.855-0.607,8.319,1.882,10.787,5.748C331.737,384.247,331.737,402.311,331.737,402.311
							z"/>
						
							<linearGradient id="SVGID_00000074444423288971030150000009339804182083517578_" gradientUnits="userSpaceOnUse" x1="339.225" y1="337.7091" x2="339.225" y2="402.3107">
							<stop  offset="0" style="stop-color:#4D5DEC"/>
							<stop  offset="0.327" style="stop-color:#4136EB"/>
							<stop  offset="1" style="stop-color:#420087"/>
						</linearGradient>
						<path style="fill:url(#SVGID_00000074444423288971030150000009339804182083517578_);" d="M360.122,402.311H341.5
							c0-9.983-6.573-19.823-11.49-28.21c-0.157-0.266-0.314-0.539-0.471-0.805c-4.235-7.317-9.737-14.108-11.367-22.618
							c-0.47-2.475-0.566-5.155,0.593-7.392c1.234-2.387,3.744-3.914,6.348-4.582C356.133,330.753,362.618,372.171,360.122,402.311z
							"/>
						
							<linearGradient id="SVGID_00000149360377851642288740000004355316431165761456_" gradientUnits="userSpaceOnUse" x1="388.0945" y1="326.7901" x2="388.0945" y2="402.3107">
							<stop  offset="0" style="stop-color:#4D5DEC"/>
							<stop  offset="0.327" style="stop-color:#4136EB"/>
							<stop  offset="1" style="stop-color:#420087"/>
						</linearGradient>
						<path style="fill:url(#SVGID_00000149360377851642288740000004355316431165761456_);" d="M383.886,402.311h-15.315
							c-2.496-23.041-1.814-80.804,31.551-75.131C425.72,331.53,384.541,364.807,383.886,402.311z"/>
						
							<linearGradient id="SVGID_00000054956975076681506880000017033283112794034867_" gradientUnits="userSpaceOnUse" x1="388.347" y1="381.8335" x2="388.347" y2="402.3107">
							<stop  offset="0" style="stop-color:#4D5DEC"/>
							<stop  offset="0.327" style="stop-color:#4136EB"/>
							<stop  offset="1" style="stop-color:#420087"/>
						</linearGradient>
						<path style="fill:url(#SVGID_00000054956975076681506880000017033283112794034867_);" d="M391.295,402.311h-9.724
							c0,0-2.564-20.491,8.442-20.477C400.03,381.84,393.341,394.503,391.295,402.311z"/>
						
							<linearGradient id="SVGID_00000181799773134587505070000012386982325667120791_" gradientUnits="userSpaceOnUse" x1="405.6377" y1="358.9194" x2="405.6377" y2="402.3107">
							<stop  offset="0" style="stop-color:#4D5DEC"/>
							<stop  offset="0.327" style="stop-color:#4136EB"/>
							<stop  offset="1" style="stop-color:#420087"/>
						</linearGradient>
						<path style="fill:url(#SVGID_00000181799773134587505070000012386982325667120791_);" d="M401.796,402.311h-9.083
							c0-24.064,9.212-43.648,22.141-43.389C427.783,359.174,402.826,385.543,401.796,402.311z"/>
						<path style="fill:#5049F9;" d="M352.117,402.311h-0.798c-0.068-4.221-0.511-8.442-1.193-12.601
							c-0.825-5.032-2.066-9.983-3.689-14.804c-3.232-9.642-8.176-18.698-14.654-26.607c-0.532-0.675-0.061-1.036,0.498-0.436
							c7.085,7.494,12.492,16.659,15.765,26.505c1.643,4.923,2.816,10.003,3.471,15.145
							C352.055,393.76,352.308,398.042,352.117,402.311z"/>
						<path style="fill:#5049F9;" d="M392.26,339.904c-2.018,2.264-3.689,4.814-5.162,7.46c-1.473,2.639-2.714,5.414-3.757,8.258
							c-1.057,2.837-1.964,5.735-2.707,8.681c-0.75,2.939-1.391,5.905-1.902,8.906c-1.057,5.98-1.698,12.042-2.1,18.118
							c-0.232,3.662-0.382,7.323-0.416,10.985h-1.043c-0.137-3.682-0.13-7.371,0-11.06c0.238-6.137,0.811-12.281,1.889-18.35
							c0.525-3.034,1.207-6.048,2.018-9.021c0.798-2.98,1.786-5.912,2.953-8.776c0.559-1.439,1.227-2.837,1.889-4.234
							c0.723-1.371,1.418-2.748,2.25-4.051c1.616-2.632,3.444-5.155,5.626-7.344C392.451,338.779,392.88,339.168,392.26,339.904z"/>
						<path style="fill:#5049F9;" d="M388.397,386.893c-1.446,4.61-2.059,9.437-2.4,14.245c-0.021,0.389-0.041,0.784-0.062,1.173
							h-0.845c0.014-0.416,0.034-0.825,0.061-1.234c0.355-4.862,1.166-9.738,2.953-14.299
							C388.254,386.423,388.52,386.532,388.397,386.893z"/>
						<path style="fill:#5049F9;" d="M326.964,402.311h-0.798c-0.293-2.427-0.661-4.855-1.118-7.255
							c-0.695-3.355-1.555-6.669-2.693-9.894c-0.3-0.805-0.641-1.589-0.955-2.38c-0.164-0.396-0.307-0.798-0.491-1.187l-0.573-1.146
							l-0.566-1.152c-0.191-0.382-0.375-0.771-0.614-1.125l-1.343-2.189c-0.28-0.45-0.055-0.634,0.259-0.177l1.459,2.141
							c0.259,0.355,0.457,0.736,0.661,1.118l0.627,1.139l0.621,1.146c0.198,0.382,0.355,0.784,0.539,1.18
							c0.341,0.798,0.709,1.582,1.03,2.387c1.241,3.239,2.168,6.587,2.871,9.983C326.35,397.353,326.711,399.829,326.964,402.311z"
							/>
						<path style="fill:#5049F9;" d="M410.416,365.925c-1.343,1.596-2.496,3.348-3.566,5.148c-0.259,0.45-0.532,0.893-0.791,1.35
							l-0.73,1.384c-0.511,0.914-0.927,1.875-1.377,2.816c-1.739,3.798-3.082,7.767-4.16,11.803
							c-1.132,4.555-1.889,9.199-2.298,13.883h-0.696c0.293-4.746,1.009-9.478,2.168-14.102c1.098-4.078,2.509-8.087,4.35-11.892
							c0.471-0.941,0.921-1.902,1.459-2.809l0.777-1.378c0.273-0.457,0.559-0.9,0.839-1.343c1.139-1.78,2.366-3.505,3.784-5.073
							C410.627,365.229,410.845,365.427,410.416,365.925z"/>
					</g>
				</g>
				<g>
					<g>
						
							<linearGradient id="SVGID_00000080912160645583338970000005037874790075075214_" gradientUnits="userSpaceOnUse" x1="83.0658" y1="368.1118" x2="83.0658" y2="402.3107">
							<stop  offset="0" style="stop-color:#4D5DEC"/>
							<stop  offset="0.327" style="stop-color:#4136EB"/>
							<stop  offset="1" style="stop-color:#420087"/>
						</linearGradient>
						<path style="fill:url(#SVGID_00000080912160645583338970000005037874790075075214_);" d="M94.308,402.311h-12.74
							c0-16.332-18.477-32.373-4.546-34.106c4.957-0.62,8.493,1.922,11.014,5.869C94.308,383.869,94.308,402.311,94.308,402.311z"/>
						
							<linearGradient id="SVGID_00000135692145430407040420000006717229582699659174_" gradientUnits="userSpaceOnUse" x1="101.9535" y1="336.3552" x2="101.9535" y2="402.3107">
							<stop  offset="0" style="stop-color:#4D5DEC"/>
							<stop  offset="0.327" style="stop-color:#4136EB"/>
							<stop  offset="1" style="stop-color:#420087"/>
						</linearGradient>
						<path style="fill:url(#SVGID_00000135692145430407040420000006717229582699659174_);" d="M123.289,402.311h-19.013
							c0-10.192-6.711-20.238-11.731-28.801c-0.16-0.271-0.32-0.55-0.48-0.821c-4.323-7.47-9.941-14.404-11.605-23.092
							c-0.48-2.527-0.578-5.263,0.606-7.547c1.26-2.437,3.822-3.996,6.481-4.678C119.216,329.253,125.837,371.539,123.289,402.311z"
							/>
						
							<linearGradient id="SVGID_00000112629699275446374820000015524464694314828695_" gradientUnits="userSpaceOnUse" x1="151.8472" y1="325.2072" x2="151.8472" y2="402.3107">
							<stop  offset="0" style="stop-color:#4D5DEC"/>
							<stop  offset="0.327" style="stop-color:#4136EB"/>
							<stop  offset="1" style="stop-color:#420087"/>
						</linearGradient>
						<path style="fill:url(#SVGID_00000112629699275446374820000015524464694314828695_);" d="M147.551,402.311h-15.636
							c-2.548-23.524-1.852-82.498,32.212-76.706C190.262,330.047,148.219,364.021,147.551,402.311z"/>
						
							<linearGradient id="SVGID_00000044136924786113520590000009912814506596615587_" gradientUnits="userSpaceOnUse" x1="158.7637" y1="381.4043" x2="158.7637" y2="402.3107">
							<stop  offset="0" style="stop-color:#4D5DEC"/>
							<stop  offset="0.327" style="stop-color:#4136EB"/>
							<stop  offset="1" style="stop-color:#420087"/>
						</linearGradient>
						<path style="fill:url(#SVGID_00000044136924786113520590000009912814506596615587_);" d="M161.774,402.311h-9.928
							c0,0-2.618-20.92,8.619-20.906C170.692,381.411,163.862,394.339,161.774,402.311z"/>
						
							<linearGradient id="SVGID_00000021836948963484246340000009274044142278942606_" gradientUnits="userSpaceOnUse" x1="184.7711" y1="358.0099" x2="184.7711" y2="402.3107">
							<stop  offset="0" style="stop-color:#4D5DEC"/>
							<stop  offset="0.327" style="stop-color:#4136EB"/>
							<stop  offset="1" style="stop-color:#420087"/>
						</linearGradient>
						<path style="fill:url(#SVGID_00000021836948963484246340000009274044142278942606_);" d="M180.849,402.311h-9.273
							c0-24.568,9.405-44.563,22.605-44.298C207.381,358.27,181.9,385.191,180.849,402.311z"/>
						<path style="fill:#5049F9;" d="M115.116,402.311h-0.814c-0.07-4.309-0.522-8.619-1.218-12.866
							c-0.842-5.138-2.109-10.192-3.767-15.114c-3.3-9.844-8.347-19.089-14.961-27.165c-0.543-0.689-0.063-1.058,0.508-0.445
							c7.233,7.651,12.754,17.008,16.096,27.061c1.678,5.026,2.875,10.213,3.544,15.462
							C115.053,393.581,115.31,397.953,115.116,402.311z"/>
						<path style="fill:#5049F9;" d="M156.1,338.596c-2.061,2.311-3.767,4.915-5.27,7.616c-1.504,2.694-2.771,5.528-3.836,8.431
							c-1.079,2.896-2.005,5.855-2.764,8.862c-0.766,3.001-1.42,6.029-1.942,9.092c-1.079,6.105-1.734,12.294-2.144,18.498
							c-0.237,3.738-0.39,7.477-0.425,11.215h-1.065c-0.139-3.759-0.132-7.526,0-11.292c0.243-6.266,0.828-12.538,1.928-18.734
							c0.536-3.098,1.232-6.175,2.061-9.211c0.814-3.042,1.824-6.036,3.014-8.96c0.571-1.469,1.253-2.896,1.928-4.323
							c0.738-1.399,1.448-2.806,2.297-4.135c1.65-2.687,3.516-5.263,5.743-7.498C156.295,337.447,156.733,337.844,156.1,338.596z"/>
						<path style="fill:#5049F9;" d="M158.815,386.57c-1.476,4.706-2.103,9.635-2.451,14.543c-0.021,0.397-0.042,0.801-0.063,1.198
							h-0.863c0.014-0.425,0.035-0.842,0.063-1.26c0.362-4.964,1.191-9.942,3.015-14.599
							C158.669,386.09,158.94,386.201,158.815,386.57z"/>
						<path style="fill:#5049F9;" d="M89.435,402.311H88.62c-0.299-2.478-0.675-4.957-1.142-7.408
							c-0.71-3.425-1.587-6.809-2.75-10.102c-0.306-0.822-0.654-1.622-0.975-2.43c-0.167-0.404-0.313-0.815-0.501-1.211l-0.585-1.17
							l-0.578-1.177c-0.195-0.39-0.383-0.787-0.626-1.149l-1.372-2.235c-0.286-0.459-0.056-0.647,0.265-0.181l1.49,2.186
							c0.265,0.362,0.467,0.752,0.675,1.142l0.641,1.163l0.633,1.17c0.202,0.39,0.362,0.801,0.55,1.204
							c0.348,0.814,0.724,1.615,1.051,2.437c1.267,3.307,2.214,6.725,2.931,10.192C88.808,397.249,89.177,399.777,89.435,402.311z"
							/>
						<path style="fill:#5049F9;" d="M189.649,365.162c-1.372,1.629-2.548,3.418-3.641,5.256c-0.265,0.46-0.543,0.912-0.808,1.379
							l-0.745,1.413c-0.522,0.933-0.947,1.914-1.406,2.875c-1.775,3.878-3.147,7.93-4.247,12.051
							c-1.156,4.651-1.928,9.392-2.346,14.174h-0.71c0.299-4.845,1.03-9.677,2.214-14.397c1.121-4.163,2.562-8.257,4.442-12.141
							c0.48-0.961,0.94-1.942,1.49-2.868l0.794-1.406c0.279-0.466,0.571-0.919,0.856-1.371c1.163-1.817,2.416-3.578,3.864-5.18
							C189.865,364.452,190.088,364.654,189.649,365.162z"/>
					</g>
				</g>
			</g>
		</g>
		<g>
			<g>
				
					<linearGradient id="SVGID_00000013183699482942742340000003824127581293681834_" gradientUnits="userSpaceOnUse" x1="104.9652" y1="176.3324" x2="136.2007" y2="176.3324">
					<stop  offset="0" style="stop-color:#4D5DEC"/>
					<stop  offset="0.327" style="stop-color:#4136EB"/>
					<stop  offset="1" style="stop-color:#420087"/>
				</linearGradient>
				<path style="fill:url(#SVGID_00000013183699482942742340000003824127581293681834_);" d="M120.583,191.95
					c-8.612,0-15.618-7.006-15.618-15.618c0-8.612,7.006-15.617,15.618-15.617s15.618,7.006,15.618,15.617
					C136.201,184.944,129.194,191.95,120.583,191.95z"/>
				<path id="XMLID_25_" style="fill:#F8FAFB;" d="M127.601,180.685l-1.953-1.99c0,0-0.526-0.487-1.015-0.187l-1.089,1.165
					l-0.309,0.372c-0.541,0.617-2.047-0.698-2.047-0.698c-1.125-0.579-3.638-3.519-3.638-3.519
					c-1.237-1.429-0.541-2.047-0.541-2.047l0.349-0.349l1.197-1.159c0,0,0.66-0.387-1.121-1.895l-2.009-2.049
					c0,0-0.544-0.503-1.045-0.195l-1.121,1.199l-0.349,0.347c-0.85,1.277-0.463,3.443-0.463,3.443
					c1.467,5.528,7.81,9.705,7.81,9.705c5.336,3.246,6.922,1.121,6.922,1.121l0.345-0.295l1.165-1.125
					C128.69,182.527,129.328,182.149,127.601,180.685z"/>
			</g>
			<g>
				
					<linearGradient id="SVGID_00000155843405433056547170000001030790096345121928_" gradientUnits="userSpaceOnUse" x1="413.8878" y1="128.7794" x2="429.5025" y2="155.8248">
					<stop  offset="0" style="stop-color:#EECE64"/>
					<stop  offset="1" style="stop-color:#E39074"/>
				</linearGradient>
				<path style="fill:url(#SVGID_00000155843405433056547170000001030790096345121928_);" d="M421.695,157.92
					c-8.612,0-15.617-7.006-15.617-15.618c0-8.612,7.006-15.617,15.617-15.617c8.612,0,15.618,7.006,15.618,15.617
					C437.313,150.914,430.306,157.92,421.695,157.92z"/>
				<path style="fill:#F8FAFB;" d="M431.034,136.376l-1.492-1.492c-0.447-0.447-1.171-0.447-1.618,0l-9.42,9.42l-3.034-3.054
					c-0.215-0.217-0.504-0.337-0.81-0.338c-0.306-0.001-0.595,0.119-0.811,0.335l-1.492,1.492c-0.447,0.447-0.448,1.168-0.002,1.616
					l5.335,5.361c0.216,0.217,0.504,0.337,0.81,0.337c0.306,0,0.594-0.119,0.81-0.335l11.724-11.724
					c0.213-0.213,0.335-0.508,0.335-0.809S431.247,136.589,431.034,136.376z"/>
			</g>
			<g>
				
					<linearGradient id="SVGID_00000029751768181985124990000005020201070762236038_" gradientUnits="userSpaceOnUse" x1="130.7443" y1="90.719" x2="146.359" y2="117.7645">
					<stop  offset="0" style="stop-color:#DE697B"/>
					<stop  offset="1" style="stop-color:#BD2773"/>
				</linearGradient>
				<path style="fill:url(#SVGID_00000029751768181985124990000005020201070762236038_);" d="M138.551,119.86
					c-8.612,0-15.617-7.006-15.617-15.618c0-8.612,7.006-15.617,15.617-15.617c8.612,0,15.618,7.006,15.618,15.617
					C154.169,112.853,147.163,119.86,138.551,119.86z"/>
				<path style="fill:#F8FAFB;" d="M138.555,93.646c-3.656,0-6.623,2.96-6.623,6.616c0,6.565,6.623,14.575,6.623,14.575
					s6.616-8.01,6.616-14.575C145.171,96.606,142.211,93.646,138.555,93.646z M138.555,103.766c-1.93,0-3.497-1.566-3.497-3.503
					c0-1.931,1.566-3.497,3.497-3.497c1.931,0,3.497,1.566,3.497,3.497C142.051,102.199,140.485,103.766,138.555,103.766z"/>
			</g>
			<g>
				<g>
					<rect x="138.051" y="83.753" style="fill:#D0DDE2;" width="1" height="2"/>
				</g>
				<g>
					<rect x="138.051" y="75.692" style="fill:#D0DDE2;" width="1" height="4.606"/>
				</g>
				<g>
					<polygon style="fill:#D0DDE2;" points="139.051,72.238 138.051,72.238 138.051,69.738 140.551,69.738 140.551,70.738 
						139.051,70.738 					"/>
				</g>
				<g>
					<path style="fill:#D0DDE2;" d="M165.39,70.738h-3.549v-1h3.549V70.738z M159.18,70.738h-3.548v-1h3.548V70.738z
						 M152.971,70.738h-3.549v-1h3.549V70.738z M146.761,70.738h-3.548v-1h3.548V70.738z"/>
				</g>
				<g>
					<rect x="168.051" y="69.738" style="fill:#D0DDE2;" width="2" height="1"/>
				</g>
			</g>
			<g>
				<g>
					<rect x="78.609" y="119.86" style="fill:#D0DDE2;" width="1" height="2"/>
				</g>
				<g>
					<path style="fill:#D0DDE2;" d="M79.609,171.305h-1v-4.036h1V171.305z M79.609,164.242h-1v-4.036h1V164.242z M79.609,157.178h-1
						v-4.037h1V157.178z M79.609,150.114h-1v-4.036h1V150.114z M79.609,143.051h-1v-4.036h1V143.051z M79.609,135.987h-1v-4.037h1
						V135.987z M79.609,128.923h-1v-4.036h1V128.923z"/>
				</g>
				<g>
					<polygon style="fill:#D0DDE2;" points="81.109,176.833 78.609,176.833 78.609,174.333 79.609,174.333 79.609,175.833 
						81.109,175.833 					"/>
				</g>
				<g>
					<path style="fill:#D0DDE2;" d="M96.751,176.833h-4.469v-1h4.469V176.833z M88.93,176.833h-4.469v-1h4.469V176.833z"/>
				</g>
				<g>
					<rect x="100.103" y="175.833" style="fill:#D0DDE2;" width="2" height="1"/>
				</g>
			</g>
			<g>
				<g>
					<rect x="371.806" y="76.883" style="fill:#D0DDE2;" width="2" height="1"/>
				</g>
				<g>
					<path style="fill:#D0DDE2;" d="M416.636,77.883h-4.079v-1h4.079V77.883z M409.498,77.883h-4.079v-1h4.079V77.883z
						 M402.359,77.883h-4.079v-1h4.079V77.883z M395.221,77.883h-4.079v-1h4.079V77.883z M388.083,77.883h-4.079v-1h4.079V77.883z
						 M380.944,77.883h-4.079v-1h4.079V77.883z"/>
				</g>
				<g>
					<polygon style="fill:#D0DDE2;" points="422.195,79.383 421.195,79.383 421.195,77.883 419.695,77.883 419.695,76.883 
						422.195,76.883 					"/>
				</g>
				<g>
					<path style="fill:#D0DDE2;" d="M422.195,119.77h-1v-3.846h1V119.77z M422.195,113.039h-1v-3.846h1V113.039z M422.195,106.308
						h-1v-3.847h1V106.308z M422.195,99.577h-1V95.73h1V99.577z M422.195,92.846h-1v-3.847h1V92.846z M422.195,86.114h-1v-3.846h1
						V86.114z"/>
				</g>
				<g>
					<rect x="421.195" y="122.655" style="fill:#D0DDE2;" width="1" height="2"/>
				</g>
			</g>
			<g>
				<g>
					<rect x="398.518" y="104.956" style="fill:#D0DDE2;" width="2" height="1"/>
				</g>
				<g>
					<path style="fill:#D0DDE2;" d="M416.31,105.956h-4.513v-1h4.513V105.956z M408.414,105.956h-4.513v-1h4.513V105.956z"/>
				</g>
				<g>
					<rect x="419.695" y="104.956" style="fill:#D0DDE2;" width="2" height="1"/>
				</g>
			</g>
			<g>
				<g>
					<rect x="138.955" y="175.833" style="fill:#D0DDE2;" width="2" height="1"/>
				</g>
				<g>
					<rect x="142.685" y="175.833" style="fill:#D0DDE2;" width="2.308" height="1"/>
				</g>
				<g>
					<polygon style="fill:#D0DDE2;" points="149.224,178.333 148.224,178.333 148.224,176.833 146.724,176.833 146.724,175.833 
						149.224,175.833 					"/>
				</g>
				<g>
					<path style="fill:#D0DDE2;" d="M149.224,223.292h-1v-4.282h1V223.292z M149.224,215.799h-1v-4.282h1V215.799z M149.224,208.306
						h-1v-4.282h1V208.306z M149.224,200.813h-1v-4.282h1V200.813z M149.224,193.319h-1v-4.282h1V193.319z M149.224,185.826h-1
						v-4.282h1V185.826z"/>
				</g>
				<g>
					<rect x="148.224" y="226.504" style="fill:#D0DDE2;" width="1" height="2"/>
				</g>
			</g>
			<g>
				<path style="fill:#D0DDE2;" d="M395.564,109.859h-8.805v-8.805h8.805V109.859z M388.259,108.359h5.805v-5.805h-5.805V108.359z"
					/>
			</g>
			<g>
				<path style="fill:#D0DDE2;" d="M180.906,76.464l-6.226-6.226l6.226-6.226l6.226,6.226L180.906,76.464z M176.801,70.238
					l4.105,4.105l4.105-4.104l-4.105-4.105L176.801,70.238z"/>
			</g>
			<polygon style="fill:#D0DDE2;" points="80.565,107.607 85.809,107.607 85.809,104.696 80.565,104.696 80.565,99.452 
				77.654,99.452 77.654,104.696 72.409,104.696 72.409,107.607 77.654,107.607 77.654,112.851 80.565,112.851 			"/>
			<g>
				
					<linearGradient id="SVGID_00000140694405420767225340000007469808782298074759_" gradientUnits="userSpaceOnUse" x1="348.0389" y1="66.3914" x2="361.8018" y2="90.2293">
					<stop  offset="0" style="stop-color:#C5DEF1"/>
					<stop  offset="0.999" style="stop-color:#9AB6FB"/>
				</linearGradient>
				<circle style="fill:url(#SVGID_00000140694405420767225340000007469808782298074759_);" cx="354.92" cy="78.31" r="13.761"/>
				<path style="fill:#F8FAFB;" d="M364.332,77.562c0-3.671-4.214-6.648-9.411-6.648c-5.198,0-9.411,2.977-9.411,6.648
					c0,3.672,4.214,6.648,9.411,6.648c1.388,0,2.704-0.214,3.889-0.595l3.085,2.091l-1.41-2.784
					C362.817,81.713,364.332,79.763,364.332,77.562z M350.756,78.581c-0.661,0-1.198-0.536-1.198-1.198
					c0-0.661,0.536-1.198,1.198-1.198s1.198,0.536,1.198,1.198C351.954,78.045,351.417,78.581,350.756,78.581z M354.92,78.581
					c-0.661,0-1.198-0.536-1.198-1.198c0-0.661,0.536-1.198,1.198-1.198c0.662,0,1.198,0.536,1.198,1.198
					C356.118,78.045,355.582,78.581,354.92,78.581z M359.085,78.581c-0.662,0-1.198-0.536-1.198-1.198
					c0-0.661,0.536-1.198,1.198-1.198c0.661,0,1.198,0.536,1.198,1.198C360.283,78.045,359.746,78.581,359.085,78.581z"/>
			</g>
			<g>
				
					<linearGradient id="SVGID_00000083789968402775419620000003993459263506085516_" gradientUnits="userSpaceOnUse" x1="141.7967" y1="234.6588" x2="155.6515" y2="258.6561">
					<stop  offset="0" style="stop-color:#DE697B"/>
					<stop  offset="1" style="stop-color:#BD2773"/>
				</linearGradient>
				<path style="fill:url(#SVGID_00000083789968402775419620000003993459263506085516_);" d="M162.577,246.657
					c0,7.651-6.202,13.853-13.853,13.853s-13.852-6.202-13.852-13.853c0-7.65,6.202-13.852,13.852-13.852
					S162.577,239.007,162.577,246.657z"/>
				<path style="fill:#F8FAFB;" d="M141.762,248.116c-1.761-1.761-1.761-4.627,0-6.388c0.853-0.853,1.988-1.323,3.194-1.323
					c1.207,0,2.341,0.47,3.194,1.323l0.574,0.574l0.574-0.574c0.853-0.853,1.987-1.323,3.194-1.323c1.207,0,2.341,0.47,3.194,1.323
					c1.761,1.761,1.761,4.627,0,6.388l-6.962,6.962L141.762,248.116z"/>
			</g>
			<g>
				<path style="fill:#D0DDE2;" d="M275.856,62.103c0.527,0,1.042-0.213,1.414-0.586c0.372-0.372,0.586-0.888,0.586-1.414
					c0-0.527-0.213-1.042-0.586-1.414c-0.372-0.372-0.888-0.586-1.414-0.586c-0.527,0-1.042,0.213-1.414,0.586
					c-0.372,0.372-0.586,0.888-0.586,1.414c0,0.527,0.213,1.042,0.586,1.414C274.814,61.89,275.329,62.103,275.856,62.103"/>
				<path style="fill:#D0DDE2;" d="M303.663,62.103h0.01c1.104,0,2-0.896,2-2c0-1.105-0.896-2-2-2h-0.01c-1.105,0-2,0.895-2,2
					C301.663,61.208,302.558,62.103,303.663,62.103z M289.755,62.103h0.01c1.105,0,2-0.896,2-2c0-1.105-0.895-2-2-2h-0.01
					c-1.104,0-2,0.895-2,2C287.755,61.208,288.65,62.103,289.755,62.103z"/>
				<path style="fill:#D0DDE2;" d="M317.582,62.103c0.527,0,1.042-0.213,1.414-0.586c0.372-0.372,0.586-0.888,0.586-1.414
					c0-0.527-0.213-1.042-0.586-1.414c-0.373-0.372-0.888-0.586-1.414-0.586c-0.527,0-1.042,0.213-1.414,0.586
					c-0.372,0.372-0.586,0.888-0.586,1.414c0,0.527,0.213,1.042,0.586,1.414C316.54,61.89,317.055,62.103,317.582,62.103"/>
			</g>
			<path style="fill:#D0DDE2;" d="M347.223,120.074c-0.527,0-1.042,0.213-1.414,0.586c-0.372,0.373-0.586,0.888-0.586,1.414
				c0,0.527,0.214,1.042,0.586,1.414c0.372,0.372,0.888,0.586,1.414,0.586s1.042-0.213,1.414-0.586
				c0.372-0.372,0.586-0.888,0.586-1.414c0-0.527-0.213-1.042-0.586-1.414C348.265,120.288,347.75,120.074,347.223,120.074z
				 M357.541,120.074h-0.01c-1.105,0-2,0.895-2,2c0,1.104,0.895,2,2,2h0.01c1.105,0,2-0.896,2-2
				C359.541,120.97,358.646,120.074,357.541,120.074z M347.223,109.859c-0.527,0-1.042,0.213-1.414,0.586
				c-0.372,0.372-0.586,0.888-0.586,1.414c0,0.527,0.214,1.042,0.586,1.414c0.372,0.372,0.888,0.586,1.414,0.586
				s1.042-0.213,1.414-0.586c0.372-0.372,0.586-0.888,0.586-1.414c0-0.527-0.213-1.042-0.586-1.414
				C348.265,110.072,347.75,109.859,347.223,109.859z M357.531,113.859h0.01c1.105,0,2-0.896,2-2c0-1.105-0.895-2-2-2h-0.01
				c-1.105,0-2,0.895-2,2C355.531,112.963,356.427,113.859,357.531,113.859z"/>
			<path style="fill:#D0DDE2;" d="M94.482,135.963c-0.527,0-1.042,0.213-1.414,0.586c-0.372,0.373-0.586,0.888-0.586,1.414
				c0,0.527,0.214,1.042,0.586,1.414c0.372,0.372,0.888,0.586,1.414,0.586c0.527,0,1.042-0.213,1.414-0.586
				c0.372-0.372,0.586-0.888,0.586-1.414c0-0.527-0.213-1.042-0.586-1.414C95.524,136.177,95.009,135.963,94.482,135.963z
				 M104.8,135.963h-0.01c-1.105,0-2,0.895-2,2c0,1.105,0.895,2,2,2h0.01c1.105,0,2-0.895,2-2
				C106.8,136.859,105.904,135.963,104.8,135.963z M94.482,125.748c-0.527,0-1.042,0.213-1.414,0.586
				c-0.372,0.372-0.586,0.888-0.586,1.414c0,0.527,0.214,1.042,0.586,1.414c0.372,0.372,0.888,0.586,1.414,0.586
				c0.527,0,1.042-0.213,1.414-0.586c0.372-0.372,0.586-0.887,0.586-1.414c0-0.527-0.213-1.042-0.586-1.414
				C95.524,125.961,95.009,125.748,94.482,125.748z M104.79,129.748h0.01c1.105,0,2-0.895,2-2c0-1.105-0.895-2-2-2h-0.01
				c-1.105,0-2,0.895-2,2C102.79,128.852,103.685,129.748,104.79,129.748z"/>
		</g>
	</g>
</g>
<g id="OBJECTS">
	<g>
		<path style="fill:#F8FAFB;" d="M321.231,420.305H186.269c-8.456,0-15.31-6.855-15.31-15.31V93.621
			c0-8.456,6.855-15.31,15.31-15.31h134.962c8.456,0,15.31,6.855,15.31,15.31v311.374
			C336.541,413.45,329.687,420.305,321.231,420.305z"/>
		<path style="fill:#112B46;" d="M317.55,82.032c8.42,0,15.27,6.85,15.27,15.27v304.013c0,8.42-6.85,15.27-15.27,15.27H189.95
			c-8.42,0-15.27-6.85-15.27-15.27V97.301c0-8.42,6.85-15.27,15.27-15.27H317.55 M317.55,78.31H189.95
			c-10.488,0-18.991,8.503-18.991,18.991v304.013c0,10.488,8.503,18.991,18.991,18.991H317.55c10.488,0,18.991-8.502,18.991-18.991
			V97.301C336.541,86.813,328.039,78.31,317.55,78.31L317.55,78.31z"/>
		<path style="fill:#112B46;" d="M274.433,90.885h-41.366c-3.034,0-5.494-2.46-5.494-5.494V80.62h52.353v4.772
			C279.927,88.426,277.467,90.885,274.433,90.885z"/>
		<g>
			<rect x="174.68" y="167.23" style="fill:#D0DDE2;" width="158.14" height="158.14"/>
			<rect x="174.68" y="296.117" style="fill:#BECED3;" width="158.14" height="29.256"/>
			<g>
				<g>
					<rect x="174.68" y="113.921" style="fill:#D0DDE2;" width="158.141" height="1"/>
				</g>
				<g>
					<rect x="174.68" y="371.548" style="fill:#D0DDE2;" width="158.141" height="1"/>
				</g>
			</g>
			<g>
				<g>
					
						<ellipse transform="matrix(0.3955 -0.9185 0.9185 0.3955 -12.4012 271.1974)" style="fill:#D0D2D3;" cx="199.814" cy="145.019" rx="11.896" ry="11.896"/>
					<path style="fill:#FFFFFF;" d="M202.318,144.734c-0.741,0.413-1.595,0.649-2.506,0.649c-0.907,0-1.761-0.236-2.506-0.649
						c-2.556,1.004-4.367,3.486-4.367,6.398v0.294c1.834,1.618,4.24,2.595,6.873,2.595c2.637,0,5.039-0.977,6.877-2.598v-0.29
						C206.689,148.221,204.874,145.738,202.318,144.734z M199.812,136.018c-2.312,0-4.187,1.876-4.187,4.187
						c0,2.311,1.876,4.187,4.187,4.187c2.315,0,4.187-1.876,4.187-4.187C203.999,137.894,202.127,136.018,199.812,136.018z"/>
				</g>
				<rect x="223.245" y="133.124" style="fill:#D0DDE2;" width="37.587" height="4.864"/>
				<rect x="223.245" y="142.302" style="fill:#D0DDE2;" width="18.794" height="4.864"/>
				<path style="fill:#868BEF;" d="M317.582,145.019h-27.009c-1.105,0-2-0.896-2-2v-7.896c0-1.105,0.895-2,2-2h27.009
					c1.105,0,2,0.895,2,2v7.896C319.582,144.124,318.686,145.019,317.582,145.019z"/>
				<g>
					<path style="fill:#EB817D;" d="M199.814,157.415c-6.835,0-12.396-5.56-12.396-12.395c0-6.835,5.561-12.396,12.396-12.396
						c6.835,0,12.396,5.561,12.396,12.396C212.21,151.855,206.649,157.415,199.814,157.415z M199.814,133.624
						c-6.284,0-11.396,5.112-11.396,11.396s5.112,11.395,11.396,11.395c6.283,0,11.396-5.112,11.396-11.395
						S206.098,133.624,199.814,133.624z"/>
				</g>
			</g>
			<path style="fill:#D0DDE2;" d="M316.723,393.044c-0.485,0.27-1.043,0.424-1.639,0.424c-0.594,0-1.152-0.154-1.639-0.424
				c-1.672,0.657-2.856,2.281-2.856,4.185v0.192c1.2,1.058,2.773,1.697,4.496,1.697c1.725,0,3.296-0.639,4.498-1.7v-0.19
				C319.582,395.324,318.395,393.7,316.723,393.044z M315.084,387.342c-1.512,0-2.739,1.227-2.739,2.739
				c0,1.512,1.227,2.739,2.739,2.739c1.514,0,2.739-1.227,2.739-2.739C317.823,388.569,316.598,387.342,315.084,387.342z"/>
			<rect x="187.918" y="357.996" style="fill:#D0DDE2;" width="37.587" height="4.864"/>
			<rect x="187.918" y="346.919" style="fill:#D0DDE2;" width="37.587" height="3.237"/>
			<rect x="239.896" y="357.996" style="fill:#D0DDE2;" width="79.686" height="4.864"/>
			<g>
				<path style="fill:#D0DDE2;" d="M216.113,388.755c-1.427,1.785-1.405,4.393,0.049,6.157c1.651,2.004,4.48,2.326,6.512,0.971
					l3.135,3.135c0.132,0.132,0.347,0.132,0.479,0l0.881-0.881c0.132-0.132,0.132-0.347,0-0.479l-3.135-3.135
					c1.27-1.904,1.066-4.508-0.612-6.186C221.379,386.294,217.968,386.434,216.113,388.755z M222.062,393.911
					c-1.162,1.162-3.052,1.162-4.214,0c-1.162-1.162-1.162-3.052,0-4.214c1.162-1.162,3.052-1.162,4.214,0
					C223.223,390.859,223.223,392.749,222.062,393.911z"/>
			</g>
			<path style="fill:#D0DDE2;" d="M282.288,394.192c-1.246-1.246-1.246-3.274,0-4.52c0.604-0.604,1.406-0.936,2.26-0.936
				c0.854,0,1.656,0.333,2.26,0.936l0.406,0.406l0.406-0.406c0.604-0.604,1.406-0.936,2.26-0.936c0.854,0,1.656,0.333,2.26,0.936
				c1.246,1.246,1.246,3.274,0,4.52l-4.926,4.926L282.288,394.192z"/>
			<g>
				<polygon style="fill:#D0DDE2;" points="198.259,392.553 198.259,399.118 194.698,399.118 194.698,394.579 191.479,394.579 
					191.479,399.118 187.918,399.118 187.918,392.553 193.09,387.723 				"/>
			</g>
			<path style="fill:#D0DDE2;" d="M319.582,104.155l-3.615-2.726v1.171h-1.957c-2.474,0-4.48,2.006-4.48,4.48v2.406l1.502-1.848
				c0.999-1.228,2.497-1.941,4.08-1.941h0.855v1.185L319.582,104.155z"/>
			<path style="fill:#D0DDE2;" d="M197.056,102.86l-0.516-1.389h-5.812l-0.516,1.389h-2.293v6.581h11.431v-6.581H197.056z
				 M193.634,108.06c-1.054,0-1.909-0.855-1.909-1.909c0-1.054,0.855-1.909,1.909-1.909c1.054,0,1.909,0.855,1.909,1.909
				C195.543,107.206,194.688,108.06,193.634,108.06z"/>
			<path style="fill:#D0DDE2;" d="M258.208,390.545l-0.673-1.81h-7.571l-0.673,1.81h-2.987v8.573h14.89v-8.573H258.208z
				 M253.75,397.318c-1.374,0-2.487-1.113-2.487-2.487c0-1.374,1.113-2.487,2.487-2.487c1.374,0,2.487,1.113,2.487,2.487
				C256.237,396.205,255.124,397.318,253.75,397.318z"/>
			<g>
				<path style="fill:#EB817D;" d="M188.656,337.071c-0.983-0.983-0.983-2.583,0-3.565c0.476-0.476,1.109-0.738,1.783-0.738
					s1.307,0.262,1.783,0.738l0.32,0.32l0.32-0.32c0.476-0.476,1.109-0.738,1.783-0.738c0.673,0,1.307,0.262,1.783,0.738
					c0.983,0.983,0.983,2.582,0,3.565l-3.886,3.886L188.656,337.071z"/>
				<g>
					<path style="fill:#BECED3;" d="M219.339,342.014v-3.503c0-2.718,2.211-4.929,4.929-4.929h1.614v-1.566l4.673,3.522
						l-4.673,3.524v-1.583h-0.493c-1.502,0-2.908,0.669-3.857,1.835L219.339,342.014z M224.268,334.332
						c-2.304,0-4.179,1.875-4.179,4.179v1.39l0.86-1.059c1.093-1.343,2.71-2.112,4.439-2.112h1.243v0.827l2.677-2.019l-2.677-2.019
						v0.813H224.268z"/>
				</g>
				<g>
					<path style="fill:#BECED3;" d="M211.907,341.865l-2.249-2.259h-5.296c-0.801,0-1.452-0.651-1.452-1.452v-4.31
						c0-0.801,0.651-1.452,1.452-1.452h8.619c0.801,0,1.453,0.651,1.453,1.452v4.31c0,0.801-0.652,1.452-1.453,1.452h-1.074V341.865
						z M204.362,333.143c-0.387,0-0.702,0.315-0.702,0.702v4.31c0,0.387,0.315,0.702,0.702,0.702h5.608l1.187,1.192v-1.192h1.824
						c0.388,0,0.703-0.315,0.703-0.702v-4.31c0-0.387-0.315-0.702-0.703-0.702H204.362z"/>
				</g>
			</g>
			<path style="fill:#ABBFC4;" d="M246.55,295.87h-71.87v-25.39l18.86-32.67c4.33-7.5,15.16-7.5,19.49,0l31.27,54.15v0.01
				L246.55,295.87z"/>
			<path style="fill:#ABBFC4;" d="M332.82,233.74v62.13h-90.78l2.26-3.91l51.32-88.89c4.33-7.5,15.16-7.5,19.49,0L332.82,233.74z"/>
			<circle style="fill:#ABBFC4;" cx="219.713" cy="193.564" r="11.523"/>
		</g>
	</g>
	<g>
		<g>
			<path style="fill:#FFC7AE;" d="M404.536,193.669c-3.843,5.369-13.862,15.828-13.862,15.828l-1.122-4.253l-13.731,5.3
				c0,0,5.56,19.347,10.939,20.037c5.379,0.69,17.682-22.952,23.773-34.288"/>
			
				<linearGradient id="SVGID_00000178920041812652597760000002057540758963947436_" gradientUnits="userSpaceOnUse" x1="265.2236" y1="198.5528" x2="403.1948" y2="198.5528" gradientTransform="matrix(0.76 0.65 -0.65 0.76 214.67 -205.2796)">
				<stop  offset="0" style="stop-color:#5B2A8C"/>
				<stop  offset="0.1693" style="stop-color:#4B2785"/>
				<stop  offset="0.4267" style="stop-color:#38247D"/>
				<stop  offset="0.6972" style="stop-color:#2E2379"/>
				<stop  offset="1" style="stop-color:#2A2277"/>
			</linearGradient>
			<path style="fill:url(#SVGID_00000178920041812652597760000002057540758963947436_);" d="M386.341,182.286
				c-0.491-1.13-1.081-2.225-1.791-3.281c-2.193-3.258-6.766-6.144-10.521-7.294c-0.912-0.279-0.561-0.214-1.443,0.151
				c-0.773,0.32-1.322,1.015-1.776,1.718c-1.416,2.194-2.245,4.762-2.381,7.37c-0.264,5.08,2.024,9.887,3.556,14.738
				c1.161,3.676,2.738,20.158,3.084,20.416c1.447,1.077,16.614-7.496,16.552-7.938c-0.621-4.414-2.791-14.066-3.29-18.126
				C388,187.344,387.405,184.736,386.341,182.286z"/>
			
				<linearGradient id="SVGID_00000096741877948295316290000008904869517027669642_" gradientUnits="userSpaceOnUse" x1="340.3148" y1="389.3876" x2="354.5871" y2="414.108">
				<stop  offset="0" style="stop-color:#5B2A8C"/>
				<stop  offset="0.1693" style="stop-color:#4B2785"/>
				<stop  offset="0.4267" style="stop-color:#38247D"/>
				<stop  offset="0.6972" style="stop-color:#2E2379"/>
				<stop  offset="1" style="stop-color:#2A2277"/>
			</linearGradient>
			<path style="fill:url(#SVGID_00000096741877948295316290000008904869517027669642_);" d="M353.144,397.207
				c0,0,4.589,12.864,3.584,15.24c-0.995,2.376-3.96,0.274-11.879-6.609c-7.919-6.884-9.158-10.122-9.158-10.122
				s1.289-2.092,3.249-5.533C345.275,397.634,353.144,397.207,353.144,397.207z"/>
			
				<linearGradient id="SVGID_00000065766619715231008180000005632619534706161312_" gradientUnits="userSpaceOnUse" x1="368.418" y1="405.9214" x2="380.0586" y2="426.0837">
				<stop  offset="0" style="stop-color:#5B2A8C"/>
				<stop  offset="0.1693" style="stop-color:#4B2785"/>
				<stop  offset="0.4267" style="stop-color:#38247D"/>
				<stop  offset="0.6972" style="stop-color:#2E2379"/>
				<stop  offset="1" style="stop-color:#2A2277"/>
			</linearGradient>
			<path style="fill:url(#SVGID_00000065766619715231008180000005632619534706161312_);" d="M377.511,409.208
				c0,0,11.178,7.828,11.737,10.346c0.558,2.518-3.076,2.518-13.514,1.492c-10.437-1.025-13.331-2.954-13.331-2.954
				s-0.162-3.269-0.416-8.457h0.01C367.601,411.228,375.988,410.132,377.511,409.208z"/>
			
				<linearGradient id="SVGID_00000147202265333706123080000002638923326756476586_" gradientUnits="userSpaceOnUse" x1="338.9397" y1="372.9034" x2="360.1389" y2="372.9034">
				<stop  offset="0" style="stop-color:#C5DEF1"/>
				<stop  offset="0.999" style="stop-color:#9AB6FB"/>
			</linearGradient>
			<path style="fill:url(#SVGID_00000147202265333706123080000002638923326756476586_);" d="M357.174,348.595
				c1.35,7.574,2.64,31.241,2.965,37.434c-4.031,6.731-6.995,11.178-6.995,11.178s-7.868,0.426-14.204-7.026
				C344.118,381.125,353.976,362.698,357.174,348.595z"/>
			<path style="fill:#8AC0F7;" d="M358.687,344.93c0.376,5.909,1.269,23.534,2.081,40.013c-0.203,0.366-0.426,0.731-0.63,1.086
				c-0.325-6.193-1.614-29.86-2.965-37.434c0.569-2.477,0.924-4.823,1.015-6.955C358.454,342.869,358.626,343.976,358.687,344.93z"
				/>
			
				<linearGradient id="SVGID_00000005231734990937064430000015757284427768248467_" gradientUnits="userSpaceOnUse" x1="359.2572" y1="259.5643" x2="359.2572" y2="410.4438">
				<stop  offset="0" style="stop-color:#C5DEF1"/>
				<stop  offset="0.999" style="stop-color:#9AB6FB"/>
			</linearGradient>
			<path style="fill:url(#SVGID_00000005231734990937064430000015757284427768248467_);" d="M378.252,348.737
				c1.706-20.357-8.264-78.035-8.264-78.035l-4.843,0.741c0,0,9.757,42.754,12.336,66.613
				C377.825,341.255,378.079,344.869,378.252,348.737z M360.768,384.943c-0.812-16.478-1.706-34.104-2.081-40.013
				c-0.061-0.954-0.233-2.061-0.497-3.289c-3.127-14.366-19.362-46.338-23.078-66.715c-0.122-0.65-0.233-1.32-0.345-2.031
				c-0.01-0.041-0.01-0.081-0.02-0.132c-0.355-2.711-0.528-6.467-0.599-10.853c6.173-0.061,12.346-0.163,18.235-0.345
				c2.883,3.218,4.772,3.361,5.543,1.797c0.294-0.609,0.508-1.289,0.609-2.02c8.863-0.376,16.722-0.954,22.377-1.777
				c0.284,2.051,0.589,3.929,0.893,5.615c2.802,26.306,4.081,52.897-0.264,74.126c-0.67,3.31-1.797,6.965-3.229,10.772
				c1.035,24.905-0.802,59.13-0.802,59.13c-1.523,0.924-9.909,2.02-15.514,0.426h-0.01
				C361.682,403.38,361.246,394.344,360.768,384.943z"/>
			<path style="fill:#8AC0F7;" d="M369.987,270.702c0,0,9.97,57.679,8.264,78.035c-0.173-3.868-0.426-7.483-0.772-10.681
				c-2.579-23.859-12.336-66.613-12.336-66.613L369.987,270.702z"/>
			<path style="fill:#FFC7AE;" d="M358.728,156.969c-0.558-0.711-0.741-1.655-0.711-2.548c0.041-0.985,0.305-1.96,0.772-2.822
				c0.335-0.619,0.792-1.208,1.421-1.533c0.65-0.335,1.462-0.355,2.132-0.041c0.65,0.294,1.158,0.904,1.33,1.604
				c-0.031,1.371-0.061,5.005,0.538,5.076c0.741,0.102,2.609-4.934,2.609-4.934s3.696-0.731,5.33-3.686
				c0.315,0.731,1.574,1.066,2.376,1.066c0.853,0.01,1.757-0.152,2.498,0.264c1.066,0.589,1.472,2.183,2.67,2.376
				c0.579,0.091,1.117-0.203,1.665-0.437c0.071,0.65-0.112,1.289-0.274,1.919c-0.965,3.594-2.65,6.995-4.752,10.061
				c-0.904,1.32-2.223,3.604-3.767,4.305c-0.985,0.437-5.533-0.437-5.533-0.437l-0.924,2.66h-0.01l-0.599,1.726
				c-0.782,2.254-11.381,1.371-12.793-2.772c0.822-2.254,2.041-6.437,2.579-8.589l0.031,0.01
				C356.728,160.472,358.728,156.969,358.728,156.969z"/>
			<path style="fill:#FFC7AE;" d="M334.32,239.462c3.807,5.239,7.371,9.93,9.27,11.919c3.564-0.071,8.498,0.02,9.838,0.863
				c4.163,2.63,5.483,6.234,5.107,9.097c-0.102,0.731-0.315,1.411-0.609,2.02c-0.772,1.564-2.66,1.421-5.543-1.797
				c-0.112-0.122-0.223-0.244-0.335-0.376c-1.899-2.213-4.081-0.893-7.655-0.284c-3.574,0.609-6.295-2.294-6.295-2.294
				s-1.543-1.127-3.99-3.046c-9.26-7.3-31.444-26.144-31.444-39.17c0-3.076,4.061-9.168,9.3-15.798c0,0,7.422,9.757,12.823,12.011
				c-3.097,3.34-5.351,5.777-5.351,5.777S327.304,229.847,334.32,239.462z"/>
			<path style="fill:#56548B;" d="M344.392,260.904c3.574-0.609,5.757-1.929,7.655,0.284c0.112,0.132,0.223,0.254,0.335,0.376
				c-5.889,0.183-12.062,0.284-18.235,0.345c-0.03-2-0.051-4.122-0.041-6.346c2.447,1.919,3.99,3.046,3.99,3.046
				S340.818,261.514,344.392,260.904z"/>
			<path style="fill:#18124F;" d="M339.569,199.246c0,0,0.132,15.656-1.361,17.889c-1.147,1.726-2.965-3.96-3.736-6.66
				c-0.071-2.041-0.193-3.848-0.345-5.34C337.011,202.058,339.569,199.246,339.569,199.246z"/>
			
				<linearGradient id="SVGID_00000086653336903981657060000011980683122833085873_" gradientUnits="userSpaceOnUse" x1="361.1497" y1="134.3008" x2="375.1588" y2="158.5655">
				<stop  offset="0" style="stop-color:#DE697B"/>
				<stop  offset="1" style="stop-color:#BD2773"/>
			</linearGradient>
			<path style="fill:url(#SVGID_00000086653336903981657060000011980683122833085873_);" d="M372.15,148.085
				c-1.635,2.954-5.33,3.686-5.33,3.686s-1.868,5.036-2.609,4.934c-0.599-0.071-0.569-3.706-0.538-5.076
				c-0.173-0.701-0.68-1.31-1.33-1.604c-0.67-0.315-1.482-0.295-2.132,0.041c-0.629,0.325-1.086,0.914-1.421,1.533
				c-0.467,0.863-0.731,1.838-0.772,2.822c-0.03,0.893,0.152,1.838,0.711,2.548c0,0-2,3.503-3.411,3.269l-0.031-0.01
				c0.122-0.457,0.203-0.822,0.244-1.056c0.254-1.33-0.599-4.752-0.599-8.65h-0.01c0.061-2.589,0.122-5.168,0.183-7.757
				c0.031-1.259,0.061-2.528,0.447-3.726c0.386-1.198,1.178-2.325,2.325-2.822c1.614-0.68,3.635-0.051,5.087-1.025
				c0.366-0.254,0.67-0.589,0.995-0.893c1.249-1.147,3.066-1.787,4.67-1.249c0.853,0.284,1.584,0.883,2.447,1.168
				c2.315,0.762,5.178-0.873,7.178,0.528c0.822,0.569,1.269,1.533,1.584,2.488c0.142,0.426,0.264,0.873,0.569,1.208
				c0.528,0.599,1.421,0.66,2.203,0.792c1.015,0.162,2.031,0.528,2.782,1.229c0.741,0.711,1.168,1.807,0.883,2.792
				c-0.213,0.711-0.761,1.411-0.528,2.102c0.213,0.609,0.914,0.863,1.452,1.198c0.995,0.63,1.624,1.838,1.472,3.005
				c-0.162,1.168-1.147,2.193-2.325,2.305c-1.462,0.142-2.863-1.036-4.305-0.741c-0.233,0.051-0.457,0.132-0.68,0.234
				c-0.548,0.233-1.086,0.528-1.665,0.437c-1.198-0.193-1.604-1.787-2.67-2.376c-0.741-0.416-1.645-0.254-2.498-0.264
				C373.724,149.151,372.465,148.816,372.15,148.085z"/>
			
				<linearGradient id="SVGID_00000125570996298327370490000002387101421960164997_" gradientUnits="userSpaceOnUse" x1="311.9634" y1="215.0793" x2="397.9484" y2="215.0793">
				<stop  offset="0" style="stop-color:#5B2A8C"/>
				<stop  offset="0.1693" style="stop-color:#4B2785"/>
				<stop  offset="0.4267" style="stop-color:#38247D"/>
				<stop  offset="0.6972" style="stop-color:#2E2379"/>
				<stop  offset="1" style="stop-color:#2A2277"/>
			</linearGradient>
			<path style="fill:url(#SVGID_00000125570996298327370490000002387101421960164997_);" d="M366.109,169.863h-0.01l-0.599,1.726
				c-0.782,2.254-11.382,1.371-12.793-2.772c-9.026,0.386-13.006,0.599-18.722,6.813c-3.442,3.736-14.082,14.955-22.022,24.966
				c0,0,7.422,9.757,12.823,12.011c0.467,0.213,0.924,0.355,1.361,0.426c0.416,0.071,4.447-4.112,7.98-7.899
				c2.883-3.076,5.442-5.889,5.442-5.889s0.132,15.656-1.361,17.889c-1.147,1.726-2.965-3.96-3.736-6.66
				c0.274,7.523,0.041,18.285-0.152,28.987c3.807,5.239,7.371,9.93,9.27,11.919c3.564-0.071,8.498,0.02,9.838,0.863
				c4.163,2.63,5.483,6.234,5.107,9.097c8.863-0.376,16.722-0.954,22.377-1.777c-1.178-8.447-2.193-19.666-3.016-30.905
				c-0.579-7.31,0.609-18.56,0.782-29.291c0.071-4.599-0.041-9.117-0.558-13.168c-0.878-7.128-1.824-12.02-4.091-14.488
				C371.677,170.682,369.022,169.942,366.109,169.863z"/>
			<path style="fill:#18124F;" d="M377.996,215.49c0,0,1.232-22.104,0.124-29.291c0,0,3.035,16.462,5.129,26.846L377.996,215.49z"/>
			<g>
				<path style="fill:#BBBDBF;" d="M401.282,172.726l-7.021,17.826c-0.11,0.283-0.064,0.576,0.082,0.804
					c-0.402-0.411-0.704-0.814-0.704-0.814c-0.128-0.219-0.155-0.494-0.055-0.759l7.021-17.817c0.302-0.768,1.042-1.28,1.874-1.28
					h8.099c0.128,0,0.247,0.036,0.347,0.091c0,0,0.603,0.411,0.941,1.006c-0.128-0.192-0.347-0.329-0.612-0.329h-8.099
					C402.333,171.456,401.583,171.958,401.282,172.726z"/>
				
					<linearGradient id="SVGID_00000016774439900200212740000009767333758562196658_" gradientUnits="userSpaceOnUse" x1="403.0974" y1="171.4558" x2="403.0974" y2="191.7497">
					<stop  offset="0" style="stop-color:#5B2A8C"/>
					<stop  offset="0.1693" style="stop-color:#4B2785"/>
					<stop  offset="0.4267" style="stop-color:#38247D"/>
					<stop  offset="0.6972" style="stop-color:#2E2379"/>
					<stop  offset="1" style="stop-color:#2A2277"/>
				</linearGradient>
				<path style="fill:url(#SVGID_00000016774439900200212740000009767333758562196658_);" d="M411.931,172.489l-2.587,5.988
					c-0.027-0.037-0.064-0.055-0.1-0.082c-0.987-0.676-7.66-0.146-8.273,0.229c-0.594,0.384-2.422,5.695-1.664,6.975
					c0.759,1.298,6.6,0.695,5.613,1.975c-0.393,0.512-0.521,1.417-0.549,2.395l-0.366,0.85c-0.247,0.567-0.804,0.932-1.426,0.932
					h-7.496c-0.219,0-0.421-0.082-0.567-0.21c-0.064-0.064-0.128-0.128-0.174-0.183c-0.146-0.229-0.192-0.521-0.082-0.804
					l7.021-17.826c0.302-0.768,1.051-1.271,1.874-1.271h8.099c0.265,0,0.484,0.137,0.612,0.329c0.027,0.046,0.055,0.091,0.073,0.137
					C412.014,172.096,412.014,172.297,411.931,172.489z"/>
			</g>
			<g>
				<path style="fill:#112B46;" d="M404.031,173.394c-0.165,0.516-0.717,0.934-1.233,0.934s-0.8-0.418-0.634-0.934
					c0.165-0.516,0.717-0.934,1.233-0.934C403.912,172.46,404.196,172.878,404.031,173.394z"/>
				<path style="fill:#56548B;" d="M403.733,173.394c-0.113,0.351-0.488,0.636-0.839,0.636c-0.351,0-0.544-0.285-0.432-0.636
					c0.113-0.351,0.488-0.635,0.839-0.635C403.652,172.758,403.845,173.043,403.733,173.394z"/>
			</g>
			<path style="fill:#FFC7AE;" d="M409.244,178.394c0.036,0.027,0.073,0.046,0.1,0.082c1.042,0.832,3.245,4.132,3.547,6.015
				c0.293,1.947-1.07,8.995-2.358,11.802c-1.883,3.327-4.169,7.798-6.637,12.313c-2.797,0.868-7.039-0.585-7.404-4.744l0.767-0.586
				c2.651-2.998,4.891-6.891,7.277-9.606c-0.027-0.832-0.21-2.331-0.165-3.702c0.027-0.978,0.155-1.883,0.549-2.395
				c0.987-1.28-4.854-0.676-5.613-1.975c-0.759-1.28,1.07-6.591,1.664-6.975C401.583,178.248,408.257,177.718,409.244,178.394z"/>
		</g>
		<path style="fill:#F2B59E;" d="M358.728,156.969c1.063,1.442,3.006,1.494,3.006,1.494s-0.065,1.523-1.503,1.313
			C358.793,159.566,358.728,156.969,358.728,156.969z"/>
		<path style="fill:#F2B59E;" d="M367.033,167.203c-2.761-0.477-4.267-0.582-4.267-0.582l3.813,1.889L367.033,167.203z"/>
	</g>
	<g id="XMLID_15_">
		<g>
			<path style="fill:#FFC7AE;" d="M117.006,325.207c0,0,8.683,19.553,11.304,24.949c2.621,5.396,8.968,5.534,11.105,3.741
				c2.137-1.793,18.206-23.69,20.637-30.724c2.431-7.034-8.321-12.243-13.35-6.378c-5.029,5.865-12.322,20.274-12.322,20.274
				l-12.758-18.181l-3.104,0.561L117.006,325.207z"/>
			
				<linearGradient id="SVGID_00000013910551604192721550000009591084609931137952_" gradientUnits="userSpaceOnUse" x1="121.6654" y1="334.5922" x2="160.4023" y2="334.5922">
				<stop  offset="0" style="stop-color:#868BEF"/>
				<stop  offset="1" style="stop-color:#7D76D4"/>
			</linearGradient>
			<path style="fill:url(#SVGID_00000013910551604192721550000009591084609931137952_);" d="M139.415,353.897
				c2.137-1.793,18.206-23.69,20.637-30.724c0.577-1.671,0.405-3.236-0.252-4.577l-7.313-4.337c-2.103-0.04-4.221,0.712-5.785,2.536
				c-5.029,5.865-12.322,20.274-12.322,20.274l-5.368-7.65c-3.77-0.04-7.404,3.268-7.346,6.217v0
				c2.501,5.568,5.332,11.818,6.644,14.519C130.931,355.552,137.279,355.69,139.415,353.897z"/>
			<path style="fill:#56548B;" d="M15.326,416.239v0.011c-1.282,0.118-1.987,0.192-1.987,0.192s-2.275-6.847-3.312-12.947
				c-1.709-10.127-1.442-13.737,1.036-13.267c0.865,0.16,2.393,1.56,4.016,3.311l-3.429,1.848
				C11.651,395.387,11.117,401.626,15.326,416.239z"/>
			
				<linearGradient id="SVGID_00000061449380265944385800000010554007459779794868_" gradientUnits="userSpaceOnUse" x1="73.0529" y1="371.1825" x2="145.4036" y2="371.1825">
				<stop  offset="0" style="stop-color:#DE697B"/>
				<stop  offset="1" style="stop-color:#BD2773"/>
			</linearGradient>
			<path style="fill:url(#SVGID_00000061449380265944385800000010554007459779794868_);" d="M80.082,371.716
				c-2.04,2.703-4.551,6.164-7.029,9.635c6.217,7.819,12.68,8.685,14.485,8.802l12.103-13.086c-5.288-1.164-8.866-2.211-8.866-2.211
				C85.177,374.108,81.503,372.57,80.082,371.716z M92.131,361.172c0.31,0.459,0.673,0.876,1.004,1.325
				c0.897,1.196,1.56,2.574,1.934,4.027c2.008,0.289,6.388,0.791,12.872,0.887c2.564,0.032,5.469,0,8.695-0.128
				c4.123-0.171,6.965-0.459,9.058-1.132c-8.161-6.837-16.782-13.118-21.663-13.791c-5.779-0.801-9.902,1.752-13.342,5.427
				c0.032,0.128,0.064,0.246,0.085,0.342C91.042,359.196,91.501,360.254,92.131,361.172z M138.471,377.527
				c-0.085,0.053-0.171,0.096-0.256,0.139c-7.563,3.91-21.258,2.639-31.993,0.726c-0.299-0.053-0.588-0.107-0.887-0.16
				l10.789,11.099l28.821-1.709c0.214-1.154,0.363-2.297,0.459-3.429C144.367,383.156,141.836,380.678,138.471,377.527z"/>
			<path style="fill:#AA115E;" d="M116.124,389.331l28.821-1.709c-0.107,0.609-0.235,1.218-0.385,1.827
				c-4.486,0.16-15.66,0.62-27.176,1.186L116.124,389.331z"/>
			
				<linearGradient id="SVGID_00000076591180059164124720000016823781718898100115_" gradientUnits="userSpaceOnUse" x1="53.7384" y1="400.8654" x2="174.1898" y2="400.8654">
				<stop  offset="0" style="stop-color:#DE697B"/>
				<stop  offset="1" style="stop-color:#BD2773"/>
			</linearGradient>
			<path style="fill:url(#SVGID_00000076591180059164124720000016823781718898100115_);" d="M117.384,390.634
				c11.516-0.566,22.689-1.026,27.176-1.186c0.15-0.609,0.278-1.218,0.385-1.827c0.214-1.154,0.363-2.297,0.459-3.429
				c0.085-0.929,0.139-1.848,0.15-2.767c7.104,3.098,26.652,1.998,26.652,1.998c-0.438,9.283,5.651,22.977-1.57,31.523
				c-7.221,8.546-22.251,5.01-37.431,2.062c-15.169-2.948-38.744-4.123-64.82-3.835c-3.365,0.043-6.783,0.117-10.169,0.235
				c-4.262-1.677-5.897-14.271-3.066-16.835c2.649-0.374,5.33-0.737,7.969-1.09c8.236-1.111,16.141-2.126,22.059-2.767
				c2.297-0.256,4.294-0.449,5.886-0.577C97.419,391.659,107.524,391.104,117.384,390.634z"/>
			<path style="fill:#6F6FC6;" d="M159.451,336.165c0.075,0.385,1.624,8.824-0.566,20.82c-2.243,12.285-7.157,19.805-13.62,16.857
				l-0.128,0.011c-0.085-0.737-0.182-1.485-0.288-2.233C152.689,361.279,157.806,342.746,159.451,336.165z"/>
			<path style="fill:#6F6FC6;" d="M139.325,325.547c1.079-2.788,2.382-5.491,3.942-7.723c-2.98,8.087-4.86,18.256-6.847,26.919
				c-0.555-1.367-0.887-2.617-0.855-3.76C135.64,338.718,136.868,331.935,139.325,325.547z"/>
			
				<linearGradient id="SVGID_00000165931700575540744990000003915207652182949551_" gradientUnits="userSpaceOnUse" x1="122.059" y1="328.2469" x2="158.4877" y2="391.3433">
				<stop  offset="0" style="stop-color:#868BEF"/>
				<stop  offset="1" style="stop-color:#7D76D4"/>
			</linearGradient>
			<path style="fill:url(#SVGID_00000165931700575540744990000003915207652182949551_);" d="M144.848,371.62
				c-1.965,2.585-4.091,4.658-6.377,5.907c-0.085,0.053-0.171,0.096-0.256,0.139c-7.563,3.91-21.258,2.639-31.993,0.726
				c-1.934-1.934-1.741-9.048,1.72-10.981c2.564,0.032,5.469,0,8.695-0.128c4.123-0.171,6.965-0.459,9.058-1.132
				c4.038-1.314,5.298-4.081,7.627-10.308c1.154-3.076,2.136-6.911,3.098-11.099c1.987-8.663,3.867-18.833,6.847-26.919
				c1.805-2.617,3.952-4.572,6.441-5.213c0.662-0.16,1.357-0.246,2.062-0.214c0.299,0.011,0.598,0.032,0.876,0.043
				c0.459,1.1,1.314,2.04,2.404,2.542c1.26,0.577,2.831,0.652,3.76,1.688c2.03,2.265-1.068,6.399,0.844,8.77
				c0.374,0.459,0.887,0.769,1.41,1.036c1.752,0.897,3.707,1.335,5.683,1.421c0.62,2.03,1.282,4.326,2.051,6.901
				c5.298,17.818,3.856,39.343,3.408,48.625c0,0-19.548,1.1-26.652-1.998c0.043-2.521-0.128-5.031-0.417-7.574l0.128-0.011
				c6.463,2.948,11.377-4.572,13.62-16.857c2.19-11.996,0.641-20.435,0.566-20.82C157.806,342.746,152.689,361.279,144.848,371.62z"
				/>
			<path style="fill:#FFC7AE;" d="M149.708,311.66c0-1.389,0-2.564,0-2.564l-6.035-0.438c-1.624-3.91-2.948-9.507-2.874-16.28
				h-0.043c0.086-1.442,0.331-2.906,0.684-4.252c0.107,0.32,0.214,0.62,0.288,0.887c0.844,2.948,2.542,5.651,4.85,7.681
				c0.78,0.694,1.709,1.442,1.741,2.478c0.032,0.844-0.545,1.592-0.609,2.425c-0.085,1.357,1.154,2.404,2.297,3.141
				c1.143,0.737,2.446,1.613,2.596,2.959c0.075,0.705-0.192,1.399-0.31,2.104c-0.15,0.887-0.011,1.805,0.352,2.638
				c-0.278-0.011-0.577-0.032-0.876-0.043c-0.705-0.032-1.399,0.053-2.062,0.214C149.708,312.29,149.708,311.97,149.708,311.66z"/>
			<path style="fill:#FFC7AE;" d="M95.069,366.524c2.008,0.288,6.388,0.79,12.872,0.887c-3.461,1.934-3.653,9.048-1.72,10.981
				c-0.299-0.053-0.588-0.107-0.887-0.16c-2.04-0.385-3.952-0.78-5.694-1.164c-5.288-1.164-8.866-2.211-8.866-2.211
				c-5.598-0.748-9.272-2.286-10.693-3.141c-0.363-0.224-0.588-0.395-0.652-0.502c-1.624-2.489,1.442-10.052,2.831-10.746
				c1.378-0.694,5.854,0.929,5.854,0.929c-0.224-4.155,0.128-6.185,1.634-5.373c0.523,0.278,0.78,1.132,0.94,1.763
				c0.032,0.128,0.064,0.246,0.085,0.342c0.267,1.068,0.726,2.126,1.357,3.044c0.31,0.459,0.673,0.876,1.004,1.325
				C94.033,363.693,94.695,365.071,95.069,366.524z"/>
			<path style="fill:#FFC7AE;" d="M87.538,390.153l-2.361,2.564c-5.918,0.641-13.823,1.656-22.059,2.767
				c1.634-2.361,5.747-8.257,9.934-14.133C79.27,389.17,85.733,390.036,87.538,390.153z"/>
			<g>
				<path style="fill:#FFC7AE;" d="M117.006,325.207c-5.309-2.382-10.244-4.7-10.565-5.555c-0.523-1.421,0.246-6.174,2.179-8.621
					c0.107-0.15,0.224-0.278,0.342-0.406c0.192-0.203,0.395-0.374,0.598-0.523c0.449-0.331,0.94-0.523,1.474-0.566
					c1.901-0.107,1.624,4.679,1.357,5.865c-0.107,0.481-0.855,1.56-1.367,2.404c-0.192,0.31-0.342,0.587-0.427,0.78
					c0.107,0.096,0.256,0.139,0.406,0.107c0,0,0.224-0.043,0.588-0.107c0.021,0,0.053-0.011,0.075-0.011h0.011l5.63-1.026
					c0.385-0.075,0.641-0.438,0.577-0.833l-0.085-0.449l-0.224-1.282c-0.15-0.865-0.32-1.816-0.47-2.628
					c-0.021-0.15-0.043-0.299-0.075-0.438c-0.053-0.342-0.107-0.652-0.16-0.897c-0.032-0.203-0.064-0.363-0.085-0.47
					c-0.021-0.118-0.032-0.182-0.032-0.182c-0.032-0.16-0.021-2.222,1.079-1.965c0.63,0.139,0.876,0.993,0.951,1.528
					c0.139,1.047,0.15,2.115,0.737,3.044c0.321,0.491,0.759,0.876,1.143,1.325c0.951,1.132,1.1,3.113,0.962,4.587L117.006,325.207z"
					/>
				
					<linearGradient id="SVGID_00000056412600344952324860000011180723241353906837_" gradientUnits="userSpaceOnUse" x1="107.3447" y1="299.0588" x2="117.861" y2="317.2736">
					<stop  offset="0" style="stop-color:#74DAFF"/>
					<stop  offset="0.13" style="stop-color:#78CDFD"/>
					<stop  offset="0.3683" style="stop-color:#84ACF8"/>
					<stop  offset="0.6866" style="stop-color:#9677EF"/>
					<stop  offset="0.6898" style="stop-color:#9676EF"/>
					<stop  offset="0.765" style="stop-color:#896AF2"/>
					<stop  offset="0.9025" style="stop-color:#684AF9"/>
					<stop  offset="1" style="stop-color:#4D2FFF"/>
				</linearGradient>
				<path style="fill:url(#SVGID_00000056412600344952324860000011180723241353906837_);" d="M117.882,316.715
					c0.064,0.395-0.192,0.758-0.577,0.833l-5.63,1.026h-0.011c-0.021,0-0.053,0.011-0.075,0.011c-0.235,0-0.449-0.171-0.491-0.406
					c0,0-0.032-0.139-0.075-0.374c0.513-0.844,1.261-1.923,1.367-2.404c0.267-1.186,0.545-5.971-1.357-5.865
					c-0.534,0.043-1.025,0.235-1.474,0.566l-2.051-10.757c-0.064-0.278,0.139-0.545,0.417-0.577
					c0.021-0.011,0.043-0.011,0.064-0.011h6.089c0.342,0,0.641,0.256,0.705,0.598l1.795,10.073l0.171,0.94
					c0,0,0.011,0.064,0.032,0.182l0.085,0.47l0.16,0.897l0.075,0.438c0.15,0.812,0.32,1.763,0.47,2.628
					c0.075,0.47,0.16,0.908,0.224,1.282L117.882,316.715z"/>
				<path style="fill:#56548B;" d="M111.099,318.178c0.043,0.235,0.256,0.406,0.491,0.406c-0.363,0.064-0.588,0.107-0.588,0.107
					c-0.15,0.032-0.299-0.011-0.406-0.107c0.085-0.192,0.235-0.47,0.427-0.78C111.067,318.039,111.099,318.178,111.099,318.178z"/>
				<path style="fill:#56548B;" d="M107.51,299.346l2.051,10.757c-0.203,0.15-0.406,0.32-0.598,0.523
					c-0.053-0.256-0.075-0.406-0.075-0.406l-2.062-10.746c-0.043-0.246,0.096-0.481,0.31-0.555c0.021-0.011,0.043-0.011,0.064-0.021
					c0.224-0.064,0.726-0.128,0.726-0.128C107.649,298.801,107.446,299.068,107.51,299.346z"/>
			</g>
			<path style="fill:#FFC7AE;" d="M55.149,396.573c-2.831,2.564-1.196,15.158,3.066,16.835c-18.811,0.641-36.993,2.275-42.889,2.841
				v-0.011c-4.209-14.613-3.675-20.852-3.675-20.852l3.429-1.848c3.055,3.29,6.473,7.852,6.473,7.852S37.866,398.955,55.149,396.573
				z"/>
			
				<linearGradient id="SVGID_00000159450699819492085090000009271230153955047584_" gradientUnits="userSpaceOnUse" x1="138.955" y1="302.7469" x2="179.3169" y2="302.7469">
				<stop  offset="0" style="stop-color:#5B2A8C"/>
				<stop  offset="0.1693" style="stop-color:#4B2785"/>
				<stop  offset="0.4267" style="stop-color:#38247D"/>
				<stop  offset="0.6972" style="stop-color:#2E2379"/>
				<stop  offset="1" style="stop-color:#2A2277"/>
			</linearGradient>
			<path style="fill:url(#SVGID_00000159450699819492085090000009271230153955047584_);" d="M166.747,327.897
				c-1.976-0.085-3.931-0.523-5.683-1.421c-0.523-0.267-1.036-0.577-1.41-1.036c-1.912-2.372,1.186-6.505-0.844-8.77
				c-0.929-1.036-2.5-1.111-3.76-1.688c-1.09-0.502-1.944-1.442-2.404-2.542c-0.363-0.833-0.502-1.752-0.352-2.638
				c0.117-0.705,0.385-1.399,0.31-2.104c-0.15-1.346-1.453-2.222-2.596-2.959c-1.143-0.737-2.382-1.784-2.297-3.141
				c0.063-0.824,0.717-1.539,0.611-2.344c-0.092-0.702-0.699-1.391-1.21-1.834c-0.703-0.608-1.545-1.029-2.336-1.518
				c-2.278-1.409-4.172-3.433-5.426-5.8c-0.173-0.327-0.337-0.669-0.382-1.037c-0.079-0.64,0.21-1.264,0.515-1.833
				c3.086-5.766,7.711-9.53,14.434-9.651c2.482-0.045,5.115,0.347,7.031,1.927c1.256,1.036,2.089,2.545,3.432,3.477
				c1.472,1.022,3.287,0.938,4.9,1.617c2.585,1.068,3.963,4.059,3.91,6.858c-0.043,2.243-0.769,4.764,0.62,6.527
				c0.726,0.94,1.901,1.399,2.831,2.158c1.752,1.442,2.468,4.027,1.709,6.164c-0.662,1.837-2.275,3.343-2.382,5.288
				c-0.139,2.607,2.457,4.529,3.162,7.05c0.63,2.222-0.374,4.69-2.083,6.26c-1.699,1.56-3.984,2.35-6.27,2.735
				C169.449,327.865,168.093,327.961,166.747,327.897z"/>
		</g>
	</g>
</g>
</svg>
