<svg width="30" height="28" viewBox="0 0 30 28" fill="none" xmlns="http://www.w3.org/2000/svg">
<g clip-path="url(#clip0_6899_3772)">
<path d="M28 13.7395C28 6.83594 22.4036 1.2395 15.5 1.2395C8.59644 1.2395 3 6.83594 3 13.7395C3 20.6431 8.59644 26.2395 15.5 26.2395C22.4036 26.2395 28 20.6431 28 13.7395Z" fill="#168B9A"/>
<mask id="mask0_6899_3772" style="mask-type:luminance" maskUnits="userSpaceOnUse" x="3" y="1" width="25" height="26">
<path d="M28 1.2395H3V26.2395H28V1.2395Z" fill="white"/>
</mask>
<g mask="url(#mask0_6899_3772)">
<mask id="mask1_6899_3772" style="mask-type:luminance" maskUnits="userSpaceOnUse" x="3" y="1" width="25" height="26">
<path d="M27.9918 1.2395H3V26.2395H27.9918V1.2395Z" fill="white"/>
</mask>
<g mask="url(#mask1_6899_3772)">
<path d="M14.7689 1.2395H16.2336C16.6517 1.29187 17.0722 1.32949 17.4879 1.40314C20.6305 1.91858 23.459 3.61104 25.3987 6.13667C27.3385 8.6623 28.244 11.8317 27.9312 15.0008C27.7056 17.6005 26.6334 20.0544 24.8791 21.9862C23.7761 23.2659 22.42 24.3034 20.8963 25.0333C19.3726 25.7632 17.7142 26.1697 16.0257 26.2273C13.6036 26.3638 11.1977 25.7558 9.13113 24.4852C7.57267 23.5754 6.23316 22.3343 5.20734 20.8496C4.18151 19.365 3.49446 17.6731 3.19475 15.8936C3.1072 15.4247 3.06382 14.9477 3 14.4747V13.0068C3.01964 12.8308 3.04009 12.6558 3.05973 12.4798C3.34212 9.77117 4.49874 7.22808 6.35471 5.23511C8.21067 3.24215 10.665 1.90768 13.3467 1.43343C13.8181 1.35078 14.2951 1.30578 14.7689 1.2395ZM13.5579 15.7987C13.5055 15.7536 13.4621 15.7168 13.4204 15.6816C12.8023 15.1159 12.1843 14.55 11.5662 13.9838C11.0753 13.5403 10.6089 13.0747 10.0934 12.6639C9.92497 12.5306 9.72378 12.4451 9.51092 12.4162C9.29806 12.3873 9.08135 12.4163 8.8835 12.4999C8.68565 12.5836 8.51395 12.7189 8.38635 12.8917C8.25876 13.0645 8.17996 13.2684 8.15824 13.4822C8.13331 13.7013 8.16453 13.9233 8.24898 14.1272C8.33343 14.331 8.46834 14.51 8.64101 14.6473C9.98402 15.8671 11.3257 17.0884 12.666 18.3115C12.7861 18.4519 12.936 18.5641 13.1046 18.6398C13.2731 18.7157 13.4564 18.7533 13.6412 18.75C13.8261 18.7468 14.0079 18.7026 14.1737 18.6208C14.3395 18.5391 14.4852 18.4218 14.6003 18.2771C17.1881 15.7094 19.7752 13.1415 22.3614 10.5733C22.431 10.5045 22.4989 10.4342 22.5611 10.3598C22.6793 10.2193 22.7651 10.0544 22.8122 9.877C22.8594 9.69958 22.8669 9.51391 22.8341 9.33326C22.8015 9.15261 22.7293 8.98139 22.6228 8.83181C22.5164 8.68224 22.3782 8.55799 22.2182 8.46791C21.9586 8.31742 21.6537 8.26424 21.3584 8.31791C21.0631 8.37159 20.7965 8.52859 20.6063 8.76084C18.3212 11.0443 16.0369 13.3283 13.7535 15.6128C13.6937 15.6718 13.6291 15.7308 13.5579 15.7987Z" fill="#168B9A"/>
<path d="M13.554 15.7988C13.6251 15.7309 13.6906 15.6719 13.752 15.6098C16.0365 13.3258 18.3208 11.0417 20.6048 8.75774C20.795 8.52549 21.0616 8.36847 21.357 8.31481C21.6523 8.26113 21.957 8.31432 22.2168 8.46481C22.3768 8.55489 22.5149 8.67914 22.6214 8.82871C22.7278 8.97828 22.8 9.1495 22.8327 9.33015C22.8655 9.5108 22.858 9.69642 22.8108 9.87383C22.7635 10.0513 22.6778 10.2161 22.5596 10.3566C22.4975 10.4319 22.4287 10.5014 22.36 10.5702C19.7732 13.1384 17.1862 15.7063 14.5989 18.274C14.4837 18.4186 14.338 18.536 14.1722 18.6178C14.0065 18.6995 13.8246 18.7436 13.6398 18.7469C13.455 18.7502 13.2717 18.7126 13.1031 18.6368C12.9345 18.5609 12.7847 18.4488 12.6645 18.3083C11.3237 17.0864 9.98204 15.8648 8.63956 14.6434C8.46689 14.5061 8.33199 14.3271 8.24754 14.1233C8.16309 13.9194 8.13184 13.6974 8.15677 13.4783C8.17849 13.2645 8.25729 13.0606 8.38488 12.8878C8.51248 12.715 8.68418 12.5797 8.88203 12.496C9.07988 12.4123 9.29659 12.3834 9.50945 12.4123C9.72231 12.4412 9.9235 12.5267 10.092 12.66C10.6058 13.0691 11.0738 13.5363 11.5648 13.9798C12.184 14.5444 12.802 15.1103 13.419 15.6777C13.4574 15.7194 13.5016 15.7546 13.554 15.7988Z" fill="white"/>
</g>
</g>
</g>
<defs>
<clipPath id="clip0_6899_3772">
<rect width="25" height="25" fill="white" transform="translate(3 1.2395)"/>
</clipPath>
</defs>
</svg>
