<svg width="1970" height="1497" viewBox="0 0 1970 1497" fill="none" xmlns="http://www.w3.org/2000/svg">
<path d="M1754.87 1474.63C1754.87 1474.63 1781.44 1368.65 1847.67 1335.94C1913.89 1303.24 1984.58 1348.01 1966.63 1395.1C1951.15 1435.7 1887.51 1385.78 1838 1405.41C1788.48 1425.04 1780.68 1474.63 1780.68 1474.63H1754.87Z" fill="#40A87B"/>
<path d="M1953.83 1366.86C1953.83 1366.86 1882.75 1326.36 1830.01 1363.81C1777.28 1401.26 1760.59 1474.63 1760.59 1474.63" stroke="#6ADB6A" stroke-width="2.9842" stroke-miterlimit="10"/>
<path d="M1942.36 1347.92L1925.83 1355.13" stroke="#6ADB6A" stroke-width="2.9842" stroke-miterlimit="10"/>
<path d="M1918.48 1332.47L1885.54 1347.92" stroke="#6ADB6A" stroke-width="2.9842" stroke-miterlimit="10"/>
<path d="M1868.99 1332.47L1851.86 1352.71" stroke="#6ADB6A" stroke-width="2.9842" stroke-miterlimit="10"/>
<path d="M1836.51 1346.04L1828.81 1364.68" stroke="#6ADB6A" stroke-width="2.9842" stroke-miterlimit="10"/>
<path d="M1934.1 1392.66L1908.71 1350.66" stroke="#6ADB6A" stroke-width="2.9842" stroke-miterlimit="10"/>
<path d="M1889.25 1386.64L1865.96 1349.25" stroke="#6ADB6A" stroke-width="2.9842" stroke-miterlimit="10"/>
<path d="M1849.69 1380.91L1814.69 1376.56" stroke="#6ADB6A" stroke-width="2.9842" stroke-miterlimit="10"/>
<path d="M1808.94 1402.12L1788.88 1408.7" stroke="#6ADB6A" stroke-width="2.9842" stroke-miterlimit="10"/>
<path d="M1742.99 1471.29C1742.99 1471.29 1724.24 1116.06 1893.91 1161.84C2063.59 1207.61 1761.56 1399.07 1761.82 1471.29H1742.99Z" fill="#6ADB6A"/>
<path d="M1749.85 1471.29C1749.85 1471.29 1755.77 1285.69 1876.72 1193.92" stroke="#40A87B" stroke-width="2.9842" stroke-miterlimit="10"/>
<path d="M1823.67 1247.74L1826.69 1183.74" stroke="#40A87B" stroke-width="2.9842" stroke-miterlimit="10"/>
<path d="M1918.56 1221.22L1836.81 1231.88" stroke="#40A87B" stroke-width="2.9842" stroke-miterlimit="10"/>
<path d="M1886.77 1275.84L1800.33 1285.91" stroke="#40A87B" stroke-width="2.9842" stroke-miterlimit="10"/>
<path d="M1843.55 1329.97L1776.79 1339.41" stroke="#40A87B" stroke-width="2.9842" stroke-miterlimit="10"/>
<path d="M1770.39 1279.39L1785.69 1316.57" stroke="#40A87B" stroke-width="2.9842" stroke-miterlimit="10"/>
<path d="M1795.53 1219.06L1808.58 1271.4" stroke="#40A87B" stroke-width="2.9842" stroke-miterlimit="10"/>
<path d="M1756.1 1341.46L1768.29 1365.76" stroke="#40A87B" stroke-width="2.9842" stroke-miterlimit="10"/>
<path d="M1808.58 1380.15L1760.74 1395.23" stroke="#40A87B" stroke-width="2.9842" stroke-miterlimit="10"/>
<path d="M1599.22 1463.87C1599.22 1463.87 2154.53 -99.7861 1135.49 6.05692C699.024 51.3899 780.503 326.416 587.737 583.745C462.788 750.543 222.474 614.092 132.419 759.845C42.364 905.598 148.193 1321.19 185.317 1463.87H1599.22Z" fill="#E5F0F8"/>
<path d="M1229.79 1456.82H401.17C371.059 1456.82 346.649 1432.41 346.649 1402.3V219.235C346.649 189.124 371.059 164.714 401.17 164.714H1229.79C1259.91 164.714 1284.32 189.124 1284.32 219.235V1402.3C1284.32 1432.41 1259.91 1456.82 1229.79 1456.82Z" fill="#586773"/>
<path d="M1261.19 1456.82H432.565C402.454 1456.82 378.044 1432.41 378.044 1402.3V219.235C378.044 189.124 402.454 164.714 432.565 164.714H1261.19C1291.3 164.714 1315.71 189.124 1315.71 219.235V1402.3C1315.71 1432.41 1291.3 1456.82 1261.19 1456.82Z" fill="#93ACBF"/>
<path d="M1261.38 1342.53H432.343C431.675 1342.53 431.007 1342.42 430.395 1342.2C427.501 1341.42 425.386 1338.75 425.386 1335.58V219.042C425.386 215.145 428.502 212.03 432.342 212.03H1261.38C1265.28 212.03 1268.39 215.145 1268.39 219.042V1335.58C1268.39 1339.42 1265.28 1342.53 1261.38 1342.53Z" fill="#586773"/>
<path d="M1259.57 220.823H434.171V1333.75H1259.57V220.823Z" fill="#E5F0F8"/>
<path d="M754.584 1399.84C754.584 1386.61 765.411 1375.78 778.645 1375.78H915.111C928.345 1375.78 939.172 1386.61 939.172 1399.84C939.172 1413.08 928.344 1423.9 915.111 1423.9H778.645C765.411 1423.9 754.584 1413.08 754.584 1399.84Z" fill="#BBDBF3"/>
<path d="M1259.57 220.823H434.171V297.818H1259.57V220.823Z" fill="#BBDBF3"/>
<path d="M494.021 262.763C495.941 254.681 490.946 246.573 482.865 244.652C474.783 242.732 466.674 247.726 464.754 255.808C462.833 263.89 467.828 271.999 475.91 273.919C483.991 275.84 492.1 270.845 494.021 262.763Z" fill="white"/>
<path d="M537.554 262.763C539.474 254.681 534.479 246.573 526.398 244.652C518.316 242.732 510.207 247.726 508.287 255.808C506.366 263.89 511.361 271.998 519.443 273.919C527.525 275.839 535.633 270.845 537.554 262.763Z" fill="white"/>
<path d="M581.087 262.763C583.007 254.681 578.013 246.572 569.931 244.652C561.849 242.731 553.741 247.726 551.82 255.808C549.899 263.89 554.894 271.998 562.976 273.919C571.058 275.839 579.166 270.845 581.087 262.763Z" fill="white"/>
<path d="M431.975 851.791L457.627 863.214L473.883 826.711L448.231 815.287L431.975 851.791Z" fill="#F2BB16"/>
<path d="M454.172 801.665L479.919 813.13L496.677 787.39L461.899 771.904L454.172 801.665Z" fill="#F2BB16"/>
<path d="M424.474 822.429L484.41 849.119C487.202 850.363 490.474 849.107 491.718 846.314L501.933 823.375C503.177 820.582 501.921 817.311 499.128 816.067L439.192 789.377C436.399 788.133 433.127 789.389 431.884 792.182L421.669 815.121C420.426 817.914 421.681 821.186 424.474 822.429Z" fill="#F9E181"/>
<path d="M490.952 820.986L482.609 839.735L485.045 840.818L493.387 822.07L490.952 820.986Z" fill="#F2BB16"/>
<path d="M482.241 817.079L473.895 835.823L476.33 836.907L484.677 818.164L482.241 817.079Z" fill="#F2BB16"/>
<path d="M473.487 813.18L465.139 831.926L467.574 833.011L475.922 814.265L473.487 813.18Z" fill="#F2BB16"/>
<path d="M464.731 809.288L456.384 828.031L458.819 829.116L467.166 810.373L464.731 809.288Z" fill="#F2BB16"/>
<path d="M455.976 805.383L447.628 824.129L450.064 825.214L458.412 806.468L455.976 805.383Z" fill="#F2BB16"/>
<path d="M447.22 801.477L438.872 820.223L441.308 821.308L449.656 802.562L447.22 801.477Z" fill="#F2BB16"/>
<path d="M438.466 797.579L430.117 816.326L432.553 817.41L440.901 798.664L438.466 797.579Z" fill="#F2BB16"/>
<path d="M455.799 770.173L502.29 790.876C503.959 791.619 505.915 790.869 506.659 789.199L506.823 788.831C507.566 787.162 506.816 785.206 505.146 784.462L458.654 763.759C456.985 763.016 455.029 763.766 454.285 765.436L454.121 765.804C453.379 767.474 454.13 769.43 455.799 770.173Z" fill="#F9E181"/>
<path d="M174.415 868.14L199.654 855.832L182.14 819.916L156.9 832.223L174.415 868.14Z" fill="#F2BB16"/>
<path d="M150.287 818.89L175.619 806.536L166.673 777.154L132.455 793.841L150.287 818.89Z" fill="#F2BB16"/>
<path d="M147.104 854.987L206.076 826.229C208.824 824.889 209.965 821.575 208.625 818.828L197.619 796.259C196.279 793.511 192.965 792.37 190.218 793.71L131.246 822.468C128.498 823.808 127.357 827.121 128.697 829.869L139.703 852.439C141.042 855.186 144.356 856.327 147.104 854.987Z" fill="#F9E181"/>
<path d="M191.259 801.919L188.863 803.089L197.864 821.532L200.26 820.362L191.259 801.919Z" fill="#F2BB16"/>
<path d="M182.607 806.079L180.211 807.248L189.204 825.689L191.6 824.521L182.607 806.079Z" fill="#F2BB16"/>
<path d="M173.997 810.274L171.601 811.443L180.596 829.888L182.992 828.719L173.997 810.274Z" fill="#F2BB16"/>
<path d="M165.379 814.48L162.982 815.649L171.975 834.09L174.372 832.922L165.379 814.48Z" fill="#F2BB16"/>
<path d="M156.769 818.676L154.373 819.844L163.368 838.29L165.764 837.121L156.769 818.676Z" fill="#F2BB16"/>
<path d="M148.155 822.878L145.759 824.047L154.754 842.492L157.15 841.323L148.155 822.878Z" fill="#F2BB16"/>
<path d="M139.54 827.078L137.144 828.247L146.139 846.692L148.535 845.523L139.54 827.078Z" fill="#F2BB16"/>
<path d="M127.208 797.401L172.951 775.094C174.593 774.293 175.276 772.312 174.475 770.67L174.298 770.308C173.497 768.665 171.516 767.983 169.874 768.784L124.131 791.091C122.489 791.892 121.806 793.873 122.607 795.515L122.783 795.877C123.585 797.52 125.566 798.202 127.208 797.401Z" fill="#F9E181"/>
<path d="M301.369 831.462L329.445 830.973L328.749 791.021L300.674 791.51L301.369 831.462Z" fill="#F2BB16"/>
<path d="M306.129 694.758L319.937 694.517L319.618 676.221L305.811 676.461L306.129 694.758Z" fill="#F2BB16"/>
<path d="M320.699 1456.82C497.816 1456.82 641.398 1313.24 641.398 1136.12C641.398 959.002 497.816 815.42 320.699 815.42C143.582 815.42 0 959.002 0 1136.12C0 1313.24 143.582 1456.82 320.699 1456.82Z" fill="#F9E181"/>
<path d="M325.814 1430.33C488.046 1427.51 617.737 1293.23 614.915 1131C612.093 968.765 477.811 839.083 315.579 841.905C153.347 844.727 23.665 979 26.487 1141.23C29.308 1303.47 163.581 1433.16 325.814 1430.33Z" fill="#F2BB16"/>
<path d="M265.842 714.597L266.572 756.563C266.609 758.699 268.029 760.597 270.073 761.309L314.449 776.346L358.277 759.774C360.292 758.991 361.646 757.045 361.609 754.909L360.879 712.943C360.845 711.021 359.749 709.331 358.024 708.507L315.239 686.713C313.732 685.991 312.025 686.021 310.434 686.796L268.433 710.065C266.848 710.948 265.809 712.675 265.842 714.597ZM274.961 716.789L313.047 695.724L351.845 715.452L352.484 752.186L314.282 766.736L275.6 753.523L274.961 716.789Z" fill="#F9E181"/>
<path d="M559.137 1284.61C510.38 1362.83 424.422 1415.46 325.638 1417.08C170.575 1419.78 42.403 1295.93 39.656 1141.02C38.332 1063.08 69.054 991.896 119.577 940.066C169.468 888.727 238.781 856.31 315.864 855.084C470.731 852.491 599.056 976.383 601.649 1131.25C602.584 1187.49 587.031 1240.22 559.137 1284.61Z" fill="#E5F0F8"/>
<path d="M320.806 1136.12L318.231 855.103C317.439 855.109 316.658 855.069 315.864 855.083C238.782 856.309 169.468 888.726 119.577 940.065C91.839 984.492 76.131 1037.18 77.064 1093.42C79.812 1248.33 208.138 1372.22 363.046 1369.47C439.974 1368.21 509.287 1335.79 559.136 1284.6C586.217 1241.51 601.529 1190.52 601.552 1136.12L320.806 1136.12Z" fill="white"/>
<path d="M601.553 1136.12C601.553 1134.49 601.677 1132.89 601.65 1131.25C599.07 977.176 472.032 853.811 318.231 855.104L320.806 1136.12L601.553 1136.12Z" fill="white"/>
<path d="M303.209 889.925C303.336 897.217 309.35 903.025 316.642 902.899C323.934 902.772 329.742 896.758 329.616 889.466C329.489 882.174 323.475 876.366 316.183 876.492C308.891 876.619 303.083 882.633 303.209 889.925Z" fill="#BBDBF3"/>
<path d="M504.457 962.841C506.698 955.901 502.889 948.459 495.949 946.217C489.009 943.976 481.567 947.785 479.326 954.725C477.084 961.665 480.894 969.108 487.834 971.349C494.774 973.59 502.216 969.781 504.457 962.841Z" fill="#BBDBF3"/>
<path d="M566.895 1118.63C559.603 1118.76 553.795 1124.77 553.921 1132.06C554.048 1139.35 560.062 1145.16 567.354 1145.04C574.646 1144.91 580.454 1138.89 580.328 1131.6C580.201 1124.31 574.187 1118.5 566.895 1118.63Z" fill="#BBDBF3"/>
<path d="M510.786 1310.95C512.75 1303.93 508.648 1296.64 501.624 1294.68C494.601 1292.71 487.315 1296.81 485.351 1303.84C483.387 1310.86 487.488 1318.15 494.512 1320.11C501.536 1322.08 508.822 1317.97 510.786 1310.95Z" fill="#BBDBF3"/>
<path d="M300.32 776.592L328.5 776.102L332.81 745.692L294.745 746.354L300.32 776.592Z" fill="#F2BB16"/>
<path d="M338.244 1383.16C338.65 1375.88 333.075 1369.65 325.793 1369.24C318.511 1368.83 312.279 1374.41 311.874 1381.69C311.468 1388.97 317.043 1395.2 324.325 1395.61C331.607 1396.02 337.839 1390.44 338.244 1383.16Z" fill="#BBDBF3"/>
<path d="M150.304 1326.56C157.579 1326.06 163.069 1319.75 162.566 1312.48C162.063 1305.2 155.757 1299.71 148.482 1300.22C141.206 1300.72 135.716 1307.03 136.219 1314.3C136.723 1321.58 143.029 1327.07 150.304 1326.56Z" fill="#BBDBF3"/>
<path d="M87.3767 1142.39C88.5093 1135.18 83.5869 1128.42 76.3822 1127.29C69.1776 1126.16 62.4188 1131.08 61.2862 1138.28C60.1536 1145.49 65.0761 1152.25 72.2808 1153.38C79.4854 1154.51 86.2441 1149.59 87.3767 1142.39Z" fill="#BBDBF3"/>
<path d="M155.906 969.058C158.171 962.126 154.388 954.67 147.456 952.405C140.524 950.14 133.068 953.923 130.803 960.855C128.538 967.787 132.321 975.243 139.253 977.508C146.185 979.773 153.64 975.99 155.906 969.058Z" fill="#BBDBF3"/>
<path d="M338.45 1151.76C347.045 1141.97 346.079 1127.07 336.292 1118.48C326.506 1109.88 311.606 1110.85 303.011 1120.64C294.417 1130.42 295.383 1145.32 305.169 1153.92C314.955 1162.51 329.856 1161.55 338.45 1151.76Z" fill="#F9E181"/>
<path d="M326.687 965.144L317.29 940.072L308.767 965.456L314.584 965.354L317.556 1136.18L323.848 1136.07L320.876 965.245L326.687 965.144Z" fill="#F9E181"/>
<path d="M320.698 1132.98L320.697 1139.27L427.196 1139.27L427.197 1144.92L452.429 1135.96L427.197 1127V1132.98L320.698 1132.98Z" fill="#F9E181"/>
<path d="M282.18 807.963L347.78 806.822C350.836 806.769 353.271 804.248 353.218 801.192L352.781 776.086C352.728 773.029 350.207 770.595 347.151 770.648L281.551 771.789C278.495 771.842 276.06 774.363 276.113 777.419L276.55 802.525C276.602 805.581 279.123 808.016 282.18 807.963Z" fill="#F9E181"/>
<path d="M344.604 778.44L341.939 778.487L342.302 799.005L344.968 798.957L344.604 778.44Z" fill="#F2BB16"/>
<path d="M334.906 778.646L332.241 778.692L332.596 799.206L335.261 799.16L334.906 778.646Z" fill="#F2BB16"/>
<path d="M325.321 778.812L322.656 778.858L323.011 799.375L325.676 799.328L325.321 778.812Z" fill="#F2BB16"/>
<path d="M315.735 778.98L313.069 779.027L313.424 799.54L316.09 799.494L315.735 778.98Z" fill="#F2BB16"/>
<path d="M306.156 779.144L303.49 779.19L303.845 799.707L306.511 799.661L306.156 779.144Z" fill="#F2BB16"/>
<path d="M296.573 779.311L293.908 779.357L294.263 799.874L296.928 799.828L296.573 779.311Z" fill="#F2BB16"/>
<path d="M286.997 779.474L284.332 779.52L284.687 800.037L287.352 799.991L286.997 779.474Z" fill="#F2BB16"/>
<path d="M288.486 747.364L339.371 746.479C341.198 746.447 342.654 744.94 342.622 743.113L342.615 742.711C342.583 740.884 341.076 739.429 339.249 739.46L288.364 740.345C286.537 740.377 285.081 741.884 285.113 743.711L285.12 744.113C285.152 745.94 286.658 747.395 288.486 747.364Z" fill="#F9E181"/>
<path d="M306.076 678.088L319.381 677.857C320.313 677.841 321.062 677.065 321.045 676.134C321.029 675.202 320.253 674.453 319.322 674.47L306.017 674.701C305.085 674.717 304.336 675.493 304.353 676.424C304.369 677.355 305.144 678.104 306.076 678.088Z" fill="#F9E181"/>
<path d="M1004.55 496.103L870.662 493.829L877.675 353.249L881.024 286.023L881.214 282.675L985.969 238.636L989.381 286.15L991.908 320.773L1004.55 496.103Z" fill="#F5AC97"/>
<path d="M993.998 882.418C993.998 882.418 991.756 894.786 987.937 915.842C986.466 923.935 984.749 933.36 982.857 943.836C970.279 1013.45 949.223 1130.58 931.284 1233.16V1233.27C924.978 1269.49 919.021 1303.9 913.976 1333.75H694.092L725.134 1076.97L741.215 943.835L742.722 931.257L884.371 903.719L915.027 897.763L993.998 882.418Z" fill="#088CFC"/>
<path d="M1152.57 1333.75H941.655L931.284 1233.19V1233.16L926.554 1187.09L901.994 1150.79L901.679 1078.37L901.083 943.835L900.978 921.693L915.203 920.747L987.937 915.842L1013.27 914.125L1035.55 912.654L1107.76 907.784L1111.54 943.835L1121.04 1034.12L1124.86 1070.35L1152.57 1333.75Z" fill="#088CFC"/>
<path d="M939.341 437.312C988.464 438.394 1012.37 411.445 1017.52 399.561L996.164 393.792L875.849 389.971L861.254 394.643C867.414 406.111 889.154 436.207 939.341 437.312Z" fill="#F5AC97"/>
<path d="M1201.34 921.238L1182.9 957.322C1182.12 958.845 1182.13 960.651 1182.92 962.167L1199.49 993.888C1200.58 995.979 1202.93 997.091 1205.24 996.612L1235.9 990.255C1239.9 989.426 1243.28 993.258 1241.97 997.124L1233.79 1021.15C1233.22 1022.8 1231.88 1024.07 1230.2 1024.54L1199.07 1033.19C1198.23 1033.42 1197.34 1033.44 1196.49 1033.25L1131.99 1018.52L1097.27 898.91L1147.75 861.514L1201.34 921.238Z" fill="#EA9D85"/>
<path d="M1240.45 1001.58L1199.36 1011.55L1182.79 998.176" stroke="#332B27" stroke-width="2.3216" stroke-miterlimit="10"/>
<path d="M1236.25 1013.93L1199.17 1021.34L1175.06 1007.22" stroke="#332B27" stroke-width="2.3216" stroke-miterlimit="10"/>
<path d="M1113.67 742.945L1111.56 943.838H741.197L742.906 437.364L872.675 390.473C874.129 393.138 875.704 395.926 877.642 398.833L878.126 399.439C885.154 408.405 898.603 416.887 936.286 417.735C967.667 418.462 983.056 414.1 991.779 408.405L991.9 408.284C996.626 405.134 1000.38 398.913 1002.56 395.521L1124.09 425.005L1115.85 680.666L1113.67 742.945Z" fill="#BBDBF3"/>
<path d="M1017.52 399.562C1017.52 399.562 1007.01 586.991 1008.52 695.328C1010.04 803.665 1017.52 1077.45 1017.52 1077.45C1017.52 1077.45 1086.13 1078.9 1149.24 1066.12C1149.24 1066.12 1150.19 942.088 1132.79 856.55C1115.39 771.011 1115.67 418.417 1115.67 418.417L1017.52 399.562Z" fill="#F74242"/>
<path d="M1376.35 718.794L1375.81 719.441C1352.07 747.898 1309.37 751.759 1280.91 728.021L1049.04 534.605C1020.59 510.867 1016.72 468.162 1040.46 439.705L1041 439.057C1064.74 410.6 1107.45 406.739 1135.9 430.477L1367.77 623.893C1396.23 647.633 1400.09 690.337 1376.35 718.794Z" fill="#F74242"/>
<path d="M1012.25 207.348C1012.25 207.348 1030.05 162.909 1008.24 166.978C986.428 171.047 1012.25 207.348 1012.25 207.348Z" fill="#322A28"/>
<path d="M861.254 394.644C861.254 394.644 911.9 657.211 913.602 787.714C915.304 918.217 915.304 918.216 915.304 918.216L909.504 1077.45C909.504 1077.45 768.399 1094.94 719.067 1074.82C719.067 1074.82 715.623 885.803 728.734 818.879C741.845 751.955 742.907 437.365 742.907 437.365L861.254 394.644Z" fill="#F74242"/>
<path d="M995.601 372.008L920.343 317.134L991.908 320.773L995.601 372.008Z" fill="#E99C84"/>
<path d="M266.335 630.288C268.289 624.669 304.345 624.228 329.445 632.142C350.724 638.824 398.121 659.512 412.048 665.709L387.715 750.959C378.864 749.617 360.513 748.635 352.164 746.849C329.948 742.096 287.267 724.866 288.297 716.586C289.251 708.377 328.058 715.342 325.644 711.534C323.229 707.727 294.551 693.03 281.668 692.197C268.715 691.289 240.752 693.922 236.679 687.573C232.534 681.148 240.127 672.962 240.127 672.962C240.127 672.962 229.54 675.203 229.352 668.339C229.163 661.475 244.76 653.87 244.76 653.87C244.76 653.87 239.073 655.779 240.736 648.18C242.473 640.51 269.513 637.187 269.513 637.187C269.513 637.187 264.234 635.902 266.335 630.288Z" fill="#F5AC97"/>
<path d="M887.27 1038.9C887.27 1038.9 784.56 1055.91 736.709 1038.9" stroke="white" stroke-width="3.5848" stroke-miterlimit="10" stroke-linecap="round" stroke-linejoin="round"/>
<path d="M1010.74 172.407C1010.74 172.407 1015 217.197 1018.02 248.971L1020.52 275.232C1022.5 295.981 1019.6 327.313 996.929 336.654C974.33 345.988 941.326 339.315 916.662 317.17C891.989 294.949 831.949 190.028 897.081 142.965C962.29 95.896 1008.12 161.841 1010.74 172.407Z" fill="#F5AC97"/>
<path d="M878.853 323.24C878.853 323.24 895.827 294.863 894.68 279.403C893.533 263.943 911.255 246.548 908.396 222.804C905.538 199.06 904.394 189.056 916.685 190.199C928.976 191.342 1015.87 210.779 1018.16 169.619C1020.44 128.459 917.777 88.729 876.357 158.472C876.357 158.472 848.818 157.211 857.232 215.597C865.645 273.98 877.892 283.925 878.853 323.24Z" fill="#322A28"/>
<path d="M904.945 268.116C914.252 280.031 917.264 288.754 907.91 296.061C898.555 303.368 881.804 302.934 872.497 291.019C863.19 279.104 863.229 263.522 872.584 256.214C881.938 248.907 895.638 256.201 904.945 268.116Z" fill="#F5AC97"/>
<path d="M954.258 236.572C954.716 241.385 957.611 245.047 960.724 244.75C963.838 244.454 965.991 240.312 965.533 235.499C965.075 230.686 962.18 227.025 959.067 227.321C955.953 227.618 953.8 231.76 954.258 236.572Z" fill="#332B27"/>
<path d="M1215.39 947.448L1382.66 714.041C1401.7 685.722 1391.11 644.886 1359.04 623.208C1326.96 601.611 1285.06 607.103 1265.94 635.404L1105.84 882.048L1215.39 947.448Z" fill="#F74242"/>
<path d="M1007.67 240.252C1010.79 239.956 1012.94 235.814 1012.48 231.001C1012.02 226.188 1009.13 222.527 1006.02 222.823C1002.9 223.119 1000.75 227.261 1001.21 232.074C1001.67 236.887 1004.56 240.548 1007.67 240.252Z" fill="#332B27"/>
<path d="M966.24 267.5C965.18 272.063 956.966 274.052 947.894 271.944C938.822 269.836 932.328 264.428 933.388 259.865C934.448 255.302 942.662 253.313 951.734 255.421C960.807 257.53 967.301 262.938 966.24 267.5Z" fill="#E99C84"/>
<path d="M1018.03 248.971L1019.65 266.045C1012.53 267.571 1006.45 266.141 1005.1 262.485C1003.6 258.145 1009.36 252.112 1018.03 248.971Z" fill="#E99C84"/>
<path d="M882.867 280.922C890.586 278.69 897.19 279.56 897.19 279.56C888.939 267.116 878.852 269.615 878.852 269.615" stroke="#E99C84" stroke-width="3.4926" stroke-miterlimit="10" stroke-linecap="round" stroke-linejoin="round"/>
<path d="M978.517 237.627L992.062 267.35C993.434 270.361 992.579 273.92 989.989 275.98L985.978 279.168L981.868 282.435" stroke="#322A28" stroke-width="2.2341" stroke-miterlimit="10"/>
<path d="M946.247 227.452C946.247 227.452 955.583 216.286 967.937 218.426" stroke="#322A28" stroke-width="2.2341" stroke-miterlimit="10"/>
<path d="M1016.28 215.595C1016.28 215.595 1007.31 208.551 996.498 214.892" stroke="#322A28" stroke-width="2.2341" stroke-miterlimit="10"/>
<path d="M638.51 854.473L639.311 854.738C674.493 866.377 712.802 847.115 724.442 811.933L819.28 525.267C830.919 490.084 811.657 451.776 776.474 440.136L775.674 439.871C740.492 428.231 702.183 447.494 690.543 482.676L595.705 769.342C584.065 804.524 603.328 842.833 638.51 854.473Z" fill="#F74242"/>
<path d="M374.057 768.785L647.67 857.232C680.579 866.253 715.912 843.202 726.242 805.9C736.489 768.606 717.932 730.645 685.015 721.541L400.96 644.939L374.057 768.785Z" fill="#F74242"/>
<path d="M931.291 1233.25L948.133 1177.02H964.271L989.967 1107.42" stroke="white" stroke-width="1.8175" stroke-miterlimit="10" stroke-linecap="round" stroke-linejoin="round"/>
<path d="M966.126 291.019L991.553 299.959C991.553 299.959 986.331 312.936 973.489 309.215C960.647 305.494 966.126 291.019 966.126 291.019Z" fill="white"/>
<path d="M839.596 420.374C839.596 420.374 858.888 580.844 870.662 660.112C882.436 739.38 884.474 934.763 887.27 1007.15" stroke="white" stroke-width="3.5848" stroke-miterlimit="10" stroke-linecap="round" stroke-linejoin="round"/>
<path d="M1041.94 451.307C1041.94 451.307 1031.75 615.158 1028.14 687.661C1024.54 760.163 1041.94 1015.37 1041.94 1015.37" stroke="white" stroke-width="3.5848" stroke-miterlimit="10" stroke-linecap="round" stroke-linejoin="round"/>
<path d="M1140.54 1029.39C1140.54 1029.39 1091.24 1045.82 1041.94 1032.77" stroke="white" stroke-width="3.5848" stroke-miterlimit="10" stroke-linecap="round" stroke-linejoin="round"/>
<path d="M1051.12 756.78C1056.2 756.78 1060.31 752.668 1060.31 747.596C1060.31 742.524 1056.2 738.412 1051.12 738.412C1046.05 738.412 1041.94 742.524 1041.94 747.596C1041.94 752.668 1046.05 756.78 1051.12 756.78Z" fill="white"/>
<path d="M1051.12 841.143C1056.2 841.143 1060.31 837.031 1060.31 831.959C1060.31 826.887 1056.2 822.775 1051.12 822.775C1046.05 822.775 1041.94 826.887 1041.94 831.959C1041.94 837.031 1046.05 841.143 1051.12 841.143Z" fill="white"/>
<path d="M1057.89 907.801C1062.96 907.801 1067.07 903.689 1067.07 898.617C1067.07 893.545 1062.96 889.433 1057.89 889.433C1052.82 889.433 1048.71 893.545 1048.71 898.617C1048.71 903.689 1052.82 907.801 1057.89 907.801Z" fill="white"/>
<path d="M1062.72 985.74C1067.8 985.74 1071.91 981.628 1071.91 976.556C1071.91 971.484 1067.8 967.372 1062.72 967.372C1057.65 967.372 1053.54 971.484 1053.54 976.556C1053.54 981.628 1057.65 985.74 1062.72 985.74Z" fill="white"/>
<path d="M890.85 307.647C903.093 305.957 911.114 290.784 908.764 273.756C906.414 256.729 894.584 244.294 882.341 245.984C870.097 247.674 862.077 262.847 864.427 279.875C866.776 296.902 878.607 309.336 890.85 307.647Z" fill="#088CFC"/>
<path d="M882.578 300.809C890.849 299.668 896.134 288.444 894.381 275.741C892.627 263.037 884.501 253.665 876.229 254.806C867.958 255.947 862.674 267.171 864.427 279.875C866.18 292.578 874.306 301.951 882.578 300.809Z" fill="#2EC6FC"/>
<path d="M894.021 300.452C894.021 300.452 927.401 336.48 978.517 331.268" stroke="#088CFC" stroke-width="3.3951" stroke-miterlimit="10"/>
<path d="M981.867 338.028C988.1 338.028 993.152 335.117 993.152 331.527C993.152 327.937 988.1 325.026 981.867 325.026C975.635 325.026 970.582 327.937 970.582 331.527C970.582 335.117 975.635 338.028 981.867 338.028Z" fill="#088CFC"/>
<path d="M886.635 248.971C886.635 248.971 865.542 154.397 932.646 121.138C932.646 121.138 910.336 117.525 896.285 135.789C896.285 135.789 858.34 175.236 870.662 253.291L886.635 248.971Z" fill="#088CFC"/>
<path d="M735.495 778.522L788.93 617.004" stroke="white" stroke-width="3.5848" stroke-miterlimit="10" stroke-linecap="round" stroke-linejoin="round"/>
<path d="M1325.07 477.795L1299.1 489.909C1293.27 492.628 1286.38 490.173 1283.53 484.451L1217.55 342.935C1214.79 337.03 1217.34 330.009 1223.25 327.249L1249.22 315.135C1255.13 312.375 1262.15 314.932 1264.91 320.837L1330.77 462.129C1333.53 468.034 1330.98 475.055 1325.07 477.795Z" fill="#1D1D1B"/>
<path d="M1284.71 486.967L1282.68 486.52L1244.66 478.058L1234.86 475.887L1234.67 475.501L1220.19 444.435L1192.71 385.487L1206.77 358.417L1216.25 340.175L1217.55 342.935L1283.54 484.45L1284.71 486.967Z" fill="#0775EF"/>
<path d="M1234.69 475.501H1234.67L1215.05 484.673C1213.57 485.363 1211.8 484.714 1211.11 483.232L1171.56 398.392C1170.87 396.911 1171.5 395.145 1172.98 394.455L1192.12 385.547V385.527L1192.63 385.304L1192.71 385.487L1220.24 444.496C1220.24 444.496 1220.24 444.496 1220.24 444.516L1234.69 475.501Z" fill="#2EC6FC"/>
<path d="M1717.58 342.813L1651.65 484.207C1648.91 490.112 1641.89 492.669 1635.99 489.909L1610.01 477.795C1604.11 475.056 1601.55 468.035 1604.29 462.13L1670.18 320.838C1672.94 314.933 1679.96 312.376 1685.86 315.136L1711.84 327.25C1717.7 329.988 1720.26 336.928 1717.58 342.813Z" fill="#93ACBF"/>
<path d="M1742.38 385.487L1741.93 386.42V386.44C1741.91 386.46 1741.89 386.501 1741.89 386.521V386.541L1717.27 439.32C1717.25 439.361 1717.25 439.381 1717.23 439.401C1717.23 439.421 1717.21 439.421 1717.21 439.441C1717.21 439.461 1717.19 439.461 1717.19 439.482C1717.19 439.482 1717.19 439.502 1717.17 439.502L1700.41 475.5L1700.23 475.886L1689.53 478.26L1651.45 486.722L1650.37 486.966L1651.65 484.206L1717.58 342.812L1718.81 340.174L1727.8 357.463L1742.29 385.324L1742.38 385.487Z" fill="#0775EF"/>
<path d="M1720.03 484.664L1700.39 475.509L1742.46 385.301L1762.09 394.456C1763.57 395.147 1764.22 396.909 1763.52 398.392L1723.96 483.231C1723.27 484.714 1721.51 485.355 1720.03 484.664Z" fill="#2EC6FC"/>
<path d="M1689.54 478.261C1642.95 533.495 1576.14 571.117 1500.54 579.761C1500.64 578.97 1500.7 578.158 1500.7 577.326V566.531C1500.7 563.447 1499.97 560.525 1498.67 557.948C1557.48 551.089 1610.5 525.258 1651.45 486.724L1689.54 478.261Z" fill="#0775EF"/>
<path d="M1758 290.825C1758 323.901 1752.48 355.698 1742.3 385.324L1727.81 357.463C1733.25 336.156 1736.13 313.835 1736.13 290.824C1736.13 142.287 1615.71 21.855 1467.18 21.855C1318.64 21.855 1198.21 142.287 1198.21 290.824C1198.21 314.18 1201.19 336.826 1206.77 358.416L1192.71 385.485L1192.63 385.302L1192.12 385.525C1181.9 355.838 1176.35 323.98 1176.35 290.823C1176.35 130.193 1306.55 0 1467.18 0C1627.79 0.002 1758 130.194 1758 290.825Z" fill="#0775EF"/>
<path d="M1325.07 477.795L1299.1 489.909C1293.27 492.628 1286.38 490.173 1283.53 484.451L1217.55 342.935C1214.79 337.03 1217.34 330.009 1223.25 327.249L1249.22 315.135C1255.13 312.375 1262.15 314.932 1264.91 320.837L1330.77 462.129C1333.53 468.034 1330.98 475.055 1325.07 477.795Z" fill="#088CFC"/>
<path d="M1651.65 484.207C1648.91 490.112 1641.89 492.669 1635.99 489.909L1610.01 477.795C1604.11 475.056 1601.55 468.035 1604.29 462.13L1670.18 320.838C1672.94 314.933 1679.96 312.376 1685.86 315.136L1711.84 327.25C1717.7 329.989 1720.26 336.929 1717.58 342.814L1651.65 484.207Z" fill="#088CFC"/>
<path d="M1500.7 566.531V577.326C1500.7 578.158 1500.64 578.97 1500.54 579.761C1499.4 588.771 1491.99 595.893 1482.7 596.461L1422.58 600.175C1411.54 600.865 1402.2 592.099 1402.2 581.04V562.818C1402.2 559.044 1403.28 555.553 1405.14 552.591C1408.76 546.869 1415.29 543.216 1422.58 543.663L1482.7 547.376C1489.74 547.822 1495.71 552.003 1498.67 557.948C1499.97 560.525 1500.7 563.447 1500.7 566.531Z" fill="#2EC6FC"/>
<path d="M1517.65 425.683C1544.1 425.683 1565.53 413.63 1565.53 398.761C1565.53 383.892 1544.1 371.839 1517.65 371.839C1491.21 371.839 1469.77 383.892 1469.77 398.761C1469.77 413.63 1491.21 425.683 1517.65 425.683Z" fill="white"/>
<path d="M1500.7 476.501C1516.02 476.501 1528.43 468.375 1528.43 458.352C1528.43 448.329 1516.02 440.203 1500.7 440.203C1485.38 440.203 1472.97 448.329 1472.97 458.352C1472.97 468.375 1485.38 476.501 1500.7 476.501Z" fill="white"/>
<path d="M1434.89 534.008C1441.48 534.008 1446.82 530.62 1446.82 526.441C1446.82 522.262 1441.48 518.874 1434.89 518.874C1428.3 518.874 1422.95 522.262 1422.95 526.441C1422.95 530.62 1428.3 534.008 1434.89 534.008Z" fill="white"/>
<path d="M1472.97 514.629C1484.21 514.629 1493.32 508.851 1493.32 501.723C1493.32 494.595 1484.21 488.817 1472.97 488.817C1461.73 488.817 1452.61 494.595 1452.61 501.723C1452.61 508.851 1461.73 514.629 1472.97 514.629Z" fill="white"/>
<path d="M1462.19 363.699C1566.12 363.699 1650.37 301.877 1650.37 225.615C1650.37 149.353 1566.12 87.5309 1462.19 87.5309C1358.26 87.5309 1274.01 149.353 1274.01 225.615C1274.01 301.877 1358.26 363.699 1462.19 363.699Z" fill="white"/>
<path d="M1474.18 249.111C1487.16 243.734 1493.33 228.849 1487.95 215.866C1482.57 202.883 1467.69 196.718 1454.7 202.096C1441.72 207.474 1435.56 222.358 1440.93 235.341C1446.31 248.324 1461.2 254.489 1474.18 249.111Z" fill="#E5F0F8"/>
<path d="M1560.48 249.11C1573.46 243.732 1579.63 228.848 1574.25 215.865C1568.87 202.882 1553.99 196.717 1541.01 202.095C1528.02 207.473 1521.86 222.357 1527.24 235.34C1532.61 248.323 1547.5 254.488 1560.48 249.11Z" fill="#E5F0F8"/>
<path d="M1383.47 249.113C1396.45 243.735 1402.62 228.851 1397.24 215.868C1391.86 202.885 1376.98 196.72 1363.99 202.098C1351.01 207.475 1344.84 222.36 1350.22 235.343C1355.6 248.326 1370.48 254.491 1383.47 249.113Z" fill="#E5F0F8"/>
<path d="M1732.82 1033.8L1414.63 1245.31L1096.5 1033.8H1732.82Z" fill="#F2BB16"/>
<path d="M1732.82 1033.8V1456.82H1096.5V1033.8L1414.63 1245.31L1732.82 1033.8Z" fill="#F2BB16"/>
<path d="M1096.5 1456.82L1414.63 1245.31L1732.82 1456.82H1096.5Z" fill="#F2BB16"/>
<path d="M1757.14 1033.8L1438.95 1245.31L1120.82 1033.8H1757.14Z" fill="#F9ECB8"/>
<path d="M1757.14 1033.8V1456.82H1120.82V1033.8L1438.95 1245.31L1757.14 1033.8Z" fill="#F9E181"/>
<path d="M1120.82 1456.82L1438.95 1245.31L1757.14 1456.82H1120.82Z" fill="#F9ECB8"/>
<path d="M1807.47 1033.79C1807.47 1046.96 1802.43 1058.97 1794.09 1068C1784.91 1077.91 1771.79 1084.16 1757.15 1084.16C1729.35 1084.16 1706.78 1061.6 1706.78 1033.79C1706.78 1014.22 1717.96 997.219 1734.33 988.929C1741.2 985.413 1748.92 983.472 1757.15 983.472C1784.96 983.473 1807.47 1005.98 1807.47 1033.79Z" fill="#40A87B"/>
<path d="M1807.47 1033.79C1807.47 1046.96 1802.43 1058.97 1794.09 1068C1787.22 1071.51 1779.45 1073.51 1771.21 1073.51C1743.41 1073.51 1720.84 1051 1720.84 1023.19C1720.84 1009.97 1725.99 997.902 1734.33 988.931C1741.2 985.415 1748.91 983.474 1757.15 983.474C1784.96 983.473 1807.47 1005.98 1807.47 1033.79Z" fill="#6ADB6A"/>
<path d="M1817.1 1496.18H135.234C125.58 1496.18 117.755 1488.35 117.755 1478.7V1474.36C117.755 1464.71 125.581 1456.89 135.234 1456.89H1817.1C1826.76 1456.89 1834.58 1464.71 1834.58 1474.36V1478.7C1834.58 1488.35 1826.76 1496.18 1817.1 1496.18Z" fill="#0775EF"/>
<path d="M1665.31 769.404C1665.31 769.404 1683.56 746.15 1656.39 734.838C1642.69 729.132 1638.81 721.737 1642.65 711.372C1646.49 701.007 1642.2 689.759 1631.34 683.76C1620.47 677.761 1615.79 659.911 1593.11 670.383C1593.11 670.383 1564.5 681.605 1565.66 699.081C1566.81 716.557 1566.58 715.074 1560.47 726.962C1554.37 738.851 1567.09 753.069 1567.57 760.199C1568.03 767.166 1564.97 769.403 1564.97 769.403L1665.31 769.404Z" fill="#322A28"/>
<path d="M1487.95 926.971C1500.54 934.697 1517.16 930.72 1524.88 918.133L1582.96 823.521C1590.68 810.934 1586.71 794.314 1574.12 786.588C1561.53 778.862 1544.91 782.839 1537.19 795.426L1479.11 890.038C1471.39 902.625 1475.36 919.245 1487.95 926.971Z" fill="#F74242"/>
<path d="M1665.63 960.358C1665.63 960.358 1673.46 969.25 1676.57 976.503C1679.68 983.755 1642.52 979.756 1642.52 979.756L1646.57 944.918L1665.63 960.358Z" fill="#088CFF"/>
<path d="M1417.8 1112.99C1432.31 1133.23 1460.75 1137.91 1480.98 1123.4L1622.35 1022.01C1642.58 1007.5 1647.27 979.062 1632.75 958.824C1618.24 938.586 1589.8 933.903 1569.56 948.418L1428.2 1049.81C1407.96 1064.32 1403.28 1092.75 1417.8 1112.99Z" fill="#0775EF"/>
<path d="M1458.52 1125.68C1473.03 1145.92 1501.47 1150.6 1521.71 1136.09L1663.07 1034.7C1683.31 1020.18 1687.99 991.748 1673.47 971.51C1658.96 951.272 1630.52 946.589 1610.29 961.104L1468.92 1062.49C1448.69 1077.01 1444 1105.44 1458.52 1125.68Z" fill="#088CFF"/>
<path d="M1627.2 771.649L1674.19 793.781C1674.19 793.781 1663.74 913.907 1662.66 927.14C1661.58 940.373 1665.63 960.358 1665.63 960.358H1553.01C1553.01 960.358 1554.36 895.542 1546.8 877.448C1541.68 865.19 1538.16 857.733 1541.13 843.69C1544.1 829.647 1554.09 808.581 1550.58 784.276L1579.48 772.663L1627.2 771.649Z" fill="#F74242"/>
<path d="M1422.17 1334.85L1430.83 1304.34L1383.78 1297.54L1379.97 1328.31L1422.17 1334.85Z" fill="#A06753"/>
<path d="M1579.47 718.031V772.672C1579.47 772.672 1579.47 773.34 1579.6 774.408C1580.16 778.868 1583.05 790.325 1597.9 790.165C1611.46 790.005 1620.94 780.043 1624.98 774.809C1626.45 772.939 1627.19 771.658 1627.19 771.658L1620.36 718.031H1579.47Z" fill="#A06753"/>
<path d="M1581.16 1329.53L1539.24 1337.62L1530.36 1311.04L1576.9 1304.09L1581.16 1329.53Z" fill="#A06753"/>
<path d="M1579.48 772.663L1603.77 741.645L1579.48 736.967V772.663Z" fill="#824C3A"/>
<path d="M1578.35 751.164C1588.03 754.316 1601.44 750.476 1610.93 740.511C1620.42 730.546 1641.74 693.237 1613.28 675.859C1584.79 658.49 1567.97 687.248 1567.23 691.699C1567.23 691.699 1566.95 707.392 1566.78 718.451C1566.71 721.264 1566.67 723.765 1566.64 725.648C1566.65 725.953 1566.62 726.233 1566.62 726.506C1566.49 735.17 1568.69 748.044 1578.35 751.164Z" fill="#A06753"/>
<path d="M1721.09 941.89C1734.41 935.523 1740.11 919.411 1733.74 906.084L1685.88 805.916C1679.51 792.59 1663.4 786.896 1650.07 793.263C1636.75 799.63 1631.05 815.742 1637.42 829.069L1685.28 929.237C1691.65 942.564 1707.76 948.257 1721.09 941.89Z" fill="#F74242"/>
<path d="M1466.72 1051.16C1489.29 1059.26 1501.02 1084.12 1492.92 1106.69L1436.14 1311.04L1366.17 1300.16L1408.72 1089.49L1408.74 1089.5C1408.97 1085.45 1409.76 1081.36 1411.2 1077.35C1419.3 1054.79 1444.16 1043.06 1466.72 1051.16Z" fill="#0775EF"/>
<path d="M1588.44 1361.58L1568.6 1365.08L1565.07 1352.5L1556.52 1367.21L1509.72 1375.46L1539.24 1337.62L1581.16 1329.53L1588.44 1361.58Z" fill="#322A28"/>
<path d="M1485.59 1053.98C1509.2 1049.82 1531.72 1065.58 1535.88 1089.2L1589.61 1307.19L1522.59 1320.13L1454.25 1116.04L1454.26 1116.04C1452.46 1112.4 1451.11 1108.47 1450.37 1104.27C1446.21 1080.66 1461.98 1058.14 1485.59 1053.98Z" fill="#088CFF"/>
<path d="M1552.47 1343.63L1533.74 1346.87" stroke="#D1DDFF" stroke-width="2.6707" stroke-miterlimit="10"/>
<path d="M1593.1 670.384C1593.1 670.384 1567.16 671.222 1563.83 696.081L1577 696.72C1577 696.72 1576.79 688.195 1583.42 684.465C1583.42 684.465 1578.75 690.974 1580.35 697.346L1595.61 698.858C1595.61 698.858 1596.28 689.6 1595.46 685.942C1595.46 685.942 1599.14 694.402 1599.26 699.455L1610 702.397C1610 702.397 1609.93 711.043 1613.82 714.148C1617.71 717.253 1622.9 731.12 1622.9 731.12C1622.9 731.12 1634.04 700.555 1629.12 690.819C1624.19 681.083 1615.38 665.45 1593.1 670.384Z" fill="#322A28"/>
<path d="M1549.08 1350.88L1530.36 1354.12" stroke="#D1DDFF" stroke-width="2.6707" stroke-miterlimit="10"/>
<path d="M1418.6 1367.07L1398.71 1363.87L1399.5 1350.83L1386.6 1361.93L1339.67 1354.38L1379.97 1328.31L1422.17 1334.85L1418.6 1367.07Z" fill="#322A28"/>
<path d="M1390.5 1338.32L1371.74 1335.25" stroke="#D1DDFF" stroke-width="2.6707" stroke-miterlimit="10"/>
<path d="M1384.92 1344.06L1366.17 1340.98" stroke="#D1DDFF" stroke-width="2.6707" stroke-miterlimit="10"/>
<path d="M1574.93 986.459C1574.93 986.459 1500.53 1038.92 1486.15 1048.92C1471.78 1058.93 1450.53 1070.23 1449.71 1094.26C1448.88 1118.3 1473.19 1171.73 1473.19 1171.73" stroke="#E5F0F8" stroke-width="1.3353" stroke-miterlimit="10"/>
<path d="M1615.51 721.419C1613.83 726.526 1613.87 729.807 1617.88 731.126C1621.89 732.445 1627.44 730.284 1629.12 725.177C1630.8 720.07 1628.91 714.861 1624.9 713.542C1620.89 712.223 1617.19 716.312 1615.51 721.419Z" fill="#A06753"/>
<path d="M1625.67 718.683C1625.67 718.683 1619.24 718.376 1618.68 723.816C1618.68 723.816 1620.79 721.883 1624 722.455" stroke="#724638" stroke-width="0.6677" stroke-miterlimit="10" stroke-linecap="round" stroke-linejoin="round"/>
<path d="M1591.75 714.04C1591.76 716.117 1590.68 717.807 1589.34 717.815C1587.99 717.823 1586.89 716.146 1586.88 714.069C1586.87 711.992 1587.95 710.302 1589.29 710.294C1590.63 710.286 1591.73 711.963 1591.75 714.04Z" fill="#322A28"/>
<path d="M1573.99 712.534C1574 714.611 1572.92 716.301 1571.58 716.309C1570.24 716.317 1569.14 714.64 1569.13 712.563C1569.11 710.486 1570.19 708.796 1571.54 708.788C1572.88 708.78 1573.98 710.457 1573.99 712.534Z" fill="#322A28"/>
<path d="M1585.18 738.157C1582.73 739.007 1580.05 737.71 1579.2 735.259L1588.08 732.181C1588.93 734.632 1587.63 737.307 1585.18 738.157Z" fill="white"/>
<path d="M1596.45 709.838C1596.45 709.838 1592.25 704.687 1587.4 706.589" stroke="#2C3447" stroke-width="0.9912" stroke-miterlimit="10"/>
<path d="M1573.59 705.744C1573.59 705.744 1570.56 705.198 1567.35 708.497" stroke="#2C3447" stroke-width="0.9912" stroke-miterlimit="10"/>
<path d="M1580.27 712.794C1580.27 712.794 1580.09 723.086 1574.06 724.382C1574.06 724.382 1575.99 726.119 1578.4 726.824" stroke="#2C3447" stroke-width="0.9912" stroke-miterlimit="10"/>
<path d="M1588.46 725.367C1588.97 727.344 1592.35 728.187 1596.01 727.249C1599.68 726.311 1602.24 723.948 1601.74 721.971C1601.23 719.993 1597.85 719.151 1594.18 720.088C1590.52 721.026 1587.95 723.39 1588.46 725.367Z" fill="#A14C53"/>
<path d="M1566.64 725.649C1568.85 725.733 1570.61 725.042 1571.06 723.702C1571.63 721.952 1569.78 719.766 1566.78 718.452C1566.72 721.265 1566.67 723.765 1566.64 725.649Z" fill="#A14C53"/>
<path d="M1527.33 911.214C1533.77 896.367 1528.32 879.566 1515.22 873.877L1395.73 839.907C1392 837.899 1387.81 835.44 1384.59 832.981C1377.09 827.265 1354.91 814.136 1353.05 817.344C1351.18 820.553 1364.55 832.628 1362.66 833.333C1360.78 834.038 1348.9 827.47 1344.06 824.267C1339.21 821.065 1329.94 812.529 1326.75 813.691C1323.56 814.854 1324.01 819.833 1324.01 819.833C1324.01 819.833 1320.87 816.142 1318.94 818.546C1317.02 820.951 1320.51 827.89 1320.51 827.89C1320.51 827.89 1318.98 825.657 1317.51 828.837C1316.05 832.016 1324.8 840.551 1324.8 840.551C1324.8 840.551 1322.54 839.584 1321.76 842.148C1320.98 844.711 1333.71 854.651 1344.79 858.65C1354.69 862.219 1379.14 868.089 1384.28 869.308L1491.78 927.865C1504.89 933.553 1520.88 926.06 1527.33 911.214Z" fill="#A06753"/>
<path d="M1664.85 886.482L1648.91 853.119" stroke="#2C3447" stroke-width="1.3727" stroke-miterlimit="10"/>
<path d="M1594.76 1023.71L1636.87 986.459H1512.31L1465.98 1023.71H1594.76Z" fill="#89A5C7"/>
<path d="M1616.71 732.828C1616.73 735.011 1618.51 736.767 1620.69 736.751C1622.88 736.735 1624.63 734.952 1624.62 732.769C1624.6 730.586 1622.82 728.829 1620.64 728.846C1618.45 728.862 1616.7 730.645 1616.71 732.828Z" stroke="white" stroke-width="1.1306" stroke-miterlimit="10"/>
<path d="M1465.98 1023.71H1594.76L1561.15 927.271H1432.37L1465.98 1023.71Z" fill="#A5BBD6"/>
<path d="M1593.36 1019.03L1635.47 981.777H1510.91L1464.57 1019.03H1593.36Z" fill="#89A5C7"/>
<path d="M1468.41 1021.57H1597.19L1563.58 925.137H1434.8L1468.41 1021.57Z" fill="#A5BBD6"/>
<path d="M1434.8 925.137L1432.37 927.271H1561.15L1594.76 1023.71L1597.19 1021.57L1563.58 925.137H1434.8Z" fill="#89A5C7"/>
<path d="M1635.47 981.777L1636.87 986.459L1594.76 1023.71L1593.13 1019.03L1635.47 981.777Z" fill="#586773"/>
<path d="M1493.85 976.587C1493.85 980.077 1500.25 982.907 1508.13 982.907C1516.02 982.907 1522.41 980.077 1522.41 976.587C1522.41 973.097 1516.02 970.267 1508.13 970.267C1500.25 970.267 1493.85 973.096 1493.85 976.587Z" fill="#89A5C7"/>
<path d="M1733.84 903.302C1726.25 889.01 1709.71 882.803 1697.09 889.508L1596.07 961.793C1592.18 963.463 1587.64 965.209 1583.71 966.197C1574.57 968.494 1550.48 977.662 1551.83 981.121C1553.17 984.581 1570.95 981.645 1570.33 983.562C1569.7 985.478 1557.16 990.676 1551.64 992.468C1546.12 994.26 1533.66 996.195 1532.58 999.413C1531.51 1002.63 1535.68 1005.39 1535.68 1005.39C1535.68 1005.39 1530.84 1005.54 1531.52 1008.55C1532.2 1011.55 1539.8 1013.14 1539.8 1013.14C1539.8 1013.14 1537.1 1012.95 1538.67 1016.08C1540.25 1019.2 1552.37 1017.68 1552.37 1017.68C1552.37 1017.68 1550.21 1018.84 1551.73 1021.05C1553.25 1023.26 1568.96 1019.49 1578.99 1013.31C1587.95 1007.8 1607.77 992.331 1611.93 989.071L1724.72 941.478C1737.33 934.773 1741.44 917.594 1733.84 903.302Z" fill="#A06753"/>
<path d="M1547.19 878.486C1547.19 878.486 1538.73 860.682 1540.1 851.435C1541.48 842.188 1549.01 817.202 1550 809.529" stroke="#2C3447" stroke-width="1.3727" stroke-miterlimit="10"/>
<path d="M613.411 107.979C610.111 103.672 598.756 93.972 591.57 94.834C585.324 95.583 581.251 105.684 574.958 105.945C570.778 106.118 562.127 102.155 555.87 93.951C555.87 93.951 542.468 79.534 543.355 72.542C544.242 65.55 555.73 64.427 556.105 54.917C556.306 49.83 548.557 36.512 542.233 32.097C539.908 30.473 536.807 30.483 534.505 32.138C528.682 36.324 516.704 47.124 518.158 64.35C520.07 87.003 540.042 105.504 540.042 105.504C540.042 105.504 559.737 127.697 577.306 131.2C596.473 135.022 607.174 127.079 612.528 120.497C617.88 113.916 616.711 112.287 613.411 107.979Z" fill="#E5F0F8"/>
<path d="M162.315 406.074L180.879 387.642C181.532 387.032 182.164 386.367 182.775 385.648C183.385 384.929 183.929 384.177 184.409 383.393C184.888 382.608 185.269 381.781 185.553 380.909C185.836 380.038 185.977 379.122 185.977 378.164C185.977 377.031 185.77 376.007 185.357 375.092C184.942 374.177 184.377 373.404 183.657 372.772C182.938 372.141 182.088 371.651 181.108 371.301C180.127 370.953 179.092 370.778 178.003 370.778C175.738 370.778 173.863 371.41 172.382 372.674C170.9 373.938 169.963 375.681 169.572 377.903L162.774 377.314C163.078 375.267 163.678 373.49 164.571 371.987C165.464 370.484 166.575 369.231 167.905 368.229C169.233 367.227 170.759 366.486 172.48 366.007C174.201 365.528 176.063 365.288 178.069 365.288C180.072 365.288 181.958 365.561 183.722 366.105C185.487 366.651 187.033 367.456 188.364 368.524C189.692 369.592 190.738 370.921 191.501 372.511C192.263 374.102 192.645 375.965 192.645 378.1C192.645 379.626 192.416 381.053 191.958 382.381C191.5 383.711 190.901 384.963 190.161 386.14C189.42 387.316 188.57 388.428 187.612 389.473C186.652 390.519 185.651 391.543 184.605 392.545L169.375 407.252H192.645V412.743H162.315V406.074Z" fill="#BBDBF3"/>
<path d="M217.614 402.544H197.873V396.139L216.306 366.463H223.889V397.053H230.425V402.544H223.889V412.741H217.614V402.544ZM217.614 373.915H217.484L203.364 397.054H217.614V373.915Z" fill="#BBDBF3"/>
<path d="M236.569 415.617L231.994 413.917L252.911 363.586L257.421 365.286L236.569 415.617Z" fill="#BBDBF3"/>
<path d="M282.585 371.954H260.165V366.463H289.253V371.823L270.82 412.741H263.761L282.585 371.954Z" fill="#BBDBF3"/>
<path d="M188.512 465.932C159.119 451.552 140.859 422.305 140.859 389.602C140.859 342.774 178.957 304.676 225.785 304.676C272.613 304.676 310.711 342.774 310.711 389.602C310.711 417.114 297.287 443.043 274.803 458.961L272.006 455.01C293.21 439.997 305.87 415.546 305.87 389.602C305.87 345.443 269.944 309.517 225.785 309.517C181.626 309.517 145.7 345.443 145.7 389.602C145.7 420.441 162.92 448.023 190.64 461.583L188.512 465.932Z" fill="#BBDBF3"/>
<path d="M265.197 462.527L288.585 460.212L274.886 441.115L265.197 462.527Z" fill="#BBDBF3"/>
<path d="M1494.24 765.901C1494.24 776.969 1486.44 786.673 1474.71 792.145C1468.32 795.135 1460.75 796.859 1452.64 796.859C1447.96 796.859 1443.45 796.274 1439.25 795.213L1408.66 808.287L1417.43 782.377C1413.39 777.605 1411.04 771.959 1411.04 765.901C1411.04 748.801 1429.67 734.943 1452.64 734.943C1469.07 734.943 1483.28 742.036 1490.04 752.332C1492.73 756.429 1494.24 761.033 1494.24 765.901Z" fill="white"/>
<path d="M1687.58 639.198C1679.08 636.954 1670.77 634.433 1663.48 631.912C1662.18 631.444 1660.87 630.977 1659.66 630.977C1644.72 630.418 1631.92 619.395 1631.92 599.127C1631.92 578.955 1644.24 565.973 1661.24 565.973C1678.34 565.973 1689.45 579.236 1689.45 597.819C1689.45 613.98 1681.98 624.346 1671.52 627.988V628.361C1677.77 629.95 1684.6 631.445 1689.92 632.38L1687.58 639.198ZM1680.85 598.195C1680.85 585.586 1674.32 572.604 1660.97 572.604C1647.23 572.604 1640.51 585.304 1640.6 598.94C1640.51 612.298 1647.89 624.345 1660.59 624.345C1673.58 624.345 1680.85 612.576 1680.85 598.195Z" fill="white"/>
<path d="M821.429 74.465L818.014 72.8719L817.999 72.903L817.985 72.876C819.757 67.722 820.717 62.191 820.717 56.438C820.717 28.496 798.066 5.849 770.128 5.849C742.186 5.849 719.539 28.496 719.539 56.438C719.539 62.206 720.503 67.748 722.282 72.912V72.916L718.953 74.4659C718.695 74.5859 718.586 74.893 718.706 75.151L725.586 89.909C725.706 90.167 726.013 90.28 726.271 90.16L729.684 88.565L729.716 88.632L731.421 89.0099L738.036 90.482L738.389 90.56C738.389 90.56 739.879 91.545 740.892 91.072L745.41 88.965C746.437 88.488 746.882 87.267 746.402 86.24L734.943 61.659C734.463 60.632 733.242 60.187 732.214 60.667L727.696 62.774C726.669 63.254 726.478 65.022 726.478 65.022L724.83 68.1949C723.859 64.4389 723.34 60.5 723.34 56.437C723.34 30.599 744.289 9.64899 770.128 9.64899C795.966 9.64899 816.912 30.5979 816.912 56.437C816.912 60.44 816.411 64.323 815.465 68.029L813.901 65.022C813.901 65.022 813.707 63.25 812.687 62.774L808.169 60.667C807.142 60.187 805.92 60.632 805.44 61.659L793.979 86.237C793.502 87.264 793.947 88.486 794.974 88.962L799.492 91.069C800.519 91.549 801.995 90.5569 801.995 90.5569L802.182 90.515C795.059 97.218 785.835 101.712 775.606 102.905C775.091 101.871 774.053 101.144 772.828 101.066L762.369 100.42C761.102 100.342 759.965 100.978 759.337 101.973C759.012 102.488 758.825 103.095 758.825 103.752V106.922C758.825 108.846 760.449 110.371 762.369 110.251L772.828 109.605C774.445 109.506 775.733 108.267 775.931 106.7C789.083 105.196 800.703 98.6519 808.808 89.0439L810.668 88.631L810.699 88.566L814.112 90.157C814.37 90.277 814.676 90.166 814.797 89.908L821.679 75.15C821.798 74.892 821.687 74.585 821.429 74.465ZM817.973 72.96L817.922 73.069V73.066L817.973 72.96ZM817.916 73.082L817.914 73.085L817.916 73.082Z" fill="#E5F0F8"/>
<path d="M641.639 409.859C642.452 367.57 608.828 332.629 566.538 331.817C524.249 331.005 489.308 364.629 488.496 406.918C487.684 449.207 521.308 484.148 563.597 484.96C605.887 485.772 640.827 452.148 641.639 409.859Z" fill="#40A87B"/>
<path d="M629.486 462.524C659.395 432.615 659.395 384.124 629.486 354.215C599.577 324.306 551.086 324.306 521.177 354.215C491.268 384.124 491.268 432.615 521.177 462.524C551.086 492.433 599.577 492.433 629.486 462.524Z" fill="#6ADB6A"/>
<path d="M615.657 426.63C612.98 423.136 603.768 415.268 597.939 415.966C592.872 416.574 589.568 424.768 584.463 424.979C581.072 425.12 574.054 421.905 568.978 415.25C568.978 415.25 558.106 403.555 558.825 397.883C559.545 392.211 568.864 391.3 569.168 383.585C569.331 379.458 563.045 368.655 557.915 365.073C556.029 363.756 553.513 363.763 551.645 365.106C546.921 368.502 537.205 377.263 538.384 391.237C539.935 409.614 556.137 424.623 556.137 424.623C556.137 424.623 572.115 442.627 586.366 445.469C601.915 448.57 610.596 442.126 614.939 436.786C619.283 431.446 618.335 430.124 615.657 426.63Z" fill="white"/>
<path d="M198.856 0.915955H146.123V53.6479H198.856V0.915955Z" fill="#E5F0F8"/>
<path d="M198.856 64.1949H146.123V116.927H198.856V64.1949Z" fill="#E5F0F8"/>
<path d="M198.856 127.474H146.123V180.206H198.856V127.474Z" fill="#E5F0F8"/>
<path d="M149.184 30.174L166.535 45.483L194.092 10.782" stroke="white" stroke-width="3.3463" stroke-miterlimit="10"/>
<path d="M149.184 93.113L166.535 108.422L194.092 73.7209" stroke="white" stroke-width="3.3463" stroke-miterlimit="10"/>
<path d="M150.545 132.577L192.051 174.083" stroke="white" stroke-width="3.3463" stroke-miterlimit="10"/>
<path d="M192.051 132.577L150.545 174.083" stroke="white" stroke-width="3.3463" stroke-miterlimit="10"/>
<path d="M412.807 0.915955H217.567V10.782H412.807V0.915955Z" fill="#E5F0F8"/>
<path d="M412.807 18.267H217.567V28.133H412.807V18.267Z" fill="#E5F0F8"/>
<path d="M326.213 35.6169H217.567V45.483H326.213V35.6169Z" fill="#E5F0F8"/>
<path d="M412.807 64.1949H217.567V74.061H412.807V64.1949Z" fill="#E5F0F8"/>
<path d="M412.807 81.546H217.567V91.412H412.807V81.546Z" fill="#E5F0F8"/>
<path d="M326.213 98.896H217.567V108.762H326.213V98.896Z" fill="#E5F0F8"/>
<path d="M412.807 127.474H217.567V137.34H412.807V127.474Z" fill="#E5F0F8"/>
<path d="M412.807 144.825H217.567V154.691H412.807V144.825Z" fill="#E5F0F8"/>
<path d="M326.213 162.175H217.567V172.041H326.213V162.175Z" fill="#E5F0F8"/>
</svg>
