<svg width="395" height="354" viewBox="0 0 395 354" fill="none" xmlns="http://www.w3.org/2000/svg">
<g opacity="0.4">
<path d="M146.069 323.742H336.064C337.126 322.403 338.13 321.024 339.102 319.668C359.92 290.603 372.409 245.836 344.02 217.317C331.996 205.238 310.884 191.806 293.111 197.289C278.405 201.827 262.205 207.342 251.212 218.62C245.188 224.801 240.561 232.263 234.294 238.197C228.386 243.792 218.342 250.472 210.146 251.885C200.628 253.526 189.725 247.781 180.135 247.142C156.713 245.583 138.901 268.349 138.045 290.299C137.635 300.8 140.966 311.074 144.823 320.849C145.207 321.821 145.607 322.8 146.069 323.742Z" fill="#09136E"/>
</g>
<g opacity="0.4">
<path d="M22.167 201.626C25.281 207.206 28.975 212.416 32.66 217.613C33.669 219.036 34.692 220.47 35.841 221.77H211.431C211.682 221.754 211.935 221.729 212.186 221.716C213.341 221.656 214.536 221.691 215.754 221.77H230.258C231.005 221.556 231.735 221.28 232.446 220.928C234.608 219.858 236.263 217.957 237.757 216.025C251.316 198.485 255.592 173.373 247.993 152.465C239.835 130.019 214.143 110.091 189.598 113.488C178.36 115.043 168.435 121.513 159.547 128.564C151.935 134.604 145.39 139.404 136.267 134.149C126.303 128.409 123.396 119.173 118.037 109.745C107.651 91.472 84.823 81.864 64.088 85.308C43.353 88.751 25.495 104.097 17.034 123.338C6.53999 147.201 9.60099 179.109 22.167 201.626Z" fill="#09136E"/>
</g>
<path d="M386.538 97.029H346.62V56.943C346.62 56.405 346.184 55.969 345.646 55.969C345.108 55.969 344.672 56.405 344.672 56.943V97.028H340.15C339.612 97.028 339.176 97.464 339.176 98.002C339.176 98.54 339.612 98.976 340.15 98.976H344.672V103.331C344.672 103.869 345.108 104.305 345.646 104.305C346.184 104.305 346.62 103.869 346.62 103.331V98.976H386.538C387.076 98.976 387.512 98.54 387.512 98.002C387.512 97.465 387.076 97.029 386.538 97.029Z" fill="#FFC655"/>
<path d="M356.172 80.1379H349.988V94.9769H356.172V80.1379Z" fill="#D42190"/>
<path d="M364.725 74.085H358.541V94.977H364.725V74.085Z" fill="#FFC655"/>
<path d="M373.607 69.512H367.423V94.976H373.607V69.512Z" fill="#B19CFE"/>
<path d="M382.19 65.2629H376.006V94.9759H382.19V65.2629Z" fill="white"/>
<path opacity="0.2" d="M132.864 202.081L127.631 204.242C127.457 204.314 127.295 204.402 127.141 204.5C125.283 201.854 122.999 199.607 120.422 197.814C120.522 197.656 120.614 197.492 120.686 197.315L122.833 192.076C123.501 190.446 122.719 188.577 121.089 187.908L115.85 185.76C114.221 185.092 112.35 185.874 111.682 187.505L109.535 192.743C109.463 192.919 109.413 193.1 109.373 193.282C106.363 192.765 103.246 192.749 100.147 193.285C100.107 193.107 100.056 192.93 99.984 192.756L97.823 187.523C97.15 185.895 95.279 185.117 93.65 185.789L88.417 187.95C86.788 188.623 86.011 190.495 86.684 192.123L88.845 197.356C88.917 197.53 89.005 197.692 89.103 197.846C86.457 199.704 84.21 201.989 82.417 204.565C82.259 204.465 82.095 204.374 81.918 204.301L76.68 202.154C75.895 201.832 75.032 201.833 74.249 202.157C74.244 202.159 74.239 202.161 74.235 202.163C73.448 202.492 72.836 203.109 72.512 203.898L70.365 209.137C69.697 210.767 70.48 212.636 72.11 213.305L77.349 215.452C77.526 215.525 77.707 215.573 77.888 215.612C77.371 218.623 77.355 221.74 77.89 224.839C77.712 224.879 77.535 224.931 77.361 225.002L72.128 227.163C70.499 227.836 69.722 229.707 70.394 231.336L72.555 236.569C73.228 238.197 75.099 238.975 76.728 238.302L81.961 236.141C82.135 236.069 82.297 235.981 82.451 235.883C84.309 238.53 86.594 240.777 89.171 242.57C89.071 242.727 88.979 242.89 88.906 243.067L86.759 248.305C86.435 249.095 86.438 249.963 86.768 250.75C87.097 251.537 87.714 252.149 88.503 252.473L93.742 254.62C94.552 254.952 95.421 254.926 96.172 254.615C96.933 254.301 97.573 253.695 97.91 252.875L100.058 247.636C100.131 247.459 100.179 247.278 100.218 247.097C103.229 247.614 106.346 247.63 109.445 247.094C109.485 247.272 109.537 247.449 109.608 247.623L111.769 252.856C112.442 254.484 114.313 255.262 115.942 254.589L121.175 252.428C122.803 251.755 123.581 249.884 122.908 248.255L120.747 243.022C120.675 242.848 120.587 242.686 120.489 242.532C123.136 240.674 125.383 238.389 127.176 235.812C127.333 235.912 127.496 236.004 127.674 236.077L132.912 238.225C133.722 238.557 134.591 238.531 135.343 238.22C136.104 237.906 136.744 237.3 137.08 236.48L139.228 231.241C139.896 229.611 139.113 227.741 137.483 227.073L132.245 224.926C132.069 224.854 131.888 224.804 131.706 224.764C132.223 221.754 132.239 218.638 131.703 215.539C131.881 215.5 132.058 215.448 132.232 215.376L137.465 213.215C139.093 212.542 139.871 210.671 139.198 209.042L137.037 203.809C136.364 202.186 134.492 201.409 132.864 202.081ZM110.523 234.061C102.875 237.219 94.085 233.567 90.926 225.92C87.768 218.273 91.42 209.482 99.067 206.323C106.714 203.165 115.505 206.817 118.663 214.464C121.823 222.112 118.17 230.903 110.523 234.061Z" stroke="white" stroke-width="1.5" stroke-miterlimit="10"/>
<path d="M54.775 255.953C54.416 255.953 54.126 255.662 54.126 255.304V251.703C54.126 251.344 54.416 251.054 54.775 251.054C55.134 251.054 55.424 251.345 55.424 251.703V255.304C55.424 255.662 55.133 255.953 54.775 255.953ZM54.775 247.158C54.416 247.158 54.126 246.867 54.126 246.509V241.315C54.126 240.957 54.416 240.666 54.775 240.666C55.134 240.666 55.424 240.957 55.424 241.315V246.509C55.424 246.867 55.133 247.158 54.775 247.158ZM54.775 236.77C54.416 236.77 54.126 236.479 54.126 236.121V230.927C54.126 230.568 54.416 230.278 54.775 230.278C55.134 230.278 55.424 230.569 55.424 230.927V236.121C55.424 236.48 55.133 236.77 54.775 236.77ZM54.775 226.383C54.416 226.383 54.126 226.092 54.126 225.734V220.54C54.126 220.182 54.416 219.891 54.775 219.891C55.134 219.891 55.424 220.182 55.424 220.54V225.734C55.424 226.092 55.133 226.383 54.775 226.383Z" fill="#DED7FF"/>
<path d="M24.732 190.405C24.373 190.405 24.083 190.114 24.083 189.756V184.637C24.083 184.278 24.373 183.988 24.732 183.988C25.091 183.988 25.381 184.279 25.381 184.637V189.756C25.381 190.114 25.09 190.405 24.732 190.405ZM24.732 180.167C24.373 180.167 24.083 179.876 24.083 179.518V174.399C24.083 174.04 24.373 173.75 24.732 173.75C25.091 173.75 25.381 174.041 25.381 174.399V179.518C25.381 179.877 25.09 180.167 24.732 180.167ZM24.732 169.93C24.373 169.93 24.083 169.639 24.083 169.281V164.162C24.083 163.804 24.373 163.513 24.732 163.513C25.091 163.513 25.381 163.804 25.381 164.162V169.281C25.381 169.639 25.09 169.93 24.732 169.93ZM24.732 159.692C24.373 159.692 24.083 159.401 24.083 159.043V153.924C24.083 153.565 24.373 153.275 24.732 153.275C25.091 153.275 25.381 153.566 25.381 153.924V159.043C25.381 159.402 25.09 159.692 24.732 159.692ZM24.732 149.455C24.373 149.455 24.083 149.164 24.083 148.806V143.687C24.083 143.328 24.373 143.038 24.732 143.038C25.091 143.038 25.381 143.329 25.381 143.687V148.806C25.381 149.164 25.09 149.455 24.732 149.455ZM24.732 139.218C24.373 139.218 24.083 138.927 24.083 138.569V133.451C24.083 133.092 24.373 132.802 24.732 132.802C25.091 132.802 25.381 133.093 25.381 133.451V138.569C25.381 138.927 25.09 139.218 24.732 139.218ZM24.732 128.98C24.373 128.98 24.083 128.689 24.083 128.331V123.212C24.083 122.853 24.373 122.563 24.732 122.563C25.091 122.563 25.381 122.854 25.381 123.212V128.331C25.381 128.689 25.09 128.98 24.732 128.98ZM24.732 118.743C24.373 118.743 24.083 118.452 24.083 118.094V112.976C24.083 112.617 24.373 112.327 24.732 112.327C25.091 112.327 25.381 112.618 25.381 112.976V118.094C25.381 118.452 25.09 118.743 24.732 118.743ZM24.732 108.505C24.373 108.505 24.083 108.214 24.083 107.856V102.737C24.083 102.379 24.373 102.088 24.732 102.088C25.091 102.088 25.381 102.379 25.381 102.737V107.856C25.381 108.214 25.09 108.505 24.732 108.505ZM24.754 98.268C24.743 98.268 24.733 98.268 24.722 98.267C24.364 98.25 24.087 97.946 24.104 97.588C24.188 95.819 24.498 94.074 25.025 92.399C25.133 92.057 25.5 91.868 25.839 91.975C26.181 92.083 26.372 92.447 26.264 92.789C25.77 94.357 25.48 95.992 25.401 97.649C25.386 97.998 25.099 98.268 24.754 98.268ZM27.791 88.614C27.673 88.614 27.553 88.582 27.445 88.514C27.142 88.323 27.051 87.922 27.243 87.618C28.183 86.129 29.313 84.763 30.602 83.558C30.863 83.314 31.274 83.327 31.519 83.589C31.764 83.851 31.75 84.262 31.488 84.507C30.28 85.636 29.221 86.917 28.341 88.312C28.217 88.507 28.006 88.614 27.791 88.614ZM35.188 81.7C34.957 81.7 34.733 81.577 34.616 81.36C34.445 81.045 34.563 80.651 34.878 80.48C36.431 79.641 38.087 79.006 39.8 78.592C40.147 78.509 40.499 78.722 40.583 79.071C40.667 79.419 40.453 79.77 40.104 79.854C38.499 80.241 36.949 80.836 35.495 81.622C35.398 81.675 35.292 81.7 35.188 81.7ZM172.994 79.318H167.875C167.516 79.318 167.226 79.027 167.226 78.669C167.226 78.31 167.516 78.02 167.875 78.02H172.994C173.353 78.02 173.643 78.311 173.643 78.669C173.643 79.028 173.353 79.318 172.994 79.318ZM162.757 79.318H157.638C157.279 79.318 156.989 79.027 156.989 78.669C156.989 78.31 157.279 78.02 157.638 78.02H162.757C163.116 78.02 163.406 78.311 163.406 78.669C163.406 79.028 163.116 79.318 162.757 79.318ZM183.216 79.318H178.097C177.738 79.318 177.448 79.027 177.448 78.669C177.448 78.31 177.738 78.02 178.097 78.02H183.216C183.575 78.02 183.865 78.311 183.865 78.669C183.865 79.028 183.575 79.318 183.216 79.318ZM152.519 79.318H147.4C147.041 79.318 146.751 79.027 146.751 78.669C146.751 78.31 147.041 78.02 147.4 78.02H152.519C152.878 78.02 153.168 78.311 153.168 78.669C153.168 79.028 152.878 79.318 152.519 79.318ZM142.282 79.318H137.163C136.804 79.318 136.514 79.027 136.514 78.669C136.514 78.31 136.804 78.02 137.163 78.02H142.282C142.641 78.02 142.931 78.311 142.931 78.669C142.931 79.028 142.641 79.318 142.282 79.318ZM132.044 79.318H126.926C126.567 79.318 126.277 79.027 126.277 78.669C126.277 78.31 126.567 78.02 126.926 78.02H132.044C132.403 78.02 132.693 78.311 132.693 78.669C132.693 79.028 132.403 79.318 132.044 79.318ZM121.807 79.318H116.688C116.329 79.318 116.039 79.027 116.039 78.669C116.039 78.31 116.329 78.02 116.688 78.02H121.807C122.166 78.02 122.456 78.311 122.456 78.669C122.456 79.028 122.166 79.318 121.807 79.318ZM111.569 79.318H106.451C106.092 79.318 105.802 79.027 105.802 78.669C105.802 78.31 106.092 78.02 106.451 78.02H111.569C111.928 78.02 112.218 78.311 112.218 78.669C112.219 79.028 111.928 79.318 111.569 79.318ZM101.332 79.318H96.213C95.854 79.318 95.564 79.027 95.564 78.669C95.564 78.31 95.854 78.02 96.213 78.02H101.332C101.691 78.02 101.981 78.311 101.981 78.669C101.981 79.028 101.691 79.318 101.332 79.318ZM91.094 79.318H85.976C85.617 79.318 85.327 79.027 85.327 78.669C85.327 78.31 85.617 78.02 85.976 78.02H91.094C91.453 78.02 91.743 78.311 91.743 78.669C91.744 79.028 91.453 79.318 91.094 79.318ZM80.857 79.318H75.738C75.379 79.318 75.089 79.027 75.089 78.669C75.089 78.31 75.379 78.02 75.738 78.02H80.857C81.216 78.02 81.506 78.311 81.506 78.669C81.506 79.028 81.216 79.318 80.857 79.318ZM70.62 79.318H65.501C65.142 79.318 64.852 79.027 64.852 78.669C64.852 78.31 65.142 78.02 65.501 78.02H70.62C70.979 78.02 71.269 78.311 71.269 78.669C71.269 79.028 70.979 79.318 70.62 79.318ZM60.382 79.318H55.263C54.904 79.318 54.614 79.027 54.614 78.669C54.614 78.31 54.904 78.02 55.263 78.02H60.382C60.741 78.02 61.031 78.311 61.031 78.669C61.032 79.028 60.741 79.318 60.382 79.318ZM50.145 79.318H45.026C44.667 79.318 44.377 79.027 44.377 78.669C44.377 78.31 44.667 78.02 45.026 78.02H50.145C50.504 78.02 50.794 78.311 50.794 78.669C50.794 79.028 50.504 79.318 50.145 79.318Z" fill="#DED7FF"/>
<path d="M24.732 198.14C24.373 198.14 24.083 197.849 24.083 197.491V194.894C24.083 194.536 24.373 194.245 24.732 194.245C25.091 194.245 25.381 194.536 25.381 194.894V197.491C25.381 197.85 25.09 198.14 24.732 198.14Z" fill="#DED7FF"/>
<path d="M373.013 260.565C372.654 260.565 372.364 260.274 372.364 259.916V254.656C372.364 254.297 372.654 254.007 373.013 254.007C373.372 254.007 373.662 254.298 373.662 254.656V259.916C373.663 260.275 373.372 260.565 373.013 260.565ZM373.013 250.046C372.654 250.046 372.364 249.755 372.364 249.397V244.137C372.364 243.779 372.654 243.488 373.013 243.488C373.372 243.488 373.662 243.779 373.662 244.137V249.397C373.663 249.755 373.372 250.046 373.013 250.046ZM373.013 239.527C372.654 239.527 372.364 239.236 372.364 238.878V233.618C372.364 233.259 372.654 232.969 373.013 232.969C373.372 232.969 373.662 233.26 373.662 233.618V238.878C373.663 239.236 373.372 239.527 373.013 239.527ZM373.013 229.008C372.654 229.008 372.364 228.717 372.364 228.359V223.099C372.364 222.74 372.654 222.45 373.013 222.45C373.372 222.45 373.662 222.741 373.662 223.099V228.359C373.663 228.717 373.372 229.008 373.013 229.008ZM373.013 207.969C372.654 207.969 372.364 207.678 372.364 207.32V202.06C372.364 201.701 372.654 201.411 373.013 201.411C373.372 201.411 373.662 201.702 373.662 202.06V207.32C373.663 207.678 373.372 207.969 373.013 207.969ZM373.013 197.449C372.654 197.449 372.364 197.158 372.364 196.8V191.54C372.364 191.181 372.654 190.891 373.013 190.891C373.372 190.891 373.662 191.182 373.662 191.54V196.8C373.663 197.159 373.372 197.449 373.013 197.449ZM373.013 186.93C372.654 186.93 372.364 186.639 372.364 186.281V181.021C372.364 180.662 372.654 180.372 373.013 180.372C373.372 180.372 373.662 180.663 373.662 181.021V186.281C373.663 186.639 373.372 186.93 373.013 186.93ZM373.013 176.411C372.654 176.411 372.364 176.12 372.364 175.762V170.502C372.364 170.144 372.654 169.853 373.013 169.853C373.372 169.853 373.662 170.144 373.662 170.502V175.762C373.663 176.12 373.372 176.411 373.013 176.411ZM373.013 165.892C372.654 165.892 372.364 165.601 372.364 165.243V159.983C372.364 159.624 372.654 159.334 373.013 159.334C373.372 159.334 373.662 159.625 373.662 159.983V165.243C373.663 165.601 373.372 165.892 373.013 165.892ZM373.013 155.372C372.654 155.372 372.364 155.081 372.364 154.723V149.463C372.364 149.104 372.654 148.814 373.013 148.814C373.372 148.814 373.662 149.105 373.662 149.463V154.723C373.663 155.082 373.372 155.372 373.013 155.372ZM373.013 144.853C372.654 144.853 372.364 144.562 372.364 144.204V142.22C372.364 141.161 372.278 140.1 372.107 139.066C372.049 138.712 372.288 138.378 372.641 138.32C373.002 138.264 373.33 138.501 373.387 138.855C373.569 139.959 373.662 141.091 373.662 142.22V144.204C373.663 144.562 373.372 144.853 373.013 144.853ZM371.218 134.594C370.971 134.594 370.736 134.453 370.627 134.215C369.921 132.674 369.013 131.229 367.925 129.921C367.696 129.646 367.733 129.236 368.009 129.007C368.286 128.777 368.695 128.816 368.923 129.091C370.084 130.487 371.054 132.029 371.807 133.674C371.956 134 371.813 134.385 371.487 134.534C371.4 134.575 371.308 134.594 371.218 134.594ZM364.574 126.596C364.445 126.596 364.314 126.557 364.2 126.477C362.812 125.497 361.301 124.705 359.709 124.124C359.372 124.001 359.199 123.629 359.322 123.292C359.445 122.955 359.818 122.782 360.154 122.905C361.854 123.525 363.467 124.37 364.95 125.417C365.243 125.624 365.313 126.029 365.106 126.322C364.978 126.5 364.778 126.596 364.574 126.596ZM354.813 123.036C354.795 123.036 354.776 123.035 354.758 123.034C354.212 122.988 353.657 122.964 353.109 122.964H349.556C349.197 122.964 348.907 122.673 348.907 122.315C348.907 121.956 349.197 121.666 349.556 121.666H353.109C353.694 121.666 354.285 121.691 354.867 121.74C355.225 121.77 355.49 122.085 355.459 122.442C355.43 122.78 355.147 123.036 354.813 123.036ZM344.295 122.964H339.035C338.676 122.964 338.386 122.673 338.386 122.315C338.386 121.956 338.676 121.666 339.035 121.666H344.295C344.654 121.666 344.944 121.957 344.944 122.315C344.945 122.673 344.654 122.964 344.295 122.964ZM333.775 122.964H328.515C328.156 122.964 327.866 122.673 327.866 122.315C327.866 121.956 328.156 121.666 328.515 121.666H333.775C334.134 121.666 334.424 121.957 334.424 122.315C334.425 122.673 334.134 122.964 333.775 122.964Z" fill="#DED7FF"/>
<path d="M259.564 353.457H258.33C257.971 353.457 257.681 353.166 257.681 352.808C257.681 352.45 257.971 352.159 258.33 352.159H259.564C260.843 352.159 262.122 352.033 263.363 351.784C263.715 351.714 264.057 351.941 264.127 352.293C264.197 352.645 263.969 352.987 263.618 353.057C262.293 353.321 260.929 353.456 259.564 353.457ZM253.143 353.457H247.956C247.597 353.457 247.307 353.166 247.307 352.808C247.307 352.45 247.597 352.159 247.956 352.159H253.143C253.502 352.159 253.792 352.45 253.792 352.808C253.792 353.166 253.502 353.457 253.143 353.457ZM242.769 353.457H237.582C237.223 353.457 236.933 353.166 236.933 352.808C236.933 352.45 237.223 352.159 237.582 352.159H242.769C243.128 352.159 243.418 352.45 243.418 352.808C243.418 353.166 243.127 353.457 242.769 353.457ZM232.394 353.457H227.207C226.848 353.457 226.558 353.166 226.558 352.808C226.558 352.45 226.848 352.159 227.207 352.159H232.394C232.753 352.159 233.043 352.45 233.043 352.808C233.044 353.166 232.753 353.457 232.394 353.457ZM222.02 353.457H216.833C216.474 353.457 216.184 353.166 216.184 352.808C216.184 352.45 216.474 352.159 216.833 352.159H222.02C222.379 352.159 222.669 352.45 222.669 352.808C222.669 353.166 222.378 353.457 222.02 353.457ZM211.646 353.457H206.459C206.1 353.457 205.81 353.166 205.81 352.808C205.81 352.45 206.1 352.159 206.459 352.159H211.646C212.005 352.159 212.295 352.45 212.295 352.808C212.295 353.166 212.004 353.457 211.646 353.457ZM201.271 353.457H196.084C195.725 353.457 195.435 353.166 195.435 352.808C195.435 352.45 195.725 352.159 196.084 352.159H201.271C201.63 352.159 201.92 352.45 201.92 352.808C201.92 353.166 201.63 353.457 201.271 353.457ZM190.897 353.457H185.71C185.351 353.457 185.061 353.166 185.061 352.808C185.061 352.45 185.351 352.159 185.71 352.159H190.897C191.256 352.159 191.546 352.45 191.546 352.808C191.546 353.166 191.256 353.457 190.897 353.457ZM180.522 353.457H175.335C174.976 353.457 174.686 353.166 174.686 352.808C174.686 352.45 174.976 352.159 175.335 352.159H180.522C180.881 352.159 181.171 352.45 181.171 352.808C181.171 353.166 180.881 353.457 180.522 353.457ZM170.148 353.457H164.961C164.602 353.457 164.312 353.166 164.312 352.808C164.312 352.45 164.602 352.159 164.961 352.159H170.148C170.507 352.159 170.797 352.45 170.797 352.808C170.797 353.166 170.507 353.457 170.148 353.457ZM159.774 353.457H154.587C154.228 353.457 153.938 353.166 153.938 352.808C153.938 352.45 154.228 352.159 154.587 352.159H159.774C160.133 352.159 160.423 352.45 160.423 352.808C160.423 353.166 160.133 353.457 159.774 353.457ZM149.399 353.457H144.212C143.853 353.457 143.563 353.166 143.563 352.808C143.563 352.45 143.853 352.159 144.212 352.159H149.399C149.758 352.159 150.048 352.45 150.048 352.808C150.048 353.166 149.758 353.457 149.399 353.457ZM139.025 353.457H133.838C133.479 353.457 133.189 353.166 133.189 352.808C133.189 352.45 133.479 352.159 133.838 352.159H139.025C139.384 352.159 139.674 352.45 139.674 352.808C139.674 353.166 139.384 353.457 139.025 353.457ZM128.65 353.457H123.463C123.104 353.457 122.814 353.166 122.814 352.808C122.814 352.45 123.104 352.159 123.463 352.159H128.65C129.009 352.159 129.299 352.45 129.299 352.808C129.3 353.166 129.009 353.457 128.65 353.457ZM118.276 353.457H113.089C112.73 353.457 112.44 353.166 112.44 352.808C112.44 352.45 112.73 352.159 113.089 352.159H118.276C118.635 352.159 118.925 352.45 118.925 352.808C118.926 353.166 118.635 353.457 118.276 353.457ZM107.902 353.457H102.715C102.356 353.457 102.066 353.166 102.066 352.808C102.066 352.45 102.356 352.159 102.715 352.159H107.902C108.261 352.159 108.551 352.45 108.551 352.808C108.551 353.166 108.26 353.457 107.902 353.457ZM97.528 353.457H92.341C91.982 353.457 91.692 353.166 91.692 352.808C91.692 352.45 91.982 352.159 92.341 352.159H97.528C97.887 352.159 98.177 352.45 98.177 352.808C98.177 353.166 97.886 353.457 97.528 353.457ZM87.153 353.457H81.966C81.607 353.457 81.317 353.166 81.317 352.808C81.317 352.45 81.607 352.159 81.966 352.159H87.153C87.512 352.159 87.802 352.45 87.802 352.808C87.802 353.166 87.512 353.457 87.153 353.457ZM76.779 353.457H74.298C73.367 353.457 72.43 353.394 71.514 353.27C71.158 353.222 70.909 352.895 70.957 352.54C71.006 352.184 71.341 351.937 71.687 351.984C72.547 352.1 73.424 352.159 74.297 352.159H76.778C77.137 352.159 77.427 352.45 77.427 352.808C77.428 353.166 77.138 353.457 76.779 353.457ZM66.61 351.918C66.526 351.918 66.441 351.901 66.359 351.867C64.714 351.178 63.162 350.274 61.744 349.179C61.461 348.96 61.408 348.552 61.627 348.268C61.846 347.985 62.252 347.931 62.538 348.151C63.865 349.176 65.32 350.023 66.861 350.669C67.191 350.808 67.347 351.188 67.208 351.519C67.105 351.768 66.864 351.918 66.61 351.918ZM268.385 351.401C268.146 351.401 267.916 351.268 267.802 351.04C267.643 350.719 267.775 350.329 268.096 350.17C269.593 349.429 270.992 348.493 272.252 347.387C272.52 347.151 272.931 347.177 273.168 347.447C273.404 347.717 273.377 348.127 273.108 348.363C271.763 349.543 270.27 350.542 268.671 351.333C268.58 351.379 268.481 351.401 268.385 351.401ZM58.49 345.651C58.295 345.651 58.102 345.564 57.974 345.397C56.885 343.976 55.987 342.421 55.303 340.774C55.165 340.443 55.323 340.063 55.654 339.925C55.988 339.788 56.365 339.945 56.503 340.276C57.143 341.819 57.985 343.276 59.005 344.607C59.223 344.892 59.169 345.299 58.885 345.517C58.767 345.608 58.628 345.651 58.49 345.651ZM276.097 344.641C275.973 344.641 275.847 344.605 275.736 344.531C275.439 344.331 275.359 343.928 275.559 343.63C276.494 342.238 277.243 340.73 277.785 339.15C277.901 338.811 278.269 338.629 278.61 338.746C278.949 338.862 279.13 339.231 279.014 339.57C278.435 341.258 277.636 342.867 276.637 344.353C276.511 344.54 276.306 344.641 276.097 344.641ZM279.423 334.941C279.408 334.941 279.393 334.94 279.377 334.939C279.019 334.914 278.749 334.604 278.774 334.247C278.805 333.805 278.82 333.352 278.82 332.902V329.107C278.82 328.748 279.11 328.458 279.469 328.458C279.828 328.458 280.118 328.749 280.118 329.107V332.902C280.118 333.382 280.101 333.865 280.069 334.337C280.046 334.678 279.761 334.941 279.423 334.941ZM279.47 324.569C279.111 324.569 278.821 324.278 278.821 323.92V318.733C278.821 318.374 279.111 318.084 279.47 318.084C279.829 318.084 280.119 318.375 280.119 318.733V323.92C280.119 324.278 279.829 324.569 279.47 324.569ZM279.47 314.194C279.111 314.194 278.821 313.903 278.821 313.545V308.358C278.821 307.999 279.111 307.709 279.47 307.709C279.829 307.709 280.119 308 280.119 308.358V313.545C280.119 313.903 279.829 314.194 279.47 314.194Z" fill="#DED7FF"/>
<path d="M54.558 336.142C54.237 336.142 53.958 335.904 53.915 335.576C53.8 334.695 53.742 333.795 53.742 332.901C53.742 332.543 54.032 332.252 54.391 332.252C54.75 332.252 55.04 332.543 55.04 332.901C55.04 333.739 55.095 334.583 55.202 335.409C55.248 335.764 54.998 336.09 54.642 336.137C54.614 336.14 54.586 336.142 54.558 336.142Z" fill="#DED7FF"/>
<g opacity="0.2">
<path d="M306.637 150.15C334.279 122.508 334.279 77.6917 306.637 50.0499C278.995 22.4081 234.179 22.4081 206.537 50.0499C178.895 77.6917 178.895 122.508 206.537 150.15C234.179 177.792 278.995 177.792 306.637 150.15Z" fill="#0F1B63"/>
<path d="M313.973 58.1469C313.626 57.6789 313.274 57.2169 312.916 56.7549C299.911 39.8839 279.498 28.9929 256.59 28.9929C233.681 28.9929 213.269 39.8839 200.263 56.7549C199.905 57.2169 199.552 57.6789 199.206 58.1469C190.58 69.9159 185.484 84.4239 185.484 100.099C185.484 115.774 190.58 130.282 199.206 142.051C199.553 142.519 199.899 142.981 200.258 143.438C213.269 160.315 233.682 171.206 256.59 171.206C279.498 171.206 299.911 160.315 312.922 143.438C313.28 142.982 313.627 142.519 313.973 142.051C322.599 130.282 327.695 115.774 327.695 100.099C327.695 84.4239 322.6 69.9159 313.973 58.1469ZM325.951 99.2319H295.78C295.705 87.5499 294.093 76.3119 291.117 66.3059C298.663 64.4109 305.781 61.9149 312.362 58.8989C320.745 70.2109 325.771 84.1459 325.951 99.2319ZM257.456 70.4769C268.636 70.4129 279.382 69.0959 289.418 66.7159C292.301 76.3879 293.971 87.4629 294.046 99.2319H257.456V70.4769ZM257.456 68.7429V30.7489C270.854 31.3089 282.537 44.9679 288.91 65.0629C279.036 67.3909 268.457 68.6799 257.456 68.7429ZM255.723 68.7429C244.722 68.6799 234.143 67.3909 224.269 65.0629C230.642 44.9679 242.324 31.3099 255.723 30.7489V68.7429ZM255.723 70.4769V99.2319H219.133C219.208 87.4629 220.878 76.3869 223.761 66.7159C233.797 69.0959 244.543 70.4129 255.723 70.4769ZM255.723 100.965V129.721C244.543 129.785 233.797 131.102 223.761 133.482C220.878 123.81 219.208 112.734 219.133 100.965H255.723ZM255.723 131.454V169.448C242.324 168.888 230.642 155.229 224.269 135.134C234.143 132.806 244.722 131.518 255.723 131.454ZM257.456 131.454C268.457 131.518 279.035 132.806 288.91 135.134C282.537 155.229 270.855 168.887 257.456 169.448V131.454ZM257.456 129.721V100.965H294.046C293.971 112.734 292.301 123.811 289.418 133.483C279.382 131.102 268.636 129.785 257.456 129.721ZM311.304 57.4999C304.891 60.4119 297.952 62.8209 290.608 64.6529C288.938 59.3719 286.876 54.4549 284.455 50.0179C279.561 41.0569 273.581 34.7589 267.035 31.5119C284.947 34.2279 300.633 43.8189 311.304 57.4999ZM246.144 31.5119C239.598 34.7589 233.618 41.0569 228.724 50.0179C226.303 54.4489 224.241 59.3719 222.571 64.6529C215.228 62.8219 208.289 60.4119 201.875 57.4999C212.546 43.8189 228.233 34.2279 246.144 31.5119ZM200.818 58.8979C207.399 61.9139 214.517 64.4099 222.063 66.3049C219.087 76.3119 217.475 87.5489 217.4 99.2309H187.229C187.408 84.1459 192.434 70.2109 200.818 58.8979ZM187.228 100.966C187.228 100.965 187.228 100.965 187.228 100.966L217.399 100.965C217.474 112.647 219.086 123.886 222.062 133.893C214.516 135.788 207.398 138.278 200.817 141.3C192.434 129.987 187.408 116.051 187.228 100.966ZM201.875 142.692C208.288 139.786 215.227 137.377 222.571 135.545C224.241 140.826 226.304 145.743 228.724 150.18C233.618 159.141 239.598 165.439 246.144 168.686C228.227 165.97 212.541 156.379 201.875 142.692ZM267.036 168.686C273.582 165.439 279.562 159.141 284.456 150.18C286.877 145.743 288.939 140.826 290.609 135.545C297.952 137.377 304.891 139.786 311.305 142.692C300.639 156.379 284.952 165.97 267.036 168.686ZM312.361 141.3C305.78 138.278 298.662 135.788 291.116 133.893C294.091 123.886 295.703 112.648 295.779 100.966L325.95 100.965C325.771 116.05 320.745 129.987 312.361 141.3Z" fill="white"/>
</g>
<g opacity="0.2">
<path d="M150.814 63.5369C150.814 66.3319 148.549 68.5969 145.754 68.5969C142.959 68.5969 140.694 66.3319 140.694 63.5369C140.694 60.7429 142.959 58.4769 145.754 58.4769C148.549 58.4769 150.814 60.7429 150.814 63.5369Z" fill="white"/>
<path d="M156.415 58.706C156.008 58.706 155.613 58.492 155.399 58.112C153.441 54.632 149.746 52.47 145.754 52.47C141.762 52.47 138.067 54.632 136.109 58.112C135.794 58.673 135.085 58.872 134.524 58.556C133.964 58.241 133.765 57.531 134.08 56.971C136.449 52.759 140.923 50.142 145.755 50.142C150.587 50.142 155.06 52.759 157.429 56.971C157.744 57.531 157.545 58.241 156.985 58.556C156.804 58.657 156.608 58.706 156.415 58.706Z" fill="white"/>
<path d="M129.441 54.9549C129.248 54.9549 129.052 54.9069 128.871 54.8049C128.311 54.4899 128.112 53.7799 128.427 53.2189C131.943 46.9669 138.583 43.0829 145.754 43.0829C152.925 43.0829 159.565 46.9669 163.082 53.2189C163.397 53.7789 163.198 54.4889 162.638 54.8039C162.077 55.1189 161.368 54.9209 161.053 54.3599C157.948 48.8399 152.086 45.4109 145.755 45.4109C139.424 45.4109 133.562 48.8399 130.458 54.3599C130.242 54.7409 129.847 54.9549 129.441 54.9549Z" fill="white"/>
<path d="M166.127 50.1829C165.721 50.1829 165.325 49.9689 165.111 49.5889C161.182 42.6039 153.764 38.2649 145.753 38.2649C137.742 38.2649 130.325 42.6039 126.396 49.5889C126.081 50.1499 125.372 50.3489 124.811 50.0329C124.251 49.7179 124.052 49.0079 124.367 48.4479C128.707 40.7309 136.902 35.9369 145.753 35.9369C154.604 35.9369 162.799 40.7309 167.14 48.4479C167.455 49.0079 167.256 49.7179 166.696 50.0329C166.516 50.1349 166.32 50.1829 166.127 50.1829Z" fill="white"/>
<path d="M169.842 45.4119C169.435 45.4119 169.04 45.1979 168.826 44.8179C164.143 36.4929 155.302 31.3209 145.753 31.3209C136.205 31.3209 127.364 36.4929 122.681 44.8179C122.365 45.3789 121.657 45.5769 121.096 45.2619C120.536 44.9469 120.337 44.2369 120.652 43.6769C125.747 34.6189 135.365 28.9929 145.753 28.9929C156.142 28.9929 165.761 34.6189 170.855 43.6769C171.17 44.2369 170.971 44.9469 170.411 45.2619C170.231 45.3639 170.035 45.4119 169.842 45.4119Z" fill="white"/>
</g>
<path d="M78.874 91.0179C77.437 94.1399 76.58 97.5539 74.744 100.484C72.961 103.329 70.273 105.035 67.305 106.448C61.954 108.995 56.762 112.294 53.811 117.64C50.356 123.896 52.662 130.508 53.678 137.065C54.28 140.945 53.766 144.618 53.085 148.448C52.498 151.745 52.038 155.018 52.543 158.36C53.023 161.536 54.08 164.886 56.584 167.059C59.37 169.477 63.398 170.414 66.996 170.567C67.479 170.587 67.478 169.837 66.996 169.817C63.505 169.668 59.449 168.746 56.831 166.271C54.536 164.101 53.63 160.864 53.221 157.828C52.309 151.067 55.44 144.547 54.53 137.751C53.623 130.977 50.905 124.11 54.651 117.681C56.199 115.025 58.448 112.816 60.879 110.963C63.19 109.201 65.746 108.053 68.337 106.783C71.053 105.451 73.473 103.764 75.17 101.209C77.162 98.2099 78.03 94.6389 79.522 91.3969C79.722 90.9609 79.075 90.5789 78.874 91.0179Z" fill="#0B0B21"/>
<path d="M126.337 93.53C126.414 97.96 127.405 102.267 129.063 106.367C130.776 110.605 133.215 114.54 134.54 118.935C135.797 123.107 135.702 127.372 133.485 131.2C131.47 134.679 128.128 137.266 124.198 138.171C123.728 138.279 123.927 139.003 124.397 138.894C130.15 137.568 134.806 132.669 135.906 126.869C137.295 119.545 132.623 113.001 129.952 106.573C128.224 102.414 127.165 98.044 127.086 93.529C127.078 93.048 126.328 93.047 126.337 93.53Z" fill="#0B0B21"/>
<path d="M128.139 201.661C125.624 194.283 123.897 186.696 124.538 179.08C125.192 171.301 124.174 162.837 123.091 155.123C122.142 148.37 122.14 141.579 121.343 134.749C121.301 134.388 121.325 133.914 121.67 133.804C121.898 133.731 122.134 133.873 122.329 134.012C127.948 137.995 130.972 144.676 133.818 150.755C136.854 157.24 139.318 163.975 141.589 170.76C144.056 180.475 147.676 190.271 151.136 199.677C151.95 201.891 161.953 219.307 159.029 219.448C151.522 219.81 144.015 220.172 136.507 220.534C136.27 220.545 136.022 220.555 135.806 220.455C135.464 220.297 135.296 219.916 135.158 219.566C132.879 213.813 130.235 207.81 128.139 201.661Z" fill="#D42190"/>
<path d="M61.846 112.545C56.419 115.697 53.398 122.594 54.871 128.714C56.06 133.657 57.88 137.659 56.419 142.7C54.906 147.92 52.165 153.126 52.987 158.721C53.661 163.303 56.783 167.294 60.714 169.743C64.645 172.191 69.312 173.235 73.934 173.529C81 173.978 88.647 172.497 93.594 167.431C100.045 160.825 100.421 149.828 107.194 143.552C113.221 137.968 122.711 139.246 128.166 133.243C131.981 129.045 133.269 122.414 131.876 117.077C131.024 113.815 129.556 110.75 128.456 107.563C127.019 103.401 127.176 99.7 127.366 95.414C127.471 93.03 127.577 90.646 127.682 88.262C127.698 87.894 127.712 87.514 127.573 87.173C127.095 86.002 125.322 86.121 124.45 85.331C121.596 82.744 114.783 81.583 111.088 81.332C106.1 80.994 101.368 79.064 96.327 78.707C91.556 78.369 83.44 80.287 80.947 84.888C80.382 85.931 80.093 87.098 79.794 88.246C78.85 91.872 77.854 95.524 76.292 98.922C74.963 101.814 74.074 105.532 71.671 107.783C69.178 110.118 65.535 110.646 62.491 112.195C62.272 112.305 62.057 112.422 61.846 112.545Z" fill="#0B0B21"/>
<path d="M119.624 136.495C119.65 138.261 118.832 139.8 118.546 141.513C117.592 147.2 117.579 152.952 116.332 158.639C116.28 158.879 116.209 159.145 115.988 159.256C115.644 159.431 115.274 159.087 115.04 158.782C111.19 153.809 106.457 150.868 101.452 147.284C97.076 144.155 91.655 143.103 87.033 140.247C85.76 139.461 84.995 138.26 83.865 137.326C83.248 136.819 81.8 136.248 82.242 135.495C82.333 135.339 82.502 135.177 82.774 135.002C83.449 134.574 83.82 134.703 84.3 133.937C84.748 133.229 84.975 132.418 85.559 131.801C87.033 130.256 89.597 130.671 91.428 129.808C92.272 129.412 93.006 128.945 93.882 128.587C94.914 128.172 95.797 127.47 96.323 126.477C96.765 125.626 96.927 124.659 97.05 123.711C97.16 122.861 97.245 122.01 97.303 121.153C97.413 119.699 97.459 118.231 97.465 116.771C97.478 114.888 97.439 113.012 97.393 111.136C98.717 111.493 99.536 112.376 100.925 112.584C102.366 112.805 103.827 112.72 105.281 112.759C108.702 112.843 112.143 112.778 115.538 113.285C115.759 113.324 115.999 113.363 116.155 113.525C116.512 113.882 116.544 114.668 116.48 115.395C116.441 115.849 116.369 116.284 116.318 116.563C116.123 117.647 116.065 118.602 116.084 119.725C116.156 123.374 115.565 127.477 117.129 130.956C117.239 131.196 117.356 131.423 117.473 131.638C118.391 133.275 119.598 134.353 119.624 136.495Z" fill="#FFC19D"/>
<path d="M117.475 131.639C116.274 131.646 115.054 131.457 113.872 131.204C110.6 130.522 107.406 129.406 104.53 127.711C102.504 126.516 100.635 125.023 99.07 123.264C98.538 122.667 97.752 121.901 97.304 121.154C97.414 119.7 97.46 118.232 97.466 116.772C98.251 115.616 99.589 114.733 100.965 114.201C102.718 113.526 104.601 113.24 106.483 113.143C108.931 113.013 111.43 113.195 113.741 114.019C114.702 114.363 115.637 114.824 116.481 115.395C116.442 115.849 116.37 116.284 116.319 116.563C116.124 117.647 116.066 118.602 116.085 119.725C116.157 123.374 115.566 127.477 117.13 130.956C117.242 131.198 117.358 131.425 117.475 131.639Z" fill="#E89C77"/>
<path d="M124.316 95.461C124.289 95.652 124.263 95.843 124.238 96.033C123.921 98.46 124.299 100.852 123.908 103.253C123.527 105.59 123.236 107.853 122.499 110.121C121.082 114.482 118.697 118.682 115.168 121.675C113.648 122.964 111.795 124.193 109.812 124.602C108.118 124.951 106.804 124.127 105.238 123.555C101.54 122.204 98.438 119.771 95.98 116.715C93.186 113.242 91.553 109.264 89.488 105.372C87.538 101.698 88.69 97.318 87.87 93.293C86.341 85.79 87.477 78.656 93.995 73.952C97.527 71.403 101.818 70.075 106.13 69.464C109.452 68.993 112.943 68.943 116.05 70.211C118.825 71.343 121.14 73.498 122.614 76.107C125.013 80.352 124.723 85.222 124.852 89.917C124.9 91.711 124.574 93.615 124.316 95.461Z" fill="#FFC19D"/>
<path d="M97.251 119.562C99.932 122.116 103.022 124.562 106.724 125.361C108.55 125.755 110.336 125.688 112.061 124.938C113.79 124.187 115.25 122.951 116.668 121.733C117.401 121.103 116.336 120.046 115.607 120.672C114.382 121.725 113.128 122.784 111.658 123.484C110.018 124.265 108.277 124.239 106.55 123.776C103.339 122.915 100.675 120.752 98.312 118.501C97.612 117.836 96.55 118.895 97.251 119.562Z" fill="#D67F5C"/>
<path d="M82.435 92.5239C82.386 92.6009 82.34 92.6799 82.295 92.7609C81.335 94.5039 81.309 96.8409 81.903 98.8559C82.497 100.87 83.643 102.604 84.907 104.13C86.364 105.889 88.939 106.887 89.249 103.849C89.455 101.83 89.129 99.638 88.794 97.64C88.316 94.79 87.134 91.8359 84.39 91.5919C83.899 91.5479 83.385 91.6079 82.973 91.9139C82.762 92.0699 82.587 92.2859 82.435 92.5239Z" fill="#FFC19D"/>
<path d="M75.91 217.024C76.038 217.062 76.179 217.079 76.312 217.091C81.041 217.519 85.799 217.033 90.547 216.981C102.613 216.848 114.556 220.31 126.64 218.641C126.797 216.512 126.591 214.367 126.661 212.226C126.751 209.482 127.339 206.781 127.661 204.061C128.948 193.022 132.044 182.365 133.434 171.347C133.619 169.881 133.735 168.412 133.731 166.938C133.714 161.321 131.938 155.853 129.737 150.685C128.908 148.739 128.051 146.791 127.097 144.903C126.384 143.493 125.917 141.948 125.124 140.548C123.996 138.556 122.517 136.833 121.28 134.921C120.812 134.199 120.464 133.795 119.749 133.267C119.265 132.91 117.316 131.857 117.183 131.294C117.669 133.347 117.428 135.229 117.276 137.282C117.117 139.432 116.912 141.579 116.617 143.715C116.085 147.572 116.007 151.512 115.551 155.396C115.559 155.327 115.255 155.051 115.208 154.997C111.399 150.566 107.591 146.136 103.782 141.705C100.165 137.497 96.734 133.481 94.206 128.493C93.061 128.657 91.827 128.864 91.017 129.69C90.836 129.875 90.683 130.085 90.531 130.294C89.639 131.519 88.876 132.906 87.562 133.739C85.201 135.234 82.667 136.456 80.024 137.365C78.785 137.791 77.462 138.187 76.567 139.143C75.152 140.655 76.201 143.506 76.345 145.35C76.569 148.216 76.715 151.09 76.827 153.962C77.054 159.791 77.091 165.627 77.005 171.459C76.787 186.325 76.149 201.243 75.42 216.057C75.407 216.325 75.403 216.621 75.578 216.824C75.665 216.925 75.782 216.985 75.91 217.024Z" fill="white"/>
<path d="M119.241 69.737C118.881 69.681 118.523 69.715 118.2 69.89C113.581 64.519 105.812 64.373 99.128 65.121C92.273 65.888 85.994 70.723 82.144 76.026C79.371 79.847 78.233 85.538 77.281 90.06C76.171 95.33 75.627 100.686 75.09 106.028C75.053 106.399 75.019 106.793 75.19 107.126C75.353 107.443 75.674 107.653 75.986 107.841C77.588 108.805 79.277 109.388 81.001 110.093C82.411 110.67 84.126 110.942 85.429 111.724C87.094 112.723 89.033 113.588 90.441 114.913C91.523 115.931 92.48 116.771 94.105 116.894C94.097 115.79 93.469 114.686 93.031 113.685C91.296 109.718 90.724 105.776 90.65 101.529C90.599 98.653 90.842 96.122 92.761 93.829C93.294 93.192 94.337 92.586 94.741 91.911C94.408 92.467 94.075 93.023 93.743 93.579C94.156 93.898 94.756 93.816 95.277 93.709C98.93 92.953 102.511 91.664 105.972 90.361C105.742 91 105.427 91.624 105.148 92.249C107.537 91.416 109.886 90.26 111.543 88.405C113.004 86.77 113.802 84.728 114.385 82.679C114.886 80.919 114.889 78.908 116.011 77.392C116.429 76.827 117.061 76.336 117.781 76.34C118.227 76.342 118.648 76.533 119.027 76.756C120.82 77.808 122.373 79.764 122.52 81.82C122.675 83.982 123.076 85.911 123.53 88.051C124.095 90.719 124.462 93.427 124.626 96.148C124.711 97.549 124.742 98.954 124.719 100.359C124.704 101.294 124.573 102.099 124.485 103.008C124.414 103.736 125.321 106.017 125.043 106.495C127.891 101.603 129.162 95.906 128.755 90.341C128.571 87.825 128.084 85.221 127.645 82.763C127.149 79.99 125.916 77.199 124.491 74.764C123.494 73.06 122.285 71.415 120.607 70.311C120.203 70.043 119.721 69.811 119.241 69.737Z" fill="#0B0B21"/>
<path d="M75.836 207.673C75.783 210.342 75.394 212.701 75.634 215.355C75.817 217.379 75.698 217.501 77.876 217.823C79.692 218.092 81.514 218.328 83.338 218.54C89.283 219.232 95.263 219.641 101.247 219.761C103.212 219.8 105.63 220.677 107.523 220.219C109.525 219.735 109.321 218.7 109.289 216.916C109.095 206.226 109.267 195.457 109.44 184.765C109.466 183.176 109.49 181.573 109.186 180.012C108.933 178.714 108.456 177.472 107.994 176.233C105.335 169.102 102.984 161.859 100.81 154.567C98.647 147.31 96.102 140.151 93.729 132.94C93.301 131.656 92.753 130.373 92.639 129.021C92.634 128.959 87.259 129.832 86.774 129.927C85.022 130.268 83.297 130.493 81.545 130.89C76.91 132.214 72.08 132.828 68.315 136.139C68.157 136.278 67.995 136.432 67.939 136.635C67.899 136.781 67.919 136.936 67.939 137.086C68.558 141.659 68.845 146.135 69.11 150.742C69.313 154.277 69.516 157.813 69.719 161.348C70.058 167.254 71.879 172.564 73.107 178.347C75.163 188.021 76.031 197.841 75.836 207.673Z" fill="#D42190"/>
<path d="M134.066 220.533C131.726 206.836 132.614 192.956 134.868 179.369C135.756 174.019 136.329 168.531 135.4 163.145C134.61 158.561 132.768 154.235 130.942 149.958C128.825 144.999 127.145 136.262 121.943 133.795C121.052 133.372 120.132 133.011 119.256 132.555C118.698 132.264 117.216 131.605 117.003 130.959C117.381 132.102 117.8 133.231 118.259 134.343C118.673 135.345 119.339 136.381 119.565 137.437C120.003 139.483 120.311 141.636 120.616 143.718C122.154 154.223 121.875 165.049 120.095 175.506C117.562 190.383 119.183 206.472 121.43 221.328C122.183 221.248 134.042 220.392 134.066 220.533Z" fill="#D42190"/>
<path d="M108.626 105.648C108.215 105.572 107.826 105.463 107.489 105.322C109.038 104.869 110.261 103.542 110.69 101.993C111.156 100.307 110.439 98.2848 110.061 96.6428C110.795 97.8338 111.483 99.0538 112.122 100.298C112.636 101.298 113.602 102.56 113.422 103.741C113.279 104.683 112.404 105.38 111.48 105.613C110.658 105.821 109.582 105.825 108.626 105.648Z" fill="#E89C77"/>
<path d="M107.284 88.8108C107.766 88.7088 107.992 88.2478 107.922 87.7638C107.845 87.2358 107.217 86.9988 106.762 86.8908C105.407 86.5688 103.99 86.8108 102.619 87.0538C100.799 87.3758 99.223 87.8158 97.726 88.9308C97.568 89.0478 97.397 89.1928 97.386 89.3888C97.375 89.5848 97.538 89.7558 97.724 89.8198C97.909 89.8838 98.112 89.8658 98.307 89.8458C99.949 89.6838 101.59 89.5218 103.232 89.3608C104.589 89.2278 105.95 89.0938 107.284 88.8108Z" fill="#0A0A16"/>
<path d="M104.912 93.2347C104.291 92.0747 102.715 91.6997 101.587 92.4577C101.128 92.7657 100.825 93.2667 100.654 93.7927C100.244 95.0497 100.45 96.4097 101.209 97.5047C101.631 98.1137 102.286 98.6377 103.027 98.6217C103.685 98.6077 104.269 98.1697 104.663 97.6427C105.593 96.3977 105.645 94.6037 104.912 93.2347Z" fill="#0A0A16"/>
<path d="M113.813 88.8108C113.331 88.7088 113.105 88.2478 113.176 87.7638C113.253 87.2358 113.88 86.9988 114.336 86.8908C115.691 86.5688 117.108 86.8108 118.479 87.0538C120.299 87.3758 121.875 87.8158 123.372 88.9308C123.53 89.0478 123.701 89.1928 123.712 89.3888C123.723 89.5848 123.56 89.7558 123.374 89.8198C123.189 89.8838 122.986 89.8658 122.791 89.8458C121.149 89.6838 119.508 89.5218 117.866 89.3608C116.508 89.2278 115.148 89.0938 113.813 88.8108Z" fill="#0A0A16"/>
<path d="M116.185 93.2347C116.806 92.0747 118.382 91.6997 119.51 92.4577C119.969 92.7657 120.271 93.2667 120.443 93.7927C120.853 95.0497 120.647 96.4097 119.888 97.5047C119.465 98.1137 118.811 98.6377 118.07 98.6217C117.412 98.6077 116.828 98.1697 116.434 97.6427C115.504 96.3977 115.452 94.6037 116.185 93.2347Z" fill="#0A0A16"/>
<path d="M113.003 111.371C112.272 112.632 110.294 112.736 108.914 112.555C106.764 112.273 104.912 111.064 103.455 109.506C102.464 108.446 100.875 110.04 101.864 111.097C103.738 113.101 106.142 114.483 108.884 114.8C111.098 115.056 113.738 114.589 114.946 112.507C115.674 111.251 113.73 110.117 113.003 111.371Z" fill="#E89C77"/>
<path d="M80.6209 146.623C80.3659 140.873 78.6939 135.627 72.9029 134.065C71.0039 133.553 68.9489 134.47 67.5789 135.882C64.0649 139.506 62.2819 144.512 60.8059 149.235C59.2279 154.286 58.1109 159.616 56.8789 164.799C54.7839 173.609 53.5059 182.613 53.0669 191.658C52.6929 199.355 52.0269 208.483 57.9579 214.461C61.2829 217.812 66.4769 219.171 71.0169 217.879C71.4389 217.759 71.8749 217.605 72.1649 217.276C72.5419 216.848 72.5859 216.231 72.6159 215.661C72.7709 212.749 72.7499 209.465 73.4879 206.634C74.0749 204.381 74.694 202.392 75.01 200.019C75.81 194.011 76.5589 187.996 77.3429 181.986C78.2409 174.837 79.5369 167.708 79.8529 160.54C80.0139 156.872 80.8399 151.562 80.6209 146.623Z" fill="#D42190"/>
<path d="M95.709 71.3089C94.953 74.3799 92.344 78.3369 89.105 79.1759C85.503 80.1099 82.18 81.4279 79.022 78.8259C75.227 75.6999 73.753 70.0519 75.535 65.4689C77.317 60.8869 82.22 57.7189 87.13 57.9779C88.372 58.0429 89.615 58.3109 90.722 58.8779C91.949 59.5049 92.974 60.4809 93.788 61.5929C95.801 64.3439 96.524 67.9999 95.709 71.3089Z" fill="#0B0B21"/>
<path d="M102.917 158.893C103.785 157.267 104.851 155.756 106.106 154.405C106.72 153.744 107.376 153.121 108.068 152.543C108.79 151.94 109.556 151.329 110.461 151.033C110.918 150.884 110.722 150.159 110.262 150.31C109.332 150.614 108.553 151.189 107.799 151.798C107.045 152.408 106.332 153.07 105.668 153.777C104.331 155.198 103.188 156.796 102.269 158.516C102.042 158.94 102.689 159.319 102.917 158.893Z" fill="#DDDDDD"/>
<path d="M116.919 150.279C118.496 151.113 119.891 152.239 121.041 153.602C121.172 153.757 121.437 153.737 121.571 153.602C121.724 153.449 121.702 153.227 121.571 153.072C120.384 151.665 118.925 150.492 117.297 149.631C116.872 149.406 116.492 150.053 116.919 150.279Z" fill="#DDDDDD"/>
<path d="M90.068 129.442C88.899 131.44 88.538 133.85 87.822 136.031C87.034 138.432 86.0929 140.783 85.0019 143.063C84.6739 143.748 83.9509 144.711 84.2289 145.524C84.5329 146.41 85.8129 146.374 86.5619 146.5C89.1949 146.941 91.828 147.382 94.46 147.824C95.073 147.927 95.337 146.989 94.719 146.885C92.508 146.514 90.296 146.144 88.085 145.773C87.506 145.676 86.9269 145.579 86.3469 145.482C86.1129 145.443 85.774 145.453 85.557 145.35C85.174 145.168 85.1899 145.064 85.3099 144.641C85.4379 144.185 85.769 143.713 85.973 143.283C86.209 142.782 86.4389 142.277 86.6619 141.77C87.4879 139.886 88.223 137.962 88.855 136.004C89.502 133.997 89.8359 131.77 90.9089 129.935C91.2259 129.392 90.385 128.901 90.068 129.442Z" fill="#0F1B63"/>
<path d="M93.989 147.888C91.561 149.871 89.134 151.853 86.706 153.836C86.514 153.992 86.519 154.368 86.706 154.525C95.388 161.774 103.266 170.32 108.764 180.259C109.067 180.807 109.909 180.317 109.605 179.767C104.069 169.76 96.135 161.135 87.395 153.836C87.395 154.066 87.395 154.295 87.395 154.525C89.823 152.542 92.25 150.56 94.678 148.577C95.164 148.18 94.471 147.494 93.989 147.888Z" fill="#0F1B63"/>
<path d="M120.47 178.817C122.099 172.707 123.878 166.638 125.811 160.617C126.294 159.112 126.787 157.61 127.289 156.111C127.523 155.411 127.76 154.713 127.998 154.015C128.235 153.32 128.605 152.577 128.677 151.841C128.796 150.631 127.429 149.864 126.645 149.158C125.453 148.086 124.261 147.014 123.069 145.942C122.604 145.524 121.913 146.21 122.38 146.631C123.492 147.632 124.605 148.632 125.717 149.632C126.256 150.117 126.917 150.578 127.386 151.133C127.93 151.777 127.503 152.459 127.263 153.157C126.304 155.948 125.378 158.75 124.486 161.562C122.701 167.187 121.05 172.855 119.53 178.557C119.369 179.164 120.308 179.423 120.47 178.817Z" fill="#0F1B63"/>
<path d="M123.218 146.257C123.925 145.253 124.633 144.249 125.34 143.245C125.634 142.827 125.909 142.447 125.851 141.916C125.792 141.381 125.514 140.84 125.315 140.346C124.451 138.206 123.375 136.164 122.098 134.242C121.753 133.722 120.909 134.209 121.257 134.734C122.401 136.456 123.395 138.276 124.2 140.182C124.408 140.674 124.615 141.172 124.787 141.678C124.978 142.238 124.621 142.581 124.306 143.028C123.663 143.941 123.02 144.853 122.377 145.766C122.016 146.279 122.86 146.766 123.218 146.257Z" fill="#0F1B63"/>
<path d="M114.588 157.686C119.102 172.969 116.061 188.969 116.038 204.581C116.031 208.957 116.276 213.326 116.939 217.653C117.012 218.129 117.735 217.927 117.662 217.454C115.26 201.772 118.743 185.982 117.566 170.251C117.242 165.929 116.54 161.646 115.311 157.487C115.175 157.025 114.451 157.221 114.588 157.686Z" fill="#DDDDDD"/>
<g opacity="0.1">
<path d="M59.7079 133.606C58.4989 129.482 59.5689 124.914 62.6459 121.871C64.1939 120.34 66.0969 119.251 67.9049 118.063C69.5999 116.95 70.9249 115.577 72.2959 114.096C73.6209 112.664 75.0659 111.386 76.2519 109.826C77.4729 108.22 78.4839 106.464 79.2829 104.613C80.9509 100.748 81.3699 96.7768 81.8039 92.6368C82.3429 87.4958 84.1209 82.8938 87.8799 79.2438C88.2269 78.9068 87.6959 78.3768 87.3499 78.7138C84.3769 81.6008 82.3229 85.2998 81.5169 89.3718C80.6239 93.8788 80.7729 98.4438 79.1919 102.823C78.4269 104.941 77.3859 106.961 76.0829 108.799C74.7839 110.631 73.1349 112.081 71.6239 113.722C70.0029 115.482 68.3619 116.885 66.3459 118.179C64.6399 119.274 62.9149 120.401 61.5589 121.929C58.7069 125.142 57.7849 129.708 58.9859 133.807C59.1209 134.268 59.8449 134.071 59.7079 133.606Z" fill="white"/>
<path d="M62.2139 140.009C64.8619 134.163 70.0419 130.212 74.4959 125.809C79.2579 121.101 82.5229 115.601 83.9729 109.026C84.8049 105.252 85.0689 101.379 84.9449 97.5218C84.9299 97.0408 84.1789 97.0378 84.1949 97.5218C84.4809 106.396 82.5749 115.525 76.6659 122.409C71.6939 128.201 64.8049 132.482 61.5669 139.631C61.3689 140.067 62.0149 140.449 62.2139 140.009Z" fill="white"/>
<path d="M126.032 111.2C127.437 114.451 128.637 117.775 128.059 121.369C127.519 124.726 126.093 127.983 124.44 130.93C124.204 131.351 124.851 131.73 125.088 131.309C126.84 128.185 128.372 124.686 128.85 121.109C129.337 117.464 128.104 114.117 126.68 110.822C126.488 110.38 125.842 110.761 126.032 111.2Z" fill="white"/>
<path d="M114.469 72.8517C113.547 76.9097 112.419 81.1857 109.39 84.2197C109.049 84.5617 109.579 85.0917 109.92 84.7497C113.044 81.6217 114.241 77.2387 115.192 73.0507C115.298 72.5807 114.575 72.3797 114.469 72.8517Z" fill="white"/>
<path d="M109.996 69.8558C102.462 70.8808 96.3909 76.3568 92.7449 82.7848C90.8499 86.1248 89.5319 89.8198 89.0309 93.6338C88.4519 98.0448 89.0179 102.512 88.8279 106.942C88.6019 112.235 87.5379 117.45 85.7509 122.433C85.5879 122.888 86.3119 123.084 86.4739 122.632C87.8869 118.692 88.8469 114.611 89.3079 110.45C89.7869 106.126 89.4709 101.826 89.5309 97.4918C89.6409 89.5678 92.9029 81.7848 98.6969 76.3148C101.881 73.3088 105.829 71.1728 110.194 70.5788C110.672 70.5148 110.469 69.7918 109.996 69.8558Z" fill="white"/>
</g>
<path d="M147.977 217.406C147.977 220.351 141.402 219.509 133.291 219.509C125.18 219.509 118.605 220.351 118.605 217.406C118.605 214.461 125.18 208.843 133.291 208.843C141.402 208.843 147.977 214.46 147.977 217.406Z" fill="#B19CFE"/>
<path d="M152.277 216.965C152.816 218.11 151.384 218.561 150.298 218.595C147.09 218.693 143.784 217.446 140.752 216.532C137.029 215.409 132.708 214.502 129.096 216.457C127.947 217.079 126.926 217.928 125.626 218.214C123.818 218.611 122.229 218.265 120.452 217.914C117.8 217.39 115.063 217.65 112.364 217.49C112.237 217.482 112.091 217.463 112.023 217.355C111.972 217.274 111.985 217.17 112 217.075C112.521 213.747 112.757 210.247 113.803 207.039C113.907 206.721 114.035 206.38 114.32 206.206C114.542 206.071 114.817 206.065 115.077 206.063C119.199 206.036 123.274 206.335 127.408 205.986C129.537 205.806 131.687 205.528 133.798 205.855C137.094 206.367 140.293 208.656 143.109 210.387C144.701 211.366 146.263 212.394 147.791 213.47C149.024 214.338 151.168 215.405 152.057 216.605C152.152 216.733 152.224 216.852 152.277 216.965Z" fill="#FFC19D"/>
<path d="M116.591 217.805C116.58 218.099 116.561 218.415 116.378 218.645C116.141 218.943 115.716 218.995 115.336 219.025C113.629 219.157 111.922 219.289 110.215 219.421C110.017 219.436 109.799 219.446 109.64 219.327C109.442 219.178 109.419 218.895 109.415 218.647C109.375 216.156 109.503 213.663 109.796 211.19C110.073 208.852 110.114 206.527 110.174 204.179C110.176 204.093 110.182 203.999 110.24 203.937C110.314 203.858 110.438 203.863 110.546 203.874C112.782 204.097 115.019 204.319 117.255 204.542C117.261 205.556 117.136 206.552 117.135 207.559C117.134 208.715 117.062 209.875 116.995 211.029C116.864 213.286 116.676 215.543 116.591 217.805Z" fill="white"/>
<path d="M113.021 210.37C113.166 207.966 113.069 205.588 113.171 203.21C112.085 203.099 111.01 202.999 110.023 202.847C107.183 202.41 104.346 201.96 101.509 201.507C95.836 200.602 90.165 199.686 84.483 198.837C79.22 198.05 73.951 197.321 68.67 196.711C67.923 196.625 67.129 196.545 66.446 196.84C65.583 197.213 65.119 198.08 64.72 198.885C63.426 201.495 61.982 204.026 60.64 206.61C59.525 208.757 58.98 210.841 57.601 212.846C57.517 212.968 57.429 213.104 57.441 213.252C57.453 213.393 57.553 213.508 57.649 213.611C60.962 217.152 65.117 217.759 69.716 218.456C75.048 219.263 80.537 218.999 85.746 220.187C88.553 220.827 91.767 220.605 94.637 220.706C97.746 220.816 100.856 220.888 103.967 220.922C106.138 220.946 108.31 220.952 110.481 220.939C110.889 220.936 111.369 220.965 111.874 220.995C112.311 217.461 112.808 213.912 113.021 210.37Z" fill="#D42190"/>
<path d="M220.705 202.869H123.142C121.827 202.869 120.761 201.803 120.761 200.488L130.369 131.494C130.369 130.179 131.435 129.113 132.75 129.113H230.313C231.628 129.113 232.694 130.179 232.694 131.494L223.086 200.488C223.086 201.803 222.02 202.869 220.705 202.869Z" fill="#DED7FF"/>
<path d="M224.786 202.869H127.223C125.908 202.869 124.842 201.803 124.842 200.488L134.45 131.494C134.45 130.179 135.516 129.113 136.831 129.113H234.394C235.709 129.113 236.775 130.179 236.775 131.494L227.167 200.488C227.167 201.803 226.101 202.869 224.786 202.869Z" fill="#B19CFE"/>
<path d="M188.741 189.75H170.773V219.485H197.754L188.741 189.75Z" fill="#DED7FF"/>
<path d="M199.149 220.36H169.378C168.465 220.36 167.726 219.62 167.726 218.708V218.611C167.726 217.699 168.466 216.959 169.378 216.959H199.149C200.062 216.959 200.801 217.699 200.801 218.611V218.708C200.801 219.62 200.062 220.36 199.149 220.36Z" fill="#B19CFE"/>
<path d="M79.713 156.905C79.316 168.417 77.753 179.875 75.027 191.068C74.254 194.241 73.387 197.39 72.434 200.513C72.251 201.114 73.19 201.371 73.373 200.772C76.745 189.722 78.989 178.339 80.059 166.836C80.366 163.533 80.572 160.221 80.687 156.906C80.708 156.278 79.735 156.279 79.713 156.905Z" fill="#0F1B63"/>
<path d="M74.061 197.576C86.916 199.661 99.764 201.791 112.604 203.968C113.217 204.072 113.48 203.134 112.863 203.029C100.023 200.852 87.175 198.722 74.32 196.637C73.707 196.538 73.443 197.476 74.061 197.576Z" fill="#0F1B63"/>
<path d="M112.455 203.506C112.484 206.397 112.514 209.289 112.542 212.181C112.567 214.823 112.561 217.491 111.55 219.977C111.314 220.557 112.256 220.81 112.489 220.236C113.493 217.768 113.54 215.095 113.519 212.469C113.494 209.481 113.459 206.494 113.429 203.507C113.422 202.88 112.448 202.878 112.455 203.506Z" fill="#0F1B63"/>
<path d="M242.529 221.334H15.761C15.223 221.334 14.787 220.898 14.787 220.36C14.787 219.822 15.223 219.386 15.761 219.386H242.529C243.067 219.386 243.503 219.822 243.503 220.36C243.503 220.898 243.066 221.334 242.529 221.334Z" fill="white"/>
<path d="M113.636 204.495C114.3 204.614 114.963 204.739 115.624 204.875C115.796 204.91 116.446 204.944 116.548 205.071C116.727 205.293 116.613 205.969 116.614 206.237C116.616 207.581 116.598 208.924 116.559 210.267C116.478 213.049 116.305 215.828 116.051 218.6C116.007 219.08 116.757 219.077 116.801 218.6C117.091 215.446 117.273 212.283 117.338 209.116C117.354 208.348 117.362 207.581 117.365 206.813C117.367 206.231 117.545 205.303 117.301 204.76C117.099 204.31 116.511 204.295 116.089 204.207C115.34 204.051 114.589 203.907 113.836 203.773C113.364 203.688 113.161 204.41 113.636 204.495Z" fill="#DDDDDD"/>
<path d="M255.576 303.007C258.181 295.366 259.969 287.509 259.305 279.622C258.627 271.565 259.682 262.8 260.804 254.811C261.352 250.911 261.596 246.977 261.847 243.049C261.97 241.13 261.893 239.035 262.269 237.148C262.609 235.445 263.371 233.786 263.761 232.074C259.344 235.364 253.734 235.739 250.406 240.589C248.874 242.822 247.897 245.38 246.939 247.913C243.045 258.208 239.24 268.54 235.781 278.991C231.148 292.99 228.804 307.608 225.874 322.06C228.788 322.664 232.648 322.049 235.687 322.145C239.428 322.263 243.17 322.371 246.909 322.551C247.155 322.563 247.411 322.573 247.635 322.47C247.989 322.307 248.163 321.912 248.306 321.55C250.667 315.592 253.405 309.375 255.576 303.007Z" fill="white"/>
<path d="M300.744 240.714C302.063 239.899 302.852 238.655 304.027 237.688C304.662 237.166 306.163 236.576 305.708 235.791C305.615 235.63 305.439 235.461 305.156 235.282C304.453 234.838 304.074 234.975 303.571 234.178C302.901 233.119 302.604 231.995 301.441 231.341C300.588 230.861 299.554 230.812 298.676 230.38C296.512 229.312 296.437 225.674 296.322 223.589C296.046 218.56 295.769 213.532 295.493 208.503C294.634 209.252 294.208 209.872 293.034 209.909C291.957 209.943 290.829 209.728 289.852 210.313C289.184 210.713 288.69 211.394 287.943 211.675C286.113 212.363 283.776 212.193 281.845 212.243C278.303 212.336 274.737 212.267 271.222 212.794C270.992 212.829 270.745 212.873 270.58 213.038C269.979 213.638 270.274 215.439 270.412 216.188C270.618 217.311 270.676 218.296 270.654 219.459C270.582 223.239 271.195 227.485 269.575 231.09C268.856 232.69 267.351 233.679 267.111 235.436C266.775 237.897 266.665 240.538 267.183 242.978C267.837 246.05 269.802 249.037 272.786 250.02C276.3 251.178 279.57 249.444 282.738 248.177C288.787 245.76 295.164 244.161 300.744 240.714Z" fill="#E89C77"/>
<path d="M321.138 237.143C321.289 236.478 321.257 235.839 320.748 235.3C320.31 234.836 319.693 234.592 319.096 234.369C316.281 233.316 313.419 232.395 310.537 231.542C309.067 231.107 307.592 230.69 306.115 230.282C305.002 229.975 303.561 229.819 302.65 229.047C302.228 228.69 302.203 227.972 301.842 227.522C301.3 226.845 300.57 226.259 299.953 225.648C299.539 225.238 296.152 222.397 296.267 221.995C295.489 224.699 292.83 227.152 290.732 228.907C289.28 230.122 287.747 231.236 286.298 232.456C284.991 233.556 283.768 234.293 282.284 235.142C281.845 235.393 276.38 238.724 276.115 238.331C273.628 234.64 269.681 229.595 270.572 224.907C268.502 227.249 265.9 229.014 263.681 231.201C262.939 231.932 263.124 232.729 262.656 233.564C262.11 234.536 261.351 235.372 260.859 236.377C260.126 237.873 259.974 239.519 259.119 240.947C258.213 242.462 257.91 244.519 257.499 246.228C256.575 250.069 255.923 253.969 255.334 257.874C253.835 267.809 252.77 277.803 251.717 287.794C251.117 293.492 250.519 299.19 249.926 304.889C249.328 310.628 248.115 316.691 248.184 322.44C252.136 323.011 255.803 322.92 259.747 323.913C264.379 325.079 269.141 324.083 273.85 324.062C277.261 324.049 313.437 324.047 313.536 325.458C313.458 324.347 313.385 323.234 313.309 322.121C313.838 322.117 314.366 322.107 314.895 322.106C315.083 322.106 315.253 322.132 315.413 322.171C315.442 320.439 315.5 318.705 315.578 316.973C315.675 314.804 315.799 312.637 315.924 310.474C316.001 309.133 316.078 307.792 316.155 306.45C316.856 294.257 317.556 282.064 318.257 269.871L319.308 251.582C319.48 249.025 319.61 246.466 319.824 243.911C319.933 242.608 320.058 241.305 320.203 240.006C320.298 239.148 320.916 238.117 321.138 237.143Z" fill="white"/>
<path d="M309.429 248.226C309.224 242.268 310.523 236.716 316.374 234.632C318.293 233.948 320.489 234.728 322.019 236.074C325.942 239.529 328.191 244.552 330.099 249.309C332.14 254.396 333.727 259.807 335.422 265.058C338.302 273.983 340.356 283.175 341.546 292.478C342.559 300.394 343.99 309.764 338.354 316.419C335.195 320.149 329.943 321.976 325.15 321.011C324.705 320.921 324.242 320.798 323.916 320.482C323.492 320.071 323.396 319.437 323.319 318.852C323.086 316.988 322.858 315.121 322.528 313.271C322.377 312.426 322.307 311.379 321.965 310.589C321.706 309.99 321.233 309.461 320.897 308.886C319.178 305.946 318.013 302.711 317.182 299.417C316.981 298.621 316.799 297.821 316.632 297.018C316.054 294.237 315.317 291.181 315.241 288.336C315.169 285.634 314.444 282.908 313.98 280.226C312.962 274.351 312.088 268.451 311.358 262.533C310.891 258.758 309.605 253.343 309.429 248.226Z" fill="white"/>
<path d="M299.296 199.043C298.851 201.847 298.254 204.627 297.506 207.366C296.307 211.757 292.479 215.628 289.149 218.654C288.072 219.633 286.84 221.052 285.342 221.174C283.615 221.315 281.615 220.627 280.007 220.083C277.786 219.331 275.595 218.446 273.605 217.207C269.427 214.605 266.325 210.554 263.984 206.223C261.151 200.981 259.252 194.9 259.985 188.891C260.121 187.776 260.169 186.4 260.936 185.582C261.747 184.716 263.613 184.214 264.696 183.8C267.071 182.894 269.56 182.224 272.065 181.791C277.167 180.91 281.836 178.418 286.991 177.513C289.526 177.068 292.194 177.181 294.72 177.631C296.058 177.869 297.428 178.123 298.71 178.586C300.273 179.151 300.001 180.137 300.103 181.709C300.316 184.984 300.32 188.272 300.119 191.547C299.964 194.057 299.69 196.559 299.296 199.043Z" fill="#1C2F36"/>
<path d="M288.885 172.365C284.975 170.116 280.413 169.206 275.906 169.037C272.433 168.906 268.832 169.227 265.767 170.864C263.029 172.326 260.874 174.793 259.634 177.638C257.616 182.267 258.433 187.252 258.802 192.102C258.943 193.956 259.482 195.883 259.945 197.757C259.993 197.951 260.04 198.145 260.086 198.338C261.308 203.486 262.449 208.68 264.37 213.624C266.112 218.109 268.417 221.21 272.668 223.603C274.887 224.852 277.192 226.163 279.88 225.705C282.387 225.278 284.31 224.35 286.369 222.814C289.08 220.791 291.275 218.142 293.136 215.337C294.087 213.904 294.97 212.406 295.512 210.774C295.985 209.347 296.188 207.844 296.299 206.345C296.632 201.83 296.147 197.303 296.413 192.786C296.669 188.444 295.272 184.288 295.115 179.987C294.991 176.621 291.663 173.963 288.885 172.365Z" fill="#FFC19D"/>
<path d="M267.494 210.123C267.797 210.22 268.112 210.274 268.44 210.277C269.032 210.281 269.61 210.108 270.177 209.937C273.75 208.861 277.403 207.805 281.133 207.909C282.484 207.947 283.843 208.137 285.182 207.955C286.916 207.719 288.436 206.849 289.642 205.607C290.731 204.485 291.376 203.016 291.983 201.576C292.961 199.254 293.916 196.83 293.834 194.312C293.849 194.76 294.861 195.749 295.127 196.181C295.59 196.932 295.75 197.751 295.917 198.615C296.113 199.631 296.599 200.418 296.972 201.38C297.454 202.622 297.912 204.194 297.797 205.541C297.128 213.406 290.57 221.485 284.145 225.581C282.798 226.44 281.22 227.019 279.625 226.923C277.849 226.815 275.766 225.874 274.119 225.21C272.057 224.379 270.254 222.541 268.565 221.144C267.298 220.096 266.021 219.015 265.132 217.631C264.342 216.4 263.895 214.984 263.471 213.584C262.88 211.631 262.314 209.671 261.774 207.703C261.44 206.487 260.8 205.211 260.699 203.95C260.602 202.752 260.411 201.597 260.246 200.394C261.304 203.074 262.776 205.591 264.594 207.826C265.381 208.79 266.346 209.756 267.494 210.123Z" fill="#0B0B21"/>
<path d="M299.839 173.907C298.192 170.541 295.689 167.932 291.878 166.105C289.003 164.726 285.855 163.843 282.653 163.817C279.29 163.789 275.932 164.145 272.662 164.935C269.68 165.656 266.678 166.837 263.621 167.208C261.336 167.485 258.922 167.212 256.941 166.041C256.558 167.574 257.227 169.313 258.538 170.195C256.254 170.424 253.884 169.472 252.393 167.728C251.533 175.481 255.865 182.868 263.674 184.632C267.958 185.599 272.417 184.691 276.713 183.783C279.454 183.204 282.194 182.625 284.935 182.045C287.551 181.492 290.12 182.204 291.511 184.594C293.867 188.643 293.542 193.63 294.015 198.291C294.128 199.401 294.532 200.1 294.916 201.076C295.359 202.204 295.433 203.558 295.717 204.744C295.78 205.006 295.906 205.324 296.175 205.34C296.369 205.352 296.527 205.189 296.636 205.028C297.319 204.017 297.191 202.688 297.096 201.472C296.865 198.508 296.406 193.851 298.324 191.309C299.42 189.959 300.323 190.35 301.719 190.135C302.684 189.986 302.492 189.744 302.535 188.623C302.568 187.758 302.574 186.892 302.545 186.027C302.465 183.621 302.139 181.224 301.577 178.883C301.142 177.072 300.577 175.414 299.839 173.907Z" fill="#0B0B21"/>
<path d="M258.903 180.77C258.426 180.26 258.022 179.797 257.859 179.886C257.296 180.19 257.807 183.661 257.856 184.244C257.988 185.809 258.174 187.375 258.101 188.948C257.972 191.739 258.464 194.743 258.926 197.51C259.619 201.665 261.039 205.888 264.066 208.816C263.029 207.813 262.493 205.741 262.01 204.423C261.51 203.059 260.874 201.984 260.567 200.515C259.848 197.081 259.593 193.535 259.963 190.04C260.248 187.345 260.232 184.635 260.501 181.954C260.029 181.94 259.423 181.326 258.903 180.77Z" fill="#0B0B21"/>
<path d="M277.194 206.578C277.609 206.456 277.998 206.302 278.33 206.122C276.686 205.82 275.284 204.584 274.678 203.034C274.018 201.347 274.541 199.187 274.755 197.456C274.126 198.761 273.548 200.091 273.022 201.441C272.6 202.525 271.739 203.929 272.05 205.127C272.298 206.082 273.273 206.707 274.25 206.848C275.119 206.973 276.228 206.862 277.194 206.578Z" fill="#E89C77"/>
<path d="M276.723 189.106C276.426 188.824 276.528 188.369 276.779 187.929C277.142 187.295 277.797 186.861 278.473 186.577C280.69 185.645 283.953 185.775 285.667 187.567C285.914 187.826 286.096 188.247 285.852 188.511C285.741 188.631 285.569 188.681 285.405 188.709C284.853 188.804 284.288 188.724 283.731 188.676C281.969 188.523 280.175 188.694 278.474 189.175C278.066 189.291 277.64 189.425 277.225 189.339C276.996 189.29 276.832 189.21 276.723 189.106Z" fill="#0A0A16"/>
<path d="M279.662 193.068C280.178 191.807 281.762 191.253 283.005 191.913C283.511 192.182 283.876 192.665 284.108 193.188C284.664 194.439 284.597 195.862 283.932 197.071C283.562 197.744 282.943 198.353 282.178 198.416C281.499 198.472 280.85 198.083 280.388 197.582C279.297 196.399 279.053 194.557 279.662 193.068Z" fill="#0A0A16"/>
<path d="M270.298 189.771C270.531 189.434 270.338 189.009 270.002 188.631C269.517 188.085 268.787 187.794 268.066 187.655C265.706 187.197 262.538 187.993 261.228 190.098C261.039 190.402 260.947 190.851 261.24 191.06C261.373 191.155 261.551 191.168 261.718 191.162C262.278 191.142 262.814 190.948 263.35 190.787C265.044 190.277 266.834 190.076 268.597 190.198C269.02 190.227 269.465 190.272 269.853 190.102C270.068 190.008 270.212 189.895 270.298 189.771Z" fill="#0A0A16"/>
<path d="M268.233 194.251C267.47 193.123 265.806 192.905 264.725 193.806C264.285 194.173 264.027 194.721 263.906 195.28C263.618 196.619 263.975 197.998 264.873 199.044C265.373 199.627 266.103 200.096 266.865 200.001C267.541 199.917 268.096 199.403 268.446 198.818C269.272 197.437 269.134 195.584 268.233 194.251Z" fill="#0A0A16"/>
<path d="M271.708 214.007C273.148 215.986 275.782 216.089 277.984 215.597C280.662 214.999 282.852 213.266 284.484 211.113C285.067 210.344 283.765 209.596 283.189 210.356C281.853 212.118 280.023 213.537 277.859 214.086C276.361 214.465 274.048 214.686 273.004 213.25C272.441 212.477 271.139 213.224 271.708 214.007Z" fill="#E89C77"/>
<path d="M302.774 190.265C302.833 190.339 302.889 190.416 302.943 190.494C304.118 192.187 304.394 194.592 303.997 196.731C303.6 198.869 302.604 200.777 301.465 202.484C300.151 204.452 297.606 205.755 296.962 202.657C296.534 200.599 296.636 198.306 296.768 196.212C296.956 193.225 297.859 190.056 300.659 189.512C301.16 189.415 301.696 189.422 302.153 189.693C302.388 189.832 302.592 190.035 302.774 190.265Z" fill="#FFC19D"/>
<path d="M300.172 194.213C300.163 194.215 300.084 194.208 300.095 194.201C300.123 194.182 300.263 194.383 300.281 194.409C300.401 194.584 300.478 194.785 300.538 194.987C300.676 195.456 300.697 195.96 300.63 196.445C300.485 197.491 299.968 198.449 299.472 199.363C299.012 200.212 300.306 200.97 300.767 200.12C301.473 198.818 302.154 197.435 302.162 195.92C302.169 194.639 301.479 192.356 299.772 192.767C298.835 192.992 299.233 194.439 300.172 194.213Z" fill="#E89C77"/>
<path d="M301.771 196.275C301.354 195.831 300.716 195.649 300.123 195.728C299.541 195.806 299.035 196.101 298.616 196.506C298.334 196.779 298.321 197.296 298.616 197.567C298.919 197.846 299.375 197.859 299.677 197.567C299.75 197.496 299.826 197.43 299.906 197.367C299.855 197.406 299.805 197.445 299.754 197.484C299.889 197.382 300.032 197.295 300.187 197.226C300.127 197.251 300.068 197.276 300.008 197.302C300.141 197.247 300.278 197.207 300.422 197.187C300.356 197.196 300.289 197.205 300.223 197.214C300.338 197.201 300.451 197.202 300.565 197.216C300.499 197.207 300.432 197.198 300.366 197.189C300.469 197.204 300.568 197.23 300.665 197.268C300.605 197.243 300.546 197.218 300.486 197.192C300.571 197.228 300.651 197.272 300.726 197.327C300.675 197.288 300.625 197.249 300.574 197.21C300.623 197.248 300.668 197.289 300.71 197.334C300.979 197.621 301.503 197.626 301.771 197.334C302.053 197.028 302.058 196.581 301.771 196.275Z" fill="#E89C77"/>
<g opacity="0.2">
<path d="M259.612 176.355C261.894 178.142 264.732 178.547 267.561 178.445C271.31 178.311 275.008 177.521 278.741 177.204C282.328 176.899 286.055 176.979 289.451 178.301C292.72 179.574 295.367 182.008 297.027 185.082C297.256 185.507 297.904 185.129 297.675 184.703C294.483 178.792 288.373 176.294 281.88 176.306C278.069 176.313 274.311 177.029 270.535 177.451C267.046 177.841 263.077 178.122 260.143 175.825C259.766 175.531 259.232 176.058 259.612 176.355Z" fill="white"/>
</g>
<g opacity="0.2">
<path d="M270.577 171.249C276.467 170.475 282.622 169.65 288.434 171.335C290.923 172.056 293.323 173.219 295.293 174.92C297.416 176.753 298.671 179.107 299.831 181.614C300.034 182.052 300.68 181.671 300.479 181.236C299.321 178.732 298.06 176.363 295.966 174.513C294.061 172.83 291.775 171.629 289.367 170.839C283.289 168.846 276.783 169.684 270.577 170.499C270.105 170.561 270.099 171.312 270.577 171.249Z" fill="white"/>
</g>
<g opacity="0.2">
<path d="M260.882 170.543C263.882 173.893 268.441 174.792 272.71 175.258C273.189 175.31 273.185 174.56 272.71 174.508C268.634 174.063 264.275 173.209 261.412 170.012C261.09 169.653 260.561 170.185 260.882 170.543Z" fill="white"/>
</g>
<path d="M237.629 320.621C237.629 323.671 244.438 322.799 252.838 322.799C261.238 322.799 268.048 323.671 268.048 320.621C268.048 317.571 261.239 311.753 252.838 311.753C244.439 311.753 237.629 317.571 237.629 320.621Z" fill="#B19CFE"/>
<path d="M233.103 320.279C232.598 321.488 234.101 321.889 235.225 321.873C238.548 321.825 241.911 320.383 245.006 319.296C248.354 318.12 251.982 317.175 255.419 318.058C258.192 318.77 260.097 321.041 262.865 321.533C266.152 322.117 269.533 322.307 272.868 322.185C273.695 322.155 274.644 322.037 275.1 321.347C275.449 320.82 275.384 320.12 275.197 319.517C274.047 315.803 273.835 311.917 272.447 308.226C272.325 307.902 272.177 307.555 271.874 307.388C271.638 307.258 271.353 307.265 271.084 307.275C266.818 307.438 262.616 307.936 258.323 307.766C256.112 307.678 253.874 307.49 251.706 307.927C248.32 308.609 245.116 311.126 242.283 313.047C240.681 314.133 239.113 315.27 237.582 316.454C236.347 317.409 234.177 318.612 233.314 319.896C233.222 320.033 233.152 320.16 233.103 320.279Z" fill="#FFC19D"/>
<path d="M270.557 306.332C272.646 305.946 274.959 305.848 276.936 305.544C279.877 305.091 282.815 304.625 285.753 304.157C291.628 303.22 297.501 302.272 303.386 301.392C308.837 300.577 314.294 299.821 319.762 299.19C320.536 299.101 321.358 299.018 322.065 299.323C322.959 299.709 323.439 300.607 323.852 301.441C326.379 306.539 329.515 311.461 331.372 316.814C331.615 317.515 331.838 318.264 331.645 318.979C331.214 320.586 329.083 321.106 327.321 321.322C321.614 322.023 315.889 322.6 310.152 323.052C301.189 323.759 292.199 324.163 283.205 324.263C280.956 324.288 278.707 324.294 276.459 324.28C275.185 324.272 273.259 324.557 271.827 324.276C271.243 318.304 270.683 312.332 270.557 306.332Z" fill="white"/>
<path d="M276.094 238.943C274.046 256.321 272.546 273.768 271.901 291.256C271.718 296.208 271.607 301.163 271.565 306.119C271.561 306.602 272.311 306.602 272.315 306.119C272.463 288.613 273.528 271.127 275.242 253.707C275.727 248.78 276.265 243.859 276.844 238.943C276.901 238.465 276.15 238.469 276.094 238.943Z" fill="#DDDDDD"/>
<path d="M276.456 239.686C279.768 240.326 282.325 244.147 283.615 247.004C283.669 247.124 283.816 247.185 283.939 247.19C284.237 247.201 284.597 246.845 284.816 246.691C285.434 246.257 286.042 245.809 286.651 245.362C288.111 244.29 289.566 243.21 291.008 242.114C293.03 240.576 294.949 238.889 296.812 237.164C299.174 234.977 301.653 232.692 303.061 229.746C303.268 229.313 302.622 228.932 302.413 229.367C300.565 233.231 296.857 236.219 293.67 238.961C291.841 240.535 289.946 241.991 288.01 243.429C287.068 244.13 286.124 244.828 285.173 245.516C284.852 245.748 284.533 245.984 284.206 246.205C284.117 246.265 284.031 246.331 283.94 246.385C283.581 246.6 284.11 246.337 284.095 246.253C283.952 245.469 283.113 244.423 282.664 243.784C282.176 243.091 281.637 242.432 281.051 241.818C279.849 240.559 278.41 239.301 276.656 238.962C276.184 238.872 275.982 239.595 276.456 239.686Z" fill="#DDDDDD"/>
<path d="M263.079 233.985C264.96 237.874 267.49 241.416 270.554 244.462C270.728 244.635 271.018 244.592 271.143 244.386C272.432 242.27 274.218 240.534 276.368 239.302C276.787 239.062 276.409 238.414 275.989 238.654C273.731 239.949 271.849 241.785 270.495 244.007C270.691 243.982 270.888 243.956 271.084 243.931C268.063 240.927 265.581 237.441 263.727 233.606C263.516 233.172 262.869 233.552 263.079 233.985Z" fill="#DDDDDD"/>
<path d="M310.255 240.856C308.562 250.463 309.894 260.172 311.405 269.709C312.976 279.625 314.349 289.615 316.68 299.389C316.792 299.858 317.515 299.66 317.403 299.19C315.147 289.726 313.809 280.06 312.28 270.46C310.734 260.756 309.254 250.842 310.978 241.056C311.061 240.583 310.338 240.381 310.255 240.856Z" fill="#DDDDDD"/>
<path d="M259.83 237.045C252.148 254.851 249.393 274.302 247.752 293.485C247.283 298.966 246.91 304.454 246.55 309.943C246.518 310.425 247.269 310.423 247.3 309.943C248.558 290.763 249.939 271.372 255.109 252.775C256.562 247.547 258.327 242.407 260.477 237.424C260.667 236.984 260.021 236.602 259.83 237.045Z" fill="#DDDDDD"/>
<path d="M323.37 298.946C318.897 298.747 314.448 299.465 310.025 300.037C305.71 300.595 301.396 301.163 297.084 301.745C288.197 302.945 279.318 304.207 270.457 305.584C270.299 305.609 270.179 305.795 270.182 305.946C270.19 306.397 270.198 306.848 270.206 307.299C270.215 307.781 270.965 307.783 270.956 307.299C270.948 306.848 270.94 306.397 270.932 305.946C270.84 306.067 270.748 306.187 270.657 306.308C279.359 304.956 288.078 303.714 296.805 302.533C301.21 301.937 305.617 301.357 310.025 300.787C314.448 300.215 318.896 299.497 323.37 299.696C323.853 299.717 323.852 298.967 323.37 298.946Z" fill="#DDDDDD"/>
<path d="M285.145 279.465C284.989 272.57 285.105 265.673 285.493 258.787C285.368 258.912 285.243 259.037 285.118 259.162C288.278 258.781 291.453 258.553 294.636 258.498C296.158 258.471 297.68 258.484 299.201 258.534C300.031 258.561 300.86 258.6 301.688 258.65C302.084 258.674 302.513 258.625 302.858 258.86C303.208 258.897 303.326 259.087 303.214 259.432C303.221 259.64 303.228 259.848 303.235 260.057C303.44 266.373 303.527 272.692 303.504 279.011C303.596 278.89 303.687 278.77 303.779 278.649C297.573 279.601 291.198 279.749 284.958 279.043C284.479 278.989 284.483 279.739 284.958 279.793C291.269 280.507 297.703 280.334 303.978 279.372C304.138 279.347 304.253 279.161 304.253 279.01C304.266 275.538 304.246 272.066 304.191 268.594C304.162 266.789 304.124 264.984 304.076 263.179C304.054 262.346 304.03 261.513 304.004 260.68C303.986 260.088 304.109 259.166 303.891 258.608C303.502 257.615 301.7 257.895 300.86 257.852C299.133 257.764 297.404 257.724 295.674 257.734C292.145 257.755 288.622 257.988 285.119 258.41C284.908 258.435 284.757 258.562 284.744 258.785C284.356 265.671 284.24 272.568 284.396 279.463C284.406 279.946 285.156 279.948 285.145 279.465Z" fill="#DDDDDD"/>
<path d="M285.513 263.351C291.423 263.124 297.337 263.068 303.248 262.899C303.73 262.885 303.732 262.135 303.248 262.149C297.337 262.318 291.422 262.374 285.513 262.601C285.032 262.619 285.029 263.369 285.513 263.351Z" fill="#DDDDDD"/>
<path d="M166.467 306.25H264.03C265.345 306.25 266.411 305.184 266.411 303.869L256.803 234.875C256.803 233.56 255.737 232.494 254.422 232.494H156.859C155.544 232.494 154.478 233.56 154.478 234.875L164.086 303.869C164.086 305.184 165.152 306.25 166.467 306.25Z" fill="#DED7FF"/>
<path d="M162.385 306.25H259.948C261.263 306.25 262.329 305.184 262.329 303.869L252.721 234.875C252.721 233.56 251.655 232.494 250.34 232.494H152.777C151.462 232.494 150.396 233.56 150.396 234.875L160.004 303.869C160.005 305.184 161.07 306.25 162.385 306.25Z" fill="#B19CFE"/>
<path d="M198.431 293.132H216.398V322.867H189.417L198.431 293.132Z" fill="#DED7FF"/>
<path d="M188.022 323.742H217.793C218.705 323.742 219.445 323.002 219.445 322.09V321.993C219.445 321.08 218.705 320.341 217.793 320.341H188.022C187.109 320.341 186.37 321.081 186.37 321.993V322.09C186.37 323.002 187.11 323.742 188.022 323.742Z" fill="#B19CFE"/>
<path d="M357.602 325.04H130.835C130.118 325.04 129.537 324.459 129.537 323.742C129.537 323.025 130.118 322.444 130.835 322.444H357.603C358.32 322.444 358.901 323.025 358.901 323.742C358.901 324.459 358.319 325.04 357.602 325.04Z" fill="white"/>
<path d="M352.268 174.956C352.268 165.257 344.405 157.394 334.706 157.394C325.007 157.394 317.144 165.257 317.144 174.956C317.144 178.244 318.064 181.31 319.637 183.942H319.612L333.596 206.09C333.826 206.459 334.234 206.707 334.704 206.707C335.174 206.707 335.583 206.458 335.812 206.089V206.098L349.802 183.941H349.775C351.348 181.311 352.268 178.245 352.268 174.956ZM334.706 181.761C330.658 181.761 327.376 178.479 327.376 174.431C327.376 170.383 330.658 167.101 334.706 167.101C338.754 167.101 342.036 170.383 342.036 174.431C342.036 178.479 338.755 181.761 334.706 181.761Z" fill="#FFC655"/>
<path d="M15.563 292.136C6.982 292.136 0 285.154 0 276.573C0 267.992 6.982 261.01 15.563 261.01C16.373 261.01 17.03 261.667 17.03 262.477C17.03 263.287 16.373 263.944 15.563 263.944C8.599 263.944 2.935 269.609 2.935 276.572C2.935 283.535 8.6 289.2 15.563 289.2C16.373 289.2 17.03 289.857 17.03 290.667C17.031 291.479 16.374 292.136 15.563 292.136Z" fill="white"/>
<path d="M80.778 320.225C89.359 320.225 96.341 313.243 96.341 304.662C96.341 296.081 89.359 289.099 80.778 289.099C79.968 289.099 79.311 289.756 79.311 290.566C79.311 291.376 79.968 292.033 80.778 292.033C87.742 292.033 93.406 297.698 93.406 304.661C93.406 311.624 87.741 317.289 80.778 317.289C79.968 317.289 79.311 317.946 79.311 318.756C79.311 319.568 79.968 320.225 80.778 320.225Z" fill="white"/>
<path d="M79.399 272.256H16.943C15.596 272.256 14.504 271.164 14.504 269.817V255.423C14.504 254.076 15.596 252.984 16.943 252.984H79.399C80.746 252.984 81.838 254.076 81.838 255.423V269.817C81.838 271.164 80.746 272.256 79.399 272.256Z" fill="#B19CFE"/>
<path d="M39.59 264.047H34.474C33.686 264.047 33.046 263.408 33.046 262.619C33.046 261.831 33.685 261.191 34.474 261.191H39.59C40.378 261.191 41.018 261.83 41.018 262.619C41.018 263.408 40.379 264.047 39.59 264.047Z" fill="#542FD0"/>
<path d="M27.188 264.047H22.072C21.284 264.047 20.644 263.408 20.644 262.619C20.644 261.831 21.283 261.191 22.072 261.191H27.188C27.976 261.191 28.616 261.83 28.616 262.619C28.616 263.408 27.977 264.047 27.188 264.047Z" fill="#FFC655"/>
<path d="M51.992 264.047H46.877C46.089 264.047 45.449 263.408 45.449 262.619C45.449 261.831 46.088 261.191 46.877 261.191H51.992C52.78 261.191 53.42 261.83 53.42 262.619C53.42 263.408 52.781 264.047 51.992 264.047Z" fill="#D42190"/>
<path d="M60.134 268.568V256.731C60.134 255.943 60.773 255.303 61.562 255.303C62.35 255.303 62.99 255.942 62.99 256.731V268.568C62.99 269.356 62.351 269.995 61.562 269.995C60.773 269.996 60.134 269.356 60.134 268.568Z" fill="#FFC655"/>
<path d="M66.558 268.568V256.731C66.558 255.943 67.197 255.303 67.986 255.303C68.774 255.303 69.414 255.942 69.414 256.731V268.568C69.414 269.356 68.775 269.995 67.986 269.995C67.197 269.996 66.558 269.356 66.558 268.568Z" fill="#FFC655"/>
<path d="M72.9821 268.568V256.731C72.9821 255.943 73.6211 255.303 74.4091 255.303C75.1971 255.303 75.8371 255.942 75.8371 256.731V268.568C75.8371 269.356 75.1981 269.995 74.4091 269.995C73.6211 269.996 72.9821 269.356 72.9821 268.568Z" fill="#FFC655"/>
<path d="M79.399 300.163H16.943C15.596 300.163 14.504 299.071 14.504 297.724V283.33C14.504 281.983 15.596 280.891 16.943 280.891H79.399C80.746 280.891 81.838 281.983 81.838 283.33V297.724C81.838 299.071 80.746 300.163 79.399 300.163Z" fill="#B19CFE"/>
<path d="M39.59 291.955H34.474C33.686 291.955 33.046 291.316 33.046 290.527C33.046 289.739 33.685 289.099 34.474 289.099H39.59C40.378 289.099 41.018 289.738 41.018 290.527C41.018 291.316 40.379 291.955 39.59 291.955Z" fill="#542FD0"/>
<path d="M27.188 291.955H22.072C21.284 291.955 20.644 291.316 20.644 290.527C20.644 289.739 21.283 289.099 22.072 289.099H27.188C27.976 289.099 28.616 289.738 28.616 290.527C28.616 291.316 27.977 291.955 27.188 291.955Z" fill="#FFC655"/>
<path d="M51.992 291.955H46.877C46.089 291.955 45.449 291.316 45.449 290.527C45.449 289.739 46.088 289.099 46.877 289.099H51.992C52.78 289.099 53.42 289.738 53.42 290.527C53.42 291.316 52.781 291.955 51.992 291.955Z" fill="#D42190"/>
<path d="M60.134 296.475V284.638C60.134 283.85 60.773 283.21 61.562 283.21C62.35 283.21 62.99 283.849 62.99 284.638V296.475C62.99 297.264 62.351 297.903 61.562 297.903C60.773 297.903 60.134 297.264 60.134 296.475Z" fill="#FFC655"/>
<path d="M66.558 296.475V284.638C66.558 283.85 67.197 283.21 67.986 283.21C68.774 283.21 69.414 283.849 69.414 284.638V296.475C69.414 297.264 68.775 297.903 67.986 297.903C67.197 297.903 66.558 297.264 66.558 296.475Z" fill="#FFC655"/>
<path d="M72.9821 296.475V284.638C72.9821 283.85 73.6211 283.21 74.4091 283.21C75.1971 283.21 75.8371 283.849 75.8371 284.638V296.475C75.8371 297.264 75.1981 297.903 74.4091 297.903C73.6211 297.903 72.9821 297.264 72.9821 296.475Z" fill="#FFC655"/>
<path d="M79.399 328H16.943C15.596 328 14.504 326.908 14.504 325.561V311.167C14.504 309.82 15.596 308.728 16.943 308.728H79.399C80.746 308.728 81.838 309.82 81.838 311.167V325.561C81.838 326.907 80.746 328 79.399 328Z" fill="#B19CFE"/>
<path d="M39.59 319.791H34.474C33.686 319.791 33.046 319.152 33.046 318.363C33.046 317.574 33.685 316.935 34.474 316.935H39.59C40.378 316.935 41.018 317.574 41.018 318.363C41.018 319.152 40.379 319.791 39.59 319.791Z" fill="#542FD0"/>
<path d="M27.188 319.791H22.072C21.284 319.791 20.644 319.152 20.644 318.363C20.644 317.574 21.283 316.935 22.072 316.935H27.188C27.976 316.935 28.616 317.574 28.616 318.363C28.616 319.152 27.977 319.791 27.188 319.791Z" fill="#FFC655"/>
<path d="M51.992 319.791H46.877C46.089 319.791 45.449 319.152 45.449 318.363C45.449 317.574 46.088 316.935 46.877 316.935H51.992C52.78 316.935 53.42 317.574 53.42 318.363C53.42 319.152 52.781 319.791 51.992 319.791Z" fill="#D42190"/>
<path d="M60.134 324.312V312.475C60.134 311.687 60.773 311.047 61.562 311.047C62.35 311.047 62.99 311.686 62.99 312.475V324.312C62.99 325.1 62.351 325.74 61.562 325.74C60.773 325.739 60.134 325.1 60.134 324.312Z" fill="#FFC655"/>
<path d="M66.558 324.312V312.475C66.558 311.687 67.197 311.047 67.986 311.047C68.774 311.047 69.414 311.686 69.414 312.475V324.312C69.414 325.1 68.775 325.74 67.986 325.74C67.197 325.739 66.558 325.1 66.558 324.312Z" fill="#FFC655"/>
<path d="M72.9821 324.312V312.475C72.9821 311.687 73.6211 311.047 74.4091 311.047C75.1971 311.047 75.8371 311.686 75.8371 312.475V324.312C75.8371 325.1 75.1981 325.74 74.4091 325.74C73.6211 325.739 72.9821 325.1 72.9821 324.312Z" fill="#FFC655"/>
<path d="M359.347 320.435L354.974 320.491C354.828 320.493 354.687 320.51 354.548 320.536C353.971 318.106 352.973 315.841 351.637 313.817C351.754 313.732 351.867 313.64 351.969 313.534L355.007 310.388C355.952 309.409 355.925 307.844 354.946 306.898L351.8 303.86C350.821 302.915 349.256 302.942 348.31 303.921L345.272 307.067C345.17 307.173 345.082 307.288 345.002 307.408C342.989 306.177 340.757 305.275 338.38 304.774C338.402 304.635 338.416 304.493 338.414 304.348L338.358 299.975C338.341 298.614 337.22 297.521 335.859 297.538L331.486 297.594C330.125 297.611 329.032 298.733 329.05 300.094L329.106 304.467C329.108 304.612 329.125 304.754 329.151 304.892C326.721 305.469 324.456 306.467 322.432 307.803C322.347 307.686 322.255 307.574 322.149 307.471L319.003 304.433C318.532 303.978 317.912 303.732 317.257 303.74C317.253 303.74 317.249 303.74 317.245 303.74C316.586 303.752 315.97 304.019 315.513 304.493L312.475 307.639C311.53 308.618 311.557 310.183 312.536 311.129L315.682 314.167C315.789 314.27 315.904 314.356 316.023 314.436C314.791 316.449 313.889 318.681 313.388 321.059C313.249 321.037 313.107 321.023 312.962 321.025L308.589 321.081C307.228 321.098 306.135 322.219 306.153 323.58L306.209 327.953C306.226 329.314 307.347 330.407 308.708 330.389L313.081 330.333C313.226 330.331 313.368 330.314 313.506 330.288C314.084 332.719 315.081 334.984 316.418 337.008C316.302 337.092 316.189 337.182 316.085 337.289L313.047 340.435C312.589 340.909 312.343 341.534 312.354 342.193C312.366 342.852 312.633 343.467 313.107 343.925L316.253 346.963C316.74 347.433 317.371 347.662 317.999 347.654C318.635 347.646 319.267 347.394 319.743 346.902L322.781 343.756C322.884 343.649 322.97 343.533 323.05 343.415C325.063 344.647 327.296 345.549 329.673 346.05C329.651 346.189 329.637 346.331 329.639 346.477L329.695 350.85C329.712 352.211 330.833 353.304 332.194 353.286L336.567 353.23C337.928 353.213 339.021 352.092 339.003 350.731L338.947 346.358C338.945 346.212 338.928 346.071 338.902 345.932C341.333 345.355 343.598 344.357 345.622 343.02C345.706 343.136 345.797 343.25 345.903 343.353L349.049 346.391C349.536 346.861 350.167 347.09 350.795 347.082C351.431 347.074 352.063 346.822 352.539 346.33L355.577 343.184C356.522 342.205 356.495 340.64 355.516 339.694L352.37 336.656C352.264 336.554 352.149 336.466 352.029 336.385C353.26 334.372 354.162 332.14 354.663 329.763C354.802 329.785 354.944 329.799 355.09 329.797L359.463 329.741C360.824 329.724 361.917 328.603 361.899 327.242L361.843 322.869C361.829 321.511 360.708 320.418 359.347 320.435ZM334.811 337.703C328.758 338.661 323.054 334.517 322.096 328.465C321.138 322.412 325.282 316.708 331.334 315.75C337.387 314.791 343.09 318.936 344.049 324.988C345.007 331.041 340.863 336.745 334.811 337.703Z" fill="#D42190"/>
<path d="M389.672 275.811L386.332 277.19C386.221 277.236 386.117 277.292 386.019 277.355C384.833 275.666 383.375 274.232 381.73 273.087C381.794 272.986 381.852 272.881 381.898 272.769L383.269 269.425C383.695 268.385 383.196 267.191 382.156 266.765L378.812 265.394C377.772 264.968 376.578 265.467 376.152 266.507L374.781 269.851C374.735 269.963 374.703 270.079 374.678 270.195C372.757 269.865 370.767 269.855 368.789 270.197C368.764 270.084 368.731 269.97 368.685 269.859L367.306 266.519C366.877 265.48 365.682 264.983 364.643 265.412L361.303 266.791C360.264 267.22 359.767 268.415 360.197 269.455L361.577 272.795C361.623 272.906 361.679 273.01 361.741 273.108C360.052 274.294 358.618 275.752 357.473 277.397C357.372 277.333 357.267 277.275 357.155 277.229L353.811 275.858C353.31 275.653 352.759 275.653 352.259 275.86C352.256 275.861 352.253 275.863 352.25 275.864C351.747 276.074 351.357 276.468 351.15 276.972L349.779 280.316C349.353 281.356 349.852 282.55 350.893 282.976L354.237 284.347C354.35 284.393 354.465 284.424 354.581 284.449C354.251 286.371 354.241 288.36 354.583 290.339C354.469 290.364 354.356 290.397 354.245 290.443L350.905 291.822C349.866 292.251 349.369 293.446 349.799 294.485L351.178 297.825C351.607 298.864 352.802 299.361 353.841 298.932L357.181 297.552C357.292 297.506 357.396 297.45 357.494 297.388C358.68 299.077 360.139 300.512 361.784 301.656C361.72 301.756 361.661 301.86 361.615 301.974L360.244 305.318C360.037 305.822 360.039 306.377 360.25 306.879C360.46 307.382 360.854 307.772 361.358 307.979L364.702 309.35C365.219 309.562 365.774 309.545 366.253 309.347C366.739 309.146 367.147 308.76 367.362 308.236L368.733 304.892C368.779 304.779 368.81 304.663 368.835 304.548C370.757 304.878 372.746 304.888 374.725 304.546C374.75 304.66 374.784 304.773 374.829 304.884L376.208 308.224C376.637 309.263 377.832 309.76 378.871 309.331L382.211 307.951C383.251 307.522 383.747 306.327 383.318 305.288L381.939 301.948C381.893 301.837 381.837 301.733 381.774 301.635C383.463 300.449 384.898 298.99 386.042 297.346C386.142 297.41 386.246 297.469 386.36 297.515L389.704 298.886C390.221 299.098 390.776 299.081 391.256 298.883C391.742 298.682 392.151 298.296 392.365 297.773L393.736 294.429C394.162 293.389 393.663 292.195 392.623 291.769L389.279 290.398C389.167 290.352 389.051 290.32 388.935 290.294C389.265 288.373 389.275 286.384 388.933 284.405C389.047 284.38 389.16 284.347 389.271 284.301L392.611 282.922C393.65 282.493 394.147 281.298 393.717 280.259L392.338 276.919C391.906 275.878 390.711 275.381 389.672 275.811ZM375.412 296.224C370.531 298.24 364.919 295.909 362.903 291.028C360.887 286.147 363.218 280.535 368.1 278.519C372.981 276.503 378.592 278.834 380.609 283.716C382.624 288.596 380.293 294.208 375.412 296.224Z" fill="#B19CFE"/>
<path d="M156.675 341.147L160.609 338.566C161.533 337.96 161.79 336.72 161.184 335.796L145.973 314.93C145.367 314.006 144.127 313.749 143.203 314.355L141.441 315.511C140.517 316.117 140.26 317.357 140.866 318.281L153.906 340.571C154.512 341.496 155.752 341.753 156.675 341.147Z" fill="#FFC655"/>
<path d="M145.099 314.287L140.623 317.224C139.384 318.037 137.72 317.691 136.907 316.452C136.094 315.213 136.44 313.549 137.679 312.736L142.155 309.799C143.394 308.986 145.058 309.332 145.871 310.571C146.684 311.81 146.338 313.474 145.099 314.287Z" fill="#D42190"/>
<path d="M147.947 300.152C150.302 290.135 144.091 280.104 134.074 277.749C124.056 275.393 114.026 281.604 111.67 291.622C109.314 301.639 115.525 311.67 125.543 314.025C135.56 316.381 145.591 310.17 147.947 300.152Z" fill="#FFC655"/>
<path d="M141.806 288.03C146.146 294.646 144.302 303.527 137.686 307.867C131.07 312.207 122.189 310.363 117.848 303.747C113.508 297.131 115.352 288.25 121.968 283.91C128.584 279.57 137.465 281.414 141.806 288.03Z" fill="#D42190"/>
<path d="M142.791 297.981C143.948 290.825 139.084 284.086 131.928 282.93C124.772 281.773 118.034 286.636 116.877 293.792C115.72 300.948 120.583 307.687 127.739 308.844C134.895 310 141.634 305.137 142.791 297.981Z" fill="white"/>
<path d="M358.263 216.868H355.95V222.684H358.263V216.868Z" fill="#B19CFE"/>
<path d="M355.95 226.967V227.882V255.628H358.263V227.882V226.967H355.95Z" fill="#B19CFE"/>
<path d="M374.069 216.866H371.756V255.63H374.069V216.866Z" fill="#B19CFE"/>
<path d="M388.94 216.868H386.627V234.44H388.94V216.868Z" fill="#B19CFE"/>
<path d="M388.94 238.723H386.627V255.628H388.94V238.723Z" fill="#B19CFE"/>
<path d="M376.876 247.618H368.95C367.942 247.618 367.126 246.801 367.126 245.794V244.25C367.126 243.242 367.943 242.426 368.95 242.426H376.876C377.884 242.426 378.7 243.243 378.7 244.25V245.794C378.7 246.802 377.883 247.618 376.876 247.618Z" fill="#D42190"/>
<path d="M361.265 221.77H352.949C351.807 221.77 350.879 222.731 350.879 223.902V225.759C350.879 226.93 351.807 227.882 352.949 227.882H361.265C362.416 227.882 363.344 226.93 363.344 225.759V223.902C363.344 222.73 362.416 221.77 361.265 221.77ZM362.452 225.759C362.452 226.427 361.926 226.967 361.265 226.967H352.949C352.298 226.967 351.771 226.427 351.771 225.759V223.902C351.771 223.234 352.297 222.685 352.949 222.685H361.265C361.926 222.685 362.452 223.234 362.452 223.902V225.759Z" fill="#FFC655"/>
<path d="M391.944 233.524H383.628C382.477 233.524 381.549 234.485 381.549 235.656V237.513C381.549 238.684 382.477 239.636 383.628 239.636H391.944C393.086 239.636 394.014 238.684 394.014 237.513V235.656C394.014 234.485 393.085 233.524 391.944 233.524ZM393.121 237.513C393.121 238.181 392.595 238.721 391.943 238.721H383.627C382.976 238.721 382.44 238.181 382.44 237.513V235.656C382.44 234.988 382.975 234.439 383.627 234.439H391.943C392.594 234.439 393.121 234.988 393.121 235.656V237.513Z" fill="#B19CFE"/>
<path d="M46.888 190.256C37.423 191.728 24.808 183.957 24.781 183.94C24.755 183.956 12.138 191.728 2.67298 190.256C2.67298 190.256 -6.94202 220.225 24.78 239.526C56.502 220.225 46.888 190.256 46.888 190.256Z" fill="white"/>
<path d="M24.78 240.826C24.546 240.826 24.312 240.763 24.105 240.637C7.29299 230.408 2.01499 217.165 0.547987 207.857C-1.04301 197.763 1.33499 190.179 1.43699 189.861C1.63199 189.252 2.23999 188.875 2.87299 188.975C11.779 190.357 23.974 182.913 24.096 182.838C24.21 182.768 24.336 182.714 24.465 182.682C24.804 182.597 25.166 182.653 25.462 182.836C25.585 182.911 37.794 190.356 46.689 188.975C47.325 188.876 47.93 189.253 48.125 189.861C48.227 190.179 50.604 197.763 49.014 207.857C47.547 217.162 42.273 230.399 25.473 240.627C25.455 240.638 25.436 240.65 25.417 240.661C25.218 240.77 24.999 240.826 24.78 240.826ZM3.63599 191.677C3.07399 194.016 1.93599 200.124 3.13099 207.566C5.13399 220.04 12.416 230.276 24.781 238.001C51.278 221.43 47.177 196.955 45.923 191.678C37.452 192.383 27.467 187.007 24.778 185.449C22.062 187.008 12.022 192.371 3.63599 191.677Z" fill="#FFC655"/>
<path d="M33.203 201.253C33.249 198.303 31.761 195.683 29.481 194.143C29.476 194.14 29.471 194.137 29.466 194.134C29.249 193.988 29.026 193.852 28.796 193.726C28.772 193.713 28.747 193.702 28.723 193.689C28.51 193.576 28.294 193.469 28.071 193.375C28.024 193.355 27.975 193.339 27.928 193.32C27.725 193.238 27.521 193.16 27.311 193.093C27.237 193.07 27.161 193.053 27.087 193.032C26.899 192.978 26.711 192.926 26.518 192.885C26.416 192.864 26.311 192.85 26.208 192.833C26.038 192.804 25.869 192.773 25.695 192.755C25.566 192.741 25.434 192.737 25.302 192.729C25.173 192.721 25.046 192.705 24.916 192.703C24.892 192.703 24.869 192.706 24.845 192.705C24.822 192.705 24.799 192.702 24.775 192.702C24.646 192.702 24.52 192.716 24.392 192.721C24.259 192.727 24.126 192.729 23.995 192.741C23.823 192.757 23.656 192.785 23.487 192.811C23.381 192.827 23.274 192.839 23.17 192.86C22.979 192.897 22.792 192.946 22.605 192.996C22.528 193.017 22.45 193.033 22.374 193.056C22.164 193.119 21.96 193.193 21.757 193.271C21.708 193.29 21.657 193.306 21.609 193.325C21.386 193.416 21.169 193.519 20.956 193.628C20.931 193.641 20.904 193.652 20.879 193.665C20.648 193.786 20.424 193.919 20.206 194.06C20.2 194.064 20.193 194.067 20.188 194.071C17.885 195.575 16.356 198.171 16.356 201.122C16.356 201.146 16.362 201.169 16.363 201.193L16.306 204.835C16.305 204.877 16.241 209.083 16.248 209.263C16.275 210.014 16.886 210.607 17.63 210.619C17.654 210.619 17.678 210.619 17.703 210.618C18.471 210.591 19.073 209.953 19.059 209.188C19.058 208.907 19.113 205.208 19.118 204.88L19.178 201.034C19.214 198.716 20.659 196.744 22.683 195.923C22.689 195.921 22.696 195.919 22.702 195.916C22.861 195.852 23.024 195.795 23.19 195.746C23.22 195.737 23.251 195.731 23.281 195.723C23.425 195.683 23.57 195.646 23.717 195.618C23.773 195.607 23.831 195.601 23.888 195.592C24.012 195.572 24.136 195.552 24.262 195.541C24.344 195.534 24.428 195.532 24.51 195.528C24.614 195.523 24.719 195.516 24.825 195.517C24.93 195.518 25.033 195.526 25.136 195.533C25.22 195.538 25.304 195.541 25.387 195.55C25.512 195.564 25.635 195.585 25.757 195.607C25.815 195.617 25.874 195.625 25.931 195.636C26.077 195.667 26.22 195.705 26.362 195.747C26.393 195.756 26.425 195.763 26.456 195.773C26.621 195.825 26.783 195.884 26.941 195.951C26.947 195.953 26.953 195.956 26.959 195.958C28.97 196.811 30.384 198.805 30.384 201.124V204.97C30.384 205.298 30.38 208.998 30.375 209.279C30.349 210.044 30.941 210.691 31.708 210.73C31.732 210.731 31.757 210.732 31.781 210.732C32.525 210.732 33.146 210.149 33.184 209.398C33.193 209.219 33.195 205.012 33.195 204.97V201.327C33.196 201.3 33.203 201.278 33.203 201.253Z" fill="#0F1B63"/>
<path d="M31.527 204.686H18.033C15.788 204.686 13.969 206.505 13.969 208.75V219.905C13.969 222.149 15.788 223.969 18.033 223.969H31.527C33.771 223.969 35.591 222.15 35.591 219.905V208.75C35.591 206.505 33.771 204.686 31.527 204.686Z" fill="#D42190"/>
<path d="M27.375 212.57C27.375 211.137 26.213 209.975 24.78 209.975C23.347 209.975 22.185 211.137 22.185 212.57C22.185 213.511 22.688 214.333 23.437 214.788V218.216C23.437 218.958 24.038 219.559 24.78 219.559C25.522 219.559 26.123 218.958 26.123 218.216V214.788C26.873 214.333 27.375 213.511 27.375 212.57Z" fill="#0F1B63"/>
<path d="M42.961 37.004L36.561 31.332C36.262 31.068 35.805 31.096 35.542 31.394C35.414 31.538 35.35 31.724 35.362 31.916C35.374 32.108 35.459 32.285 35.604 32.413L41.37 37.523L35.624 42.241C35.475 42.363 35.382 42.536 35.364 42.728C35.346 42.92 35.403 43.108 35.525 43.257C35.662 43.425 35.866 43.521 36.083 43.521C36.249 43.521 36.412 43.463 36.541 43.357L42.94 38.102C43.103 37.968 43.199 37.77 43.204 37.557C43.207 37.346 43.119 37.144 42.961 37.004Z" fill="#D42190"/>
<path d="M54.199 37.004L47.799 31.332C47.5 31.068 47.043 31.096 46.78 31.394C46.652 31.538 46.588 31.724 46.6 31.916C46.612 32.108 46.697 32.285 46.842 32.413L52.608 37.523L46.862 42.241C46.713 42.363 46.62 42.536 46.602 42.728C46.584 42.92 46.64 43.108 46.763 43.257C46.9 43.425 47.104 43.521 47.321 43.521C47.487 43.521 47.65 43.463 47.779 43.357L54.178 38.102C54.341 37.968 54.437 37.77 54.442 37.557C54.445 37.346 54.357 37.144 54.199 37.004Z" fill="#D42190"/>
<path d="M65.437 37.004L59.037 31.332C58.738 31.068 58.2811 31.096 58.0191 31.394C57.8911 31.538 57.8271 31.724 57.8381 31.916C57.8501 32.108 57.935 32.285 58.08 32.413L63.846 37.523L58.1001 42.241C57.9511 42.363 57.858 42.536 57.84 42.728C57.822 42.92 57.8791 43.108 58.0011 43.257C58.1381 43.425 58.3421 43.521 58.5591 43.521C58.7251 43.521 58.8871 43.463 59.0171 43.357L65.416 38.102C65.579 37.968 65.675 37.77 65.68 37.557C65.684 37.346 65.595 37.144 65.437 37.004Z" fill="#D42190"/>
<path d="M387.146 171.415L392.818 165.015C393.081 164.716 393.053 164.259 392.756 163.997C392.612 163.869 392.426 163.805 392.234 163.816C392.041 163.828 391.865 163.913 391.737 164.058L386.627 169.824L381.909 164.078C381.787 163.929 381.614 163.836 381.422 163.818C381.23 163.8 381.042 163.856 380.893 163.979C380.725 164.116 380.629 164.32 380.629 164.537C380.629 164.703 380.687 164.865 380.793 164.995L386.048 171.394C386.182 171.557 386.38 171.653 386.593 171.658C386.804 171.662 387.006 171.573 387.146 171.415Z" fill="#D42190"/>
<path d="M387.146 182.654L392.818 176.254C393.081 175.955 393.053 175.498 392.756 175.236C392.612 175.108 392.426 175.044 392.234 175.056C392.041 175.068 391.865 175.153 391.737 175.298L386.627 181.064L381.909 175.318C381.787 175.169 381.614 175.076 381.422 175.058C381.23 175.04 381.042 175.096 380.893 175.219C380.725 175.356 380.629 175.56 380.629 175.777C380.629 175.943 380.687 176.106 380.793 176.235L386.048 182.634C386.182 182.797 386.38 182.893 386.593 182.898C386.804 182.9 387.006 182.811 387.146 182.654Z" fill="#D42190"/>
<path d="M387.146 193.892L392.818 187.492C393.081 187.193 393.053 186.736 392.756 186.474C392.612 186.346 392.426 186.282 392.234 186.294C392.041 186.306 391.865 186.391 391.737 186.536L386.627 192.302L381.909 186.556C381.787 186.407 381.614 186.314 381.422 186.296C381.23 186.278 381.042 186.334 380.893 186.457C380.725 186.594 380.629 186.798 380.629 187.015C380.629 187.181 380.687 187.344 380.793 187.473L386.048 193.872C386.182 194.035 386.38 194.131 386.593 194.136C386.804 194.138 387.006 194.05 387.146 193.892Z" fill="#D42190"/>
<path d="M213.369 336.475L219.769 342.147C220.068 342.41 220.525 342.382 220.787 342.085C220.915 341.941 220.979 341.755 220.968 341.563C220.956 341.37 220.871 341.194 220.726 341.066L214.96 335.956L220.706 331.238C220.855 331.116 220.948 330.943 220.966 330.751C220.984 330.559 220.928 330.371 220.805 330.222C220.668 330.054 220.464 329.958 220.247 329.958C220.081 329.958 219.919 330.016 219.789 330.122L213.39 335.377C213.227 335.511 213.131 335.709 213.126 335.922C213.122 336.132 213.211 336.334 213.369 336.475Z" fill="#D42190"/>
<path d="M202.13 336.475L208.53 342.147C208.829 342.41 209.286 342.382 209.548 342.085C209.676 341.941 209.74 341.755 209.728 341.563C209.716 341.37 209.631 341.194 209.486 341.066L203.72 335.956L209.466 331.238C209.615 331.116 209.708 330.943 209.726 330.751C209.744 330.559 209.687 330.371 209.565 330.222C209.428 330.054 209.224 329.958 209.007 329.958C208.841 329.958 208.678 330.016 208.549 330.122L202.15 335.377C201.987 335.511 201.891 335.709 201.886 335.922C201.884 336.132 201.972 336.334 202.13 336.475Z" fill="#D42190"/>
<path d="M190.892 336.475L197.292 342.147C197.591 342.41 198.048 342.382 198.31 342.085C198.438 341.941 198.502 341.755 198.49 341.563C198.478 341.37 198.393 341.194 198.248 341.066L192.482 335.956L198.228 331.238C198.377 331.116 198.47 330.943 198.488 330.751C198.506 330.559 198.45 330.371 198.327 330.222C198.19 330.054 197.986 329.958 197.769 329.958C197.603 329.958 197.44 330.016 197.311 330.122L190.912 335.377C190.749 335.511 190.653 335.709 190.648 335.922C190.646 336.132 190.734 336.334 190.892 336.475Z" fill="#D42190"/>
<path d="M51.304 53.1749H20.617C17.28 53.1749 14.576 55.8799 14.576 59.2159V76.0939C14.576 79.4299 17.281 82.1349 20.617 82.1349H49.002L57.345 87.9609V76.0939V73.7929V59.2169C57.345 55.8799 54.64 53.1749 51.304 53.1749Z" fill="#FFC655"/>
<path d="M52.022 60.1819H31.237V61.5129H52.022V60.1819Z" fill="white"/>
<path d="M27.857 60.1819H19.898V61.5129H27.857V60.1819Z" fill="white"/>
<path d="M52.023 67.1338H19.898V68.4648H52.023V67.1338Z" fill="white"/>
<path d="M52.022 74.0859H45.046V75.4169H52.022V74.0859Z" fill="white"/>
<path d="M41.019 74.0859H19.898V75.4169H41.019V74.0859Z" fill="white"/>
<path d="M6.042 77.7009H36.728C40.065 77.7009 42.769 80.4059 42.769 83.7419V100.62C42.769 103.956 40.064 106.661 36.728 106.661H8.343L0 112.487V100.62V98.3189V83.7429C0 80.4049 2.705 77.7009 6.042 77.7009Z" fill="#B19CFE"/>
<path d="M26.108 84.707H5.323V86.038H26.108V84.707Z" fill="white"/>
<path d="M37.447 84.707H29.488V86.038H37.447V84.707Z" fill="white"/>
<path d="M37.448 91.6589H5.323V92.9899H37.448V91.6589Z" fill="white"/>
<path d="M12.299 98.6121H5.323V99.9431H12.299V98.6121Z" fill="white"/>
<path d="M37.448 98.6121H16.327V99.9431H37.448V98.6121Z" fill="white"/>
</svg>
