<svg xmlns="http://www.w3.org/2000/svg" xmlns:xlink="http://www.w3.org/1999/xlink" width="401.289" height="404.796" viewBox="0 0 401.289 404.796"><defs><filter id="a" x="80.379" y="71.105" width="265" height="265" filterUnits="userSpaceOnUse"><feOffset dx="2" dy="2" input="SourceAlpha"/><feGaussianBlur stdDeviation="7.5" result="b"/><feFlood flood-opacity="0.149"/><feComposite operator="in" in2="b"/><feComposite in="SourceGraphic"/></filter></defs><g transform="translate(-751.074 -1390.618)"><g transform="translate(769.806 1391.132)"><line x1="84.038" y1="75.61" transform="translate(7.296 7.044)" fill="none" stroke="#d0d0d0" stroke-linecap="round" stroke-miterlimit="10" stroke-width="1.76" stroke-dasharray="0 4.401"/><path d="M275.676,128.4a7.432,7.432,0,1,1-10.3,2.156A7.445,7.445,0,0,1,275.676,128.4Z" transform="translate(-264.169 -127.191)" fill="#36a9e1" stroke="rgba(0,0,0,0)" stroke-width="1"/></g><g transform="translate(751.074 1519.254)"><line x1="111.81" y1="16.669" transform="translate(7.11 7.187)" fill="none" stroke="#d0d0d0" stroke-linecap="round" stroke-miterlimit="10" stroke-width="1.76" stroke-dasharray="0 4.401"/><g transform="translate(0 0)"><path d="M260.164,205.217a7.432,7.432,0,1,1-7.4,7.484A7.443,7.443,0,0,1,260.164,205.217Z" transform="translate(-252.762 -205.217)" fill="#3aaa35"/></g></g><g transform="translate(769.806 1712.76)"><line x1="84.038" y2="75.61" transform="translate(7.296)" fill="none" stroke="#d0d0d0" stroke-linecap="round" stroke-miterlimit="10" stroke-width="1.76" stroke-dasharray="0 4.401"/><g transform="translate(0 67.774)"><path d="M275.676,378a7.432,7.432,0,1,0-10.3-2.156A7.443,7.443,0,0,0,275.676,378Z" transform="translate(-264.169 -364.335)" fill="#f39200"/></g></g><g transform="translate(751.074 1643.436)"><line x1="111.81" y2="16.669" transform="translate(7.11)" fill="none" stroke="#d0d0d0" stroke-linecap="round" stroke-miterlimit="10" stroke-width="1.76" stroke-dasharray="0 4.401"/><g transform="translate(0 8.993)"><path d="M260.164,301.182a7.431,7.431,0,1,0-7.4-7.484A7.442,7.442,0,0,0,260.164,301.182Z" transform="translate(-252.762 -286.32)" fill="#662483"/></g></g><g transform="translate(1042.298 1391.132)"><path d="M0,75.61,84.038,0" transform="translate(0 7.044)" fill="none" stroke="#d0d0d0" stroke-linecap="round" stroke-width="1.76" stroke-dasharray="0 4.401"/><g transform="translate(76.434)"><path d="M480.056,128.4a7.432,7.432,0,1,0,10.305,2.156A7.443,7.443,0,0,0,480.056,128.4Z" transform="translate(-476.664 -127.191)" fill="#e6007e"/></g></g><g transform="translate(1033.444 1519.254)"><path d="M0,16.669,111.81,0" transform="translate(0 7.187)" fill="none" stroke="#d0d0d0" stroke-linecap="round" stroke-width="1.76" stroke-dasharray="0 4.401"/><g transform="translate(104.007 0)"><path d="M495.573,205.217a7.432,7.432,0,1,0,7.4,7.484A7.444,7.444,0,0,0,495.573,205.217Z" transform="translate(-488.064 -205.217)" fill="#f9b233"/></g></g><g transform="translate(1042.298 1712.76)"><line x2="84.038" y2="75.61" fill="none" stroke="#d0d0d0" stroke-linecap="round" stroke-miterlimit="10" stroke-width="1.76" stroke-dasharray="0 4.401"/><g transform="translate(76.434 67.774)"><path d="M480.056,378a7.432,7.432,0,1,1,10.305-2.156A7.442,7.442,0,0,1,480.056,378Z" transform="translate(-476.664 -364.335)" fill="#be1622"/></g></g><g transform="translate(1033.444 1643.436)"><line x2="111.81" y2="16.669" fill="none" stroke="#d0d0d0" stroke-linecap="round" stroke-miterlimit="10" stroke-width="1.76" stroke-dasharray="0 4.401"/><g transform="translate(104.007 8.993)"><path d="M495.573,301.182a7.431,7.431,0,1,1,7.4-7.484A7.443,7.443,0,0,1,495.573,301.182Z" transform="translate(-488.064 -286.32)" fill="#29235c"/></g></g><g transform="translate(43.163 18)"><g transform="matrix(1, 0, 0, 1, 707.91, 1372.62)" filter="url(#a)"><circle cx="110" cy="110" r="110" transform="translate(100.88 91.6)" fill="#fff"/></g><circle cx="98.078" cy="98.078" r="98.078" transform="translate(820.713 1476.144)" fill="none" stroke="#c0c1be" stroke-miterlimit="10" stroke-width="1"/></g><path d="M2.891,0V-28.437h9.746q4.824,0,7.344,1.934a6.81,6.81,0,0,1,2.52,5.762,6.141,6.141,0,0,1-1.055,3.516A6.789,6.789,0,0,1,18.359-14.8a6.277,6.277,0,0,1,3.564,2.354,6.855,6.855,0,0,1,1.26,4.15,7.571,7.571,0,0,1-2.568,6.152Q18.047,0,13.262,0ZM7.832-12.832v8.887H13.32A5.311,5.311,0,0,0,16.953-5.1a4.045,4.045,0,0,0,1.309-3.2q0-4.434-4.531-4.531Zm0-3.633h4.844a5.6,5.6,0,0,0,3.6-1.045,3.58,3.58,0,0,0,1.3-2.959,3.629,3.629,0,0,0-1.2-3.047,6.066,6.066,0,0,0-3.74-.937h-4.8ZM36.973.391a9.819,9.819,0,0,1-7.314-2.842,10.309,10.309,0,0,1-2.8-7.568v-.586a12.681,12.681,0,0,1,1.221-5.654A9.291,9.291,0,0,1,31.5-20.137a9.062,9.062,0,0,1,4.922-1.387A8.3,8.3,0,0,1,43.1-18.77q2.354,2.754,2.354,7.793v1.914H31.641a6.346,6.346,0,0,0,1.748,4.141A5.248,5.248,0,0,0,37.246-3.4a6.427,6.427,0,0,0,5.313-2.637l2.559,2.441A8.544,8.544,0,0,1,41.729-.654,10.609,10.609,0,0,1,36.973.391Zm-.566-18.105a4,4,0,0,0-3.154,1.367,7.086,7.086,0,0,0-1.533,3.809h9.043v-.352a5.769,5.769,0,0,0-1.27-3.6A3.966,3.966,0,0,0,36.406-17.715Zm17.129-3.418.137,2.441a7.6,7.6,0,0,1,6.152-2.832q6.6,0,6.719,7.559V0H61.8V-13.691a4.352,4.352,0,0,0-.869-2.979,3.656,3.656,0,0,0-2.842-.967,4.573,4.573,0,0,0-4.277,2.6V0H49.063V-21.133ZM80.684.391a9.819,9.819,0,0,1-7.314-2.842,10.309,10.309,0,0,1-2.8-7.568v-.586a12.681,12.681,0,0,1,1.221-5.654,9.291,9.291,0,0,1,3.428-3.877,9.062,9.062,0,0,1,4.922-1.387,8.3,8.3,0,0,1,6.67,2.754q2.354,2.754,2.354,7.793v1.914H75.352A6.346,6.346,0,0,0,77.1-4.922,5.248,5.248,0,0,0,80.957-3.4,6.427,6.427,0,0,0,86.27-6.035l2.559,2.441A8.544,8.544,0,0,1,85.439-.654,10.609,10.609,0,0,1,80.684.391Zm-.566-18.105a4,4,0,0,0-3.154,1.367,7.086,7.086,0,0,0-1.533,3.809h9.043v-.352a5.769,5.769,0,0,0-1.27-3.6A3.966,3.966,0,0,0,80.117-17.715ZM94.1,0V-17.617H90.879v-3.516H94.1v-1.445a8.455,8.455,0,0,1,1.055-4.258,6.561,6.561,0,0,1,2.93-2.676,10.545,10.545,0,0,1,4.551-.9,13.265,13.265,0,0,1,3,.332q1.436.332,2.979.84l-.723,3.926a15.108,15.108,0,0,0-4.922-.937,4.4,4.4,0,0,0-3.145.947,3.789,3.789,0,0,0-.977,2.842v1.328h4.16v3.516h-4.16V0Zm16.758,0h-4.746V-21.133h4.746ZM122.07-26.27v5.137h3.73v3.516h-3.73v11.8a2.6,2.6,0,0,0,.479,1.748,2.219,2.219,0,0,0,1.709.537,7.311,7.311,0,0,0,1.66-.2V-.059a11.689,11.689,0,0,1-3.125.449q-5.469,0-5.469-6.035V-17.617h-3.477v-3.516h3.477V-26.27Zm19.2,20.527a2.152,2.152,0,0,0-1.045-1.934,11.113,11.113,0,0,0-3.467-1.172,17.822,17.822,0,0,1-4.043-1.289q-3.555-1.719-3.555-4.98a5.625,5.625,0,0,1,2.3-4.57,9.111,9.111,0,0,1,5.859-1.836,9.48,9.48,0,0,1,6.123,1.875,5.95,5.95,0,0,1,2.334,4.863h-4.746a2.925,2.925,0,0,0-1.016-2.275,3.892,3.892,0,0,0-2.7-.908,4.206,4.206,0,0,0-2.549.723,2.278,2.278,0,0,0-.986,1.934,1.924,1.924,0,0,0,.918,1.7,12.623,12.623,0,0,0,3.711,1.221,17.566,17.566,0,0,1,4.385,1.465,6.209,6.209,0,0,1,2.363,2.041A5.2,5.2,0,0,1,145.938-6a5.506,5.506,0,0,1-2.363,4.619A10.077,10.077,0,0,1,137.383.391a10.927,10.927,0,0,1-4.629-.937,7.618,7.618,0,0,1-3.164-2.578,6.1,6.1,0,0,1-1.133-3.535h4.609a3.344,3.344,0,0,0,1.27,2.588,4.933,4.933,0,0,0,3.105.908,4.8,4.8,0,0,0,2.852-.713A2.207,2.207,0,0,0,141.27-5.742Z" transform="translate(887.954 1609)"/></g></svg>