<svg xmlns="http://www.w3.org/2000/svg" xmlns:xlink="http://www.w3.org/1999/xlink" width="321.105" height="166.4" viewBox="0 0 321.105 166.4"><defs><filter id="a" x="0" y="0" width="294.482" height="166.4" filterUnits="userSpaceOnUse"><feOffset dx="2" dy="2" input="SourceAlpha"/><feGaussianBlur stdDeviation="7.5" result="b"/><feFlood flood-opacity="0.149"/><feComposite operator="in" in2="b"/><feComposite in="SourceGraphic"/></filter><linearGradient id="c" x1="0.5" x2="0.5" y2="1" gradientUnits="objectBoundingBox"><stop offset="0" stop-color="#e63289"/><stop offset="1" stop-color="#a81c4d"/></linearGradient><linearGradient id="d" x1="0.5" y1="1" x2="0.5" gradientUnits="objectBoundingBox"><stop offset="0" stop-color="#d82871"/><stop offset="1" stop-color="#f8388b"/></linearGradient></defs><g transform="translate(-1128.5 -1291.5)"><g transform="matrix(1, 0, 0, 1, 1128.5, 1291.5)" filter="url(#a)"><path d="M316.283,200.563H143.8a16.739,16.739,0,0,1-14.5-8.393L104,148.255a16.824,16.824,0,0,1,0-16.785L129.3,87.556a16.739,16.739,0,0,1,14.5-8.393H316.283l34.959,60.7Z" transform="translate(-81.26 -58.66)" fill="#fff"/></g><path d="M2580.107,1374.821l-35.061,60.551h44.227a15.919,15.919,0,0,0,9.169-2.828,18.588,18.588,0,0,0,6.685-8.1l24.025-41.64a16.625,16.625,0,0,0,1.5-3.688,21.948,21.948,0,0,0,.575-4.293Z" transform="translate(-1181.625 -2)" fill="url(#c)"/><path d="M2580.107,1435.821l-35.061-60.989h44.227a15.831,15.831,0,0,1,9.169,2.849,18.707,18.707,0,0,1,6.685,8.161l24.025,41.941a16.81,16.81,0,0,1,1.5,3.714,22.258,22.258,0,0,1,.575,4.324Z" transform="translate(-1181.625 -62.821)" fill="url(#d)"/></g></svg>