<svg xmlns="http://www.w3.org/2000/svg" viewBox="0 0 53.35 53.35"><defs><style>.cls-1{fill:#573e7d;}.cls-2{fill:#fff;}</style></defs><g id="Layer_2" data-name="Layer 2"><g id="Layer_1-2" data-name="Layer 1"><path class="cls-1" d="M0,46.47a6.88,6.88,0,0,0,6.88,6.88H46.47a6.88,6.88,0,0,0,6.88-6.88V6.88A6.88,6.88,0,0,0,46.47,0H6.88A6.88,6.88,0,0,0,0,6.88Z"/><path class="cls-2" d="M22.12,23.6V16h6.65a10.83,10.83,0,0,1,1.83.16,4.46,4.46,0,0,1,1.56.57,2.89,2.89,0,0,1,1.09,1.13,3.75,3.75,0,0,1,.41,1.85,3.42,3.42,0,0,1-1.22,2.94,5.09,5.09,0,0,1-3.13.91ZM15,10.52v32.3H30.67a16.57,16.57,0,0,0,4.23-.54,11.49,11.49,0,0,0,3.67-1.67,8.27,8.27,0,0,0,2.55-2.92,8.92,8.92,0,0,0,1-4.23,9,9,0,0,0-1.47-5.18,7.75,7.75,0,0,0-4.45-3,8,8,0,0,0,3.27-2.67,7,7,0,0,0,1.11-4.07,8.78,8.78,0,0,0-.74-3.8,6.16,6.16,0,0,0-2.11-2.46,9,9,0,0,0-3.25-1.34,20.24,20.24,0,0,0-4.21-.41Zm7.1,26.78V28.44h7.74a6,6,0,0,1,3.71,1.06A4.19,4.19,0,0,1,35,33.05a4.37,4.37,0,0,1-.43,2.08,3.36,3.36,0,0,1-1.15,1.29,4.94,4.94,0,0,1-1.68.68,9.14,9.14,0,0,1-2,.2Z"/></g></g></svg>