<svg version="1.2" xmlns="http://www.w3.org/2000/svg" viewBox="0 0 900 900" width="650" height="650"><defs><clipPath clipPathUnits="userSpaceOnUse" id="cp1"><path d="m223.86 604.26l-10.59-6.15c-4.1-2.38-6.63-7.44-6.65-14.62l10.58 6.15c0.02 7.18 2.56 12.24 6.66 14.62z"/></clipPath><clipPath clipPathUnits="userSpaceOnUse" id="cp2"><path d="m216.6 375.4l-10.59-6.15c-0.04-14.48 10.12-32.08 22.7-39.35l10.59 6.16c-12.58 7.26-22.74 24.87-22.7 39.34z"/></clipPath><clipPath clipPathUnits="userSpaceOnUse" id="cp3"><path d="m783.81 546.96l-0.04 12.25c-0.01 4.72-3.12 9.45-9.32 13.05l0.03-12.24c6.21-3.61 9.31-8.33 9.33-13.06z"/></clipPath><clipPath clipPathUnits="userSpaceOnUse" id="cp4"><path d="m228.37 628.44l0.04-12.24c-0.02 4.79 3.15 9.59 9.49 13.25l-0.04 12.24c-6.34-3.66-9.5-8.46-9.49-13.25z"/></clipPath><clipPath clipPathUnits="userSpaceOnUse" id="cp5"><path d="m469.78 737.09l-0.03 12.25c-12.52 7.27-32.86 7.26-45.44 0l0.03-12.25c12.58 7.26 32.93 7.27 45.44 0z"/></clipPath><clipPath clipPathUnits="userSpaceOnUse" id="cp6"><path d="m587.21 337.49l35.81 20.81c-11.96-6.94-28.52-5.97-46.79 4.59q-5.86 3.38-11.43 7.74l-35.81-20.81q5.57-4.36 11.43-7.75c18.28-10.55 34.83-11.53 46.79-4.58z"/></clipPath><clipPath clipPathUnits="userSpaceOnUse" id="cp7"><path d="m503.26 312.53l35.81 20.81c-17.93-10.42-42.76-8.95-70.16 6.87l-35.81-20.81c27.4-15.82 52.23-17.29 70.16-6.87z"/></clipPath><clipPath clipPathUnits="userSpaceOnUse" id="cp8"><path d="m373.51 481.07l-35.81-20.81c10.61-55.4 49.25-114.22 95.4-140.86l35.81 20.81c-46.15 26.64-84.8 85.46-95.4 140.86z"/></clipPath><clipPath clipPathUnits="userSpaceOnUse" id="cp9"><path d="m315.71 642.22l-35.81-20.81c-11.8-6.86-19.12-21.44-19.18-42.17-0.12-41.73 29.23-92.55 65.54-113.52q5.86-3.37 11.44-5.46l35.81 20.81q-5.58 2.09-11.44 5.46c-36.31 20.97-65.66 71.79-65.54 113.52 0.06 20.73 7.38 35.31 19.18 42.17z"/></clipPath><clipPath clipPathUnits="userSpaceOnUse" id="cp10"><path d="m491.56 586.1l2.67 1.55q-0.29-0.16-0.72 0.08l-2.67-1.55q0.43-0.24 0.72-0.08z"/></clipPath><clipPath clipPathUnits="userSpaceOnUse" id="cp11"><path d="m491.56 586.1l2.67 1.55q-0.29-0.16-0.72 0.08l-2.67-1.55q0.43-0.24 0.72-0.08z"/></clipPath><clipPath clipPathUnits="userSpaceOnUse" id="cp12"><path d="m491.56 586.1l2.67 1.55q-0.29-0.16-0.72 0.08l-2.67-1.55q0.43-0.24 0.72-0.08z"/></clipPath><clipPath clipPathUnits="userSpaceOnUse" id="cp13"><path d="m458.83 609.05l-2.67-1.55c0-0.65 0.45-1.44 1.02-1.76l2.67 1.55c-0.57 0.32-1.02 1.11-1.02 1.76z"/></clipPath><clipPath clipPathUnits="userSpaceOnUse" id="cp14"><path d="m458.83 609.05l-2.67-1.55c0-0.65 0.45-1.44 1.02-1.76l2.67 1.55c-0.57 0.32-1.02 1.11-1.02 1.76z"/></clipPath><clipPath clipPathUnits="userSpaceOnUse" id="cp15"><path d="m458.83 609.05l-2.67-1.55c0-0.65 0.45-1.44 1.02-1.76l2.67 1.55c-0.57 0.32-1.02 1.11-1.02 1.76z"/></clipPath><clipPath clipPathUnits="userSpaceOnUse" id="cp16"><path d="m319.68 576.77l-1.33-0.77c0.01 1.18-0.82 2.61-1.85 3.21l1.33 0.77c1.02-0.6 1.85-2.04 1.85-3.21z"/></clipPath><clipPath clipPathUnits="userSpaceOnUse" id="cp17"><path d="m319.13 574.71l-1.32-0.77c0.33 0.19 0.54 0.61 0.54 1.19l1.33 0.77c-0.01-0.58-0.21-1-0.55-1.19z"/></clipPath><clipPath clipPathUnits="userSpaceOnUse" id="cp18"><path d="m319.32 574.38l-1.32-0.76c-0.39-0.23-0.92-0.2-1.51 0.14l1.32 0.77c0.59-0.34 1.12-0.37 1.51-0.15z"/></clipPath><clipPath clipPathUnits="userSpaceOnUse" id="cp19"><path d="m319.12 575.06v-0.4q0 0.16-0.21 0.29v0.4q0.21-0.13 0.21-0.29z"/></clipPath><clipPath clipPathUnits="userSpaceOnUse" id="cp20"><path d="m314.13 575.16v0.4q0 0.17 0.21 0.29v-0.4q-0.21-0.12-0.21-0.29z"/></clipPath><clipPath clipPathUnits="userSpaceOnUse" id="cp21"><path d="m315.68 576.23v0.4c0.28 0.16 0.73 0.16 1.01 0v-0.4c-0.28 0.16-0.73 0.16-1.01 0z"/></clipPath><clipPath clipPathUnits="userSpaceOnUse" id="cp22"><path d="m314.23 580.1l1.32 0.77c-0.38-0.22-0.62-0.69-0.62-1.36l-1.32-0.77c0 0.67 0.23 1.14 0.62 1.36z"/></clipPath><clipPath clipPathUnits="userSpaceOnUse" id="cp23"><path d="m315.67 576.35l-1.32-0.77c-0.48 0.74-0.75 1.58-0.75 2.29l1.32 0.77c0-0.71 0.28-1.55 0.75-2.29z"/></clipPath></defs><style>.a{opacity:0;fill:#7f7f7f}.b{opacity:.17;fill:#929394}.c{opacity:.33;fill:#a4a7a9}.d{opacity:.5;fill:#b7bbbf}.e{opacity:.67;fill:#caced4}.f{opacity:.83;fill:#dce2e9}.g{fill:#eff6fe}.h{fill:#37404a}.i{fill:#242a31}.j{fill:#10191b}.k{fill:#15d9fd}.l{fill:#98a4e0}.m{fill:#ecf5fe}.n{fill:#becef9}.o{fill:#cddcfb}.p{fill:#e6f1fe}.q{opacity:.09;fill:#898a8b}.r{opacity:.18;fill:#939596}.s{opacity:.27;fill:#9e9fa2}.t{opacity:.36;fill:#a8aaad}.u{opacity:.45;fill:#b2b5b9}.v{opacity:.55;fill:#bcc0c4}.w{opacity:.64;fill:#c6cbd0}.x{opacity:.73;fill:#d0d6db}.y{opacity:.82;fill:#dbe0e7}.z{opacity:.91;fill:#e5ebf2}.A{fill:#50cef5}.B{fill:#ffbfa2}.C{fill:#1499fc}.D{fill:#13b7fd}.E{fill:#f3a984}.F{fill:#283032}.G{fill:#ee9c76}.H{fill:#f5a783}.I{fill:#fff}.J{fill:#f8b495}.K{fill:#c6d5fa}.L{fill:#0d1315}.M{fill:#b93b0a}.N{fill:#f86c35}.O{fill:#ec5b22}.P{fill:#dedede}.Q{fill:#f1f1f1}.R{opacity:.4;fill:#f1f1f1}.S{opacity:.1;mix-blend-mode:screen;fill:#f6f0ed}.T{opacity:.5;mix-blend-mode:screen;fill:#d4f2f8}.U{opacity:.2;fill:#fff}.V{opacity:.3;fill:#eff6fe}.W{opacity:.5;fill:#eff6fe}.X{opacity:.1;fill:#eff6fe}</style><g style="mix-blend-mode:overlay"><path class="a" d="m478.4 209.7c0 125.9-88.3 278.9-197.3 341.8-109 62.9-197.3 11.9-197.3-113.9 0-125.9 88.3-278.9 197.3-341.8 109-62.9 197.3-11.9 197.3 113.9z"/><path class="b" d="m446.3 228.3c0 105.3-73.9 233.5-165.2 286.2-91.3 52.6-165.2 9.9-165.2-95.4 0-105.4 73.9-233.6 165.2-286.2 91.2-52.7 165.2-10 165.2 95.4z"/><path class="c" d="m414.2 246.8c0 84.9-59.6 188.2-133.1 230.6-73.5 42.5-133.2 8-133.2-76.9 0-84.9 59.7-188.1 133.2-230.6 73.5-42.5 133.1-8 133.1 76.9z"/><path class="d" d="m382.2 265.3c0 64.5-45.3 142.8-101.1 175.1-55.8 32.2-101.1 6.1-101.1-58.4 0-64.4 45.3-142.8 101.1-175 55.8-32.3 101.1-6.1 101.1 58.3z"/><path class="e" d="m350.1 283.8c0 44-30.9 97.5-69 119.5-38.1 22-69 4.2-69-39.8 0-44 30.9-97.5 69-119.5 38.1-22 69-4.2 69 39.8z"/><path class="f" d="m318 302.4c0 23.5-16.5 52.1-36.9 63.9-20.4 11.7-36.9 2.2-36.9-21.3 0-23.6 16.5-52.2 36.9-64 20.4-11.7 36.9-2.2 36.9 21.4z"/><path class="g" d="m285.9 320.9c0 3-2.1 6.8-4.8 8.3-2.7 1.6-4.8 0.3-4.8-2.8 0-3 2.1-6.8 4.8-8.3 2.7-1.5 4.8-0.3 4.8 2.8z"/></g><g style="mix-blend-mode:overlay"><path class="a" d="m714.6 522.9c122.1 70.5 122.1 184.8 0 255.4-122.2 70.5-320.2 70.5-442.3 0-122.2-70.6-122.2-184.9 0-255.4 122.1-70.5 320.1-70.5 442.3 0z"/><path class="b" d="m683.7 547.4c105.1 60.7 105.1 159.1 0 219.7-105.1 60.7-275.5 60.7-380.6 0-105.1-60.6-105.1-159 0-219.7 105.1-60.7 275.5-60.7 380.6 0z"/><path class="c" d="m652.9 571.9c88.1 50.8 88.1 133.3 0 184.1-88.1 50.9-230.9 50.9-319 0-88-50.8-88-133.3 0-184.1 88.1-50.9 230.9-50.9 319 0z"/><path class="d" d="m622 596.4c71.1 41 71.1 107.5 0 148.5-71 41-186.2 41-257.2 0-71.1-41-71.1-107.5 0-148.5 71-41.1 186.2-41.1 257.2 0z"/><path class="e" d="m591.2 620.9c54 31.1 54 81.7 0 112.9-54 31.2-141.6 31.2-195.6 0-54-31.2-54-81.8 0-112.9 54-31.2 141.6-31.2 195.6 0z"/><path class="f" d="m560.4 645.4c37 21.3 37 55.9 0 77.3-37 21.3-97 21.3-134 0-36.9-21.4-36.9-56 0-77.3 37-21.4 97-21.4 134 0z"/><path class="g" d="m529.5 669.8c20 11.6 20 30.3 0 41.8-19.9 11.5-52.3 11.5-72.2 0-20-11.5-20-30.2 0-41.8 19.9-11.5 52.3-11.5 72.2 0z"/></g><path class="h" d="m223.9 604.3l-10.6-6.2c-4.1-2.4-6.7-7.4-6.7-14.6l10.6 6.1c0 7.2 2.6 12.3 6.7 14.7z"/><g clip-path="url(#cp1)"><path class="h" d="m223.9 604.3l-10.6-6.2c-4.1-2.4-6.7-7.4-6.7-14.6l10.6 6.1c0 7.2 2.6 12.3 6.7 14.7z"/></g><path class="h" d="m217.2 589.6l-10.6-6.1-0.6-214.3 10.6 6.2z"/><path class="h" d="m239.3 336.1l-10.6-6.2 306.7-177.1 10.6 6.2z"/><path class="h" d="m216.6 375.4l-10.6-6.2c0-14.4 10.1-32 22.7-39.3l10.6 6.2c-12.6 7.2-22.7 24.8-22.7 39.3z"/><g clip-path="url(#cp2)"><path class="h" d="m216.6 375.4l-10.6-6.2c0-5.5 1.5-11.5 4-17.2l10.6 6.1c-2.5 5.7-4 11.8-4 17.3z"/><path class="h" d="m220.6 358.1l-10.6-6.1c2-4.5 4.6-8.7 7.7-12.5l10.6 6.2c-3.1 3.7-5.7 8-7.7 12.4z"/><path class="h" d="m228.3 345.7l-10.6-6.2c3.2-3.9 7-7.3 11-9.6l10.6 6.2c-4 2.3-7.8 5.6-11 9.6z"/></g><path class="i" d="m546 159c12.6-7.3 22.8-1.5 22.9 13l0.6 214.3c0 14.4-10.2 32-22.7 39.3l-306.7 177.1c-12.6 7.2-22.9 1.4-22.9-13.1l-0.6-214.2c0-14.5 10.1-32.1 22.7-39.3z"/><path class="j" d="m557 386.3c0 9.9-7.9 23.5-16.5 28.5l-306.7 177c-1.8 1-2.9 1.3-3.5 1.4-0.3-0.5-0.6-1.7-0.6-3.6v-2l-0.6-212.2c0-10 7.8-23.5 16.5-28.5l303.8-175.4 2.9-1.7c1.7-1 2.9-1.3 3.5-1.4 0.2 0.6 0.5 1.7 0.6 3.6z"/><path class="k" d="m550 383.7c0 10-7.8 23.5-16.5 28.5l-303.8 175.4-0.6-212.2c0-10 7.8-23.5 16.5-28.5l303.8-175.4z"/><g style="mix-blend-mode:screen"><path class="i" d="m304.1 313.1l-74.8 120.5 0.1 45.6 133.1-199.8z"/></g><g style="mix-blend-mode:screen"><path class="i" d="m229.6 535.9l0.1 51.7 16.4-9.4 263.9-384-88.4 51.1z"/></g><path class="h" d="m551.6 151.2l10.6 6.2c-4.1-2.4-9.9-2.1-16.2 1.6l-10.6-6.2c6.3-3.6 12.1-4 16.2-1.6z"/><path class="l" d="m783.8 547v12.2c0 4.7-3.1 9.5-9.4 13.1l0.1-12.3c6.2-3.6 9.3-8.3 9.3-13z"/><g clip-path="url(#cp3)"><path class="l" d="m783.8 547v12.2q0 2.2-0.9 4.4v-12.3q0.9-2.1 0.9-4.3z"/><path class="l" d="m782.9 551.3v12.3c-1.4 3.2-4.2 6.2-8.5 8.7l0.1-12.3c4.3-2.5 7.1-5.5 8.4-8.7z"/></g><path class="l" d="m228.4 628.4v-12.2c0 4.8 3.2 9.6 9.5 13.2v12.3c-6.4-3.7-9.5-8.5-9.5-13.3z"/><g clip-path="url(#cp4)"><path class="l" d="m237.9 629.4v12.3c-6.4-3.7-9.5-8.5-9.5-13.3v-12.2c0 4.8 3.2 9.6 9.5 13.2z"/></g><path class="l" d="m774.5 560l-0.1 12.3-304.7 177 0.1-12.2z"/><path class="l" d="m424.3 737.1v12.2l-186.4-107.6v-12.3z"/><path class="l" d="m469.8 737.1l-0.1 12.2c-12.5 7.3-32.8 7.3-45.4 0v-12.2c12.6 7.3 33 7.3 45.5 0z"/><g clip-path="url(#cp5)"><path class="l" d="m469.8 737.1l-0.1 12.2c-6.4 3.8-14.8 5.6-23.2 5.5v-12.3c8.4 0.1 16.9-1.7 23.3-5.4z"/><path class="l" d="m446.5 742.5v12.3c-8.1-0.1-16.1-1.9-22.2-5.5v-12.2c6.2 3.5 14.2 5.4 22.2 5.4z"/></g><path class="m" d="m774.3 533.7c12.6 7.3 12.7 19.1 0.2 26.3l-304.7 177.1c-12.5 7.3-32.9 7.3-45.5 0l-186.4-107.7c-12.6-7.2-12.7-19-0.2-26.3l304.8-177c12.4-7.3 32.8-7.3 45.4 0z"/><path class="l" d="m711.9 518.5c-0.6 3.2-3 6.3-7.2 8.7l-289.8 168.2c-9.9 5.8-26 5.8-36 0l-124.4-71.7c-3.9-2.3-6.3-5.1-7.2-8-1.3-4.5 1-9.4 7.1-12.9l289.7-168.2c9.9-5.7 26-5.7 36 0l124.4 71.8c5.7 3.3 8.2 7.8 7.4 12.1z"/><path class="n" d="m711.9 518.5c-0.6 3.2-3 6.3-7.2 8.7l-289.8 168.2c-9.9 5.8-26 5.8-36 0l-124.4-71.7c-3.9-2.3-6.3-5.1-7.2-8 0.7-3.2 3.1-6.3 7.3-8.7l289.7-168.2c9.9-5.8 26-5.8 36 0l124.4 71.7c3.9 2.3 6.3 5.1 7.2 8z"/><path class="i" d="m581.2 449.8v2l-18.4 10.7v-2z"/><path class="i" d="m562.8 460.5v2l-18.5-10.7v-2z"/><path class="i" d="m558.1 463.2v2l-18.4 10.7v-2z"/><path class="i" d="m539.7 473.9v2l-18.5-10.7v-2z"/><path class="i" d="m535 476.6v2.1l-18.4 10.7v-2.1z"/><path class="i" d="m516.6 487.3v2.1l-18.5-10.7v-2.1z"/><path class="i" d="m511.9 490.1v2l-18.4 10.7v-2.1z"/><path class="i" d="m493.5 500.7v2.1l-18.5-10.7v-2z"/><path class="i" d="m488.8 503.5l-0.1 2-18.3 10.7v-2z"/><path class="i" d="m470.4 514.2v2l-18.6-10.7 0.1-2z"/><path class="i" d="m465.6 516.9v2.1l-18.4 10.6v-2z"/><path class="i" d="m447.2 527.6v2l-18.5-10.6v-2.1z"/><path class="i" d="m442.5 530.3v2.1l-18.4 10.7v-2.1z"/><path class="i" d="m424.1 541v2.1l-18.5-10.7v-2.1z"/><path class="i" d="m419.4 543.8v2l-18.4 10.7v-2z"/><path class="i" d="m401 554.5v2l-18.5-10.7v-2z"/><path class="i" d="m396.3 557.2v2l-18.4 10.7v-2z"/><path class="i" d="m377.9 567.9v2l-18.5-10.7v-2z"/><path class="i" d="m373.2 570.6v2.1l-18.4 10.7v-2.1z"/><path class="i" d="m354.8 581.3v2.1l-18.5-10.7v-2.1z"/><path class="i" d="m350.1 584.1v2l-18.4 10.7v-2.1z"/><path class="i" d="m331.7 594.7v2.1l-18.5-10.7v-2z"/><path class="i" d="m327 597.5v2l-18.4 10.7v-2z"/><path class="i" d="m308.6 608.2v2l-18.5-10.7v-2z"/><path class="i" d="m303.9 610.9v2.1l-18.4 10.7v-2.1z"/><path class="i" d="m285.5 621.6v2.1l-18.5-10.7v-2.1z"/><path class="i" d="m603.3 463.7v2.1l-37.5 21.7v-2z"/><path class="i" d="m565.8 485.5v2l-18.5-10.7v-2z"/><path class="i" d="m561.7 487.9v2l-18.4 10.7v-2z"/><path class="i" d="m543.3 498.6v2l-18.6-10.6 0.1-2.1z"/><path class="i" d="m539.6 500.7v2.1l-18.4 10.7v-2.1z"/><path class="i" d="m521.2 511.4v2.1l-18.5-10.7v-2.1z"/><path class="i" d="m517.6 513.5v2.1l-18.4 10.7v-2.1z"/><path class="i" d="m499.2 524.2v2.1l-18.5-10.7v-2.1z"/><path class="i" d="m495.5 526.3v2.1l-18.4 10.7v-2.1z"/><path class="i" d="m477.1 537v2.1l-18.5-10.7v-2.1z"/><path class="i" d="m473.5 539.2v2l-18.4 10.7v-2.1z"/><path class="i" d="m455.1 549.8v2.1l-18.5-10.7v-2z"/><path class="i" d="m451.4 552v2l-18.4 10.7 0.1-2.1z"/><path class="i" d="m433.1 562.6l-0.1 2.1-18.5-10.7v-2z"/><path class="i" d="m429.4 564.8v2l-18.4 10.7v-2z"/><path class="i" d="m411 575.5v2l-18.5-10.7v-2z"/><path class="i" d="m407.4 577.6v2l-18.5 10.7 0.1-2z"/><path class="i" d="m389 588.3l-0.1 2-18.5-10.7v-2z"/><path class="i" d="m385.3 590.4v2l-18.4 10.7v-2z"/><path class="i" d="m366.9 601.1v2l-18.5-10.7v-2z"/><path class="i" d="m363.3 603.2v2l-18.4 10.7v-2z"/><path class="i" d="m344.9 613.9v2l-18.5-10.6v-2.1z"/><path class="i" d="m341 616.1v2.1l-32.5 18.9v-2.1z"/><path class="i" d="m308.5 635v2.1l-18.5-10.7v-2.1z"/><path class="i" d="m626.4 477.1v2l-46.6 27.1v-2z"/><path class="i" d="m579.8 504.2v2l-18.5-10.7v-2z"/><path class="i" d="m575.6 506.6v2.1l-18.4 10.6v-2z"/><path class="i" d="m557.2 517.3v2l-18.5-10.6v-2.1z"/><path class="i" d="m553.9 519.2v2.1l-18.4 10.7v-2.1z"/><path class="i" d="m535.5 529.9v2.1l-18.5-10.7v-2.1z"/><path class="i" d="m532.2 531.9l-0.1 2-18.3 10.7v-2z"/><path class="i" d="m513.8 542.6v2l-18.6-10.7v-2z"/><path class="i" d="m510.4 544.5v2l-18.4 10.7v-2z"/><path class="i" d="m492 555.2v2l-18.5-10.7v-2z"/><path class="i" d="m488.7 557.1v2.1l-18.4 10.6v-2z"/><path class="i" d="m470.3 567.8v2l-18.5-10.6v-2.1z"/><path class="i" d="m467 569.7v2.1l-18.4 10.7v-2.1z"/><path class="i" d="m448.6 580.4v2.1l-18.5-10.7v-2.1z"/><path class="i" d="m445.3 582.4l-0.1 2-18.3 10.7v-2z"/><path class="i" d="m426.9 593.1v2l-18.6-10.7v-2z"/><path class="i" d="m423.5 595v2l-18.4 10.7v-2z"/><path class="i" d="m405.1 605.7v2l-18.5-10.7v-2z"/><path class="i" d="m401.8 607.6v2.1l-18.4 10.7v-2.1z"/><path class="i" d="m383.4 618.3v2.1l-18.5-10.7v-2.1z"/><path class="i" d="m378.6 621.1v2.1l-46.9 27.2v-2z"/><path class="i" d="m331.7 648.4v2l-18.6-10.7v-2z"/><path class="i" d="m625.9 503.8v2l-10.6 6.2v-2.1z"/><path class="i" d="m615.3 509.9v2.1l-18.2-10.5 0.1-2.1z"/><path class="i" d="m649.4 517.3v2.1l-23.5-13.6v-2z"/><path class="i" d="m672.7 503.8v2l-23.3 13.6v-2.1z"/><path class="i" d="m593.1 523.3v2l-18.6-10.7v-2z"/><path class="i" d="m611.5 512.6l-0.1 2-18.3 10.7v-2z"/><path class="i" d="m626.3 530.7v2.1l-18.5-10.7v-2.1z"/><path class="i" d="m644.7 520v2.1l-18.4 10.7v-2.1z"/><path class="i" d="m696.6 517.6v2.1l-46.6 27.1v-2.1z"/><path class="i" d="m650 544.7v2.1l-18.5-10.7v-2.1z"/><path class="i" d="m589.5 525.3v2.1l-18.4 10.7v-2.1z"/><path class="i" d="m571.1 536v2.1l-18.5-10.7v-2.1z"/><path class="i" d="m567.6 538.1v2l-18.4 10.7v-2z"/><path class="i" d="m549.2 548.8v2l-18.5-10.7v-2z"/><path class="i" d="m545.7 550.8v2.1l-18.4 10.7v-2.1z"/><path class="i" d="m527.3 561.5v2.1l-18.6-10.7v-2.1z"/><path class="i" d="m523.7 563.6v2l-18.4 10.7v-2z"/><path class="i" d="m505.3 574.3v2l-18.5-10.7v-2z"/><path class="i" d="m501.8 576.3v2l-18.4 10.7v-2z"/><path class="i" d="m483.4 587v2l-18.5-10.7v-2z"/><path class="i" d="m479.9 589.1l-0.1 2-18.3 10.7v-2.1z"/><path class="i" d="m461.5 599.7v2.1l-18.6-10.7v-2z"/><path class="i" d="m457.9 601.8v2l-18.4 10.7v-2z"/><path class="i" d="m439.5 612.5v2l-18.5-10.7v-2z"/><path class="i" d="m436 614.6v2l-18.4 10.7v-2.1z"/><path class="i" d="m417.6 625.2v2.1l-18.5-10.7v-2z"/><path class="i" d="m414.1 627.3v2l-18.5 10.7 0.1-2z"/><path class="i" d="m395.7 638l-0.1 2-18.5-10.7v-2z"/><path class="i" d="m391.1 640.6v2.1l-36.3 21.1v-2.1z"/><path class="i" d="m354.8 661.7v2.1l-18.5-10.7v-2.1z"/><path class="i" d="m622.8 532.8v2l-18.4 10.7v-2z"/><path class="i" d="m604.4 543.5v2l-18.5-10.7v-2z"/><path class="i" d="m600.9 545.5v2.1l-18.4 10.7v-2.1z"/><path class="i" d="m582.5 556.2v2.1l-18.6-10.7 0.1-2.1z"/><path class="i" d="m578.9 558.3v2l-18.4 10.7v-2z"/><path class="i" d="m560.5 569v2l-18.5-10.7v-2z"/><path class="i" d="m557 571v2.1l-18.4 10.7v-2.1z"/><path class="i" d="m538.6 581.7v2.1l-18.5-10.7v-2.1z"/><path class="i" d="m535.1 583.8v2l-18.4 10.7v-2z"/><path class="i" d="m516.7 594.5v2l-18.6-10.7v-2z"/><path class="i" d="m513.1 596.5v2l-18.4 10.7v-2z"/><path class="i" d="m494.7 607.2v2l-18.5-10.6v-2.1z"/><path class="i" d="m491.2 609.3v2l-18.4 10.7v-2.1z"/><path class="i" d="m472.8 619.9v2.1l-18.5-10.7v-2z"/><path class="i" d="m469.3 622v2l-18.4 10.7v-2z"/><path class="i" d="m450.9 632.7v2l-18.6-10.7 0.1-2z"/><path class="i" d="m447.3 634.8v2l-18.4 10.7v-2.1z"/><path class="i" d="m428.9 645.4v2.1l-18.5-10.7v-2.1z"/><path class="i" d="m424.8 647.8v2.1l-46.9 27.2v-2z"/><path class="i" d="m377.9 675.1v2l-18.5-10.7v-2z"/><path class="i" d="m645.8 547.2v2l-18.4 10.7v-2.1z"/><path class="i" d="m627.4 557.8v2.1l-18.5-10.7v-2z"/><path class="i" d="m624 559.8v2l-18.4 10.7v-2z"/><path class="i" d="m605.6 570.5v2l-18.5-10.7v-2z"/><path class="i" d="m602.3 572.5v2l-18.4 10.7v-2.1z"/><path class="i" d="m583.9 583.1v2.1l-18.6-10.7v-2.1z"/><path class="i" d="m580.5 585.1v2l-18.4 10.7v-2z"/><path class="i" d="m562.1 595.8v2l-18.5-10.7v-2z"/><path class="i" d="m558.8 597.7v2l-83.5 48.6v-2.1z"/><path class="i" d="m475.3 646.2v2.1l-18.5-10.7v-2.1z"/><path class="i" d="m471 648.8v2l-18.5 10.7 0.1-2z"/><path class="i" d="m452.6 659.5l-0.1 2-18.5-10.7v-2z"/><path class="i" d="m448.8 661.7v2l-46.9 27.3v-2.1z"/><path class="i" d="m401.9 688.9v2.1l-18.6-10.7v-2.1z"/><path class="h" d="m581.2 449.8l-18.4 10.7-18.5-10.7 18.4-10.7z"/><path class="h" d="m558.1 463.2l-18.4 10.7-18.5-10.7 18.4-10.7z"/><path class="h" d="m535 476.6l-18.4 10.7-18.5-10.7 18.4-10.7z"/><path class="h" d="m511.9 490.1l-18.4 10.6-18.5-10.6 18.4-10.7z"/><path class="h" d="m488.8 503.5l-18.4 10.7-18.5-10.7 18.3-10.7z"/><path class="h" d="m465.6 516.9l-18.4 10.7-18.5-10.7 18.4-10.7z"/><path class="h" d="m442.5 530.3l-18.4 10.7-18.5-10.7 18.4-10.6z"/><path class="h" d="m419.4 543.8l-18.4 10.7-18.5-10.7 18.4-10.7z"/><path class="h" d="m396.3 557.2l-18.4 10.7-18.5-10.7 18.4-10.7z"/><path class="h" d="m373.2 570.6l-18.4 10.7-18.5-10.7 18.4-10.7z"/><path class="h" d="m350.1 584.1l-18.4 10.6-18.5-10.6 18.4-10.7z"/><path class="h" d="m327 597.5l-18.4 10.7-18.5-10.7 18.4-10.7z"/><path class="h" d="m303.9 610.9l-18.4 10.7-18.5-10.7 18.4-10.7z"/><path class="h" d="m603.3 463.7l-37.5 21.8-18.5-10.7 37.5-21.8z"/><path class="h" d="m561.7 487.9l-18.4 10.7-18.5-10.7 18.4-10.7z"/><path class="h" d="m539.6 500.7l-18.4 10.7-18.5-10.7 18.4-10.7z"/><path class="h" d="m517.6 513.5l-18.4 10.7-18.5-10.7 18.4-10.7z"/><path class="h" d="m495.5 526.3l-18.4 10.7-18.5-10.7 18.4-10.6z"/><path class="h" d="m473.5 539.2l-18.4 10.6-18.5-10.6 18.4-10.7z"/><path class="h" d="m451.4 552l-18.3 10.6-18.6-10.6 18.4-10.7z"/><path class="h" d="m429.4 564.8l-18.4 10.7-18.5-10.7 18.4-10.7z"/><path class="h" d="m407.4 577.6l-18.4 10.7-18.6-10.7 18.4-10.7z"/><path class="h" d="m385.3 590.4l-18.4 10.7-18.5-10.7 18.4-10.7z"/><path class="h" d="m363.3 603.2l-18.4 10.7-18.5-10.7 18.4-10.7z"/><path class="h" d="m341 616.1l-32.5 18.9-18.5-10.7 32.5-18.8z"/><path class="h" d="m626.4 477.1l-46.6 27.1-18.5-10.7 46.6-27.1z"/><path class="h" d="m575.6 506.6l-18.4 10.7-18.5-10.7 18.4-10.7z"/><path class="h" d="m553.9 519.2l-18.4 10.7-18.5-10.7 18.4-10.7z"/><path class="h" d="m532.2 531.9l-18.4 10.7-18.6-10.7 18.4-10.7z"/><path class="h" d="m510.4 544.5l-18.4 10.7-18.5-10.7 18.4-10.7z"/><path class="h" d="m488.7 557.1l-18.4 10.7-18.5-10.7 18.4-10.7z"/><path class="h" d="m467 569.7l-18.4 10.7-18.5-10.7 18.4-10.7z"/><path class="h" d="m445.3 582.4l-18.4 10.7-18.6-10.7 18.4-10.7z"/><path class="h" d="m423.5 595l-18.4 10.7-18.5-10.7 18.4-10.7z"/><path class="h" d="m401.8 607.6l-18.4 10.7-18.5-10.7 18.4-10.7z"/><path class="h" d="m378.6 621.1l-46.9 27.3-18.6-10.7 46.9-27.3z"/><path class="h" d="m672.7 503.8l-23.3 13.5-23.5-13.5-10.6 6.1-18.1-10.5 33.8-19.7z"/><path class="h" d="m611.5 512.6l-18.4 10.7-18.6-10.7 18.4-10.7z"/><path class="h" d="m644.7 520l-18.4 10.7-18.5-10.7 18.4-10.7z"/><path class="h" d="m696.6 517.6l-46.6 27.1-18.5-10.7 46.6-27.1z"/><path class="h" d="m589.5 525.3l-18.4 10.7-18.5-10.7 18.4-10.7z"/><path class="h" d="m567.6 538.1l-18.4 10.7-18.5-10.7 18.4-10.7z"/><path class="h" d="m545.7 550.8l-18.4 10.7-18.6-10.7 18.4-10.7z"/><path class="h" d="m523.7 563.6l-18.4 10.7-18.5-10.7 18.4-10.7z"/><path class="h" d="m501.8 576.3l-18.4 10.7-18.5-10.7 18.4-10.7z"/><path class="h" d="m479.9 589.1l-18.4 10.6-18.6-10.6 18.4-10.7z"/><path class="h" d="m457.9 601.8l-18.4 10.7-18.5-10.7 18.4-10.7z"/><path class="h" d="m436 614.6l-18.4 10.6-18.5-10.6 18.4-10.7z"/><path class="h" d="m414.1 627.3l-18.4 10.7-18.6-10.7 18.4-10.7z"/><path class="h" d="m391.1 640.6l-36.3 21.1-18.5-10.7 36.3-21.1z"/><path class="h" d="m622.8 532.8l-18.4 10.7-18.5-10.7 18.4-10.7z"/><path class="h" d="m600.9 545.5l-18.4 10.7-18.5-10.7 18.3-10.7z"/><path class="h" d="m578.9 558.3l-18.4 10.7-18.5-10.7 18.4-10.7z"/><path class="h" d="m557 571l-18.4 10.7-18.5-10.7 18.4-10.7z"/><path class="h" d="m535.1 583.8l-18.4 10.7-18.6-10.7 18.5-10.7z"/><path class="h" d="m513.1 596.5l-18.4 10.7-18.5-10.7 18.4-10.7z"/><path class="h" d="m491.2 609.3l-18.4 10.6-18.5-10.6 18.4-10.7z"/><path class="h" d="m469.3 622l-18.4 10.7-18.5-10.7 18.3-10.7z"/><path class="h" d="m447.3 634.8l-18.4 10.6-18.5-10.7 18.4-10.6z"/><path class="h" d="m424.8 647.8l-46.9 27.3-18.5-10.7 46.9-27.3z"/><path class="h" d="m645.8 547.2l-18.4 10.6-18.5-10.6 18.4-10.7z"/><path class="h" d="m624 559.8l-18.4 10.7-18.5-10.7 18.4-10.7z"/><path class="h" d="m602.3 572.5l-18.4 10.6-18.6-10.7 18.4-10.6z"/><path class="h" d="m580.5 585.1l-18.4 10.7-18.5-10.7 18.4-10.7z"/><path class="h" d="m558.8 597.7l-83.5 48.5-18.5-10.7 83.5-48.5z"/><path class="h" d="m471 648.8l-18.4 10.7-18.6-10.7 18.4-10.7z"/><path class="h" d="m448.8 661.7l-46.9 27.2-18.6-10.7 46.9-27.2z"/><path class="l" d="m643.8 626.3q-0.7 1-2.1 1.9l-72.3 41.7c-3.6 2.1-9.4 2.1-13 0l-33.7-19.5c-0.9-0.5-1.6-1.1-2-1.8-1.3-1.9-0.6-4.1 2-5.7l72.3-41.7c3.6-2.1 9.4-2.1 13 0l33.7 19.5c2.7 1.5 3.4 3.7 2.1 5.6z"/><path class="n" d="m643.8 626.3q-0.7 1-2.1 1.9l-72.3 41.7c-3.6 2.1-9.4 2.1-13 0l-33.7-19.5c-0.9-0.5-1.6-1.1-2-1.8q0.6-1 2-1.8l72.3-41.8c3.6-2 9.4-2 13 0l33.7 19.5c1 0.5 1.7 1.2 2.1 1.8z"/><path class="o" d="m587.2 337.5l35.8 20.8c-11.9-6.9-28.5-6-46.8 4.6q-5.8 3.4-11.4 7.7l-35.8-20.8q5.6-4.3 11.4-7.7c18.3-10.6 34.9-11.6 46.8-4.6z"/><g clip-path="url(#cp6)"><path class="o" d="m564.8 370.6l-35.8-20.8q5.6-4.3 11.4-7.7c7-4.1 13.7-6.7 20-8l35.8 20.8c-6.3 1.3-13 4-20 8q-5.8 3.4-11.4 7.7z"/><path class="o" d="m596.2 354.9l-35.8-20.8c9.7-2.1 18.5-1 25.6 2.7l35.9 20.9c-7.2-3.8-16-4.8-25.7-2.8z"/><path class="o" d="m621.9 357.7l-35.9-20.9q0.6 0.4 1.2 0.7l35.8 20.8q-0.6-0.3-1.1-0.6z"/></g><path class="o" d="m503.3 312.5l35.8 20.8c-18-10.4-42.8-8.9-70.2 6.9l-35.8-20.8c27.4-15.8 52.2-17.3 70.2-6.9z"/><g clip-path="url(#cp7)"><path class="o" d="m468.9 340.2l-35.8-20.8c10.5-6 20.5-10 30-12l35.8 20.8c-9.5 2-19.5 6-30 12z"/><path class="o" d="m498.9 328.2l-35.8-20.8c14.5-3 27.6-1.5 38.4 4.2l35.8 20.8c-10.8-5.7-23.9-7.2-38.4-4.2z"/><path class="o" d="m537.3 332.4l-35.8-20.8q0.9 0.4 1.8 0.9l35.8 20.8q-0.9-0.5-1.8-0.9z"/></g><path class="o" d="m373.5 481.1l-35.8-20.8c10.6-55.4 49.3-114.3 95.4-140.9l35.8 20.8c-46.1 26.7-84.8 85.5-95.4 140.9z"/><g clip-path="url(#cp8)"><path class="o" d="m373.5 481.1l-35.8-20.8c2.9-15.1 7.9-30.5 14.5-45.3l35.8 20.8c-6.6 14.9-11.6 30.2-14.5 45.3z"/><path class="o" d="m388 435.8l-35.8-20.8c8.5-19.2 19.9-37.7 33.1-53.8l35.8 20.8c-13.2 16.1-24.5 34.6-33.1 53.8z"/><path class="o" d="m421.1 382l-35.8-20.8c14.2-17.2 30.5-31.8 47.8-41.8l35.8 20.8c-17.3 10-33.6 24.6-47.8 41.8z"/></g><path class="o" d="m315.7 642.2l-35.8-20.8c-11.8-6.8-19.1-21.4-19.2-42.2-0.1-41.7 29.2-92.5 65.6-113.5q5.8-3.4 11.4-5.4l35.8 20.8q-5.6 2.1-11.4 5.4c-36.3 21-65.7 71.8-65.6 113.5 0.1 20.8 7.4 35.4 19.2 42.2z"/><g clip-path="url(#cp9)"><path class="o" d="m315.7 642.2l-35.8-20.8c-11.8-6.8-19.1-21.4-19.2-42.2 0-15.9 4.3-33.3 11.6-49.7l35.8 20.8c-7.3 16.4-11.6 33.8-11.6 49.7 0.1 20.8 7.4 35.4 19.2 42.2z"/><path class="o" d="m308.1 550.3l-35.8-20.8c5.7-12.9 13.3-25.2 22.1-35.9l35.8 20.8c-8.8 10.7-16.4 23-22.1 35.9z"/><path class="o" d="m330.2 514.4l-35.8-20.8c9.4-11.5 20.3-21.2 31.9-27.9q5.8-3.4 11.4-5.4l35.8 20.8q-5.6 2.1-11.4 5.4c-11.6 6.7-22.4 16.4-31.9 27.9z"/></g><path class="p" d="m468.9 340.2c46.2-26.6 85-12.6 95.9 30.4q5.6-4.3 11.4-7.7c36.3-21 65.9-4.2 66 37.6 0.1 39.1-25.6 86.2-58.8 109.2l-220.9 127.9c-36.3 21-65.9 4.2-66-37.6-0.1-41.7 29.3-92.5 65.6-113.5q5.8-3.3 11.4-5.4c10.6-55.4 49.3-114.2 95.4-140.9z"/><path class="o" d="m430.5 485.1q-1.1 0.6-2.2 0.8c-3.7 0.7-5.6-2.7-4.4-7.6 5.6-22.4 19.1-44.7 36-59.6 24.9-21.8 50.3-22.3 60.5-1.1 1.6 3.2 0 8.8-3.5 12.6-3.6 3.8-7.6 4.3-9.2 1.2-7.5-15.5-26.1-15.2-44.3 0.8-12.4 10.9-22.2 27.2-26.3 43.6-1 3.9-3.7 7.6-6.6 9.3z"/><path class="o" d="m414.7 480.6l17.7 24 16.9-44.6z"/><path class="o" d="m474.6 534c-19.1 11-37.3 9.3-46.2-5.7-1.8-2.9-0.4-8.5 3-12.5 3.4-4 7.6-4.8 9.3-1.9 8 13.4 26.2 12.3 43.3-2.7 12.6-11.1 22.6-27.7 26.5-44.4 1.2-4.9 5.1-9.5 8.8-10.2 3.6-0.8 5.6 2.5 4.5 7.4-5.5 22.8-19 45.5-36.3 60.7-4.3 3.7-8.6 6.9-12.9 9.3z"/><path class="o" d="m532.9 463.5l-15.1-27.2-19.4 44.3z"/><g style="mix-blend-mode:overlay"><path class="a" d="m625.8 440.2c0 16.1-11.4 35.8-25.3 43.8-14 8.1-25.3 1.5-25.3-14.6 0-16.1 11.3-35.8 25.3-43.8 13.9-8.1 25.3-1.5 25.3 14.6z"/><path class="q" d="m624.1 441.2c0 15-10.6 33.3-23.6 40.8-13.1 7.6-23.6 1.5-23.6-13.6 0-15 10.5-33.3 23.6-40.8 13-7.6 23.6-1.5 23.6 13.6z"/><path class="r" d="m622.3 442.2c0 13.9-9.8 30.9-21.8 37.9-12.1 6.9-21.9 1.3-21.9-12.7 0-13.9 9.8-30.9 21.9-37.9 12-6.9 21.8-1.3 21.8 12.7z"/><path class="s" d="m620.6 443.2c0 12.8-9 28.4-20.1 34.9-11.2 6.4-20.2 1.2-20.2-11.7 0-12.8 9-28.4 20.2-34.9 11.1-6.4 20.1-1.2 20.1 11.7z"/><path class="t" d="m618.9 444.2c0 11.7-8.3 26-18.4 31.9-10.2 5.9-18.5 1.1-18.5-10.7 0-11.7 8.3-26 18.5-31.9 10.1-5.9 18.4-1.1 18.4 10.7z"/><path class="u" d="m617.2 445.1c0 10.7-7.5 23.7-16.7 29-9.3 5.3-16.8 1-16.8-9.6 0-10.7 7.5-23.7 16.8-29 9.2-5.3 16.7-1 16.7 9.6z"/><path class="v" d="m615.5 446.1c0 9.6-6.7 21.2-15 26-8.3 4.8-15 0.9-15-8.6 0-9.6 6.7-21.2 15-26 8.3-4.8 15-0.9 15 8.6z"/><path class="w" d="m613.8 447.1c0 8.5-6 18.8-13.3 23-7.4 4.3-13.3 0.8-13.3-7.6 0-8.5 5.9-18.8 13.3-23 7.3-4.3 13.3-0.8 13.3 7.6z"/><path class="x" d="m612 448.1c0 7.4-5.1 16.4-11.5 20.1-6.4 3.6-11.6 0.7-11.6-6.7 0-7.4 5.2-16.4 11.6-20.1 6.4-3.6 11.5-0.7 11.5 6.7z"/><path class="y" d="m610.3 449.1c0 6.3-4.4 13.9-9.8 17.1-5.5 3.1-9.9 0.6-9.9-5.7 0-6.3 4.4-13.9 9.9-17.1 5.4-3.1 9.8-0.6 9.8 5.7z"/><path class="z" d="m608.6 450.1c0 5.2-3.6 11.5-8.1 14.1-4.5 2.6-8.2 0.5-8.2-4.7 0-5.2 3.7-11.5 8.2-14.1 4.5-2.6 8.1-0.5 8.1 4.7z"/><path class="g" d="m606.9 451.1c0 4.1-2.9 9.1-6.4 11.1-3.6 2.1-6.5 0.4-6.5-3.7 0-4.1 2.9-9.1 6.5-11.1 3.5-2.1 6.4-0.4 6.4 3.7z"/></g><path class="A" d="m607.1 450.9c0-4.2-2.9-5.9-6.6-3.8-3.7 2.1-6.7 7.3-6.7 11.6 0 4.2 3 5.9 6.7 3.8 3.7-2.1 6.6-7.3 6.6-11.6z"/><path class="B" d="m673.2 488.8c-0.4 0.5-0.8 1-1.1 1.5-0.9 1.7-1.6 3.6-1.4 5.5 0 0.4 0.2 0.9 0.5 1.1q0.4-0.4 0.8-0.7 0.1-0.1 0.2-0.1 0 0 0.1 0.1c0.5 0.5 0.3 1.7 0.3 2.4q0 1.4 0 2.8c0 0.2 0 0.4 0.1 0.6 0 0.2 0.2 0.4 0.4 0.4 0.1 0 0.3 0 0.4 0 0.2 0.1 0.4 0.3 0.4 0.6 0.2 0.4 0.3 1 0.6 1.4 0.7 0.8 0.9-0.5 1.3-0.7 0.5-0.4 0.8 0.5 1.3 0.4 0.4-0.1 0.4-0.6 0.4-0.9 0-1-0.1-1.9 0.4-2.8q0-0.1 0.1-0.1c0.1 0 0.2 0.1 0.3 0.2 0.3 0.4 0.7 0.1 1-0.1 0.4-0.2 0.6-0.4 0.6-0.9q0-4.3-0.5-8.5c-0.1-0.7-0.2-1.5-0.2-2.2 0-0.8 0-1.6 0.3-2.4 0.2-0.7 0.5-1.5 0.7-2.2 0.2-0.9-0.3-1.8-0.7-2.6-0.1-0.2-0.3-0.5-0.5-0.6-0.2-0.1-0.5-0.2-0.7-0.2-0.8 0-1.6 0.1-2.4 0.4-0.7 0.3-1.3 0.8-1.6 1.6-0.2 0.5-0.2 1.2-0.2 1.8 0 0.9 0 1.8-0.1 2.7-0.2 0.6-0.5 1.1-0.8 1.5z"/><path class="C" d="m666.6 445.7c-1.6-8 0.3-14.4 7.6-13.4 3 0.4 7.1 4.7 7.9 17.6 0.2 3.1 0.2 11.7-1.1 17.2-0.8 3.5-3.4 4.4-4.5 3.7-1.2-0.9-1.9 2.9-2.6 1-1.4-3.6-5.3-15.8-7.3-26.1z"/><path class="C" d="m676 489.4c4.1 0 4.1-3.9 4.6-6.5 1.9-11.2 1.6-18.3 1.4-24.3 0-0.4-2.4 1.6-2.8 1.7-2 0.4-5.9-6.1-6.9-4.1-1.1 2.1 1.7 13.3 1 22.8-0.6 6.9-2.6 10.4 2.7 10.4z"/><path class="B" d="m612.5 459.5c-0.3-0.6-0.5-1.2-0.8-1.7-1.1-1.6-2.4-3.1-4.2-3.9-0.4-0.1-0.9-0.2-1.2 0q0.1 0.5 0.3 1 0 0.1 0 0.2-0.1 0.1-0.2 0.1c-0.7 0.2-1.6-0.6-2.2-0.9q-1.2-0.6-2.5-1.3c-0.2-0.1-0.4-0.2-0.6-0.2-0.2-0.1-0.4 0-0.6 0.2 0 0.1-0.1 0.2-0.1 0.3-0.2 0.2-0.5 0.2-0.7 0.1-0.5-0.1-1.1-0.3-1.6-0.1-1 0.2 0.1 0.9 0.1 1.4 0 0.7-0.9 0.5-1 1-0.1 0.3 0.3 0.6 0.6 0.8 0.9 0.5 1.7 0.7 2.3 1.6q0 0.1 0 0.2c0 0.1-0.2 0.1-0.3 0.1-0.5 0.1-0.5 0.6-0.4 1 0 0.4 0.1 0.6 0.5 0.9q3.8 2 7.7 3.6c0.7 0.2 1.4 0.5 2.1 0.9 0.7 0.3 1.4 0.8 1.9 1.3 0.6 0.6 1.1 1.2 1.7 1.7 0.6 0.6 1.7 0.6 2.5 0.6 0.3 0 0.6 0 0.9-0.1 0.2-0.2 0.3-0.4 0.4-0.6 0.4-0.7 0.8-1.4 0.8-2.2 0.1-0.8-0.1-1.6-0.6-2.2-0.4-0.5-1-0.8-1.5-1-0.8-0.4-1.6-0.8-2.3-1.4-0.5-0.4-0.8-0.9-1-1.4z"/><path class="j" d="m661.1 566.5c-0.1-2.1-0.7-4.2-1.2-6.2-0.2-0.7-0.5-1.5-1-2-1.2-1.1-3.3-0.5-4.3 0.9-0.5 0.6-0.7 1.4-1.2 2-0.7 1.2-2.3 2.7-3.8 2.6-1.6-0.1-3.6-1.4-5.2-1.8-1.2-0.2-2.4-0.4-3.6-0.2-0.7 0-1 0.1-1.4 0.7-0.4 0.5-0.6 1.1-0.8 1.6-0.4 1.1-0.7 2.3-0.4 3.4 0.3 1.1 1.2 1.9 2.1 2.5 1.4 0.8 3.3 1.4 5 1.5 1.8 0 3.4 0.4 5 1.3 2 1.2 4 3.3 6.5 2.3 2.3-1 3.8-3.4 4.2-5.8q0.2-1.4 0.1-2.8z"/><path class="j" d="m677.8 560.8q0-0.2 0-0.4h-9.1v-3.2q-0.6 0.2-1.1 0.2c-1.7-0.2-3.6-1.6-5.2-2.1-1.1-0.3-2.4-0.5-3.6-0.5-0.7 0.1-1 0.1-1.4 0.7-0.4 0.4-0.7 1-0.9 1.6-0.4 1-0.8 2.2-0.6 3.3 0.3 1.1 1.1 2 2 2.6 1.4 0.9 3.2 1.7 4.9 1.8 1.8 0.2 3.4 0.6 4.9 1.6 1.9 1.3 3.3 2.8 5.7 2.8 2 0 3.5-0.8 4.2-2.8 0.5-1.6 0.3-3.3 0.3-5q-0.1-0.3-0.1-0.6z"/><path class="i" d="m666.2 482.1c-1.4 1.4-6.4-1.2-6.5-1.8-6-4.7-5.4 13.9-3.7 21.4 0.8 3.6 0.7 10.1 1.5 13.7 1 4.1 2 8.2 3 12.4 0.1 0.5 0.3 1 0.6 1.5 0.3 0.6 1 1 1.6 1.3 5.4 2.8 10.5-1.2 11.4-2.9 2-3.9-0.9-10.3 1.3-17.8 5.8-19.5 0.4-31.6-3.2-32.1-3.2-0.5-5.1 3.4-6 4.3z"/><path class="i" d="m658.4 519.1c1.6 6.5 3.1 13 4.4 19.6q1.3 6.3 2.2 12.6c1.3 8.7 0.8 10.9 3.4 12.3 3.7 2 7.8 0.6 9.4-1.2 1.5-1.8-0.4-12.5-0.7-14.8-3.3-26.2-1.5-29.8-4.7-28.5-1.7 0.7-3.9 1.3-5 2.9-0.2 0.4-1.6 3.1-2.3 2.8-0.9-0.4 0.8-2-0.1-1.8-1.7 0.3-3.3 1.3-4.4 2.7z"/><path class="h" d="m656.8 483.4c-0.7-0.3-3.8-1.8-3.8-2.6-5.3-5.5-7.2 13-6.6 20.6 0.3 3.7-0.3 10.2 0.1 13.9 1.3 15.1 1.3 14.6 3 15.8 5 3.5 10.6 0.2 11.7-1.4 2.6-3.8 0.2-12.2 4.7-20.2 1.6-2.7 3.6-8 4.8-10.9 2.9-6.9-0.7-17.5-2.4-18.4-0.6-0.3-4.5-1.2-7.6 1.8-1.9 1.7-1.7 2.5-3.9 1.4z"/><path class="D" d="m675.1 467.1c0-4.1 1.2-7.9 1.6-11.8 0.5-3.8 2.1-7.3 2-11.2 0-3.7-1.5-7.6-4.5-9.7-2.3-1.5-5.3-2-7.8-0.9-3.7 1.7-7.4 3.4-10.9 5.3-3.4 1.9-7.1 3.7-9.9 6.2-1.7 1.5-3.1 3.4-3.7 5.5-0.6 2.4-0.2 4.9 0.5 7.2 0.7 2.3 1.7 4.5 2.3 6.9 1.1 3.9 1.2 8 1.2 12.1q0 6.8-0.4 13.6c0 1.1-0.1 2.4 0.6 3.3 0.7 0.9 2 1.2 3.2 1.5 3.2 0.6 6.3 0.7 9.6 0.7 3.8-0.3 18.1-2.7 17.7-9.7-0.2-5.7-1.4-8.3-1.5-19z"/><path class="B" d="m653.6 435.4c-0.4-1.5-1.5-1.1-1-2.5 0.4-1.2 1.1-2.3 2.1-3.1 0.9-0.9 2.2-1.4 3.4-1.4 0.5 0 0.8 0.2 1.2 0.2 1.2-0.1 2.4-0.4 3.6-0.3 2.1 0.2 2.5 0.4 2.5 1.9 0 3.2 1.5 6.2 1.1 9.4-0.4 3.5-5.1 4.1-7.8 4-7.5-0.2-4.1-3.1-5.1-8.2z"/><path class="B" d="m648 415.3c-0.7 0.8-1.1 1.8-1.2 2.9-0.2 2.4 0.9 4.9 0.5 7.3-0.3 2.3 1 7.6 5.6 8.6 2.4 0.6 6.9-0.5 8.4-1.3 1.9-1.1 3.1-3.1 4.1-5 8.7-15.8-11.4-20.8-17.4-12.5z"/><path class="i" d="m667.2 411.1q-0.7-0.7-1.8-1.1c-0.2-0.1-0.4-0.2-0.6-0.4-0.1-0.1-0.2-0.2-0.3-0.4-0.3-0.7-1-1.1-1.7-1.5-2.7-1.2-5.8-1.1-8.6-0.5-1 0.2-2 0.4-2.9 0.9-1 0.5-1.8 1.2-2.6 2.1-1.5 1.5-3.2 3.8-2.9 6 0 0.5 0.3 0.9 0.6 1.3 0.2 0.3 0.5 0.5 0.7 0.8 0.8 0.9 1.2 2.2 1.7 3.3 0.2 0.4 0.5 0.9 0.9 1.2 0.9 0.5 2-0.1 3 0.1 0.5 0.1 1 0.6 1.3 1 0.3 0.5 0.5 1.1 0.7 1.6 0.3 0.9 0.4 1.6 0.5 2.5 0.2 0.9 0.5 1.8 1.2 2.4 1.4 1.4 4.1 1.2 5.9 0.7 0.6-0.2 1.3-0.4 1.9-0.7 1.3-0.8 2.2-2.2 3-3.5 0.8-1.2 1.5-2.4 1.9-3.8 0.2-0.8 0.2-1.6 0.3-2.4 0.2-3.2 0.3-7.3-2.2-9.6z"/><path class="B" d="m653.6 421.8c1.9-0.3 2.5 2 1.4 3.8-0.3 0.6-1 1.1-1.4 1.5-3.1 3.1-4.1 0.1-3.2-0.9 2.3-2.4 0.9-4.1 3.2-4.4z"/><path class="E" d="m653.4 425.3c0.2-0.2 2.1-1.6 0.7-2.3-0.5-0.2-0.9 0.1-0.9 0.6 0 0.2 0.1 0.4 0.1 0.6q-0.1 0.2-0.2 0.4c-0.1 0.3-0.7 0.6-0.6 1.1 0.2 0.4 0.7-0.3 0.9-0.4z"/><path class="h" d="m646.8 519.1c4.7 46.1 0.8 43.9 4.4 46.8 2.9 2.3 8.2 2.9 9.4-1.7 1.4-5.1 1.4-7.6 1.8-41.7 0.1-0.6 0-1.2-0.5-1.5-0.5-0.4-5.1 0.6-6.5 2.2-0.4 0.4-2.1 2.8-2.7 2.4-0.8-0.5 1.1-1.8 0.1-1.8-1.7 0.1-3.5 0.9-4.7 2.1z"/><path class="k" d="m638.1 456.4c2.4-7.9 6.4-13.1 11.2-10.7 5.2 2.5 4.5 7.8-0.9 19.5-1.3 2.9-5.8 10.2-9.5 14.3-1.1 1.3-2.8 2-4.5 1.2-0.8-0.3-1.5-1-2.1-1.7-0.6-0.7-1.2-1.6-1-2.5 0.1-0.7 0.6-1.6 0.8-2.3 0.6-1.8-0.1-2.2 0.6-4 1.4-4.2 4.1-9.6 5.4-13.8z"/><path class="k" d="m610.5 461.6c-2 3.6-0.4 5.7 1.7 7.3q1.2 0.9 2.4 1.8c4 2.7 8.2 4.9 12.5 6.9 2 1 9.2 5.8 11.3 2.1 0.8-1.6 1.9-2.8 1.7-4.7-0.1-0.9-0.6-1.9-1.2-2.6-0.6-0.8-1.5-1.1-2.4-1.5q-2.1-1.1-4.3-2.2c-3.6-1.7-7.1-3.4-10.5-5.3-6.1-3.3-8.7-6.4-11.2-1.8z"/><path class="n" d="m431.5 632.9l0.1 36.7 2.7 1.6-0.2-36.8z"/><path class="l" d="m434.1 634.4l0.2 36.8 2.6-1.6-0.1-36.7z"/><path class="h" d="m431.5 632.9l2.6 1.5 2.7-1.5-2.6-1.6z"/><path class="n" d="m457.7 617.7l0.1 36.8 2.6 1.5-0.1-36.7z"/><path class="l" d="m460.3 619.3l0.1 36.7 2.7-1.5-0.1-36.8z"/><path class="h" d="m457.7 617.7l2.6 1.6 2.7-1.6-2.7-1.5z"/><path class="n" d="m404.3 616.7l0.1 36.8 2.7 1.6-0.1-36.8z"/><path class="l" d="m407 618.3l0.1 36.8 2.6-1.6-0.1-36.8z"/><path class="h" d="m404.3 616.7l2.7 1.6 2.6-1.6-2.6-1.5z"/><path class="j" d="m403.5 613v3.9l30.7 17.9v-4z"/><path class="l" d="m434.2 630.8v4l30.8-17.9v-3.9z"/><path class="h" d="m403.5 613l30.7 17.8 30.8-17.8-30.6-17.8z"/><path class="n" d="m403.4 565.2l0.1 47.8 2.6 1.5-0.1-47.8z"/><path class="l" d="m406 566.7l0.1 47.8 2.7-1.5-0.1-47.8z"/><path class="g" d="m403.4 565.2l2.6 1.5 2.7-1.5-2.7-1.5z"/><path class="n" d="m431.5 549.1l0.1 47.8 2.6 1.5-0.1-47.8z"/><path class="l" d="m434.1 550.6l0.1 47.8 2.6-1.5-0.1-47.8z"/><path class="h" d="m431.5 549.1l2.6 1.5 2.6-1.5-2.6-1.6z"/><path class="j" d="m402.6 571.6v19.7l2.5 1.4-0.1-19.7z"/><path class="i" d="m405 573l0.1 19.7 34.8-20.1-0.1-19.7z"/><path class="h" d="m402.6 571.6l2.4 1.4 34.8-20.1-2.4-1.4z"/><path class="j" d="m478.2 655.4c4.8 2.3 9.3 5.1 13.8 7.9 1.3 0.9 2.5 1.1 3.7 2.1 0.9 0.8 2.2 2.5 2.3 3.8 0.1 1.7-3.3 3-4.6 3.4-1.9 0.5-3.6 0.7-5.5 0.4-1.9-0.3-3.1-1.2-4.3-2.6-1.1-1.3-2.2-2.7-3.7-3.3-1.5-0.5-3.3-0.2-4.4-1.3-0.6-0.6-0.9-1.4-1.1-2.2-0.3-1.4-0.3-3-0.6-4.4-0.3-1.1-0.8-2.2-0.7-3.3 0.1-0.9 1-1.7 1.9-2 1-0.3 2.1-0.1 3 0.4z"/><path class="C" d="m444.3 576.9c-2.1-5-4.2-11.6-7-19.7-0.7-2.2-1.2-4.6-1.2-6.9 0-2.4 0.7-4.4 1.8-6.5 0.5-1 1.2-2 2.3-2.3 1-0.2 2 0.4 2.7 1 4.7 3.5 7.3 9.5 8.4 15.1 1 5.2 0.8 11.4 1.2 16.8 0.1 1-0.4 9.7-3.6 8.2-1.7-0.7-3.4-3-4.6-5.7z"/><path class="C" d="m445.4 571.9c1.1-0.9 5.2-2.7 5.9-1.6 0.5 0.8 3.2 6.3 5.5 9.4-3 2.2-5.7 4.6-8.3 7.2-3.4-4.1-6.5-8.7-6.4-11.6 0-1.5 1.8-2.2 3.3-3.4z"/><path class="j" d="m457.7 665.6c4.1 3.3 7.8 7 11.5 10.7 1.1 1.1 2.2 2.1 3 3.4 0.8 1 1.7 2.3 1.5 3.6-0.2 1.6-3.8 2.1-5.2 2.2-1.8 0.1-3.6-0.1-5.3-0.8-1.7-0.7-2.7-1.9-3.6-3.5-0.7-1.4-1.5-3-2.8-3.9-1.3-0.9-3.1-1-4-2.3-0.4-0.7-0.5-1.5-0.5-2.3 0-1.5 0.4-3 0.4-4.4-0.1-1.1-0.3-2.3 0-3.3 0.3-0.9 1.4-1.5 2.3-1.5 1-0.1 2 0.3 2.7 1z"/><path class="E" d="m415.7 585.7c0.3 1.9 0.5 3.8 0.5 5.7q-0.1-2.9-0.5-5.7z"/><path class="E" d="m416.2 591.4q0.1 1.7 0.1 3.4 0 0 0 0 0-1.7-0.1-3.4z"/><path class="i" d="m482.2 613.6c2.8 1.8 5.9 13.8-4.8 14.3-5.4 0.2-10.4-2.9-15.4-5.3-6.8-3.3-14.1-5.5-20.9-8.7-2.2-1-4.2-2-6.1-3.5-4.4-3.5-6.8-9.4-6.3-15 0.1-0.8 0.3-1.6 0.6-2.3 1.9-3.3 13.5-2.2 16.2-0.8 10 4.9 33.9 19.5 36.7 21.3z"/><path class="i" d="m485.5 622.2c-0.2 2.9-0.4 5.8-0.9 8.7-0.5 3.3-1 6.5-1.1 9.8-0.2 3.5 0 7 0 10.5-0.1 2.2 0 4.5-0.6 6.6-0.2 1-0.6 2.1-1.5 2.7-1.1 0.7-2.4 1.1-3.6 1.2-0.9 0.1-1.8 0.1-2.6-0.1-2.8-0.9-2.9-4.8-3.5-7.2q-0.8-3.4-1.2-6.8c-0.6-4.4-0.8-8.9-1-13.3-0.2-3-0.3-6-0.2-8.9 0.1-2.7 0.2-5.5 1.4-7.9 1.3-2.4 4.1-4.1 6.6-4.7 2.9-0.6 5.7 0.6 7.2 3.2 0.8 1.6 1.1 3.4 1 5.2q0 0.5 0 1z"/><path class="i" d="m464 623.9c2.5 2.1 4.7 14.7-5.4 14.4-5.2-0.1-9.8-3.7-14.3-6.5-14.5-9.1-32.6-12.3-29.8-30.5 0.3-1.6 0.7-8.7 2-9.5 0.9-0.6 6.1 1.3 7.3 1.5 11.3 1.8 12.8 1.9 14.6 3.2 0.3 8.4 1.7 9.9 6.3 12.7 2.2 1.3 17.5 13.2 19.3 14.7z"/><path class="h" d="m466.2 632.3c-0.3 3-0.8 5.8-1.4 8.7-0.7 3.2-1.4 6.4-1.8 9.7-0.4 3.5-0.4 7-0.7 10.5-0.2 2.2-0.3 4.5-1 6.5-0.4 1-0.8 2.1-1.7 2.6-1.1 0.6-2.5 0.9-3.7 1-0.9 0.1-1.8 0-2.6-0.3-2.7-1.1-2.6-5-3-7.5q-0.5-3.3-0.7-6.7c-0.3-4.5-0.2-9-0.2-13.4 0.1-3 0.1-6 0.5-8.9 0.2-2.7 0.5-5.5 1.9-7.8 1.4-2.3 4.3-3.9 6.9-4.2 3-0.4 5.7 0.9 6.9 3.7 0.8 1.6 0.9 3.4 0.7 5.2q0 0.5-0.1 0.9z"/><path class="D" d="m415.7 549.2c3.4-2.2 10.1-5.2 16.6-7.3 9.2-2.8 10.4 0.5 13.1 7.8 2.4 6.8 1.7 18 0.6 25.2q-0.9 5.8-1 11.6c-0.1 1.4 0.2 2.8 0.4 4.2 0 0.6 0.2 1.3 0 1.9-0.3 0.7-1.4 1.5-2 2-2.8 2.3-6.4 3.6-10.1 3.9-5.1 0.4-10.6-0.6-15.5-2.1-1-0.4-2.1-0.8-2.7-1.6-0.6-0.8-0.8-1.7-0.9-2.7q-0.7-4.5-0.7-9.1c-0.1-1.3 0-2.7-0.1-4.1-0.2-2-0.6-3.9-1.1-5.9q-0.8-4-1.8-8.1-0.4-2-0.9-4c-0.3-1-0.7-1.8-0.6-2.9 0.2-4 3.7-6.7 6.7-8.8z"/><path class="C" d="m427.7 569.5c2 9.5 3.9 19.4 13.2 24.1q1.1 0.6 2.1 1.3c-2.8 2.1-6.2 3.3-9.7 3.6-5.1 0.4-10.6-0.6-15.5-2.1-1-0.4-2.1-0.8-2.7-1.6-0.6-0.8-0.8-1.7-0.9-2.7q-0.7-4.5-0.7-9.1c-0.1-1.3 0-2.7-0.1-4.1-0.2-2-0.6-3.9-1.1-5.9q-0.8-4-1.8-8.1-0.4-2-0.9-4c-0.3-1-0.7-1.8-0.6-2.9q0-0.8 0.3-1.6c1.5 0.7 3.1 1.3 4.6 1.9 5.7 2.2 12.7 5.3 13.8 11.2z"/><path class="k" d="m410.7 589c-1.6-5.2-2.9-11.9-4.9-20.4-0.5-2.2-0.7-4.6-0.5-6.9 0.3-2.4 1.2-4.3 2.5-6.3 0.6-0.9 1.4-1.9 2.5-2 1.1-0.1 1.9 0.6 2.7 1.2 4.3 4.1 6.2 10.2 6.7 15.9 0.4 5.3 1.6 10.6 2 15.9 0.1 1 0.3 2.1 0.1 3.1-0.6 4.8-4.1 7.5-7.2 5.7-1.5-0.9-3.1-3.4-3.9-6.2z"/><path class="h" d="m432.5 590.8c1 0.8 2.2 1.8 3.1 2.6 1.4-2.1 1.4-2.3 2.7-4.5 0.1-12.9-0.5-25-3.6-37.4-1.2 0.9-1.8 1.3-3 2.2 1.6 11.8 2.6 24.1 0.8 37.1z"/><path class="F" d="m436 551.2q0 0.1 0 0.2c0 0.4-0.2 0.8-0.3 1.2q-0.4 1.1-1 2.1c-0.3 0.4-0.5 0.8-0.9 0.9-0.5 0.2-1 0.1-1.4-0.2-0.5-0.2-1.4-0.6-1.3-1.2 0.1-0.6 0.3-1.1 0.5-1.6 0.3-1 0.8-2.3 1.8-2.9 1-0.7 1.8 0.3 2.3 1.1 0.2 0.2 0.3 0.3 0.3 0.4z"/><path class="G" d="m422.5 546c0.1-2.6 1.9-3.3 1.3-8.2-0.1-1.7-2-4 2.7-4 1.3 0.1 2.6 0.4 3.8 0.8 4.4 1.4 5 2.5 5.3 11.6-3.7-0.4-7-4.5-10.9-2.1-1 0.8-1.7 1.8-2.1 2.9q-0.1-0.5-0.1-1z"/><path class="H" d="m424.7 544.1c3.9-2.4 7.2 1.7 10.9 2.1q0 0.2 0 0.4c0.2 6.4-12.1 6.6-13 0.4 0.4-1.1 1.1-2.1 2.1-2.9z"/><path class="I" d="m433.4 550.5c0.2 0.7 1.3 1 1.9 1.4 0.3 0.2 0.8 0.6 1.2 0.5 0.4 0 0.6-0.6 0.8-0.9 0.9-2.3 1.5-4.8 1.5-7.4 0-0.8-0.1-1.6-0.7-2.2-0.6-0.5-1.6-0.6-2.3-0.3-0.7 0.3-0.9 1.8-0.6 2.4 0.9 2.4-0.1 5.2-1.8 6.5z"/><path class="I" d="m433.5 550.5c0 0-1.2 1.8-2.6 3.1-0.4 0.3-0.6 0.7-1.1 0.6-2.3-0.8-7.2-4.9-8.2-7.5-0.4-0.9 0.3-2.1 0.9-2.8 0.1-0.1 0.8-1.2 0.9-1.3 0.1 0.2 0.6 2.1 1.5 3.3 1.8 2.7 5.3 4.1 8.6 4.6z"/><path class="B" d="m440.3 523.4c0.9 1.5 1.4 3.2 1.4 5q0 1.2-0.4 2.3c-0.2 0.7-0.7 1.4-0.7 2.2 0 0.9 0.7 1.9 1 2.7 0.2 0.8 0.4 1.7 0.1 2.4-0.2 0.5-0.5 0.8-0.8 1.2-1.2 1.9 0 4.7-2.1 6-0.5 0.3-1.1 0.4-1.8 0.4-0.7 0.1-4.2-0.9-5.5-1.5-1.5-0.6-3-2.3-4-3.5-0.9-1-2.3-2.2-2.8-3.4-0.2-0.3 0.2-0.4-0.1-0.5-0.3-0.2-0.5-1.5-0.8-1.6-0.2 0-0.6-0.3-0.9-0.5-0.4-0.3-0.7 0.9-0.8 0.3-0.7-2.3-1.5-4.6-1.4-7 0.1-2.2 0.1-4.1 1.5-6 1-1.4 2.6-2.4 4.2-3 2.5-1 5.4-1.1 7.9-0.2 2.5 0.8 4.6 2.5 6 4.7z"/><path class="J" d="m420.7 527.9c0.1-2.2 0.1-4.1 1.5-6 1-1.4 2.6-2.4 4.2-3 1.5-0.6 3.1-0.9 4.7-0.8 2.5 4.8-1 11 1.6 16 0.9 1.1 2.6 2 2.6 3.5 0.6 2.6-2 5-0.6 7.6-1.2-0.3-2.5-0.8-3.2-1.1-1.5-0.6-3-2.3-4-3.5-0.9-1-2.3-2.2-2.8-3.4-0.2-0.3 0.2-0.4-0.1-0.5-0.3-0.2-0.5-1.5-0.8-1.6-0.2 0-0.6-0.3-0.9-0.5-0.4-0.3-0.7 0.9-0.8 0.3-0.7-2.3-1.5-4.6-1.4-7z"/><path class="h" d="m419.2 527.5c-0.2-6.4 4.3-7.6 4.3-7.6 0 0 1.9-3.3 7.1-3.1 2.7 0.2 5.4 1.1 7.7 2.5q0.1 0.1 0.3 0.2c1.1 0.7 2.1 1.6 2.9 2.7 2 3-0.7 5.5-3.9 5-1.6-0.2-3-0.9-4.4-1.5-1-0.3-2.2-0.6-3.1-0.1-1 0.4-1.6 1.5-1.7 2.5-0.4 2.3 0.4 4.6 0.5 6.9 0 0.4 0 0.7-0.2 1-0.4 0.8-1.3 0.4-1.8-0.1-0.3-0.3-0.6-0.7-0.9-1.1-0.3-0.3-0.6-0.6-1.1-0.7-0.7-0.1-1.3 0.4-1.4 1.1-0.1 0.6 0 1.2 0.2 1.8 0 0.1 0.3 1.2-0.1 1.2-0.4 0-4.3-4-4.4-10.7z"/><path class="i" d="m431.9 525.4c-0.6-0.1-1.3-0.1-1.8 0.2-1 0.4-1.6 1.5-1.7 2.5-0.4 2.3 0.4 4.6 0.5 6.9 0 0.4 0 0.7-0.2 1-0.4 0.8-1.3 0.4-1.8-0.1-0.3-0.3-0.6-0.7-0.9-1.1-0.3-0.3-0.6-0.6-1.1-0.7-0.7-0.1-1.3 0.4-1.4 1.1-0.1 0.6 0 1.2 0.2 1.8 0 0.1 0.3 1.2-0.1 1.2-0.4 0-4.3-4-4.4-10.7-0.2-6.4 4.3-7.6 4.3-7.6 0 0 1.8 0.3 4.2 1.9 2.4 1.6 4.2 3.6 4.2 3.6z"/><path class="B" d="m423.4 536.9c0.9 1.2 2.3 1.7 3.1 1.1 0.9-0.6 0.9-2.1 0-3.3-0.9-1.3-2.3-1.8-3.2-1.2-0.8 0.7-0.8 2.2 0.1 3.4z"/><path class="E" d="m424.2 534.9c-0.3 0.3-0.3 0.8 0 1.1 0.4 0.3 1 0.4 1.2 0.8 0.1 0.2 0.1 0.4 0.3 0.5 0.2 0.1 0.4-0.1 0.4-0.3 0-0.2-0.1-0.4-0.3-0.5-0.1-0.2-0.2-0.3-0.3-0.5-0.1-0.2 0-0.4 0-0.7 0-0.7-0.8-1-1.3-0.4z"/><path class="l" d="m447.1 661.6l0.2 52.8 3.5 2-0.1-52.7z"/><path class="K" d="m450.7 663.7l0.1 52.7 3.6-2-0.2-52.8z"/><path class="h" d="m447.1 661.6l3.6 2.1 3.5-2.1-3.5-2z"/><path class="l" d="m398.7 633.5l0.2 52.7 3.5 2.1-0.1-52.8z"/><path class="K" d="m402.3 635.5l0.1 52.8 3.6-2.1-0.2-52.7z"/><path class="h" d="m398.7 633.5l3.6 2 3.5-2-3.5-2.1z"/><path class="l" d="m531.3 612.9l0.2 52.8 3.5 2-0.1-52.7z"/><path class="K" d="m534.9 615l0.1 52.7 3.5-2-0.1-52.8z"/><path class="h" d="m531.3 612.9l3.6 2.1 3.5-2.1-3.5-2z"/><path class="l" d="m398.8 633.5v4l52 30.2v-4.1z"/><path class="n" d="m450.8 663.6v4.1l87.7-50.7-0.1-4.1z"/><path class="m" d="m398.8 633.5l52 30.1 87.6-50.7-51.9-30.1z"/><path class="j" d="m486.4 607.4v3.1l-35.7 20.8v-3.1z"/><path class="i" d="m450.7 628.2v3.1l-22.1-12.8v-3.1z"/><path class="h" d="m486.4 607.4l-35.7 20.8-22.1-12.8 35.7-20.7z"/><path class="L" d="m458.6 605.5l-9.7 5.6-5.3-3.1 9.7-5.6z"/><path class="L" d="m438.3 618.8l32.6-18.9 11.6 6.7-32.6 19z"/><path class="J" d="m460.6 599.4c0.3 0.6 1.4 2.1 1.8 2.6 0.5 0.4 0.2-1.5 0.8-1.5 1 0.1 2.1 0.7 2.8 0.1 0.6-0.5 1.2-1.1 1.6-1.7 0.5-0.7 0.8-1.5 0.7-2.3 0-0.3-0.1-0.6-0.2-0.8q-0.2-0.3-0.5-0.5-1.3-1.1-2.6-2.3-0.3-0.3-0.6-0.5-0.5-0.2-1-0.2c-1.2-0.1-2.4 0.5-3.2 1.4-0.4 0.4-0.9 1-1 1.6-0.1 0.5 0.2 1 0.4 1.5 0.3 0.9 0.6 1.8 1 2.6z"/><path class="J" d="m459.5 597q-0.1 2-0.2 3.9c0 0.5-0.1 1 0.1 1.5 0.1 0.3 0.2 0.7 0.4 1 0.1 0.4 0.2 0.7 0.3 1 0.4 1 1.4 1.6 2.3 2.2 0.3 0.2 0.7 0.4 1.1 0.5 0.3 0.1 0.7 0 0.8-0.2 0-0.2 0-0.3 0-0.4-0.1-0.4-0.2-0.8-0.4-1.1-0.3-0.4-0.7-0.6-1-0.9-0.6-0.6-0.6-1.5-0.3-2.2 0.2-0.8 0.7-1.5 1-2.2 0.3-0.7 0.5-1.6 0.1-2.3q-0.2-0.3-0.5-0.6c-0.4-0.5-0.9-1-1.5-1.2-0.5-0.3-1-0.4-1.6-0.2-0.6 0.2-0.6 0.7-0.6 1.2z"/><path class="J" d="m465.4 598.6c-0.7-0.3-2.2 1.3-2.3 1.7-0.3 1 0.7 0.2 2.1 2.2 0.3 0.6 0.7 1.2 0.9 1.9 0.1 0.5 0.2 1.1 0.6 1.3 0.4 0.2 0.8-0.1 1-0.4 0.1 0.7 1.2 0.1 1.4-0.6 0.4-1.4 1.5-0.1 1.7-2.5q0.1 0.1 0.3 0.1c1.7-1.3-1.7-5.2-3.2-6.7-2.6-2.7-3.2 1.5-2.5 3z"/><path class="C" d="m448.5 586.7c2.5-2.5 4-7.2 7-9.3 2.7 3.7 7.5 11.1 8.9 14.3 1.3 3-4.4 5.7-5.7 4.2-1.2-1.2-7.1-5.5-10.2-9.2z"/><path class="B" d="m443.5 610.4c0.6 0.4 2.3 1.6 2.8 2.1 0.5 0.5-1.6 0.1-1.6 0.8 0 1.1 0.6 2.3-0.1 3.1-0.6 0.7-1.2 1.3-2 1.8-0.7 0.5-1.6 0.8-2.5 0.7-0.3-0.1-0.6-0.2-0.9-0.4q-0.3-0.2-0.5-0.5-1.3-1.5-2.5-3c-0.2-0.2-0.4-0.4-0.5-0.7-0.2-0.3-0.2-0.7-0.2-1.1-0.1-1.4 0.6-2.6 1.7-3.5 0.5-0.4 1.1-0.9 1.8-1 0.5-0.1 1.1 0.3 1.6 0.5 1 0.3 2 0.7 2.9 1.2z"/><path class="B" d="m440.9 609q2.2 0 4.3 0c0.6 0 1.1 0 1.7 0.1 0.4 0.1 0.7 0.3 1.1 0.5 0.4 0.1 0.8 0.2 1.1 0.4 1.1 0.5 1.7 1.6 2.3 2.6 0.3 0.5 0.5 0.9 0.6 1.4 0 0.3-0.1 0.6-0.3 0.7-0.2 0.1-0.3 0.1-0.5 0-0.4-0.1-0.8-0.2-1.1-0.4-0.4-0.4-0.7-0.9-1-1.2-0.7-0.6-1.7-0.7-2.5-0.4-0.8 0.2-1.6 0.7-2.4 1-0.8 0.3-1.8 0.5-2.6 0.1q-0.4-0.2-0.7-0.6c-0.5-0.5-1-1-1.3-1.7-0.2-0.6-0.3-1.2-0.1-1.8 0.2-0.7 0.8-0.7 1.4-0.7z"/><path class="k" d="m436.4 613.2c-1.8 0.4-3.6-0.8-5-1.8-3.3-2.5-19.5-16-20.6-22.2-0.3-1.6 1.5-2.5 2.9-3.7 1.1-1 6.6 0.1 7.6 1.3 1.6 1.8 13.5 14 17.6 20 0.6 0.8 1.1 1.7 1.1 2.7 0 1.5-2.2 3.4-3.6 3.7z"/><path class="B" d="m442.5 615.7c-0.4-0.8 1.4-2.4 1.9-2.5 1.1-0.3 0.1 0.8 2.4 2.4 0.6 0.4 1.3 0.9 2 1.1 0.6 0.1 1.3 0.2 1.5 0.7 0.1 0.4-0.1 0.9-0.5 1.1 0.8 0.2 0.1 1.4-0.7 1.6-1.6 0.4-0.2 1.6-2.9 1.7q0.1 0.2 0.2 0.4c-1.6 1.8-5.8-2.1-7.4-3.8-2.9-3.1 1.8-3.6 3.5-2.7z"/><g clip-path="url(#cp10)"></g><path class="h" d="m491.6 586.1l2.6 1.6q-0.3-0.2-0.7 0l-2.7-1.5q0.5-0.3 0.8-0.1z"/><g clip-path="url(#cp11)"><path class="h" d="m493.5 587.7l-2.7-1.5q0.2-0.1 0.3-0.1l2.7 1.5q-0.1 0-0.3 0.1z"/><path class="h" d="m493.8 587.6l-2.7-1.5q0.3-0.1 0.4 0l2.7 1.5q-0.2 0-0.4 0z"/><path class="h" d="m494.2 587.6l-2.7-1.5q0.1 0 0.1 0l2.6 1.6q0-0.1 0-0.1z"/></g><g clip-path="url(#cp12)"></g><path class="h" d="m459.8 607.3l-2.6-1.6 33.6-19.5 2.7 1.5z"/><g clip-path="url(#cp13)"></g><path class="h" d="m458.8 609l-2.6-1.5c0-0.6 0.4-1.4 1-1.8l2.6 1.6c-0.5 0.3-1 1.1-1 1.7z"/><g clip-path="url(#cp14)"><path class="h" d="m459.4 607.7l-2.7-1.5q0.2-0.3 0.5-0.5l2.6 1.6q-0.2 0.2-0.4 0.4z"/><path class="h" d="m459 608.3l-2.7-1.6q0.2-0.3 0.4-0.5l2.7 1.5q-0.3 0.3-0.4 0.6z"/></g><g clip-path="url(#cp15)"></g><path class="j" d="m493.5 587.7c0.6-0.3 1 0 1 0.6l-8.1 19.1-35.7 20.8 8-19.2c0 0 0.2-1.2 1.1-1.7z"/><path class="i" d="m450.7 628.2l-2.6-1.6 8.2-19.9 2.7 1.6z"/><path class="G" d="m317.6 648.8c0.1 1.4 0.3 3.1 0.8 4.4 0.4 1.2 1.2 1.9 1.9 2.8 0.6 0.9 1.5 1.4 2.5 1q0.3-0.1 0.5-0.3c0.2-0.3 0.2-0.7 0.1-1-0.2-6.3 2.3-12.5 2.8-18.7 0.2-4.1-0.2-8.3-1.2-12.2-0.4-1.5-1-3-1.4-4.5-0.3-1.2-0.1-2.3-0.9-3.4-1.1-1.5-3.5-1.6-5.1-0.7-1.4 0.8-3.1 2.5-3.6 4-0.6 1.6 0.5 3.9 0.8 5.4 0.9 4.4 1.7 10.7 2.2 15.2 0.3 2.4 0.4 5.5 0.6 8z"/><path class="G" d="m319.6 662.5h3.9c0.7-1.1 0.8-2.7 0.5-4q-0.1-0.3-0.2-0.6-0.2-0.8-0.4-1.6c-0.2-0.7-0.1-1.6-0.4-2.2-0.2-0.5-0.8-0.9-1.2-1.2-0.4-0.3-1.4-0.8-1.6-1.2l-2.7-5c0 1.3 0.7 8 0.4 9.2-0.4 1.8-2.2 3.6-3.6 4.7-0.6 0.5-1.4 0.9-2.1 1.3q-0.8 0.4-1.6 0.8h0.4v5.4q0.5 0.2 1 0.2c3.1 0.4 4.7-2.9 7.3-3.8q0.1-0.1 0.3-0.1z"/><path class="E" d="m327.9 622.9c0.1 8.7 2 19.4 2.2 28.1 0.1 2.4-0.2 11.2-0.7 13.5-0.3 1.1 1.6 0.2 2.3 0.8 1.1 1 2.7 1.3 3.3-0.4 0.2-0.6 0.2-1.2 0.2-1.8 0-2.9 0.9-5.6 1.8-8.3 1.4-4.3 3-8.4 3.2-13 0.1-3.9-0.3-8.1-1.7-11.9-0.4-1-0.9-2-2-2.3z"/><path class="E" d="m333.2 673.2q0.4-0.7 0.8-1.4c0.6-1.4 2-2.4 1.9-4.1-0.1-1.3-0.7-2.8-0.7-4.1 0-1.6 0.1-2.7-0.8-3.8-0.5-0.7-1.3-0.9-2.1-0.7-0.8 0.2-1.4 0.7-1.8 1.4l-0.5 1.2c-0.3 4.4-3.6 8-6.1 11.5z"/><path class="E" d="m333.1 673.5q0.4-0.9 0.9-1.7c0.6-1.4 2-2.4 1.9-4.1 0-1-0.5-2.2-0.6-3.3q-0.1-0.4-0.1-0.8c0-1.6 0.1-2.7-0.8-3.8-0.5-0.7-1.3-0.9-2.1-0.7-0.8 0.2-1.4 0.7-1.8 1.4l-0.5 1.2c-0.2 3.3-2.2 6.2-4.1 8.8q-0.6 0.8-1.2 1.6v1.4z"/><path class="j" d="m336.3 667.7c0.2 1.1 0.1 2.3-0.7 3.1-0.3 0.2-0.7 0.4-1 0.6-0.9 0.8-1.3 1.8-1.9 2.8q-0.9 1.5-2 2.9c-0.6 0.7-1.1 1.2-2 1.6-0.3 0.2-0.7 0.4-1.1 0.5-0.6 0.1-1.2 0-1.8-0.1-0.8-0.2-1.6-0.4-2.2-0.9-0.7-0.4-1.2-1.1-1.2-1.9 0-0.6 0.2-1.1 0.5-1.6 0.6-1.3 1.5-2.6 2.5-3.7 0.1-0.1 0.3-0.3 0.5-0.4 0.2 0.7 0.3 1.4 1 1.9 0.8 0.5 1.9 0.7 2.8 0.4 1.3-0.3 2.4-1.3 3.2-2.4 0.6-0.7 1.3-1.6 1.6-2.5 0.4-1 0.8-3.6 0.8-3.6 0 0 0.4 1.3 0.6 1.7 0.1 0.5 0.3 1 0.4 1.6z"/><path class="j" d="m322 663.8c-5.9 2.5-10 8.2-13.5 2.5-1.2-1.8 0-2.4 1.8-3.5 0.5-0.2 1.9-0.9 1.9-0.9q-0.1 0.4 0.1 0.8c0.2 0.8 0.7 1.4 1.5 1.6 1.2 0.4 2.5-0.3 3.6-1 1.3-0.8 2.6-1.7 3.5-2.9 1.5-2 2.9-2.6 2.9-2.6 1.1 2.4 0.5 5-1.8 6z"/><path class="E" d="m319.1 549.1c4.3-5.4 4.3-11.5 1.8-13.1-2.2-1.5-6.7 1.1-12.2 10.5-1.3 2.2-6.5 9.7-7.6 14.3-0.7 3 2 4.2 3.2 4.1 3.7-0.3 6.4-5.2 14.8-15.8z"/><path class="i" d="m339.1 522.5c0.7 0.8 0.9 1.9 1 2.9 0.2 3-0.6 5.9-0.2 8.8 0.4 2.3 1.5 4.4 2.7 6.3 0.6 0.9 1.1 1.6 1.3 2.6 0.3 1.1 0.8 2.2 1.4 3.2 1.2 2.3 2.9 4.5 2.8 7-2.3 1-5 0.6-7.1-0.7-2.4-1.4-4-4-5.6-6.1-1.2-1.6-2.3-3.3-3-5.1-0.6-1.4-0.9-3-0.9-4.5 0-0.8 0.1-1.6 0.2-2.4q0.4-5.6 0.9-11.1c0 0.1-0.2 0.2-0.3 0 0-0.1 0-0.2 0.1-0.4z"/><path class="H" d="m319.4 624.5c0.8 2.1 3.5-0.3 4.7 1.7 0.6 0.9-2.5 0.9-1.9 1.8 0.8 1.1 1.1 1.5 2.5 1 2.4-0.7 6.3-5 6.5-10.2 0.1-2.7-0.2-6.7-0.1-9.5 0.1-5.7 3.5-22.4-8.3-25.5-1-0.3-1.6-2-2-2.8-0.5-1-0.9-2.8-1.8-3.4-2.7-2-4.5 5.6-4.7 6.9-0.6 3.5-1.6 21.1 5.1 40z"/><path class="E" d="m337.1 537.3c-2.3-1.1-3.1-1.6-5.6-2.2-0.3-0.1-1.7 0.4-2.1 0.3-2.9-0.6-6.1-0.5-8.8 0.8q-0.1 0-0.1 0v18.2h17.4z"/><path class="D" d="m345.7 545.9c-0.3-4.2-5.1-6.5-8.6-8.6-0.5 3.4-2 6.6-5.4 7.7-1.9 0.8-4.3 0-5.3-1.6q0 0-0.1 0c-1.3-1.8-1.5-4.1-1.4-6.3q0-0.9 0.1-1.8c0.1-0.7-0.2-0.5-0.8-0.5-1.3 0-2.5 0.4-3.7 0.8-0.5 0.1-0.9 0.3-1.4 0.6-0.3 0.2-0.6 0.6-0.9 1q-0.8 1.2-1.2 2.6c-0.3 0.8-0.4 1.7-0.6 2.6q-0.5 2-1.2 3.8c-0.6 1.5-1.6 2.8-2.1 4.3-0.5 1.5-0.7 3.2-0.5 4.9 0.3 2.5 1.6 4.8 2.4 7.3 1.2 4 1.1 8.4 0.6 12.5q-0.2 1.6-0.4 3.2c-0.1 0.6-0.2 0.7 0.2 1 0.8 0.6 2.1 0.8 3 1.1q1 0.4 2.1 0.7c1.9 0.5 3.9 0.8 6 0.9 3.8 0.2 7.8-0.6 10.9-3 0.4-0.3 0.6-0.4 0.7-0.8 0-0.3-0.1-0.8 0-1.1 0-1-0.2-2.1-0.2-3.2-0.2-2.2-0.2-4.5 0.2-6.7 1.1-6.7 5.6-12.4 7.4-19q0.3-1.3 0.2-2.4z"/><path class="E" d="m338.5 580.3c7.3 8.2 4.2 25 2 34.9-0.6 2.6-1.1 5.1-1.3 7.8q-0.3 4.2-0.7 8.5c0 0.9-0.1 1.8-0.5 2.6-1.7 4-7.5 0.6-9-1.9-1.3-2.1-1.7-4.6-2.1-7-0.9-6.3-1.5-15.5-1.9-21.8-0.2-2.9-0.9-6.5-0.3-9.3 0.4-2.4 1.8-4.7 3.5-6.4 2.8-2.8 6.7-4.4 10.6-4.4q-0.1 0.1-0.2 0.3z"/><path class="C" d="m315.1 579.2c-2 4.5-2.8 10.4-3 15.4-0.3 5.8 0.1 11.6-0.6 17.5-0.4 2.9-1 5.8-0.8 8.8 0.2 2.9 1.4 6 3.9 7.6 3 1.8 6.9 1 10.4 0.9 4.4-0.1 8.8 1 12.6 3.3 1.4 0.8 2.9 1.9 4.6 1.5 1.7-0.3 2.7-2.1 3.2-3.8 1.1-4 0.8-8.9 1.1-13 0.3-4.7 0.3-9.3-0.2-13.9-0.9-8.9-3.3-17.9-8.3-25.5-0.1 0.4-0.3 0.9-0.6 1.1-1.7 1.3-3.5 2.1-5.5 2.6-3.9 0.9-8.1 0.4-11.9-0.7-1.7-0.4-3.3-1.1-4.9-1.8z"/><path class="E" d="m336.2 538.1c0.2 6.4-11 6.5-10.8 0.5 0.2-8.4 0.7-9.4 4.4-10.7 1-0.4 2-0.6 3.1-0.7 3.9 0 2.4 2.1 2.2 3.6-0.4 4.4 1.1 5 1.1 7.3z"/><path class="E" d="m335.1 533.6c0.3 2 1.1 2.8 1.1 4.5 0.2 5.9-9.4 6.4-10.7 1.7 3.7-0.8 7.2-3 9.6-6.2z"/><path class="G" d="m329.8 527.9c1-0.4 2-0.6 3.1-0.7 3.9 0 2.4 2.1 2.2 3.6-0.1 1.2-0.1 2.1 0 2.8-2.4 3.2-5.9 5.4-9.6 6.2q-0.1-0.6-0.1-1.2c0.2-8.4 0.7-9.4 4.4-10.7z"/><path class="B" d="m331.5 533.9q0.5-0.4 1-0.9c1.1-1 2.3-2.1 3-3.4 2.4-4 2.5-9.5-0.9-13-2.4-2.5-6.2-3.5-9.6-2.6-0.9 0.3-1.7 0.7-2.6 1.1-0.7 0.4-1.4 0.8-1.9 1.4-0.4 0.4-0.7 0.8-0.9 1.3-0.3 0.5-0.6 1.1-0.7 1.7-0.7 2.6 1.1 5.3 0.1 7.8-0.3 0.6-0.6 1.1-0.8 1.7-0.2 0.6-0.2 1.2 0.1 1.7 0.3 0.5 0.7 0.8 0.8 1.3 0.3 0.7 0.4 1.5 0.7 2.3 0.2 0.8 0.4 1.6 0.8 2.3 1 1.8 2.5 1.9 4.3 1.2 2.4-0.9 4.7-2.3 6.6-3.9z"/><path class="h" d="m339.6 521.6c-0.2-5.1-1.7-6-3.6-7.6-1.9-1.6-4.4-2.3-6.9-2.2-2.5 0-4.9 0.9-7 2.2q-0.1 0.1-0.3 0.2c-1.1 0.7-2 1.5-2.6 2.7-0.3 0.6-0.5 1.3-0.7 2-0.2 1.3 1 1.8 2.1 2.2 1.5 0.5 3.7-0.2 5.3-0.4 0.7-0.1 1.5-0.1 2.2 0.1 0.7 0.1 1.4 0.7 1.5 1.4 0.2 0.7-0.2 1.5-0.4 2.2-0.3 1.5 0.4 3.1 1.7 3.9 0.7 0.5 1.2 0.6 2 0.2 0.8-0.3 1.5-0.9 2.3-0.4 0.7 0.5 0.4 1.4 0.3 2.1-0.1 0.1-0.4 1.1 0 1.1 0.4 0 4.3-3.6 4.1-9.7z"/><path class="h" d="m329.6 522.2c0.2 0.7-0.2 1.5-0.4 2.2-0.3 1.5 0.4 3.1 1.7 3.9 0.7 0.5 1.2 0.6 2 0.2 0.8-0.3 1.5-0.9 2.3-0.4 0.7 0.5 0.4 1.4 0.3 2.1-0.1 0.1-0.4 1.1 0 1.1 0.4 0 4.3-3.6 4.1-9.7-0.1-3-0.7-4.6-1.5-5.7 0 0-2.3 0.9-4.4 2.4-1.9 1.4-4.1 3.9-4.1 3.9z"/><path class="B" d="m334.7 526.2c1.8-0.1 2.2 2.1 1 3.7-0.3 0.5-0.9 0.9-1.4 1.3-3.1 2.7-3.9-0.2-2.9-1.1 2.3-2.1 1.2-3.7 3.3-3.9z"/><path class="E" d="m333.6 530.2c0.2-0.2 2.2-1.4 0.9-2.2-0.4-0.2-0.8 0.1-0.9 0.5 0 0.2 0 0.4 0 0.6q0 0.2-0.1 0.4c-0.2 0.3-0.8 0.5-0.7 1 0.1 0.3 0.7-0.2 0.8-0.3z"/><path class="j" d="m319.7 576.8l-1.3-0.8c0 1.2-0.9 2.6-1.9 3.2l1.3 0.8c1.1-0.6 1.9-2.1 1.9-3.2z"/><g clip-path="url(#cp16)"><path class="j" d="m319.7 576.8l-1.3-0.8q0 0.3-0.1 0.6l1.3 0.8q0.1-0.3 0.1-0.6z"/><path class="j" d="m319.6 577.4l-1.3-0.8c-0.2 0.8-0.6 1.5-1.1 2.1l1.3 0.7c0.5-0.5 1-1.3 1.1-2z"/><path class="j" d="m318.5 579.4l-1.3-0.7q-0.3 0.2-0.5 0.4l1.3 0.8q0.3-0.2 0.5-0.5z"/><path class="j" d="m318 579.9l-1.3-0.8q-0.1 0.1-0.2 0.1l1.3 0.8q0.1-0.1 0.2-0.1z"/></g><path class="j" d="m317.8 580l-1.3-0.8-0.8 0.4 1.4 0.8z"/><path class="M" d="m314.4 579.8l1.3 0.7c0.4 0.2 0.8 0.2 1.4-0.1l-1.3-0.8c-0.5 0.3-1 0.4-1.4 0.2z"/><path class="N" d="m317.1 580.4v0.3q-0.7 0.4-1.2 0.3v-0.4q0.5 0.2 1.2-0.2z"/><path class="j" d="m319.7 575.9l-1.3-0.8v0.9l1.3 0.8z"/><path class="O" d="m319.1 574.7l-1.3-0.8c0.3 0.2 0.6 0.6 0.6 1.2l1.3 0.8c0-0.6-0.2-1-0.6-1.2z"/><g clip-path="url(#cp17)"><path class="M" d="m319.1 574.7l-1.3-0.8q0.3 0.2 0.5 0.7l1.3 0.7q-0.1-0.4-0.5-0.6z"/><path class="M" d="m319.6 575.3l-1.3-0.7q0 0.2 0.1 0.5l1.3 0.8q0-0.3-0.1-0.6z"/><path class="j" d="m319.7 575.9l-1.3-0.8q0 0 0 0l1.3 0.8q0 0 0 0z"/></g><path class="O" d="m319.3 574.4l-1.3-0.8c-0.4-0.2-0.9-0.2-1.5 0.2l1.3 0.7c0.6-0.3 1.1-0.3 1.5-0.1z"/><g clip-path="url(#cp18)"><path class="O" d="m319.3 574.4l-1.3-0.8q-0.5-0.2-1.1 0l1.3 0.7q0.7-0.2 1.1 0.1z"/><path class="O" d="m318.2 574.3l-1.3-0.7q-0.2 0-0.4 0.2l1.3 0.7q0.2-0.1 0.4-0.2z"/></g><path class="N" d="m317.1 575v0.3l0.7-0.5c1-0.6 1.9-0.1 1.9 1.1v0.9c0 1.1-0.8 2.6-1.9 3.2l-0.7 0.4v0.3l0.7-0.4c1.2-0.7 2.1-2.3 2.1-3.7v-0.9c0-1.3-0.9-1.8-2.1-1.2z"/><path class="O" d="m317.1 575l-1.4-0.8v0.3l1.4 0.8z"/><path class="O" d="m317.8 574.5l-1.3-0.7-0.8 0.4 1.4 0.8z"/><path class="E" d="m319.5 581.9c-1.5 0.2-2.5-0.5-3.4-1.7-2.9-3.8-20.3-15-14.2-19.7 1-0.7 2.9-1.3 4.1-0.8 1.4 0.7 8.3 10.9 13.7 16.1 0.6 0.6 0.2 1.1 0.1 1.8-0.1 1.3 0.8 4.2-0.3 4.3z"/><path class="B" d="m321 573.7c0.7-1.4 4.9-1.6 6.3-1.7 4.9-0.2 20.8-8.8 21.3-1 0.1 1.1-0.5 3.1-1.6 3.7-1.3 0.9-13.7 1-21 2.5-0.8 0.2-1-0.4-1.6-0.9-1-0.8-3.9-1.6-3.4-2.6z"/><path class="E" d="m326.4 584.2c0.6-0.2 1.1-1.1 0.5-1.2 0.3-0.2 0.5-0.6 0.3-0.9-0.1-0.4-0.7-0.4-1.1-0.5-0.6-0.2-1.1-0.5-1.7-0.8-1.1-0.7-1.8-2-1.6-2.1 0.5-0.1 1.1-0.1 1.6 0.2 0.2 0.3 0.4 0.6 0.6 0.8 0.2 0.1 0.5 0.2 0.8 0.2q0.1 0.1 0.3 0c0.1 0 0.2-0.3 0.1-0.5 0-0.3-0.2-0.6-0.3-0.8-0.5-0.7-0.9-1.3-1.6-1.6-0.2-0.1-0.5-0.2-0.7-0.3-0.3-0.1-0.5-0.2-0.8-0.3-0.3 0-2.4-0.4-3.2-0.4-3.4-0.9-4.6 0.9-4.1 3 0.2 1.1 1.9 3.1 2.9 4.1q0 0.1 0 0.1 0.1 0.1 0.2 0.2 0 0 0 0c1.5 1.4 4.7 4 5.8 2.6q-0.1-0.2-0.2-0.3c2.1-0.2 1-1.1 2.2-1.5z"/><path class="P" d="m319.1 575.1v-0.4q0 0.1-0.2 0.3v0.4q0.2-0.2 0.2-0.3z"/><g clip-path="url(#cp19)"><path class="P" d="m318.9 575v0.4q0.2-0.2 0.2-0.3v-0.4q0 0.1-0.2 0.3z"/></g><path class="P" d="m314.1 575.2v0.4q0 0.1 0.2 0.3v-0.4q-0.2-0.2-0.2-0.3z"/><g clip-path="url(#cp20)"><path class="P" d="m314.1 575.2v0.4q0 0 0.1 0.1v-0.4q-0.1-0.1-0.1-0.1z"/><path class="P" d="m314.2 575.3v0.4q0 0.1 0.1 0.1v-0.4q-0.1 0-0.1-0.1z"/><path class="P" d="m314.3 575.4v0.4q0 0 0 0.1v-0.4q0-0.1 0-0.1z"/></g><path class="P" d="m314.3 575.5v0.4l1.4 0.7v-0.4z"/><path class="P" d="m316.7 576.2v0.4l2.2-1.2v-0.4z"/><path class="P" d="m315.7 576.2v0.4c0.3 0.2 0.7 0.2 1 0v-0.4c-0.3 0.2-0.7 0.2-1 0z"/><g clip-path="url(#cp21)"><path class="P" d="m315.7 576.2v0.4q0.2 0.1 0.4 0.2v-0.4q-0.2-0.1-0.4-0.2z"/><path class="P" d="m316.1 576.4v0.4q0.2 0 0.4-0.1v-0.4q-0.2 0.1-0.4 0.1z"/><path class="P" d="m316.5 576.3v0.4q0.1 0 0.2-0.1v-0.4q-0.1 0.1-0.2 0.1z"/></g><path class="Q" d="m314.3 574.9c-0.2 0.1-0.2 0.4 0 0.6l1.4 0.7c0.3 0.2 0.7 0.2 1 0l2.2-1.2c0.3-0.2 0.3-0.5 0-0.6l-1.3-0.8c-0.3-0.2-0.8-0.2-1 0z"/><path class="h" d="m314.2 575.2q0 0.1 0.2 0.2l1.3 0.7q0.2 0.1 0.5 0.1 0.2 0 0.4-0.1l0.5-0.2 1.8-1q0 0 0-0.1 0.1 0 0.1-0.1 0-0.1-0.1-0.2l-0.1-0.1-1.3-0.7q0 0 0 0-0.2-0.1-0.4-0.1-0.2 0-0.4 0 0 0.1-0.1 0.1l-0.1 0.1-2.1 1.2q-0.2 0.1-0.2 0.2z"/><path class="R" d="m314.2 575.2q0 0.1 0.2 0.2l1.3 0.7q0.2 0.1 0.5 0.1 0.2 0 0.4-0.1l-2.2-1.1c0 0-0.2 0.1-0.2 0.2z"/><path class="O" d="m314.2 580.1l1.3 0.8c-0.3-0.3-0.6-0.7-0.6-1.4l-1.3-0.8c0 0.7 0.2 1.2 0.6 1.4z"/><g clip-path="url(#cp22)"><path class="O" d="m314.9 579.5l-1.3-0.8q0 0.1 0 0.1l1.3 0.7q0 0 0 0z"/><path class="O" d="m314.9 579.5l-1.3-0.7q0 0.3 0.1 0.6l1.3 0.8q-0.1-0.3-0.1-0.7z"/><path class="O" d="m315 580.2l-1.3-0.8q0.2 0.5 0.5 0.7l1.3 0.8q-0.3-0.2-0.5-0.7z"/></g><path class="O" d="m314.9 578.6l-1.3-0.7v0.8l1.3 0.8z"/><path class="O" d="m315.7 576.3l-1.4-0.7c-0.4 0.7-0.7 1.6-0.7 2.3l1.3 0.7c0-0.7 0.3-1.5 0.8-2.3z"/><g clip-path="url(#cp23)"><path class="O" d="m315.7 576.3l-1.4-0.7c-0.3 0.5-0.5 1-0.6 1.6l1.3 0.7c0.1-0.5 0.3-1 0.7-1.6z"/><path class="O" d="m315 577.9l-1.3-0.7q-0.1 0.3-0.1 0.7l1.3 0.7q0-0.3 0.1-0.7z"/></g><path class="N" d="m315.7 576.3l0.1 0.2c-0.4 0.6-0.6 1.4-0.6 2v0.9c0 0.6 0.3 1.1 0.7 1.2v0.4c-0.6-0.1-1-0.6-1-1.5v-0.9c0-0.7 0.3-1.5 0.8-2.3z"/><g style="opacity:.5"><path class="Q" d="m317.3 574l0.9 0.5 0.2-0.1-0.9-0.5z"/><path class="Q" d="m315.3 575.2l0.9 0.5 0.2-0.1-0.9-0.5z"/><path class="Q" d="m317.7 574.7c0.2-0.1 0.4-0.1 0.5 0 0.2 0.1 0.2 0.2 0 0.3-0.1 0.1-0.3 0.1-0.5 0-0.1-0.1-0.1-0.2 0-0.3z"/><path class="Q" d="m317.4 575l0.4 0.2h0.1l-0.4-0.3z"/><path class="Q" d="m317.1 574.3c0.1 0 0.3 0 0.5 0 0.1 0.1 0.1 0.2 0 0.3-0.2 0.1-0.4 0.1-0.5 0-0.1-0.1-0.1-0.2 0-0.3z"/><path class="Q" d="m316.7 574.6l0.4 0.2h0.1l-0.4-0.2z"/><path class="Q" d="m316.4 574c0.2-0.1 0.4-0.1 0.5 0 0.2 0 0.2 0.2 0 0.2-0.1 0.1-0.3 0.1-0.5 0-0.1 0-0.1-0.2 0-0.2z"/><path class="Q" d="m316.1 574.2l0.4 0.3v-0.1l-0.4-0.2z"/><path class="Q" d="m316.9 575.2c0.1-0.1 0.4-0.1 0.5 0 0.1 0.1 0.1 0.2 0 0.3-0.1 0.1-0.4 0.1-0.5 0-0.1-0.1-0.1-0.2 0-0.3z"/><path class="Q" d="m316.5 575.5l0.4 0.2h0.1l-0.4-0.3z"/><path class="Q" d="m316.2 574.8c0.2-0.1 0.4-0.1 0.5 0 0.2 0.1 0.2 0.2 0 0.3-0.1 0.1-0.3 0.1-0.5 0-0.1-0.1-0.1-0.2 0-0.3z"/><path class="Q" d="m315.9 575.1l0.4 0.2h0.1l-0.4-0.3z"/><path class="Q" d="m315.6 574.4c0.1 0 0.3 0 0.5 0 0.1 0.1 0.1 0.3 0 0.3-0.2 0.1-0.4 0.1-0.5 0-0.1 0-0.1-0.2 0-0.3z"/><path class="Q" d="m315.2 574.7l0.4 0.3 0.1-0.1-0.4-0.2z"/></g><path class="S" d="m316.5 573.8l0.6 2.1 1.8-1q0 0 0-0.1 0.1 0 0.1-0.1 0-0.1-0.1-0.2l-0.1-0.1-1.3-0.7c0 0-0.3-0.1-0.4-0.1q-0.2 0-0.4 0 0 0.1-0.1 0.1z"/><path class="B" d="m349.1 553.7c-0.1-6.9-4-11.6-6.9-11.3-2.7 0.3-4.5 5.1-2.8 15.8 0.4 2.6 1.2 9.8 3.3 14.1 1.4 2.7 3.7 3 4.5 2.3 2.7-2.7 2.1-7.4 1.9-20.9z"/><path class="B" d="m320.6 573c-0.2 0.1-0.3 0.1-0.6 0.4-0.2 0.2-0.3 0.6-0.4 0.9 0 0.5 0.2 1 0.5 1.4 0.1 0 0.3 0.1 0.3 0.2 0.1 0.1 0 0.1-0.1 0.2-0.6 0.6-0.2 1.7 1.2 1.9 0 2 5.4 0.8 7.1-0.4 0.6-0.4 1.2-1 1.4-1.6 0.5-1.5-1-3.4-2.4-3.8-1.1-0.2-2.3-0.4-3.4-0.5-0.8 0-1.6 0-2.4 0.3-0.4 0.1-0.8 0.4-1 0.8q0 0.1-0.2 0.2z"/><path class="B" d="m320.6 571.3c-0.1 0.2-0.1 0.4 0.1 0.6 0.1 0.2 0.3 0.4 0.5 0.4 0.2 0.1 0.4 0.1 0.6 0.2 0.8 0.6 1.8 1 2.8 1.1 0.3 0 0.6 0 0.9-0.1 0.3-0.1 0.6-0.2 0.7-0.5 0.1-0.2 0.1-0.4 0-0.6q-0.1-0.1-0.3-0.2-1.2-0.5-2.5-0.9c-0.2 0-0.3 0-0.5-0.1q-0.3-0.1-0.6-0.2c-0.4-0.1-0.9-0.1-1.3 0q-0.2 0.1-0.4 0.2 0 0.1 0 0.1z"/><path class="B" d="m322.1 572.3c-0.9 0-1.8 0.2-2.7 0.3q-1.4 0.2-2.8 0.6-0.4 0.1-0.8 0.3c-0.3 0.2-0.9 0.6-0.7 1q0.2 0.1 0.3 0.2c0.4 0.2 0.7 0.2 1.1 0.2 0.9 0 1.9-0.3 2.7-0.6q1.5-0.3 2.9-0.7z"/><path class="T" d="m291.8 558.6l45.6 26.4v-34.9l-45.6-26.3z"/><path class="U" d="m294.9 534.1l39.5 22.8v-6l-39.5-22.8z"/><path class="U" d="m328.1 576.7l3.3 2c1.3 0.7 2.3 0.1 2.3-1.4v-4.3c0-1.4-1-3.2-2.3-3.9l-3.3-2c-1.3-0.7-2.3-0.1-2.3 1.3v4.4c0 1.4 1 3.2 2.3 3.9z"/><path class="I" d="m327.8 572.6c0 1.2 0.9 2.8 2 3.4 1.1 0.6 1.9 0.1 1.9-1.1 0-1.3-1.9-5.1-1.9-5.1 0 0-2 1.6-2 2.8z"/><path class="U" d="m318 570.9l3.4 2c1.2 0.7 2.3 0.1 2.3-1.4v-4.3c0-1.4-1.1-3.2-2.3-4l-3.4-1.9c-1.2-0.7-2.3-0.1-2.3 1.3v4.4c0 1.4 1.1 3.2 2.3 3.9z"/><path class="I" d="m316.7 565.4c0 2 1.4 4.4 3.1 5.4 1 0.6 1.9 0.5 2.5-0.1q-0.4-0.1-0.9-0.3c-1.7-1-3.1-3.4-3.1-5.3 0-0.8 0.3-1.4 0.6-1.8-1.2-0.3-2.2 0.5-2.2 2.1z"/><path class="I" d="m320.1 564.4l-0.3 0.4-0.5-0.2 0.4 0.7-0.1 0.5h0.5l0.5 0.6-0.1-0.7 0.4-0.2-0.6-0.4z"/><path class="I" d="m321.4 568.2l-0.2 0.3-0.4-0.1 0.3 0.5v0.4h0.3l0.4 0.4-0.1-0.5 0.3-0.1-0.4-0.3z"/><path class="I" d="m322.4 566l-0.2 0.4-0.5-0.2 0.3 0.6-0.1 0.6 0.5-0.1 0.4 0.6v-0.7l0.3-0.2-0.5-0.3z"/><path class="U" d="m307.9 565.1l3.3 1.9c1.3 0.7 2.3 0.1 2.3-1.3v-4.3c0-1.5-1-3.3-2.3-4l-3.3-1.9c-1.3-0.8-2.3-0.2-2.3 1.3v4.3c0 1.5 1 3.2 2.3 4z"/><path fill-rule="evenodd" class="I" d="m307.2 559.3l0.7 0.3q0-0.1 0.1-0.2l-0.5-0.8c0-0.2 0-0.3 0-0.3l0.5-0.3c0.1-0.1 0.2 0 0.3 0.2l0.4 0.8q0.2 0 0.3 0v-0.8c0-0.1 0.1-0.2 0.2-0.1l0.7 0.4c0.1 0 0.2 0.2 0.2 0.3v0.8q0.1 0.1 0.3 0.3l0.4-0.3c0.1 0 0.2 0.1 0.3 0.2l0.5 0.8c0.1 0.1 0.1 0.3 0 0.3l-0.5 0.3q0.1 0.2 0.2 0.4l0.6 0.4c0.1 0 0.2 0.2 0.2 0.3v0.8c0 0.1-0.1 0.1-0.2 0.1l-0.6-0.4q0 0.2-0.1 0.3l0.4 0.8c0.1 0.1 0.1 0.3 0 0.3l-0.5 0.3c0 0-0.2-0.1-0.2-0.2l-0.4-0.7q-0.2 0-0.4 0v0.6c0 0.2-0.1 0.2-0.2 0.1l-0.6-0.3c-0.2-0.1-0.2-0.2-0.2-0.4v-0.6q-0.2-0.2-0.4-0.4l-0.4 0.2c-0.1 0.1-0.2 0-0.3-0.1l-0.5-0.8c0-0.2 0-0.3 0-0.3l0.5-0.3q-0.1-0.2-0.2-0.5l-0.6-0.3c-0.1-0.1-0.2-0.2-0.2-0.4v-0.7c0-0.1 0.1-0.2 0.2-0.1zm2.4 3.2c0.5 0.3 1 0 1-0.6 0-0.7-0.5-1.4-1-1.8-0.6-0.3-1.1 0-1.1 0.6 0 0.7 0.5 1.4 1.1 1.8z"/><path class="U" d="m297.7 559.2l3.4 1.9c1.3 0.8 2.3 0.2 2.3-1.3v-4.3c0-1.5-1-3.2-2.3-4l-3.4-1.9c-1.2-0.7-2.3-0.1-2.3 1.3v4.3c0 1.5 1.1 3.3 2.3 4z"/><path class="I" d="m299.4 558.3c1.3 0.7 2.3 0.1 2.3-1.4 0-0.7-0.2-1.5-0.7-2.2-0.1-0.3-0.3-0.4-0.5-0.3-0.1 0.1-0.1 0.3 0 0.6 0.3 0.5 0.5 1 0.5 1.5 0 1-0.7 1.4-1.6 0.9-0.8-0.5-1.5-1.7-1.5-2.7 0-0.5 0.1-0.8 0.4-1 0.2-0.1 0.2-0.4 0-0.6-0.1-0.2-0.4-0.4-0.5-0.3-0.4 0.2-0.7 0.8-0.7 1.5 0 1.4 1.1 3.2 2.3 4z"/><path class="I" d="m299.4 555.9c0.2 0.1 0.4 0 0.4-0.2v-2.6c0-0.2-0.2-0.5-0.4-0.6-0.2-0.1-0.3 0-0.3 0.2v2.5c0 0.3 0.1 0.6 0.3 0.7z"/><path class="U" d="m328.2 565.5l3.3 2c1.3 0.7 2.3 0.1 2.3-1.4v-4.3c0-1.4-1-3.2-2.3-3.9l-3.3-2c-1.3-0.7-2.3-0.1-2.3 1.3v4.4c0 1.4 1 3.2 2.3 3.9z"/><path fill-rule="evenodd" class="I" d="m331.1 559.7c0-0.4 0.3-0.6 0.6-0.4 0.4 0.2 0.7 0.7 0.7 1.2 0 0.4-0.3 0.5-0.7 0.3-0.3-0.2-0.6-0.7-0.6-1.1zm0.1 0.1c0 0.3 0.2 0.7 0.5 0.9 0.3 0.2 0.6 0 0.6-0.3 0-0.3-0.3-0.8-0.6-0.9-0.3-0.2-0.5-0.1-0.5 0.3z"/><path class="I" d="m329.6 558.5c0.9 0.5 1.3 1.4 1.3 2.3v3.3c0 1-0.4 1.4-1.3 0.9-0.8-0.5-1.2-1.3-1.2-2.3v-0.8l0.6 0.4v0.8c0 0.5 0.2 1 0.6 1.3 0.5 0.2 0.7 0 0.7-0.6v-3.3c0-0.6-0.2-1.1-0.7-1.3-0.4-0.3-0.6-0.1-0.6 0.5v0.6l-0.6-0.3v-0.6c0-0.9 0.4-1.4 1.2-0.9z"/><path class="U" d="m318 559.7l3.4 1.9c1.2 0.7 2.3 0.2 2.3-1.3v-4.3c0-1.5-1.1-3.3-2.3-4l-3.4-1.9c-1.2-0.8-2.3-0.2-2.3 1.3v4.3c0 1.5 1.1 3.3 2.3 4z"/><path fill-rule="evenodd" class="I" d="m320.8 553.8c0-0.4 0.3-0.6 0.6-0.4 0.4 0.2 0.7 0.7 0.7 1.1 0 0.4-0.3 0.6-0.7 0.4-0.3-0.2-0.6-0.7-0.6-1.1zm0.1 0c0 0.4 0.2 0.8 0.5 0.9 0.3 0.2 0.6 0.1 0.6-0.3 0-0.3-0.3-0.7-0.6-0.9-0.3-0.2-0.5 0-0.5 0.3z"/><path class="I" d="m319.6 555.8v-2.3l-1.5-0.9v-0.7l2.2 1.3v6.3l-0.7-0.3v-2.8l-1.2-0.7v-0.7z"/><path class="U" d="m307.9 553.8l3.3 2c1.3 0.7 2.3 0.1 2.3-1.4v-4.3c0-1.4-1-3.2-2.3-4l-3.3-1.9c-1.3-0.7-2.3-0.1-2.3 1.3v4.3c0 1.5 1 3.3 2.3 4z"/><path fill-rule="evenodd" class="I" d="m306.9 548.4l2.7-1.7 2.7 4.8-0.8-0.4v3.3l-3.8-2.2v-3.3zm2 3.4l1.3 0.8v-1.9l-1.3-0.7z"/><path class="U" d="m297.7 548l3.4 1.9c1.3 0.7 2.3 0.1 2.3-1.3v-4.3c0-1.5-1-3.3-2.3-4l-3.4-2c-1.2-0.7-2.3-0.1-2.3 1.4v4.3c0 1.4 1.1 3.2 2.3 4z"/><path class="I" d="m300.1 541.2l-0.1 4.8-1.1-0.7-0.2-4.9zm-0.1 6.4q0 0.2-0.1 0.1l-0.9-0.6q-0.2-0.1-0.2-0.3v-1c0-0.1 0-0.2 0.2-0.1l0.9 0.5q0.1 0.1 0.1 0.3z"/><path class="j" d="m591.1 724.1q-0.4 0.2-0.6 0.6c-0.2 0.2-0.2 0.5-0.2 0.8 0.1 1.5 0.6 2.8 1.2 4.2 0 0.2 2.4-0.7 2.6-0.8q0.9-0.6 1.8-1.3c0.6-0.5 1-1 1.5-1.6q0.2-0.2 0.3-0.4c0.1-0.4-0.1-0.8-0.4-1.1-0.4-0.2-0.8-0.3-1.2-0.4-1.1-0.1-2.2-0.2-3.3-0.1-0.5 0-1.1-0.1-1.7 0.1z"/><path class="j" d="m589.3 727.7c-0.5 0.7-1.1 1.4-1.7 2.1-0.5 0.5-1.1 0.9-1.3 1.5-2.1 2.1-0.5 3.1-0.1 6.9 0.2 1.7 0.1 0.4 0 2.5 0 0.2 0 0.3 0.1 0.4q0.1 0.1 0.2 0.2c0.6 0.2 1.2 0.2 1.6-0.2 0.3-0.5 0.1-1.1 0.1-1.6-0.3-3 1.9-5 2.1-8.6 0.1-1.7-0.4-4-1-3.2z"/><path class="j" d="m588.4 725.8q-0.1 0-0.3 0c-0.4 0.1-0.9 0.4-1.3 0.5-1.7 0.9-3.1 2.1-4.8 3-0.5 0.3-1 0.5-1.6 0.7-0.7 0.2-1.5 0.2-2.3 0.3q-1.6 0.1-3.2 0.3c-0.9 0.1-1.8 0.2-2.6 0.4-0.8 0.2-1.6 0.5-1.8 1.3-0.2 0.6-0.1 1.1 0.2 1.6q0.1 0.3 0.3 0.5 0.2 0.2 0.4 0.3 0.5 0.4 1 0.8 0.7 0.5 1.4 0.9c0.4 0.3 0.9 0.5 1.3 0.8 0.8 0.4 1.6 0.9 2.5 0.9 1.3 0 2.5-0.7 3.7-1.2q0.6-0.4 1.3-0.6l1.8-3.4 5.4-3.8q-0.1-0.3-0.2-0.6-0.4-1.1-0.8-2.1c-0.1-0.3-0.2-0.5-0.4-0.6z"/><path class="B" d="m597.8 606.1c0.1-8 4.3-13.5 7.5-13.1 3.1 0.3 5.1 5.9 3.3 18.4-0.5 3.1-1.4 11.4-3.7 16.4-0.7 1.5-1.4 2.7-0.9 8.7 0.2 1.5 3 12.9 2.8 14.1-0.1 1.1 0.5 9.2-0.4 8.6-1.4-1.1-4.6-11.8-4.8-12-3.1-3.1-4-25.3-3.8-41.1z"/><path class="G" d="m604.4 707.3c0.9-3 0.9-6.2 0.5-9.4-0.3-3.1-1.2-6.2-2.1-9.2-0.2-0.7-0.5-1.5-0.5-2.3 0-0.6 0.2-1 0.2-1.6 0.1-1.6-0.9-3.2-1.1-4.8-0.1-1-0.2-2.2-0.8-3.1-1.2-1.5-7.7-11.9-9.4-11-1.3 0.8-2.4 5.8-3.2 7.1-0.7 1.3 3.4 9.5 3.4 11q0 2.6 0.4 5.2c0.8 6.5 2.8 15.1 3.7 24.5 0 5.9 0.1 7.7 0 9.9 0 0.8-0.1 1.5 0.2 2.2 0.3 0.9 1 1.7 2 2 1.6 0.5 4.4-0.5 5.1-2.1 0.7-1.4 0.2-3-0.1-4.5-0.4-1.9-0.4-5-0.2-7 0.6-3.6 1.3-4.7 1.9-6.9z"/><path class="m" d="m604.7 610.6c0.9-3.4 1.1-6.9 0.9-10.4-0.2-2.7 0.2-6.7-3.1-7.9-1.7-0.6-4 0.1-5.5 1.1-0.4 0.3-2.3 1.4-2.7 1.6-2.7 1.4-5.2 2.9-7.7 4.5-0.2 0.1-7.1 4-7.6 4.4-0.8 0.6-1.6 1.2-2.4 1.9-0.6 0.6-0.9 1.3-1.4 1.8-0.6 0.6-1 1-1.3 1.7-0.8 1.4-1.5 2.8-1.9 4.3-0.9 3.1-0.6 6.5 1 9.4 0.3 0.7 0.8 1.3 1.2 2q0.5 1.2 0.8 2.4c0.5 1.6 0.7 3.2 0.8 4.9 0.3 2.9 0.2 5.9-0.2 8.8-0.1 0.5-0.1 1 0.1 1.4 0.3 0.5 1 0.7 1.5 0.7 2.4 0.3 3.6 4.5 5.8 3.7 3.8-1.3 8.3-0.6 11.8-2.7 2.5-1.5 6.7 1.3 5.9-2.3-0.3-1.2-0.2-2.7 0-3.9 0.3-1.3 0.8-2.4 0.3-3.8-0.2-0.5-0.5-1-0.8-1.5-0.6-1.3-0.6-2.8-0.4-4.3 0.1-1.5 0.4-3.1 0.8-4.6q0.6-2.7 1.5-5.4c0.8-2.2 1.7-4.4 2.3-6.6q0.2-0.6 0.3-1.2z"/><path class="E" d="m591 700.8c-0.2-3-0.7-5.9-1.8-8.7-0.3-1-0.9-2.1-1.9-2.3l-8.9-4.9c0.2 0.1 0.1 2.3 0.1 2.6 0 0.8 0.1 1.7 0.1 2.6 0 1.1-0.2 2.2-0.1 3.3 0.6 3.6 0.3 7.1 0.5 10.6 0.2 5.2 1.9 10.2 2.4 15.4 0.3 2.3 0.4 4.7 1.1 6.9 0.2 0.6 0.6 1.4 1.1 1.9v-4.1l4.5-1.9c0.7-4.9 2.1-7.9 2.9-12.8 0.4-2.9 0.1-5.7 0-8.6z"/><path class="j" d="m603.9 682.2c-0.3 2-2.2 3.3-3.9 4-0.6 0.2-6 2.2-6.3 1.4-0.6-1.8-0.9-3.7-1.1-5.6q-0.4-3-0.8-6c-0.2 2.8-0.2 5.4-0.4 8.1-0.1 1.4 0.1 2.8 0.2 4.2 0 0.2 0 0.3-0.1 0.5-0.1 0.2-0.3 0.3-0.4 0.3-2.9 1.5-11.3 6.1-14 2.3-0.5-0.7-0.7-1.5-0.8-2.2-2.3-10-4.3-40.3 1.3-45 1-0.9 2.6-0.9 4-0.9 6.2-0.2 13-1.9 17.5-6.1 0.5-0.4 2-2.7 2-2.7 7.2 14.3 6 27.9 2.8 47.7z"/><path class="B" d="m573.1 616.5c0.1-8 4.4-13.5 7.6-13.1 3 0.3 5 5.9 3.2 18.4-0.5 3-1.4 11.4-3.7 16.4-1.5 3.2-4.1 3.5-5 2.6-1.1-1-2.4 2.4-2.8 0.5-0.6-3.8 0.6-14.5 0.7-24.8z"/><path class="B" d="m597.3 588.6q0.1 1.6 0.2 3.2c0 0.9 0.1 1.8 0.4 2.6 0.4 1 0.9 1.4 0.8 2.5-0.1 1.2-0.6 2.2-1.4 3-1.5 1.6-3.5 2.7-5.6 3.2-1.4 0.2-3.1 0.1-4.4-0.6-1.8-1-1.3-2.4-1.2-4.2 0.2-2 0.1-4.5-1.6-6.2z"/><path class="B" d="m580.8 573.6c-0.7 0.8-1.3 1.7-1.4 2.8-0.4 2.1 0.3 4.2 0.1 6.2-0.2 1.9 0.8 4.1 1.3 5.9 0.3 1.1 0.7 2.3 1.7 2.9 0.6 0.3 1.4 0.3 2 0.7 0.4 0.2 0.6 0.5 1 0.8 1 0.8 2.8 0.4 3.9 0.2 1.2-0.1 2.4-0.3 3.5-0.8 2-0.9 3.4-2.9 4.6-4.7 9.9-15.4-10-22-16.7-14z"/><path class="j" d="m599.5 571.5c-0.2-0.4-0.4-0.8-0.7-1.2-1.3-1.7-3.1-2.9-5-3.7-2.5-0.8-5.1-0.9-7.7-0.4q-0.7 0.2-1.5 0.5c-0.9 0.4-1.7 1.1-2.4 1.7-0.8 0.8-1.9 1.5-2.5 2.4-0.5 1-1 2.1-1 3.2 0.1 0.5 0.3 0.9 0.6 1.4 0.2 0.3 0.4 0.6 0.6 0.9 0.5 0.6 0.6 1.4 1.1 2.1 0.6 0.8 1.1 1.5 1.4 2.6 0.1 0.3 0.1 0.7 0.3 1 0.2 0.4 0.5 0.6 0.9 0.6 0.4 0 0.7-0.3 1-0.5 0.7-0.4 1.4-0.6 1.9 0.1 0.4 0.5 0.4 1.3 0.6 1.9 0.2 0.9 0.2 1.7 0.3 2.6 0.1 0.9 0.4 1.8 1 2.5 1.4 1.6 4.1 1.5 5.9 1.1 0.7-0.1 1.4-0.2 2-0.5 3.2-1.5 5.1-5.9 5.5-9.2q0.1-1.1 0.1-2.3c0-0.8 0-1.6-0.2-2.4-0.3-1.1-1-2.2-1.6-3.2-0.3-0.4-0.4-0.8-0.6-1.2z"/><path class="E" d="m583.8 731.1q0.6-0.4 1.2-0.9c1-0.9 1.8-2 2.7-3 0.3-0.4 0.6-0.8 0.7-1.3 0.1-0.5-0.1-0.8-0.3-1.3q-0.1-0.6-0.1-1.3c0-0.1 0.1-1.1 0.1-1.1l-7-5.2q0.3 2.9 0.3 5.9 0 1.4 0 2.9c0 0.8-0.1 1.8-0.4 2.6-0.3 0.6-0.9 1.1-1.3 1.6-0.2 0.2-0.4 0.5-0.5 0.8 0 0.3 0.1 0.7 0.4 0.9 0.5 0.5 1.3 0.6 2 0.4q1.2-0.3 2.2-1z"/><path class="B" d="m565.1 657.6c-0.2 0.8-0.3 1.7-0.1 2.5 0.3 0.8 1.2 1.5 2 1.2 0.4-0.1 0.7-0.4 1-0.7 6.6-7 11.1-15.9 12.8-25.4 0.1-0.4 0.2-1-0.1-1.3-0.2-0.3-0.6-0.4-1-0.5-1.9-0.3-3.8-1.8-5.4-0.3-1.3 1.3-2.7 6.5-3.4 8.2-2.2 5.5-4.7 10.4-5.8 16.3z"/><path class="B" d="m563.4 659c-0.5 0.3-1 0.6-1.5 1.1q-1.4 1.4-2.5 3.2c-0.1 0.3-0.3 0.6-0.3 0.9 0.1 0.3 0.3 0.6 0.6 0.6 0.5 0.1 0.9-0.8 1.4-0.6q-1.1 3-2.3 6.1c-0.2 0.5-0.3 1.3 0.3 1.5 0.2 0 0.3 0 0.5 0.1 0.5 0.2 0.3 0.9 0.2 1.4-0.1 0.4 0.1 1.2 0.6 1 0.2 0 0.2-0.1 0.3-0.3q0.4-0.4 0.6-0.9c0.6 0.1 0.5 1.3 1.1 1.4 0.3 0 0.6-0.4 0.7-0.8q0.4-1.3 0.8-2.5c0.3 0.1 0 0.7 0.1 1.1 0.1 0.4 0.6 0.5 1 0.4 0.3-0.2 0.6-0.5 0.8-0.8 1.3-2.2 1.5-4.9 2.4-7.3 0.4-1.1 0.9-2 1-3.2 0.2-1 0.8-2.2 1.3-3.1 0.4-0.6 0.7-1.1 0.9-1.7 0.3-0.8 0.2-1.6 0.1-2.4-0.1-0.2-0.2-0.5-0.3-0.7-0.2-0.2-0.4-0.3-0.6-0.4-0.8-0.3-1.5-0.5-2.3-0.4-0.8 0.1-1.6 0.4-2.1 1-0.3 0.5-0.5 1.1-0.7 1.6-0.2 0.9-0.5 1.7-0.9 2.5-0.4 0.5-0.8 0.9-1.2 1.2z"/><path class="j" d="m579.3 733.5c-0.3-0.1-1.7-0.2-2.1-0.1-0.8 0.1-1.6 0.2-2.4 0.4q-0.1 0.1-0.2 0.2c-0.1 0.1-0.1 0.3-0.1 0.5q0.2 1 0.6 1.9c0.2 0.6-0.1 0.2 0.6 0.4 1.3 0.4 2.9 1.2 2.9 1.2 1.5-0.4 2.9-0.9 4.3-1.6 1.1-0.6 2.3-1 3.5-1.4 0.9-0.3 1.9-0.6 2.6-1.3 0.4-0.4 0.6-0.8 0.8-1.3 0.5-1.2 0.6-2.5 0.3-3.7q-0.2-0.9-0.6-1.8c-0.2-0.4-0.6-1.2-1-1.4-0.1 1.8-1.8 5.3-4.1 6.7-0.5 0.4-3.2 1.8-5.1 1.3z"/><path class="j" d="m593.3 725.7c0.7-0.4 1.4-0.8 2-1.4 0.6-0.6 1-1.4 1.7-2 0.8-0.8 2-1.2 3.2-1.2q0.5 0 1.1 0.2c0.7 0.2 1.4 0.7 1.8 1.4 0.8 1.5 0.4 4-0.9 5.2-0.8 0.7-1.8 1.1-2.9 1.1-0.6 0.1-0.9 0.1-1.4 0.4-0.7 0.4-1.4 0.7-2 1.1-0.9 0.5-1.8 0.9-2.7 0.8-0.9-0.2-1.6-0.9-1.8-1.8-0.2-0.9 0-1.8 0.5-2.5 0.6-0.7 1.3-1.2 2.2-1.5z"/><path class="j" d="m602.7 583.1c-0.2-2-0.5-5.2-1-7.2-0.7-2.3-1.6-4-3.5-5.6-3-2.6-7.5-3.1-11.2-2.2-2.4 0.5-4.8 1.6-6.5 3.4h2.6v9q0.6 0.4 1.2 0.8c0.6 0.4 1.1 0.8 1.5 1.3 0.5 0.7 0.4 1.5 0.2 2.3-0.1 0.8 0.1 1.6-0.1 2.4-0.2 1.7-1.2 3.2-2.3 4.5-0.5 0.5-1 1-1.3 1.6-0.4 1.1 0.2 2.5 1.3 2.9 2.8 1.2 7.3-0.5 8.2-0.8 10.8-3.5 11.4-7.4 10.9-12.4z"/><path class="B" d="m586.4 580.6c1.8 0 2.1 2.4 0.7 4.1-0.4 0.5-1.1 0.9-1.6 1.2-3.6 2.6-4.2-0.5-3-1.4 2.6-2.1 1.5-3.9 3.9-3.9z"/><path class="E" d="m585.5 584.1c0.3-0.2 2.5-1.3 1.1-2.3-0.4-0.2-0.9 0.1-1 0.5 0 0.2 0 0.5 0 0.7q-0.1 0.2-0.2 0.3c-0.2 0.3-0.9 0.6-0.8 1 0.1 0.4 0.8-0.1 0.9-0.2z"/><path class="j" d="m602.3 722.7c-0.6 0.8-1.1 1.5-1.8 2.1-0.5 0.5-1.7-0.5-1.9 0.1-2.1 2.1 0.2 4.6 0.6 8.4 0.2 1.7 0.1 0.4 0 2.5 0 0.1 0 0.3 0.1 0.4q0.1 0.1 0.2 0.2c0.5 0.2 1.2 0.2 1.5-0.3 0.4-0.4 0.2-1 0.1-1.5-0.2-3 2-5 2.2-8.7 0.1-1.6-0.4-3.9-1-3.2z"/><g style="opacity:.2"><path class="T" d="m788.6 344.5l-217-125.3v194.3l217 125.3z"/><path class="U" d="m768.5 347.4l-179.9-103.9v33l179.9 103.8z"/><path class="g" d="m656.3 339.9l-67.6-39v-10.5l67.6 39z"/><path class="g" d="m746.9 392.3l-33-19.1v-10.5l33 19z"/><path class="g" d="m766.4 403.5l-17.5-10.1v-10.5l17.5 10.1z"/><path class="g" d="m674.6 350.5l-15.9-9.1v-10.5l15.9 9.1z"/><path class="g" d="m711.4 371.8l-15.9-9.2v-10.5l15.9 9.1z"/><path class="g" d="m693 361.1l-15.9-9.1v-10.5l15.9 9.1z"/><path class="g" d="m676.6 364.7l-33-19v-10.6l33 19.1z"/><path class="g" d="m696 375.9l-17.5-10.1v-10.5l17.5 10.1z"/><path class="g" d="m604.2 322.9l-15.9-9.2v-10.5l15.9 9.2z"/><path class="g" d="m641.1 344.2l-15.9-9.2v-10.5l15.9 9.2z"/><path class="g" d="m622.7 333.6l-15.9-9.2v-10.5l15.9 9.2z"/><path class="g" d="m656.3 366.8l-67.6-39v-10.5l67.6 39z"/><path class="g" d="m746.9 419.2l-33-19.1v-10.5l33 19z"/><path class="g" d="m766.4 430.4l-17.5-10.1v-10.5l17.5 10.1z"/><path class="g" d="m674.6 377.4l-15.9-9.1v-10.5l15.9 9.1z"/><path class="g" d="m711.4 398.7l-15.9-9.2v-10.5l15.9 9.1z"/><path class="g" d="m693 388.1l-15.9-9.2v-10.5l15.9 9.1z"/><path class="g" d="m604.2 349.8l-15.9-9.2v-10.5l15.9 9.2z"/><path class="g" d="m641.1 371.1l-15.9-9.2v-10.5l15.9 9.2z"/><path class="g" d="m622.7 360.5l-15.9-9.2v-10.5l15.9 9.2z"/><path class="g" d="m656.3 406.9l-67.6-39v-10.5l67.6 39z"/><path class="g" d="m746.9 459.2l-33-19v-10.5l33 19z"/><path class="g" d="m766.4 470.5l-17.5-10.1v-10.5l17.5 10.1z"/><path class="g" d="m674.6 417.5l-15.9-9.1v-10.6l15.9 9.2z"/><path class="g" d="m711.4 438.8l-15.9-9.2v-10.5l15.9 9.1z"/><path class="g" d="m693 428.1l-15.9-9.1v-10.5l15.9 9.1z"/><path class="g" d="m604.2 389.9l-15.9-9.2v-10.5l15.9 9.2z"/><path class="g" d="m641.1 411.2l-15.9-9.2v-10.5l15.9 9.2z"/><path class="g" d="m622.7 400.6l-15.9-9.2v-10.5l15.9 9.2z"/><path class="g" d="m656.3 433.8l-67.6-39v-10.5l67.6 39z"/><path class="g" d="m746.9 486.2l-33-19.1v-10.5l33 19z"/><path class="g" d="m766.4 497.4l-17.5-10.1v-10.5l17.5 10.1z"/><path class="g" d="m674.6 444.4l-15.9-9.1v-10.6l15.9 9.2z"/><path class="g" d="m711.4 465.7l-15.9-9.2v-10.5l15.9 9.1z"/><path class="g" d="m693 455l-15.9-9.1v-10.5l15.9 9.1z"/><path class="g" d="m676.6 458.6l-33-19.1v-10.5l33 19.1z"/><path class="g" d="m696 469.8l-17.5-10.1v-10.5l17.5 10.1z"/><path class="g" d="m715.7 481.2l-17.5-10.1v-10.5l17.5 10.1z"/><path class="g" d="m735 492.3l-17.5-10.1v-10.5l17.5 10.1z"/><path class="g" d="m604.2 416.8l-15.9-9.2v-10.5l15.9 9.2z"/><path class="g" d="m641.1 438.1l-15.9-9.2v-10.5l15.9 9.2z"/><path class="g" d="m622.7 427.5l-15.9-9.2v-10.5l15.9 9.2z"/></g><g style="opacity:.2"><path class="T" d="m801.5 330.2l-217-125.3v194.3l217 125.3z"/><path class="U" d="m781.4 333.1l-179.9-103.9v33l179.9 103.8z"/></g><g style="opacity:.2"><path class="T" d="m816.2 319.6l-217-125.3v194.3l217 125.3z"/><path class="U" d="m796.1 322.4l-179.9-103.8v33l179.9 103.8z"/></g><g style="mix-blend-mode:overlay"><path class="g" d="m487.9 154.8l5.9-3.4v-6.8l-5.9 3.4z"/><path class="g" d="m586.6 182.2l5.9-3.4v-6.8l-5.9 3.4z"/><path class="V" d="m395.2 129.6l5.9-3.4v-6.8l-5.9 3.4z"/><path class="g" d="m171.8 471.5l5.9-3.4v-6.8l-5.9 3.4z"/><path class="W" d="m333.4 224.3l6-3.4v-6.8l-6 3.4z"/><path class="V" d="m153.8 381l5.9-3.4v-6.8l-5.9 3.4z"/><path class="X" d="m230.5 292.8l5.9-3.4v-6.8l-5.9 3.4z"/></g></svg>