<svg version="1.2" xmlns="http://www.w3.org/2000/svg" viewBox="0 0 850 690" width="850" height="690"><style>.a{fill:#dfe0e1}.b{fill:#bbbdbf}.c{fill:#35394a}.d{fill:#fefefe}.e{fill:#c0c1c3}.f{fill:#fdbd0f}.g{fill:none;stroke:#fdbd0f;stroke-miterlimit:10;stroke-width:4.4}.h{fill:#e6e7e8}.i{fill:#ee4036}.j{fill:#474a5e}.k{opacity:.3;mix-blend-mode:multiply;fill:#d1d2d3}.l{fill:#00263f}.m{fill:#003f5e}.n{fill:#ee3c29}.o{fill:#d03423}.p{fill:#982110}.q{fill:#00556d}.r{fill:#fefefe;stroke:#fefefe;stroke-linecap:round;stroke-linejoin:round;stroke-width:.9}</style><path class="a" d="m280.7 515.6h-204.6v-29.9h204.6z"/><path class="a" d="m256.7 535.7h-204.6v-20.1h204.6z"/><path class="a" d="m295.2 581.2h-204.6v-45.5h204.6z"/><path class="a" d="m271.2 626.6h-204.6v-45.4h204.6z"/><g style="mix-blend-mode:multiply"><path class="b" d="m75.7 490l59.6 1.1-59.6 1.1z"/></g><g style="mix-blend-mode:multiply"><path class="b" d="m75.7 494.9l89.7 1.1-89.7 1.1z"/></g><g style="mix-blend-mode:multiply"><path class="b" d="m52.1 521.9l69.1 1.2-69.1 1.2z"/></g><g style="mix-blend-mode:multiply"><path class="b" d="m52.1 527.7l86.6 1.2-86.6 1.2z"/></g><g style="mix-blend-mode:multiply"><path class="b" d="m91 541l69.2 1.2-69.2 1.2z"/></g><g style="mix-blend-mode:multiply"><path class="b" d="m91 546.8l69.2 1.2-69.2 1.2z"/></g><g style="mix-blend-mode:multiply"><path class="b" d="m91 553.5l69.2 1.2-69.2 1.2z"/></g><g style="mix-blend-mode:multiply"><path class="b" d="m91 559.3l87.4 1.2-87.4 1.2z"/></g><g style="mix-blend-mode:multiply"><path class="b" d="m295.2 571.6l-116.8-1.3 116.8-1.4z"/></g><g style="mix-blend-mode:multiply"><path class="b" d="m295.2 566l-87.6-1.4 87.6-1.3z"/></g><g style="mix-blend-mode:multiply"><path class="b" d="m295.2 560.4l-87.6-1.4 87.6-1.3z"/></g><g style="mix-blend-mode:multiply"><path class="b" d="m271.5 586.7l-87.7-1.4 87.7-1.3z"/></g><g style="mix-blend-mode:multiply"><path class="b" d="m271.5 593.8l-87.7-1.3 87.7-1.3z"/></g><g style="mix-blend-mode:multiply"><path class="b" d="m271.5 601l-126.9-1.3 126.9-1.4z"/></g><g style="mix-blend-mode:multiply"><path class="b" d="m256.6 523.1l-53.1-1 53.1-1.1z"/></g><g style="mix-blend-mode:multiply"><path class="b" d="m256.6 527.5l-53.1-1.1 53.1-1z"/></g><g style="mix-blend-mode:multiply"><path class="b" d="m256.6 531l-74.9-1 74.9-1z"/></g><g style="mix-blend-mode:multiply"><path class="b" d="m280.7 507.6l-72.6-1 72.6-1.1z"/></g><g style="mix-blend-mode:multiply"><path class="b" d="m280.7 504.7l-53-1 53-1.1z"/></g><g style="mix-blend-mode:multiply"><path class="b" d="m280.7 501.8l-53-1 53-1.1z"/></g><g style="mix-blend-mode:multiply"><path class="b" d="m66.6 602.7l78 1.2-78 1.1z"/></g><g style="mix-blend-mode:multiply"><path class="b" d="m66.6 609.3l104.7 1.2-104.7 1.2z"/></g><g style="mix-blend-mode:multiply"><path class="b" d="m66.6 615.6l78 1.6-78 1.5z"/></g><path class="a" d="m63.1 455.8h204.7v29.9h-204.7z"/><path class="a" d="m87.1 435.6h204.7v20.2h-204.7z"/><path class="a" d="m48.6 390.2h204.7v45.4h-204.7z"/><path class="a" d="m72.6 344.8h204.7v45.4h-204.7z"/><g style="mix-blend-mode:multiply"><path class="b" d="m268.2 481.4l-59.7-1.1 59.7-1.1z"/></g><g style="mix-blend-mode:multiply"><path class="b" d="m268.2 476.5l-89.7-1.1 89.7-1.1z"/></g><g style="mix-blend-mode:multiply"><path class="b" d="m291.8 449.5l-69.2-1.2 69.2-1.2z"/></g><g style="mix-blend-mode:multiply"><path class="b" d="m291.8 443.7l-86.6-1.2 86.6-1.2z"/></g><g style="mix-blend-mode:multiply"><path class="b" d="m252.9 430.4l-69.2-1.2 69.2-1.2z"/></g><g style="mix-blend-mode:multiply"><path class="b" d="m252.9 424.6l-69.2-1.2 69.2-1.2z"/></g><g style="mix-blend-mode:multiply"><path class="b" d="m252.9 417.8l-69.2-1.1 69.2-1.2z"/></g><g style="mix-blend-mode:multiply"><path class="b" d="m252.9 412l-87.4-1.1 87.4-1.2z"/></g><g style="mix-blend-mode:multiply"><path class="b" d="m48.6 399.8l116.9 1.3-116.9 1.4z"/></g><g style="mix-blend-mode:multiply"><path class="b" d="m48.6 405.4l87.7 1.3-87.7 1.4z"/></g><g style="mix-blend-mode:multiply"><path class="b" d="m48.6 411l87.7 1.3-87.7 1.4z"/></g><g style="mix-blend-mode:multiply"><path class="b" d="m72.3 384.7l87.7 1.3-87.7 1.4z"/></g><g style="mix-blend-mode:multiply"><path class="b" d="m72.3 377.5l87.7 1.4-87.7 1.3z"/></g><g style="mix-blend-mode:multiply"><path class="b" d="m72.3 370.4l126.9 1.3-126.9 1.3z"/></g><g style="mix-blend-mode:multiply"><path class="b" d="m87.3 448.3l53 1-53 1z"/></g><g style="mix-blend-mode:multiply"><path class="b" d="m87.3 443.9l53 1.1-53 1z"/></g><g style="mix-blend-mode:multiply"><path class="b" d="m87.3 440.3l74.9 1.1-74.9 1z"/></g><g style="mix-blend-mode:multiply"><path class="b" d="m63.1 463.8l72.7 1-72.7 1z"/></g><g style="mix-blend-mode:multiply"><path class="b" d="m63.1 466.7l53.1 1-53.1 1z"/></g><g style="mix-blend-mode:multiply"><path class="b" d="m63.1 469.6l53.1 1-53.1 1z"/></g><g style="mix-blend-mode:multiply"><path class="b" d="m277.3 368.7l-78.1-1.2 78.1-1.2z"/></g><g style="mix-blend-mode:multiply"><path class="b" d="m277.3 362.1l-104.7-1.2 104.7-1.2z"/></g><g style="mix-blend-mode:multiply"><path class="b" d="m277.3 355.8l-78.1-1.6 78.1-1.5z"/></g><path class="c" d="m731.9 626.6h-200.9v-265.7h200.9z"/><path class="d" d="m720 610.9h-177v-232h177z"/><path class="e" d="m712.8 417.7h-162.7v-4.7h162.7z"/><path class="e" d="m712.8 431.4h-162.7v-4.6h162.7z"/><path class="e" d="m712.8 445.1h-162.7v-4.6h162.7z"/><path class="e" d="m712.8 458.9h-162.7v-4.7h162.7z"/><path class="e" d="m712.8 472.6h-162.7v-4.7h162.7z"/><path class="e" d="m712.8 486.3h-162.7v-4.6h162.7z"/><path class="e" d="m712.8 500h-162.7v-4.6h162.7z"/><path class="e" d="m712.8 513.8h-162.7v-4.7h162.7z"/><path class="e" d="m712.8 527.5h-162.7v-4.7h162.7z"/><path class="e" d="m712.8 541.2h-162.7v-4.6h162.7z"/><path class="e" d="m712.8 554.9h-162.7v-4.6h162.7z"/><path class="e" d="m712.8 568.7h-162.7v-4.7h162.7z"/><path class="e" d="m712.8 582.4h-162.7v-4.7h162.7z"/><path class="e" d="m712.8 596.1h-162.7v-4.6h162.7z"/><path class="f" d="m685.9 376.3h-108.9v-10.9h108.9z"/><path class="g" d="m583.2 370.9v17.4c0 5.4 4.4 9.8 9.8 9.8h77c5.4 0 9.7-4.4 9.7-9.8v-17.4z"/><path class="h" d="m593 625.2c-3.8 0-6.9-3.1-6.9-6.9v-131.4c0-3.8 3.1-6.9 6.9-6.9h72.1c3.8 0 6.9 3.1 6.9 6.9v131.4c0 3.8-3.1 6.9-6.9 6.9z"/><path fill-rule="evenodd" class="i" d="m673.3 486.9v131.4c0 4.6-3.7 8.3-8.2 8.3h-72.1c-4.6 0-8.3-3.7-8.3-8.3v-131.4c0-4.5 3.7-8.2 8.3-8.2h72.1c4.5 0 8.2 3.7 8.2 8.2zm-80.3-5.5c-3.1 0-5.5 2.5-5.5 5.5v131.4c0 3.1 2.4 5.6 5.5 5.6h72.1c3 0 5.5-2.5 5.5-5.6v-131.4c0-3-2.5-5.5-5.5-5.5z"/><path class="c" d="m664.1 608h-70.1v-116.5h70.1z"/><path class="j" d="m594 608v-116.5h70.1z"/><path class="c" d="m634.4 615.1c0 2.9-2.4 5.3-5.4 5.3-2.9 0-5.3-2.4-5.3-5.3 0-3 2.4-5.4 5.3-5.4 3 0 5.4 2.4 5.4 5.4z"/><path class="i" d="m690 557.1c-2.6 5.8-4.1 12.3-4.1 19.1 0 26.1 21.2 47.3 47.3 47.3 26.1 0 47.3-21.2 47.3-47.3 0-6.8-1.4-13.3-4-19.1z"/><g style="opacity:.3"><path class="d" d="m700.8 575v-0.7q0.1-0.8 0.2-1.5 0.3-3 0.9-5.8 0.7-2.9 1.6-5.6 0.5-1.4 1.1-2.7c0.2-0.5 0.4-0.9 0.6-1.3l0.2-0.3h-10.9q-0.2 0.7-0.4 1.5-0.8 3.4-1.3 6.9-0.4 3.4-0.4 6.9 0 0.9 0.1 1.8v0.9l0.1 0.8c0 0.5 0 1.1 0.1 1.7l0.2 1.7c1.1 9.2 4.6 17.9 9.9 25.2 5.3 7.3 12.4 13.2 20.3 17q1.7 0.8 3.4 1.5 3.3 0.5 6.7 0.5c-3.1-1.2-6.1-2.6-8.9-4.3-7.1-4.4-13-10.5-17.1-17.6-4.1-7-6.3-15-6.5-22.9v-1.5l0.1-1.4z"/></g><path class="i" d="m751 626.6h-35.5v-9.1h35.5z"/><path fill-rule="evenodd" class="i" d="m780.5 602.2c-11.7 0-21.2-9.6-21.2-21.3 0-11.7 9.5-21.3 21.2-21.3 11.7 0 21.3 9.6 21.3 21.3 0 11.7-9.6 21.3-21.3 21.3zm0-36.8c-8.5 0-15.5 6.9-15.5 15.5 0 8.6 7 15.5 15.5 15.5 8.6 0 15.5-6.9 15.5-15.5 0-8.6-6.9-15.5-15.5-15.5z"/><path class="k" d="m765.7 535.8h-2.7q0.5-1.1 0.5-2.4c0-3.4-2.7-6.2-6.1-6.2h-17.5c0.6-1 1-2.1 1-3.4 0-1.3-0.4-2.4-1-3.4h5.7c3.4 0 6.2-2.8 6.2-6.2 0-3.4-2.8-6.1-6.2-6.1h-9.5c0.6-1 0.9-2.1 0.9-3.2 0-1.4-0.5-2.7-1.3-3.8 3-0.5 5.2-3 5.2-6 0-3.4-2.7-6.2-6.2-6.2h-20.2c-3.4 0-6.1 2.8-6.1 6.2 0 1.3 0.4 2.6 1.2 3.6h-8.7c-3.4 0-6.2 2.8-6.2 6.2 0 3.4 2.8 6.1 6.2 6.1h5.5c-0.6 1-0.9 2-0.9 3.2 0 1.3 0.4 2.5 1 3.4h-5.7c-3.4 0-6.2 2.8-6.2 6.2 0 3.4 2.8 6.2 6.2 6.2h5.7c-0.6 0.9-1 2.1-1 3.4 0 3.4 2.7 6.1 6.2 6.1h2.6q-0.5 1.2-0.5 2.5c0 1.2 0.4 2.4 1 3.4h-5.8c-3.3 0-6.1 2.7-6.1 6.1 0 2.5 1.4 4.6 3.4 5.6h52.2c-1.1-1.3-2.7-2.1-4.6-2.1h-5.7c0.6-1 1-2.2 1-3.5 0-1.2-0.4-2.4-1-3.4h17.5c3.4 0 6.1-2.7 6.1-6.1 0-3.4-2.7-6.2-6.1-6.2z"/><path class="l" d="m438 616.8h-150.2l31.1-60.5h88z"/><path class="m" d="m554.7 568.9h-383.5v-283.8h383.5z"/><path class="d" d="m537.7 556.3h-349.5v-258.7h349.5z"/><path class="m" d="m554.7 568.9h-383.5v-53h383.5z"/><path class="m" d="m501.1 629.1h-276.4v-17.3h276.4z"/><path class="n" d="m199 445.5c-0.8 0-1.7-0.3-2.2-1-0.9-1.3-0.7-3 0.5-3.9l44.1-33.8c0.5-0.4 1-0.6 1.7-0.6h48.8l17.7-40.2c0.4-1 1.4-1.6 2.5-1.6h35.2l21.7-34.7c0.5-0.8 1.4-1.3 2.4-1.3h42.8c0.9 0 1.8 0.5 2.3 1.3l16.8 28.1 44.7-0.8c1.5 0 2.8 1.2 2.8 2.8 0 1.5-1.2 2.7-2.7 2.7l-46.3 0.8c-0.9 0-1.9-0.5-2.4-1.4l-16.8-28h-39.7l-21.8 34.7c-0.5 0.8-1.3 1.3-2.3 1.3h-34.9l-17.7 40.2c-0.4 1-1.4 1.7-2.5 1.7h-49.7l-43.3 33.2c-0.5 0.3-1.1 0.5-1.7 0.5z"/><path class="m" d="m363.6 331.2c0 4.2 3.5 7.7 7.8 7.7 4.3 0 7.7-3.5 7.7-7.7 0-4.3-3.4-7.8-7.7-7.8-4.3 0-7.8 3.5-7.8 7.8z"/><path class="m" d="m404.9 331.2c0 4.2 3.5 7.7 7.8 7.7 4.3 0 7.7-3.5 7.7-7.7 0-4.3-3.4-7.8-7.7-7.8-4.3 0-7.8 3.5-7.8 7.8z"/><path class="m" d="m424.4 360c0 4.3 3.5 7.7 7.8 7.7 4.2 0 7.7-3.4 7.7-7.7 0-4.3-3.5-7.8-7.7-7.8-4.3 0-7.8 3.5-7.8 7.8z"/><path class="m" d="m474 360c0 4.3 3.5 7.7 7.8 7.7 4.3 0 7.7-3.4 7.7-7.7 0-4.3-3.4-7.8-7.7-7.8-4.3 0-7.8 3.5-7.8 7.8z"/><path class="m" d="m340.3 367.7c0 4.3 3.5 7.8 7.8 7.8 4.3 0 7.8-3.5 7.8-7.8 0-4.2-3.5-7.7-7.8-7.7-4.3 0-7.8 3.5-7.8 7.7z"/><path class="m" d="m304.4 367.7c0 4.3 3.4 7.8 7.7 7.8 4.3 0 7.8-3.5 7.8-7.8 0-4.2-3.5-7.7-7.8-7.7-4.3 0-7.7 3.5-7.7 7.7z"/><path class="m" d="m286.2 407.8c0 4.3 3.5 7.7 7.8 7.7 4.2 0 7.7-3.4 7.7-7.7 0-4.3-3.5-7.8-7.7-7.8-4.3 0-7.8 3.5-7.8 7.8z"/><path class="m" d="m235.9 407.8c0 4.3 3.5 7.7 7.8 7.7 4.2 0 7.7-3.4 7.7-7.7 0-4.3-3.5-7.8-7.7-7.8-4.3 0-7.8 3.5-7.8 7.8z"/><path class="m" d="m250.5 440h-28.1v53.1h28.1z"/><path class="m" d="m301.4 422.7h-28.2v70.4h28.2z"/><path class="m" d="m352.2 395.4h-28.1v97.7h28.1z"/><path class="m" d="m403.1 352.2h-28.1v140.9h28.1z"/><path class="m" d="m454 387h-28.1v106.1h28.1z"/><path class="m" d="m504.8 380h-28.1v113.1h28.1z"/><path class="o" d="m542.3 223.1h-28.1v-31.4h28.1l-9 16.2z"/><path class="p" d="m514.2 217.2v5.9l9.2-5.9z"/><path class="o" d="m308.1 223.1h28.1v-31.4h-28.1l9 16.2z"/><path class="p" d="m336.2 217.2v5.9l-9.2-5.9z"/><path class="n" d="m523.4 217.2h-196.2v-31.5h196.2z"/><path fill-rule="evenodd" class="q" d="m331.8 137h13.5c0 17.2 1.8 30.2 15.6 30.2 10.7 0 16.1-6.7 16.1-17.4 0-9.8-9.8-19.1-17.6-25.6l0.2 0.2c-12.5-8.9-26.7-23.4-26.7-40.4 0-17.3 10.9-30.6 28.9-30.6 25 0 27.6 18.7 27.6 42.1h-13.5c0-14.5-0.9-28.6-14.1-28.6-10.2 0-15.4 8.2-15.4 18 0 10.2 10 18.7 20 27.6v-0.2c12.1 10.8 24.1 21.9 24.1 37.3 0 19.7-9.6 31.2-29.6 31.2-23.2 0-29.1-15.3-29.1-43.8zm53.7 12.6c0-27.1-44.3-39.5-44.3-64.7 0-12.6 7.1-23.2 20.6-23.2 18 0 19.1 16 19.3 28.7h3.1c0-19.2-3.9-32-22.4-32-14.8 0-23.7 11.3-23.7 25.6 0 15 13.1 28 24.6 36.3h-0.2c8.7 7.2 19.7 19.1 19.7 29.5 0 14.1-7.1 22.6-21.3 22.6-18.4 0-20.6-17.6-20.6-30.2h-3.5c0 20.4 5.3 33.4 24.1 33.4 16.7 0 24.6-9.5 24.6-26z"/><path fill-rule="evenodd" class="q" d="m410 68v42.7h24.5v13.5h-24.5v41.9h36.7v13.5h-49.9l-0.2-124.9h50.1v13.3zm31.5-8.3h-39.8l0.2 114.7h39.6v-3.1h-36.5v-52.3h24.5v-3.1h-24.5v-52.9h36.5z"/><path fill-rule="evenodd" class="q" d="m447.3 145.7v-57.3c0-18.9 9.6-35 30.7-35 21.4 0 30.6 16.1 30.6 35v57.3c0 20-8.7 35.1-30.6 35.1-21.5 0-30.7-15.4-30.7-35.1zm56.1 0v-57.3c0-16.1-7.6-30.2-25.4-30.2-17.6 0-25.5 14.1-25.5 30.2v57.3c0 16.7 7.6 30 25.5 30 18.4 0 25.4-12.9 25.4-30zm-3.3-55.4v54.5c0 14.8-5.4 27.4-22.1 27.4-16.6 0-22.2-13.3-22.2-28v-54.1c0-14.1 5.9-28.2 22.2-28.2 16.9 0 22.1 13.7 22.1 28.4zm-39.3-0.2v54.1c0 11.9 4.4 23 17.2 23 13 0 16.9-10.4 16.9-22.4v-54.5c0-11.9-3.9-23.2-16.9-23.2-12.6 0-17.2 11.3-17.2 23z"/><path class="r" d="m338.6 190.2h0.3q1.1 0.3 1.6 1.1l0.4 0.7q-0.1 0.8-0.3 0.8-0.2 0-0.4-1.1-0.7-1-1.5-1 0-0.1-0.2-0.1-1 0.2-1 1.6v0.7q0 0.2 0 0.3 0 0 0.1 0.8h-0.1q0.1 0.1 0.2 0.6h-0.1q0.2 0.8 0.4 2 0.2 0.6 0.3 1.4 0.1 0.4 0.6 2.5l0.7 2.7q0.2 0.8 0.9 4h-0.1q0.2 0.3 0.5 2.2h-0.1q0.2 0.8 0.2 1.7 0 2.2-1.2 2.9-0.2 0.1-0.9 0.2-0.8 0-1.8-1-0.4-0.6-0.7-2.5h0.1l-0.1-0.1v-0.2q0-0.9 0.3-1 0.1 0 0.2 0.2v0.1q0 0.4-0.1 0.4 0.1 1 0.2 1.2l-0.1 0.1q0.4 1.5 1.2 2 0.5 0.3 0.7 0.3l0.4-0.1v0.1q0.5 0 1.2-1.3 0.1-0.6 0.1-1-0.1-1.9-0.3-2.7l0.1-0.1q-1.3-6.1-2.2-9.4-0.7-2.5-1-5.4v-0.6-1q0-2 1.5-2z"/><path class="r" d="m344.3 189.7h0.1l0.2 0.1h0.3q0.3 0 0.3-0.1l0.3 0.1h1.5q0.6 0.1 0.6 0.2v0.2l-0.1 0.1q-0.9 0-1-0.1-0.1 0.1-0.3 0.1h-0.3q-0.2 0-0.3-0.1-0.1 0.1-0.3 0.1-0.1 0-0.1-0.1l-0.1 0.1h-0.6q0 0.2-0.1 0.2 0 0.1 0.1 0.1 0 0-0.1 0.2l0.1 0.3q-0.3 1.9-0.3 2.1l0.1 0.2-0.1 0.4q0.1 1.1 0.1 1.3 0 0.1-0.1 0.1l0.1 0.3v1.1q0 0.2 0.1 0.3-0.1 0.1-0.1 0.3v0.8l-0.1 0.4q0.1 0.1 0.1 0.3v0.1q0 0.2-0.1 0.3l0.1 0.1q0 0.2-0.1 0.6 0 0.1 0 0.2 0 0.5 0 0.5v0.2 0.3 0.6q0 0-0.1 0l0.1 0.3 0.2-0.1h2.1q0.2 0 0.3 0.2 0 0.3-2.3 0.3-0.1 0-0.4 0 0.1 0.4 0.1 0.6v0.3q0 0.5-0.1 1.3 0.1 0.1 0.1 0.2h-0.1l0.1 0.2q0 0.2-0.1 0.3 0.1 1.4 0.2 2.6h-0.1l0.2 0.3-0.1 0.4q0.1 0.6 0.1 1.1h-0.1q0.1 0.3 0.1 0.7v0.4q0 0.1 0 0.1v0.1 0.1q0 0.1 0 0.1v0.1q0 0 0 0 0 0.1 0 0.1v0.3 0.2l0.1 0.2q0 0.2-0.1 0.3l0.2 1.1h1.7l0.4-0.1q0.3 0.1 0.3 0.1h0.1 0.4q0.1 0 0.2 0.2v0.2q-0.2 0-0.2 0.1l-0.1-0.1h-0.1q-0.2 0-0.2 0.1-0.7-0.1-0.7-0.1h-0.2-0.3q-0.1 0-0.2 0-0.2 0-1 0.1-0.1-0.1-0.2-0.1 0 0.2-0.1 0.2-0.3 0-0.4-0.9 0-0.1 0-0.1v-0.3-0.3q0-0.7-0.1-1 0.1-0.5 0.1-1.1v-0.9q0-0.2-0.1-0.3 0-0.1 0.1-0.1l-0.1-0.4v-0.3q-0.1-2.1-0.1-2.3v-0.7q0-0.1-0.1-0.2 0.1-0.2 0.1-0.3v-0.1l-0.1-0.4h0.1q-0.1-0.1-0.1-0.1l0.1-0.2q-0.1-0.1-0.1-0.2h0.1q0 0-0.1 0l0.1-0.7v-0.4l-0.1-0.3h0.1l-0.1-0.1v-0.2q0 0 0.1 0 0-0.1-0.1-0.1l0.1-0.3v-1.2l0.1-0.4q-0.1-0.1-0.1-0.2h0.1q0-0.1-0.1-0.1 0.1-0.6 0.1-1.7v-0.9q0 0 0.1 0l-0.1-0.2q0-2.1-0.1-2.3 0 0 0.1 0l-0.1-0.4q0-1.7 0.2-3.3 0 0 0 0 0.1-1.3 0.3-1.3z"/><path fill-rule="evenodd" class="r" d="m353.2 189.8l0.3 0.5q0 0.4 0.2 1.4v0.6q0 0.2 0 0.3v0.1q0 0.1 0 0.2 0 0.2 0 0.2 0.4 4.1 0.8 7.4 0 0 0 0 0.6 4.4 0.6 4.9h-0.1l1.3 7.7q-0.1 0.5-0.2 0.5h-0.1q-0.2 0-0.5-2.6l-0.6-3.4h0.1l-0.1-0.1q0-0.1 0.1-0.1-0.1-0.7-0.5-2.2 0.1-0.2 0.1-0.2-0.1-0.8-0.2-1.2 0 0 0.1 0l-0.3-1.8h-0.5q-1 0-1.7 0.1v0.1q-0.4 4.4-0.7 6v0.1q-0.3 1.8-0.4 1.8l0.1 0.1q-0.1 0.9-0.2 0.9v0.1q0 1.4-0.2 1.7l0.1 0.3q-0.1 0.7-0.2 0.7h-0.1q-0.1 0-0.2-0.2v-0.6q0 0 0.1 0 0-0.1-0.1-0.1l0.4-2.4-0.1-0.1q0.2-0.9 0.3-1.9h0.1l-0.1-0.1q0.4-2 0.8-5.5 0-0.1-0.1-0.1 0.1-1.1 0.2-1.1l-0.1-0.1 0.1-0.2q0 0-0.1 0l0.1-0.7v-0.5q0-0.1 0.1-0.1l-0.1-0.1q0-0.1 0.1-0.1 0-0.1-0.1-0.1 0.1-1.3 0.2-1.3 0 0 0 0 0.2-2 0.3-2.4 0-0.1-0.1-0.1 0.2-1.6 0.4-2.5v-0.1q0-0.2 0.1-0.6 0-0.1-0.1-0.1 0.3-2.9 0.5-2.9 0.1-0.1 0.2-0.1zm-0.3 2.7l0.1 0.2q-0.3 2.1-0.4 2.7 0 0 0.1 0-0.2 1-0.2 1v0.1q0 1.3-0.2 1.3 0 0.1 0.1 0.1-0.1 0.5-0.1 0.5 0 0 0 0-0.1 1.1-0.2 3.3 0.5-0.2 1.1-0.2h0.9l0.1-0.1-0.2-1.2 0.1-0.2q-0.1-0.3-0.4-2.2 0-0.1 0-0.3l-0.1-0.2v-0.5q0-0.3-0.2-1.7h0.1q-0.3-1.1-0.3-3.3-0.1 0-0.3 0.7z"/><path fill-rule="evenodd" class="r" d="m359.4 189.8q1.5 0.3 2 0.9 1.5 1.7 1.5 3.3 0.1 0 0.3 1.7h-0.1l0.1 0.3q0 0.1 0 0.2 0 0 0 0.1l-0.1 0.1q0.1 0.1 0.1 0.7 0 0 0 0v0.3q0 1.2-0.1 1.2 0 0 0.1 0 0 0.2-0.3 1 0.1 0.1 0.1 0.2-0.1 0.1-0.7 1.6-0.1 0-0.7 1-1 0.8-1.3 0.8v0.1q0.3 0.6 1 2.4 0.2 0 1.3 3.5 0.3 0.4 1.5 3.5 0 0 0 0.1 0.1 0 0.4 0.8-0.1 0.3-0.1 0.3-0.4-0.2-0.4-0.4-0.4-1.1-2-4.7-1.1-3.3-2.2-5.4l-0.6 0.1q0 0.2-0.1 0.2l0.1 0.1-0.1 0.2q0.1 0.1 0.1 0.2 0 0-0.1 0.2l0.1 0.2q-0.1 0.7-0.1 1 0 0.1 0.1 0.1l-0.1 0.3v1.5q0 0.1-0.1 0.2 0.1 0.1 0.1 0.3v0.4q0 0.1-0.1 0.1 0.2 0.2 0.2 0.4v1.7l0.1 0.7h-0.1q0.1 0.2 0.1 0.4v0.1 0.1q0.1 0 0.1 1.7l-0.2 0.2q0-0.1-0.3-0.1v-0.2q0-0.2-0.1-0.5 0-0.1 0.1-0.1-0.1-1.1-0.1-2.1v-0.2q-0.1-0.3-0.1-1v-2.1q0-0.2 0-0.3 0 0 0 0 0-0.1 0-0.3 0-0.8 0-1.3v-0.3q0-0.1 0.1-0.1l-0.1-0.1v-0.4q0-0.1 0.1-0.1-0.1-0.2-0.1-0.4 0-0.6 0-1-0.1 0-0.1-0.1 0.2-0.3 0.2-1.1 0 0-0.1-0.4h0.1q0-0.1 0-0.1v-0.6-0.7q0 0 0.1 0l-0.1-0.2 0.1-1q0 0-0.1 0l0.1-0.4v-1.3q0-0.4 0.1-0.4v-0.1-0.9q0-0.1 0-0.1v-0.1-0.4q0-0.1 0-0.1v-0.1-0.4-0.4q0 0 0 0 0-0.7-0.1-0.9l0.1-0.1-0.1-0.4h0.1l-0.1-0.1v-0.1q0-0.1 0.1-0.2-0.1-0.1-0.1-0.2l0.1-0.2-0.1-0.1 0.1-0.3q0-0.2-0.1-0.3 0.1-0.3 0.1-0.3l-0.1-0.6q0.1-0.7 0.5-0.7zm0.1 0.6l-0.1 0.3v1.4q0 0.1 0.1 0.3-0.1 0.1-0.1 0.2v0.2q0 0.1 0.1 0.3l-0.1 0.1 0.1 0.3-0.1 0.1 0.1 0.4q0 0.1-0.1 0.1l0.1 0.1v0.4q0 0-0.1 0l0.2 0.6q-0.1 0.6-0.2 0.6 0.1 0.1 0.1 0.2l-0.1 0.2 0.1 0.1-0.1 0.2q0 0.1 0.1 0.1-0.1 0.7-0.1 0.7v0.1q0 0.1 0 0.1v0.2 0.1q0 0 0 0v0.2q0 0 0 0 0 0.1 0 0.1l-0.1 1.8 0.1 0.1q-0.1 0.2-0.1 0.2 0 0.2 0.1 0.2-0.1 1.5-0.2 1.5 0 0.1 0.1 0.1l-0.1 0.6v0.3q0.1 0 0.2 0 1.6-0.4 2.2-1.4 1.1-2 1.1-3.2v-0.2-0.1q0 0 0 0v-0.5-0.5q0-0.1 0.1-0.1l-0.1-0.1q0-4.1-1.6-5.9-0.8-0.5-1.6-0.5z"/><path class="r" d="m369.8 189.9h0.2q1.8 0.1 1.8 1.3v0.4q0 0.1-0.1 0.1h-0.1q-0.2 0-0.2-0.7-0.5-0.7-1.2-0.7-1.6 0-2.4 2.6 0 0.1 0 0.1 0 0.7-0.1 0.7 0 0 0.1 0-0.2 0.7-0.2 2.1v0.3q0 0 0 0 0 0.1 0 0.1v0.3 0.7q0 0.1-0.2 0.1 0.2 0.3 0.2 0.4h-0.1q0 0.1 0.1 0.1l-0.1 0.7 0.1 0.5-0.1 0.4q0.1 0.1 0.1 0.3h-0.1l0.1 0.1v0.4l-0.2 0.2 0.2 0.7v0.2q0 0.1 0 0.1 0 0.2 0 0.2 0 0.4 0.1 2.5l0.1 0.1-0.1 0.1 0.1 0.4q0 0.1-0.1 0.1l0.1 1.2q0 0 0 0l0.4 3.4h-0.1l0.3 1.9h-0.1q0.5 2.5 1.4 2.5 1.2 0 2-2.1h0.2q0.1 0.3 0.1 0.4-0.4 1.3-1.4 1.9-0.3 0.2-1 0.2h-0.2q-0.9 0-1.6-2.6 0-0.1 0.1-0.1-0.1-0.9-0.1-2v-0.2q-0.2-0.7-0.2-0.8v-0.2-0.4q0-0.1-0.1-0.3l0.1-0.1q-0.1-0.7-0.2-0.9v-0.5q0-0.1 0-0.1 0 0-0.1-0.7h0.1q-0.1-0.2-0.1-0.2 0-1.9-0.2-6.1l0.1-0.1q-0.1-0.2-0.1-0.2 0.1-1.2 0.1-1.5h0.1l-0.1-0.2q0-0.1 0.1-0.1l-0.1-0.1v-0.5q0-0.1 0.1-0.1l-0.1-0.1 0.1-0.5-0.1-0.1q0.1-0.1 0.1-0.3 0-0.2-0.1-0.2 0.2-2.4 0.6-3.3 0.6-1 1.2-1.7 0.6-0.1 0.8-0.1z"/><path class="r" d="m375.8 189.7q-0.1 0-0.2 0.2v0.6q-0.1 0.9-0.1 1 0 0.7 0.1 1.6v0.1 0.3q0 0 0 0v0.2 0.7q0 0.2 0 0.3 0 0.1 0 0.3 0 0 0 0v0.1q0 0.2 0 0.3 0 0.1 0 0.1 0 0.6-0.1 0.6l0.1 0.1q0 0.1-0.1 0.1l0.1 0.7v0.7q0 0-0.1 0l0.1 0.2v0.7q0 0.6 0 1.9 0 0 0 0.1h0.8q0.1 0 0.1 0h0.1 0.1 0.2q0.1 0 0.1 0 0.2 0 0.2 0h0.4 0.1q0.3 0 1 0v-0.7q0-0.3-0.1-0.7l0.1-0.2-0.1-0.4v-0.1q0-0.1 0.1-0.1 0-0.1-0.1-0.1 0.1-1.5 0.1-1.6 0-0.3 0-0.6 0-2.5 0.1-3.3v-0.1q0.1-0.4 0.1-0.5 0-0.1-0.1-0.1 0.1-0.8 0.2-0.8 0-0.1-0.1-0.1l0.1-0.3-0.1-0.3h0.1l-0.1-0.2v-0.5q0 0 0.1 0 0-0.1-0.1-0.1l0.5-0.2q0 0.2 0.1 0.2l-0.1 0.3v0.9q0 0 0 0 0 0.1 0 0.1-0.1 0-0.2 4.3h-0.1l0.1 0.1q0 0.2-0.1 0.2v0.1 0.5q0 0 0 0v0.1 0.7q0 0.2 0 0.6 0 0 0 0v0.3 0.2 0.4 0.1 0.1q0 0.2 0 0.2 0 0.1 0 0.2 0 0.1 0 0.2l0.1 1.3-0.1 0.1q0.1 1.9 0.2 3.8l-0.1 0.1 0.1 0.4v0.8q0 0-0.1 0l0.1 0.2q0 0.2-0.1 0.3l0.1 0.1q0 0.1-0.1 0.1l0.1 0.6v1.1q0 0.2 0.1 0.3-0.1 0.1-0.1 0.2 0 0.1 0.1 0.1l-0.1 0.4v0.3q0 0.2 0.1 0.3-0.1 0.7-0.2 0.7l0.1 0.1q0.1 2.3 0.2 3.3l-0.2 0.1h-0.2q-0.3-0.5-0.3-0.7 0.2-0.2 0.2-0.4-0.1-0.1-0.1-0.3h0.1l-0.1-0.1v-0.2q0-0.1 0.1-0.1l-0.1-0.1v-1l-0.1-0.4h0.1l-0.1-0.2v-0.6q0-0.1 0.1-0.1l-0.1-0.2v-1q0-0.1 0.1-0.3 0 0-0.1 0l0.1-0.4q-0.1-1.1-0.1-1.9v-0.5l0.2-0.2q-0.2 0-0.2-0.5 0-0.1 0-0.1 0-0.2 0-0.2 0-0.2 0-0.3l-0.1-0.8q0-0.1 0.1-0.1l-0.1-0.3v-0.1q0-0.1 0.1-0.2 0-0.1-0.1-0.1 0 0 0.1-0.2-0.1-0.8-0.1-1.3v-0.2l-0.2 0.1h-2q-0.2 0-0.3 0.1-0.1-0.1-0.3-0.1h-0.3q0 0.5 0.1 1.5 0 0.1-0.1 0.7 0.1 0.9 0.1 2v0.2q0 0.1 0 0.1v0.1 0.8l0.1 0.5h-0.1l0.1 0.1q0 0.7 0.1 2.2 0 0 0 0 0 0.6 0.1 0.8l-0.1 0.1q0 0.1 0.1 0.1l-0.1 0.3v1l0.1 0.4h-0.1q0 0.1 0.1 0.1l-0.1 0.3q0.1 1.4 0.1 1.6l-0.3 0.2q-0.1-0.3-0.3-0.3l0.1-0.4v-0.5q0-0.1 0.1-0.1l-0.1-0.1q0.1-1 0.1-1.2l-0.1-0.2 0.1-0.1q-0.1-0.6-0.1-1 0-0.2 0.1-0.2l-0.1-0.4v-0.1q0-0.6-0.1-1.6 0-0.1 0.1-0.1l-0.1-0.4v-0.5-0.5-0.1-1l-0.1-0.4q0-0.1 0.1-0.1-0.2-0.7-0.2-1.8v-0.3q0-0.1 0.1-0.1 0 0-0.1 0 0-0.1 0.1-0.3-0.1-1.4-0.2-1.4l0.1-0.5q-0.1-1.8-0.1-2.5h0.1l-0.1-0.1q0-0.2 0.1-0.2l-0.1-0.5v-2q0-0.5 0.1-1.3l-0.1-0.2q0 0 0.1 0l-0.1-0.5v-0.4q0 0 0.1 0-0.1-0.2-0.2-0.6l0.1-0.2q-0.1-0.3-0.1-0.5v-0.1q0.2-0.9 0.2-1v-0.8z"/><path class="r" d="m385.9 189.7h0.1l0.2 0.1h0.3q0.2 0 0.2-0.1l0.3 0.1h1.5q0.6 0.1 0.6 0.2v0.2 0.1q-1 0-1-0.1-0.2 0.1-0.3 0.1h-0.4q-0.1 0-0.2-0.1-0.2 0.1-0.3 0.1h-0.1q0 0 0-0.1l-0.2 0.1h-0.6q0 0.2 0 0.2 0 0.1 0 0.1 0 0 0 0.2v0.3q-0.2 1.9-0.2 2.1l0.1 0.2-0.1 0.4q0.1 1.1 0.1 1.3 0 0.1-0.1 0.1l0.1 0.3v1.1q0 0.2 0 0.3 0 0.1 0 0.3v0.8l-0.1 0.4q0.1 0.1 0.1 0.3v0.1q0 0.2-0.1 0.3l0.1 0.1q0 0.2-0.2 0.6 0.1 0.1 0.1 0.2-0.1 0.5-0.1 0.5l0.1 0.2-0.1 0.3v0.6q0 0 0 0l0.1 0.3 0.1-0.1h2.2q0.1 0 0.2 0.2 0 0.3-2.3 0.3-0.1 0-0.3 0 0 0.4 0 0.6v0.3q0 0.5 0 1.3 0 0.1 0 0.2v0.2q0 0.2 0 0.3 0 1.4 0.2 2.6h-0.1l0.1 0.3v0.4q0 0.6 0 1.1 0.1 0.3 0.1 0.7v0.4q0 0.1-0.1 0.1l0.1 0.1v0.1q0 0.1-0.1 0.1l0.1 0.1q0 0-0.1 0 0 0.1 0.1 0.1l-0.1 0.3v0.2l0.1 0.2q0 0.2 0 0.3l0.1 1.1h1.8l0.3-0.1q0.3 0.1 0.3 0.1h0.1 0.5q0.1 0 0.2 0.2v0.2q-0.2 0-0.2 0.1l-0.2-0.1h-0.1q-0.2 0-0.2 0.1-0.7-0.1-0.7-0.1h-0.1-0.3q-0.2 0-0.3 0-0.1 0-0.9 0.1-0.2-0.1-0.3-0.1 0 0.2-0.1 0.2-0.2 0-0.4-0.9 0-0.1 0.1-0.1l-0.1-0.3v-0.3q0-0.7 0-1 0-0.5 0-1.1v-0.9q0-0.2 0-0.3 0-0.1 0-0.1v-0.4-0.3q-0.2-2.1-0.2-2.3v-0.7q0-0.1 0-0.2 0-0.2 0-0.3v-0.1-0.4q0-0.1 0-0.1v-0.2q0-0.1 0-0.2 0 0 0 0v-0.7-0.4-0.3-0.1-0.2q0 0 0 0 0-0.1 0-0.1v-0.3-1.2l0.1-0.4q-0.1-0.1-0.1-0.2h0.1q0-0.1-0.1-0.1 0.2-0.6 0.2-1.7v-0.9q0 0 0 0v-0.2q-0.1-2.1-0.2-2.3 0 0 0.1 0l-0.1-0.4q0-1.7 0.3-3.3 0 0-0.1 0 0.1-1.3 0.4-1.3z"/><path class="r" d="m391.9 189.6h0.1q0.6 0.4 1.1 2.1 2.3 4.4 4.3 8h0.1l-0.1-0.3v-1.2q0-0.3-0.1-0.4l0.1-0.4v-0.9q0 0 0.1 0-0.2-0.3-0.2-0.8v-0.1q0-0.1 0.1-0.1l-0.1-0.8v-0.2q0-0.6 0-0.9 0-0.1 0-0.2 0-0.1 0-0.2 0-0.4 0-0.6v-0.2q0 0 0 0 0-0.1 0-0.1v-0.6-0.1q-0.1-1.1-0.1-1.3v-0.3q0 0 0.2-0.1 0.1 0 0.4 0.4l-0.1 0.3q0 0.1 0.1 0.2 0 0.1-0.1 0.1l0.1 0.3q-0.1 1.5-0.1 2.3l0.1 0.3-0.1 0.2q0.1 0.1 0.1 0.2 0 0.1-0.1 0.1l0.1 0.1q0.1 1.8 0.1 3v0.2q0 0.1-0.1 0.1l0.1 0.1v0.5q0 0.2 0 0.5l-0.1 0.7q0 0.4 0.1 0.9-0.1 1.3-0.1 2.4 0.1 0.4 0.1 0.5h-0.1l0.1 0.2v0.2q0 0.1-0.1 0.1 0 0 0.1 0l-0.1 0.7v0.5q0 0.3 0.1 0.6l-0.2 1.2 0.1 0.1-0.1 0.2 0.1 0.4q0 0-0.1 0l0.1 0.2v0.3q0 0.1-0.1 0.1l0.1 0.1v0.7q0 0-0.1 0l0.1 0.1v0.8q0 0.1-0.1 0.2 0.1 0.2 0.1 0.3v0.1q0 0.1-0.1 0.1 0 0.1 0.1 0.1-0.1 1.2-0.1 2.2l-0.1 0.2q0 0 0.1 0-0.1 0.9-0.3 0.9h-0.1q-0.2 0-0.2-1.1 0.1 0 0.1-0.1v-0.8q0 0 0.1 0 0-0.1-0.1-0.1 0.1-0.6 0.2-1-0.1-0.2-0.1-0.2v-0.4-0.1-0.5q0 0 0 0v-0.3-2q0-0.1 0.1-0.1l-0.1-0.1v-2.9q0-0.1 0.1-0.1l-0.1-0.1v-0.1q0-0.1 0.1-0.1l-0.1-0.1v-2.3q0-0.1 0.1-0.1l-0.1-0.1q0.1-0.4 0.1-0.7-1.3-2-3.4-6.2-0.9-1.3-1.7-3.6h-0.1v0.7q0 0.1-0.1 0.1l0.1 0.2v1q0 0.1-0.1 0.1l0.1 0.1v0.3q0 1.5 0.1 1.9 0 0 0 0v0.4 0.2q0 0 0 0v0.2 2.1q0 0 0 0 0.1 0.4 0.1 1.8v0.8l0.1 0.3-0.1 0.2 0.1 0.4h-0.1q0 0 0.1 0-0.1 0.6-0.2 0.6l0.1 0.2v0.4q0 0.2 0.1 0.7 0 0.1-0.1 0.1l0.1 0.3v0.2q0 0.5-0.1 1.2l0.1 0.1-0.1 0.5 0.1 0.5h-0.1l0.1 0.1v0.4q0 0.5 0 1.5 0 0 0 0-0.1 0.5-0.1 0.7l0.1 0.9h-0.1l0.1 0.1v0.4q0 0.2-0.1 0.6 0 0 0.1 0l-0.1 0.5v0.7q0 0.3-0.1 0.6 0.1 0.3 0.1 0.6v0.3q0 0.2-0.1 0.2h-0.1q-0.1 0-0.3-0.7 0.1-1.8 0.1-3v-1.8q0 0 0 0v-0.1-0.1q0-0.1 0-0.1v-0.1q0-0.1 0-0.1v-0.3-0.2q0-0.1 0-0.3 0-0.1 0-0.2 0 0 0 0v-0.7-0.1q0-0.5 0-1.1 0-0.3 0-0.6v-0.3q0-0.1 0-0.2 0-0.1 0-0.1v-0.3-0.5l-0.1-0.7h0.1l-0.1-0.1v-0.4q0-0.1 0.1-0.1 0 0-0.1 0 0.1-0.8 0.1-0.8-0.1-0.2-0.1-0.3v-2.2q0-0.2 0-0.3 0-0.1 0-0.3v-0.3-0.3q0-0.1 0-0.1v-0.3-0.8-0.4-0.1q0-0.1 0-0.2 0-0.1 0-0.1-0.2-1.3-0.2-1.8v-0.4q0-0.1 0.1-0.2-0.1-0.1-0.1-0.3l0.1-0.1-0.1-0.2q0.1-0.2 0.1-0.4l-0.1-0.1q0.1-0.2 0.1-0.3 0-0.2-0.1-0.3 0 0 0.1 0l-0.1-0.5v-0.8q0-0.1 0.2-0.2z"/><path class="r" d="m404 189.6l0.2 0.2v0.1q0 0.1-0.6 0.2v-0.1q-2 0.4-2 1.2-0.1 0.1-0.5 1.7l0.1 0.1q-0.1 0.4-0.1 0.4 0 0.1 0 0.1-0.3 2.1-0.4 6.4h-0.1q0 0.1 0.1 0.9v0.2 1.3 0.4q0.3 2.7 0.3 2.9l-0.1 0.1 0.3 1.8-0.1 0.1q0 0.1 0.2 1.7h-0.1l0.3 1.4q0 0.1-0.1 0.1l0.2 1.1q0.3 1.2 0.8 1.5l0.5 0.3 0.1-0.1 0.2 0.1q1.2-0.7 1.2-1.5 0.2-0.1 0.4-1.8l-0.1-0.3q0-0.5 0.2-0.5l-0.1-0.3v-0.4q0-0.3 0.1-0.3v-0.2-1.1-0.5q-0.6-0.1-0.6-0.1h-0.1-0.1q-0.1 0-0.1 0h-0.1-0.1-0.4-0.1q-0.2 0-0.3-0.2v-0.2q0-0.1 0.4-0.2 0.4 0.1 0.7 0.1h0.4l0.2 0.1 0.1-0.1 0.1 0.1 0.3-0.1q0.3 0.3 0.3 0.4-0.2 0.4-0.3 1 0.1 0.6 0.2 0.6l-0.2 0.9 0.2 0.1q-0.4 4.1-1.3 4.6-0.5 0.3-1 0.4-0.8 0-1.7-1.4 0 0 0 0-0.4-1.4-0.6-3.4v-0.1q0-0.1 0-0.1-0.1-0.8-0.1-1.7l-0.1-0.3q0 0 0.1 0-0.2-0.8-0.2-1.1h0.1l-0.1-0.2q0 0 0.1 0-0.1-0.2-0.3-2v-1.4l-0.1-0.6h0.1l-0.1-0.2v-0.1q0-0.6-0.1-1.9h0.1l-0.1-0.2v-0.3q0-0.1 0.1-0.1-0.1-0.1-0.1-0.2l0.1-0.1q0-0.1-0.1-0.1 0.2-1 0.3-1 0 0-0.1 0l0.1-0.7v-0.5q0-0.1 0-0.1 0 0 0 0 0.1-2.6 0.7-5.4 0.3-0.8 1-1.1 0.9-0.3 1.9-0.3z"/><path class="r" d="m408.5 190.2q0 0.1 0 0.1v0.7 0.4q0 2.2-0.2 3.7 0 0.2 0 0.4 0.1 0.2 0.1 0.5v0.1q0 0-0.1 0l0.1 0.2v2.1 0.4q0 0 0 0v0.5 0.7q0 0.1 0 0.1v0.1 0.4q0 0.1 0 0.1v0.1 0.7l0.1 0.5h-0.1l0.1 0.1q0 0.1-0.1 0.1l0.1 0.1v0.4q0 0.1 0 0.3 0 0.1-0.1 0.3 0 0.1 0.1 0.1l-0.1 0.3q0 0.2 0.1 0.3 0 0.2-0.1 0.4 0 0.2 0 0.3v1q0 0.1 0.1 0.2-0.1 0.2-0.1 0.3v0.8q0 0.1 0.1 0.2l-0.1 0.2q0.1 0.1 0.1 0.2 0 0.1 0 0.2l-0.1 0.2q0.1 0.1 0.1 0.3h-0.1l0.1 0.1v0.1l-0.1 0.5q0.1 0 0.1 0.1v0.7q0 0.1-0.1 0.1l0.1 0.1v0.1q0 0-0.1 0l0.1 0.8v0.1q0 1.1 0.1 1.2-0.1 0.2-0.1 0.2 0.1 0.6 0.1 0.9 0 0.4 0 0.5l-0.1 0.1q0.1 0.1-0.4-0.1v-0.9q0-0.1 0-0.3 0-0.2 0-0.4 0 0 0 0-0.1-1.1-0.1-2.3l0.1-0.4q-0.1-0.2-0.1-0.3 0-0.2 0-0.4v-0.6-0.3-0.1-0.1q0-0.2 0-0.2v-0.3-2.7q0-0.2 0-0.3 0-0.2 0-0.2v-0.1-0.1q0-0.1 0-0.1v-0.1q0-0.2 0-0.5 0-0.2 0-0.3v-0.2-0.2q0-1.1-0.1-1.7 0-0.7 0-0.8 0.1-0.4 0.1-0.4-0.1-0.2-0.2-1.8 0.1-0.2 0.1-0.4 0-0.1 0-0.2v-3.2q0-0.1 0.1-0.1 0-0.1-0.1-0.1l0.1-0.3q0-0.1-0.1-0.1l0.1-0.3v-0.5q0-0.1 0-0.1 0-2.3 0.2-2.3 0.3-0.4 0.3 0.1z"/><path class="r" d="m411.3 189.6h0.1q0.5 0.4 1.1 2.1 2.3 4.4 4.3 8v-0.3-1.2q0-0.3-0.1-0.4l0.1-0.4v-0.9q0 0 0 0-0.1-0.3-0.1-0.8v-0.1q0-0.1 0.1-0.1l-0.1-0.8v-0.2q0-0.6 0-0.9 0-0.1 0-0.2 0-0.1 0-0.2 0-0.4 0-0.6v-0.2q0 0 0 0 0-0.1 0-0.1v-0.6-0.1q-0.1-1.1-0.1-1.3v-0.3q0 0 0.2-0.1 0.1 0 0.4 0.4l-0.1 0.3q0 0.1 0.1 0.2 0 0.1-0.1 0.1l0.1 0.3q-0.1 1.5-0.1 2.3l0.1 0.3-0.1 0.2q0.1 0.1 0.1 0.2 0 0.1-0.1 0.1l0.1 0.1q0.1 1.8 0.1 3v0.2q0 0.1-0.1 0.1l0.1 0.1v0.5q0 0.2 0 0.5l-0.1 0.7q0 0.4 0.1 0.9-0.1 1.3-0.1 2.4 0.1 0.4 0.1 0.5h-0.1l0.1 0.2v0.2q0 0.1-0.1 0.1 0 0 0.1 0l-0.1 0.7v0.5q0 0.3 0.1 0.6l-0.2 1.2 0.1 0.1-0.1 0.2 0.1 0.4q0 0-0.1 0l0.1 0.2v0.3q0 0.1-0.1 0.1l0.1 0.1v0.7q0 0-0.1 0l0.1 0.1v0.8q0 0.1-0.1 0.2 0.1 0.2 0.1 0.3v0.1q0 0.1-0.1 0.1 0 0.1 0.1 0.1-0.2 1.2-0.2 2.2v0.2q0 0 0 0 0 0.9-0.2 0.9h-0.1q-0.2 0-0.2-1.1 0.1 0 0.1-0.1v-0.8q0 0 0.1 0 0-0.1-0.1-0.1 0.1-0.6 0.2-1-0.1-0.2-0.1-0.2v-0.4-0.1-0.5q0 0 0 0v-0.3-2q0-0.1 0.1-0.1l-0.1-0.1v-2.9q0-0.1 0.1-0.1l-0.1-0.1v-0.1q0-0.1 0.1-0.1l-0.1-0.1v-2.3q0-0.1 0.1-0.1l-0.1-0.1q0.1-0.4 0.1-0.7-1.4-2-3.5-6.2-0.9-1.3-1.7-3.6v0.7q0 0.1-0.1 0.1l0.1 0.2v1q0 0.1-0.1 0.1l0.1 0.1v0.3q0 1.5 0.1 1.9 0 0-0.1 0l0.1 0.4v0.2q0 0-0.1 0l0.1 0.2v2.1q0 0-0.1 0 0.2 0.4 0.2 1.8v0.8 0.3 0.2 0.4q0 0 0 0 0 0.6-0.1 0.6l0.1 0.2v0.4q0 0.2 0 0.7 0 0.1 0 0.1v0.3 0.2q0 0.5 0 1.2v0.1 0.5 0.5 0.1 0.4q0 0.5 0.1 1.5h-0.1q0 0 0.1 0-0.1 0.5-0.1 0.7v0.9 0.1 0.4q0 0.2 0 0.6 0 0 0 0v0.5 0.7q0 0.3-0.1 0.6 0.1 0.3 0.1 0.6v0.3q0 0.2-0.2 0.2-0.1 0-0.3-0.7 0.1-1.8 0.1-3v-1.8q0 0 0 0v-0.1-0.1q0-0.1 0-0.1v-0.1q0-0.1 0-0.1v-0.3-0.2q0-0.1 0-0.3 0-0.1 0-0.2 0 0 0 0v-0.7-0.1q0-0.5 0-1.1 0-0.3 0-0.6v-0.3q0-0.1 0-0.2 0-0.1 0-0.1v-0.3-0.5l-0.1-0.7h0.1l-0.1-0.1v-0.4q0-0.1 0.1-0.1 0 0-0.1 0 0.1-0.8 0.1-0.8-0.1-0.2-0.1-0.3v-2.2q0-0.2-0.1-0.3 0.1-0.1 0.1-0.3v-0.3l-0.1-0.3h0.1q0-0.1-0.1-0.1l0.1-0.3v-0.8l-0.1-0.4 0.1-0.1q-0.1-0.1-0.1-0.2 0-0.1 0.1-0.1-0.2-1.3-0.2-1.8v-0.4q0-0.1 0.1-0.2-0.1-0.1-0.1-0.3l0.1-0.1-0.1-0.2q0.1-0.2 0.1-0.4l-0.1-0.1q0.1-0.2 0.1-0.3 0-0.2-0.1-0.3 0 0 0.1 0l-0.1-0.5v-0.8q0-0.1 0.2-0.2z"/><path class="r" d="m420.1 189.7h0.1l0.2 0.1h0.3q0.3 0 0.3-0.1l0.3 0.1h1.5q0.6 0.1 0.6 0.2v0.2l-0.1 0.1q-0.9 0-1-0.1-0.1 0.1-0.3 0.1h-0.3q-0.2 0-0.3-0.1-0.1 0.1-0.3 0.1-0.1 0-0.1-0.1l-0.1 0.1h-0.6q0 0.2-0.1 0.2 0 0.1 0.1 0.1 0 0-0.1 0.2l0.1 0.3q-0.3 1.9-0.3 2.1l0.1 0.2-0.1 0.4q0.1 1.1 0.1 1.3 0 0.1-0.1 0.1l0.1 0.3v1.1q0 0.2 0.1 0.3-0.1 0.1-0.1 0.3v0.8l-0.1 0.4q0.1 0.1 0.1 0.3v0.1q0 0.2-0.1 0.3l0.1 0.1q0 0.2-0.1 0.6 0 0.1 0 0.2 0 0.5 0 0.5v0.2 0.3 0.6q0 0-0.1 0l0.1 0.3 0.2-0.1h2.2q0.1 0 0.2 0.2 0 0.3-2.3 0.3-0.1 0-0.4 0 0.1 0.4 0.1 0.6v0.3q0 0.5-0.1 1.3 0.1 0.1 0.1 0.2h-0.1l0.1 0.2q0 0.2-0.1 0.3 0.1 1.4 0.2 2.6h-0.1l0.2 0.3-0.1 0.4q0.1 0.6 0.1 1.1h-0.1q0.1 0.3 0.1 0.7v0.4q0 0.1 0 0.1v0.1 0.1q0 0.1 0 0.1v0.1q0 0 0 0 0 0.1 0 0.1v0.3 0.2l0.1 0.2q0 0.2-0.1 0.3l0.2 1.1h1.7l0.4-0.1q0.3 0.1 0.3 0.1h0.1 0.4q0.1 0 0.2 0.2v0.2q-0.2 0-0.2 0.1l-0.1-0.1h-0.1q-0.2 0-0.2 0.1-0.7-0.1-0.7-0.1h-0.2-0.3q-0.1 0-0.2 0-0.2 0-1 0.1-0.1-0.1-0.2-0.1 0 0.2-0.1 0.2-0.3 0-0.4-0.9 0-0.1 0-0.1v-0.3-0.3q0-0.7-0.1-1 0.1-0.5 0.1-1.1v-0.9q0-0.2-0.1-0.3 0-0.1 0.1-0.1l-0.1-0.4v-0.3q-0.1-2.1-0.1-2.3v-0.7q0-0.1-0.1-0.2 0.1-0.2 0.1-0.3v-0.1l-0.1-0.4h0.1q-0.1-0.1-0.1-0.1l0.1-0.2q-0.1-0.1-0.1-0.2h0.1q0 0-0.1 0l0.1-0.7v-0.4l-0.1-0.3h0.1l-0.1-0.1v-0.2q0 0 0.1 0 0-0.1-0.1-0.1l0.1-0.3v-1.2l0.1-0.4q-0.1-0.1-0.1-0.2h0.1q0-0.1-0.1-0.1 0.1-0.6 0.1-1.7v-0.9q0 0 0.1 0l-0.1-0.2q0-2.1-0.1-2.3 0 0 0.1 0l-0.1-0.4q0-1.7 0.2-3.3 0 0 0 0 0.1-1.3 0.3-1.3z"/><path fill-rule="evenodd" class="r" d="m432.6 189.3q1.5 0 2.2 5.4h-0.1q0.2 0.2 0.3 2.4h-0.1q0 0.1 0.1 0.1-0.1 0.6-0.1 0.8l0.1 0.3q0 0-0.1 0l0.2 1v0.2q0 0 0 0v0.4 0.3 0.2q0.1 0 0.1 0.1-0.1 0.4-0.1 0.4l0.1 0.3q-0.1 0.1-0.1 0.2 0.1 0.1 0.1 0.1 0 0.1-0.1 0.1l0.1 0.5v0.3q0 0-0.1 0l0.1 0.2q0 0.1-0.1 0.1l0.1 0.3v0.2q0 0-0.1 0l0.1 0.2q0 0.1-0.1 0.1l0.1 0.1v0.8l0.1 0.4q-0.1 0.1-0.1 0.2 0 0 0.1 0l-0.1 0.5v0.7q0 0.1-0.1 0.1l0.1 0.2q0 0-0.1 0 0 0.1 0.1 0.1l-0.1 0.3v0.6q0 0.1 0 0.1v0.1q0 0.1 0 0.1 0 0.1 0 0.1-0.1 1.4-0.2 1.4 0 0 0.1 0l-0.1 0.3v0.4q0 2.3-1.4 3.7-0.9 0.4-1.3 0.5-1.3 0-1.6-1-0.5-0.5-0.9-3.2 0-0.1 0.1-0.1l-0.1-0.3q0-1.6 0-1.8v-0.1-0.4q0-0.1 0-0.1 0 0 0-0.1l-0.1-2h0.1l-0.1-0.1v-1.3q0-0.1 0.1-0.1l-0.1-0.1v-1q0-0.5 0.1-1.2 0-0.1-0.1-0.1l0.1-0.3v-0.2q0-0.2-0.1-0.6 0.1-0.1 0.1-0.2-0.1-0.1-0.1-0.2h0.1q0-0.1-0.1-0.1 0-0.1 0.1-0.2-0.2-0.8-0.2-1.7v-0.4q0 0 0.1 0l-0.1-0.1v-0.1q0-0.1 0.1-0.3l-0.1-0.1q0.4-4.4 0.9-5.5 0.9-1.9 2.2-1.9zm-1.9 2.6v0.1q-0.2 0.7-0.3 0.7l0.1 0.1q-0.3 1.8-0.4 1.9 0 0.1 0.1 0.1l-0.1 0.3 0.1 0.2q-0.2 0-0.2 0.6 0 0 0 0v0.5 1.1q0 0.1-0.1 0.1l0.1 0.1v0.4 0.5 0.1 0.5q0 0.2 0.1 0.6-0.1 0.1-0.1 0.1 0.1 0 0.1 0.1l-0.1 0.1v0.1 1q0 0 0 0v0.2 0.4q0 0.1 0 0.1v0.1 1.1q0 0.1 0 0.1 0 0.2 0.1 0.2l-0.1 0.3v0.1q0 0.1 0.1 0.3l-0.1 0.1q0.1 0.3 0.1 0.6v0.1q0 0-0.1 0 0.1 0.2 0.2 0.6h-0.1q0 0.1 0.1 0.1l-0.1 0.2 0.1 0.3h-0.1q0 0.1 0.1 0.1l-0.1 0.3q0.1 0.1 0.1 0.2h-0.1l0.1 0.1q0 0.2-0.1 0.3 0 0.1 0.1 0.1l-0.1 0.4q0 1.9 0.4 4l-0.1 0.1q0.3 1 0.9 1.8h0.2q0.4 0.2 0.8 0.2 1.1-0.4 1.5-1.2 0.9-1.7 0.9-6.6v-0.4q0-0.1 0-0.1 0 0 0 0v-0.4-1.5q0-0.1 0.1-0.3-0.1-0.1-0.1-0.2h0.1l-0.1-0.1v-0.1q0 0 0.1 0l-0.1-0.1v-0.8q0-1.1-0.1-1.8h0.1q-0.1-0.1-0.3-2.5 0.1-0.1 0.1-0.2 0-0.1-0.1-0.1l0.1-0.3v-0.6q0-0.1 0-0.1v-0.1-0.1q0-0.7-0.2-1.3h0.1q-0.6-3.5-1.3-4.9-0.5 0-0.7-0.1-0.5 0-1.4 1.3 0 0.3-0.3 0.8z"/><path fill-rule="evenodd" class="r" d="m438.5 189.2q0.1 0.2 0.1 0.3 1.5 0 2.6 1.9 0.7 1.8 1.2 4.3 0 0.1-0.1 0.1l0.1 0.7v0.5q0 1.8-0.2 3 0 0.1 0.1 0.1 0 0.8-0.8 2.7-1.1 1.6-2 1.6l-1 0.3v0.6q0 0-0.1 0l0.1 0.1v0.9q0 0.2 0.1 0.3l-0.1 0.3v0.4q0 0.2 0.1 0.3l-0.1 0.4q0 0.2 0.1 0.6l-0.1 0.1q0 0.1 0.1 0.1-0.1 0.6-0.1 0.9v0.9q0 0.1-0.1 0.2 0.1 0.1 0.1 0.3 0 0.3-0.1 0.3l0.1 0.5v0.7l-0.1 0.4 0.1 0.2q-0.1 0.7-0.2 0.7 0-0.1-0.2-0.2h-0.1q0-0.2-0.1-0.2l0.1-0.3v-0.2q0-0.8 0.1-1.1-0.1-0.6-0.1-1.2v-0.3q0-1.3 0.1-1.3v-0.3-0.3q0-0.3 0-0.3v-0.4-4.6q0-0.1 0-0.1 0-0.1 0-0.2 0-0.1 0-0.1v-0.7-0.9q0-0.1 0-0.1v-0.2q0-0.1 0-0.1v-0.1-0.1q0-0.2 0-0.3v-0.1-0.2q0-0.2 0-0.4v-0.2q0-0.1 0-0.2v-0.2q0-0.1 0-0.1v-0.2-1.6q0-0.6 0-1.9h0.1l-0.1-0.1v-2.2q0-0.1 0-0.2 0-0.1 0-0.1 0-0.1 0-0.6 0-1.7 0.1-1.8v-0.2-0.3q0-0.1 0-0.1v-0.1q0-0.1 0.3-0.3zm0.1 0.7v0.1q0 0.8-0.1 1.5l0.1 0.2-0.1 0.1q0.1 0.1 0.1 0.2l-0.1 0.1 0.1 0.1q0 0.1-0.1 0.1l0.1 0.3v1.4q0 0-0.1 0l0.1 0.2v0.9q0 0.1-0.1 0.1l0.1 0.1v0.3q0 0-0.1 0l0.1 0.2v0.2q0 0.1-0.1 0.2 0 0.1 0.1 0.1l-0.1 0.3v1.2q0 0.2 0.1 0.7-0.1 0.1-0.1 0.2 0.1 0.4 0.1 0.8v0.2q0 0.1-0.1 0.1l0.1 0.1v0.4q0 0.3-0.1 0.4l0.1 0.4v0.7q0 0.1-0.1 0.2 0.1 0.2 0.1 0.2h-0.1l0.1 0.2v0.1q0 0.1-0.1 0.1l0.1 0.2q0 0-0.1 0l0.1 0.1-0.1 0.4q0 0.1 0.1 0.1l-0.1 0.3v0.5h0.1q1.7-0.6 1.7-0.9 0.7-0.3 1.2-1.9 0.2-1 0.2-1 0-0.1 0-0.1l0.2-1.6q0-0.1-0.1-0.1 0.1-0.7 0.1-2.1v-0.1q0 0 0 0-0.1-1-0.2-1.7-0.1-0.4-0.4-1.7-1-3.1-2.5-3.1z"/><path class="r" d="m444.3 189.8h0.4 0.1q0.7 0 0.7 0.1 0.1 0 0.1-0.1 0.7 0.1 0.7 0.2l0.1-0.1h0.1q0.1 0 0.1 0.1l0.1-0.1h0.2q0.1 0 0.1 0.1 0.3-0.1 0.4-0.1 0.1 0 0.2 0h0.1 0.3q0.1 0 0.3 0 0 0 0 0h0.3 0.6q0.1 0 0.3 0 0.1 0 0.2 0 0.1 0 0.2 0h0.2q0.6 0.1 0.6 0.3-0.2 0.3-0.6 0.3 0-0.1-0.2-0.1-0.1 0-0.1 0.1l-0.3-0.1h-1.5l-0.3 0.1q0-0.1-0.1-0.1-0.1 0.3-0.1 1.5v0.5q0.2 0.3 0.2 0.8h-0.1q0.1 0.4 0.1 0.4v0.4q0 0.2 0 0.7v0.1 0.4 0.4q0 0 0 0 0.1 0.2 0.2 1.3-0.1 0.2-0.1 0.2 0.1 0.1 0.1 0.3h-0.1l0.1 0.1v0.1q0 0-0.1 0l0.1 0.2q0 0-0.1 0l0.1 0.2q0 0-0.1 0l0.1 0.1q0 0.1-0.1 0.1l0.1 0.2q0 0-0.1 0 0 0.1 0.1 0.1l-0.1 0.4v0.1l0.1 0.7h-0.1l0.1 0.1q-0.2 1.7-0.2 2.4v0.5 0.8q0 0 0 0 0 0.6 0 0.7 0 3.8 0 4.7l0.1 0.2-0.1 0.1q0 0.1 0.1 0.2l-0.1 0.3q0.1 0.4 0.1 0.5h-0.1l0.1 0.2q0 0-0.1 0 0 0.1 0.1 0.1l-0.1 2.6q0 0.2 0 0.8 0 0-0.2 0-0.1 0-0.1-0.4 0-0.1-0.1-0.1l0.1-0.4v-0.9l-0.1-0.4h0.1l-0.1-0.2v-0.5q0 0 0.1 0 0-0.1-0.1-0.1l0.1-0.4q0-0.1-0.1-0.1l0.1-0.3v-0.9q0-1-0.2-1.3l0.1-0.2-0.1-0.4q0-0.1 0.1-0.1l-0.1-0.1v-1.6l0.1-0.4q-0.1-0.2-0.1-0.4 0-0.1 0-0.1 0-3.4 0.2-5.6v-0.9q0 0 0 0v-0.1-1.2l-0.1-0.4h0.1l-0.1-0.1v-0.4q0-0.1 0.1-0.2 0-0.1-0.1-0.1 0 0 0.1-0.1 0-0.2-0.2-0.9h0.1l-0.1-0.6v-0.3q-0.1-1.6-0.2-3.3-0.1 0-0.7 0.1-1.5-0.1-1.5-0.2h-0.1q-0.6-0.1-0.6-0.2v-0.2q0 0 0.2-0.1z"/><path class="r" d="m453.8 190.2q0 0.1 0.1 0.1l-0.1 0.7v0.4q0 2.2-0.2 3.7 0.1 0.2 0.1 0.4 0 0.2 0 0.5v0.1q0 0-0.1 0l0.1 0.2v2.1l0.1 0.4q0 0-0.1 0l0.1 0.5v0.7q0 0.1-0.1 0.1l0.1 0.1v0.4q0 0.1-0.1 0.1l0.1 0.1v0.7 0.5 0.1q0 0.1 0 0.1v0.1 0.4q0 0.1 0 0.3 0 0.1 0 0.3 0 0.1 0 0.1v0.3q0 0.2 0 0.3 0 0.2 0 0.4 0 0.2 0 0.3v1q0 0.1 0 0.2 0 0.2 0 0.3v0.8q0 0.1 0 0.2v0.2q0 0.1 0 0.2 0 0.1 0 0.2v0.2q0 0.1 0 0.3v0.1 0.1l-0.1 0.5q0.1 0 0.1 0.1v0.7q0 0.1 0 0.1v0.1 0.1q0 0 0 0l0.1 0.8-0.1 0.1q0.1 1.1 0.2 1.2-0.1 0.2-0.1 0.2 0 0.6 0 0.9 0.1 0.4 0.1 0.5l-0.1 0.1q0 0.1-0.4-0.1v-0.9q0-0.1 0-0.3 0-0.2-0.1-0.4 0 0 0.1 0-0.1-1.1-0.1-2.3v-0.4q0-0.2 0-0.3 0-0.2 0-0.4v-0.6l-0.1-0.3h0.1l-0.1-0.1v-0.1q0-0.2 0.1-0.2l-0.1-0.3v-2.7q0-0.2 0.1-0.3-0.1-0.2-0.1-0.2h0.1l-0.1-0.1v-0.1q0-0.1 0.1-0.1l-0.1-0.1q0.1-0.2 0.1-0.5 0-0.2 0-0.3l-0.1-0.2 0.1-0.2q-0.1-1.1-0.1-1.7 0-0.7 0-0.8 0-0.4 0.1-0.4-0.2-0.2-0.2-1.8 0-0.2 0-0.4 0.1-0.1 0.1-0.2v-3.2q0-0.1 0-0.1 0-0.1 0-0.1v-0.3q0-0.1 0-0.1v-0.3-0.5q0-0.1 0.1-0.1-0.1-2.3 0.2-2.3 0.3-0.4 0.2 0.1z"/><path class="r" d="m456.7 190q0.3 0 0.5 0.9 0.1 0.2 0.8 1.9 0.8 1.4 0.8 1.8v0.2q0.3 0 0.3 0.4h0.2q0.6-0.5 2.2-4.5 0.2-0.6 0.4-0.7h0.1q0.3 0.3 0.3 0.7-0.1 0-0.1 0.1v0.3q0 0.8-0.2 3 0.1 0.5 0.1 0.7h-0.1l0.1 0.2q0 0-0.1 0l0.2 1.6q-0.1 0.2-0.2 0.2 0.1 0.2 0.1 0.2 0 0.2-0.1 0.5l0.1 0.3q-0.1 0.9-0.1 1.4 0 0.1 0.1 0.2l-0.1 0.1q0.1 0.5 0.1 0.8l-0.1 0.3q0 0 0.1 0l-0.1 0.4v0.8q0 0.1-0.1 0.1l0.1 0.1v0.2q0 0.1-0.1 0.1 0.1 0.1 0.1 0.1l-0.1 0.2q0.2 0.3 0.2 0.4-0.1 0.4-0.1 0.6l0.1 0.3q0 0-0.1 0l0.1 0.4v0.7q0 0.1 0.1 0.2l-0.1 0.2q0.1 2.3 0.2 3.3h-0.1l0.1 0.1v1.4 0.7 0.1 0.4q0 0.1 0 0.1l0.1 0.3q0 0-0.1 0.1 0.2 1.3 0.2 1.8l-0.2 0.1h-0.1q-0.3 0-0.3-0.8h0.1q0-0.1-0.1-0.1l-0.1-3.5h0.1q-0.1-0.1-0.1-0.1 0-1.4-0.1-2 0.1-0.1 0.1-0.2 0 0-0.1-0.2l0.1-0.2q-0.1-1.2-0.2-1.2 0.1-0.1 0.1-0.3 0-0.1-0.1-0.5l0.1-0.4q-0.1-0.4-0.1-0.6 0 0 0.1 0l-0.1-0.3v-3.1q0-0.1 0.1-0.1l-0.1-0.1q0 0 0.1 0l-0.1-0.2v-0.2q0-0.2 0.1-0.2l-0.1-0.3v-1.4q0-0.1 0.1-0.2-0.1-0.2-0.1-0.3h0.1l-0.1-0.1v-0.3q0-0.1 0.1-0.1l-0.1-0.1 0.1-0.1q-0.1-0.1-0.1-0.3h0.1l-0.1-0.1v-0.2q0-0.5 0-0.9 0-0.3 0-0.9v-0.1q0-0.2 0.1-0.3l-0.1-0.1 0.1-0.4-0.1-0.3q0.2-0.7 0.2-1.5v-0.1h-0.1q-0.5 1.4-1 2.2 0 0.7-1.4 2.5h-0.1q-0.2-0.3-0.9-1.9-1.2-2.6-1.4-2.8v0.1 0.8q0 0.1 0 0.1 0 0.1 0 0.2l0.1 1-0.1 0.1 0.1 0.2q0 0-0.1 0l0.1 0.3v0.5q0 0.1 0.1 0.1-0.1 0.7-0.2 0.7 0.1 0.1 0.1 0.2l-0.1 0.1q0 0.1 0.1 0.1l-0.1 0.4v1.3q0 0.2 0.1 0.3l-0.1 0.1q0.1 1.2 0.2 1.2-0.1 0.6-0.1 0.9v1.1q0 0.1-0.1 0.1l0.1 0.1v0.2q0 0.1-0.1 0.3 0.1 0.1 0.1 0.2v0.2l-0.1 0.1 0.2 0.1q0 0.1-0.1 0.2 0 0.5 0.1 0.5v0.4 0.1 0.4q0 0.1 0 0.1v0.4 0.4q0 0.1 0 0.1l0.1 0.4-0.1 0.3q0 0.4 0.1 1.3 0 0 0 0v0.3 0.9q0 0.2 0.1 0.3 0 0.1-0.1 0.1 0.2 0.8 0.2 2.4 0.1 0.3 0.1 0.5h-0.1l0.1 0.1q0 0.4 0.1 2.4l-0.1 0.1h-0.1q-0.2 0-0.3-0.8l0.1-0.2q-0.1-0.6-0.1-0.7 0-0.1 0-0.1v-0.3-0.2q-0.2-3.9-0.3-4.8h0.1l-0.1-0.2v-0.5q0-0.1-0.1-0.3 0.1-0.1 0.1-0.2l-0.1-0.4h0.1l-0.1-0.6v-0.2q0-0.1 0-0.2v-0.1-1.2l-0.1-0.4h0.1l-0.1-0.1v-0.4q0-0.5-0.1-0.6 0.1-0.4 0.1-0.7v-1.7q0-0.1 0.1-0.2l-0.1-0.1q-0.1-2-0.1-2.6 0-0.6 0.2-1.6l-0.2-3.3v-0.2-0.1q0-0.2 0-0.6v-0.1q0-0.5 0.2-0.5z"/><path class="r" d="m466.1 190.2q0 0.1 0.1 0.1l-0.1 0.7v0.4q0 2.2-0.2 3.7 0.1 0.2 0.1 0.4 0 0.2 0 0.5v0.1q0 0-0.1 0l0.1 0.2v2.1l0.1 0.4q0 0-0.1 0l0.1 0.5v0.7q0 0.1-0.1 0.1l0.1 0.1v0.4q0 0.1-0.1 0.1l0.1 0.1v0.7 0.5 0.1q0 0.1 0 0.1v0.1 0.4q0 0.1 0 0.3 0 0.1 0 0.3 0 0.1 0 0.1v0.3q0 0.2 0 0.3 0 0.2 0 0.4 0 0.2 0 0.3v1q0 0.1 0 0.2 0 0.2 0 0.3v0.8q0 0.1 0 0.2v0.2q0 0.1 0 0.2 0 0.1 0 0.2v0.2q0 0.1 0 0.3v0.1 0.1l-0.1 0.5q0.1 0 0.1 0.1v0.7q0 0.1 0 0.1v0.1 0.1q0 0 0 0l0.1 0.8-0.1 0.1q0.1 1.1 0.1 1.2 0 0.2 0 0.2 0 0.6 0 0.9 0 0.4 0 0.5v0.1q0 0.1-0.4-0.1v-0.9q0-0.1 0-0.3 0-0.2-0.1-0.4 0 0 0.1 0-0.1-1.1-0.1-2.3v-0.4q0-0.2 0-0.3 0-0.2 0-0.4v-0.6l-0.1-0.3h0.1l-0.1-0.1v-0.1q0-0.2 0.1-0.2l-0.1-0.3v-2.7q0-0.2 0.1-0.3-0.1-0.2-0.1-0.2h0.1l-0.1-0.1v-0.1q0-0.1 0.1-0.1l-0.1-0.1q0-0.2 0.1-0.5 0-0.2 0-0.3l-0.1-0.2 0.1-0.2q-0.1-1.1-0.1-1.7-0.1-0.7-0.1-0.8 0.1-0.4 0.2-0.4-0.2-0.2-0.2-1.8 0-0.2 0-0.4 0-0.1 0-0.2v-3.2q0-0.1 0.1-0.1 0-0.1-0.1-0.1l0.1-0.3q0-0.1-0.1-0.1l0.1-0.3v-0.5q0-0.1 0.1-0.1-0.1-2.3 0.2-2.3 0.3-0.4 0.2 0.1z"/><path class="r" d="m469 189.8q0.5 0.2 1.1 0.2 0.2 0 0.5-0.1 0.7 0.1 0.7 0.1h0.1 2.3q0.1 0 0.1 0.2-0.1 0.1-0.1 0.2 0.2 0 0.2 0-0.6 3-1.3 7.3-1.3 6.7-1.6 8.8-1.3 4.4-1.6 5.9 0 0.1 0.1 0.1-0.1 0.6-0.2 0.7 0.1 0 0.1 0.1l0.1-0.1q0.5 0.2 2.7 0.2h1.9q0.3 0.1 0.3 0.2v0.2l-0.2 0.2q-0.7-0.1-0.9-0.1h-0.1-0.1-0.3-0.2-0.4q-0.2 0-0.3 0-0.1 0-0.2 0-0.1 0-0.2 0-0.1 0-0.1 0h-0.3l-2.2-0.1q-0.1-0.1-0.1-0.6 0.1-0.2 0.3-1.8l0.9-2.8q0-0.1 0-0.1 0-0.1 0-0.1 0.9-4 0.9-4.5l1.1-5.3q0.1-0.7 0.2-0.7 0-0.1-0.1-0.1 0.2-0.7 0.3-0.7l-0.1-0.1q0.3-1.5 0.9-5.8 0.2-0.3 0.2-0.7v-0.1h-1q0 0 0 0-0.1 0-0.1 0-0.1 0-0.4 0-0.1 0-0.9 0-0.6-0.1-0.7-0.1l-0.3 0.1q-0.1-0.1-0.2-0.1-0.1 0.1-0.2 0.1v-0.1q-0.1 0.1-0.2 0.1-0.6-0.1-0.6-0.3v-0.1q0 0 0.2-0.2z"/><path fill-rule="evenodd" class="r" d="m480.1 189.8l0.3 0.5q0 0.4 0.2 1.4v0.6q0 0.2 0 0.3v0.1q0 0.1 0 0.2 0 0.2 0 0.2 0.4 4.1 0.8 7.4 0 0 0 0 0.6 4.4 0.6 4.9h-0.1l1.3 7.7q-0.1 0.5-0.2 0.5h-0.1q-0.2 0-0.5-2.6l-0.6-3.4h0.1l-0.1-0.1q0-0.1 0.1-0.1-0.1-0.7-0.5-2.2 0.1-0.2 0.1-0.2-0.1-0.8-0.2-1.2 0 0 0.1 0l-0.3-1.8h-0.5q-1 0-1.7 0.1v0.1q-0.4 4.4-0.7 6v0.1q-0.3 1.8-0.4 1.8l0.1 0.1q-0.1 0.9-0.2 0.9v0.1q0 1.4-0.2 1.7l0.1 0.3q-0.1 0.7-0.3 0.7-0.1 0-0.2-0.2v-0.6q0 0 0 0 0-0.1 0-0.1l0.4-2.4-0.1-0.1q0.2-0.9 0.3-1.9h0.1l-0.1-0.1q0.4-2 0.8-5.5 0-0.1-0.1-0.1 0.1-1.1 0.2-1.1l-0.1-0.1 0.1-0.2q0 0-0.1 0l0.1-0.7v-0.5q0-0.1 0.1-0.1l-0.1-0.1q0-0.1 0.1-0.1 0-0.1-0.1-0.1 0.1-1.3 0.2-1.3 0 0-0.1 0 0.3-2 0.4-2.4 0-0.1-0.1-0.1 0.2-1.6 0.4-2.5v-0.1q0-0.2 0.1-0.6 0-0.1-0.1-0.1 0.3-2.9 0.5-2.9 0.1-0.1 0.2-0.1zm-0.3 2.7l0.1 0.2q-0.3 2.1-0.4 2.7 0 0 0 0-0.1 1-0.1 1v0.1q-0.1 1.3-0.2 1.3 0 0.1 0.1 0.1-0.1 0.5-0.1 0.5 0 0 0 0-0.1 1.1-0.2 3.3 0.5-0.2 1.1-0.2h0.9l0.1-0.1-0.2-1.2 0.1-0.2q-0.2-0.3-0.4-2.2 0-0.1 0-0.3l-0.1-0.2v-0.5q0-0.3-0.2-1.7h0.1q-0.3-1.1-0.3-3.3-0.1 0-0.3 0.7z"/><path class="r" d="m485 189.8h0.4 0.2q0.6 0 0.6 0.1 0.1 0 0.1-0.1 0.8 0.1 0.8 0.2l0.1-0.1q0.1 0 0.1 0.1l0.1-0.1h0.2q0.1 0 0.1 0.1 0.3-0.1 0.4-0.1 0.1 0 0.2 0h0.1 0.3q0.1 0 0.3 0 0 0 0 0h0.4 0.5q0.1 0 0.3 0 0.1 0 0.2 0 0.1 0 0.3 0h0.1q0.6 0.1 0.6 0.3-0.2 0.3-0.6 0.3 0-0.1-0.1-0.1-0.2 0-0.2 0.1l-0.3-0.1h-1.5l-0.3 0.1q0-0.1-0.1-0.1-0.1 0.3-0.1 1.5v0.5q0.2 0.3 0.2 0.8h-0.1q0.1 0.4 0.2 0.4l-0.1 0.4q0 0.2 0.1 0.7l-0.1 0.1 0.1 0.4v0.4q0 0-0.1 0 0.1 0.2 0.2 1.3-0.1 0.2-0.1 0.2 0.1 0.1 0.1 0.3h-0.1l0.1 0.1v0.1q0 0-0.1 0l0.1 0.2q0 0-0.1 0l0.1 0.2q0 0-0.1 0l0.1 0.1q0 0.1-0.1 0.1l0.1 0.2q0 0-0.1 0 0 0.1 0.1 0.1l-0.1 0.4v0.1l0.1 0.7h-0.1l0.1 0.1q-0.2 1.7-0.2 2.4v0.5l0.1 0.8h-0.1q0 0 0.1 0-0.1 0.6-0.1 0.7 0.1 3.8 0.1 4.7v0.2 0.1q0 0.1 0 0.2v0.3q0 0.4 0 0.5v0.2q0 0 0 0 0 0.1 0 0.1l-0.1 2.6q0.1 0.2 0.1 0.8-0.1 0-0.3 0-0.1 0-0.1-0.4 0-0.1-0.1-0.1l0.1-0.4v-0.9l-0.1-0.4h0.1l-0.1-0.2v-0.5q0 0 0.1 0 0-0.1-0.1-0.1l0.1-0.4q0-0.1-0.1-0.1l0.1-0.3v-0.9q0-1-0.1-1.3v-0.2-0.4q0-0.1 0-0.1v-0.1-1.6-0.4q-0.1-0.2-0.1-0.4h0.1q0-0.1-0.1-0.1 0.1-3.4 0.2-5.6v-0.9q0 0 0 0v-0.1-1.2l-0.1-0.4h0.1l-0.1-0.1v-0.4q0-0.1 0.1-0.2 0-0.1-0.1-0.1 0 0 0.1-0.1 0-0.2-0.1-0.9l-0.1-0.6 0.1-0.3q-0.2-1.6-0.2-3.3-0.2 0-0.8 0.1-1.4-0.1-1.4-0.2h-0.2q-0.6-0.1-0.6-0.2v-0.2q0 0 0.2-0.1z"/><path class="r" d="m494.6 190.2q0 0.1 0 0.1v0.7 0.4q0 2.2-0.2 3.7 0 0.2 0 0.4 0 0.2 0 0.5v0.1q0 0 0 0v0.2 2.1l0.1 0.4q0 0-0.1 0l0.1 0.5v0.7q0 0.1-0.1 0.1l0.1 0.1v0.4q0 0.1-0.1 0.1l0.1 0.1v0.7l0.1 0.5h-0.1l0.1 0.1q0 0.1-0.1 0.1l0.1 0.1v0.4q0 0.1-0.1 0.3 0 0.1 0 0.3 0 0.1 0.1 0.1l-0.1 0.3q0 0.2 0.1 0.3-0.1 0.2-0.1 0.4 0 0.2 0 0.3v1q0 0.1 0.1 0.2-0.1 0.2-0.1 0.3v0.8q0 0.1 0.1 0.2l-0.1 0.2q0 0.1 0 0.2 0.1 0.1 0.1 0.2l-0.1 0.2q0.1 0.1 0.1 0.3h-0.1l0.1 0.1v0.1l-0.2 0.5q0.2 0 0.2 0.1v0.7q0 0.1-0.1 0.1l0.1 0.1v0.1q0 0-0.1 0l0.1 0.8v0.1q0 1.1 0.1 1.2-0.1 0.2-0.1 0.2 0 0.6 0 0.9 0.1 0.4 0.1 0.5l-0.1 0.1q0 0.1-0.4-0.1v-0.9q0-0.1 0-0.3 0-0.2-0.1-0.4 0 0 0.1 0-0.1-1.1-0.1-2.3v-0.4q0-0.2 0-0.3 0-0.2 0-0.4v-0.6l-0.1-0.3h0.1l-0.1-0.1v-0.1q0-0.2 0.1-0.2l-0.1-0.3v-2.7q0-0.2 0.1-0.3-0.1-0.2-0.1-0.2h0.1l-0.1-0.1v-0.1q0-0.1 0.1-0.1l-0.1-0.1q0.1-0.2 0.1-0.5 0-0.2 0-0.3l-0.1-0.2 0.1-0.2q-0.1-1.1-0.1-1.7 0-0.7 0-0.8 0-0.4 0.1-0.4-0.2-0.2-0.2-1.8 0-0.2 0.1-0.4 0-0.1 0-0.2v-3.2q0-0.1 0-0.1 0-0.1 0-0.1v-0.3q0-0.1 0-0.1v-0.3-0.5q0-0.1 0.1-0.1-0.1-2.3 0.2-2.3 0.3-0.4 0.3 0.1z"/><path fill-rule="evenodd" class="r" d="m500.3 189.3q1.4 0 2.2 5.4h-0.1q0.1 0.2 0.3 2.4h-0.1q0 0.1 0.1 0.1-0.1 0.6-0.1 0.8l0.1 0.3q0 0-0.1 0l0.2 1h-0.1l0.1 0.2q0 0-0.1 0l0.1 0.4v0.3l-0.1 0.2q0.2 0 0.2 0.1-0.1 0.4-0.1 0.4l0.1 0.3q-0.1 0.1-0.1 0.2 0.1 0.1 0.1 0.1 0 0.1-0.1 0.1l0.1 0.5v0.3q0 0-0.1 0l0.1 0.2q0 0.1-0.1 0.1l0.1 0.3v0.2q0 0-0.1 0l0.1 0.2q0 0.1-0.1 0.1l0.1 0.1v0.8 0.4q0 0.1 0 0.2 0 0 0 0v0.5 0.7q0 0.1-0.1 0.1l0.1 0.2q0 0-0.1 0 0 0.1 0.1 0.1l-0.1 0.3v0.6q0 0.1-0.1 0.1l0.1 0.1q0 0.1-0.1 0.1 0 0.1 0.1 0.1-0.1 1.4-0.2 1.4 0 0 0.1 0l-0.1 0.3v0.4q0 2.3-1.5 3.7-0.8 0.4-1.2 0.5-1.3 0-1.7-1-0.5-0.5-0.8-3.2 0-0.1 0-0.1v-0.3q-0.1-1.6-0.1-1.8h0.1l-0.1-0.1 0.1-0.4q0-0.1-0.1-0.1 0 0 0.1-0.1l-0.1-2v-0.1-1.3q0-0.1 0-0.1v-0.1-1q0-0.5 0-1.2 0-0.1 0-0.1v-0.3-0.2q0-0.2 0-0.6 0-0.1 0-0.2 0-0.1 0-0.2 0-0.1 0-0.1 0-0.1 0-0.2-0.1-0.8-0.1-1.7v-0.4q0 0 0.1 0l-0.1-0.1v-0.1q0-0.1 0.1-0.3l-0.1-0.1q0.4-4.4 0.9-5.5 0.9-1.9 2.2-1.9zm-2 2.6l0.1 0.1q-0.2 0.7-0.3 0.7l0.1 0.1q-0.3 1.8-0.4 1.9 0 0.1 0 0.1v0.3 0.2q-0.1 0-0.2 0.6 0 0 0.1 0l-0.1 0.5v1.1q0 0.1 0 0.1v0.1 0.4l0.1 0.5h-0.1l0.1 0.1v0.5q0 0.2 0.1 0.6-0.1 0.1-0.1 0.1 0.1 0 0.1 0.1l-0.2 0.1 0.1 0.1v1q0 0-0.1 0l0.1 0.2v0.4q0 0.1-0.1 0.1l0.1 0.1v1.1q0 0.1-0.1 0.1 0.1 0.2 0.2 0.2l-0.1 0.3v0.1q0 0.1 0.1 0.3l-0.1 0.1q0.1 0.3 0.1 0.6v0.1q0 0-0.1 0 0.1 0.2 0.1 0.6 0 0.1 0 0.1v0.2 0.3q0 0.1 0 0.1v0.3q0 0.1 0 0.2v0.1q0 0.2 0 0.3 0 0.1 0 0.1v0.4q0 1.9 0.4 4l-0.1 0.1q0.2 1 0.9 1.8h0.1q0.5 0.2 0.9 0.2 1.1-0.4 1.4-1.2 0.9-1.7 0.9-6.6v-0.4q0-0.1 0.1-0.1 0 0-0.1 0l0.1-0.4v-1.5q0-0.1 0.1-0.3-0.1-0.1-0.1-0.2h0.1l-0.1-0.1v-0.1q0 0 0.1 0l-0.1-0.1v-0.8q0-1.1-0.1-1.8 0-0.1-0.2-2.5 0-0.1 0-0.2 0-0.1 0-0.1v-0.3-0.6q0-0.1 0.1-0.1l-0.1-0.1v-0.1q0-0.7-0.1-1.3-0.5-3.5-1.3-4.9-0.4 0-0.6-0.1-0.5 0-1.4 1.3 0 0.3-0.4 0.8z"/><path class="r" d="m505.8 189.6h0.1q0.5 0.4 1.1 2.1 2.3 4.4 4.3 8v-0.3-1.2q0-0.3-0.1-0.4l0.1-0.4v-0.9q0 0 0 0-0.1-0.3-0.1-0.8v-0.1q0-0.1 0.1-0.1l-0.2-0.8 0.1-0.2q-0.1-0.6-0.1-0.9h0.1q-0.1-0.1-0.1-0.2 0-0.1 0.1-0.2-0.1-0.4-0.1-0.6v-0.2q0 0 0.1 0 0-0.1-0.1-0.1l0.1-0.6v-0.1q-0.1-1.1-0.1-1.3v-0.3q0 0 0.2-0.1 0.1 0 0.4 0.4l-0.1 0.3q0 0.1 0.1 0.2 0 0.1-0.1 0.1l0.1 0.3q-0.1 1.5-0.1 2.3l0.1 0.3-0.1 0.2q0.1 0.1 0.1 0.2 0 0.1-0.1 0.1l0.1 0.1q0 1.8 0 3v0.2q0 0.1 0 0.1v0.1 0.5q0 0.2 0.1 0.5l-0.1 0.7q0 0.4 0 0.9 0 1.3 0 2.4 0 0.4 0 0.5v0.2 0.2q0 0.1 0 0.1 0 0 0 0v0.7 0.5q0 0.3 0 0.6l-0.1 1.2 0.1 0.1-0.1 0.2 0.1 0.4q0 0-0.1 0l0.1 0.2v0.3q0 0.1-0.1 0.1l0.1 0.1v0.7q0 0-0.1 0l0.1 0.1v0.8q0 0.1-0.1 0.2 0.1 0.2 0.1 0.3v0.1q0 0.1-0.1 0.1 0 0.1 0.1 0.1-0.2 1.2-0.2 2.2v0.2q0 0 0 0 0 0.9-0.2 0.9h-0.2q-0.2 0-0.2-1.1 0.2 0 0.2-0.1v-0.8q0 0 0 0 0-0.1 0-0.1 0-0.6 0.2-1-0.1-0.2-0.2-0.2l0.1-0.4v-0.1l-0.1-0.5h0.1q0 0-0.1 0l0.1-0.3v-2q0-0.1 0.1-0.1l-0.1-0.1v-2.9q0-0.1 0.1-0.1l-0.1-0.1v-0.1q0-0.1 0.1-0.1l-0.1-0.1v-2.3q0-0.1 0.1-0.1l-0.1-0.1q0.1-0.4 0.1-0.7-1.4-2-3.5-6.2-0.9-1.3-1.7-3.6h-0.1v0.7q0 0.1 0 0.1v0.2 1q0 0.1 0 0.1v0.1 0.3q0 1.5 0.2 1.9 0 0-0.1 0l0.1 0.4v0.2q0 0-0.1 0l0.1 0.2v2.1q0 0-0.1 0 0.2 0.4 0.2 1.8v0.8 0.3 0.2 0.4q0 0 0 0 0 0.6-0.1 0.6l0.1 0.2v0.4q0 0.2 0 0.7 0 0.1 0 0.1v0.3 0.2q0 0.5 0 1.2v0.1 0.5 0.5 0.1 0.4q0 0.5 0.1 1.5h-0.1q0 0 0.1 0-0.1 0.5-0.1 0.7v0.9 0.1 0.4q0 0.2 0 0.6 0 0 0 0v0.5 0.7q0 0.3-0.1 0.6 0.1 0.3 0.1 0.6v0.3q0 0.2-0.2 0.2h-0.1q-0.1 0-0.2-0.7 0.1-1.8 0.1-3v-1.8q0 0 0 0v-0.1-0.1q0-0.1 0-0.1v-0.1q0-0.1 0-0.1v-0.3-0.2q0-0.1 0-0.3 0-0.1 0-0.2 0 0 0 0v-0.7-0.1q0-0.5 0-1.1 0-0.3 0-0.6v-0.3q0-0.1 0-0.2 0-0.1 0-0.1v-0.3-0.5l-0.1-0.7h0.1l-0.1-0.1v-0.4q0-0.1 0.1-0.1 0 0-0.1 0 0-0.8 0.1-0.8-0.1-0.2-0.1-0.3v-2.2q0-0.2-0.1-0.3 0.1-0.1 0.1-0.3v-0.3l-0.1-0.3h0.1q0-0.1-0.1-0.1l0.1-0.3v-0.8l-0.1-0.4 0.1-0.1q-0.1-0.1-0.1-0.2 0-0.1 0.1-0.1-0.2-1.3-0.2-1.8v-0.4q0-0.1 0.1-0.2-0.1-0.1-0.1-0.3l0.1-0.1-0.1-0.2q0.1-0.2 0.1-0.4l-0.1-0.1q0.1-0.2 0.1-0.3 0-0.2-0.1-0.3 0 0 0.1 0l-0.1-0.5v-0.8q0-0.1 0.2-0.2z"/></svg>