<svg width="22" height="23" viewBox="0 0 22 23" fill="none" xmlns="http://www.w3.org/2000/svg">
<g clip-path="url(#clip0_7833_3767)">
<rect y="0.791016" width="22" height="22" rx="11" fill="#3FAED4"/>
<g clip-path="url(#clip1_7833_3767)">
<path d="M9.1755 6.83994C9.33679 6.94 9.47054 7.09481 9.60418 7.22836C9.6219 7.246 9.63963 7.26364 9.65789 7.28181C9.70651 7.33021 9.75508 7.37866 9.80364 7.42713C9.85623 7.47961 9.90888 7.53203 9.96152 7.58446C10.0882 7.71071 10.2149 7.83705 10.3415 7.9634C10.3773 7.99912 10.4131 8.03484 10.4489 8.07056C10.6716 8.29277 10.8942 8.51502 11.1168 8.73736C11.1682 8.78869 11.2196 8.84003 11.271 8.89137C11.2902 8.91051 11.2902 8.91051 11.3097 8.93003C11.5169 9.13699 11.7243 9.34375 11.9318 9.55042C12.1452 9.76296 12.3584 9.97569 12.5714 10.1886C12.6909 10.308 12.8104 10.4273 12.9302 10.5464C13.032 10.6478 13.1338 10.7493 13.2353 10.851C13.287 10.9029 13.3388 10.9546 13.3909 11.0062C13.4474 11.0622 13.5035 11.1185 13.5596 11.1749C13.576 11.191 13.5923 11.2071 13.6092 11.2237C13.7883 11.4052 13.8563 11.5754 13.8559 11.827C13.8512 12.1128 13.6893 12.271 13.4957 12.464C13.4778 12.482 13.4599 12.5 13.4414 12.5186C13.392 12.5682 13.3425 12.6178 13.293 12.6673C13.2395 12.7208 13.1861 12.7745 13.1327 12.8281C13.0161 12.9452 12.8993 13.0621 12.7825 13.1791C12.7095 13.2521 12.6365 13.3252 12.5636 13.3983C12.3614 13.6008 12.1592 13.8034 11.9569 14.0057C11.9439 14.0187 11.931 14.0316 11.9177 14.0449C11.8915 14.0712 11.8653 14.0974 11.8391 14.1236C11.826 14.1366 11.813 14.1496 11.7996 14.163C11.7866 14.176 11.7736 14.1891 11.7602 14.2025C11.549 14.4137 11.3381 14.6252 11.1273 14.8367C10.9106 15.0542 10.6937 15.2714 10.4766 15.4885C10.3549 15.6103 10.2332 15.7321 10.1117 15.8542C10.0083 15.9581 9.90468 16.0618 9.80087 16.1653C9.74796 16.2181 9.69512 16.2709 9.6425 16.324C9.58536 16.3816 9.52785 16.4389 9.47029 16.496C9.44562 16.5211 9.44562 16.5211 9.42045 16.5467C9.2343 16.7302 9.06148 16.7971 8.80354 16.7968C8.59985 16.7929 8.4745 16.7237 8.32762 16.5831C8.17046 16.4139 8.13611 16.2365 8.14185 16.0085C8.16172 15.7574 8.3293 15.5877 8.50046 15.4179C8.51595 15.4024 8.53145 15.3869 8.54741 15.3709C8.59905 15.3192 8.65082 15.2676 8.7026 15.2161C8.73976 15.1789 8.77692 15.1417 8.81406 15.1046C8.8939 15.0247 8.9738 14.9449 9.05375 14.8652C9.16935 14.7499 9.28484 14.6345 9.4003 14.5191C9.58767 14.3318 9.77512 14.1447 9.96262 13.9575C10.1447 13.7758 10.3267 13.594 10.5087 13.4122C10.5199 13.401 10.5312 13.3898 10.5427 13.3782C10.5991 13.3219 10.6554 13.2657 10.7117 13.2094C11.1786 12.7429 11.6457 12.2765 12.1128 11.8103C12.0862 11.7507 12.0562 11.7098 12.01 11.6639C11.9968 11.6506 11.9836 11.6374 11.97 11.6237C11.9481 11.6021 11.9481 11.6021 11.9258 11.5801C11.9104 11.5647 11.895 11.5493 11.8791 11.5334C11.8271 11.4816 11.7751 11.4299 11.723 11.3783C11.6858 11.3412 11.6487 11.3042 11.6115 11.2671C11.5313 11.1872 11.4511 11.1074 11.3709 11.0276C11.2547 10.912 11.1386 10.7964 11.0226 10.6807C10.8343 10.4927 10.6458 10.3049 10.4573 10.1171C10.446 10.1058 10.4347 10.0946 10.4231 10.083C10.2631 9.92359 10.103 9.76424 9.94289 9.60491C9.93163 9.5937 9.92036 9.58249 9.90875 9.57094C9.8975 9.55974 9.88625 9.54854 9.87465 9.537C9.68684 9.3501 9.49919 9.16304 9.31165 8.97585C9.19603 8.86046 9.08028 8.74519 8.96436 8.63009C8.88488 8.55114 8.80553 8.47205 8.7263 8.39284C8.68062 8.34719 8.63486 8.30163 8.58896 8.25619C8.53912 8.20683 8.48953 8.15723 8.44 8.10757C8.41835 8.0863 8.41835 8.0863 8.39626 8.0646C8.23648 7.90325 8.14288 7.73025 8.14062 7.49999C8.14226 7.2798 8.20057 7.13007 8.35555 6.96975C8.5647 6.77886 8.91376 6.70598 9.1755 6.83994Z" fill="white"/>
</g>
</g>
<defs>
<clipPath id="clip0_7833_3767">
<rect y="0.791016" width="22" height="22" rx="11" fill="white"/>
</clipPath>
<clipPath id="clip1_7833_3767">
<rect width="10" height="10" fill="white" transform="translate(6 6.79102)"/>
</clipPath>
</defs>
</svg>
