<?xml version="1.0" encoding="UTF-8"?>
<svg version="1.1" xmlns="http://www.w3.org/2000/svg" width="512" height="512">
<path d="M0 0 C8.25809466 5.12300921 15.10631075 13.04941324 21.94833249 19.88731867 C22.85581398 20.79041791 23.76329547 21.69351714 24.6982764 22.62398303 C27.18798621 25.10188137 29.67466838 27.58279774 32.16078001 30.06430548 C34.85363519 32.75114627 37.54927433 35.43519192 40.24445981 38.11969477 C46.73256431 44.58342598 53.21585697 51.05197267 59.69825312 57.52142802 C61.53092604 59.35038101 63.36372504 61.17920755 65.19656795 63.00799018 C76.59907793 74.38527962 87.99999487 85.76416282 99.39613694 97.14783102 C102.02758544 99.77635034 104.65905023 102.40485336 107.29054135 105.03333002 C108.2714803 106.01314989 108.2714803 106.01314989 109.27223619 107.0127641 C119.88125822 117.60911484 130.50053213 128.19513019 141.12400458 138.77699142 C152.04848577 149.659034 162.96350149 160.55049925 173.86939609 171.45116961 C179.98602089 177.56438493 186.10672683 183.67338799 192.23812169 189.77179247 C197.45500326 194.96064752 202.66327311 200.1579562 207.86056725 205.36643349 C210.51011077 208.02115469 213.16348811 210.67171101 215.8280074 213.3114081 C218.7208699 216.17754523 221.59384634 219.06284332 224.46542233 221.95030695 C225.3039365 222.77493903 226.14245067 223.59957111 227.00637436 224.44919205 C236.17460574 233.74271254 239.65629177 242.45756362 239.63600034 255.33972651 C239.39392029 269.97064659 231.10577507 278.06822802 221.19331235 287.95256525 C220.27644217 288.8746721 219.359572 289.79677895 218.41491789 290.74682844 C215.88689645 293.28893999 213.35273819 295.82485314 210.81744236 298.35970706 C208.07759088 301.10121463 205.34346418 303.84842217 202.60851926 306.59482294 C196.63654185 312.58958384 190.65717121 318.57693371 184.67632455 324.5628441 C180.9392093 328.30322266 177.203728 332.04523006 173.46858853 335.7875815 C163.11758398 346.15813955 152.76501144 356.52712487 142.40568036 366.88936621 C141.74369417 367.55153996 141.08170799 368.21371372 140.39966162 368.89595335 C139.05780015 370.23818105 137.71593741 371.58040748 136.37407342 372.92263266 C135.70801906 373.58886982 135.04196471 374.25510698 134.3557269 374.94153315 C133.68885469 375.60858591 133.02198248 376.27563867 132.33490202 376.96290515 C121.52366447 387.77768624 110.72422451 398.60416548 99.92991641 409.43584152 C88.83559776 420.56825776 77.7319293 431.69127482 66.61869615 442.80480993 C60.38386826 449.04022188 54.15303785 455.2795125 47.93240994 461.5290938 C42.63744058 466.84859582 37.33391146 472.15937586 32.01914987 477.45910635 C29.30978928 480.16130715 26.60457311 482.86733214 23.91019124 485.58447558 C20.98476966 488.53437228 18.04020042 491.46439537 15.09345883 494.39299494 C13.83009548 495.67615824 13.83009548 495.67615824 12.54120964 496.98524404 C3.01079655 506.38236239 -5.83760845 509.80517597 -19.04441959 509.79260737 C-29.47325205 509.58972905 -35.89131464 506.05079428 -43.41136295 498.84949213 C-51.45825059 490.18801094 -53.21652566 481.10467053 -52.9230817 469.43152338 C-51.90549311 456.57174757 -43.32530397 447.88691496 -34.56202823 439.19324213 C-33.76877607 438.39828113 -32.97552392 437.60332012 -32.15823382 436.78426939 C-29.51442225 434.13717884 -26.86355455 431.49727288 -24.21263248 428.85730463 C-22.30986264 426.95509925 -20.40749371 425.05250069 -18.50561649 423.14940363 C-14.41813579 419.06087734 -10.3270271 414.97601113 -6.23338825 410.89365107 C-0.31477683 404.99133596 5.59826418 399.08346586 11.50998683 393.17425197 C21.10293043 383.58567901 30.70032614 374.00157523 40.30055112 364.42029291 C49.62288931 355.11632989 58.94311184 345.81025585 68.26051205 336.5013476 C68.83542586 335.92695924 69.41033967 335.35257088 70.0026751 334.76077682 C72.88701149 331.87905062 75.7713065 328.997283 78.65558094 326.11549479 C102.56044812 302.23134042 126.47255271 278.35444412 150.3894183 254.48230463 C149.02637515 251.43231606 147.49064861 249.33680313 145.12751931 246.98548323 C144.45084197 246.30729058 143.77416462 245.62909794 143.0769819 244.930354 C141.95857037 243.82477371 141.95857037 243.82477371 140.81756467 242.69685847 C140.02717449 241.9075817 139.23678431 241.11830494 138.42244291 240.30511069 C135.76403432 237.65279008 133.09855555 235.00768849 130.43311948 232.36243159 C128.52917289 230.46559519 126.62563916 228.56835336 124.722655 226.67055231 C120.61901628 222.57951305 116.51195553 218.49193564 112.40277547 214.40646273 C106.4541247 208.49177034 100.5129066 202.56965518 94.57386801 196.64531275 C84.92815684 187.02350017 75.27945401 177.4046948 65.62745541 167.7891894 C65.0497187 167.21363293 64.47198199 166.63807647 63.87673811 166.0450789 C55.68370416 157.88324385 47.48768716 149.72441088 39.2904555 141.56679203 C38.71362836 140.99275152 38.13680122 140.41871101 37.54249448 139.82727534 C36.9663698 139.25393772 36.39024512 138.6806001 35.79666211 138.08988861 C26.18080588 128.52014829 16.57271241 118.94265747 6.97091341 109.35881305 C1.05097494 103.45056472 -4.87538424 97.54890596 -10.81022187 91.65562334 C-14.87989928 87.61342402 -18.94227187 83.56397869 -22.9990407 79.50882474 C-25.33784772 77.17142169 -27.68085655 74.83852513 -30.0306409 72.51215082 C-32.58238547 69.98484588 -35.12143221 67.44541506 -37.65777713 64.90266901 C-38.76615041 63.81381914 -38.76615041 63.81381914 -39.89691508 62.70297229 C-48.07779236 54.44165122 -52.87011229 45.58423085 -52.9855817 33.79480463 C-52.90164066 22.52087779 -49.91652827 14.85483557 -41.98167545 6.64636713 C-31.27311273 -3.12718105 -13.40128233 -6.85877411 0 0 Z " fill="#FFFFFF" transform="translate(162.61058169603348,2.517695367336273)"/>
</svg>
