<svg width="401" height="338" viewBox="0 0 401 338" fill="none" xmlns="http://www.w3.org/2000/svg">
<path d="M314.294 171.64C361.691 171.64 400.114 133.217 400.114 85.82C400.114 38.4229 361.691 0 314.294 0C266.897 0 228.474 38.4229 228.474 85.82C228.474 133.217 266.897 171.64 314.294 171.64Z" fill="#E5F1FF"/>
<path d="M128.637 302.204C148.226 282.616 148.226 250.856 128.637 231.268C109.049 211.679 77.2893 211.679 57.7008 231.268C38.1123 250.856 38.1123 282.616 57.7008 302.204C77.2893 321.793 109.049 321.793 128.637 302.204Z" fill="#E5F1FF"/>
<path d="M92.503 28.61C67.177 28.61 46.647 49.141 46.647 74.467C46.647 99.793 67.178 120.324 92.503 120.324C117.829 120.324 138.36 99.793 138.36 74.467C138.359 49.141 117.828 28.61 92.503 28.61ZM92.503 103.785C76.311 103.785 63.185 90.659 63.185 74.467C63.185 58.275 76.311 45.149 92.503 45.149C108.695 45.149 121.821 58.275 121.821 74.467C121.821 90.659 108.694 103.785 92.503 103.785Z" fill="#A9CCEA"/>
<path d="M265.75 321.791C265.75 324.697 263.394 327.053 260.488 327.053H127.429C124.523 327.053 122.167 324.697 122.167 321.791C122.167 318.885 124.523 316.529 127.429 316.529H174.664L181.179 304.501H192.455H195.462H206.738L213.253 316.529H260.488C263.394 316.529 265.75 318.885 265.75 321.791Z" fill="#0F3157"/>
<path d="M203.761 293.601H181.96V299.991H203.761V293.601Z" fill="#FF4D6B"/>
<path d="M203.761 283.076H181.96V289.466H203.761V283.076Z" fill="#FF4D6B"/>
<path d="M366.437 261.452C362.645 262.908 358.527 263.705 354.223 263.705C335.395 263.705 320.131 248.442 320.131 229.613C320.131 210.784 335.394 195.521 354.223 195.521C373.051 195.521 388.314 210.784 388.314 229.613C388.314 234.658 387.218 239.447 385.252 243.755" stroke="#FF4D6B" stroke-width="1.1276" stroke-miterlimit="10" stroke-linecap="round" stroke-linejoin="round"/>
<path d="M270.177 69.562H264.734C263.604 64.726 261.702 60.189 259.155 56.09L263.003 52.242C264.662 50.583 264.662 47.893 263.003 46.234L254.453 37.684C252.794 36.025 250.104 36.025 248.445 37.684L244.597 41.531C240.499 38.984 235.962 37.082 231.126 35.953V30.51C231.126 28.164 229.224 26.262 226.878 26.262H214.787C212.441 26.262 210.539 28.164 210.539 30.51V35.953C205.703 37.082 201.166 38.985 197.067 41.531L193.219 37.684C191.56 36.025 188.87 36.025 187.211 37.684L178.662 46.234C177.003 47.893 177.003 50.583 178.662 52.242L182.51 56.09C179.963 60.188 178.061 64.725 176.931 69.562H171.488C169.142 69.562 167.24 71.464 167.24 73.81V85.901C167.24 88.247 169.142 90.149 171.488 90.149H176.931C178.06 94.985 179.963 99.522 182.509 103.621L178.662 107.469C177.003 109.128 177.003 111.818 178.662 113.477L187.211 122.027C188.87 123.686 191.56 123.686 193.219 122.027L197.067 118.18C201.165 120.727 205.702 122.629 210.539 123.759V129.202C210.539 131.548 212.441 133.45 214.787 133.45H226.878C229.224 133.45 231.126 131.548 231.126 129.202V123.759C235.962 122.629 240.499 120.727 244.598 118.18L248.446 122.027C250.105 123.686 252.795 123.686 254.454 122.027L263.004 113.477C264.663 111.818 264.663 109.128 263.004 107.469L259.156 103.621C261.703 99.523 263.605 94.986 264.735 90.149H270.178C272.524 90.149 274.426 88.247 274.426 85.901V73.81C274.425 71.463 272.523 69.562 270.177 69.562ZM220.833 101.423C208.922 101.423 199.266 91.767 199.266 79.855C199.266 67.944 208.922 58.288 220.833 58.288C232.744 58.288 242.401 67.944 242.401 79.855C242.401 91.767 232.745 101.423 220.833 101.423Z" fill="#289DF2"/>
<path d="M44.184 280.204C37.851 280.204 32.717 275.07 32.717 268.736V89.2731C32.717 82.9391 37.851 77.8051 44.185 77.8051H343.733C350.066 77.8051 355.201 82.939 355.201 89.272V268.735C355.201 275.068 350.067 280.203 343.733 280.203H44.184V280.204Z" fill="#0F3775"/>
<path d="M89.496 102.845H56.231V110.175H89.496V102.845Z" fill="#284D89"/>
<path d="M129.526 102.845H96.261V110.175H129.526V102.845Z" fill="#284D89"/>
<path d="M231.012 102.845H197.747V110.175H231.012V102.845Z" fill="#284D89"/>
<path d="M332.498 102.845H299.233V110.175H332.498V102.845Z" fill="#284D89"/>
<path d="M193.518 102.845H134.036V110.175H193.518V102.845Z" fill="#FF4D6B"/>
<path d="M294.44 102.845H234.958V110.175H294.44V102.845Z" fill="#2889DB"/>
<path d="M62.2449 97.019H56.4189V100.59H62.2449V97.019Z" fill="#2889DB"/>
<path d="M117.216 116.189H56.4189V119.76H117.216V116.189Z" fill="white"/>
<path d="M74.4609 122.485H56.4189V126.056H74.4609V122.485Z" fill="white"/>
<path d="M120.787 254.51H64.4059C60.2019 254.51 56.7949 251.102 56.7949 246.899V144.849C56.7949 140.645 60.2029 137.238 64.4059 137.238H120.787C124.991 137.238 128.398 140.646 128.398 144.849V246.899C128.398 251.102 124.991 254.51 120.787 254.51Z" fill="#284D89"/>
<path d="M89.7779 154.434H65.8159V158.099H89.7779V154.434Z" fill="white"/>
<path d="M89.7779 162.609H65.8159V166.274H89.7779V162.609Z" fill="white"/>
<path d="M89.7779 170.784H65.8159V174.449H89.7779V170.784Z" fill="white"/>
<path d="M80.4749 204.895H65.8159V208.56H80.4749V204.895Z" fill="white"/>
<path d="M80.4749 213.07H65.8159V216.735H80.4749V213.07Z" fill="white"/>
<path d="M105.658 213.07H90.999V216.735H105.658V213.07Z" fill="white"/>
<path d="M75.0249 195.592H65.8159V199.257H75.0249V195.592Z" fill="white"/>
<path d="M110.168 195.592H105.282V199.257H110.168V195.592Z" fill="white"/>
<path d="M103.403 195.592H78.219V199.257H103.403V195.592Z" fill="#FF4D6B"/>
<path d="M69.3399 181.779H65.8159V185.444H69.3399V181.779Z" fill="#2889DB"/>
<path d="M69.3399 188.262H65.8159V191.927H69.3399V188.262Z" fill="#FF4D6B"/>
<path d="M85.3609 217.487H84.0449L87.1929 212.788H88.5089L85.3609 217.487Z" fill="white"/>
<path d="M120.224 223.782H65.8159V226.883H120.224V223.782Z" fill="#282E5C"/>
<path d="M120.224 230.83H65.8159V233.931H120.224V230.83Z" fill="#282E5C"/>
<path d="M381.925 185.725H232.327C228.59 185.725 225.561 182.696 225.561 178.959V138.365C225.561 134.628 228.59 131.599 232.327 131.599H381.925C385.662 131.599 388.691 134.628 388.691 138.365V178.959C388.69 182.696 385.661 185.725 381.925 185.725Z" fill="#289DF2"/>
<path d="M274.049 166.556C274.049 166.556 282.318 146.259 305.998 151.145C329.678 156.031 341.706 182.718 372.152 160.918" stroke="white" stroke-width="1.1276" stroke-miterlimit="10"/>
<path d="M350.727 167.683H347.344V171.066H350.727V167.683Z" fill="#289DF2" stroke="white" stroke-width="1.1276" stroke-miterlimit="10"/>
<path d="M278.184 150.205H321.033" stroke="white" stroke-width="0.5638" stroke-miterlimit="10"/>
<path d="M327.611 170.315H370.461" stroke="white" stroke-width="0.5638" stroke-miterlimit="10"/>
<path d="M299.609 148.514H296.226V151.897H299.609V148.514Z" fill="#289DF2" stroke="white" stroke-width="1.1276" stroke-miterlimit="10"/>
<path d="M254.128 199.633H221.803C219.104 199.633 216.917 197.445 216.917 194.747V146.259C216.917 143.56 219.105 141.373 221.803 141.373H254.128C256.827 141.373 259.014 143.561 259.014 146.259V194.747C259.014 197.445 256.827 199.633 254.128 199.633Z" fill="#284D89"/>
<path d="M247.456 149.642H223.494V152.946H247.456V149.642Z" fill="white"/>
<path d="M247.456 157.011H223.494V160.315H247.456V157.011Z" fill="white"/>
<path d="M232.515 164.381H223.494V167.685H232.515V164.381Z" fill="white"/>
<path d="M239.093 172.005H223.494V175.309H239.093V172.005Z" fill="#289DF2"/>
<path d="M234.018 179.375H223.494V182.679H234.018V179.375Z" fill="#289DF2"/>
<path d="M234.018 186.744H223.494V190.048H234.018V186.744Z" fill="white"/>
<path d="M362.379 124.27H379.294" stroke="#284D89" stroke-width="2.2552" stroke-miterlimit="10" stroke-linecap="round" stroke-linejoin="round"/>
<path d="M324.375 219.709L318.537 224.278L310.161 225.801C310.161 225.801 302.293 225.293 301.531 225.293C300.77 225.293 295.44 220.978 295.44 220.978L285.541 217.425L278.688 219.963L270.566 218.186L258.383 217.424L246.708 221.993L237.063 223.516L228.433 226.308L218.788 227.07L208.382 218.948L198.737 217.171L188.838 222.755L180.97 225.293L172.037 225.039L160.779 231.892H154.066L142.729 235.868" stroke="#FF5C66" stroke-width="1.0152" stroke-miterlimit="10"/>
<path d="M142.899 236.038H324.628" stroke="#F7F7F7" stroke-width="0.2538" stroke-miterlimit="10"/>
<path d="M142.984 233.753H141.123V238.322H142.984V233.753Z" fill="#F7F7F7"/>
<path d="M325.39 233.753H323.529V238.322H325.39V233.753Z" fill="#F7F7F7"/>
<path d="M324.459 236.038V220.724" stroke="#F7F7F7" stroke-width="0.2538" stroke-miterlimit="10"/>
<path d="M325.474 219.963C325.474 220.757 324.83 221.401 324.036 221.401C323.242 221.401 322.598 220.757 322.598 219.963C322.598 219.169 323.242 218.525 324.036 218.525C324.83 218.525 325.474 219.169 325.474 219.963Z" fill="#F7F7F7"/>
<path d="M150.122 203L152.396 197.266H153.549L155.799 203H154.451L152.729 198.241H153.192L151.446 203H150.122ZM151.413 201.96V200.921H154.54V201.96H151.413ZM157.975 203.089C157.612 203.089 157.29 203.016 157.009 202.87C156.732 202.718 156.516 202.513 156.359 202.253C156.202 201.987 156.123 201.684 156.123 201.343V199.053H157.366V201.327C157.366 201.462 157.388 201.579 157.431 201.676C157.48 201.774 157.55 201.849 157.642 201.904C157.734 201.958 157.845 201.985 157.975 201.985C158.159 201.985 158.305 201.928 158.414 201.814C158.522 201.695 158.576 201.533 158.576 201.327V199.053H159.819V201.335C159.819 201.682 159.74 201.987 159.583 202.253C159.426 202.513 159.21 202.718 158.934 202.87C158.657 203.016 158.338 203.089 157.975 203.089ZM161.159 203V197.42H162.402V203H161.159ZM160.266 200.109V199.053H163.296V200.109H160.266ZM165.664 203.089C165.258 203.089 164.89 203 164.56 202.821C164.235 202.637 163.978 202.388 163.788 202.074C163.599 201.76 163.504 201.408 163.504 201.018C163.504 200.628 163.599 200.279 163.788 199.97C163.978 199.662 164.235 199.418 164.56 199.24C164.885 199.055 165.253 198.963 165.664 198.963C166.076 198.963 166.444 199.053 166.769 199.231C167.094 199.41 167.351 199.656 167.54 199.97C167.73 200.279 167.825 200.628 167.825 201.018C167.825 201.408 167.73 201.76 167.54 202.074C167.351 202.388 167.094 202.637 166.769 202.821C166.444 203 166.076 203.089 165.664 203.089ZM165.664 201.96C165.843 201.96 166 201.922 166.135 201.847C166.271 201.765 166.374 201.654 166.444 201.514C166.52 201.367 166.558 201.202 166.558 201.018C166.558 200.834 166.52 200.674 166.444 200.539C166.368 200.398 166.263 200.29 166.127 200.214C165.997 200.133 165.843 200.092 165.664 200.092C165.491 200.092 165.337 200.133 165.201 200.214C165.066 200.29 164.96 200.398 164.885 200.539C164.809 200.68 164.771 200.842 164.771 201.026C164.771 201.205 164.809 201.367 164.885 201.514C164.96 201.654 165.066 201.765 165.201 201.847C165.337 201.922 165.491 201.96 165.664 201.96ZM168.443 203V199.053H169.686V203H168.443ZM170.969 203V200.693C170.969 200.493 170.907 200.339 170.783 200.23C170.663 200.117 170.515 200.06 170.336 200.06C170.211 200.06 170.1 200.087 170.003 200.141C169.905 200.19 169.827 200.26 169.767 200.352C169.713 200.444 169.686 200.558 169.686 200.693L169.207 200.482C169.207 200.168 169.275 199.9 169.41 199.678C169.545 199.451 169.729 199.277 169.962 199.158C170.195 199.034 170.458 198.971 170.75 198.971C171.026 198.971 171.273 199.034 171.489 199.158C171.711 199.283 171.887 199.456 172.017 199.678C172.147 199.9 172.212 200.165 172.212 200.474V203H170.969ZM173.495 203V200.693C173.495 200.493 173.433 200.339 173.308 200.23C173.189 200.117 173.04 200.06 172.862 200.06C172.737 200.06 172.626 200.087 172.529 200.141C172.431 200.19 172.353 200.26 172.293 200.352C172.239 200.444 172.212 200.558 172.212 200.693L171.497 200.596C171.508 200.26 171.587 199.973 171.733 199.735C171.884 199.491 172.082 199.304 172.326 199.175C172.575 199.039 172.854 198.971 173.162 198.971C173.466 198.971 173.734 199.036 173.966 199.166C174.205 199.291 174.391 199.472 174.527 199.711C174.668 199.943 174.738 200.225 174.738 200.555V203H173.495ZM177.183 203.081C176.82 203.081 176.495 202.992 176.208 202.813C175.927 202.635 175.702 202.391 175.534 202.082C175.372 201.774 175.291 201.422 175.291 201.026C175.291 200.631 175.372 200.279 175.534 199.97C175.702 199.662 175.927 199.418 176.208 199.24C176.495 199.061 176.82 198.971 177.183 198.971C177.448 198.971 177.687 199.023 177.898 199.126C178.114 199.229 178.29 199.372 178.426 199.556C178.561 199.735 178.637 199.941 178.653 200.174V201.879C178.637 202.112 178.561 202.32 178.426 202.505C178.296 202.683 178.123 202.824 177.906 202.927C177.689 203.03 177.448 203.081 177.183 203.081ZM177.435 201.96C177.7 201.96 177.914 201.874 178.076 201.7C178.239 201.522 178.32 201.297 178.32 201.026C178.32 200.842 178.282 200.68 178.206 200.539C178.136 200.398 178.033 200.29 177.898 200.214C177.768 200.133 177.616 200.092 177.443 200.092C177.27 200.092 177.115 200.133 176.98 200.214C176.85 200.29 176.744 200.398 176.663 200.539C176.587 200.68 176.55 200.842 176.55 201.026C176.55 201.205 176.587 201.365 176.663 201.506C176.739 201.646 176.845 201.757 176.98 201.839C177.115 201.92 177.267 201.96 177.435 201.96ZM178.271 203V201.936L178.458 200.978L178.271 200.019V199.053H179.49V203H178.271ZM180.925 203V197.42H182.168V203H180.925ZM180.032 200.109V199.053H183.061V200.109H180.032ZM183.609 203V199.053H184.851V203H183.609ZM184.234 198.509C184.039 198.509 183.877 198.444 183.747 198.314C183.622 198.178 183.56 198.016 183.56 197.826C183.56 197.631 183.622 197.469 183.747 197.339C183.877 197.209 184.039 197.144 184.234 197.144C184.429 197.144 184.589 197.209 184.713 197.339C184.838 197.469 184.9 197.631 184.9 197.826C184.9 198.016 184.838 198.178 184.713 198.314C184.589 198.444 184.429 198.509 184.234 198.509ZM187.627 203.089C187.221 203.089 186.853 203 186.522 202.821C186.198 202.637 185.94 202.388 185.751 202.074C185.561 201.76 185.467 201.408 185.467 201.018C185.467 200.628 185.561 200.279 185.751 199.97C185.94 199.662 186.198 199.418 186.522 199.24C186.847 199.055 187.215 198.963 187.627 198.963C188.039 198.963 188.407 199.053 188.732 199.231C189.056 199.41 189.314 199.656 189.503 199.97C189.693 200.279 189.787 200.628 189.787 201.018C189.787 201.408 189.693 201.76 189.503 202.074C189.314 202.388 189.056 202.637 188.732 202.821C188.407 203 188.039 203.089 187.627 203.089ZM187.627 201.96C187.806 201.96 187.963 201.922 188.098 201.847C188.233 201.765 188.336 201.654 188.407 201.514C188.483 201.367 188.52 201.202 188.52 201.018C188.52 200.834 188.483 200.674 188.407 200.539C188.331 200.398 188.225 200.29 188.09 200.214C187.96 200.133 187.806 200.092 187.627 200.092C187.454 200.092 187.299 200.133 187.164 200.214C187.029 200.29 186.923 200.398 186.847 200.539C186.771 200.68 186.734 200.842 186.734 201.026C186.734 201.205 186.771 201.367 186.847 201.514C186.923 201.654 187.029 201.765 187.164 201.847C187.299 201.922 187.454 201.96 187.627 201.96ZM193.013 203V200.75C193.013 200.544 192.948 200.379 192.818 200.255C192.694 200.125 192.534 200.06 192.339 200.06C192.204 200.06 192.085 200.09 191.982 200.149C191.879 200.203 191.798 200.285 191.738 200.393C191.679 200.496 191.649 200.615 191.649 200.75L191.17 200.515C191.17 200.206 191.237 199.935 191.373 199.702C191.508 199.47 191.695 199.291 191.933 199.166C192.177 199.036 192.45 198.971 192.753 198.971C193.046 198.971 193.303 199.042 193.525 199.183C193.752 199.318 193.931 199.499 194.061 199.727C194.191 199.954 194.256 200.203 194.256 200.474V203H193.013ZM190.406 203V199.053H191.649V203H190.406Z" fill="#F7F7F7"/>
<path d="M297.894 242.637H184.863V244.667H297.894V242.637Z" fill="#28385E"/>
<path d="M254.238 242.637H184.863V244.667H254.238V242.637Z" fill="#FF4D6B"/>
<path d="M240.448 246.528H184.863V248.558H240.448V246.528Z" fill="#28385E"/>
<path d="M149.625 252.578H156.478L157.367 250.674H143.534V253.847H148.356L149.625 252.578Z" fill="#FF4D6B"/>
<path d="M163.829 250.653H163.067V251.414H163.829V250.653Z" fill="#F7F7F7"/>
<path d="M168.555 250.653H167.794V251.414H168.555V250.653Z" fill="#F7F7F7"/>
<path d="M173.283 250.653H172.521V251.414H173.283V250.653Z" fill="#F7F7F7"/>
<path d="M318.031 214.847C317.692 214.847 317.388 214.78 317.117 214.645C316.845 214.51 316.628 214.326 316.465 214.091C316.301 213.857 316.212 213.589 316.196 213.289H316.889C316.916 213.557 317.037 213.778 317.252 213.953C317.469 214.126 317.729 214.212 318.031 214.212C318.273 214.212 318.488 214.156 318.677 214.042C318.867 213.929 319.016 213.773 319.124 213.575C319.234 213.375 319.288 213.149 319.288 212.897C319.288 212.639 319.232 212.41 319.118 212.208C319.007 212.004 318.853 211.843 318.657 211.726C318.461 211.609 318.237 211.549 317.985 211.547C317.804 211.545 317.618 211.573 317.428 211.631C317.238 211.687 317.081 211.759 316.958 211.847L316.289 211.766L316.646 208.859H319.715V209.494H317.246L317.039 211.236H317.073C317.194 211.14 317.346 211.06 317.529 210.996C317.712 210.933 317.902 210.901 318.1 210.901C318.462 210.901 318.784 210.988 319.066 211.161C319.351 211.332 319.574 211.566 319.735 211.865C319.899 212.163 319.981 212.503 319.981 212.886C319.981 213.262 319.896 213.599 319.727 213.895C319.559 214.189 319.329 214.422 319.035 214.593C318.74 214.762 318.406 214.847 318.031 214.847ZM323.053 214.847C322.618 214.847 322.248 214.729 321.943 214.492C321.637 214.254 321.403 213.908 321.242 213.457C321.08 213.003 320.999 212.455 320.999 211.813C320.999 211.174 321.08 210.629 321.242 210.177C321.405 209.723 321.64 209.377 321.945 209.139C322.253 208.899 322.622 208.778 323.053 208.778C323.484 208.778 323.852 208.899 324.158 209.139C324.465 209.377 324.7 209.723 324.861 210.177C325.025 210.629 325.107 211.174 325.107 211.813C325.107 212.455 325.026 213.003 324.864 213.457C324.703 213.908 324.469 214.254 324.163 214.492C323.858 214.729 323.488 214.847 323.053 214.847ZM323.053 214.212C323.484 214.212 323.818 214.005 324.057 213.589C324.295 213.174 324.414 212.582 324.414 211.813C324.414 211.301 324.36 210.866 324.25 210.506C324.142 210.146 323.987 209.872 323.783 209.684C323.581 209.496 323.338 209.401 323.053 209.401C322.626 209.401 322.293 209.612 322.052 210.033C321.812 210.452 321.692 211.045 321.692 211.813C321.692 212.324 321.746 212.759 321.853 213.116C321.961 213.474 322.116 213.746 322.318 213.933C322.521 214.119 322.767 214.212 323.053 214.212ZM328.129 214.847C327.695 214.847 327.325 214.729 327.019 214.492C326.713 214.254 326.479 213.908 326.318 213.457C326.156 213.003 326.076 212.455 326.076 211.813C326.076 211.174 326.156 210.629 326.318 210.177C326.481 209.723 326.716 209.377 327.022 209.139C327.329 208.899 327.699 208.778 328.129 208.778C328.56 208.778 328.928 208.899 329.234 209.139C329.542 209.377 329.776 209.723 329.938 210.177C330.101 210.629 330.183 211.174 330.183 211.813C330.183 212.455 330.102 213.003 329.941 213.457C329.779 213.908 329.545 214.254 329.24 214.492C328.934 214.729 328.564 214.847 328.129 214.847ZM328.129 214.212C328.56 214.212 328.895 214.005 329.133 213.589C329.371 213.174 329.491 212.582 329.491 211.813C329.491 211.301 329.436 210.866 329.326 210.506C329.219 210.146 329.063 209.872 328.859 209.684C328.657 209.496 328.414 209.401 328.129 209.401C327.702 209.401 327.369 209.612 327.128 210.033C326.888 210.452 326.768 211.045 326.768 211.813C326.768 212.324 326.822 212.759 326.929 213.116C327.037 213.474 327.192 213.746 327.394 213.933C327.598 214.119 327.843 214.212 328.129 214.212Z" fill="#F7F7F7"/>
<path d="M306.016 248.728H304.323L301.616 242.637H303.308L306.016 248.728Z" fill="#28385E"/>
<path d="M310.415 248.728H308.723L306.016 242.637H307.708L310.415 248.728Z" fill="#28385E"/>
<path d="M314.814 248.728H313.122L310.415 242.637H312.107L314.814 248.728Z" fill="#28385E"/>
<path d="M319.214 248.728H317.522L314.814 242.637H316.506L319.214 248.728Z" fill="#28385E"/>
<path d="M323.529 248.728H321.836L319.129 242.637H320.821L323.529 248.728Z" fill="#28385E"/>
<path d="M316.183 39.0031H288.67V43.931H316.183V39.0031Z" fill="#A9CCEA"/>
<path d="M330.154 47.821H288.67V52.748H330.154V47.821Z" fill="#A9CCEA"/>
<path d="M339.827 56.639H288.67V61.567H339.827V56.639Z" fill="#A9CCEA"/>
<path d="M308.23 65.457H288.67V70.385H308.23V65.457Z" fill="#A9CCEA"/>
<path d="M27.513 98.391H0V103.319H27.513V98.391Z" fill="#2889DB"/>
<path d="M41.484 107.209H0V112.136H41.484V107.209Z" fill="#A9CCEA"/>
<path d="M51.157 116.026H0V120.954H51.157V116.026Z" fill="#A9CCEA"/>
<path d="M19.56 124.845H0V129.773H19.56V124.845Z" fill="#A9CCEA"/>
<path d="M185.907 271.424H68.635V286.647H185.907V271.424Z" stroke="#289DF2" stroke-width="1.1276" stroke-miterlimit="10"/>
<path d="M130.841 151.521H125.203V186.101H130.841V151.521Z" stroke="#289DF2" stroke-width="1.1276" stroke-miterlimit="10"/>
<path d="M357.293 248.793C367.888 247.084 375.091 237.11 373.383 226.515C371.674 215.92 361.7 208.716 351.106 210.424C340.511 212.133 333.307 222.107 335.016 232.702C336.725 243.297 346.698 250.501 357.293 248.793Z" fill="#FF4D6B"/>
<path d="M352.815 227.791L345.097 230.619L352.815 233.424V236.322L341.782 232.126V229.113L352.815 224.918V227.791Z" fill="#F9FBFC"/>
<path d="M355.336 224.917L366.369 229.112V232.125L355.336 236.321V233.423L363.054 230.618L355.336 227.79V224.917Z" fill="#F9FBFC"/>
<path d="M386.623 245.489C386.623 246.89 385.487 248.026 384.086 248.026C382.685 248.026 381.549 246.89 381.549 245.489C381.549 244.088 382.685 242.952 384.086 242.952C385.487 242.952 386.623 244.088 386.623 245.489Z" stroke="#FF4D6B" stroke-width="1.1276" stroke-miterlimit="10"/>
<path d="M154.334 61.687H62.4331V71.272H154.334V61.687Z" stroke="#289DF2" stroke-width="1.1276" stroke-miterlimit="10"/>
<path d="M123.324 64.788H66.3789V67.607H123.324V64.788Z" fill="#289DF2"/>
<path d="M207.895 136.486H140.614V139.869H207.895V136.486Z" fill="#284D89"/>
<path d="M171.107 136.486H140.614V139.869H171.107V136.486Z" fill="#2889DB"/>
<path d="M207.895 145.225H140.614V148.608H207.895V145.225Z" fill="#284D89"/>
<path d="M187.457 145.225H140.614V148.608H187.457V145.225Z" fill="#FF4D6B"/>
<path d="M207.895 153.964H140.614V157.347H207.895V153.964Z" fill="#284D89"/>
<path d="M154.333 153.964H140.614V157.347H154.333V153.964Z" fill="#1AE5FF"/>
<path d="M142.212 130.566H140.896V131.882H142.212V130.566Z" fill="#284D89"/>
<path d="M146.723 130.566H145.407V131.882H146.723V130.566Z" fill="#284D89"/>
<path d="M151.233 130.566H149.917V131.882H151.233V130.566Z" fill="#284D89"/>
<path d="M268.285 176.642H266.093V178.835H268.285V176.642Z" fill="white"/>
<path d="M275.804 176.642H273.611V178.835H275.804V176.642Z" fill="white"/>
<path d="M283.321 176.642H281.128V178.835H283.321V176.642Z" fill="white"/>
<path d="M301.852 89.514H297.741V93.625H301.852V89.514Z" fill="white"/>
<path d="M315.947 89.514H311.836V93.625H315.947V89.514Z" fill="white"/>
<path d="M330.042 89.514H325.931V93.625H330.042V89.514Z" fill="white"/>
<path d="M243.592 259.408H239.481V263.519H243.592V259.408Z" fill="white"/>
<path d="M257.687 259.408H253.576V263.519H257.687V259.408Z" fill="white"/>
<path d="M271.782 259.408H267.671V263.519H271.782V259.408Z" fill="white"/>
<path d="M69.1981 145.569H67.0061V147.762H69.1981V145.569Z" fill="white"/>
<path d="M76.7162 145.569H74.5232V147.762H76.7162V145.569Z" fill="white"/>
<path d="M84.234 145.569H82.041V147.762H84.234V145.569Z" fill="white"/>
<path d="M374.408 142.876H337.948V146.447H374.408V142.876Z" fill="white"/>
<path d="M348.768 149.172H337.948V152.743H348.768V149.172Z" fill="#287DD1"/>
<path d="M43.8269 150.205H35.9339V142.312H28.6039V150.205H20.7109V157.535H28.6039V165.428H35.9339V157.535H43.8269V150.205Z" fill="#1AE5FF"/>
<path d="M22.7049 172.194H17.8919V167.381H13.4229V172.194H8.60889V176.663H13.4229V181.476H17.8919V176.663H22.7049V172.194Z" fill="#2889DB"/>
<path d="M154.44 167.991C147.623 167.991 142.096 173.518 142.096 180.335C142.096 187.153 147.623 192.679 154.44 192.679C161.258 192.679 166.784 187.152 166.784 180.335C166.784 173.518 161.257 167.991 154.44 167.991ZM154.44 186.768C150.887 186.768 148.008 183.888 148.008 180.335C148.008 176.782 150.888 173.902 154.44 173.902C157.993 173.902 160.873 176.782 160.873 180.335C160.873 183.888 157.992 186.768 154.44 186.768Z" fill="#284D89"/>
<path d="M146.037 179.118C147.184 179.118 148.189 178.436 148.711 177.414C149.774 175.33 151.94 173.902 154.44 173.902C156.941 173.902 159.106 175.33 160.17 177.414C160.691 178.436 161.697 179.118 162.844 179.118C165.004 179.118 166.482 176.855 165.532 174.914C163.525 170.814 159.313 167.991 154.441 167.991C149.569 167.991 145.357 170.814 143.35 174.915C142.399 176.855 143.876 179.118 146.037 179.118Z" fill="#289DF2"/>
<path d="M175.172 180.335C175.172 187.152 180.699 192.679 187.516 192.679C194.334 192.679 199.86 187.152 199.86 180.335C199.86 173.517 194.333 167.991 187.516 167.991C180.699 167.991 175.172 173.518 175.172 180.335ZM193.949 180.335C193.949 183.887 191.069 186.767 187.516 186.767C183.963 186.767 181.083 183.887 181.083 180.335C181.083 176.782 183.963 173.902 187.516 173.902C191.069 173.902 193.949 176.782 193.949 180.335Z" fill="#284D89"/>
<path d="M186.3 188.738C186.3 187.591 185.618 186.586 184.596 186.064C182.512 185.001 181.084 182.835 181.084 180.335C181.084 177.834 182.512 175.669 184.596 174.605C185.618 174.084 186.3 173.078 186.3 171.931C186.3 169.771 184.037 168.293 182.096 169.243C177.996 171.25 175.172 175.462 175.172 180.335C175.172 185.207 177.996 189.419 182.096 191.426C184.036 192.376 186.3 190.899 186.3 188.738Z" fill="#FF4D6B"/>
<path d="M119.189 131.6H96.637V185.726H119.189V131.6Z" stroke="#289DF2" stroke-width="1.1276" stroke-miterlimit="10"/>
<path d="M106.41 142.03H99.832V143.974H106.41V142.03Z" fill="#1AE5FF"/>
<path d="M106.41 146.367H99.832V148.311H106.41V146.367Z" fill="#1AE5FF"/>
<path d="M106.41 150.704H99.832V152.648H106.41V150.704Z" fill="#1AE5FF"/>
<path d="M106.41 173.257H99.832V175.201H106.41V173.257Z" fill="#1AE5FF"/>
<path d="M109.417 157.065H99.832V159.009H109.417V157.065Z" fill="#1AE5FF"/>
<path d="M109.417 161.402H99.832V163.346H109.417V161.402Z" fill="white"/>
<path d="M109.417 165.739H99.832V167.683H109.417V165.739Z" fill="white"/>
<path d="M44.39 199.257H15.824V227.823H44.39V199.257Z" fill="#289DF2"/>
<path d="M29.356 206.022H0.790039V234.588H29.356V206.022Z" stroke="#289DF2" stroke-width="1.1276" stroke-miterlimit="10"/>
<path d="M367.642 281.949H355.614V293.977H367.642V281.949Z" stroke="#289DF2" stroke-width="1.1276" stroke-miterlimit="10"/>
<path d="M211.278 262.967H221.427L227.065 268.605H285.701L294.722 259.584H326.296" stroke="white" stroke-width="1.1276" stroke-miterlimit="10"/>
<path d="M208.318 266.068C209.953 266.068 211.278 264.743 211.278 263.108C211.278 261.473 209.953 260.148 208.318 260.148C206.683 260.148 205.358 261.473 205.358 263.108C205.358 264.743 206.683 266.068 208.318 266.068Z" stroke="white" stroke-width="1.1276" stroke-miterlimit="10"/>
<path d="M329.349 262.403C330.984 262.403 332.309 261.078 332.309 259.443C332.309 257.808 330.984 256.483 329.349 256.483C327.714 256.483 326.389 257.808 326.389 259.443C326.389 261.078 327.714 262.403 329.349 262.403Z" stroke="white" stroke-width="1.1276" stroke-miterlimit="10"/>
<path d="M369.145 103.785C369.145 105.861 367.462 107.544 365.386 107.544C363.31 107.544 361.627 105.861 361.627 103.785C361.627 101.709 363.31 100.026 365.386 100.026C367.462 100.026 369.145 101.709 369.145 103.785Z" fill="#289DF2"/>
<path d="M21.8381 250.376C21.8381 252.452 20.1551 254.135 18.0791 254.135C16.0031 254.135 14.3201 252.452 14.3201 250.376C14.3201 248.3 16.0031 246.617 18.0791 246.617C20.1561 246.617 21.8381 248.3 21.8381 250.376Z" fill="#FF4D6B"/>
<path d="M39.1289 264.283C39.1289 267.916 36.1839 270.861 32.5509 270.861C28.9179 270.861 25.9729 267.916 25.9729 264.283C25.9729 260.65 28.9179 257.705 32.5509 257.705C36.1839 257.705 39.1289 260.65 39.1289 264.283Z" fill="#FF4D6B"/>
<path d="M263.149 286.459H236.838V292.473H263.149V286.459Z" stroke="#289DF2" stroke-width="1.1276" stroke-miterlimit="10"/>
<path d="M294.534 297.735H236.838V303.749H294.534V297.735Z" stroke="#289DF2" stroke-width="1.1276" stroke-miterlimit="10"/>
<path d="M75.6541 292.219L69.2771 298.596" stroke="#289DF2" stroke-width="1.1276" stroke-miterlimit="10" stroke-linecap="round" stroke-linejoin="round"/>
<path d="M81.7852 292.219L75.4082 298.596" stroke="#289DF2" stroke-width="1.1276" stroke-miterlimit="10" stroke-linecap="round" stroke-linejoin="round"/>
<path d="M87.917 292.219L81.54 298.596" stroke="#289DF2" stroke-width="1.1276" stroke-miterlimit="10" stroke-linecap="round" stroke-linejoin="round"/>
<path d="M94.0481 292.219L87.6711 298.596" stroke="#289DF2" stroke-width="1.1276" stroke-miterlimit="10" stroke-linecap="round" stroke-linejoin="round"/>
<path d="M100.18 292.219L93.8032 298.596" stroke="#289DF2" stroke-width="1.1276" stroke-miterlimit="10" stroke-linecap="round" stroke-linejoin="round"/>
</svg>
