<svg width="2500" height="2500" viewBox="0 0 2500 2500" fill="none" xmlns="http://www.w3.org/2000/svg">
<g clip-path="url(#clip0_45_3)">
<path d="M1391.42 1449.64C1399.86 1460.01 1409.96 1468.24 1421.03 1474.24L1426.23 1464.68C1436.65 1470.36 1448.04 1473.82 1459.62 1475.03L1458.51 1485.84C1471.29 1487.15 1484.31 1486.02 1496.84 1482.32L1496.17 1479.99L1493.78 1471.88C1504.73 1468.66 1515.26 1463.23 1524.68 1455.56L1531.56 1464.02C1541.93 1455.57 1550.16 1445.47 1556.14 1434.38L1546.58 1429.17C1552.28 1418.78 1555.74 1407.4 1556.95 1395.82L1567.76 1396.92C1569.07 1384.15 1567.91 1371.09 1564.21 1358.56L1564.18 1358.59L1561.15 1359.45L1553.77 1361.63C1550.55 1350.67 1545.14 1340.17 1537.48 1330.76L1545.94 1323.88C1537.49 1313.5 1527.37 1305.25 1516.27 1299.27L1511.07 1308.83C1500.68 1303.13 1489.32 1299.7 1477.74 1298.48L1478.84 1287.68C1466.07 1286.37 1453.01 1287.52 1440.48 1291.23L1443.55 1301.67C1432.59 1304.88 1422.09 1310.29 1412.68 1317.95L1405.8 1309.5C1395.43 1317.94 1387.17 1328.07 1381.19 1339.16L1390.75 1344.37C1385.05 1354.76 1381.62 1366.12 1380.4 1377.7L1369.6 1376.59C1368.26 1389.39 1369.45 1402.43 1373.15 1414.96L1373.24 1414.93L1380.11 1412.91L1383.59 1411.89C1386.81 1422.84 1392.24 1433.38 1399.87 1442.76L1391.42 1449.64ZM1417.3 1428.56C1394.21 1400.19 1398.49 1358.48 1426.86 1335.39C1455.27 1312.26 1496.99 1316.54 1520.08 1344.91C1543.2 1373.33 1538.92 1415.04 1510.51 1438.17C1482.14 1461.26 1440.43 1456.98 1417.3 1428.56ZM1436.7 1386.49C1436.7 1368.16 1451.56 1353.3 1469.89 1353.3C1488.22 1353.3 1503.08 1368.16 1503.08 1386.49C1503.08 1404.82 1488.22 1419.68 1469.89 1419.68C1451.56 1419.68 1436.7 1404.82 1436.7 1386.49Z" fill="white"/>
<path d="M672.937 1649.96C680.666 1659.45 689.912 1666.98 700.039 1672.48L704.805 1663.73C714.344 1668.93 724.764 1672.09 735.368 1673.21L734.354 1683.09C746.05 1684.29 757.974 1683.26 769.443 1679.87L768.829 1677.74L766.636 1670.32C776.662 1667.37 786.305 1662.4 794.922 1655.38L801.219 1663.12C810.715 1655.39 818.245 1646.15 823.72 1635.99L814.968 1631.22C820.188 1621.71 823.352 1611.29 824.466 1600.69L834.355 1601.71C835.555 1590.01 834.498 1578.06 831.109 1566.59L831.08 1566.61L828.313 1567.4L821.555 1569.39C818.608 1559.37 813.658 1549.75 806.645 1541.14L814.383 1534.84C806.654 1525.34 797.383 1517.78 787.228 1512.31L782.462 1521.06C772.951 1515.84 762.555 1512.71 751.951 1511.59L752.966 1501.7C741.27 1500.5 729.316 1501.56 717.847 1504.95L720.654 1514.5C710.628 1517.45 701.014 1522.4 692.397 1529.41L686.1 1521.68C676.604 1529.41 669.045 1538.68 663.571 1548.83L672.323 1553.6C667.103 1563.11 663.968 1573.5 662.853 1584.11L652.965 1583.09C651.736 1594.81 652.822 1606.74 656.211 1618.21L656.293 1618.19L662.581 1616.34L665.766 1615.4C668.713 1625.43 673.686 1635.07 680.675 1643.66L672.937 1649.96ZM718.1 1613.21C706.608 1599.09 708.738 1578.33 722.858 1566.83C737 1555.32 757.761 1557.45 769.253 1571.57C780.763 1585.72 778.633 1606.48 764.491 1617.99C750.371 1629.48 729.61 1627.35 718.1 1613.21Z" fill="white"/>
<path d="M1712.09 780.626C1717.25 786.968 1723.42 791.997 1730.19 795.668L1733.37 789.824C1739.74 793.294 1746.7 795.407 1753.78 796.152L1753.1 802.756C1760.91 803.557 1768.88 802.868 1776.54 800.604L1776.13 799.181L1774.66 794.224C1781.36 792.256 1787.8 788.934 1793.55 784.251L1797.76 789.418C1804.1 784.257 1809.13 778.081 1812.78 771.299L1806.94 768.116C1810.43 761.765 1812.54 754.806 1813.28 747.725L1819.89 748.403C1820.69 740.592 1819.98 732.609 1817.72 724.95L1817.7 724.966L1815.85 725.494L1811.34 726.825C1809.37 720.129 1806.06 713.709 1801.38 707.954L1806.55 703.748C1801.39 697.406 1795.19 692.358 1788.41 688.703L1785.23 694.547C1778.88 691.061 1771.94 688.967 1764.85 688.223L1765.53 681.619C1757.72 680.817 1749.74 681.523 1742.08 683.787L1743.95 690.168C1737.26 692.136 1730.84 695.441 1725.08 700.125L1720.88 694.958C1714.54 700.119 1709.49 706.31 1705.83 713.093L1711.68 716.276C1708.19 722.627 1706.1 729.57 1705.35 736.651L1698.75 735.973C1697.93 743.8 1698.65 751.767 1700.92 759.426L1700.97 759.413L1705.17 758.176L1707.3 757.551C1709.27 764.247 1712.59 770.687 1717.25 776.422L1712.09 780.626ZM1742.25 756.082C1734.57 746.652 1736 732.788 1745.43 725.113C1754.87 717.426 1768.74 718.849 1776.41 728.278C1784.1 737.722 1782.67 751.587 1773.23 759.274C1763.8 766.949 1749.94 765.526 1742.25 756.082Z" stroke="white" stroke-width="5" stroke-miterlimit="10"/>
<path d="M522.624 1594.73C527.785 1601.08 533.961 1606.11 540.724 1609.78L543.907 1603.93C550.278 1607.4 557.236 1609.52 564.317 1610.26L563.64 1616.86C571.451 1617.67 579.414 1616.98 587.073 1614.71L586.663 1613.29L585.198 1608.33C591.894 1606.36 598.334 1603.04 604.088 1598.36L608.294 1603.53C614.636 1598.37 619.664 1592.19 623.321 1585.41L617.476 1582.22C620.962 1575.87 623.075 1568.91 623.819 1561.83L630.423 1562.51C631.224 1554.7 630.519 1546.72 628.255 1539.06L628.235 1539.07L626.387 1539.6L621.874 1540.93C619.906 1534.24 616.6 1527.82 611.917 1522.06L617.085 1517.86C611.924 1511.51 605.732 1506.47 598.95 1502.81L595.767 1508.66C589.415 1505.17 582.473 1503.08 575.391 1502.33L576.069 1495.73C568.258 1494.93 560.275 1495.63 552.616 1497.9L554.491 1504.28C547.795 1506.24 541.375 1509.55 535.62 1514.23L531.414 1509.07C525.072 1514.23 520.024 1520.42 516.368 1527.2L522.212 1530.38C518.726 1536.74 516.632 1543.68 515.888 1550.76L509.285 1550.08C508.464 1557.91 509.189 1565.88 511.452 1573.53L511.507 1573.52L515.706 1572.28L517.833 1571.66C519.801 1578.36 523.122 1584.8 527.79 1590.53L522.624 1594.73ZM552.785 1570.19C545.11 1560.76 546.533 1546.9 555.963 1539.22C565.407 1531.54 579.272 1532.96 586.947 1542.39C594.634 1551.83 593.211 1565.7 583.767 1573.38C574.336 1581.06 560.472 1579.64 552.785 1570.19Z" stroke="white" stroke-width="5" stroke-miterlimit="10"/>
<path d="M665.925 774.463C673.09 783.266 681.662 790.248 691.051 795.344L695.469 787.231C704.313 792.049 713.973 794.982 723.803 796.015L722.863 805.182C733.706 806.294 744.761 805.337 755.393 802.194L754.824 800.218L752.791 793.336C762.086 790.604 771.026 785.993 779.014 779.491L784.852 786.664C793.656 779.499 800.636 770.926 805.712 761.511L797.599 757.092C802.438 748.275 805.371 738.616 806.405 728.785L815.573 729.726C816.685 718.883 815.706 707.8 812.563 697.169L812.536 697.191L809.971 697.924L803.705 699.771C800.973 690.476 796.384 681.563 789.882 673.575L797.056 667.736C789.891 658.932 781.296 651.925 771.881 646.85L767.463 654.963C758.646 650.124 749.008 647.217 739.178 646.184L740.119 637.017C729.276 635.904 718.194 636.883 707.561 640.026L710.163 648.885C700.868 651.617 691.955 656.205 683.967 662.707L678.129 655.534C669.326 662.699 662.318 671.293 657.243 680.708L665.356 685.127C660.517 693.943 657.61 703.582 656.577 713.412L647.41 712.471C646.27 723.336 647.277 734.396 650.419 745.029L650.495 745.012L656.325 743.294L659.278 742.426C662.01 751.721 666.621 760.661 673.1 768.623L665.925 774.463ZM707.184 740.888C696.255 727.46 698.281 707.718 711.709 696.789C725.158 685.843 744.9 687.869 755.829 701.296C766.775 714.745 764.749 734.487 751.3 745.433C737.872 756.362 718.13 754.336 707.184 740.888Z" fill="white"/>
<path d="M556.03 1117.25C559.816 1121.9 564.346 1125.59 569.307 1128.28L571.642 1124C576.315 1126.54 581.42 1128.09 586.614 1128.64L586.117 1133.48C591.846 1134.07 597.688 1133.56 603.307 1131.9L603.006 1130.86L601.932 1127.22C606.844 1125.78 611.568 1123.34 615.789 1119.91L618.874 1123.7C623.526 1119.91 627.215 1115.38 629.897 1110.41L625.61 1108.07C628.167 1103.41 629.717 1098.31 630.263 1093.11L635.107 1093.61C635.695 1087.88 635.177 1082.03 633.517 1076.41L633.503 1076.42L632.147 1076.81L628.836 1077.78C627.392 1072.87 624.967 1068.16 621.532 1063.94L625.323 1060.85C621.537 1056.2 616.995 1052.5 612.02 1049.82L609.685 1054.1C605.026 1051.55 599.933 1050.01 594.738 1049.47L595.235 1044.62C589.505 1044.03 583.649 1044.55 578.031 1046.21L579.406 1050.89C574.494 1052.34 569.785 1054.76 565.563 1058.2L562.478 1054.41C557.826 1058.19 554.123 1062.73 551.441 1067.71L555.728 1070.04C553.171 1074.7 551.635 1079.8 551.089 1084.99L546.245 1084.49C545.643 1090.23 546.175 1096.08 547.835 1101.7L547.875 1101.69L550.956 1100.78L552.516 1100.32C553.96 1105.23 556.396 1109.96 559.82 1114.16L556.03 1117.25ZM582.745 1095.51C579.177 1091.13 579.838 1084.68 584.222 1081.11C588.613 1077.54 595.059 1078.2 598.627 1082.59C602.201 1086.98 601.539 1093.42 597.148 1097C592.765 1100.56 586.319 1099.9 582.745 1095.51Z" fill="#48C6C6"/>
<path d="M1443.04 1020.33C1440.83 1020.33 1438.62 1020.22 1436.4 1019.99L1433.91 1019.73L1434.6 1013C1428.7 1012.13 1423.04 1010.38 1417.73 1007.77L1414.49 1013.73L1412.3 1012.53C1404.97 1008.56 1398.57 1003.23 1393.26 996.712L1391.68 994.773L1396.95 990.489C1393.39 985.717 1390.63 980.49 1388.72 974.899L1384.53 976.128L1382.23 976.661L1381.51 974.414C1379.13 966.349 1378.36 958.048 1379.23 949.741L1379.49 947.26L1386.22 947.95C1387.09 942.031 1388.84 936.387 1391.43 931.116L1385.5 927.882L1386.68 925.691C1390.63 918.362 1395.95 911.942 1402.51 906.61L1404.45 905.032L1408.73 910.295C1413.5 906.737 1418.73 903.979 1424.32 902.066L1422.41 895.567L1424.8 894.86C1432.82 892.49 1441.12 891.723 1449.47 892.58L1451.96 892.835L1451.27 899.567C1457.19 900.44 1462.83 902.189 1468.1 904.783L1471.34 898.843L1473.53 900.024C1480.86 903.974 1487.28 909.3 1492.61 915.853L1494.19 917.792L1488.92 922.076C1492.48 926.849 1495.24 932.075 1497.15 937.664L1500.75 936.615L1503.27 934.541L1504.36 938.151C1506.73 946.168 1507.5 954.467 1506.64 962.818L1506.38 965.305L1499.65 964.614C1498.78 970.526 1497.02 976.174 1494.42 981.465L1500.36 984.699L1499.17 986.89C1495.22 994.218 1489.9 1000.63 1483.36 1005.96L1481.42 1007.53L1477.14 1002.27C1472.36 1005.84 1467.13 1008.6 1461.54 1010.51L1463.43 1017.02L1461.05 1017.72C1455.18 1019.46 1449.14 1020.33 1443.04 1020.33ZM1439.4 1015.22C1445.43 1015.59 1451.41 1015.04 1457.22 1013.58L1455.33 1007.18L1457.73 1006.48C1464.38 1004.52 1470.51 1001.29 1475.95 996.857L1477.89 995.279L1482.11 1000.46C1486.64 996.449 1490.48 991.831 1493.54 986.686L1487.66 983.486L1488.87 981.287C1492.19 975.232 1494.25 968.615 1494.99 961.62L1495.25 959.139L1501.87 959.818C1502.23 953.792 1501.68 947.81 1500.22 941.974L1493.82 943.862L1493.11 941.462C1491.16 934.816 1487.93 928.693 1483.51 923.262L1481.93 921.323L1487.11 917.105C1483.09 912.561 1478.47 908.722 1473.32 905.656L1470.12 911.533L1467.92 910.326C1461.89 907.018 1455.28 904.966 1448.27 904.229L1445.79 903.968L1446.47 897.351C1440.44 896.986 1434.46 897.538 1428.63 898.999L1430.51 905.402L1428.11 906.107C1421.47 908.061 1415.34 911.292 1409.91 915.711L1407.97 917.289L1403.76 912.106C1399.21 916.127 1395.37 920.751 1392.31 925.898L1398.18 929.098L1396.98 931.297C1393.67 937.324 1391.62 943.936 1390.88 950.949L1390.62 953.429L1384 952.749C1383.63 958.746 1384.18 964.728 1385.65 970.591L1392.05 968.707L1392.76 971.105C1394.71 977.753 1397.94 983.876 1402.36 989.305L1403.94 991.244L1398.76 995.462C1402.76 999.985 1407.37 1003.82 1412.52 1006.9L1415.71 1001.04L1417.9 1002.24C1424 1005.55 1430.62 1007.61 1437.6 1008.34L1440.08 1008.6L1439.4 1015.22Z" fill="#48C6C6"/>
<path d="M1463.17 961.291C1465.88 949.833 1458.78 938.35 1447.32 935.644C1435.87 932.939 1424.38 940.034 1421.68 951.493C1418.97 962.952 1426.07 974.434 1437.53 977.14C1448.98 979.846 1460.47 972.75 1463.17 961.291Z" fill="#48C6C6"/>
<path d="M463.929 1119.37C447.979 1094.44 435.282 1067.71 426.17 1039.87L387.589 1052.18L385.311 1052.76L384.593 1050.52C368.753 1001.16 362.84 950.137 367.019 898.861L367.222 896.375L409.85 899.753C413.875 854.283 426.178 811.119 446.44 771.381L408.341 751.764L409.471 749.546C432.743 703.863 464.628 663.562 504.242 629.763L506.144 628.14L534 660.788C568.702 631.591 607.903 609.727 650.595 595.76L637.569 554.947L639.946 554.184C689.004 538.436 740.026 532.522 791.596 536.608L794.088 536.805L790.71 579.443C805.05 580.714 819.412 582.862 833.439 585.833L832.403 590.725C817.772 587.626 802.772 585.436 787.818 584.215L785.333 584.012L788.709 541.404C739.473 537.81 690.768 543.457 643.854 558.19L656.877 598.994L654.496 599.754C610.732 613.729 570.642 636.087 535.34 666.208L533.438 667.831L505.592 635.195C467.998 667.677 437.556 706.149 415.065 749.601L453.182 769.227L452.026 771.453C431.013 811.933 418.429 856.073 414.623 902.644L414.42 905.129L371.809 901.753C368.133 950.721 373.781 999.432 388.606 1046.63L429.404 1033.58L430.165 1035.97C439.194 1064.25 451.972 1091.4 468.142 1116.67L463.929 1119.37Z" fill="white"/>
<path d="M672.352 1811.44L671.602 1791.25C650.795 1791.66 630.593 1788.39 611.457 1781.46L604.344 1800.4L602.01 1799.54C579.153 1791.07 558.365 1778.23 540.222 1761.39L538.389 1759.69L552.181 1744.83C537.233 1730.55 525.251 1713.94 516.52 1695.41L498.086 1703.75L497.052 1701.48C486.911 1679.19 481.306 1655.42 480.393 1630.84L480.3 1628.35L500.493 1627.6C500.364 1621.18 500.597 1614.72 501.186 1608.36L506.164 1608.82C505.518 1615.8 505.313 1622.89 505.558 1629.92L505.644 1632.41L485.499 1633.16C486.622 1655.36 491.691 1676.86 500.586 1697.14L518.994 1688.8L520.026 1691.08C528.901 1710.67 541.476 1728.1 557.401 1742.88L559.234 1744.58L545.466 1759.42C562.06 1774.41 580.862 1786.02 601.418 1793.97L608.532 1775.03L610.877 1775.92C630.841 1783.49 652.055 1786.95 673.92 1786.19L676.413 1786.1L677.162 1806.25C699.25 1805.18 720.752 1800.1 741.147 1791.15L732.802 1772.75L735.08 1771.72C747.743 1765.98 759.677 1758.57 770.549 1749.67L773.714 1753.55C763.157 1762.18 751.628 1769.46 739.412 1775.22L746.789 1791.53L747.625 1793.72L745.487 1794.69C723.056 1804.89 699.289 1810.5 674.844 1811.35L672.352 1811.44Z" fill="white"/>
<path d="M1883.67 790.896L1879.06 788.976C1881.19 783.851 1883.01 778.53 1884.48 773.161L1885.14 770.755L1900.61 774.943C1904.84 758.204 1906.04 741.088 1904.18 723.987L1888.23 725.968L1887.93 723.488C1885.82 706.577 1880.41 690.432 1871.84 675.501L1870.6 673.332L1884.55 665.323C1875.65 650.403 1864.39 637.451 1851.01 626.767L1841.13 639.471L1839.16 637.925C1825.84 627.498 1810.6 619.893 1793.88 615.321L1791.48 614.663L1795.67 599.189C1779.02 594.949 1761.89 593.751 1744.7 595.623L1746.69 611.566L1744.21 611.875C1733.28 613.234 1722.51 616.037 1712.19 620.205L1710.31 615.569C1720.25 611.554 1730.6 608.757 1741.11 607.246L1739.42 593.577L1739.29 591.245L1741.6 590.953C1761.12 588.496 1780.56 589.86 1799.39 595.004L1801.8 595.661L1797.6 611.178C1813.2 615.745 1827.53 622.893 1840.25 632.462L1850.13 619.753L1852.1 621.272C1867.51 633.147 1880.32 647.858 1890.15 664.994L1891.4 667.163L1877.4 675.194C1885.19 689.356 1890.28 704.54 1892.56 720.396L1908.54 718.41L1908.85 720.886C1911.29 740.283 1909.93 759.725 1904.8 778.671L1904.15 781.084L1888.62 776.881C1887.23 781.635 1885.57 786.34 1883.67 790.896Z" fill="white"/>
<path d="M1767.62 1168.2L1766.86 1224.93L1785.79 1225.18L1786.55 1168.45L1767.62 1168.2Z" fill="#3386A7"/>
<path d="M1763.75 1210.43L1787.98 1211.01L1800.21 1219.88L1751.11 1218.69L1763.75 1210.43Z" fill="#55E6E6"/>
<path d="M1812.94 1319.12C1811.97 1319.12 1811.01 1318.69 1810.36 1317.87C1809.24 1316.44 1809.49 1314.38 1810.91 1313.26L1820.33 1305.84L1796.41 1245.61L1757.07 1244.49L1726.61 1304.04L1733.78 1309.54C1735.22 1310.64 1735.49 1312.7 1734.39 1314.14C1733.28 1315.58 1731.22 1315.85 1729.78 1314.75L1720.44 1307.58C1719.18 1306.62 1718.79 1304.89 1719.51 1303.48L1752.17 1239.66C1752.75 1238.53 1753.92 1237.83 1755.19 1237.87L1798.76 1239.11C1800.07 1239.15 1801.24 1239.96 1801.72 1241.18L1827.34 1305.69C1827.88 1307.04 1827.46 1308.59 1826.32 1309.49L1814.98 1318.42C1814.37 1318.89 1813.66 1319.12 1812.94 1319.12Z" fill="#3386A7"/>
<path d="M1748.9 1217.92L1748.06 1247.27L1805.19 1248.9L1806.03 1219.55L1748.9 1217.92Z" fill="#3386A7"/>
<path d="M1770.62 1318.92C1770.27 1318.92 1769.92 1318.86 1769.58 1318.75C1767.86 1318.17 1766.93 1316.32 1767.5 1314.6L1771.71 1301.96L1773.88 1237.85C1773.94 1236.04 1775.44 1234.62 1777.27 1234.68C1779.08 1234.74 1780.5 1236.26 1780.44 1238.07L1778.26 1302.65C1778.25 1302.97 1778.19 1303.28 1778.09 1303.58L1773.73 1316.67C1773.27 1318.05 1771.99 1318.92 1770.62 1318.92Z" fill="#3386A7"/>
<path d="M1775.77 1174.63C1758.61 1164.71 1747.98 1145.07 1749.92 1126.86C1751.74 1109.86 1763.7 1096.98 1783.59 1090.59C1807.27 1082.99 1808.59 1063.5 1808.06 1055.47C1806.97 1038.96 1796.31 1023.75 1784.29 1021.58L1784.88 1018.35C1798.51 1020.81 1810.13 1037.03 1811.33 1055.26C1811.89 1063.62 1810.07 1071.44 1806.09 1077.86C1801.49 1085.28 1794.26 1090.61 1784.6 1093.71C1766.02 1099.68 1754.86 1111.58 1753.19 1127.21C1751.37 1144.17 1761.34 1162.5 1777.42 1171.78L1775.77 1174.63Z" fill="#3386A7"/>
<path d="M1858.01 1068.46L1801.44 1131.19L1815.49 1143.87L1872.07 1081.14L1858.01 1068.46Z" fill="#3386A7"/>
<path d="M1839.02 1134.01L1791.51 1187.11C1784.23 1195.25 1771.73 1195.94 1763.59 1188.66C1755.45 1181.38 1754.75 1168.87 1762.04 1160.73L1809.54 1107.64C1816.82 1099.5 1829.33 1098.81 1837.46 1106.09C1845.6 1113.37 1846.3 1125.87 1839.02 1134.01Z" fill="#55E6E6"/>
<path d="M1768.76 1171.02C1767.3 1175.26 1769.55 1179.9 1773.79 1181.36C1778.03 1182.83 1782.67 1180.57 1784.13 1176.33C1785.6 1172.1 1783.34 1167.46 1779.11 1165.99C1774.87 1164.52 1770.23 1166.78 1768.76 1171.02Z" fill="#3386A7"/>
<path d="M1817.9 1117.44C1816.44 1121.68 1818.69 1126.32 1822.93 1127.78C1827.17 1129.25 1831.81 1126.99 1833.28 1122.75C1834.74 1118.52 1832.49 1113.88 1828.25 1112.41C1824.01 1110.95 1819.37 1113.2 1817.9 1117.44Z" fill="#3386A7"/>
<path d="M1844.73 1093.73L1732.83 995.213C1717.95 981.498 1717.01 958.318 1730.73 943.439C1744.44 928.56 1767.62 927.617 1782.5 941.332L1894.4 1039.85C1909.27 1053.57 1910.22 1076.75 1896.5 1091.63C1882.79 1106.5 1859.61 1107.45 1844.73 1093.73Z" fill="#55E6E6"/>
<path d="M1764.51 950.058C1754.8 946.537 1744.03 951.574 1740.51 961.288C1736.99 971.002 1742.03 981.769 1751.74 985.29C1761.45 988.812 1772.22 983.774 1775.74 974.06C1779.26 964.347 1774.23 953.579 1764.51 950.058Z" fill="#3386A7"/>
<path d="M1875.64 1049.23C1865.89 1045.81 1855.18 1050.96 1851.76 1060.71C1848.34 1070.46 1853.49 1081.18 1863.24 1084.6C1873 1088.01 1883.71 1082.86 1887.13 1073.11C1890.54 1063.36 1885.39 1052.65 1875.64 1049.23Z" fill="#3386A7"/>
<path d="M1872.84 1057.23C1867.5 1055.35 1861.63 1058.18 1859.76 1063.52C1857.88 1068.86 1860.71 1074.73 1866.05 1076.6C1871.39 1078.47 1877.26 1075.65 1879.13 1070.31C1881 1064.97 1878.18 1059.1 1872.84 1057.23Z" fill="#55E6E6"/>
<path d="M2055.29 1119.78C2055.28 1107.56 2054.44 1095.53 2052.82 1083.76L2067.09 1081.78C2065.35 1069.22 2062.73 1056.68 2059.3 1044.51L2045.49 1048.4C2042.22 1036.71 2038.15 1025.35 2033.37 1014.38L2046.48 1008.65C2041.42 997.06 2035.5 985.712 2028.89 974.907L2016.71 982.352C2010.43 972.041 2003.45 962.195 1995.84 952.885L2006.87 943.873C1998.87 934.077 1990.11 924.731 1980.85 916.104L1971.17 926.502C1962.36 918.288 1953 910.669 1943.13 903.711L1951.3 892.116C1940.94 884.809 1929.99 878.163 1918.75 872.35L1912.24 884.925C1901.59 879.403 1890.51 874.585 1879.07 870.543L1883.79 857.206C1871.84 852.976 1859.48 849.544 1847.06 846.997L1844.22 860.842C1832.54 858.44 1820.59 856.815 1808.4 856.017L1809.33 841.918C1796.75 841.084 1783.88 841.105 1771.3 841.969L1772.28 856.067C1760.1 856.901 1748.14 858.563 1736.47 861.009L1733.59 847.164C1721.19 849.747 1708.85 853.216 1696.93 857.475L1701.68 870.797C1690.25 874.875 1679.19 879.722 1668.56 885.273L1662.03 872.705C1650.82 878.546 1639.89 885.222 1629.56 892.55L1637.76 904.123C1627.92 911.104 1618.58 918.744 1609.8 926.987L1600.08 916.611C1590.84 925.26 1582.11 934.628 1574.13 944.453L1585.18 953.436C1577.59 962.775 1570.64 972.643 1564.38 982.976L1552.18 975.56C1545.59 986.393 1539.7 997.778 1534.67 1009.39L1547.8 1015.08C1543.04 1026.08 1539.02 1037.45 1535.78 1049.17L1521.94 1045.31C1518.55 1057.5 1515.97 1070.05 1514.27 1082.61L1528.55 1084.54C1526.99 1096.13 1526.19 1107.96 1526.19 1119.98C1526.19 1120.17 1526.19 1120.36 1526.19 1120.55L1511.75 1120.57C1511.76 1133.26 1512.63 1146.03 1514.35 1158.52L1528.7 1156.56C1530.36 1168.61 1532.84 1180.41 1536.08 1191.89L1522.1 1195.81C1525.51 1208 1529.82 1220.07 1534.88 1231.69L1548.22 1225.87C1553.07 1236.95 1558.65 1247.62 1564.91 1257.84L1552.44 1265.45C1559.03 1276.24 1566.42 1286.69 1574.43 1296.5L1585.78 1287.25C1593.39 1296.57 1601.63 1305.36 1610.42 1313.57L1600.43 1324.29C1609.68 1332.93 1619.62 1341.01 1629.95 1348.31L1638.43 1336.31C1648.23 1343.23 1658.52 1349.5 1669.25 1355.05L1662.48 1368.11C1673.73 1373.95 1685.5 1379.06 1697.43 1383.29L1702.36 1369.41C1713.61 1373.4 1725.22 1376.65 1737.12 1379.09L1734.15 1393.53C1746.52 1396.09 1759.21 1397.81 1771.86 1398.66L1772.84 1383.93C1778.76 1384.33 1784.72 1384.54 1790.74 1384.54C1796.84 1384.54 1802.89 1384.33 1808.89 1383.92L1809.89 1398.63C1822.55 1397.78 1835.24 1396.04 1847.61 1393.47L1844.62 1379.04C1856.5 1376.58 1868.1 1373.32 1879.34 1369.33L1884.28 1383.21C1896.2 1378.96 1907.95 1373.85 1919.2 1368.01L1912.41 1354.95C1923.12 1349.39 1933.41 1343.13 1943.2 1336.2L1951.69 1348.2C1962.01 1340.9 1971.94 1332.81 1981.19 1324.17L1971.17 1313.45C1979.97 1305.24 1988.21 1296.44 1995.82 1287.11L2007.17 1296.35C2015.17 1286.53 2022.57 1276.06 2029.15 1265.27L2016.68 1257.67C2022.93 1247.43 2028.5 1236.74 2033.34 1225.65L2046.69 1231.45C2051.75 1219.83 2056.05 1207.75 2059.46 1195.55L2045.47 1191.63C2048.69 1180.16 2051.16 1168.36 2052.82 1156.3L2067.16 1158.25C2068.86 1145.76 2069.72 1132.99 2069.72 1120.29V1119.78H2055.29V1119.78ZM2032.97 1188.14C2029.85 1199.25 2025.99 1210.04 2021.44 1220.47C2016.85 1231.01 2011.54 1241.18 2005.59 1250.91C1999.62 1260.71 1992.99 1270.06 1985.76 1278.92C1978.52 1287.8 1970.69 1296.17 1962.31 1303.97C1953.96 1311.78 1945.07 1319.01 1935.71 1325.62C1926.4 1332.2 1916.62 1338.16 1906.43 1343.44C1896.34 1348.68 1885.84 1353.26 1874.99 1357.11C1864.3 1360.91 1853.28 1364.01 1841.98 1366.34C1830.91 1368.64 1819.57 1370.2 1808.01 1370.98C1802.3 1371.37 1796.54 1371.57 1790.73 1371.57C1785.01 1371.57 1779.33 1371.38 1773.7 1371C1762.15 1370.23 1750.81 1368.68 1739.74 1366.39C1728.43 1364.07 1717.39 1360.98 1706.69 1357.18C1695.83 1353.34 1685.33 1348.77 1675.22 1343.54C1665.02 1338.26 1655.23 1332.3 1645.9 1325.72C1636.54 1319.11 1627.64 1311.88 1619.27 1304.09C1610.9 1296.29 1603.06 1287.93 1595.81 1279.05C1588.59 1270.22 1581.96 1260.87 1575.98 1251.08C1570.03 1241.37 1564.72 1231.21 1560.12 1220.68C1555.56 1210.26 1551.69 1199.48 1548.56 1188.38C1545.49 1177.47 1543.13 1166.25 1541.54 1154.79C1539.99 1143.6 1539.18 1132.16 1539.16 1120.55C1539.15 1120.36 1539.15 1120.17 1539.15 1119.98C1539.15 1108.55 1539.92 1097.3 1541.4 1086.28C1542.93 1074.8 1545.24 1063.57 1548.27 1052.64C1551.35 1041.51 1555.18 1030.69 1559.7 1020.25C1564.27 1009.67 1569.54 999.478 1575.47 989.719C1581.42 979.887 1588.03 970.505 1595.24 961.616C1602.47 952.698 1610.29 944.296 1618.66 936.452C1627.01 928.615 1635.9 921.345 1645.26 914.698C1654.58 908.081 1664.36 902.087 1674.56 896.776C1684.67 891.494 1695.18 886.893 1706.04 883.011C1716.74 879.18 1727.79 876.06 1739.11 873.702C1750.22 871.387 1761.58 869.798 1773.17 869.007C1778.97 868.601 1784.83 868.397 1790.73 868.397C1796.39 868.397 1802 868.586 1807.56 868.948C1819.14 869.717 1830.51 871.263 1841.61 873.541C1852.96 875.87 1864.02 878.968 1874.75 882.763C1885.62 886.616 1896.16 891.195 1906.28 896.448C1916.51 901.73 1926.31 907.709 1935.65 914.305C1945.04 920.923 1953.95 928.179 1962.33 935.993C1970.71 943.815 1978.56 952.196 1985.8 961.092C1993.03 969.952 1999.67 979.319 2005.65 989.122C2011.59 998.86 2016.89 1009.03 2021.48 1019.58C2026.03 1030 2029.89 1040.81 2033 1051.92C2036.06 1062.84 2038.41 1074.06 2039.97 1085.53C2041.51 1096.73 2042.31 1108.16 2042.32 1119.78V1119.98C2042.32 1131.7 2041.51 1143.25 2039.96 1154.55C2038.38 1166.01 2036.04 1177.23 2032.97 1188.14Z" fill="#3E95AB"/>
<path d="M1789.7 1358.39C1725.66 1358.39 1665.46 1333.45 1620.17 1288.17C1574.89 1242.89 1549.95 1182.68 1549.95 1118.64C1549.95 1054.6 1574.89 994.397 1620.17 949.115C1665.46 903.832 1725.66 878.894 1789.7 878.894C1853.74 878.894 1913.95 903.832 1959.23 949.115C2004.51 994.397 2029.45 1054.6 2029.45 1118.64C2029.45 1182.68 2004.51 1242.89 1959.23 1288.17C1913.95 1333.45 1853.74 1358.39 1789.7 1358.39ZM1789.7 882.705C1659.61 882.705 1553.77 988.546 1553.77 1118.64C1553.77 1248.74 1659.61 1354.58 1789.7 1354.58C1919.8 1354.58 2025.64 1248.74 2025.64 1118.64C2025.64 988.546 1919.8 882.705 1789.7 882.705Z" fill="#3E95AB"/>
<path d="M1396.35 601.305L1361.69 636.37L1373.38 647.933L1408.04 612.868L1396.35 601.305Z" fill="#3386A7"/>
<path d="M1353.99 665.986L1342.56 654.431L1337.7 659.235L1349.14 670.789L1353.99 665.986Z" fill="#3386A7"/>
<path d="M1348.93 666.438L1342.05 659.492L1334.8 666.671L1341.67 673.617L1348.93 666.438Z" fill="#3386A7"/>
<path d="M1353.99 665.986L1342.56 654.431L1337.7 659.235L1349.14 670.789L1353.99 665.986Z" fill="#3386A7"/>
<path d="M1342.66 677.754L1342.67 677.763L1342.67 677.75L1342.67 677.747L1342.67 677.741L1342.65 676.057C1342.63 673.502 1341.61 671.058 1339.81 669.242C1338.01 667.426 1335.58 666.383 1333.02 666.333L1331.34 666.3L1331.33 666.294L1331.33 666.297L1331.32 666.293L1331.33 666.302L1325.59 671.986L1325.58 671.983L1325.61 673.691C1325.66 676.218 1326.67 678.631 1328.45 680.427L1328.51 680.487C1330.29 682.283 1332.69 683.325 1335.22 683.394L1336.93 683.441L1336.92 683.438L1342.66 677.754Z" fill="#3386A7"/>
<path d="M1335.34 680.191L1328.79 673.583L1324.16 678.174L1330.7 684.782L1335.34 680.191Z" fill="#3386A7"/>
<path d="M1334.02 672.296L1314.2 691.913L1314.22 694.487L1316.87 694.606L1336.69 674.989L1334.02 672.296Z" fill="#3386A7"/>
<path d="M1352.81 669.547L1339 655.594L1339.71 640.727L1367.69 668.989L1352.81 669.547Z" fill="#53E6E6"/>
<path d="M1368.45 625.428L1383.27 640.401L1385.58 653.319L1355.56 622.99L1368.45 625.428Z" fill="#53E6E6"/>
<path d="M1387.53 653.197L1355.69 621.025L1337.28 639.243L1369.13 671.416L1387.53 653.197Z" fill="#3386A7"/>
<path d="M1492.1 645.93C1488.52 644.855 1485.23 643.212 1482.36 641.038C1476.32 636.458 1472.29 629.768 1470.39 621.154C1466.73 604.592 1457.34 593.974 1443.95 591.26C1429.43 588.317 1412.76 595.451 1403.42 608.61L1401.09 606.958C1411.07 592.908 1428.92 585.303 1444.52 588.464C1459.08 591.412 1469.26 602.808 1473.17 620.539C1477.83 641.636 1494.59 644.361 1501.57 644.553C1515.95 644.948 1529.97 636.956 1532.83 626.737L1535.57 627.505C1532.34 639.101 1517.37 647.842 1501.49 647.406C1498.2 647.315 1495.05 646.815 1492.1 645.93Z" fill="#3386A7"/>
<path d="M1436.6 632.724L1424.49 643.858L1474.18 697.889L1486.29 686.755L1436.6 632.724Z" fill="#3386A7"/>
<path d="M1465.41 673.268L1550.4 596.231C1563.43 584.421 1583.56 585.409 1595.37 598.439C1607.18 611.468 1606.2 631.605 1593.17 643.415L1508.18 720.452C1495.15 732.262 1475.01 731.274 1463.2 718.244C1451.39 705.214 1452.38 685.078 1465.41 673.268Z" fill="#53E6E6"/>
<path d="M1587.01 627.166C1590.82 619.033 1587.3 609.321 1579.16 605.517C1571.03 601.713 1561.32 605.235 1557.51 613.368C1553.71 621.501 1557.23 631.213 1565.37 635.017C1573.5 638.821 1583.21 635.299 1587.01 627.166Z" fill="#3386A7"/>
<path d="M1501.52 703.489C1505.24 695.316 1501.61 685.642 1493.44 681.925C1485.26 678.207 1475.59 681.832 1471.87 690.005C1468.16 698.178 1471.78 707.852 1479.95 711.57C1488.13 715.287 1497.8 711.663 1501.52 703.489Z" fill="#3386A7"/>
<path d="M1431.11 664.972L1389.02 619.565C1382.57 612.604 1382.98 601.731 1389.94 595.279C1396.9 588.827 1407.78 589.24 1414.23 596.201L1456.32 641.608C1462.77 648.569 1462.36 659.442 1455.39 665.894C1448.43 672.346 1437.56 671.933 1431.11 664.972Z" fill="#53E6E6"/>
<path d="M1404.79 601.185C1401.24 599.573 1397.04 601.149 1395.43 604.697C1393.82 608.245 1395.39 612.442 1398.94 614.054C1402.49 615.666 1406.69 614.09 1408.3 610.543C1409.91 606.995 1408.33 602.797 1404.79 601.185Z" fill="#3386A7"/>
<path d="M1447.16 648.048C1443.61 646.436 1439.41 648.012 1437.8 651.559C1436.19 655.107 1437.77 659.305 1441.31 660.916C1444.86 662.528 1449.06 660.952 1450.67 657.405C1452.28 653.857 1450.71 649.66 1447.16 648.048Z" fill="#3386A7"/>
<path d="M1494.82 700.441C1496.85 695.964 1494.87 690.664 1490.39 688.627C1485.91 686.59 1480.61 688.576 1478.58 693.054C1476.54 697.532 1478.52 702.831 1483 704.868C1487.48 706.904 1492.78 704.918 1494.82 700.441Z" fill="#53E6E6"/>
<path d="M1673.51 690.987L1666.68 689.957L1649.93 687.574C1653.48 662.733 1652.23 636.795 1645.49 610.984L1668.67 604.933C1666.67 597.24 1664.27 589.743 1661.52 582.467C1654.08 562.826 1643.99 544.759 1631.79 528.65L1621.24 536.573L1612.66 543.024C1597.08 522.149 1577.49 504.942 1555.42 491.939L1567.5 471.345C1543.14 457.074 1515.96 447.475 1487.53 443.449L1484.15 467.124C1459.3 463.575 1433.37 464.818 1407.55 471.558L1401.5 448.377C1373.05 455.806 1347.3 468.528 1325.22 485.268L1339.59 504.398C1318.71 519.971 1301.5 539.57 1288.51 561.628L1267.92 549.552C1253.55 573.942 1244.04 601.088 1240.02 629.52L1240.21 629.563L1255.81 631.784L1263.69 632.907C1260.14 657.748 1261.41 683.779 1268.12 709.505L1244.94 715.556C1252.37 744.005 1265.07 769.671 1281.72 791.771L1300.85 777.398C1316.52 798.256 1336.13 815.548 1358.19 828.543L1346.12 849.137C1370.48 863.417 1397.56 873.042 1426 877.058L1426.79 871.79L1429.38 853.383C1454.23 856.932 1480.26 855.672 1506.07 848.932L1512.12 872.113C1540.57 864.684 1566.23 851.978 1588.31 835.248L1573.94 816.109C1594.82 800.536 1612.11 780.92 1625.11 758.863L1645.71 770.93C1659.98 746.575 1669.58 719.402 1673.6 690.962L1673.51 690.987ZM1456.81 844.762C1354.91 844.762 1272.31 762.156 1272.31 660.258C1272.31 558.36 1354.91 475.754 1456.81 475.754C1558.71 475.754 1641.31 558.36 1641.31 660.258C1641.31 762.156 1558.71 844.762 1456.81 844.762Z" fill="#3E95AB"/>
<path d="M1457.77 836.173C1360.17 836.173 1280.76 756.77 1280.76 659.17C1280.76 561.57 1360.17 482.167 1457.77 482.167C1555.37 482.167 1634.77 561.57 1634.77 659.17C1634.77 756.77 1555.36 836.173 1457.77 836.173ZM1457.77 484.982C1361.72 484.982 1283.58 563.123 1283.58 659.171C1283.58 755.219 1361.72 833.359 1457.77 833.359C1553.81 833.359 1631.95 755.218 1631.95 659.171C1631.95 563.123 1553.81 484.982 1457.77 484.982Z" fill="#3E95AB"/>
<path d="M1077.39 1790.35H1057.86V1880.36H1077.39V1790.35Z" fill="#317FA0"/>
<path d="M1079.47 1852.89H1056.58C1052.52 1856.19 1049.93 1861.22 1049.94 1866.85L1049.98 1883.32L1086.16 1883.26L1086.11 1866.79C1086.1 1861.18 1083.52 1856.18 1079.47 1852.89Z" fill="#53E6E6"/>
<path d="M1054.73 1891.59C1049.84 1887.44 1042.33 1889.43 1040.19 1895.45L1022.67 1944.58C1022.2 1945.91 1022.76 1947.39 1024 1948.08C1025.32 1948.81 1026.97 1948.41 1027.8 1947.15L1056.49 1903.62C1059.03 1899.76 1058.28 1894.59 1054.73 1891.59Z" fill="#317FA0"/>
<path d="M1084.04 1889.86C1089.38 1886.32 1096.6 1889.17 1098.03 1895.4L1109.65 1946.25C1109.97 1947.63 1109.23 1949.03 1107.92 1949.56C1106.53 1950.13 1104.94 1949.54 1104.26 1948.2L1080.88 1901.6C1078.81 1897.47 1080.16 1892.43 1084.04 1889.86Z" fill="#317FA0"/>
<path d="M1089.57 1883.25H1046.81V1888.41H1089.57V1883.25Z" fill="#317FA0"/>
<path d="M1058.45 1888.95C1058.45 1891.25 1056.58 1893.11 1054.26 1893.11C1051.95 1893.11 1050.07 1891.25 1050.07 1888.95C1050.07 1886.65 1051.95 1884.78 1054.26 1884.78C1056.58 1884.78 1058.45 1886.65 1058.45 1888.95Z" fill="#317FA0"/>
<path d="M1086.15 1888.95C1086.15 1891.25 1084.28 1893.11 1081.96 1893.11C1079.65 1893.11 1077.78 1891.25 1077.78 1888.95C1077.78 1886.65 1079.65 1884.78 1081.96 1884.78C1084.28 1884.78 1086.15 1886.65 1086.15 1888.95Z" fill="#317FA0"/>
<path d="M1067.37 1775.44H993.587V1805.24H1067.37V1775.44Z" fill="#317FA0"/>
<path d="M1004.92 1822.97H944.417C926.399 1822.97 911.793 1808.36 911.793 1790.34C911.793 1772.32 926.399 1757.72 944.417 1757.72H1004.92V1822.97Z" fill="#53E6E6"/>
<path d="M1063.9 1822.97H1021.21V1757.72H1063.9C1081.92 1757.72 1096.52 1772.32 1096.52 1790.34C1096.52 1808.36 1081.92 1822.97 1063.9 1822.97Z" fill="#53E6E6"/>
<path d="M1071.46 1805.92C1062.67 1809.58 1052.52 1805.45 1048.84 1796.71C1045.15 1787.96 1049.31 1777.87 1058.1 1774.2C1066.89 1770.54 1077.03 1774.67 1080.72 1783.41C1084.4 1792.16 1080.25 1802.25 1071.46 1805.92ZM1060.91 1780.88C1055.82 1783 1053.41 1788.84 1055.55 1793.91C1057.68 1798.97 1063.56 1801.36 1068.65 1799.24C1073.74 1797.12 1076.14 1791.27 1074.01 1786.21C1071.87 1781.15 1066 1778.76 1060.91 1780.88Z" fill="#317FA0"/>
<path d="M1240.59 1857.44L1233.76 1856.41L1217.01 1854.02C1220.56 1829.18 1219.31 1803.24 1212.57 1777.43L1235.76 1771.38C1233.75 1763.69 1231.36 1756.19 1228.6 1748.92C1221.16 1729.28 1211.08 1711.21 1198.87 1695.1L1188.32 1703.02L1179.74 1709.47C1164.16 1688.6 1144.57 1671.39 1122.51 1658.39L1134.58 1637.79C1110.22 1623.52 1083.05 1613.92 1054.61 1609.9L1051.23 1633.57C1026.39 1630.02 1000.45 1631.27 974.628 1638.01L968.577 1614.83C940.128 1622.26 914.377 1634.98 892.302 1651.72L906.675 1670.85C885.792 1686.42 868.584 1706.02 855.59 1728.08L834.995 1716C820.63 1740.39 811.116 1767.54 807.099 1795.97L807.295 1796.01L822.885 1798.23L830.774 1799.35C827.225 1824.19 828.485 1850.23 835.199 1875.95L812.018 1882C819.447 1910.45 832.153 1936.12 848.798 1958.22L867.928 1943.85C883.595 1964.7 903.21 1982 925.268 1994.99L913.201 2015.58C937.565 2029.86 964.644 2039.49 993.084 2043.51L993.867 2038.24L996.463 2019.83C1021.31 2023.38 1047.34 2022.12 1073.15 2015.38L1079.2 2038.56C1107.65 2031.13 1133.31 2018.43 1155.4 2001.7L1141.02 1982.56C1161.9 1966.98 1179.19 1947.37 1192.19 1925.31L1212.79 1937.38C1227.06 1913.02 1236.66 1885.85 1240.68 1857.41L1240.59 1857.44ZM1023.89 2011.21C921.993 2011.21 839.395 1928.61 839.395 1826.71C839.395 1724.81 921.993 1642.2 1023.89 1642.2C1125.79 1642.2 1208.4 1724.81 1208.4 1826.71C1208.4 1928.61 1125.79 2011.21 1023.89 2011.21Z" fill="#3E95AB"/>
<path d="M1023.81 2003.54C926.209 2003.54 846.806 1924.13 846.806 1826.53C846.806 1728.93 926.209 1649.53 1023.81 1649.53C1121.41 1649.53 1200.81 1728.93 1200.81 1826.53C1200.81 1924.13 1121.41 2003.54 1023.81 2003.54ZM1023.81 1652.34C927.761 1652.34 849.62 1730.48 849.62 1826.53C849.62 1922.58 927.761 2000.72 1023.81 2000.72C1119.86 2000.72 1198 1922.58 1198 1826.53C1198 1730.48 1119.86 1652.34 1023.81 1652.34Z" fill="#3E95AB"/>
<path d="M995.648 578.296H1137.81C1142.78 578.296 1146.81 582.323 1146.81 587.29C1146.81 592.257 1142.78 596.284 1137.81 596.284H995.648V578.296Z" fill="#53E6E6"/>
<path d="M1118.67 595.985H1116.68V597.577H1118.67V595.985Z" fill="#3895BD"/>
<path d="M1114.69 595.985H1112.71V597.577H1114.69V595.985Z" fill="#3895BD"/>
<path d="M1122.58 577.002H1120.6V578.594H1122.58V577.002Z" fill="#3895BD"/>
<path d="M1122.64 595.985H1120.65V597.577H1122.64V595.985Z" fill="#3895BD"/>
<path d="M1118.61 577.002H1116.62V578.594H1118.61V577.002Z" fill="#3895BD"/>
<path d="M1126.61 595.985H1124.62V597.577H1126.61V595.985Z" fill="#3895BD"/>
<path d="M1130.58 595.985H1128.6V597.577H1130.58V595.985Z" fill="#3895BD"/>
<path d="M1126.55 577.002H1124.57V578.594H1126.55V577.002Z" fill="#3895BD"/>
<path d="M1134.5 577.002H1132.51V578.594H1134.5V577.002Z" fill="#3895BD"/>
<path d="M1130.53 577.002H1128.54V578.594H1130.53V577.002Z" fill="#3895BD"/>
<path d="M1114.64 577.002H1112.65V578.594H1114.64V577.002Z" fill="#3895BD"/>
<path d="M1098.8 595.985H1096.82V597.577H1098.8V595.985Z" fill="#3895BD"/>
<path d="M1134.55 595.985H1132.57V597.577H1134.55V595.985Z" fill="#3895BD"/>
<path d="M1094.83 595.985H1092.85V597.577H1094.83V595.985Z" fill="#3895BD"/>
<path d="M1098.75 577.002H1096.76V578.594H1098.75V577.002Z" fill="#3895BD"/>
<path d="M1110.72 595.985H1108.74V597.577H1110.72V595.985Z" fill="#3895BD"/>
<path d="M1094.78 577.002H1092.79V578.594H1094.78V577.002Z" fill="#3895BD"/>
<path d="M1090.86 595.985H1088.88V597.577H1090.86V595.985Z" fill="#3895BD"/>
<path d="M1110.67 577.002H1108.68V578.594H1110.67V577.002Z" fill="#3895BD"/>
<path d="M1106.75 595.985H1104.76V597.577H1106.75V595.985Z" fill="#3895BD"/>
<path d="M1106.69 577.002H1104.71V578.594H1106.69V577.002Z" fill="#3895BD"/>
<path d="M1102.78 595.985H1100.79V597.577H1102.78V595.985Z" fill="#3895BD"/>
<path d="M1138.53 595.985H1136.54V597.577H1138.53V595.985Z" fill="#3895BD"/>
<path d="M1138.47 577.002H1136.48V578.594H1138.47V577.002Z" fill="#3895BD"/>
<path d="M1090.81 577.002H1088.82V578.594H1090.81V577.002Z" fill="#3895BD"/>
<path d="M1102.72 577.002H1100.74V578.594H1102.72V577.002Z" fill="#3895BD"/>
<path d="M1023.34 595.985H1021.35V597.577H1023.34V595.985Z" fill="#241F3C"/>
<path d="M1027.25 577.002H1025.27V578.594H1027.25V577.002Z" fill="#3895BD"/>
<path d="M1015.39 595.985H1013.41V597.577H1015.39V595.985Z" fill="#241F3C"/>
<path d="M1019.36 595.985H1017.38V597.577H1019.36V595.985Z" fill="#241F3C"/>
<path d="M1027.31 595.985H1025.32V597.577H1027.31V595.985Z" fill="#241F3C"/>
<path d="M1019.31 577.002H1017.32V578.594H1019.31V577.002Z" fill="#3895BD"/>
<path d="M1023.28 577.002H1021.29V578.594H1023.28V577.002Z" fill="#3895BD"/>
<path d="M1035.25 595.985H1033.27V597.577H1035.25V595.985Z" fill="#241F3C"/>
<path d="M1031.23 577.002H1029.24V578.594H1031.23V577.002Z" fill="#3895BD"/>
<path d="M1108.05 577.002H1106.07V578.594H1108.05V577.002Z" fill="#3895BD"/>
<path d="M1035.2 577.002H1033.21V578.594H1035.2V577.002Z" fill="#3895BD"/>
<path d="M1031.28 595.985H1029.29V597.577H1031.28V595.985Z" fill="#241F3C"/>
<path d="M1011.42 595.985H1009.43V597.577H1011.42V595.985Z" fill="#241F3C"/>
<path d="M1086.89 595.985H1084.9V597.577H1086.89V595.985Z" fill="#3895BD"/>
<path d="M998.777 588.213L997.193 588.381C997.269 589.095 997.42 589.802 997.643 590.483L999.156 589.988C998.969 589.412 998.841 588.816 998.777 588.213Z" fill="#241F3C"/>
<path d="M1003.87 579.356L1003.21 577.904C1002.56 578.198 1001.93 578.562 1001.36 578.986L1002.3 580.27C1002.79 579.912 1003.31 579.605 1003.87 579.356Z" fill="#3895BD"/>
<path d="M1000.95 581.49L999.766 580.427C999.287 580.961 998.863 581.546 998.506 582.166L999.886 582.961C1000.19 582.437 1000.55 581.942 1000.95 581.49Z" fill="#241F3C"/>
<path d="M999.148 584.62L997.633 584.13C997.412 584.811 997.264 585.519 997.19 586.234L998.774 586.396C998.836 585.793 998.962 585.195 999.148 584.62Z" fill="#241F3C"/>
<path d="M1001.38 595.614C1001.96 596.036 1002.59 596.398 1003.24 596.69L1003.89 595.236C1003.34 594.989 1002.81 594.683 1002.32 594.327L1001.38 595.614Z" fill="#241F3C"/>
<path d="M1015.34 577.002H1013.35V578.594H1015.34V577.002Z" fill="#3895BD"/>
<path d="M1011.36 577.002H1009.38V578.594H1011.36V577.002Z" fill="#3895BD"/>
<path d="M1108 595.985H1106.01V597.577H1108V595.985Z" fill="#3895BD"/>
<path d="M1007.39 578.594L1007.39 577.002C1006.67 577.005 1005.95 577.082 1005.25 577.232L1005.59 578.789C1006.18 578.662 1006.79 578.597 1007.39 578.594Z" fill="#3895BD"/>
<path d="M1005.62 595.797L1005.29 597.355C1005.99 597.503 1006.71 597.578 1007.42 597.578H1007.45V595.986H1007.42C1006.82 595.985 1006.21 595.922 1005.62 595.797Z" fill="#241F3C"/>
<path d="M998.522 592.443C998.881 593.062 999.307 593.645 999.788 594.177L1000.97 593.11C1000.56 592.66 1000.2 592.166 999.899 591.643L998.522 592.443Z" fill="#241F3C"/>
<path d="M1071 595.985H1069.02V597.577H1071V595.985Z" fill="#3895BD"/>
<path d="M1074.92 577.002H1072.93V578.594H1074.92V577.002Z" fill="#3895BD"/>
<path d="M1066.97 577.002H1064.99V578.594H1066.97V577.002Z" fill="#3895BD"/>
<path d="M1067.03 595.985H1065.04V597.577H1067.03V595.985Z" fill="#3895BD"/>
<path d="M1074.97 595.985H1072.99V597.577H1074.97V595.985Z" fill="#3895BD"/>
<path d="M1070.94 577.002H1068.96V578.594H1070.94V577.002Z" fill="#3895BD"/>
<path d="M1086.83 577.002H1084.85V578.594H1086.83V577.002Z" fill="#3895BD"/>
<path d="M1082.92 595.985H1080.93V597.577H1082.92V595.985Z" fill="#3895BD"/>
<path d="M1082.86 577.002H1080.88V578.594H1082.86V577.002Z" fill="#3895BD"/>
<path d="M1078.89 577.002H1076.9V578.594H1078.89V577.002Z" fill="#3895BD"/>
<path d="M1078.94 595.985H1076.96V597.577H1078.94V595.985Z" fill="#3895BD"/>
<path d="M1059.09 595.985H1057.1V597.577H1059.09V595.985Z" fill="#3895BD"/>
<path d="M1051.14 595.985H1049.16V597.577H1051.14V595.985Z" fill="#3895BD"/>
<path d="M1051.09 577.002H1049.1V578.594H1051.09V577.002Z" fill="#3895BD"/>
<path d="M1047.17 595.985H1045.18V597.577H1047.17V595.985Z" fill="#3895BD"/>
<path d="M1104.03 595.985H1102.04V597.577H1104.03V595.985Z" fill="#3895BD"/>
<path d="M1047.11 577.002H1045.13V578.594H1047.11V577.002Z" fill="#3895BD"/>
<path d="M1063 577.002H1061.02V578.594H1063V577.002Z" fill="#3895BD"/>
<path d="M1055.06 577.002H1053.07V578.594H1055.06V577.002Z" fill="#3895BD"/>
<path d="M1063.06 595.985H1061.07V597.577H1063.06V595.985Z" fill="#3895BD"/>
<path d="M1104.08 577.002H1102.1V578.594H1104.08V577.002Z" fill="#3895BD"/>
<path d="M1055.11 595.985H1053.13V597.577H1055.11V595.985Z" fill="#3895BD"/>
<path d="M1043.16 595.985H1041.17V597.577H1043.16V595.985Z" fill="#3895BD"/>
<path d="M1035.21 595.985H1033.23V597.577H1035.21V595.985Z" fill="#3895BD"/>
<path d="M1031.24 595.985H1029.26V597.577H1031.24V595.985Z" fill="#3895BD"/>
<path d="M1039.19 595.985H1037.2V597.577H1039.19V595.985Z" fill="#3895BD"/>
<path d="M1059.03 577.002H1057.04V578.594H1059.03V577.002Z" fill="#3895BD"/>
<path d="M1035.02 577.002H1033.03V578.594H1035.02V577.002Z" fill="#3895BD"/>
<path d="M1031.04 577.002H1029.06V578.594H1031.04V577.002Z" fill="#3895BD"/>
<path d="M1038.99 577.002H1037V578.594H1038.99V577.002Z" fill="#3895BD"/>
<path d="M1042.96 577.002H1040.98V578.594H1042.96V577.002Z" fill="#3895BD"/>
<path d="M995.648 595.487H1137.81C1142.33 595.487 1146.01 591.81 1146.01 587.289C1146.01 582.769 1142.33 579.091 1137.81 579.091H995.648V577.5H1137.81C1143.21 577.5 1147.6 581.892 1147.6 587.29C1147.6 592.688 1143.21 597.08 1137.81 597.08H995.648V595.487Z" fill="#3895BD"/>
<path d="M1004.88 583.583C1002.93 585.273 1002.72 588.222 1004.41 590.17C1006.1 592.118 1009.05 592.328 1011 590.639C1012.95 588.949 1013.16 586 1011.47 584.052C1009.78 582.103 1006.83 581.893 1004.88 583.583ZM1009.77 589.22C1008.6 590.23 1006.84 590.105 1005.83 588.939C1004.82 587.774 1004.95 586.01 1006.11 585C1007.28 583.99 1009.04 584.115 1010.05 585.28C1011.06 586.446 1010.93 588.21 1009.77 589.22Z" fill="#312A52"/>
<path d="M1053.6 583.583C1051.65 585.273 1051.44 588.222 1053.13 590.17C1054.82 592.118 1057.77 592.328 1059.72 590.639C1061.67 588.949 1061.88 586 1060.19 584.052C1058.5 582.103 1055.55 581.893 1053.6 583.583ZM1058.49 589.22C1057.33 590.23 1055.56 590.105 1054.55 588.939C1053.54 587.774 1053.67 586.01 1054.83 585C1056 583.99 1057.76 584.115 1058.77 585.28C1059.78 586.446 1059.66 588.21 1058.49 589.22Z" fill="#3895BD"/>
<path d="M1102.32 583.583C1100.38 585.273 1100.17 588.222 1101.86 590.17C1103.54 592.118 1106.49 592.328 1108.44 590.639C1110.39 588.949 1110.6 586 1108.91 584.052C1107.22 582.103 1104.27 581.893 1102.32 583.583ZM1107.21 589.22C1106.05 590.23 1104.29 590.105 1103.27 588.939C1102.26 587.774 1102.39 586.01 1103.55 585C1104.72 583.99 1106.48 584.115 1107.49 585.28C1108.5 586.446 1108.38 588.21 1107.21 589.22Z" fill="#3895BD"/>
<path d="M987.398 578.296H907.717V596.284H987.398V578.296Z" fill="#53E6E6"/>
<path d="M953.261 595.985H951.275V597.577H953.261V595.985Z" fill="#3895BD"/>
<path d="M925.401 577.002H923.415V578.594H925.401V577.002Z" fill="#3895BD"/>
<path d="M933.345 577.002H931.359V578.594H933.345V577.002Z" fill="#3895BD"/>
<path d="M941.345 595.985H939.359V597.577H941.345V595.985Z" fill="#3895BD"/>
<path d="M937.373 595.985H935.387V597.577H937.373V595.985Z" fill="#3895BD"/>
<path d="M937.317 577.002H935.331V578.594H937.317V577.002Z" fill="#3895BD"/>
<path d="M933.401 595.985H931.415V597.577H933.401V595.985Z" fill="#3895BD"/>
<path d="M941.289 577.002H939.303V578.594H941.289V577.002Z" fill="#3895BD"/>
<path d="M949.289 595.985H947.303V597.577H949.289V595.985Z" fill="#3895BD"/>
<path d="M945.261 577.002H943.275V578.594H945.261V577.002Z" fill="#3895BD"/>
<path d="M953.206 577.002H951.22V578.594H953.206V577.002Z" fill="#3895BD"/>
<path d="M945.317 595.985H943.331V597.577H945.317V595.985Z" fill="#3895BD"/>
<path d="M949.233 577.002H947.247V578.594H949.233V577.002Z" fill="#3895BD"/>
<path d="M929.373 577.002H927.387V578.594H929.373V577.002Z" fill="#3895BD"/>
<path d="M917.457 577.002H915.471V578.594H917.457V577.002Z" fill="#3895BD"/>
<path d="M913.54 595.985H911.554V597.577H913.54V595.985Z" fill="#3895BD"/>
<path d="M909.568 595.985H907.717V597.577H909.568V595.985Z" fill="#3895BD"/>
<path d="M913.485 577.002H911.499V578.594H913.485V577.002Z" fill="#3895BD"/>
<path d="M917.512 595.985H915.526V597.577H917.512V595.985Z" fill="#3895BD"/>
<path d="M909.512 577.002H907.717V578.594H909.512V577.002Z" fill="#3895BD"/>
<path d="M929.429 595.985H927.443V597.577H929.429V595.985Z" fill="#3895BD"/>
<path d="M925.457 595.985H923.471V597.577H925.457V595.985Z" fill="#3895BD"/>
<path d="M921.485 595.985H919.499V597.577H921.485V595.985Z" fill="#3895BD"/>
<path d="M921.429 577.002H919.443V578.594H921.429V577.002Z" fill="#3895BD"/>
<path d="M965.122 577.002H963.136V578.594H965.122V577.002Z" fill="#3895BD"/>
<path d="M987.397 577.002H986.968V578.594H987.397V577.002Z" fill="#3895BD"/>
<path d="M981.01 577.002H979.024V578.594H981.01V577.002Z" fill="#3895BD"/>
<path d="M987.398 595.985H987.024V597.577H987.398V595.985Z" fill="#3895BD"/>
<path d="M984.982 577.002H982.996V578.594H984.982V577.002Z" fill="#3895BD"/>
<path d="M981.066 595.985H979.08V597.577H981.066V595.985Z" fill="#3895BD"/>
<path d="M957.178 577.002H955.192V578.594H957.178V577.002Z" fill="#3895BD"/>
<path d="M965.178 595.985H963.192V597.577H965.178V595.985Z" fill="#3895BD"/>
<path d="M961.206 595.985H959.22V597.577H961.206V595.985Z" fill="#3895BD"/>
<path d="M961.15 577.002H959.164V578.594H961.15V577.002Z" fill="#3895BD"/>
<path d="M957.233 595.985H955.247V597.577H957.233V595.985Z" fill="#3895BD"/>
<path d="M973.122 595.985H971.136V597.577H973.122V595.985Z" fill="#3895BD"/>
<path d="M977.094 595.985H975.108V597.577H977.094V595.985Z" fill="#3895BD"/>
<path d="M977.038 577.002H975.052V578.594H977.038V577.002Z" fill="#3895BD"/>
<path d="M969.094 577.002H967.108V578.594H969.094V577.002Z" fill="#3895BD"/>
<path d="M969.15 595.985H967.164V597.577H969.15V595.985Z" fill="#3895BD"/>
<path d="M973.066 577.002H971.08V578.594H973.066V577.002Z" fill="#3895BD"/>
<path d="M985.038 595.985H983.052V597.577H985.038V595.985Z" fill="#3895BD"/>
<path d="M987.398 595.487H907.717V597.079H987.398V595.487Z" fill="#3895BD"/>
<path d="M987.398 577.5H907.717V579.092H987.398V577.5Z" fill="#3895BD"/>
<path d="M985.412 595.487H907.717V597.079H985.412V595.487Z" fill="#3895BD"/>
<path d="M985.412 577.5H907.717V579.092H985.412V577.5Z" fill="#3895BD"/>
<path d="M922.088 583.583C920.14 585.273 919.93 588.222 921.62 590.17C923.31 592.118 926.259 592.328 928.207 590.639C930.156 588.949 930.365 586 928.676 584.052C926.986 582.103 924.037 581.893 922.088 583.583ZM926.977 589.22C925.812 590.23 924.049 590.105 923.038 588.939C922.028 587.774 922.153 586.01 923.318 585C924.483 583.99 926.247 584.115 927.257 585.28C928.268 586.446 928.142 588.21 926.977 589.22Z" fill="#3895BD"/>
<path d="M970.81 583.583C968.862 585.273 968.652 588.222 970.342 590.17C972.032 592.118 974.981 592.328 976.929 590.639C978.878 588.949 979.087 586 977.398 584.052C975.708 582.103 972.759 581.893 970.81 583.583ZM975.699 589.22C974.534 590.23 972.77 590.105 971.76 588.939C970.75 587.774 970.875 586.01 972.04 585C973.205 583.99 974.969 584.115 975.979 585.28C976.99 586.446 976.864 588.21 975.699 589.22Z" fill="#3895BD"/>
<path d="M1035.31 531.238H991.632V637.332H1035.31V531.238Z" fill="#3895BD"/>
<path d="M1018.16 501.5H945.086V506.985H1018.16V501.5Z" fill="#3895BD"/>
<path d="M1024.14 637.331V509.014C1024.14 506.972 1022.48 505.317 1020.44 505.317H943.672C941.63 505.317 939.975 506.972 939.975 509.014V637.332L1024.14 637.331Z" fill="#53E6E6"/>
<path d="M948.721 606H945.829V628.912H948.721V606Z" fill="#3895BD"/>
<path d="M954.336 606H951.444V628.912H954.336V606Z" fill="#3895BD"/>
<path d="M959.95 606H957.058V628.912H959.95V606Z" fill="#3895BD"/>
<path d="M965.564 606H962.672V628.912H965.564V606Z" fill="#3895BD"/>
<path d="M971.178 606H968.286V628.912H971.178V606Z" fill="#3895BD"/>
<path d="M976.793 606H973.901V628.912H976.793V606Z" fill="#3895BD"/>
<path d="M982.407 606H979.515V628.912H982.407V606Z" fill="#3895BD"/>
<path d="M1018.65 511.371H945.284V589.479H1018.65V511.371Z" fill="#3895BD"/>
<path d="M969.15 568.549C974.162 568.549 978.225 564.486 978.225 559.474C978.225 554.462 974.162 550.399 969.15 550.399C964.138 550.399 960.075 554.462 960.075 559.474C960.075 564.486 964.138 568.549 969.15 568.549Z" fill="#53E6E6"/>
<path d="M962.926 554.169L966.007 557.08C965.475 557.749 965.152 558.591 965.137 559.507H960.904C960.922 557.465 961.681 555.6 962.926 554.169Z" fill="#3895BD"/>
<path d="M963.623 553.457C965.043 552.173 966.912 551.377 968.967 551.333L968.909 555.569C968.088 555.618 967.333 555.912 966.718 556.382L963.623 553.457Z" fill="#3895BD"/>
<path d="M974.79 553.562L971.754 556.522C971.236 556.079 970.603 555.767 969.906 555.633L969.964 551.37C971.823 551.552 973.502 552.352 974.79 553.562Z" fill="#3895BD"/>
<path d="M977.394 559.507H973.162C973.147 558.669 972.877 557.895 972.425 557.257L975.474 554.285C976.66 555.701 977.377 557.52 977.394 559.507Z" fill="#3895BD"/>
<path d="M994.68 568.549C999.692 568.549 1003.76 564.486 1003.76 559.474C1003.76 554.462 999.692 550.399 994.68 550.399C989.668 550.399 985.605 554.462 985.605 559.474C985.605 564.486 989.668 568.549 994.68 568.549Z" fill="#53E6E6"/>
<path d="M988.457 554.169L991.538 557.08C991.005 557.749 990.683 558.591 990.668 559.507H986.435C986.452 557.465 987.212 555.6 988.457 554.169Z" fill="#3895BD"/>
<path d="M989.153 553.457C990.573 552.173 992.442 551.377 994.497 551.333L994.439 555.569C993.618 555.618 992.863 555.912 992.249 556.382L989.153 553.457Z" fill="#3895BD"/>
<path d="M1000.32 553.562L997.283 556.522C996.764 556.079 996.131 555.767 995.435 555.633L995.493 551.37C997.353 551.552 999.032 552.352 1000.32 553.562Z" fill="#3895BD"/>
<path d="M1002.93 559.507H998.693C998.678 558.669 998.408 557.895 997.956 557.257L1001 554.285C1002.19 555.701 1002.91 557.52 1002.93 559.507Z" fill="#3895BD"/>
<path d="M1008.66 521.546H954.589V541.875H1008.66V521.546Z" fill="#53E6E6"/>
<path d="M966.62 576.357H961.69V581.287H966.62V576.357Z" fill="#53E6E6"/>
<path d="M974.06 576.357H969.13V581.287H974.06V576.357Z" fill="#53E6E6"/>
<path d="M981.5 576.357H976.57V581.287H981.5V576.357Z" fill="#53E6E6"/>
<path d="M988.941 576.357H984.011V581.287H988.941V576.357Z" fill="#53E6E6"/>
<path d="M996.381 576.357H991.451V581.287H996.381V576.357Z" fill="#53E6E6"/>
<path d="M1003.82 576.357H998.891V581.287H1003.82V576.357Z" fill="#53E6E6"/>
<path d="M1077.52 556.812H1054.52V577.002H1077.52V556.812Z" fill="#3895BD"/>
<path d="M1084.46 556.812H1061.46V577.002H1084.46V556.812Z" fill="#3895BD"/>
<path d="M1073.53 556.812H1071.04V560.886H1073.53V556.812Z" fill="#53E6E6"/>
<path d="M1080.02 573.257H1077.63V575.542H1080.02V573.257Z" fill="#53E6E6"/>
<path d="M1083.34 573.257H1080.95V575.542H1083.34V573.257Z" fill="#53E6E6"/>
<path d="M1076.69 573.257H1074.29V575.542H1076.69V573.257Z" fill="#53E6E6"/>
<path d="M1118.06 556.812H1095.06V577.002H1118.06V556.812Z" fill="#3895BD"/>
<path d="M1125 556.812H1102V577.002H1125V556.812Z" fill="#3895BD"/>
<path d="M1114.07 556.812H1111.58V560.886H1114.07V556.812Z" fill="#53E6E6"/>
<path d="M1120.56 573.257H1118.17V575.542H1120.56V573.257Z" fill="#53E6E6"/>
<path d="M1123.88 573.257H1121.49V575.542H1123.88V573.257Z" fill="#53E6E6"/>
<path d="M1117.23 573.257H1114.83V575.542H1117.23V573.257Z" fill="#53E6E6"/>
<path d="M1186.62 582.745L1181.53 581.978L1169.06 580.203C1171.7 561.702 1170.77 542.383 1165.75 523.16L1183.02 518.654C1181.52 512.924 1179.74 507.34 1177.69 501.921C1172.15 487.293 1164.64 473.837 1155.55 461.839L1147.69 467.74L1141.3 472.544C1129.7 456.997 1115.11 444.181 1098.67 434.496L1107.67 419.158C1089.52 408.529 1069.28 401.38 1048.11 398.382L1045.58 416.015C1027.08 413.372 1007.76 414.297 988.535 419.317L984.029 402.052C962.841 407.585 943.662 417.061 927.22 429.528L937.925 443.776C922.371 455.375 909.555 469.971 899.877 486.4L884.539 477.406C873.84 495.571 866.754 515.79 863.763 536.965L863.909 536.997L875.521 538.651L881.396 539.488C878.753 557.989 879.691 577.377 884.692 596.537L867.427 601.043C872.96 622.231 882.423 641.347 894.82 657.807L909.068 647.102C920.737 662.637 935.346 675.516 951.774 685.194L942.787 700.532C960.933 711.167 981.101 718.336 1002.28 721.327L1002.87 717.404L1004.8 703.695C1023.31 706.338 1042.69 705.4 1061.91 700.38L1066.42 717.645C1087.61 712.112 1106.72 702.649 1123.17 690.188L1112.46 675.933C1128.01 664.334 1140.89 649.725 1150.58 633.297L1165.91 642.284C1176.54 624.144 1183.69 603.907 1186.69 582.725L1186.62 582.745ZM1025.22 697.275C949.332 697.275 887.814 635.751 887.814 559.858C887.814 483.965 949.332 422.441 1025.22 422.441C1101.12 422.441 1162.64 483.965 1162.64 559.858C1162.64 635.751 1101.12 697.275 1025.22 697.275Z" fill="#3E95AB"/>
<path d="M1178.03 616.636L1173.22 614.801L1161.41 610.407C1167.94 592.895 1171.15 573.824 1170.35 553.972L1188.18 553.251C1187.94 547.334 1187.39 541.499 1186.54 535.767C1184.24 520.294 1179.78 505.546 1173.45 491.885L1164.52 495.974L1157.25 499.305C1149.23 481.64 1137.71 466.008 1123.72 453.041L1135.77 439.974C1120.31 425.72 1102.07 414.419 1082.02 406.974L1075.79 423.663C1058.28 417.135 1039.21 413.92 1019.35 414.723L1018.63 396.894C996.747 397.781 975.988 402.949 957.267 411.623L964.687 427.826C947.018 435.841 931.384 447.369 918.425 461.356L905.357 449.3C891.031 464.766 879.796 483.008 872.357 503.059L872.493 503.121L883.485 507.213L889.047 509.283C882.519 526.795 879.301 545.937 880.101 565.723L862.272 566.444C863.16 588.325 868.328 609.019 876.93 627.744L893.133 620.324C901.22 637.99 912.747 653.688 926.734 666.647L914.682 679.716C930.143 693.976 948.318 705.281 968.375 712.721L969.781 709.012L974.593 696.03C992.111 702.559 1011.25 705.776 1031.1 704.971L1031.82 722.8C1053.7 721.913 1074.39 716.744 1093.12 708.077L1085.7 691.868C1103.37 683.852 1119.06 672.325 1132.03 658.339L1145.1 670.391C1159.35 654.935 1170.65 636.688 1178.1 616.632L1178.03 616.636ZM995.921 694.114C921.774 677.93 874.791 604.702 890.976 530.555C907.16 456.408 980.383 409.418 1054.53 425.602C1128.68 441.786 1175.67 515.015 1159.48 589.162C1143.3 663.309 1070.07 710.298 995.921 694.114Z" fill="#3E95AB"/>
<path d="M646.64 1336.91L641.64 1336.16L629.386 1334.42C631.983 1316.24 631.074 1297.26 626.142 1278.38L643.103 1273.95C641.634 1268.32 639.884 1262.84 637.867 1257.51C632.425 1243.14 625.047 1229.92 616.118 1218.14L608.397 1223.93L602.121 1228.65C590.72 1213.38 576.387 1200.79 560.241 1191.28L569.077 1176.21C551.25 1165.77 531.369 1158.74 510.567 1155.8L508.089 1173.12C489.914 1170.52 470.935 1171.43 452.044 1176.36L447.617 1159.4C426.802 1164.84 407.96 1174.15 391.809 1186.39L402.325 1200.39C387.045 1211.78 374.455 1226.13 364.947 1242.26L349.879 1233.43C339.369 1251.27 332.407 1271.14 329.468 1291.94L329.611 1291.97L341.018 1293.59L346.79 1294.42C344.194 1312.59 345.115 1331.64 350.028 1350.46L333.067 1354.89C338.503 1375.7 347.799 1394.48 359.978 1410.65L373.975 1400.14C385.438 1415.4 399.79 1428.05 415.929 1437.56L407.1 1452.63C424.926 1463.07 444.739 1470.12 465.548 1473.06L466.121 1469.2L468.02 1455.73C486.201 1458.33 505.242 1457.41 524.127 1452.48L528.554 1469.44C549.369 1464 568.148 1454.7 584.306 1442.46L573.789 1428.46C589.062 1417.07 601.715 1402.71 611.229 1386.57L626.297 1395.4C636.739 1377.58 643.762 1357.7 646.707 1336.89L646.64 1336.91ZM488.088 1449.43C413.532 1449.43 353.098 1388.98 353.098 1314.43C353.098 1239.87 413.532 1179.43 488.088 1179.43C562.644 1179.43 623.085 1239.87 623.085 1314.43C623.085 1388.98 562.644 1449.43 488.088 1449.43Z" fill="#3E95AB"/>
<path d="M503.194 1250.5C503.435 1250.67 509.155 1254.72 513.591 1261.27C519.649 1270.2 520.348 1279.43 515.614 1287.94C512.156 1294.16 506.868 1298.36 500.323 1300.08C492.774 1302.06 484.896 1300.3 481.948 1298.49L484.093 1295C486.058 1296.2 492.741 1297.83 499.283 1296.11C504.798 1294.66 509.087 1291.25 512.03 1285.95C516.019 1278.78 515.402 1271.25 510.197 1263.57C506.179 1257.64 500.893 1253.9 500.84 1253.86L503.194 1250.5Z" fill="#3895BD"/>
<path d="M464.61 1256.49L456.79 1260.62L475.245 1295.53L483.066 1291.39L464.61 1256.49Z" fill="#3895BD"/>
<path d="M485.233 1309.06L484.947 1335.58L493.793 1335.67L494.079 1309.15L485.233 1309.06Z" fill="#3895BD"/>
<path d="M459.901 1270.51L521.597 1270.51C531.055 1270.51 538.723 1262.84 538.723 1253.39C538.723 1243.93 531.056 1236.26 521.598 1236.26L459.902 1236.26C450.444 1236.26 442.776 1243.92 442.776 1253.38C442.776 1262.84 450.443 1270.51 459.901 1270.51Z" fill="#53E6E6"/>
<path d="M513.552 1249.65C511.685 1254.1 513.789 1259.24 518.243 1261.11C522.697 1262.98 527.839 1260.87 529.706 1256.42C531.573 1251.97 529.469 1246.82 525.015 1244.96C520.561 1243.09 515.419 1245.19 513.552 1249.65Z" fill="#3895BD"/>
<path d="M451.863 1249.99C449.949 1254.42 451.998 1259.59 456.432 1261.5C460.866 1263.42 466.03 1261.37 467.944 1256.93C469.858 1252.5 467.809 1247.34 463.375 1245.42C458.941 1243.51 453.777 1245.56 451.863 1249.99Z" fill="#3895BD"/>
<path d="M465.724 1288.49L481.173 1317.98C483.541 1322.51 489.127 1324.25 493.65 1321.88C498.172 1319.52 499.918 1313.93 497.55 1309.41L482.101 1279.91C479.733 1275.39 474.147 1273.64 469.624 1276.01C465.102 1278.38 463.355 1283.96 465.724 1288.49Z" fill="#53E6E6"/>
<path d="M489.213 1309.84C487.125 1310.02 485.571 1311.86 485.751 1313.95C485.93 1316.04 487.775 1317.59 489.863 1317.41C491.951 1317.23 493.505 1315.39 493.325 1313.3C493.146 1311.21 491.301 1309.66 489.213 1309.84Z" fill="#3895BD"/>
<path d="M473.077 1279.93C470.989 1280.11 469.436 1281.95 469.615 1284.04C469.794 1286.13 471.639 1287.68 473.727 1287.51C475.815 1287.33 477.369 1285.48 477.19 1283.39C477.01 1281.3 475.165 1279.75 473.077 1279.93Z" fill="#3895BD"/>
<path d="M447.259 1353.29V1389.51C447.536 1391.84 448.984 1392.85 451.679 1392.46V1353.29L447.259 1353.29Z" fill="#3895BD"/>
<path d="M436.824 1353.29L449.441 1365.91V1353.29H436.824Z" fill="#3895BD"/>
<path d="M527.731 1353.29V1392.46C530.426 1392.85 531.874 1391.84 532.151 1389.51V1353.29H527.731V1353.29Z" fill="#3895BD"/>
<path d="M528.926 1353.29V1365.91L541.542 1353.29H528.926Z" fill="#3895BD"/>
<path d="M495.43 1331.56H484.628C482.711 1333.13 481.488 1335.51 481.493 1338.19L481.513 1349.5L498.585 1349.47L498.565 1338.15C498.559 1335.49 497.339 1333.12 495.43 1331.56Z" fill="#53E6E6"/>
<path d="M540.846 1353.88H437.737C436.14 1353.88 434.845 1352.58 434.845 1350.98C434.845 1349.39 436.14 1348.09 437.737 1348.09H540.846C542.443 1348.09 543.738 1349.39 543.738 1350.98C543.738 1352.58 542.443 1353.88 540.846 1353.88Z" fill="#53E6E6"/>
<path d="M495.25 1339.39C495.25 1342.27 492.917 1344.6 490.039 1344.6C487.161 1344.6 484.828 1342.27 484.828 1339.39C484.828 1336.51 487.161 1334.18 490.039 1334.18C492.916 1334.18 495.25 1336.51 495.25 1339.39Z" fill="#3895BD"/>
<path d="M489.981 1341.88C491.355 1341.88 492.469 1340.77 492.469 1339.39C492.469 1338.02 491.355 1336.9 489.981 1336.9C488.607 1336.9 487.493 1338.02 487.493 1339.39C487.493 1340.77 488.607 1341.88 489.981 1341.88Z" fill="#53E6E6"/>
<path d="M642.211 1357.9L637.357 1356.49L625.446 1353.12C630.449 1335.46 632.085 1316.53 629.722 1297.15L647.123 1295.03C646.419 1289.26 645.419 1283.59 644.131 1278.04C640.659 1263.07 635.114 1248.99 627.84 1236.11L619.414 1240.83L612.563 1244.67C603.306 1228.01 590.784 1213.61 576.055 1202.03L586.825 1188.27C570.554 1175.54 551.79 1165.92 531.568 1160.23L526.797 1177.06C509.132 1172.06 490.202 1170.42 470.822 1172.79L468.702 1155.38C447.347 1157.99 427.431 1164.69 409.787 1174.67L418.338 1189.95C401.672 1199.2 387.278 1211.73 375.699 1226.45L361.947 1215.68C349.146 1231.96 339.592 1250.72 333.899 1270.94L334.037 1270.99L345.124 1274.12L350.734 1275.71C345.731 1293.37 344.099 1312.37 346.451 1331.69L329.05 1333.81C331.655 1355.16 338.357 1375.01 348.265 1392.67L363.542 1384.11C372.862 1400.77 385.394 1415.23 400.118 1426.81L389.354 1440.56C405.624 1453.3 424.317 1462.93 444.547 1468.62L445.63 1464.88L449.312 1451.78C466.983 1456.79 485.976 1458.42 505.351 1456.06L507.471 1473.46C528.826 1470.85 548.679 1464.15 566.328 1454.18L557.778 1438.9C574.437 1429.64 588.895 1417.11 600.481 1402.39L614.234 1413.16C626.964 1396.89 636.582 1378.13 642.282 1357.9L642.211 1357.9ZM470.043 1448.21C396.156 1438.25 344.343 1370.27 354.309 1296.39C364.275 1222.5 432.246 1170.68 506.133 1180.64C580.02 1190.61 631.839 1258.59 621.873 1332.47C611.907 1406.36 543.93 1458.18 470.043 1448.21Z" fill="#3E95AB"/>
<path d="M1010.87 1284.84L1008.81 1283.17C1026.92 1260.91 1034.29 1242.34 1031.35 1226.41C1027.35 1204.73 1004.55 1191.58 984.424 1179.97C973.129 1173.46 962.46 1167.31 956.434 1160.33C951.912 1155.1 950.038 1149.43 950.864 1143.48C952.738 1129.99 967.782 1119.94 968.422 1119.52L969.883 1121.73C969.736 1121.83 955.195 1131.56 953.493 1143.85C952.779 1149.01 954.445 1153.97 958.443 1158.6C964.175 1165.24 974.655 1171.28 985.75 1177.67C1006.37 1189.56 1029.74 1203.04 1033.96 1225.93C1037.05 1242.67 1029.5 1261.94 1010.87 1284.84Z" fill="#317FA0"/>
<path d="M852.558 1136.7C852.226 1136.02 844.407 1119.64 842.641 1099.23C840.23 1071.37 850.297 1049.63 871.756 1036.35C887.43 1026.66 904.683 1023.85 921.651 1028.23C941.219 1033.29 956.819 1047.2 961.201 1055.02L951.938 1060.21C949.017 1055 935.955 1042.9 918.995 1038.52C904.699 1034.82 890.685 1037.13 877.344 1045.39C859.267 1056.57 851.151 1074.38 853.223 1098.32C854.822 1116.8 862.049 1131.93 862.122 1132.08L852.558 1136.7Z" fill="#317FA0"/>
<path d="M967.315 1046.68L941.716 1061.46L945.773 1068.49L971.372 1053.71L967.315 1046.68Z" fill="#317FA0"/>
<path d="M1162.32 1028.19H1144.84V1109.17H1162.32V1028.19Z" fill="#28799C"/>
<path d="M1164.17 1084.46L1143.69 1084.45C1140.05 1087.42 1137.72 1091.95 1137.73 1097.01L1137.76 1111.83L1170.13 1111.79L1170.1 1096.97C1170.1 1091.93 1167.79 1087.43 1164.17 1084.46Z" fill="#5AF2F2"/>
<path d="M1173.18 1111.77H1134.92V1116.41H1173.18V1111.77Z" fill="#28799C"/>
<path d="M1126.99 1196.21L1120.44 1197.17L1101.84 1149.06L1119.72 1146.45L1126.99 1196.21Z" fill="#28799C"/>
<path d="M1195.14 1195.86L1201.76 1195.61L1211.29 1144.91L1193.23 1145.6L1195.14 1195.86Z" fill="#28799C"/>
<path d="M1174.52 1133.83L1136.01 1133.8C1131.31 1133.8 1127.48 1129.96 1127.48 1125.27C1127.48 1120.57 1131.32 1116.74 1136.02 1116.74L1174.53 1116.76C1179.23 1116.77 1183.06 1120.61 1183.06 1125.3C1183.06 1130 1179.21 1133.83 1174.52 1133.83Z" fill="#5AF2F2"/>
<path d="M1140.43 1119.51C1137.76 1116.58 1133.24 1116.31 1130.24 1118.9L1105.05 1140.63C1099.23 1145.55 1099.32 1154.56 1105.24 1159.37C1110.88 1163.94 1119.24 1162.59 1123.15 1156.48L1141.17 1128.39C1142.96 1125.6 1142.66 1121.96 1140.43 1119.51Z" fill="#5AF2F2"/>
<path d="M1109.7 1146.68C1107.69 1149.22 1108.75 1152.94 1111.8 1154.03C1113.65 1154.69 1115.77 1154.08 1116.99 1152.54C1119 1150.01 1117.94 1146.29 1114.89 1145.2C1113.04 1144.54 1110.92 1145.14 1109.7 1146.68Z" fill="#28799C"/>
<path d="M1131.76 1122.8C1130.21 1124.74 1131.03 1127.6 1133.37 1128.44C1134.79 1128.95 1136.42 1128.48 1137.36 1127.3C1138.9 1125.35 1138.09 1122.49 1135.74 1121.66C1134.32 1121.15 1132.69 1121.62 1131.76 1122.8Z" fill="#28799C"/>
<path d="M1168.97 1119.87C1171.23 1116.61 1175.67 1115.75 1178.99 1117.92L1206.82 1136.13C1213.25 1140.25 1214.34 1149.19 1209.1 1154.73C1204.12 1160.01 1195.66 1159.77 1190.97 1154.23L1169.4 1128.77C1167.26 1126.24 1167.08 1122.59 1168.97 1119.87Z" fill="#5AF2F2"/>
<path d="M1171.9 1123.91C1171.43 1126.35 1173.48 1128.51 1175.94 1128.17C1177.44 1127.96 1178.67 1126.8 1178.95 1125.32C1179.42 1122.87 1177.38 1120.72 1174.91 1121.06C1173.42 1121.26 1172.19 1122.43 1171.9 1123.91Z" fill="#28799C"/>
<path d="M1195.14 1145.24C1194.53 1148.42 1197.2 1151.22 1200.4 1150.78C1202.35 1150.51 1203.95 1148.99 1204.32 1147.06C1204.93 1143.88 1202.27 1141.08 1199.06 1141.52C1197.12 1141.79 1195.52 1143.31 1195.14 1145.24Z" fill="#28799C"/>
<path d="M1156.91 1023.93H1092.51V1044.65H1156.91V1023.93Z" fill="#317FA0"/>
<path d="M1100.35 1056.97H1058.64C1046.11 1056.97 1035.96 1046.81 1035.96 1034.29C1035.96 1021.76 1046.11 1011.61 1058.64 1011.61H1100.35V1056.97Z" fill="#5AF2F2"/>
<path d="M1154.39 1056.97H1124.99V1011.61H1154.39C1166.92 1011.61 1177.07 1021.76 1177.07 1034.29C1177.07 1046.81 1166.92 1056.97 1154.39 1056.97Z" fill="#5AF2F2"/>
<path d="M1159.74 1045.11C1153.66 1047.66 1146.64 1044.79 1144.1 1038.71C1141.55 1032.63 1144.42 1025.62 1150.5 1023.07C1156.58 1020.52 1163.59 1023.39 1166.14 1029.47C1168.69 1035.55 1165.82 1042.56 1159.74 1045.11ZM1152.44 1027.71C1148.92 1029.18 1147.26 1033.25 1148.74 1036.77C1150.21 1040.28 1154.27 1041.95 1157.79 1040.47C1161.31 1039 1162.98 1034.93 1161.5 1031.41C1160.03 1027.9 1155.96 1026.23 1152.44 1027.71Z" fill="#2D6691"/>
<path d="M975.296 1129.53L939.339 1073.87L927.722 1081.38L963.679 1137.03L975.296 1129.53Z" fill="#317FA0"/>
<path d="M861.145 1163.62C855.75 1155.24 858.175 1144.06 866.563 1138.67L959.482 1078.84L979.02 1109.22L886.101 1169.04C877.714 1174.44 866.54 1172.01 861.145 1163.62Z" fill="#317FA0"/>
<path d="M971.002 1138.01L1071.53 1063.57C1084.45 1054 1087.69 1036.03 1078.94 1022.55C1070.18 1009.07 1052.45 1004.73 1038.45 1012.64L929.767 1074.18L971.002 1138.01Z" fill="#5AF2F2"/>
<path d="M1063.94 1055.56C1054.91 1061.42 1042.8 1058.85 1036.94 1049.82C1031.08 1040.79 1033.66 1028.68 1042.68 1022.82C1051.71 1016.96 1063.82 1019.54 1069.68 1028.56C1075.54 1037.59 1072.97 1049.7 1063.94 1055.56ZM1047.16 1029.71C1041.93 1033.11 1040.44 1040.12 1043.83 1045.35C1047.23 1050.57 1054.24 1052.06 1059.47 1048.67C1064.69 1045.27 1066.18 1038.26 1062.79 1033.04C1059.39 1027.81 1052.38 1026.32 1047.16 1029.71Z" fill="#2D6691"/>
<path d="M984.905 1338.41C957.517 1355.67 921.322 1347.46 904.061 1320.07L825.715 1195.75C808.455 1168.37 816.665 1132.17 844.053 1114.91C871.441 1097.65 907.636 1105.86 924.896 1133.25L1003.24 1257.56C1020.5 1284.95 1012.29 1321.15 984.905 1338.41Z" fill="#5AF2F2"/>
<path d="M857.015 1135.48C842.596 1144.57 838.275 1163.62 847.362 1178.04C856.449 1192.46 875.505 1196.79 889.925 1187.7C904.347 1178.61 908.667 1159.55 899.58 1145.13C890.492 1130.71 871.436 1126.39 857.015 1135.48ZM883.309 1177.2C874.687 1182.64 863.292 1180.05 857.857 1171.43C852.422 1162.8 855.007 1151.41 863.629 1145.97C872.253 1140.54 883.648 1143.12 889.083 1151.75C894.518 1160.37 891.933 1171.77 883.309 1177.2Z" fill="#2D6691"/>
<path d="M937.087 1264.33C922.668 1273.42 918.347 1292.48 927.434 1306.89C936.521 1321.31 955.577 1325.64 969.996 1316.55C984.418 1307.46 988.738 1288.41 979.651 1273.99C970.564 1259.57 951.509 1255.24 937.087 1264.33ZM963.382 1306.06C954.76 1311.49 943.365 1308.9 937.93 1300.28C932.495 1291.66 935.08 1280.26 943.702 1274.83C952.326 1269.39 963.721 1271.98 969.156 1280.6C974.591 1289.22 972.006 1300.62 963.382 1306.06Z" fill="#2D6691"/>
<path d="M1021.13 1482.48C934.314 1482.48 852.697 1448.67 791.311 1387.28C729.925 1325.9 696.119 1244.28 696.119 1157.47C696.119 1070.66 729.926 989.039 791.311 927.653C852.697 866.267 934.314 832.46 1021.13 832.46C1107.94 832.46 1189.56 866.267 1250.94 927.653C1312.33 989.039 1346.14 1070.66 1346.14 1157.47C1346.14 1244.28 1312.33 1325.9 1250.94 1387.28C1189.56 1448.67 1107.94 1482.48 1021.13 1482.48ZM1021.13 835.498C843.592 835.498 699.157 979.933 699.157 1157.47C699.157 1335 843.592 1479.44 1021.13 1479.44C1198.66 1479.44 1343.1 1335 1343.1 1157.47C1343.1 979.933 1198.66 835.498 1021.13 835.498Z" fill="#3E95AB"/>
<path d="M1369.52 1156.48C1369.51 1140.38 1368.4 1124.54 1366.27 1109.02L1385.06 1106.42C1382.77 1089.87 1379.32 1073.35 1374.8 1057.31L1356.6 1062.43C1352.29 1047.03 1346.93 1032.07 1340.63 1017.61L1357.91 1010.06C1351.24 994.786 1343.44 979.833 1334.72 965.597L1318.68 975.407C1310.4 961.821 1301.2 948.847 1291.18 936.58L1305.72 924.705C1295.17 911.798 1283.63 899.483 1271.43 888.115L1258.67 901.816C1247.06 890.993 1234.73 880.954 1221.72 871.785L1232.49 856.507C1218.85 846.879 1204.41 838.121 1189.6 830.463L1181.02 847.032C1166.99 839.756 1152.39 833.408 1137.32 828.082L1143.53 810.509C1127.79 804.935 1111.51 800.413 1095.14 797.057L1091.4 815.299C1076.02 812.134 1060.26 809.993 1044.21 808.941L1045.43 790.364C1028.85 789.265 1011.89 789.293 995.321 790.431L996.602 809.008C980.559 810.107 964.802 812.297 949.429 815.519L945.633 797.277C929.284 800.681 913.03 805.251 897.322 810.863L903.584 828.417C888.526 833.79 873.955 840.177 859.948 847.491L851.334 830.932C836.562 838.628 822.164 847.425 808.549 857.081L819.353 872.331C806.388 881.529 794.084 891.596 782.515 902.457L769.713 888.785C757.532 900.182 746.031 912.525 735.514 925.47L750.075 937.306C740.084 949.611 730.924 962.614 722.673 976.229L706.601 966.458C697.92 980.732 690.156 995.733 683.521 1011.03L700.826 1018.54C694.554 1033.02 689.248 1048.01 684.984 1063.44L666.751 1058.37C662.286 1074.42 658.882 1090.96 656.645 1107.51L675.451 1110.05C673.395 1125.33 672.344 1140.92 672.344 1156.75C672.344 1157 672.344 1157.26 672.354 1157.5L653.318 1157.52C653.337 1174.25 654.485 1191.07 656.741 1207.54L675.652 1204.95C677.841 1220.83 681.111 1236.37 685.376 1251.5L666.952 1256.67C671.455 1272.73 677.125 1288.63 683.798 1303.94L701.381 1296.27C707.768 1310.87 715.12 1324.93 723.362 1338.41L706.936 1348.43C715.617 1362.64 725.36 1376.41 735.906 1389.35L750.859 1377.15C760.889 1389.43 771.75 1401.02 783.338 1411.83L770.163 1425.95C782.363 1437.34 795.452 1447.99 809.066 1457.61L820.233 1441.8C833.15 1450.92 846.717 1459.17 860.848 1466.48L851.928 1483.7C866.757 1491.39 882.255 1498.12 897.983 1503.7L904.475 1485.4C919.304 1490.67 934.601 1494.94 950.281 1498.17L946.361 1517.19C962.662 1520.56 979.384 1522.82 996.059 1523.94L997.35 1504.54C1005.14 1505.07 1013 1505.34 1020.93 1505.34C1028.97 1505.34 1036.94 1505.07 1044.85 1504.52L1046.17 1523.91C1062.85 1522.79 1079.56 1520.5 1095.87 1517.12L1091.93 1498.1C1107.59 1494.86 1122.87 1490.57 1137.68 1485.3L1144.19 1503.59C1159.89 1497.99 1175.37 1491.25 1190.19 1483.56L1181.25 1466.35C1195.37 1459.03 1208.92 1450.77 1221.82 1441.65L1233.01 1457.46C1246.61 1447.84 1259.69 1437.18 1271.88 1425.79L1258.68 1411.67C1270.27 1400.85 1281.13 1389.26 1291.16 1376.96L1306.11 1389.14C1316.66 1376.2 1326.4 1362.41 1335.07 1348.18L1318.63 1338.17C1326.88 1324.68 1334.22 1310.6 1340.6 1295.98L1358.19 1303.63C1364.85 1288.31 1370.51 1272.39 1375.01 1256.31L1356.57 1251.16C1360.83 1236.03 1364.08 1220.49 1366.26 1204.6L1385.16 1207.17C1387.4 1190.72 1388.54 1173.89 1388.54 1157.16V1156.48H1369.52V1156.48ZM1340.11 1246.56C1336 1261.2 1330.91 1275.42 1324.91 1289.16C1318.86 1303.05 1311.87 1316.45 1304.03 1329.28C1296.16 1342.18 1287.43 1354.51 1277.9 1366.17C1268.36 1377.87 1258.04 1388.91 1247 1399.19C1236 1409.47 1224.29 1419.01 1211.95 1427.71C1199.69 1436.38 1186.8 1444.24 1173.37 1451.19C1160.08 1458.1 1146.24 1464.13 1131.95 1469.2C1117.86 1474.21 1103.34 1478.29 1088.45 1481.37C1073.86 1484.39 1058.92 1486.46 1043.69 1487.48C1036.17 1488 1028.57 1488.25 1020.93 1488.25C1013.38 1488.25 1005.91 1488.01 998.486 1487.51C983.265 1486.49 968.322 1484.45 953.731 1481.44C938.826 1478.37 924.283 1474.31 910.181 1469.3C895.878 1464.24 882.034 1458.21 868.715 1451.32C855.272 1444.36 842.375 1436.51 830.089 1427.84C817.746 1419.14 806.024 1409.61 795 1399.34C783.967 1389.07 773.641 1378.05 764.089 1366.35C754.576 1354.71 745.828 1342.39 737.949 1329.5C730.109 1316.69 723.12 1303.31 717.059 1289.44C711.045 1275.71 705.949 1261.5 701.828 1246.88C697.774 1232.5 694.667 1217.72 692.573 1202.62C690.537 1187.87 689.466 1172.8 689.437 1157.5C689.427 1157.25 689.427 1157 689.427 1156.75C689.427 1141.69 690.431 1126.86 692.381 1112.34C694.399 1097.22 697.448 1082.42 701.435 1068.02C705.498 1053.36 710.547 1039.1 716.503 1025.33C722.517 1011.4 729.468 997.971 737.279 985.111C745.119 972.156 753.829 959.794 763.332 948.082C772.855 936.332 783.161 925.26 794.185 914.925C805.19 904.599 816.902 895.019 829.235 886.261C841.511 877.542 854.409 869.644 867.842 862.646C881.16 855.686 895.014 849.624 909.327 844.509C923.429 839.461 937.981 835.35 952.906 832.242C967.534 829.192 982.506 827.098 997.775 826.056C1005.42 825.521 1013.14 825.253 1020.92 825.253C1028.37 825.253 1035.76 825.502 1043.08 825.98C1058.35 826.993 1073.34 829.03 1087.96 832.032C1102.91 835.101 1117.49 839.184 1131.62 844.184C1145.95 849.261 1159.83 855.294 1173.17 862.216C1186.64 869.176 1199.57 877.055 1211.87 885.745C1224.24 894.464 1235.99 904.026 1247.02 914.323C1258.06 924.63 1268.41 935.672 1277.95 947.394C1287.48 959.068 1296.22 971.411 1304.1 984.328C1311.93 997.159 1318.91 1010.55 1324.96 1024.46C1330.95 1038.19 1336.04 1052.43 1340.14 1067.07C1344.18 1081.46 1347.27 1096.25 1349.33 1111.36C1351.36 1126.12 1352.41 1141.18 1352.42 1156.48V1156.75C1352.42 1172.2 1351.36 1187.41 1349.31 1202.3C1347.24 1217.4 1344.15 1232.18 1340.11 1246.56Z" fill="#3E95AB"/>
<path d="M1021.13 1461.05C996.416 1461.05 971.834 1458.08 948.064 1452.2L952.724 1433.34C974.971 1438.84 997.985 1441.63 1021.13 1441.63C1029.91 1441.63 1038.78 1441.22 1047.48 1440.42L1049.26 1459.77C1039.97 1460.62 1030.5 1461.05 1021.13 1461.05ZM1059.4 1458.66L1056.97 1439.39C1088.71 1435.4 1119.29 1426.14 1147.88 1411.87L1156.56 1429.25C1126 1444.5 1093.31 1454.4 1059.4 1458.66ZM938.205 1449.59C905.391 1440.29 874.56 1425.59 846.568 1405.88L857.751 1390C883.948 1408.44 912.799 1422.2 943.501 1430.9L938.205 1449.59ZM1165.58 1424.55L1156.33 1407.47C1184.39 1392.26 1209.56 1372.55 1231.14 1348.9L1245.49 1361.99C1222.44 1387.25 1195.56 1408.3 1165.58 1424.55ZM838.323 1399.87C811.065 1379.28 787.619 1354.45 768.636 1326.08L784.782 1315.28C802.555 1341.84 824.509 1365.09 850.032 1384.36L838.323 1399.87ZM1252.23 1354.34L1237.45 1341.73C1258.25 1317.34 1274.64 1289.9 1286.17 1260.15L1304.28 1267.18C1291.96 1298.96 1274.45 1328.28 1252.23 1354.34ZM763.116 1317.53C745.055 1288.47 732.148 1256.85 724.754 1223.54L743.719 1219.33C750.637 1250.49 762.714 1280.08 779.615 1307.27L763.116 1317.53ZM1307.82 1257.58L1289.48 1251.17C1299.97 1221.13 1305.29 1189.6 1305.29 1157.47L1305.29 1156.84H1324.71L1324.71 1157.42C1324.71 1191.79 1319.03 1225.47 1307.82 1257.58ZM722.712 1213.54C719.281 1195.18 717.542 1176.31 717.542 1157.47C717.542 1142.27 718.676 1127 720.913 1112.08L740.124 1114.96C738.03 1128.93 736.968 1143.23 736.968 1157.47C736.968 1175.12 738.596 1192.78 741.808 1209.98L722.712 1213.54ZM1305.11 1147.31C1303.98 1115.25 1297.54 1083.95 1285.97 1054.26L1304.07 1047.21C1316.44 1078.93 1323.32 1112.38 1324.52 1146.63L1305.11 1147.31ZM741.699 1105.55L722.595 1102.02C728.794 1068.44 740.56 1036.37 757.567 1006.7L774.421 1016.36C758.507 1044.12 747.498 1074.13 741.699 1105.55ZM1282.36 1045.46C1269.78 1016.15 1252.43 989.311 1230.8 965.678L1245.14 952.563C1268.24 977.806 1286.77 1006.48 1300.21 1037.8L1282.36 1045.46ZM779.314 1008.15L762.795 997.927C780.752 968.91 803.307 943.271 829.834 921.72L842.083 936.797C817.245 956.977 796.126 980.984 779.314 1008.15ZM1224.24 958.746C1201.84 935.849 1175.99 917.038 1147.4 902.836L1156.05 885.44C1186.58 900.612 1214.2 920.705 1238.13 945.16L1224.24 958.746ZM849.586 930.909L837.848 915.43C865.126 894.743 895.409 878.948 927.854 868.483L933.817 886.971C903.457 896.764 875.118 911.546 849.586 930.909ZM1138.77 898.725C1109.71 885.494 1078.81 877.33 1046.91 874.463L1048.65 855.115C1082.74 858.179 1115.76 866.904 1146.82 881.047L1138.77 898.725ZM942.948 884.196L937.614 865.516C964.65 857.796 992.748 853.882 1021.13 853.882C1026.9 853.882 1032.74 854.046 1038.48 854.37L1037.39 873.766C1032.01 873.463 1026.53 873.308 1021.13 873.308C994.553 873.309 968.249 876.972 942.948 884.196Z" fill="#80E1FA"/>
<path d="M1964.34 1493.27C1976.23 1478.44 1985.29 1461.61 1991.32 1443.16L2009.68 1448.75L2010.55 1445.9C2017.39 1423.61 2019.73 1400.46 2017.53 1377.08L2017.26 1374.31L2014.47 1374.38L1998.1 1375.89C1996.68 1363.29 1993.73 1350.84 1989.31 1338.83L1983.7 1340.9C1988.3 1353.36 1991.24 1366.32 1992.46 1379.42L1992.73 1382.39L2011.83 1380.6C2013.43 1401.19 2011.37 1421.58 2005.69 1441.29L1987.38 1435.72L1986.51 1438.57C1980.43 1458.35 1970.79 1476.25 1957.85 1491.76L1955.94 1494.06L1970.73 1506.32C1957.48 1521.88 1941.61 1534.85 1923.48 1544.92L1914.43 1527.97L1911.8 1529.38C1895.84 1537.89 1878.86 1543.44 1861.21 1545.94C1861.97 1547.81 1862.62 1549.74 1863.17 1551.68C1880.14 1549.15 1896.5 1543.91 1911.96 1536.02L1921.03 1553.02L1923.66 1551.61C1944.48 1540.51 1962.51 1525.78 1977.25 1507.83L1979.14 1505.53L1964.34 1493.27Z" fill="white"/>
<mask id="mask0_45_3" style="mask-type:luminance" maskUnits="userSpaceOnUse" x="0" y="0" width="2500" height="2500">
<path d="M2500 0H0V2500H2500V0Z" fill="white"/>
</mask>
<g mask="url(#mask0_45_3)">
<path d="M2497.89 2909.07C2491.43 2909.07 2484.94 2908.75 2478.57 2908.13L2467.61 2907.05L1792.98 2209.97L1790.96 2206.11C1783.45 2191.71 1782.92 2174.9 1789.32 2155.88C1788.3 2156.1 1787.33 2156.28 1786.42 2156.43C1776.06 2160.53 1767 2162.79 1758.91 2163.28L1753.72 2167.8L1735.88 2159.16C1728.13 2155.4 1719.23 2151.24 1708.69 2146.43C1696.06 2140.67 1682.45 2134.62 1668.05 2128.2C1631.51 2111.93 1590.09 2093.5 1550.84 2073.74L1540.95 2068.77L1536.67 2058.56C1536.15 2057.32 1535.67 2056.05 1535.22 2054.72C1533.95 2054.87 1532.68 2054.98 1531.42 2055.04L1525.5 2060.96L1505.65 2049.75C1456.27 2021.85 1422.16 1995.89 1401.39 1970.38C1390.47 1956.97 1383.03 1941.21 1379.88 1924.81C1377.84 1914.16 1377.72 1903.86 1379.47 1894.24L1373.35 1900.36L1376.47 1826.7L1375.78 1822.8L1376.79 1819.54C1378.67 1779.56 1382.98 1747.01 1383.17 1745.6L1383.4 1743.86L1383.83 1742.16C1383.89 1741.93 1384.02 1741.42 1384.23 1740.67C1364.66 1717.77 1345.88 1695.35 1328.28 1673.86L1322.99 1667.41L1322.89 1667.5L1315.32 1658.04L1309.75 1651.24L1309.82 1651.18L1303.43 1643.19C1271.23 1602.98 1243.08 1565.84 1219.77 1532.81L1204.08 1510.58L1204.38 1510.32C1173.83 1475.86 1151.81 1444.43 1138.93 1416.91C1125.6 1388.44 1121.54 1363.07 1126.87 1341.52C1132.61 1318.29 1148.88 1300.68 1172.69 1291.94L1173.52 1291.64L1174.36 1291.38C1177.25 1290.51 1180.24 1290.07 1183.27 1290.07C1197.56 1290.07 1207.11 1298.82 1221.5 1313.1C1231.04 1322.58 1243.54 1335.68 1259.37 1352.26C1275.18 1368.82 1294.85 1389.43 1316.53 1411.55L1317.57 1412.61L1317.6 1412.58L1328.43 1423.69L1338.9 1434.38L1338.87 1434.41C1366.14 1462.43 1396.74 1494.16 1432.33 1531.35L1439.71 1539.05L1439.73 1539.03L1447.94 1547.65L1452.49 1552.41C1457.86 1547.64 1463.79 1543.2 1470.25 1539.16C1489.46 1527.14 1511.61 1519.91 1531.71 1519.01C1532.96 1517.66 1534.31 1516.14 1535.47 1514.85C1549.58 1499.09 1575.84 1469.74 1621.65 1469.74C1623.35 1469.74 1625.08 1469.78 1626.79 1469.86C1628.63 1469.86 1635.02 1465.53 1638.83 1462.94C1650.59 1454.96 1668.35 1442.91 1694.1 1442.91C1706.5 1442.91 1719.16 1445.61 1732.82 1451.15L1733.54 1451.44L1734.24 1451.77C1737.41 1453.25 1812.38 1488.51 1864.35 1530.27L1867.44 1532.76L1869.78 1535.96C1872.38 1539.51 1874.95 1543.26 1877.44 1547.12C1926.29 1622.54 1956.52 1755.04 1980.81 1861.51C1983.12 1871.62 1985.37 1881.48 1987.57 1891.01C1990.77 1904.85 1993.47 1916.23 1995.95 1926.35C1999.68 1933.46 2002.43 1944.13 1998.69 1958.51C1997.71 1962.26 1996.33 1966.16 1994.53 1970.25C2006.45 1966.23 2017.24 1964.2 2026.84 1964.2C2041.9 1964.2 2052.33 1969.16 2058.8 1973.82L2851.18 2468.02L2854.8 2477.27C2864.56 2502.14 2860.8 2539.12 2843.65 2587.17C2828.4 2629.9 2803.62 2677.44 2773.88 2721.04C2738.16 2773.41 2696.93 2817.94 2654.66 2849.82C2602.52 2889.14 2549.79 2909.08 2497.93 2909.08C2497.91 2909.07 2497.9 2909.07 2497.89 2909.07Z" fill="#312A52"/>
<path d="M1406.59 1824.7C1406.59 1824.7 1410.93 1849.29 1458.48 1837.22C1506.04 1825.15 1528.02 1789.79 1517.76 1775.96C1507.5 1762.13 1418.6 1792.29 1406.59 1824.7Z" fill="#1DBFBF"/>
<path d="M1452.32 1873.73C1461.22 1868.03 1461.67 1852.84 1453.32 1839.79C1444.97 1826.75 1430.99 1820.79 1422.09 1826.49C1413.18 1832.19 1412.74 1847.38 1421.09 1860.42C1429.43 1873.47 1443.42 1879.43 1452.32 1873.73Z" fill="#52468A"/>
<path d="M1456.71 1804.14L1421.96 1826.5L1452.19 1873.74L1486.94 1851.38L1456.71 1804.14Z" fill="#52468A"/>
<path d="M1484.68 1852.9C1493.58 1847.21 1494.03 1832.01 1485.68 1818.97C1477.33 1805.92 1463.34 1799.97 1454.44 1805.66C1445.54 1811.36 1445.09 1826.56 1453.44 1839.6C1461.79 1852.65 1475.77 1858.6 1484.68 1852.9Z" fill="#312A52"/>
<path d="M1478.64 1843.47C1483.99 1840.05 1484.26 1830.93 1479.24 1823.09C1474.23 1815.25 1465.83 1811.68 1460.48 1815.1C1455.13 1818.52 1454.86 1827.65 1459.88 1835.48C1464.89 1843.32 1473.29 1846.9 1478.64 1843.47Z" fill="#52468A"/>
<path d="M1474.11 1826.31C1471.69 1822.53 1467.63 1820.8 1465.05 1822.45C1462.47 1824.1 1462.34 1828.51 1464.76 1832.29C1467.18 1836.07 1471.24 1837.79 1473.82 1836.14C1476.39 1834.49 1476.52 1830.09 1474.11 1826.31Z" fill="#312A52"/>
<path d="M1437.69 1816.38C1437.69 1816.38 1433.95 1829.76 1444.03 1844.15C1454.11 1858.55 1470.94 1861.68 1470.94 1861.68L1463.4 1866.53C1463.4 1866.53 1448.94 1868.06 1436.17 1848.7C1423.43 1829.37 1430.41 1821.06 1430.41 1821.06L1437.69 1816.38Z" fill="#312A52"/>
<path d="M1574.29 1905.91C1576.31 1910.06 1577.29 1914.89 1577.7 1920.03C1578.77 1933.38 1576.05 1948.96 1577.94 1960.78C1578.16 1962.15 1578.32 1963.52 1578.49 1964.9C1575.36 1976.76 1570.44 1987.95 1561.67 1997.12C1557.12 2001.86 1552.02 2006.09 1546.73 2009.98C1540.71 2014.4 1534.32 2018.39 1527.38 2021.31C1525.07 2022.26 1522.81 2023.06 1520.41 2023.62C1479.84 2000.71 1444.98 1976.39 1424.65 1951.43C1409.01 1932.23 1403.35 1905.69 1413.04 1887.99C1427.2 1857.54 1456.29 1842.98 1488.24 1837.79C1493.05 1837 1497.92 1836.43 1502.81 1836.05C1515.47 1839.49 1551.75 1877.21 1574.29 1905.91Z" fill="#53E6E6"/>
<path d="M1562.15 1800.27C1542.18 1784.3 1515.4 1779.32 1490.45 1782.7C1490.44 1782.69 1490.43 1782.7 1490.43 1782.7C1477.37 1784.47 1464.63 1788.34 1452.59 1793.77C1442.9 1798.12 1433.65 1803.47 1425.02 1809.54C1418.5 1814.13 1412.33 1819.19 1406.59 1824.69C1408.32 1783.84 1412.9 1749.57 1412.9 1749.57C1412.9 1749.57 1413.24 1748.27 1413.97 1745.97C1414.29 1744.93 1414.7 1743.68 1415.21 1742.25C1416.08 1739.78 1417.2 1736.79 1418.66 1733.43C1418.77 1733.14 1418.9 1732.83 1419.04 1732.53C1422.25 1725.05 1426.86 1715.84 1433.15 1706.47C1449.82 1681.7 1478.34 1655.8 1524.24 1657.68C1585.34 1660.19 1574.1 1748.43 1562.15 1800.27Z" fill="#53E6E6"/>
<path d="M1433.15 1706.48L1490.45 1782.7C1490.44 1782.69 1490.43 1782.7 1490.43 1782.7C1477.37 1784.47 1464.63 1788.34 1452.59 1793.77C1450.54 1784.54 1440.08 1744.1 1413.97 1745.97C1414.29 1744.94 1414.7 1743.68 1415.21 1742.26C1416.08 1739.79 1417.2 1736.8 1418.66 1733.43C1418.77 1733.14 1418.9 1732.83 1419.04 1732.53C1422.25 1725.05 1426.86 1715.84 1433.15 1706.48Z" fill="#1DBFBF"/>
<path d="M1520.41 2023.62C1520.41 2023.62 1495.89 2009.51 1501.61 1986.93C1507.32 1964.35 1545.94 1902.03 1574.08 1905.67C1586.91 1922.11 1581.85 1950.43 1573.81 1980.05C1565.78 2009.68 1540.01 2031.06 1520.41 2023.62Z" fill="#1DBFBF"/>
<path d="M1574.29 1905.91C1576.31 1910.06 1577.29 1914.89 1577.7 1920.03C1564.56 1923.51 1544.68 1926.9 1546.56 1915.07C1549.31 1897.79 1489.92 1839.44 1488.24 1837.79C1493.04 1837 1497.92 1836.43 1502.81 1836.05C1515.47 1839.49 1551.75 1877.21 1574.29 1905.91Z" fill="#1DBFBF"/>
<path d="M1582.69 2015.01C1588.85 2002.82 1579.36 1985.62 1561.49 1976.59C1543.62 1967.57 1524.15 1970.14 1517.99 1982.33C1511.83 1994.53 1521.32 2011.73 1539.19 2020.75C1557.06 2029.77 1576.54 2027.21 1582.69 2015.01Z" fill="#52468A"/>
<path d="M1542.03 1934.68L1518.06 1982.4L1582.77 2015.08L1606.73 1967.36L1542.03 1934.68Z" fill="#52468A"/>
<path d="M1605 1970.58C1611.16 1958.39 1601.67 1941.19 1583.8 1932.16C1565.94 1923.14 1546.46 1925.71 1540.3 1937.9C1534.14 1950.09 1543.63 1967.29 1561.5 1976.32C1579.37 1985.34 1598.85 1982.77 1605 1970.58Z" fill="#312A52"/>
<path d="M1592.08 1964.05C1595.78 1956.73 1590.08 1946.4 1579.35 1940.98C1568.62 1935.56 1556.92 1937.1 1553.22 1944.42C1549.52 1951.75 1555.22 1962.08 1565.95 1967.5C1576.69 1972.92 1588.38 1971.37 1592.08 1964.05Z" fill="#52468A"/>
<path d="M1575.95 1947.9C1570.77 1945.28 1565.13 1946.03 1563.34 1949.56C1561.56 1953.1 1564.31 1958.08 1569.49 1960.7C1574.67 1963.31 1580.31 1962.57 1582.1 1959.03C1583.88 1955.5 1581.13 1950.51 1575.95 1947.9Z" fill="#312A52"/>
<path d="M1528.9 1960.81C1528.9 1960.81 1533.55 1978.15 1554.23 1987.53C1574.91 1996.92 1595.69 1989.33 1595.69 1989.33L1590.49 1999.69C1590.49 1999.69 1575.41 2010.91 1548.47 1997.76C1521.58 1984.63 1523.88 1970.8 1523.88 1970.8L1528.9 1960.81Z" fill="#312A52"/>
<path d="M1301.8 1482.66C1309.3 1475.74 1307.16 1461.22 1297.02 1450.23C1286.88 1439.24 1272.59 1435.94 1265.09 1442.86C1257.59 1449.78 1259.72 1464.3 1269.86 1475.29C1280 1486.28 1294.3 1489.58 1301.8 1482.66Z" fill="#52468A"/>
<path d="M1235.67 1469.8L1265.05 1442.81L1301.76 1482.61L1272.38 1509.59L1235.67 1469.8Z" fill="#52468A"/>
<path d="M1274.44 1507.79C1281.94 1500.87 1279.8 1486.35 1269.66 1475.36C1259.52 1464.37 1245.22 1461.07 1237.72 1467.99C1230.22 1474.91 1232.36 1489.43 1242.5 1500.42C1252.64 1511.41 1266.94 1514.71 1274.44 1507.79Z" fill="#312A52"/>
<path d="M1247.88 1495.36C1241.79 1488.76 1240.51 1480.04 1245.01 1475.88C1249.52 1471.73 1258.11 1473.71 1264.2 1480.31C1270.29 1486.91 1271.57 1495.63 1267.07 1499.79C1262.56 1503.94 1253.97 1501.96 1247.88 1495.36Z" fill="#52468A"/>
<path d="M1252.11 1491.47C1249.17 1488.28 1248.55 1484.07 1250.72 1482.07C1252.89 1480.06 1257.04 1481.02 1259.98 1484.2C1262.91 1487.39 1263.54 1491.6 1261.36 1493.6C1259.19 1495.61 1255.04 1494.65 1252.11 1491.47Z" fill="#312A52"/>
<path d="M1251.75 1455.03C1251.75 1455.03 1265.16 1454.81 1276.14 1467.75C1287.11 1480.69 1285.91 1497.17 1285.91 1497.17L1292.29 1491.31C1292.29 1491.31 1297.26 1478.19 1282.3 1461.52C1267.37 1444.89 1257.9 1449.38 1257.9 1449.38L1251.75 1455.03Z" fill="#312A52"/>
<path d="M1415.27 1614.09C1422.77 1607.17 1420.63 1592.65 1410.49 1581.66C1400.35 1570.67 1386.05 1567.37 1378.55 1574.29C1371.05 1581.21 1373.19 1595.73 1383.33 1606.72C1393.47 1617.71 1407.77 1621.01 1415.27 1614.09Z" fill="#52468A"/>
<path d="M1349.12 1601.22L1378.51 1574.24L1415.22 1614.04L1385.84 1641.02L1349.12 1601.22Z" fill="#52468A"/>
<path d="M1355.92 1631.79C1345.78 1620.8 1343.64 1606.28 1351.14 1599.36C1358.64 1592.44 1372.94 1595.74 1383.08 1606.73C1393.22 1617.72 1395.36 1632.24 1387.86 1639.16C1380.36 1646.08 1366.06 1642.78 1355.92 1631.79Z" fill="#312A52"/>
<path d="M1361.34 1626.79C1355.25 1620.18 1353.97 1611.46 1358.47 1607.31C1362.98 1603.15 1371.57 1605.13 1377.66 1611.74C1383.75 1618.34 1385.03 1627.06 1380.53 1631.21C1376.02 1635.37 1367.43 1633.39 1361.34 1626.79Z" fill="#52468A"/>
<path d="M1365.57 1622.89C1362.63 1619.71 1362.01 1615.5 1364.18 1613.49C1366.35 1611.49 1370.5 1612.44 1373.44 1615.63C1376.37 1618.81 1377 1623.02 1374.82 1625.03C1372.65 1627.03 1368.5 1626.08 1365.57 1622.89Z" fill="#312A52"/>
<path d="M1365.21 1586.45C1365.21 1586.45 1378.62 1586.24 1389.59 1599.17C1400.57 1612.11 1399.37 1628.6 1399.37 1628.6L1405.75 1622.74C1405.75 1622.74 1410.72 1609.61 1395.76 1592.94C1380.83 1576.31 1371.36 1580.8 1371.36 1580.8L1365.21 1586.45Z" fill="#312A52"/>
<path d="M1810.88 2006.03C1822.31 2026.6 1826.55 2048.26 1820.23 2070.63L1748.96 2132.16C1740.42 2128.02 1731.08 2123.67 1721.13 2119.13C1675.98 2098.54 1618.13 2074.02 1564.33 2046.94C1554.79 2024.2 1565.1 1954.39 1584.95 1938.93C1575.27 1921.75 1562.05 1903.28 1545.59 1882.46C1531.18 1864.24 1514.29 1844.22 1495.09 1821.72C1510.41 1821.11 1540.78 1836.16 1554.93 1838.37C1620.31 1865.21 1767.46 1927.82 1810.88 2006.03Z" fill="#53E6E6"/>
<path d="M1845.56 1553.65C1847.82 1556.75 1850.05 1559.99 1852.24 1563.38C1902.72 1641.33 1933.54 1790.43 1958.34 1897.75C1962 1913.6 1965.54 1928.54 1968.98 1942.21L1754.38 2127.48C1746.6 2118.61 1738.57 2109.42 1730.34 2099.95C1674.3 2035.48 1608.76 1957.84 1545.59 1882.46C1525.86 1858.95 1506.39 1835.64 1487.5 1813.02C1480.24 1804.35 1473.08 1795.77 1466.03 1787.33C1446.17 1763.55 1427.16 1740.79 1409.47 1719.62C1409.47 1719.62 1368.45 1663.95 1438.4 1613.72C1442.45 1610.8 1446.87 1607.9 1451.71 1605.04C1452.46 1602.65 1453.39 1600.3 1454.5 1598.01C1460.81 1584.69 1472.51 1573.13 1486.17 1564.58C1502.98 1554.06 1522.79 1548.09 1539.3 1548.99C1554.87 1550.19 1571.71 1497.28 1625.37 1499.82C1655.99 1501.28 1668 1457.2 1721.53 1478.94C1721.53 1478.94 1795.81 1513.67 1845.56 1553.65Z" fill="#53E6E6"/>
<path d="M1295.11 1432.55L1227.37 1491.03C1165.91 1421.85 1149.23 1376.08 1156 1348.71C1159.55 1334.33 1169.59 1325.03 1183.02 1320.1C1187.95 1318.61 1230.91 1367.05 1295.11 1432.55Z" fill="#53E6E6"/>
<path d="M1622.81 1776.15L1525.56 1854.85C1525.56 1854.85 1510.92 1839.12 1487.5 1813.02C1454.28 1776 1403.36 1718.15 1351.49 1654.84L1437.71 1580.4C1443.33 1586.31 1448.93 1592.18 1454.49 1598.01C1460.13 1603.93 1465.71 1609.8 1471.24 1615.61C1554.45 1703.16 1622.81 1776.15 1622.81 1776.15Z" fill="#53E6E6"/>
<path d="M1410.67 1552.09L1326.85 1624.44C1297.81 1588.17 1269.3 1550.95 1244.28 1515.51L1315.83 1453.74C1345.96 1484.68 1378.46 1518.44 1410.67 1552.09Z" fill="#53E6E6"/>
<path d="M1878.77 2058.99C1939.98 2006.14 1980.11 1952.31 1968.41 1938.75C1956.7 1925.19 1897.59 1957.04 1836.37 2009.89C1775.16 2062.75 1735.03 2116.58 1746.73 2130.14C1758.44 2143.7 1817.55 2111.85 1878.77 2058.99Z" fill="#1DBFBF"/>
<path d="M1959.58 1964.61C1967.76 1974.09 1932.74 2017.73 1881.36 2062.08C1829.98 2106.44 1781.69 2134.72 1773.51 2125.24C1773.16 2124.84 1772.9 2124.37 1772.71 2123.85C1772.03 2122.03 1772.28 2119.48 1773.36 2116.34C1774.97 2111.66 1778.41 2105.63 1783.41 2098.64C1796.82 2079.83 1821.43 2053.93 1851.73 2027.77C1882.03 2001.61 1911.25 1981.04 1931.81 1970.51C1939.47 1966.59 1945.93 1964.07 1950.79 1963.16C1954.06 1962.55 1956.62 1962.67 1958.32 1963.61C1958.81 1963.88 1959.23 1964.21 1959.58 1964.61Z" fill="#312A52"/>
<path d="M1950.64 1954.26L1958.54 1963.42L1958.32 1963.61C1956.62 1962.67 1954.06 1962.55 1950.79 1963.17C1945.93 1964.07 1939.47 1966.59 1931.81 1970.52C1911.25 1981.04 1882.03 2001.61 1851.73 2027.77C1821.43 2053.93 1796.82 2079.83 1783.41 2098.64C1778.41 2105.64 1774.97 2111.66 1773.36 2116.34C1772.28 2119.48 1772.03 2122.04 1772.71 2123.85L1772.48 2124.05L1764.58 2114.89C1756.4 2105.42 1791.42 2061.78 1842.8 2017.42C1894.18 1973.06 1942.46 1944.79 1950.64 1954.26Z" fill="#52468A"/>
<path d="M1966.64 2108.79C1984.16 2094.62 1981.53 2062.33 1960.77 2036.67C1940.01 2011 1908.98 2001.68 1891.46 2015.85C1873.95 2030.01 1876.58 2062.31 1897.34 2087.97C1918.1 2113.64 1949.13 2122.96 1966.64 2108.79Z" fill="#52468A"/>
<path d="M1822.86 2070.94L1891.45 2015.71L1966.63 2108.65L1898.04 2163.88L1822.86 2070.94Z" fill="#52468A"/>
<path d="M1902.75 2160.21C1920.27 2146.04 1917.64 2113.75 1896.88 2088.09C1876.12 2062.42 1845.09 2053.1 1827.57 2067.27C1810.06 2081.44 1812.69 2113.73 1833.45 2139.39C1854.21 2165.06 1885.24 2174.38 1902.75 2160.21Z" fill="#312A52"/>
<path d="M1887.74 2141.65C1898.26 2133.14 1896.68 2113.74 1884.21 2098.33C1871.74 2082.91 1853.11 2077.31 1842.59 2085.82C1832.07 2094.33 1833.65 2113.73 1846.12 2129.14C1858.59 2144.56 1877.22 2150.16 1887.74 2141.65Z" fill="#52468A"/>
<path d="M1876.06 2127.2C1881.14 2123.1 1880.37 2113.74 1874.36 2106.3C1868.34 2098.86 1859.35 2096.16 1854.27 2100.27C1849.2 2104.37 1849.96 2113.73 1855.97 2121.17C1861.99 2128.61 1870.98 2131.31 1876.06 2127.2Z" fill="#312A52"/>
<path d="M1860.41 2040.7C1860.41 2040.7 1889.98 2042.16 1912.3 2072.23C1934.63 2102.31 1929.62 2138.45 1929.62 2138.45L1944.52 2126.46C1944.52 2126.46 1957.35 2098.25 1926.79 2059.39C1896.28 2020.61 1874.78 2029.14 1874.78 2029.14L1860.41 2040.7Z" fill="#312A52"/>
<path d="M2041.86 1998.61C1998.97 1964.5 1789.06 2137.57 1817.56 2192.24L1902.48 2279.98L2481.5 2878.27C2677.51 2897.54 2856.47 2563.69 2826.87 2488.22L2041.86 1998.61Z" fill="#42D6D6"/>
<path d="M1852.24 1563.38C1902.72 1641.33 1933.54 1790.43 1958.34 1897.75C1922.73 1919.88 1862.67 1959.65 1810.88 2006.02C1777.85 2035.61 1748.18 2067.87 1730.34 2099.95C1726.77 2106.36 1723.68 2112.76 1721.13 2119.13C1675.98 2098.54 1618.13 2074.02 1564.33 2046.94C1554.79 2024.2 1565.1 1954.38 1584.95 1938.93C1575.27 1921.75 1562.05 1903.28 1545.59 1882.46C1518.31 1849.92 1491.47 1817.79 1466.03 1787.33C1488.48 1779.29 1765.16 1678.59 1852.24 1563.38Z" fill="#4ED9D9"/>
<path d="M1371.33 1586.04C1355.97 1550.19 1306.36 1507.73 1278.57 1485.91L1315.83 1453.74C1345.96 1484.68 1378.46 1518.44 1410.67 1552.08L1371.33 1586.04Z" fill="#4ED9D9"/>
<path d="M1295.11 1432.55L1259.6 1463.21C1255.35 1461.66 1251.51 1457.44 1248.36 1449.62C1234.01 1413.9 1184.4 1371.12 1156 1348.71C1159.55 1334.33 1169.59 1325.03 1183.03 1320.1C1187.95 1318.61 1230.91 1367.05 1295.11 1432.55Z" fill="#4ED9D9"/>
<path d="M1486.17 1564.58C1481.72 1577.44 1475.32 1597.21 1471.23 1615.61C1468.42 1628.27 1466.71 1640.28 1467.48 1648.95C1460.28 1638.99 1448.46 1625.14 1438.4 1613.72C1430.68 1604.95 1423.99 1597.64 1421.23 1594.63L1437.71 1580.4C1443.33 1586.31 1448.93 1592.18 1454.49 1598.01C1460.81 1584.69 1472.51 1573.14 1486.17 1564.58Z" fill="#4ED9D9"/>
<path d="M1872.59 2179.18C1872.59 2179.18 1890.14 2148.91 1922.35 2127.82C1961.25 2163.14 2469.93 2592.76 2469.93 2592.76L2391.29 2669.06L1872.59 2179.18Z" fill="#53E6E6"/>
<path d="M1504.93 1579.09C1508.37 1583.08 1504.48 1592.08 1496.24 1599.2C1487.99 1606.31 1478.52 1608.85 1475.08 1604.86C1471.63 1600.87 1475.53 1591.87 1483.77 1584.76C1492.01 1577.64 1501.48 1575.11 1504.93 1579.09Z" fill="#71FCFC"/>
<path d="M1515.47 1576.71C1518.91 1580.7 1515.02 1589.7 1506.78 1596.82C1498.54 1603.93 1489.07 1606.47 1485.62 1602.48C1482.18 1598.49 1486.07 1589.49 1494.31 1582.37C1502.56 1575.26 1512.03 1572.72 1515.47 1576.71Z" fill="#71FCFC"/>
<path d="M1589.15 1549.09C1597.39 1541.98 1601.28 1532.98 1597.84 1528.99C1594.39 1525 1584.92 1527.54 1576.68 1534.65C1568.44 1541.77 1564.55 1550.77 1567.99 1554.76C1571.43 1558.74 1580.91 1556.21 1589.15 1549.09Z" fill="#71FCFC"/>
<path d="M1681.72 1510.34C1689.96 1503.23 1693.85 1494.23 1690.41 1490.24C1686.96 1486.25 1677.49 1488.79 1669.25 1495.9C1661.01 1503.02 1657.12 1512.02 1660.56 1516.01C1664 1519.99 1673.48 1517.46 1681.72 1510.34Z" fill="#71FCFC"/>
<path d="M1619.45 1836.27L1714.9 1951.27C1722.1 1959.96 1734.72 1961.76 1744.07 1955.43L1890.11 1856.67C1898.44 1851.03 1901.87 1840.46 1898.44 1831.01L1850.99 1700.34C1846.31 1687.43 1831.05 1681.95 1819.23 1688.93L1625.19 1803.36C1613.55 1810.22 1610.82 1825.87 1619.45 1836.27Z" fill="#53E6E6"/>
<path d="M1731.76 1960.23C1725.16 1960.23 1718.65 1957.37 1714.13 1951.91L1618.68 1836.91C1614.38 1831.73 1612.58 1824.95 1613.74 1818.32C1614.89 1811.69 1618.88 1805.92 1624.68 1802.5L1818.72 1688.07C1824.61 1684.59 1831.69 1683.93 1838.13 1686.24C1844.57 1688.55 1849.6 1693.57 1851.93 1700L1899.38 1830.67C1902.97 1840.56 1899.39 1851.6 1890.67 1857.5L1744.63 1956.26C1740.68 1958.93 1736.2 1960.23 1731.76 1960.23ZM1620.22 1835.63L1715.66 1950.63C1722.58 1958.96 1734.55 1960.67 1743.51 1954.61L1889.55 1855.84C1897.51 1850.45 1900.78 1840.38 1897.5 1831.35L1850.05 1700.68C1847.92 1694.81 1843.33 1690.23 1837.45 1688.12C1831.57 1686.01 1825.12 1686.62 1819.73 1689.79L1625.7 1804.22C1620.41 1807.34 1616.76 1812.61 1615.71 1818.66C1614.65 1824.72 1616.3 1830.9 1620.22 1835.63Z" fill="#389999"/>
<path d="M1693.21 1798.74C1693.21 1800.62 1691.69 1802.15 1689.81 1802.15C1687.93 1802.15 1686.41 1800.62 1686.41 1798.74C1686.41 1796.86 1687.93 1795.34 1689.81 1795.34C1691.69 1795.34 1693.21 1796.86 1693.21 1798.74Z" fill="#389999"/>
<path d="M1817.47 1727.26C1817.47 1729.14 1815.94 1730.66 1814.06 1730.66C1812.18 1730.66 1810.66 1729.14 1810.66 1727.26C1810.66 1725.38 1812.18 1723.85 1814.06 1723.85C1815.94 1723.85 1817.47 1725.38 1817.47 1727.26Z" fill="#389999"/>
</g>
</g>
<defs>
<clipPath id="clip0_45_3">
<rect width="2500" height="2500" fill="white"/>
</clipPath>
</defs>
</svg>
