<svg width="500" height="500" viewBox="0 0 500 500" fill="none" xmlns="http://www.w3.org/2000/svg">
<g clip-path="url(#clip0_70_4)">
<path d="M500 0H0V500H500V0Z" fill="#BCE5F5"/>
<g opacity="0.7">
<path d="M90.863 174.455C90.315 177.207 87.64 178.994 84.887 178.446C82.135 177.898 80.348 175.223 80.896 172.471C80.93 172.298 80.997 172.141 81.047 171.976C79.036 171.915 77.052 172.05 75.116 172.371C75.196 172.541 75.288 172.702 75.35 172.884C76.252 175.542 74.828 178.427 72.171 179.328C69.514 180.23 66.628 178.806 65.727 176.149C65.666 175.971 65.643 175.79 65.603 175.611C63.845 176.554 62.182 177.666 60.639 178.928C60.805 179.042 60.977 179.143 61.132 179.279C63.242 181.13 63.451 184.34 61.601 186.45C59.75 188.56 56.54 188.77 54.43 186.919C54.272 186.781 54.147 186.621 54.01 186.469C52.959 188.155 52.065 189.958 51.347 191.864C51.569 191.878 51.791 191.884 52.015 191.928C54.767 192.476 56.554 195.151 56.006 197.904C55.458 200.656 52.783 202.443 50.03 201.896C49.801 201.85 49.589 201.769 49.373 201.695C49.3 203.749 49.434 205.776 49.759 207.753C49.98 207.639 50.2 207.524 50.443 207.442C53.101 206.54 55.986 207.964 56.887 210.621C57.789 213.279 56.365 216.164 53.708 217.065C53.464 217.148 53.218 217.19 52.973 217.235C53.935 219.037 55.073 220.741 56.37 222.319C56.512 222.093 56.658 221.868 56.839 221.661C58.69 219.551 61.9 219.341 64.01 221.192C66.119 223.043 66.33 226.253 64.479 228.363C64.298 228.569 64.096 228.741 63.892 228.911C65.614 229.982 67.457 230.891 69.408 231.615C69.417 231.338 69.433 231.06 69.489 230.779C70.037 228.027 72.712 226.24 75.465 226.788C78.217 227.336 80.004 230.011 79.457 232.764C79.403 233.033 79.314 233.284 79.222 233.533C81.3 233.598 83.35 233.451 85.348 233.108C85.219 232.866 85.094 232.619 85.003 232.35C84.101 229.693 85.525 226.807 88.182 225.906C90.84 225.004 93.725 226.428 94.626 229.085C94.711 229.335 94.756 229.588 94.8 229.84C96.596 228.867 98.29 227.716 99.86 226.41C99.641 226.271 99.423 226.131 99.222 225.955C97.112 224.104 96.903 220.894 98.753 218.784C100.604 216.674 103.814 216.464 105.924 218.315C106.109 218.477 106.26 218.661 106.416 218.843C107.463 217.134 108.351 215.306 109.058 213.375C108.819 213.362 108.58 213.354 108.339 213.306C105.587 212.758 103.8 210.083 104.348 207.33C104.896 204.578 107.571 202.791 110.324 203.339C110.536 203.381 110.731 203.458 110.932 203.525C110.985 201.49 110.836 199.483 110.498 197.526C110.305 197.62 110.119 197.723 109.911 197.794C107.253 198.696 104.368 197.272 103.467 194.615C102.565 191.957 103.989 189.072 106.646 188.171C106.83 188.109 107.015 188.084 107.2 188.043C106.246 186.292 105.125 184.638 103.853 183.102C103.743 183.261 103.646 183.426 103.516 183.575C101.665 185.685 98.455 185.895 96.345 184.044C94.235 182.193 94.026 178.983 95.876 176.873C95.996 176.736 96.136 176.63 96.267 176.509C94.595 175.482 92.806 174.609 90.92 173.907C90.899 174.088 90.899 174.27 90.863 174.455ZM100.473 206.803C98.24 218.019 87.338 225.301 76.122 223.069C64.906 220.836 57.624 209.934 59.856 198.718C62.089 187.502 72.991 180.219 84.207 182.452C95.424 184.684 102.706 195.587 100.473 206.803Z" fill="url(#paint0_linear_70_4)"/>
</g>
<path d="M229.5 358.5C317.313 358.5 388.5 287.313 388.5 199.5C388.5 111.687 317.313 40.5 229.5 40.5C141.687 40.5 70.5 111.687 70.5 199.5C70.5 287.313 141.687 358.5 229.5 358.5Z" fill="url(#paint1_linear_70_4)"/>
<g opacity="0.56">
<mask id="mask0_70_4" style="mask-type:luminance" maskUnits="userSpaceOnUse" x="70" y="40" width="319" height="319">
<path d="M229.5 358.5C317.313 358.5 388.5 287.313 388.5 199.5C388.5 111.687 317.313 40.5 229.5 40.5C141.687 40.5 70.5 111.687 70.5 199.5C70.5 287.313 141.687 358.5 229.5 358.5Z" fill="white"/>
</mask>
<g mask="url(#mask0_70_4)">
<path opacity="0.61" d="M152.156 197.309C156.327 197.895 160.046 200.15 163.993 201.618C168.457 203.279 173.263 203.946 177.628 205.852C181.993 207.758 186.084 211.378 186.605 216.112C186.842 218.261 186.346 220.573 187.316 222.505C188.986 225.83 193.57 225.886 197.274 226.25C201.276 226.643 205.185 227.956 208.613 230.059C210.194 231.029 211.786 232.338 212.117 234.163C212.566 236.642 210.571 238.795 209.331 240.988C207.244 244.678 207.197 249.121 206.528 253.307C205.859 257.493 204.122 262.03 200.245 263.746C198.475 264.529 196.442 264.623 194.731 265.529C189.406 268.348 190.326 276.626 186.214 281.029C183.7 283.722 179.142 285.369 179.204 289.053C179.219 289.977 179.562 290.916 179.31 291.805C178.948 293.085 177.557 293.711 176.418 294.399C171.757 297.216 169.879 303.063 169.468 308.493C169.057 313.923 169.728 319.465 168.508 324.773C168.32 325.593 168.015 326.493 167.263 326.869C166.291 327.355 165.143 326.704 164.331 325.982C161.012 323.032 159.365 318.663 158.122 314.4C155.163 304.248 153.813 293.63 154.137 283.061C154.339 276.459 155.16 269.638 152.948 263.415C148.075 249.708 129.934 242.706 128.381 228.241C128.248 227.008 128.255 225.731 128.675 224.563C129.4 222.547 131.221 221.16 132.471 219.42C134.478 216.625 134.931 213.052 135.78 209.717C137.483 203.015 144.82 196.279 152.156 197.309Z" fill="#4E7B99"/>
</g>
<mask id="mask1_70_4" style="mask-type:luminance" maskUnits="userSpaceOnUse" x="70" y="40" width="319" height="319">
<path d="M229.5 358.5C317.313 358.5 388.5 287.313 388.5 199.5C388.5 111.687 317.313 40.5 229.5 40.5C141.687 40.5 70.5 111.687 70.5 199.5C70.5 287.313 141.687 358.5 229.5 358.5Z" fill="white"/>
</mask>
<g mask="url(#mask1_70_4)">
<path opacity="0.61" d="M164.409 137.458C157.221 143.332 150.488 149.763 144.291 156.674C142.259 158.94 140.236 161.299 137.615 162.845C134.993 164.391 131.596 164.995 128.909 163.565C127.723 162.933 126.748 161.951 125.545 161.353C123.674 160.422 121.479 160.516 119.394 160.641C115.803 160.857 111.997 161.179 109.096 163.307C105.539 165.916 104.198 170.973 105.532 175.177C106.866 179.381 110.569 182.62 114.79 183.901C115.761 184.196 116.83 184.439 117.488 185.213C118.216 186.07 118.229 187.341 118.852 188.278C120.206 190.315 123.607 189.827 125.188 191.693C126.464 193.199 125.969 195.491 126.581 197.368C128.033 201.816 135.043 202.645 136.106 207.201C129.197 206.464 122.652 202.772 118.448 197.239C117.473 195.955 116.611 194.571 115.458 193.444C112.588 190.641 108.386 189.833 104.475 188.937C98.389 187.541 91.779 185.105 89.045 179.491C87.526 176.372 87.465 172.715 86.051 169.547C84.897 166.961 82.915 164.855 81.187 162.611C71.99 150.66 70.04 133.952 74.708 119.612C79.376 105.272 90.128 93.3379 103.109 85.6619C107.616 82.9969 113.565 80.8719 117.817 83.9259C119.778 85.3349 120.945 87.6009 122.747 89.2079C125.952 92.0649 130.715 92.4339 134.937 91.6569C139.16 90.8799 143.148 89.1289 147.351 88.2479C152.038 87.2659 156.953 87.3959 161.581 88.6259C162.458 88.8589 163.391 89.1769 163.907 89.9239C165.094 91.6419 163.211 93.8489 161.362 94.8189C158.073 96.5439 154.347 97.2489 150.944 98.7359C147.541 100.222 144.255 102.85 143.601 106.506C143.463 107.278 143.47 108.141 143.949 108.763C144.877 109.967 146.837 109.525 148.151 110.29C150.609 111.721 149.15 115.81 150.834 118.103C152.068 119.783 154.68 119.875 156.506 118.871C158.333 117.867 159.559 116.067 160.716 114.333C162.517 111.633 164.318 108.933 166.119 106.232C168.432 102.764 172.421 98.8239 176.07 100.838C178.93 102.417 178.984 106.436 178.662 109.687C186.536 108.581 195.99 108.066 200.9 114.319C197.312 116.132 193.725 117.946 190.137 119.759C187.96 120.86 185.748 121.972 183.352 122.433C179.649 123.146 175.758 122.252 172.084 123.104C171.195 123.31 170.165 123.827 170.146 124.74C170.133 125.36 170.618 125.874 171.123 126.234C172.911 127.51 175.238 127.748 177.184 128.772C178.816 129.631 179.737 131.045 179.589 132.73C173.395 133.326 169.716 133.121 164.409 137.458Z" fill="#4E7B99"/>
</g>
<mask id="mask2_70_4" style="mask-type:luminance" maskUnits="userSpaceOnUse" x="70" y="40" width="319" height="319">
<path d="M229.5 358.5C317.313 358.5 388.5 287.313 388.5 199.5C388.5 111.687 317.313 40.5 229.5 40.5C141.687 40.5 70.5 111.687 70.5 199.5C70.5 287.313 141.687 358.5 229.5 358.5Z" fill="white"/>
</mask>
<g mask="url(#mask2_70_4)">
<path opacity="0.61" d="M347.418 224.081C343.592 231.683 346.77 240.881 345.504 249.296C345.32 250.516 345.016 251.776 344.21 252.71C343.082 254.018 341.174 254.456 340.073 255.787C338.731 257.409 338.997 259.762 338.716 261.849C338.203 265.663 335.713 268.876 333.313 271.885C329.004 277.288 324.628 282.756 319.073 286.868C316.483 288.785 313.544 290.424 310.334 290.701C307.124 290.978 303.613 289.615 302.101 286.769C300.179 283.153 301.953 278.642 301.02 274.655C300.362 271.846 298.424 269.54 297.104 266.974C291.813 256.69 296.986 244.296 296.4 232.746C295.954 223.967 292.141 215.758 288.396 207.805C287.873 206.695 287.247 205.486 286.1 205.052C284.582 204.478 282.983 205.518 281.628 206.411C275.288 210.585 267.271 212.479 259.909 210.633C252.546 208.787 246.11 202.897 244.485 195.483C243.164 189.454 244.984 183.148 247.698 177.605C252.359 168.087 259.742 159.922 268.743 154.329C274.461 150.776 281.447 148.213 287.873 150.217C296.231 152.824 301.349 162.401 309.98 163.87C310.008 162.119 310.036 160.369 310.064 158.618C314.313 156.208 319.41 159.236 324.077 160.681C327.175 161.64 330.747 161.815 333.476 160.064C336.205 158.313 337.47 154.17 335.393 151.68C333.243 149.103 329.274 149.591 325.92 149.487C322.566 149.383 318.373 147.044 319.337 143.829C320.316 140.561 324.978 140.969 328.333 141.587C332.618 142.377 337.052 142.345 341.325 141.492C341.492 135.774 336.283 130.466 330.563 130.525C329.932 131.192 329.301 131.859 328.67 132.526C329.116 130.443 327.85 128.128 325.855 127.381C323.86 126.633 321.384 127.546 320.352 129.409C319.684 130.615 319.606 132.045 319.382 133.405C318.519 138.643 313.973 143.907 308.752 142.946C305.276 142.306 302.87 139.254 300.327 136.8C297.784 134.345 293.962 132.255 290.862 133.952C289.671 134.604 288.776 135.744 287.519 136.259C286.053 136.86 284.389 136.502 282.812 136.645C279.151 136.977 276.294 139.957 274.341 143.07C272.387 146.183 270.917 149.681 268.266 152.227C265.615 154.774 261.208 156.058 258.27 153.85C254.409 150.949 256.057 144.434 259.796 141.376C263.535 138.318 268.519 137.335 272.79 135.08C273.515 134.697 274.281 134.201 274.497 133.411C275.058 131.361 271.879 130.56 270.558 128.894C269.391 127.422 269.869 125.137 271.133 123.746C272.397 122.356 274.233 121.656 276.014 121.056C282.273 118.948 288.748 117.485 295.305 116.695C298.814 116.272 302.4 116.03 305.695 114.752C308.99 113.474 312.028 110.927 312.837 107.487C310.871 108.622 308.525 106.29 308.235 104.039C307.945 101.787 308.715 99.4671 308.225 97.2501C305.307 96.6851 303.033 99.8391 302.28 102.714C301.527 105.589 301.29 108.895 299.062 110.863C296.911 112.763 293.71 112.676 290.847 112.481C288.764 112.339 286.599 112.174 284.79 111.132C282.981 110.09 281.654 107.892 282.304 105.908C282.65 104.851 283.477 104.032 284.284 103.267C291.668 96.2681 300.077 89.8891 309.92 87.3161C313.297 86.4331 316.963 86.0341 320.221 87.2901C323.478 88.5461 326.141 91.8401 325.723 95.3061C325.658 95.8461 325.523 96.3981 325.654 96.9261C326.033 98.4581 328.177 98.6331 329.678 98.1451C334.289 96.6441 337.453 92.3381 341.859 90.3121C348.47 87.2721 356.226 89.9511 362.746 93.1791C374.741 99.1171 386.318 107.522 391.751 119.754C394.945 126.947 395.801 134.998 398.925 142.221C401.139 147.34 404.513 153.063 402.02 158.052C400.322 161.45 396.273 163.32 394.949 166.881C394.435 168.262 394.371 169.821 393.59 171.071C391.817 173.909 387.64 173.605 384.392 172.798C375.325 170.543 366.563 167.066 358.417 162.491C357.846 162.17 357.242 161.834 356.587 161.846C355.232 161.869 354.326 163.47 354.59 164.8C354.854 166.13 355.925 167.151 357.056 167.897C364.12 172.559 375.454 170.387 379.867 177.609C376.178 182.856 371.356 187.303 365.828 190.556C362.223 192.677 357.619 194.274 353.979 192.214C351.994 191.091 350.702 189.081 349.486 187.152C346.358 182.186 343.211 177.232 340.046 172.289C339.136 170.867 337.556 169.242 336.058 170.021C334.551 170.805 334.991 173.048 335.648 174.615C337.666 179.422 339.685 184.229 341.703 189.035C343.816 194.066 346.744 197.25 352.214 198.391C356.248 199.232 360.747 197.825 362.495 202.589C365.806 211.622 350.787 217.389 347.418 224.081Z" fill="#4E7B99"/>
</g>
<mask id="mask3_70_4" style="mask-type:luminance" maskUnits="userSpaceOnUse" x="70" y="40" width="319" height="319">
<path d="M229.5 358.5C317.313 358.5 388.5 287.313 388.5 199.5C388.5 111.687 317.313 40.5 229.5 40.5C141.687 40.5 70.5 111.687 70.5 199.5C70.5 287.313 141.687 358.5 229.5 358.5Z" fill="white"/>
</mask>
<g mask="url(#mask3_70_4)">
<path opacity="0.61" d="M354.164 254.083C349.645 257.337 348.944 263.698 348.926 269.267C348.923 270.242 348.977 271.335 349.688 272.002C351.004 273.236 353.093 271.984 354.416 270.757C355.867 269.411 357.385 267.955 357.878 266.039C358.407 263.981 357.793 261.851 358.511 259.809C359.136 258.032 360.878 256.946 361.61 255.294C362.605 253.049 363.035 250.091 362.083 247.718C359.249 240.657 357.791 251.472 354.164 254.083Z" fill="#4E7B99"/>
</g>
<mask id="mask4_70_4" style="mask-type:luminance" maskUnits="userSpaceOnUse" x="70" y="40" width="319" height="319">
<path d="M229.5 358.5C317.313 358.5 388.5 287.313 388.5 199.5C388.5 111.687 317.313 40.5 229.5 40.5C141.687 40.5 70.5 111.687 70.5 199.5C70.5 287.313 141.687 358.5 229.5 358.5Z" fill="white"/>
</mask>
<g mask="url(#mask4_70_4)">
<path opacity="0.61" d="M180.772 69.4541C179.101 70.2881 177.426 71.3911 176.664 73.0971C175.902 74.8031 176.483 77.2071 178.247 77.8211C178.945 78.0641 179.706 78.0021 180.443 77.9471C190.635 77.1901 200.97 78.4201 210.699 81.5481C212.499 82.1271 214.607 83.1981 214.636 85.0891C214.649 85.9261 214.217 86.7051 213.72 87.3791C210.779 91.3771 205.274 93.2451 203.232 97.7691C201.67 101.23 202.834 105.706 205.884 107.968C208.935 110.229 213.556 110.042 216.413 107.541C218.153 106.018 219.183 103.86 220.615 102.046C226.773 94.2411 238.683 94.2241 246.801 88.4851C252.039 84.7821 255.364 78.8731 257.263 72.7451C257.639 71.5331 257.929 70.0951 257.151 69.0911C256.566 68.3361 255.55 68.0791 254.604 67.9511C247.54 66.9951 240.837 70.3961 233.909 71.0811C228.135 71.6521 222.267 70.7821 216.661 69.4201C204.97 66.5771 192.128 63.7891 180.772 69.4541Z" fill="#4E7B99"/>
</g>
</g>
<g opacity="0.7">
<path d="M415.596 141.149C412.837 140.637 411.015 137.986 411.526 135.227C412.038 132.468 414.689 130.646 417.448 131.157C417.622 131.189 417.779 131.253 417.945 131.302C417.98 129.291 417.818 127.309 417.472 125.377C417.303 125.459 417.143 125.553 416.962 125.618C414.317 126.555 411.413 125.169 410.476 122.524C409.539 119.879 410.924 116.975 413.57 116.038C413.747 115.975 413.928 115.949 414.106 115.907C413.14 114.162 412.006 112.514 410.723 110.987C410.611 111.155 410.512 111.327 410.378 111.484C408.555 113.618 405.348 113.87 403.214 112.047C401.08 110.224 400.828 107.017 402.651 104.883C402.787 104.724 402.945 104.596 403.096 104.457C401.397 103.429 399.582 102.558 397.666 101.865C397.655 102.087 397.652 102.309 397.61 102.534C397.098 105.293 394.447 107.115 391.688 106.604C388.929 106.093 387.106 103.441 387.618 100.682C387.661 100.452 387.739 100.239 387.81 100.023C385.755 99.9771 383.73 100.138 381.758 100.489C381.875 100.708 381.993 100.927 382.078 101.169C383.015 103.815 381.629 106.718 378.984 107.655C376.339 108.592 373.435 107.206 372.498 104.561C372.412 104.318 372.366 104.073 372.319 103.828C370.53 104.813 368.841 105.974 367.28 107.292C367.508 107.431 367.734 107.574 367.944 107.752C370.078 109.575 370.33 112.782 368.507 114.916C366.685 117.05 363.477 117.302 361.343 115.479C361.135 115.301 360.96 115.101 360.788 114.899C359.74 116.635 358.855 118.49 358.157 120.45C358.434 120.455 358.713 120.467 358.994 120.519C361.753 121.031 363.575 123.682 363.064 126.442C362.552 129.201 359.901 131.023 357.142 130.512C356.872 130.462 356.62 130.376 356.37 130.287C356.332 132.366 356.507 134.414 356.875 136.407C357.116 136.274 357.361 136.147 357.628 136.052C360.273 135.115 363.177 136.501 364.114 139.146C365.051 141.791 363.665 144.695 361.02 145.632C360.771 145.72 360.519 145.768 360.268 145.816C361.264 147.599 362.438 149.277 363.765 150.83C363.901 150.609 364.038 150.389 364.212 150.186C366.035 148.052 369.242 147.8 371.376 149.623C373.51 151.446 373.762 154.653 371.939 156.787C371.779 156.974 371.597 157.128 371.418 157.286C373.14 158.31 374.98 159.174 376.92 159.856C376.93 159.617 376.935 159.378 376.98 159.136C377.492 156.377 380.143 154.555 382.902 155.066C385.661 155.578 387.483 158.229 386.972 160.988C386.933 161.201 386.858 161.397 386.794 161.598C388.83 161.624 390.834 161.449 392.787 161.085C392.69 160.894 392.585 160.709 392.512 160.501C391.575 157.856 392.961 154.952 395.606 154.015C398.251 153.078 401.155 154.464 402.092 157.109C402.157 157.292 402.184 157.477 402.227 157.661C403.965 156.684 405.605 155.541 407.124 154.249C406.964 154.141 406.797 154.047 406.647 153.918C404.513 152.095 404.261 148.888 406.084 146.754C407.907 144.62 411.114 144.368 413.248 146.191C413.386 146.309 413.495 146.448 413.617 146.577C414.622 144.891 415.471 143.092 416.148 141.196C415.964 141.181 415.781 141.184 415.596 141.149ZM383.378 151.186C372.134 149.101 364.708 138.296 366.793 127.051C368.878 115.806 379.683 108.381 390.928 110.466C402.173 112.551 409.598 123.356 407.513 134.601C405.428 145.845 394.623 153.27 383.378 151.186Z" fill="url(#paint2_linear_70_4)"/>
</g>
<g opacity="0.7">
<path d="M345.596 339.149C342.837 338.637 341.015 335.986 341.526 333.227C342.038 330.468 344.689 328.646 347.448 329.157C347.622 329.189 347.779 329.253 347.945 329.302C347.98 327.291 347.818 325.309 347.472 323.377C347.303 323.459 347.143 323.553 346.962 323.618C344.317 324.555 341.413 323.169 340.476 320.524C339.539 317.879 340.924 314.975 343.57 314.038C343.747 313.975 343.928 313.949 344.106 313.907C343.14 312.162 342.006 310.514 340.723 308.987C340.611 309.155 340.512 309.328 340.378 309.484C338.555 311.618 335.348 311.87 333.214 310.047C331.08 308.224 330.828 305.017 332.651 302.883C332.787 302.724 332.945 302.596 333.096 302.457C331.397 301.429 329.582 300.558 327.666 299.865C327.655 300.087 327.652 300.309 327.61 300.534C327.098 303.293 324.447 305.115 321.688 304.604C318.929 304.092 317.106 301.441 317.618 298.682C317.661 298.452 317.739 298.239 317.81 298.023C315.755 297.977 313.73 298.138 311.758 298.489C311.875 298.709 311.993 298.927 312.078 299.169C313.015 301.815 311.629 304.718 308.984 305.655C306.339 306.592 303.435 305.206 302.498 302.561C302.412 302.319 302.366 302.073 302.319 301.828C300.53 302.813 298.841 303.974 297.28 305.292C297.508 305.431 297.734 305.574 297.944 305.752C300.078 307.575 300.33 310.782 298.507 312.916C296.685 315.05 293.477 315.302 291.343 313.479C291.135 313.301 290.96 313.101 290.788 312.899C289.74 314.635 288.855 316.49 288.157 318.45C288.434 318.455 288.713 318.467 288.994 318.519C291.753 319.031 293.575 321.682 293.064 324.442C292.552 327.201 289.901 329.023 287.142 328.512C286.872 328.462 286.62 328.376 286.37 328.287C286.332 330.366 286.507 332.414 286.875 334.407C287.116 334.274 287.361 334.146 287.628 334.052C290.273 333.115 293.177 334.501 294.114 337.146C295.05 339.791 293.665 342.695 291.02 343.632C290.771 343.72 290.519 343.768 290.268 343.816C291.264 345.599 292.438 347.277 293.765 348.83C293.901 348.61 294.038 348.389 294.212 348.186C296.035 346.052 299.242 345.8 301.376 347.623C303.51 349.446 303.762 352.653 301.939 354.787C301.779 354.974 301.597 355.128 301.418 355.286C303.14 356.31 304.98 357.174 306.92 357.856C306.93 357.617 306.935 357.378 306.98 357.136C307.492 354.377 310.143 352.554 312.902 353.066C315.661 353.578 317.483 356.229 316.972 358.988C316.933 359.201 316.858 359.397 316.794 359.598C318.83 359.624 320.834 359.449 322.787 359.085C322.69 358.894 322.585 358.709 322.512 358.501C321.575 355.856 322.961 352.952 325.606 352.015C328.251 351.078 331.155 352.464 332.092 355.109C332.157 355.292 332.184 355.477 332.227 355.661C333.965 354.684 335.605 353.541 337.124 352.249C336.964 352.141 336.797 352.047 336.647 351.918C334.513 350.095 334.261 346.888 336.084 344.754C337.907 342.62 341.114 342.368 343.248 344.191C343.386 344.309 343.495 344.448 343.617 344.577C344.622 342.891 345.471 341.092 346.148 339.196C345.964 339.181 345.781 339.184 345.596 339.149ZM313.378 349.186C302.134 347.101 294.708 336.296 296.793 325.051C298.878 313.806 309.683 306.381 320.928 308.466C332.173 310.551 339.598 321.356 337.513 332.601C335.428 343.845 324.623 351.27 313.378 349.186Z" fill="url(#paint3_linear_70_4)"/>
</g>
<path d="M306.249 60.227C311.295 56.451 317.559 54.215 324.346 54.215C341.044 54.215 354.581 67.751 354.581 84.45C354.581 89.172 353.497 93.64 351.567 97.621C352.939 99.263 354.276 100.935 355.582 102.632C355.642 102.514 355.696 102.394 355.763 102.277C357.812 98.728 362.349 97.513 365.898 99.562C366.128 99.695 366.321 99.865 366.531 100.018C367.525 97.33 368.265 94.521 368.732 91.619C368.464 91.648 368.203 91.7 367.928 91.7C363.831 91.7 360.509 88.378 360.509 84.281C360.509 80.183 363.831 76.862 367.928 76.862C368.186 76.862 368.429 76.912 368.68 76.938C368.194 74.041 367.435 71.238 366.423 68.558C366.202 68.72 365.998 68.899 365.755 69.039C362.207 71.088 357.669 69.872 355.62 66.323C353.571 62.775 354.787 58.237 358.336 56.188C358.574 56.051 358.826 55.965 359.071 55.857C357.219 53.609 355.154 51.544 352.905 49.694C352.789 49.964 352.693 50.239 352.542 50.5C350.493 54.049 345.956 55.264 342.407 53.216C338.858 51.167 337.643 46.63 339.691 43.081C339.844 42.816 340.037 42.59 340.216 42.352C337.503 41.328 334.665 40.561 331.731 40.076C331.774 40.398 331.829 40.717 331.829 41.051C331.829 45.149 328.507 48.47 324.41 48.47C320.313 48.47 316.991 45.148 316.991 41.051C316.991 40.709 317.047 40.383 317.091 40.054C314.129 40.535 311.264 41.304 308.526 42.334C308.752 42.618 308.98 42.9 309.167 43.224C311.216 46.773 310 51.31 306.451 53.359C302.902 55.408 298.365 54.192 296.316 50.643C296.128 50.318 295.997 49.977 295.863 49.638C294.492 50.762 293.198 51.975 291.969 53.251C296.862 55.341 301.625 57.674 306.249 60.227Z" fill="url(#paint4_linear_70_4)"/>
<path opacity="0.1" d="M304 441C311.732 441 318 438.985 318 436.5C318 434.015 311.732 432 304 432C296.268 432 290 434.015 290 436.5C290 438.985 296.268 441 304 441Z" fill="#110809"/>
<path opacity="0.14" d="M230.524 365H126.476C125.109 365 124 363.892 124 362.524V361.476C124 360.109 125.108 359 126.476 359H230.524C231.891 359 233 360.108 233 361.476V362.524C233 363.892 231.891 365 230.524 365Z" fill="#110809"/>
<path opacity="0.1" d="M172.5 429H38.5C35.462 429 33 426.538 33 423.5C33 420.462 35.462 418 38.5 418H172.5C175.538 418 178 420.462 178 423.5C178 426.538 175.538 429 172.5 429Z" fill="#110809"/>
<path opacity="0.1" d="M280.5 393H159.5C156.462 393 154 390.538 154 387.5C154 384.462 156.462 382 159.5 382H280.5C283.538 382 286 384.462 286 387.5C286 390.538 283.538 393 280.5 393Z" fill="#110809"/>
<path opacity="0.1" d="M448.94 429H335.06C333.922 429 333 428.078 333 426.94V424.085C333 422.947 333.922 422.025 335.06 422.025H448.94C450.078 422.025 451 422.947 451 424.085V426.94C451 428.078 450.078 429 448.94 429Z" fill="#110809"/>
<path opacity="0.1" d="M153.5 383H107.5C106.119 383 105 381.881 105 380.5C105 379.119 106.119 378 107.5 378H153.5C154.881 378 156 379.119 156 380.5C156 381.881 154.881 383 153.5 383Z" fill="#110809"/>
<path d="M233 360H203V124.066C203 119.611 206.611 116 211.066 116H224.933C229.388 116 232.999 119.611 232.999 124.066V360H233Z" fill="#DE9C40"/>
<path d="M228 360H198V124.066C198 119.611 201.611 116 206.066 116H219.933C224.388 116 227.999 119.611 227.999 124.066V360H228Z" fill="#FFC370"/>
<path d="M192.783 360H177.217C173.784 360 171 357.217 171 353.783V113.958C171 110.115 174.115 107 177.958 107H192.042C195.885 107 199 110.115 199 113.958V353.783C199 357.217 196.217 360 192.783 360Z" fill="#FF9191"/>
<path d="M163.295 360H133.705C129.45 360 126 356.55 126 352.295V144.355C126 134.77 133.77 127 143.355 127H153.644C163.229 127 170.999 134.77 170.999 144.355V352.295C171 356.55 167.55 360 163.295 360Z" fill="#2D6F87"/>
<path opacity="0.54" d="M152.045 294H144.455C143.513 294 142.75 293.237 142.75 292.295V184.705C142.75 183.764 143.513 183 144.455 183H152.045C152.986 183 153.75 183.763 153.75 184.705V292.295C153.75 293.237 152.987 294 152.045 294Z" fill="#FF9191"/>
<path opacity="0.54" d="M159.25 162H137.25V145.958C137.25 142.668 139.917 140 143.208 140H153.292C156.582 140 159.25 142.667 159.25 145.958V162Z" fill="#FF9191"/>
<path opacity="0.54" d="M188.295 242H180.705C179.764 242 179 241.237 179 240.295V132.705C179 131.764 179.763 131 180.705 131H188.295C189.236 131 190 131.763 190 132.705V240.295C190 241.237 189.237 242 188.295 242Z" fill="#FF9191"/>
<path opacity="0.54" d="M214.295 245H206.705C205.764 245 205 244.237 205 243.295V135.705C205 134.764 205.763 134 206.705 134H214.295C215.236 134 216 134.763 216 135.705V243.295C216 244.237 215.237 245 214.295 245Z" fill="#FF9191"/>
<path d="M457.398 262.399H222.297C219.925 262.399 218.002 260.476 218.002 258.104V120.768C218.002 117.957 220.281 115.678 223.092 115.678H456.601C459.412 115.678 461.691 117.957 461.691 120.768V258.105C461.692 260.476 459.77 262.399 457.398 262.399Z" fill="#111314"/>
<path d="M456.432 254.063H223.263C223.161 254.063 223.079 253.981 223.079 253.879V126.028C223.079 123.115 225.44 120.754 228.353 120.754H451.341C454.254 120.754 456.615 123.115 456.615 126.028V253.879C456.615 253.98 456.533 254.063 456.432 254.063Z" fill="white"/>
<path d="M258.217 174.502C262.32 174.502 265.646 171.176 265.646 167.073C265.646 162.97 262.32 159.644 258.217 159.644C254.114 159.644 250.788 162.97 250.788 167.073C250.788 171.176 254.114 174.502 258.217 174.502Z" fill="#FFC370"/>
<path d="M252.21 166.243L258.135 171.428L266.753 159.643" stroke="#1959A8" stroke-width="2" stroke-miterlimit="10"/>
<path d="M379.508 161.079H287.835V169.732H379.508V161.079Z" fill="#79B4C9"/>
<path d="M379.508 175.332H287.835V183.985H379.508V175.332Z" fill="#79B4C9"/>
<path d="M379.508 189.586H287.835V205.366H379.508V189.586Z" fill="#79B4C9"/>
<path d="M379.508 210.967H287.835V219.62H379.508V210.967Z" fill="#79B4C9"/>
<path d="M379.508 225.22H287.835V241H379.508V225.22Z" fill="#79B4C9"/>
<path d="M273 210.967H245.835V219.62H273V210.967Z" fill="#79B4C9"/>
<path d="M273 225.22H245.835V241H273V225.22Z" fill="#79B4C9"/>
<path d="M258.217 196C262.32 196 265.646 192.674 265.646 188.571C265.646 184.468 262.32 181.142 258.217 181.142C254.114 181.142 250.788 184.468 250.788 188.571C250.788 192.674 254.114 196 258.217 196Z" fill="#FF9191"/>
<path d="M252.21 187.74L258.135 192.926L266.753 181.141" stroke="#1959A8" stroke-width="2" stroke-miterlimit="10"/>
<path d="M426.589 160H399.301V173.502H426.589V160Z" fill="#79B4C9"/>
<path d="M426.589 176.874H399.301V190.376H426.589V176.874Z" fill="#FFC370"/>
<path d="M426.589 210.624H399.301V224.126H426.589V210.624Z" fill="#FFC370"/>
<path d="M423.475 241H399.301V227.498H426.589V237.886C426.589 239.606 425.195 241 423.475 241Z" fill="#FF9191"/>
<path d="M426.589 193.749H399.301V207.251H426.589V193.749Z" fill="#79B4C9"/>
<path d="M444 133H246V138H444V133Z" fill="#FF9191"/>
<path d="M336 142H246V147H336V142Z" fill="#FF9191"/>
<path d="M131.054 246.614C131.648 245.895 132.242 245.176 132.836 244.456C134.393 242.571 135.949 240.686 137.506 238.801C138.404 237.714 139.332 236.612 140.013 235.371C140.613 234.278 140.788 233.01 140.975 231.784C141.365 229.232 141.755 226.679 142.145 224.127C142.454 222.102 143.441 219.227 142.81 217.21C142.677 216.786 142.402 216.424 142.19 216.034C141.045 213.921 141.714 210.989 142.111 208.732C142.237 208.014 142.61 204.291 143.659 204.238C144.279 204.207 144.304 205 144.238 205.437C144.053 206.664 143.322 207.875 144.061 209.058C144.297 209.437 144.727 209.729 145.17 209.673C145.357 209.649 145.543 209.566 145.728 209.605C146.13 209.688 146.23 210.252 146.591 210.448C146.972 210.656 147.441 210.611 147.759 210.925C148.148 211.309 148.152 212.047 148.222 212.559C148.425 214.035 148.394 215.543 148.129 217.009C147.968 217.901 147.72 218.781 147.665 219.686C147.627 220.313 147.682 220.942 147.744 221.567C148.37 227.903 149.536 234.466 146.892 240.512C145.782 243.05 144.218 245.368 142.505 247.545C140.107 250.591 137.375 253.412 134.159 255.576C133.752 255.849 133.309 256.121 132.819 256.126C132.451 256.13 132.099 255.98 131.777 255.8C130.675 255.184 129.781 254.134 129.298 252.972C128.853 251.901 128.255 250.774 128.678 249.607C128.997 248.729 129.965 247.934 130.559 247.215C130.723 247.015 130.888 246.815 131.054 246.614Z" fill="#E0AC9B"/>
<path d="M131.966 372.058C132.008 370.209 132.05 368.36 132.092 366.511C132.141 364.336 131.914 362.096 132.528 359.979C132.951 358.521 133.826 357.129 135.167 356.42C136.134 355.908 137.28 355.788 138.361 355.958C139.006 356.059 139.685 356.296 140.045 356.84C140.824 358.014 140.348 360.325 140.18 361.625C139.95 363.405 139.556 365.16 139.316 366.939C139.162 368.477 139.018 370.019 138.847 371.554C138.685 373.007 138.803 374.418 138.872 375.884C138.884 376.138 138.895 376.401 138.808 376.641C138.688 376.975 138.397 377.217 138.102 377.413C137.307 377.942 136.38 378.271 135.429 378.36C134.657 378.433 133.835 378.335 133.201 377.889C132.59 377.458 132.223 376.747 132.058 376.017C131.893 375.288 131.909 374.531 131.926 373.783C131.94 373.207 131.953 372.633 131.966 372.058Z" fill="#E0AC9B"/>
<path d="M135.902 372.627C136.648 372.142 137.375 371.803 138.338 372.039C139.376 372.293 140.171 373.097 141.011 373.758C143.233 375.508 145.778 375.801 148.352 376.719C149.1 376.986 150.243 377.131 150.649 377.909C152.085 380.657 142.926 379.933 141.841 379.892C138.926 379.783 136.01 379.675 133.095 379.566C132.741 379.553 132.34 379.52 132.122 379.277C131.996 379.137 131.959 378.953 131.928 378.777C131.663 377.268 130.7 374.093 132.87 373.693C133.871 373.508 134.715 373.433 135.578 372.843C135.688 372.769 135.795 372.696 135.902 372.627Z" fill="#111314"/>
<path d="M118.627 253.793C118.856 250.61 120.892 248.591 123.386 247.132C124.483 247.029 125.569 246.836 126.641 246.517C128.585 245.938 130.226 244.773 132.038 243.99C132.396 244.192 132.701 244.631 133.282 245.358C135 247.505 136.711 249.658 138.423 251.811C139.52 253.19 140.14 253.391 138.725 254.647C137.701 255.557 136.678 256.467 135.654 257.377C134.526 258.38 133.355 259.446 132.859 260.871C132.577 261.682 132.536 262.554 132.517 263.411C132.48 265.11 132.522 266.81 132.642 268.504C132.7 269.32 133.009 271.155 132.381 271.83C131.777 272.48 130.443 271.847 129.689 271.55C127.636 270.743 125.938 269.278 124.427 267.705C122.343 265.536 120.58 263.965 119.646 261.137C118.859 258.755 118.449 256.266 118.627 253.793Z" fill="white"/>
<path d="M123.223 287.79C124.698 286.277 126.639 285.408 129.094 285.756C131.054 286.034 132.757 287.331 133.931 288.924C135.106 290.517 135.821 292.396 136.472 294.265C140.501 305.828 142.673 318.005 143.396 330.214C144.09 341.932 142.678 353.437 141.974 365.092C137.971 365.105 133.967 365.014 129.969 364.819C130.317 362.316 130.046 359.929 130.073 357.435C130.098 355.081 130.16 352.702 130.1 350.328C129.968 345.163 129.669 340 129.078 334.866C127.757 323.399 123.74 312.847 120.501 301.802C119.106 297.049 119.525 291.584 123.223 287.79Z" fill="#FFC370"/>
<path d="M113.1 365.894C112.707 367.772 112.452 369.678 112.336 371.593C112.282 372.481 112.552 373.734 111.915 374.39C111.319 375.003 110.107 374.942 109.344 374.832C106.706 374.452 104.755 372.953 104.833 370.182C104.922 367.032 105.607 363.899 106.841 361C107.276 359.979 107.798 358.96 108.632 358.227C110.639 356.463 113.478 357.729 113.914 360.269C114.165 361.735 113.729 363.218 113.378 364.663C113.279 365.071 113.186 365.482 113.1 365.894Z" fill="#E0AC9B"/>
<path d="M104.225 369.704C104.403 369.222 104.597 368.753 104.8 368.301C104.855 368.179 112.489 369.522 113.192 369.67C112.843 371.251 113.866 372.736 114.959 373.821C115.485 374.342 116.05 374.823 116.659 375.245C117.328 375.709 118.048 376.099 118.802 376.407C119.736 376.788 122.565 377.691 122.126 379.19C121.934 379.844 121.024 380.135 120.248 380.095C117.612 379.96 114.895 379.746 112.448 378.74C110.552 377.961 108.541 377.393 106.481 377.055C104.881 376.793 103.157 377.027 103.156 375.052C103.156 373.276 103.593 371.413 104.225 369.704Z" fill="#111314"/>
<path d="M103.557 364.624C104.935 356.168 106.354 347.73 107.861 339.291C109.254 331.49 110.417 323.678 110.065 315.738C109.702 307.553 107.787 299.411 108.611 291.194C108.902 288.293 111.907 286.095 114.513 285.087C117.368 283.982 120.754 283.828 123.661 284.831C125.95 285.621 127.357 287.747 127.636 290.11C127.965 292.91 127.685 296.071 127.753 298.944C127.925 306.166 127.523 313.386 127.123 320.594C126.972 323.314 126.82 326.039 126.403 328.731C125.873 332.149 124.918 335.487 123.872 338.784C121.959 344.816 119.735 350.745 117.513 356.67C116.256 360.022 114.94 363.352 113.91 366.772C110.419 366.217 106.938 365.639 103.557 364.624Z" fill="#DE9C40"/>
<path d="M135.819 292.198C135.575 293.209 135.055 294.156 134.051 295.119C132.377 296.723 130.147 297.694 127.947 298.332C124.042 299.464 119.845 299.842 115.902 298.85C114.279 298.441 112.691 297.792 111.388 296.741C109.841 295.494 107.793 292.978 107.453 290.957C107.079 288.734 107.323 286.172 107.115 283.886C106.612 278.363 105.818 272.867 104.737 267.427C104.4 265.731 103.664 263.813 103.714 262.085C103.753 260.722 103.92 259.22 104.128 257.863C104.572 254.959 105.825 252.279 108.092 250.356C110.884 247.988 114.67 246.462 118.368 246.782C120.402 246.958 123.087 246.551 124.922 247.342C126.88 248.185 128.534 249.686 129.779 251.396C131.284 253.463 132.921 256.302 132.637 258.904C132.284 262.143 132.946 265.48 133.329 268.703C134.087 275.088 135.255 281.421 135.841 287.827C135.992 289.497 136.133 290.9 135.819 292.198Z" fill="white"/>
<path d="M103.936 267.48C104.35 265.073 107.909 262.042 110.423 264.601C114.347 268.595 116.024 275.842 117.523 280.811C117.205 279.755 127.322 274.278 128.59 273.635C130.839 272.494 132.667 271.543 133.991 269.927C134.8 271.012 135.648 272.065 136.543 273.076C134.853 274.703 132.98 276.182 131.335 277.895C128.144 281.218 124.673 284.193 120.542 286.641C118.717 287.722 116.526 288.736 114.396 288.229C113.136 287.929 112.114 287.133 111.25 286.281C107.326 282.412 105.847 277.168 104.495 272.146C104.084 270.613 103.669 269.036 103.936 267.48Z" fill="#E0AC9B"/>
<path d="M102.367 256.603C102.162 257.207 102.008 257.828 101.9 258.455C101.092 263.144 102.525 268.206 103.961 272.642C104.01 272.793 104.079 272.963 104.247 273.02C104.367 273.061 104.502 273.029 104.626 272.996C108.31 272.033 112.032 271.152 115.692 270.113C115.424 269.421 115.638 268.394 115.541 267.626C115.383 266.371 115.192 265.119 114.992 263.869C114.604 261.454 114.151 259.048 113.634 256.657C113.267 254.961 113.097 253.717 113.237 252.019C113.3 251.25 113.657 249.152 112.689 248.75C110.783 248.035 108.003 250.196 106.613 251.228C105.89 251.764 105.163 252.304 104.536 252.95C103.54 253.976 102.828 255.244 102.367 256.603Z" fill="white"/>
<path d="M113.177 249.554C113.503 250.224 113.986 250.805 114.723 251.229C116.519 252.262 118.754 252.834 120.825 252.834C122.255 252.734 123.701 252.125 124.405 251.039C125.761 248.949 122.942 247.746 121.837 246.386C121.169 245.564 120.668 244.607 120.366 243.592C120.142 242.838 119.873 241.736 119.977 240.954C120.065 240.296 120.732 240.099 121.233 239.69C121.901 239.145 122.788 238.346 123.202 237.581C123.701 236.661 123.512 235.22 123.269 234.257C122.964 233.044 122.375 231.922 121.731 230.85C120.989 229.616 120.155 228.416 119.065 227.475C117.883 226.454 116.498 225.908 114.948 225.786C113.383 225.662 112.136 226.534 110.999 227.517C109.478 228.831 108.458 230.831 108.686 232.873C108.786 233.768 109.102 234.623 109.415 235.468C110.734 239.031 112.054 242.642 112.454 246.42C112.57 247.512 112.721 248.619 113.177 249.554Z" fill="#E0AC9B"/>
<path d="M106.053 228.531C106.237 228.18 106.465 227.852 106.736 227.558C107.097 227.168 107.525 226.845 107.973 226.561C110.049 225.242 112.54 224.607 114.96 224.316C115.28 224.277 115.604 224.247 115.925 224.284C116.429 224.343 116.903 224.569 117.31 224.87C118.263 225.575 119.549 227.298 118.171 228.209C117.885 228.398 117.559 228.514 117.236 228.629C115.925 229.094 112.994 229.515 113.297 231.486C113.429 232.345 113.982 233.068 114.383 233.839C114.876 234.786 114.684 236.025 114.358 237.001C113.972 238.155 113.441 239.343 112.433 240.024C112.01 240.309 111.43 240.484 111.003 240.207C110.843 240.103 110.725 239.949 110.61 239.797C108.686 237.261 105.925 235.268 105.492 231.889C105.345 230.746 105.522 229.541 106.053 228.531Z" fill="#111314"/>
<path d="M112.731 233.193C113.207 232.546 113.992 232.514 114.586 232.879C115.11 233.201 115.508 233.868 115.382 234.551C115.396 234.63 115.413 234.709 115.416 234.791C115.434 235.299 115.239 235.767 114.92 236.051C114.33 236.576 113.617 236.315 113.141 235.695C112.495 235.117 112.088 234.068 112.731 233.193Z" fill="#E0AC9B"/>
<path d="M144.903 255.889L138.857 269.024C138.705 269.354 138.328 269.515 137.984 269.397L136.483 268.88C135.374 268.498 134.826 267.252 135.295 266.177L139.924 255.559C140.121 255.108 140.569 254.819 141.061 254.827C141.932 254.841 143.318 254.865 144.278 254.887C144.786 254.898 145.116 255.427 144.903 255.889Z" fill="#404D5C"/>
<path d="M145.55 255.873L139.229 269.606L136.399 268.631C135.68 268.383 135.325 267.576 135.629 266.879L140.889 254.814C140.889 254.814 143.444 254.853 144.937 254.887C145.436 254.899 145.759 255.419 145.55 255.873Z" fill="#111314"/>
<path d="M133.49 270.651C133.663 270.367 133.842 270.086 133.991 269.789C134.466 268.842 134.617 267.788 134.828 266.762C134.941 266.214 135.183 264.954 135.79 264.763C135.891 264.731 136.015 264.732 136.087 264.811C136.158 264.889 136.148 265.009 136.129 265.113C136.035 265.643 135.521 266.702 135.876 267.197C136.043 267.429 136.401 267.447 136.653 267.312C136.905 267.177 137.075 266.93 137.23 266.689C137.561 266.174 138.83 262.454 139.841 263.155C140.044 263.296 140.013 263.603 139.943 263.84C139.707 264.635 139.289 265.372 139.122 266.184C139.089 266.343 139.068 266.512 139.128 266.663C139.19 266.817 139.327 266.925 139.451 267.034C141.568 268.89 138.155 271.858 136.963 273.124C136.684 273.421 136.378 273.688 136.024 273.888C135.693 274.076 135.356 274.173 135.02 274.192C134.833 274.235 134.643 274.262 134.45 274.261C132.91 274.258 132.499 272.761 133.025 271.518C133.152 271.215 133.319 270.932 133.49 270.651Z" fill="#E0AC9B"/>
<path d="M121.528 232.513C121.902 233.014 121.958 233.818 121.709 234.428C121.46 235.038 120.943 235.443 120.4 235.537C119.857 235.631 119.297 235.434 118.833 235.069L121.528 232.513Z" fill="white"/>
<path d="M189.222 336H187.638V372.293H189.222V336Z" fill="#110809"/>
<path d="M174.582 379.909C174.582 374.55 183.71 372.302 188.271 372.293C193.701 372.282 201.96 374.362 201.96 379.909" stroke="#110809" stroke-width="2" stroke-miterlimit="10"/>
<path d="M188.425 381.341V372.44" stroke="#110809" stroke-width="2" stroke-miterlimit="10"/>
<path d="M204.201 381.201C204.201 382.486 203.198 383.528 201.961 383.528C200.724 383.528 199.721 382.486 199.721 381.201C199.721 379.916 200.724 378.874 201.961 378.874C203.198 378.874 204.201 379.916 204.201 381.201Z" fill="#110809"/>
<path d="M190.624 381.201C190.624 382.486 189.621 383.528 188.384 383.528C187.147 383.528 186.144 382.486 186.144 381.201C186.144 379.916 187.147 378.874 188.384 378.874C189.621 378.874 190.624 379.916 190.624 381.201Z" fill="#110809"/>
<path d="M177.048 381.201C177.048 382.486 176.045 383.528 174.808 383.528C173.571 383.528 172.568 382.486 172.568 381.201C172.568 379.916 173.571 378.874 174.808 378.874C176.045 378.874 177.048 379.916 177.048 381.201Z" fill="#110809"/>
<path d="M186.891 324.049V298.345C186.891 293.896 183.284 290.29 178.836 290.29H169.966C165.517 290.29 161.911 293.896 161.911 298.345V327.081C161.911 333.428 167.104 338.621 173.451 338.621H186.737H202.369C203.119 338.621 203.727 338.013 203.727 337.263C203.727 336.513 203.119 335.905 202.369 335.905H198.749C192.2 335.905 186.891 330.597 186.891 324.049Z" fill="white"/>
<path d="M217.043 373.971C216.96 375.646 218.331 377.069 219.822 377.841C221.32 378.616 223.014 378.969 224.476 379.81C224.844 380.022 225.212 380.283 225.386 380.67C225.69 381.35 225.257 382.178 224.622 382.567C222.436 383.909 219.074 382.336 216.812 381.932C214.447 381.51 212.082 381.089 209.716 380.667C207.076 380.667 211.095 370.137 211.389 369.383C211.659 368.69 211.937 367.984 212.418 367.417C213.48 366.164 217.204 365.053 218.28 366.737C219.216 368.201 218.024 370.667 217.533 372.1C217.326 372.706 217.081 373.311 217.043 373.971Z" fill="#110809"/>
<path d="M238.129 372.645C238.366 373.016 238.612 373.38 238.886 373.724C239.757 374.815 241.57 375.716 242.997 375.439C244.533 375.141 246.017 374.501 247.582 374.483C248.158 374.476 248.771 374.571 249.207 374.948C251.115 376.596 246.914 378.426 245.752 378.851C243.111 379.819 240.471 380.787 237.83 381.754C237.335 381.936 236.816 382.12 236.292 382.057C234.183 381.801 233.394 379.127 232.664 377.531C232.145 376.396 231.324 375.437 230.778 374.319C230.369 373.481 229.668 371.316 230.418 370.515C230.6 370.321 230.846 370.203 231.067 370.055C231.504 369.761 231.847 369.34 232.298 369.068C233.577 368.298 235.288 368.981 236.318 370.062C237.044 370.826 237.56 371.754 238.129 372.645Z" fill="#110809"/>
<path d="M198.847 304.412C199.455 305.715 200.231 306.946 201.21 307.999C202.507 309.393 203.634 309.607 205.287 308.461C206.325 307.742 206.977 306.599 207.563 305.48C207.738 305.147 207.915 304.791 207.891 304.416C207.861 303.94 207.522 303.55 207.246 303.161C206.39 301.952 206.048 300.462 205.761 299.009C204.868 294.992 204.846 291 204.466 286.925C204.374 285.938 204.278 284.934 203.898 284.019C203.518 283.104 202.804 282.274 201.85 282.005C200.952 281.751 199.986 282.024 199.147 282.432C196.616 283.664 195.764 286.761 195.759 289.364C195.755 291.76 196.185 294.134 196.631 296.488C197.093 298.928 197.578 301.383 198.525 303.679C198.627 303.925 198.734 304.17 198.847 304.412Z" fill="#C98D79"/>
<path d="M198.644 309.184H198.646C198.636 309.149 198.63 309.112 198.621 309.076L198.644 309.184Z" fill="#E6AC8E"/>
<path d="M192.587 280.391L192.705 280.951V280.952L192.587 280.391Z" fill="#E6AC8E"/>
<path d="M198.547 308.759C198.567 308.867 198.594 308.972 198.621 309.076L198.535 308.668C198.54 308.698 198.542 308.728 198.547 308.759Z" fill="#E6AC8E"/>
<path d="M207.028 307.514L198.646 309.183C199.246 311.274 201.345 312.612 203.532 312.217C205.77 311.813 207.281 309.741 207.028 307.514Z" fill="#E6AC8E"/>
<path d="M204.59 286.784L203.632 278.892L204.57 286.787L204.59 286.784Z" fill="#D18334"/>
<path d="M203.352 278.974C202.649 276.881 201.444 274.925 199.419 273.906C198.812 273.601 198.165 273.388 197.52 273.176C195.868 272.633 194.206 272.088 192.486 271.835C192.198 271.792 191.808 271.823 191.742 272.107C191.716 272.218 191.755 272.333 191.78 272.444C191.881 272.897 191.636 273.289 191.697 273.733C191.776 274.309 191.993 274.893 192.137 275.457C192.435 276.622 192.732 277.839 192.607 279.05C192.42 280.866 193.377 282.395 193.377 284.145C193.438 284.433 194.27 288.526 194.298 288.521L204.57 286.787C204.255 284.135 204.189 281.466 203.352 278.974Z" fill="#AB2C2C"/>
<path d="M207.071 301.496C206.773 301.038 206.504 300.557 206.259 300.071C205.821 299.201 205.37 298.222 204.475 297.837C203.787 297.541 202.969 297.682 202.321 298.057C201.673 298.431 201.17 299.012 200.732 299.619C200.06 300.548 199.501 301.583 199.285 302.71C198.422 307.213 202.894 309.794 206.628 310.804C211.825 312.21 217.685 311.318 222.983 310.98C226.11 310.78 229.237 310.58 232.364 310.381L232.573 306.866C229.678 306.553 226.783 306.239 223.889 305.926C221.277 305.643 218.664 305.36 216.052 305.077C213.713 304.824 211.135 305.246 209.139 303.77C208.31 303.155 207.636 302.364 207.071 301.496Z" fill="#C98D79"/>
<path d="M225.246 329.421C225.866 327.077 225.602 324.488 224.392 322.38C223.96 321.627 223.406 320.922 222.67 320.461C221.705 319.857 220.528 319.728 219.395 319.62C212.404 318.954 205.389 318.534 198.368 318.361C191.881 318.201 184.702 320.1 184.282 327.78C184.011 332.746 187.237 336.877 191.488 337.008C191.584 337.011 191.679 337.001 191.774 337.004C196.231 337.14 200.706 337.053 205.165 337.077C209.284 337.099 213.161 337.733 217.236 336.627C219.631 335.977 221.935 334.764 223.512 332.848C224.335 331.848 224.916 330.67 225.246 329.421Z" fill="#2D6F87"/>
<path d="M229.547 326.651C227.936 322.654 224.911 319.459 220.109 320.246C216.516 320.835 217.336 326.719 217.013 329.505C216.555 333.454 216.025 337.394 215.424 341.323C215.061 343.693 209.899 369.171 210.232 369.273C211.932 369.819 213.634 370.365 215.388 370.737C217.587 371.203 219.788 371.591 221.977 372.05C224.082 372.491 225.103 362.834 225.413 361.414C227.366 352.469 230.649 344.146 230.987 334.854C231.076 332.406 230.633 329.346 229.547 326.651Z" fill="#2D6F87"/>
<path d="M201.864 327.719C201.216 334.826 196.572 336.989 190.547 337.007L180.077 337.023C174.014 337.023 169.313 333.984 169.122 328.003V309.911L192.336 309.968L201.864 327.719Z" fill="#4D8BA1"/>
<path d="M219.861 330.671C219.931 329.823 219.811 328.955 219.448 328.094C218.875 326.737 217.611 325.796 216.302 325.12C215.095 324.496 213.81 324.039 212.521 323.609C203.664 320.654 194.42 318.862 185.1 318.293C183.623 318.203 182.141 318.143 180.666 318.255C176.299 318.586 170.491 321.403 169.454 326.117C168.819 329.002 169.688 331.945 171.724 334.072C174.221 336.68 177.012 336.936 180.369 337.181C189.226 337.829 198.096 338.311 206.971 338.622C208.939 338.691 210.942 338.748 212.84 338.225C216.005 337.354 219.57 334.184 219.861 330.671Z" fill="#4D8BA1"/>
<path d="M241.167 367.82C239.666 364.103 237.896 360.555 236.318 356.833C234.422 352.362 232.445 347.924 230.389 343.525C228.676 339.86 226.896 336.202 224.559 332.9C221.651 328.79 216.665 323.046 210.944 325.123C209.374 325.693 208.18 327.072 207.591 328.634C207.002 330.197 206.97 331.925 207.233 333.574C207.65 336.195 208.775 338.646 209.992 341.004C216.01 352.667 223.734 363.373 229.345 375.225C233.425 373.001 237.34 370.498 241.167 367.82Z" fill="#4D8BA1"/>
<path d="M198.425 275.594C198.202 275.327 197.967 275.069 197.73 274.814C197.298 274.349 196.855 273.89 196.349 273.507C193.51 271.359 189.439 271.559 186.075 271.45C182.683 271.34 180.131 271.207 177.365 273.42C173.716 276.34 171.061 280.402 169.486 284.803C167.365 290.728 167.478 296.576 168.025 302.714C168.527 308.347 168.919 313.99 169.199 319.638C173.176 319.453 177.161 319.422 181.14 319.213C186.019 318.957 191.513 318.743 196.193 316.971C196.674 310.991 197.851 305.052 198.608 299.101C199.102 295.214 199.35 291.221 200.093 287.373C200.754 283.947 201.043 279.338 198.968 276.306C198.799 276.058 198.617 275.822 198.425 275.594Z" fill="#AB2C2C"/>
<path d="M186.198 277.715C183.749 277.273 182.165 274.874 182.722 272.448C183.266 269.901 183.869 267.361 184.356 264.803C184.655 263.237 184.372 261.93 185.973 261.032C187.875 259.966 189.719 261.257 191.018 262.652C191.478 263.146 191.931 263.687 192.095 264.342C192.229 264.878 192.156 265.441 192.082 265.989C191.686 268.928 191.602 272.141 190.901 275.013C190.417 277 188.093 278.057 186.198 277.715Z" fill="#E0B4A6"/>
<path d="M189.677 269.612C189.434 269.624 189.198 269.637 188.982 269.666C187.704 269.837 186.431 270.083 185.158 270.291C184.669 270.371 184.122 270.438 183.718 270.15C183.032 269.662 183.267 268.622 183.344 267.784C183.535 265.705 182.277 263.769 182.033 261.695C181.77 259.457 182.801 257.112 184.629 255.794C186.013 254.796 187.798 254.424 189.474 254.705C191.365 255.021 192.029 255.554 192.583 257.449C192.822 258.265 193.06 259.081 193.299 259.897C193.534 260.702 193.77 261.51 193.89 262.34C194.131 264.015 193.882 265.757 193.182 267.297C192.86 268.005 192.427 268.689 191.786 269.13C191.224 269.551 190.416 269.576 189.677 269.612Z" fill="#E0B4A6"/>
<path d="M193.034 256.072C193.012 256.067 192.99 256.062 192.968 256.056C193.045 256.938 192.222 257.689 191.356 257.874C190.49 258.06 189.596 257.836 188.729 257.655C187.078 257.311 185.691 257.453 184.759 258.957C184.125 259.98 184.363 262.179 184.485 263.376C184.599 264.492 184.48 265.649 183.505 266.37C183.262 266.55 182.966 266.69 182.665 266.656C182.472 266.634 182.293 266.543 182.127 266.442C181.356 265.975 180.712 265.244 180.015 264.691C179.266 264.097 178.648 263.371 178.264 262.489C177.498 260.729 177.731 258.573 178.854 257.017C179.103 256.671 179.528 256.322 179.912 256.509C179.294 255.659 180.047 254.492 180.847 253.81C182.04 252.792 183.425 251.998 184.906 251.482C185.943 251.121 187.116 250.903 188.118 251.352C189.034 250.452 190.328 249.939 191.61 250.006C192.892 250.073 194.139 250.73 194.89 251.772C195.487 252.602 195.758 253.715 195.399 254.672C195.046 255.607 194.003 256.288 193.034 256.072Z" fill="#110809"/>
<path d="M185.762 262.913C185.918 263.584 185.501 264.255 184.83 264.411C184.159 264.567 183.488 264.15 183.332 263.479C183.176 262.808 183.593 262.138 184.264 261.981C184.936 261.825 185.606 262.242 185.762 262.913Z" fill="#E0B4A6"/>
<path d="M189.831 265.031C189.831 265.031 190.509 265.626 191.42 265.415C192.462 265.174 192.648 264.375 192.648 264.375" stroke="#110809" stroke-width="0.5" stroke-miterlimit="10"/>
<path d="M168.213 307.111C168.876 308.4 169.888 309.63 170.97 310.544C172.275 311.647 174.156 311.369 175.707 310.943C176.706 310.669 177.781 309.947 177.739 308.912C177.722 308.484 177.51 308.092 177.317 307.71C175.63 304.368 175.062 300.551 175.123 296.808C175.157 294.699 175.684 292.584 175.699 290.496C175.712 288.625 175.341 286.411 174.938 284.583C174.76 283.775 174.49 282.953 173.92 282.353C171.845 280.17 169.357 283.022 168.383 284.786C165.573 289.873 165.839 296.075 166.745 301.815C167.003 303.452 167.312 305.099 167.978 306.616C168.05 306.782 168.129 306.947 168.213 307.111Z" fill="#E0B4A6"/>
<path d="M176.564 293.124C176.755 291.549 177.353 289.896 177.921 288.312C178.137 287.71 178.347 287.118 178.524 286.545C179.304 284.02 180.085 281.494 180.865 278.969C181.391 277.265 181.922 275.458 181.493 273.727C181.333 273.082 180.979 272.412 180.35 272.198C179.853 272.029 179.308 272.186 178.813 272.363C173.559 274.237 169.327 278.528 167.186 283.64C166.692 284.82 165.166 288.735 165.405 290.734C169.152 291.422 172.88 292.172 176.564 293.124Z" fill="#AB2C2C"/>
<path d="M195.824 308.348C193.911 308.262 192.002 308.153 190.17 307.779C186.703 307.072 183.228 306.776 179.794 305.818C178.8 305.541 177.62 305.239 176.793 304.588C176.011 303.972 175.555 303.015 174.75 302.386C174.075 301.859 173.219 301.508 172.37 301.615C171.859 301.68 171.381 301.904 170.937 302.165C169.801 302.832 168.763 303.865 168.582 305.17C168.521 305.614 168.562 306.066 168.639 306.507C169.547 311.701 174.721 312.453 179.195 312.873C183.547 313.281 187.924 313.301 192.289 313.119C193.559 313.066 194.83 313.013 196.1 312.96C197.378 312.907 198.718 312.829 199.925 312.366C200.758 312.047 202.552 311.067 202.571 309.992C202.575 309.757 202.448 309.537 202.287 309.366C201.765 308.81 200.94 308.692 200.181 308.614C198.747 308.466 197.284 308.414 195.824 308.348Z" fill="#E0B4A6"/>
<path d="M208.987 307.577C207.175 307.242 206.465 307.757 204.642 308.423C203.954 308.675 202.982 307.917 203.649 307.607C205.492 306.753 207.796 305.893 209.688 306.856C210.126 307.079 209.654 307.7 208.987 307.577Z" fill="#E0B4A6"/>
<path d="M198.818 309.772C199.827 308.789 200.892 308.453 202.014 308.093C203.48 307.624 204.938 307.316 207.598 307.913C208.519 308.12 207.082 309.436 206.489 310.348C205.871 311.297 204.705 312.901 204.011 312.818C202.345 312.62 202.4 312.426 200.458 312.634C198.355 312.859 196.848 311.692 198.818 309.772Z" fill="#E0B4A6"/>
<path d="M208.667 314.607C207.208 312.867 205.291 311.875 203.231 311.551C202.262 311.398 202.344 312.507 203.251 312.648C204.906 312.906 206.44 313.648 207.706 314.967C208.213 315.494 209.141 315.171 208.667 314.607Z" fill="#E0B4A6"/>
<path d="M212.467 313.69C209.715 310.055 207.025 308.737 202.894 309.257C202.168 309.348 202.389 310.427 203.112 310.376C206.491 310.135 209.353 311 211.31 313.739C211.735 314.335 212.907 314.271 212.467 313.69Z" fill="#E0B4A6"/>
<path d="M210.361 314.452C209.153 313.078 207.797 311.636 206.167 310.759C204.682 309.96 203.147 310.014 201.517 310.18C200.788 310.254 201.055 311.364 201.775 311.29C203.477 311.117 204.917 311.212 206.359 312.222C207.553 313.058 208.328 313.587 209.286 314.677C209.77 315.227 210.845 315.003 210.361 314.452Z" fill="#E0B4A6"/>
<path d="M207.598 307.913C206.91 307.668 206.308 308.641 207.001 308.888C209.299 309.706 210.293 310.009 211.875 311.87C212.348 312.426 213.258 312.117 212.782 311.557C211.074 309.549 210.084 308.799 207.598 307.913Z" fill="#E0B4A6"/>
<path d="M241.916 312.743C240.009 310.002 236.973 308.784 233.823 308.92C233.299 308.942 233.396 310.076 233.905 310.051C236.627 309.915 239.159 310.805 240.927 313.015C241.383 313.586 242.336 313.348 241.916 312.743Z" fill="#E6AC8E"/>
<path d="M243.651 311.949C240.706 308.468 237.949 307.298 233.852 308.04C233.132 308.17 233.411 309.236 234.13 309.145C237.491 308.722 240.396 309.431 242.497 312.06C242.956 312.632 244.122 312.505 243.651 311.949Z" fill="#E6AC8E"/>
<path d="M244.018 310.19C242.672 308.951 241.187 307.69 239.413 307.108C237.811 306.582 236.493 306.723 234.89 307.06C234.173 307.21 234.438 308.102 235.146 307.953C236.821 307.601 238.18 307.601 239.795 308.302C241.037 308.841 241.904 309.545 242.972 310.528C243.512 311.024 244.557 310.687 244.018 310.19Z" fill="#E6AC8E"/>
<path d="M238.375 305.915C237.648 305.849 237.548 306.623 238.276 306.733C240.42 307.056 240.756 307.042 242.752 308.45C243.348 308.871 244.065 308.496 243.464 308.073C241.31 306.553 241.004 306.154 238.375 305.915Z" fill="#E6AC8E"/>
<path d="M237.802 311.54C236.495 311.47 235.555 310.888 234.519 309.384C234.103 308.78 232.78 309.427 233.27 309.976C234.624 311.49 236.29 312.594 238.409 312.47C239.132 312.428 238.533 311.579 237.802 311.54Z" fill="#E6AC8E"/>
<path d="M231.019 307.496C232.079 306.552 236.896 305.691 238.498 305.927C239.432 306.064 239.335 307.82 238.743 308.731C238.125 309.68 237.824 310.436 237.13 310.354C236.543 310.285 235.799 310.75 235.329 310.729C234.465 310.69 233.918 310.222 232.66 310.357C230.557 310.583 228.964 309.325 231.019 307.496Z" fill="#E6AC8E"/>
<path d="M277.328 315.776H151.995V318.493H277.328V315.776Z" fill="#1C2854"/>
<path d="M277.329 316.693H275.313V390.551H277.329V316.693Z" fill="#1C2854"/>
<path d="M154.011 316.693H151.995V390.551H154.011V316.693Z" fill="#1C2854"/>
<path d="M268.248 318.28H161.077V320.409H268.248V318.28Z" fill="#110809"/>
<path d="M239.374 315.858H204.278C204.278 315.181 204.827 314.631 205.505 314.631H239.375V315.858H239.374Z" fill="white"/>
<path d="M245.404 314.631H210.333L216.587 296.108C216.802 295.471 217.44 295.038 218.163 295.038H249.776C250.889 295.038 251.683 296.034 251.352 297.014L245.404 314.631Z" fill="#FFF5F5"/>
<path d="M245.404 314.631H210.165V315.858H245.404V314.631Z" fill="#C9CDD1"/>
<path d="M231.688 302.922C231.637 302.909 231.591 302.912 231.55 302.923C231.514 302.902 231.471 302.888 231.417 302.887C230.565 302.879 229.834 303.546 229.784 304.328C229.735 305.095 230.42 305.664 231.211 305.73C232 305.796 232.738 305.352 232.851 304.605C232.962 303.871 232.471 303.118 231.688 302.922ZM231.314 305.272C230.63 305.243 229.981 304.689 230.443 303.884C230.635 303.549 231.023 303.372 231.433 303.352C231.453 303.351 231.471 303.348 231.488 303.344C231.508 303.355 231.529 303.364 231.554 303.371C232.69 303.656 232.592 305.327 231.314 305.272Z" fill="#C9CDD1"/>
<path d="M72.157 370.676H70.426V408.866H72.157V370.676Z" fill="#110809"/>
<path d="M69.61 359.856V331.758C69.61 326.895 65.668 322.953 60.805 322.953H51.109C46.246 322.953 42.304 326.895 42.304 331.758V363.17C42.304 370.108 47.98 375.785 54.918 375.785H69.44H86.528C87.348 375.785 88.012 375.12 88.012 374.301C88.012 373.481 87.348 372.817 86.528 372.817H82.57C75.412 372.817 69.61 367.014 69.61 359.856Z" fill="white"/>
<path d="M141.356 410.775C141.445 410.611 141.531 410.448 141.616 410.285C141.834 409.864 142.041 409.384 141.909 408.928C141.783 408.491 141.383 408.201 141.018 407.93C140.019 407.187 139.1 406.337 138.282 405.398C137.38 404.362 136.595 403.214 135.557 402.313C133.412 400.452 129.645 400.323 127.817 402.726C127.48 403.169 127.215 403.681 127.142 404.233C126.967 405.563 127.902 406.757 128.79 407.763C129.937 409.063 131.099 410.349 132.278 411.62C133.339 412.763 134.382 413.973 135.577 414.989C135.828 415.203 136.078 415.407 136.323 415.613C136.672 415.907 139.067 413.79 139.356 413.523C140.175 412.77 140.814 411.772 141.356 410.775Z" fill="#CF9F8F"/>
<path d="M155.98 405.052C155.881 405.034 155.777 405.022 155.668 405.015C154.931 404.972 154.21 405.218 153.518 405.475C150.879 406.456 148.273 407.673 145.471 407.946C144.126 408.077 142.653 407.753 141.424 407.118C141.373 407.149 141.334 407.195 141.285 407.229C141.272 407.274 141.26 407.318 141.247 407.363C141.039 408.836 140.469 410.184 139.475 411.375C138.465 412.585 137.199 413.254 135.934 413.957C135.279 414.496 134.865 415.114 135.468 416.004C136.065 416.885 136.667 417.771 137.406 418.537C138.212 419.372 139.277 420.085 140.435 420.014C141.085 419.974 141.693 419.691 142.273 419.393C144.084 418.464 145.794 417.353 147.501 416.244C149.178 415.154 150.855 414.064 152.533 412.974C153.646 412.25 154.769 411.52 155.715 410.589C156.504 409.813 157.652 408.474 157.616 407.287C157.585 406.281 157.024 405.24 155.98 405.052Z" fill="#404D5C"/>
<path d="M142.228 398.686C141.828 398.202 141.462 397.685 141.086 397.182C140.501 396.401 139.882 395.645 139.23 394.918C138.904 394.553 138.559 394.189 138.12 393.971C137.737 393.781 137.305 393.716 136.881 393.653C136.226 393.556 135.562 393.459 134.905 393.541C133.793 393.679 132.761 394.356 132.192 395.321C130.743 397.778 133.38 400.777 134.768 402.727C136.468 405.115 138.454 407.3 140.674 409.214C141.348 409.795 142.692 409.674 143.338 409.034C144.722 407.665 145.883 406.072 146.763 404.337C147.217 403.442 147.836 401.796 146.875 400.986C146.406 400.591 145.88 400.813 145.299 400.723C144.603 400.615 143.94 400.284 143.389 399.851C142.957 399.511 142.58 399.112 142.228 398.686Z" fill="#E0AC9B"/>
<path d="M160.378 397.939C160.279 397.921 160.175 397.909 160.066 397.903C159.329 397.86 158.608 398.106 157.916 398.363C155.277 399.344 152.671 400.561 149.869 400.833C148.524 400.964 147.051 400.64 145.822 400.005C145.771 400.036 145.732 400.082 145.683 400.116C145.67 400.161 145.658 400.205 145.646 400.25C145.438 401.723 144.868 403.071 143.874 404.262C142.864 405.472 141.598 406.141 140.333 406.844C139.678 407.383 139.264 408.001 139.867 408.891C140.465 409.772 141.066 410.658 141.805 411.424C142.507 412.151 143.492 412.83 144.499 413.046C145.579 413.277 146.507 412.574 147.378 411.988C150.521 409.876 153.36 407.27 156.776 405.637C158.047 405.03 159.405 404.552 160.497 403.663C161.967 402.466 163.209 398.451 160.378 397.939Z" fill="#110809"/>
<path d="M82.776 344.286H82.779C82.769 344.25 82.763 344.213 82.753 344.176L82.776 344.286Z" fill="#E6AC8E"/>
<path d="M76.613 314.987L76.733 315.558L76.613 314.987Z" fill="#E6AC8E"/>
<path d="M82.678 343.853C82.698 343.963 82.726 344.069 82.753 344.176L82.666 343.761C82.671 343.792 82.672 343.822 82.678 343.853Z" fill="#E6AC8E"/>
<path d="M138.431 400.082C139.499 399.198 140.584 398.336 141.696 397.51C133.847 383.333 120.71 369.97 117.092 366.63C111.753 361.701 98.22 358.103 94.124 356.883C88.472 355.199 80.259 352.347 74.34 354.506C70.502 355.906 68.034 359.857 68.152 364.09C68.266 368.196 71.068 372.462 75.497 372.597C75.595 372.6 75.691 372.59 75.788 372.593C80.989 372.756 86.268 372.793 91.471 372.679C95.942 372.581 99.63 373.835 103.599 376.068C106.531 377.717 109.217 379.764 111.892 381.804C118.018 386.474 128.473 396.368 135.585 402.23C136.517 401.496 137.472 400.787 138.431 400.082Z" fill="#AB2C2C"/>
<path d="M89.879 341.876C92.207 342.728 94.639 343.368 97.035 343.991C98.253 344.308 99.506 344.627 100.755 344.474C103.131 344.184 105.12 341.979 105.165 339.587C105.162 339.728 97.385 336.237 96.687 335.787C93.997 334.051 91.572 331.903 89.53 329.437C87.561 327.061 86.177 324.379 84.7 321.716C83.093 318.818 82.797 315.341 80.887 312.59C79.872 311.128 78.462 309.988 77.013 308.954C72.559 305.775 73.729 312.664 73.945 314.766C74.795 323.034 76.042 332.89 83.08 338.293C85.13 339.867 87.448 340.987 89.879 341.876Z" fill="#4D8BA1"/>
<path d="M78.639 323.212C78.722 323.198 78.817 323.182 78.932 323.163L78.639 323.212Z" fill="#C9CDD1"/>
<path d="M78.354 323.26C78.354 323.26 78.394 323.253 78.454 323.243L78.354 323.26Z" fill="#C9CDD1"/>
<path d="M130.492 412.574C131.022 412.1 138.679 406.203 139.425 405.555C138.382 404.325 122.229 380.65 115.177 374.288C111.479 370.952 89.945 359.954 83.216 357.746C78.932 356.34 74.652 354.714 70.143 354.203C68.082 353.969 65.987 354.283 63.957 353.959C62.311 353.697 60.65 353.549 58.987 353.447C57.385 353.349 57.23 352.917 56.207 351.804C55.574 351.116 54.5 350.878 53.636 351.233C52.252 351.802 51.766 353.506 51.641 354.997C51.289 359.172 52.435 363.446 54.78 366.913C57.163 370.436 60.54 372.236 64.398 373.783C68.298 375.347 72.354 376.481 76.401 377.612C81.718 379.098 87.036 380.584 92.353 382.069C95.428 382.928 98.524 383.795 101.381 385.22C104.749 386.899 107.156 389.69 110.093 391.922C113.313 394.369 116.233 397.361 119.256 400.049C121.889 402.391 127.858 410.232 130.492 412.574Z" fill="#CC4949"/>
<path d="M70.286 356.163C71.354 356.026 72.418 355.866 73.474 355.654C74.761 355.395 77.817 355.032 78.706 353.974C79.53 352.994 79.23 349.889 79.313 348.612C79.843 340.412 79.689 332.189 79.988 323.981C80.137 319.875 80.221 316.43 78.771 312.546C77.612 309.442 75.365 307.071 72.123 306.169C69.52 305.445 66.74 305.744 64.162 306.565C59.073 308.186 55.115 311.404 52.614 316.061C49.332 322.17 48.957 329.28 48.115 336.007C47.186 343.429 47.016 350.946 47.613 358.401C47.676 359.191 47.758 360.013 48.169 360.691C49.536 362.952 52.754 360.372 54.395 359.685C56.92 358.628 59.531 357.765 62.219 357.234C64.882 356.707 67.595 356.508 70.286 356.163Z" fill="#79B4C9"/>
<path d="M70.112 312.264C67.62 311.814 66.009 309.373 66.575 306.904L68.763 296.672C68.767 296.653 72.406 297.33 72.649 297.374C73.576 297.541 74.503 297.711 75.43 297.876C76.466 298.061 77.322 297.856 77.527 299.209C77.613 299.776 77.494 300.352 77.345 300.905C76.955 302.342 76.355 303.709 75.894 305.123C75.464 306.443 75.487 307.762 75.18 309.074C74.665 311.28 72.277 312.655 70.112 312.264Z" fill="#E0AC9B"/>
<path d="M71.505 304.047C68.639 302.536 67.541 298.987 69.052 296.121C69.607 295.068 70.163 294.014 70.718 292.961C71.167 292.11 71.499 291.195 72.027 290.386C72.206 290.112 72.347 289.696 72.548 289.455C72.813 289.138 73.337 289.162 73.72 289.126C75.861 288.925 78.01 289.324 80.072 289.873C80.431 289.969 80.794 290.071 81.111 290.265C81.4 290.441 81.639 290.687 81.866 290.938C82.137 291.239 82.505 291.6 82.691 291.961C83.029 292.616 82.934 293.76 82.882 294.478C82.811 295.467 82.58 296.442 82.236 297.37C81.428 299.55 80.035 301.821 78.204 303.284C76.341 304.773 73.646 305.176 71.505 304.047Z" fill="#E0AC9B"/>
<path d="M87.519 334.312C85.507 334.708 78.586 335.93 78.585 335.964C78.544 337.76 78.503 339.556 78.463 341.352C80.599 340.874 82.734 340.396 84.87 339.918C86.141 339.634 88.58 339.243 89.248 337.932C89.445 337.545 89.461 337.093 89.469 336.658C89.481 336.028 89.483 335.379 89.256 334.791C89.157 334.534 88.997 334.277 88.74 334.179C88.507 334.09 88.246 334.15 88.003 334.211C87.919 334.232 87.752 334.266 87.519 334.312Z" fill="#E0AC9B"/>
<path d="M96.405 332.295C95.457 332.279 94.48 332.508 93.679 333.021C92.87 333.54 92.456 334.376 91.924 335.144C91.622 335.579 91.274 335.983 90.887 336.345C90.662 336.556 90.378 336.765 90.075 336.706C89.952 336.682 89.841 336.614 89.744 336.533C89.034 335.941 89.187 334.948 89.797 334.374C90.546 333.669 91.25 332.917 92.076 332.289C92.443 332.01 92.832 331.744 93.273 331.608C93.597 331.508 93.939 331.482 94.278 331.46C94.787 331.427 95.297 331.401 95.806 331.384C96.114 331.373 96.707 331.24 96.986 331.396C97.606 331.741 96.808 332.302 96.405 332.295Z" fill="#E0AC9B"/>
<path d="M85.52 335.755C85.529 335.734 85.54 335.713 85.55 335.693C86.025 334.769 87.118 334.426 88.046 334.19C89.343 333.86 90.651 333.554 91.933 333.173C93.137 332.815 94.501 332.555 95.718 332.991C95.823 333.028 95.942 333.093 95.949 333.204C95.955 333.309 95.856 333.386 95.771 333.447C95.149 333.891 94.917 334.461 94.57 335.102C94.194 335.796 93.703 336.442 93.318 337.137C93.055 337.613 92.872 338.137 92.531 338.567C92.13 339.072 91.596 339.124 90.982 339.236C89.641 339.481 88.261 339.52 86.908 339.349C86.747 339.328 86.582 339.304 86.436 339.232C86.211 339.121 86.054 338.908 85.927 338.692C85.482 337.934 85.126 336.616 85.52 335.755Z" fill="#E0AC9B"/>
<path d="M97.27 339.404C96.027 338.343 94.513 337.634 92.899 337.373C92.391 337.291 91.288 337.02 90.863 337.401C90.448 337.773 90.342 338.745 90.965 338.957C91.152 339.021 91.355 338.991 91.551 338.968C92.782 338.824 94.047 338.985 95.207 339.42C95.704 339.606 96.223 340.026 96.738 340.092C97.156 340.146 97.754 339.817 97.27 339.404Z" fill="#E0AC9B"/>
<path d="M100.346 337.598C100.57 337.009 99.195 336.318 98.814 336.071C97.942 335.505 96.99 335.046 95.986 334.769C94.994 334.496 93.952 334.433 92.93 334.532C92.521 334.572 92.314 334.727 91.955 334.854C91.703 334.944 91.241 334.846 91.14 335.184C91.088 335.359 91.217 335.54 91.37 335.641C91.818 335.939 92.409 335.806 92.942 335.736C94.163 335.576 95.431 335.83 96.504 336.43C97.291 336.87 99.242 338.596 100.181 337.811C100.265 337.743 100.318 337.671 100.346 337.598Z" fill="#E0AC9B"/>
<path d="M98.858 338.947C98.901 338.698 98.82 338.424 98.671 338.213C98.474 337.935 98.179 337.744 97.885 337.572C96.575 336.803 95.192 336.327 93.731 335.942C93.045 335.761 92.476 335.635 91.743 335.693C90.93 335.757 90.134 335.953 89.35 336.168C88.631 336.365 89.086 337.434 89.796 337.239C91.475 336.778 92.935 336.63 94.553 337.4C95.322 337.766 96.097 338.125 96.818 338.582C97.269 338.868 98.31 340.006 98.78 339.175C98.818 339.103 98.844 339.026 98.858 338.947Z" fill="#E0AC9B"/>
<path d="M95.068 332.85C94.828 332.851 94.616 332.9 94.462 333.026C94.218 333.226 94.167 333.541 94.276 333.84C94.432 334.27 94.85 334.324 95.259 334.37C96.527 334.514 97.766 334.903 98.893 335.503C99.363 335.753 99.834 336.196 100.369 336.293C100.784 336.368 101.375 336.061 100.886 335.65C99.682 334.637 98.428 333.747 96.906 333.287C96.471 333.155 95.681 332.847 95.068 332.85Z" fill="#E0AC9B"/>
<path d="M68.78 344.553C69.326 344.517 69.87 344.467 70.412 344.403C74.46 343.923 78.391 342.674 82.117 341.02C81.791 338.825 81.464 336.63 81.138 334.435C78.9 335.393 76.455 335.761 74.03 335.975C71.339 336.213 68.575 336.265 65.996 335.46C63.418 334.655 61.028 332.868 60.078 330.34C59.385 328.497 59.508 326.436 59.973 324.523C60.438 322.61 61.228 320.794 61.866 318.931C62.147 318.112 62.401 317.261 62.358 316.396C62.266 314.534 60.455 313.165 58.646 313.375C56.896 313.579 55.321 314.897 54.26 316.227C52.359 318.61 50.953 321.389 50.184 324.341C49.073 328.606 49.306 333.281 51.312 337.251C52.674 339.947 55.52 342.202 58.349 343.21C61.675 344.395 65.252 344.783 68.78 344.553Z" fill="#4D8BA1"/>
<path d="M84.565 290.06C83.631 288.891 82.39 288.144 81.442 287.039C77.404 282.333 68.258 281.769 64.751 287.441C62.831 290.546 62.901 294.696 64.718 297.83C64.987 298.295 66.037 299.322 65.937 299.896C65.779 300.801 64.33 300.512 63.612 300.534C61.356 300.603 59.074 300.902 57.03 301.92C54.965 302.948 52.682 305.11 52.635 307.579C52.589 310.003 53.82 312.51 56.589 311.142C57.589 310.648 58.389 309.831 59.329 309.231C61.166 308.06 63.304 307.928 65.225 307.016C66.139 306.582 66.974 305.905 67.401 304.988C67.708 304.329 67.788 303.591 67.919 302.875C68.129 301.728 68.219 300.448 69.393 300.084C70.468 299.751 71.482 300.32 72.318 299.251C72.942 298.453 73.162 297.353 73.489 296.415C73.828 295.444 74.644 293.372 76.005 293.625C76.844 293.781 76.592 294.359 77.06 294.836C77.699 295.487 78.424 295.429 79.315 295.257C80.76 294.978 82.239 294.686 83.499 293.925C84.436 293.358 85.278 292.378 85.14 291.291C85.08 290.824 84.858 290.426 84.565 290.06Z" fill="black"/>
<path d="M78.682 300.72C78.282 300.731 77.972 301.085 77.572 301.181C77.034 301.31 76.26 301.242 76.004 300.671C75.94 300.529 75.713 300.63 75.755 300.776C75.931 301.382 76.539 301.628 77.125 301.667C77.651 301.701 78.72 301.537 78.824 300.907C78.839 300.816 78.786 300.717 78.682 300.72Z" fill="#110809"/>
<path d="M56.154 416.879C56.154 411.24 66.132 408.875 71.118 408.865C77.053 408.854 86.082 411.042 86.082 416.879" stroke="#110809" stroke-width="2" stroke-miterlimit="10"/>
<path d="M71.286 418.387V409.02" stroke="#110809" stroke-width="2" stroke-miterlimit="10"/>
<path d="M86.082 420.689C87.4345 420.689 88.531 419.592 88.531 418.24C88.531 416.887 87.4345 415.791 86.082 415.791C84.7294 415.791 83.633 416.887 83.633 418.24C83.633 419.592 84.7294 420.689 86.082 420.689Z" fill="#110809"/>
<path d="M71.242 420.689C72.5945 420.689 73.691 419.592 73.691 418.24C73.691 416.887 72.5945 415.791 71.242 415.791C69.8894 415.791 68.793 416.887 68.793 418.24C68.793 419.592 69.8894 420.689 71.242 420.689Z" fill="#110809"/>
<path d="M56.401 420.689C57.7535 420.689 58.85 419.592 58.85 418.24C58.85 416.887 57.7535 415.791 56.401 415.791C55.0484 415.791 53.952 416.887 53.952 418.24C53.952 419.592 55.0484 420.689 56.401 420.689Z" fill="#110809"/>
<path d="M168.469 343.813H31.464V346.783H168.469V343.813Z" fill="#1C2854"/>
<path d="M168.469 344.815H166.265V425.55H168.469V344.815Z" fill="#1C2854"/>
<path d="M33.668 344.815H31.464V425.55H33.668V344.815Z" fill="#1C2854"/>
<path d="M158.542 346.55H41.391V348.878H158.542V346.55Z" fill="#110809"/>
<path d="M126.98 343.902H88.616C88.616 343.161 89.216 342.561 89.957 342.561H126.981L126.98 343.902Z" fill="white"/>
<path d="M133.571 342.561H95.235L102.072 322.313C102.307 321.617 103.005 321.143 103.794 321.143H138.351C139.568 321.143 140.435 322.231 140.073 323.303L133.571 342.561Z" fill="#FFF5F5"/>
<path d="M133.571 342.561H95.051V343.902H133.571V342.561Z" fill="#C9CDD1"/>
<path d="M118.578 329.762C118.522 329.748 118.472 329.751 118.427 329.763C118.388 329.74 118.34 329.725 118.282 329.724C117.35 329.715 116.552 330.444 116.497 331.3C116.443 332.139 117.192 332.761 118.057 332.833C118.92 332.905 119.726 332.42 119.849 331.603C119.97 330.799 119.434 329.977 118.578 329.762ZM118.169 332.331C117.421 332.299 116.712 331.694 117.217 330.814C117.427 330.448 117.851 330.254 118.299 330.232C118.32 330.231 118.34 330.228 118.359 330.223C118.38 330.235 118.404 330.245 118.432 330.252C119.674 330.564 119.566 332.391 118.169 332.331Z" fill="#C9CDD1"/>
<path d="M353.1 382.397H468.806C470.664 377.031 470.664 370.899 468.806 364H356.862C354.784 364 353.1 365.684 353.1 367.762V382.397Z" fill="#FF9191"/>
<path d="M338.092 405.635H453.798C456.773 397.446 456.58 389.557 453.798 381.913H341.854C339.776 381.913 338.092 383.597 338.092 385.675V405.635Z" fill="#79B4C9"/>
<path d="M353.613 397.889H424.237C425.857 397.889 427.171 396.575 427.171 394.955V390.656C427.171 389.036 425.857 387.722 424.237 387.722H353.613C351.993 387.722 350.679 389.036 350.679 390.656V394.955C350.68 396.575 351.993 397.889 353.613 397.889Z" fill="#4D8BA1"/>
<path opacity="0.58" d="M445.81 401.762C447.013 401.762 447.989 400.787 447.989 399.583V388.932C447.989 387.729 447.014 386.753 445.81 386.753C444.607 386.753 443.632 387.728 443.632 388.932V399.583C443.632 400.786 444.607 401.762 445.81 401.762Z" fill="#404D5C"/>
<path d="M328.41 424.031H444.116C446.592 418.399 446.752 412.14 444.116 405.15H332.172C330.094 405.15 328.41 406.834 328.41 408.912V424.031Z" fill="#404D5C"/>
<path opacity="0.54" d="M453.314 373.198C453.314 375.872 455.482 378.039 458.155 378.039C460.829 378.039 462.996 375.871 462.996 373.198C462.996 370.524 460.829 368.357 458.155 368.357C455.482 368.357 453.314 370.525 453.314 373.198Z" fill="#FF9191"/>
<path d="M395.023 342.07C395.098 341.724 395.177 341.38 395.261 341.036C395.55 339.851 395.919 338.634 396.742 337.734C398.951 335.318 401.875 337.357 402.673 339.842C404.301 344.916 403.3 350.275 403.246 355.433C403.233 356.629 402.957 358.767 401.763 359.421C400.843 359.925 398.14 360.34 397.103 360.094C396.105 359.857 395.325 359.034 394.898 358.102C394.47 357.17 394.345 356.131 394.257 355.109C393.882 350.755 394.101 346.34 395.023 342.07Z" fill="#E0AC9B"/>
<path d="M393.872 357.272C394.169 356.896 394.602 356.626 395.228 356.53C395.824 356.438 396.431 356.535 397.034 356.55C398.066 356.574 399.103 356.351 400.033 355.904C400.832 355.52 401.615 354.959 402.499 355.007C403.083 355.038 403.618 355.337 404.098 355.672C405.479 356.637 406.625 357.883 408.103 358.713C409.707 359.614 411.498 360.182 413.328 360.367C414.5 360.485 415.782 360.483 416.701 361.219C417.132 361.565 417.454 362.107 417.369 362.653C417.285 363.192 416.822 363.609 416.31 363.797C415.321 364.16 413.928 364.096 412.881 364.131C411.678 364.171 410.473 364.123 409.27 364.114C404.879 364.081 400.488 364.06 396.097 364.069C395.586 364.07 395.066 364.069 394.58 363.91C393.446 363.537 393.369 362.452 393.32 361.411C393.26 360.124 393.061 358.299 393.872 357.272Z" fill="#CC4949"/>
<path d="M369.307 353.364C369.291 353.63 369.275 353.895 369.259 354.161C369.192 355.27 368.431 356.52 369.203 357.462C369.885 358.293 371.337 359.2 372.206 359.895C373.192 360.685 375.162 361.59 376.357 360.688C377.642 359.718 377.628 356.818 377.826 355.384C378.046 353.787 378.267 352.19 378.487 350.594C378.624 349.604 378.76 348.612 378.808 347.614C378.921 345.233 379.491 340.968 377.743 339.066C375.165 336.262 371.061 340.623 370.287 343.171C369.839 344.646 369.743 346.202 369.649 347.741C369.534 349.615 369.421 351.49 369.307 353.364Z" fill="#E0AC9B"/>
<path d="M370.473 356.662C370.127 356.514 369.793 356.34 369.472 356.139C368.126 355.297 366.213 357.477 364.864 358.115C363.185 358.909 361.363 359.186 359.556 359.527C358.237 359.776 355.862 359.693 355.068 360.962C354.501 361.868 354.921 363.268 355.875 363.757C356.764 364.212 358.034 363.801 358.984 363.82C359.967 363.839 360.95 363.858 361.933 363.876C364.998 363.932 368.063 363.981 371.129 364.024C373.035 364.051 376.675 365.049 378.134 363.396C379.024 362.388 378.799 360.851 378.521 359.536C378.331 358.635 378.141 357.735 377.95 356.834C375.551 357.323 372.788 357.655 370.473 356.662Z" fill="#CC4949"/>
<path d="M338.546 223.159C338.324 222.988 338.092 222.817 337.85 222.644C336.654 221.788 335.302 220.593 333.758 220.538C333.49 220.529 333.225 220.597 332.965 220.665C332.667 220.743 332.366 220.821 332.093 220.963C330.866 221.598 330.887 222.897 331.671 223.882C333.358 225.999 335.694 227.482 337.984 228.925C338.132 229.018 338.288 229.114 338.462 229.128C338.718 229.148 338.951 228.988 339.145 228.819C339.951 228.116 340.478 227.155 340.988 226.216C341.026 226.145 341.066 226.071 341.067 225.991C341.069 225.893 341.014 225.805 340.962 225.722C340.273 224.637 339.495 223.889 338.546 223.159Z" fill="#E0AC9B"/>
<path d="M325.987 215.023C327.421 215.988 330.75 217.665 332.639 218.732C333.728 219.347 335.273 220.013 335.983 221.092C336.651 222.107 336.94 223.959 336.22 225.004C335.83 225.57 335.167 225.906 334.489 226.018C333.811 226.13 333.115 226.041 332.444 225.896C331.02 225.59 329.642 225.031 328.44 224.203C327.99 223.893 327.17 223.41 326.968 222.881C326.805 222.455 327.018 221.791 327.545 221.769C327.266 221.493 327.195 221.029 327.379 220.683C327.563 220.336 327.987 220.135 328.372 220.212C328.116 219.891 328.12 219.389 328.383 219.073C328.908 218.44 329.345 218.948 329.872 219.119C330.046 218.849 329.816 218.855 329.587 218.727C328.095 217.891 327.195 217.371 325.775 216.415C325.093 215.954 325.305 214.565 325.987 215.023Z" fill="#E0AC9B"/>
<path d="M334.529 216.347C334.592 216.14 334.694 215.949 334.883 215.86C335.249 215.688 335.677 216.049 335.762 216.444C335.847 216.84 335.715 217.245 335.655 217.645C335.442 219.054 336.112 220.423 336.493 221.796C336.526 221.914 336.556 222.037 336.532 222.157C336.494 222.342 336.328 222.478 336.15 222.543C335.762 222.686 335.311 222.55 334.996 222.282C333.65 221.136 334.181 218.083 334.469 216.593C334.486 216.513 334.504 216.429 334.529 216.347Z" fill="#E0AC9B"/>
<path d="M407.134 245.563C407.537 245.361 406.865 243.367 406.314 243.426C404.273 243.574 401.769 243.367 400.145 244.396C399.725 244.662 400.662 246.121 401.078 245.857C402.308 245.077 404.144 245.457 405.762 245.492C406.324 245.531 406.676 245.792 407.134 245.563Z" fill="#E0AC9B"/>
<path d="M390.293 200.551C390.373 201.609 390.825 206.323 390.817 207.263C390.803 208.91 387.809 216.283 386.178 216.251C384.389 216.216 381.684 209.078 381.68 207.379C381.673 205.067 382.099 200.492 382.1 200.462C383.265 194.442 389.965 196.214 390.293 200.551Z" fill="#E0AC9B"/>
<path d="M369.801 264.319H403.408V246.343H369.801V264.319Z" fill="#1E3ABA"/>
<path d="M381.955 202.171C382.034 201.179 382.099 200.474 382.099 200.462C383.266 194.442 389.966 196.214 390.293 200.551C390.325 200.97 390.415 201.964 390.512 203.069C390.413 203.215 390.306 203.339 390.186 203.432C387.919 205.343 384.447 204.894 381.955 202.171Z" fill="url(#paint5_linear_70_4)"/>
<path d="M385.389 257.888C386.338 252.957 388.818 249.096 394.558 249.097C398.751 249.098 400.502 251.709 402.269 255.037C404.64 259.502 405.238 264.063 405.492 269.066C406.164 282.319 406.304 295.591 406.288 308.859C406.274 320.735 406.181 332.582 406.432 344.456C406.47 346.252 406.515 348.048 406.568 349.844C403.585 350.004 400.597 350.065 397.611 350.027C396.147 350.008 394.649 350.036 393.191 349.909C392.503 349.849 392.611 350.165 392.513 349.285C392.427 348.519 392.445 347.727 392.408 346.956C392.125 341.012 391.728 335.074 391.261 329.141C390.45 318.826 389.407 308.533 388.452 298.231C387.761 290.954 387.117 283.763 385.713 276.657C384.57 270.874 384.279 263.662 385.389 257.888Z" fill="#DE9C40"/>
<path d="M371.145 350.058C374.27 350.057 377.394 350.055 380.519 350.054C380.102 350.054 383.816 318.878 384.117 316.231C385.878 300.749 387.82 284.998 387.82 269.394C387.985 264.022 388.348 258.514 387.053 253.278C386.07 249.305 382.019 245.134 377.931 244.435C372.313 243.475 369.87 250.166 368.859 254.617C368.001 258.394 367.924 262.299 367.851 266.171C367.737 272.206 367.622 278.241 367.508 284.276C367.3 295.246 367.093 306.218 367.252 317.19C367.411 328.163 368.238 339.104 368.575 350.057C369.431 350.059 370.288 350.059 371.145 350.058Z" fill="#FFC370"/>
<path d="M370.929 212.574C371.175 211.486 370.237 209.138 372.002 207.72C373.733 207.204 375.459 206.665 377.201 206.187C378.697 205.777 380.172 205.174 381.75 205.302C381.809 205.307 381.871 205.314 381.915 205.353C381.962 205.395 381.975 205.463 381.986 205.525C382.057 205.951 382.136 206.378 382.288 206.782C382.707 207.891 383.759 209.132 384.687 209.873C385.917 210.855 387.157 210.201 388.094 209.191C388.637 208.605 389.068 208.037 389.439 207.339C389.788 206.683 390.322 206.155 390.7 205.511C390.734 205.454 390.769 205.393 390.826 205.359C390.9 205.314 390.993 205.322 391.079 205.332C391.582 205.388 392.086 205.444 392.589 205.5C392.902 205.535 393.215 205.57 393.521 205.643C394.459 205.867 395.373 206.051 396.307 206.296C397.826 206.694 399.333 207.139 400.838 207.588C402.603 209.006 400.781 211.495 401.027 212.582C401.762 215.831 401.342 255.123 401.342 255.123H371.359C371.359 255.125 370.194 215.823 370.929 212.574Z" fill="white"/>
<path d="M381.447 188.134C382.59 187.506 384.776 188.195 386.086 188.134C387.396 188.195 389.418 188.173 390.468 188.947C392.69 190.587 392.934 194.063 392.165 196.664C392.036 197.1 391.77 198.181 391.629 198.613C390.844 201.017 389.518 201.668 388.779 202.236C387.036 203.576 384.701 203.714 382.919 202.342C381.896 201.554 381.325 200.324 380.857 199.121C380.025 196.982 379.474 194.982 379.643 192.674C379.748 191.243 380.02 188.918 381.447 188.134Z" fill="#E0AC9B"/>
<path d="M363.996 256.891C363.885 260.844 363.215 265.659 367.366 267.964C368.002 268.317 368.722 268.489 369.442 268.595C374.517 269.342 381.34 266.599 383.751 261.832C385.062 259.24 384.764 255.733 384.604 252.937C383.689 237.015 382.321 221.104 380.298 205.276C378.03 205.472 375.713 206.084 373.488 206.593C371.863 206.964 370.101 207.252 369.003 208.624C367.4 210.627 367.071 213.638 366.626 216.076C365.244 223.646 364.891 231.361 364.593 239.05C364.362 244.995 364.163 250.943 363.996 256.891Z" fill="#CC4949"/>
<path d="M405.268 260.761C405.287 259.64 405.06 258.498 404.758 257.259C403.932 253.868 403.707 250.53 403.1 247.104C402.739 245.065 403.014 243.522 403.364 241.444C404.186 236.557 404.807 231.637 405.224 226.699C405.493 223.521 405.677 220.335 405.777 217.147C405.865 214.343 406.453 211.432 404.677 209.071C402.325 205.944 396.428 205.437 392.769 205.004C392.609 204.985 392.434 204.971 392.3 205.06C392.156 205.156 392.106 205.341 392.067 205.509C389.85 215.076 388.848 224.867 388.232 234.653C387.924 239.546 387.711 244.443 387.479 249.34C387.288 253.384 386.266 257.734 387.897 261.599C389.769 266.036 395.054 266.873 399.263 266.852C399.848 266.849 400.439 266.837 401.01 266.707C402.356 266.402 403.503 265.45 404.225 264.273C404.964 263.068 405.248 261.926 405.268 260.761Z" fill="#CC4949"/>
<path d="M337.491 223.699C337.817 223.12 338.152 222.546 338.496 221.978C344.632 224.331 350.554 227.241 356.166 230.662C358.464 232.063 362.757 235.814 362.088 238.907C361.891 239.819 361.255 240.593 360.482 241.114C358.857 242.21 356.699 242.249 354.823 241.682C352.947 241.114 351.287 240.01 349.658 238.92C346.508 236.813 343.359 234.706 340.209 232.599C338.832 231.678 336.786 230.784 335.646 229.614C334.737 228.681 335.088 228.342 335.709 227.08C336.271 225.937 336.865 224.809 337.491 223.699Z" fill="#CC4949"/>
<path d="M353.88 235.28C353.891 235.254 353.908 235.233 353.919 235.207C355.008 231.893 357.718 224.738 359.505 221.186C361.159 217.897 362.563 214.364 364.785 211.4C367.022 208.416 369.23 207.314 372.917 206.599C378.457 205.524 379.112 210.24 377.22 214.462C373.53 222.696 368.879 230.499 363.391 237.663C361.941 239.556 360.089 241.576 357.705 241.547C354.728 241.511 352.787 237.91 353.88 235.28Z" fill="#CC4949"/>
<path d="M406.951 242.789C406.413 242.857 405.361 243.283 404.731 243.989C404.06 244.742 403.029 245.93 402.677 246.21C401.024 247.525 399.24 248.642 397.352 249.591C396.792 249.872 397.328 250.956 397.89 250.673C399.399 249.915 400.843 249.048 402.214 248.067C402.314 248.214 402.417 248.359 402.522 248.502C400.848 250.216 398.943 251.61 396.793 252.663C396.229 252.939 396.766 254.022 397.331 253.745C399.554 252.656 401.542 251.223 403.276 249.448C403.373 249.561 403.471 249.674 403.57 249.785C402.16 251.574 400.438 252.98 398.418 253.994C397.858 254.275 398.394 255.358 398.956 255.076C401.088 254.006 402.906 252.522 404.401 250.641C404.516 250.75 404.632 250.858 404.749 250.964C403.909 252.385 402.899 253.625 401.33 254.216C400.737 254.439 401.254 255.56 401.845 255.338C403.57 254.689 404.706 253.314 405.61 251.798L405.628 251.813C406.719 250.77 407.61 249.868 408.479 248.797C409.261 247.833 409.838 246.822 410.156 245.663C410.594 244.068 407.915 242.668 406.951 242.789Z" fill="#E0AC9B"/>
<path d="M406.131 243.125C405.834 242.716 405.617 242.415 405.54 242.298C405.43 242.13 405.316 241.948 405.322 241.747C405.329 241.496 405.518 241.293 405.696 241.117C410.787 236.055 416.08 231.197 421.557 226.557C423.203 225.162 425.315 225.06 427.003 226.451C428.694 227.845 428.525 230.747 427.762 232.598C427.736 232.66 427.71 232.721 427.684 232.782C427.041 234.245 426.008 235.505 424.938 236.695C420.588 241.531 415.358 245.566 409.592 248.574C409.955 248.386 407.36 244.82 406.131 243.125Z" fill="#CC4949"/>
<path d="M398.03 208.657C398.756 207.998 399.622 207.593 400.521 207.422C400.545 207.417 400.569 207.418 400.593 207.414C400.801 207.379 401.01 207.353 401.22 207.343C405.795 206.996 409.817 210.881 412.821 213.768C414.605 215.482 416.872 216.78 418.759 218.413C420.864 220.518 422.947 222.529 425.226 224.494C425.963 225.129 426.708 225.773 427.268 226.57C427.828 227.366 428.191 228.344 428.066 229.309C427.66 232.457 424.309 234.45 421.374 233.95C419.045 233.553 417.04 232.124 415.149 230.707C411.556 228.014 408.041 225.219 404.609 222.324C401.845 219.994 397.99 217.715 396.737 214.215C396.054 212.308 396.514 210.033 398.03 208.657Z" fill="#CC4949"/>
<path d="M378.397 188.789C378.236 187.88 378.22 186.986 378.642 186.262C379.058 185.548 379.626 184.849 379.618 184.023C379.6 182.205 382.197 181.402 383.638 180.816C384.652 180.403 385.722 179.983 386.809 180.117C387.493 180.202 388.133 180.504 388.722 180.862C390.819 182.137 392.752 184.242 393.117 186.689C393.377 188.425 393.876 191.357 392.75 192.912C391.796 194.229 391.461 192.54 391.069 191.557C390.784 190.845 390.466 190.123 389.927 189.578C389.388 189.032 388.578 188.691 387.841 188.904C387.269 189.069 386.835 189.528 386.316 189.82C385.478 190.291 384.395 190.293 383.555 189.824C382.968 189.496 382.433 188.939 381.761 188.981C381.223 189.015 380.778 189.453 380.573 189.952C380.368 190.451 380.356 191.005 380.346 191.544C380.328 192.569 380.322 193.596 380.291 194.621C379.666 193.724 379.229 192.609 379.037 191.533C378.894 190.72 378.565 189.746 378.397 188.789Z" fill="#110809"/>
<path d="M391.918 194.761C391.918 195.395 392.206 195.908 392.561 195.908C392.916 195.908 393.204 195.394 393.204 194.761C393.204 194.127 392.916 193.614 392.561 193.614C392.206 193.614 391.918 194.127 391.918 194.761Z" fill="#E0AC9B"/>
<path d="M378.979 194.761C378.979 195.395 379.267 195.908 379.622 195.908C379.977 195.908 380.265 195.394 380.265 194.761C380.265 194.127 379.977 193.614 379.622 193.614C379.267 193.614 378.979 194.127 378.979 194.761Z" fill="#E0AC9B"/>
<path d="M385.667 198.354C385.37 198.36 385.072 198.322 384.786 198.243C384.567 198.182 384.3 198.109 384.14 198.27C383.438 198.975 384.36 199.903 385.059 200.143C385.181 200.185 385.311 200.205 385.44 200.21C386.207 200.242 386.803 199.753 387.047 199.037C387.125 198.809 387.146 198.523 386.971 198.358C386.773 198.172 386.458 198.246 386.192 198.298C386.019 198.332 385.843 198.35 385.667 198.354Z" fill="#110809"/>
<path d="M283.528 340.314L275.849 341.479L285.868 407.521L293.547 406.356L283.528 340.314Z" fill="#2D6F87"/>
<path d="M277.007 327.168L275.835 341.486L283.514 340.321L277.007 327.168Z" fill="#FFC370"/>
<path d="M290.492 411.537L290.288 411.568C288.224 411.881 286.297 410.462 285.984 408.397L285.619 405.991L293.298 404.826L293.663 407.232C293.976 409.297 292.557 411.224 290.492 411.537Z" fill="#FFFFF6"/>
<path d="M277.987 330.226L277.059 330.366L276.289 325.295L277.218 325.154L277.987 330.226Z" fill="url(#paint6_linear_70_4)"/>
<path d="M299.225 326.989L292.259 327.287L295.512 403.408L302.479 403.11L299.225 326.989Z" fill="#CC4949"/>
<path d="M295.432 318.328C293.238 318.422 291.536 320.276 291.63 322.47L291.72 324.572C289.172 327.163 287.753 330.695 287.833 334.34L288.348 357.306L290.307 357.261L289.792 334.296C289.737 331.848 290.472 329.457 291.844 327.469L291.921 329.265C292.015 331.459 293.869 333.161 296.063 333.067C298.257 332.973 299.959 331.119 299.865 328.925L299.574 322.129C299.48 319.936 297.625 318.234 295.432 318.328Z" fill="#2D6F87"/>
<path d="M284.02 377.522L284.92 398.561C285.047 401.533 287.56 403.84 290.532 403.713C293.504 403.586 295.811 401.073 295.684 398.101L294.387 367.766C294.283 365.334 292.227 363.447 289.795 363.551C287.363 363.655 285.476 365.711 285.58 368.143L286.647 393.096C286.716 394.717 288.087 395.975 289.708 395.906C291.329 395.837 292.588 394.466 292.518 392.845L291.723 374.253" stroke="#110809" stroke-miterlimit="10"/>
<path d="M311.272 385.633L309.482 406.615C309.229 409.579 311.427 412.188 314.392 412.44C317.356 412.693 319.964 410.495 320.217 407.53L322.798 377.277C323.005 374.852 321.206 372.718 318.781 372.511C316.356 372.304 314.222 374.103 314.015 376.528L311.892 401.413C311.754 403.03 312.953 404.452 314.57 404.59C316.187 404.728 317.609 403.529 317.747 401.912L319.329 383.37" stroke="#110809" stroke-miterlimit="10"/>
<path d="M307.098 320.24L303.403 396.337L309.649 396.64L313.344 320.543L307.098 320.24Z" fill="#110809"/>
<path d="M306.222 412.429L309.654 396.63L303.408 396.327L306.222 412.429Z" fill="url(#paint7_linear_70_4)"/>
<path d="M309.909 315.043L311.06 315.099C312.467 315.167 313.552 316.363 313.484 317.77L313.264 322.302L307.019 321.999L307.239 317.467C307.306 316.059 308.502 314.974 309.909 315.043Z" fill="#E9E8ED"/>
<path d="M305.987 408.797L306.742 408.834L306.459 414.678L305.703 414.641L305.987 408.797Z" fill="url(#paint8_linear_70_4)"/>
<path d="M299.486 437.054C289.154 437.054 280.392 429.463 278.92 419.236L275 392H323.972L320.052 419.236C318.58 429.463 309.818 437.054 299.486 437.054Z" fill="#DE9C40"/>
<path d="M314.57 404.591C316.187 404.729 317.609 403.53 317.747 401.913L319.329 383.371" stroke="#110809" stroke-miterlimit="10"/>
<path d="M314.015 376.528L311.892 401.413C311.754 403.03 312.953 404.452 314.57 404.59" stroke="#110809" stroke-miterlimit="10"/>
<path d="M119.758 270.091C119.368 266.986 118.625 263.925 117.546 260.987" stroke="#1959A8" stroke-width="0.75" stroke-miterlimit="10"/>
<path d="M141.072 369.096C141 369.06 140.927 369.024 140.855 368.988Z" fill="#FFC370"/>
</g>
<defs>
<linearGradient id="paint0_linear_70_4" x1="14.9544" y1="168.815" x2="100.403" y2="213.297" gradientUnits="userSpaceOnUse">
<stop offset="7e-08" stop-color="#00548C"/>
<stop offset="0.4885" stop-color="#4892BA" stop-opacity="0.6092"/>
<stop offset="1" stop-color="#90CFE8" stop-opacity="0.2"/>
</linearGradient>
<linearGradient id="paint1_linear_70_4" x1="379.004" y1="-33.6425" x2="128.487" y2="357.023" gradientUnits="userSpaceOnUse">
<stop offset="7e-08" stop-color="#00548C"/>
<stop offset="0.4885" stop-color="#4892BA" stop-opacity="0.6092"/>
<stop offset="1" stop-color="#90CFE8" stop-opacity="0.2"/>
</linearGradient>
<linearGradient id="paint2_linear_70_4" x1="420.234" y1="65.173" x2="376.884" y2="151.201" gradientUnits="userSpaceOnUse">
<stop offset="7e-08" stop-color="#00548C"/>
<stop offset="0.4885" stop-color="#4892BA" stop-opacity="0.6092"/>
<stop offset="1" stop-color="#90CFE8" stop-opacity="0.2"/>
</linearGradient>
<linearGradient id="paint3_linear_70_4" x1="350.234" y1="263.173" x2="306.884" y2="349.201" gradientUnits="userSpaceOnUse">
<stop offset="7e-08" stop-color="#00548C"/>
<stop offset="0.4885" stop-color="#4892BA" stop-opacity="0.6092"/>
<stop offset="1" stop-color="#90CFE8" stop-opacity="0.2"/>
</linearGradient>
<linearGradient id="paint4_linear_70_4" x1="357.017" y1="33.3345" x2="323.053" y2="86.2995" gradientUnits="userSpaceOnUse">
<stop offset="7e-08" stop-color="#00548C"/>
<stop offset="0.4885" stop-color="#4892BA" stop-opacity="0.6092"/>
<stop offset="1" stop-color="#90CFE8" stop-opacity="0.2"/>
</linearGradient>
<linearGradient id="paint5_linear_70_4" x1="386.233" y1="192.539" x2="386.233" y2="206.55" gradientUnits="userSpaceOnUse">
<stop offset="4e-07" stop-color="#BA7461"/>
<stop offset="1" stop-color="#E0AC9B"/>
</linearGradient>
<linearGradient id="paint6_linear_70_4" x1="276.289" y1="327.76" x2="277.987" y2="327.76" gradientUnits="userSpaceOnUse">
<stop offset="4.7e-07" stop-color="#E34D40"/>
<stop offset="0.1698" stop-color="#E34D40"/>
<stop offset="0.3284" stop-color="#DD493E"/>
<stop offset="0.5329" stop-color="#CD3D3A"/>
<stop offset="0.762" stop-color="#B32932"/>
<stop offset="0.9911" stop-color="#911028"/>
</linearGradient>
<linearGradient id="paint7_linear_70_4" x1="306.496" y1="393.718" x2="308.065" y2="415.001" gradientUnits="userSpaceOnUse">
<stop stop-color="#1E0AA1"/>
<stop offset="1" stop-color="#3030C9"/>
</linearGradient>
<linearGradient id="paint8_linear_70_4" x1="305.149" y1="411.91" x2="307.279" y2="411.478" gradientUnits="userSpaceOnUse">
<stop stop-color="#1E0AA1"/>
<stop offset="1" stop-color="#3030C9"/>
</linearGradient>
<clipPath id="clip0_70_4">
<rect width="500" height="500" fill="white"/>
</clipPath>
</defs>
</svg>
