<svg width="42" height="35" viewBox="0 0 42 35" fill="none" xmlns="http://www.w3.org/2000/svg">
<g clip-path="url(#clip0_5444_5336)">
<path d="M30 17.5C30 9.21573 23.2843 2.5 15 2.5C6.71573 2.5 0 9.21573 0 17.5C0 25.7843 6.71573 32.5 15 32.5C23.2843 32.5 30 25.7843 30 17.5Z" fill="#1BB8CD"/>
<mask id="mask0_5444_5336" style="mask-type:luminance" maskUnits="userSpaceOnUse" x="0" y="2" width="30" height="31">
<path d="M30 2.5H0V32.5H30V2.5Z" fill="white"/>
</mask>
<g mask="url(#mask0_5444_5336)">
<mask id="mask1_5444_5336" style="mask-type:luminance" maskUnits="userSpaceOnUse" x="0" y="2" width="30" height="31">
<path d="M29.9902 2.5H0V32.5H29.9902V2.5Z" fill="white"/>
</mask>
<g mask="url(#mask1_5444_5336)">
<path d="M14.1227 2.5H15.8803C16.3821 2.56284 16.8867 2.60799 17.3855 2.69636C21.1566 3.31489 24.5508 5.34584 26.8785 8.3766C29.2062 11.4074 30.2928 15.2106 29.9175 19.0136C29.6467 22.1332 28.3601 25.0779 26.255 27.3961C24.9314 28.9317 23.304 30.1767 21.4756 31.0526C19.6471 31.9284 17.6571 32.4162 15.6309 32.4853C12.7244 32.6491 9.83723 31.9196 7.35736 30.3948C5.48721 29.3031 3.8798 27.8137 2.64881 26.0321C1.41782 24.2506 0.593348 22.2203 0.233699 20.0849C0.128636 19.5222 0.0765883 18.9498 0 18.3822V16.6207C0.0235656 16.4096 0.0481112 16.1995 0.0716768 15.9884C0.410541 12.738 1.79849 9.68629 4.02565 7.29473C6.25281 4.90318 9.19806 3.30181 12.4161 2.73271C12.9817 2.63354 13.5542 2.57953 14.1227 2.5ZM12.6695 19.971C12.6066 19.9169 12.5546 19.8728 12.5045 19.8305C11.7628 19.1517 11.0212 18.4726 10.2795 17.7931C9.69037 17.2609 9.1307 16.7022 8.5121 16.2093C8.30997 16.0493 8.06854 15.9467 7.81311 15.912C7.55767 15.8774 7.29762 15.9121 7.0602 16.0125C6.82278 16.1129 6.61674 16.2753 6.46362 16.4826C6.31051 16.69 6.21595 16.9347 6.18989 17.1912C6.15997 17.4542 6.19744 17.7206 6.29878 17.9652C6.40012 18.2098 6.56201 18.4246 6.76921 18.5894C8.38083 20.0531 9.99083 21.5187 11.5992 22.9864C11.7434 23.1549 11.9232 23.2895 12.1255 23.3804C12.3278 23.4714 12.5477 23.5165 12.7695 23.5126C12.9913 23.5087 13.2095 23.4557 13.4085 23.3576C13.6074 23.2595 13.7823 23.1187 13.9204 22.9451C17.0258 19.8639 20.1303 16.7824 23.2337 13.7005C23.3172 13.618 23.3987 13.5336 23.4733 13.4443C23.6152 13.2757 23.7181 13.0779 23.7747 12.865C23.8313 12.6521 23.8403 12.4293 23.801 12.2125C23.7618 11.9957 23.6752 11.7903 23.5474 11.6108C23.4197 11.4313 23.2539 11.2822 23.0619 11.1741C22.7503 10.9935 22.3845 10.9297 22.0301 10.9941C21.6757 11.0585 21.3558 11.2469 21.1276 11.5256C18.3855 14.2658 15.6443 17.0066 12.9042 19.748C12.8325 19.8187 12.7549 19.8895 12.6695 19.971Z" fill="#1BB8CD"/>
<path d="M12.6702 19.9701C12.7556 19.8886 12.8342 19.8178 12.9078 19.7432C15.6493 17.0024 18.3904 14.2616 21.1312 11.5208C21.3594 11.2421 21.6794 11.0537 22.0338 10.9893C22.3882 10.9249 22.7539 10.9887 23.0656 11.1693C23.2576 11.2774 23.4233 11.4265 23.5511 11.606C23.6788 11.7855 23.7655 11.9909 23.8047 12.2077C23.844 12.4245 23.835 12.6472 23.7784 12.8601C23.7217 13.073 23.6188 13.2708 23.477 13.4394C23.4024 13.5298 23.3199 13.6132 23.2374 13.6957C20.1333 16.7776 17.0289 19.8591 13.9241 22.9403C13.7859 23.1138 13.6111 23.2547 13.4121 23.3528C13.2132 23.4509 12.995 23.5038 12.7732 23.5078C12.5514 23.5117 12.3315 23.4666 12.1292 23.3756C11.9268 23.2846 11.7471 23.1501 11.6029 22.9815C9.99388 21.5152 8.38391 20.0492 6.77294 18.5836C6.56574 18.4188 6.40386 18.204 6.30252 17.9594C6.20117 17.7148 6.16367 17.4484 6.19359 17.1854C6.21965 16.9289 6.31421 16.6842 6.46732 16.4768C6.62044 16.2695 6.82648 16.1071 7.0639 16.0067C7.30132 15.9063 7.56137 15.8716 7.81681 15.9062C8.07224 15.9409 8.31367 16.0435 8.51581 16.2035C9.13244 16.6944 9.69407 17.2551 10.2832 17.7873C11.0262 18.4648 11.7678 19.1439 12.5082 19.8247C12.5543 19.8748 12.6074 19.917 12.6702 19.9701Z" fill="white"/>
</g>
</g>
</g>
<defs>
<clipPath id="clip0_5444_5336">
<rect width="30" height="30" fill="white" transform="translate(0 2.5)"/>
</clipPath>
</defs>
</svg>
