<svg width="150" height="115" viewBox="0 0 150 115" fill="none" xmlns="http://www.w3.org/2000/svg">
<g clip-path="url(#clip0_2_1005)">
<g clip-path="url(#clip1_2_1005)">
<path d="M5.41849 85.5425C4.99393 85.179 4.04831 84.0244 4.77843 82.6831C5.04539 82.191 5.61469 81.9498 6.12931 81.7311C6.64393 81.5156 7.18428 81.3258 7.60884 80.9656C8.41294 80.2837 8.63165 79.1483 9.16557 78.2381C9.77668 77.1928 10.9185 76.408 12.1246 76.4627C13.5077 76.527 14.6591 77.6527 15.1802 78.9393C15.7012 80.2258 15.7205 81.6539 15.7302 83.0434C15.7366 83.8121 15.7012 84.6773 15.1384 85.1951C14.6173 85.6744 13.8358 85.6808 13.1314 85.6583C10.6162 85.5811 8.09773 85.5039 5.58253 85.4267" fill="#F5F5F5"/>
<path d="M19.8568 64.7806H0.00211334L3.57873 86.1084C3.73633 87.0411 4.40855 87.7584 5.27376 88.006C5.29627 88.0125 5.31879 88.0189 5.34452 88.0253C5.40241 88.0414 5.46031 88.0607 5.52142 88.0704C5.65329 88.0961 5.78838 88.1122 5.92668 88.1154C5.92668 88.1218 5.92668 88.1282 5.9299 88.1347L6.02639 88.1186H14.8746C15.0419 88.1186 15.2027 88.1025 15.3603 88.0704C16.4056 87.9095 17.2419 87.0701 17.3706 85.9861L19.0945 71.2905L19.1717 70.7051H19.1621L19.8439 64.8867L19.8568 64.7773V64.7806ZM16.1097 78.3826H14.0738L14.2796 72.1943H16.6404L16.1129 78.3826H16.1097ZM16.8366 72.1943H18.7858L18.0589 78.3826H16.3059L16.8334 72.1943H16.8366ZM11.015 85.2464L10.8896 79.8686H13.8229L13.6428 85.2464H11.0118H11.015ZM7.84364 79.8686H10.6934L10.8188 85.2464H8.26177L7.84364 79.8686ZM8.06236 85.2464H5.67259C5.44422 83.7958 5.14832 81.9078 4.8299 79.8686H7.64423L8.06236 85.2464ZM7.72785 78.3858L7.2454 72.1975H10.5165L10.658 78.3858H7.72464H7.72785ZM10.8574 78.3858L10.7159 72.1975H14.0802L13.8743 78.3858H10.8574ZM10.6805 70.7116L10.5486 64.98H14.3214L14.1317 70.7116H10.6837H10.6805ZM10.4843 70.7116H7.13282L6.68896 64.98H10.3556L10.4875 70.7116H10.4843ZM6.93341 70.7116H3.38574C3.2603 69.9203 3.1413 69.1709 3.03194 68.4955C2.66206 66.1765 2.52375 65.308 2.44656 64.98H6.48633L6.93341 70.7116ZM7.0492 72.1943L7.53165 78.3826H4.59832C4.49861 77.7554 4.3989 77.1186 4.29919 76.485C4.07083 75.0247 3.83925 73.5645 3.62375 72.1943H7.0492ZM4.3989 78.3826H2.48194L1.44305 72.1943H3.42112C3.72346 74.1081 4.05797 76.2373 4.39568 78.3826H4.3989ZM4.63048 79.8654C4.92317 81.7244 5.20943 83.561 5.47317 85.2432H3.6334L2.73282 79.8654H4.6337H4.63048ZM13.8454 85.2432L14.0255 79.8654H15.9843L15.5244 85.2432H13.8454ZM14.3279 70.7083L14.5176 64.9768H17.2548L16.7659 70.7083H14.3279ZM2.26323 64.9768C2.34042 65.3917 2.70387 67.6464 3.18954 70.7083H1.19539L0.233693 64.9768H2.26001H2.26323ZM17.258 85.2432H15.7238L16.1837 79.8654H17.8884L17.258 85.2432ZM18.9627 70.7083H16.9653L17.4542 64.9768H19.6349L18.9627 70.7083Z" fill="#E0E0E0"/>
<path d="M128.586 13.5923H101.826V37.535H128.586V13.5923Z" fill="#FAFAFA"/>
<path d="M128.586 37.5316C128.586 37.5316 128.583 37.3772 128.58 37.0878C128.58 36.7951 128.577 36.3641 128.574 35.8044C128.57 34.6819 128.564 33.0383 128.558 30.9445C128.551 26.76 128.538 20.7839 128.525 13.5889L128.586 13.65C120.88 13.65 111.681 13.6565 101.829 13.6597L101.9 13.5889C101.9 22.2989 101.894 30.4942 101.891 37.5316L101.826 37.4673C109.809 37.4802 116.49 37.4898 121.182 37.4995C123.53 37.5059 125.377 37.5123 126.641 37.5155C127.271 37.5188 127.753 37.522 128.085 37.522C128.246 37.522 128.371 37.522 128.458 37.5252C128.541 37.5252 128.586 37.5284 128.586 37.5284C128.586 37.5284 128.548 37.5284 128.464 37.5316C128.377 37.5316 128.258 37.5316 128.098 37.5348C127.769 37.5348 127.29 37.5381 126.666 37.5413C125.405 37.5445 123.562 37.5509 121.221 37.5574C116.522 37.5638 109.825 37.5767 101.826 37.5895H101.762V37.5252C101.762 30.491 101.755 22.2924 101.752 13.5825V13.5117H101.826C111.681 13.5149 120.877 13.5182 128.583 13.5214H128.644V13.5825C128.631 20.7936 128.622 26.7825 128.612 30.9767C128.606 33.0641 128.599 34.7012 128.596 35.8237C128.596 36.3769 128.59 36.8047 128.59 37.0942C128.59 37.3805 128.583 37.5252 128.583 37.5252L128.586 37.5316Z" fill="#E0E0E0"/>
<path d="M112.09 17.8442C112.09 17.8828 110.681 17.915 108.944 17.915C107.207 17.915 105.798 17.8828 105.798 17.8442C105.798 17.8056 107.207 17.7734 108.944 17.7734C110.681 17.7734 112.09 17.8056 112.09 17.8442Z" fill="#E0E0E0"/>
<path d="M123.427 19.642C123.427 19.6806 119.558 19.7128 114.785 19.7128C110.012 19.7128 106.143 19.6806 106.143 19.642C106.143 19.6035 110.012 19.5713 114.785 19.5713C119.558 19.5713 123.427 19.6035 123.427 19.642Z" fill="#E0E0E0"/>
<path d="M106.972 22.688H105.843V23.8169H106.972V22.688Z" fill="#E0E0E0"/>
<path d="M109.748 22.688H108.619V23.8169H109.748V22.688Z" fill="#E0E0E0"/>
<path d="M112.572 22.6367H111.443V23.7657H112.572V22.6367Z" fill="#E0E0E0"/>
<path d="M115.296 22.688H114.167V23.8169H115.296V22.688Z" fill="#E0E0E0"/>
<path d="M118.072 22.688H116.943V23.8169H118.072V22.688Z" fill="#E0E0E0"/>
<path d="M120.848 22.688H119.719V23.8169H120.848V22.688Z" fill="#E0E0E0"/>
<path d="M123.624 22.688H122.495V23.8169H123.624V22.688Z" fill="#EBEBEB"/>
<path d="M106.972 25.0845H105.843V26.2134H106.972V25.0845Z" fill="#EBEBEB"/>
<path d="M109.748 25.0845H108.619V26.2134H109.748V25.0845Z" fill="#E0E0E0"/>
<path d="M112.521 25.0845H111.392V26.2134H112.521V25.0845Z" fill="#EBEBEB"/>
<path d="M115.296 25.0845H114.167V26.2134H115.296V25.0845Z" fill="#E0E0E0"/>
<path d="M118.072 25.0845H116.943V26.2134H118.072V25.0845Z" fill="#E0E0E0"/>
<path d="M120.899 25.0327H119.77V26.1617H120.899V25.0327Z" fill="#E0E0E0"/>
<path d="M123.624 25.0845H122.495V26.2134H123.624V25.0845Z" fill="#E0E0E0"/>
<path d="M106.972 27.4805H105.843V28.6094H106.972V27.4805Z" fill="#E0E0E0"/>
<path d="M109.796 27.4292H108.667V28.5581H109.796V27.4292Z" fill="#E0E0E0"/>
<path d="M112.521 27.4805H111.392V28.6094H112.521V27.4805Z" fill="#E0E0E0"/>
<path d="M115.296 27.4805H114.167V28.6094H115.296V27.4805Z" fill="#EBEBEB"/>
<path d="M118.072 27.4805H116.943V28.6094H118.072V27.4805Z" fill="#E0E0E0"/>
<path d="M120.848 27.4805H119.719V28.6094H120.848V27.4805Z" fill="#E0E0E0"/>
<path d="M123.624 27.4805H122.495V28.6094H123.624V27.4805Z" fill="#E0E0E0"/>
<path d="M106.972 29.8765H105.843V31.0054H106.972V29.8765Z" fill="#E0E0E0"/>
<path d="M109.748 29.8765H108.619V31.0054H109.748V29.8765Z" fill="#E0E0E0"/>
<path d="M112.521 29.8765H111.392V31.0054H112.521V29.8765Z" fill="#E0E0E0"/>
<path d="M115.348 29.8286H114.219V30.9576H115.348V29.8286Z" fill="#E0E0E0"/>
<path d="M118.072 29.8765H116.943V31.0054H118.072V29.8765Z" fill="#E0E0E0"/>
<path d="M120.848 29.8765H119.719V31.0054H120.848V29.8765Z" fill="#EBEBEB"/>
<path d="M123.624 29.8765H122.495V31.0054H123.624V29.8765Z" fill="#E0E0E0"/>
<path d="M106.972 32.2759H105.843V33.4048H106.972V32.2759Z" fill="#E0E0E0"/>
<path d="M109.748 32.2759H108.619V33.4048H109.748V32.2759Z" fill="#EBEBEB"/>
<path d="M112.521 32.2759H111.392V33.4048H112.521V32.2759Z" fill="#E0E0E0"/>
<path d="M115.296 32.2759H114.167V33.4048H115.296V32.2759Z" fill="#E0E0E0"/>
<path d="M118.072 32.2759H116.943V33.4048H118.072V32.2759Z" fill="#E0E0E0"/>
<path d="M120.899 32.2246H119.77V33.3536H120.899V32.2246Z" fill="#E0E0E0"/>
<path d="M123.624 32.2759H122.495V33.4048H123.624V32.2759Z" fill="#E0E0E0"/>
<path d="M105.657 13.7241H46.5881C45.1546 13.7241 43.9925 14.8862 43.9925 16.3197V102.335C43.9925 103.769 45.1546 104.931 46.5881 104.931H105.657C107.09 104.931 108.253 103.769 108.253 102.335V16.3197C108.253 14.8862 107.09 13.7241 105.657 13.7241Z" fill="#E0E0E0"/>
<path d="M105.657 104.928C105.657 104.928 105.724 104.921 105.856 104.915C105.988 104.905 106.184 104.876 106.435 104.802C106.683 104.722 106.982 104.583 107.284 104.342C107.58 104.098 107.879 103.744 108.063 103.268C108.159 103.033 108.214 102.766 108.23 102.483C108.246 102.2 108.233 101.898 108.236 101.582C108.236 100.952 108.236 100.264 108.236 99.5176C108.236 98.0252 108.233 96.3044 108.23 94.3649C108.227 86.6103 108.217 75.3883 108.211 61.5257C108.211 54.5944 108.204 47.0006 108.204 38.847C108.204 34.7719 108.204 30.5552 108.204 26.2131C108.204 24.0421 108.204 21.8388 108.204 19.6067C108.204 18.4906 108.204 17.3681 108.201 16.2359C108.191 15.6827 107.976 15.1359 107.629 14.7049C107.272 14.2771 106.776 13.9619 106.229 13.8429C105.956 13.7818 105.676 13.7754 105.387 13.7786C105.1 13.7786 104.811 13.7786 104.525 13.7786C103.949 13.7786 103.37 13.7786 102.791 13.7786C101.63 13.7786 100.466 13.7786 99.2917 13.7786C96.9437 13.7786 94.57 13.7786 92.1738 13.7786C87.375 13.7786 82.4765 13.7786 77.4911 13.7786C67.5171 13.7786 57.1893 13.7786 46.6139 13.7786C45.9674 13.7786 45.3273 14.0327 44.8609 14.4798C44.3913 14.9204 44.1051 15.5476 44.0793 16.1877C44.0665 17.4967 44.0761 18.8122 44.0729 20.1149C44.0729 22.7266 44.0729 25.3222 44.0729 27.8985C44.0729 33.0511 44.0729 38.1266 44.0729 43.1152C44.0729 53.0924 44.0729 62.7158 44.0697 71.8825C44.0697 81.0491 44.0665 89.7591 44.0633 97.9126C44.0633 98.9322 44.0633 99.9421 44.0633 100.942C44.0633 101.441 44.0568 101.943 44.0697 102.435C44.0858 102.921 44.253 103.397 44.5296 103.792C44.8063 104.188 45.1987 104.497 45.6393 104.68C45.8612 104.77 46.0928 104.828 46.3308 104.857C46.5656 104.876 46.8101 104.873 47.0513 104.873C48.0162 104.873 48.9715 104.873 49.9171 104.873C53.6995 104.873 57.334 104.873 60.7981 104.876C74.6639 104.886 85.8826 104.892 93.6373 104.895C97.513 104.902 100.524 104.905 102.566 104.908C103.586 104.908 104.364 104.911 104.888 104.915C105.412 104.915 105.679 104.921 105.679 104.921C105.679 104.921 105.412 104.924 104.888 104.928C104.364 104.928 103.586 104.931 102.566 104.934C100.524 104.934 97.513 104.94 93.6373 104.947C85.8826 104.95 74.6639 104.96 60.7981 104.966C57.3308 104.966 53.6995 104.966 49.9171 104.969C48.9715 104.969 48.0162 104.969 47.0513 104.969C46.8101 104.969 46.5688 104.976 46.3212 104.953C46.0767 104.924 45.8355 104.863 45.6039 104.77C45.1472 104.58 44.7387 104.259 44.4525 103.847C44.163 103.438 43.9893 102.943 43.9732 102.438C43.9603 101.936 43.97 101.441 43.9668 100.939C43.9668 99.9389 43.9668 98.929 43.9668 97.9094C43.9668 89.7559 43.9636 81.0459 43.9603 71.8792C43.9603 62.7126 43.9603 53.0892 43.9571 43.112C43.9571 38.1234 43.9571 33.0479 43.9571 27.8953C43.9571 25.319 43.9571 22.7233 43.9571 20.1116C43.9571 18.8058 43.9507 17.4967 43.9636 16.178C43.9925 15.5058 44.2948 14.8497 44.7837 14.3865C45.2694 13.9169 45.9449 13.6499 46.6203 13.6532C57.1957 13.6532 67.5235 13.6532 77.4975 13.6532C82.4861 13.6532 87.3847 13.6532 92.1803 13.6532C94.5797 13.6532 96.9534 13.6532 99.2981 13.6532C100.472 13.6532 101.64 13.6532 102.798 13.6532C103.376 13.6532 103.955 13.6532 104.531 13.6532C104.821 13.6532 105.107 13.6532 105.393 13.6532C105.676 13.6499 105.975 13.6532 106.262 13.7207C106.834 13.8461 107.352 14.1774 107.725 14.6245C108.088 15.0748 108.31 15.6441 108.323 16.223C108.323 17.3552 108.323 18.4809 108.326 19.597C108.326 21.8292 108.326 24.0324 108.326 26.2035C108.326 30.5456 108.326 34.7622 108.326 38.8374C108.326 46.9877 108.32 54.5816 108.32 61.5161C108.31 75.3819 108.304 86.6006 108.301 94.3553C108.301 96.2948 108.298 98.0155 108.294 99.5079C108.294 100.254 108.294 100.942 108.294 101.573C108.291 101.888 108.301 102.187 108.285 102.473C108.265 102.76 108.211 103.03 108.111 103.265C107.924 103.744 107.622 104.101 107.32 104.345C107.014 104.587 106.712 104.725 106.461 104.802C106.21 104.873 106.011 104.902 105.879 104.908C105.747 104.915 105.679 104.915 105.679 104.915L105.657 104.928Z" fill="#263238"/>
<g opacity="0.3">
<path d="M49.5987 102.869H103.531L102.939 91.6503V85.6807L49.5987 94.0143V102.869Z" fill="black"/>
</g>
<g opacity="0.3">
<path d="M92.3379 13.9106L93.5633 17.5452V19.3238H92.1803L92.3379 13.9106Z" fill="black"/>
</g>
<path d="M46.8583 17.3779V101.158H90.5657H105.387V17.3779H46.8583Z" fill="white"/>
<path d="M105.387 86.176C105.387 86.176 105.387 86.0667 105.384 85.8544C105.384 85.6389 105.384 85.3205 105.38 84.9023C105.38 84.0629 105.377 82.8149 105.371 81.1938C105.367 77.9453 105.361 73.1915 105.355 67.1543C105.348 55.0801 105.342 37.8789 105.332 17.3745L105.387 17.4291C88.0955 17.4291 68.0832 17.4324 46.8615 17.4356L46.9226 17.3745V17.4484C46.9162 49.654 46.9098 79.0678 46.9065 101.155L46.8583 101.106C60.3221 101.116 71.2481 101.123 78.8098 101.126C82.589 101.132 85.5288 101.135 87.523 101.139C88.52 101.139 89.2791 101.145 89.7905 101.145C90.3019 101.145 90.5657 101.151 90.5657 101.151C90.5657 101.151 90.3019 101.155 89.7905 101.158C89.2791 101.158 88.5168 101.161 87.523 101.164C85.5288 101.164 82.589 101.171 78.8098 101.177C71.2481 101.184 60.3221 101.19 46.8583 101.196H46.8101V101.148C46.8068 79.0614 46.8004 49.6476 46.794 17.442V17.3037H46.8551C68.08 17.3037 88.089 17.3101 105.38 17.3101H105.435V17.3648C105.425 37.8692 105.419 55.0704 105.412 67.1447C105.406 73.1818 105.4 77.9356 105.396 81.1842C105.393 82.8052 105.39 84.0532 105.387 84.8927C105.387 85.3108 105.384 85.6292 105.384 85.8447C105.384 86.057 105.38 86.1664 105.38 86.1664L105.387 86.176Z" fill="#263238"/>
<path d="M64.7574 11.4497H90.3019C91.4244 11.4497 92.3379 12.3599 92.3379 13.4857V20.0407H62.7247V13.4857C62.7247 12.3632 63.6349 11.4497 64.7607 11.4497H64.7574Z" fill="#263238"/>
<path d="M81.2993 8.2207H73.7633L74.6446 14.6824H80.3215L81.2993 8.2207Z" fill="#263238"/>
<path d="M90.4338 11.4498C90.4338 11.4852 84.6572 11.5109 77.5297 11.5109C70.4022 11.5109 64.6256 11.4819 64.6256 11.4498C64.6256 11.4176 70.4022 11.3887 77.5297 11.3887C84.6572 11.3887 90.4338 11.4176 90.4338 11.4498Z" fill="#455A64"/>
<path d="M63.3873 18.6548C63.3519 18.6548 63.3262 17.439 63.3262 15.9402C63.3262 14.4414 63.3551 13.2256 63.3873 13.2256C63.4194 13.2256 63.4484 14.4414 63.4484 15.9402C63.4484 17.439 63.4194 18.6548 63.3873 18.6548Z" fill="#455A64"/>
<path d="M91.3794 18.0115C91.344 18.0115 91.3183 16.9083 91.3183 15.5477C91.3183 14.1872 91.3472 13.084 91.3794 13.084C91.4116 13.084 91.4405 14.1872 91.4405 15.5477C91.4405 16.9083 91.4116 18.0115 91.3794 18.0115Z" fill="#455A64"/>
<path d="M89.9513 19.1534C89.9513 19.1888 84.0203 19.2145 76.7063 19.2145C69.3922 19.2145 63.4612 19.1856 63.4612 19.1534C63.4612 19.1212 69.3922 19.0923 76.7063 19.0923C84.0203 19.0923 89.9513 19.1212 89.9513 19.1534Z" fill="#455A64"/>
<path d="M97.9762 33.4565H65.6548V35.4443H97.9762V33.4565Z" fill="#E0E0E0"/>
<path d="M80.3183 37.5156H65.6548V39.4873H80.3183V37.5156Z" fill="#E0E0E0"/>
<path d="M61.1229 32.6074H56.1343C55.4487 32.6074 54.8928 33.1633 54.8928 33.8489V38.8375C54.8928 39.5232 55.4487 40.0791 56.1343 40.0791H61.1229C61.8086 40.0791 62.3645 39.5232 62.3645 38.8375V33.8489C62.3645 33.1633 61.8086 32.6074 61.1229 32.6074Z" fill="#007BFF"/>
<path d="M58.5209 38.1235L56.427 36.5057L56.9931 35.7756L58.3954 36.8595L60.3928 34.563L61.0908 35.1709L58.5209 38.1235Z" fill="white"/>
<path d="M97.9762 45.7559H65.6548V47.7436H97.9762V45.7559Z" fill="#E0E0E0"/>
<path d="M80.3183 49.8149H65.6548V51.7866H80.3183V49.8149Z" fill="#E0E0E0"/>
<path d="M61.1229 44.9102H56.1343C55.4487 44.9102 54.8928 45.466 54.8928 46.1517V51.1403C54.8928 51.826 55.4487 52.3818 56.1343 52.3818H61.1229C61.8086 52.3818 62.3645 51.826 62.3645 51.1403V46.1517C62.3645 45.466 61.8086 44.9102 61.1229 44.9102Z" fill="#007BFF"/>
<path d="M58.5209 50.4258L56.427 48.8079L56.9931 48.0778L58.3954 49.1617L60.3928 46.8652L61.0908 47.4699L58.5209 50.4258Z" fill="white"/>
<path d="M97.9762 58.9365H65.6548V60.9242H97.9762V58.9365Z" fill="#E0E0E0"/>
<path d="M80.3183 62.9956H65.6548V64.9672H80.3183V62.9956Z" fill="#E0E0E0"/>
<path d="M97.9762 71.1235H65.6548V73.1113H97.9762V71.1235Z" fill="#E0E0E0"/>
<path d="M80.3183 75.1792H65.6548V77.1508H80.3183V75.1792Z" fill="#E0E0E0"/>
<path d="M61.1229 58.0874H56.1343C55.4487 58.0874 54.8928 58.6433 54.8928 59.3289V64.3175C54.8928 65.0032 55.4487 65.5591 56.1343 65.5591H61.1229C61.8086 65.5591 62.3645 65.0032 62.3645 64.3175V59.3289C62.3645 58.6433 61.8086 58.0874 61.1229 58.0874Z" fill="#007BFF"/>
<path d="M58.5209 63.6069L56.427 61.9891L56.9931 61.259L58.3954 62.3429L60.3928 60.0464L61.0908 60.6511L58.5209 63.6069Z" fill="white"/>
<path d="M61.3867 78.2189H55.8706C55.2595 78.2189 54.7642 77.746 54.7642 77.1671V71.918C54.7642 71.339 55.2595 70.8662 55.8706 70.8662H61.3867C61.9978 70.8662 62.4931 71.339 62.4931 71.918V77.1671C62.4931 77.7493 61.9978 78.2189 61.3867 78.2189ZM55.8706 71.1042C55.401 71.1042 55.0183 71.4677 55.0183 71.9147V77.1639C55.0183 77.6109 55.401 77.9744 55.8706 77.9744H61.3867C61.8563 77.9744 62.239 77.6109 62.239 77.1639V71.9147C62.239 71.4677 61.8563 71.1042 61.3867 71.1042H55.8706Z" fill="#007BFF"/>
<path d="M97.9762 85.0601H65.6548V87.0478H97.9762V85.0601Z" fill="#E0E0E0"/>
<path d="M80.3183 89.1191H65.6548V91.0908H80.3183V89.1191Z" fill="#E0E0E0"/>
<path d="M61.3867 92.1586H55.8706C55.2595 92.1586 54.7642 91.6633 54.7642 91.0522V85.5361C54.7642 84.925 55.2595 84.4297 55.8706 84.4297H61.3867C61.9978 84.4297 62.4931 84.925 62.4931 85.5361V91.0522C62.4931 91.6633 61.9978 92.1586 61.3867 92.1586ZM55.8706 84.687C55.401 84.687 55.0183 85.0697 55.0183 85.5393V91.0554C55.0183 91.525 55.401 91.9078 55.8706 91.9078H61.3867C61.8563 91.9078 62.239 91.525 62.239 91.0554V85.5393C62.239 85.0697 61.8563 84.687 61.3867 84.687H55.8706Z" fill="#007BFF"/>
<path d="M93.9879 25.7627H61.763V28.5223H93.9879V25.7627Z" fill="#007BFF"/>
<path d="M120.201 41.2915L119.548 39.7412C119.938 38.5286 119.97 37.1874 119.555 35.8622C118.577 32.7423 115.322 30.8415 112.122 31.5169C108.423 32.2985 106.191 36.0874 107.333 39.7219C108.301 42.8064 111.491 44.7008 114.663 44.0801C116.239 43.7713 117.551 42.9222 118.465 41.7675L120.201 41.2883V41.2915Z" fill="white"/>
<path d="M120.201 41.2916C120.201 41.2916 120.169 41.3045 120.095 41.327C120.015 41.3527 119.905 41.3849 119.767 41.4267C119.465 41.5136 119.031 41.6422 118.471 41.803C118.455 41.8063 118.439 41.7998 118.432 41.7837C118.432 41.7773 118.432 41.7677 118.432 41.7612L118.484 41.7902C117.992 42.4174 117.21 43.1829 116.039 43.7007C115.457 43.9612 114.788 44.1478 114.055 44.225C113.322 44.299 112.527 44.2443 111.729 44.0256C110.935 43.8036 110.141 43.4177 109.43 42.858C108.722 42.3016 108.085 41.5779 107.657 40.7063C107.223 39.8411 106.972 38.8472 106.96 37.8212C106.94 36.7951 107.201 35.7466 107.693 34.801C108.188 33.8425 108.915 33.0255 109.774 32.4466C110.629 31.8612 111.604 31.5074 112.572 31.3723C113.543 31.2308 114.508 31.353 115.377 31.6264C116.245 31.903 117.017 32.3501 117.651 32.8872C118.281 33.4308 118.773 34.0644 119.127 34.7141C119.207 34.8814 119.285 35.0454 119.362 35.2062C119.436 35.3703 119.487 35.5375 119.548 35.6984C119.667 36.0232 119.741 36.3481 119.796 36.6601C120.015 37.9209 119.815 38.9984 119.571 39.7446V39.7253C119.774 40.227 119.931 40.6162 120.044 40.8928C120.092 41.0182 120.134 41.118 120.163 41.1919C120.188 41.2595 120.201 41.2916 120.198 41.2916C120.195 41.2916 120.179 41.2563 120.147 41.1855C120.115 41.1115 120.069 41.0118 120.012 40.8864C119.896 40.6194 119.729 40.2367 119.513 39.751C119.513 39.7446 119.513 39.7381 119.513 39.7317C119.745 38.9855 119.928 37.9241 119.7 36.6826C119.642 36.3738 119.565 36.0554 119.445 35.737C119.384 35.5793 119.333 35.4121 119.259 35.2545C119.182 35.0969 119.105 34.9361 119.024 34.772C118.674 34.1352 118.188 33.5144 117.567 32.987C116.943 32.4595 116.184 32.0285 115.335 31.7583C114.486 31.4946 113.54 31.3755 112.591 31.5171C111.646 31.6522 110.694 31.9995 109.857 32.572C109.018 33.1349 108.307 33.9358 107.825 34.8717C107.342 35.7948 107.088 36.8209 107.107 37.8212C107.117 38.8215 107.358 39.796 107.783 40.6419C108.201 41.4943 108.822 42.2051 109.513 42.7519C110.208 43.3019 110.983 43.6846 111.762 43.9033C112.543 44.1188 113.322 44.1767 114.042 44.1124C114.762 44.0384 115.425 43.8615 115.998 43.6106C117.152 43.1089 117.937 42.3627 118.432 41.7516C118.442 41.7387 118.461 41.7355 118.474 41.7451C118.484 41.7548 118.487 41.7709 118.484 41.7805L118.448 41.7419C119.005 41.5972 119.436 41.4846 119.735 41.4042C119.876 41.3688 119.989 41.3399 120.073 41.3174C120.15 41.2981 120.192 41.2884 120.192 41.2884L120.201 41.2916Z" fill="#263238"/>
<path d="M111.253 38.6606C111.641 38.6606 111.955 38.3467 111.955 37.9595C111.955 37.5722 111.641 37.2583 111.253 37.2583C110.866 37.2583 110.552 37.5722 110.552 37.9595C110.552 38.3467 110.866 38.6606 111.253 38.6606Z" fill="#263238"/>
<path d="M114.315 37.9595C114.315 38.3454 114 38.6606 113.614 38.6606C113.228 38.6606 112.913 38.3454 112.913 37.9595C112.913 37.5735 113.228 37.2583 113.614 37.2583C114 37.2583 114.315 37.5735 114.315 37.9595Z" fill="#263238"/>
<path d="M115.914 38.6606C116.301 38.6606 116.615 38.3467 116.615 37.9595C116.615 37.5722 116.301 37.2583 115.914 37.2583C115.527 37.2583 115.213 37.5722 115.213 37.9595C115.213 38.3467 115.527 38.6606 115.914 38.6606Z" fill="#263238"/>
<path d="M35.5302 49.1846L35.8358 47.3963C35.2954 46.4507 35.0027 45.3507 35.0413 44.1831C35.1539 40.8252 37.965 38.1942 41.3229 38.3036C44.6808 38.4162 47.3118 41.2273 47.2025 44.5852C47.0899 47.9431 44.2788 50.5741 40.9209 50.4647C39.5185 50.4165 38.2448 49.8986 37.2413 49.0688L35.5302 49.1878V49.1846Z" fill="white"/>
<path d="M35.5302 49.1846C35.5302 49.1846 35.5656 49.1846 35.6364 49.1846C35.7168 49.1813 35.8229 49.1749 35.9612 49.1685C36.2603 49.1524 36.6881 49.1267 37.2413 49.0977C37.2542 49.0977 37.2671 49.0848 37.2638 49.072C37.2638 49.0655 37.2638 49.0623 37.2606 49.0591L37.222 49.0913C37.8042 49.5802 38.6887 50.1334 39.882 50.3875C40.1779 50.4486 40.4931 50.4904 40.8212 50.5065C40.9852 50.5161 41.1524 50.5065 41.3229 50.5065C41.4065 50.5065 41.4934 50.5065 41.5802 50.5C41.6671 50.4904 41.7539 50.4808 41.8408 50.4711C42.5387 50.3939 43.2688 50.1881 43.97 49.8214C44.6679 49.4579 45.3305 48.9337 45.8773 48.2679C46.4241 47.6021 46.8486 46.7916 47.0802 45.8942C47.3118 44.9968 47.3279 44.019 47.1188 43.0638C47.0256 42.5813 46.839 42.1214 46.6332 41.6647C46.3984 41.224 46.1378 40.7866 45.7969 40.4071C45.4785 40.0147 45.0925 39.6898 44.6969 39.3907C44.2852 39.1141 43.8639 38.86 43.4071 38.6895C42.5065 38.3293 41.5448 38.1845 40.6314 38.2682C39.7147 38.3454 38.8495 38.6252 38.1065 39.0497C37.3603 39.4711 36.7396 40.034 36.2636 40.6547C35.3051 41.9059 34.9609 43.3597 35.0027 44.5626C35.0413 45.7784 35.4305 46.753 35.8165 47.4155V47.3995C35.72 47.9816 35.6492 48.4287 35.601 48.7407C35.5785 48.8854 35.5624 48.998 35.5495 49.0816C35.5399 49.1588 35.5334 49.1942 35.5367 49.1942C35.5367 49.1942 35.5463 49.1524 35.5624 49.0752C35.5785 48.9916 35.601 48.879 35.6267 48.731C35.6814 48.4255 35.7618 47.9816 35.8679 47.4123C35.8679 47.4059 35.8679 47.3995 35.8679 47.3962C35.4948 46.7337 35.1217 45.7688 35.0928 44.5658C35.0606 43.3758 35.408 41.9509 36.3536 40.7255C36.8232 40.1176 37.4375 39.5676 38.1709 39.1559C38.901 38.7442 39.7501 38.4676 40.6475 38.3968C41.5448 38.3164 42.4872 38.4611 43.3685 38.8149C43.8156 38.979 44.2305 39.2299 44.6326 39.5C45.0185 39.7927 45.3948 40.1111 45.7101 40.4971C46.0446 40.8702 46.2987 41.298 46.5302 41.729C46.7329 42.1728 46.9162 42.6264 47.0063 43.0992C47.2121 44.0319 47.1992 44.9936 46.9741 45.8749C46.7489 46.7562 46.334 47.5506 45.8001 48.2068C45.2662 48.8629 44.6165 49.3807 43.9346 49.741C43.2495 50.1044 42.5291 50.3103 41.844 50.3907C41.7571 50.4003 41.6735 50.41 41.5899 50.4229C41.5062 50.4325 41.4194 50.4293 41.3358 50.4325C41.1685 50.4325 41.0045 50.4454 40.8437 50.4357C40.522 50.4229 40.21 50.381 39.9174 50.3231C38.7369 50.0819 37.8557 49.5448 37.2735 49.0688C37.2638 49.0591 37.2478 49.0623 37.2381 49.0688C37.2317 49.0784 37.2317 49.0913 37.2381 49.1009L37.2574 49.0623C36.7106 49.1041 36.2893 49.1395 35.9934 49.162C35.8519 49.1749 35.7425 49.1846 35.6621 49.191C35.5881 49.1974 35.5463 49.2038 35.5463 49.2038L35.5302 49.1846Z" fill="#263238"/>
<path d="M38.4925 44.8039L39.1647 44.1316L40.4609 45.2831L43.0019 42.8354L43.6258 43.5077L40.3644 46.5761L38.4925 44.8039Z" fill="#FFC107"/>
<path d="M144.295 78.8395C144.302 78.7656 144.311 78.6884 144.315 78.6144C144.379 77.167 143.79 75.7808 143.224 74.446C141.706 70.8694 140.239 67.074 140.667 63.2144C141.23 58.11 144.984 53.8869 146.325 48.9497C146.482 48.3676 147.016 47.9688 147.621 47.9688C148.528 47.9688 149.184 48.8468 148.908 49.7056C147.415 54.3243 144.009 58.3705 143.475 63.2112C143.047 67.0708 144.517 70.8661 146.032 74.4428C146.598 75.7775 147.187 77.1638 147.122 78.6112C147.058 80.0585 146.129 81.5799 144.694 81.8115H123.363C122.62 81.8115 122.019 81.21 122.019 80.4702V80.1808C122.019 79.441 122.62 78.8395 123.363 78.8395H144.298H144.295Z" fill="#455A64"/>
<path d="M148.586 110.817H117.631C117.2 110.817 116.795 110.605 116.528 110.235C116.219 109.81 116.136 109.251 116.303 108.739L125.113 81.7378L125.573 81.889L116.763 108.89C116.644 109.254 116.702 109.653 116.921 109.952C117.098 110.196 117.358 110.335 117.631 110.335H148.586C148.859 110.335 149.107 110.206 149.284 109.968C149.499 109.682 149.57 109.296 149.47 108.935L141.899 81.8761L142.365 81.7442L149.937 108.804C150.078 109.309 149.979 109.852 149.67 110.257C149.403 110.611 149.007 110.814 148.586 110.814V110.817Z" fill="#E0E0E0"/>
<path d="M105.171 61.8092C105.171 61.8092 106.3 59.0688 107.413 58.4898C108.526 57.9109 109.944 57.541 109.944 57.541H114.901L114.949 60.751C114.949 60.751 114.232 61.4682 113.251 61.3331C112.27 61.198 109.819 60.5934 109.819 60.5934L108.61 60.6609L107.493 62.089C107.493 62.089 106.59 62.3624 106.908 61.5068C107.226 60.6513 107.368 60.2749 107.368 60.2749C107.368 60.2749 106.297 61.941 105.888 62.0182C105.48 62.0954 105.168 61.8124 105.168 61.8124L105.171 61.8092Z" fill="#6F4439"/>
<path d="M125.66 51.478L121.713 57.1517L114.898 57.5409L114.804 60.6544L119.938 61.6643C122.604 62.1886 125.36 61.3716 127.306 59.4772L128.059 52.6134L125.656 51.478H125.66Z" fill="#AE7461"/>
<path d="M122.601 98.5433L127.187 103.027C127.187 103.027 123.878 109.418 124.637 110.335L134.209 101.326L127.367 94.0308L122.598 98.5401L122.601 98.5433Z" fill="#263238"/>
<path d="M129.777 99.8491C130.008 99.7236 130.32 99.7976 130.446 100.016C130.571 100.232 130.478 100.557 130.249 100.685C130.021 100.817 129.641 100.737 129.542 100.505C129.442 100.274 129.574 99.9005 129.825 99.8266" fill="#E0E0E0"/>
<path d="M134.209 101.325L133.488 100.618L124.579 109.517C124.579 109.517 124.318 110.093 124.634 110.331L134.205 101.325H134.209Z" fill="#455A64"/>
<path d="M126.988 103.126C127.03 103.168 127.284 102.969 127.647 102.895C128.011 102.811 128.31 102.892 128.336 102.834C128.371 102.785 128.053 102.586 127.612 102.686C127.171 102.779 126.94 103.097 126.988 103.13V103.126Z" fill="white"/>
<path d="M126.354 104.461C126.383 104.513 126.657 104.4 126.994 104.436C127.332 104.461 127.564 104.625 127.609 104.58C127.66 104.545 127.448 104.259 127.03 104.22C126.612 104.178 126.319 104.42 126.358 104.461H126.354Z" fill="white"/>
<path d="M126.859 106.134C126.911 106.102 126.766 105.822 126.419 105.693C126.071 105.562 125.759 105.674 125.775 105.729C125.782 105.79 126.049 105.787 126.332 105.896C126.618 105.999 126.808 106.173 126.859 106.134Z" fill="white"/>
<path d="M126.062 101.981C126.119 102.004 126.277 101.74 126.557 101.509C126.834 101.27 127.117 101.161 127.107 101.1C127.107 101.042 126.75 101.068 126.422 101.344C126.094 101.618 126.007 101.965 126.062 101.978V101.981Z" fill="white"/>
<path d="M123.138 66.5791C122.298 66.5791 101.871 72.5294 99.6616 74.5396C97.4519 76.5499 95.7987 101.441 95.7987 101.441L104.364 104.378C104.364 104.378 106.168 92.2233 107.262 88.2961C108.13 85.1762 107.931 82.2622 107.931 82.2622L124.891 74.8774L123.138 66.5791Z" fill="#263238"/>
<path d="M123.656 67.8945C123.276 68.0618 108.433 74.3981 107.04 78.6437C105.905 82.1045 107.223 85.1504 108.812 87.5305C110.604 90.2194 123.749 102.213 123.749 102.213L131.169 96.9095L118.448 83.7738C118.448 83.7738 125.122 79.6536 125.351 79.6536C125.579 79.6536 132.517 79.1937 134.717 78.946C136.769 78.7144 137.895 75.7682 137.895 75.7682L139.725 67.3252L125.962 64.1475L123.656 67.8945Z" fill="#263238"/>
<path d="M123.656 67.8944C123.656 67.8944 123.704 67.8108 123.8 67.6467C123.9 67.4827 124.045 67.2415 124.238 66.9263C124.624 66.2926 125.196 65.3535 125.943 64.1344L125.952 64.1216H125.968C129.037 64.8292 133.768 65.9131 139.738 67.2801L139.779 67.2897L139.77 67.3315C139.22 69.8692 138.605 72.7222 137.946 75.7745V75.781C137.631 76.5368 137.21 77.2637 136.64 77.8973C136.354 78.2125 136.02 78.4924 135.634 78.6982C135.537 78.7529 135.441 78.8011 135.334 78.8365C135.232 78.8687 135.132 78.9234 135.019 78.9362C134.91 78.9555 134.8 78.9812 134.694 78.9973L134.37 79.0327C132.633 79.2032 130.835 79.3318 128.985 79.4669C128.062 79.5312 127.123 79.5924 126.174 79.6599C125.936 79.6728 125.698 79.6888 125.46 79.7017H125.367C125.348 79.7017 125.351 79.7114 125.341 79.7114C125.335 79.7114 125.319 79.721 125.306 79.7274C125.254 79.75 125.2 79.7789 125.148 79.8046L124.833 79.9783C124.415 80.2163 124 80.464 123.582 80.7117C121.909 81.712 120.211 82.7508 118.484 83.8155L118.497 83.7222C121.665 86.9932 125 90.438 128.429 93.9792C129.365 94.9473 130.294 95.9058 131.217 96.8579L131.269 96.9093L131.211 96.9511C128.68 98.7587 126.203 100.531 123.791 102.255L123.749 102.284L123.714 102.252C121.057 99.8169 118.506 97.4336 116.084 95.1178C114.875 93.9599 113.695 92.8181 112.562 91.6859C111.43 90.5538 110.33 89.4409 109.34 88.283C109.211 88.1447 109.102 87.9839 108.986 87.8359C108.87 87.6848 108.754 87.5368 108.655 87.376C108.449 87.0608 108.253 86.7424 108.072 86.4207C107.709 85.7742 107.394 85.1117 107.149 84.4362C106.905 83.7608 106.728 83.0693 106.638 82.3777C106.551 81.6862 106.548 80.9979 106.625 80.3289C106.699 79.6599 106.853 79.0134 107.088 78.4087C107.349 77.8073 107.76 77.3119 108.182 76.8584C109.047 75.9675 109.996 75.247 110.919 74.6038C112.775 73.3236 114.55 72.3298 116.113 71.4935C117.68 70.6573 119.047 69.9915 120.166 69.4576C121.285 68.9268 122.16 68.5344 122.752 68.2739C123.048 68.1453 123.273 68.0488 123.427 67.9812C123.579 67.9169 123.659 67.888 123.659 67.888C123.659 67.888 123.582 67.9266 123.431 67.9941C123.276 68.0616 123.054 68.1646 122.758 68.2964C122.17 68.5634 121.298 68.9622 120.182 69.4994C119.066 70.0365 117.702 70.7087 116.142 71.5514C114.582 72.3941 112.813 73.3912 110.964 74.6745C110.044 75.3178 109.098 76.0383 108.243 76.9228C107.828 77.3698 107.419 77.8619 107.169 78.4473C106.94 79.0391 106.786 79.6824 106.715 80.3418C106.641 81.0011 106.644 81.683 106.731 82.3681C106.821 83.05 106.998 83.735 107.239 84.4041C107.484 85.0731 107.796 85.7324 108.156 86.3725C108.336 86.6941 108.529 87.0093 108.735 87.3213C108.831 87.4821 108.947 87.6269 109.063 87.778C109.179 87.926 109.285 88.0804 109.414 88.2219C110.401 89.3734 111.501 90.4862 112.633 91.6152C113.765 92.7473 114.943 93.8859 116.155 95.0438C118.577 97.3564 121.131 99.7365 123.788 102.171H123.71C126.123 100.441 128.599 98.6687 131.127 96.8611L131.118 96.9544C130.198 96.0023 129.268 95.0438 128.329 94.0757C124.9 90.5345 121.565 87.0897 118.397 83.8187L118.342 83.764L118.407 83.7254C120.134 82.6608 121.835 81.6219 123.508 80.6216C123.926 80.3739 124.344 80.1263 124.762 79.8883L125.081 79.7146C125.135 79.6856 125.187 79.6567 125.245 79.631C125.261 79.6245 125.27 79.6181 125.293 79.6117C125.312 79.6052 125.344 79.5988 125.354 79.5988H125.441C125.679 79.5795 125.917 79.5666 126.155 79.5538C127.104 79.4894 128.04 79.4251 128.966 79.364C130.812 79.2321 132.613 79.1035 134.347 78.9362C134.784 78.9073 135.199 78.8204 135.569 78.6178C135.939 78.4184 136.267 78.1482 136.547 77.8394C137.103 77.2187 137.528 76.4982 137.837 75.7584V75.7649C138.499 72.7125 139.12 69.8596 139.673 67.3251L139.705 67.3766C133.739 65.9903 129.014 64.8935 125.946 64.1795L125.972 64.1698C125.216 65.3856 124.637 66.3216 124.244 66.9552C124.048 67.2672 123.9 67.5052 123.8 67.666C123.701 67.8268 123.646 67.904 123.646 67.904L123.656 67.8944Z" fill="#455A64"/>
<path d="M125.003 27.2972C124.334 27.4323 123.598 26.9981 123.398 26.3452C123.196 25.6955 123.556 24.9171 124.183 24.6502C123.727 24.2578 123.559 23.5598 123.788 23.0034C124.016 22.4437 124.624 22.0674 125.229 22.1092C125.203 21.5142 125.505 20.916 126.004 20.5847C126.499 20.2566 127.171 20.2083 127.708 20.4657C128.313 19.8449 129.371 19.7323 130.095 20.2083C130.661 20.0507 131.317 20.3048 131.632 20.8002C131.948 21.2955 131.899 21.9967 131.517 22.4437" fill="#263238"/>
<path d="M130.51 21.556L130.204 21.5817C127.139 21.8519 124.794 24.4314 124.82 27.5095C124.843 30.3721 124.904 33.5338 125.058 35.0551C125.377 38.2072 128.577 38.4194 128.577 38.4194L128.644 42.2341L136.283 41.3206L135.746 27.5063C135.74 24.2031 133.81 21.4563 130.51 21.5528V21.556Z" fill="#AE7461"/>
<path d="M128.574 38.4225C128.574 38.4225 130.577 38.3646 132.581 36.8433C132.581 36.8433 131.767 39.2588 128.593 39.2523L128.574 38.4225Z" fill="#6F4439"/>
<path d="M125.959 30.4363C125.972 30.6743 126.184 30.8609 126.435 30.8512C126.682 30.8416 126.875 30.6421 126.862 30.4041C126.85 30.1661 126.637 29.9796 126.39 29.986C126.139 29.9957 125.949 30.1951 125.962 30.4331L125.959 30.4363Z" fill="#263238"/>
<path d="M125.637 28.9956C125.698 29.0503 126.017 28.7672 126.502 28.7254C126.988 28.6772 127.364 28.8959 127.412 28.8316C127.435 28.8026 127.371 28.7029 127.203 28.6032C127.039 28.5035 126.772 28.4166 126.47 28.4456C126.168 28.4745 125.923 28.6064 125.788 28.7351C125.65 28.8637 125.608 28.9731 125.637 28.9988V28.9956Z" fill="#263238"/>
<path d="M130.32 30.1853C130.333 30.4233 130.545 30.6099 130.796 30.6002C131.044 30.5906 131.237 30.3912 131.224 30.1532C131.211 29.9151 130.999 29.7286 130.748 29.735C130.497 29.7447 130.307 29.9441 130.32 30.1821V30.1853Z" fill="#263238"/>
<path d="M130.413 28.664C130.474 28.7187 130.793 28.4357 131.279 28.3939C131.761 28.3456 132.141 28.5643 132.189 28.5C132.211 28.4711 132.147 28.3714 131.98 28.2716C131.816 28.1719 131.549 28.0851 131.246 28.114C130.944 28.143 130.7 28.2749 130.565 28.4035C130.426 28.5322 130.384 28.6415 130.413 28.6673V28.664Z" fill="#263238"/>
<path d="M128.969 32.4179C128.969 32.389 128.664 32.3632 128.168 32.3439C128.043 32.3439 127.924 32.3279 127.895 32.2442C127.856 32.1574 127.895 32.0191 127.946 31.8711C128.036 31.5624 128.13 31.2375 128.229 30.8966C128.619 29.5071 128.889 28.3717 128.834 28.3556C128.779 28.3396 128.416 29.4524 128.027 30.8419C127.934 31.1828 127.843 31.5109 127.76 31.8229C127.724 31.9676 127.66 32.1349 127.737 32.315C127.779 32.4051 127.876 32.463 127.956 32.479C128.036 32.4951 128.107 32.4919 128.168 32.4887C128.664 32.4726 128.969 32.4469 128.966 32.4179H128.969Z" fill="#263238"/>
<path d="M129.825 26.8339C129.899 26.9497 130.304 26.7824 130.815 26.7181C131.324 26.6441 131.764 26.702 131.8 26.5701C131.816 26.509 131.713 26.4061 131.52 26.3225C131.327 26.2388 131.044 26.1874 130.738 26.2292C130.433 26.271 130.175 26.3932 130.018 26.5219C129.857 26.6505 129.793 26.776 129.828 26.8307L129.825 26.8339Z" fill="#263238"/>
<path d="M125.434 26.9984C125.547 27.0981 125.936 26.9501 126.419 26.9019C126.898 26.8408 127.313 26.8986 127.396 26.7732C127.432 26.7121 127.358 26.6092 127.171 26.5191C126.988 26.4323 126.686 26.3712 126.354 26.4098C126.023 26.4484 125.746 26.5738 125.589 26.6992C125.428 26.8279 125.383 26.9469 125.434 26.9951V26.9984Z" fill="#263238"/>
<path d="M124.997 26.0364C124.997 26.0364 125.656 23.9844 126.567 23.4408C127.67 22.7814 128.281 24.0037 129.352 23.5984C130.423 23.1931 131.478 22.5595 132.678 23.3121C133.99 24.1323 133.472 24.8367 133.672 26.2326C134.482 31.8838 135.659 33.3987 135.72 30.6969C135.727 30.401 136.518 30.0955 136.531 28.8475C136.544 27.2297 136.434 25.2741 135.974 24.1645C135.589 23.2317 134.981 22.6142 133.935 21.9709C132.282 20.9545 130.153 21.1154 128.718 21.3887C127.287 21.6621 124.646 23.5727 124.997 26.0364Z" fill="#263238"/>
<path d="M135.511 30.6263C135.489 30.1374 135.875 29.716 136.364 29.7193C136.959 29.7225 137.641 29.9991 137.711 31.2181C137.834 33.3827 135.637 33.0579 135.627 32.9967C135.621 32.9549 135.553 31.5333 135.511 30.6263Z" fill="#AE7461"/>
<path d="M136.052 32.157C136.052 32.157 136.09 32.1828 136.158 32.2085C136.222 32.2342 136.328 32.2471 136.441 32.1988C136.666 32.1024 136.836 31.7293 136.827 31.3369C136.82 31.1407 136.769 30.9541 136.692 30.8029C136.618 30.6486 136.508 30.5424 136.393 30.5295C136.277 30.5103 136.2 30.5842 136.177 30.6453C136.151 30.7065 136.167 30.7515 136.158 30.7547C136.151 30.7611 136.11 30.7225 136.122 30.6293C136.129 30.5842 136.151 30.5328 136.2 30.4877C136.248 30.4427 136.325 30.417 136.405 30.4202C136.573 30.4202 136.73 30.5681 136.817 30.7322C136.914 30.8994 136.975 31.1053 136.981 31.3272C136.991 31.7646 136.791 32.186 136.483 32.2921C136.331 32.3404 136.203 32.3018 136.135 32.2535C136.065 32.2053 136.052 32.157 136.058 32.1506L136.052 32.157Z" fill="#6F4439"/>
<path d="M135.1 26.4481C134.836 26.6636 134.556 26.8887 134.222 26.9499C133.887 27.0142 133.485 26.8534 133.398 26.5253C133.36 26.3773 133.382 26.2004 133.273 26.0911C133.144 25.9624 132.929 26.0268 132.748 26.0621C132.128 26.1844 131.333 25.5572 131.118 24.9589C130.979 25.213 130.635 25.3159 130.378 25.1809C130.121 25.0458 130.027 24.9654 129.818 24.7659C129.609 24.5665 129.326 24.3961 129.043 24.4604C128.886 24.4958 128.744 24.6051 128.583 24.6051C128.297 24.6051 128.13 24.2867 128.062 24.0069C127.995 23.7303 127.934 23.4054 127.679 23.2735C127.445 23.1513 127.165 23.2575 126.908 23.3218C126.65 23.3829 126.309 23.3507 126.219 23.1031C126.171 22.9712 126.219 22.8265 126.28 22.7042C126.57 22.1446 127.281 21.8455 127.882 22.0288C128.03 21.2955 128.648 20.6844 129.381 20.5396C130.114 20.3949 130.918 20.7326 131.33 21.3534C131.748 20.8999 132.398 20.6683 133.009 20.7519C133.62 20.8355 134.183 21.2344 134.466 21.7844C134.977 21.601 135.595 21.749 135.965 22.151C136.335 22.5499 136.438 23.177 136.216 23.6756C136.624 23.8621 136.991 24.2192 137.036 24.6662C137.084 25.1133 136.689 25.5958 136.245 25.5154C136.451 25.8466 136.351 26.3323 136.029 26.5575C135.711 26.7826 135.219 26.7118 134.977 26.4031" fill="#263238"/>
<path d="M127.779 22.6752C127.779 22.6752 127.779 22.6881 127.782 22.7138C127.789 22.7396 127.792 22.7781 127.805 22.8264C127.834 22.9229 127.885 23.0676 127.998 23.2284C128.11 23.386 128.278 23.5629 128.522 23.6948C128.76 23.8299 129.082 23.92 129.429 23.8685L129.387 23.8235C129.336 24.0132 129.374 24.2352 129.484 24.4153C129.587 24.6018 129.741 24.7594 129.899 24.9138C129.979 24.9878 130.053 25.0746 130.162 25.139C130.269 25.2001 130.391 25.2322 130.516 25.2355C130.764 25.2451 131.031 25.1454 131.189 24.9235L131.105 24.9074C131.198 25.332 131.481 25.7404 131.89 25.9656C132.108 26.0942 132.369 26.165 132.62 26.136C132.871 26.1103 133.096 26.017 133.305 25.9205L133.244 25.9013C133.382 26.1586 133.581 26.3708 133.813 26.522C134.041 26.6732 134.331 26.7472 134.582 26.6603C135.08 26.5059 135.383 26.0524 135.415 25.6504L135.367 25.6761C135.63 25.7919 135.904 25.7822 136.119 25.7179C136.335 25.6568 136.502 25.5474 136.615 25.4413C136.73 25.3352 136.795 25.229 136.833 25.155C136.869 25.0811 136.881 25.0393 136.878 25.0393C136.865 25.0328 136.82 25.2097 136.592 25.4124C136.476 25.5089 136.315 25.6118 136.106 25.6665C135.9 25.7211 135.64 25.7243 135.396 25.615L135.354 25.5957V25.6407C135.315 26.0203 135.022 26.4416 134.559 26.5799C134.331 26.6539 134.074 26.5896 133.861 26.448C133.646 26.3065 133.456 26.1007 133.324 25.8594L133.305 25.8208L133.266 25.8401C133.06 25.9334 132.842 26.0235 132.61 26.046C132.379 26.0717 132.144 26.0106 131.938 25.8884C131.549 25.6729 131.285 25.2934 131.195 24.8913L131.172 24.7916L131.111 24.8752C130.979 25.065 130.738 25.1583 130.516 25.1486C130.404 25.1454 130.294 25.1197 130.204 25.065C130.114 25.0135 130.037 24.9267 129.957 24.8527C129.796 24.7015 129.648 24.5504 129.551 24.3767C129.448 24.2062 129.413 24.0132 129.458 23.8428L129.471 23.7881L129.416 23.7977C129.088 23.8492 128.783 23.7688 128.548 23.6434C128.31 23.5211 128.143 23.3507 128.03 23.2027C127.805 22.8939 127.792 22.6656 127.776 22.672L127.779 22.6752Z" fill="#455A64"/>
<path d="M129.011 33.9711C129.017 33.8907 129.558 33.955 129.995 33.5369C130.436 33.122 130.446 32.5366 130.519 32.543C130.555 32.5398 130.61 32.6845 130.587 32.929C130.568 33.167 130.449 33.5079 130.179 33.762C129.908 34.0161 129.58 34.0997 129.355 34.0901C129.127 34.0837 129.001 34.0065 129.008 33.9711H129.011Z" fill="#263238"/>
<path d="M97.7478 98.2378L96.7507 105.163C96.7507 105.163 88.9929 106.362 88.6776 107.62L102.769 110.251L104.788 99.534L97.7478 98.2378Z" fill="#263238"/>
<path d="M101.215 105.397C101.476 105.52 101.611 105.844 101.498 106.095C101.386 106.343 101.045 106.472 100.781 106.353C100.52 106.237 100.343 105.848 100.485 105.613C100.623 105.378 101.038 105.249 101.263 105.423" fill="#E0E0E0"/>
<path d="M102.769 110.254L102.926 109.164L89.3563 107.047C89.3563 107.047 88.6809 107.189 88.6744 107.62L102.765 110.251L102.769 110.254Z" fill="#455A64"/>
<path d="M96.5352 105.053C96.5256 105.117 96.8633 105.214 97.1657 105.484C97.4744 105.751 97.5967 106.063 97.6642 106.05C97.7285 106.05 97.6996 105.642 97.3297 105.317C96.963 104.989 96.532 104.989 96.5385 105.053H96.5352Z" fill="white"/>
<path d="M94.9496 105.356C94.9238 105.417 95.2004 105.584 95.3838 105.902C95.5768 106.218 95.58 106.526 95.6507 106.536C95.7119 106.559 95.8309 106.185 95.5961 105.793C95.3645 105.397 94.9657 105.295 94.9528 105.356H94.9496Z" fill="white"/>
<path d="M93.8046 106.874C93.8657 106.9 94.02 106.591 93.9075 106.202C93.7981 105.809 93.499 105.61 93.4604 105.658C93.4122 105.703 93.5858 105.935 93.6727 106.256C93.766 106.575 93.737 106.854 93.8046 106.874Z" fill="white"/>
<path d="M96.9469 103.503C96.9662 103.567 97.2975 103.538 97.6803 103.635C98.0662 103.725 98.3461 103.905 98.3943 103.857C98.4426 103.818 98.1917 103.519 97.7382 103.413C97.2847 103.3 96.9244 103.448 96.9469 103.506V103.503Z" fill="white"/>
<path d="M128.297 42.7292L128.586 41.4202L136.283 37.5991L136.955 38.6477C136.955 38.6477 139.837 40.9924 140.937 43.0251C142.041 45.0579 140.731 61.7187 140.548 64.1503C140.178 69.0489 138.348 75.4623 138.348 75.4623C138.348 75.4623 135.878 73.7416 128.612 70.76C121.346 67.7752 120.957 66.4243 120.957 66.4243L125.238 60.9951L128.297 42.7325V42.7292Z" fill="#FAA146"/>
<path d="M128.416 43.1895C128.374 43.4307 124.894 51.7868 124.894 51.7868C124.894 51.7868 126.702 52.7968 126.953 52.845C127.203 52.8965 128.416 43.1895 128.416 43.1895Z" fill="#FAA146"/>
<path d="M128.065 44.5596C128.101 44.566 127.792 46.6888 127.377 49.3005C126.962 51.9154 126.599 54.0286 126.563 54.0222C126.528 54.0157 126.837 51.8929 127.252 49.2812C127.667 46.6695 128.03 44.5532 128.065 44.5596Z" fill="#263238"/>
<path d="M103.647 61.2716C103.647 61.2716 105.721 58.2129 106.956 57.6757C108.191 57.1386 109.738 56.8491 109.738 56.8491L114.952 57.5471L114.859 60.6605C114.859 60.6605 114.039 61.3746 112.997 61.1559C111.955 60.9371 109.378 60.1073 109.378 60.1073L108.079 60.088L106.779 61.5354C106.779 61.5354 105.789 61.7605 106.194 60.8696C106.599 59.9754 106.779 59.583 106.779 59.583C106.779 59.583 105.509 61.2877 105.065 61.3392C104.621 61.3906 103.647 61.2781 103.647 61.2781V61.2716Z" fill="#AE7461"/>
<path d="M130.889 49.0205L127.274 57.4217L114.898 57.5407L114.804 60.6542C114.804 60.6542 126.737 64.8612 129.915 64.0442C133.093 63.2272 138.361 51.9892 138.361 51.9892L130.886 49.0205H130.889Z" fill="#AE7461"/>
<path d="M133.816 41.9316C133.479 42.2371 132.359 43.5526 131.166 46.4056C129.973 49.2617 128.297 52.5971 128.297 52.5971L136.83 55.9968C136.83 55.9968 138.776 51.5228 139.677 49.5319C140.365 48.017 140.844 45.0354 140.22 43.5912C139.593 42.1471 136.788 39.2363 133.816 41.9284V41.9316Z" fill="#FAA146"/>
<path d="M133.816 41.9319C133.816 41.9319 133.842 41.9061 133.893 41.8579C133.948 41.8129 134.025 41.7357 134.135 41.6488C134.353 41.4751 134.691 41.2307 135.186 41.0281C135.679 40.8351 136.354 40.7064 137.1 40.8865C137.843 41.0538 138.618 41.5105 139.287 42.1924C139.622 42.5333 139.934 42.9322 140.178 43.3953C140.42 43.8681 140.522 44.4149 140.551 44.9746C140.606 46.0971 140.445 47.2968 140.108 48.5126C139.943 49.1237 139.664 49.7123 139.403 50.3137C139.139 50.9152 138.869 51.5295 138.593 52.1535C138.043 53.4047 137.473 54.6977 136.888 56.026L136.862 56.0807L136.804 56.0582C136.766 56.0421 136.724 56.026 136.682 56.01C133.662 54.8038 130.799 53.6588 128.278 52.6521L128.22 52.6295L128.249 52.5749C129.046 50.9763 129.751 49.4904 130.355 48.1556C130.963 46.824 131.423 45.6243 131.928 44.6851C132.417 43.7427 132.88 43.0383 133.231 42.5848C133.405 42.3564 133.549 42.1924 133.652 42.083C133.755 41.9769 133.816 41.9287 133.816 41.9287C133.816 41.9287 133.803 41.9447 133.778 41.9705C133.749 42.0026 133.71 42.0412 133.665 42.0927C133.569 42.2053 133.427 42.3725 133.257 42.6009C132.916 43.0608 132.465 43.7652 131.986 44.7108C131.494 45.6468 131.044 46.8529 130.439 48.1877C129.841 49.5257 129.14 51.0181 128.348 52.6199L128.319 52.5427C130.844 53.5462 133.707 54.6848 136.73 55.8877C136.772 55.9038 136.814 55.9199 136.853 55.936L136.772 55.9681C137.358 54.643 137.927 53.3468 138.48 52.0956C138.757 51.4716 139.027 50.8573 139.291 50.2559C139.554 49.6512 139.831 49.0754 139.995 48.474C140.333 47.2743 140.493 46.081 140.445 44.9746C140.42 44.4213 140.32 43.8874 140.091 43.4339C139.857 42.9804 139.548 42.588 139.223 42.2471C138.57 41.5716 137.811 41.1181 137.084 40.9477C136.354 40.7675 135.691 40.8833 135.203 41.0667C134.71 41.2596 134.37 41.4977 134.148 41.6617C134.035 41.7453 133.958 41.8161 133.9 41.8579C133.845 41.9029 133.813 41.9222 133.813 41.9222L133.816 41.9319Z" fill="#263238"/>
<path d="M109.114 58.4191C109.114 58.461 108.474 58.4031 107.796 58.7537C107.111 59.0914 106.776 59.6446 106.744 59.6189C106.731 59.6124 106.795 59.4645 106.956 59.2651C107.117 59.0656 107.387 58.8212 107.738 58.6411C108.092 58.4642 108.445 58.3902 108.703 58.3806C108.96 58.3709 109.114 58.4063 109.114 58.4191Z" fill="#6F4439"/>
<path d="M129.194 52.9575C129.194 52.9575 129.188 52.9897 129.169 53.0444C129.143 53.1087 129.111 53.1891 129.072 53.2888C128.979 53.514 128.853 53.8227 128.693 54.2087C128.355 55.0096 127.885 56.1224 127.326 57.4412L127.313 57.4765H127.274C126.148 57.4894 124.868 57.5055 123.514 57.5183C121.141 57.5344 118.992 57.5473 117.422 57.5602C116.654 57.5602 116.026 57.5602 115.576 57.5602C115.367 57.5602 115.2 57.5537 115.074 57.5537C114.959 57.5537 114.901 57.5473 114.901 57.5441C114.901 57.5409 114.962 57.5344 115.074 57.5312C115.203 57.528 115.367 57.5216 115.576 57.5151C116.026 57.5055 116.654 57.4926 117.422 57.4765C118.995 57.4572 121.141 57.4283 123.514 57.3993C124.868 57.3897 126.148 57.3768 127.274 57.3704L127.223 57.4058C127.798 56.0935 128.284 54.9871 128.631 54.1926C128.802 53.8131 128.94 53.5075 129.04 53.2856C129.085 53.1891 129.124 53.1119 129.153 53.0476C129.178 52.9929 129.194 52.9672 129.198 52.9672L129.194 52.9575Z" fill="#6F4439"/>
<path d="M17.3191 79.5825H14.9358V111.122H17.3191V79.5825Z" fill="#455A64"/>
<path d="M115.097 79.8042H112.714V111.125H115.097V79.8042Z" fill="#455A64"/>
<path d="M117.455 79.2705H8.98546V81.1746H117.455V79.2705Z" fill="#455A64"/>
<path d="M116.412 81.1746C116.412 81.1971 103.756 81.2164 88.1437 81.2164C72.5314 81.2164 59.8718 81.1971 59.8718 81.1746C59.8718 81.1521 72.5282 81.1328 88.1437 81.1328C103.759 81.1328 116.412 81.1521 116.412 81.1746Z" fill="#263238"/>
<path d="M93.0165 62.4488C93.3028 62.3942 93.5762 62.5839 93.6309 62.867L96.5674 78.4214H110.842C111.054 78.4214 111.228 78.5951 111.228 78.8073C111.228 79.0196 111.054 79.1933 110.842 79.1933H95.7022V79.1322L95.6347 79.1451L92.5984 63.06C92.5437 62.7737 92.7335 62.5003 93.0165 62.4456V62.4488Z" fill="#263238"/>
<path d="M61.7489 20.2622C62.6035 14.9445 58.9855 9.9409 53.6678 9.08629C48.3501 8.23168 43.3465 11.8497 42.4919 17.1674C41.6373 22.4851 45.2553 27.4887 50.573 28.3433C55.8907 29.1979 60.8943 25.5799 61.7489 20.2622Z" fill="#E0E0E0"/>
<path d="M52.2264 27.442C57.1007 27.442 61.0522 23.4906 61.0522 18.6163C61.0522 13.7419 57.1007 9.79053 52.2264 9.79053C47.3521 9.79053 43.4007 13.7419 43.4007 18.6163C43.4007 23.4906 47.3521 27.442 52.2264 27.442Z" fill="white"/>
<path d="M43.3106 18.0853C43.3106 18.0853 43.3106 18.1335 43.3106 18.23C43.3106 18.3297 43.3106 18.4681 43.3106 18.6514C43.3106 18.7447 43.3106 18.8476 43.3106 18.9634C43.3138 19.0792 43.3299 19.2014 43.3428 19.3365C43.3557 19.4716 43.3685 19.6163 43.3814 19.7707C43.391 19.9283 43.4361 20.0891 43.465 20.2628C43.5744 20.9575 43.8413 21.7874 44.2916 22.6783C44.7451 23.566 45.4206 24.5052 46.3726 25.3286C46.4916 25.4315 46.6139 25.5344 46.7361 25.6374C46.8647 25.7338 46.9998 25.8239 47.1349 25.9204C47.2732 26.0105 47.4019 26.1166 47.5498 26.197C47.6946 26.2806 47.8425 26.3643 47.9937 26.4479C48.0677 26.4897 48.1448 26.5315 48.2188 26.5733C48.2992 26.6087 48.3764 26.6441 48.4568 26.6795C48.6177 26.7502 48.7785 26.821 48.9425 26.8917C49.1065 26.9593 49.2802 27.0075 49.4539 27.0654C49.6276 27.1169 49.7981 27.1909 49.9782 27.2198C50.3384 27.297 50.7019 27.3935 51.0846 27.4224C51.2744 27.4417 51.4641 27.4739 51.6571 27.4836C51.8501 27.4836 52.0463 27.49 52.2425 27.4932C52.3422 27.4932 52.4387 27.4996 52.5384 27.4932C52.6381 27.4836 52.7346 27.4771 52.8343 27.4675C53.0337 27.4482 53.2332 27.4385 53.4326 27.4096C53.8282 27.3292 54.2367 27.2777 54.6291 27.1426L54.9282 27.0558C54.9796 27.0397 55.0279 27.0268 55.0794 27.0107L55.2241 26.9529C55.4171 26.8757 55.6133 26.7953 55.8127 26.7148C56.0057 26.6248 56.1922 26.5219 56.382 26.4222C56.4753 26.3707 56.575 26.3289 56.665 26.2678L56.9384 26.0909C57.3115 25.8689 57.646 25.5827 57.9934 25.3061C58.1542 25.1517 58.3118 24.9973 58.4726 24.8429L58.5949 24.7271L58.7042 24.5985L58.9229 24.3412L59.1449 24.0838L59.3411 23.804L59.5373 23.5242L59.637 23.3827C59.6659 23.3344 59.6949 23.283 59.7238 23.2347C59.8364 23.0353 59.949 22.8359 60.0647 22.6333C60.158 22.421 60.2513 22.2087 60.3478 21.9964C60.6919 21.1312 60.9107 20.2017 60.9846 19.2464C61.0361 18.2879 60.9428 17.3391 60.7144 16.4353C60.6501 16.2102 60.5826 15.9882 60.5182 15.7663C60.4314 15.5508 60.3446 15.3385 60.2609 15.1262L60.1966 14.9686L60.1162 14.8175L59.9586 14.5151L59.801 14.2128L59.6177 13.9297L59.4343 13.6467L59.3411 13.5052L59.2349 13.3733C59.0966 13.1996 58.9583 13.0227 58.82 12.849C58.5112 12.5306 58.2185 12.2025 57.8776 11.9324L57.6299 11.7201C57.5495 11.6493 57.4563 11.5947 57.3694 11.5303C57.1925 11.4081 57.022 11.2794 56.8419 11.1669C56.6586 11.0607 56.472 10.9578 56.2919 10.8549L56.1536 10.7777C56.1054 10.7552 56.0571 10.7359 56.0121 10.7134L55.7258 10.5879C55.3527 10.4014 54.9539 10.2985 54.5744 10.1666C54.3782 10.1119 54.182 10.0765 53.989 10.0315C53.8925 10.009 53.796 9.98968 53.6995 9.96717C53.603 9.94787 53.5033 9.94143 53.4068 9.92857C53.2106 9.90605 53.0177 9.88354 52.8247 9.86103C52.6317 9.84494 52.4387 9.85138 52.2489 9.84494C51.8662 9.82243 51.4931 9.87389 51.1264 9.89962C50.9399 9.90605 50.763 9.95752 50.5861 9.98646C50.4092 10.0218 50.2291 10.0476 50.0586 10.0926C49.8881 10.1441 49.7177 10.1923 49.5504 10.2406C49.4668 10.2663 49.3832 10.2888 49.2995 10.3145C49.2191 10.3467 49.1387 10.3789 49.0583 10.411C48.9007 10.4754 48.7431 10.5397 48.5855 10.6008C48.4279 10.6587 48.2864 10.7487 48.1384 10.8227C47.9937 10.8999 47.8457 10.9707 47.7074 11.0511C47.5723 11.1379 47.4405 11.2248 47.3086 11.3116C46.2568 12.0031 45.4656 12.849 44.8995 13.6692C44.3399 14.4926 43.9668 15.2806 43.7641 15.9561C43.7127 16.1233 43.6451 16.2777 43.6162 16.4321C43.5808 16.5833 43.5486 16.728 43.5197 16.8599C43.4907 16.9917 43.4586 17.114 43.4393 17.2265C43.4264 17.3391 43.4136 17.442 43.4007 17.5353C43.3782 17.7186 43.3589 17.8569 43.346 17.9534C43.3331 18.0467 43.3235 18.095 43.3235 18.095C43.3235 18.095 43.3235 18.0467 43.3364 17.9502C43.346 17.8537 43.3621 17.7122 43.3814 17.5289C43.391 17.4356 43.4039 17.3327 43.4136 17.2201C43.4296 17.1075 43.4618 16.9853 43.4875 16.8502C43.5165 16.7183 43.5454 16.5736 43.5808 16.4224C43.6065 16.268 43.6741 16.1137 43.7255 15.9432C43.9217 15.2645 44.2916 14.4701 44.8513 13.6371C45.4141 12.8072 46.2118 11.9549 47.2668 11.2537C47.3986 11.1669 47.5337 11.08 47.6688 10.99C47.8103 10.9096 47.9583 10.8388 48.103 10.7584C48.251 10.6844 48.3957 10.5944 48.5533 10.5332C48.7109 10.4689 48.8685 10.4046 49.0293 10.3403C49.1098 10.3081 49.1902 10.2759 49.2706 10.2438C49.3542 10.218 49.4378 10.1955 49.5215 10.1698C49.6919 10.1183 49.8624 10.0701 50.0329 10.0186C50.2065 9.9736 50.3867 9.94787 50.5668 9.91249C50.7469 9.88354 50.927 9.83208 51.1136 9.82564C51.4834 9.7967 51.863 9.74524 52.2457 9.76775C52.4387 9.77418 52.6317 9.76775 52.8279 9.78383C53.0209 9.80635 53.2171 9.82886 53.4165 9.85138C53.5162 9.86424 53.6159 9.87067 53.7124 9.88997C53.8089 9.91249 53.9086 9.93179 54.0051 9.9543C54.2013 9.99933 54.4007 10.0347 54.5969 10.0894C54.9829 10.2213 55.3849 10.3274 55.7612 10.5139L56.0507 10.6426C56.0989 10.6651 56.1472 10.6844 56.1954 10.7069L56.3337 10.7841C56.5171 10.887 56.7036 10.9932 56.8902 11.0993C57.0703 11.2119 57.244 11.3438 57.4241 11.466C57.5109 11.5303 57.6042 11.585 57.6878 11.659L57.9387 11.8713C58.2861 12.1447 58.582 12.4759 58.894 12.7944C59.0323 12.968 59.1738 13.1449 59.3153 13.3218L59.4215 13.4537L59.5147 13.5952L59.7013 13.8815L59.8878 14.1678L60.0487 14.4733L60.2095 14.7789L60.2899 14.9333L60.3574 15.0941C60.4443 15.3096 60.5311 15.5251 60.618 15.7438C60.6823 15.9689 60.7498 16.1941 60.8174 16.4192C61.049 17.3327 61.1422 18.2944 61.094 19.2593C61.0168 20.2242 60.7981 21.1634 60.4507 22.0382C60.3542 22.2537 60.2609 22.4692 60.1644 22.6815C60.0487 22.8841 59.9361 23.0868 59.8203 23.2894C59.7913 23.3409 59.7656 23.3923 59.7335 23.4406L59.6337 23.5821L59.4343 23.8651L59.2349 24.145L59.013 24.4055L58.7911 24.666L58.6785 24.7947L58.5563 24.9137C58.3922 25.0713 58.2314 25.2257 58.0706 25.3833C57.72 25.6599 57.3823 25.9493 57.0027 26.1745L56.7261 26.3546C56.6361 26.4157 56.5332 26.4575 56.4399 26.509C56.2469 26.6087 56.0571 26.7148 55.8641 26.8017C55.6647 26.8821 55.4685 26.9625 55.2691 27.0397L55.1212 27.0976C55.0697 27.1137 55.0215 27.1265 54.97 27.1426L54.6677 27.2327C54.2688 27.3678 53.8571 27.4192 53.4583 27.4996C53.2557 27.5286 53.053 27.5382 52.8536 27.5575C52.7539 27.5672 52.6542 27.5736 52.5545 27.5833C52.4548 27.5897 52.3551 27.5833 52.2554 27.5833C52.056 27.58 51.8598 27.5768 51.6636 27.5736C51.4674 27.564 51.2776 27.5318 51.0846 27.5125C50.6987 27.4836 50.332 27.3839 49.9685 27.3067C49.7852 27.2745 49.6147 27.2005 49.4378 27.1491C49.2641 27.0879 49.0905 27.0397 48.9232 26.9722C48.7592 26.8982 48.5951 26.8274 48.4343 26.7567C48.3539 26.7213 48.2735 26.6859 48.1931 26.6505C48.1159 26.6087 48.0419 26.5669 47.9647 26.5219C47.8136 26.435 47.6656 26.3514 47.5177 26.2678C47.3697 26.1874 47.2378 26.078 47.1027 25.9879C46.9677 25.8915 46.8326 25.8014 46.7039 25.7017C46.5817 25.5955 46.4595 25.4926 46.3405 25.3897C45.3852 24.5567 44.7098 23.6046 44.2562 22.7105C43.8092 21.8131 43.5486 20.9768 43.4425 20.2757C43.4168 20.102 43.3685 19.9379 43.3621 19.7835C43.3492 19.6259 43.3364 19.4812 43.3267 19.3461C43.3171 19.211 43.3042 19.0856 43.301 18.9698C43.301 18.854 43.3074 18.7511 43.3074 18.6578C43.3138 18.4745 43.3171 18.333 43.3203 18.2365C43.3203 18.14 43.3267 18.0917 43.3267 18.0917L43.3106 18.0853Z" fill="#EBEBEB"/>
<path d="M55.5715 18.2656C55.5715 18.2656 55.4589 18.2784 55.2563 18.2849C55.0343 18.2881 54.7449 18.2945 54.3943 18.3009C53.6609 18.3106 52.6413 18.317 51.4899 18.3202H51.432V18.2623C51.432 18.079 51.432 17.8828 51.432 17.6866C51.432 16.4001 51.4384 15.2357 51.4481 14.393C51.4545 13.9878 51.4609 13.6501 51.4674 13.396C51.4738 13.1612 51.4802 13.0293 51.4899 13.0293C51.4995 13.0293 51.506 13.158 51.5124 13.396C51.5156 13.6501 51.522 13.9878 51.5317 14.393C51.5413 15.2357 51.5478 16.4001 51.5478 17.6866C51.5478 17.8828 51.5478 18.079 51.5478 18.2623L51.4899 18.2044C52.6413 18.2044 53.6609 18.2141 54.3943 18.2237C54.7449 18.2302 55.0343 18.2366 55.2563 18.2398C55.4589 18.2463 55.5715 18.2527 55.5715 18.2591V18.2656Z" fill="#E0E0E0"/>
<path d="M51.5188 10.5723C51.551 10.5723 51.5767 10.9068 51.5767 11.3185C51.5767 11.7302 51.551 12.0647 51.5188 12.0647C51.4867 12.0647 51.4609 11.7302 51.4609 11.3185C51.4609 10.9068 51.4867 10.5723 51.5188 10.5723Z" fill="#E0E0E0"/>
<path d="M55.565 11.7716C55.5875 11.7941 55.372 12.045 55.0858 12.3313C54.7995 12.6175 54.5487 12.833 54.5261 12.8105C54.5036 12.788 54.7191 12.5371 55.0054 12.2509C55.2916 11.9646 55.5425 11.7491 55.565 11.7716Z" fill="#E0E0E0"/>
<path d="M57.9291 14.3547C57.9452 14.3837 57.6621 14.5541 57.318 14.7632C56.9738 14.9723 56.694 15.1459 56.6747 15.117C56.6554 15.0913 56.9095 14.8758 57.2601 14.6635C57.6107 14.4512 57.9162 14.3258 57.9323 14.3547H57.9291Z" fill="#E0E0E0"/>
<path d="M59.3153 18.1883C59.3153 18.2204 58.8586 18.2462 58.299 18.2462C57.7393 18.2462 57.2826 18.2204 57.2826 18.1883C57.2826 18.1561 57.7393 18.1304 58.299 18.1304C58.8586 18.1304 59.3153 18.1561 59.3153 18.1883Z" fill="#E0E0E0"/>
<path d="M45.2147 18.0535C45.2147 18.0857 44.7837 18.1114 44.253 18.1114C43.7223 18.1114 43.2913 18.0857 43.2913 18.0535C43.2913 18.0213 43.7223 17.9956 44.253 17.9956C44.7837 17.9956 45.2147 18.0213 45.2147 18.0535Z" fill="#E0E0E0"/>
<path d="M46.2118 20.9062C46.2311 20.9287 45.9063 21.2246 45.4849 21.5655C45.0636 21.9065 44.7065 22.1606 44.6872 22.1348C44.6679 22.1091 44.9928 21.8132 45.4141 21.4755C45.8323 21.1378 46.1925 20.8837 46.2118 20.9062Z" fill="#E0E0E0"/>
<path d="M48.6723 23.116C48.6981 23.1353 48.4568 23.5052 48.177 23.9716C47.8972 24.4379 47.6817 24.8239 47.6527 24.811C47.6238 24.7982 47.7943 24.3833 48.0773 23.9137C48.3603 23.4409 48.6466 23.0967 48.6691 23.116H48.6723Z" fill="#E0E0E0"/>
<path d="M51.5188 25.9624C51.4867 25.9624 51.4609 25.5057 51.4609 24.9461C51.4609 24.3864 51.4867 23.9297 51.5188 23.9297C51.551 23.9297 51.5767 24.3864 51.5767 24.9461C51.5767 25.5057 51.551 25.9624 51.5188 25.9624Z" fill="#E0E0E0"/>
<path d="M55.9028 24.6083C55.8867 24.634 55.4878 24.4056 55.0633 24.0325C54.6387 23.6627 54.3557 23.2992 54.3814 23.2799C54.4071 23.2574 54.7223 23.5823 55.1405 23.9457C55.5586 24.3124 55.9221 24.5793 55.9028 24.6051V24.6083Z" fill="#E0E0E0"/>
<path d="M57.958 22.3923C57.9355 22.4148 57.6332 22.1511 57.2858 21.8005C56.9352 21.4499 56.6715 21.1508 56.694 21.1283C56.7165 21.1058 57.0188 21.3695 57.3662 21.7201C57.7168 22.0707 57.9805 22.3698 57.958 22.3923Z" fill="#E0E0E0"/>
<path d="M46.1185 15.3194C46.096 15.3419 45.8291 15.1135 45.5235 14.808C45.2179 14.5024 44.9896 14.2355 45.0089 14.213C45.0314 14.1904 45.2984 14.4188 45.6039 14.7276C45.9095 15.0331 46.1378 15.3001 46.1153 15.3226L46.1185 15.3194Z" fill="#E0E0E0"/>
<path d="M48.6563 12.6436C48.6337 12.6661 48.3732 12.4409 48.0709 12.1418C47.7718 11.8427 47.5466 11.5822 47.5691 11.5597C47.5916 11.5371 47.8522 11.7623 48.1545 12.0614C48.4536 12.3605 48.6788 12.6211 48.6563 12.6436Z" fill="#E0E0E0"/>
<path d="M44.3238 18.7032C44.3238 14.0041 47.9937 10.1669 52.6253 9.89352C52.4516 9.88387 52.2779 9.87744 52.101 9.87744C47.2282 9.87744 43.2753 13.8272 43.2753 18.7032C43.2753 23.5792 47.225 27.5289 52.101 27.5289C52.2779 27.5289 52.4516 27.5225 52.6253 27.5128C47.9969 27.2427 44.3238 23.4023 44.3238 18.7032Z" fill="#F5F5F5"/>
<path d="M14.4469 14.8013C15.8042 12.8007 17.7565 11.5463 20.1591 11.2922C21.5165 11.1474 22.1018 11.3822 23.1021 11.5559C24.1024 11.7328 25.032 12.1799 25.6913 12.955C26.4729 13.8781 27.1516 14.9267 27.3896 16.1103C27.634 17.3261 27.6469 18.5387 27.5021 19.5486C27.3252 20.7773 26.6627 22.6878 26.029 23.7556L23.9673 24.1931C22.2401 24.4054 20.4904 24.6208 18.7665 24.3764C17.0457 24.132 15.3249 23.3697 14.2893 21.9706C12.8515 20.0279 13.0895 16.7986 14.4469 14.798V14.8013Z" fill="#263238"/>
<path d="M17.2355 14.5313L21.2688 12.4985L22.372 12.5275C24.8293 12.3184 26.7656 14.8754 26.9586 16.8664C27.1741 19.076 27.3478 21.781 27.1419 23.4439C26.727 26.7825 23.9545 27.3067 23.9545 27.3067C23.9545 27.3067 24.4176 31.2018 24.5366 32.3018L17.8434 30.2562L16.2255 15.7567C16.1934 15.152 16.6308 14.6213 17.229 14.5345L17.2355 14.5313Z" fill="#FFBF9D"/>
<path d="M22.1565 23.1123C22.1629 22.9386 22.2466 22.7777 22.3592 22.662C22.5843 22.4304 22.9413 22.3789 23.2211 22.5365C23.4977 22.6941 23.6811 23.0511 23.665 23.4017C23.5363 23.6172 23.3241 23.7748 23.0764 23.8166C23.0378 23.8231 22.9992 23.8295 22.9606 23.8295C22.7708 23.8424 22.5746 23.7941 22.417 23.6687C22.2594 23.5432 22.1501 23.331 22.1597 23.1155L22.1565 23.1123Z" fill="#FF9A6C"/>
<path d="M26.3153 19.848C26.3314 20.0731 26.1545 20.2726 25.9197 20.2918C25.6849 20.3111 25.4822 20.1471 25.4662 19.922C25.4501 19.6968 25.627 19.4974 25.8618 19.4781C26.0966 19.4588 26.2992 19.6228 26.3153 19.848Z" fill="#263238"/>
<path d="M26.3056 18.0372C26.2542 18.0951 25.9229 17.8668 25.4662 17.8828C25.0094 17.8925 24.6782 18.1402 24.6267 18.0855C24.601 18.063 24.6524 17.96 24.7939 17.8475C24.9355 17.7349 25.1767 17.6255 25.463 17.6159C25.7492 17.6062 25.9937 17.7059 26.1352 17.8089C26.2799 17.9118 26.3314 18.0115 26.3056 18.0372Z" fill="#263238"/>
<path d="M23.6939 21.874C23.6939 21.8483 23.9738 21.7904 24.4337 21.7132C24.5495 21.6971 24.6589 21.6714 24.6782 21.5909C24.7039 21.5041 24.6492 21.3819 24.5881 21.2468C24.4691 20.967 24.3437 20.6743 24.2118 20.3655C23.6875 19.1143 23.3048 18.0819 23.3562 18.0594C23.4077 18.0401 23.8741 19.0371 24.3983 20.2915C24.5238 20.6003 24.646 20.8962 24.7618 21.176C24.81 21.3079 24.8904 21.4559 24.839 21.6328C24.81 21.7228 24.7264 21.7871 24.6524 21.8097C24.5784 21.8354 24.5109 21.8386 24.453 21.845C23.9899 21.8868 23.7004 21.8965 23.6972 21.8708L23.6939 21.874Z" fill="#263238"/>
<path d="M23.9609 27.2969C23.9609 27.2969 21.732 27.5156 19.4708 26.2612C19.4708 26.2612 20.7349 28.5223 24.0477 28.0978L23.9577 27.2937L23.9609 27.2969Z" fill="#FF9A6C"/>
<path d="M26.3089 16.6314C26.2349 16.7472 25.8811 16.6829 25.4726 16.7312C25.0609 16.7665 24.7264 16.8984 24.6331 16.8019C24.5913 16.7537 24.6331 16.6443 24.7714 16.5253C24.9065 16.4095 25.1478 16.2969 25.4276 16.268C25.7106 16.2391 25.9647 16.3002 26.1191 16.3902C26.2767 16.4771 26.3378 16.5768 26.3056 16.6347L26.3089 16.6314Z" fill="#263238"/>
<path d="M21.6097 20.1919C21.6194 20.4171 21.8156 20.5972 22.0504 20.5908C22.2852 20.5876 22.4685 20.401 22.4621 20.1759C22.4524 19.9507 22.2562 19.7706 22.0214 19.777C21.7866 19.7802 21.6033 19.9668 21.6097 20.1919Z" fill="#263238"/>
<path d="M20.1173 18.4099C20.1752 18.4614 20.4776 18.2008 20.9375 18.1687C21.3942 18.1301 21.748 18.3424 21.7931 18.2813C21.8156 18.2555 21.7545 18.159 21.6001 18.0625C21.4489 17.966 21.1948 17.8824 20.9118 17.9017C20.6255 17.9242 20.3939 18.0465 20.2653 18.1622C20.1334 18.2813 20.0916 18.3842 20.1206 18.4067L20.1173 18.4099Z" fill="#263238"/>
<path d="M20.722 16.7922C20.8185 16.8919 21.1659 16.7632 21.5904 16.7343C22.015 16.6925 22.3784 16.76 22.4556 16.6474C22.4878 16.5928 22.4267 16.4931 22.2627 16.403C22.1018 16.3129 21.8381 16.2486 21.5486 16.2711C21.2559 16.2969 21.0083 16.403 20.8668 16.5188C20.722 16.6346 20.6802 16.7439 20.722 16.7922Z" fill="#263238"/>
<path d="M17.2934 21.2564C17.2837 21.0087 16.9782 20.4362 16.7337 20.4041C16.0776 20.3237 14.9036 20.4169 14.9486 22.0734C15.0097 24.3377 17.2741 23.8102 17.2741 23.7427C17.2741 23.6912 17.3255 22.1055 17.2934 21.2532V21.2564Z" fill="#FFBF9D"/>
<path d="M16.6243 22.9356C16.6243 22.9356 16.5858 22.9645 16.5214 22.9967C16.4571 23.0289 16.3445 23.0514 16.2255 23.0096C15.9843 22.9292 15.772 22.5528 15.7495 22.1444C15.7366 21.9385 15.7752 21.7423 15.8428 21.5751C15.9071 21.4078 16.01 21.2888 16.1322 21.2631C16.2512 21.2309 16.3381 21.3017 16.367 21.366C16.3992 21.4271 16.3863 21.4754 16.3992 21.4786C16.4056 21.485 16.4474 21.44 16.4249 21.3467C16.4153 21.3017 16.3863 21.2502 16.3317 21.2084C16.277 21.1666 16.1966 21.1441 16.1129 21.1569C15.9393 21.173 15.7849 21.3403 15.7109 21.5204C15.6273 21.7037 15.579 21.9256 15.5919 22.1572C15.6176 22.6139 15.8653 23.0353 16.1934 23.1189C16.3542 23.1575 16.486 23.1028 16.5536 23.0482C16.6211 22.9903 16.634 22.9388 16.6243 22.9356Z" fill="#FF9A6C"/>
<path d="M16.6404 20.4203L17.2644 20.9638C20.87 18.5901 24.5366 12.1349 23.591 12.3986C23.591 12.3986 21.8349 11.8518 20.0241 12.3311C18.2132 12.8071 14.8103 14.039 15.0548 16.2036C15.3024 18.3682 16.6372 20.4235 16.6372 20.4235L16.6404 20.4203Z" fill="#263238"/>
<path d="M15.5822 11.363C16.4603 11.8776 17.2419 13.3732 16.8817 14.3221C17.0425 15.3159 16.6597 16.3838 15.9007 17.0464C15.1416 17.7089 14.0352 17.9469 13.0703 17.6542C12.4045 17.4516 11.8126 17.0045 11.4524 16.4063C11.0279 15.6987 10.9474 14.8206 11.0986 14.0101C11.2852 13.0098 11.8319 12.0577 12.6843 11.5013C13.5366 10.9481 14.701 10.8452 15.579 11.3598L15.5822 11.363Z" fill="#263238"/>
<path d="M15.3828 20.4267C15.3828 20.4267 15.534 20.3752 15.7945 20.2498C16.055 20.1244 16.4249 19.9314 16.8752 19.6741C17.7694 19.1595 18.9852 18.3779 20.1238 17.2714C21.2656 16.1682 22.0568 14.9396 22.4749 13.9875C22.6872 13.5147 22.8191 13.1127 22.8931 12.8328C22.967 12.553 22.9928 12.3954 22.9831 12.3922C22.951 12.3826 22.8094 13.0097 22.3624 13.9361C21.9217 14.8624 21.1273 16.0557 20.0015 17.146C18.8758 18.2364 17.6858 19.0308 16.8109 19.5679C16.3735 19.8381 16.01 20.044 15.7591 20.1887C15.5083 20.3334 15.3732 20.4138 15.3764 20.4267H15.3828Z" fill="#455A64"/>
<path d="M13.4048 18.7253C13.4369 18.7253 13.4498 18.304 13.5752 17.6382C13.7007 16.9724 13.9676 16.0686 14.4597 15.1616C14.9518 14.2546 15.5629 13.5341 16.0518 13.0677C16.5407 12.5981 16.8881 12.3569 16.8688 12.3312C16.8624 12.3215 16.7723 12.3762 16.6115 12.4791C16.4507 12.582 16.2287 12.7525 15.9714 12.9777C15.4536 13.428 14.8135 14.1516 14.3118 15.078C13.81 16.0043 13.5559 16.937 13.4594 17.6157C13.4112 17.9566 13.3887 18.2332 13.3919 18.4262C13.3919 18.6192 13.3951 18.7253 13.408 18.7253H13.4048Z" fill="#455A64"/>
<path d="M15.8106 23.981C15.8106 24.4506 16.1901 24.8301 16.6597 24.8301C17.1293 24.8301 17.5089 24.4506 17.5089 23.981C17.5089 23.5114 17.1293 23.1318 16.6597 23.1318C16.1901 23.1318 15.8106 23.5114 15.8106 23.981Z" fill="#263238"/>
<path d="M23.8001 23.4725C23.7904 23.3921 23.2597 23.4854 22.8062 23.0962C22.3495 22.7102 22.3077 22.1345 22.2337 22.1442C22.1983 22.1442 22.1533 22.2889 22.1887 22.5269C22.2208 22.7617 22.3559 23.0898 22.6358 23.3278C22.9156 23.5626 23.2437 23.6269 23.4656 23.6076C23.6907 23.5883 23.813 23.5079 23.8033 23.4693L23.8001 23.4725Z" fill="#263238"/>
<path d="M11.7129 52.3172C11.7129 52.3172 9.18165 61.2427 10.6869 66.0897C11.5875 68.9973 24.2439 85.0117 24.8518 85.7C25.2764 86.1792 19.4419 101.309 18.3741 104.461L25.0834 107.713C25.0834 107.713 33.4782 89.862 33.9928 86.7325C34.6521 82.7152 25.2089 65.5301 25.5562 65.2985L28.9495 58.2193L26.132 50.9277C26.132 50.9277 14.2603 51.0564 11.8352 51.2494L11.7162 52.3172H11.7129Z" fill="#263238"/>
<path d="M26.3893 57.5791C26.3893 57.5791 42.7574 63.3847 44.6004 64.3689C46.6139 65.4399 48.132 69.1999 46.453 72.3937C44.7741 75.5876 30.0624 84.7382 30.0624 84.7382L26.3893 79.1481L37.0387 70.7598L25.5112 68.0452L21.7577 63.5969L26.3893 57.5823V57.5791Z" fill="#263238"/>
<path d="M33.9896 86.6327C33.9671 86.6327 34.0635 86.2242 33.9831 85.4941C33.9092 84.764 33.6229 83.7315 33.1533 82.5029C32.9217 81.8886 32.6419 81.2228 32.346 80.5055C32.1948 80.1485 32.0533 79.769 31.9086 79.3862C31.7638 79.0035 31.5902 78.6143 31.4197 78.2155C30.7217 76.6201 29.9273 74.8769 29.091 73.0467C27.7402 70.1134 26.4922 67.402 25.4919 65.2277L25.4823 65.2052L25.4887 65.1827C25.9132 63.4201 26.2896 61.976 26.5726 60.9789C26.7173 60.4803 26.8363 60.0944 26.9328 59.8339C26.9843 59.7052 27.0197 59.6055 27.0551 59.5444C27.0904 59.4833 27.113 59.4511 27.113 59.4543C27.113 59.4543 27.1001 59.4897 27.0711 59.554C27.0422 59.6184 27.0132 59.7181 26.9682 59.8499C26.8878 60.1137 26.7785 60.5029 26.6466 61.0014C26.3861 62.0049 26.029 63.4491 25.6173 65.2149V65.1698C26.6305 67.3312 27.8945 70.0362 29.2422 72.976C30.0785 74.8061 30.8697 76.5526 31.5612 78.1511C31.7317 78.5532 31.9021 78.9424 32.0469 79.3315C32.1916 79.7207 32.3299 80.0906 32.4779 80.4508C32.7673 81.1681 33.0407 81.8371 33.2659 82.4579C33.7226 83.6962 33.9928 84.7415 34.0475 85.4845C34.1118 86.2275 33.9896 86.6295 33.9896 86.6295V86.6327Z" fill="#455A64"/>
<path opacity="0.3" d="M26.6209 60.9404C26.5887 61.0594 26.6209 65.2407 26.6209 65.2407L28.7211 68.8013L27.0454 68.4056L25.553 65.2986L26.6209 60.9404Z" fill="black"/>
<path d="M35.9065 60.3033C35.4337 59.8401 34.0475 58.5375 33.0761 57.6272C32.703 57.2799 32.9442 56.6559 33.4557 56.643L44.6647 56.4147C44.832 56.4114 44.9896 56.4822 45.1022 56.6044L47.4437 59.2354C47.7653 59.5957 47.5177 60.1682 47.0352 60.181L36.3247 60.4609C36.1703 60.4641 36.0223 60.4062 35.913 60.3L35.9065 60.3033Z" fill="#455A64"/>
<path d="M32.7352 58.2868C32.7352 58.2868 34.0378 57.7078 35.3405 57.5792C36.6431 57.4505 37.2928 57.9973 37.9907 57.933C38.6887 57.8686 40.596 58.0552 40.596 58.5666C40.596 59.078 37.9457 59.2645 37.9457 59.2645L40.2712 60.0075C40.2712 60.0075 42.9214 59.6827 42.9697 60.0075C43.0147 60.3324 40.596 60.6572 39.4799 60.7988C38.3638 60.9371 31.8989 61.0303 30.9662 60.7988C30.0366 60.5672 23.4302 56.566 23.4302 56.566L26.5919 53.311L32.732 58.29L32.7352 58.2868Z" fill="#FFBF9D"/>
<path d="M16.4442 29.1719C16.4442 29.1719 13.4015 29.6382 12.3627 32.9511C11.4974 35.7043 13.1474 47.0228 13.8486 49.0684C14.5498 51.1108 22.1018 57.6883 22.7676 57.1286C23.4302 56.569 27.113 53.314 27.113 53.314L21.2045 46.3312C21.2045 46.3312 21.5165 38.0394 21.1273 36.4731C20.7349 34.9099 18.091 29.0175 16.4475 29.1751L16.4442 29.1719Z" fill="#FAA146"/>
<path d="M12.7518 42.9767C13.1828 46.9071 12.3401 48.5989 12.3401 48.5989C11.655 49.1168 11.3141 49.9723 11.2401 50.6124C11.1983 50.963 11.4814 51.2653 11.8319 51.2525L26.1287 50.9308C26.1287 50.9308 28.1293 51.1206 28.0875 49.2261C28.0393 47.1098 28.6247 39.6671 27.8559 36.7434C27.5922 35.7334 24.3244 30.8124 24.3244 30.8124L17.5089 26.9463L16.7884 28.8054C16.7884 28.8054 14.627 29.5934 13.6395 30.8671C12.858 31.8738 12.5846 32.5685 12.2726 33.646C11.6808 35.682 12.5235 40.8732 12.755 42.9799L12.7518 42.9767Z" fill="#FAA146"/>
<path d="M48.7013 36.4155C48.7013 36.4155 48.5758 36.3029 48.1416 36.4444C47.7074 36.5827 46.4756 37.1906 45.9159 37.3322C45.3563 37.4769 44.1437 37.9433 44.1437 37.9433C44.1437 37.9433 43.4682 37.8661 42.6127 38.4579C41.7571 39.0497 39.3384 40.6482 39.3384 40.6482L40.1682 42.9994C40.1682 42.9994 41.101 42.8418 41.3679 42.9222C41.6349 42.9994 42.4229 43.0509 43.0823 42.8515C43.7384 42.6553 44.6293 42.2982 44.6293 42.2982C44.6293 42.2982 45.4946 42.369 45.7229 42.0538C45.9513 41.7386 45.7068 41.1725 45.7068 41.1725C45.7068 41.1725 46.556 40.3909 46.1925 39.9535C45.8258 39.5161 45.3723 39.0304 45.3723 39.0304C45.3723 39.0304 47.894 37.6924 48.3732 37.3386C48.8492 36.9848 48.9425 36.7017 48.7013 36.4155Z" fill="#FFBF9D"/>
<path d="M39.3384 40.6479L31.4904 43.2886L28.3191 44.8903L32.7706 47.2898L40.1682 42.9991L39.3384 40.6479Z" fill="#FFBF9D"/>
<path d="M44.0922 38.7086C44.1308 38.6958 44.3045 39.6285 43.9957 40.7317C43.9829 40.7735 43.97 40.8154 43.9603 40.8572L43.896 40.751C44.4171 40.8443 44.8802 40.9376 45.2147 41.0116C45.5589 41.0791 45.739 41.2238 45.7229 41.2431C45.71 41.2592 45.5299 41.1627 45.1954 41.1241C44.8577 41.0791 44.3913 41.0051 43.8703 40.9151L43.7802 40.899L43.806 40.8089C43.8156 40.7703 43.8285 40.7285 43.8413 40.6899C44.1405 39.6253 44.0472 38.7118 44.0986 38.7118L44.0922 38.7086Z" fill="#FF9A6C"/>
<path d="M44.0536 39.8249C44.0536 39.8249 44.1244 39.8185 44.2144 39.8764C44.3045 39.9343 44.4203 40.0565 44.4685 40.243L44.3849 40.1852C44.5168 40.1626 44.6679 40.1433 44.8288 40.1401C45.4045 40.1273 45.8451 40.3042 45.8291 40.346C45.8162 40.3942 45.3755 40.2945 44.832 40.3074C44.6776 40.3074 44.5329 40.3202 44.4074 40.3331L44.3367 40.3395L44.3238 40.2752C44.2627 39.9697 44.0311 39.8539 44.0536 39.8249Z" fill="#FF9A6C"/>
<path d="M45.2372 39.2232C45.263 39.265 45.0539 39.4419 44.8641 39.7153C44.6712 39.9854 44.5715 40.2427 44.5264 40.2299C44.4814 40.2234 44.5136 39.9179 44.7291 39.6155C44.9413 39.3132 45.2179 39.1813 45.2405 39.2199L45.2372 39.2232Z" fill="#FF9A6C"/>
<path d="M24.1764 29.082L24.9644 31.1984C25.8232 32.0121 27.9589 34.299 28.3641 35.8718C28.8948 37.9303 31.2846 43.099 31.2846 43.099C31.2846 43.099 36.7074 40.7864 37.0805 41.166C37.4536 41.5455 39.3545 46.0002 38.7305 46.9361C38.1065 47.8721 32.5679 50.323 30.3293 49.773C28.0907 49.223 25.9647 45.9809 25.9647 45.9809L24.1764 29.082Z" fill="#FAA146"/>
<path d="M27.7369 35.8911C27.7369 35.8911 27.8109 36.0584 27.9138 36.3736C27.9685 36.5312 28.0296 36.7242 28.0779 36.9557C28.1293 37.1841 28.2001 37.4446 28.2387 37.7405C28.3448 38.3259 28.3995 39.0303 28.4252 39.8151C28.4381 40.5999 28.4124 41.4587 28.3545 42.3592C28.2323 44.1604 28.1036 45.7847 28.1165 46.9619C28.11 47.2578 28.1293 47.5215 28.1325 47.7563C28.1358 47.9911 28.1518 48.1905 28.1647 48.3546C28.1904 48.6826 28.1969 48.866 28.1872 48.8692C28.1776 48.8724 28.1454 48.6891 28.1004 48.361C28.0747 48.197 28.0521 47.9943 28.0393 47.7595C28.0232 47.5247 27.9975 47.2578 27.9975 46.9619C27.9524 45.7783 28.0618 44.1411 28.184 42.3464C28.2387 41.449 28.2709 40.5935 28.2676 39.8151C28.2483 39.0367 28.2097 38.3388 28.1197 37.7566C27.9524 36.5923 27.6983 35.9008 27.7369 35.8911Z" fill="#263238"/>
<path d="M31.2042 46.1644C31.1592 46.1644 31.1302 45.46 31.1431 44.5916C31.1559 43.7231 31.2042 43.022 31.2492 43.022C31.2942 43.022 31.3232 43.7264 31.3103 44.5948C31.2975 45.4632 31.2492 46.1644 31.2042 46.1644Z" fill="#263238"/>
<path d="M21.0855 35.521C21.0855 35.521 21.0951 35.5853 21.0983 35.7108C21.0983 35.8523 21.1015 36.0324 21.1048 36.2543C21.1112 36.7497 21.1208 37.4283 21.1305 38.2549C21.1498 39.9435 21.2399 42.2786 21.1691 44.8581C21.1627 45.495 21.2206 46.1286 21.5004 46.6497C21.7802 47.1707 22.2015 47.5921 22.5618 48.0134C23.2951 48.8497 23.9545 49.6055 24.5173 50.2456C25.0577 50.8728 25.5016 51.3874 25.8232 51.7605C25.9647 51.931 26.0805 52.0693 26.1706 52.1786C26.2478 52.2751 26.2863 52.3266 26.2831 52.333C26.2799 52.3394 26.2317 52.2912 26.1448 52.2011C26.0483 52.0982 25.9229 51.9663 25.7717 51.8055C25.4372 51.4388 24.9805 50.9371 24.4241 50.326C23.8548 49.6924 23.1858 48.9429 22.4428 48.1163C22.0793 47.695 21.6548 47.2801 21.3524 46.7269C21.0501 46.1672 20.9922 45.5014 20.9986 44.8581C21.0694 42.2818 20.9986 39.9499 21.0083 38.2581C21.0083 37.4122 21.0179 36.7304 21.034 36.2575C21.0404 36.0228 21.0501 35.8394 21.0597 35.714C21.0694 35.5885 21.0758 35.5242 21.0822 35.5242L21.0855 35.521Z" fill="#263238"/>
<path d="M16.1773 29.1719C16.1837 29.1912 15.8524 29.2844 15.3121 29.5771C14.7814 29.8698 14.032 30.3877 13.3822 31.2722C13.0574 31.7096 12.7615 32.2371 12.5556 32.8418C12.4463 33.1441 12.3723 33.4657 12.3176 33.8035C12.2694 34.138 12.2436 34.495 12.2211 34.8552C12.1761 35.5789 12.1761 36.3412 12.2243 37.1292C12.2758 37.914 12.3852 38.7309 12.4688 39.5672C12.6457 41.2397 12.8129 42.8318 12.9673 44.2824C13.1153 45.7298 13.2343 47.0389 13.5334 48.0938C13.8197 49.152 14.2667 49.9368 14.6431 50.416C14.8296 50.6573 14.9969 50.831 15.1094 50.9435C15.2252 51.0561 15.2863 51.114 15.2831 51.1204C15.2831 51.1204 15.2638 51.1108 15.2317 51.0851C15.1995 51.0593 15.148 51.0239 15.0869 50.9693C14.9647 50.8631 14.791 50.6959 14.5916 50.4579C14.1928 49.9851 13.7232 49.1938 13.4176 48.126C13.0992 47.0614 12.9705 45.7427 12.8129 44.2985C12.6553 42.8479 12.4817 41.2558 12.3015 39.5865C12.2179 38.7502 12.1118 37.9365 12.0603 37.1421C12.0121 36.3476 12.0185 35.5789 12.0667 34.8488C12.0925 34.4821 12.1214 34.1315 12.1729 33.7842C12.2308 33.44 12.3112 33.1087 12.4238 32.7999C12.6393 32.1792 12.948 31.6453 13.2858 31.2046C13.9612 30.3137 14.7331 29.8023 15.2799 29.5257C15.5565 29.3874 15.7784 29.2973 15.936 29.2491C16.0904 29.1976 16.1741 29.1751 16.1741 29.1815L16.1773 29.1719Z" fill="#263238"/>
<path d="M24.2793 31.2694C24.2793 31.2694 24.1571 31.2083 23.948 31.0732C23.7132 30.9156 23.4238 30.7162 23.0764 30.4814L23.1697 30.4363C23.1665 30.8802 23.16 31.4045 23.1568 31.977V32.0992L23.0442 32.0445C22.491 31.7647 21.8799 31.4591 21.2366 31.1375C20.0048 30.5135 18.8951 29.9378 18.0942 29.5165C17.7211 29.3138 17.4027 29.1434 17.1518 29.0083C16.9299 28.886 16.8109 28.8121 16.8173 28.8024C16.8238 28.7928 16.9524 28.8442 17.184 28.9504C17.4445 29.0726 17.7662 29.227 18.1521 29.4103C18.9659 29.8059 20.0852 30.3624 21.317 30.9863C21.9571 31.3144 22.565 31.6232 23.1182 31.9062L23.0056 31.9738C23.0249 31.4012 23.041 30.8802 23.0571 30.4331V30.3205L23.1504 30.3881C23.4849 30.6422 23.7647 30.8545 23.9931 31.0217C24.1893 31.1729 24.2922 31.2629 24.2858 31.2726L24.2793 31.2694Z" fill="#263238"/>
<path d="M26.8138 102.769L24.17 108.305C24.17 108.305 29.2454 112.955 28.8627 114.03L17.303 109.086L21.0469 100.286L26.8138 102.769Z" fill="#263238"/>
<path d="M20.7992 106.304C20.5515 106.265 20.2942 106.439 20.2524 106.674C20.2106 106.909 20.4004 107.169 20.648 107.211C20.8957 107.253 21.2109 107.057 21.2238 106.815C21.2366 106.577 20.9954 106.281 20.7477 106.298" fill="#E0E0E0"/>
<path d="M17.2998 109.086L17.7147 108.214L28.644 113.28C28.644 113.28 29.0685 113.711 28.8627 114.03L17.303 109.086H17.2998Z" fill="#455A64"/>
<path d="M24.379 108.331C24.3533 108.382 24.0606 108.286 23.71 108.34C23.3562 108.385 23.115 108.552 23.07 108.511C23.0217 108.479 23.2437 108.195 23.6714 108.138C24.0992 108.076 24.4112 108.286 24.379 108.331Z" fill="white"/>
<path d="M25.389 109.321C25.3793 109.379 25.0963 109.366 24.8068 109.508C24.5141 109.643 24.3597 109.865 24.3051 109.839C24.2472 109.826 24.3437 109.495 24.7071 109.324C25.0673 109.151 25.4115 109.27 25.389 109.321Z" fill="white"/>
<path d="M25.4823 110.987C25.4276 110.977 25.463 110.675 25.7331 110.447C26.0033 110.215 26.3185 110.212 26.3217 110.266C26.3346 110.324 26.0966 110.408 25.8747 110.601C25.6495 110.787 25.5369 111.006 25.479 110.987H25.4823Z" fill="white"/>
</g>
</g>
<defs>
<clipPath id="clip0_2_1005">
<rect width="150" height="113.67" fill="white" transform="translate(0 0.359863)"/>
</clipPath>
<clipPath id="clip1_2_1005">
<rect width="149.996" height="113.67" fill="white" transform="translate(0.00211334 0.359863)"/>
</clipPath>
</defs>
</svg>
