<svg width="500" height="500" viewBox="0 0 500 500" fill="none" xmlns="http://www.w3.org/2000/svg">
<path d="M449.901 398.494H416.779V398.744H449.901V398.494Z" fill="#EBEBEB"/>
<path d="M331.22 401.208H322.527V401.458H331.22V401.208Z" fill="#EBEBEB"/>
<path d="M415.778 389.208H396.586V389.458H415.778V389.208Z" fill="#EBEBEB"/>
<path d="M95.652 390.888H52.459V391.138H95.652V390.888Z" fill="#EBEBEB"/>
<path d="M110.889 390.888H104.556V391.138H110.889V390.888Z" fill="#EBEBEB"/>
<path d="M225.147 395.111H131.471V395.361H225.147V395.111Z" fill="#EBEBEB"/>
<path d="M238.401 337.8H45.302C42.155 337.8 39.594 335.239 39.594 332.092V60.66C39.594 57.513 42.155 54.952 45.302 54.952H238.401C241.547 54.952 244.108 57.513 244.108 60.66V332.092C244.108 335.239 241.547 337.8 238.401 337.8ZM45.302 55.203C42.292 55.203 39.844 57.651 39.844 60.661V332.093C39.844 335.103 42.292 337.551 45.302 337.551H238.401C241.41 337.551 243.858 335.103 243.858 332.093V60.66C243.858 57.651 241.41 55.202 238.401 55.202L45.302 55.203Z" fill="#EBEBEB"/>
<path d="M454.698 337.8H261.599C258.453 337.8 255.892 335.239 255.892 332.092V60.66C255.892 57.513 258.453 54.952 261.599 54.952H454.698C457.846 54.952 460.406 57.513 460.406 60.66V332.092C460.406 335.239 457.845 337.8 454.698 337.8ZM261.599 55.203C258.59 55.203 256.142 57.651 256.142 60.661V332.093C256.142 335.103 258.59 337.551 261.599 337.551H454.698C457.708 337.551 460.156 335.103 460.156 332.093V60.66C460.156 57.651 457.708 55.202 454.698 55.202L261.599 55.203Z" fill="#EBEBEB"/>
<path d="M500 382.398H0V382.648H500V382.398Z" fill="#EBEBEB"/>
<path d="M191.642 138.283L245.641 192.282C243.685 197.882 244.944 204.356 249.419 208.831C251.853 211.265 255.393 212.231 258.794 212.515C259.924 212.609 260.55 211.229 259.748 210.427L253.388 204.067L256.685 193.543L267.209 190.246L273.569 196.606C274.371 197.408 275.751 196.782 275.657 195.652C275.373 192.251 274.407 188.712 271.973 186.277C267.498 181.802 261.024 180.542 255.424 182.499L201.425 128.5C203.381 122.9 202.122 116.427 197.647 111.951C195.213 109.517 191.673 108.551 188.272 108.267C187.142 108.173 186.516 109.553 187.318 110.355L193.678 116.715L190.381 127.239L179.857 130.536L173.497 124.176C172.695 123.374 171.315 124 171.409 125.13C171.693 128.531 172.658 132.071 175.093 134.505C179.568 138.98 186.042 140.239 191.642 138.283Z" fill="#F0F0F0"/>
<path d="M198.285 137.317L200.459 135.143C201.319 134.283 202.713 134.283 203.573 135.143L249.323 180.893C250.183 181.753 250.183 183.147 249.323 184.006L247.149 186.18C246.289 187.04 244.895 187.04 244.035 186.18L198.285 140.43C197.425 139.571 197.425 138.177 198.285 137.317Z" fill="#FAFAFA"/>
<path d="M70.3549 276.814L101.162 257.221V226.428L66.8299 269.364C66.4509 269.838 66.2439 270.428 66.2439 271.035V274.555C66.2429 276.668 68.5739 277.947 70.3549 276.814Z" fill="#EBEBEB"/>
<path d="M102.347 226.429V257.222L133.153 276.815C134.934 277.948 137.264 276.668 137.264 274.557V271.037C137.264 270.43 137.057 269.84 136.678 269.366L102.347 226.429Z" fill="#EBEBEB"/>
<path d="M86.6928 266.423L101.161 257.221V226.428L84.9548 246.695C85.4908 253.191 86.0708 259.819 86.6928 266.423Z" fill="#E0E0E0"/>
<path d="M118.552 246.695L102.347 226.428V257.221L116.815 266.422C117.436 259.819 118.017 253.19 118.552 246.695Z" fill="#E0E0E0"/>
<path d="M101.754 133.865C92.2899 133.865 84.6179 171.616 84.6179 184.762C84.6179 191.931 86.8999 231.474 90.5089 265.952C93.6049 266.316 97.0649 266.526 100.735 266.526C105.247 266.526 109.448 266.212 113.028 265.678C116.621 231.264 118.891 191.912 118.891 184.762C118.891 171.616 111.218 133.865 101.754 133.865Z" fill="#F5F5F5"/>
<path d="M101.754 164.419C106.688 164.419 111.505 164.216 116.162 163.832C113.112 149.275 107.8 133.866 101.754 133.866C95.7069 133.866 90.3959 149.275 87.3459 163.832C92.0029 164.215 96.8199 164.419 101.754 164.419Z" fill="#E6E6E6"/>
<path d="M101.754 196.179C94.8688 196.179 89.2668 190.578 89.2668 183.693C89.2668 176.808 94.8678 171.207 101.754 171.207C108.639 171.207 114.24 176.808 114.24 183.693C114.24 190.578 108.639 196.179 101.754 196.179ZM101.754 173.446C96.1038 173.446 91.5069 178.043 91.5069 183.693C91.5069 189.343 96.1038 193.94 101.754 193.94C107.404 193.94 112 189.343 112 183.693C112.001 178.043 107.404 173.446 101.754 173.446Z" fill="#EBEBEB"/>
<path d="M101.754 191.73C106.193 191.73 109.791 188.132 109.791 183.693C109.791 179.254 106.193 175.656 101.754 175.656C97.3151 175.656 93.7168 179.254 93.7168 183.693C93.7168 188.132 97.3151 191.73 101.754 191.73Z" fill="#EBEBEB"/>
<path d="M106.359 177.111L99.6731 191.448C100.338 191.626 101.033 191.73 101.754 191.73C102.145 191.73 102.526 191.693 102.902 191.639L108.579 179.464C108.004 178.537 107.25 177.736 106.359 177.111Z" fill="#E0E0E0"/>
<path d="M97.364 190.42L104.087 176.002C103.704 175.886 103.308 175.805 102.903 175.747L96.406 189.681C96.707 189.949 97.025 190.199 97.364 190.42Z" fill="#E0E0E0"/>
<path d="M102.044 279.429H101.465C100.13 279.429 99.0469 278.346 99.0469 277.011V228.846C99.0469 227.511 100.13 226.428 101.465 226.428H102.044C103.379 226.428 104.462 227.511 104.462 228.846V277.011C104.461 278.347 103.379 279.429 102.044 279.429Z" fill="#E0E0E0"/>
<path d="M313.841 139.207C313.964 137.797 313.983 136.412 313.92 135.052L319.365 132.168C319.187 130.509 318.891 128.892 318.49 127.321L312.551 127.419C311.713 124.825 310.517 122.41 309.017 120.224L312.512 115.138C311.521 113.875 310.438 112.688 309.271 111.587L303.918 114.637C301.88 112.946 299.588 111.539 297.087 110.474L297.704 104.544C296.18 104.005 294.602 103.568 292.971 103.245L289.633 108.437C288.289 108.255 286.913 108.152 285.503 108.152C284.093 108.152 282.699 108.255 281.324 108.437L278.894 103.245C277.207 103.568 275.552 104.006 273.933 104.544L273.512 110.474C270.825 111.539 268.287 112.946 265.953 114.637L261.134 111.587C259.774 112.689 258.484 113.875 257.272 115.138L259.877 120.224C257.994 122.41 256.377 124.825 255.084 127.419L249.163 127.321C248.487 128.892 247.908 130.509 247.44 132.168L252.38 135.052C252.079 136.412 251.855 137.797 251.732 139.207C251.609 140.617 251.59 142.002 251.653 143.362L246.209 146.246C246.387 147.905 246.683 149.522 247.084 151.093L253.023 150.995C253.861 153.589 255.057 156.004 256.557 158.19L253.062 163.276C254.053 164.539 255.136 165.726 256.303 166.827L261.656 163.777C263.694 165.468 265.986 166.875 268.487 167.94L267.87 173.87C269.394 174.409 270.972 174.846 272.603 175.169L275.941 169.977C277.285 170.159 278.661 170.262 280.071 170.262C281.481 170.262 282.875 170.159 284.25 169.977L286.68 175.169C288.367 174.846 290.022 174.408 291.64 173.87L292.061 167.94C294.748 166.875 297.286 165.468 299.62 163.777L304.439 166.827C305.799 165.725 307.089 164.539 308.301 163.276L305.696 158.19C307.578 156.004 309.196 153.589 310.489 150.995L316.41 151.093C317.086 149.522 317.665 147.905 318.133 146.246L313.193 143.362C313.493 142.002 313.717 140.617 313.841 139.207ZM281.862 149.766C276.031 149.766 271.717 145.039 272.227 139.207C272.737 133.375 277.878 128.648 283.709 128.648C289.541 128.648 293.854 133.375 293.344 139.207C292.834 145.039 287.693 149.766 281.862 149.766Z" fill="#F0F0F0"/>
<path d="M373.291 113.143C373.37 112.243 373.396 111.355 373.378 110.48L380.994 106.446C380.854 105.312 380.65 104.202 380.391 103.115L372.075 103.252C371.496 101.613 370.736 100.068 369.813 98.6411L374.706 91.5201C374.011 90.6641 373.268 89.8491 372.479 89.0791L364.984 93.3491C363.648 92.3021 362.182 91.4071 360.606 90.6841L361.47 82.3801C360.414 82.0261 359.33 81.7251 358.217 81.4861L353.547 88.7491C352.68 88.6551 351.797 88.6031 350.897 88.6031C349.997 88.6031 349.105 88.6551 348.222 88.7491L344.823 81.4861C343.668 81.7251 342.531 82.0261 341.414 82.3801L340.825 90.6841C339.123 91.4071 337.5 92.3021 335.981 93.3491L329.234 89.0791C328.31 89.8491 327.425 90.6641 326.58 91.5201L330.227 98.6411C329.055 100.068 328.025 101.613 327.159 103.252L318.867 103.115C318.418 104.202 318.019 105.312 317.681 106.446L324.591 110.48C324.42 111.355 324.291 112.243 324.212 113.143C324.133 114.043 324.107 114.931 324.125 115.806L316.509 119.84C316.648 120.974 316.853 122.084 317.112 123.171L325.428 123.034C326.007 124.673 326.767 126.218 327.69 127.645L322.797 134.766C323.492 135.622 324.235 136.437 325.024 137.207L332.519 132.937C333.855 133.984 335.321 134.879 336.897 135.602L336.033 143.906C337.089 144.26 338.173 144.562 339.286 144.8L343.956 137.537C344.823 137.631 345.706 137.683 346.606 137.683C347.506 137.683 348.398 137.631 349.282 137.537L352.681 144.8C353.836 144.561 354.973 144.26 356.09 143.906L356.679 135.602C358.381 134.879 360.004 133.985 361.523 132.937L368.27 137.207C369.193 136.437 370.08 135.622 370.924 134.766L367.277 127.645C368.449 126.218 369.479 124.673 370.345 123.034L378.637 123.171C379.086 122.084 379.485 120.974 379.823 119.84L372.913 115.806C373.083 114.931 373.212 114.043 373.291 113.143ZM347.841 123.545C342.096 123.545 337.846 118.888 338.349 113.143C338.852 107.398 343.916 102.741 349.661 102.741C355.406 102.741 359.656 107.398 359.153 113.143C358.651 118.888 353.586 123.545 347.841 123.545Z" fill="#EBEBEB"/>
<path d="M429.136 200.195C429.174 199.758 429.187 199.326 429.178 198.901L432.878 196.941C432.81 196.39 432.711 195.851 432.585 195.322L428.545 195.389C428.263 194.593 427.894 193.842 427.446 193.149L429.823 189.689C429.485 189.273 429.124 188.877 428.741 188.503L425.099 190.578C424.45 190.069 423.737 189.634 422.972 189.283L423.392 185.248C422.879 185.076 422.352 184.93 421.811 184.814L419.542 188.343C419.121 188.297 418.692 188.272 418.254 188.272C417.817 188.272 417.383 188.297 416.954 188.343L415.302 184.814C414.741 184.93 414.189 185.076 413.645 185.248L413.359 189.283C412.532 189.634 411.743 190.069 411.005 190.578L407.726 188.503C407.277 188.877 406.847 189.273 406.436 189.689L408.208 193.149C407.638 193.842 407.138 194.593 406.717 195.389L402.688 195.322C402.47 195.85 402.276 196.39 402.112 196.941L405.469 198.901C405.386 199.326 405.323 199.758 405.285 200.195C405.247 200.632 405.234 201.064 405.243 201.489L401.543 203.449C401.611 204 401.71 204.539 401.836 205.068L405.876 205.001C406.158 205.797 406.527 206.548 406.975 207.241L404.597 210.701C404.935 211.117 405.296 211.513 405.679 211.887L409.321 209.812C409.97 210.321 410.683 210.756 411.448 211.107L411.028 215.142C411.541 215.314 412.068 215.461 412.609 215.576L414.878 212.047C415.299 212.093 415.728 212.118 416.166 212.118C416.603 212.118 417.037 212.093 417.466 212.047L419.118 215.576C419.679 215.46 420.231 215.314 420.775 215.142L421.061 211.107C421.888 210.756 422.677 210.321 423.415 209.812L426.694 211.887C427.143 211.513 427.573 211.117 427.984 210.701L426.212 207.241C426.782 206.548 427.282 205.797 427.703 205.001L431.732 205.068C431.95 204.54 432.144 204 432.308 203.449L428.951 201.489C429.035 201.064 429.098 200.633 429.136 200.195ZM416.77 205.25C413.979 205.25 411.914 202.987 412.158 200.196C412.402 197.405 414.863 195.142 417.654 195.142C420.445 195.142 422.51 197.405 422.266 200.196C422.023 202.987 419.562 205.25 416.77 205.25Z" fill="#F0F0F0"/>
<path d="M419.241 151.073C419.311 150.275 419.334 149.488 419.318 148.712L426.071 145.134C425.947 144.128 425.766 143.144 425.536 142.18L418.162 142.302C417.648 140.849 416.975 139.479 416.157 138.213L420.496 131.898C419.88 131.139 419.221 130.416 418.521 129.734L411.875 133.52C410.691 132.591 409.39 131.798 407.993 131.157L408.759 123.793C407.823 123.479 406.861 123.212 405.874 123L401.733 129.44C400.964 129.356 400.181 129.31 399.383 129.31C398.585 129.31 397.793 129.356 397.01 129.44L393.996 123C392.972 123.212 391.964 123.479 390.973 123.793L390.451 131.157C388.942 131.798 387.502 132.591 386.155 133.52L380.172 129.734C379.353 130.417 378.567 131.139 377.818 131.898L381.052 138.213C380.012 139.479 379.099 140.849 378.331 142.302L370.978 142.18C370.58 143.144 370.226 144.129 369.927 145.134L376.054 148.712C375.902 149.488 375.788 150.275 375.718 151.073C375.648 151.871 375.625 152.658 375.641 153.434L368.888 157.012C369.012 158.018 369.193 159.002 369.423 159.966L376.797 159.844C377.311 161.297 377.984 162.667 378.802 163.933L374.463 170.248C375.079 171.007 375.739 171.73 376.438 172.412L383.084 168.626C384.268 169.555 385.569 170.348 386.966 170.989L386.2 178.353C387.136 178.667 388.098 178.934 389.085 179.146L393.226 172.706C393.995 172.79 394.778 172.836 395.576 172.836C396.374 172.836 397.165 172.79 397.949 172.706L400.963 179.146C401.987 178.934 402.995 178.667 403.986 178.353L404.508 170.989C406.017 170.348 407.457 169.555 408.804 168.626L414.788 172.412C415.607 171.729 416.393 171.007 417.142 170.248L413.908 163.933C414.948 162.667 415.861 161.297 416.629 159.844L423.982 159.966C424.38 159.002 424.734 158.018 425.034 157.012L418.907 153.434C419.056 152.658 419.171 151.871 419.241 151.073ZM396.354 163.932C389.252 163.932 383.998 158.174 384.619 151.072C385.24 143.97 391.502 138.212 398.604 138.212C405.706 138.212 410.96 143.97 410.339 151.072C409.717 158.175 403.456 163.932 396.354 163.932Z" fill="#F5F5F5"/>
<path d="M139.654 132.854L171.449 101.059C174.746 102.211 178.558 101.47 181.193 98.8341C182.626 97.4011 183.195 95.3161 183.362 93.3141C183.417 92.6491 182.605 92.2801 182.133 92.7521L178.388 96.4971L172.191 94.5561L170.25 88.3591L173.995 84.6141C174.467 84.1421 174.099 83.3291 173.433 83.3851C171.431 83.5521 169.346 84.1211 167.913 85.5541C165.278 88.1891 164.536 92.0011 165.688 95.2981L133.893 127.093C130.596 125.941 126.784 126.683 124.149 129.318C122.716 130.751 122.147 132.836 121.98 134.838C121.924 135.503 122.737 135.872 123.209 135.4L126.954 131.655L133.151 133.596L135.092 139.793L131.347 143.538C130.875 144.01 131.243 144.823 131.909 144.767C133.911 144.6 135.996 144.031 137.429 142.598C140.064 139.963 140.806 136.151 139.654 132.854Z" fill="#F0F0F0"/>
<path d="M138.445 128.302C137.585 127.442 137.585 126.048 138.445 125.189L164.103 99.5311C164.963 98.6711 166.357 98.6711 167.217 99.5311C168.077 100.391 168.077 101.785 167.217 102.645L141.559 128.303C140.699 129.161 139.305 129.161 138.445 128.302Z" fill="#FAFAFA"/>
<path d="M250 427.016C357.082 427.016 443.889 421.947 443.889 415.693C443.889 409.439 357.082 404.37 250 404.37C142.918 404.37 56.1111 409.439 56.1111 415.693C56.1111 421.947 142.918 427.016 250 427.016Z" fill="#F5F5F5"/>
<path d="M252.885 301.091L233.788 399.335H282.79L301.887 301.091H252.885ZM273.213 363.931L270.465 378.069C269.706 381.973 265.926 385.138 262.022 385.138C258.118 385.138 255.568 381.973 256.327 378.069L259.075 363.931C259.834 360.027 263.614 356.862 267.518 356.862C271.422 356.862 273.972 360.027 273.213 363.931Z" fill="#263238"/>
<path opacity="0.3" d="M252.885 301.091L233.788 399.335H282.79L301.887 301.091H252.885ZM273.213 363.931L270.465 378.069C269.706 381.973 265.926 385.138 262.022 385.138C258.118 385.138 255.568 381.973 256.327 378.069L259.075 363.931C259.834 360.027 263.614 356.862 267.518 356.862C271.422 356.862 273.972 360.027 273.213 363.931Z" fill="white"/>
<path d="M233.896 399.335H229.599L248.695 301.091H252.993L233.896 399.335Z" fill="#263238"/>
<path opacity="0.6" d="M233.896 399.335H229.599L248.695 301.091H252.993L233.896 399.335Z" fill="white"/>
<path opacity="0.2" d="M252.885 301.091H248.695L238.508 353.5H291.7L301.888 301.091H252.993H252.885Z" fill="black"/>
<path d="M267.518 356.862C266.852 356.862 266.191 356.96 265.546 357.133C268.353 357.97 270.004 360.693 269.375 363.931L266.627 378.069C265.998 381.307 263.289 384.03 260.156 384.867C260.734 385.039 261.356 385.138 262.022 385.138C265.926 385.138 269.706 381.973 270.465 378.069L273.213 363.931C273.971 360.027 271.422 356.862 267.518 356.862Z" fill="#263238"/>
<path opacity="0.6" d="M267.518 356.862C266.852 356.862 266.191 356.96 265.546 357.133C268.353 357.97 270.004 360.693 269.375 363.931L266.627 378.069C265.998 381.307 263.289 384.03 260.156 384.867C260.734 385.039 261.356 385.138 262.022 385.138C265.926 385.138 269.706 381.973 270.465 378.069L273.213 363.931C273.971 360.027 271.422 356.862 267.518 356.862Z" fill="white"/>
<path d="M260.155 398.901H189.833V414.657H260.155V398.901Z" fill="#407BFF"/>
<path opacity="0.4" d="M260.155 398.901H189.833V414.657H260.155V398.901Z" fill="white"/>
<path d="M352.994 398.901H260.155V414.657H352.994V398.901Z" fill="#407BFF"/>
<path opacity="0.6" d="M352.994 398.901H260.155V414.657H352.994V398.901Z" fill="white"/>
<path d="M144.794 347.669H391.859C396.35 347.754 400.059 344.182 400.144 339.692C400.151 339.334 400.134 338.976 400.094 338.62L384.485 160.088C383.975 155.016 379.752 151.128 374.656 151.039H127.59C123.099 150.954 119.39 154.526 119.305 159.017C119.298 159.375 119.315 159.733 119.355 160.089L134.975 338.632C135.486 343.697 139.704 347.581 144.794 347.669Z" fill="#263238"/>
<path opacity="0.3" d="M144.794 347.669H391.859C396.35 347.754 400.059 344.182 400.144 339.692C400.151 339.334 400.134 338.976 400.094 338.62L384.485 160.088C383.975 155.016 379.752 151.128 374.656 151.039H127.59C123.099 150.954 119.39 154.526 119.305 159.017C119.298 159.375 119.315 159.733 119.355 160.089L134.975 338.632C135.486 343.697 139.704 347.581 144.794 347.669Z" fill="white"/>
<path d="M398.419 319.336L400.104 338.632C400.611 343.095 397.404 347.124 392.941 347.63C392.586 347.67 392.227 347.687 391.87 347.681H144.794C139.7 347.591 135.48 343.702 134.976 338.632L133.279 319.336H398.419Z" fill="#407BFF"/>
<path opacity="0.6" d="M398.419 319.336L400.104 338.632C400.611 343.095 397.404 347.124 392.941 347.63C392.586 347.67 392.227 347.687 391.87 347.681H144.794C139.7 347.591 135.48 343.702 134.976 338.632L133.279 319.336H398.419Z" fill="white"/>
<path d="M142 313.872H388.748C391.184 313.918 393.196 311.981 393.242 309.545C393.246 309.354 393.237 309.164 393.216 308.974L380.31 161.424C380.03 158.678 377.742 156.575 374.983 156.526H128.235C125.799 156.48 123.787 158.417 123.741 160.853C123.737 161.044 123.746 161.234 123.767 161.424L136.673 308.975C136.953 311.72 139.241 313.824 142 313.872Z" fill="#407BFF"/>
<path opacity="0.8" d="M142 313.872H388.748C391.184 313.918 393.196 311.981 393.242 309.545C393.246 309.354 393.237 309.164 393.216 308.974L380.31 161.424C380.03 158.678 377.742 156.575 374.983 156.526H128.235C125.799 156.48 123.787 158.417 123.741 160.853C123.737 161.044 123.746 161.234 123.767 161.424L136.673 308.975C136.953 311.72 139.241 313.824 142 313.872Z" fill="#407BFF"/>
<path opacity="0.8" d="M142 313.872H388.748C391.184 313.918 393.196 311.981 393.242 309.545C393.246 309.354 393.237 309.164 393.216 308.974L380.31 161.424C380.03 158.678 377.742 156.575 374.983 156.526H128.235C125.799 156.48 123.787 158.417 123.741 160.853C123.737 161.044 123.746 161.234 123.767 161.424L136.673 308.975C136.953 311.72 139.241 313.824 142 313.872Z" fill="white"/>
<g opacity="0.5">
<path d="M319.606 313.873H342.135L308.69 156.525H286.161L319.606 313.873Z" fill="white"/>
<path d="M305.339 313.873H311.105L277.659 156.525H271.893L305.339 313.873Z" fill="white"/>
<path d="M221.417 313.873H225.194L191.749 156.525H187.971L221.417 313.873Z" fill="white"/>
<path d="M207.149 313.873H212.915L179.47 156.525H173.704L207.149 313.873Z" fill="white"/>
</g>
<path d="M122.127 151.074H127.59C123.099 150.989 119.39 154.561 119.305 159.051C119.298 159.409 119.315 159.767 119.355 160.123L134.975 338.632C135.479 343.702 139.699 347.591 144.793 347.681H139.33C134.236 347.591 130.016 343.702 129.512 338.632L113.893 160.1C113.399 155.636 116.617 151.616 121.081 151.122C121.428 151.083 121.778 151.067 122.127 151.074Z" fill="#263238"/>
<path opacity="0.6" d="M122.127 151.074H127.59C123.099 150.989 119.39 154.561 119.305 159.051C119.298 159.409 119.315 159.767 119.355 160.123L134.975 338.632C135.479 343.702 139.699 347.591 144.793 347.681H139.33C134.236 347.591 130.016 343.702 129.512 338.632L113.893 160.1C113.399 155.636 116.617 151.616 121.081 151.122C121.428 151.083 121.778 151.067 122.127 151.074Z" fill="white"/>
<path d="M176.239 206.647H165.101C164.208 206.647 163.421 205.923 163.343 205.03C163.265 204.137 163.925 203.413 164.818 203.413H175.956C176.849 203.413 177.636 204.137 177.714 205.03C177.793 205.923 177.132 206.647 176.239 206.647Z" fill="#407BFF"/>
<path d="M203.73 193.713H195.467C194.574 193.713 193.787 192.989 193.709 192.096C193.631 191.203 194.291 190.479 195.184 190.479H203.447C204.34 190.479 205.127 191.203 205.205 192.096C205.283 192.989 204.623 193.713 203.73 193.713Z" fill="#407BFF"/>
<path d="M294.441 206.647H283.303C282.41 206.647 281.623 205.923 281.545 205.03C281.467 204.137 282.127 203.413 283.02 203.413H294.158C295.051 203.413 295.838 204.137 295.916 205.03C295.995 205.923 295.334 206.647 294.441 206.647Z" fill="#407BFF"/>
<path d="M272.166 206.647H187.018C186.125 206.647 185.338 205.923 185.26 205.03C185.182 204.137 185.842 203.413 186.735 203.413H271.883C272.776 203.413 273.563 204.137 273.641 205.03C273.72 205.923 273.059 206.647 272.166 206.647Z" fill="#263238"/>
<path d="M177.214 217.785H166.076C165.183 217.785 164.396 217.061 164.318 216.168C164.24 215.275 164.9 214.551 165.793 214.551H176.931C177.824 214.551 178.611 215.275 178.689 216.168C178.767 217.061 178.107 217.785 177.214 217.785Z" fill="#407BFF"/>
<path d="M210.986 217.785H187.992C187.099 217.785 186.312 217.061 186.234 216.168C186.156 215.275 186.816 214.551 187.709 214.551H210.703C211.596 214.551 212.383 215.275 212.461 216.168C212.539 217.061 211.879 217.785 210.986 217.785Z" fill="#407BFF"/>
<path d="M252.303 217.785H218.172C217.279 217.785 216.492 217.061 216.414 216.168C216.336 215.275 216.996 214.551 217.889 214.551H252.02C252.913 214.551 253.7 215.275 253.778 216.168C253.856 217.061 253.195 217.785 252.303 217.785Z" fill="#407BFF"/>
<path d="M178.188 228.922H167.05C166.157 228.922 165.37 228.198 165.292 227.305C165.214 226.412 165.874 225.688 166.767 225.688H177.905C178.798 225.688 179.585 226.412 179.663 227.305C179.742 228.198 179.081 228.922 178.188 228.922Z" fill="#407BFF"/>
<path d="M234.594 228.922H188.966C188.073 228.922 187.286 228.198 187.208 227.305C187.13 226.412 187.79 225.688 188.683 225.688H234.311C235.204 225.688 235.991 226.412 236.069 227.305C236.148 228.198 235.487 228.922 234.594 228.922Z" fill="#263238"/>
<path d="M179.163 240.06H168.025C167.132 240.06 166.345 239.336 166.267 238.443C166.189 237.55 166.849 236.826 167.742 236.826H178.88C179.773 236.826 180.56 237.55 180.638 238.443C180.716 239.336 180.055 240.06 179.163 240.06Z" fill="#407BFF"/>
<path d="M209.162 240.06H189.941C189.048 240.06 188.261 239.336 188.183 238.443C188.105 237.55 188.765 236.826 189.658 236.826H208.879C209.772 236.826 210.559 237.55 210.637 238.443C210.716 239.336 210.055 240.06 209.162 240.06Z" fill="#263238"/>
<path d="M253.169 260.539H233.948C233.055 260.539 232.268 259.815 232.19 258.922C232.112 258.029 232.772 257.305 233.665 257.305H252.886C253.779 257.305 254.566 258.029 254.644 258.922C254.722 259.815 254.062 260.539 253.169 260.539Z" fill="#407BFF"/>
<path d="M352.688 260.539H262.959C262.066 260.539 261.279 259.815 261.201 258.922C261.123 258.029 261.783 257.305 262.676 257.305H352.405C353.298 257.305 354.085 258.029 354.163 258.922C354.242 259.815 353.581 260.539 352.688 260.539Z" fill="#263238"/>
<path d="M319.891 271.676H227.378C226.485 271.676 225.698 270.952 225.62 270.059C225.542 269.166 226.202 268.442 227.095 268.442H319.609C320.502 268.442 321.289 269.166 321.367 270.059C321.444 270.952 320.784 271.676 319.891 271.676Z" fill="#407BFF"/>
<path d="M353.663 271.676H331.388C330.495 271.676 329.708 270.952 329.63 270.059C329.552 269.166 330.212 268.442 331.105 268.442H353.38C354.273 268.442 355.06 269.166 355.138 270.059C355.216 270.952 354.556 271.676 353.663 271.676Z" fill="#407BFF"/>
<path d="M303.44 282.814H294.099C293.206 282.814 292.419 282.09 292.341 281.197C292.263 280.304 292.923 279.58 293.816 279.58H303.157C304.05 279.58 304.837 280.304 304.915 281.197C304.994 282.09 304.333 282.814 303.44 282.814Z" fill="#407BFF"/>
<path d="M354.637 282.814H313.5C312.607 282.814 311.82 282.09 311.742 281.197C311.664 280.304 312.324 279.58 313.217 279.58H354.354C355.247 279.58 356.034 280.304 356.112 281.197C356.19 282.09 355.53 282.814 354.637 282.814Z" fill="#263238"/>
<path d="M237.949 293.951H210.644C209.751 293.951 208.964 293.227 208.886 292.334C208.808 291.441 209.468 290.717 210.361 290.717H237.666C238.559 290.717 239.346 291.441 239.424 292.334C239.502 293.227 238.841 293.951 237.949 293.951Z" fill="#263238"/>
<path d="M355.611 293.951H274.415C273.522 293.951 272.735 293.227 272.657 292.334C272.579 291.441 273.239 290.717 274.132 290.717H355.328C356.221 290.717 357.008 291.441 357.086 292.334C357.165 293.227 356.504 293.951 355.611 293.951Z" fill="#263238"/>
<path d="M269.161 240.06H220.12C219.227 240.06 218.44 239.336 218.362 238.443C218.284 237.55 218.944 236.826 219.837 236.826H268.878C269.771 236.826 270.558 237.55 270.636 238.443C270.715 239.336 270.054 240.06 269.161 240.06Z" fill="#263238"/>
<path d="M187.682 251.197H169C168.107 251.197 167.32 250.473 167.242 249.58C167.164 248.687 167.824 247.963 168.717 247.963H187.399C188.292 247.963 189.079 248.687 189.157 249.58C189.235 250.473 188.575 251.197 187.682 251.197Z" fill="#263238"/>
<path d="M205.702 251.197H195.766C194.873 251.197 194.086 250.473 194.008 249.58C193.93 248.687 194.59 247.963 195.483 247.963H205.419C206.312 247.963 207.099 248.687 207.177 249.58C207.255 250.473 206.595 251.197 205.702 251.197Z" fill="#263238"/>
<path d="M170.286 185.796L165.359 187.662L170.608 189.509C171.014 189.652 171.309 190.026 171.346 190.445L171.347 190.46C171.408 191.157 170.752 191.638 170.079 191.39L163.961 189.139C163.377 188.924 162.956 188.382 162.903 187.778L162.883 187.544C162.83 186.939 163.156 186.398 163.703 186.183L169.427 183.932C170.057 183.684 170.797 184.166 170.858 184.863C170.894 185.279 170.666 185.652 170.286 185.796Z" fill="#263238"/>
<path d="M177.337 179.176C178.116 179.176 178.73 179.946 178.536 180.681L174.861 194.662C174.742 195.116 174.34 195.419 173.86 195.419H173.859C173.08 195.419 172.466 194.649 172.66 193.914L176.336 179.933C176.455 179.48 176.857 179.176 177.337 179.176Z" fill="#263238"/>
<path d="M188.183 187.543L188.203 187.777C188.256 188.382 187.93 188.923 187.383 189.138L181.659 191.389C181.029 191.637 180.289 191.156 180.228 190.459L180.227 190.444C180.19 190.025 180.42 189.651 180.801 189.508L185.726 187.661L180.473 185.795C180.068 185.651 179.775 185.278 179.738 184.86C179.677 184.163 180.333 183.682 181.006 183.929L187.124 186.18C187.709 186.397 188.13 186.939 188.183 187.543Z" fill="#263238"/>
<path d="M378.082 270.736C378.123 270.503 377.376 270.176 376.414 270.007C375.787 269.896 375.227 269.881 374.899 269.948C374.81 269.622 374.563 269.138 374.213 268.638C373.653 267.838 373.041 267.299 372.847 267.435C372.653 267.571 372.95 268.33 373.51 269.13C373.986 269.81 374.498 270.299 374.761 270.348C375.026 270.536 375.589 270.732 376.265 270.851C377.228 271.021 378.041 270.969 378.082 270.736Z" fill="#263238"/>
<path d="M373.027 273.234C373.308 272.461 373.416 271.767 373.311 271.518C373.314 271.194 373.149 270.614 372.858 269.991C372.445 269.106 371.936 268.469 371.722 268.569C371.507 268.669 371.668 269.468 372.081 270.353C372.349 270.929 372.658 271.398 372.9 271.629C372.684 271.889 372.43 272.368 372.222 272.941C371.888 273.859 371.797 274.669 372.02 274.75C372.241 274.831 372.693 274.152 373.027 273.234Z" fill="#263238"/>
<path d="M379.204 266.264C379.104 266.049 378.305 266.21 377.419 266.623C376.843 266.891 376.374 267.2 376.143 267.442C375.883 267.226 375.404 266.972 374.831 266.764C373.913 266.43 373.103 266.339 373.022 266.562C372.941 266.785 373.62 267.236 374.538 267.57C375.311 267.851 376.005 267.959 376.254 267.854C376.578 267.857 377.158 267.692 377.782 267.401C378.667 266.987 379.304 266.478 379.204 266.264Z" fill="#263238"/>
<path d="M362.905 255.56C363.138 255.519 363.465 256.266 363.635 257.228C363.746 257.855 363.761 258.415 363.694 258.743C364.02 258.832 364.504 259.079 365.004 259.429C365.804 259.989 366.343 260.601 366.207 260.795C366.071 260.989 365.312 260.692 364.512 260.132C363.832 259.656 363.343 259.144 363.294 258.881C363.106 258.616 362.91 258.053 362.791 257.377C362.621 256.414 362.672 255.601 362.905 255.56Z" fill="#263238"/>
<path d="M360.408 260.615C361.181 260.334 361.875 260.226 362.125 260.332C362.449 260.329 363.029 260.494 363.653 260.785C364.538 261.198 365.175 261.707 365.075 261.921C364.975 262.136 364.176 261.975 363.29 261.562C362.714 261.294 362.245 260.985 362.014 260.743C361.754 260.959 361.275 261.213 360.702 261.421C359.784 261.755 358.974 261.846 358.893 261.623C358.811 261.4 359.49 260.949 360.408 260.615Z" fill="#263238"/>
<path d="M367.378 254.438C367.593 254.538 367.432 255.337 367.019 256.222C366.751 256.798 366.442 257.267 366.2 257.498C366.416 257.758 366.67 258.238 366.878 258.81C367.212 259.728 367.303 260.538 367.08 260.619C366.857 260.7 366.406 260.021 366.072 259.103C365.791 258.33 365.683 257.636 365.788 257.387C365.785 257.063 365.95 256.483 366.241 255.86C366.654 254.974 367.163 254.337 367.378 254.438Z" fill="#263238"/>
<path d="M372.401 259.831C371.703 259.831 371.136 260.397 371.136 261.096C371.136 261.794 371.702 262.36 372.401 262.36C373.1 262.36 373.665 261.794 373.665 261.096H372.401V259.831Z" fill="#407BFF"/>
<path opacity="0.2" d="M372.401 259.831C371.703 259.831 371.136 260.397 371.136 261.096C371.136 261.794 371.702 262.36 372.401 262.36C373.1 262.36 373.665 261.794 373.665 261.096H372.401V259.831Z" fill="black"/>
<path d="M364.85 259.612C363.949 260.056 363.087 260.663 362.317 261.434C359.111 264.64 358.693 269.421 361.384 272.112C364.075 274.803 368.856 274.385 372.062 271.179C372.832 270.409 373.44 269.547 373.884 268.646L364.85 259.612Z" fill="#407BFF"/>
<path opacity="0.3" d="M364.85 259.612C363.949 260.056 363.087 260.663 362.317 261.434C359.111 264.64 358.693 269.421 361.384 272.112C364.075 274.803 368.856 274.385 372.062 271.179C372.832 270.409 373.44 269.547 373.884 268.646L364.85 259.612Z" fill="black"/>
<path d="M365.753 260.516L372.98 267.743C374.103 265.463 373.905 262.862 372.269 261.226C370.634 259.591 368.033 259.392 365.753 260.516Z" fill="#407BFF"/>
<path opacity="0.5" d="M365.753 260.516L372.98 267.743C374.103 265.463 373.905 262.862 372.269 261.226C370.634 259.591 368.033 259.392 365.753 260.516Z" fill="black"/>
<path opacity="0.2" d="M364.85 259.612C363.949 260.056 363.087 260.663 362.317 261.434C359.111 264.64 358.693 269.421 361.384 272.112L369.367 264.129L364.85 259.612Z" fill="black"/>
<path d="M368.898 253.769C369.664 254.081 370.413 254.578 370.992 255.162C372.54 256.724 372.231 258.614 370.958 260.263C370.873 260.374 371.027 260.53 371.114 260.418C372.273 258.917 372.816 257.116 371.577 255.491C370.925 254.636 369.948 253.959 368.954 253.555C368.823 253.503 368.769 253.717 368.898 253.769Z" fill="#263238"/>
<path d="M379.94 264.542C379.536 263.549 378.859 262.571 378.004 261.919C376.38 260.68 374.578 261.222 373.077 262.382C372.965 262.468 373.122 262.623 373.232 262.538C374.876 261.269 376.775 260.951 378.333 262.504C378.917 263.086 379.414 263.831 379.726 264.598C379.78 264.727 379.993 264.673 379.94 264.542Z" fill="#263238"/>
<path d="M365.908 264.226C365.402 264.732 364.582 264.732 364.076 264.226C363.57 263.72 363.57 262.9 364.076 262.394C364.582 261.888 365.402 261.888 365.908 262.394C366.414 262.9 366.414 263.72 365.908 264.226Z" fill="#407BFF"/>
<path d="M371.103 269.42C370.597 269.926 369.777 269.926 369.271 269.42C368.765 268.914 368.765 268.094 369.271 267.588C369.777 267.082 370.597 267.082 371.103 267.588C371.609 268.094 371.609 268.914 371.103 269.42Z" fill="#407BFF"/>
<path d="M363.092 268.286C362.586 268.792 361.766 268.792 361.26 268.286C360.754 267.78 360.754 266.96 361.26 266.454C361.766 265.948 362.586 265.948 363.092 266.454C363.598 266.96 363.598 267.78 363.092 268.286Z" fill="#407BFF"/>
<path d="M367.043 272.237C366.537 272.743 365.717 272.743 365.211 272.237C364.705 271.731 364.705 270.911 365.211 270.405C365.717 269.899 366.537 269.899 367.043 270.405C367.548 270.91 367.548 271.73 367.043 272.237Z" fill="#407BFF"/>
<g opacity="0.7">
<path d="M365.908 264.226C365.402 264.732 364.582 264.732 364.076 264.226C363.57 263.72 363.57 262.9 364.076 262.394C364.582 261.888 365.402 261.888 365.908 262.394C366.414 262.9 366.414 263.72 365.908 264.226Z" fill="white"/>
<path d="M371.103 269.42C370.597 269.926 369.777 269.926 369.271 269.42C368.765 268.914 368.765 268.094 369.271 267.588C369.777 267.082 370.597 267.082 371.103 267.588C371.609 268.094 371.609 268.914 371.103 269.42Z" fill="white"/>
<path d="M363.092 268.286C362.586 268.792 361.766 268.792 361.26 268.286C360.754 267.78 360.754 266.96 361.26 266.454C361.766 265.948 362.586 265.948 363.092 266.454C363.598 266.96 363.598 267.78 363.092 268.286Z" fill="white"/>
<path d="M367.043 272.237C366.537 272.743 365.717 272.743 365.211 272.237C364.705 271.731 364.705 270.911 365.211 270.405C365.717 269.899 366.537 269.899 367.043 270.405C367.548 270.91 367.548 271.73 367.043 272.237Z" fill="white"/>
</g>
<path d="M297.396 181.398C297.437 181.165 296.69 180.838 295.728 180.669C295.101 180.558 294.541 180.543 294.213 180.61C294.124 180.284 293.877 179.8 293.527 179.3C292.967 178.5 292.355 177.961 292.161 178.097C291.967 178.233 292.264 178.992 292.824 179.792C293.3 180.472 293.812 180.961 294.075 181.01C294.34 181.198 294.903 181.394 295.579 181.513C296.542 181.683 297.355 181.631 297.396 181.398Z" fill="#263238"/>
<path d="M292.341 183.896C292.622 183.123 292.73 182.429 292.624 182.18C292.627 181.856 292.462 181.276 292.171 180.652C291.758 179.767 291.249 179.13 291.035 179.23C290.82 179.33 290.981 180.129 291.394 181.014C291.662 181.59 291.971 182.059 292.213 182.29C291.997 182.55 291.743 183.03 291.535 183.602C291.201 184.52 291.11 185.33 291.333 185.411C291.556 185.492 292.007 184.814 292.341 183.896Z" fill="#263238"/>
<path d="M298.518 176.926C298.418 176.711 297.619 176.872 296.734 177.285C296.158 177.553 295.689 177.862 295.458 178.104C295.198 177.888 294.718 177.634 294.146 177.426C293.228 177.092 292.418 177.001 292.337 177.224C292.256 177.447 292.935 177.898 293.853 178.232C294.626 178.513 295.32 178.621 295.569 178.516C295.893 178.519 296.473 178.354 297.096 178.063C297.982 177.649 298.618 177.14 298.518 176.926Z" fill="#263238"/>
<path d="M282.22 166.221C282.453 166.18 282.78 166.927 282.949 167.889C283.06 168.516 283.075 169.076 283.008 169.404C283.334 169.493 283.818 169.74 284.318 170.09C285.118 170.65 285.657 171.262 285.521 171.456C285.385 171.65 284.626 171.353 283.826 170.793C283.146 170.317 282.657 169.805 282.608 169.543C282.42 169.278 282.224 168.715 282.105 168.039C281.935 167.076 281.986 166.263 282.22 166.221Z" fill="#263238"/>
<path d="M279.722 171.277C280.495 170.996 281.189 170.888 281.438 170.994C281.762 170.991 282.342 171.156 282.965 171.447C283.85 171.86 284.487 172.369 284.387 172.583C284.287 172.798 283.488 172.637 282.603 172.224C282.027 171.956 281.558 171.647 281.327 171.405C281.067 171.621 280.587 171.875 280.015 172.083C279.097 172.417 278.287 172.508 278.206 172.285C278.125 172.062 278.804 171.611 279.722 171.277Z" fill="#263238"/>
<path d="M286.692 165.099C286.907 165.199 286.746 165.998 286.333 166.884C286.065 167.46 285.756 167.929 285.514 168.16C285.73 168.42 285.984 168.9 286.192 169.472C286.526 170.39 286.616 171.2 286.394 171.281C286.171 171.362 285.72 170.683 285.386 169.765C285.105 168.992 284.997 168.298 285.102 168.049C285.099 167.725 285.264 167.145 285.555 166.521C285.968 165.636 286.477 164.999 286.692 165.099Z" fill="#263238"/>
<path d="M291.715 170.493C291.017 170.493 290.45 171.059 290.45 171.757C290.45 172.455 291.016 173.022 291.715 173.022C292.414 173.022 292.98 172.456 292.98 171.757H291.715V170.493Z" fill="#407BFF"/>
<path opacity="0.2" d="M291.715 170.493C291.017 170.493 290.45 171.059 290.45 171.757C290.45 172.455 291.016 173.022 291.715 173.022C292.414 173.022 292.98 172.456 292.98 171.757H291.715V170.493Z" fill="black"/>
<path d="M284.164 170.274C283.263 170.718 282.402 171.325 281.631 172.096C278.425 175.302 278.007 180.083 280.698 182.774C283.389 185.465 288.17 185.047 291.376 181.841C292.146 181.071 292.754 180.209 293.198 179.308L284.164 170.274Z" fill="#407BFF"/>
<path opacity="0.3" d="M284.164 170.274C283.263 170.718 282.402 171.325 281.631 172.096C278.425 175.302 278.007 180.083 280.698 182.774C283.389 185.465 288.17 185.047 291.376 181.841C292.146 181.071 292.754 180.209 293.198 179.308L284.164 170.274Z" fill="black"/>
<path d="M285.067 171.178L292.294 178.405C293.418 176.125 293.219 173.524 291.583 171.888C289.948 170.253 287.348 170.054 285.067 171.178Z" fill="#407BFF"/>
<path opacity="0.5" d="M285.067 171.178L292.294 178.405C293.418 176.125 293.219 173.524 291.583 171.888C289.948 170.253 287.348 170.054 285.067 171.178Z" fill="black"/>
<path opacity="0.2" d="M284.164 170.274C283.263 170.718 282.402 171.325 281.631 172.096C278.425 175.302 278.007 180.083 280.698 182.774L288.681 174.791L284.164 170.274Z" fill="black"/>
<path d="M288.212 164.431C288.978 164.742 289.727 165.239 290.306 165.824C291.854 167.386 291.545 169.276 290.272 170.925C290.187 171.036 290.341 171.192 290.428 171.081C291.587 169.58 292.13 167.779 290.891 166.154C290.239 165.299 289.262 164.622 288.268 164.218C288.138 164.165 288.083 164.378 288.212 164.431Z" fill="#263238"/>
<path d="M299.254 175.204C298.85 174.211 298.173 173.233 297.318 172.581C295.694 171.342 293.892 171.884 292.391 173.044C292.279 173.13 292.436 173.285 292.547 173.2C294.191 171.931 296.09 171.613 297.648 173.166C298.232 173.748 298.729 174.493 299.041 175.26C299.094 175.389 299.307 175.335 299.254 175.204Z" fill="#263238"/>
<path d="M285.222 174.888C284.716 175.394 283.896 175.394 283.39 174.888C282.884 174.382 282.884 173.562 283.39 173.056C283.896 172.55 284.716 172.55 285.222 173.056C285.728 173.561 285.728 174.382 285.222 174.888Z" fill="#407BFF"/>
<path d="M290.417 180.082C289.911 180.588 289.091 180.588 288.585 180.082C288.079 179.576 288.079 178.756 288.585 178.25C289.091 177.744 289.911 177.744 290.417 178.25C290.923 178.756 290.923 179.576 290.417 180.082Z" fill="#407BFF"/>
<path d="M282.406 178.948C281.9 179.454 281.08 179.454 280.574 178.948C280.068 178.442 280.068 177.622 280.574 177.116C281.08 176.61 281.9 176.61 282.406 177.116C282.912 177.622 282.912 178.442 282.406 178.948Z" fill="#407BFF"/>
<path d="M286.357 182.898C285.851 183.404 285.031 183.404 284.525 182.898C284.019 182.392 284.019 181.572 284.525 181.066C285.031 180.56 285.851 180.56 286.357 181.066C286.863 181.572 286.863 182.392 286.357 182.898Z" fill="#407BFF"/>
<g opacity="0.7">
<path d="M285.222 174.888C284.716 175.394 283.896 175.394 283.39 174.888C282.884 174.382 282.884 173.562 283.39 173.056C283.896 172.55 284.716 172.55 285.222 173.056C285.728 173.561 285.728 174.382 285.222 174.888Z" fill="white"/>
<path d="M290.417 180.082C289.911 180.588 289.091 180.588 288.585 180.082C288.079 179.576 288.079 178.756 288.585 178.25C289.091 177.744 289.911 177.744 290.417 178.25C290.923 178.756 290.923 179.576 290.417 180.082Z" fill="white"/>
<path d="M282.406 178.948C281.9 179.454 281.08 179.454 280.574 178.948C280.068 178.442 280.068 177.622 280.574 177.116C281.08 176.61 281.9 176.61 282.406 177.116C282.912 177.622 282.912 178.442 282.406 178.948Z" fill="white"/>
<path d="M286.357 182.898C285.851 183.404 285.031 183.404 284.525 182.898C284.019 182.392 284.019 181.572 284.525 181.066C285.031 180.56 285.851 180.56 286.357 181.066C286.863 181.572 286.863 182.392 286.357 182.898Z" fill="white"/>
</g>
<path d="M195.155 287.147C194.922 287.106 194.595 287.853 194.425 288.815C194.315 289.442 194.299 290.002 194.366 290.33C194.04 290.419 193.556 290.666 193.056 291.016C192.256 291.576 191.717 292.188 191.853 292.382C191.989 292.576 192.748 292.279 193.548 291.719C194.228 291.243 194.717 290.731 194.766 290.468C194.954 290.203 195.15 289.64 195.269 288.964C195.44 288.002 195.388 287.189 195.155 287.147Z" fill="#263238"/>
<path d="M197.653 292.203C196.88 291.922 196.186 291.814 195.936 291.919C195.612 291.916 195.032 292.081 194.409 292.372C193.524 292.785 192.887 293.294 192.987 293.508C193.087 293.723 193.886 293.562 194.772 293.149C195.348 292.881 195.817 292.572 196.048 292.33C196.308 292.546 196.787 292.8 197.36 293.008C198.278 293.342 199.088 293.433 199.169 293.21C199.249 292.988 198.571 292.537 197.653 292.203Z" fill="#263238"/>
<path d="M190.683 286.025C190.468 286.125 190.629 286.924 191.042 287.81C191.31 288.386 191.619 288.855 191.861 289.086C191.645 289.346 191.391 289.826 191.183 290.398C190.849 291.316 190.758 292.126 190.981 292.207C191.203 292.288 191.655 291.609 191.989 290.691C192.27 289.918 192.378 289.224 192.272 288.974C192.275 288.65 192.11 288.07 191.819 287.447C191.406 286.562 190.897 285.925 190.683 286.025Z" fill="#263238"/>
<path d="M179.979 302.324C179.938 302.091 180.685 301.764 181.647 301.595C182.274 301.484 182.834 301.469 183.162 301.536C183.251 301.21 183.498 300.726 183.848 300.226C184.408 299.426 185.02 298.887 185.214 299.023C185.408 299.159 185.111 299.918 184.551 300.718C184.075 301.398 183.563 301.887 183.3 301.936C183.035 302.124 182.472 302.32 181.796 302.439C180.833 302.608 180.02 302.557 179.979 302.324Z" fill="#263238"/>
<path d="M185.034 304.822C184.753 304.049 184.645 303.355 184.751 303.106C184.748 302.782 184.913 302.202 185.204 301.578C185.617 300.693 186.126 300.056 186.34 300.156C186.555 300.256 186.394 301.055 185.981 301.94C185.713 302.516 185.404 302.985 185.162 303.216C185.378 303.476 185.632 303.956 185.84 304.528C186.174 305.446 186.265 306.256 186.042 306.337C185.819 306.418 185.368 305.74 185.034 304.822Z" fill="#263238"/>
<path d="M178.856 297.852C178.956 297.637 179.755 297.798 180.641 298.211C181.217 298.479 181.686 298.788 181.917 299.03C182.177 298.814 182.657 298.56 183.229 298.352C184.147 298.018 184.957 297.927 185.038 298.15C185.119 298.373 184.441 298.824 183.522 299.158C182.749 299.439 182.055 299.547 181.805 299.441C181.481 299.444 180.902 299.279 180.278 298.988C179.393 298.575 178.756 298.066 178.856 297.852Z" fill="#263238"/>
<path d="M184.25 292.829C184.25 293.527 184.816 294.094 185.515 294.094C186.213 294.094 186.78 293.528 186.78 292.829C186.78 292.13 186.214 291.565 185.515 291.565V292.829H184.25Z" fill="#407BFF"/>
<path opacity="0.2" d="M184.25 292.829C184.25 293.527 184.816 294.094 185.515 294.094C186.213 294.094 186.78 293.528 186.78 292.829C186.78 292.13 186.214 291.565 185.515 291.565V292.829H184.25Z" fill="black"/>
<path d="M184.031 300.38C184.475 301.281 185.082 302.142 185.853 302.913C189.059 306.119 193.84 306.537 196.531 303.846C199.222 301.155 198.804 296.374 195.598 293.168C194.828 292.398 193.966 291.79 193.065 291.346L184.031 300.38Z" fill="#407BFF"/>
<path opacity="0.3" d="M184.031 300.38C184.475 301.281 185.082 302.142 185.853 302.913C189.059 306.119 193.84 306.537 196.531 303.846C199.222 301.155 198.804 296.374 195.598 293.168C194.828 292.398 193.966 291.79 193.065 291.346L184.031 300.38Z" fill="black"/>
<path d="M184.935 299.476L192.162 292.249C189.882 291.126 187.281 291.324 185.646 292.96C184.01 294.595 183.811 297.196 184.935 299.476Z" fill="#407BFF"/>
<path opacity="0.5" d="M184.935 299.476L192.162 292.249C189.882 291.126 187.281 291.324 185.646 292.96C184.01 294.595 183.811 297.196 184.935 299.476Z" fill="black"/>
<path opacity="0.2" d="M184.031 300.38C184.475 301.281 185.082 302.142 185.853 302.913C189.059 306.119 193.84 306.537 196.531 303.846L188.548 295.863L184.031 300.38Z" fill="black"/>
<path d="M178.188 296.331C178.499 295.565 178.997 294.816 179.581 294.237C181.143 292.689 183.033 292.998 184.682 294.271C184.793 294.356 184.949 294.202 184.838 294.116C183.337 292.957 181.536 292.414 179.911 293.653C179.056 294.305 178.379 295.282 177.975 296.276C177.922 296.406 178.135 296.461 178.188 296.331Z" fill="#263238"/>
<path d="M188.961 285.29C187.968 285.694 186.99 286.371 186.338 287.226C185.099 288.85 185.641 290.652 186.801 292.153C186.887 292.265 187.042 292.108 186.957 291.997C185.688 290.353 185.37 288.454 186.923 286.896C187.505 286.312 188.25 285.815 189.017 285.503C189.146 285.45 189.092 285.236 188.961 285.29Z" fill="#263238"/>
<path d="M188.645 299.321C189.151 299.827 189.151 300.647 188.645 301.153C188.139 301.659 187.319 301.659 186.813 301.153C186.307 300.647 186.307 299.827 186.813 299.321C187.318 298.815 188.139 298.815 188.645 299.321Z" fill="#407BFF"/>
<path d="M193.839 294.127C194.345 294.633 194.345 295.453 193.839 295.959C193.333 296.465 192.513 296.465 192.007 295.959C191.501 295.453 191.501 294.633 192.007 294.127C192.513 293.621 193.333 293.621 193.839 294.127Z" fill="#407BFF"/>
<path d="M192.705 302.137C193.211 302.643 193.211 303.463 192.705 303.969C192.199 304.475 191.379 304.475 190.873 303.969C190.367 303.463 190.367 302.643 190.873 302.137C191.378 301.631 192.199 301.631 192.705 302.137Z" fill="#407BFF"/>
<path d="M196.655 298.187C197.161 298.693 197.161 299.513 196.655 300.019C196.149 300.525 195.329 300.525 194.823 300.019C194.317 299.513 194.317 298.693 194.823 298.187C195.329 297.681 196.149 297.681 196.655 298.187Z" fill="#407BFF"/>
<g opacity="0.7">
<path d="M188.645 299.321C189.151 299.827 189.151 300.647 188.645 301.153C188.139 301.659 187.319 301.659 186.813 301.153C186.307 300.647 186.307 299.827 186.813 299.321C187.318 298.815 188.139 298.815 188.645 299.321Z" fill="white"/>
<path d="M193.839 294.127C194.345 294.633 194.345 295.453 193.839 295.959C193.333 296.465 192.513 296.465 192.007 295.959C191.501 295.453 191.501 294.633 192.007 294.127C192.513 293.621 193.333 293.621 193.839 294.127Z" fill="white"/>
<path d="M192.705 302.137C193.211 302.643 193.211 303.463 192.705 303.969C192.199 304.475 191.379 304.475 190.873 303.969C190.367 303.463 190.367 302.643 190.873 302.137C191.378 301.631 192.199 301.631 192.705 302.137Z" fill="white"/>
<path d="M196.655 298.187C197.161 298.693 197.161 299.513 196.655 300.019C196.149 300.525 195.329 300.525 194.823 300.019C194.317 299.513 194.317 298.693 194.823 298.187C195.329 297.681 196.149 297.681 196.655 298.187Z" fill="white"/>
</g>
<path d="M344.348 160.007C343.959 159.938 343.415 161.183 343.132 162.786C342.948 163.831 342.923 164.764 343.033 165.31C342.49 165.458 341.683 165.87 340.85 166.454C339.516 167.388 338.618 168.407 338.845 168.731C339.071 169.054 340.336 168.559 341.67 167.625C342.803 166.832 343.619 165.978 343.7 165.541C344.013 165.1 344.34 164.161 344.539 163.034C344.823 161.431 344.737 160.076 344.348 160.007Z" fill="#263238"/>
<path d="M348.512 168.432C347.224 167.963 346.067 167.784 345.651 167.959C345.111 167.955 344.145 168.229 343.105 168.714C341.629 169.402 340.568 170.25 340.735 170.608C340.902 170.966 342.233 170.698 343.709 170.01C344.668 169.563 345.45 169.048 345.835 168.644C346.268 169.004 347.067 169.427 348.022 169.774C349.552 170.331 350.902 170.482 351.037 170.111C351.172 169.742 350.042 168.989 348.512 168.432Z" fill="#263238"/>
<path d="M336.895 158.137C336.537 158.304 336.805 159.636 337.493 161.111C337.94 162.071 338.455 162.852 338.859 163.237C338.5 163.67 338.076 164.469 337.729 165.424C337.172 166.954 337.021 168.304 337.392 168.439C337.763 168.574 338.515 167.443 339.072 165.913C339.541 164.625 339.72 163.468 339.545 163.052C339.549 162.512 339.274 161.546 338.79 160.506C338.1 159.031 337.253 157.97 336.895 158.137Z" fill="#263238"/>
<path d="M319.054 185.301C318.985 184.912 320.23 184.368 321.833 184.085C322.878 183.901 323.811 183.876 324.357 183.986C324.505 183.443 324.917 182.637 325.501 181.803C326.435 180.469 327.454 179.571 327.777 179.798C328.1 180.024 327.606 181.289 326.672 182.623C325.879 183.756 325.025 184.572 324.588 184.653C324.147 184.965 323.208 185.293 322.081 185.492C320.478 185.776 319.123 185.69 319.054 185.301Z" fill="#263238"/>
<path d="M327.479 189.464C327.01 188.176 326.831 187.019 327.006 186.603C327.002 186.063 327.277 185.097 327.762 184.057C328.45 182.581 329.298 181.52 329.656 181.687C330.014 181.854 329.746 183.185 329.058 184.661C328.611 185.621 328.096 186.402 327.692 186.787C328.051 187.22 328.475 188.019 328.822 188.974C329.379 190.504 329.53 191.854 329.159 191.989C328.789 192.125 328.036 190.995 327.479 189.464Z" fill="#263238"/>
<path d="M317.184 177.848C317.351 177.49 318.682 177.758 320.158 178.446C321.118 178.893 321.899 179.408 322.284 179.812C322.718 179.453 323.517 179.029 324.471 178.682C326.001 178.125 327.351 177.974 327.486 178.345C327.621 178.716 326.49 179.468 324.96 180.025C323.672 180.494 322.515 180.673 322.099 180.498C321.559 180.502 320.593 180.227 319.553 179.742C318.078 179.053 317.017 178.205 317.184 177.848Z" fill="#263238"/>
<path d="M326.173 169.476C326.173 170.64 327.117 171.584 328.281 171.584C329.445 171.584 330.389 170.64 330.389 169.476C330.389 168.312 329.445 167.368 328.281 167.368V169.476H326.173Z" fill="#407BFF"/>
<path opacity="0.2" d="M326.173 169.476C326.173 170.64 327.117 171.584 328.281 171.584C329.445 171.584 330.389 170.64 330.389 169.476C330.389 168.312 329.445 167.368 328.281 167.368V169.476H326.173Z" fill="black"/>
<path d="M325.809 182.061C326.549 183.563 327.561 184.999 328.845 186.282C334.189 191.626 342.157 192.322 346.642 187.837C351.127 183.352 350.431 175.384 345.087 170.04C343.804 168.756 342.368 167.744 340.866 167.004L325.809 182.061Z" fill="#407BFF"/>
<path opacity="0.3" d="M325.809 182.061C326.549 183.563 327.561 184.999 328.845 186.282C334.189 191.626 342.157 192.322 346.642 187.837C351.127 183.352 350.431 175.384 345.087 170.04C343.804 168.756 342.368 167.744 340.866 167.004L325.809 182.061Z" fill="black"/>
<path d="M327.315 180.555L339.36 168.509C335.56 166.637 331.226 166.967 328.499 169.694C325.773 172.421 325.442 176.755 327.315 180.555Z" fill="#407BFF"/>
<path opacity="0.5" d="M327.315 180.555L339.36 168.509C335.56 166.637 331.226 166.967 328.499 169.694C325.773 172.421 325.442 176.755 327.315 180.555Z" fill="black"/>
<path opacity="0.2" d="M325.809 182.061C326.549 183.563 327.561 184.999 328.845 186.282C334.189 191.626 342.157 192.322 346.642 187.837L333.337 174.532L325.809 182.061Z" fill="black"/>
<path d="M316.07 175.313C316.589 174.036 317.417 172.789 318.392 171.823C320.995 169.242 324.146 169.757 326.894 171.88C327.078 172.022 327.34 171.765 327.153 171.621C324.651 169.689 321.65 168.784 318.942 170.85C317.517 171.936 316.388 173.565 315.715 175.221C315.627 175.438 315.983 175.529 316.07 175.313Z" fill="#263238"/>
<path d="M334.025 156.911C332.37 157.584 330.74 158.713 329.654 160.137C327.59 162.844 328.493 165.846 330.425 168.349C330.569 168.535 330.826 168.274 330.684 168.09C328.568 165.351 328.039 162.184 330.627 159.588C331.597 158.615 332.838 157.786 334.118 157.266C334.334 157.178 334.243 156.822 334.025 156.911Z" fill="#263238"/>
<path d="M333.498 180.297C334.341 181.14 334.341 182.507 333.498 183.351C332.655 184.194 331.288 184.194 330.444 183.351C329.601 182.508 329.601 181.141 330.444 180.297C331.287 179.454 332.655 179.454 333.498 180.297Z" fill="#407BFF"/>
<path d="M342.156 171.639C342.999 172.482 342.999 173.849 342.156 174.693C341.313 175.536 339.945 175.536 339.102 174.693C338.259 173.85 338.259 172.483 339.102 171.639C339.945 170.796 341.312 170.796 342.156 171.639Z" fill="#407BFF"/>
<path d="M340.265 184.99C341.108 185.833 341.108 187.201 340.265 188.044C339.422 188.887 338.055 188.887 337.211 188.044C336.368 187.201 336.368 185.833 337.211 184.99C338.054 184.147 339.422 184.147 340.265 184.99Z" fill="#407BFF"/>
<path d="M346.849 178.406C347.692 179.249 347.692 180.617 346.849 181.46C346.006 182.303 344.639 182.303 343.795 181.46C342.952 180.617 342.952 179.249 343.795 178.406C344.639 177.563 346.006 177.563 346.849 178.406Z" fill="#407BFF"/>
<g opacity="0.7">
<path d="M333.498 180.297C334.341 181.14 334.341 182.507 333.498 183.351C332.655 184.194 331.288 184.194 330.444 183.351C329.601 182.508 329.601 181.141 330.444 180.297C331.287 179.454 332.655 179.454 333.498 180.297Z" fill="white"/>
<path d="M342.156 171.639C342.999 172.482 342.999 173.849 342.156 174.693C341.313 175.536 339.945 175.536 339.102 174.693C338.259 173.85 338.259 172.483 339.102 171.639C339.945 170.796 341.312 170.796 342.156 171.639Z" fill="white"/>
<path d="M340.265 184.99C341.108 185.833 341.108 187.201 340.265 188.044C339.422 188.887 338.055 188.887 337.211 188.044C336.368 187.201 336.368 185.833 337.211 184.99C338.054 184.147 339.422 184.147 340.265 184.99Z" fill="white"/>
<path d="M346.849 178.406C347.692 179.249 347.692 180.617 346.849 181.46C346.006 182.303 344.639 182.303 343.795 181.46C342.952 180.617 342.952 179.249 343.795 178.406C344.639 177.563 346.006 177.563 346.849 178.406Z" fill="white"/>
</g>
<path d="M341.86 198.175L336.9 199.049L337.775 204.009L342.734 203.135L341.86 198.175Z" fill="black"/>
<path opacity="0.5" d="M341.86 198.175L336.9 199.049L337.775 204.009L342.734 203.135L341.86 198.175Z" fill="white"/>
<path d="M345.89 231.094L344.4 231.357C342.814 231.637 341.301 230.578 341.021 228.991L336.887 205.545C336.607 203.959 337.666 202.446 339.253 202.166L340.743 201.903C342.329 201.623 343.842 202.682 344.122 204.269L348.256 227.715C348.535 229.302 347.476 230.815 345.89 231.094Z" fill="black"/>
<path opacity="0.1" d="M344.304 155.37C344.434 155.919 344.552 156.474 344.652 157.037C347.467 173 336.808 188.223 320.844 191.038C320.281 191.137 319.719 191.215 319.158 191.282C324.152 196.536 331.598 199.27 339.271 197.917C351.439 195.772 359.563 184.168 357.418 172.001C356.065 164.327 350.949 158.266 344.304 155.37Z" fill="black"/>
<path d="M330.944 150.693C317.031 153.146 307.741 166.414 310.194 180.327C312.647 194.24 325.915 203.531 339.828 201.077C353.741 198.624 363.032 185.356 360.578 171.443C358.126 157.53 344.858 148.24 330.944 150.693ZM338.953 196.113C327.782 198.083 317.129 190.623 315.159 179.452C313.189 168.281 320.649 157.628 331.82 155.658C342.991 153.688 353.644 161.148 355.614 172.319C357.584 183.49 350.125 194.143 338.953 196.113Z" fill="#407BFF"/>
<path d="M415.96 204.266C416.94 205.795 417.777 207.261 418.635 208.778C419.489 210.284 420.3 211.812 421.082 213.359C422.648 216.452 424.085 219.627 425.362 222.912C426.017 224.545 426.577 226.237 427.116 227.947L427.22 228.277L427.355 228.814C427.449 229.167 427.503 229.539 427.545 229.914C427.64 230.659 427.604 231.424 427.503 232.156C427.281 233.625 426.714 234.898 426.049 235.929C424.683 237.99 423.026 239.259 421.372 240.288C420.535 240.79 419.696 241.238 418.826 241.6C417.945 241.976 417.132 242.293 416.138 242.574L414.244 238.539C415.368 237.605 416.594 236.512 417.555 235.45C418.533 234.394 419.336 233.256 419.624 232.364C419.773 231.925 419.807 231.584 419.75 231.372C419.714 231.265 419.686 231.181 419.639 231.095C419.618 231.053 419.604 231.009 419.565 230.961C419.55 230.937 419.538 230.914 419.528 230.889L419.419 230.624C418.832 229.157 418.188 227.7 417.511 226.235C416.151 223.315 414.661 220.41 413.1 217.531L410.729 213.222L408.306 209.002L415.96 204.266Z" fill="#FFC3BD"/>
<path d="M416.314 237.989L411.908 236.844L411.655 243.958C411.655 243.958 415.102 244.47 417.212 242.362L416.314 237.989Z" fill="#FFC3BD"/>
<path d="M405.664 235.645L406.658 241.89L411.655 243.958L411.908 236.844L405.664 235.645Z" fill="#FFC3BD"/>
<path d="M387.438 175.566C387.339 176.053 387.001 176.395 386.682 176.331C386.364 176.266 386.186 175.819 386.285 175.332C386.384 174.845 386.722 174.503 387.04 174.568C387.359 174.632 387.537 175.079 387.438 175.566Z" fill="#263238"/>
<path d="M387.045 176.405C387.045 176.405 385.367 178.989 383.872 180.097C384.57 181.076 386.11 181.006 386.11 181.006L387.045 176.405Z" fill="#ED847E"/>
<path d="M389.77 173.225C389.841 173.225 389.912 173.199 389.968 173.148C390.086 173.039 390.094 172.854 389.984 172.736C388.888 171.55 387.559 171.761 387.501 171.77C387.342 171.797 387.235 171.948 387.262 172.107C387.289 172.266 387.442 172.372 387.597 172.346C387.641 172.339 388.68 172.186 389.555 173.132C389.613 173.193 389.692 173.225 389.77 173.225Z" fill="#263238"/>
<path d="M401.309 182.415C400.425 186.922 399.544 195.18 402.697 198.187C402.697 198.187 401.465 202.759 393.091 202.759C383.882 202.759 388.69 198.188 388.69 198.188C393.716 196.988 393.586 193.259 392.711 189.757L401.309 182.415Z" fill="#FFC3BD"/>
<path d="M404.513 199.023C405.186 197.771 405.928 196.338 404.394 195.889C402.707 195.395 391.869 194.479 388.685 195.406C389.663 197.146 388.007 199.285 388.007 199.285L404.513 199.023Z" fill="#407BFF"/>
<path opacity="0.3" d="M404.513 199.023C405.186 197.771 405.928 196.338 404.394 195.889C402.707 195.395 391.869 194.479 388.685 195.406C389.663 197.146 388.007 199.285 388.007 199.285L404.513 199.023Z" fill="black"/>
<path d="M394.946 409.85H388.786L388.172 395.584H394.333L394.946 409.85Z" fill="#FFC3BD"/>
<path d="M440.163 406.999L434.142 408.302L428.097 395.014L434.118 393.71L440.163 406.999Z" fill="#FFC3BD"/>
<path d="M433.563 407.698L440.327 406.233C440.573 406.18 440.823 406.305 440.929 406.533L443.277 411.627C443.521 412.156 443.198 412.775 442.627 412.889C440.257 413.36 439.079 413.469 436.105 414.114C434.275 414.51 430.144 415.517 427.616 416.064C425.144 416.599 424.218 414.184 425.203 413.733C429.622 411.714 431.469 409.936 432.665 408.279C432.881 407.981 433.203 407.776 433.563 407.698Z" fill="#263238"/>
<path d="M388.826 409.137H395.554C395.806 409.137 396.024 409.312 396.079 409.558L397.296 415.034C397.422 415.602 396.991 416.14 396.41 416.13C393.983 416.089 390.476 415.946 387.426 415.946C383.859 415.946 380.779 416.14 376.596 416.14C374.067 416.14 373.365 413.583 374.424 413.352C379.243 412.298 383.178 412.185 387.343 409.617C387.795 409.338 388.295 409.137 388.826 409.137Z" fill="#263238"/>
<path d="M413.727 199.58C419.501 200.904 424.262 215.644 424.262 215.644L412.667 224.482C412.667 224.482 408.412 220.47 406.517 213.096C404.533 205.371 407.823 198.227 413.727 199.58Z" fill="#407BFF"/>
<path opacity="0.2" d="M408.779 210.42C411.915 213.523 412.938 219.175 413.182 224.089L412.67 224.483C412.67 224.483 408.41 220.466 406.515 213.095C406.398 212.634 406.297 212.172 406.213 211.72L408.779 210.42Z" fill="black"/>
<path d="M379.214 199.898C379.214 199.898 372.657 207.304 378.849 253.146C388.777 253.146 406.969 253.146 411.8 253.146C412.027 248.088 408.849 223.413 413.727 199.58C413.727 199.58 408.079 198.447 402.697 198.187C398.487 197.984 392.391 197.85 388.69 198.188C383.81 198.633 379.214 199.898 379.214 199.898Z" fill="#407BFF"/>
<path opacity="0.2" d="M376.334 213.909L376.46 213.8L383.949 215.594C384.377 220.659 379.169 226.714 376.486 229.481C376.116 223.016 376.124 217.917 376.334 213.909Z" fill="black"/>
<path opacity="0.2" d="M388.174 395.588L388.489 402.942H394.652L394.337 395.588H388.174Z" fill="black"/>
<path opacity="0.2" d="M434.121 393.714L428.097 395.018L431.216 401.866L437.24 400.562L434.121 393.714Z" fill="black"/>
<path d="M403.889 177.835C402.306 183.741 401.68 187.278 398.036 189.733C392.554 193.427 385.729 189.188 385.515 182.928C385.323 177.294 387.943 168.582 394.281 167.392C400.525 166.22 405.472 171.93 403.889 177.835Z" fill="#FFC3BD"/>
<path d="M390.538 253.146C390.538 253.146 397.529 300.226 401.368 317.864C405.571 337.179 428.109 401.082 428.109 401.082L439.137 398.694C439.137 398.694 423.377 346.617 419.85 319.614C418.691 310.742 417.051 302.299 415.553 289.819C414.999 285.201 415.464 275.715 414.981 271.641C414.472 267.353 413.02 263.521 412.661 260.473C412.128 255.945 411.801 253.145 411.801 253.145L390.538 253.146Z" fill="#407BFF"/>
<path d="M425.468 397.401C425.421 397.411 427.523 401.389 427.523 401.389L439.931 398.703L438.885 394.973L425.468 397.401Z" fill="#407BFF"/>
<path opacity="0.3" d="M425.468 397.401C425.421 397.411 427.523 401.389 427.523 401.389L439.931 398.703L438.885 394.973L425.468 397.401Z" fill="black"/>
<path opacity="0.3" d="M394.957 269.92C403.041 271.505 402.186 301.652 401.213 317.158C398.882 306.198 395.469 285.107 393.137 270.138C393.673 269.87 394.277 269.786 394.957 269.92Z" fill="black"/>
<path d="M378.849 253.146C378.849 253.146 378.001 299.207 378.671 317.994C379.368 337.535 386.193 401.518 386.193 401.518H396.629C396.629 401.518 397.012 338.677 397.476 319.486C397.982 298.564 400.508 253.147 400.508 253.147H378.849V253.146Z" fill="#407BFF"/>
<path d="M384.185 397.361C384.137 397.361 384.774 401.694 384.774 401.694H397.469L397.812 397.827L384.185 397.361Z" fill="#407BFF"/>
<path opacity="0.3" d="M384.185 397.361C384.137 397.361 384.774 401.694 384.774 401.694H397.469L397.812 397.827L384.185 397.361Z" fill="black"/>
<path d="M376.32 205.604C375.37 207.088 374.288 208.742 373.21 210.277C372.11 211.825 371.002 213.362 369.849 214.855C368.694 216.337 367.519 217.807 366.284 219.175C365.686 219.891 365.039 220.519 364.419 221.199C363.772 221.815 363.138 222.484 362.476 223.053L361.489 223.931L360.48 224.72L360.066 225.045C359.788 225 359.41 224.897 359.008 224.721C358.35 224.438 357.608 224.058 356.874 223.601C353.917 221.752 350.882 219.186 348.03 216.683L344.562 219.484C346.806 223.06 349.273 226.3 352.641 229.269C353.497 230.001 354.411 230.726 355.509 231.371C356.612 232.005 357.864 232.653 359.688 232.919C360.598 233.037 361.698 233.013 362.831 232.652C363.385 232.488 363.968 232.196 364.426 231.915L365.136 231.448C365.606 231.134 366.088 230.825 366.547 230.502L367.868 229.496C371.341 226.766 374.196 223.657 376.879 220.45C378.182 218.822 379.462 217.185 380.64 215.48C381.832 213.757 382.955 212.107 384.063 210.194L376.32 205.604ZM360.44 225.061C360.389 225.08 360.276 225.075 360.141 225.057C360.175 225.047 360.211 225.036 360.236 225.03C360.43 224.996 360.514 225.033 360.44 225.061Z" fill="#FFC3BD"/>
<path d="M388.277 209.216C390.248 217.476 375.303 225.564 375.303 225.564L365.596 214.191C365.596 214.191 370.015 207.494 375.513 202.218C382.304 195.7 386.777 202.929 388.277 209.216Z" fill="#407BFF"/>
<path d="M345.425 220.442L339.838 215.136L345.198 211.055C345.198 211.055 349.625 214.215 348.52 218.564L345.425 220.442Z" fill="#FFC3BD"/>
<path d="M338.077 213.065L341.823 208.848L345.198 211.055L339.838 215.135L338.077 213.065Z" fill="#FFC3BD"/>
<path d="M391.304 176.405C391.304 176.405 387.974 172.561 388.471 168.932C388.471 168.932 385.367 163.73 388.268 161.894C391.168 160.058 392.981 163.996 392.981 163.996C392.981 163.996 394.856 159.933 397.544 160.433C400.232 160.933 399.576 164.496 399.576 164.496C399.576 164.496 403.169 161.357 405.419 162.333C407.669 163.309 406.357 166.809 406.357 166.809C406.357 166.809 410.034 166.113 410.883 168.398C411.732 170.684 409.537 172.077 409.537 172.077C409.537 172.077 412.845 173.314 412.945 176.405C413.045 179.496 409.483 179.175 409.483 179.175C409.483 179.175 408.875 183.767 401.806 187.684C401.36 187.931 400.824 187.993 400.338 187.837C399.759 187.652 398.806 187.492 397.541 187.775C396.808 187.939 396.048 187.645 395.595 187.047C394.63 185.772 393.109 183.693 392.672 182.683C392.029 181.209 391.304 176.405 391.304 176.405Z" fill="#263238"/>
<path opacity="0.3" d="M406.418 179.996C404.23 183.934 401.543 177.548 401.543 177.548C399.522 182.671 395.793 175.746 395.793 175.746C394.855 179.371 391.305 176.405 391.305 176.405C391.305 176.405 392.03 181.21 392.668 182.684C393.106 183.694 394.625 185.773 395.591 187.048C396.045 187.647 396.805 187.94 397.538 187.776C398.803 187.492 399.756 187.652 400.335 187.838C400.821 187.994 401.357 187.932 401.803 187.685C408.872 183.769 409.48 179.176 409.48 179.176C408.543 182.29 406.418 179.996 406.418 179.996Z" fill="white"/>
<path d="M384.291 177.915C384.199 177.915 384.107 177.902 384.016 177.876C383.714 177.789 383.485 177.585 383.353 177.287C382.766 175.958 384.337 172.698 384.518 172.33L384.699 171.963L391.498 176.084L391.109 176.726L386.625 174.008C386.429 174.861 385.821 177.16 384.841 177.754C384.665 177.86 384.478 177.915 384.291 177.915ZM385.016 173.032C384.42 174.334 383.734 176.291 384.04 176.984C384.093 177.103 384.163 177.138 384.225 177.155C384.279 177.172 384.347 177.178 384.453 177.113C385.099 176.721 385.709 174.761 385.948 173.597L385.016 173.032Z" fill="#407BFF"/>
<path d="M393.841 178.083C393.439 179.633 392.421 180.966 391.355 181.759C389.752 182.952 388.554 181.778 388.668 179.963C388.771 178.33 389.728 175.742 391.497 175.258C393.239 174.781 394.3 176.31 393.841 178.083Z" fill="#FFC3BD"/>
<path d="M204.886 372.683H156.417C153.961 372.683 151.757 371.175 150.868 368.886L132.129 320.686C130.32 316.033 125.082 313.728 120.429 315.537C120.429 315.537 71.141 313.728 66.488 315.537L62.804 316.969L87.114 379.498C88.561 383.221 92.146 385.674 96.141 385.674H150.082H159.984H213.925V381.722C213.926 376.73 209.879 372.683 204.886 372.683Z" fill="#407BFF"/>
<path opacity="0.3" d="M204.886 372.683H156.417C153.961 372.683 151.757 371.175 150.868 368.886L132.129 320.686C130.32 316.033 125.082 313.728 120.429 315.537C120.429 315.537 71.141 313.728 66.488 315.537L62.804 316.969L87.114 379.498C88.561 383.221 92.146 385.674 96.141 385.674H150.082H159.984H213.925V381.722C213.926 376.73 209.879 372.683 204.886 372.683Z" fill="white"/>
<path opacity="0.2" d="M96.927 368.886L78.188 320.686C76.379 316.033 71.141 313.728 66.488 315.537L62.804 316.969L87.114 379.498C88.561 383.221 92.146 385.674 96.141 385.674H159.984V381.722C159.984 376.73 155.937 372.683 150.945 372.683H102.476C100.021 372.683 97.817 371.175 96.927 368.886Z" fill="black"/>
<path d="M205.415 390.996H139.654L132.767 415.896H136.631L144.062 400.122H201.007L208.438 415.896H212.302L205.415 390.996Z" fill="#263238"/>
<path opacity="0.2" d="M205.415 390.996H139.654L132.767 415.896H136.631L144.062 400.122H201.007L208.438 415.896H212.302L205.415 390.996Z" fill="white"/>
<path d="M202.292 390.996H136.532L129.644 415.896H133.509L140.94 400.122H197.885L205.316 415.896H209.18L202.292 390.996Z" fill="#263238"/>
<path opacity="0.3" d="M202.292 390.996H136.532L129.644 415.896H133.509L140.94 400.122H197.885L205.316 415.896H209.18L202.292 390.996Z" fill="white"/>
<path d="M158.581 390.996H92.8211L85.9331 415.896H89.7981L97.2291 400.122H154.173L161.605 415.896H165.469L158.581 390.996Z" fill="#263238"/>
<path opacity="0.2" d="M158.581 390.996H92.8211L85.9331 415.896H89.7981L97.2291 400.122H154.173L161.605 415.896H165.469L158.581 390.996Z" fill="white"/>
<path d="M155.459 390.996H89.698L82.811 415.896H86.675L94.106 400.122H151.051L158.482 415.896H162.346L155.459 390.996Z" fill="#263238"/>
<path opacity="0.4" d="M155.459 390.996H89.698L82.811 415.896H86.675L94.106 400.122H151.051L158.482 415.896H162.346L155.459 390.996Z" fill="white"/>
<path d="M153.984 385.674H93.802V390.995H153.984V385.674Z" fill="#263238"/>
<path opacity="0.2" d="M153.984 385.674H93.802V390.995H153.984V385.674Z" fill="white"/>
<path d="M201.166 385.674H153.984V390.995H201.166V385.674Z" fill="#263238"/>
<path opacity="0.1" d="M201.166 385.674H153.984V390.995H201.166V385.674Z" fill="white"/>
<path d="M163.68 365.249L175.197 369.937L173.896 374.807L161.602 372.274L163.68 365.249Z" fill="#CE7A63"/>
<path d="M124.351 348.628C124.351 348.628 179.476 329.533 184.022 347.077C188.567 364.622 146.792 376.724 124.905 375.987C103.016 375.251 124.351 348.628 124.351 348.628Z" fill="#263238"/>
<path opacity="0.3" d="M124.351 348.628C124.351 348.628 179.476 329.533 184.022 347.077C188.567 364.622 146.792 376.724 124.905 375.987C103.016 375.251 124.351 348.628 124.351 348.628Z" fill="black"/>
<path opacity="0.7" d="M165.331 350.406L138.583 367.456L142.853 374.462C142.853 374.462 140.267 375.322 136.689 366.763L153.245 355.819C153.245 355.819 148.06 355.299 148.194 354.486C148.412 353.164 159.786 350.626 164.978 349.534C165.499 349.425 165.78 350.12 165.331 350.406Z" fill="black"/>
<path opacity="0.7" d="M137.609 366.704L142.246 374.567C135.953 375.652 129.908 376.157 124.903 375.989C122.571 375.91 120.733 375.536 119.304 374.933L117.677 371.814L121.185 364.419L137.609 366.704Z" fill="black"/>
<path d="M138.082 367.912L132.874 372.277L135.266 375.99L143.193 374.751L138.082 367.912Z" fill="#CE7A63"/>
<path d="M144.586 374.882L139.144 366.306L136.689 368.06L141.395 375.463L144.586 374.882Z" fill="#407BFF"/>
<path d="M104.975 366.891C102.01 361.864 96.2878 346.736 110.046 344.103C123.803 341.47 168.995 366.891 168.995 366.891L166.891 373.506L124.1 366.447C124.1 366.447 135.997 377.213 122.984 375.875C112.661 374.814 107.857 371.778 104.975 366.891Z" fill="#263238"/>
<path d="M167.881 365.249L165.206 373.886L167.881 374.258L170.292 366.797L167.881 365.249Z" fill="#407BFF"/>
<path d="M132.554 371.125L136.674 376.023C136.829 376.208 136.836 376.475 136.69 376.667L133.45 380.904C133.165 381.282 132.628 381.358 132.25 381.073C132.201 381.036 132.157 380.995 132.117 380.949C130.662 379.157 129.438 377.506 127.586 375.31C125.403 372.716 125.646 373.636 123.037 370.622C121.467 368.804 123.273 366.711 124.031 367.404C127.48 370.593 128.868 370.057 131.302 370.359C131.799 370.454 132.244 370.726 132.554 371.125Z" fill="#407BFF"/>
<path opacity="0.3" d="M132.554 371.125L136.674 376.023C136.829 376.208 136.836 376.475 136.69 376.667L133.45 380.904C133.165 381.282 132.628 381.358 132.25 381.073C132.201 381.036 132.157 380.995 132.117 380.949C130.662 379.157 129.438 377.506 127.586 375.31C125.403 372.716 125.646 373.636 123.037 370.622C121.467 368.804 123.273 366.711 124.031 367.404C127.48 370.593 128.868 370.057 131.302 370.359C131.799 370.454 132.244 370.726 132.554 371.125Z" fill="black"/>
<path d="M174.266 369.319L172.256 375.412C172.18 375.642 172.274 375.893 172.481 376.017L177.074 378.754C177.48 379 178.008 378.87 178.254 378.465C178.286 378.413 178.311 378.358 178.331 378.3C179.018 376.091 179.542 374.098 180.448 371.365C181.514 368.139 181.63 369.085 182.936 365.309C183.72 363.033 181.26 361.758 180.813 362.684C178.791 366.936 177.299 366.954 175.147 368.141C174.718 368.412 174.405 368.831 174.266 369.319Z" fill="#407BFF"/>
<path opacity="0.3" d="M174.266 369.319L172.256 375.412C172.18 375.642 172.274 375.893 172.481 376.017L177.074 378.754C177.48 379 178.008 378.87 178.254 378.465C178.286 378.413 178.311 378.358 178.331 378.3C179.018 376.091 179.542 374.098 180.448 371.365C181.514 368.139 181.63 369.085 182.936 365.309C183.72 363.033 181.26 361.758 180.813 362.684C178.791 366.936 177.299 366.954 175.147 368.141C174.718 368.412 174.405 368.831 174.266 369.319Z" fill="black"/>
<path d="M141.499 311.924C141.499 311.924 145.136 329.822 147.587 332.79C150.039 335.759 160.724 343.743 160.724 343.743L167.073 342.41L171.624 346.209L168.649 348.557L165.126 347.232C165.126 347.232 162.592 347.736 159.309 347.736C156.026 347.736 142.7 339.895 140.058 335.492C137.416 331.089 133.718 314.533 133.718 314.533L141.499 311.924Z" fill="#CE7A63"/>
<path d="M133.614 317.159C133.614 317.159 129.001 303.194 135.079 298.471C141.157 293.748 144.007 314.572 144.007 314.572L133.614 317.159Z" fill="#407BFF"/>
<path d="M132.371 315.962L133.302 318.356L144.943 315.363L144.477 312.969L132.371 315.962Z" fill="#407BFF"/>
<path d="M102.016 350.841C102.016 350.841 94.5069 328.075 104.481 298.471C104.481 298.471 117.424 292.448 135.881 296.866C137.998 297.373 139.281 299.514 138.738 301.622C136.891 308.801 134.036 325.92 140.93 347.557C140.932 347.557 123.747 350.416 102.016 350.841Z" fill="#407BFF"/>
<path opacity="0.8" d="M102.016 350.841C102.016 350.841 94.5069 328.075 104.481 298.471C104.481 298.471 117.424 292.448 135.881 296.866C137.998 297.373 139.281 299.514 138.738 301.622C136.891 308.801 134.036 325.92 140.93 347.557C140.932 347.557 123.747 350.416 102.016 350.841Z" fill="white"/>
<path d="M123.054 299.708C123.054 299.708 125.387 302.291 127.429 299.708L128.554 299.541C128.554 299.541 128.471 302.291 126.971 303.208C126.971 303.208 130.008 316.654 132.115 336.535L130.068 337.974L127.585 336.535C127.585 336.535 128.197 327.867 125.448 303.416C125.448 303.416 122.43 302.458 121.513 299.541L123.054 299.708Z" fill="#263238"/>
<path d="M119.198 295.384L125.447 300.796L129.076 297.582C127.704 296.56 128.08 294.255 128.846 291.766L119.984 284.77C120.433 288.056 120.773 292.565 119.198 295.384Z" fill="#CE7A63"/>
<path d="M111.167 307.397C111.167 307.397 115.154 327.018 117.842 330.273C120.53 333.527 132.244 342.28 132.244 342.28L139.205 340.819L144.195 344.983L140.933 347.557L137.071 346.105C137.071 346.105 134.293 346.657 130.694 346.657C127.095 346.657 112.486 338.061 109.589 333.234C106.693 328.407 102.638 310.257 102.638 310.257L111.167 307.397Z" fill="#CE7A63"/>
<path d="M116.893 295.52L119.374 294.081L125.447 300.797C125.447 300.797 122.108 299.433 121.17 299.985C120.323 300.483 120.914 302.634 119.932 302.651C117.747 302.688 116.893 295.52 116.893 295.52Z" fill="#407BFF"/>
<path d="M125.447 300.796L128.615 294.543L131.204 295.941C131.204 295.941 133.613 302.01 131.772 302.65C130.652 303.039 130.223 300.201 129.111 299.79C128.22 299.461 125.447 300.796 125.447 300.796Z" fill="#407BFF"/>
<path d="M103.016 317.159C103.016 317.159 98.4028 303.194 104.481 298.471C110.559 293.748 113.409 314.572 113.409 314.572L103.016 317.159Z" fill="#407BFF"/>
<path d="M101.773 315.962L102.704 318.356L114.344 315.363L113.879 312.969L101.773 315.962Z" fill="#407BFF"/>
<path opacity="0.1" d="M120.129 285.934C120.083 285.534 120.034 285.143 119.983 284.77L128.845 291.766C128.516 292.833 128.27 293.86 128.19 294.775C122.837 294.821 120.81 288.905 120.129 285.934Z" fill="black"/>
<path d="M121.654 274.561C119.809 280.81 118.89 283.444 120.843 287.654C123.774 294.062 131.854 294.961 135.527 289.388C138.812 284.366 141.335 274.997 136.2 270.384C132.572 267.078 126.95 267.34 123.644 270.968C122.709 271.994 122.028 273.224 121.654 274.561Z" fill="#CE7A63"/>
<path d="M129.158 281.912C128.982 282.411 129.096 282.907 129.424 283.028C129.751 283.149 130.161 282.839 130.337 282.34C130.513 281.841 130.405 281.346 130.078 281.225C129.75 281.104 129.34 281.414 129.158 281.912Z" fill="#263238"/>
<path d="M134.788 283.955C134.605 284.453 134.725 284.956 135.047 285.071C135.369 285.185 135.784 284.882 135.967 284.384C136.15 283.886 136.029 283.389 135.708 283.269C135.387 283.148 134.971 283.457 134.788 283.955Z" fill="#263238"/>
<path d="M132.267 283.147C132.299 284.443 132.507 285.728 132.885 286.968C132.239 287.15 131.546 287.037 130.991 286.659L132.267 283.147Z" fill="#BA4D3C"/>
<path d="M128.499 277.51C128.563 277.629 128.696 277.695 128.83 277.672C130.261 277.456 131.566 278.788 131.575 278.8C131.694 278.925 131.892 278.929 132.017 278.81C132.142 278.691 132.147 278.493 132.028 278.368C131.951 278.33 130.486 276.787 128.74 277.048C128.571 277.076 128.455 277.234 128.478 277.404C128.477 277.441 128.484 277.477 128.499 277.51Z" fill="#263238"/>
<path d="M137.943 281.542C138.049 281.577 138.165 281.555 138.251 281.484C138.378 281.371 138.393 281.177 138.285 281.046C137.655 280.257 136.68 279.825 135.672 279.887C135.5 279.908 135.377 280.064 135.398 280.236C135.419 280.408 135.575 280.531 135.747 280.51C136.544 280.476 137.309 280.826 137.803 281.452C137.843 281.493 137.89 281.523 137.943 281.542Z" fill="#263238"/>
<path d="M120.437 278.206C120.437 278.206 122.781 278.151 122.453 275.475C122.453 275.475 126.331 275.366 126.495 272.525C126.495 272.525 129.882 275.529 131.084 273.18C131.084 273.18 135.236 276.895 135.782 274.437C135.782 274.437 140.098 279.79 139.879 276.513C139.879 276.513 144.741 276.021 140.371 271.815C140.371 271.815 144.359 268.319 137.913 266.899C137.913 266.899 138.477 262.754 133.938 264.578C133.938 264.578 132.887 260.072 128.954 262.694C128.954 262.694 126.829 259.526 124.505 263.786C124.505 263.786 121.076 261.822 119.984 266.247C119.984 266.247 113.778 267.002 116.338 271.078C116.338 271.078 118.253 284.77 119.984 284.77C121.161 284.77 120.437 278.206 120.437 278.206Z" fill="#263238"/>
<path d="M129.237 288.621C129.457 288.685 129.682 288.731 129.91 288.757C129.983 288.769 130.053 288.72 130.065 288.647C130.065 288.645 130.065 288.644 130.066 288.642C130.071 288.566 130.015 288.501 129.94 288.492C128.773 288.367 127.735 287.696 127.142 286.684C127.109 286.616 127.027 286.588 126.959 286.621C126.891 286.654 126.863 286.736 126.896 286.804C127.399 287.7 128.243 288.356 129.237 288.621Z" fill="#263238"/>
<path d="M170.508 349.805H145.704C144.535 349.805 143.588 348.857 143.588 347.689H172.625C172.624 348.857 171.677 349.805 170.508 349.805Z" fill="#263238"/>
<path opacity="0.2" d="M170.508 349.805H145.704C144.535 349.805 143.588 348.857 143.588 347.689H172.625C172.624 348.857 171.677 349.805 170.508 349.805Z" fill="white"/>
<path d="M152.249 349.805H134.23C133.061 349.805 132.114 348.857 132.114 347.689H154.365C154.365 348.857 153.418 349.805 152.249 349.805Z" fill="#263238"/>
<path opacity="0.5" d="M152.249 349.805H134.23C133.061 349.805 132.114 348.857 132.114 347.689H154.365C154.365 348.857 153.418 349.805 152.249 349.805Z" fill="white"/>
<path d="M170.683 349.158H154.357C154.012 349.158 153.77 348.817 153.884 348.491L161.146 327.746C161.346 327.174 161.885 326.792 162.491 326.792H178.818C179.163 326.792 179.405 327.133 179.291 327.459L172.029 348.204C171.828 348.775 171.289 349.158 170.683 349.158Z" fill="#263238"/>
<path opacity="0.5" d="M170.683 349.158H154.357C154.012 349.158 153.77 348.817 153.884 348.491L161.146 327.746C161.346 327.174 161.885 326.792 162.491 326.792H178.818C179.163 326.792 179.405 327.133 179.291 327.459L172.029 348.204C171.828 348.775 171.289 349.158 170.683 349.158Z" fill="white"/>
<path d="M171.322 349.158H154.995C154.65 349.158 154.408 348.817 154.522 348.491L161.784 327.746C161.984 327.174 162.524 326.792 163.129 326.792H179.455C179.8 326.792 180.042 327.133 179.928 327.459L172.666 348.204C172.467 348.775 171.928 349.158 171.322 349.158Z" fill="#263238"/>
<path opacity="0.7" d="M171.322 349.158H154.995C154.65 349.158 154.408 348.817 154.522 348.491L161.784 327.746C161.984 327.174 162.524 326.792 163.129 326.792H179.455C179.8 326.792 180.042 327.133 179.928 327.459L172.666 348.204C172.467 348.775 171.928 349.158 171.322 349.158Z" fill="white"/>
<path d="M168.608 337.975C168.439 338.77 167.889 339.414 167.38 339.414C166.871 339.414 166.595 338.77 166.764 337.975C166.933 337.18 167.483 336.536 167.992 336.536C168.501 336.535 168.777 337.18 168.608 337.975Z" fill="white"/>
<path opacity="0.3" d="M121.637 273.166C121.637 273.166 120.387 273.792 119.512 273.166C118.637 272.54 119.753 270.792 119.753 270.792C117.536 272.084 116.337 271.078 116.337 271.078C116.337 271.078 118.252 284.77 119.983 284.77C121.161 284.77 120.437 278.206 120.437 278.206C120.437 278.206 122.781 278.151 122.453 275.475C120.353 275.074 121.637 273.166 121.637 273.166Z" fill="white"/>
<path d="M138.324 282.23C138.085 281.508 137.606 280.983 136.974 280.752C135.748 280.304 134.311 281.124 133.662 282.589L132.463 282.103C132.589 281.475 132.54 280.832 132.299 280.25C131.993 279.508 131.426 278.954 130.703 278.689C129.427 278.222 128.004 278.801 127.252 279.994L125.717 279.375L121.634 277.114L121.392 277.552L125.503 279.826L127.024 280.441C126.996 280.505 126.959 280.562 126.935 280.629C126.649 281.409 126.66 282.245 126.965 282.984C127.271 283.726 127.838 284.28 128.561 284.545C128.86 284.655 129.171 284.709 129.483 284.709C129.925 284.709 130.369 284.6 130.787 284.384C131.497 284.017 132.045 283.385 132.33 282.606C132.332 282.601 132.332 282.596 132.334 282.591L133.49 283.059C133.281 283.764 133.269 284.489 133.481 285.129C133.72 285.851 134.199 286.376 134.831 286.607C135.06 286.691 135.299 286.732 135.541 286.732C135.967 286.732 136.404 286.604 136.817 286.35C137.457 285.959 137.965 285.316 138.25 284.539C138.532 283.762 138.56 282.942 138.324 282.23ZM130.67 284.161C130.02 284.497 129.301 284.549 128.645 284.309C127.989 284.069 127.474 283.564 127.194 282.887C126.913 282.207 126.904 281.435 127.168 280.714C127.603 279.528 128.678 278.776 129.786 278.776C130.064 278.776 130.345 278.823 130.618 278.923C131.274 279.163 131.789 279.668 132.069 280.345C132.35 281.025 132.359 281.797 132.095 282.518C131.83 283.241 131.324 283.823 130.67 284.161ZM138.013 284.452C137.747 285.176 137.276 285.775 136.684 286.137C136.102 286.494 135.475 286.576 134.915 286.372C134.356 286.167 133.931 285.698 133.716 285.05C133.498 284.392 133.524 283.631 133.789 282.907C134.239 281.68 135.267 280.879 136.267 280.879C136.477 280.879 136.685 280.914 136.887 280.988C137.446 281.192 137.871 281.662 138.086 282.31C138.304 282.967 138.279 283.728 138.013 284.452Z" fill="#407BFF"/>
<path opacity="0.5" d="M138.324 282.23C138.085 281.508 137.606 280.983 136.974 280.752C135.748 280.304 134.311 281.124 133.662 282.589L132.463 282.103C132.589 281.475 132.54 280.832 132.299 280.25C131.993 279.508 131.426 278.954 130.703 278.689C129.427 278.222 128.004 278.801 127.252 279.994L125.717 279.375L121.634 277.114L121.392 277.552L125.503 279.826L127.024 280.441C126.996 280.505 126.959 280.562 126.935 280.629C126.649 281.409 126.66 282.245 126.965 282.984C127.271 283.726 127.838 284.28 128.561 284.545C128.86 284.655 129.171 284.709 129.483 284.709C129.925 284.709 130.369 284.6 130.787 284.384C131.497 284.017 132.045 283.385 132.33 282.606C132.332 282.601 132.332 282.596 132.334 282.591L133.49 283.059C133.281 283.764 133.269 284.489 133.481 285.129C133.72 285.851 134.199 286.376 134.831 286.607C135.06 286.691 135.299 286.732 135.541 286.732C135.967 286.732 136.404 286.604 136.817 286.35C137.457 285.959 137.965 285.316 138.25 284.539C138.532 283.762 138.56 282.942 138.324 282.23ZM130.67 284.161C130.02 284.497 129.301 284.549 128.645 284.309C127.989 284.069 127.474 283.564 127.194 282.887C126.913 282.207 126.904 281.435 127.168 280.714C127.603 279.528 128.678 278.776 129.786 278.776C130.064 278.776 130.345 278.823 130.618 278.923C131.274 279.163 131.789 279.668 132.069 280.345C132.35 281.025 132.359 281.797 132.095 282.518C131.83 283.241 131.324 283.823 130.67 284.161ZM138.013 284.452C137.747 285.176 137.276 285.775 136.684 286.137C136.102 286.494 135.475 286.576 134.915 286.372C134.356 286.167 133.931 285.698 133.716 285.05C133.498 284.392 133.524 283.631 133.789 282.907C134.239 281.68 135.267 280.879 136.267 280.879C136.477 280.879 136.685 280.914 136.887 280.988C137.446 281.192 137.871 281.662 138.086 282.31C138.304 282.967 138.279 283.728 138.013 284.452Z" fill="white"/>
<path d="M118.299 278.848C118.337 280.109 118.875 281.303 119.793 282.168C121.012 283.308 122.403 282.398 122.688 280.844C122.953 279.446 122.645 277.17 121.112 276.623C119.992 276.246 118.778 276.849 118.401 277.969C118.307 278.252 118.272 278.551 118.299 278.848Z" fill="#CE7A63"/>
<path d="M51.92 77.154C51.108 77.154 50.408 77.0233 49.82 76.762C49.2413 76.4913 48.7093 76.0853 48.224 75.544L49.652 74.13C49.9693 74.494 50.3193 74.7787 50.702 74.984C51.094 75.18 51.5467 75.278 52.06 75.278C52.5267 75.278 52.886 75.194 53.138 75.026C53.3993 74.858 53.53 74.6247 53.53 74.326C53.53 74.0553 53.446 73.836 53.278 73.668C53.11 73.5 52.886 73.3553 52.606 73.234C52.3353 73.1127 52.032 72.996 51.696 72.884C51.3693 72.772 51.0427 72.646 50.716 72.506C50.3893 72.3567 50.086 72.1747 49.806 71.96C49.5353 71.736 49.316 71.4607 49.148 71.134C48.98 70.798 48.896 70.378 48.896 69.874C48.896 69.2673 49.0407 68.7447 49.33 68.306C49.6287 67.8673 50.0393 67.536 50.562 67.312C51.0847 67.0787 51.6867 66.962 52.368 66.962C53.0587 66.962 53.6887 67.0833 54.258 67.326C54.8367 67.5687 55.3127 67.9 55.686 68.32L54.258 69.734C53.9593 69.426 53.656 69.1973 53.348 69.048C53.0493 68.8987 52.7087 68.824 52.326 68.824C51.9433 68.824 51.64 68.8987 51.416 69.048C51.192 69.188 51.08 69.3933 51.08 69.664C51.08 69.916 51.164 70.1213 51.332 70.28C51.5 70.4293 51.7193 70.56 51.99 70.672C52.27 70.784 52.5733 70.896 52.9 71.008C53.236 71.12 53.5673 71.2507 53.894 71.4C54.2207 71.5493 54.5193 71.7407 54.79 71.974C55.07 72.198 55.294 72.4873 55.462 72.842C55.63 73.1873 55.714 73.6167 55.714 74.13C55.714 75.0727 55.378 75.8147 54.706 76.356C54.034 76.888 53.1053 77.154 51.92 77.154ZM60.1531 77.154C59.4531 77.154 58.8184 77 58.2491 76.692C57.6891 76.3747 57.2458 75.9453 56.9191 75.404C56.5924 74.8627 56.4291 74.256 56.4291 73.584C56.4291 72.912 56.5924 72.31 56.9191 71.778C57.2458 71.246 57.6891 70.826 58.2491 70.518C58.8091 70.2007 59.4438 70.042 60.1531 70.042C60.8624 70.042 61.4971 70.196 62.0571 70.504C62.6171 70.812 63.0604 71.2367 63.3871 71.778C63.7138 72.31 63.8771 72.912 63.8771 73.584C63.8771 74.256 63.7138 74.8627 63.3871 75.404C63.0604 75.9453 62.6171 76.3747 62.0571 76.692C61.4971 77 60.8624 77.154 60.1531 77.154ZM60.1531 75.208C60.4611 75.208 60.7318 75.1427 60.9651 75.012C61.1984 74.872 61.3758 74.6807 61.4971 74.438C61.6278 74.186 61.6931 73.9013 61.6931 73.584C61.6931 73.2667 61.6278 72.9913 61.4971 72.758C61.3664 72.5153 61.1844 72.3287 60.9511 72.198C60.7271 72.058 60.4611 71.988 60.1531 71.988C59.8544 71.988 59.5884 72.058 59.3551 72.198C59.1218 72.3287 58.9398 72.5153 58.8091 72.758C58.6784 73.0007 58.6131 73.2807 58.6131 73.598C58.6131 73.906 58.6784 74.186 58.8091 74.438C58.9398 74.6807 59.1218 74.872 59.3551 75.012C59.5884 75.1427 59.8544 75.208 60.1531 75.208ZM65.6748 77V69.608C65.6748 69.0573 65.7961 68.5627 66.0388 68.124C66.2908 67.676 66.6408 67.326 67.0888 67.074C67.5368 66.8127 68.0688 66.682 68.6848 66.682C69.1514 66.682 69.5574 66.7613 69.9028 66.92C70.2574 67.0693 70.5654 67.2793 70.8268 67.55L69.4828 68.894C69.3894 68.8007 69.2821 68.7307 69.1608 68.684C69.0488 68.628 68.9134 68.6 68.7548 68.6C68.4654 68.6 68.2368 68.684 68.0688 68.852C67.9008 69.02 67.8168 69.2487 67.8168 69.538V77H65.6748ZM64.1768 72.016V70.196H69.7768V72.016H64.1768ZM71.474 77V67.382H73.616V77H71.474ZM69.934 72.016V70.196H75.156V72.016H69.934ZM77.7658 77L75.4138 70.196H77.5138L78.9698 75.138L78.3538 75.152L79.9638 70.196H81.6998L83.3238 75.152L82.6938 75.138L84.1638 70.196H86.2638L83.9118 77H82.1618L80.5798 72.296H81.1118L79.5018 77H77.7658ZM89.7972 77.14C89.1719 77.14 88.6119 76.986 88.1172 76.678C87.6319 76.37 87.2446 75.95 86.9552 75.418C86.6752 74.886 86.5352 74.2793 86.5352 73.598C86.5352 72.9167 86.6752 72.31 86.9552 71.778C87.2446 71.246 87.6319 70.826 88.1172 70.518C88.6119 70.21 89.1719 70.056 89.7972 70.056C90.2546 70.056 90.6652 70.1447 91.0292 70.322C91.4026 70.4993 91.7059 70.7467 91.9392 71.064C92.1726 71.372 92.3032 71.7267 92.3312 72.128V75.068C92.3032 75.4693 92.1726 75.8287 91.9392 76.146C91.7152 76.454 91.4166 76.6967 91.0432 76.874C90.6699 77.0513 90.2546 77.14 89.7972 77.14ZM90.2312 75.208C90.6886 75.208 91.0572 75.0587 91.3372 74.76C91.6172 74.452 91.7572 74.0647 91.7572 73.598C91.7572 73.2807 91.6919 73.0007 91.5612 72.758C91.4399 72.5153 91.2626 72.3287 91.0292 72.198C90.8052 72.058 90.5439 71.988 90.2452 71.988C89.9466 71.988 89.6806 72.058 89.4472 72.198C89.2232 72.3287 89.0412 72.5153 88.9012 72.758C88.7706 73.0007 88.7052 73.2807 88.7052 73.598C88.7052 73.906 88.7706 74.1813 88.9012 74.424C89.0319 74.6667 89.2139 74.858 89.4472 74.998C89.6806 75.138 89.9419 75.208 90.2312 75.208ZM91.6732 77V75.166L91.9952 73.514L91.6732 71.862V70.196H93.7732V77H91.6732ZM95.2814 77V70.196H97.4234V77H95.2814ZM97.4234 73.262L96.5274 72.562C96.7047 71.7687 97.0034 71.1527 97.4234 70.714C97.8434 70.2753 98.4267 70.056 99.1734 70.056C99.5001 70.056 99.7847 70.1073 100.027 70.21C100.279 70.3033 100.499 70.4527 100.685 70.658L99.4114 72.268C99.3181 72.1653 99.2014 72.086 99.0614 72.03C98.9214 71.974 98.7627 71.946 98.5854 71.946C98.2307 71.946 97.9461 72.058 97.7314 72.282C97.5261 72.4967 97.4234 72.8233 97.4234 73.262ZM104.425 77.154C103.687 77.154 103.029 77.0047 102.451 76.706C101.881 76.398 101.433 75.9733 101.107 75.432C100.78 74.8907 100.617 74.2793 100.617 73.598C100.617 72.9167 100.775 72.31 101.093 71.778C101.419 71.2367 101.858 70.812 102.409 70.504C102.959 70.196 103.58 70.042 104.271 70.042C104.943 70.042 105.535 70.1867 106.049 70.476C106.562 70.7653 106.963 71.1667 107.253 71.68C107.551 72.1933 107.701 72.7813 107.701 73.444C107.701 73.5653 107.691 73.696 107.673 73.836C107.663 73.9667 107.64 74.1207 107.603 74.298L101.737 74.312V72.842L106.693 72.828L105.769 73.444C105.759 73.052 105.699 72.73 105.587 72.478C105.475 72.2167 105.307 72.0207 105.083 71.89C104.868 71.75 104.602 71.68 104.285 71.68C103.949 71.68 103.655 71.7593 103.403 71.918C103.16 72.0673 102.969 72.282 102.829 72.562C102.698 72.842 102.633 73.1827 102.633 73.584C102.633 73.9853 102.703 74.3307 102.843 74.62C102.992 74.9 103.197 75.1193 103.459 75.278C103.729 75.4273 104.047 75.502 104.411 75.502C104.747 75.502 105.05 75.446 105.321 75.334C105.591 75.2127 105.829 75.0353 106.035 74.802L107.211 75.978C106.875 76.37 106.469 76.664 105.993 76.86C105.517 77.056 104.994 77.154 104.425 77.154Z" fill="#B3CAFF"/>
<path d="M266.374 76V66.256H268.572V76H266.374ZM263.28 68.034V66.116H271.666V68.034H263.28ZM274.43 76.154C273.693 76.154 273.035 76.0047 272.456 75.706C271.887 75.398 271.439 74.9733 271.112 74.432C270.786 73.8907 270.622 73.2793 270.622 72.598C270.622 71.9167 270.781 71.31 271.098 70.778C271.425 70.2367 271.864 69.812 272.414 69.504C272.965 69.196 273.586 69.042 274.276 69.042C274.948 69.042 275.541 69.1867 276.054 69.476C276.568 69.7653 276.969 70.1667 277.258 70.68C277.557 71.1933 277.706 71.7813 277.706 72.444C277.706 72.5653 277.697 72.696 277.678 72.836C277.669 72.9667 277.646 73.1207 277.608 73.298L271.742 73.312V71.842L276.698 71.828L275.774 72.444C275.765 72.052 275.704 71.73 275.592 71.478C275.48 71.2167 275.312 71.0207 275.088 70.89C274.874 70.75 274.608 70.68 274.29 70.68C273.954 70.68 273.66 70.7593 273.408 70.918C273.166 71.0673 272.974 71.282 272.834 71.562C272.704 71.842 272.638 72.1827 272.638 72.584C272.638 72.9853 272.708 73.3307 272.848 73.62C272.998 73.9 273.203 74.1193 273.464 74.278C273.735 74.4273 274.052 74.502 274.416 74.502C274.752 74.502 275.056 74.446 275.326 74.334C275.597 74.2127 275.835 74.0353 276.04 73.802L277.216 74.978C276.88 75.37 276.474 75.664 275.998 75.86C275.522 76.056 275 76.154 274.43 76.154ZM281.218 76.168C280.817 76.168 280.42 76.1167 280.028 76.014C279.646 75.9113 279.286 75.7667 278.95 75.58C278.624 75.384 278.344 75.16 278.11 74.908L279.328 73.676C279.552 73.9187 279.818 74.11 280.126 74.25C280.434 74.3807 280.77 74.446 281.134 74.446C281.386 74.446 281.578 74.4087 281.708 74.334C281.848 74.2593 281.918 74.1567 281.918 74.026C281.918 73.858 281.834 73.732 281.666 73.648C281.508 73.5547 281.302 73.4753 281.05 73.41C280.798 73.3353 280.532 73.256 280.252 73.172C279.972 73.088 279.706 72.9713 279.454 72.822C279.202 72.6727 278.997 72.4673 278.838 72.206C278.68 71.9353 278.6 71.5947 278.6 71.184C278.6 70.7453 278.712 70.3673 278.936 70.05C279.16 69.7233 279.478 69.4667 279.888 69.28C280.299 69.0933 280.78 69 281.33 69C281.909 69 282.441 69.1027 282.926 69.308C283.421 69.504 283.822 69.798 284.13 70.19L282.912 71.422C282.698 71.17 282.455 70.9927 282.184 70.89C281.923 70.7873 281.666 70.736 281.414 70.736C281.172 70.736 280.99 70.7733 280.868 70.848C280.747 70.9133 280.686 71.0113 280.686 71.142C280.686 71.282 280.766 71.394 280.924 71.478C281.083 71.562 281.288 71.6367 281.54 71.702C281.792 71.7673 282.058 71.8467 282.338 71.94C282.618 72.0333 282.884 72.1593 283.136 72.318C283.388 72.4767 283.594 72.6913 283.752 72.962C283.911 73.2233 283.99 73.5687 283.99 73.998C283.99 74.6607 283.738 75.188 283.234 75.58C282.74 75.972 282.068 76.168 281.218 76.168ZM286.118 76V66.382H288.26V76H286.118ZM284.578 71.016V69.196H289.8V71.016H284.578ZM290.744 76V69.196H292.886V76H290.744ZM291.822 68.258C291.486 68.258 291.206 68.146 290.982 67.922C290.768 67.6887 290.66 67.4087 290.66 67.082C290.66 66.746 290.768 66.466 290.982 66.242C291.206 66.018 291.486 65.906 291.822 65.906C292.158 65.906 292.434 66.018 292.648 66.242C292.863 66.466 292.97 66.746 292.97 67.082C292.97 67.4087 292.863 67.6887 292.648 67.922C292.434 68.146 292.158 68.258 291.822 68.258ZM298.889 76V72.122C298.889 71.7673 298.777 71.4827 298.553 71.268C298.338 71.044 298.063 70.932 297.727 70.932C297.493 70.932 297.288 70.9833 297.111 71.086C296.933 71.1793 296.793 71.3193 296.691 71.506C296.588 71.6833 296.537 71.8887 296.537 72.122L295.711 71.716C295.711 71.184 295.827 70.7173 296.061 70.316C296.294 69.9147 296.616 69.6067 297.027 69.392C297.447 69.168 297.918 69.056 298.441 69.056C298.945 69.056 299.388 69.1773 299.771 69.42C300.163 69.6533 300.471 69.966 300.695 70.358C300.919 70.75 301.031 71.1793 301.031 71.646V76H298.889ZM294.395 76V69.196H296.537V76H294.395ZM305.29 79.052C304.544 79.052 303.886 78.9213 303.316 78.66C302.756 78.408 302.313 78.0487 301.986 77.582L303.302 76.266C303.545 76.5553 303.816 76.7747 304.114 76.924C304.422 77.0733 304.791 77.148 305.22 77.148C305.752 77.148 306.168 77.0173 306.466 76.756C306.774 76.4947 306.928 76.126 306.928 75.65V73.914L307.292 72.43L306.97 70.946V69.196H309.07V75.594C309.07 76.294 308.907 76.9007 308.58 77.414C308.254 77.9273 307.806 78.3287 307.236 78.618C306.667 78.9073 306.018 79.052 305.29 79.052ZM305.192 75.79C304.567 75.79 304.012 75.6407 303.526 75.342C303.041 75.0433 302.658 74.6373 302.378 74.124C302.098 73.6107 301.958 73.0413 301.958 72.416C301.958 71.7813 302.098 71.212 302.378 70.708C302.658 70.1947 303.041 69.7933 303.526 69.504C304.012 69.2053 304.567 69.056 305.192 69.056C305.659 69.056 306.074 69.1447 306.438 69.322C306.812 69.49 307.11 69.7327 307.334 70.05C307.568 70.358 307.698 70.7173 307.726 71.128V73.718C307.698 74.1193 307.568 74.4787 307.334 74.796C307.11 75.104 306.812 75.3467 306.438 75.524C306.065 75.7013 305.65 75.79 305.192 75.79ZM305.598 73.886C305.897 73.886 306.154 73.8207 306.368 73.69C306.592 73.5593 306.76 73.3867 306.872 73.172C306.994 72.948 307.054 72.696 307.054 72.416C307.054 72.136 306.994 71.884 306.872 71.66C306.76 71.436 306.592 71.2587 306.368 71.128C306.154 70.9973 305.897 70.932 305.598 70.932C305.309 70.932 305.052 70.9973 304.828 71.128C304.604 71.2587 304.432 71.436 304.31 71.66C304.189 71.884 304.128 72.136 304.128 72.416C304.128 72.6773 304.189 72.9247 304.31 73.158C304.432 73.382 304.6 73.5593 304.814 73.69C305.038 73.8207 305.3 73.886 305.598 73.886Z" fill="#B3CAFF"/>
</svg>
