<?xml version="1.0" encoding="UTF-8"?>
<svg id="Layer_1" data-name="Layer 1" xmlns="http://www.w3.org/2000/svg" xmlns:xlink="http://www.w3.org/1999/xlink" viewBox="0 0 1106.3 664.2">
  <defs>
    <style>
      .cls-1 {
        fill: url(#linear-gradient-38);
      }

      .cls-1, .cls-2, .cls-3, .cls-4, .cls-5, .cls-6, .cls-7, .cls-8, .cls-9, .cls-10, .cls-11, .cls-12, .cls-13, .cls-14, .cls-15, .cls-16, .cls-17, .cls-18, .cls-19, .cls-20, .cls-21, .cls-22, .cls-23, .cls-24, .cls-25, .cls-26, .cls-27, .cls-28, .cls-29, .cls-30, .cls-31, .cls-32, .cls-33, .cls-34, .cls-35, .cls-36, .cls-37, .cls-38, .cls-39, .cls-40, .cls-41, .cls-42, .cls-43, .cls-44, .cls-45, .cls-46, .cls-47, .cls-48, .cls-49, .cls-50, .cls-51, .cls-52, .cls-53, .cls-54, .cls-55, .cls-56, .cls-57, .cls-58, .cls-59, .cls-60, .cls-61, .cls-62, .cls-63, .cls-64, .cls-65, .cls-66, .cls-67, .cls-68, .cls-69, .cls-70, .cls-71, .cls-72, .cls-73, .cls-74, .cls-75, .cls-76, .cls-77, .cls-78, .cls-79, .cls-80, .cls-81, .cls-82, .cls-83, .cls-84, .cls-85, .cls-86, .cls-87, .cls-88, .cls-89, .cls-90, .cls-91, .cls-92, .cls-93, .cls-94, .cls-95, .cls-96, .cls-97, .cls-98, .cls-99, .cls-100, .cls-101, .cls-102, .cls-103, .cls-104, .cls-105, .cls-106, .cls-107, .cls-108, .cls-109, .cls-110, .cls-111, .cls-112, .cls-113, .cls-114, .cls-115, .cls-116, .cls-117, .cls-118, .cls-119 {
        stroke-width: 0px;
      }

      .cls-2 {
        fill: #e54687;
      }

      .cls-3 {
        fill: url(#linear-gradient-12);
      }

      .cls-120 {
        opacity: .7;
      }

      .cls-4 {
        fill: url(#linear-gradient-17);
      }

      .cls-5 {
        fill: url(#linear-gradient-88);
      }

      .cls-6 {
        fill: url(#linear-gradient-19);
      }

      .cls-7 {
        fill: url(#linear-gradient-33);
      }

      .cls-8 {
        fill: url(#linear-gradient-62);
      }

      .cls-9 {
        fill: url(#linear-gradient-92);
      }

      .cls-10 {
        fill: url(#linear-gradient-98);
      }

      .cls-11 {
        fill: url(#linear-gradient-67);
      }

      .cls-12 {
        fill: url(#linear-gradient-57);
      }

      .cls-13 {
        fill: url(#linear-gradient-21);
      }

      .cls-14 {
        fill: url(#linear-gradient-6);
      }

      .cls-121, .cls-63 {
        opacity: .6;
      }

      .cls-15 {
        fill: url(#linear-gradient-76);
      }

      .cls-16 {
        opacity: .5;
      }

      .cls-16, .cls-21, .cls-52, .cls-63, .cls-65, .cls-72 {
        fill: #fff;
      }

      .cls-17 {
        fill: #666694;
      }

      .cls-18 {
        fill: url(#linear-gradient);
      }

      .cls-18, .cls-21 {
        opacity: .5;
      }

      .cls-19 {
        fill: url(#linear-gradient-42);
      }

      .cls-20 {
        fill: url(#linear-gradient-104);
      }

      .cls-22 {
        fill: url(#linear-gradient-95);
      }

      .cls-122, .cls-72 {
        opacity: .7;
      }

      .cls-23 {
        fill: url(#linear-gradient-15);
      }

      .cls-24 {
        fill: #6d388a;
      }

      .cls-25 {
        fill: url(#linear-gradient-11);
      }

      .cls-26 {
        fill: url(#linear-gradient-106);
      }

      .cls-27 {
        fill: url(#linear-gradient-101);
      }

      .cls-28 {
        fill: url(#linear-gradient-81);
      }

      .cls-123 {
        opacity: .6;
      }

      .cls-29 {
        fill: url(#linear-gradient-73);
      }

      .cls-30 {
        fill: url(#linear-gradient-91);
      }

      .cls-31 {
        fill: url(#linear-gradient-5);
      }

      .cls-32 {
        fill: none;
      }

      .cls-33 {
        fill: url(#linear-gradient-31);
      }

      .cls-34 {
        fill: url(#linear-gradient-103);
      }

      .cls-35 {
        fill: url(#linear-gradient-71);
      }

      .cls-36 {
        fill: url(#linear-gradient-58);
      }

      .cls-37 {
        fill: url(#linear-gradient-63);
      }

      .cls-38 {
        fill: url(#linear-gradient-34);
      }

      .cls-39 {
        fill: url(#linear-gradient-96);
      }

      .cls-40 {
        fill: url(#linear-gradient-41);
      }

      .cls-41 {
        fill: url(#linear-gradient-89);
      }

      .cls-42 {
        fill: url(#linear-gradient-40);
      }

      .cls-43 {
        fill: url(#linear-gradient-66);
      }

      .cls-44 {
        fill: url(#linear-gradient-13);
      }

      .cls-45 {
        fill: url(#linear-gradient-23);
      }

      .cls-46 {
        fill: url(#linear-gradient-25);
      }

      .cls-47 {
        fill: url(#linear-gradient-43);
      }

      .cls-48 {
        fill: url(#linear-gradient-16);
      }

      .cls-49 {
        fill: url(#linear-gradient-22);
      }

      .cls-50 {
        fill: url(#linear-gradient-54);
      }

      .cls-51 {
        fill: url(#linear-gradient-55);
      }

      .cls-53 {
        fill: url(#linear-gradient-35);
      }

      .cls-54 {
        fill: url(#linear-gradient-50);
      }

      .cls-55 {
        fill: url(#linear-gradient-32);
      }

      .cls-56 {
        fill: url(#linear-gradient-60);
      }

      .cls-57 {
        fill: url(#linear-gradient-59);
      }

      .cls-58 {
        fill: url(#linear-gradient-20);
      }

      .cls-59 {
        fill: #faf3fe;
      }

      .cls-60 {
        fill: url(#linear-gradient-14);
      }

      .cls-61 {
        fill: url(#linear-gradient-2);
      }

      .cls-62 {
        fill: url(#linear-gradient-52);
      }

      .cls-64 {
        fill: url(#linear-gradient-45);
      }

      .cls-124 {
        opacity: .6;
      }

      .cls-65 {
        opacity: .6;
      }

      .cls-66 {
        fill: url(#linear-gradient-93);
      }

      .cls-67 {
        fill: url(#linear-gradient-7);
      }

      .cls-68 {
        fill: url(#linear-gradient-39);
      }

      .cls-69 {
        fill: url(#linear-gradient-3);
      }

      .cls-70 {
        fill: url(#linear-gradient-77);
      }

      .cls-71 {
        fill: url(#linear-gradient-69);
      }

      .cls-125 {
        clip-path: url(#clippath);
      }

      .cls-73 {
        fill: url(#linear-gradient-94);
      }

      .cls-74 {
        fill: url(#linear-gradient-9);
      }

      .cls-75 {
        fill: url(#linear-gradient-27);
      }

      .cls-76 {
        fill: url(#linear-gradient-100);
      }

      .cls-77 {
        fill: url(#linear-gradient-82);
      }

      .cls-78 {
        fill: url(#linear-gradient-105);
      }

      .cls-79 {
        fill: url(#linear-gradient-83);
      }

      .cls-80 {
        fill: url(#linear-gradient-53);
      }

      .cls-81 {
        fill: url(#linear-gradient-90);
      }

      .cls-82 {
        fill: url(#linear-gradient-85);
      }

      .cls-83 {
        fill: url(#linear-gradient-65);
      }

      .cls-84 {
        fill: url(#linear-gradient-36);
      }

      .cls-85 {
        fill: url(#linear-gradient-48);
      }

      .cls-86 {
        fill: url(#linear-gradient-49);
      }

      .cls-87 {
        fill: url(#linear-gradient-8);
      }

      .cls-88 {
        fill: url(#linear-gradient-47);
      }

      .cls-89 {
        fill: url(#linear-gradient-24);
      }

      .cls-90 {
        fill: url(#linear-gradient-26);
      }

      .cls-91 {
        fill: url(#linear-gradient-61);
      }

      .cls-92 {
        fill: url(#linear-gradient-18);
      }

      .cls-93 {
        fill: url(#linear-gradient-51);
      }

      .cls-94 {
        fill: url(#linear-gradient-30);
      }

      .cls-95 {
        fill: url(#linear-gradient-44);
      }

      .cls-96 {
        fill: url(#linear-gradient-84);
      }

      .cls-97 {
        fill: url(#linear-gradient-97);
      }

      .cls-98 {
        fill: url(#linear-gradient-68);
      }

      .cls-99 {
        fill: url(#linear-gradient-72);
      }

      .cls-100 {
        fill: url(#linear-gradient-29);
      }

      .cls-101 {
        fill: url(#linear-gradient-46);
      }

      .cls-102 {
        fill: url(#linear-gradient-64);
      }

      .cls-103 {
        fill: url(#linear-gradient-107);
      }

      .cls-104 {
        fill: url(#linear-gradient-28);
      }

      .cls-105 {
        fill: url(#linear-gradient-56);
      }

      .cls-106 {
        fill: url(#linear-gradient-99);
      }

      .cls-107 {
        fill: url(#linear-gradient-10);
      }

      .cls-108 {
        fill: url(#linear-gradient-87);
      }

      .cls-109 {
        fill: url(#linear-gradient-70);
      }

      .cls-110 {
        fill: url(#linear-gradient-78);
      }

      .cls-111 {
        fill: url(#linear-gradient-86);
      }

      .cls-112 {
        fill: url(#linear-gradient-74);
      }

      .cls-113 {
        fill: url(#linear-gradient-102);
      }

      .cls-114 {
        fill: url(#linear-gradient-4);
      }

      .cls-115 {
        fill: url(#linear-gradient-37);
      }

      .cls-116 {
        fill: url(#linear-gradient-80);
      }

      .cls-117 {
        fill: url(#linear-gradient-79);
      }

      .cls-118 {
        fill: url(#linear-gradient-108);
      }

      .cls-119 {
        fill: url(#linear-gradient-75);
      }
    </style>
    <linearGradient id="linear-gradient" x1="91.7" y1="344.6" x2="1085.6" y2="344.6" gradientUnits="userSpaceOnUse">
      <stop offset="0" stop-color="#b37cff"/>
      <stop offset="1" stop-color="#f895e7"/>
    </linearGradient>
    <linearGradient id="linear-gradient-2" x1="328.9" y1="438.6" x2="96.9" y2="733.6" gradientUnits="userSpaceOnUse">
      <stop offset="0" stop-color="#a737d5"/>
      <stop offset="1" stop-color="#ef497a"/>
    </linearGradient>
    <linearGradient id="linear-gradient-3" x1="4887.3" y1="688.6" x2="4657.3" y2="-133.4" gradientTransform="translate(5813.8) rotate(-180) scale(1 -1)" gradientUnits="userSpaceOnUse">
      <stop offset="0" stop-color="#53d8ff"/>
      <stop offset="1" stop-color="#3840f7"/>
    </linearGradient>
    <linearGradient id="linear-gradient-4" x1="894.7" y1="628.9" x2="1036.7" y2="347.9" gradientUnits="userSpaceOnUse">
      <stop offset="0" stop-color="#233894"/>
      <stop offset="1" stop-color="#dd397a"/>
    </linearGradient>
    <linearGradient id="linear-gradient-5" x1="889.3" y1="652.2" x2="1129.3" y2="415.2" xlink:href="#linear-gradient-2"/>
    <linearGradient id="linear-gradient-6" x1="416.3" y1="663.1" x2="526.3" y2="286.1" xlink:href="#linear-gradient-4"/>
    <linearGradient id="linear-gradient-7" x1="4500.3" y1="610.1" x2="4383.3" y2="203.1" gradientTransform="translate(5295.3) rotate(-180) scale(1 -1)" xlink:href="#linear-gradient-4"/>
    <linearGradient id="linear-gradient-8" x1="268" y1="595.3" x2="137" y2="273.1" gradientTransform="matrix(1,0,0,1,0,0)" xlink:href="#linear-gradient-3"/>
    <linearGradient id="linear-gradient-9" x1="0" y1="460" x2="303" y2="460" xlink:href="#linear-gradient-2"/>
    <linearGradient id="linear-gradient-10" x1="595.3" y1="701.3" x2="585.8" y2="512.8" gradientUnits="userSpaceOnUse">
      <stop offset="0" stop-color="#2b3582"/>
      <stop offset="1" stop-color="#150e42"/>
    </linearGradient>
    <linearGradient id="linear-gradient-11" x1="207.6" y1="311.4" x2="939.8" y2="311.4" xlink:href="#linear-gradient-10"/>
    <linearGradient id="linear-gradient-12" x1="347.8" y1="54.9" x2="918.7" y2="675.3" xlink:href="#linear-gradient-2"/>
    <linearGradient id="linear-gradient-13" x1="595.9" y1="630.2" x2="508.3" y2="822.4" xlink:href="#linear-gradient-10"/>
    <linearGradient id="linear-gradient-14" x1="468.2" y1="-96.7" x2="188.1" y2="632.8" gradientUnits="userSpaceOnUse">
      <stop offset="0" stop-color="#fdf53f"/>
      <stop offset="1" stop-color="#d93c65"/>
    </linearGradient>
    <linearGradient id="linear-gradient-15" x1="-2857.2" y1="-176.9" x2="-3384.4" y2="614" gradientTransform="translate(-2359.9) rotate(-180) scale(1 -1)" xlink:href="#linear-gradient-14"/>
    <linearGradient id="linear-gradient-16" x1="672.4" y1="228.4" x2="749.4" y2="511.6" xlink:href="#linear-gradient-14"/>
    <linearGradient id="linear-gradient-17" x1="627.4" y1="224" x2="508.1" y2="337.2" xlink:href="#linear-gradient-14"/>
    <linearGradient id="linear-gradient-18" x1="704.4" y1="230.9" x2="598.5" y2="331.4" xlink:href="#linear-gradient-14"/>
    <linearGradient id="linear-gradient-19" x1="790.2" y1="231.1" x2="684.3" y2="331.6" xlink:href="#linear-gradient-14"/>
    <clipPath id="clippath">
      <path class="cls-32" d="M880.7,462.1c0,6.3-4.5,20-10.7,20l-624.6-8.7c-6.3,0-11.4-5.1-11.4-11.4l-5.1-223.4c.6-20.4,18.5-27.8,29.4-27.3l609.4-16.3c5.9-.2,11.6,2.1,15.7,6.3s6.4,9.9,6.2,15.7l-8.8,245Z"/>
    </clipPath>
    <linearGradient id="linear-gradient-20" x1="468.2" y1="232.4" x2="188.1" y2="961.9" xlink:href="#linear-gradient-14"/>
    <linearGradient id="linear-gradient-21" x1="-2857.2" y1="171.4" x2="-3384.4" y2="962.2" gradientTransform="translate(-2359.9) rotate(-180) scale(1 -1)" xlink:href="#linear-gradient-14"/>
    <linearGradient id="linear-gradient-22" x1="245.3" y1="76.8" x2="403.5" y2="76.8" gradientTransform="matrix(1,0,0,1,0,0)" xlink:href="#linear-gradient-3"/>
    <linearGradient id="linear-gradient-23" x1="270.6" y1="75.6" x2="292.1" y2="75.6" gradientTransform="matrix(1,0,0,1,0,0)" xlink:href="#linear-gradient-3"/>
    <linearGradient id="linear-gradient-24" x1="257.9" y1="374" x2="383.6" y2="374" gradientTransform="matrix(1,0,0,1,0,0)" xlink:href="#linear-gradient-3"/>
    <linearGradient id="linear-gradient-25" x1="278" y1="373.1" x2="295.1" y2="373.1" gradientTransform="matrix(1,0,0,1,0,0)" xlink:href="#linear-gradient-3"/>
    <linearGradient id="linear-gradient-26" x1="300.1" y1="320.8" x2="217.6" y2="410.5" xlink:href="#linear-gradient-10"/>
    <linearGradient id="linear-gradient-27" x1="273.3" y1="327.4" x2="280.7" y2="327.4" gradientUnits="userSpaceOnUse">
      <stop offset="0" stop-color="#f9b776"/>
      <stop offset="1" stop-color="#f47960"/>
    </linearGradient>
    <linearGradient id="linear-gradient-28" x1="240.9" y1="305" x2="359.3" y2="158.6" gradientTransform="matrix(1,0,0,1,0,0)" xlink:href="#linear-gradient-3"/>
    <linearGradient id="linear-gradient-29" x1="281.6" y1="303.7" x2="199.1" y2="393.5" xlink:href="#linear-gradient-10"/>
    <linearGradient id="linear-gradient-30" x1="246.9" y1="327" x2="253.3" y2="327" xlink:href="#linear-gradient-27"/>
    <linearGradient id="linear-gradient-31" x1="229.3" y1="295.6" x2="347.7" y2="149.2" gradientTransform="matrix(1,0,0,1,0,0)" xlink:href="#linear-gradient-3"/>
    <linearGradient id="linear-gradient-32" x1="230.3" y1="204.6" x2="345.7" y2="121.5" gradientUnits="userSpaceOnUse">
      <stop offset="0" stop-color="#fdf53f"/>
      <stop offset=".7" stop-color="#e57a58"/>
      <stop offset="1" stop-color="#d93c65"/>
    </linearGradient>
    <linearGradient id="linear-gradient-33" x1="303.5" y1="136.1" x2="341" y2="136.1" xlink:href="#linear-gradient-27"/>
    <linearGradient id="linear-gradient-34" x1="7515.8" y1="129.8" x2="7540.9" y2="187" gradientTransform="translate(7848.4) rotate(-180) scale(1 -1)" xlink:href="#linear-gradient-27"/>
    <linearGradient id="linear-gradient-35" x1="340.8" y1="110.8" x2="351.3" y2="94.7" xlink:href="#linear-gradient-27"/>
    <linearGradient id="linear-gradient-36" x1="215.1" y1="183.4" x2="330.5" y2="100.4" xlink:href="#linear-gradient-32"/>
    <linearGradient id="linear-gradient-37" x1="221.6" y1="189.2" x2="269" y2="189.2" xlink:href="#linear-gradient-27"/>
    <linearGradient id="linear-gradient-38" x1="330.7" y1="177.2" x2="276.1" y2="181.7" gradientUnits="userSpaceOnUse">
      <stop offset="0" stop-color="#7a2ddb"/>
      <stop offset="1" stop-color="#7077ff"/>
    </linearGradient>
    <linearGradient id="linear-gradient-39" x1="299.6" y1="138.4" x2="294.1" y2="162.7" gradientTransform="matrix(1,0,0,1,0,0)" xlink:href="#linear-gradient-3"/>
    <linearGradient id="linear-gradient-40" x1="296.7" y1="148.6" x2="294.1" y2="164.5" gradientTransform="matrix(1,0,0,1,0,0)" xlink:href="#linear-gradient-3"/>
    <linearGradient id="linear-gradient-41" x1="265.4" y1="184.2" x2="280.2" y2="184.2" xlink:href="#linear-gradient-27"/>
    <linearGradient id="linear-gradient-42" x1="258" y1="138.5" x2="276.7" y2="138.5" xlink:href="#linear-gradient-27"/>
    <linearGradient id="linear-gradient-43" x1="-5593.1" y1="-2059.9" x2="-5600.1" y2="-2083" gradientTransform="translate(5825.3 -2061.2) rotate(-41.8)" xlink:href="#linear-gradient-27"/>
    <linearGradient id="linear-gradient-44" x1="-5599.4" y1="-2100.2" x2="-5593.6" y2="-2066.8" gradientTransform="translate(5825.3 -2061.2) rotate(-41.8)" xlink:href="#linear-gradient-10"/>
    <linearGradient id="linear-gradient-45" x1="-5600.3" y1="-2060" x2="-5606.6" y2="-2080.8" gradientTransform="translate(5825.3 -2061.2) rotate(-41.8)" xlink:href="#linear-gradient-27"/>
    <linearGradient id="linear-gradient-46" x1="506.8" y1="71.1" x2="618.2" y2="71.1" xlink:href="#linear-gradient-10"/>
    <linearGradient id="linear-gradient-47" x1="524.6" y1="70.3" x2="539.7" y2="70.3" gradientTransform="matrix(1,0,0,1,0,0)" xlink:href="#linear-gradient-3"/>
    <linearGradient id="linear-gradient-48" x1="1213.8" y1="512.9" x2="1269.9" y2="512.9" gradientTransform="translate(2202.1) rotate(-180) scale(1 -1)" gradientUnits="userSpaceOnUse">
      <stop offset="0" stop-color="#9cfffb"/>
      <stop offset="1" stop-color="#9bfffa"/>
    </linearGradient>
    <linearGradient id="linear-gradient-49" x1="1095.7" y1="514.6" x2="1160.8" y2="514.6" xlink:href="#linear-gradient-48"/>
    <linearGradient id="linear-gradient-50" x1="1140.6" y1="443.9" x2="1232" y2="443.9" xlink:href="#linear-gradient-48"/>
    <linearGradient id="linear-gradient-51" x1="1142.3" y1="443.9" x2="1230.3" y2="443.9" xlink:href="#linear-gradient-48"/>
    <linearGradient id="linear-gradient-52" x1="1140.6" y1="491.5" x2="1232" y2="491.5" xlink:href="#linear-gradient-48"/>
    <linearGradient id="linear-gradient-53" x1="1130.3" y1="491.5" x2="1239.7" y2="491.5" xlink:href="#linear-gradient-48"/>
    <linearGradient id="linear-gradient-54" x1="1140.6" y1="539.1" x2="1232" y2="539.1" xlink:href="#linear-gradient-48"/>
    <linearGradient id="linear-gradient-55" x1="1119.8" y1="539.1" x2="1249.5" y2="539.1" xlink:href="#linear-gradient-48"/>
    <linearGradient id="linear-gradient-56" x1="1109.9" y1="586.7" x2="1232" y2="586.7" xlink:href="#linear-gradient-48"/>
    <linearGradient id="linear-gradient-57" x1="1109.9" y1="586.7" x2="1257.5" y2="586.7" xlink:href="#linear-gradient-48"/>
    <linearGradient id="linear-gradient-58" x1="5149.7" y1="436.3" x2="5168.4" y2="436.3" gradientTransform="translate(6202.1) rotate(-180) scale(1 -1)" xlink:href="#linear-gradient-10"/>
    <linearGradient id="linear-gradient-59" x1="5151.6" y1="427.7" x2="5159.2" y2="427.7" gradientTransform="translate(6202.1) rotate(-180) scale(1 -1)" xlink:href="#linear-gradient-27"/>
    <linearGradient id="linear-gradient-60" x1="5189.4" y1="436" x2="5218.7" y2="436" gradientTransform="translate(6202.1) rotate(-180) scale(1 -1)" xlink:href="#linear-gradient-10"/>
    <linearGradient id="linear-gradient-61" x1="5189.9" y1="424.3" x2="5197.4" y2="424.3" gradientTransform="translate(6202.1) rotate(-180) scale(1 -1)" xlink:href="#linear-gradient-27"/>
    <linearGradient id="linear-gradient-62" x1="5146.9" y1="357.5" x2="5198.2" y2="357.5" gradientTransform="translate(6202.1) rotate(-180) scale(1 -1)" xlink:href="#linear-gradient-10"/>
    <linearGradient id="linear-gradient-63" x1="975.2" y1="211.9" x2="1005.7" y2="260.3" xlink:href="#linear-gradient-14"/>
    <linearGradient id="linear-gradient-64" x1="5240.2" y1="203.8" x2="5268.2" y2="203.8" gradientTransform="translate(6202.1) rotate(-180) scale(1 -1)" xlink:href="#linear-gradient-27"/>
    <linearGradient id="linear-gradient-65" x1="986.7" y1="249.1" x2="1126.9" y2="357.2" xlink:href="#linear-gradient-14"/>
    <linearGradient id="linear-gradient-66" x1="5303.6" y1="209.9" x2="5243.1" y2="285.2" gradientTransform="translate(6202.1) rotate(-180) scale(1 -1)" xlink:href="#linear-gradient-27"/>
    <linearGradient id="linear-gradient-67" x1="5315.1" y1="219.2" x2="5254.6" y2="294.4" gradientTransform="translate(6202.1) rotate(-180) scale(1 -1)" xlink:href="#linear-gradient-27"/>
    <linearGradient id="linear-gradient-68" x1="5235.6" y1="164.5" x2="5177" y2="272.1" gradientTransform="translate(6202.1) rotate(-180) scale(1 -1)" xlink:href="#linear-gradient-27"/>
    <linearGradient id="linear-gradient-69" x1="3856" y1="5959.5" x2="3830.1" y2="5993.7" gradientTransform="translate(7572.1 -2460.8) rotate(-144.8) scale(1 -1)" xlink:href="#linear-gradient-27"/>
    <linearGradient id="linear-gradient-70" x1="979.4" y1="181.7" x2="1010.8" y2="240.1" xlink:href="#linear-gradient-10"/>
    <linearGradient id="linear-gradient-71" x1="3818.1" y1="5986.6" x2="3838.8" y2="5965.3" gradientTransform="translate(7572.1 -2460.8) rotate(-144.8) scale(1 -1)" xlink:href="#linear-gradient-27"/>
    <linearGradient id="linear-gradient-72" x1="4133.3" y1="204.9" x2="4345" y2="204.9" gradientTransform="translate(5068.6) rotate(-180) scale(1 -1)" xlink:href="#linear-gradient-3"/>
    <linearGradient id="linear-gradient-73" x1="809.7" y1="203.3" x2="838.5" y2="203.3" gradientTransform="translate(63)" xlink:href="#linear-gradient-3"/>
    <linearGradient id="linear-gradient-74" x1="394.1" y1="416" x2="-20.7" y2="888.3" xlink:href="#linear-gradient-10"/>
    <linearGradient id="linear-gradient-75" x1="346.6" y1="381.5" x2="-68.1" y2="853.8" xlink:href="#linear-gradient-10"/>
    <linearGradient id="linear-gradient-76" x1="48.4" y1="501.4" x2="200.8" y2="501.4" gradientUnits="userSpaceOnUse">
      <stop offset="0" stop-color="#9cfffb"/>
      <stop offset="1" stop-color="#9bfffa"/>
    </linearGradient>
    <linearGradient id="linear-gradient-77" x1="139" x2="291.4" xlink:href="#linear-gradient-76"/>
    <linearGradient id="linear-gradient-78" x1="186" y1="346.4" x2="328.5" y2="346.4" xlink:href="#linear-gradient-76"/>
    <linearGradient id="linear-gradient-79" x1="172.7" y1="394.3" x2="269.3" y2="394.3" xlink:href="#linear-gradient-76"/>
    <linearGradient id="linear-gradient-80" x1="147.7" y1="452.7" x2="238.5" y2="452.7" xlink:href="#linear-gradient-76"/>
    <linearGradient id="linear-gradient-81" x1="120.7" y1="511" x2="211.5" y2="511" xlink:href="#linear-gradient-76"/>
    <linearGradient id="linear-gradient-82" x1="89.5" y1="569.3" x2="186.1" y2="569.3" xlink:href="#linear-gradient-76"/>
    <linearGradient id="linear-gradient-83" x1="62.1" y1="627.6" x2="158.7" y2="627.6" xlink:href="#linear-gradient-76"/>
    <linearGradient id="linear-gradient-84" x1="1884.2" y1="3325.8" x2="2031.5" y2="3325.8" gradientTransform="translate(3530.3 -1665) rotate(85.1)" xlink:href="#linear-gradient-3"/>
    <linearGradient id="linear-gradient-85" x1="1856.1" y1="3151.4" x2="1874.7" y2="3289.5" gradientTransform="translate(3530.3 -1665) rotate(85.1)" xlink:href="#linear-gradient-3"/>
    <linearGradient id="linear-gradient-86" x1="4112.3" y1="-1007.1" x2="4196.6" y2="-1007.1" gradientTransform="translate(1276 4339) rotate(-80.3)" xlink:href="#linear-gradient-3"/>
    <linearGradient id="linear-gradient-87" x1="4096.2" y1="-1107" x2="4106.9" y2="-1027.9" gradientTransform="translate(1276 4339) rotate(-80.3)" xlink:href="#linear-gradient-3"/>
    <linearGradient id="linear-gradient-88" x1="598.3" y1="353.5" x2="753.8" y2="353.5" xlink:href="#linear-gradient-10"/>
    <linearGradient id="linear-gradient-89" x1="722.3" y1="295.3" x2="717.8" y2="351.1" xlink:href="#linear-gradient-14"/>
    <linearGradient id="linear-gradient-90" x1="5412.7" y1="650" x2="5445" y2="650" gradientTransform="translate(6202.1) rotate(-180) scale(1 -1)" xlink:href="#linear-gradient-10"/>
    <linearGradient id="linear-gradient-91" x1="5412.7" y1="655.8" x2="5445" y2="655.8" gradientTransform="translate(6202.1) rotate(-180) scale(1 -1)" xlink:href="#linear-gradient-3"/>
    <linearGradient id="linear-gradient-92" x1="5355.9" y1="650" x2="5371" y2="650" gradientTransform="translate(6202.1) rotate(-180) scale(1 -1)" xlink:href="#linear-gradient-10"/>
    <linearGradient id="linear-gradient-93" x1="5355.9" y1="656.9" x2="5370.6" y2="656.9" gradientTransform="translate(6202.1) rotate(-180) scale(1 -1)" xlink:href="#linear-gradient-3"/>
    <linearGradient id="linear-gradient-94" x1="5362.3" y1="639.6" x2="5372.1" y2="639.6" gradientTransform="translate(6202.1) rotate(-180) scale(1 -1)" xlink:href="#linear-gradient-27"/>
    <linearGradient id="linear-gradient-95" x1="5414.3" y1="639" x2="5422.5" y2="639" gradientTransform="translate(6202.1) rotate(-180) scale(1 -1)" xlink:href="#linear-gradient-27"/>
    <linearGradient id="linear-gradient-96" x1="5473.7" y1="512.7" x2="5315.5" y2="675.9" gradientTransform="translate(6202.1) rotate(-180) scale(1 -1)" gradientUnits="userSpaceOnUse">
      <stop offset="0" stop-color="#cb236d"/>
      <stop offset="1" stop-color="#4c246d"/>
    </linearGradient>
    <linearGradient id="linear-gradient-97" x1="5434.7" y1="513.1" x2="5401.1" y2="556.4" xlink:href="#linear-gradient-96"/>
    <linearGradient id="linear-gradient-98" x1="5459.8" y1="425.7" x2="5290.4" y2="684.3" gradientTransform="translate(6202.1) rotate(-180) scale(1 -1)" xlink:href="#linear-gradient-3"/>
    <linearGradient id="linear-gradient-99" x1="1528.8" y1="378.4" x2="1488" y2="442.5" gradientTransform="translate(2202.1) rotate(-180) scale(1 -1)" gradientUnits="userSpaceOnUse">
      <stop offset="0" stop-color="#c4421b"/>
      <stop offset="1" stop-color="#5c0e16"/>
    </linearGradient>
    <linearGradient id="linear-gradient-100" x1="1439.1" y1="433.8" x2="1443" y2="410.2" xlink:href="#linear-gradient-99"/>
    <linearGradient id="linear-gradient-101" x1="1451.8" y1="395.1" x2="1425.7" y2="415.1" xlink:href="#linear-gradient-99"/>
    <linearGradient id="linear-gradient-102" x1="5433.4" y1="379.3" x2="5457.1" y2="409.7" gradientTransform="translate(6202.1) rotate(-180) scale(1 -1)" xlink:href="#linear-gradient-10"/>
    <linearGradient id="linear-gradient-103" x1="1448.5" y1="390.9" x2="1422.4" y2="410.8" xlink:href="#linear-gradient-99"/>
    <linearGradient id="linear-gradient-104" x1="1517" y1="370.8" x2="1476.2" y2="435" xlink:href="#linear-gradient-99"/>
    <linearGradient id="linear-gradient-105" x1="-1027.8" y1="488.5" x2="-835.2" y2="488.5" gradientTransform="translate(1720.9)" xlink:href="#linear-gradient-3"/>
    <linearGradient id="linear-gradient-106" x1="719.1" y1="487" x2="745.3" y2="487" gradientTransform="translate(4.7)" xlink:href="#linear-gradient-3"/>
    <linearGradient id="linear-gradient-107" x1="5432" y1="407.5" x2="5262.6" y2="666.1" gradientTransform="translate(6202.1) rotate(-180) scale(1 -1)" xlink:href="#linear-gradient-3"/>
    <linearGradient id="linear-gradient-108" x1="1377.1" y1="501.3" x2="1400.7" y2="501.3" xlink:href="#linear-gradient-99"/>
  </defs>
  <path class="cls-18" d="M1057.5,376.2c-17.2-17.8-37.6-35.3-42.9-59.5-9.2-41.9,30.1-77.7,43-118.7,8.9-28.3,4.3-60.6-12.1-85.3-16.5-24.7-44.4-41.4-74-44.1-50.9-4.7-100.6,29.6-150.7,19.7-40.1-7.9-71.8-43-112.5-46.8-47.9-4.4-87.7,35.1-133.4,50-54.7,17.8-114.1-.8-167.9-21.2-53.8-20.4-110.4-43.2-167.2-33.4-63.1,10.9-116.1,65.9-124.5,129.4-8.4,62.9,61.8,113.5,2.1,189.1-18.7,23.6-31.1,56.5-22.8,85.5,8,28.1,42.2,45.9,42.4,75.2.2,23.1-21.6,41.5-23.3,64.5-1.5,19.8,12.7,38,30.2,47.4,17.5,9.4,37.7,11.7,57.5,13.8l-5.8,6.2c99.3,8.9,199.2,6.9,298.8,4.9,157.2-3.1,314.3-6.3,471.5-9.4,16.2-.3,32.7-.7,47.7-6.6,15-5.9,28.5-18.4,30.8-34.4,3.9-27.2-24.5-50.8-21.9-78.2,3.4-34.9,52.6-48.4,61.9-82.3,6.6-23.9-9.4-48-26.6-65.8Z"/>
  <g class="cls-123">
    <path class="cls-61" d="M333.3,650.1c-1.7,4.8-7.7,6.4-11.5,3-21.1-18.5-76-76.3-72.3-173.1,3.1-81.8-2.9-126.4-7.1-146.5-.9-4.2,4.2-7.1,7.4-4.3,35.6,31.9,143.4,146.5,83.5,320.9Z"/>
    <path class="cls-24" d="M325.3,650.7c-.8,0-1.5-.5-1.8-1.2-.5-1.1-49.5-115.4-50.3-229.3,0-1.1.9-2,2-2h0c1.1,0,2,.9,2,2,.8,113.1,49.5,226.6,50,227.8.4,1,0,2.2-1,2.6-.3.1-.5.2-.8.2Z"/>
  </g>
  <g class="cls-122">
    <path class="cls-69" d="M1065.6,143.7c6.9,55.4,41.3,396.9-140.3,505.9-5.5,3.3-12.6-.4-13-6.8-2.9-40.7-4.8-170,69.9-322.7,53.9-110.1,73.7-159.8,79.9-176.8.7-1.8,3.3-1.5,3.5.4Z"/>
    <path class="cls-24" d="M912.3,644.7c-.3,0-.7,0-1-.2-1-.5-1.3-1.7-.8-2.7,91.8-168.8,130.5-370.7,130.3-378.3-.2-1,.4-2,1.4-2.3,1.1-.3,2.2.3,2.5,1.3,1,3.1-9.5,58.1-30.1,129-19.2,66-52.2,163.4-100.5,252.2-.4.7-1,1-1.8,1ZM1040.9,263.7s0,0,0,0c0,0,0,0,0,0Z"/>
  </g>
  <g class="cls-122">
    <path class="cls-114" d="M834.2,641c17.8-31,90.8-152.7,169-209.6,5.6-4.1,13.4-.3,13.7,6.6,1.7,43.6-8.8,169.3-178.6,208.5-3.2.7-5.7-2.7-4.1-5.5Z"/>
    <path class="cls-2" d="M839.4,643.5c-.6,0-1.2-.3-1.6-.8-.7-.9-.5-2.1.4-2.8,113.2-84.4,146.3-166.2,146.6-167,.4-1,1.6-1.5,2.6-1.1,1,.4,1.5,1.6,1.1,2.6-.3.8-8.4,21.1-30.8,52.2-20.6,28.6-57.6,72.1-117.2,116.5-.4.3-.8.4-1.2.4Z"/>
  </g>
  <g class="cls-122">
    <path class="cls-31" d="M838.7,653.4c-4.4-.3-7-5-5-8.9,10.8-21.6,46.7-79.8,127.9-98,68.6-15.3,104.3-30.2,120.1-38,3.3-1.7,6.8,1.9,5.2,5.2-18.7,36.6-90.2,151.2-248.1,139.7Z"/>
    <path class="cls-24" d="M838.2,648.5c-.6,0-1.2-.3-1.6-.8-.7-.9-.5-2.1.3-2.8.8-.7,85-66.5,179.5-92.1,1.1-.3,2.2.3,2.5,1.4.3,1.1-.3,2.2-1.4,2.5-93.7,25.4-177.2,90.7-178,91.4-.4.3-.8.4-1.2.4Z"/>
  </g>
  <g class="cls-123">
    <path class="cls-14" d="M414.6,656.6c33.3-16.2,121.8-77,46.8-243.3-2.1-4.7-9.1-3.6-9.6,1.6-2.3,24.2-7.1,66-21.2,88.3-43.5,69-37.5,123.1-31.7,146.2,1.7,6.8,9.3,10.3,15.6,7.3Z"/>
    <path class="cls-2" d="M407.9,655.5c-.4,0-.8-.1-1.2-.4-.9-.7-1.1-1.9-.4-2.8,33.2-44.1,46.6-91.1,52-122.8,5.9-34.4,3.8-58.7,3.8-58.9,0-1.1.7-2.1,1.8-2.2,1.1,0,2.1.7,2.2,1.8,0,.2,2.1,24.9-3.8,59.8-5.5,32.2-19.1,79.9-52.8,124.7-.4.5-1,.8-1.6.8Z"/>
  </g>
  <g class="cls-122">
    <path class="cls-67" d="M724.1,652c19.7-51.4,104.3-271.6,138.9-347.5,3.6-8,15.1-7.6,18.2.6,22.6,59.2,67.4,236.9-150.9,352.4-3.6,1.9-7.7-1.7-6.2-5.5Z"/>
    <path class="cls-2" d="M731.9,653.3c-.5,0-1-.2-1.4-.6-.8-.8-.8-2.1,0-2.8,29.9-29.1,55.8-64.3,77-104.7,17-32.3,31-67.9,41.7-105.8,18.2-64.6,20.5-114.2,20.5-114.7,0-1.1.9-1.9,2-1.9s0,0,0,0c1.1,0,2,1,1.9,2.1,0,.5-2.3,50.5-20.6,115.6-10.8,38.2-24.9,74.1-42,106.6-21.4,40.7-47.6,76.2-77.8,105.7-.4.4-.9.6-1.4.6Z"/>
  </g>
  <g class="cls-124">
    <path class="cls-87" d="M306.8,654.9s-103-67.8-106.5-215.8c-3.4-143.9,24.3-340.7-125.3-420.7-5-2.7-10.9,1.9-9.4,7.4,8.7,32.7,28,117.4,21.8,204.3-7.9,110.9,28.7,381.3,219.5,424.7Z"/>
    <path class="cls-16" d="M102.7,73.2l.6.5.4.4c.3.3.6.6.8.8.6.6,1.1,1.1,1.6,1.7,1,1.1,2,2.2,3,3.4,1,1.1,1.9,2.3,2.9,3.5.9,1.2,1.8,2.4,2.7,3.6,3.5,4.8,6.8,9.9,9.8,15,6,10.3,10.9,21.3,14.8,32.5,3.9,11.2,6.9,22.8,9,34.5,2.1,11.7,3.2,23.5,3.6,35.4.3,11.8-.1,23.7-1.2,35.5l-.9,8.8-1.2,8.8c-.4,3-.8,5.8-1.3,8.6-.4,2.9-.9,5.7-1.2,8.6-3,23-4.3,46.3-4.2,69.5v8.7c0,0,.4,8.7.4,8.7,0,2.9.2,5.8.4,8.7.2,2.9.3,5.8.5,8.7.8,11.6,2,23.2,3.5,34.7,1.5,11.5,3.5,23,5.8,34.4,2.4,11.4,5.1,22.7,8.2,33.9,3.2,11.2,6.8,22.3,10.9,33.2,4.1,10.9,8.7,21.6,13.9,32.1,5.1,10.5,10.9,20.6,17.2,30.4,6.4,9.8,13.3,19.2,21,28-7.9-8.6-15.1-17.9-21.7-27.5-6.6-9.6-12.7-19.7-18.1-30.1-5.4-10.4-10.4-21-14.7-31.9-4.3-10.9-8.2-22-11.7-33.2-3.4-11.2-6.4-22.6-9-34-2.5-11.5-4.7-23-6.5-34.6-1.7-11.6-3.1-23.3-4.1-35-.3-2.9-.4-5.9-.7-8.8-.2-2.9-.4-5.9-.5-8.8l-.4-8.8-.2-8.8c-.5-23.5.5-47,3.2-70.4.3-2.9.7-5.8,1.1-8.8l1.2-8.7,1.1-8.6.8-8.6c1-11.5,1.3-23.1.9-34.6-.9-23-4.8-45.9-12.3-67.6-1.9-5.4-4-10.8-6.4-16-2.4-5.2-4.9-10.4-7.7-15.3-2.8-5-5.9-9.8-9.2-14.5-1.7-2.3-3.4-4.6-5.2-6.8-.9-1.1-1.8-2.2-2.7-3.2-.5-.5-.9-1-1.4-1.5-.2-.3-.5-.5-.7-.7l-.3-.3-.3-.2-.2-.2c-1.4-1.3-1.5-3.5-.1-4.9,1.3-1.4,3.4-1.4,4.8-.2Z"/>
  </g>
  <g class="cls-124">
    <g class="cls-120">
      <path class="cls-74" d="M.6,270.7c-1.9-2.9,1-6.5,4.3-5.3,32.9,12.5,117.5,55.6,151.5,178,42.7,153.6,95.2,194.4,146.6,211.2,0,0-58.4,6.2-113.6-34.4C54,520.6,35,321.8.6,270.7Z"/>
      <path class="cls-16" d="M38.9,307.6c5.6,5,10.6,10.6,15.3,16.3l1.8,2.2,1.7,2.2,3.4,4.4c2.2,3,4.4,6,6.5,9.1,8.5,12.3,16,25.2,22.9,38.3,7.1,13.1,13,26.8,18.8,40.5l4.1,10.4,2,5.2,1,2.6.9,2.6,7.4,21c9.5,27.8,21.8,54.6,36.5,80,7.3,12.8,15.1,25.2,23.6,37.2,2.1,3,4.3,6,6.4,9,2.2,3,4.4,5.9,6.6,8.8,2.3,2.9,4.5,5.8,6.8,8.6,2.3,2.9,4.7,5.7,7,8.4h0c1.3,1.5,1.1,3.7-.3,5-1.4,1.2-3.6,1.1-4.8-.3-5.2-5.6-9.9-11.3-14.5-17.2-2.3-3-4.6-5.9-6.8-8.9-2.2-3-4.4-6-6.6-9.1-8.6-12.2-16.6-24.8-24-37.8-3.8-6.4-7.2-13.1-10.7-19.7-1.7-3.3-3.3-6.7-4.9-10.1l-2.4-5c-.8-1.7-1.5-3.4-2.3-5.1l-4.5-10.3c-1.5-3.4-2.8-6.9-4.1-10.4l-2-5.2c-.3-.9-.7-1.7-1-2.6l-.9-2.6-3.6-10.6c-1.2-3.5-2.4-7-3.5-10.5l-3.5-10.5-.9-2.6-1-2.6-1.9-5.2-3.8-10.4-4.2-10.2c-1.4-3.4-2.7-6.8-4.3-10.2l-4.5-10.1c-.7-1.7-1.5-3.3-2.3-5l-2.4-5c-6.5-13.2-13.5-26.2-21.5-38.6-2-3.1-4-6.2-6.1-9.2l-3.2-4.5-1.6-2.2-1.7-2.2c-1.1-1.5-2.2-2.9-3.4-4.4l-3.5-4.3c-2.4-2.8-4.8-5.6-7.4-8.1h0c-.4-.4-.4-1,0-1.3.3-.4.9-.4,1.3,0Z"/>
    </g>
  </g>
  <g>
    <polygon class="cls-107" points="515.7 487.3 499.9 629.1 683.3 629.1 659.5 487.3 515.7 487.3"/>
    <path class="cls-25" d="M207.6,138v324.7c0,26.7,21.3,48.6,48,49.2,118.6,3.1,533.4,10.5,646.3,8.8,19.4-.3,35.1-15.8,35.7-35.2,2.2-75.4,5.7-256.8-7.4-341.1-2.8-17.7-17.7-31-35.7-31.6-99.4-3.2-539.1-13.3-652-10.7-19.5.4-35,16.3-35,35.8Z"/>
    <path class="cls-3" d="M228,136.4v308.5c0,15.6,12.5,28.3,28.1,28.5l629.6,7.8c15.5.2,28.1-12.2,28.2-27.7l1.1-305.7c0-11.1-8.8-20.1-19.8-20.4l-644.6-13c-12.4-.3-22.5,9.6-22.5,22Z"/>
    <path class="cls-72" d="M918.6,494h0l-690.6-11.8c-.6,0-1-.5-1-1,0-.6.4-1,1-1l690.6,11.8c.6,0,1,.5,1,1,0,.5-.5,1-1,1Z"/>
    <path class="cls-72" d="M580.1,508.4c-4.5,0-8.2-3.7-8.2-8.2s3.7-8.2,8.2-8.2,8.2,3.7,8.2,8.2-3.7,8.2-8.2,8.2ZM580.1,494c-3.4,0-6.2,2.8-6.2,6.2s2.8,6.2,6.2,6.2,6.2-2.8,6.2-6.2-2.8-6.2-6.2-6.2Z"/>
    <path class="cls-44" d="M722.8,658.1h-268.4c-7.3,0-12.8-5.2-11.4-10.8l3.4-13.6c1-4.1,5.5-7.1,10.9-7.3l258.8-8.1c5.6-.2,10.5,2.8,11.8,7.1l6.2,21.7c1.6,5.6-3.9,11-11.3,11Z"/>
    <path class="cls-52" d="M598.9,630.3c-.5,0-1-.4-1-1,0-.6.4-1,1-1l11.1-.2c.5,0,1,.4,1,1,0,.6-.4,1-1,1l-11.1.2h0Z"/>
    <path class="cls-52" d="M453,650.7c0,0-.1,0-.2,0-.5,0-.9-.6-.8-1.1l1.6-9.9c.9-5.4,5.4-9.4,10.9-9.4l117.6-1.7c.6,0,1,.4,1,1,0,.6-.4,1-1,1l-117.6,1.7c-4.5,0-8.2,3.3-8.9,7.7l-1.6,9.9c0,.5-.5.8-1,.8Z"/>
  </g>
  <g>
    <path class="cls-60" d="M281.7,299.4h185.3c5.9,0,10.7-4.8,10.7-10.7V11.2c0-5.9-4.8-10.7-10.7-10.7L280.3,0c-5.9,0-10.8,4.8-10.7,10.8l1.5,278c0,5.9,4.8,10.6,10.7,10.6Z"/>
    <path class="cls-63" d="M290.8,13.7l165.7,1c6,0,10.8,4.9,10.8,10.9l-1.2,249.1c0,5.9-4.8,10.7-10.7,10.8l-161,2.9c-6,.1-11-4.7-11.1-10.7l-3.5-253c0-6.1,4.8-11,10.9-11Z"/>
    <rect class="cls-63" x="297.6" y="24.4" width="134.1" height="7.6" rx="3.2" ry="3.2"/>
    <path class="cls-63" d="M311.8,42h0c0,1.7,1.5,3,3.2,3.1l111.6,2c1.8,0,3.3-1.4,3.3-3.2v-.3c0-1.8-1.4-3.2-3.2-3.2l-111.6-1.8c-1.9,0-3.4,1.5-3.3,3.4Z"/>
    <path class="cls-65" d="M300.4,280.4c-5.3,0-9.6-4.3-9.7-9.5l-3.6-203.7h0c0-5.3,4.2-9.8,9.5-9.9l150.7-2.9c2.6,0,5.1.9,6.9,2.7,1.9,1.8,2.9,4.2,3,6.8l3.9,204.8c0,2.6-.9,5.1-2.7,6.9-1.8,1.9-4.2,2.9-6.9,3l-151,1.8s0,0-.1,0ZM447.5,58.3s0,0-.1,0l-150.7,2.9c-3.1,0-5.7,2.7-5.6,5.8h0s3.6,203.7,3.6,203.7c0,3.1,2.6,5.6,5.7,5.6s0,0,0,0l151-1.8c1.5,0,3-.6,4-1.7,1.1-1.1,1.6-2.6,1.6-4.1l-3.9-204.8c0-1.5-.7-3-1.8-4-1.1-1-2.5-1.6-4-1.6Z"/>
    <path class="cls-65" d="M455.5,78.8h-164.4c-1.1,0-2-.9-2-2s.9-2,2-2h164.4c1.1,0,2,.9,2,2s-.9,2-2,2Z"/>
  </g>
  <g>
    <path class="cls-23" d="M852.7,34.6l-330.5-1.6c-4,0-7.2,4.4-7.2,9.8l.7,130.8c0,5.5,3.4,9.8,7.4,9.6l328.6-7c3.8-.2,6.9-4.4,6.9-9.6l1.2-122.1c0-5.4-3.1-9.8-7.1-9.8Z"/>
    <path class="cls-52" d="M522.9,174.9c-.7,0-1.2-.6-1.2-1.4l-.7-130.8c0-.4,0-.7.3-.9.3-.4.6-.5.9-.5l330.5,1.6c.3,0,.7.2.9.5.2.3.3.6.3.9l-1.2,122.1c0,.8-.5,1.4-1.1,1.4h0l-328.6,7ZM522.2,42.4c-.1.1-.2.3-.2.4l.7,130.8c0,.2.1.4.2.4l328.6-7s.2-.1.2-.4l1.2-122.1c0-.1,0-.3,0-.3l-330.6-1.7Z"/>
    <g class="cls-121">
      <rect class="cls-52" x="535.6" y="102.2" width="16.1" height="61.5"/>
      <rect class="cls-52" x="562.5" y="123.3" width="16.1" height="40.3"/>
      <rect class="cls-52" x="589.4" y="71.1" width="16.1" height="92.5"/>
      <rect class="cls-52" x="616.2" y="141.4" width="16.1" height="22.2"/>
      <rect class="cls-52" x="643.1" y="83.5" width="16.1" height="80.2"/>
      <rect class="cls-52" x="670" y="97.4" width="16.1" height="66.3"/>
      <rect class="cls-52" x="696.9" y="112.5" width="16.1" height="51.2"/>
      <rect class="cls-52" x="723.7" y="52.4" width="16.1" height="111.3"/>
      <rect class="cls-52" x="750.6" y="64.2" width="16.1" height="99.5"/>
      <rect class="cls-52" x="777.5" y="82" width="16.1" height="81.7"/>
      <rect class="cls-52" x="804.4" y="143.5" width="16.1" height="20.2"/>
      <rect class="cls-52" x="831.2" y="104.3" width="16.1" height="59.4"/>
    </g>
  </g>
  <g>
    <path class="cls-48" d="M852.7,210.7l-330.5-1.6c-4,0-7.2,4.4-7.2,9.8l.7,130.8c0,5.5,3.4,9.8,7.4,9.6l328.6-7c3.8-.2,6.9-4.4,6.9-9.6l1.2-122.1c0-5.4-3.1-9.8-7.1-9.8Z"/>
    <path class="cls-52" d="M522.9,351c-.7,0-1.2-.6-1.2-1.4l-.7-130.8c0-.4,0-.7.3-.9.3-.4.6-.5.9-.5l330.5,1.6c.3,0,.7.2.9.5.2.3.3.6.3.9l-1.2,122.1c0,.8-.5,1.4-1.1,1.4h0l-328.6,7ZM522.2,218.4c-.1.2-.2.3-.2.4l.7,130.8c0,.2.1.4.2.4l328.6-7s.2-.1.2-.4l1.2-122.1c0-.1,0-.3,0-.3l-330.6-1.7Z"/>
    <g>
      <circle class="cls-52" cx="580.8" cy="267.1" r="34.2"/>
      <circle class="cls-52" cx="665.6" cy="267.1" r="34.2"/>
      <circle class="cls-52" cx="750.6" cy="268.2" r="34.2"/>
      <g>
        <path class="cls-4" d="M601.1,259.8c1.1,2.6,1.6,5.4,1.6,8.4,0,12.1-9.8,22-22,22s-22-9.8-22-22,9.8-22,22-22,.7,0,1.1,0v-5.6c-.4,0-.7,0-1.1,0-15.2,0-27.5,12.3-27.5,27.5s12.3,27.5,27.5,27.5,27.5-12.3,27.5-27.5-.7-7.3-2.1-10.6l-5.1,2.2Z"/>
        <path class="cls-92" d="M677.2,286.8c-3.4,2.1-7.4,3.4-11.7,3.4-12.1,0-22-9.8-22-22s9.8-22,22-22,.7,0,1.1,0v-5.6c-.4,0-.7,0-1.1,0-15.2,0-27.5,12.3-27.5,27.5s12.3,27.5,27.5,27.5,10.3-1.5,14.5-4.1l-2.8-4.8Z"/>
        <path class="cls-6" d="M769.2,280.6c-4,5.8-10.6,9.6-18.2,9.6-12.1,0-22-9.8-22-22s9.8-22,22-22,.7,0,1.1,0v-5.6c-.4,0-.7,0-1.1,0-15.2,0-27.5,12.3-27.5,27.5s12.3,27.5,27.5,27.5,17.7-4.7,22.7-11.9l-4.5-3.3Z"/>
      </g>
      <g>
        <path class="cls-21" d="M608.9,315.8h-55.8c-3.5,0-6.3,2.8-6.3,6.3s2.8,6.3,6.3,6.3h55.8c3.5,0,6.3-2.8,6.3-6.3s-2.8-6.3-6.3-6.3Z"/>
        <path class="cls-21" d="M694,315.8h-55.8c-3.5,0-6.3,2.8-6.3,6.3s2.8,6.3,6.3,6.3h55.8c3.5,0,6.3-2.8,6.3-6.3s-2.8-6.3-6.3-6.3Z"/>
        <path class="cls-21" d="M722.7,328.5h55.8c3.5,0,6.3-2.8,6.3-6.3s-2.8-6.3-6.3-6.3h-55.8c-3.5,0-6.3,2.8-6.3,6.3s2.8,6.3,6.3,6.3Z"/>
      </g>
    </g>
  </g>
  <g class="cls-125">
    <g>
      <path class="cls-58" d="M281.7,628.5h185.3c5.9,0,10.7-4.8,10.7-10.7v-277.5c0-5.9-4.8-10.7-10.7-10.7l-186.7-.5c-5.9,0-10.8,4.8-10.7,10.8l1.5,278c0,5.9,4.8,10.6,10.7,10.6Z"/>
      <path class="cls-63" d="M290.8,342.8l165.7,1c6,0,10.8,4.9,10.8,10.9l-1.2,249.1c0,5.9-4.8,10.7-10.7,10.8l-161,2.9c-6,.1-11-4.7-11.1-10.7l-3.5-253c0-6.1,4.8-11,10.9-11Z"/>
      <rect class="cls-63" x="297.6" y="353.5" width="134.1" height="7.6" rx="3.2" ry="3.2"/>
      <path class="cls-63" d="M311.8,371.1h0c0,1.7,1.5,3,3.2,3.1l111.6,2c1.8,0,3.3-1.4,3.3-3.2v-.3c0-1.8-1.4-3.2-3.2-3.2l-111.6-1.8c-1.9,0-3.4,1.5-3.3,3.4Z"/>
      <path class="cls-65" d="M300.4,609.4c-5.3,0-9.6-4.3-9.7-9.5l-3.6-203.7h0c0-5.3,4.2-9.8,9.5-9.9l150.7-2.9c2.6,0,5.1.9,6.9,2.7,1.9,1.8,2.9,4.2,3,6.8l3.9,204.8c0,2.6-.9,5.1-2.7,6.9-1.8,1.9-4.2,2.9-6.9,3l-151,1.8s0,0-.1,0ZM447.5,387.4s0,0-.1,0l-150.7,2.9c-3.1,0-5.7,2.7-5.6,5.8h0s3.6,203.7,3.6,203.7c0,3.1,2.6,5.6,5.7,5.6,0,0,0,0,0,0l151-1.8c1.5,0,3-.6,4-1.7,1.1-1.1,1.6-2.6,1.6-4.1l-3.9-204.8c0-1.5-.7-2.9-1.8-4-1.1-1-2.5-1.6-4-1.6Z"/>
      <path class="cls-65" d="M455.5,407.9h-164.4c-1.1,0-2-.9-2-2s.9-2,2-2h164.4c1.1,0,2,.9,2,2s-.9,2-2,2Z"/>
      <g class="cls-121">
        <path class="cls-52" d="M375.2,428.9c.1-2.5-1.8-4.6-4.3-4.6-8.2-.3-26.2,2.1-43,24.2-22.7,29.8-4.2,70.8,43.6,71.5,43.9.7,59-32.5,58.3-52.5,0-2.6-2.6-4.3-5.1-3.5l-46.9,15.4c-2.4.8-4.8-1.1-4.7-3.6l2.1-46.9Z"/>
        <path class="cls-52" d="M386.8,423.3l-7.4,44c-.4,2.3,2,4.1,4.1,3.1l40.3-18.6c2.7-1.2,4-4.3,3.1-7.1-2.6-7.9-10.5-22.4-34.5-25.7-2.7-.4-5.2,1.5-5.7,4.2Z"/>
      </g>
    </g>
    <g>
      <path class="cls-13" d="M852.7,382.9l-330.5-1.6c-4,0-7.2,4.4-7.2,9.8l.7,130.8c0,5.5,3.4,9.8,7.4,9.6l328.6-7c3.8-.2,6.9-4.4,6.9-9.6l1.2-122.1c0-5.4-3.1-9.8-7.1-9.8Z"/>
      <path class="cls-52" d="M522.9,523.2c-.7,0-1.2-.6-1.2-1.4l-.7-130.8c0-.4,0-.7.3-.9.3-.4.6-.5.9-.5l330.5,1.6c.3,0,.7.2.9.5.2.3.3.6.3.9l-1.2,122.1c0,.8-.5,1.4-1.1,1.4h0l-328.6,7ZM522.2,390.6c-.1.1-.2.3-.2.4l.7,130.8c0,.2.1.4.2.4l328.6-7s.2-.1.2-.4l1.2-122.1c0-.1,0-.3,0-.3l-330.6-1.7Z"/>
      <g class="cls-121">
        <rect class="cls-52" x="639.2" y="468.1" width="5.3" height="76.4" transform="translate(135.5 1148.1) rotate(-90)"/>
        <rect class="cls-52" x="652.3" y="472.4" width="5.3" height="50.1" transform="translate(157.5 1152.4) rotate(-90)"/>
        <rect class="cls-52" x="619.9" y="431.1" width="5.3" height="115" transform="translate(134 1111.1) rotate(-90)"/>
        <rect class="cls-52" x="663.6" y="465.9" width="5.3" height="27.6" transform="translate(186.5 1145.9) rotate(-90)"/>
        <rect class="cls-52" x="627.6" y="421" width="5.3" height="99.6" transform="translate(159.4 1101) rotate(-90)"/>
        <rect class="cls-52" x="636.2" y="420.8" width="5.3" height="82.4" transform="translate(176.9 1100.8) rotate(-90)"/>
        <rect class="cls-52" x="645.6" y="421.3" width="5.3" height="63.6" transform="translate(195.1 1101.3) rotate(-90)"/>
        <rect class="cls-52" x="608.2" y="375.1" width="5.3" height="138.2" transform="translate(166.7 1055.1) rotate(-90)"/>
        <rect class="cls-52" x="615.6" y="373.5" width="5.3" height="123.6" transform="translate(182.9 1053.6) rotate(-90)"/>
        <rect class="cls-52" x="626.6" y="375.7" width="5.3" height="101.5" transform="translate(202.8 1055.8) rotate(-90)"/>
        <rect class="cls-52" x="664.8" y="405.1" width="5.3" height="25.1" transform="translate(249.9 1085.1) rotate(-90)"/>
        <rect class="cls-52" x="640.5" y="371.9" width="5.3" height="73.8" transform="translate(234.4 1051.9) rotate(-90)"/>
      </g>
      <g class="cls-121">
        <rect class="cls-52" x="734" y="468.1" width="5.3" height="76.4" transform="translate(230.4 1243) rotate(-90)"/>
        <rect class="cls-52" x="720.9" y="472.4" width="5.3" height="50.1" transform="translate(226.1 1221) rotate(-90)"/>
        <rect class="cls-52" x="753.3" y="431.1" width="5.3" height="115" transform="translate(267.4 1244.5) rotate(-90)"/>
        <rect class="cls-52" x="709.6" y="465.9" width="5.3" height="27.6" transform="translate(232.6 1192) rotate(-90)"/>
        <rect class="cls-52" x="745.6" y="421" width="5.3" height="99.6" transform="translate(277.5 1219.1) rotate(-90)"/>
        <rect class="cls-52" x="737" y="420.8" width="5.3" height="82.4" transform="translate(277.7 1201.6) rotate(-90)"/>
        <rect class="cls-52" x="727.6" y="421.3" width="5.3" height="63.6" transform="translate(277.2 1183.4) rotate(-90)"/>
        <rect class="cls-52" x="764.9" y="375.1" width="5.3" height="138.2" transform="translate(323.4 1211.8) rotate(-90)"/>
        <rect class="cls-52" x="757.6" y="373.5" width="5.3" height="123.6" transform="translate(324.9 1195.6) rotate(-90)"/>
        <rect class="cls-52" x="746.6" y="375.7" width="5.3" height="101.5" transform="translate(322.7 1175.7) rotate(-90)"/>
        <rect class="cls-52" x="708.4" y="405.1" width="5.3" height="25.1" transform="translate(293.4 1128.6) rotate(-90)"/>
        <rect class="cls-52" x="732.7" y="371.9" width="5.3" height="73.8" transform="translate(326.6 1144.1) rotate(-90)"/>
      </g>
    </g>
  </g>
  <g>
    <path class="cls-49" d="M399,67.4l-22.9-19c-2.2-1.8-5-2.8-7.8-2.8h-110.7c-6.8,0-12.3,5.5-12.3,12.3v38c0,6.8,5.5,12.3,12.3,12.3h110.7c2.9,0,5.6-1,7.8-2.8l22.9-19c5.9-4.9,5.9-14,0-18.9Z"/>
    <rect class="cls-52" x="262.1" y="56.3" width="38.5" height="38.5" rx="9.4" ry="9.4"/>
    <polygon class="cls-45" points="270.6 70.7 280.9 89.5 292.1 61.7 279.9 76.3 270.6 70.7"/>
  </g>
  <g>
    <path class="cls-89" d="M380.1,366.5l-18.2-15.1c-1.8-1.5-4-2.3-6.2-2.3h-88c-5.4,0-9.8,4.4-9.8,9.8v30.2c0,5.4,4.4,9.8,9.8,9.8h88c2.3,0,4.5-.8,6.2-2.3l18.2-15.1c4.7-3.9,4.7-11.1,0-15Z"/>
    <rect class="cls-52" x="271.2" y="357.8" width="30.6" height="30.6" rx="7.5" ry="7.5"/>
    <polygon class="cls-46" points="278 369.2 286.2 384.1 295.1 362 285.4 373.7 278 369.2"/>
  </g>
  <g>
    <path class="cls-90" d="M274,327.4s-.9,4.8-1.3,9.6c-.2,1.9,1.3,3.5,3.2,3.6,6.4.3,20,.8,24.9.6.7,0,1.2-.8.9-1.5h0c-.2-.6-.7-1-1.2-1.3l-22.5-10.4-4-.6Z"/>
    <path class="cls-75" d="M273.3,324.6l.7,5.8s3.9,1.8,6.6-.2l-1.6-6.5-5.7.9Z"/>
    <path class="cls-104" d="M273.9,215.8c-.3,1.5-1.6,75.4,6.3,108.6.1.5-.1,1.1-.7,1.3-1.2.5-3.6,1.2-6.4,1.3-.9,0-1.7-.5-1.9-1.4-2.3-7.7-13.1-46.2-14.5-83-1.6-41.1,0-1.4,0-1.4l.9-25.4h16.3Z"/>
    <path class="cls-100" d="M248.1,330s-1.4,2.4-2.7,8.9c-.2,1.2.6,2.3,1.8,2.4,2.1.2,5.3.5,7.9.5,1.2,0,2.1-1.1,2-2.2-.3-2.4-1.2-6.3-4-9.3l-5.1-.3Z"/>
    <path class="cls-94" d="M246.9,322.5l1.6,8.8s1.6,1.2,4.7.3l-.8-9.4-5.6.3Z"/>
    <path class="cls-33" d="M242.6,218c-6.5,39,1.4,96.4,4.1,107.6.2.7.7,1.2,1.4,1.3,1.2.2,3.1.4,5.1-.2.7-.2,1.1-.8,1.2-1.5.4-9.1-.3-64.8,5.7-86.9.3-1.1,1-2.1,1.9-2.8l11.7-8.3.9-13.4-31.9,4.1Z"/>
    <g>
      <path class="cls-55" d="M283.8,144.1c-19.4-.3-40.7,5.1-40.7,5.1-5.8,33.7-1,72.5-1,72.5,15,3.9,31.9-2.4,31.9-2.4,2.5-14.1,14.1-53.7,14.1-53.7,9.5-1.2,17.3-3.9,23.7-7.5-4.9-5.7-7.2-12.9-8.2-17.2-6.8,2.1-13.8,3.3-19.8,3.2Z"/>
      <path class="cls-7" d="M341,115.6c-1.9-2.3-4.3-1.2-4.3-1.2-2.9,12-17.8,21.8-33.1,26.6,1,4.3,3.3,11.5,8.2,17.2,25.5-14.3,29.3-42.5,29.3-42.5Z"/>
    </g>
    <g>
      <path class="cls-38" d="M340.5,116.2c.2.6-2.1,1.6-3.5-1,0-1.2-.8-6.6,0-7.6,3.9-5.4,11.6-12.1,11.6-12.1,1.3,1.3.2,2.5.2,2.5l-3.7,3.9c.8,1.4,1.7,2.6,2.2,4.3.3,1.3.1,2.7-.5,3.8-.7,1.2-1.5,2.7-2.4,3.9-1.6,2.3-3.9,2.3-3.9,2.3Z"/>
      <path class="cls-53" d="M343.5,104.4l-3.4,2.9-1.1,2.9,3,3.3s1-5.7,1.8-6.9c.8-1.2.4-1.8-.3-2.2Z"/>
    </g>
    <path class="cls-84" d="M250.5,168l-7.4-18.8s-18.1,12.3-21.1,27.9c3.4.3,9.6,1.1,15.7,4.2,1.3-7.4,12.8-13.3,12.8-13.3Z"/>
    <path class="cls-115" d="M266.3,185.6s-20.3,11.5-27.2,1.7c-1.4-2-1.8-4.1-1.4-6-6.1-3.1-12.3-4-15.7-4.2-.9,4.7-.4,9.7,2.3,14.7,12,22,44.7-1.2,44.7-1.2l-2.7-5Z"/>
    <g>
      <path class="cls-1" d="M263.8,200.1l11.1-38.7c.1-.4.5-.8,1-.8,2-.2,7.8-.9,14.5-1.5,8.1-.7,17.5-1.2,23.1-.8.8,0,1.3.9.9,1.6-3.2,6.5-16.3,32.7-22.9,41.4-.2.3-.6.5-.9.4l-25.7-.2c-.7,0-1.3-.7-1.1-1.4Z"/>
      <path class="cls-68" d="M291.6,155.8l8-1.3c.4,0,.8.3.6.7l-.8,2.4c0,.2-.3.4-.5.4l-7.7,1c-.4,0-.7-.3-.6-.7l.5-2.1c0-.2.2-.4.5-.4Z"/>
      <path class="cls-42" d="M285.5,162.6l.7-3.4c0-.3.4-.6.7-.6l16.2-1.6c.5,0,1,.4.9,1l-1,4.3c0,.3-.4.6-.7.6l-15.9.8c-.5,0-.9-.4-.8-.9Z"/>
      <path class="cls-40" d="M266.5,190.8s-1.5-6.3-.9-8.6,1.8-5.1,5.9-4.5c4,.6,8.8,2.3,8.8,2.3,0,0-.2,2.9-3.3,2l1.9,1.5s-.3,2.3-2.9,1.1l1.8,1.9s-1.1,1.9-3,.7c-1.9-1.2-2.8,4.3-8.2,3.6Z"/>
    </g>
    <path class="cls-19" d="M264.2,128.4l-6.2,17.8c-.1.3,0,.6.3.8,1.7.9,7.7,3.6,15-1,.8-.5,1.3-1.3,1.4-2.2l2-15.4h-12.5Z"/>
    <g>
      <path class="cls-47" d="M277.6,111.9s6.8,12.7,5.9,17.9c-.9,5.1-9.3,4.8-16.6.6l-5.1-13.8,15.8-4.7Z"/>
      <path class="cls-95" d="M267.2,123.6c.3-.1.4-.5.2-.8-.5-.8-1.6-2.5-1.9-4,0,0-1.2-.8,3.1-1.8,4.3-1,10.7-2.6,12.1-6.3,1.3-3.6-2.1-12.6-7.7-5.4-.2.3-.6.3-.8,0-.9-1.2-3.3-3.6-6.6-2.1-3.1,1.4-3.4,3.7-3.4,4.8,0,.3-.3.6-.6.5-1.6-.3-5.3-.6-7.1,3.3-1.4,3.2-.5,5,.3,5.8.3.3.2.8-.2.9-1,.3-2.4,1.2-2.2,3.6.2,3.3,3.9,3,5,2.9.2,0,.3,0,.5.2.9,1,5,5.3,9.4,5.8.4,0,.7-.3.6-.7l-1.9-5.6c0-.3,0-.5.3-.7l1-.4Z"/>
      <path class="cls-64" d="M268,124.4s-4.8-3.3-5.2-.5c-.4,2.8,4.3,4,6.7,3l-1.5-2.5Z"/>
    </g>
  </g>
  <g>
    <path class="cls-101" d="M615,64.5l-16.1-13.4c-1.6-1.3-3.5-2-5.5-2h-78c-4.8,0-8.6,3.9-8.6,8.6v26.7c0,4.8,3.9,8.6,8.6,8.6h78c2,0,4-.7,5.5-2l16.1-13.4c4.2-3.5,4.2-9.9,0-13.3Z"/>
    <rect class="cls-52" x="518.6" y="56.7" width="27.1" height="27.1" rx="6.6" ry="6.6"/>
    <polygon class="cls-88" points="524.6 66.8 531.9 80 539.7 60.5 531.2 70.8 524.6 66.8"/>
  </g>
  <g>
    <g>
      <path class="cls-85" d="M935.3,647.4c1.5,0,2.9-1,3.1-2.4l49.7-263.3c.3-1.6-.9-3-2.6-3.3-1.7-.3-3.4.8-3.7,2.3l-49.7,263.3c-.3,1.6.9,3,2.6,3.3.2,0,.4,0,.5,0Z"/>
      <path class="cls-86" d="M1103.1,647.4c.2,0,.4,0,.6,0,1.7-.3,2.9-1.8,2.5-3.4l-58.6-259.9c-.3-1.5-2-2.6-3.8-2.2-1.7.3-2.9,1.8-2.5,3.4l58.6,259.9c.3,1.4,1.6,2.3,3.1,2.3Z"/>
      <path class="cls-54" d="M973.3,446.8h85c1.8,0,3.2-1.3,3.2-2.9s-1.4-2.9-3.2-2.9h-85c-1.8,0-3.2,1.3-3.2,2.9s1.4,2.9,3.2,2.9Z"/>
      <path class="cls-93" d="M974.8,446.8h81.9c1.7,0,3.1-1.3,3.1-2.9s-1.4-2.9-3.1-2.9h-81.9c-1.7,0-3.1,1.3-3.1,2.9s1.4,2.9,3.1,2.9Z"/>
      <path class="cls-62" d="M973.3,494.4h85c1.8,0,3.2-1.3,3.2-2.9s-1.4-2.9-3.2-2.9h-85c-1.8,0-3.2,1.3-3.2,2.9s1.4,2.9,3.2,2.9Z"/>
      <path class="cls-80" d="M965.6,494.4h103c1.8,0,3.2-1.3,3.2-2.9s-1.4-2.9-3.2-2.9h-103c-1.8,0-3.2,1.3-3.2,2.9s1.4,2.9,3.2,2.9Z"/>
      <path class="cls-50" d="M973.3,542h85c1.8,0,3.2-1.3,3.2-2.9s-1.4-2.9-3.2-2.9h-85c-1.8,0-3.2,1.3-3.2,2.9s1.4,2.9,3.2,2.9Z"/>
      <path class="cls-51" d="M955.7,542h123.3c1.8,0,3.2-1.3,3.2-2.9s-1.4-2.9-3.2-2.9h-123.3c-1.8,0-3.2,1.3-3.2,2.9s1.4,2.9,3.2,2.9Z"/>
      <path class="cls-105" d="M973.3,589.6h115.7c1.8,0,3.2-1.3,3.2-2.9s-1.4-2.9-3.2-2.9h-115.7c-1.8,0-3.2,1.3-3.2,2.9s1.4,2.9,3.2,2.9Z"/>
      <path class="cls-12" d="M947.8,589.6h141.2c1.8,0,3.2-1.3,3.2-2.9s-1.4-2.9-3.2-2.9h-141.2c-1.8,0-3.2,1.3-3.2,2.9s1.4,2.9,3.2,2.9Z"/>
    </g>
    <g>
      <path class="cls-36" d="M1049.7,429.8s2.1,3.3,2.6,12.4c0,.9-.6,1.6-1.5,1.6h-16.2c-.7,0-1.1-.6-.9-1.3,1-2.8,3.8-9.7,10.2-13.6l5.8.8Z"/>
      <path class="cls-57" d="M1050.4,423.6l-.9,7.7c0,.7-.6,1.2-1.3,1.3-.9.1-2.2.2-3.4,0-1.1-.2-2-1.2-2-2.4v-7.4l7.6.9Z"/>
      <path class="cls-56" d="M1009.6,428.9s3.1,4.8,3,11.5c0,1.6-1.3,2.8-2.9,2.8h-25.2c-1.2,0-1.7-1.5-.7-2.2,4.8-3.3,14.1-9.6,20.9-12.1h4.8Z"/>
      <path class="cls-91" d="M1012.2,420.6l-2,9.5c-.2,1.1-1.3,1.8-2.3,1.5-.6-.1-1.4-.4-2.2-.9-.8-.5-1.2-1.4-1-2.3l2-11.5,5.5,3.7Z"/>
      <path class="cls-8" d="M1046.8,288.5s6.8,6,8.1,13.2c1.3,7.2-3.6,124.5-3.6,124.5,0,0-6.8,1.1-10.3-1,0,0-4.2-76.1-7.3-93.7,0,0-16.6,78.9-21.2,93.1,0,0-6.6.8-8.7-.4,0,0,4.3-102.2,9.8-120.4l33.2-15.3Z"/>
      <path class="cls-17" d="M1033.9,329.1c0,0-.1,0-.2,0-.4-.1-.6-.5-.5-.9l2.9-11.1c0-.2.2-.3.3-.4l6.2-4c.3-.2.8-.1,1,.2.2.3.1.8-.2,1l-6,3.8-2.8,10.8c0,.3-.4.6-.7.6Z"/>
      <path class="cls-37" d="M979.7,220.7c28.6-2.4,36.1,3.5,36.1,3.5l-13.8,21.7s-28.1-.6-48.3-16.1c3.8-4.1,6.4-8.6,8.1-12.1,5.2,2.2,11.2,3.4,17.9,2.9Z"/>
      <path class="cls-102" d="M934.8,178.6c0-.9,1.3-1.2,1.7-.3l3.7,7.8c.7,1.5.9,3.2.6,4.8l-1.3,4.5c-.4,2.2.2,4.5,1.6,6.2,3.4,4.2,10.5,11.9,20.7,16.1-1.7,3.5-4.3,8-8.1,12.1-7.4-5.7-13.7-13.4-17.2-23.9-1.7-.5-2.8-2.1-2.7-3.8l1-23.5Z"/>
      <path class="cls-83" d="M970.3,233.3c10.1-10.9,29.3-15.8,40.4-17.8,4.9-.9,9.7,1.8,11.4,6.5,5,13.5,18.6,48.5,21.3,54.5,2.2,4.9,4.4,9.8,5.9,12.8.9,1.8.1,4-1.7,4.8-9.4,4.5-26.2,9.6-33,11.6-1.5.4-3-.7-3-2.3s-.4-2.6-1-3.8l-25.9-43.1c-16.1,17.9-30.2,19.5-41.1,15.6,1.8-5.6,3-11.3,3.6-16.9,16-2.7,23.1-21.9,23.1-21.9Z"/>
      <path class="cls-43" d="M920.7,252.2l2.9-3.9c9.4,6.4,17.2,7.9,23.6,6.9-.6,5.7-1.8,11.3-3.6,16.9-14.3-5.2-22.9-19.9-22.9-19.9Z"/>
      <path class="cls-11" d="M922.7,252.3l-16.3.6-15-8.4c2.2-1.3,14.3,1.4,14.3,1.4,0,0,12.7-1.9,16.2-1.9,2.9,0,2.5,4.1,2.2,5.5,0,.3,0,.5,0,.5l-1.4,2.3Z"/>
      <path class="cls-98" d="M995.4,195.5l8.6,21s-9.9,6.8-17.8,6.2l-4.3-18.8,13.5-8.3Z"/>
      <g>
        <path class="cls-71" d="M980.9,181.3c-.2.3-6.2,22-6.2,22l12.5,3.2,8.8-19.8s-11.7-10.1-15-5.4Z"/>
        <path class="cls-109" d="M991.2,189.7l-3.8,10.8c0,.1-.1.3-.2.4-.5.7-2.5,3.1-4.8,1-2.1-2-4.1-3.7-5.9-4-.8-.1-1.6.4-1.8,1.1-.5,2-1.7,6.4-2.1,10.5,0,.8.5,1.6,1.3,1.7,2.4.5,7.6,1.3,11.9,1,.6,0,1.1-.4,1.3-.9,1.2-2.6,4.8-10.5,6.2-12.5,1.3-1.9,4.4-1.9,5.7-1.7.4,0,.9-.1,1.2-.4,1.1-1,3.3-3.6.3-6.6-.6-.6-.6-1.7,0-2.3,1.3-1.2,2.7-3.4.5-6.2-2.2-2.8-5.2-2.3-7-1.7-.7.3-1.5,0-1.9-.7-.2-.4-.6-.7-1.3-.6-.9,0-1.7-.7-1.7-1.6,0-1.8-.6-4-3.7-5-5.5-1.7-8.9,3.6-9.2,7.5-.3,3.9,5.7,5.4,9.2,5.2,2.7-.2,4.7,2.5,5.5,3.8.3.4.3.9.1,1.4Z"/>
        <path class="cls-35" d="M992,202.6s.9-6.8,3.7-7.2c2.8-.3,5.6,2,2.8,5.8-3.5,4.8-6.5,1.3-6.5,1.3Z"/>
      </g>
    </g>
    <g>
      <path class="cls-99" d="M729.5,192.6l30.6-24.6c3-2.4,6.7-3.7,10.5-3.7h148.2c9.1,0,16.4,7.1,16.4,15.9v49.2c0,8.8-7.4,15.9-16.4,15.9h-148.2c-3.8,0-7.6-1.3-10.5-3.7l-30.6-24.6c-7.9-6.4-7.9-18.1,0-24.5Z"/>
      <path class="cls-52" d="M873.9,178.3h26.4c6.9,0,12.6,5.5,12.6,12.2v25.6c0,6.7-5.6,12.2-12.6,12.2h-26.4c-6.9,0-12.6-5.5-12.6-12.2v-25.6c0-6.7,5.6-12.2,12.6-12.2Z"/>
      <polygon class="cls-29" points="872.7 196.9 886.6 221.3 901.5 185.3 885.2 204.2 872.7 196.9"/>
    </g>
  </g>
  <g>
    <path class="cls-112" d="M320,656.2c-1.6,0-2.9-1.1-2.9-2.6v-306.4c0-1.4,1.3-2.6,2.9-2.6s2.9,1.1,2.9,2.6v306.4c0,1.4-1.3,2.6-2.9,2.6Z"/>
    <path class="cls-119" d="M242.3,656.2c-1.6,0-2.9-1.1-2.9-2.6v-306.4c0-1.4,1.3-2.6,2.9-2.6s2.9,1.1,2.9,2.6v306.4c0,1.4-1.3,2.6-2.9,2.6Z"/>
    <path class="cls-15" d="M51.3,658.1c-.4,0-.8,0-1.1-.2-1.5-.6-2.1-2.1-1.5-3.4l146.7-308.4c.6-1.3,2.3-1.9,3.8-1.4,1.5.6,2.1,2.1,1.5,3.4L53.9,656.5c-.5,1-1.5,1.6-2.6,1.6Z"/>
    <path class="cls-70" d="M141.9,658.1c-.4,0-.8,0-1.1-.2-1.5-.6-2.1-2.1-1.5-3.4l146.7-308.4c.6-1.3,2.3-1.9,3.8-1.4,1.5.6,2.1,2.1,1.5,3.4l-146.7,308.4c-.5,1-1.5,1.6-2.6,1.6Z"/>
    <path class="cls-110" d="M189.3,342.8h135.9c1.8,0,3.3,1.5,3.3,3.3v.6c0,1.8-1.5,3.3-3.3,3.3h-135.9c-1.8,0-3.3-1.5-3.3-3.3v-.6c0-1.8,1.5-3.3,3.3-3.3Z"/>
    <path class="cls-117" d="M266.4,396.9h-90.9c-1.6,0-2.9-1.1-2.9-2.6s1.3-2.6,2.9-2.6h90.9c1.6,0,2.9,1.1,2.9,2.6s-1.3,2.6-2.9,2.6Z"/>
    <rect class="cls-116" x="147.7" y="450.1" width="90.9" height="5.1"/>
    <rect class="cls-28" x="120.7" y="508.4" width="90.9" height="5.1"/>
    <path class="cls-77" d="M183.2,571.9h-90.9c-1.6,0-2.9-1.1-2.9-2.6s1.3-2.6,2.9-2.6h90.9c1.6,0,2.9,1.1,2.9,2.6s-1.3,2.6-2.9,2.6Z"/>
    <path class="cls-79" d="M155.9,630.2h-90.9c-1.6,0-2.9-1.1-2.9-2.6s1.3-2.6,2.9-2.6h90.9c1.6,0,2.9,1.1,2.9,2.6s-1.3,2.6-2.9,2.6Z"/>
  </g>
  <g>
    <g>
      <g>
        <path class="cls-52" d="M299.5,616.4c-.3,0-.7-.2-.9-.5-.7-1.2-1.3-2.3-1.9-3.5-.3-.5,0-1.1.4-1.3.5-.3,1.1,0,1.3.4.6,1.2,1.2,2.3,1.9,3.5.3.5.1,1.1-.4,1.4-.2,0-.3.1-.5.1Z"/>
        <path class="cls-52" d="M292.4,600.7c-.4,0-.8-.3-.9-.7-.9-2.6-1.7-5.2-2.4-7.9-.1-.5.2-1.1.7-1.2.5-.1,1.1.2,1.2.7.7,2.6,1.5,5.2,2.4,7.7.2.5,0,1.1-.6,1.3-.1,0-.2,0-.3,0ZM287.6,580c-.5,0-.9-.4-1-.9-.3-2.7-.5-5.5-.6-8.2,0-.6.4-1,1-1,.5,0,1,.4,1,1,0,2.7.3,5.4.6,8,0,.5-.3,1-.9,1.1,0,0,0,0-.1,0ZM287.4,558.7s0,0-.1,0c-.5,0-.9-.6-.9-1.1.3-2.7.7-5.4,1.2-8.1.1-.5.6-.9,1.2-.8.5.1.9.6.8,1.2-.5,2.6-.9,5.3-1.2,8,0,.5-.5.9-1,.9ZM292.1,537.9c-.1,0-.2,0-.3,0-.5-.2-.8-.8-.6-1.3.9-2.6,1.9-5.1,3-7.6.2-.5.8-.7,1.3-.5.5.2.7.8.5,1.3-1.1,2.4-2.1,5-2.9,7.5-.1.4-.5.7-.9.7ZM301.2,518.6c-.2,0-.4,0-.5-.2-.5-.3-.6-.9-.3-1.4,1.4-2.3,3-4.6,4.6-6.8.3-.4,1-.5,1.4-.2s.5,1,.2,1.4c-1.6,2.1-3.1,4.4-4.5,6.6-.2.3-.5.5-.9.5ZM314.4,501.9c-.3,0-.5,0-.7-.3-.4-.4-.4-1,0-1.4,1.9-1.9,3.9-3.8,6-5.6.4-.4,1-.3,1.4.1.4.4.3,1.1-.1,1.4-2,1.7-4,3.6-5.9,5.5-.2.2-.5.3-.7.3ZM331,488.5c-.3,0-.7-.2-.8-.5-.3-.5-.2-1.1.3-1.4,2.3-1.5,4.7-2.9,7.1-4.1.5-.3,1.1,0,1.3.4.3.5,0,1.1-.4,1.3-2.4,1.2-4.7,2.6-7,4-.2.1-.4.2-.5.2ZM350.1,479.1c-.4,0-.8-.3-.9-.7-.2-.5,0-1.1.6-1.3,2.6-.9,5.2-1.7,7.8-2.4.5-.1,1.1.2,1.2.7.1.5-.2,1.1-.7,1.2-2.6.7-5.2,1.5-7.7,2.4-.1,0-.2,0-.3,0ZM400.2,475.3c0,0-.1,0-.2,0-2.6-.5-5.3-.9-8-1.2-.5,0-.9-.5-.9-1.1,0-.5.5-.9,1.1-.9,2.7.3,5.4.7,8.1,1.2.5.1.9.6.8,1.2,0,.5-.5.8-1,.8ZM370.8,474.3c-.5,0-.9-.4-1-.9,0-.5.3-1,.9-1.1,2.7-.3,5.5-.5,8.2-.6,0,0,0,0,0,0,.5,0,1,.4,1,1,0,.6-.4,1-1,1-2.7,0-5.4.3-8,.6,0,0,0,0-.1,0Z"/>
        <path class="cls-52" d="M416.8,480.1c-.1,0-.2,0-.4,0-1.2-.5-2.5-.9-3.7-1.4-.5-.2-.8-.7-.6-1.3.2-.5.8-.8,1.3-.6,1.3.4,2.5.9,3.8,1.4.5.2.8.8.6,1.3-.2.4-.5.6-.9.6Z"/>
      </g>
      <g>
        <path class="cls-52" d="M470.2,532.2c-.4,0-.8-.2-.9-.6-.5-1.2-1-2.4-1.6-3.6-.2-.5,0-1.1.5-1.3.5-.2,1.1,0,1.3.5.6,1.2,1.1,2.5,1.6,3.7.2.5,0,1.1-.5,1.3-.1,0-.3,0-.4,0Z"/>
        <path class="cls-52" d="M382.1,664.2c-.5,0-1.1,0-1.6,0-.6,0-1-.5-1-1,0-.5.5-1,1-1h0c2.6,0,5.3,0,7.9-.2.6,0,1,.4,1.1.9,0,.6-.4,1-.9,1.1-2.1.1-4.3.2-6.5.2ZM367.6,663.1c0,0-.1,0-.2,0-2.7-.4-5.3-.9-7.9-1.6-.5-.1-.9-.7-.7-1.2.1-.5.7-.9,1.2-.7,2.6.6,5.2,1.1,7.8,1.5.5,0,.9.6.8,1.1,0,.5-.5.8-1,.8ZM401.4,662.3c-.5,0-.9-.3-1-.8-.1-.5.2-1.1.8-1.2,2.6-.5,5.2-1.2,7.7-1.9.5-.2,1.1.1,1.2.7.2.5-.1,1.1-.7,1.2-2.6.8-5.2,1.4-7.8,1.9,0,0-.1,0-.2,0ZM421.3,655.8c-.4,0-.7-.2-.9-.6-.2-.5,0-1.1.5-1.3,2.4-1.1,4.8-2.3,7.1-3.5.5-.3,1.1,0,1.4.4.3.5,0,1.1-.4,1.4-2.4,1.3-4.8,2.5-7.2,3.6-.1,0-.3,0-.4,0ZM439.4,645.2c-.3,0-.6-.1-.8-.4-.3-.4-.2-1.1.2-1.4,2.1-1.6,4.2-3.3,6.1-5,.4-.4,1-.3,1.4,0,.4.4.3,1,0,1.4-2,1.8-4.1,3.5-6.3,5.1-.2.1-.4.2-.6.2ZM454.7,630.8c-.2,0-.5,0-.6-.2-.4-.4-.5-1-.1-1.4,1.7-2,3.4-4.1,4.9-6.2.3-.4.9-.6,1.4-.2.4.3.6.9.2,1.4-1.6,2.2-3.2,4.3-5,6.4-.2.2-.5.4-.8.4ZM466.4,613.5c-.2,0-.3,0-.5-.1-.5-.3-.7-.9-.4-1.4,1.2-2.3,2.4-4.7,3.4-7.1.2-.5.8-.7,1.3-.5.5.2.7.8.5,1.3-1.1,2.5-2.2,4.9-3.5,7.3-.2.3-.5.5-.9.5ZM474.2,594c0,0-.2,0-.3,0-.5-.1-.8-.7-.7-1.2.7-2.5,1.3-5.1,1.8-7.7.1-.5.6-.9,1.2-.8.5.1.9.6.8,1.2-.5,2.6-1.1,5.3-1.8,7.9-.1.4-.5.7-1,.7ZM477.4,573.3s0,0,0,0c-.6,0-1-.5-1-1,0-1.4,0-2.8,0-4.2,0-1.2,0-2.4,0-3.7,0-.6.4-1,1-1,.5,0,1,.4,1,1,0,1.3,0,2.5,0,3.8,0,1.4,0,2.9,0,4.3,0,.5-.5,1-1,1ZM476.1,552.4c-.5,0-.9-.3-1-.8-.5-2.6-1-5.2-1.7-7.7-.1-.5.2-1.1.7-1.2.5-.1,1.1.2,1.2.7.7,2.6,1.3,5.2,1.7,7.9,0,.5-.3,1.1-.8,1.2,0,0-.1,0-.2,0Z"/>
        <path class="cls-52" d="M347.3,657.6c-.1,0-.2,0-.4,0-1.2-.5-2.5-1-3.7-1.6-.5-.2-.7-.8-.5-1.3.2-.5.8-.7,1.3-.5,1.2.5,2.4,1.1,3.6,1.5.5.2.8.8.6,1.3-.2.4-.5.6-.9.6Z"/>
      </g>
      <g>
        <path class="cls-96" d="M344.3,630.5c.4.3.9.3,1.3,0l11.6-7.7c5.9,2.7,12.3,4.4,19,5l6.3,12.4c.2.4.7.7,1.2.6l16.5-2.2c.5,0,.9-.4,1-.9l2.7-13.6c6.3-2.4,12-5.8,17-9.9l13.2,4.4c.5.2,1,0,1.3-.4l10.1-13.3c.3-.4.3-.9,0-1.3l-7.7-11.6c2.7-5.9,4.4-12.3,5-19l12.4-6.3c.4-.2.7-.7.6-1.2l-2.2-16.5c0-.5-.4-.9-.9-1l-13.6-2.7c-2.4-6.3-5.8-12-9.9-17l4.4-13.2c.2-.5,0-1-.4-1.3l-13.3-10.1c-.4-.3-.9-.3-1.3,0l-11.6,7.7c-5.9-2.7-12.3-4.4-19-5l-6.3-12.4c-.2-.4-.7-.7-1.2-.6l-16.5,2.2c-.5,0-.9.4-1,.9l-2.7,13.6c-6.3,2.4-12,5.8-17,9.9l-13.2-4.4c-.5-.2-1,0-1.3.4l-10.1,13.3c-.3.4-.3.9,0,1.3l7.7,11.6c-2.7,5.9-4.4,12.3-5,19l-12.4,6.3c-.4.2-.7.7-.6,1.2l2.2,16.5c0,.5.4.9.9,1l13.6,2.7c2.4,6.2,5.8,12,9.9,17l-4.4,13.2c-.2.5,0,1,.4,1.3l13.3,10.1Z"/>
        <path class="cls-52" d="M382.1,583.5c-6.5,0-12.6-3.9-15.2-10.2-1.6-4-1.6-8.5.1-12.5,1.7-4,4.9-7.1,8.9-8.7,8.4-3.4,17.9.7,21.2,9.1,3.4,8.4-.7,17.9-9.1,21.2h0c-2,.8-4,1.2-6.1,1.2ZM387.6,580.9h0,0ZM382.1,553.8c-1.7,0-3.3.3-5,1-3.3,1.3-5.9,3.9-7.3,7.1-1.4,3.3-1.4,6.9-.1,10.2,2.7,6.8,10.5,10.1,17.3,7.4,6.8-2.7,10.1-10.5,7.4-17.3-2.1-5.2-7.1-8.4-12.4-8.4Z"/>
        <path class="cls-52" d="M382.2,608.6c-1.1,0-2.2,0-3.2-.1l.2-3c2.7.2,5.5.1,8.3-.2,19.4-2.6,33.6-19.3,33.6-38.4,0-1.7-.1-3.5-.4-5.2-1.4-10.3-6.7-19.4-14.9-25.7-8.2-6.3-18.4-9-28.7-7.6-19.4,2.6-33.6,19.3-33.6,38.4,0,1.7.1,3.5.4,5.2.9,7,3.8,13.5,8.1,19l-2.3,1.9c-4.7-5.9-7.7-13-8.8-20.5-.3-1.9-.4-3.8-.4-5.6,0-20.6,15.2-38.5,36.2-41.4,11.1-1.5,22,1.4,30.9,8.2,8.9,6.8,14.6,16.6,16.1,27.6.3,1.9.4,3.8.4,5.6,0,20.6-15.2,38.5-36.2,41.4-1.9.3-3.8.4-5.7.4Z"/>
      </g>
    </g>
    <path class="cls-82" d="M444.4,507.1l6.1-4.8c3.4,1.2,7.1,1.9,10.8,2l4,6.7c.1.2.4.4.7.3l9.1-2c.3,0,.5-.3.5-.6l.9-7.7c3.4-1.6,6.4-3.7,9-6.3l7.6,1.8c.3,0,.5,0,.7-.3l5.1-7.9c.1-.2.1-.5,0-.7l-4.8-6.1c1.2-3.4,1.9-7.1,2-10.8l6.7-4c.2-.1.4-.4.3-.7l-2-9.1c0-.3-.3-.5-.6-.5l-7.7-.9c-1.6-3.4-3.7-6.4-6.3-9l1.8-7.6c0-.3,0-.5-.3-.7l-7.9-5.1c-.2-.1-.5-.1-.7,0l-6.1,4.8c-3.4-1.2-7.1-1.9-10.8-2l-4-6.7c-.1-.2-.4-.4-.7-.3l-9.1,2c-.3,0-.5.3-.5.6l-.9,7.7c-3.4,1.6-6.4,3.7-9,6.3l-7.6-1.8c-.3,0-.5,0-.7.3l-5.1,7.9c-.1.2-.1.5,0,.7l4.8,6.1c-1.2,3.4-1.9,7.1-2,10.8l-6.7,4c-.2.1-.4.4-.3.7l2,9.1c0,.3.3.5.6.5l7.7.9c1.6,3.4,3.7,6.4,6.3,9l-1.8,7.6c0,.3,0,.5.3.7l7.9,5.1c.2.1.5.1.7,0Z"/>
    <path class="cls-52" d="M461.9,479.9c-1.1,0-2.1-.2-3.1-.5-2.5-.8-4.5-2.6-5.7-4.9-1.2-2.3-1.3-5-.5-7.5s2.6-4.5,4.9-5.7c4.8-2.4,10.7-.4,13.1,4.4,2.4,4.8.4,10.7-4.4,13.1-1.4.7-2.9,1-4.4,1ZM461.9,463.2c-1,0-2.1.2-3,.7-1.6.8-2.8,2.2-3.4,3.9-.6,1.7-.5,3.6.4,5.2.8,1.6,2.2,2.8,3.9,3.4,1.7.6,3.6.5,5.2-.4h0c3.4-1.7,4.7-5.8,3.1-9.1-.8-1.6-2.2-2.8-3.9-3.4-.7-.2-1.4-.4-2.2-.4Z"/>
    <g>
      <path class="cls-52" d="M427.5,507.6c-.2,0-.5,0-.7-.3-1-.9-1.9-1.9-2.9-2.9-.4-.4-.3-1,0-1.4.4-.4,1-.3,1.4,0,.9,1,1.8,1.9,2.7,2.8.4.4.4,1,0,1.4-.2.2-.5.3-.7.3Z"/>
      <path class="cls-52" d="M417.5,494.3c-.4,0-.7-.2-.9-.5-.2-.3-.3-.6-.5-1-1-2.1-1.9-4.2-2.7-6.4-.2-.5.1-1.1.6-1.3.5-.2,1.1.1,1.3.6.7,2.1,1.6,4.1,2.6,6.1.2.3.3.6.5.9.3.5,0,1.1-.4,1.3-.1,0-.3.1-.5.1ZM411.9,474.7c-.5,0-1-.4-1-.9,0-1.2-.1-2.5-.1-3.7s0-2.9.2-4.3c0-.6.5-1,1.1-.9.5,0,1,.5.9,1.1-.1,1.4-.2,2.8-.2,4.1s0,2.4.1,3.5c0,.6-.4,1-.9,1.1,0,0,0,0,0,0ZM414.6,454.4c-.1,0-.2,0-.3,0-.5-.2-.8-.8-.6-1.3.9-2.5,2-5,3.2-7.3.3-.5.9-.7,1.4-.4.5.3.7.9.4,1.4-1.2,2.2-2.2,4.6-3.1,7-.1.4-.5.7-.9.7ZM425.1,437c-.2,0-.5,0-.7-.3-.4-.4-.4-1,0-1.4,1.8-2,3.8-3.8,5.9-5.4.4-.3,1.1-.3,1.4.2.3.4.3,1.1-.2,1.4-2,1.6-3.9,3.3-5.6,5.2-.2.2-.5.3-.7.3ZM441.7,425.1c-.4,0-.8-.2-.9-.6-.2-.5,0-1.1.5-1.3,2.4-1.1,5-2,7.5-2.6.5-.1,1.1.2,1.2.7.1.5-.2,1.1-.7,1.2-2.5.7-4.9,1.5-7.2,2.5-.1,0-.3,0-.4,0Z"/>
      <path class="cls-52" d="M465.7,421s0,0,0,0c-1.3-.1-2.6-.1-3.9-.1h0c-.6,0-1-.4-1-1,0-.6.5-1,1.1-1,1.3,0,2.7,0,4,.2.6,0,1,.5.9,1.1,0,.5-.5.9-1,.9Z"/>
    </g>
    <g>
      <path class="cls-52" d="M501.8,440.6c-.3,0-.6-.1-.8-.4-.8-1-1.6-2.1-2.5-3-.4-.4-.3-1,0-1.4.4-.4,1-.3,1.4,0,.9,1,1.8,2.1,2.6,3.1.3.4.2,1.1-.2,1.4-.2.1-.4.2-.6.2Z"/>
      <path class="cls-52" d="M472.2,520.1c-.5,0-.9-.3-1-.8-.1-.5.2-1.1.8-1.2,2.5-.5,4.9-1.2,7.2-2.1.5-.2,1.1,0,1.3.6.2.5,0,1.1-.6,1.3-2.4.9-5,1.7-7.5,2.2,0,0-.1,0-.2,0ZM490.7,512.1c-.3,0-.6-.1-.8-.4-.3-.5-.2-1.1.2-1.4,2.1-1.4,4-3,5.8-4.8.4-.4,1-.4,1.4,0,.4.4.4,1,0,1.4-1.9,1.8-3.9,3.5-6.1,5-.2.1-.4.2-.6.2ZM504.5,497.6c-.2,0-.4,0-.5-.2-.5-.3-.6-.9-.3-1.4,1.3-2.1,2.5-4.4,3.5-6.7.2-.5.8-.7,1.3-.5.5.2.7.8.5,1.3-1,2.4-2.2,4.7-3.6,7-.2.3-.5.5-.9.5ZM511.5,478.8c0,0-.1,0-.2,0-.5,0-.9-.6-.8-1.1.4-2.5.6-5,.6-7.5,0-.6.4-1,1-1h0c.6,0,1,.4,1,1,0,2.6-.2,5.2-.6,7.8,0,.5-.5.8-1,.8ZM510.5,458.7c-.4,0-.9-.3-1-.8-.6-2.4-1.4-4.8-2.4-7.1-.2-.5,0-1.1.5-1.3.5-.2,1.1,0,1.3.5,1,2.4,1.9,4.9,2.5,7.4.1.5-.2,1.1-.7,1.2,0,0-.2,0-.2,0Z"/>
      <path class="cls-52" d="M459.8,521.2s0,0,0,0c-1.4,0-2.7-.2-4.1-.3-.5,0-.9-.6-.9-1.1,0-.5.6-.9,1.1-.9,1.3.2,2.6.3,3.9.3.6,0,1,.5,1,1,0,.5-.5,1-1,1Z"/>
    </g>
    <path class="cls-52" d="M462,494v-3c1.5,0,3-.2,4.5-.5,5.3-1.2,9.9-4.2,12.9-8.7.1-.2.2-.3.3-.5,2.2-3.4,3.4-7.4,3.4-11.4s-.2-3-.5-4.5c-2.5-11.4-13.7-18.6-25.1-16.1-9.9,2.1-16.6,10.9-16.6,20.6,0,1.5.2,3,.5,4.5.8,3.7,2.6,7.2,5.2,9.9l-2.2,2.1c-3-3.2-5-7.1-6-11.4-.4-1.7-.6-3.4-.6-5.1,0-11.1,7.7-21.1,19-23.5,6.3-1.4,12.7-.2,18.1,3.3,5.4,3.5,9.1,8.9,10.5,15.1.4,1.7.6,3.4.6,5.2,0,4.6-1.3,9-3.8,13-3.5,5.4-8.9,9.1-15.1,10.5h0c-.5.1-1,.2-1.5.3-1,.2-2.1.3-3.1.3-.2,0-.3,0-.5,0Z"/>
  </g>
  <g>
    <g>
      <g>
        <path class="cls-52" d="M1039.9,64.1c-.5,0-.9-.3-1-.8-.3-1.3-.6-2.6-.9-3.8-.1-.5.2-1.1.7-1.2.5-.1,1.1.2,1.2.7.4,1.3.7,2.6.9,4,.1.5-.2,1.1-.8,1.2,0,0-.1,0-.2,0Z"/>
        <path class="cls-52" d="M992.6,128.8c-.5,0-.9-.4-1-.9,0-.5.3-1,.9-1.1,2.8-.3,5.6-.9,8.2-1.6.5-.1,1.1.2,1.2.7.1.5-.2,1.1-.7,1.2-2.8.8-5.7,1.3-8.6,1.7,0,0,0,0-.1,0ZM978.7,128.6s0,0-.1,0c-2.9-.4-5.8-1-8.5-1.9-.5-.2-.8-.7-.7-1.2.2-.5.7-.8,1.2-.7,2.7.8,5.4,1.4,8.2,1.8.5,0,.9.6.9,1.1,0,.5-.5.9-1,.9ZM1013.8,121.7c-.3,0-.7-.2-.9-.5-.3-.5-.1-1.1.4-1.4,2.4-1.4,4.7-3,6.9-4.8.4-.4,1.1-.3,1.4.1.3.4.3,1.1-.1,1.4-2.2,1.8-4.7,3.5-7.2,5-.2,0-.3.1-.5.1ZM1030.4,106.8c-.2,0-.4,0-.6-.2-.4-.3-.5-1-.2-1.4,1.7-2.3,3.1-4.7,4.4-7.1.3-.5.9-.7,1.3-.4.5.3.7.9.4,1.3-1.3,2.6-2.9,5.1-4.6,7.4-.2.3-.5.4-.8.4ZM1039.6,86.4c0,0-.1,0-.2,0-.5-.1-.9-.7-.8-1.2.5-2.3.9-4.6,1.1-6.9,0-.5,0-.9.1-1.4,0-.6.5-1,1.1-.9.6,0,1,.5.9,1.1,0,.5,0,1-.1,1.4-.2,2.4-.6,4.8-1.1,7.2-.1.5-.5.8-1,.8Z"/>
        <path class="cls-52" d="M957.6,121c-.2,0-.4,0-.5-.1-1.1-.7-2.3-1.5-3.4-2.3-.4-.3-.5-.9-.2-1.4.3-.4.9-.5,1.4-.2,1.1.8,2.2,1.5,3.3,2.2.5.3.6.9.3,1.4-.2.3-.5.5-.9.5Z"/>
      </g>
      <g>
        <path class="cls-52" d="M932.6,84.4c-.5,0-.9-.3-1-.8-.2-1.3-.4-2.7-.6-4,0-.5.3-1,.9-1.1.6,0,1,.3,1.1.9.1,1.3.3,2.6.6,3.9,0,.5-.3,1.1-.8,1.2,0,0-.1,0-.2,0Z"/>
        <path class="cls-52" d="M932.3,66.8s0,0-.1,0c-.5,0-.9-.6-.8-1.1.4-2.8,1-5.6,1.9-8.4.2-.5.7-.8,1.2-.7.5.2.8.7.7,1.2-.8,2.6-1.4,5.3-1.8,8.1,0,.5-.5.9-1,.9ZM939.7,46.1c-.2,0-.4,0-.5-.1-.5-.3-.6-.9-.3-1.4,1.5-2.4,3.2-4.8,5-6.9.4-.4,1-.5,1.4-.1.4.4.5,1,.1,1.4-1.8,2.1-3.4,4.4-4.8,6.7-.2.3-.5.5-.9.5ZM954.7,30.1c-.3,0-.6-.1-.8-.4-.3-.5-.2-1.1.2-1.4,2.3-1.7,4.8-3.1,7.3-4.4.5-.2,1.1,0,1.3.4.2.5,0,1.1-.4,1.3-2.5,1.2-4.8,2.7-7.1,4.3-.2.1-.4.2-.6.2ZM1004.9,23.2c-.1,0-.2,0-.3,0-2.6-.9-5.3-1.7-8-2.2-.5-.1-.9-.6-.8-1.2.1-.5.6-.9,1.2-.8,2.8.5,5.6,1.3,8.3,2.3.5.2.8.8.6,1.3-.1.4-.5.7-.9.7ZM974.8,21.2c-.5,0-.9-.3-1-.8-.1-.5.2-1.1.8-1.2,2.8-.6,5.6-1,8.5-1.2.5,0,1,.4,1.1.9,0,.6-.4,1-.9,1.1-2.7.2-5.5.5-8.2,1.1,0,0-.1,0-.2,0Z"/>
        <path class="cls-52" d="M1020.3,31.9c-.2,0-.4,0-.6-.2-1-.8-2.1-1.6-3.2-2.3-.5-.3-.6-.9-.3-1.4.3-.5.9-.6,1.4-.3,1.1.8,2.2,1.6,3.3,2.4.4.3.5,1,.2,1.4-.2.2-.5.4-.8.4Z"/>
      </g>
      <g>
        <path class="cls-111" d="M1016.3,44.3c-.2-.2-.5-.3-.7-.2l-7.5,2.6c-2.9-2.3-6.2-4.2-9.8-5.5l-1.7-7.8c0-.3-.3-.5-.6-.5l-9.5-1.1c-.3,0-.5.1-.7.4l-3.5,7.2c-3.8.4-7.5,1.5-10.8,3l-6.7-4.3c-.2-.2-.5-.1-.8,0l-7.5,5.9c-.2.2-.3.5-.2.7l2.6,7.5c-2.3,2.9-4.2,6.2-5.5,9.8l-7.8,1.7c-.3,0-.5.3-.5.6l-1.1,9.5c0,.3.1.5.4.7l7.2,3.5c.4,3.8,1.5,7.5,3,10.8l-4.3,6.7c-.2.2-.1.5,0,.8l5.9,7.5c.2.2.5.3.7.2l7.5-2.6c2.9,2.3,6.2,4.2,9.8,5.5l1.7,7.8c0,.3.3.5.6.5l9.5,1.1c.3,0,.5-.1.7-.4l3.5-7.2c3.8-.4,7.5-1.5,10.8-3l6.7,4.3c.2.2.5.1.8,0l7.5-5.9c.2-.2.3-.5.2-.7l-2.6-7.5c2.3-2.9,4.2-6.2,5.5-9.8l7.8-1.7c.3,0,.5-.3.5-.6l1.1-9.5c0-.3-.1-.5-.4-.7l-7.2-3.5c-.4-3.8-1.5-7.5-3-10.8l4.3-6.7c.2-.2.1-.5,0-.8l-5.9-7.5Z"/>
        <path class="cls-52" d="M986.2,84c-2.2,0-4.3-.7-6.1-2.1-2.1-1.6-3.5-4-3.8-6.6-.7-5.5,3.2-10.5,8.6-11.2h0c5.5-.7,10.5,3.2,11.2,8.6.7,5.5-3.2,10.5-8.6,11.2-.4,0-.9,0-1.3,0ZM985.4,67.1c-1.9.2-3.5,1.2-4.6,2.7-1.1,1.5-1.6,3.3-1.4,5.2.5,3.8,4,6.5,7.8,6,3.8-.5,6.5-4,6-7.8-.5-3.8-4-6.5-7.8-6h0Z"/>
        <path class="cls-52" d="M986.1,98.7c-1,0-2,0-3-.2-12.5-1.5-21.6-12.1-21.6-24.4,0-1,0-2,.2-3,1.6-13.5,13.9-23.1,27.3-21.5h0c1.6.2,3.2.6,4.8,1.1.1,0,.2,0,.3.1l-1,2.8c-1.4-.5-2.9-.8-4.5-1h0c-7.8-.9-15.1,2.4-19.6,8.2-2.3,2.9-3.8,6.4-4.3,10.3,0,0,0,0,0,0,0,.1,0,.2,0,.3-.1.9-.2,1.7-.2,2.6,0,10.8,8.1,20.1,19,21.4,11.8,1.4,22.6-7,24-18.8.1-.9.2-1.7.2-2.6,0-3-.6-6-1.9-8.8l2.7-1.2c1.4,3.1,2.1,6.6,2.1,10,0,1,0,2-.2,2.9-1.5,12.5-12.1,21.6-24.4,21.6Z"/>
      </g>
    </g>
    <path class="cls-108" d="M943.1,98.3l-4.1,1.8c-1.7-1.2-3.7-2.1-5.7-2.6l-1.3-4.3c0-.2-.2-.3-.3-.3l-5.4-.2c-.2,0-.3,0-.4.2l-1.6,4.2c-2.1.4-4.1,1.1-5.9,2.2l-3.9-2.1c-.1,0-.3,0-.4,0l-3.9,3.6c-.1.1-.2.3,0,.4l1.8,4.1c-1.2,1.7-2.1,3.7-2.6,5.7l-4.3,1.3c-.1,0-.3.2-.3.3l-.2,5.4c0,.2,0,.3.2.4l4.2,1.6c.4,2.1,1.1,4.1,2.2,5.9l-2.1,3.9c0,.1,0,.3,0,.4l3.6,3.9c.1.1.3.2.4,0l4.1-1.8c1.7,1.2,3.7,2.1,5.7,2.6l1.3,4.3c0,.1.2.3.3.3l5.4.2c.2,0,.3,0,.4-.2l1.6-4.2c2.1-.4,4.1-1.1,5.9-2.2l3.9,2.1c.1,0,.3,0,.4,0l3.9-3.6c.1-.1.2-.3,0-.4l-1.8-4.1c1.2-1.7,2.1-3.7,2.6-5.7l4.3-1.3c.1,0,.3-.2.3-.3l.2-5.4c0-.2,0-.3-.2-.4l-4.2-1.6c-.4-2.1-1.1-4.1-2.2-5.9l2.1-3.9c0-.1,0-.3,0-.4l-3.6-3.9c-.1-.1-.3-.2-.4,0Z"/>
    <path class="cls-52" d="M928,122.5c-2.9,0-5.5-2-6.1-5-.7-3.4,1.5-6.7,4.8-7.4,3.4-.7,6.7,1.5,7.4,4.8.7,3.4-1.5,6.7-4.8,7.4-.4,0-.9.1-1.3.1ZM928,113c-.2,0-.4,0-.7,0-1.8.4-2.9,2.1-2.5,3.9.4,1.8,2.1,2.9,3.9,2.5,1.8-.4,2.9-2.1,2.5-3.9-.3-1.5-1.7-2.6-3.2-2.6Z"/>
    <g>
      <path class="cls-52" d="M954.2,105.5c-.4,0-.7-.2-.9-.6-.5-1.2-1.1-2.3-1.8-3.4-.3-.5-.2-1.1.3-1.4.5-.3,1.1-.2,1.4.3.7,1.2,1.4,2.4,2,3.6.2.5,0,1.1-.5,1.3-.1,0-.3,0-.4,0Z"/>
      <path class="cls-52" d="M937.2,144.5c-.4,0-.8-.3-.9-.7-.2-.5.1-1.1.6-1.3,2.8-.9,5.4-2.3,7.8-4.1.4-.3,1.1-.2,1.4.2.3.4.2,1.1-.2,1.4-2.5,1.9-5.3,3.4-8.3,4.4-.1,0-.2,0-.3,0ZM954.3,128.8c-.1,0-.3,0-.4,0-.5-.2-.7-.8-.5-1.3,1.2-2.7,1.9-5.6,2.2-8.5,0-.6.6-1,1.1-.9.5,0,1,.5.9,1.1-.3,3.1-1.1,6.2-2.4,9.1-.2.4-.5.6-.9.6Z"/>
      <path class="cls-52" d="M922.5,145.5c0,0-.1,0-.2,0-1.3-.3-2.7-.6-4-1.1-.5-.2-.8-.7-.6-1.3.2-.5.7-.8,1.3-.6,1.2.4,2.5.8,3.7,1,.5.1.9.6.8,1.2,0,.5-.5.8-1,.8Z"/>
    </g>
    <g>
      <path class="cls-52" d="M902.5,130.5c-.4,0-.7-.2-.9-.5-.6-1.2-1.2-2.5-1.6-3.8-.2-.5,0-1.1.6-1.3.5-.2,1.1,0,1.3.6.4,1.2.9,2.4,1.5,3.5.3.5,0,1.1-.4,1.3-.1,0-.3.1-.5.1Z"/>
      <path class="cls-52" d="M899.7,112.4c0,0-.1,0-.2,0-.5,0-.9-.6-.8-1.2.5-3.1,1.5-6,3-8.7.3-.5.9-.7,1.3-.4.5.3.7.9.4,1.3-1.3,2.6-2.3,5.3-2.8,8.2,0,.5-.5.8-1,.8ZM912.2,93.3c-.3,0-.6-.2-.8-.5-.3-.5-.2-1.1.3-1.4,2.6-1.7,5.4-3,8.4-3.8.5-.1,1.1.2,1.2.7.1.5-.2,1.1-.7,1.2-2.8.8-5.4,2-7.8,3.6-.2.1-.4.2-.5.2Z"/>
      <path class="cls-52" d="M938.6,90.6c-.1,0-.2,0-.4,0-1.2-.5-2.4-.9-3.7-1.2-.5-.1-.9-.7-.7-1.2.1-.5.7-.9,1.2-.7,1.3.3,2.7.7,3.9,1.3.5.2.8.8.6,1.3-.2.4-.5.6-.9.6Z"/>
    </g>
    <path class="cls-52" d="M927.9,130.8c-.2,0-.4,0-.6,0-3.9-.2-7.4-1.8-10-4.6-2.5-2.7-3.8-6.1-3.8-9.8,0-.2,0-.4,0-.6.2-3.9,1.8-7.4,4.6-10,2.8-2.6,6.5-4,10.4-3.8h0c.2,0,.5,0,.7,0,.7,0,1.3.2,2,.3,0,0,0,0,0,0,.1,0,.2,0,.3,0l-.8,2.9c-.8-.2-1.6-.3-2.4-.4h0c-3.1-.1-6,.9-8.2,3-2.2,2.1-3.5,4.9-3.7,7.9,0,.2,0,.3,0,.5,0,2.9,1.1,5.6,3,7.7,2.1,2.2,4.9,3.5,7.9,3.7,3,.1,6-.9,8.2-3,2.2-2.1,3.5-4.9,3.7-7.9,0-.2,0-.3,0-.5,0-1.9-.5-3.8-1.4-5.5l2.6-1.4c1.2,2.1,1.8,4.5,1.8,6.9s0,.4,0,.6c-.2,3.9-1.8,7.4-4.6,10-2.7,2.5-6.1,3.8-9.8,3.8Z"/>
  </g>
  <path class="cls-59" d="M195.6,544.9h0c-1,0-2,0-3.1-.1-1.1,0-1.9-1-1.9-2.1,0-1.1,1-1.9,2.1-1.9,1,0,1.9,0,2.9.1,1.1,0,2,.9,2,2,0,1.1-.9,2-2,2ZM202.6,544.7c-1,0-1.9-.8-2-1.9,0-1.1.8-2.1,1.9-2.1,1,0,1.9-.2,2.9-.3,1.1-.1,2.1.7,2.2,1.8.1,1.1-.7,2.1-1.8,2.2-1,.1-2,.2-3.1.3,0,0,0,0-.1,0ZM185.7,544.1c0,0-.2,0-.3,0h-.9c-.7-.3-1.4-.4-2.1-.5-1.1-.2-1.8-1.2-1.6-2.3.2-1.1,1.2-1.8,2.3-1.6.7.1,1.3.2,2,.3h.9c1.1.3,1.8,1.3,1.7,2.4-.1,1-1,1.7-2,1.7ZM212.6,543.4c-1,0-1.8-.7-2-1.6-.2-1.1.5-2.1,1.6-2.3,1-.2,1.9-.4,2.9-.6,1.1-.2,2.1.5,2.4,1.5.2,1.1-.5,2.1-1.5,2.4-1,.2-2,.4-3,.6-.1,0-.2,0-.4,0ZM175.9,541.9c-.2,0-.4,0-.6,0-1-.3-2-.6-2.9-.9-1-.3-1.6-1.5-1.3-2.5.4-1,1.5-1.6,2.5-1.3.9.3,1.8.6,2.8.9,1.1.3,1.7,1.4,1.4,2.5-.3.9-1.1,1.4-1.9,1.4ZM222.3,541.2c-.9,0-1.7-.6-1.9-1.5-.3-1.1.3-2.2,1.4-2.5.9-.3,1.9-.5,2.8-.8,1.1-.3,2.2.3,2.5,1.3.3,1.1-.3,2.2-1.3,2.5-1,.3-1.9.6-2.9.9-.2,0-.4,0-.5,0ZM166.5,538.5c-.3,0-.5,0-.8-.2-.9-.4-1.9-.8-2.8-1.3-1-.5-1.4-1.7-.9-2.7.5-1,1.7-1.4,2.7-.9.9.4,1.8.8,2.7,1.2,1,.4,1.5,1.6,1,2.6-.3.8-1.1,1.2-1.8,1.2ZM231.8,538.1c-.8,0-1.6-.5-1.9-1.3-.4-1,.2-2.2,1.2-2.6.9-.3,1.8-.7,2.8-1,1-.4,2.2.1,2.6,1.1.4,1-.1,2.2-1.1,2.6-.9.4-1.9.7-2.8,1.1-.2,0-.5.1-.7.1ZM241.1,534.4c-.8,0-1.5-.4-1.8-1.2-.4-1,0-2.2,1-2.6.9-.4,1.8-.8,2.7-1.2,1-.5,2.2,0,2.7,1,.5,1,0,2.2-1,2.7-.9.4-1.8.8-2.8,1.3-.3.1-.5.2-.8.2ZM157.6,534c-.3,0-.7,0-1-.3-.9-.5-1.8-1.1-2.6-1.6-.9-.6-1.2-1.8-.6-2.8s1.8-1.2,2.8-.6c.8.5,1.7,1,2.5,1.5,1,.6,1.3,1.8.7,2.7-.4.6-1,1-1.7,1ZM250.1,530c-.7,0-1.4-.4-1.8-1.1-.5-1-.1-2.2.9-2.7.9-.5,1.8-.9,2.6-1.4,1-.5,2.2-.2,2.7.8.5,1,.2,2.2-.8,2.7-.9.5-1.8.9-2.7,1.4-.3.1-.6.2-.9.2ZM149.4,528.4c-.4,0-.8-.1-1.2-.4-.8-.6-1.6-1.2-2.4-1.9-.9-.7-1-2-.3-2.8.7-.9,2-1,2.8-.3.8.6,1.5,1.2,2.3,1.8.9.7,1.1,1.9.4,2.8-.4.5-1,.8-1.6.8ZM258.9,525.2c-.7,0-1.4-.4-1.7-1-.5-1-.2-2.2.7-2.7.9-.5,1.7-1,2.6-1.5,1-.6,2.2-.2,2.7.7.6,1,.2,2.2-.7,2.7-.9.5-1.7,1-2.6,1.5-.3.2-.7.3-1,.3ZM141.7,522c-.5,0-1-.2-1.4-.5-.7-.7-1.5-1.4-2.2-2.1-.8-.8-.8-2,0-2.8.8-.8,2-.8,2.8,0,.7.7,1.4,1.4,2.1,2,.8.8.9,2,0,2.8-.4.4-.9.6-1.5.6ZM267.4,520.1c-.7,0-1.3-.3-1.7-.9-.6-.9-.3-2.2.6-2.8.8-.5,1.7-1.1,2.5-1.6.9-.6,2.2-.3,2.8.6.6.9.3,2.2-.6,2.8-.8.5-1.7,1.1-2.6,1.6-.3.2-.7.3-1.1.3ZM134.7,514.8c-.6,0-1.1-.2-1.5-.7-.7-.8-1.3-1.5-2-2.3-.7-.8-.6-2.1.2-2.8.8-.7,2.1-.6,2.8.2.6.8,1.3,1.5,1.9,2.2.7.8.7,2.1-.2,2.8-.4.3-.9.5-1.3.5ZM275.8,514.7c-.6,0-1.3-.3-1.7-.9-.6-.9-.4-2.2.6-2.8.8-.6,1.7-1.1,2.5-1.7.9-.6,2.2-.4,2.8.5.6.9.4,2.2-.5,2.8-.8.6-1.7,1.1-2.5,1.7-.3.2-.7.3-1.1.3ZM284.1,509c-.6,0-1.2-.3-1.6-.8-.6-.9-.4-2.2.5-2.8.8-.6,1.6-1.2,2.4-1.7.9-.6,2.1-.4,2.8.5.6.9.4,2.1-.5,2.8-.8.6-1.6,1.2-2.5,1.7-.4.2-.8.4-1.2.4ZM128.4,507c-.6,0-1.2-.3-1.6-.8-.6-.8-1.2-1.6-1.8-2.5-.6-.9-.4-2.2.5-2.8.9-.6,2.2-.4,2.8.5.6.8,1.1,1.6,1.7,2.4.7.9.5,2.1-.4,2.8-.4.3-.8.4-1.2.4ZM292.2,503.1c-.6,0-1.2-.3-1.6-.8-.7-.9-.5-2.1.4-2.8.8-.6,1.6-1.2,2.4-1.8.9-.7,2.1-.5,2.8.4.7.9.5,2.1-.4,2.8-.8.6-1.6,1.2-2.4,1.8-.4.3-.8.4-1.2.4ZM122.9,498.7c-.7,0-1.3-.3-1.7-1-.5-.9-1.1-1.7-1.6-2.6-.6-1-.2-2.2.7-2.7,1-.6,2.2-.2,2.7.7.5.9,1,1.7,1.5,2.5.6.9.3,2.2-.7,2.8-.3.2-.7.3-1,.3ZM300.1,497.1c-.6,0-1.2-.3-1.6-.8-.7-.9-.5-2.1.3-2.8.8-.6,1.6-1.2,2.3-1.8.9-.7,2.1-.5,2.8.3.7.9.5,2.1-.3,2.8-.8.6-1.6,1.2-2.4,1.9-.4.3-.8.4-1.2.4ZM307.9,490.8c-.6,0-1.2-.2-1.5-.7-.7-.9-.6-2.1.3-2.8.8-.6,1.5-1.3,2.3-1.9.9-.7,2.1-.6,2.8.3.7.8.6,2.1-.3,2.8-.8.6-1.5,1.3-2.3,1.9-.4.3-.8.5-1.3.5ZM118,490c-.7,0-1.4-.4-1.8-1.1-.5-.9-.9-1.8-1.3-2.7-.5-1,0-2.2,1-2.7,1-.5,2.2,0,2.7,1,.4.9.9,1.8,1.3,2.6.5,1,.1,2.2-.9,2.7-.3.1-.6.2-.9.2ZM315.6,484.4c-.6,0-1.1-.2-1.5-.7-.7-.8-.6-2.1.2-2.8.8-.6,1.5-1.3,2.3-1.9.8-.7,2.1-.6,2.8.2.7.8.6,2.1-.2,2.8-.8.7-1.5,1.3-2.3,2-.4.3-.8.5-1.3.5ZM113.8,480.9c-.8,0-1.5-.5-1.9-1.2-.3-.7-.6-1.4-.8-2.1l-.3-.7c-.4-1,.1-2.2,1.2-2.6,1-.4,2.2.1,2.6,1.2l.3.7c.3.7.5,1.4.8,2,.4,1,0,2.2-1.1,2.6-.2,0-.5.1-.8.1ZM323.1,477.8c-.6,0-1.1-.2-1.5-.7-.7-.8-.7-2.1.2-2.8.7-.7,1.5-1.3,2.2-2,.8-.7,2.1-.7,2.8.2.7.8.7,2.1-.2,2.8-.7.7-1.5,1.3-2.2,2-.4.3-.9.5-1.3.5ZM110.4,471.5c-.8,0-1.6-.5-1.9-1.4-.3-1-.6-1.9-.9-2.9-.3-1.1.3-2.2,1.4-2.5,1.1-.3,2.2.3,2.5,1.4.3.9.6,1.9.9,2.8.3,1.1-.2,2.2-1.3,2.5-.2,0-.4,0-.6,0ZM330.5,471.1c-.5,0-1.1-.2-1.5-.6-.7-.8-.7-2.1.1-2.8.7-.7,1.5-1.3,2.2-2,.8-.8,2.1-.7,2.8,0,.8.8.7,2.1,0,2.8-.7.7-1.5,1.4-2.2,2-.4.4-.9.5-1.4.5ZM337.8,464.3c-.5,0-1.1-.2-1.4-.6-.8-.8-.7-2.1,0-2.8.7-.7,1.4-1.4,2.2-2.1.8-.8,2.1-.7,2.8,0,.8.8.7,2.1,0,2.8-.7.7-1.4,1.4-2.2,2.1-.4.4-.9.6-1.4.6ZM107.8,461.9c-.9,0-1.7-.6-1.9-1.5-.2-1-.5-2-.7-3-.2-1.1.4-2.1,1.5-2.4,1.1-.2,2.1.4,2.4,1.5.2,1,.4,1.9.7,2.9.3,1.1-.4,2.2-1.5,2.4-.2,0-.3,0-.5,0ZM345,457.3c-.5,0-1-.2-1.4-.6-.8-.8-.8-2.1,0-2.8.7-.7,1.4-1.4,2.1-2.1.8-.8,2.1-.8,2.8,0,.8.8.8,2.1,0,2.8-.7.7-1.4,1.4-2.1,2.1-.4.4-.9.6-1.4.6ZM105.8,452.1c-1,0-1.8-.7-2-1.7-.2-1-.3-2-.5-3-.2-1.1.6-2.1,1.7-2.3,1.1-.2,2.1.6,2.3,1.7.1,1,.3,1.9.5,2.9.2,1.1-.6,2.1-1.6,2.3-.1,0-.2,0-.3,0ZM352.1,450.3c-.5,0-1-.2-1.4-.6-.8-.8-.8-2,0-2.8.7-.7,1.4-1.4,2.1-2.1.8-.8,2-.8,2.8,0,.8.8.8,2,0,2.8-.7.7-1.4,1.4-2.1,2.1-.4.4-.9.6-1.4.6ZM359.1,443.2c-.5,0-1-.2-1.4-.6-.8-.8-.8-2,0-2.8l2.1-2.2c.8-.8,2-.8,2.8,0,.8.8.8,2,0,2.8l-2.1,2.2c-.4.4-.9.6-1.4.6ZM104.5,442.1c-1,0-1.9-.8-2-1.8,0-1-.2-2-.3-3,0-1.1.7-2.1,1.8-2.1,1.1,0,2.1.7,2.1,1.8,0,1,.2,2,.3,2.9.1,1.1-.7,2.1-1.8,2.2,0,0-.1,0-.2,0ZM366.1,435.9c-.5,0-1-.2-1.4-.6-.8-.8-.8-2,0-2.8l2.1-2.2c.8-.8,2-.8,2.8,0,.8.8.8,2,0,2.8l-2.1,2.2c-.4.4-.9.6-1.4.6ZM103.8,432.2c-1.1,0-2-.9-2-1.9,0-1,0-2,0-3,0-1.1.9-2,2-2h0c1.1,0,2,.9,2,2,0,1,0,2,0,3,0,1.1-.8,2-1.9,2.1,0,0,0,0,0,0ZM372.9,428.7c-.5,0-1-.2-1.4-.5-.8-.8-.9-2,0-2.8l2-2.2c.8-.8,2-.9,2.8-.1.8.8.9,2,.1,2.8l-2,2.2c-.4.4-.9.6-1.5.6ZM103.9,422.2s0,0,0,0c-1.1,0-2-1-1.9-2.1,0-1,0-2,.2-3,0-1.1,1-1.9,2.1-1.9,1.1,0,1.9,1,1.9,2.1,0,1-.1,2-.2,3,0,1.1-.9,1.9-2,1.9ZM379.7,421.3c-.5,0-1-.2-1.4-.5-.8-.7-.9-2-.1-2.8l2-2.2c.7-.8,2-.9,2.8-.1.8.7.9,2,.1,2.8l-2,2.2c-.4.4-.9.6-1.5.6ZM386.5,414c-.5,0-1-.2-1.3-.5-.8-.7-.9-2-.1-2.8l2-2.2c.7-.8,2-.9,2.8-.1.8.7.9,2,.1,2.8l-2,2.2c-.4.4-.9.7-1.5.7ZM104.7,412.2c0,0-.1,0-.2,0-1.1-.1-1.9-1.1-1.8-2.2.1-1,.2-2,.4-3,.1-1.1,1.2-1.9,2.2-1.7,1.1.1,1.9,1.1,1.7,2.2-.1,1-.2,2-.4,2.9-.1,1-1,1.8-2,1.8ZM393.2,406.5c-.5,0-1-.2-1.3-.5-.8-.7-.9-2-.1-2.8l2-2.2c.7-.8,2-.9,2.8-.1.8.7.9,2,.1,2.8l-2,2.2c-.4.4-.9.7-1.5.7ZM106.1,402.3c-.1,0-.2,0-.4,0-1.1-.2-1.8-1.2-1.6-2.3.2-1,.4-2,.6-3,.2-1.1,1.3-1.8,2.4-1.6,1.1.2,1.8,1.3,1.6,2.4-.2,1-.4,1.9-.6,2.9-.2,1-1,1.6-2,1.6ZM399.9,399.1c-.5,0-1-.2-1.3-.5-.8-.7-.9-2-.2-2.8l2-2.2c.7-.8,2-.9,2.8-.2.8.7.9,2,.2,2.8l-2,2.2c-.4.4-.9.7-1.5.7ZM108.3,392.5c-.2,0-.3,0-.5,0-1.1-.3-1.7-1.4-1.4-2.4.2-1,.5-2,.8-2.9.3-1.1,1.4-1.7,2.5-1.4,1.1.3,1.7,1.4,1.4,2.5-.3,1-.5,1.9-.8,2.9-.2.9-1,1.5-1.9,1.5ZM406.6,391.7c-.5,0-1-.2-1.3-.5-.8-.7-.9-2-.2-2.8l2-2.2c.7-.8,2-.9,2.8-.2.8.7.9,2,.2,2.8l-2,2.2c-.4.4-.9.7-1.5.7ZM413.2,384.2c-.5,0-1-.2-1.3-.5-.8-.7-.9-2-.2-2.8l2-2.2c.7-.8,2-.9,2.8-.2.8.7.9,2,.2,2.8l-2,2.2c-.4.4-.9.7-1.5.7ZM111.1,382.9c-.2,0-.4,0-.6-.1-1-.3-1.6-1.5-1.3-2.5.3-1,.6-1.9,1-2.9.4-1,1.5-1.6,2.6-1.2,1,.4,1.6,1.5,1.2,2.6-.3.9-.6,1.9-1,2.8-.3.8-1.1,1.4-1.9,1.4ZM419.9,376.8c-.5,0-1-.2-1.3-.5-.8-.7-.9-2-.1-2.8l2-2.2c.7-.8,2-.9,2.8-.1.8.7.9,2,.1,2.8l-2,2.2c-.4.4-.9.7-1.5.7ZM114.5,373.6c-.3,0-.5,0-.8-.2-1-.4-1.5-1.6-1.1-2.6.4-.9.8-1.9,1.2-2.8.4-1,1.6-1.5,2.6-1,1,.4,1.5,1.6,1,2.6-.4.9-.8,1.8-1.2,2.7-.3.8-1.1,1.2-1.8,1.2ZM426.6,369.4c-.5,0-1-.2-1.3-.5-.8-.7-.9-2-.1-2.8l2-2.2c.7-.8,2-.9,2.8-.1.8.7.9,2,.1,2.8l-2,2.2c-.4.4-.9.7-1.5.7ZM118.7,364.5c-.3,0-.6,0-.9-.2-1-.5-1.4-1.7-.9-2.7.4-.8.8-1.6,1.2-2.4l.2-.3c.5-1,1.7-1.3,2.7-.8,1,.5,1.3,1.7.8,2.7l-.2.3c-.4.8-.8,1.5-1.2,2.3-.4.7-1.1,1.1-1.8,1.1ZM433.3,362c-.5,0-1-.2-1.3-.5-.8-.7-.9-2-.1-2.8l2-2.2c.7-.8,2-.9,2.8-.1.8.7.9,2,.1,2.8l-2,2.2c-.4.4-.9.7-1.5.7ZM123.5,355.7c-.3,0-.7,0-1-.3-.9-.6-1.3-1.8-.7-2.7.5-.9,1.1-1.7,1.6-2.6.6-.9,1.8-1.2,2.8-.6.9.6,1.2,1.8.6,2.8-.5.8-1,1.7-1.5,2.5-.4.6-1,1-1.7,1ZM440.1,354.6c-.5,0-1-.2-1.4-.5-.8-.8-.9-2-.1-2.8l2-2.2c.8-.8,2-.9,2.8-.1.8.8.9,2,.1,2.8l-2,2.2c-.4.4-.9.6-1.5.6ZM128.9,347.3c-.4,0-.8-.1-1.1-.4-.9-.6-1.1-1.9-.5-2.8.6-.8,1.2-1.7,1.8-2.5.7-.9,1.9-1.1,2.8-.4.9.7,1.1,1.9.4,2.8-.6.8-1.2,1.6-1.7,2.4-.4.6-1,.9-1.6.9ZM446.9,347.3c-.5,0-1-.2-1.4-.5-.8-.8-.8-2,0-2.8l2.1-2.2c.8-.8,2-.8,2.8,0,.8.8.8,2,0,2.8l-2.1,2.2c-.4.4-.9.6-1.5.6ZM453.8,340c-.5,0-1-.2-1.4-.6-.8-.8-.8-2,0-2.8l2.1-2.2c.8-.8,2-.8,2.8,0,.8.8.8,2,0,2.8l-2.1,2.2c-.4.4-.9.6-1.4.6ZM135,339.3c-.4,0-.9-.1-1.3-.4-.9-.7-1-2-.3-2.8.6-.8,1.3-1.6,1.9-2.3.7-.8,2-.9,2.8-.2.8.7.9,2,.2,2.8-.6.8-1.3,1.5-1.9,2.3-.4.5-1,.7-1.6.7ZM460.8,332.8c-.5,0-1-.2-1.4-.6-.8-.8-.8-2,0-2.8.7-.7,1.4-1.4,2.1-2.1.8-.8,2-.8,2.8,0,.8.8.8,2,0,2.8-.7.7-1.4,1.4-2.1,2.1-.4.4-.9.6-1.4.6ZM141.5,331.8c-.5,0-1-.2-1.4-.5-.8-.8-.8-2,0-2.8.7-.7,1.4-1.5,2.1-2.2.8-.8,2-.8,2.8,0,.8.8.8,2,0,2.8-.7.7-1.4,1.4-2,2.1-.4.4-.9.6-1.5.6ZM467.8,325.7c-.5,0-1-.2-1.4-.6-.8-.8-.8-2,0-2.8.7-.7,1.4-1.4,2.1-2.1.8-.8,2.1-.8,2.8,0,.8.8.8,2.1,0,2.8-.7.7-1.4,1.4-2.1,2.1-.4.4-.9.6-1.4.6ZM148.6,324.8c-.5,0-1.1-.2-1.5-.6-.8-.8-.7-2.1.1-2.8.7-.7,1.5-1.4,2.2-2,.8-.7,2.1-.7,2.8.2.7.8.7,2.1-.2,2.8-.7.7-1.5,1.3-2.2,2-.4.4-.9.5-1.4.5ZM475,318.7c-.5,0-1-.2-1.4-.6-.8-.8-.7-2.1,0-2.8.7-.7,1.4-1.4,2.2-2.1.8-.8,2.1-.7,2.8,0,.8.8.7,2.1,0,2.8-.7.7-1.4,1.4-2.2,2.1-.4.4-.9.6-1.4.6ZM156.2,318.2c-.6,0-1.2-.3-1.6-.7-.7-.9-.6-2.1.3-2.8.8-.6,1.6-1.3,2.4-1.9.9-.7,2.1-.5,2.8.4.7.9.5,2.1-.4,2.8-.8.6-1.6,1.2-2.3,1.8-.4.3-.8.4-1.3.4ZM164.2,312.2c-.6,0-1.3-.3-1.6-.9-.6-.9-.4-2.2.5-2.8.8-.6,1.7-1.2,2.5-1.7.9-.6,2.2-.4,2.8.5.6.9.4,2.2-.5,2.8-.8.6-1.6,1.1-2.4,1.7-.3.2-.7.4-1.1.4ZM482.2,311.8c-.5,0-1.1-.2-1.5-.6-.8-.8-.7-2.1,0-2.8.7-.7,1.5-1.4,2.2-2.1.8-.8,2.1-.7,2.8.1.8.8.7,2.1-.1,2.8-.7.7-1.5,1.4-2.2,2-.4.4-.9.5-1.4.5ZM172.5,306.7c-.7,0-1.3-.3-1.7-1-.6-.9-.3-2.2.7-2.7.9-.5,1.7-1,2.6-1.5,1-.6,2.2-.2,2.7.7.6,1,.2,2.2-.7,2.7-.9.5-1.7,1-2.5,1.5-.3.2-.7.3-1,.3ZM489.5,305.1c-.5,0-1.1-.2-1.5-.7-.7-.8-.7-2.1.1-2.8.7-.7,1.5-1.3,2.2-2,.8-.7,2.1-.7,2.8.2.7.8.7,2.1-.2,2.8-.7.7-1.5,1.3-2.2,2-.4.3-.9.5-1.3.5ZM181.3,301.8c-.7,0-1.4-.4-1.8-1.1-.5-1-.1-2.2.9-2.7.9-.5,1.8-.9,2.7-1.4,1-.5,2.2,0,2.7.9.5,1,0,2.2-.9,2.7-.9.4-1.8.9-2.6,1.3-.3.2-.6.2-.9.2ZM497,298.4c-.6,0-1.1-.2-1.5-.7-.7-.8-.6-2.1.2-2.8.8-.7,1.5-1.3,2.3-2,.8-.7,2.1-.6,2.8.2.7.8.6,2.1-.2,2.8-.8.7-1.5,1.3-2.3,2-.4.3-.8.5-1.3.5ZM190.3,297.6c-.8,0-1.5-.5-1.8-1.2-.4-1,0-2.2,1.1-2.6.9-.4,1.9-.8,2.8-1.2,1-.4,2.2,0,2.6,1.1.4,1,0,2.2-1.1,2.6-.9.4-1.8.7-2.7,1.1-.3.1-.5.2-.8.2ZM199.6,294c-.8,0-1.6-.5-1.9-1.4-.4-1,.2-2.2,1.2-2.5,1-.3,1.9-.6,2.9-1,1.1-.3,2.2.2,2.5,1.3.3,1.1-.2,2.2-1.3,2.5-.9.3-1.9.6-2.8.9-.2,0-.4.1-.7.1ZM504.6,291.9c-.6,0-1.1-.2-1.5-.7-.7-.8-.6-2.1.2-2.8.8-.6,1.5-1.3,2.3-1.9.8-.7,2.1-.6,2.8.3s.6,2.1-.3,2.8c-.8.6-1.5,1.3-2.3,1.9-.4.3-.8.5-1.3.5ZM209.2,291.1c-.9,0-1.7-.6-1.9-1.5-.3-1.1.4-2.2,1.4-2.4,1-.3,2-.5,3-.7,1.1-.3,2.2.4,2.4,1.5.3,1.1-.4,2.2-1.5,2.4-1,.2-1.9.5-2.9.7-.2,0-.3,0-.5,0ZM512.3,285.5c-.6,0-1.2-.3-1.6-.7-.7-.9-.6-2.1.3-2.8.8-.6,1.6-1.3,2.4-1.9.9-.7,2.1-.5,2.8.3.7.9.5,2.1-.3,2.8-.8.6-1.6,1.2-2.3,1.9-.4.3-.8.4-1.3.4ZM520.2,279.4c-.6,0-1.2-.3-1.6-.8-.7-.9-.5-2.1.4-2.8.8-.6,1.6-1.2,2.4-1.8.9-.7,2.1-.5,2.8.4.7.9.5,2.1-.4,2.8-.8.6-1.6,1.2-2.4,1.8-.4.3-.8.4-1.2.4ZM528.2,273.4c-.6,0-1.2-.3-1.6-.8-.6-.9-.5-2.1.4-2.8.8-.6,1.6-1.2,2.4-1.8.9-.6,2.1-.4,2.8.5.6.9.4,2.1-.5,2.8-.8.6-1.6,1.2-2.4,1.7-.4.3-.8.4-1.2.4ZM536.4,267.6c-.6,0-1.3-.3-1.7-.9-.6-.9-.4-2.2.5-2.8.8-.6,1.7-1.1,2.5-1.7.9-.6,2.2-.4,2.8.5.6.9.4,2.2-.5,2.8-.8.6-1.6,1.1-2.5,1.7-.3.2-.7.4-1.1.4ZM544.7,262.1c-.7,0-1.3-.3-1.7-.9-.6-.9-.3-2.2.6-2.8.8-.5,1.7-1.1,2.5-1.6.9-.6,2.2-.3,2.8.6.6.9.3,2.2-.6,2.8-.8.5-1.7,1.1-2.5,1.6-.3.2-.7.3-1.1.3ZM553.2,256.8c-.7,0-1.3-.3-1.7-1-.6-.9-.3-2.2.7-2.7.9-.5,1.7-1,2.6-1.6.9-.6,2.2-.3,2.7.7.6.9.3,2.2-.7,2.7-.9.5-1.7,1-2.6,1.5-.3.2-.7.3-1,.3ZM561.8,251.7c-.7,0-1.4-.4-1.7-1-.5-1-.2-2.2.8-2.7.9-.5,1.8-1,2.6-1.5,1-.5,2.2-.2,2.7.8.5,1,.2,2.2-.8,2.7-.9.5-1.7,1-2.6,1.5-.3.2-.6.3-1,.3ZM570.6,247c-.7,0-1.4-.4-1.8-1.1-.5-1-.1-2.2.8-2.7.9-.5,1.8-.9,2.7-1.4,1-.5,2.2-.1,2.7.9.5,1,.1,2.2-.9,2.7-.9.5-1.8.9-2.6,1.4-.3.2-.6.2-.9.2ZM579.5,242.5c-.7,0-1.5-.4-1.8-1.1-.5-1,0-2.2.9-2.7.9-.4,1.8-.9,2.7-1.3,1-.5,2.2,0,2.7,1s0,2.2-1,2.7c-.9.4-1.8.9-2.7,1.3-.3.1-.6.2-.9.2ZM588.6,238.3c-.8,0-1.5-.4-1.8-1.2-.4-1,0-2.2,1-2.6.9-.4,1.8-.8,2.8-1.2,1-.4,2.2,0,2.6,1,.4,1,0,2.2-1,2.6-.9.4-1.8.8-2.7,1.2-.3.1-.5.2-.8.2ZM597.8,234.4c-.8,0-1.5-.5-1.9-1.3-.4-1,0-2.2,1.1-2.6.9-.4,1.9-.7,2.8-1.1,1-.4,2.2.1,2.6,1.1.4,1-.1,2.2-1.1,2.6-.9.4-1.9.7-2.8,1.1-.2,0-.5.1-.7.1ZM607.2,230.9c-.8,0-1.6-.5-1.9-1.3-.4-1,.2-2.2,1.2-2.6,1-.3,1.9-.7,2.9-1,1-.4,2.2.2,2.5,1.2.4,1-.2,2.2-1.2,2.5-.9.3-1.9.7-2.8,1-.2,0-.4.1-.7.1ZM616.7,227.7c-.9,0-1.6-.5-1.9-1.4-.3-1.1.3-2.2,1.3-2.5,1-.3,1.9-.6,2.9-.9,1.1-.3,2.2.3,2.5,1.3.3,1.1-.3,2.2-1.3,2.5-1,.3-1.9.6-2.8.9-.2,0-.4,0-.6,0ZM626.3,224.9c-.9,0-1.7-.6-1.9-1.5-.3-1.1.3-2.2,1.4-2.5,1-.3,2-.5,2.9-.8,1.1-.3,2.2.4,2.4,1.4.3,1.1-.4,2.2-1.4,2.4-1,.2-1.9.5-2.9.8-.2,0-.3,0-.5,0ZM636,222.5c-.9,0-1.7-.6-2-1.6-.2-1.1.4-2.1,1.5-2.4,1-.2,2-.4,3-.6,1.1-.2,2.1.5,2.4,1.5.2,1.1-.5,2.1-1.5,2.4-1,.2-1.9.4-2.9.6-.1,0-.3,0-.4,0ZM645.8,220.5c-1,0-1.8-.7-2-1.7-.2-1.1.5-2.1,1.6-2.3,1-.2,2-.3,3-.5,1.1-.2,2.1.6,2.3,1.7.2,1.1-.6,2.1-1.7,2.3-1,.2-2,.3-2.9.5-.1,0-.2,0-.3,0ZM655.7,219c-1,0-1.9-.7-2-1.7-.1-1.1.6-2.1,1.7-2.2,1-.1,2-.3,3-.4,1.1-.1,2.1.7,2.2,1.8.1,1.1-.7,2.1-1.8,2.2-1,.1-2,.2-3,.4,0,0-.2,0-.3,0ZM665.6,218c-1,0-1.9-.8-2-1.8,0-1.1.7-2.1,1.8-2.2,1,0,2-.2,3-.2,1.1-.1,2.1.8,2.1,1.9,0,1.1-.8,2.1-1.9,2.1-1,0-2,.1-3,.2,0,0-.1,0-.2,0ZM675.6,217.4c-1.1,0-2-.9-2-1.9,0-1.1.8-2,1.9-2.1,1,0,2,0,3,0,1.1,0,2,.9,2,2,0,1.1-.9,2-2,2-1,0-2,0-3,0,0,0,0,0,0,0Z"/>
  <path class="cls-59" d="M645.6,603.2h0c-1,0-2,0-3.1,0-1.1,0-2-1-1.9-2.1,0-1.1.9-2,2.1-1.9,1,0,2,0,2.9,0,1.1,0,2,.9,2,2,0,1.1-.9,2-2,2ZM652.6,603c-1,0-1.9-.8-2-1.9,0-1.1.7-2.1,1.8-2.1,1,0,2-.2,2.9-.3,1.1-.1,2.1.7,2.2,1.8.1,1.1-.7,2.1-1.8,2.2-1,.1-2,.2-3.1.3,0,0,0,0-.1,0ZM635.7,602.7c0,0-.1,0-.2,0-1-.1-2-.2-3-.4-1.1-.2-1.9-1.2-1.7-2.3.2-1.1,1.2-1.9,2.3-1.7,1,.1,1.9.3,2.9.4,1.1.1,1.9,1.1,1.8,2.2-.1,1-1,1.8-2,1.8ZM662.5,601.7c-.9,0-1.8-.7-2-1.6-.2-1.1.5-2.1,1.6-2.3,1-.2,1.9-.4,2.9-.6,1.1-.2,2.1.5,2.4,1.6.2,1.1-.5,2.1-1.6,2.4-1,.2-2,.4-3,.6-.1,0-.2,0-.4,0ZM625.8,601.1c-.1,0-.3,0-.4,0-1-.2-2-.4-3-.7-1.1-.3-1.7-1.3-1.5-2.4.3-1.1,1.3-1.7,2.4-1.5,1,.2,1.9.5,2.9.7,1.1.2,1.8,1.3,1.5,2.4-.2.9-1,1.6-2,1.6ZM672.3,599.5c-.9,0-1.7-.6-1.9-1.5-.3-1.1.3-2.2,1.4-2.5.9-.3,1.9-.5,2.8-.8,1.1-.3,2.2.3,2.5,1.3.3,1.1-.3,2.2-1.3,2.5-1,.3-1.9.6-2.9.8-.2,0-.4,0-.5,0ZM616.1,598.5c-.2,0-.4,0-.6,0-1-.3-1.9-.6-2.9-1-1-.4-1.6-1.5-1.2-2.6.4-1,1.5-1.6,2.6-1.2.9.3,1.8.6,2.8.9,1.1.3,1.6,1.5,1.3,2.5-.3.8-1.1,1.4-1.9,1.4ZM681.8,596.5c-.8,0-1.6-.5-1.9-1.3-.4-1,.2-2.2,1.2-2.6.9-.3,1.8-.7,2.8-1,1-.4,2.2.1,2.6,1.1.4,1-.1,2.2-1.1,2.6-.9.4-1.9.7-2.9,1.1-.2,0-.5.1-.7.1ZM606.8,595c-.3,0-.5,0-.8-.2-.9-.4-1.9-.9-2.8-1.3-1-.5-1.4-1.7-.9-2.7.5-1,1.7-1.4,2.7-.9.9.4,1.8.8,2.7,1.2,1,.5,1.5,1.6,1,2.6-.3.7-1.1,1.2-1.8,1.2ZM691.1,592.8c-.8,0-1.5-.4-1.8-1.2-.4-1,0-2.2,1-2.6.9-.4,1.8-.8,2.7-1.2,1-.5,2.2,0,2.7,1,.5,1,0,2.2-1,2.7-.9.4-1.8.9-2.8,1.3-.3.1-.5.2-.8.2ZM597.9,590.4c-.3,0-.7,0-1-.3-.9-.5-1.8-1.1-2.6-1.6-.9-.6-1.2-1.8-.6-2.8.6-.9,1.8-1.2,2.8-.6.8.5,1.7,1,2.5,1.5,1,.6,1.3,1.8.7,2.7-.4.6-1,1-1.7,1ZM700.1,588.4c-.7,0-1.4-.4-1.8-1.1-.5-1-.1-2.2.8-2.7.9-.5,1.7-.9,2.6-1.4,1-.5,2.2-.2,2.7.8.5,1,.2,2.2-.8,2.7-.9.5-1.8,1-2.7,1.4-.3.2-.6.2-.9.2ZM589.6,584.8c-.4,0-.9-.1-1.2-.4-.8-.6-1.6-1.3-2.4-1.9-.8-.7-1-2-.3-2.8.7-.8,2-1,2.8-.3.7.6,1.5,1.2,2.3,1.8.9.7,1,1.9.4,2.8-.4.5-1,.8-1.6.8ZM708.8,583.5c-.7,0-1.3-.3-1.7-1-.6-.9-.3-2.2.7-2.7.8-.5,1.7-1,2.5-1.6.9-.6,2.2-.3,2.8.6.6.9.3,2.2-.6,2.8-.9.5-1.7,1.1-2.6,1.6-.3.2-.7.3-1,.3ZM582.1,578.2c-.5,0-1-.2-1.4-.6-.7-.7-1.4-1.5-2.1-2.2-.7-.8-.7-2.1.1-2.8.8-.7,2.1-.7,2.8.1.7.7,1.3,1.4,2,2.1.8.8.8,2.1,0,2.8-.4.4-.9.6-1.4.6ZM717.2,578.1c-.6,0-1.3-.3-1.7-.9-.6-.9-.4-2.2.5-2.8.8-.6,1.6-1.1,2.4-1.7.9-.6,2.2-.4,2.8.5.6.9.4,2.2-.5,2.8-.8.6-1.7,1.2-2.5,1.7-.3.2-.7.3-1.1.3ZM725.3,572.2c-.6,0-1.2-.3-1.6-.8-.7-.9-.5-2.1.4-2.8.8-.6,1.6-1.2,2.4-1.8.9-.7,2.1-.5,2.8.4.7.9.5,2.1-.4,2.8-.8.6-1.6,1.2-2.4,1.8-.4.3-.8.4-1.2.4ZM575.6,570.6c-.6,0-1.2-.3-1.6-.8-.6-.8-1.2-1.7-1.8-2.5-.6-.9-.4-2.2.6-2.8.9-.6,2.2-.4,2.8.6.5.8,1.1,1.6,1.7,2.4.7.9.5,2.1-.4,2.8-.4.3-.8.4-1.2.4ZM733.2,566c-.6,0-1.1-.2-1.5-.7-.7-.9-.6-2.1.3-2.8.8-.6,1.5-1.3,2.3-1.9.8-.7,2.1-.6,2.8.2.7.8.6,2.1-.2,2.8-.8.7-1.5,1.3-2.3,1.9-.4.3-.8.5-1.3.5ZM570.4,562.1c-.7,0-1.4-.4-1.8-1.1-.5-.9-.9-1.9-1.3-2.8-.5-1,0-2.2,1-2.6,1-.5,2.2,0,2.6,1,.4.9.8,1.8,1.3,2.6.5,1,.1,2.2-.9,2.7-.3.2-.6.2-.9.2ZM740.8,559.5c-.6,0-1.1-.2-1.5-.7-.7-.8-.7-2.1.2-2.8.7-.7,1.5-1.3,2.2-2,.8-.7,2.1-.7,2.8.1.7.8.7,2.1-.1,2.8-.7.7-1.5,1.3-2.2,2-.4.3-.9.5-1.3.5ZM566.5,552.9c-.8,0-1.6-.5-1.9-1.4,0-.3-.2-.6-.3-.9-.2-.7-.4-1.4-.6-2.1-.3-1.1.3-2.2,1.4-2.4,1.1-.3,2.2.4,2.4,1.4.2.7.4,1.3.6,1.9,0,.3.2.6.3.8.3,1.1-.2,2.2-1.3,2.5-.2,0-.4,0-.6,0ZM748.1,552.8c-.5,0-1.1-.2-1.5-.6-.8-.8-.7-2.1,0-2.8.7-.7,1.4-1.4,2.2-2.1.8-.8,2.1-.7,2.8,0,.8.8.7,2.1,0,2.8-.7.7-1.5,1.4-2.2,2.1-.4.4-.9.5-1.4.5ZM755.3,545.8c-.5,0-1-.2-1.4-.6-.8-.8-.8-2,0-2.8.7-.7,1.4-1.4,2.1-2.1.8-.8,2-.8,2.8,0,.8.8.8,2,0,2.8-.7.7-1.4,1.4-2.1,2.1-.4.4-.9.6-1.4.6ZM564.3,543.1c-1,0-1.8-.7-2-1.7-.2-1-.3-2-.4-3.1-.1-1.1.7-2.1,1.8-2.2,1.1-.1,2.1.7,2.2,1.8.1,1,.2,1.9.4,2.9.2,1.1-.6,2.1-1.7,2.3-.1,0-.2,0-.3,0ZM563.5,533.2c-1.1,0-2-.9-2-2v-.5c0-.8,0-1.7,0-2.5,0-1.1.9-2,2.1-1.9,1.1,0,2,1,1.9,2.1,0,.8,0,1.6,0,2.4v.5c0,1.1-.9,2-2,2h0ZM564.1,523.2c0,0-.2,0-.3,0-1.1-.1-1.9-1.1-1.7-2.2.1-1,.3-2,.4-3,.2-1.1,1.2-1.8,2.3-1.7,1.1.2,1.8,1.2,1.7,2.3-.2,1-.3,1.9-.4,2.9-.1,1-1,1.8-2,1.8ZM565.9,513.4c-.2,0-.3,0-.5,0-1.1-.3-1.7-1.4-1.5-2.4.2-1,.5-2,.8-3,.3-1.1,1.4-1.7,2.5-1.4,1.1.3,1.7,1.4,1.4,2.5-.3.9-.5,1.9-.8,2.8-.2.9-1,1.5-1.9,1.5ZM568.9,503.8c-.2,0-.5,0-.7-.1-1-.4-1.6-1.5-1.2-2.6.4-1,.7-1.9,1.1-2.9.4-1,1.6-1.5,2.6-1.1,1,.4,1.5,1.6,1.1,2.6-.4.9-.7,1.8-1.1,2.7-.3.8-1.1,1.3-1.9,1.3ZM572.9,494.7c-.3,0-.6,0-.9-.2-1-.5-1.4-1.7-.9-2.7.5-.9.9-1.8,1.4-2.7.5-1,1.7-1.3,2.7-.8,1,.5,1.3,1.7.8,2.7-.5.9-.9,1.7-1.4,2.6-.3.7-1.1,1.1-1.8,1.1ZM577.8,486c-.4,0-.7-.1-1.1-.3-.9-.6-1.2-1.8-.6-2.8.5-.9,1.1-1.7,1.7-2.6.6-.9,1.9-1.2,2.8-.5.9.6,1.2,1.9.5,2.8-.5.8-1.1,1.6-1.6,2.5-.4.6-1,.9-1.7.9ZM583.5,477.8c-.4,0-.8-.1-1.2-.4-.9-.7-1-1.9-.4-2.8.6-.8,1.2-1.6,1.9-2.4.7-.9,2-1,2.8-.3.9.7,1,2,.3,2.8-.6.8-1.2,1.5-1.8,2.3-.4.5-1,.8-1.6.8ZM589.9,470.1c-.5,0-1-.2-1.3-.5-.8-.7-.9-2-.2-2.8.7-.8,1.4-1.5,2.1-2.2.8-.8,2-.9,2.8,0,.8.8.9,2,0,2.8-.7.7-1.3,1.4-2,2.2-.4.4-.9.7-1.5.7ZM596.8,462.9c-.5,0-1-.2-1.4-.6-.8-.8-.8-2.1,0-2.8.7-.7,1.5-1.4,2.2-2.1.8-.8,2.1-.7,2.8,0,.8.8.7,2.1,0,2.8-.7.7-1.4,1.4-2.1,2.1-.4.4-.9.6-1.4.6ZM604.2,456.1c-.6,0-1.1-.2-1.5-.7-.7-.8-.6-2.1.2-2.8.8-.7,1.5-1.3,2.3-2,.8-.7,2.1-.6,2.8.2.7.8.6,2.1-.2,2.8-.8.6-1.5,1.3-2.3,1.9-.4.3-.8.5-1.3.5ZM611.9,449.7c-.6,0-1.2-.3-1.6-.8-.7-.9-.5-2.1.3-2.8.8-.6,1.6-1.2,2.4-1.9.9-.7,2.1-.5,2.8.4.7.9.5,2.1-.4,2.8-.8.6-1.6,1.2-2.3,1.8-.4.3-.8.4-1.2.4ZM619.9,443.7c-.6,0-1.2-.3-1.6-.8-.7-.9-.5-2.1.4-2.8.8-.6,1.6-1.2,2.5-1.8.9-.6,2.1-.4,2.8.5.6.9.4,2.1-.5,2.8-.8.6-1.6,1.2-2.4,1.7-.4.3-.8.4-1.2.4ZM628,437.9c-.6,0-1.3-.3-1.7-.9-.6-.9-.4-2.2.5-2.8.8-.6,1.7-1.1,2.5-1.7.9-.6,2.2-.4,2.8.5.6.9.4,2.2-.5,2.8-.8.6-1.6,1.1-2.5,1.7-.3.2-.7.3-1.1.3ZM636.4,432.4c-.7,0-1.3-.3-1.7-.9-.6-.9-.3-2.2.6-2.8.8-.5,1.7-1.1,2.5-1.6.9-.6,2.2-.3,2.8.6.6.9.3,2.2-.6,2.8-.8.5-1.7,1.1-2.5,1.6-.3.2-.7.3-1.1.3ZM644.9,427.1c-.7,0-1.3-.3-1.7-1-.6-.9-.3-2.2.7-2.7.9-.5,1.7-1,2.6-1.5,1-.6,2.2-.2,2.7.7.6,1,.2,2.2-.7,2.7-.9.5-1.7,1-2.6,1.5-.3.2-.7.3-1,.3ZM653.5,422c-.7,0-1.4-.4-1.7-1-.5-1-.2-2.2.8-2.7.9-.5,1.8-1,2.6-1.5,1-.5,2.2-.2,2.7.8.5,1,.2,2.2-.8,2.7-.9.5-1.7,1-2.6,1.5-.3.2-.6.3-1,.3ZM662.3,417.3c-.7,0-1.4-.4-1.8-1.1-.5-1-.1-2.2.8-2.7.9-.5,1.8-.9,2.7-1.4,1-.5,2.2-.1,2.7.9.5,1,.1,2.2-.9,2.7-.9.5-1.8.9-2.6,1.4-.3.2-.6.2-.9.2ZM671.2,412.7c-.7,0-1.4-.4-1.8-1.1-.5-1,0-2.2.9-2.7.9-.4,1.8-.9,2.7-1.3,1-.5,2.2,0,2.7.9.5,1,0,2.2-.9,2.7-.9.4-1.8.9-2.7,1.3-.3.1-.6.2-.9.2ZM680.2,408.4c-.8,0-1.5-.4-1.8-1.2-.5-1,0-2.2,1-2.7.9-.4,1.8-.8,2.7-1.2,1-.5,2.2,0,2.6,1,.5,1,0,2.2-1,2.6-.9.4-1.8.8-2.7,1.2-.3.1-.6.2-.8.2ZM689.4,404.4c-.8,0-1.5-.5-1.8-1.2-.4-1,0-2.2,1.1-2.6.9-.4,1.9-.8,2.8-1.2,1-.4,2.2,0,2.6,1.1.4,1,0,2.2-1.1,2.6-.9.4-1.8.8-2.8,1.2-.3.1-.5.2-.8.2ZM698.6,400.6c-.8,0-1.6-.5-1.9-1.3-.4-1,.1-2.2,1.1-2.6.9-.4,1.9-.7,2.8-1.1,1-.4,2.2.1,2.6,1.2.4,1-.1,2.2-1.2,2.6-.9.4-1.9.7-2.8,1.1-.2,0-.5.1-.7.1ZM708,397.1c-.8,0-1.6-.5-1.9-1.3-.4-1,.2-2.2,1.2-2.6.9-.3,1.9-.7,2.8-1,1-.4,2.2.2,2.5,1.2.4,1-.2,2.2-1.2,2.5-.9.3-1.9.7-2.8,1-.2,0-.5.1-.7.1ZM717.4,393.8c-.8,0-1.6-.5-1.9-1.4-.3-1,.2-2.2,1.3-2.5,1-.3,1.9-.6,2.9-.9,1.1-.3,2.2.2,2.5,1.3.3,1.1-.2,2.2-1.3,2.5-.9.3-1.9.6-2.8.9-.2,0-.4.1-.6.1ZM727,390.9c-.9,0-1.7-.6-1.9-1.4-.3-1.1.3-2.2,1.3-2.5,1-.3,1.9-.6,2.9-.8,1.1-.3,2.2.3,2.5,1.4.3,1.1-.3,2.2-1.4,2.5-1,.3-1.9.6-2.9.8-.2,0-.4,0-.6,0ZM736.6,388.1c-.9,0-1.7-.6-1.9-1.5-.3-1.1.3-2.2,1.4-2.4,1-.3,1.9-.5,2.9-.8,1.1-.3,2.2.4,2.4,1.4.3,1.1-.4,2.2-1.4,2.4-1,.2-1.9.5-2.9.8-.2,0-.3,0-.5,0ZM746.3,385.7c-.9,0-1.7-.6-1.9-1.5-.3-1.1.4-2.2,1.5-2.4,1-.2,2-.5,2.9-.7,1.1-.2,2.1.4,2.4,1.5.2,1.1-.4,2.1-1.5,2.4-1,.2-1.9.4-2.9.7-.2,0-.3,0-.5,0ZM756.1,383.5c-.9,0-1.8-.7-2-1.6-.2-1.1.5-2.1,1.6-2.4,1-.2,2-.4,3-.6,1.1-.2,2.1.5,2.3,1.6.2,1.1-.5,2.1-1.6,2.3-1,.2-2,.4-2.9.6-.1,0-.3,0-.4,0ZM765.9,381.7c-1,0-1.8-.7-2-1.7-.2-1.1.5-2.1,1.6-2.3,1-.2,2-.3,3-.5,1.1-.2,2.1.5,2.3,1.6.2,1.1-.5,2.1-1.6,2.3-1,.2-2,.3-2.9.5-.1,0-.2,0-.3,0ZM775.7,380c-1,0-1.8-.7-2-1.7-.2-1.1.6-2.1,1.7-2.3,1-.2,2-.3,3-.5,1.1-.2,2.1.6,2.3,1.7.2,1.1-.6,2.1-1.7,2.3-1,.1-2,.3-3,.5-.1,0-.2,0-.3,0ZM785.6,378.6c-1,0-1.8-.7-2-1.7-.2-1.1.6-2.1,1.7-2.3l3-.4c1.1-.2,2.1.6,2.3,1.7.2,1.1-.6,2.1-1.7,2.3l-3,.4c0,0-.2,0-.3,0ZM795.5,377.1c-1,0-1.8-.7-2-1.7-.2-1.1.6-2.1,1.7-2.3l3-.4c1.1-.2,2.1.6,2.3,1.7.2,1.1-.6,2.1-1.7,2.3l-3,.4c0,0-.2,0-.3,0ZM805.4,375.6c-1,0-1.8-.7-2-1.7-.2-1.1.6-2.1,1.7-2.3,1-.2,2-.3,2.9-.5,1.1-.2,2.1.5,2.3,1.6.2,1.1-.5,2.1-1.6,2.3-1,.2-2,.3-3,.5-.1,0-.2,0-.3,0ZM815.3,373.8c-.9,0-1.8-.7-2-1.6-.2-1.1.5-2.1,1.6-2.3,1-.2,2-.4,2.9-.6,1.1-.2,2.1.5,2.4,1.6.2,1.1-.5,2.1-1.6,2.4-1,.2-2,.4-3,.6-.1,0-.3,0-.4,0ZM825,371.8c-.9,0-1.7-.6-1.9-1.6-.2-1.1.4-2.2,1.5-2.4,1-.2,1.9-.5,2.9-.7,1.1-.3,2.2.4,2.4,1.5.3,1.1-.4,2.2-1.5,2.4-1,.2-2,.5-2.9.7-.2,0-.3,0-.5,0ZM834.7,369.3c-.9,0-1.7-.6-1.9-1.5-.3-1.1.3-2.2,1.4-2.5.9-.3,1.9-.5,2.8-.8,1.1-.3,2.2.3,2.5,1.3.3,1.1-.3,2.2-1.3,2.5-1,.3-1.9.6-2.9.9-.2,0-.4,0-.5,0ZM844.3,366.3c-.8,0-1.6-.5-1.9-1.3-.4-1,.2-2.2,1.2-2.6.9-.3,1.9-.7,2.8-1,1-.4,2.2.1,2.6,1.2.4,1-.1,2.2-1.2,2.6-.9.4-1.9.7-2.9,1-.2,0-.4.1-.7.1ZM853.6,362.6c-.8,0-1.5-.4-1.8-1.2-.4-1,0-2.2,1-2.6.9-.4,1.8-.8,2.7-1.2,1-.5,2.2,0,2.7,1,.5,1,0,2.2-1,2.7-.9.4-1.8.8-2.8,1.3-.3.1-.5.2-.8.2ZM862.5,358.2c-.7,0-1.4-.4-1.8-1-.5-1-.2-2.2.8-2.7.9-.5,1.7-.9,2.6-1.4,1-.6,2.2-.2,2.7.7.6,1,.2,2.2-.7,2.7-.9.5-1.8,1-2.7,1.5-.3.2-.6.2-1,.2ZM871.1,353.1c-.6,0-1.3-.3-1.7-.9-.6-.9-.4-2.2.5-2.8.8-.5,1.6-1.1,2.4-1.7.9-.6,2.1-.4,2.8.5.6.9.4,2.1-.5,2.8-.8.6-1.7,1.2-2.5,1.7-.3.2-.7.3-1.1.3ZM879.1,347c-.6,0-1.1-.2-1.5-.7-.7-.8-.6-2.1.2-2.8.7-.6,1.5-1.3,2.2-1.9.8-.7,2.1-.7,2.8.1.7.8.7,2.1-.1,2.8-.8.7-1.5,1.4-2.3,2-.4.3-.8.5-1.3.5ZM886.3,340.2c-.5,0-1-.2-1.4-.5-.8-.8-.9-2-.1-2.8.7-.7,1.3-1.4,1.9-2.2.7-.8,2-.9,2.8-.2.8.7.9,2,.2,2.8-.7.8-1.4,1.5-2,2.3-.4.4-.9.6-1.5.6ZM892.6,332.4c-.4,0-.8-.1-1.1-.4-.9-.6-1.1-1.9-.5-2.8.5-.8,1.1-1.6,1.6-2.4.6-.9,1.8-1.2,2.8-.6.9.6,1.2,1.8.6,2.8-.5.9-1.1,1.7-1.7,2.6-.4.6-1,.9-1.6.9ZM897.6,323.8c-.3,0-.6,0-.9-.2-1-.5-1.4-1.7-.9-2.7.4-.9.8-1.8,1.2-2.6.4-1,1.6-1.5,2.6-1,1,.4,1.5,1.6,1,2.6-.4.9-.8,1.9-1.3,2.8-.3.7-1.1,1.1-1.8,1.1ZM901.4,314.5c-.2,0-.4,0-.6,0-1.1-.3-1.6-1.5-1.3-2.5.3-.9.6-1.9.8-2.8.3-1.1,1.4-1.7,2.5-1.4,1.1.3,1.7,1.4,1.4,2.5-.3,1-.6,2-.9,3-.3.9-1.1,1.4-1.9,1.4ZM903.7,304.8c0,0-.2,0-.3,0-1.1-.2-1.8-1.2-1.7-2.3.1-1,.3-1.9.4-2.9.1-1.1,1.1-1.9,2.2-1.8,1.1.1,1.9,1.1,1.8,2.2-.1,1-.2,2.1-.4,3.1-.1,1-1,1.7-2,1.7ZM904.3,294.8c-1.1,0-2-.9-2-2,0-1,0-1.9-.1-2.9,0-1.1.7-2.1,1.8-2.2,1.1-.1,2.1.7,2.2,1.8,0,1,.1,2.1.2,3.1,0,1.1-.8,2-2,2,0,0,0,0,0,0ZM903.1,284.9c-.9,0-1.7-.6-2-1.6-.2-.9-.4-1.9-.7-2.8-.3-1.1.3-2.2,1.4-2.5,1.1-.3,2.2.3,2.5,1.4.3,1,.5,2,.8,3,.2,1.1-.4,2.1-1.5,2.4-.1,0-.3,0-.4,0ZM900,275.4c-.8,0-1.5-.4-1.8-1.2-.1-.3-.3-.6-.4-.9-.5-1,0-2.2.9-2.7,1-.5,2.2,0,2.7.9.2.3.3.6.5,1,.5,1,0,2.2-1,2.7-.3.1-.6.2-.8.2Z"/>
  <g>
    <g>
      <path class="cls-5" d="M602.7,344.2l22.5-18.7c2.2-1.8,4.9-2.8,7.7-2.8h108.9c6.7,0,12.1,5.4,12.1,12.1v37.3c0,6.7-5.4,12.1-12.1,12.1h-108.9c-2.8,0-5.5-1-7.7-2.8l-22.5-18.7c-5.8-4.8-5.8-13.8,0-18.6Z"/>
      <path class="cls-52" d="M708.7,333.3h19.4c5.1,0,9.2,4.1,9.2,9.2v19.4c0,5.1-4.1,9.2-9.2,9.2h-19.4c-5.1,0-9.2-4.1-9.2-9.2v-19.4c0-5.1,4.1-9.2,9.2-9.2Z"/>
      <polygon class="cls-41" points="707.8 347.5 718 365.9 729 338.6 717 353 707.8 347.5"/>
    </g>
    <path class="cls-81" d="M777.3,656.5c-7.5.3-14.8.1-19.7-.1,4.4-3.2,14.6-10,23.2-12.7l5.9-.4s2,3,2.7,9.9c-1,1.2-3.8,2.9-12.1,3.3Z"/>
    <path class="cls-30" d="M757.5,656.4s0,0,0,0c4.9.2,12.2.5,19.7.1,8.2-.4,11.1-2.1,12.1-3.3,0,.3,0,.6,0,1,.1,1.5-1,2.8-2.5,3-6.2.5-21.5,1.5-28.8,1.1-1,0-1.3-1.3-.5-1.9Z"/>
    <path class="cls-9" d="M831.1,654.5c.6-3.5,1.4-8.6,2.1-9.9,1.1-2,4.7,0,4.7,0,0,0,2.6,1.2,3.8,3.2.8,1.3,2.8,4.9,4.3,7.4.2.3.2.6.2.9l-14.7.5c-.4-.6-.5-1.3-.4-2Z"/>
    <path class="cls-66" d="M846.2,656c0,.8-.7,1.6-1.6,1.6l-10.5.3c-1.1,0-2.1-.5-2.6-1.4l14.7-.5Z"/>
    <path class="cls-73" d="M830,632.8c.1.4,2,9.6,2.9,13.7.2,1.1,1.2,1.9,2.4,1.8.6,0,1.3,0,2.1-.2,1.3-.2,2.4-1.3,2.4-2.7.1-3.5.2-10.3-1.1-13-1.8-3.6-8.7.3-8.7.3Z"/>
    <path class="cls-22" d="M787.8,635.4c-.8,0,.3,4.2-.9,8.4-.3.9-1,1.7-2,1.7-.6,0-1.4,0-2.1,0-1.1,0-2.1-1-2.2-2.1l-1-10.8,8.2,2.9Z"/>
    <path class="cls-39" d="M765,520.8c.4,1.8,13.2,76.6,14,115.3,0,.6.5,1.2,1.1,1.3,1.6.2,4.8.5,7.9,0,.4,0,.7-.4.8-.9.4-7.2,4.1-68.2-.4-96.9,0,0,36.5,76.7,42,97.9.1.5.6.9,1.1.8,1.6,0,4.8-.4,7.4-1.3.9-.3,1.5-1.3,1.2-2.3-3.1-12.7-24.7-99.9-39.4-119.1l-35.7,5.2Z"/>
    <path class="cls-97" d="M788.4,540c.1,0,.2,0,.3-.1.2-.2.2-.5,0-.7l-4.9-5c-.2-.2-.5-.2-.7,0-.2.2-.2.5,0,.7l4.9,5c0,0,.2.1.3.1Z"/>
    <path class="cls-10" d="M719.9,427.1c7.9,2.2,16.3,2.1,24.2,0,10.7-2.8,31.7-7.4,46-4.8l1.2,37.5-49,5.6-.4-9.9s-29.8-4.3-45.9-23.9c3.9-4.3,7.1-9,9-12.2,3.8,3.2,8.6,6,14.8,7.7Z"/>
    <path class="cls-106" d="M687.4,390.2l3.8-1.7s-.2,18.9,13.9,30.9c-1.9,3.2-5.1,7.9-9,12.2-7.9-9.6-12.6-23-8.6-41.4Z"/>
    <path class="cls-76" d="M766.7,401.5s2.8,17,3.2,22.3c0,0-13.7,3.8-17.3,1.8l.4-20.5,13.6-3.5Z"/>
    <g>
      <path class="cls-27" d="M751.3,385.9s-4.6,10.5-4.9,16c-.3,5.5-1.5,9.1,4.9,10.2,6.4,1.1,11.7-2.1,14.6-7.5,0,0,4.5-8.4,3.5-11.9-1-3.5-18.2-6.7-18.2-6.7Z"/>
      <path class="cls-113" d="M763.7,400.5h-.8s3.3-6.8.4-8c-2.9-1.2-14.4-3.5-16.9-7.6-2.4-3.9-.3-9,2.9-10.5.2,0,.4,0,.5.2l.3.5c.2.3.7.3.8,0h0c.1-.4.6-.4.8-.1.8,1.2,2.8,3.2,8.4,4.2,7.8,1.4,13,4.6,13.2,10.1,0,.3.4.5.7.4.6-.4,1.5-.5,2.7.5,2.2,1.8,1.3,6.5-3.5,10.4-.2.2-.2.5,0,.7.9.6,2.1,1.9-1.2,3.7-3.4,1.8-5.4,1.6-6.1,1.4-.2,0-.3-.2-.3-.4l.3-4.8c0-.2-.2-.5-.4-.5h-1.7Z"/>
      <path class="cls-34" d="M763.5,401.6s1.7-6.7,4.7-4.8c3,1.9-1.6,7.5-4,7.8l-.8-2.9Z"/>
    </g>
    <path class="cls-20" d="M701.6,374.5v7.6s-6.2,7.8-14.2,8.2c0,0-7.1-.5-6.8-5.7l11.3-2.2s4.7-1.4,6.1-2.1c0,0,1-5.5,3.6-5.7Z"/>
    <g>
      <path class="cls-78" d="M880.3,477l-27.9-23.1c-2.7-2.2-6.1-3.5-9.6-3.5h-134.8c-8.3,0-15,6.7-15,15v46.2c0,8.3,6.7,15,15,15h134.8c3.5,0,6.9-1.2,9.6-3.5l27.9-23.1c7.2-6,7.2-17,0-23Z"/>
      <rect class="cls-52" x="713.5" y="463.5" width="46.9" height="46.9" rx="11.4" ry="11.4"/>
      <polygon class="cls-26" points="723.9 481 736.5 503.9 750 470.1 735.2 487.9 723.9 481"/>
    </g>
    <path class="cls-103" d="M778.1,442.5l12-20.2s25.1,21.5,32.7,51.5l-13.3,8.4c-5.5-9.8-15-22.8-31.4-39.6Z"/>
    <path class="cls-118" d="M804.4,526.6c1.3,0,2.4-.8,2.9-1.9,1.4-3,4-8.6,5.4-10.4,0,0-1.5-.8-4.3-.1-2.7.6-5-.5-5.1-2l12.8-5.5c.5-1.3,2.3-8.6-6.6-24.5l13.3-8.4c2.8,11.2,3.2,23.6-1.1,36.5,0,0-2.5,14.6-7.6,17.6-5.1,3-12.8-1.2-12.8-1.2h3Z"/>
  </g>
</svg>