<svg width="138" height="42" viewBox="0 0 138 42" fill="none" xmlns="http://www.w3.org/2000/svg">
<g clip-path="url(#clip0_2893_5134)">
<path d="M0.0166016 8.10352H4.82827V19.0103H14.9764V8.10352H19.7943V34.8763H14.9764V23.7405H4.82827V34.8763H0.0166016V8.10352ZM35.0376 26.156C35.0376 28.3972 33.2479 30.221 31.0518 30.221C28.8548 30.221 27.0662 28.3972 27.0662 26.156V14.6294H22.5031V26.156C22.5031 30.9648 26.3382 34.8763 31.0518 34.8763C35.7643 34.8763 39.5992 30.9648 39.5992 26.156V14.6294H35.0376V26.156ZM52.3377 14.7644C50.0742 14.7644 48.4942 15.4346 46.9684 16.9627V8.10352H42.3904V24.522C42.3904 30.6676 46.7455 34.8763 51.6383 34.8763C57.0777 34.8763 61.8436 30.5925 61.8436 24.8206C61.8436 19.122 57.4489 14.7644 52.3377 14.7644ZM52.4515 30.5554C49.3494 30.5554 46.9773 27.9121 46.9773 24.8206C46.9773 21.7286 49.3494 19.0846 52.4515 19.0846C55.08 19.0846 57.4534 21.7286 57.4534 24.8206C57.4534 27.9121 55.08 30.5554 52.4515 30.5554ZM69.5325 15.9411C69.5325 13.5932 71.0659 12.8488 72.7445 12.8488C74.0959 12.8488 75.8843 13.8916 77.0513 15.1582L80.0439 11.583C78.5483 9.53486 75.5191 8.11919 73.0367 8.11919C68.0716 8.11919 64.4941 11.0616 64.4941 15.9411C64.4941 24.9911 75.4094 22.1224 75.4094 27.1889C75.4094 28.7514 73.9132 30.1308 72.1984 30.1308C69.4961 30.1308 68.6196 28.7899 67.3789 27.3742L64.0564 30.8746C66.1749 33.5192 68.8023 34.8607 71.9421 34.8607C76.6508 34.8607 80.4474 31.8811 80.4474 27.2249C80.4474 17.1695 69.5325 20.2984 69.5325 15.9411ZM92.4993 14.5021C87.607 14.5021 83.2514 18.7084 83.2514 24.8553V41.3161H87.8291V32.4149C89.3552 33.9419 90.9343 34.6132 93.1987 34.6132C98.3095 34.6132 102.705 30.2562 102.705 24.5575C102.705 18.7848 97.9376 14.5021 92.4993 14.5021ZM93.3127 30.2936C90.2109 30.2936 87.8385 27.6468 87.8385 24.5575C87.8385 21.4655 90.2109 18.8214 93.3127 18.8214C95.9406 18.8214 98.3144 21.4655 98.3144 24.5575C98.3144 27.6468 95.9406 30.2936 93.3127 30.2936ZM136.402 30.5554C133.702 30.5554 132.935 29.3641 132.935 27.5384V19.4569H137.132V15.3606H132.935V9.95972L128.301 12.0821V28.5441C128.301 32.7531 131.147 34.8763 135.051 34.8763C135.635 34.8763 136.439 34.8378 136.878 34.7276L138.009 30.4822C137.498 30.5182 136.915 30.5554 136.402 30.5554Z" fill="#45535E"/>
<path d="M124.329 19.6952C123.451 18.1547 122.217 16.9197 120.673 15.9899C119.52 15.3049 118.324 14.8702 116.976 14.6834V9.78856C118.324 9.20475 119.16 7.91255 119.16 6.40504C119.16 4.35029 117.545 2.6852 115.533 2.6852C113.519 2.6852 111.876 4.35029 111.876 6.40504C111.876 7.91255 112.664 9.20475 114.011 9.78856V14.6856C112.933 14.8446 111.815 15.1875 110.794 15.7144C108.709 14.0985 101.871 8.79748 97.8708 5.70133C97.9657 5.35236 98.0388 4.99267 98.0388 4.61318C98.0388 2.33733 96.2324 0.492676 94.0009 0.492676C91.7695 0.492676 89.9639 2.33733 89.9639 4.61318C89.9639 6.88875 91.7713 8.73396 94.0028 8.73396C94.764 8.73396 95.468 8.50681 96.0755 8.13337L96.9197 8.78676L108.519 17.3138C107.906 17.8882 107.335 18.5416 106.878 19.2747C105.952 20.7693 105.386 22.4138 105.386 24.2076V24.5818C105.386 25.841 105.621 27.0298 106.02 28.1466C106.372 29.1217 106.886 30.0083 107.523 30.8099L103.674 34.7472C103.116 34.5354 102.51 34.4919 101.928 34.622C101.347 34.7521 100.814 35.0503 100.394 35.4809C100.104 35.776 99.8734 36.1271 99.7166 36.5137C99.5599 36.9003 99.4799 37.3148 99.4813 37.7331C99.4816 38.5837 99.8063 39.3831 100.396 39.9845C100.685 40.2813 101.029 40.5166 101.408 40.6768C101.787 40.837 102.193 40.9189 102.603 40.9178C103.013 40.9189 103.42 40.837 103.798 40.6768C104.177 40.5166 104.521 40.2813 104.811 39.9845C105.101 39.6894 105.332 39.3385 105.488 38.9521C105.645 38.5657 105.725 38.1514 105.724 37.7331C105.724 37.404 105.675 37.0828 105.581 36.7775L109.56 32.7172C110.105 33.1017 110.695 33.4254 111.328 33.7045C112.577 34.2556 113.956 34.5913 115.465 34.5913H115.742C117.41 34.5913 118.984 34.1915 120.463 33.3737C122.022 32.5094 123.243 31.3274 124.164 29.8185C125.091 28.3055 125.601 26.6338 125.601 24.7947V24.7028C125.601 22.8937 125.191 21.2244 124.329 19.6952ZM119.467 28.2126C118.387 29.4371 117.145 30.1914 115.742 30.1914H115.511C114.709 30.1914 113.925 29.9654 113.157 29.5543C112.292 29.1016 111.634 28.4559 111.096 27.6384C110.54 26.836 110.238 25.9598 110.238 25.0309V24.7488C110.238 23.8355 110.41 22.9696 110.843 22.1517C111.305 21.2577 111.93 20.5625 112.762 20.0098C113.578 19.4609 114.449 19.1917 115.42 19.1917H115.511C116.391 19.1917 117.224 19.3688 118.011 19.7794C118.812 20.2171 119.467 20.8153 119.974 21.602C120.467 22.389 120.761 23.2379 120.855 24.1627C120.87 24.355 120.877 24.5519 120.877 24.74C120.877 25.995 120.407 27.1574 119.467 28.2126Z" fill="#F8761F"/>
</g>
<defs>
<clipPath id="clip0_2893_5134">
<rect width="138" height="41" fill="white" transform="translate(0 0.479004)"/>
</clipPath>
</defs>
</svg>
