<svg width="124" height="41" viewBox="0 0 124 41" fill="none" xmlns="http://www.w3.org/2000/svg">
<path d="M48.2617 2.91601C48.4987 2.9353 48.7161 3.05188 48.8595 3.23661C48.9934 3.40709 49.0662 3.61559 49.0667 3.83019C49.0699 4.03456 48.9962 4.233 48.8595 4.38814C48.7093 4.55076 48.4814 4.62308 48.2617 4.57788C44.654 4.19833 41.014 4.21417 37.41 4.62513C36.7598 6.74646 36.1137 8.85529 35.4717 10.9516L33.533 17.2777C33.4823 17.5108 33.3186 17.7054 33.0939 17.7997C32.8923 17.8786 32.6698 17.8911 32.4602 17.8353C32.2532 17.7831 32.0717 17.6613 31.9479 17.4915C31.8158 17.3031 31.7884 17.0631 31.8747 16.851C32.4911 14.8244 33.1007 12.8262 33.7036 10.8564C34.3066 8.88654 34.9162 6.89645 35.5325 4.88611C34.4918 5.04459 33.4555 5.23858 32.4236 5.46806C31.3918 5.69754 30.3635 5.95477 29.3386 6.23975C29.1205 6.32368 28.8738 6.297 28.6799 6.1685C28.5055 6.04796 28.3804 5.87134 28.3267 5.66979C28.2707 5.46542 28.2842 5.24886 28.3652 5.05259C28.4621 4.83366 28.6622 4.67422 28.9018 4.62513C32.0295 3.72812 35.239 3.12799 38.4854 2.83314C41.7388 2.54073 45.0141 2.5685 48.2617 2.91601Z" fill="black"/>
<path d="M42.6532 7.78151C43.0221 7.74338 43.3901 7.86013 43.6651 8.10248C43.9169 8.36153 44.0936 8.68101 44.177 9.02828C44.287 9.45116 44.3402 9.88612 44.3354 10.3223C44.3355 10.7942 44.307 11.2658 44.2498 11.7344C44.1933 12.2017 44.1284 12.633 44.0549 13.0285C43.9815 13.4239 43.9287 13.7324 43.8966 13.9539C43.8795 14.1792 43.7402 14.3785 43.5311 14.4766C43.3378 14.5554 43.1228 14.5679 42.9213 14.5122C42.709 14.4564 42.5208 14.3354 42.3847 14.1672C42.2347 13.979 42.1808 13.7344 42.2384 13.5028C42.3192 13.0278 42.3883 12.5529 42.4456 12.0779C42.5033 11.5894 42.5317 11.0979 42.5307 10.6062C42.5307 10.5587 42.5348 10.4319 42.543 10.2259C42.5474 10.0505 42.5678 9.87587 42.6039 9.70398C42.4609 9.84272 42.3304 9.99327 42.2141 10.1539C41.6638 10.8153 41.2007 11.5411 40.8359 12.3145C40.4702 13.0895 40.1248 13.8729 39.7997 14.6648C39.7453 14.8148 39.648 14.9464 39.5193 15.0443C39.3928 15.1492 39.2422 15.2227 39.0802 15.2584C38.9247 15.2891 38.7632 15.2724 38.6179 15.2104C38.4534 15.1379 38.3197 15.0122 38.2397 14.8546C38.0094 14.4014 37.8688 13.9102 37.8252 13.4064C37.7768 12.8732 37.7809 12.3367 37.8375 11.8042C37.8945 11.2613 37.9846 10.7221 38.1072 10.1896C38.2291 9.66011 38.3388 9.1579 38.4361 8.68293C38.7294 7.40054 39.0831 6.13814 39.4973 4.89573C39.9115 3.65333 40.3545 2.40706 40.8262 1.15691C40.8844 0.929181 41.0526 0.743179 41.2773 0.658196C41.4791 0.579693 41.7016 0.566546 41.9117 0.620699C42.1145 0.675683 42.2914 0.797314 42.4125 0.964922C42.5444 1.15497 42.5629 1.39891 42.461 1.60575C42.1035 2.58742 41.7582 3.56472 41.4248 4.53764C41.0915 5.51056 40.7867 6.49573 40.5104 7.49315C40.221 8.49149 39.993 9.5057 39.8274 10.5304C39.8128 10.5559 39.8045 10.5844 39.8032 10.6137C39.8018 10.6427 39.7935 10.6711 39.7789 10.6965C39.8436 10.5702 39.9091 10.4554 39.9738 10.3527C40.0385 10.2499 40.1117 10.1352 40.1934 10.0081C40.3233 9.81809 40.4737 9.59649 40.6444 9.34326C40.8147 9.09061 41.0064 8.85229 41.2176 8.63081C41.4208 8.41599 41.6453 8.22119 41.8878 8.04923C42.1111 7.88992 42.3769 7.79694 42.6532 7.78151Z" fill="black"/>
<path fill-rule="evenodd" clip-rule="evenodd" d="M53.2484 9.12428C53.0078 9.15079 52.7904 9.27621 52.651 9.46888C52.2591 10.0396 51.8265 10.5828 51.3563 11.0944C50.8837 11.6096 50.3423 12.0608 49.7466 12.436C49.6176 12.5305 49.4577 12.634 49.2709 12.7442C49.0809 12.8565 48.8809 12.952 48.6735 13.0296C48.475 13.1061 48.2649 13.15 48.0517 13.1597C47.8596 13.1715 47.6706 13.1074 47.5275 12.982C47.4464 12.903 47.3876 12.805 47.3569 12.6974C47.3237 12.5868 47.2918 12.4679 47.2594 12.3408C47.7809 12.3045 48.2883 12.1589 48.7466 11.9141C49.2242 11.6683 49.6502 11.3376 50.0028 10.9391C50.3466 10.5536 50.6003 10.1001 50.7466 9.60986C50.8929 9.12523 50.8671 8.60672 50.6734 8.13811C50.5631 7.78085 50.3362 7.46833 50.027 7.24793C49.7669 7.0838 49.458 7.0086 49.1492 7.03419C48.8085 7.06566 48.4794 7.17111 48.1862 7.34279C47.8559 7.52912 47.5462 7.74787 47.2617 7.99562C46.9746 8.24298 46.7132 8.51728 46.4813 8.81455C46.2794 9.06353 46.1151 9.33929 45.9933 9.63349C45.8364 10.0698 45.7182 10.5184 45.6401 10.9744C45.5512 11.4601 45.5307 11.9554 45.5792 12.4465C45.6213 12.909 45.7624 13.3579 45.9933 13.7642C46.234 14.1706 46.6141 14.4815 47.0668 14.6423C47.7356 14.9106 48.4829 14.9276 49.1638 14.69C49.8858 14.4398 50.5581 14.0703 51.151 13.5977C51.7775 13.1072 52.3495 12.5542 52.8578 11.9478C53.3699 11.3391 53.7968 10.7973 54.1386 10.3223C54.2917 10.1488 54.3381 9.90895 54.2603 9.69311C54.1861 9.50445 54.0484 9.34584 53.8697 9.24314C53.6815 9.13851 53.4633 9.09676 53.2484 9.12428ZM49.1026 8.91092C49.1596 8.96617 49.1393 9.1124 49.0417 9.34964C48.9097 9.65365 48.6992 9.91933 48.4308 10.1209C48.1504 10.3728 47.8178 10.5632 47.4555 10.6793C47.5608 10.2049 47.7873 9.76409 48.1142 9.39763C48.212 9.28696 48.3224 9.18734 48.4431 9.10066C48.5603 9.00934 48.692 8.93716 48.8329 8.88692C48.9199 8.84284 49.0253 8.85222 49.1026 8.91092Z" fill="black"/>
<path fill-rule="evenodd" clip-rule="evenodd" d="M75.927 9.31073C75.7709 9.13998 75.5374 9.05652 75.3049 9.08838C74.4919 9.15087 73.6798 9.25236 72.8686 9.39285C72.0379 9.53755 71.2158 9.72531 70.4056 9.95531C70.2916 9.87731 70.1699 9.79894 70.0401 9.72133C69.6564 9.47499 69.2372 9.28544 68.7963 9.15887C68.3576 9.03438 67.91 8.91551 67.4554 8.80527C67.2112 8.74178 66.882 8.66678 66.4678 8.58029C66.0558 8.49409 65.6519 8.37481 65.2602 8.22369C64.9074 8.09551 64.5812 7.90651 64.2972 7.66574C64.0503 7.46276 63.9499 7.13698 64.0411 6.83518C64.1615 6.43813 64.3792 6.0755 64.6755 5.77851C65.066 5.34354 65.4943 4.94209 65.9555 4.57861C66.4627 4.17526 67.0007 3.81011 67.5648 3.48632C68.0825 3.17928 68.6394 2.93975 69.2212 2.77388C69.6707 2.63385 70.1505 2.61339 70.6109 2.71463C71.0237 2.83172 71.3315 3.16791 71.4037 3.58044C71.454 3.81375 71.6178 4.00862 71.8428 4.10277C72.0399 4.18114 72.2572 4.19779 72.4645 4.15039C72.6698 4.10135 72.851 3.98379 72.9764 3.81817C73.1165 3.63307 73.1489 3.39077 73.0619 3.17697C72.9238 2.60903 72.6237 2.09065 72.196 1.68159C71.8302 1.35728 71.3784 1.13929 70.8918 1.05239C70.3776 0.966492 69.8509 0.982562 69.3433 1.09964C68.7867 1.22256 68.2436 1.39761 67.7216 1.62234C67.1879 1.85044 66.674 2.1203 66.1851 2.42928C65.7513 2.69955 65.3359 2.9969 64.9417 3.31946C64.6646 3.55694 64.372 3.82204 64.0638 4.11477C63.7525 4.41015 63.4593 4.72317 63.1859 5.0522C62.9149 5.37656 62.6778 5.72653 62.4783 6.09686C62.2885 6.44252 62.1724 6.82197 62.1371 7.2124C62.093 7.57582 62.1743 7.94318 62.3682 8.25669C62.5534 8.54127 62.7989 8.78414 63.0881 8.96914C63.397 9.16644 63.7283 9.32837 64.0754 9.45172C64.4413 9.58521 64.7864 9.7052 65.1119 9.81507C65.5753 9.97692 66.0475 10.1137 66.5263 10.2249C67.0739 10.3563 67.6115 10.5242 68.1353 10.7274C67.0905 11.1331 66.0797 11.6173 65.1119 12.1755C64.1669 12.7198 63.2696 13.3389 62.429 14.0267C62.1258 14.2759 61.8627 14.568 61.6486 14.8933C61.4288 15.2159 61.268 15.5732 61.1733 15.9492C61.0839 16.3053 61.0923 16.6779 61.1976 17.0299C61.3257 17.4169 61.5778 17.7537 61.9171 17.9909C62.2571 18.2594 62.6663 18.4319 63.1001 18.4896C63.5529 18.5526 64.0127 18.5526 64.4656 18.4896C64.933 18.4252 65.394 18.322 65.8434 18.181C66.2982 18.0388 66.7046 17.8963 67.0625 17.7536C67.6976 17.4777 68.2954 17.127 68.8425 16.7093C69.4516 16.2587 69.9969 15.7318 70.4642 15.1423C70.9121 14.585 71.2625 13.9595 71.5011 13.291C71.7278 12.6785 71.7362 12.0096 71.525 11.3918C72.143 11.2176 72.7699 11.075 73.4032 10.9644C74.0319 10.8547 74.6671 10.7833 75.3049 10.7506C75.5475 10.752 75.7771 10.6442 75.927 10.4585C76.0606 10.2911 76.1335 10.0852 76.1342 9.87319C76.1362 9.66765 76.0627 9.46819 75.927 9.31073ZM69.9037 12.8156C69.8341 13.2177 69.6714 13.5992 69.428 13.9311C69.1138 14.3946 68.7217 14.8032 68.2682 15.14C67.8197 15.4788 67.343 15.7806 66.843 16.0422C66.6637 16.1209 66.432 16.2238 66.1477 16.3508C65.8582 16.4791 65.5609 16.5901 65.2575 16.683C64.9593 16.7759 64.6533 16.8434 64.3431 16.8848C64.0941 16.9293 63.8375 16.9088 63.5993 16.8255C63.2092 16.6675 63.0021 16.4817 62.9779 16.2679C62.956 16.045 63.0261 15.8228 63.1729 15.6504C63.3348 15.445 63.5279 15.265 63.7456 15.1164C63.9733 14.9578 64.1362 14.8475 64.2337 14.7842C64.6333 14.4823 65.0572 14.2124 65.5013 13.9769C65.9569 13.7064 66.4162 13.4572 66.8792 13.2292C67.3422 13.0012 67.8097 12.7762 68.2817 12.5542C68.5192 12.4306 68.7636 12.3197 69.0135 12.222C69.257 12.1275 69.5089 12.0324 69.7693 11.9366C69.9025 12.2102 69.9492 12.5161 69.9037 12.8156Z" fill="black"/>
<path fill-rule="evenodd" clip-rule="evenodd" d="M79.8406 12.3642C79.4503 11.8895 79.0602 11.4068 78.6704 10.9161C78.8487 10.8846 79.0278 10.849 79.2066 10.8092C79.3841 10.7704 79.5562 10.7106 79.7189 10.6311C80.1514 10.4154 80.5174 10.092 80.7797 9.69367C81.0463 9.29811 81.1467 8.81795 81.0601 8.3524C81.021 7.92079 80.8112 7.52084 80.475 7.23686C80.1817 7.03085 79.8241 6.93014 79.4631 6.95189C79.0437 6.97682 78.6335 7.08154 78.2555 7.26011C77.8419 7.4451 77.4428 7.65941 77.0614 7.90131C77.3375 6.7459 77.6219 5.59462 77.9146 4.44746C78.2074 3.3003 78.5244 2.15677 78.8657 1.01686C78.9364 0.800174 78.9005 0.56382 78.7682 0.37641C78.644 0.206829 78.4628 0.0849136 78.2559 0.031812C78.0453 -0.0232692 77.8217 -0.00646264 77.6222 0.0794333C77.406 0.172517 77.2507 0.363456 77.2074 0.589768C76.6057 2.66235 76.0571 4.72756 75.5615 6.7854C75.0658 8.84324 74.6311 10.9322 74.2572 13.0523C74.1999 13.2823 74.2489 13.5252 74.3912 13.7171C74.5211 13.8859 74.7057 14.0072 74.9151 14.0613C75.1166 14.1175 75.3317 14.1049 75.5249 14.0257C75.7343 13.9282 75.874 13.7288 75.8908 13.5034C75.9722 13.0604 76.0576 12.6252 76.147 12.1977C76.2363 11.7703 76.3216 11.343 76.4027 10.9161C76.7117 11.2328 77.0084 11.561 77.2929 11.9007C77.5772 12.242 77.8576 12.5824 78.1342 12.9222C78.4107 13.2619 78.6993 13.5981 78.9997 13.9308C79.2982 14.2608 79.62 14.5702 79.9627 14.8566C80.138 15.0198 80.3813 15.0942 80.621 15.058C80.8379 15.0239 81.0383 14.9245 81.1942 14.7738C81.3441 14.6322 81.4353 14.4419 81.4503 14.2391C81.4565 14.0136 81.3467 13.8001 81.1576 13.6699C80.6747 13.2787 80.2335 12.8413 79.8406 12.3642ZM78.4874 8.89836C78.6189 8.83232 78.7785 8.8512 78.8899 8.94598C79.0193 9.07272 78.9789 9.14734 78.767 9.17134C78.5077 9.19597 78.2467 9.19986 77.9866 9.18296C78.142 9.06995 78.3099 8.97447 78.4874 8.89836Z" fill="black"/>
<path fill-rule="evenodd" clip-rule="evenodd" d="M85.0834 5.36128C85.1182 5.58107 85.2652 5.7687 85.4736 5.85961C85.6692 5.98312 85.9102 6.01813 86.1343 5.95561C86.24 5.92876 86.3367 5.87565 86.4151 5.80149L86.6462 5.57651C86.7109 5.49552 86.7764 5.4089 86.8411 5.31403C86.9088 5.21493 86.9822 5.11966 87.061 5.02868C87.128 4.94312 87.1662 4.83955 87.1704 4.73208C87.1791 4.62379 87.166 4.51491 87.1319 4.41148C87.0875 4.19581 86.9436 4.01203 86.7417 3.91314C86.641 3.86489 86.5345 3.829 86.4247 3.80628C86.3116 3.78245 86.1941 3.78658 86.083 3.81828C85.8767 3.90312 85.6993 4.04298 85.5711 4.22174C85.493 4.29723 85.4236 4.38085 85.3643 4.4711C85.346 4.49836 85.3273 4.52636 85.3083 4.55491C85.2676 4.6159 85.2252 4.67947 85.1809 4.74408C85.1131 4.83016 85.0709 4.93279 85.0592 5.04068C85.0417 5.14793 85.05 5.25768 85.0834 5.36128ZM88.0098 9.11173C87.778 9.10563 87.5584 9.21271 87.4247 9.39708C86.9577 9.97789 86.4396 10.5179 85.8762 11.011C85.3137 11.5034 84.7805 12.0265 84.2792 12.578L84.1937 12.6612C84.186 12.6687 84.1779 12.6766 84.1694 12.6849C84.1511 12.7029 84.1309 12.7228 84.1085 12.7441C84.1102 12.7181 84.1014 12.6925 84.0839 12.6728C84.1325 12.4534 84.1691 12.2316 84.1937 12.0084C84.2184 11.7851 84.2551 11.5632 84.3034 11.3436C84.4339 10.8686 84.5844 10.4061 84.7549 9.95616C84.9268 9.50209 85.1347 9.06168 85.3766 8.63889C85.5028 8.44324 85.5254 8.20065 85.4374 7.98607C85.3524 7.79322 85.2075 7.63114 85.023 7.52261C84.8409 7.4132 84.6245 7.37115 84.4132 7.40412C84.1804 7.44551 83.9839 7.59687 83.889 7.80796C83.5193 8.46442 83.2099 9.15141 82.9645 9.86092C82.7202 10.5668 82.5486 11.2946 82.4522 12.0335C82.4198 12.2547 82.3954 12.4958 82.379 12.7568C82.3629 13.0142 82.371 13.2725 82.4033 13.5285C82.4323 13.7708 82.5109 14.005 82.6344 14.2173C82.7706 14.4333 82.9832 14.5933 83.2322 14.6673C83.4723 14.7605 83.7356 14.7812 83.988 14.7265C84.2355 14.6691 84.4704 14.5686 84.6813 14.4299C84.9028 14.2856 85.1107 14.1225 85.3026 13.9425C85.497 13.7605 85.6841 13.5904 85.8639 13.4321C86.869 12.5497 87.7988 11.5891 88.6438 10.5599C88.7979 10.3822 88.8687 10.1498 88.8391 9.91904C88.8113 9.70799 88.7126 9.51181 88.5583 9.36109C88.4132 9.21506 88.2179 9.12627 88.0098 9.11173Z" fill="black"/>
<path d="M96.9105 9.5621C97.032 9.35693 97.2431 9.21704 97.4837 9.18225C97.6987 9.14714 97.9195 9.18925 98.105 9.30074C98.2828 9.41056 98.4197 9.57301 98.4956 9.76421C98.5747 9.97647 98.538 10.2133 98.3981 10.3934C98.1701 10.7414 97.8937 11.1413 97.5688 11.5933C97.2451 12.0426 96.8819 12.4636 96.4833 12.8517C96.1025 13.2261 95.672 13.5495 95.2033 13.8131C94.7775 14.0597 94.2821 14.1677 93.7889 14.1214C93.3823 14.1056 92.9923 13.9597 92.6795 13.7063C92.4291 13.4798 92.2441 13.1932 92.143 12.8753C92.0332 12.5288 91.9717 12.1695 91.96 11.807C91.9436 11.4196 91.9355 11.0359 91.9357 10.6559C91.547 10.9552 91.1765 11.2762 90.826 11.6173C90.4762 11.9578 90.1147 12.3019 89.7413 12.6496C89.5945 12.7767 89.4482 12.9147 89.3022 13.0654C89.1614 13.2115 89.0016 13.3391 88.8268 13.4449C88.6582 13.547 88.4724 13.6195 88.2779 13.659C88.073 13.6974 87.8611 13.6765 87.6682 13.599C87.345 13.494 87.1005 13.2337 87.0218 12.911C86.9481 12.5839 86.9276 12.2476 86.961 11.9143C87.028 11.145 87.1792 10.3849 87.412 9.64684C87.6478 8.89515 87.8795 8.16321 88.1073 7.45102C88.1777 7.22634 88.3471 7.04376 88.5695 6.95268C88.7712 6.87387 88.9939 6.86136 89.2036 6.91706C89.4105 6.96931 89.5918 7.0911 89.7155 7.26091C89.8475 7.45104 89.8662 7.69496 89.7648 7.90211C89.7484 7.96585 89.6994 8.12834 89.618 8.38957C89.5366 8.6508 89.4392 8.95527 89.3257 9.30299C89.2116 9.65147 89.0979 10.0157 88.9844 10.3957C88.8709 10.7756 88.7733 11.1079 88.6916 11.3923C88.9194 11.1708 89.143 10.9414 89.3623 10.7039C89.5816 10.4664 89.797 10.2448 90.0086 10.0391C90.3426 9.72917 90.6925 9.43607 91.0571 9.16088C91.4235 8.88604 91.8061 8.63238 92.2031 8.40119C92.4307 8.27415 92.7069 8.26023 92.9469 8.36369C93.2045 8.45558 93.4 8.66372 93.4711 8.92165C93.5074 9.20508 93.5155 9.49126 93.4954 9.77621C93.479 10.1763 93.4872 10.577 93.52 10.9761C93.5402 11.3253 93.6141 11.6696 93.7392 11.9975C93.7787 12.1226 93.8681 12.227 93.9874 12.2872C94.1067 12.3474 94.2459 12.3584 94.3736 12.3178C94.6391 12.2562 94.8802 12.1201 95.067 11.9263C95.3312 11.6838 95.5759 11.422 95.7988 11.143C96.0341 10.85 96.2494 10.557 96.4448 10.264C96.6402 9.97107 96.7955 9.73708 96.9105 9.5621Z" fill="black"/>
<path fill-rule="evenodd" clip-rule="evenodd" d="M36.4521 24.3879C37.2546 25.2145 37.8893 26.1876 38.3212 27.2537C38.7734 28.3753 39.0019 29.5739 38.9938 30.7824C39.0007 32.0087 38.7516 33.2229 38.2622 34.3482C37.7853 35.4412 37.1047 36.4344 36.2562 37.275C35.3925 38.1203 34.3755 38.7947 33.2591 39.2624C32.0844 39.7519 30.8223 39.9996 29.5489 39.9906C28.2962 40.0042 27.0536 39.7661 25.8954 39.2906C25.0113 38.9272 24.1946 38.4191 23.479 37.7874C24.7322 37.7104 25.9525 37.3574 27.0518 36.7538C27.2981 37.3503 27.6663 37.8894 28.133 38.3369C29.0378 39.1832 30.448 39.1832 31.3528 38.3369C31.8527 37.8481 32.2393 37.2566 32.4855 36.6036C32.8141 35.7733 33.0438 34.9075 33.1699 34.0239C33.4785 31.9372 33.4785 29.8168 33.1699 27.7302C33.0438 26.8467 32.8142 25.9811 32.4855 25.1509C32.2382 24.4983 31.8518 23.9069 31.3528 23.4172C30.4477 22.5716 29.0381 22.5716 28.133 23.4172C27.6292 23.9058 27.2379 24.4973 26.9859 25.1509C26.6508 25.979 26.421 26.8454 26.3016 27.7302C26.2589 27.9981 26.2259 28.2754 26.1976 28.5526C25.8942 28.6508 25.5964 28.7653 25.3054 28.8955C23.3704 29.755 21.8039 31.362 21.416 33.4806C21.3399 33.9246 21.301 34.374 21.2996 34.8243L21.2986 34.8222C21.252 34.7206 21.2051 34.6182 21.1627 34.5154C20.7077 33.3898 20.4785 32.1864 20.4881 30.9732C20.4825 29.7495 20.7335 28.5382 21.2251 27.4166C21.6975 26.3201 22.3769 25.3239 23.2265 24.4821C24.09 23.6367 25.1071 22.9623 26.2236 22.4948C27.3983 22.0053 28.6603 21.7574 29.9338 21.7662C31.1864 21.7527 32.4289 21.9909 33.5869 22.4666C34.6616 22.9095 35.636 23.5629 36.4521 24.3879ZM26.3039 34.0282C26.3915 34.6524 26.5305 35.2684 26.7194 35.8699C26.268 36.1278 25.7904 36.3372 25.2945 36.4947C24.5558 36.7368 23.7835 36.8622 23.0057 36.8661C22.9254 36.9364 22.8405 37.0067 22.7555 37.0727C22.6942 37.0024 22.6329 36.9318 22.5713 36.8565C22.5146 36.7908 22.458 36.7202 22.4064 36.6499C22.3071 36.5275 22.2128 36.4009 22.1279 36.2738C22.1986 36.2499 22.2679 36.2217 22.3354 36.1897C22.1135 34.512 22.2504 32.7551 23.4022 31.4161C24.1409 30.5895 25.0754 29.9597 26.1208 29.5839C26.0913 30.0067 26.082 30.4388 26.082 30.8809C26.0761 31.9341 26.1503 32.9861 26.3039 34.0282Z" fill="black"/>
<path d="M61.7094 39.0822C61.6527 39.0152 61.5741 38.9703 61.4875 38.9552C61.3084 38.9281 61.1316 38.8873 60.9587 38.8332C60.6828 38.7513 60.4211 38.6277 60.1829 38.4667C59.902 38.2733 59.6629 38.0256 59.48 37.7385C59.2602 37.363 59.1537 36.9324 59.1731 36.4983V29.0002C59.1731 28.5396 59.1634 28.0415 59.1448 27.5106C59.1238 26.9722 59.059 26.4365 58.9508 25.9086C58.8413 25.3704 58.6604 24.849 58.4128 24.3583C58.1509 23.8454 57.7824 23.3938 57.3316 23.0335C56.8043 22.6169 56.2019 22.3043 55.5568 22.1126C54.6976 21.8614 53.8045 21.7442 52.9092 21.7651C52.3171 21.7605 51.726 21.8122 51.1438 21.9196C50.651 22.01 50.1675 22.1452 49.6995 22.3235C49.2919 22.4776 48.9011 22.6728 48.5334 22.9061C48.2074 23.1155 47.8981 23.3495 47.6082 23.6062V21.957C47.6082 21.7787 47.5469 21.6848 47.4243 21.6705C47.2987 21.658 47.1729 21.6914 47.0701 21.7644C46.5918 22.0837 46.0955 22.3756 45.5836 22.6385C45.0312 22.925 44.4586 23.1976 43.8701 23.4463C43.2816 23.695 42.69 23.9162 42.1046 24.1185C41.5193 24.3209 40.9765 24.4707 40.4753 24.5881C40.2814 24.6352 40.1871 24.729 40.1968 24.8653C40.2065 25.0016 40.2864 25.0861 40.4563 25.124C40.4951 25.1379 40.6026 25.1626 40.7725 25.1989C40.9424 25.2352 41.136 25.2835 41.3435 25.3352C41.5511 25.3869 41.7315 25.429 41.8913 25.4665C41.9825 25.4937 42.0756 25.5142 42.1698 25.5279C42.3159 25.5531 42.4176 25.6864 42.4026 25.8333V36.4979C42.4241 36.9323 42.3174 37.3634 42.0957 37.7381C41.9139 38.0263 41.6745 38.2742 41.3924 38.4663C41.1564 38.6271 40.897 38.7507 40.6231 38.8328C40.4488 38.887 40.2704 38.9278 40.0897 38.9548C40.0039 38.9721 39.9261 39.0167 39.8678 39.0818C39.8251 39.1326 39.8077 39.1998 39.8205 39.2648C39.8368 39.3317 39.875 39.3912 39.9291 39.434C39.9962 39.4902 40.0824 39.5188 40.17 39.5139H49.8461C49.9334 39.5172 50.0189 39.4888 50.0867 39.434C50.1382 39.3897 50.1745 39.3306 50.1906 39.2648C50.2037 39.1998 50.1862 39.1325 50.1433 39.0818C50.086 39.0158 50.0079 38.971 49.9218 38.9548C49.7427 38.9277 49.5659 38.8869 49.393 38.8328C49.1171 38.7509 48.8554 38.6273 48.6172 38.4663C48.3351 38.2741 48.0958 38.0262 47.9139 37.7381C47.6943 37.3625 47.5878 36.932 47.607 36.4979V27.6558C47.607 27.2697 47.6307 26.8337 47.6734 26.3407C47.7183 25.8603 47.8427 25.3906 48.0415 24.9506C48.2451 24.5123 48.5608 24.1348 48.957 23.856C49.4752 23.5354 50.0805 23.3826 50.6895 23.4189C51.8423 23.3287 52.9273 23.9704 53.3988 25.0213C53.6315 25.5102 53.7814 26.034 53.8426 26.5715C53.9132 27.1399 53.9556 27.6943 53.9698 28.2346V36.4975C53.9903 36.9322 53.8824 37.3634 53.6595 37.7377C53.4791 38.027 53.2395 38.2752 52.9562 38.466C52.7202 38.6267 52.4607 38.7503 52.1869 38.8324C52.0125 38.8867 51.8342 38.9274 51.6535 38.9544C51.5685 38.9705 51.4918 39.0154 51.4363 39.0814C51.3924 39.1317 51.3734 39.1988 51.3843 39.2645C51.4024 39.3305 51.4403 39.3895 51.4929 39.4336C51.56 39.4898 51.6462 39.5184 51.7338 39.5135H61.4099C61.4974 39.5176 61.5833 39.4891 61.6508 39.4336C61.7037 39.3906 61.7403 39.3309 61.7544 39.2645C61.7699 39.2 61.7531 39.1321 61.7094 39.0822Z" fill="black"/>
<path d="M75.2511 30.6502C74.2883 29.6638 72.8676 28.8839 70.989 28.3107C70.22 28.0928 69.4701 27.8131 68.7467 27.4743C68.2834 27.2641 67.8515 26.9913 67.4631 26.6635C67.1997 26.4395 66.9992 26.1513 66.8812 25.8272C66.7921 25.5381 66.7475 25.2372 66.7489 24.9348C66.7344 24.3713 66.9332 23.8229 67.306 23.3985C67.7709 22.9436 68.4122 22.7136 69.0617 22.7687C69.8039 22.7644 70.5377 22.9249 71.2097 23.2386C72.4412 23.8107 73.5453 24.6221 74.457 25.6252C74.7588 25.9558 75.0424 26.3024 75.3066 26.6635C75.3328 26.7184 75.3802 26.7603 75.4381 26.7798C75.4959 26.7993 75.5591 26.7947 75.6135 26.767C75.7234 26.7228 75.7824 26.6034 75.7504 26.4897C75.7504 26.4522 75.7173 26.2736 75.6511 25.9542C75.5898 25.6345 75.5239 25.2823 75.4622 24.897C75.4005 24.5116 75.3303 24.1595 75.2682 23.8305C75.2061 23.5016 75.1689 23.3286 75.1689 23.3043C75.1633 23.2571 75.1502 23.2111 75.1301 23.168C75.094 23.1268 75.0487 23.0947 74.9978 23.0741C74.959 23.0598 74.7852 22.9849 74.4881 22.8425C74.092 22.6671 73.6853 22.5164 73.2704 22.3915C72.6849 22.2113 72.089 22.0669 71.4859 21.959C70.7556 21.8267 70.0146 21.7621 69.2724 21.766C68.2116 21.7311 67.1549 21.9117 66.1666 22.2969C65.4414 22.5888 64.7878 23.0327 64.2503 23.5985C63.8058 24.0774 63.4736 24.6486 63.2777 25.2708C63.1086 25.8015 63.018 26.3539 63.0089 26.9106C63.0054 27.5356 63.0863 28.1582 63.2494 28.7617C63.4116 29.3461 63.6752 29.8978 64.0284 30.3919C64.4171 30.924 64.8925 31.3877 65.435 31.7637C66.0966 32.2133 66.8178 32.5691 67.5779 32.8209C68.3456 33.0789 69.0868 33.4091 69.7914 33.8071C70.2645 34.0692 70.6945 34.4021 71.0662 34.794C71.3311 35.0784 71.5279 35.4189 71.6419 35.7898C71.7322 36.1221 71.7783 36.4649 71.7788 36.8092C71.8022 37.3986 71.5742 37.9704 71.1511 38.3834C70.677 38.7981 70.0581 39.0107 69.4279 38.9753C68.822 38.9807 68.2203 38.8738 67.6536 38.6602C67.1109 38.4543 66.5957 38.183 66.1193 37.8525C65.6646 37.5376 65.2396 37.1822 64.8496 36.7906C64.4671 36.4045 64.1463 36.0485 63.8724 35.7145C63.5985 35.3805 63.391 35.099 63.2401 34.8689C63.1457 34.743 63.062 34.6094 62.9899 34.4697C62.9316 34.3678 62.8083 34.3222 62.6974 34.3616C62.5698 34.3944 62.5178 34.5029 62.5461 34.6813C62.5558 34.7705 62.5934 34.9959 62.6501 35.3624C62.7067 35.7288 62.7664 36.1095 62.8343 36.5207C62.9022 36.9319 62.9616 37.3007 63.0182 37.6405C63.0748 37.9803 63.1032 38.1621 63.1032 38.1903C63.115 38.2492 63.1308 38.3073 63.1505 38.3641C63.1636 38.4072 63.188 38.4461 63.2211 38.4768C63.3953 38.5846 63.5748 38.6834 63.7591 38.773C64.1729 38.9772 64.6022 39.1484 65.0432 39.285C65.6993 39.4895 66.3677 39.6526 67.0445 39.7734C67.939 39.9285 68.8458 40.0024 69.7538 39.9943C70.8097 40.015 71.8624 39.8717 72.8739 39.5695C73.6663 39.3344 74.402 38.9401 75.0354 38.4112C75.5873 37.9369 76.0165 37.3373 76.2865 36.6632C76.5611 35.9644 76.6989 35.2197 76.6923 34.4693C76.7494 33.0548 76.2297 31.6775 75.2511 30.6502Z" fill="black"/>
<path d="M99.2197 39.0834C99.1615 39.0183 99.0836 38.9738 98.9978 38.9564C98.8171 38.9295 98.6388 38.8887 98.4644 38.8344C98.1906 38.7523 97.9311 38.6287 97.6952 38.468C97.4119 38.2771 97.1723 38.029 96.9918 37.7398C96.7702 37.365 96.6635 36.9339 96.685 36.4995V22.7483C96.685 22.4143 96.5298 22.2463 96.2226 22.2463H89.2399C89.1527 22.2432 89.0673 22.2714 88.9993 22.3259C88.9464 22.369 88.9097 22.4288 88.8954 22.4954C88.8803 22.5636 88.8978 22.6348 88.9427 22.6884C88.9954 22.7582 89.0767 22.8007 89.1642 22.8043C89.2682 22.8282 89.4427 22.8749 89.693 22.9359C89.9695 23.012 90.2316 23.1326 90.4688 23.2931C90.7499 23.4865 90.9891 23.7341 91.1721 24.0213C91.3916 24.3969 91.498 24.8274 91.4786 25.2615V33.5677C91.4764 34.103 91.4449 34.6378 91.3843 35.1697C91.3255 35.6967 91.1814 36.2107 90.9576 36.6918C90.7416 37.1464 90.4136 37.5391 90.0041 37.8336C89.497 38.1591 88.8997 38.3169 88.2972 38.2846C87.729 38.3124 87.1644 38.1806 86.6679 37.9042C86.2703 37.6549 85.9449 37.3068 85.7237 36.8942C85.4921 36.46 85.3358 35.9901 85.2613 35.5041C85.1774 34.9959 85.1285 34.4826 85.115 33.9678V22.7491C85.115 22.4151 84.9637 22.2471 84.6522 22.2471H77.6773C77.5897 22.2423 77.5037 22.2707 77.4364 22.3266C77.3835 22.3698 77.3469 22.4296 77.3328 22.4961C77.3178 22.5643 77.3351 22.6354 77.3797 22.6892C77.4326 22.7589 77.514 22.8014 77.6016 22.805C77.7056 22.829 77.8802 22.8757 78.1304 22.9367C78.4051 23.012 78.6651 23.1327 78.8996 23.2939C79.1831 23.4845 79.4228 23.7327 79.6029 24.0221C79.8261 24.3964 79.934 24.8276 79.9133 25.2623V32.7607C79.9133 33.2206 79.923 33.7187 79.9416 34.25C79.9626 34.7882 80.0274 35.3239 80.1356 35.8516C80.245 36.39 80.4259 36.9115 80.6736 37.4023C80.9341 37.9162 81.3028 38.368 81.7548 38.7271C82.2822 39.1436 82.8845 39.4561 83.5296 39.648C84.3888 39.8991 85.2819 40.0163 86.1772 39.9955C88.1469 40.0749 90.0631 39.3463 91.4778 37.9799V39.112C91.4676 39.2276 91.5132 39.3412 91.6008 39.4178C91.6997 39.4877 91.8194 39.5224 91.9406 39.5163H98.9167C99.0043 39.5212 99.0905 39.4926 99.1576 39.4364C99.2118 39.3936 99.25 39.3341 99.2663 39.2672C99.2772 39.2022 99.2603 39.1356 99.2197 39.0834Z" fill="black"/>
<path d="M110.628 39.0828C110.571 39.0167 110.493 38.9719 110.406 38.9558C110.213 38.925 110.023 38.881 109.835 38.8241C109.536 38.7333 109.252 38.6004 108.991 38.4295C108.687 38.2298 108.426 37.973 108.221 37.6735C107.978 37.296 107.859 36.8525 107.881 36.4047V11.0258C107.881 10.8424 107.82 10.7486 107.697 10.7343C107.571 10.7236 107.445 10.7587 107.343 10.8332C106.863 11.1491 106.367 11.4392 105.856 11.7023C105.304 11.9935 104.733 12.2614 104.143 12.5105C103.553 12.7595 102.963 12.985 102.378 13.1823C101.792 13.3796 101.249 13.5345 100.748 13.6518C100.554 13.704 100.46 13.7978 100.47 13.9295C100.479 14.0611 100.564 14.1499 100.73 14.1878C100.768 14.2017 100.876 14.2264 101.046 14.2673C101.216 14.3082 101.409 14.3472 101.617 14.399C101.824 14.4507 102.005 14.4978 102.164 14.5353C102.256 14.5595 102.349 14.5783 102.443 14.5917C102.589 14.6169 102.69 14.7502 102.675 14.8971V36.4039C102.699 36.8512 102.582 37.2947 102.34 37.6727C102.134 37.9712 101.873 38.2278 101.571 38.4287C101.307 38.5989 101.021 38.7317 100.721 38.8233C100.535 38.8795 100.346 38.9235 100.155 38.955C100.068 38.97 99.9894 39.015 99.9328 39.082C99.889 39.1323 99.8699 39.1994 99.8808 39.2651C99.899 39.3311 99.9369 39.3901 99.9894 39.4342C100.057 39.4905 100.143 39.5191 100.23 39.5141H110.331C110.419 39.5174 110.504 39.489 110.572 39.4342C110.624 39.3899 110.66 39.3308 110.676 39.2651C110.688 39.2003 110.671 39.1334 110.628 39.0828Z" fill="black"/>
<path d="M123.821 36.7708C123.717 36.6299 123.552 36.6164 123.321 36.7322C122.959 36.9087 122.585 37.0579 122.202 37.1786C121.704 37.344 121.183 37.425 120.658 37.4183C120.387 37.4186 120.117 37.3741 119.861 37.2867C119.602 37.2012 119.365 37.06 119.167 36.8731C118.728 36.4642 118.486 35.8881 118.501 35.2901V23.4933C118.496 23.4557 118.508 23.4176 118.535 23.3907C118.562 23.3638 118.6 23.3513 118.638 23.357H122.088C122.317 23.3535 122.534 23.2528 122.683 23.0802C122.838 22.9461 122.935 22.7574 122.952 22.5539C122.952 22.4269 122.919 22.3423 122.848 22.3049C122.663 22.2502 122.47 22.2295 122.277 22.2439H118.657C118.553 22.2439 118.502 22.2014 118.502 22.1122V15.7026C118.502 15.4957 118.44 15.369 118.317 15.3165C118.187 15.2665 118.04 15.2808 117.921 15.3551C117.596 15.5584 117.259 15.742 116.912 15.9049C116.55 16.0787 116.177 16.2384 115.794 16.3841C115.416 16.5296 115.043 16.6565 114.675 16.7648C114.312 16.8772 113.967 16.9621 113.646 17.0278C113.414 17.0664 113.297 17.2251 113.297 17.5069V22.0921C113.297 22.1956 113.255 22.2427 113.165 22.2427H112.739C112.521 22.2425 112.317 22.3477 112.191 22.5246C112.058 22.669 111.98 22.8551 111.969 23.0508C111.969 23.1775 112.002 23.2621 112.073 23.2995C112.259 23.3518 112.452 23.3709 112.644 23.3559H113.145C113.249 23.3559 113.296 23.4076 113.296 23.5103V34.2923C113.265 35.2506 113.426 36.2054 113.768 37.1017C114.037 37.7699 114.457 38.3678 114.995 38.8493C115.485 39.2704 116.064 39.5756 116.69 39.742C117.312 39.9061 117.953 39.9898 118.596 39.9911C119.166 39.9925 119.733 39.9247 120.286 39.7891C120.801 39.6602 121.296 39.4656 121.76 39.2099C122.197 38.9699 122.602 38.6746 122.963 38.3315C123.308 38.0012 123.604 37.6231 123.841 37.2087C123.93 37.0738 123.922 36.8973 123.821 36.7708Z" fill="black"/>
<path d="M31.2195 28.627C31.1817 28.688 31.1503 28.7537 31.1136 28.8148C30.8627 29.2683 30.6518 29.7437 30.4834 30.2355C30.2028 31.0682 30.0512 31.943 29.7106 32.7567C29.1507 34.028 28.1991 35.077 27.0013 35.7433C26.5612 36.0016 26.0954 36.2112 25.6119 36.3688C24.8919 36.6113 24.1393 36.7367 23.3813 36.7407C23.303 36.8111 23.2202 36.8814 23.1374 36.9475C23.0822 36.9993 23.027 37.0461 22.9673 37.0983C22.9257 37.1311 22.8845 37.164 22.8429 37.1922C22.7325 37.1876 22.6221 37.1782 22.5117 37.164L22.4429 37.1497C22.4153 37.0086 22.3877 36.8629 22.3646 36.7171C22.3325 36.5625 22.3094 36.4017 22.2864 36.242C22.3692 36.2138 22.4474 36.1809 22.5257 36.1477C22.5947 36.1237 22.6622 36.0956 22.728 36.0634C22.5117 34.3838 22.6452 32.6229 23.7677 31.2842C24.4876 30.4567 25.3984 29.8262 26.4172 29.45C27.148 29.1688 27.9072 28.9716 28.6807 28.862C29.5224 28.7388 30.3698 28.6603 31.2195 28.627Z" fill="black"/>
<path d="M23.3809 36.7398C23.3026 36.8101 23.2198 36.8805 23.137 36.9466C23.0818 36.9984 23.0266 37.0452 22.9669 37.0974C22.9253 37.1302 22.8841 37.1631 22.8425 37.1913C22.6769 37.3324 22.5022 37.4592 22.3272 37.5864C22.3181 37.591 22.3136 37.6003 22.3045 37.6003C22.1554 37.5533 22.0408 37.4305 22.0021 37.2759C21.9421 36.9842 21.8917 36.6925 21.8508 36.4007C21.9979 36.354 22.1408 36.3022 22.2879 36.2411C22.3707 36.2129 22.4489 36.18 22.5272 36.1468C22.5962 36.1228 22.6637 36.0946 22.7295 36.0625C22.748 36.2171 22.7707 36.3718 22.7987 36.5233C22.8077 36.589 22.8213 36.6547 22.8308 36.7208C22.8735 36.7262 22.9164 36.7293 22.9593 36.7301C23.1011 36.734 23.2384 36.7398 23.3809 36.7398Z" fill="black"/>
<path d="M23.9881 35.7481C23.9351 35.6881 23.8636 35.6483 23.7855 35.6352C23.6904 35.614 23.591 35.6326 23.5095 35.687C23.252 35.8235 22.99 35.9503 22.7276 36.0635C22.6619 36.0957 22.5944 36.1238 22.5254 36.1478C22.4471 36.1811 22.3688 36.2139 22.286 36.2421C22.139 36.3032 21.9961 36.355 21.849 36.4018C21.4771 36.5263 21.0984 36.6286 20.7148 36.708C19.8062 36.8963 18.8819 36.9939 17.9549 36.9994C16.4507 37.0278 14.9551 36.7627 13.548 36.2186C12.3297 35.7327 11.244 34.9533 10.3832 33.9467C9.50226 32.8819 8.85297 31.6377 8.47848 30.2967C8.02947 28.6866 7.81407 27.0179 7.83916 25.3439C7.83054 23.5967 7.96599 21.8519 8.24408 20.1279C8.47011 18.6491 8.90556 17.2118 9.5367 15.8613C10.0609 14.7316 10.8435 13.7476 11.8184 12.9926C12.7979 12.2745 13.9806 11.9043 15.1855 11.9388C16.1124 11.9156 17.031 12.1221 17.863 12.5407C18.5969 12.9275 19.2562 13.447 19.8089 14.0742C20.3448 14.6801 20.7996 15.356 21.1613 16.0844C21.5202 16.8042 21.8285 17.4768 22.086 18.1023C22.1219 18.1803 22.1795 18.2458 22.2516 18.2905C22.3121 18.3285 22.3841 18.3423 22.4539 18.3292C22.525 18.3169 22.5898 18.2804 22.638 18.2256C22.692 18.1637 22.72 18.0826 22.7159 17.9998V13.066C22.7107 12.8879 22.6195 12.724 22.4724 12.6284C22.2758 12.4899 22.068 12.3687 21.8513 12.2662C21.3557 12.011 20.8421 11.794 20.3148 11.6172C19.5459 11.3587 18.7605 11.1543 17.9643 11.0056C16.9399 10.8156 15.9003 10.7244 14.8592 10.7331C10.9112 10.696 7.10983 12.2605 4.28793 15.0839C2.95075 16.4283 1.88202 18.0258 1.14124 19.7873C0.378339 21.5944 -0.0100417 23.5435 0.000593598 25.5117C-0.0159377 27.4471 0.312949 29.3695 0.971104 31.1842C2.22173 34.6989 4.88406 37.4981 8.28529 38.8743C10.2163 39.652 12.2779 40.0339 14.353 39.9985C16.1947 40.0275 18.0248 39.6954 19.7443 39.02C20.6492 38.6512 21.5092 38.1762 22.3068 37.6044C22.3159 37.6044 22.3205 37.5951 22.3295 37.5905C22.5046 37.4633 22.6792 37.3365 22.8448 37.1954C22.8864 37.1672 22.9276 37.1343 22.9692 37.1015C23.029 37.0493 23.0826 37.0025 23.1394 36.9507C23.2222 36.8846 23.305 36.8143 23.3832 36.7439C23.5579 36.5839 23.7326 36.4192 23.8985 36.2499C23.9826 36.1793 24.0368 36.0782 24.0498 35.9677C24.0609 35.8888 24.0385 35.8089 23.9881 35.7481Z" fill="black"/>
</svg>
