<?xml version="1.0" encoding="UTF-8"?>
<svg xmlns="http://www.w3.org/2000/svg" id="Diagram" viewBox="0 0 195.93 126.88">
  <defs>
    <style>
      .cls-1 {
        fill: #6b0bea;
      }

      .cls-2 {
        fill: #fff;
      }

      .cls-3 {
        fill: #c046ff;
      }

      .cls-4 {
        fill: #d9deff;
      }

      .cls-5 {
        fill: #241c3b;
      }

      .cls-6 {
        fill: #547af5;
      }

      .cls-7 {
        fill: none;
        stroke: #c046ff;
        stroke-miterlimit: 10;
        stroke-width: 1.12px;
      }
    </style>
  </defs>
  <g>
    <path class="cls-4" d="m186.06,63.44s-41.77,55.57-88.05,55.57c-43.84,0-88.05-55.57-88.05-55.57,0,0,42.02-55.57,88.05-55.57s88.05,55.57,88.05,55.57Z"></path>
    <path class="cls-2" d="m98.01,7.87c45.7,0,88.05,55.57,88.05,55.57,0,0-41.77,55.57-88.05,55.57-43.84,0-88.05-55.57-88.05-55.57,0,0,42.02-55.57,88.05-55.57m0-7.87C48.63,0,5.49,56.3,3.68,58.69l-3.68,4.87,3.8,4.78c1.9,2.39,47.11,58.54,94.21,58.54,49.63,0,92.54-56.31,94.34-58.71l3.58-4.76-3.61-4.74c-1.83-2.4-45.27-58.67-94.31-58.67h0Z"></path>
    <circle class="cls-1" cx="98.02" cy="63.44" r="45.35"></circle>
    <g>
      <path class="cls-6" d="m65.96,31.36c-8.21,8.21-13.29,19.55-13.29,32.08h45.37l-32.08-32.08Z"></path>
      <path class="cls-6" d="m143.37,63.44c0-12.52-5.07-23.86-13.28-32.06l-32.06,32.06h45.34Z"></path>
      <path class="cls-6" d="m98.03,18.08s0,0-.01,0c-12.52,0-23.86,5.07-32.06,13.28l32.08,32.08V18.08Z"></path>
      <path class="cls-3" d="m98.03,108.79c12.52,0,23.86-5.08,32.06-13.29l-32.06-32.06v45.35Z"></path>
      <path class="cls-6" d="m143.37,63.44c0,12.52-5.07,23.86-13.28,32.06l-32.06-32.06h45.34Z"></path>
    </g>
    <circle class="cls-5" cx="98.02" cy="63.44" r="34.38"></circle>
  </g>
  <path class="cls-7" d="m23.9,63.99h44.79c5.89,0,2.93,13.96,8.57,13.96s3.05-40.64,10.39-40.64,3.66,56.01,10.37,56.01,3.83-43.32,10.39-43.32,5.93,27.98,10.37,27.98,1.85-13.98,8.98-13.98h44.78"></path>
</svg>
