<?xml version="1.0" encoding="UTF-8"?>
<svg version="1.1" xmlns="http://www.w3.org/2000/svg" width="25" height="26">
<path d="M0 0 C1.8871875 0.061875 1.8871875 0.061875 3.8125 0.125 C3.8125 0.785 3.8125 1.445 3.8125 2.125 C-0.6425 2.62 -0.6425 2.62 -5.1875 3.125 C-5.1875 6.755 -5.1875 10.385 -5.1875 14.125 C-3.3003125 14.1559375 -3.3003125 14.1559375 -1.375 14.1875 C-0.66730469 14.19910156 0.04039063 14.21070313 0.76953125 14.22265625 C3.01555461 14.20763217 3.01555461 14.20763217 5.8125 13.125 C6.1425 10.815 6.4725 8.505 6.8125 6.125 C7.4725 6.125 8.1325 6.125 8.8125 6.125 C9.0078125 12.1796875 9.0078125 12.1796875 8.8125 14.125 C6.36968701 16.56781299 4.41437084 16.67275161 1.078125 17.171875 C-1.92858248 17.10966726 -4.3854137 16.16577491 -7.1875 15.125 C-7.26828641 13.00061661 -7.32659141 10.8753677 -7.375 8.75 C-7.40980469 7.56664062 -7.44460937 6.38328125 -7.48046875 5.1640625 C-7.38378906 4.16117188 -7.28710938 3.15828125 -7.1875 2.125 C-4.09861478 0.06574319 -3.47814073 -0.1140374 0 0 Z " fill="#000000" transform="translate(12.1875,4.875)"/>
<path d="M0 0 C0.33 0.99 0.66 1.98 1 3 C0.09972412 4.03531726 -0.82093035 5.05294165 -1.75 6.0625 C-2.51570313 6.91521484 -2.51570313 6.91521484 -3.296875 7.78515625 C-5 9 -5 9 -7.140625 8.87109375 C-7.75421875 8.58363281 -8.3678125 8.29617188 -9 8 C-9.33 7.01 -9.66 6.02 -10 5 C-9.40703125 5.22558594 -8.8140625 5.45117188 -8.203125 5.68359375 C-5.95687258 6.26498257 -5.95687258 6.26498257 -4.296875 4.78515625 C-3.53117188 3.93244141 -3.53117188 3.93244141 -2.75 3.0625 C-2.22921875 2.49660156 -1.7084375 1.93070312 -1.171875 1.34765625 C-0.78515625 0.90292969 -0.3984375 0.45820312 0 0 Z " fill="#000000" transform="translate(19,6)"/>
</svg>
