<svg width="25" height="25" viewBox="0 0 25 25" fill="none" xmlns="http://www.w3.org/2000/svg">
<g clip-path="url(#clip0_7321_6999)">
<path d="M25 12.5C25 5.59644 19.4036 0 12.5 0C5.59644 0 0 5.59644 0 12.5C0 19.4036 5.59644 25 12.5 25C19.4036 25 25 19.4036 25 12.5Z" fill="#168B9A"/>
<mask id="mask0_7321_6999" style="mask-type:luminance" maskUnits="userSpaceOnUse" x="0" y="0" width="25" height="25">
<path d="M25 0H0V25H25V0Z" fill="white"/>
</mask>
<g mask="url(#mask0_7321_6999)">
<mask id="mask1_7321_6999" style="mask-type:luminance" maskUnits="userSpaceOnUse" x="0" y="0" width="25" height="25">
<path d="M24.9918 0H0V25H24.9918V0Z" fill="white"/>
</mask>
<g mask="url(#mask1_7321_6999)">
<path d="M11.7689 0H13.2336C13.6517 0.052368 14.0722 0.0899925 14.4879 0.163635C17.6305 0.679074 20.459 2.37153 22.3987 4.89717C24.3385 7.4228 25.244 10.5922 24.9312 13.7613C24.7056 16.361 23.6334 18.8149 21.8791 20.7467C20.7761 22.0264 19.42 23.0639 17.8963 23.7938C16.3726 24.5237 14.7142 24.9302 13.0257 24.9877C10.6036 25.1242 8.19769 24.5163 6.13113 23.2457C4.57267 22.3359 3.23316 21.0947 2.20734 19.6101C1.18151 18.1255 0.494456 16.4336 0.194749 14.6541C0.107196 14.1852 0.0638236 13.7082 0 13.2352V11.7673C0.019638 11.5913 0.0400926 11.4163 0.0597306 11.2403C0.342117 8.53167 1.49874 5.98857 3.35471 3.99561C5.21067 2.00265 7.66505 0.668175 10.3467 0.193925C10.8181 0.111282 11.2951 0.0662782 11.7689 0ZM10.5579 14.5592C10.5055 14.5141 10.4621 14.4773 10.4204 14.4421C9.80231 13.8764 9.18431 13.3105 8.56623 12.7443C8.0753 12.3007 7.60891 11.8352 7.09341 11.4244C6.92497 11.2911 6.72378 11.2056 6.51092 11.1767C6.29806 11.1478 6.08135 11.1767 5.8835 11.2604C5.68565 11.3441 5.51395 11.4794 5.38635 11.6522C5.25876 11.825 5.17996 12.0289 5.15824 12.2427C5.13331 12.4618 5.16453 12.6838 5.24898 12.8877C5.33343 13.0915 5.46834 13.2705 5.64101 13.4078C6.98402 14.6276 8.32569 15.8489 9.66598 17.072C9.78615 17.2124 9.93598 17.3246 10.1046 17.4003C10.2731 17.4762 10.4564 17.5138 10.6412 17.5105C10.8261 17.5072 11.0079 17.4631 11.1737 17.3813C11.3395 17.2996 11.4852 17.1823 11.6003 17.0376C14.1881 14.4699 16.7752 11.902 19.3614 9.33375C19.431 9.265 19.4989 9.19467 19.5611 9.12025C19.6793 8.97975 19.7651 8.81492 19.8122 8.6375C19.8594 8.46008 19.8669 8.27441 19.8341 8.09376C19.8015 7.91311 19.7293 7.74188 19.6228 7.59231C19.5164 7.44274 19.3782 7.31849 19.2182 7.22841C18.9586 7.07792 18.6537 7.02474 18.3584 7.07841C18.0631 7.13208 17.7965 7.28909 17.6063 7.52134C15.3212 9.80483 13.0369 12.0888 10.7535 14.3733C10.6937 14.4322 10.6291 14.4913 10.5579 14.5592Z" fill="#168B9A"/>
<path d="M10.554 14.5593C10.6251 14.4914 10.6906 14.4324 10.752 14.3702C13.0365 12.0862 15.3208 9.80225 17.6048 7.51824C17.795 7.28599 18.0616 7.12897 18.357 7.07531C18.6523 7.02163 18.957 7.07481 19.2168 7.22531C19.3768 7.31539 19.5149 7.43964 19.6214 7.58921C19.7278 7.73878 19.8 7.91 19.8327 8.09065C19.8655 8.2713 19.858 8.45692 19.8108 8.63433C19.7635 8.81175 19.6778 8.97658 19.5596 9.11708C19.4975 9.19242 19.4287 9.26192 19.36 9.33067C16.7732 11.8989 14.1862 14.4668 11.5989 17.0345C11.4837 17.1791 11.338 17.2965 11.1722 17.3782C11.0065 17.46 10.8246 17.5041 10.6398 17.5074C10.455 17.5107 10.2717 17.4731 10.1031 17.3972C9.93445 17.3214 9.7847 17.2093 9.66454 17.0688C8.32368 15.8469 6.98204 14.6252 5.63956 13.4039C5.46689 13.2666 5.33199 13.0876 5.24754 12.8837C5.16309 12.6799 5.13184 12.4579 5.15677 12.2387C5.17849 12.025 5.25729 11.8211 5.38488 11.6482C5.51248 11.4755 5.68418 11.3402 5.88203 11.2565C6.07988 11.1728 6.29659 11.1439 6.50945 11.1727C6.72231 11.2017 6.9235 11.2872 7.09195 11.4205C7.60581 11.8296 8.07384 12.2968 8.56479 12.7403C9.18395 13.3049 9.80195 13.8708 10.419 14.4382C10.4574 14.4799 10.5016 14.5151 10.554 14.5593Z" fill="white"/>
</g>
</g>
</g>
<defs>
<clipPath id="clip0_7321_6999">
<rect width="25" height="25" fill="white"/>
</clipPath>
</defs>
</svg>
