<svg width="26" height="25" viewBox="0 0 26 25" fill="none" xmlns="http://www.w3.org/2000/svg">
<mask id="mask0_7418_5282" style="mask-type:luminance" maskUnits="userSpaceOnUse" x="0" y="0" width="26" height="25">
<path d="M25.5 0H0.5V25H25.5V0Z" fill="white"/>
</mask>
<g mask="url(#mask0_7418_5282)">
<mask id="mask1_7418_5282" style="mask-type:luminance" maskUnits="userSpaceOnUse" x="0" y="0" width="26" height="25">
<path d="M25.4918 0H0.5V25H25.4918V0Z" fill="white"/>
</mask>
<g mask="url(#mask1_7418_5282)">
<path d="M12.2689 0H13.7336C14.1517 0.052368 14.5722 0.0899925 14.9879 0.163635C18.1305 0.679074 20.959 2.37153 22.8987 4.89717C24.8385 7.4228 25.744 10.5922 25.4312 13.7613C25.2056 16.361 24.1334 18.8149 22.3791 20.7467C21.2761 22.0264 19.92 23.0639 18.3963 23.7938C16.8726 24.5237 15.2142 24.9302 13.5257 24.9877C11.1036 25.1242 8.69769 24.5163 6.63113 23.2457C5.07267 22.3359 3.73316 21.0947 2.70734 19.6101C1.68151 18.1255 0.994456 16.4336 0.694749 14.6541C0.607196 14.1852 0.563824 13.7082 0.5 13.2352V11.7673C0.519638 11.5913 0.540093 11.4163 0.559731 11.2403C0.842117 8.53167 1.99874 5.98857 3.85471 3.99561C5.71067 2.00265 8.16505 0.668175 10.8467 0.193925C11.3181 0.111282 11.7951 0.0662782 12.2689 0ZM11.0579 14.5592C11.0055 14.5141 10.9621 14.4773 10.9204 14.4421C10.3023 13.8764 9.68431 13.3105 9.06623 12.7443C8.5753 12.3007 8.10891 11.8352 7.59341 11.4244C7.42497 11.2911 7.22378 11.2056 7.01092 11.1767C6.79806 11.1478 6.58135 11.1767 6.3835 11.2604C6.18565 11.3441 6.01395 11.4794 5.88635 11.6522C5.75876 11.825 5.67996 12.0289 5.65824 12.2427C5.63331 12.4618 5.66453 12.6838 5.74898 12.8877C5.83343 13.0915 5.96834 13.2705 6.14101 13.4078C7.48402 14.6276 8.82569 15.8489 10.166 17.072C10.2861 17.2124 10.436 17.3246 10.6046 17.4003C10.7731 17.4762 10.9564 17.5138 11.1412 17.5105C11.3261 17.5072 11.5079 17.4631 11.6737 17.3813C11.8395 17.2996 11.9852 17.1823 12.1003 17.0376C14.6881 14.4699 17.2752 11.902 19.8614 9.33375C19.931 9.265 19.9989 9.19467 20.0611 9.12025C20.1793 8.97975 20.2651 8.81492 20.3122 8.6375C20.3594 8.46008 20.3669 8.27441 20.3341 8.09376C20.3015 7.91311 20.2293 7.74188 20.1228 7.59231C20.0164 7.44274 19.8782 7.31849 19.7182 7.22841C19.4586 7.07792 19.1537 7.02474 18.8584 7.07841C18.5631 7.13208 18.2965 7.28909 18.1063 7.52134C15.8212 9.80483 13.5369 12.0888 11.2535 14.3733C11.1937 14.4322 11.1291 14.4913 11.0579 14.5592Z" fill="#168B9A"/>
<path d="M11.054 14.5591C11.1251 14.4912 11.1906 14.4322 11.252 14.37C13.5365 12.086 15.8208 9.802 18.1048 7.518C18.295 7.28575 18.5616 7.12873 18.857 7.07506C19.1523 7.02139 19.457 7.07457 19.7168 7.22506C19.8768 7.31515 20.0149 7.4394 20.1214 7.58896C20.2278 7.73854 20.3 7.90975 20.3327 8.0904C20.3655 8.27105 20.358 8.45667 20.3108 8.63409C20.2635 8.8115 20.1778 8.97634 20.0596 9.11684C19.9975 9.19217 19.9287 9.26167 19.86 9.33042C17.2732 11.8987 14.6862 14.4666 12.0989 17.0343C11.9837 17.1788 11.838 17.2963 11.6722 17.378C11.5065 17.4598 11.3246 17.5038 11.1398 17.5072C10.955 17.5104 10.7717 17.4728 10.6031 17.397C10.4345 17.3212 10.2847 17.2091 10.1645 17.0686C8.82368 15.8467 7.48204 14.625 6.13956 13.4037C5.96689 13.2663 5.83199 13.0873 5.74754 12.8835C5.66309 12.6797 5.63184 12.4577 5.65677 12.2385C5.67849 12.0248 5.75729 11.8208 5.88488 11.648C6.01248 11.4753 6.18418 11.3399 6.38203 11.2563C6.57988 11.1726 6.79659 11.1437 7.00945 11.1725C7.22231 11.2014 7.4235 11.2869 7.59195 11.4203C8.10581 11.8293 8.57384 12.2966 9.06479 12.7401C9.68395 13.3047 10.302 13.8706 10.919 14.4379C10.9574 14.4797 11.0016 14.5148 11.054 14.5591Z" fill="white"/>
</g>
</g>
</svg>
