<svg width="750" height="500" viewBox="0 0 750 500" fill="none" xmlns="http://www.w3.org/2000/svg">
<path d="M53.804 198.753C55.544 197.702 57.396 196.904 59.306 196.362L60.439 190.916L69.641 190.755L70.965 196.157C72.893 196.632 74.772 197.364 76.548 198.354L81.198 195.306L87.819 201.699L84.936 206.453C85.988 208.194 86.785 210.046 87.327 211.957L92.773 213.09L92.935 222.291L87.532 223.616C87.057 225.544 86.325 227.423 85.336 229.199L88.384 233.85L81.992 240.471L77.238 237.588C75.498 238.64 73.645 239.436 71.735 239.979L70.601 245.425L61.4 245.586L60.075 240.183C58.147 239.708 56.268 238.976 54.492 237.986L49.842 241.035L43.221 234.642L46.104 229.888C45.052 228.148 44.255 226.296 43.713 224.385L38.267 223.252L38.106 214.051L43.509 212.726C43.984 210.798 44.716 208.919 45.706 207.143L42.658 202.492L49.05 195.871L53.804 198.753ZM58.709 211.011C54.922 214.934 55.032 221.184 58.955 224.971C62.877 228.758 69.128 228.648 72.915 224.725C76.702 220.802 76.592 214.552 72.67 210.765C68.746 206.979 62.496 207.089 58.709 211.011Z" fill="#EBEBEB"/>
<path d="M67.3549 65.581C69.0949 64.53 70.9469 63.733 72.8569 63.19L73.9899 57.744L83.1919 57.583L84.5159 62.985C86.4439 63.46 88.3239 64.192 90.0989 65.182L94.7489 62.133L101.37 68.526L98.4879 73.28C99.5399 75.02 100.337 76.873 100.879 78.784L106.325 79.917L106.487 89.118L101.084 90.443C100.609 92.371 99.8769 94.25 98.8879 96.025L101.936 100.676L95.5439 107.297L90.7899 104.414C89.0499 105.466 87.1969 106.263 85.2869 106.805L84.1529 112.251L74.9519 112.412L73.6279 107.009C71.6999 106.534 69.8209 105.802 68.0449 104.812L63.3949 107.861L56.7739 101.469L59.6569 96.715C58.6049 94.975 57.8079 93.123 57.2659 91.212L51.8199 90.079L51.6589 80.878L57.0619 79.553C57.5369 77.625 58.2689 75.746 59.2579 73.97L56.2099 69.319L62.6019 62.698L67.3549 65.581ZM72.2599 77.839C68.4729 81.762 68.5819 88.012 72.5049 91.799C76.4269 95.586 82.6779 95.476 86.4649 91.553C90.2519 87.63 90.1419 81.38 86.2199 77.593C82.2969 73.806 76.0469 73.916 72.2599 77.839Z" fill="#EBEBEB"/>
<path d="M268.141 117.225C270.241 115.956 272.478 114.993 274.784 114.338L276.152 107.762L287.261 107.567L288.86 114.089C291.188 114.663 293.457 115.546 295.601 116.741L301.216 113.06L309.209 120.778L305.729 126.517C306.999 128.618 307.961 130.855 308.616 133.162L315.191 134.53L315.386 145.639L308.863 147.238C308.289 149.566 307.406 151.834 306.211 153.978L309.891 159.593L302.174 167.587L296.434 164.106C294.333 165.376 292.097 166.338 289.79 166.993L288.421 173.569L277.312 173.764L275.713 167.241C273.385 166.667 271.117 165.784 268.973 164.589L263.358 168.27L255.364 160.552L258.844 154.812C257.574 152.711 256.612 150.475 255.957 148.168L249.382 146.8L249.187 135.691L255.71 134.091C256.284 131.763 257.168 129.495 258.362 127.351L254.682 121.736L262.399 113.743L268.141 117.225ZM274.064 132.025C269.491 136.761 269.624 144.307 274.36 148.879C279.096 153.451 286.642 153.318 291.214 148.583C295.786 143.847 295.654 136.301 290.918 131.729C286.182 127.156 278.636 127.289 274.064 132.025Z" fill="#EBEBEB"/>
<path d="M116.844 44.995C117.723 44.463 118.66 44.061 119.625 43.786L120.198 41.033L124.849 40.951L125.518 43.682C126.493 43.922 127.443 44.292 128.34 44.792L130.691 43.251L134.038 46.482L132.581 48.885C133.113 49.765 133.516 50.701 133.79 51.667L136.543 52.24L136.625 56.891L133.894 57.561C133.654 58.535 133.284 59.485 132.784 60.383L134.325 62.734L131.094 66.081L128.691 64.624C127.811 65.156 126.875 65.558 125.909 65.833L125.336 68.586L120.685 68.668L120.016 65.937C119.041 65.697 118.092 65.327 117.194 64.827L114.843 66.368L111.496 63.137L112.953 60.734C112.421 59.854 112.018 58.918 111.744 57.952L108.991 57.379L108.909 52.728L111.64 52.058C111.88 51.084 112.25 50.134 112.75 49.236L111.209 46.885L114.44 43.538L116.844 44.995ZM119.324 51.192C117.409 53.175 117.465 56.334 119.448 58.249C121.431 60.163 124.59 60.108 126.504 58.125C128.418 56.142 128.363 52.983 126.38 51.069C124.397 49.153 121.238 49.209 119.324 51.192Z" fill="#EBEBEB"/>
<path fill-rule="evenodd" clip-rule="evenodd" d="M608.717 78.196C608.717 79.157 607.938 79.936 606.977 79.936C606.016 79.936 605.237 79.157 605.237 78.196C605.237 77.235 606.016 76.456 606.977 76.456C607.938 76.456 608.717 77.235 608.717 78.196Z" fill="#E0E0E0"/>
<path fill-rule="evenodd" clip-rule="evenodd" d="M653.734 49.395C653.734 50.356 652.955 51.135 651.994 51.135C651.033 51.135 650.254 50.356 650.254 49.395C650.254 48.434 651.033 47.655 651.994 47.655C652.956 47.655 653.734 48.434 653.734 49.395Z" fill="#E0E0E0"/>
<path d="M600.072 400.96C600.072 400.96 600.055 400.484 600.046 399.554C600.04 398.616 600.032 397.234 600.021 395.424C600.01 391.783 599.994 386.426 599.974 379.518C599.955 365.682 599.927 345.645 599.893 320.799C599.872 271.09 599.844 202.15 599.812 125.182V125.12L599.84 125.065C602.095 120.589 604.516 115.782 606.953 110.945L606.925 111.062C606.925 110.753 606.925 110.418 606.925 110.082C606.925 99.254 606.926 88.564 606.926 78.197L607.185 78.456C506.655 78.394 421.63 78.341 378.916 78.315L379.033 78.198C379.008 88.761 378.99 96.869 378.977 102.346C378.964 105.075 378.954 107.146 378.947 108.544C378.937 109.934 378.916 110.641 378.916 110.641C378.916 110.641 378.895 109.934 378.885 108.544C378.878 107.145 378.868 105.074 378.855 102.346C378.842 96.869 378.823 88.761 378.799 78.198V78.08H378.917C421.631 78.054 506.655 78.001 607.186 77.939H607.445V78.198C607.445 88.566 607.446 99.256 607.447 110.083C607.447 110.419 607.447 110.754 607.447 111.063V111.125L607.419 111.18C604.982 116.017 602.56 120.824 600.305 125.3L600.333 125.183C600.301 202.151 600.273 271.091 600.252 320.8C600.218 345.646 600.19 365.683 600.171 379.519C600.15 386.427 600.134 391.785 600.124 395.425C600.113 397.235 600.105 398.617 600.099 399.555C600.089 400.484 600.072 400.96 600.072 400.96Z" fill="#E0E0E0"/>
<path d="M644.903 203.258C644.903 203.258 644.875 202.751 644.851 201.763C644.83 200.764 644.799 199.299 644.758 197.385C644.69 193.531 644.59 187.879 644.461 180.635C644.23 166.122 643.899 145.241 643.494 119.72L643.493 119.682L643.507 119.645C646.049 112.88 648.725 105.76 651.517 98.328L651.503 98.406C651.495 83.481 651.486 66.95 651.477 49.483L651.726 49.732C631.779 49.735 610.136 49.739 587.707 49.743C549.236 49.731 513.082 49.72 481.75 49.711H481.605L481.543 49.581C479.383 45.013 477.288 40.581 475.249 36.27L475.445 36.394C445.721 36.356 421.074 36.324 403.845 36.302C395.243 36.276 388.496 36.256 383.886 36.242C381.594 36.228 379.837 36.217 378.639 36.21C377.453 36.199 376.841 36.176 376.841 36.176C376.841 36.176 377.453 36.154 378.639 36.142C379.837 36.135 381.594 36.124 383.886 36.11C388.496 36.096 395.243 36.076 403.845 36.051C421.074 36.029 445.721 35.997 475.445 35.959H475.582L475.641 36.084C477.686 40.392 479.787 44.821 481.954 49.386L481.748 49.256C513.08 49.247 549.234 49.235 587.705 49.224C610.134 49.228 631.777 49.232 651.724 49.235H651.973V49.484C651.964 66.951 651.955 83.482 651.947 98.407V98.448L651.933 98.486C649.128 105.913 646.441 113.03 643.888 119.79L643.901 119.715C644.232 145.237 644.502 166.118 644.69 180.632C644.771 187.877 644.834 193.529 644.876 197.384C644.891 199.298 644.902 200.763 644.91 201.762C644.916 202.75 644.903 203.258 644.903 203.258Z" fill="#E0E0E0"/>
<path d="M632.43 214.44C632.43 214.44 632.398 213.878 632.365 212.783C632.335 211.679 632.29 210.053 632.232 207.927C632.128 203.653 631.976 197.373 631.78 189.31C631.413 173.162 630.883 149.88 630.234 121.298L630.233 121.255L630.25 121.215C633.224 114.25 636.372 106.877 639.655 99.189L639.638 99.268C639.931 87.232 640.249 74.214 640.581 60.574L640.818 60.817C607.339 60.824 569.717 60.832 530.076 60.841C460.478 60.814 397.119 60.79 350.265 60.772L350.4 60.716C345.206 65.899 340.34 70.755 335.78 75.306L335.729 75.357L335.658 75.356C314.906 75.176 298.379 75.033 287.029 74.934C281.365 74.874 276.994 74.828 274.029 74.797C272.558 74.776 271.437 74.761 270.674 74.75C269.92 74.737 269.536 74.718 269.536 74.718C269.536 74.718 269.921 74.704 270.675 74.702C271.438 74.702 272.559 74.702 274.03 74.702C276.995 74.713 281.365 74.728 287.03 74.749C298.38 74.811 314.908 74.901 335.66 75.015L335.538 75.065C340.089 70.505 344.945 65.639 350.128 60.445L350.184 60.389H350.264C397.118 60.371 460.477 60.347 530.075 60.32C569.716 60.328 607.338 60.336 640.817 60.344H641.06L641.054 60.587C640.706 74.226 640.375 87.244 640.068 99.28L640.067 99.322L640.051 99.36C636.757 107.043 633.598 114.411 630.613 121.372L630.629 121.29C631.206 149.873 631.675 173.157 632.001 189.306C632.151 197.37 632.268 203.651 632.347 207.926C632.38 210.053 632.406 211.679 632.423 212.783C632.437 213.878 632.43 214.44 632.43 214.44Z" fill="#E0E0E0"/>
<path fill-rule="evenodd" clip-rule="evenodd" d="M272.514 74.548C272.514 75.509 271.735 76.288 270.774 76.288C269.813 76.288 269.034 75.509 269.034 74.548C269.034 73.587 269.813 72.808 270.774 72.808C271.736 72.809 272.514 73.588 272.514 74.548Z" fill="#E0E0E0"/>
<path fill-rule="evenodd" clip-rule="evenodd" d="M376.842 36.177C376.842 37.138 376.063 37.917 375.102 37.917C374.141 37.917 373.362 37.138 373.362 36.177C373.362 35.216 374.141 34.437 375.102 34.437C376.063 34.437 376.842 35.216 376.842 36.177Z" fill="#E0E0E0"/>
<path d="M665.638 397.699H629.287C639.932 361.516 642.353 293.652 640.567 248.765H653.938C653.238 293.539 656.471 361.012 665.638 397.699Z" fill="#EBEBEB"/>
<path d="M715.612 441.695C709.262 434.687 699.771 431.105 690.723 432.3C691.589 424.281 692.39 415.787 689.235 408.455C686.081 401.124 677.402 395.892 670.797 399.779C673.241 388.689 668.961 376.24 660.385 369.498C651.809 362.757 639.439 362.117 630.297 367.942C621.155 373.767 615.775 385.717 617.211 397.008C608.059 396.225 598.664 400.883 593.299 408.864C587.934 416.845 586.787 427.867 590.38 436.917C576.769 436.191 563.793 453.995 564.062 468.592L723.43 468.396C724.812 458.743 721.962 448.703 715.612 441.695Z" fill="#EBEBEB"/>
<path d="M635.385 182.104L666.068 192.678C672.841 199.633 668.294 209.439 662.57 213.214C666.705 215.213 669.278 220.033 668.637 224.581C667.996 229.129 664.192 233.051 659.665 233.829C662.728 238.385 660.926 245.438 656.053 247.966C651.18 250.494 644.376 247.906 642.415 242.778C641.121 239.394 641.733 235.394 639.907 232.264C638.194 229.329 634.8 227.918 632.035 225.943C625.168 221.037 621.976 211.942 623.049 203.57C624.121 195.2 629.005 187.628 635.385 182.104Z" fill="#EBEBEB"/>
<path d="M654.87 189.048C656.052 192.065 656.611 195.32 656.534 198.559C656.484 200.676 653.74 201.486 652.525 199.752L652.493 199.706C652.623 203.678 652.492 207.659 652.102 211.614C651.853 214.14 648.595 214.986 647.161 212.892C641.541 204.684 638.947 194.397 640.202 184.515L654.87 189.048Z" fill="#E0E0E0"/>
<path d="M624.439 152.057C624.414 152.076 624.358 152.12 624.272 152.189C614.611 159.948 609.012 171.688 609.017 184.079L609.02 191.851L624.451 181.121L624.439 152.057Z" fill="#E0E0E0"/>
<path d="M668.522 152.038C668.547 152.056 668.602 152.101 668.686 152.168C678.222 159.813 683.756 171.387 683.761 183.61L683.765 191.276L668.535 180.705L668.522 152.038Z" fill="#E0E0E0"/>
<path d="M646.447 75.945C649.936 75.943 656.356 84.961 662.322 100.027C668.197 114.861 668.511 127.82 668.511 127.82L668.54 192.677L651.451 192.685L641.546 192.689L624.457 192.697L624.431 133.843C624.428 128.092 624.95 122.351 626.04 116.704C626.978 111.849 628.419 105.929 630.592 100.041C636.184 84.9 642.957 75.946 646.447 75.945Z" fill="#F5F5F5"/>
<path d="M624.898 182.163C624.898 182.227 634.667 182.331 646.716 182.396C658.769 182.461 668.537 182.462 668.537 182.398C668.537 182.334 658.77 182.23 646.717 182.164C634.668 182.101 624.898 182.1 624.898 182.163Z" fill="#E0E0E0"/>
<path d="M625.094 184.13C625.094 184.194 634.863 184.298 646.912 184.363C658.965 184.428 668.733 184.429 668.733 184.365C668.733 184.301 658.966 184.197 646.913 184.131C634.865 184.067 625.094 184.066 625.094 184.13Z" fill="#E0E0E0"/>
<path d="M625.06 186.204C625.06 186.268 634.829 186.372 646.878 186.437C658.931 186.502 668.699 186.503 668.699 186.439C668.699 186.375 658.932 186.271 646.879 186.205C634.831 186.141 625.061 186.14 625.06 186.204Z" fill="#E0E0E0"/>
<path d="M625.027 188.278C625.027 188.342 634.796 188.446 646.845 188.511C658.898 188.576 668.666 188.577 668.666 188.513C668.666 188.449 658.899 188.345 646.846 188.28C634.797 188.215 625.027 188.214 625.027 188.278Z" fill="#E0E0E0"/>
<path d="M624.993 190.353C624.993 190.417 634.762 190.521 646.811 190.586C658.864 190.651 668.632 190.652 668.632 190.588C668.632 190.524 658.865 190.42 646.812 190.355C634.764 190.29 624.993 190.289 624.993 190.353Z" fill="#E0E0E0"/>
<path d="M646.394 152.096C646.386 152.093 646.37 152.196 646.346 152.398C646.314 152.602 646.314 152.896 646.294 153.278C646.265 154.041 646.247 155.146 646.237 156.51C646.217 159.239 646.233 163.009 646.275 167.172C646.317 171.337 646.379 175.106 646.436 177.834C646.47 179.178 646.497 180.275 646.517 181.065C646.531 181.427 646.543 181.719 646.551 181.943C646.561 182.144 646.571 182.249 646.579 182.249C646.587 182.249 646.593 182.143 646.598 181.942C646.6 181.718 646.603 181.426 646.607 181.063C646.605 180.273 646.603 179.176 646.599 177.832C646.575 175.08 646.542 171.322 646.506 167.17C646.465 163.019 646.428 159.262 646.4 156.51C646.393 155.166 646.388 154.07 646.384 153.28C646.39 152.9 646.376 152.6 646.392 152.404C646.401 152.206 646.402 152.098 646.394 152.096Z" fill="#E0E0E0"/>
<path d="M624.439 152.057C624.439 152.121 634.224 152.175 646.292 152.179C658.364 152.183 668.147 152.134 668.147 152.07C668.147 152.006 658.364 151.951 646.292 151.948C634.224 151.945 624.439 151.994 624.439 152.057Z" fill="#E0E0E0"/>
<path d="M642.871 173.486C642.879 173.477 642.799 173.385 642.602 173.294C642.409 173.204 642.083 173.133 641.699 173.228C641.325 173.311 640.868 173.618 640.724 174.146C640.575 174.648 640.702 175.312 641.199 175.711C641.707 176.096 642.382 176.058 642.833 175.791C643.31 175.523 643.497 175.005 643.487 174.622C643.485 174.227 643.337 173.928 643.203 173.762C643.067 173.593 642.958 173.538 642.951 173.547C642.938 173.562 643.024 173.64 643.128 173.812C643.231 173.981 643.341 174.263 643.323 174.617C643.31 174.964 643.135 175.389 642.727 175.605C642.338 175.825 641.753 175.844 641.341 175.528C640.934 175.205 640.81 174.633 640.929 174.202C641.04 173.755 641.41 173.481 641.743 173.384C642.081 173.28 642.381 173.319 642.571 173.377C642.762 173.438 642.859 173.503 642.871 173.486Z" fill="#E0E0E0"/>
<path d="M642.633 160.951C642.641 160.942 642.561 160.85 642.364 160.759C642.17 160.669 641.845 160.598 641.461 160.693C641.087 160.776 640.63 161.083 640.486 161.611C640.337 162.114 640.464 162.777 640.961 163.176C641.469 163.561 642.144 163.523 642.595 163.256C643.072 162.988 643.259 162.47 643.249 162.087C643.247 161.692 643.099 161.393 642.965 161.227C642.829 161.058 642.72 161.003 642.713 161.012C642.7 161.027 642.786 161.105 642.89 161.277C642.993 161.446 643.103 161.728 643.085 162.081C643.072 162.428 642.897 162.853 642.489 163.069C642.1 163.289 641.515 163.308 641.103 162.992C640.696 162.67 640.572 162.098 640.691 161.666C640.802 161.219 641.172 160.945 641.505 160.848C641.843 160.744 642.143 160.782 642.333 160.841C642.524 160.903 642.621 160.968 642.633 160.951Z" fill="#E0E0E0"/>
<path d="M645.27 219.175C646.299 219.831 646.65 221.354 646.012 222.394C645.375 223.434 643.859 223.813 642.807 223.195C641.755 222.577 641.348 221.069 641.947 220.005C642.546 218.942 644.046 218.507 645.12 219.086" fill="#E0E0E0"/>
<path d="M636.468 113.421C632.832 118.897 634.323 126.284 639.799 129.92C645.275 133.556 652.662 132.065 656.298 126.589C659.934 121.113 658.443 113.726 652.967 110.09C647.491 106.453 640.104 107.945 636.468 113.421Z" fill="white"/>
<path d="M636.468 113.421C636.525 113.466 637.057 112.539 638.453 111.28C639.825 110.048 642.271 108.525 645.629 108.322C647.285 108.233 649.144 108.46 650.936 109.247C652.711 110.037 654.475 111.286 655.752 113.076C656.414 113.949 656.943 114.954 657.326 116.033C657.725 117.106 657.964 118.268 658.005 119.458C658.143 121.84 657.46 124.327 656.082 126.444C654.665 128.536 652.638 130.132 650.389 130.929C649.276 131.352 648.113 131.583 646.968 131.632C645.825 131.698 644.693 131.6 643.632 131.328C641.486 130.845 639.651 129.704 638.234 128.374C636.813 127.027 635.883 125.402 635.322 123.841C634.206 120.667 634.662 117.822 635.264 116.08C635.884 114.306 636.532 113.456 636.468 113.421C636.453 113.411 636.305 113.626 636.035 114.048C635.895 114.256 635.733 114.52 635.582 114.855C635.42 115.184 635.223 115.56 635.076 116.014C634.406 117.764 633.873 120.673 634.978 123.962C635.533 125.579 636.476 127.272 637.936 128.683C639.391 130.076 641.289 131.275 643.52 131.792C644.624 132.081 645.802 132.189 646.994 132.126C648.187 132.08 649.401 131.843 650.564 131.405C652.912 130.58 655.037 128.915 656.514 126.73C657.953 124.521 658.663 121.918 658.512 119.434C658.464 118.193 658.212 116.983 657.791 115.865C657.387 114.742 656.829 113.698 656.135 112.793C654.793 110.937 652.952 109.654 651.104 108.852C649.238 108.053 647.311 107.841 645.606 107.957C642.147 108.215 639.672 109.834 638.318 111.131C637.956 111.443 637.686 111.77 637.446 112.047C637.197 112.316 637.016 112.568 636.878 112.778C636.594 113.191 636.453 113.411 636.468 113.421Z" fill="#E0E0E0"/>
<path d="M646.447 75.945C649.936 75.943 656.356 84.961 662.322 100.027L630.593 100.041C636.184 84.9 642.957 75.946 646.447 75.945Z" fill="#E0E0E0"/>
<path d="M646.447 75.945C646.447 75.945 646.241 75.96 645.833 76.014C645.436 76.114 644.867 76.352 644.199 76.797C642.872 77.703 641.235 79.448 639.472 81.932C635.975 86.922 631.91 94.895 628.619 105.434C627.05 110.72 625.63 116.638 624.846 123.136C624.466 126.384 624.242 129.771 624.222 133.27C624.219 136.761 624.215 140.361 624.212 144.062C624.21 158.864 624.207 175.267 624.204 192.697V192.953H624.46C631.535 192.951 638.949 192.948 646.498 192.946C654.049 192.942 661.466 192.937 668.542 192.933H668.798V192.678C668.78 175.242 668.762 158.836 668.746 144.032C668.74 140.332 668.735 136.731 668.729 133.24C668.726 131.495 668.723 129.776 668.72 128.087C668.679 126.38 668.511 124.727 668.323 123.101C667.539 116.603 666.115 110.68 664.435 105.426C662.694 100.186 660.72 95.615 658.835 91.693C656.93 87.78 655.085 84.52 653.343 82.017C651.605 79.516 649.999 77.746 648.688 76.816C648.342 76.613 648.058 76.398 647.778 76.28C647.492 76.175 647.263 76.054 647.062 76.017C646.652 75.959 646.447 75.945 646.447 75.945C646.447 75.945 646.653 75.993 647.049 76.061C647.245 76.105 647.468 76.232 647.745 76.342C648.018 76.465 648.295 76.685 648.631 76.891C649.908 77.835 651.483 79.612 653.19 82.119C654.901 84.628 656.718 87.892 658.595 91.806C660.452 95.728 662.4 100.303 664.112 105.527C665.764 110.769 667.162 116.676 667.924 123.145C668.107 124.76 668.27 126.418 668.305 128.09C668.304 129.78 668.302 131.498 668.301 133.243C668.299 136.734 668.296 140.334 668.294 144.034C668.292 158.837 668.289 175.242 668.286 192.677L668.541 192.422C661.465 192.424 654.048 192.426 646.497 192.429C638.948 192.433 631.533 192.438 624.458 192.442L624.713 192.697C624.695 175.267 624.677 158.864 624.662 144.062C624.657 140.362 624.653 136.763 624.649 133.273C624.661 129.79 624.875 126.418 625.244 123.183C626.005 116.715 627.4 110.806 628.942 105.531C632.178 95.016 636.187 87.035 639.622 82.037C641.354 79.547 642.959 77.795 644.253 76.875C644.905 76.423 645.458 76.175 645.845 76.061C646.241 75.992 646.447 75.945 646.447 75.945Z" fill="#E0E0E0"/>
<path d="M639.879 126.082C639.927 126.131 640.626 125.534 641.677 124.49C642.73 123.448 644.129 121.954 645.638 120.278C647.072 118.671 648.369 117.216 649.481 115.97C650.461 114.866 651.066 114.179 651.014 114.126C650.966 114.077 650.267 114.674 649.216 115.718C648.162 116.76 646.764 118.254 645.255 119.931C643.822 121.538 642.524 122.992 641.412 124.238C640.432 125.342 639.827 126.029 639.879 126.082Z" fill="#E0E0E0"/>
<path d="M643.38 126.095C643.479 126.198 645.192 124.587 647.205 122.499C649.219 120.41 650.765 118.639 650.658 118.543C650.552 118.448 648.839 120.057 646.832 122.14C644.827 124.222 643.281 125.993 643.38 126.095Z" fill="#E0E0E0"/>
<path d="M711.52 468.805C711.52 468.949 559.052 469.065 371.016 469.065C182.915 469.065 30.479 468.948 30.479 468.805C30.479 468.662 182.915 468.545 371.016 468.545C559.052 468.544 711.52 468.661 711.52 468.805Z" fill="#263238"/>
<path d="M672.681 293.696H636.092C630.641 293.696 626.222 289.277 626.222 283.826V247.237C626.222 241.786 630.641 237.367 636.092 237.367H672.681C678.132 237.367 682.551 241.786 682.551 247.237V283.826C682.551 289.277 678.132 293.696 672.681 293.696Z" fill="#263238"/>
<path d="M664.418 293.696H627.829C622.378 293.696 617.959 289.277 617.959 283.826V247.237C617.959 241.786 622.378 237.367 627.829 237.367H664.418C669.869 237.367 674.288 241.786 674.288 247.237V283.826C674.288 289.277 669.869 293.696 664.418 293.696Z" fill="#455A64"/>
<path d="M628.892 265.199L634.25 259.841L644.584 269.026L661.841 251.704L666.816 257.062L643.819 279.36L628.892 265.199Z" fill="white"/>
<path d="M646.56 407.795C649.328 408.996 651.364 411.555 652.386 414.394C653.408 417.233 653.5 420.335 653.16 423.333C652.503 429.134 649.206 434.99 645.657 439.626C640.772 435.363 639.648 427.925 639.315 424.117C638.788 418.097 641.492 406.897 646.56 407.795Z" fill="#FF725E"/>
<path d="M651.335 449.201C650.553 445.922 651.917 442.326 654.434 440.083C656.951 437.841 660.467 436.892 663.828 437.149C665.382 437.268 667.062 437.721 667.951 439.001C668.783 440.197 668.69 441.867 668.015 443.158C667.34 444.449 666.172 445.415 664.938 446.189C660.705 448.844 656.121 450.637 651.335 449.201Z" fill="#FF725E"/>
<path d="M645.07 466.988C645.041 466.981 645.108 466.558 645.244 465.797C645.398 464.959 645.596 463.876 645.835 462.576C646.375 459.884 647.068 456.028 649.16 452.284C651.224 448.55 654.113 445.8 656.546 444.435C657.754 443.736 658.811 443.32 659.558 443.103C659.927 442.979 660.227 442.932 660.425 442.883C660.625 442.841 660.731 442.826 660.735 442.84C660.769 442.935 659.043 443.245 656.7 444.692C654.351 446.097 651.56 448.819 649.53 452.49C647.479 456.156 646.742 459.959 646.129 462.636C645.833 463.986 645.593 465.08 645.406 465.831C645.219 466.583 645.097 466.994 645.07 466.988Z" fill="#263238"/>
<path d="M645.254 416.505C645.269 416.505 645.289 416.684 645.314 417.025C645.337 417.411 645.366 417.907 645.403 418.52C645.472 419.819 645.549 421.699 645.624 424.023C645.775 428.671 645.892 435.096 645.863 442.193C645.831 449.292 645.658 455.716 645.467 460.363C645.372 462.687 645.28 464.566 645.199 465.864C645.157 466.477 645.124 466.972 645.097 467.358C645.069 467.699 645.047 467.878 645.033 467.878C645.019 467.877 645.012 467.697 645.012 467.355C645.018 466.968 645.025 466.472 645.034 465.858C645.067 464.505 645.112 462.638 645.168 460.354C645.282 455.707 645.408 449.286 645.44 442.192C645.469 435.101 645.399 428.679 645.325 424.031C645.289 421.746 645.26 419.879 645.239 418.526C645.235 417.912 645.232 417.415 645.23 417.028C645.231 416.686 645.24 416.506 645.254 416.505Z" fill="#263238"/>
<path d="M642.883 452.732C641.771 445.713 637.041 439.367 630.632 436.297C629 435.515 626.868 435.004 625.526 436.218C624.182 437.434 624.483 439.617 625.141 441.306C627.877 448.335 635.226 453.297 642.768 453.208" fill="#FF725E"/>
<path d="M631.423 441.8C631.436 441.774 631.803 441.935 632.46 442.252C632.789 442.408 633.192 442.601 633.631 442.876C634.07 443.15 634.6 443.418 635.122 443.811C635.655 444.188 636.25 444.588 636.828 445.095C637.435 445.568 638.026 446.139 638.644 446.745C639.847 447.985 641.059 449.466 642.094 451.178C643.113 452.9 643.851 454.666 644.367 456.317C644.599 457.151 644.823 457.942 644.941 458.704C645.106 459.456 645.168 460.17 645.234 460.82C645.324 461.468 645.294 462.062 645.315 462.579C645.339 463.097 645.305 463.543 645.276 463.906C645.223 464.633 645.18 465.032 645.15 465.03C645.054 465.026 645.221 463.416 644.936 460.851C644.852 460.212 644.774 459.51 644.596 458.772C644.465 458.025 644.232 457.25 643.994 456.433C643.466 454.816 642.731 453.088 641.731 451.396C640.714 449.715 639.533 448.254 638.365 447.018C637.764 446.415 637.192 445.842 636.603 445.365C636.043 444.853 635.466 444.445 634.95 444.057C632.851 442.552 631.38 441.882 631.423 441.8Z" fill="#263238"/>
<path d="M200.7 218.169H96.155V468.867H200.7V218.169Z" fill="#E0E0E0"/>
<path d="M148.428 218.169H65.781V468.867H148.428V218.169Z" fill="#F5F5F5"/>
<path d="M148.553 468.683C148.409 468.683 148.293 412.537 148.293 343.294C148.293 274.027 148.41 217.893 148.553 217.893C148.696 217.893 148.813 274.027 148.813 343.294C148.813 412.537 148.696 468.683 148.553 468.683Z" fill="#263238"/>
<path d="M188.544 246.968H163.506V249.546H188.544V246.968Z" fill="#263238"/>
<path d="M188.544 254.353H163.506V256.931H188.544V254.353Z" fill="#263238"/>
<path d="M188.544 261.738H163.506V264.317H188.544V261.738Z" fill="#263238"/>
<path d="M140.443 228.832H74.322V460.908H140.443V228.832Z" fill="#E0E0E0"/>
<path d="M133.849 237.376H79.072V245.672H133.849V237.376Z" fill="#EBEBEB"/>
<path d="M87.368 237.376H79.072V245.672H87.368V237.376Z" fill="#FF725E"/>
<path d="M135.549 237.376H117.513V245.672H135.549V237.376Z" fill="#F5F5F5"/>
<path d="M133.849 252.153H79.072V260.449H133.849V252.153Z" fill="#EBEBEB"/>
<path d="M87.368 252.153H79.072V260.449H87.368V252.153Z" fill="white"/>
<path d="M135.549 252.153H117.513V260.449H135.549V252.153Z" fill="#F5F5F5"/>
<path d="M133.849 266.93H79.072V275.226H133.849V266.93Z" fill="#EBEBEB"/>
<path d="M87.368 266.93H79.072V275.226H87.368V266.93Z" fill="#FF725E"/>
<path d="M135.549 266.93H117.513V275.226H135.549V266.93Z" fill="#F5F5F5"/>
<path d="M133.849 281.707H79.072V290.003H133.849V281.707Z" fill="#EBEBEB"/>
<path d="M87.368 281.707H79.072V290.003H87.368V281.707Z" fill="white"/>
<path d="M135.549 281.707H117.513V290.003H135.549V281.707Z" fill="#F5F5F5"/>
<path d="M133.849 296.484H79.072V304.78H133.849V296.484Z" fill="#EBEBEB"/>
<path d="M87.368 296.484H79.072V304.78H87.368V296.484Z" fill="#FF725E"/>
<path d="M135.549 296.484H117.513V304.78H135.549V296.484Z" fill="#F5F5F5"/>
<path d="M133.849 311.261H79.072V319.557H133.849V311.261Z" fill="#EBEBEB"/>
<path d="M87.368 311.261H79.072V319.557H87.368V311.261Z" fill="#FF725E"/>
<path d="M135.549 311.261H117.513V319.557H135.549V311.261Z" fill="#F5F5F5"/>
<path d="M133.849 326.038H79.072V334.334H133.849V326.038Z" fill="#EBEBEB"/>
<path d="M87.368 326.038H79.072V334.334H87.368V326.038Z" fill="white"/>
<path d="M135.549 326.038H117.513V334.334H135.549V326.038Z" fill="#F5F5F5"/>
<path d="M133.849 340.814H79.072V349.11H133.849V340.814Z" fill="#EBEBEB"/>
<path d="M87.368 340.814H79.072V349.11H87.368V340.814Z" fill="white"/>
<path d="M135.549 340.814H117.513V349.11H135.549V340.814Z" fill="#F5F5F5"/>
<path d="M133.849 355.591H79.072V363.887H133.849V355.591Z" fill="#EBEBEB"/>
<path d="M87.368 355.591H79.072V363.887H87.368V355.591Z" fill="white"/>
<path d="M135.549 355.591H117.513V363.887H135.549V355.591Z" fill="#F5F5F5"/>
<path d="M133.849 370.368H79.072V378.664H133.849V370.368Z" fill="#EBEBEB"/>
<path d="M87.368 370.368H79.072V378.664H87.368V370.368Z" fill="#FF725E"/>
<path d="M135.549 370.368H117.513V378.664H135.549V370.368Z" fill="#F5F5F5"/>
<path d="M133.849 385.145H79.072V393.441H133.849V385.145Z" fill="#EBEBEB"/>
<path d="M87.368 385.145H79.072V393.441H87.368V385.145Z" fill="white"/>
<path d="M135.549 385.145H117.513V393.441H135.549V385.145Z" fill="#F5F5F5"/>
<path d="M133.849 399.922H79.072V408.218H133.849V399.922Z" fill="#EBEBEB"/>
<path d="M87.368 399.922H79.072V408.218H87.368V399.922Z" fill="#FF725E"/>
<path d="M135.549 399.922H117.513V408.218H135.549V399.922Z" fill="#F5F5F5"/>
<path d="M133.849 414.699H79.072V422.995H133.849V414.699Z" fill="#EBEBEB"/>
<path d="M87.368 414.699H79.072V422.995H87.368V414.699Z" fill="white"/>
<path d="M135.549 414.699H117.513V422.995H135.549V414.699Z" fill="#F5F5F5"/>
<path d="M133.849 429.476H79.072V437.772H133.849V429.476Z" fill="#EBEBEB"/>
<path d="M87.368 429.476H79.072V437.772H87.368V429.476Z" fill="#FF725E"/>
<path d="M135.549 429.476H117.513V437.772H135.549V429.476Z" fill="#F5F5F5"/>
<path d="M133.849 444.253H79.072V452.549H133.849V444.253Z" fill="#EBEBEB"/>
<path d="M87.368 444.253H79.072V452.549H87.368V444.253Z" fill="white"/>
<path d="M135.549 444.253H117.513V452.549H135.549V444.253Z" fill="#F5F5F5"/>
<path d="M200.7 468.867C200.698 466.635 200.599 364.766 200.456 218.169L200.7 218.413C159.084 218.418 113.45 218.424 65.799 218.429H65.781L66.041 218.169C66.017 314.412 65.995 402.407 65.978 468.867L65.781 468.67C148.759 468.792 199.125 468.865 200.7 468.867C199.126 468.869 148.759 468.943 65.781 469.064H65.584V468.866C65.567 402.405 65.545 314.41 65.521 218.168V217.908H65.782H65.8C113.451 217.914 159.085 217.919 200.701 217.924H200.945V218.168C200.897 291.532 200.856 354.232 200.827 398.598C200.747 442.813 200.702 467.755 200.7 468.867Z" fill="#263238"/>
<path d="M554.922 147.509H195.077C188.873 147.509 183.845 152.538 183.845 158.741V412.907C183.845 419.111 188.874 424.14 195.077 424.14H333.185L326.489 468.544H426.623L421.032 424.14H554.922C561.125 424.14 566.154 419.111 566.154 412.908V158.742C566.155 152.538 561.126 147.509 554.922 147.509Z" fill="#455A64"/>
<path d="M379.804 397.41C384.699 404.406 377.038 412.067 370.04 407.173C369.81 407.011 369.6 406.801 369.439 406.57C364.557 399.576 372.209 391.924 379.202 396.808C379.433 396.969 379.643 397.179 379.804 397.41Z" fill="#263238"/>
<path d="M556.136 377.642H193.909V166.91C193.909 161.554 198.251 157.213 203.606 157.213H546.438C551.794 157.213 556.135 161.555 556.135 166.91L556.136 377.642Z" fill="#263238"/>
<path d="M458.16 424.144C458.16 424.267 427.995 424.366 390.792 424.366C353.577 424.366 323.418 424.266 323.418 424.144C323.418 424.022 353.577 423.922 390.792 423.922C427.994 423.922 458.16 424.021 458.16 424.144Z" fill="#263238"/>
<path d="M256.695 174.625H230.292V180.196H256.695V174.625Z" fill="#455A64"/>
<path d="M243.493 199.578H230.292V205.149H243.493V199.578Z" fill="#128D9D"/>
<path d="M258.815 212.127H240.226V217.698H258.815V212.127Z" fill="#455A64"/>
<path d="M272.602 212.127H261.772V217.698H272.602V212.127Z" fill="#455A64"/>
<path d="M369.716 212.127H347.441V217.698H369.716V212.127Z" fill="#455A64"/>
<path d="M434.819 224.361H397.186V229.932H434.819V224.361Z" fill="#455A64"/>
<path d="M492.871 212.127H474.8V217.698H492.871V212.127Z" fill="#455A64"/>
<path d="M534.749 212.127H498.414V217.698H534.749V212.127Z" fill="#455A64"/>
<path d="M258.815 224.361H240.226V229.932H258.815V224.361Z" fill="#455A64"/>
<path d="M247.394 236.563H228.805V242.134H247.394V236.563Z" fill="#128D9D"/>
<path d="M247.394 248.765H238.709V254.336H247.394V248.765Z" fill="#455A64"/>
<path d="M279.276 274.471H270.591V280.042H279.276V274.471Z" fill="#455A64"/>
<path d="M407.029 320.915H390.061V326.486H407.029V320.915Z" fill="#455A64"/>
<path d="M501.831 320.915H460.26V326.486H501.831V320.915Z" fill="#455A64"/>
<path d="M343.141 308.724H326.173V314.295H343.141V308.724Z" fill="#E0E0E0"/>
<path d="M281.654 298.261H264.686V303.832H281.654V298.261Z" fill="#455A64"/>
<path d="M386.541 320.915H359.785V326.486H386.541V320.915Z" fill="#455A64"/>
<path d="M252.803 261.195H238.709V266.766H252.803V261.195Z" fill="#455A64"/>
<path d="M264.853 274.68H238.709V280.251H264.853V274.68Z" fill="#455A64"/>
<path d="M276.96 285.004H238.709V290.575H276.96V285.004Z" fill="#455A64"/>
<path d="M346.261 285.004H308.01V290.575H346.261V285.004Z" fill="#455A64"/>
<path d="M318.057 308.724H264.35V314.295H318.057V308.724Z" fill="#455A64"/>
<path d="M355.191 320.915H264.35V326.486H355.191V320.915Z" fill="#455A64"/>
<path d="M327.708 333.105H236.867V338.676H327.708V333.105Z" fill="#455A64"/>
<path d="M303.945 285.004H280.997V290.575H303.945V285.004Z" fill="#455A64"/>
<path d="M274.5 248.765H250.822V254.336H274.5V248.765Z" fill="#455A64"/>
<path d="M279.716 261.197H256.038V266.768H279.716V261.197Z" fill="#455A64"/>
<path d="M371.456 261.197H308.76V266.768H371.456V261.197Z" fill="#455A64"/>
<path d="M445.575 261.197H373.162V266.768H445.575V261.197Z" fill="#455A64"/>
<path d="M303.207 261.197H283.61V266.768H303.207V261.197Z" fill="#455A64"/>
<path d="M308.785 248.765H277.745V254.336H308.785V248.765Z" fill="#455A64"/>
<path d="M329.487 248.765H312.209V254.336H329.487V248.765Z" fill="#E0E0E0"/>
<path d="M281.151 224.361H261.772V229.932H281.151V224.361Z" fill="#455A64"/>
<path d="M390.005 224.361H294.317V229.932H390.005V224.361Z" fill="#455A64"/>
<path d="M497.422 261.197H452.177V266.768H497.422V261.197Z" fill="#455A64"/>
<path d="M456.681 320.915H411.436V326.486H456.681V320.915Z" fill="#455A64"/>
<path d="M467.763 212.127H373.503V217.698H467.763V212.127Z" fill="#455A64"/>
<path d="M341.582 212.127H275.988V217.698H341.582V212.127Z" fill="#455A64"/>
<path d="M274.455 186.436H230.292V192.007H274.455V186.436Z" fill="#455A64"/>
<path d="M339.334 186.436H278.862V192.007H339.334V186.436Z" fill="#455A64"/>
<path d="M280.26 174.625H260.819V180.196H280.26V174.625Z" fill="#E0E0E0"/>
<path d="M220.646 174.625H215.251V180.196H220.646V174.625Z" fill="#455A64"/>
<path d="M220.646 186.815H215.251V192.386H220.646V186.815Z" fill="#455A64"/>
<path d="M220.646 199.006H215.251V204.577H220.646V199.006Z" fill="#455A64"/>
<path d="M220.646 211.197H215.251V216.768H220.646V211.197Z" fill="#455A64"/>
<path d="M220.646 223.388H215.251V228.959H220.646V223.388Z" fill="#455A64"/>
<path d="M220.646 235.579H215.251V241.15H220.646V235.579Z" fill="#455A64"/>
<path d="M220.646 247.77H215.251V253.341H220.646V247.77Z" fill="#455A64"/>
<path d="M220.646 259.961H215.251V265.532H220.646V259.961Z" fill="#455A64"/>
<path d="M220.646 272.151H215.251V277.722H220.646V272.151Z" fill="#455A64"/>
<path d="M277.145 359.44H268.46V365.011H277.145V359.44Z" fill="#E0E0E0"/>
<path d="M263.181 359.44H237.037V365.011H263.181V359.44Z" fill="#128D9D"/>
<path d="M220.646 358.822H215.251V364.393H220.646V358.822Z" fill="#455A64"/>
<path d="M220.646 284.342H215.251V289.913H220.646V284.342Z" fill="#455A64"/>
<path d="M220.646 296.533H215.251V302.104H220.646V296.533Z" fill="#455A64"/>
<path d="M220.646 308.724H215.251V314.295H220.646V308.724Z" fill="#455A64"/>
<path d="M220.646 320.915H215.251V326.486H220.646V320.915Z" fill="#455A64"/>
<path d="M220.646 333.105H215.251V338.676H220.646V333.105Z" fill="#455A64"/>
<path d="M263.35 345.934H236.867V351.505H263.35V345.934Z" fill="#455A64"/>
<path d="M328.366 345.934H268.46V351.505H328.366V345.934Z" fill="#455A64"/>
<path d="M220.646 345.934H215.251V351.505H220.646V345.934Z" fill="#455A64"/>
<path d="M366.154 186.4H346.713V191.971H366.154V186.4Z" fill="#E0E0E0"/>
<g opacity="0.3">
<path d="M389.283 283.946H376V391.835H534.229L530.107 286.57L389.283 283.946Z" fill="black"/>
</g>
<path d="M544.521 268.002H386.194V381.639H544.521V268.002Z" fill="#E0E0E0"/>
<path d="M545.021 382.139H385.694V267.502H545.021V382.139ZM386.694 381.139H544.021V268.502H386.694V381.139Z" fill="#263238"/>
<path d="M441.854 280.142H416.25V285.545H441.854V280.142Z" fill="#455A64"/>
<path d="M429.052 304.341H416.25V309.744H429.052V304.341Z" fill="#FF725E"/>
<path d="M443.911 316.511H425.884V321.914H443.911V316.511Z" fill="#455A64"/>
<path d="M457.282 316.511H446.779V321.914H457.282V316.511Z" fill="#455A64"/>
<path d="M443.911 328.375H425.884V333.778H443.911V328.375Z" fill="#455A64"/>
<path d="M432.835 340.208H414.808V345.611H432.835V340.208Z" fill="#FF725E"/>
<path d="M432.835 352.041H424.413V357.444H432.835V352.041Z" fill="#455A64"/>
<path d="M438.08 364.095H424.413V369.498H438.08V364.095Z" fill="#455A64"/>
<path d="M459.122 352.041H436.16V357.444H459.122V352.041Z" fill="#455A64"/>
<path d="M464.18 364.097H441.218V369.5H464.18V364.097Z" fill="#455A64"/>
<path d="M519.508 364.097H492.346V369.5H519.508V364.097Z" fill="#455A64"/>
<path d="M486.961 364.097H467.956V369.5H486.961V364.097Z" fill="#455A64"/>
<path d="M492.37 352.041H462.269V357.444H492.37V352.041Z" fill="#455A64"/>
<path d="M512.446 352.041H495.691V357.444H512.446V352.041Z" fill="white"/>
<path d="M465.572 328.375H446.779V333.778H465.572V328.375Z" fill="#455A64"/>
<path d="M524.175 316.511H460.564V321.914H524.175V316.511Z" fill="#455A64"/>
<path d="M459.078 291.596H416.25V296.999H459.078V291.596Z" fill="#455A64"/>
<path d="M521.996 291.596H463.352V296.999H521.996V291.596Z" fill="#455A64"/>
<path d="M464.708 280.142H445.855V285.545H464.708V280.142Z" fill="white"/>
<path d="M406.896 280.142H401.664V285.545H406.896V280.142Z" fill="#455A64"/>
<path d="M406.896 291.964H401.664V297.367H406.896V291.964Z" fill="#455A64"/>
<path d="M406.896 303.786H401.664V309.189H406.896V303.786Z" fill="#455A64"/>
<path d="M406.896 315.609H401.664V321.012H406.896V315.609Z" fill="#455A64"/>
<path d="M406.896 327.431H401.664V332.834H406.896V327.431Z" fill="#455A64"/>
<path d="M406.896 339.253H401.664V344.656H406.896V339.253Z" fill="#455A64"/>
<path d="M406.896 351.076H401.664V356.479H406.896V351.076Z" fill="#455A64"/>
<path d="M406.896 362.898H401.664V368.301H406.896V362.898Z" fill="#455A64"/>
<g opacity="0.3">
<path d="M300.86 423.529C302.866 413.533 296.358 383.619 296.358 383.619L247.742 389.795L245.736 423.306L300.86 423.529Z" fill="black"/>
</g>
<path d="M238.964 383.619C238.964 383.619 241.096 423.392 232.183 437.066L292.726 438.556C292.726 438.556 297.428 415.327 296.358 383.619H238.964Z" fill="#128D9D"/>
<path d="M296.196 391.32C296.196 391.464 283.593 391.58 268.05 391.58C252.502 391.58 239.902 391.463 239.902 391.32C239.902 391.177 252.502 391.06 268.05 391.06C283.593 391.06 296.196 391.176 296.196 391.32Z" fill="#263238"/>
<path d="M289.465 404.929C289.465 405.073 279.392 405.189 266.969 405.189C254.542 405.189 244.471 405.072 244.471 404.929C244.471 404.785 254.542 404.669 266.969 404.669C279.392 404.669 289.465 404.785 289.465 404.929Z" fill="#263238"/>
<path d="M289.96 412.36C289.96 412.504 279.887 412.62 267.464 412.62C255.037 412.62 244.966 412.503 244.966 412.36C244.966 412.217 255.037 412.1 267.464 412.1C279.887 412.099 289.96 412.216 289.96 412.36Z" fill="#263238"/>
<path d="M288.547 419.79C288.547 419.934 278.474 420.05 266.051 420.05C253.624 420.05 243.553 419.933 243.553 419.79C243.553 419.647 253.624 419.53 266.051 419.53C278.473 419.53 288.547 419.646 288.547 419.79Z" fill="#263238"/>
<g opacity="0.3">
<path d="M228.956 384.364C228.956 384.364 231.546 413.796 231.546 424.274H224.093L228.956 384.364Z" fill="black"/>
</g>
<path d="M211.114 384.364C211.114 384.364 213.247 424.137 204.333 437.811L224.266 437.805C224.266 437.805 230.026 416.072 228.957 384.364H211.114Z" fill="#E0E0E0"/>
<path d="M489.854 211.405L523.375 172.865L489.619 148.342L516.111 132.751C516.111 132.751 557.661 158.005 557.127 173.157C556.641 186.958 504.264 221.869 504.264 221.869L489.854 211.405Z" fill="#FFBF9D"/>
<path d="M463.554 298.951C458.458 307.338 450.792 314.263 441.093 318.389C429.148 323.471 415.938 323.596 403.898 318.743C391.857 313.889 382.427 304.637 377.346 292.691C366.855 268.032 378.383 239.434 403.044 228.942C414.99 223.861 428.2 223.735 440.24 228.588C452.28 233.441 461.71 242.693 466.792 254.64C473.155 269.602 471.414 286.015 463.554 298.951ZM383.36 250.073C376.024 262.145 374.401 277.456 380.339 291.417C385.08 302.563 393.879 311.196 405.113 315.724C416.347 320.254 428.673 320.136 439.818 315.394C450.965 310.653 459.597 301.855 464.125 290.62C468.654 279.387 468.537 267.061 463.795 255.915C459.054 244.77 450.255 236.137 439.021 231.609C427.787 227.079 415.462 227.197 404.316 231.939C395.269 235.786 388.115 242.249 383.36 250.073Z" fill="#128D9D"/>
<g opacity="0.3">
<path d="M463.554 298.951C458.458 307.338 450.792 314.263 441.093 318.389C429.148 323.471 415.938 323.596 403.898 318.743C391.857 313.889 382.427 304.637 377.346 292.691C366.855 268.032 378.383 239.434 403.044 228.942C414.99 223.861 428.2 223.735 440.24 228.588C452.28 233.441 461.71 242.693 466.792 254.64C473.155 269.602 471.414 286.015 463.554 298.951ZM383.36 250.073C376.024 262.145 374.401 277.456 380.339 291.417C385.08 302.563 393.879 311.196 405.113 315.724C416.347 320.254 428.673 320.136 439.818 315.394C450.965 310.653 459.597 301.855 464.125 290.62C468.654 279.387 468.537 267.061 463.795 255.915C459.054 244.77 450.255 236.137 439.021 231.609C427.787 227.079 415.462 227.197 404.316 231.939C395.269 235.786 388.115 242.249 383.36 250.073Z" fill="black"/>
</g>
<path d="M461.582 296.817C456.486 305.204 448.82 312.129 439.121 316.255C427.176 321.337 413.966 321.462 401.926 316.609C389.885 311.755 380.455 302.503 375.374 290.557C364.883 265.897 376.411 237.3 401.072 226.808C413.018 221.727 426.228 221.601 438.268 226.454C450.308 231.307 459.738 240.559 464.82 252.506C471.184 267.467 469.443 283.881 461.582 296.817ZM381.389 247.939C374.054 260.01 372.43 275.322 378.368 289.283C383.11 300.429 391.908 309.062 403.142 313.59C414.376 318.119 426.701 318.002 437.847 313.26C448.994 308.519 457.626 299.721 462.154 288.486C466.683 277.253 466.566 264.927 461.824 253.781C457.083 242.636 448.284 234.003 437.05 229.475C425.816 224.946 413.491 225.063 402.345 229.805C393.298 233.652 386.143 240.115 381.389 247.939Z" fill="#128D9D"/>
<path d="M532.255 207.484L534.163 210.449C535.865 213.094 533.779 217.354 530.043 219.081L466.608 257.918L460.692 249.262L522.525 205.965C526.517 202.936 530.063 204.078 532.255 207.484Z" fill="#128D9D"/>
<path d="M422.08 231.151C422.079 231.169 421.803 231.177 421.28 231.175C420.757 231.197 419.988 231.11 418.999 231.195C417.021 231.242 414.156 231.593 410.749 232.54C409.043 233.005 407.225 233.684 405.312 234.494C403.433 235.378 401.429 236.351 399.471 237.632C397.497 238.879 395.502 240.32 393.602 242.01C391.695 243.687 389.822 245.552 388.156 247.671C386.479 249.778 385.066 252.007 383.903 254.265C382.764 256.537 381.897 258.837 381.217 261.07C379.931 265.563 379.48 269.795 379.573 273.329C379.654 276.865 380.119 279.711 380.589 281.634C380.775 282.609 381.04 283.335 381.155 283.845C381.289 284.35 381.351 284.619 381.334 284.625C381.317 284.631 381.222 284.373 381.055 283.876C380.907 283.374 380.61 282.654 380.392 281.682C379.859 279.764 379.334 276.905 379.205 273.337C379.064 269.772 379.48 265.49 380.756 260.936C381.431 258.672 382.299 256.34 383.447 254.035C384.619 251.744 386.049 249.481 387.749 247.345C389.437 245.2 391.334 243.315 393.266 241.625C395.192 239.922 397.214 238.473 399.216 237.225C401.201 235.943 403.233 234.973 405.139 234.098C407.079 233.296 408.922 232.631 410.651 232.185C414.104 231.274 417.001 230.977 418.994 230.993C419.99 230.94 420.763 231.059 421.286 231.071C421.808 231.106 422.082 231.133 422.08 231.151Z" fill="white"/>
<path d="M459.989 283.115C459.871 283.076 460.767 280.885 461.399 277.161C461.471 276.692 461.546 276.204 461.623 275.697C461.697 275.188 461.715 274.651 461.767 274.099C461.892 272.996 461.872 271.81 461.888 270.564C461.819 268.074 461.531 265.34 460.891 262.535C460.214 259.737 459.253 257.161 458.205 254.901C457.635 253.793 457.125 252.722 456.521 251.79C456.229 251.319 455.973 250.847 455.68 250.424C455.385 250.005 455.1 249.601 454.827 249.214C452.601 246.161 450.822 244.6 450.911 244.513C450.935 244.487 451.372 244.879 452.144 245.613C452.537 245.974 453.002 246.431 453.486 247.013C453.978 247.588 454.579 248.211 455.123 248.996C455.408 249.382 455.705 249.783 456.013 250.2C456.318 250.622 456.586 251.095 456.89 251.566C457.517 252.5 458.049 253.576 458.638 254.693C459.725 256.971 460.713 259.579 461.399 262.416C462.049 265.26 462.327 268.035 462.369 270.558C462.34 271.82 462.344 273.021 462.198 274.136C462.136 274.694 462.108 275.236 462.022 275.749C461.932 276.26 461.845 276.752 461.762 277.224C461.625 278.169 461.364 278.995 461.181 279.729C461.006 280.466 460.794 281.082 460.603 281.58C460.238 282.582 460.022 283.127 459.989 283.115Z" fill="white"/>
<path d="M429.954 248.69C430.051 248.796 423.509 254.924 415.344 262.374C407.176 269.827 400.478 275.781 400.381 275.675C400.284 275.569 406.825 269.443 414.993 261.989C423.158 254.539 429.858 248.583 429.954 248.69Z" fill="white"/>
<path d="M442.436 256.576C442.447 256.59 442.287 256.743 441.971 257.023C441.61 257.333 441.147 257.732 440.574 258.225C439.3 259.298 437.541 260.779 435.39 262.59C431.009 266.271 424.971 271.372 418.365 277.079C411.758 282.789 405.834 288.023 401.556 291.823C399.451 293.689 397.731 295.214 396.485 296.318C395.914 296.813 395.452 297.214 395.093 297.526C394.771 297.798 394.596 297.934 394.584 297.921C394.572 297.908 394.723 297.745 395.022 297.449C395.365 297.118 395.804 296.694 396.348 296.169C397.506 295.064 399.201 293.485 401.309 291.55C405.525 287.678 411.414 282.398 418.024 276.685C424.634 270.976 430.712 265.916 435.155 262.307C437.376 260.502 439.184 259.054 440.446 258.068C441.045 257.606 441.528 257.233 441.905 256.942C442.243 256.688 442.425 256.562 442.436 256.576Z" fill="white"/>
<g opacity="0.3">
<path d="M381.667 294.265L448.377 236.711C448.377 236.711 454.974 241.756 457.769 246.273L389.503 305.037C389.503 305.037 384.356 300.475 381.667 294.265Z" fill="white"/>
</g>
<g opacity="0.3">
<path d="M396.81 310.405L461.824 253.78C461.824 253.78 462.139 253.245 463.029 257.319L399.961 312.165C399.961 312.165 398.436 311.819 396.81 310.405Z" fill="white"/>
</g>
<path d="M489.854 211.405C489.854 211.405 470.288 232.952 469.85 233.759C469.412 234.566 464.136 247.007 465.441 249.529C466.746 252.051 476.541 260.9 476.541 260.9C476.541 260.9 480.036 259.386 476.73 253.473C473.424 247.561 473.424 247.561 473.424 247.561L475.2 241.592C475.2 241.592 477.842 249.159 479.369 250.818C480.897 252.477 486.957 255.317 488.478 253.862C489.999 252.407 490.228 250.626 490.228 250.626C490.228 250.626 494.374 253.933 497.311 248.683C497.311 248.683 500.997 248.111 502.582 245.53C504.167 242.948 503.96 237.95 503.96 237.95C503.96 237.95 502.735 235.564 500.373 237.141C498.012 238.717 496.882 241.762 496.882 241.762L495.17 239.481C495.17 239.481 495.894 234.2 497.779 230.576C498.967 228.292 506.652 223.317 507.56 219.365C508.329 216.015 501.625 213.795 498.193 213.981C497.676 214.009 497.167 214.114 496.681 214.292L489.854 211.405Z" fill="#FFBF9D"/>
<path d="M488.145 238.923C488.127 238.924 488.119 239.132 488.144 239.506C488.169 239.88 488.244 240.421 488.41 241.074C488.733 242.373 489.515 244.135 490.955 245.629C492.396 247.122 494.13 247.967 495.417 248.336C496.063 248.525 496.601 248.62 496.974 248.658C497.347 248.697 497.555 248.696 497.557 248.678C497.565 248.623 496.734 248.562 495.48 248.14C494.233 247.728 492.564 246.878 491.165 245.427C489.766 243.977 488.976 242.279 488.608 241.018C488.232 239.75 488.2 238.917 488.145 238.923Z" fill="#FF9A6C"/>
<path d="M481.574 238.269C481.554 238.27 481.557 238.491 481.581 238.892C481.589 239.093 481.608 239.338 481.656 239.62C481.7 239.902 481.734 240.227 481.824 240.575C481.966 241.281 482.218 242.103 482.572 242.988C482.942 243.866 483.424 244.801 484.037 245.715C484.661 246.623 485.353 247.415 486.032 248.083C486.724 248.738 487.396 249.276 487.999 249.668C488.29 249.879 488.58 250.031 488.825 250.176C489.069 250.324 489.29 250.432 489.474 250.514C489.838 250.684 490.042 250.768 490.051 250.75C490.077 250.699 489.271 250.326 488.116 249.5C487.536 249.092 486.888 248.547 486.219 247.893C485.562 247.226 484.889 246.444 484.277 245.553C483.675 244.655 482.999 243.624 482.622 242.767C482.261 241.903 482.19 241.219 482.024 240.529C481.681 239.151 481.632 238.264 481.574 238.269Z" fill="#FF9A6C"/>
<path d="M474.075 236.711C474.044 236.701 473.907 237 473.841 237.522C473.773 238.041 473.81 238.787 474.079 239.549C474.448 240.58 474.847 240.96 475.175 241.271C475.557 241.634 475.851 241.779 475.869 241.752C475.933 241.688 474.857 240.919 474.352 239.452C473.817 237.997 474.165 236.72 474.075 236.711Z" fill="#FF9A6C"/>
<path d="M541.541 170.57C541.491 170.651 540.47 169.933 538.613 169.261C536.776 168.584 534.022 168.054 531.06 168.549C528.086 169.014 525.774 170.657 524.353 171.992C522.912 173.344 522.197 174.363 522.123 174.306C522.096 174.287 522.246 174.014 522.567 173.553C522.888 173.092 523.391 172.45 524.096 171.728C525.476 170.297 527.86 168.523 530.974 168.035C534.051 167.521 536.898 168.134 538.745 168.917C539.678 169.305 540.391 169.709 540.857 170.024C541.324 170.339 541.559 170.543 541.541 170.57Z" fill="#FF9A6C"/>
<path d="M440.127 81.464C440.136 74.909 440.107 68.318 438.988 61.859C437.869 55.401 435.6 49.025 431.536 43.882C430.92 43.102 426.188 38.065 425.278 38.463C424.627 38.747 428.151 43.734 428 44.427C426.558 51.05 427.844 58.037 430.441 64.297C433.038 70.558 436.246 75.908 440.127 81.464Z" fill="#263238"/>
<path d="M433.044 57.471C428.495 41.674 415.509 31.155 399.844 36.14L398.423 36.685C384.126 42.172 376.432 57.716 380.752 72.409C384.771 86.079 389.388 101.131 392.205 108.212C398.038 122.869 413.646 119.506 413.646 119.506C413.68 119.495 423.392 141.912 423.392 141.912L454.385 126.023L433.044 57.471Z" fill="#FFBF9D"/>
<path d="M413.678 119.622C413.678 119.622 423.17 116.604 430.677 106.595C430.677 106.595 431.116 120.363 415.913 124.676L413.678 119.622Z" fill="#FF9A6C"/>
<path d="M391.208 85.69C391.594 86.816 392.867 87.416 394.05 87.034C395.231 86.652 395.877 85.431 395.49 84.306C395.103 83.18 393.831 82.578 392.65 82.96C391.467 83.342 390.821 84.565 391.208 85.69Z" fill="#263238"/>
<path d="M386.245 77.313C386.611 77.487 387.752 75.696 390.017 74.834C392.267 73.94 394.375 74.467 394.514 74.095C394.588 73.926 394.132 73.533 393.207 73.284C392.294 73.033 390.884 72.989 389.477 73.536C388.071 74.085 387.084 75.059 386.606 75.851C386.115 76.653 386.069 77.239 386.245 77.313Z" fill="#263238"/>
<path d="M410.558 78.904C410.945 80.029 412.217 80.63 413.4 80.247C414.581 79.865 415.227 78.645 414.84 77.519C414.453 76.394 413.181 75.792 411.999 76.174C410.816 76.556 410.171 77.778 410.558 78.904Z" fill="#263238"/>
<path d="M408.764 69.722C409.13 69.896 410.273 68.105 412.537 67.243C414.787 66.349 416.895 66.876 417.034 66.504C417.107 66.335 416.654 65.942 415.726 65.694C414.813 65.442 413.403 65.399 411.996 65.945C410.589 66.494 409.603 67.468 409.125 68.261C408.636 69.061 408.589 69.648 408.764 69.722Z" fill="#263238"/>
<path d="M407.319 90.227C407.28 90.094 405.78 90.391 403.389 90.974C402.788 91.136 402.197 91.231 401.948 90.874C401.652 90.509 401.654 89.793 401.676 89.013C401.683 87.406 401.689 85.722 401.696 83.957C401.665 76.781 401.406 70.97 401.118 70.974C400.829 70.978 400.619 76.797 400.65 83.973C400.672 85.737 400.69 87.42 400.712 89.028C400.746 89.769 400.655 90.658 401.283 91.411C401.604 91.783 402.149 91.934 402.557 91.891C402.971 91.862 403.298 91.744 403.591 91.651C405.933 90.894 407.36 90.359 407.319 90.227Z" fill="#263238"/>
<path d="M414.58 89.236C414.203 89.356 415.141 91.814 413.708 94.365C412.28 96.919 409.556 97.648 409.669 97.999C409.694 98.166 410.435 98.252 411.552 97.858C412.65 97.479 414.1 96.523 414.977 94.963C415.849 93.401 415.853 91.763 415.55 90.723C415.25 89.66 414.743 89.157 414.58 89.236Z" fill="#263238"/>
<path d="M405.364 60.49C405.823 61.02 407.971 59.861 410.749 59.162C413.513 58.407 415.952 58.363 416.093 57.676C416.149 57.352 415.553 56.916 414.459 56.653C413.373 56.388 411.787 56.347 410.125 56.782C408.464 57.22 407.102 58.033 406.286 58.797C405.461 59.563 405.156 60.235 405.364 60.49Z" fill="#263238"/>
<path d="M384.293 69.431C384.888 69.792 386.242 68.66 388.108 67.916C389.947 67.106 391.703 66.933 391.862 66.255C391.922 65.933 391.474 65.514 390.594 65.293C389.725 65.071 388.429 65.113 387.155 65.646C385.882 66.181 384.945 67.075 384.495 67.853C384.035 68.635 384.021 69.248 384.293 69.431Z" fill="#263238"/>
<path d="M436.026 68.837C436.236 68.632 444.996 61.961 448.539 72.152C452.081 82.343 441.118 83.797 440.999 83.511C440.879 83.226 436.026 68.837 436.026 68.837Z" fill="#FFBF9D"/>
<path d="M442.77 78.569C442.803 78.521 442.991 78.631 443.338 78.665C443.677 78.697 444.213 78.615 444.675 78.231C445.615 77.462 445.927 75.438 445.338 73.583C445.041 72.647 444.54 71.831 443.957 71.214C443.387 70.577 442.723 70.223 442.148 70.315C441.565 70.378 441.294 70.836 441.269 71.166C441.231 71.498 441.367 71.679 441.319 71.716C441.299 71.752 441.041 71.622 440.977 71.172C440.949 70.955 440.985 70.673 441.156 70.394C441.331 70.11 441.656 69.884 442.048 69.793C442.853 69.574 443.812 70.051 444.452 70.728C445.137 71.394 445.722 72.303 446.055 73.355C446.703 75.431 446.32 77.718 444.995 78.656C444.343 79.092 443.67 79.084 443.278 78.951C442.874 78.809 442.741 78.6 442.77 78.569Z" fill="#FF9A6C"/>
<path d="M381.646 53.241C379.684 52.887 382.839 45.853 386.282 42.635C391.485 37.772 400.288 32.887 406.496 32.58C413.97 32.211 420.783 33.691 426.304 38.742C431.825 43.794 435.555 50.592 437.75 57.747C438.419 59.93 438.957 62.26 438.419 64.479C437.754 67.221 435.496 69.57 436.669 72.647C437.098 73.772 437.161 75.031 436.661 76.126C435.463 78.747 432.543 77.65 430.858 76.131C427.259 72.886 425.394 68.19 423.648 63.67C422.406 60.457 421.149 57.172 421.011 53.73C420.935 51.857 421.195 49.976 421.016 48.111C420.837 46.245 420.122 44.301 418.568 43.252C418.315 43.081 417.929 42.889 417.454 42.692C413.703 41.132 409.393 41.741 406.198 44.251C401.13 48.231 392.326 54.593 389.099 53.506C384.456 51.943 382.954 50.409 382.954 50.409L381.646 53.241Z" fill="#263238"/>
<path d="M366.23 148.08C366.23 148.08 364.774 143.962 369.718 138.417C374.662 132.872 413.9 122.028 413.9 122.028C413.9 122.028 428.162 138.179 440.5 127.154C449.482 119.127 449.803 111.109 449.803 111.109H485.296L489.731 147.578L475.574 147.66L366.23 148.08Z" fill="#128D9D"/>
<path d="M478.849 111.109C478.849 111.109 488.109 109.242 496.568 113.075C510.785 119.517 535.474 140.018 535.474 140.018L505.441 164.673L484.64 147.608L478.849 111.109Z" fill="#128D9D"/>
<path d="M491.746 153.586C491.736 153.601 491.604 153.532 491.362 153.387C491.12 153.241 490.763 153.025 490.326 152.713C489.443 152.102 488.201 151.16 486.796 149.846C485.397 148.53 483.806 146.862 482.346 144.765C480.889 142.691 479.523 140.125 479.038 137.188C478.001 131.373 478.914 125.85 480.79 122.446C481.721 120.737 482.855 119.606 483.709 118.948C484.136 118.618 484.521 118.436 484.76 118.286C485.006 118.146 485.138 118.081 485.147 118.096C485.172 118.138 484.668 118.458 483.836 119.106C483.039 119.799 481.981 120.934 481.116 122.618C479.374 125.965 478.534 131.394 479.551 137.091C480.023 139.948 481.327 142.428 482.742 144.491C484.155 146.566 485.699 148.241 487.051 149.578C488.41 150.913 489.607 151.891 490.447 152.548C491.285 153.21 491.77 153.549 491.746 153.586Z" fill="#263238"/>
<path d="M484.64 147.607C484.64 147.751 460.197 147.965 430.05 148.086C399.893 148.207 375.453 148.188 375.453 148.044C375.453 147.9 399.891 147.686 430.048 147.565C460.195 147.445 484.64 147.464 484.64 147.607Z" fill="#263238"/>
<path d="M353.441 142.617C353.509 142.767 353.571 142.92 353.627 143.075C353.884 143.78 354.021 144.524 354.074 145.272C354.098 145.615 354.047 145.995 354.123 146.331C354.174 146.558 354.327 146.742 354.415 146.955C354.977 148.305 354.847 149.904 354.802 151.329C354.751 152.937 354.771 154.643 355.611 156.015C356.451 157.387 358.405 158.201 359.728 157.285C359.527 158.289 360.312 159.325 361.303 159.583C362.294 159.841 363.376 159.429 364.108 158.712C364.84 157.996 365.262 157.017 365.514 156.025C365.443 157.225 366.627 158.256 367.829 158.273C369.031 158.29 370.135 157.491 370.77 156.47C371.405 155.449 371.644 154.233 371.783 153.039C371.922 151.845 372.197 149.606 372.51 148.445C372.51 148.445 374.019 148.687 374.708 148.753C375.642 148.842 374.91 148.773 374.91 148.773C375.417 148.277 375.798 147.41 376.354 146.266C377.317 144.286 378.05 143.031 378.786 141.233C379.337 139.887 379.695 138.542 378.862 137.666C376.858 135.557 372.939 139.846 372.939 139.846C372.385 138.353 367.831 138.11 366.945 140.099C366.584 139.003 366.722 138.368 365.834 137.632C364.946 136.896 363.719 136.515 362.607 136.819C361.495 137.123 360.585 138.197 360.648 139.348C359.711 137.838 357.77 137.026 356.037 137.421C354.995 137.659 354.074 138.323 353.465 139.196C353.159 139.635 352.941 140.122 352.807 140.64C352.759 140.825 352.679 141.041 352.7 141.235C352.711 141.33 352.749 141.413 352.794 141.497C352.996 141.88 353.261 142.218 353.441 142.617Z" fill="#FFBF9D"/>
<path d="M348.632 139.707C347.64 139.672 346.56 139.876 345.899 140.616C345.115 141.493 344.956 143.232 345.045 144.405C346.42 144.664 347.131 144.716 348.505 144.976C348.795 145.031 349.037 144.957 349.277 145.128C349.911 145.578 349.808 147.095 350.063 147.829C350.506 149.103 352.138 149.725 353.403 149.257C354.668 148.789 355.482 147.443 355.546 146.096C355.61 144.749 355.017 143.431 354.15 142.399C352.794 140.785 350.738 139.782 348.632 139.707Z" fill="#FFBF9D"/>
<path d="M360.664 138.95C360.922 138.963 360.92 143.077 360.662 148.137C360.403 153.199 359.985 157.291 359.727 157.278C359.47 157.265 359.471 153.152 359.73 148.09C359.988 143.029 360.407 138.937 360.664 138.95Z" fill="#FF9A6C"/>
<path d="M366.981 139.822C367.228 139.811 367.563 143.556 367.159 148.161C366.769 152.768 365.798 156.4 365.558 156.347C365.295 156.294 365.846 152.626 366.23 148.081C366.628 143.538 366.713 139.829 366.981 139.822Z" fill="#FF9A6C"/>
<path d="M373.155 140.667C373.417 140.667 373.527 143.781 373.043 147.555C372.562 151.323 371.982 154.329 371.738 154.306C371.468 154.28 371.638 151.191 372.117 147.443C372.597 143.7 372.901 140.665 373.155 140.667Z" fill="#FF9A6C"/>
<path d="M350.614 140.35C350.606 140.239 351.273 140.091 352.224 140.526C353.164 140.932 354.24 142.032 354.751 143.482C355.256 144.946 355.42 146.205 355.379 147.266C355.266 148.405 354.44 148.736 354.421 148.589C354.349 148.485 354.796 148.092 354.72 147.246C354.608 146.424 354.327 145.071 353.879 143.812C353.417 142.525 352.622 141.594 351.898 141.099C351.182 140.595 350.601 140.492 350.614 140.35Z" fill="#FF9A6C"/>
<path d="M502.163 457.203C511.964 450.81 516.599 439.481 514.945 428.621L526.305 421.175L527.913 420.143L617.779 361.239C627.052 367.13 639.288 367.456 649.089 361.063C657.425 355.626 662.027 346.619 662.201 337.366L656.983 336.501L651.261 344.502L638.11 341.734L630.768 330.477L633.536 317.325L644.476 310.189L637.07 308.249C629.234 305.941 624.882 307.824 617.504 312.636C607.717 319.019 603.082 330.324 604.714 341.17L513.343 401.06L510.506 402.897L501.846 408.573C492.578 402.707 480.364 402.392 470.578 408.776C463.23 413.569 453.317 423.543 452.248 431.608L457.466 432.473L468.406 425.337L481.558 428.105L488.9 439.362L486.132 452.514L474.366 455.843L475.192 459.649C483.729 463.222 493.828 462.64 502.163 457.203Z" fill="#E0E0E0"/>
<g opacity="0.3">
<path d="M502.163 457.203C511.964 450.81 516.599 439.481 514.945 428.621L526.305 421.175L527.913 420.143L617.779 361.239C627.052 367.13 639.288 367.456 649.089 361.063C657.425 355.626 662.027 346.619 662.201 337.366L656.983 336.501L651.261 344.502L638.11 341.734L630.768 330.477L633.536 317.325L644.476 310.189L637.07 308.249C629.234 305.941 624.882 307.824 617.504 312.636C607.717 319.019 603.082 330.324 604.714 341.17L513.343 401.06L510.506 402.897L501.846 408.573C492.578 402.707 480.364 402.392 470.578 408.776C463.23 413.569 453.317 423.543 452.248 431.608L457.466 432.473L468.406 425.337L481.558 428.105L488.9 439.362L486.132 452.514L474.366 455.843L475.192 459.649C483.729 463.222 493.828 462.64 502.163 457.203Z" fill="black"/>
</g>
<path d="M496.945 456.338C506.746 449.945 511.381 438.616 509.727 427.756L521.087 420.31L522.695 419.278L612.561 360.374C621.834 366.265 634.07 366.591 643.871 360.198C652.207 354.761 656.809 345.754 656.983 336.501L646.043 343.636L632.891 340.868L625.549 329.611L628.317 316.459L639.257 309.323C630.719 305.752 620.62 306.334 612.285 311.77C602.498 318.153 597.863 329.458 599.496 340.304L508.125 400.194L505.288 402.031L496.628 407.707C487.36 401.841 475.146 401.526 465.36 407.91C457.024 413.347 452.422 422.354 452.248 431.608L463.188 424.473L476.34 427.241L483.682 438.498L480.914 451.65L469.974 458.785C478.511 462.357 488.609 461.775 496.945 456.338Z" fill="#E0E0E0"/>
<path d="M496.945 456.338C496.945 456.338 496.424 456.677 495.387 457.318C494.315 457.892 492.721 458.784 490.457 459.558C488.203 460.338 485.282 460.995 481.774 461.108C478.279 461.161 474.17 460.643 469.933 458.881L469.754 458.806L469.917 458.699C473.153 456.581 476.84 454.168 480.846 451.547L480.793 451.625C481.642 447.567 482.564 443.156 483.544 438.47L483.564 438.575C481.266 435.06 478.796 431.283 476.21 427.326L476.308 427.393C472.222 426.537 467.773 425.605 463.154 424.637L463.28 424.613C459.897 426.823 456.18 429.253 452.346 431.758L452.065 431.942L452.071 431.606C452.149 427.02 453.339 422.289 455.707 418.019C458.06 413.75 461.603 409.964 466.007 407.293C470.382 404.591 475.63 403.012 481.039 403.015C486.438 402.992 491.976 404.509 496.745 407.527L496.512 407.529C526.978 387.555 561.981 364.606 599.362 340.098L599.253 340.342C598.458 335.084 599.13 329.435 601.362 324.318C603.568 319.194 607.372 314.666 612.164 311.556C616.177 308.938 620.818 307.34 625.539 306.938C630.26 306.524 635.043 307.287 639.356 309.096L639.788 309.277L639.396 309.532C635.724 311.927 632.077 314.305 628.456 316.666L628.562 316.51C627.632 320.927 626.708 325.311 625.792 329.661L625.757 329.477C628.228 333.266 630.673 337.017 633.098 340.735L632.945 340.63C637.378 341.564 641.758 342.487 646.096 343.401L645.915 343.435C649.604 341.03 653.249 338.654 656.857 336.302L657.234 336.056L657.223 336.505C657.092 341.955 655.48 347.303 652.583 351.754C649.708 356.217 645.643 359.801 641.021 362.07C636.411 364.36 631.265 365.394 626.288 365.047C621.308 364.725 616.522 363.123 612.448 360.555L612.681 360.553C568.066 389.733 532.156 413.219 509.79 427.846L509.838 427.738C510.644 433.112 509.811 437.964 508.466 441.842C507.032 445.714 505.121 448.676 503.306 450.793C501.503 452.936 499.808 454.236 498.711 455.127C497.544 455.939 496.945 456.338 496.945 456.338C496.945 456.338 497.522 455.906 498.673 455.082C499.757 454.178 501.434 452.867 503.216 450.721C505.01 448.6 506.895 445.643 508.305 441.787C509.626 437.925 510.435 433.103 509.619 427.772L509.608 427.702L509.667 427.663C532.008 412.997 567.877 389.449 612.443 360.193L612.559 360.117L612.677 360.191C616.692 362.716 621.409 364.29 626.314 364.603C631.216 364.941 636.28 363.918 640.817 361.661C645.366 359.423 649.364 355.893 652.19 351.501C655.038 347.12 656.62 341.857 656.747 336.495L657.114 336.698C653.508 339.051 649.864 341.429 646.176 343.836L646.093 343.89L645.995 343.869C641.657 342.957 637.276 342.036 632.843 341.104L632.744 341.083L632.688 341C630.262 337.283 627.816 333.533 625.344 329.744L625.289 329.659L625.31 329.56C626.225 325.21 627.147 320.825 628.076 316.408L628.097 316.308L628.183 316.252C631.804 313.89 635.45 311.511 639.122 309.116L639.162 309.552C634.922 307.775 630.218 307.026 625.579 307.432C620.939 307.828 616.379 309.397 612.433 311.972C607.722 315.03 603.985 319.479 601.816 324.516C599.622 329.546 598.96 335.099 599.741 340.268L599.765 340.425L599.632 340.512C562.239 365 527.223 387.931 496.747 407.889L496.631 407.965L496.514 407.891C491.819 404.913 486.361 403.412 481.039 403.429C475.707 403.42 470.532 404.971 466.212 407.631C461.864 410.261 458.364 413.991 456.036 418.201C453.693 422.412 452.511 427.082 452.427 431.612L452.152 431.459C455.989 428.961 459.711 426.537 463.098 424.333L463.156 424.295L463.224 424.309C467.841 425.285 472.289 426.226 476.373 427.089L476.436 427.102L476.471 427.156C479.049 431.118 481.511 434.901 483.801 438.421L483.833 438.47L483.821 438.527C482.829 443.21 481.895 447.619 481.036 451.675L481.025 451.725L480.982 451.753C476.969 454.362 473.274 456.764 470.031 458.871L470.014 458.69C474.215 460.454 478.296 460.985 481.772 460.95C485.261 460.854 488.173 460.217 490.424 459.456C492.685 458.701 494.283 457.827 495.362 457.27C496.404 456.646 496.945 456.338 496.945 456.338Z" fill="#263238"/>
<path d="M608.51 356.379C608.489 356.406 608.258 356.254 607.856 355.955C607.45 355.662 606.898 355.191 606.252 354.571C604.958 353.335 603.351 351.41 602.04 348.998C600.735 346.581 600 344.184 599.672 342.425C599.505 341.545 599.412 340.825 599.388 340.325C599.357 339.826 599.357 339.549 599.39 339.546C599.474 339.537 599.596 340.633 600.011 342.35C600.422 344.066 601.194 346.394 602.472 348.764C603.758 351.128 605.287 353.046 606.5 354.328C607.712 355.613 608.563 356.314 608.51 356.379Z" fill="#263238"/>
<path d="M209.252 178.507H137.48C132.029 178.507 127.611 174.088 127.611 168.637V96.865C127.611 91.414 132.03 86.995 137.481 86.995H209.253C214.704 86.995 219.123 91.414 219.123 96.865V168.637C219.121 174.088 214.703 178.507 209.252 178.507Z" fill="#128D9D"/>
<g opacity="0.3">
<path d="M209.252 178.507H137.48C132.029 178.507 127.611 174.088 127.611 168.637V96.865C127.611 91.414 132.03 86.995 137.481 86.995H209.253C214.704 86.995 219.123 91.414 219.123 96.865V168.637C219.121 174.088 214.703 178.507 209.252 178.507Z" fill="black"/>
</g>
<path d="M195.827 178.507H124.055C118.604 178.507 114.185 174.088 114.185 168.637V96.865C114.185 91.414 118.604 86.995 124.055 86.995H195.827C201.278 86.995 205.697 91.414 205.697 96.865V168.637C205.697 174.088 201.278 178.507 195.827 178.507Z" fill="#128D9D"/>
<path d="M147.056 112.355C148.969 111.199 151.006 110.322 153.107 109.725L154.354 103.735L164.474 103.558L165.93 109.499C168.051 110.021 170.118 110.826 172.07 111.914L177.184 108.562L184.465 115.592L181.295 120.82C182.452 122.734 183.328 124.771 183.925 126.872L189.914 128.118L190.092 138.238L184.15 139.695C183.628 141.815 182.823 143.882 181.735 145.835L185.087 150.95L178.058 158.231L172.829 155.061C170.915 156.217 168.878 157.094 166.777 157.691L165.53 163.681L155.411 163.859L153.954 157.917C151.833 157.394 149.767 156.589 147.814 155.501L142.7 158.854L135.419 151.824L138.589 146.596C137.432 144.682 136.555 142.645 135.959 140.544L129.97 139.298L129.792 129.179L135.734 127.722C136.257 125.602 137.062 123.535 138.149 121.583L134.797 116.468L141.827 109.186L147.056 112.355ZM152.45 125.836C148.285 130.15 148.406 137.024 152.72 141.189C157.034 145.354 163.908 145.233 168.072 140.919C172.237 136.605 172.116 129.731 167.802 125.566C163.488 121.402 156.615 121.522 152.45 125.836Z" fill="white"/>
<g opacity="0.3">
<path d="M185.14 86.996L114.186 143.668V154.703L198.794 86.996H185.14Z" fill="white"/>
</g>
<g opacity="0.3">
<path d="M114.275 167.564L205.697 96.638V116.55L123.829 178.506C118.516 178.506 114.222 174.176 114.265 168.864L114.275 167.564Z" fill="white"/>
</g>
</svg>
