<svg width="680" height="382" viewBox="0 0 680 382" fill="none" xmlns="http://www.w3.org/2000/svg">
<path d="M595.571 55.9279L611.079 51.8089L605.566 31.0519L590.058 35.1709C588.422 32.3889 586.472 29.8509 584.265 27.5889L592.319 13.7099L573.743 2.93093L565.69 16.8099C562.631 16.0159 559.46 15.5829 556.233 15.5419L552.114 0.0339355L531.357 5.54693L535.476 21.0539C532.695 22.6909 530.156 24.6399 527.895 26.8469L514.016 18.7929L503.237 37.3689L517.116 45.4229C516.322 48.4809 515.889 51.6529 515.848 54.8799L500.341 58.9989L505.854 79.7559L521.362 75.6379C522.998 78.4189 524.948 80.9579 527.155 83.2199L519.101 97.0989L537.677 107.878L545.731 93.9989C548.789 94.7929 551.961 95.2259 555.188 95.2669L559.307 110.775L580.064 105.262L575.945 89.7549C578.726 88.1179 581.265 86.1689 583.527 83.9619L597.406 92.0159L608.185 73.4409L594.306 65.3869C595.098 62.3259 595.531 59.1549 595.571 55.9279ZM560.227 72.4129C550.833 74.9079 541.196 69.3149 538.701 59.9209C536.206 50.5269 541.799 40.8889 551.192 38.3949C560.586 35.8999 570.224 41.4929 572.719 50.8869C575.214 60.2799 569.621 69.9179 560.227 72.4129Z" fill="#9FA8FF"/>
<path d="M57.289 169.96L63.491 168.313L61.286 160.012L55.084 161.659C54.43 160.547 53.65 159.531 52.767 158.627L55.988 153.076L48.559 148.765L45.338 154.316C44.115 153.998 42.846 153.825 41.556 153.809L39.909 147.607L31.608 149.812L33.255 156.014C32.143 156.669 31.127 157.448 30.223 158.331L24.672 155.11L20.361 162.539L25.912 165.76C25.594 166.983 25.421 168.252 25.405 169.542L19.203 171.189L21.408 179.49L27.61 177.843C28.264 178.955 29.044 179.971 29.927 180.875L26.706 186.426L34.135 190.737L37.356 185.186C38.579 185.504 39.847 185.677 41.138 185.693L42.785 191.895L51.086 189.69L49.439 183.488C50.551 182.834 51.567 182.054 52.471 181.171L58.022 184.392L62.333 176.963L56.782 173.742C57.099 172.52 57.272 171.251 57.289 169.96ZM43.153 176.554C39.396 177.552 35.542 175.315 34.544 171.558C33.546 167.801 35.783 163.947 39.54 162.949C43.297 161.951 47.152 164.188 48.149 167.945C49.147 171.701 46.91 175.556 43.153 176.554Z" fill="#D3D5FC"/>
<path d="M478.094 36.445L482.816 35.191L481.137 28.871L476.415 30.125C475.917 29.278 475.323 28.505 474.651 27.816L477.103 23.59L471.447 20.308L468.995 24.534C468.064 24.292 467.098 24.16 466.115 24.148L464.861 19.426L458.541 21.105L459.795 25.827C458.948 26.325 458.175 26.919 457.487 27.591L453.261 25.139L449.979 30.795L454.205 33.247C453.963 34.178 453.831 35.144 453.819 36.127L449.097 37.381L450.775 43.701L455.497 42.447C455.995 43.294 456.589 44.067 457.261 44.755L454.809 48.981L460.465 52.263L462.917 48.037C463.848 48.279 464.814 48.411 465.796 48.423L467.05 53.145L473.37 51.466L472.116 46.744C472.963 46.246 473.736 45.652 474.425 44.98L478.651 47.432L481.933 41.776L477.707 39.324C477.95 38.394 478.082 37.428 478.094 36.445ZM467.333 41.465C464.473 42.225 461.538 40.522 460.778 37.661C460.018 34.801 461.721 31.866 464.581 31.106C467.441 30.346 470.376 32.049 471.136 34.91C471.896 37.771 470.193 40.705 467.333 41.465Z" fill="#D3D5FC"/>
<path d="M177.435 76.7599C176.012 73.2689 172.589 70.8049 168.585 70.8049C164.888 70.8049 161.689 72.9069 160.098 75.9779C158.655 72.9599 155.583 70.8699 152.015 70.8699C150.561 70.8699 149.193 71.2239 147.978 71.8379C145.733 66.6129 140.543 62.9519 134.496 62.9519C132.436 62.9519 130.478 63.3799 128.699 64.1459C127.894 53.0129 118.628 44.2239 107.289 44.2239C95.5199 44.2239 85.9729 53.6889 85.8149 65.4209C82.6419 62.0969 78.1789 60.0169 73.2219 60.0169C65.9319 60.0169 59.6949 64.4989 57.0969 70.8539C55.1199 69.1589 52.5559 68.1289 49.7479 68.1289C44.4279 68.1289 39.9779 71.8089 38.7739 76.7589C38.5649 77.6179 38.4419 78.5109 38.4419 79.4339C38.4419 81.4779 38.9919 83.3889 39.9409 85.0439H57.5659H59.5549H88.8779H97.9519H116.627H121.856H144.73H147.136H159.3H160.257H176.913C177.693 83.6599 178.143 82.0639 178.143 80.3619C178.143 79.0869 177.889 77.8719 177.435 76.7599Z" fill="#9FA8FF"/>
<path d="M139.786 104.122C138.363 100.63 134.939 98.1669 130.936 98.1669C127.24 98.1669 124.039 100.269 122.45 103.34C121.007 100.322 117.935 98.2319 114.367 98.2319C112.913 98.2319 111.545 98.5859 110.33 99.1999C108.085 93.9749 102.895 90.3139 96.848 90.3139C94.788 90.3139 92.8299 90.7419 91.0509 91.5079C90.2449 80.3749 80.9799 71.5859 69.6409 71.5859C57.8719 71.5859 48.3249 81.0509 48.1669 92.7829C44.9939 89.4589 40.5309 87.3789 35.5739 87.3789C28.2839 87.3789 22.0469 91.8609 19.4489 98.2159C17.4719 96.5209 14.9079 95.4909 12.0999 95.4909C6.77994 95.4909 2.32995 99.1709 1.12595 104.121C0.916946 104.98 0.793945 105.873 0.793945 106.796C0.793945 108.84 1.34395 110.751 2.29295 112.406H19.9179H21.9069H51.2299H60.3029H78.9779H84.2069H107.081H109.487H121.651H122.608H139.263C140.043 111.021 140.493 109.426 140.493 107.724C140.494 106.45 140.24 105.235 139.786 104.122Z" fill="white"/>
<path d="M672.625 245.326C671.591 242.79 669.105 241.001 666.198 241.001C663.513 241.001 661.189 242.528 660.035 244.758C658.987 242.566 656.756 241.048 654.165 241.048C653.109 241.048 652.115 241.305 651.233 241.751C649.603 237.956 645.834 235.297 641.441 235.297C639.945 235.297 638.523 235.608 637.231 236.164C636.646 228.078 629.917 221.696 621.682 221.696C613.134 221.696 606.201 228.57 606.086 237.091C603.782 234.677 600.541 233.166 596.94 233.166C591.645 233.166 587.116 236.421 585.229 241.037C583.793 239.806 581.931 239.058 579.892 239.058C576.028 239.058 572.796 241.731 571.922 245.326C571.77 245.95 571.681 246.598 571.681 247.269C571.681 248.753 572.081 250.141 572.769 251.343H585.569H587.014H608.31H614.9H628.463H632.26H648.872H650.62H659.454H660.149H672.245C672.812 250.338 673.138 249.179 673.138 247.943C673.139 247.017 672.954 246.134 672.625 245.326Z" fill="white"/>
<path d="M678.335 83.3129C676.587 79.0249 672.383 75.9999 667.467 75.9999C662.927 75.9999 658.998 78.5819 657.045 82.3519C655.273 78.6459 651.5 76.0789 647.118 76.0789C645.333 76.0789 643.652 76.5139 642.161 77.2679C639.404 70.8509 633.031 66.3549 625.604 66.3549C623.075 66.3549 620.67 66.8809 618.485 67.8219C617.496 54.1489 606.117 43.3569 592.192 43.3569C577.738 43.3569 566.014 54.9809 565.82 69.3889C561.924 65.3079 556.443 62.7519 550.355 62.7519C541.402 62.7519 533.743 68.2559 530.553 76.0609C528.125 73.9799 524.977 72.7149 521.528 72.7149C514.994 72.7149 509.53 77.2339 508.052 83.3129C507.796 84.3679 507.645 85.4649 507.645 86.5989C507.645 89.1089 508.321 91.4559 509.485 93.4879H531.129H533.572H569.583H580.726H603.661H610.082H638.173H641.128H656.067H657.242H677.696C678.654 91.7879 679.207 89.8289 679.207 87.7379C679.205 86.1709 678.892 84.6789 678.335 83.3129Z" fill="white"/>
<path d="M660.067 276.734L664.654 275.516L663.023 269.377L658.436 270.595C657.952 269.772 657.376 269.021 656.723 268.353L659.105 264.248L653.611 261.06L651.229 265.165C650.324 264.93 649.386 264.802 648.432 264.79L647.214 260.203L641.075 261.833L642.293 266.419C641.47 266.903 640.72 267.48 640.051 268.132L635.946 265.75L632.758 271.244L636.863 273.626C636.628 274.531 636.5 275.469 636.488 276.423L631.901 277.641L633.531 283.78L638.118 282.562C638.602 283.385 639.178 284.136 639.831 284.804L637.449 288.909L642.943 292.097L645.325 287.992C646.23 288.227 647.168 288.355 648.122 288.367L649.34 292.954L655.479 291.324L654.261 286.737C655.084 286.253 655.835 285.676 656.503 285.024L660.608 287.406L663.796 281.912L659.691 279.53C659.927 278.627 660.055 277.689 660.067 276.734ZM649.614 281.61C646.836 282.348 643.985 280.694 643.247 277.915C642.509 275.136 644.163 272.286 646.942 271.548C649.72 270.81 652.571 272.464 653.309 275.243C654.046 278.022 652.392 280.872 649.614 281.61Z" fill="#D3D5FC"/>
<path d="M640.779 323.546C640.108 310.188 633.792 299.824 622.497 295.044C615.812 292.215 608.588 290.806 602.386 286.852C592.999 280.867 588.218 270.65 587.651 258.791C587.209 249.535 588.957 240.35 590.03 231.158C592.84 207.078 581.893 186.341 561.422 177.109C546.356 170.314 529.38 170.741 513.363 173.883C504.518 175.618 495.776 178.147 486.826 178.991C476.337 179.98 464.484 179.074 457.39 169.619C450.85 160.902 451.009 147.546 452.077 136.968C458.447 73.8679 386.906 49.1829 342.414 65.9479C320.67 74.1409 309.928 97.0219 302.169 119.315C294.771 140.569 288.919 173.119 269.813 185.323C236.552 206.568 205.213 134.045 171.711 168.426C163.743 176.603 161.424 188.141 160.659 199.695C159.787 212.867 159.397 226.312 149.732 235.681C144.014 241.224 136.495 244.066 128.961 245.125C112.032 247.503 94.9449 242.114 78.0389 245.339C60.4879 248.687 48.5169 263.115 43.9319 281.805C40.6529 295.169 41.0199 309.289 42.1699 323.079L640.779 323.546Z" fill="#D3D5FC"/>
<path d="M641.962 323.071H40.3789V327.589H641.962V323.071Z" fill="#9FA5FB"/>
<path d="M404.954 317.137H275.324V323.204H404.954V317.137Z" fill="#6F58FF"/>
<path d="M499.596 257.59H182.746V92.829C182.746 85.824 188.425 80.145 195.43 80.145H486.913C493.918 80.145 499.597 85.824 499.597 92.829L499.596 257.59Z" fill="#6F58FF"/>
<path d="M486.965 287.96H195.377C188.401 287.96 182.746 282.305 182.746 275.329V257.59H499.596V275.329C499.596 282.305 493.941 287.96 486.965 287.96Z" fill="#9FA5FB"/>
<path d="M487.905 90.3889H194.436V246.6H487.905V90.3889Z" fill="#D3D5FC"/>
<path d="M370.773 269.074H312.171V276.414H370.773V269.074Z" fill="#6F58FF"/>
<path d="M380.517 317.137H301.825L305.963 287.96H376.378L380.517 317.137Z" fill="#969FF5"/>
<path d="M305.94 287.96H376.368L377.723 297.928H304.516L305.94 287.96Z" fill="#7373FF"/>
<path d="M150.376 381.271C189.49 381.271 221.198 374.654 221.198 366.492C221.198 358.33 189.49 351.713 150.376 351.713C111.262 351.713 79.554 358.33 79.554 366.492C79.554 374.654 111.262 381.271 150.376 381.271Z" fill="#D3D5FC"/>
<path d="M175.633 289.005C175.287 288.291 174.732 287.736 174.057 287.422L156.504 279.273L146.935 279.234L137.366 279.287L120.119 287.4C119.361 287.757 118.739 288.389 118.353 289.193C117.1 291.8 110.485 313.74 106.678 326.499C105.34 330.985 108.367 335.601 112.642 335.598L180.669 335.55C184.886 335.547 187.898 331.041 186.661 326.586C183.106 313.783 176.848 291.515 175.633 289.005Z" fill="#FFB600"/>
<path d="M156.507 279.269L137.362 279.282L137.386 335.58L156.567 335.566L156.507 279.269Z" fill="white"/>
<path d="M176.279 335.573H118.39V357.335H176.279V335.573Z" fill="#1C244C"/>
<path d="M138.26 267.589L138.269 279.71V279.747C138.269 279.747 141.832 281.175 146.626 281.252C149.231 281.294 152.199 280.938 155.158 279.735L155.149 267.577L138.26 267.589Z" fill="#EBAEA3"/>
<path d="M155.013 270.203C154.903 270.319 154.793 270.434 154.682 270.544C154.619 270.606 154.556 270.666 154.494 270.726C154.385 270.83 154.275 270.934 154.165 271.032C154.099 271.091 154.033 271.148 153.967 271.205C153.859 271.298 153.752 271.39 153.644 271.478C153.574 271.534 153.505 271.588 153.435 271.643C153.33 271.725 153.226 271.806 153.121 271.883C153.048 271.937 152.975 271.988 152.901 272.039C152.8 272.11 152.699 272.182 152.598 272.249C152.521 272.3 152.445 272.348 152.369 272.396C152.273 272.457 152.176 272.519 152.08 272.577C151.998 272.626 151.918 272.672 151.837 272.718C151.748 272.769 151.659 272.821 151.57 272.87C151.482 272.918 151.396 272.962 151.31 273.007C151.23 273.049 151.149 273.091 151.07 273.13C150.975 273.177 150.883 273.219 150.79 273.263C150.721 273.295 150.652 273.329 150.584 273.359C150.48 273.405 150.38 273.447 150.279 273.49C150.224 273.513 150.168 273.537 150.114 273.559C149.999 273.605 149.889 273.647 149.778 273.688C149.74 273.702 149.701 273.718 149.663 273.732C149.53 273.78 149.402 273.824 149.276 273.865C149.263 273.869 149.248 273.875 149.235 273.879C148.813 274.016 148.429 274.118 148.101 274.192C147.6 274.305 147.088 274.366 146.575 274.362C146.404 274.361 146.233 274.352 146.062 274.336C145.789 274.31 145.523 274.276 145.262 274.237C145.24 274.234 145.218 274.229 145.195 274.226C144.939 274.187 144.69 274.141 144.445 274.091C144.438 274.089 144.431 274.088 144.424 274.086C142.996 273.787 141.749 273.292 140.661 272.642C140.643 272.631 140.624 272.621 140.606 272.61C140.38 272.473 140.159 272.33 139.946 272.18C139.942 272.177 139.937 272.174 139.933 272.171C139.925 272.166 139.919 272.159 139.911 272.154C139.309 271.726 138.762 271.247 138.264 270.727L138.265 272.092C138.763 272.612 139.31 273.091 139.912 273.519C139.92 273.524 139.926 273.531 139.934 273.536C139.938 273.539 139.943 273.542 139.947 273.545C140.16 273.695 140.38 273.838 140.607 273.975C140.625 273.986 140.644 273.996 140.662 274.007C141.75 274.657 142.997 275.153 144.425 275.451C144.432 275.452 144.439 275.454 144.446 275.455C144.691 275.506 144.941 275.552 145.196 275.59C145.218 275.594 145.24 275.598 145.263 275.601C145.524 275.64 145.79 275.674 146.063 275.699C146.234 275.715 146.405 275.724 146.576 275.725C147.088 275.729 147.6 275.668 148.101 275.555C148.43 275.481 148.813 275.379 149.236 275.242C149.249 275.238 149.264 275.232 149.277 275.228C149.403 275.187 149.532 275.143 149.664 275.095C149.702 275.081 149.741 275.065 149.779 275.051C149.89 275.01 150.001 274.968 150.115 274.922C150.169 274.9 150.225 274.876 150.28 274.853C150.381 274.811 150.482 274.769 150.585 274.723C150.653 274.693 150.722 274.659 150.791 274.627C150.884 274.584 150.977 274.541 151.071 274.494C151.15 274.455 151.231 274.412 151.311 274.371C151.397 274.326 151.484 274.282 151.571 274.234C151.659 274.186 151.748 274.134 151.838 274.082C151.919 274.035 151.999 273.99 152.081 273.941C152.177 273.883 152.273 273.821 152.37 273.76C152.446 273.711 152.522 273.664 152.599 273.613C152.7 273.546 152.801 273.475 152.902 273.403C152.975 273.351 153.048 273.301 153.122 273.247C153.227 273.17 153.331 273.089 153.436 273.007C153.506 272.953 153.576 272.899 153.646 272.842C153.754 272.755 153.862 272.662 153.969 272.57C154.035 272.513 154.101 272.457 154.167 272.397C154.277 272.298 154.386 272.195 154.496 272.091C154.559 272.031 154.622 271.971 154.685 271.909C154.796 271.799 154.906 271.684 155.016 271.568C155.062 271.519 155.108 271.469 155.155 271.419L155.154 270.054C155.105 270.104 155.059 270.154 155.013 270.203Z" fill="#E48C87"/>
<path d="M136.013 259.113C135.331 260.797 133.413 261.609 131.729 260.927C130.045 260.245 129.233 258.327 129.915 256.643C130.597 254.959 132.515 254.147 134.199 254.829C135.883 255.511 136.695 257.429 136.013 259.113Z" fill="#E48C87"/>
<path d="M163.831 257.956C163.149 259.64 161.231 260.452 159.547 259.77C157.863 259.088 157.051 257.17 157.733 255.486C158.415 253.802 160.333 252.99 162.017 253.672C163.701 254.354 164.513 256.272 163.831 257.956Z" fill="#E48C87"/>
<path d="M159.643 250.678C161.328 269.09 151.592 272.965 148.069 273.762C147.401 273.913 146.714 273.971 146.032 273.907C130.287 272.413 133.734 249.246 133.734 249.246C133.734 249.246 135.302 239.571 147.233 240.125C147.233 240.125 158.673 240.078 159.643 250.678Z" fill="#EBAEA3"/>
<path d="M130.954 248.331C130.733 250.02 131.104 252.591 133.405 256.18C133.405 256.18 139.019 246.721 134.605 245.66C132.86 245.241 131.186 246.552 130.954 248.331Z" fill="#313362"/>
<path d="M161.486 248.267C162.181 249.943 162.45 252.815 159.482 256.727C159.482 256.727 153.788 246.645 158.278 246.246C159.66 246.124 160.955 246.985 161.486 248.267Z" fill="#313362"/>
<path d="M146.231 258.659L145.439 261.597H147.232" stroke="#E48C87" stroke-width="0.5" stroke-miterlimit="10"/>
<path d="M156.918 263.734C156.919 265.217 155.717 266.421 154.234 266.422C152.751 266.423 151.547 265.221 151.546 263.738C151.545 262.255 152.747 261.051 154.23 261.05C155.713 261.049 156.917 262.251 156.918 263.734Z" fill="#E48C87"/>
<path d="M141.825 263.745C141.826 265.228 140.624 266.432 139.141 266.433C137.658 266.434 136.454 265.232 136.453 263.749C136.452 262.266 137.654 261.062 139.137 261.061C140.621 261.06 141.824 262.262 141.825 263.745Z" fill="#E48C87"/>
<path d="M140.688 257.784C140.688 258.206 140.347 258.547 139.926 258.548C139.504 258.548 139.163 258.207 139.162 257.785C139.162 257.363 139.503 257.022 139.924 257.021C140.346 257.021 140.687 257.362 140.688 257.784Z" fill="#313362"/>
<path d="M153.403 257.748C153.403 258.169 153.062 258.511 152.641 258.512C152.219 258.512 151.878 258.171 151.877 257.75C151.877 257.329 152.218 256.987 152.64 256.986C153.061 256.985 153.403 257.327 153.403 257.748Z" fill="#313362"/>
<path d="M136.838 253.626L143.012 252.809C142.158 252.092 141.003 251.749 139.753 251.915C138.514 252.079 137.472 252.734 136.832 253.636" fill="#313362"/>
<path d="M155.903 253.488L149.728 252.679C150.581 251.961 151.735 251.616 152.986 251.78C154.225 251.942 155.268 252.596 155.909 253.497" fill="#313362"/>
<path d="M130.375 239.447C130.375 239.447 133.259 254.834 158.65 246.757C158.65 246.757 158.019 225.429 130.375 239.447Z" fill="#313362"/>
<path d="M148.662 266.437C148.235 267.354 147.349 267.982 146.329 267.977C145.315 267.971 144.442 267.342 144.022 266.43L148.662 266.437Z" fill="white"/>
<path d="M154.374 262.154C151.34 262.156 148.87 259.7 148.868 256.68L148.867 254.854C148.866 254.022 149.545 253.345 150.381 253.344L158.356 253.338C159.191 253.337 159.871 254.013 159.872 254.845L159.873 256.671C159.874 259.692 157.408 262.151 154.374 262.154ZM150.38 253.777C149.785 253.777 149.301 254.26 149.301 254.853L149.302 256.679C149.304 259.461 151.579 261.722 154.372 261.72C157.166 261.718 159.437 259.454 159.435 256.672L159.434 254.846C159.434 254.253 158.949 253.771 158.354 253.772L150.38 253.777Z" fill="#6F58FF"/>
<path d="M138.889 262.165C135.855 262.167 133.385 259.711 133.383 256.691L133.382 254.865C133.381 254.033 134.06 253.356 134.896 253.355L142.871 253.349C143.706 253.348 144.386 254.024 144.387 254.856L144.388 256.682C144.389 259.703 141.923 262.163 138.889 262.165ZM134.896 253.789C134.301 253.789 133.817 254.272 133.817 254.865L133.818 256.691C133.82 259.473 136.095 261.734 138.888 261.732C141.682 261.73 143.953 259.466 143.951 256.684L143.95 254.858C143.95 254.265 143.465 253.783 142.87 253.784L134.896 253.789Z" fill="#6F58FF"/>
<path d="M144.361 257.007L143.93 256.417C143.959 256.396 146.815 254.37 149.288 256.428L148.818 256.988C146.779 255.291 144.385 256.989 144.361 257.007Z" fill="#6F58FF"/>
<path d="M93.0319 361.873C99.0759 359.085 112.481 360.756 112.481 360.756C112.481 360.756 108.577 367.707 115.252 370.141L102.648 372.549C100.43 372.973 98.1279 372.902 95.9779 372.213C92.0769 370.963 90.8399 368.539 90.5109 366.633C90.1709 364.661 91.2159 362.711 93.0319 361.873Z" fill="#232323"/>
<path d="M112.481 360.756L118.784 360.751L120.951 367.998L115.252 370.14C108.577 367.707 112.481 360.756 112.481 360.756Z" fill="#EBAEA3"/>
<path d="M187.546 333.998C191.98 332.572 196.577 332.031 199.896 335.885C202.471 338.875 202.88 343.273 200.91 346.692C198.915 350.154 194.874 351.737 191.429 353.33C184.238 356.655 127.951 370.178 120.384 371.972L116.245 358.132C119.699 356.958 123.164 355.817 126.626 354.666C132.571 352.689 138.516 350.714 144.46 348.734C151.057 346.537 157.652 344.336 164.244 342.123C169.659 340.304 175.074 338.483 180.473 336.619C182.609 335.881 185.052 334.8 187.546 333.998Z" fill="#282B54"/>
<path d="M205.642 362.872C199.594 360.093 186.191 361.782 186.191 361.782C186.191 361.782 190.105 368.727 183.433 371.171L196.04 373.561C198.259 373.982 200.56 373.907 202.71 373.215C206.61 371.959 207.843 369.533 208.169 367.627C208.507 365.656 207.459 363.707 205.642 362.872Z" fill="#232323"/>
<path d="M186.191 361.783L179.888 361.788L177.731 369.038L183.433 371.172C190.106 368.728 186.191 361.783 186.191 361.783Z" fill="#EBAEA3"/>
<path d="M111.089 334.753C106.653 333.334 102.056 332.799 98.7409 336.658C96.1699 339.651 95.7669 344.05 97.7419 347.466C99.7419 350.925 103.785 352.503 107.233 354.091C114.428 357.406 170.735 370.849 178.304 372.631L182.424 358.785C178.968 357.616 175.501 356.48 172.038 355.334C166.09 353.366 160.142 351.399 154.195 349.428C147.595 347.241 140.996 345.049 134.402 342.845C128.984 341.034 123.567 339.22 118.165 337.364C116.028 336.63 113.584 335.551 111.089 334.753Z" fill="#313362"/>
<path d="M173.573 292.926L120.444 292.964C117.097 292.966 114.385 295.682 114.387 299.029L116.051 338.824L178.032 338.78L179.639 298.983C179.636 295.635 176.921 292.924 173.573 292.926Z" fill="#AEB5F0"/>
<path d="M122.894 296.905L176.023 296.867C177.341 296.866 178.557 297.29 179.552 298.004C179.081 295.124 176.587 292.925 173.574 292.927L120.445 292.965C117.098 292.967 114.386 295.683 114.388 299.03L116.052 338.825L118.337 338.823L116.838 302.97C116.835 299.622 119.546 296.907 122.894 296.905Z" fill="#C3CAF1"/>
<path d="M151.364 311.815C151.365 314.055 149.551 315.872 147.312 315.873C145.072 315.875 143.255 314.06 143.254 311.821C143.252 309.581 145.067 307.765 147.306 307.763C149.546 307.761 151.363 309.576 151.364 311.815Z" fill="white"/>
<path opacity="0.29" d="M294.104 206.835H190.103V272.746H294.104V206.835Z" fill="#4139A1"/>
<path d="M291.708 204.409H187.707V270.32H291.708V204.409Z" fill="#FBFFFC"/>
<path d="M238.997 251.94C228.278 251.94 219.557 243.219 219.557 232.5C219.557 221.781 228.278 213.06 238.997 213.06C249.718 213.06 258.439 221.781 258.439 232.5C258.438 243.22 249.717 251.94 238.997 251.94ZM238.997 214.828C229.253 214.828 221.324 222.757 221.324 232.501C221.324 242.245 229.253 250.174 238.997 250.174C248.743 250.174 256.672 242.245 256.672 232.501C256.671 222.756 248.743 214.828 238.997 214.828Z" fill="#DB2D51"/>
<path d="M250.86 232.5L233.066 221.448V243.553L250.86 232.5Z" fill="#DB2D51"/>
<path d="M289.191 259.86H190.316V267.024H289.191V259.86Z" fill="#9FA5FB"/>
<path d="M196.529 263.499L192.852 261.215V265.783L196.529 263.499Z" fill="#FBFFFC"/>
<path d="M246.478 263.442C246.478 264.65 245.499 265.63 244.29 265.63C243.082 265.63 242.103 264.651 242.103 263.442C242.103 262.234 243.082 261.255 244.29 261.255C245.499 261.255 246.478 262.234 246.478 263.442Z" fill="#FBFFFC"/>
<path d="M196.529 263.499H286.976" stroke="#FBFFFC" stroke-miterlimit="10"/>
<path opacity="0.29" d="M256.608 114.601H182.743V152.536H256.608V114.601Z" fill="#4139A1"/>
<path opacity="0.29" d="M256.608 158.247H182.746V196.182H256.608V158.247Z" fill="#4139A1"/>
<path d="M114.056 194.053L254.422 194.053V156.139H114.056V194.053Z" fill="#DB2D51"/>
<path d="M155.745 168.335H243.869V164.168H155.745V168.335Z" fill="white"/>
<path d="M155.745 176.669H243.869V172.502H155.745V176.669Z" fill="white"/>
<path d="M155.822 185.005H201.755V180.667H155.822V185.005Z" fill="white"/>
<path d="M122.503 186.182H145.729V162.956H122.503V186.182Z" fill="white"/>
<path d="M138.583 169.805C138.583 172.337 136.53 174.39 133.998 174.39C131.466 174.39 129.413 172.337 129.413 169.805C129.413 167.273 131.466 165.22 133.998 165.22C136.531 165.22 138.583 167.272 138.583 169.805Z" fill="#D3D5FC"/>
<path d="M142.789 186.238H125.442V183.064C125.442 178.274 129.325 174.391 134.115 174.391C138.905 174.391 142.788 178.274 142.788 183.064V186.238H142.789Z" fill="#D3D5FC"/>
<path d="M114.056 150.261L254.422 150.261V112.347L114.056 112.347V150.261Z" fill="#ECB42A"/>
<path d="M155.745 124.544L243.869 124.544V120.377L155.745 120.377V124.544Z" fill="white"/>
<path d="M155.745 132.879H243.869V128.712H155.745V132.879Z" fill="white"/>
<path d="M155.822 141.212H201.755V136.874H155.822V141.212Z" fill="white"/>
<path d="M122.503 142.391H145.729V119.165H122.503V142.391Z" fill="white"/>
<path d="M138.466 125.958C138.466 128.49 136.413 130.543 133.881 130.543C131.349 130.543 129.296 128.49 129.296 125.958C129.296 123.426 131.349 121.373 133.881 121.373C136.413 121.373 138.466 123.426 138.466 125.958Z" fill="#D3D5FC"/>
<path d="M142.672 142.391H125.325V139.216C125.325 134.426 129.208 130.543 133.998 130.543C138.788 130.543 142.671 134.426 142.671 139.216L142.672 142.391Z" fill="#D3D5FC"/>
<path d="M114.055 129.859H94.162V175.211H114.055" stroke="#4C28DC" stroke-width="2" stroke-miterlimit="10" stroke-dasharray="4 4"/>
<path opacity="0.29" d="M499.596 110.592H463.962V133.835H499.596V110.592Z" fill="#4139A1"/>
<path d="M528.253 107.324H465.957V131.857H528.253V107.324Z" fill="#ECB42A"/>
<path d="M520.584 115.042H474.151V117.167H520.584V115.042Z" fill="white"/>
<path d="M520.584 119.797H474.151V121.921H520.584V119.797Z" fill="white"/>
<path d="M505.792 124.553H474.151V126.677H505.792V124.553Z" fill="white"/>
<path d="M112.316 254.522H38.444V279.055H112.316V254.522Z" fill="#6F58FF"/>
<path d="M103.222 262.24H48.161V264.365H103.222V262.24Z" fill="white"/>
<path d="M103.222 266.996H48.161V269.12H103.222V266.996Z" fill="white"/>
<path d="M85.681 271.751H48.161V273.875H85.681V271.751Z" fill="white"/>
<path opacity="0.29" d="M451.373 80.146H292.859V170.181H451.373V80.146Z" fill="#4139A1"/>
<path d="M446.822 58.4529H288.308V165.953H446.822V58.4529Z" fill="#9090F4"/>
<path d="M437.455 66.1699H297.051V142.576H437.455V66.1699Z" fill="white"/>
<path d="M355.263 148.064H296.369V160.465H355.263V148.064Z" fill="white"/>
<path d="M437.455 148.064H360.32V150.83H437.455V148.064Z" fill="white"/>
<path d="M422.778 157.699H360.32V160.465H422.778V157.699Z" fill="white"/>
<path d="M406.063 152.549H360.32V155.315H406.063V152.549Z" fill="white"/>
<path d="M302.381 142.576L331.543 80.3479L367.277 124.965L385.934 100.238L432.172 142.576H302.381Z" fill="#706CCA"/>
<path d="M409.349 97.5498C415.361 97.5498 420.235 92.676 420.235 86.6638C420.235 80.6517 415.361 75.7778 409.349 75.7778C403.337 75.7778 398.463 80.6517 398.463 86.6638C398.463 92.676 403.337 97.5498 409.349 97.5498Z" fill="#FFC41D"/>
<path d="M97.5609 228.324H80.7499V231.391H97.5609V228.324Z" fill="#9FA5FB"/>
<path d="M92.8359 237.164H85.4739C82.8649 237.164 80.7489 235.049 80.7489 232.439H97.5599C97.5609 235.049 95.4459 237.164 92.8359 237.164Z" fill="#9FA5FB"/>
<path d="M87.2929 200.497C80.8839 201.205 75.7219 206.365 75.0129 212.774C74.5299 217.139 76.0609 221.156 78.7949 224.014C79.1329 224.367 79.5249 224.665 79.8469 225.033C80.4029 225.669 80.7129 226.504 80.9229 227.311C80.9359 227.362 81.1219 228.325 81.0949 228.325H88.8819H96.6689C96.6689 228.325 96.6759 228.052 96.7719 227.602C97.0319 226.385 97.6719 225.278 98.5679 224.415C101.201 221.876 102.84 218.314 102.84 214.367C102.84 206.135 95.7129 199.567 87.2929 200.497Z" fill="#ECB42A"/>
<path d="M97.5609 231.021H80.7499V232.667H97.5609V231.021Z" fill="#6F58FF"/>
<path d="M85.9829 221.885C85.0449 221.885 84.2819 221.122 84.2819 220.185C84.2819 219.247 85.0459 218.483 85.9829 218.483C86.9209 218.483 87.6849 219.247 87.6849 220.185C87.6839 221.122 86.9199 221.885 85.9829 221.885ZM85.9829 219.201C85.4409 219.201 84.9989 219.642 84.9989 220.185C84.9989 220.727 85.4399 221.168 85.9829 221.168C86.5249 221.168 86.9669 220.728 86.9669 220.185C86.9669 219.642 86.5249 219.201 85.9829 219.201Z" fill="#6959FA"/>
<path d="M91.7808 221.885C90.8428 221.885 90.0798 221.122 90.0798 220.185C90.0798 219.247 90.8438 218.483 91.7808 218.483C92.7188 218.483 93.4828 219.247 93.4828 220.185C93.4828 221.122 92.7188 221.885 91.7808 221.885ZM91.7808 219.201C91.2388 219.201 90.7968 219.642 90.7968 220.185C90.7968 220.727 91.2378 221.168 91.7808 221.168C92.3238 221.168 92.7648 220.728 92.7648 220.185C92.7648 219.642 92.3238 219.201 91.7808 219.201Z" fill="#6959FA"/>
<path d="M86.3419 221.526H85.6239V228.324H86.3419V221.526Z" fill="#6959FA"/>
<path d="M92.1399 221.526H91.4219V228.324H92.1399V221.526Z" fill="#6959FA"/>
<path d="M90.4389 219.826H87.3259V220.544H90.4389V219.826Z" fill="#6959FA"/>
<path d="M367.859 236.514L367.851 236.508L367.854 236.516L367.851 236.52H367.858L367.859 236.514Z" fill="url(#paint0_linear_76_5)"/>
<path d="M352.142 186.137C342.379 189.532 333.515 195.481 326.633 203.59L370.575 239.173L352.142 186.137Z" fill="#6F58FF"/>
<path d="M370.575 239.172L326.633 203.589C323.304 207.511 320.437 211.935 318.16 216.825L370.574 239.183H370.575C370.575 239.183 370.577 239.181 370.578 239.179L370.575 239.172Z" fill="url(#paint1_linear_76_5)"/>
<path d="M370.575 239.172L326.633 203.589L321.539 199.464C310.099 210.567 306.987 221.982 306.987 239.183H370.574H370.575C370.575 239.183 370.577 239.181 370.578 239.179L370.575 239.172Z" fill="#ECB42A"/>
<path d="M370.581 239.184C370.581 239.184 392.21 189.609 392.215 189.597C392.398 189.186 398.891 193.155 399.373 193.451C402.784 195.542 405.98 197.738 408.916 200.486C415.065 206.24 419.886 213.413 422.855 221.296C425.022 227.049 426.272 233.102 426.559 239.244L370.581 239.184Z" fill="#7580EA"/>
<path d="M370.582 239.184L395.374 182.332C382.072 176.651 364.821 175.467 350.427 181.497L370.577 239.185C370.579 239.184 370.58 239.185 370.582 239.184Z" fill="#DB2D51"/>
<path d="M442.444 226.174H433.108V234.186H442.444V226.174Z" fill="#ECB42A"/>
<path d="M457.622 226.174H448.286V234.186H457.622V226.174Z" fill="#7580EA"/>
<path d="M472.8 226.174H463.464V234.186H472.8V226.174Z" fill="#DB2D51"/>
<path d="M476.435 200.441H429.474V203.13H476.435V200.441Z" fill="white"/>
<path d="M476.435 206.214H429.474V208.903H476.435V206.214Z" fill="white"/>
<path d="M476.435 211.987H429.474V214.676H476.435V211.987Z" fill="white"/>
<path d="M476.435 217.76H429.474V220.449H476.435V217.76Z" fill="white"/>
<path d="M663.566 112.686H597.769V208.738H663.566V112.686Z" fill="white"/>
<path d="M624.911 167.791C623.53 167.791 622.411 166.672 622.411 165.291V133.843C622.411 132.462 623.53 131.343 624.911 131.343C626.292 131.343 627.411 132.462 627.411 133.843V165.291C627.411 166.672 626.292 167.791 624.911 167.791Z" fill="#ECB42A"/>
<path d="M624.911 183.523C623.53 183.523 622.411 182.404 622.411 181.023V165.291C622.411 163.91 623.53 162.791 624.911 162.791C626.292 162.791 627.411 163.91 627.411 165.291V181.023C627.411 182.403 626.292 183.523 624.911 183.523Z" fill="#D3D5FC"/>
<path d="M649.193 167.056C647.812 167.056 646.693 165.937 646.693 164.556V123.851C646.693 122.47 647.812 121.351 649.193 121.351C650.574 121.351 651.693 122.47 651.693 123.851V164.556C651.693 165.936 650.574 167.056 649.193 167.056Z" fill="#DB2D51"/>
<path d="M649.193 183.523C647.812 183.523 646.693 182.404 646.693 181.023V164.556C646.693 163.175 647.812 162.056 649.193 162.056C650.574 162.056 651.693 163.175 651.693 164.556V181.023C651.693 182.403 650.574 183.523 649.193 183.523Z" fill="#D3D5FC"/>
<path d="M637.942 158.536C636.561 158.536 635.442 157.417 635.442 156.036V147.048C635.442 145.667 636.561 144.548 637.942 144.548C639.323 144.548 640.442 145.667 640.442 147.048V156.036C640.442 157.417 639.323 158.536 637.942 158.536Z" fill="#6F58FF"/>
<path d="M637.942 183.523C636.561 183.523 635.442 182.404 635.442 181.023V156.036C635.442 154.655 636.561 153.536 637.942 153.536C639.323 153.536 640.442 154.655 640.442 156.036V181.023C640.442 182.403 639.323 183.523 637.942 183.523Z" fill="#D3D5FC"/>
<path d="M612.143 158.536C610.762 158.536 609.643 157.417 609.643 156.036V140.27C609.643 138.889 610.762 137.77 612.143 137.77C613.524 137.77 614.643 138.889 614.643 140.27V156.036C614.643 157.417 613.524 158.536 612.143 158.536Z" fill="#7580EA"/>
<path d="M612.143 183.523C610.762 183.523 609.643 182.404 609.643 181.023V156.036C609.643 154.655 610.762 153.536 612.143 153.536C613.524 153.536 614.643 154.655 614.643 156.036V181.023C614.643 182.403 613.524 183.523 612.143 183.523Z" fill="#D3D5FC"/>
<path d="M614.96 189.418H605.151V194.703H614.96V189.418Z" fill="#7580EA"/>
<path d="M614.96 197.953H605.151V203.238H614.96V197.953Z" fill="#DB2D51"/>
<path d="M642.95 189.418H633.14V194.703H642.95V189.418Z" fill="#ECB42A"/>
<path d="M642.95 197.953H633.14V203.238H642.95V197.953Z" fill="#6F58FF"/>
<path d="M629.067 190.581H616.929V192.341H629.067V190.581Z" fill="#D3D5FC"/>
<path d="M629.067 200.058H616.929V201.818H629.067V200.058Z" fill="#D3D5FC"/>
<path d="M656.762 190.581H644.624V192.341H656.762V190.581Z" fill="#D3D5FC"/>
<path d="M656.762 200.058H644.624V201.818H656.762V200.058Z" fill="#D3D5FC"/>
<path opacity="0.29" d="M274.524 80.146H206.187V107.766H274.524V80.146Z" fill="#4139A1"/>
<path d="M271.379 49.6899H203.199V104.658H271.379V49.6899Z" fill="#9090F4"/>
<path d="M266.859 53.9209H207.719V100.139H266.859V53.9209Z" fill="white"/>
<path d="M236.534 57.5559C238.068 57.4489 239.397 58.6089 239.504 60.1469C239.611 61.6849 238.454 63.0179 236.92 63.1249C231.243 63.5199 226.945 68.4729 227.339 74.1659C227.446 75.7039 226.288 77.0369 224.755 77.1439C223.222 77.2509 221.892 76.0909 221.785 74.5529C221.178 65.7899 227.794 58.1649 236.534 57.5559Z" fill="#ECB42A"/>
<path d="M221.746 73.4198C221.755 71.8778 223.008 70.6358 224.545 70.6438C226.082 70.6528 227.322 71.9088 227.313 73.4508C227.281 79.1568 231.885 83.8248 237.576 83.8568C239.113 83.8658 240.353 85.1218 240.344 86.6638C240.336 88.2058 239.082 89.4478 237.545 89.4398C228.785 89.3908 221.697 82.2048 221.746 73.4198Z" fill="#7580EA"/>
<path d="M237.646 89.44C236.109 89.44 234.862 88.19 234.862 86.649C234.862 85.107 236.108 83.858 237.646 83.858C243.337 83.858 247.967 79.215 247.967 73.509C247.967 71.967 249.213 70.718 250.751 70.718C252.288 70.718 253.535 71.968 253.535 73.509C253.534 82.293 246.406 89.44 237.646 89.44Z" fill="#DB2D51"/>
<path d="M236.419 57.5539C245.159 56.9449 252.762 63.5819 253.369 72.3459C253.476 73.8839 252.319 75.2169 250.785 75.3239C249.251 75.4309 247.922 74.2709 247.815 72.7329C247.421 67.0399 242.482 62.7279 236.805 63.1229C236.904 63.1159 237.004 63.0939 237.1 63.0709C237.34 63.0129 237.574 62.9279 237.795 62.8169C238.091 62.6689 238.364 62.4739 238.592 62.2319C238.872 61.9349 239.075 61.5729 239.194 61.1829C239.372 60.6019 239.38 60.0109 239.191 59.4319C239.086 59.1109 238.924 58.8099 238.707 58.5519C238.403 58.1899 238.001 57.9239 237.565 57.7459C237.492 57.7159 237.418 57.6889 237.344 57.6639C237.344 57.6639 236.963 57.5489 236.611 57.5539" fill="#6F58FF"/>
<path d="M247.454 91.6799H211.438V93.6749H247.454V91.6799Z" fill="#D3D5FC"/>
<path d="M254.937 91.6799H250.401V93.6749H254.937V91.6799Z" fill="#ECB42A"/>
<path d="M263.14 91.6799H258.604V93.6749H263.14V91.6799Z" fill="#6F58FF"/>
<path d="M254.937 95.116H250.401V97.111H254.937V95.116Z" fill="#7580EA"/>
<path d="M263.14 95.116H258.604V97.111H263.14V95.116Z" fill="#DB2D51"/>
<path d="M247.454 95.116H211.438V97.111H247.454V95.116Z" fill="#D3D5FC"/>
<path d="M544.178 376.825C570.319 376.825 591.51 374.218 591.51 371.001C591.51 367.785 570.319 365.177 544.178 365.177C518.037 365.177 496.846 367.785 496.846 371.001C496.846 374.218 518.037 376.825 544.178 376.825Z" fill="#D3D5FC"/>
<path d="M564.333 167.897C564.179 168.299 564.149 177.65 564.146 178.08C564.136 179.696 564.126 181.312 564.114 182.928C564.105 184.207 564.099 185.509 564.463 186.736C564.943 188.353 566.023 189.353 567.556 189.969C570.563 191.178 574.332 191.069 577.454 190.369C577.763 190.3 580.727 189.273 580.75 189.301C579.322 187.569 578.025 185.517 577.396 183.347C576.517 180.314 576.824 177.195 577.215 174.12C577.42 172.509 577.555 170.889 577.621 169.267C577.685 167.701 577.678 159.921 577.375 158.38C576.576 158.685 574.813 162.472 574.165 163.075C573.36 163.825 573.048 164.511 572.243 165.261C570.633 166.761 568.634 165.776 567.016 167.265C566.329 167.904 566.402 167.947 565.686 168.551C565.083 169.058 564.634 167.121 564.333 167.897Z" fill="#313362"/>
<path d="M531.408 370.614L531.331 366.892L531.303 365.517L530.424 366.576L526.408 365.177L505.362 368.882C504.597 369.017 504.524 370.085 505.264 370.32C509.867 371.776 519.338 374.259 526.44 372.735L526.376 373.466L531.476 373.938L531.408 370.614Z" fill="#232323"/>
<path d="M526.409 365.177L514.108 367.342C514.108 367.342 528.024 371.258 531.159 365.768" fill="#FFBCB5"/>
<path d="M536.32 295.173C536.229 294.971 536.145 294.767 536.069 294.563C535.699 293.57 535.632 292.49 535.788 291.442L544.123 233.403L552.512 232.919L549.673 284.346C550.034 284.738 550.399 285.167 550.768 285.628L538.644 300.327L536.32 295.173Z" fill="#242856"/>
<path d="M577.881 368.775L577.397 365.51C577.356 365.232 577.302 364.955 577.237 364.681L577.044 363.872L576.396 364.893L572.236 364.011L551.825 370.34C551.084 370.57 551.14 371.639 551.904 371.778C556.652 372.642 566.365 373.913 573.22 371.505L573.249 372.238L578.368 372.063L577.881 368.775Z" fill="#232323"/>
<path d="M572.236 364.011L560.191 367.746C560.191 367.746 574.65 369.853 577.068 364.011" fill="#FFBCB5"/>
<path d="M551.761 319.052L559.881 282.916C561.001 287.455 568.21 313 569.41 318.24C570.664 323.716 571.595 329.264 572.21 334.848L577.067 364.011H572.235L551.761 319.052Z" fill="#242856"/>
<path d="M538.252 286.114L544.123 233.403L564.809 234.52C574.445 246.616 570.538 260.366 564.559 273.778C561.349 280.979 558.106 293.707 550.198 325.428C548.839 330.879 547.159 336.248 545.182 341.506L531.055 365.833L526.262 365.224L538.252 286.114Z" fill="#2D2F64"/>
<path d="M544.123 233.403L543.846 235.256L566.076 236.255L564.809 234.52L544.123 233.403Z" fill="#333333"/>
<path d="M560.53 285.468L551.761 319.052L553.174 322.154L562.016 290.86L560.53 285.468Z" fill="#14183A"/>
<path d="M542.782 218.424C544.521 218.752 546.084 217.298 545.857 215.543C545.03 209.147 545.157 202.542 545.867 196.772C546.344 192.892 546.904 190.14 548.486 186.964C549.794 184.338 556.921 183.737 558.6 189.115C560.151 194.082 557.687 195.554 557.043 200.678C556.454 205.363 555.599 210.026 554.24 214.553C553.561 216.815 552.756 219.041 551.809 221.205C551.5 221.912 551.199 222.644 550.887 223.385C550.394 224.554 549.875 225.725 549.248 226.799C549.241 226.811 549.235 226.823 549.229 226.836L549.112 227.08C548.432 228.496 546.83 229.217 545.319 228.787C543.381 228.24 541.443 227.693 539.506 227.145L536.478 217.387C538.58 217.69 540.682 218.028 542.782 218.424Z" fill="#E8426D"/>
<path d="M554.206 181.561L545.755 197.049C543.834 200.343 543.455 204.313 544.719 207.911L546.331 212.5L544.123 233.432L564.809 234.549C569.511 216.784 574.807 207.898 574.807 207.898C574.807 207.898 583.513 188.989 567.448 184.059L554.206 181.561Z" fill="#FF5076"/>
<path d="M567.173 224.94C569.147 225.125 566.904 208.648 567.089 202.967C567.216 199.06 567.02 194.139 568.311 190.835C569.378 188.103 574.1 185.41 576.254 190.616C578.244 195.424 578.752 200.695 578.57 205.856C578.403 210.575 577.97 215.296 577.022 219.926C576.548 222.24 575.947 224.529 575.197 226.769C574.952 227.5 574.719 228.257 574.474 229.023C574.088 230.231 573.675 231.444 573.148 232.571C573.142 232.584 573.137 232.596 573.132 232.609L573.037 232.862C572.487 234.331 570.961 235.193 569.419 234.903C567.437 234.531 565.456 234.159 563.475 233.788L559.585 224.34C561.573 224.448 565.179 224.754 567.173 224.94Z" fill="#E8426D"/>
<path d="M560.956 165.811L562.263 163.868L555.938 167.317L551.872 172.516C551.872 172.516 552.464 175.246 553.261 178.899C555.675 178.89 563.305 169.879 560.956 165.811Z" fill="#FF8D88"/>
<path d="M565.021 168.432C565.021 168.432 570.489 166.75 570.781 163.459L566.812 164.627L561.497 161.487C558.209 172.293 555.316 177.246 552.902 177.254C553.242 178.814 553.549 180.387 553.85 181.959C553.717 184.455 553.444 187.112 555.885 187.902C558.232 188.661 561.576 187.194 563.179 185.778C564.287 184.8 564.851 184.755 565.959 183.777C565.959 183.777 565.319 180.736 564.648 177.493C564.119 174.111 563.899 170.654 565.021 168.432Z" fill="#FFBCB5"/>
<path d="M539.561 162.664L542.534 165.254L544.073 174.607C544.073 174.607 557.562 177.584 562.588 165.261C562.588 165.261 570.781 164.802 571.991 157.602C573.201 150.402 566.788 139.219 552.905 144.178C552.905 144.178 546.249 147.062 544.795 152.631C544.533 153.633 544.548 154.685 544.734 155.704C545.108 157.758 545.347 162.52 539.561 162.664Z" fill="#FFBCB5"/>
<path d="M553.901 163.669C554.494 165.185 553.746 166.895 552.23 167.488C550.714 168.081 549.004 167.333 548.411 165.817C547.818 164.301 548.566 162.592 550.082 161.998C551.598 161.406 553.307 162.154 553.901 163.669Z" fill="#FF8D88"/>
<path d="M542.948 168.071C542.948 168.071 544.926 168.464 547.779 167.265" stroke="#FF8D88" stroke-width="0.25" stroke-miterlimit="10"/>
<path d="M542.948 168.071L546.012 167.897C546.012 167.897 543.363 166.78 542.801 167.367C542.675 167.497 542.948 168.071 542.948 168.071Z" fill="#FF8D88"/>
<path d="M543.022 168.052C542.842 168.057 542.795 168.359 542.8 168.487C542.81 168.739 542.947 169.002 543.172 169.126C543.525 169.321 543.984 169.119 544.322 168.977C544.929 168.721 545.48 168.282 546.011 167.897C546.011 167.897 543.036 168.051 543.022 168.052Z" fill="#F88080"/>
<path d="M545.527 156.439C545.527 156.439 549.071 154.611 551.155 158.028C551.155 158.028 548.928 155.859 545.527 156.439Z" fill="#313362"/>
<path d="M547.145 160.445C547.522 160.787 548.104 160.758 548.446 160.381C548.788 160.004 548.759 159.422 548.383 159.08C548.006 158.738 547.424 158.767 547.082 159.143C546.74 159.52 546.768 160.103 547.145 160.445Z" fill="#313362"/>
<path d="M557.615 138.716C570.366 137.44 574.991 146.129 576.653 151.967C577.65 155.471 577.99 163.96 576.699 167.366C573.241 176.487 564.266 171.432 564.266 171.432L564.111 166.78L563.205 160.591C558.864 159.571 557.614 153.592 557.614 153.592C557.614 153.592 557.04 153.615 556.126 153.647L555.242 150.479V153.677C554.935 153.687 554.606 153.698 554.26 153.709L553.404 148.87V153.734C552.932 153.748 552.44 153.761 551.936 153.774L551.962 153.772L551.237 150.564L551.076 153.795C547.121 153.885 542.831 153.91 542.799 153.591C541.277 138.209 557.615 138.716 557.615 138.716Z" fill="#313362"/>
<path d="M568.189 157.804C569.49 159.34 569.299 161.64 567.763 162.942C566.227 164.243 563.257 164.856 561.956 163.32C560.655 161.784 561.515 158.68 563.051 157.379C564.587 156.077 566.888 156.268 568.189 157.804Z" fill="#FFBCB5"/>
<path d="M563.268 164.685C563.45 165.151 563.975 165.381 564.441 165.198C564.907 165.016 565.136 164.49 564.954 164.025C564.772 163.559 564.247 163.329 563.781 163.512C563.315 163.695 563.086 164.22 563.268 164.685Z" fill="white"/>
<path d="M548.355 230.953C553.394 231.899 558.434 232.844 563.473 233.79C563.962 233.882 564.451 233.973 564.939 234.065C564.896 234.227 564.852 234.385 564.809 234.548L558.633 234.215C555.207 233.572 551.781 232.929 548.355 232.286C546.992 232.03 545.653 231.756 544.327 231.499L544.465 230.192C545.746 230.441 547.039 230.706 548.355 230.953Z" fill="#333333"/>
<path d="M555.489 187.747C555.489 187.747 552.31 188.376 551.959 186.144C551.608 183.912 553.863 182.188 553.863 182.188L555.489 187.747Z" fill="white"/>
<path d="M566.076 183.178L555.49 187.747C555.49 187.747 564.194 193.945 566.076 183.178Z" fill="white"/>
<path d="M507.317 170.199L534.065 251.534C534.065 251.534 542.645 250.826 555.727 244.41L528.979 163.075L507.317 170.199Z" fill="#ECB42A"/>
<path d="M523.615 164.86L512.504 168.514L539.762 251.406L550.874 247.752L523.615 164.86Z" fill="#FFC950"/>
<path d="M534.064 251.534L534.497 252.85L538.174 264.031L559.836 256.907L556.159 245.726L555.726 244.41C542.644 250.826 534.064 251.534 534.064 251.534Z" fill="#EDEDFC"/>
<path d="M534.064 251.534L534.497 252.85L534.575 253.087C534.575 253.087 543.155 252.379 556.237 245.963L556.159 245.726L555.726 244.41C542.644 250.826 534.064 251.534 534.064 251.534Z" fill="#9FA5FB"/>
<path d="M535.163 254.873L535.596 256.189L535.674 256.426C535.674 256.426 544.254 255.718 557.336 249.302L557.258 249.065L556.825 247.749C543.742 254.165 535.163 254.873 535.163 254.873Z" fill="#9FA5FB"/>
<path d="M536.261 258.213L536.694 259.529L536.772 259.766C536.772 259.766 545.352 259.058 558.434 252.642L558.356 252.405L557.923 251.089C544.84 257.504 536.261 258.213 536.261 258.213Z" fill="#9FA5FB"/>
<path d="M538.06 263.685L538.281 264.355L541.247 273.376C542.037 275.779 544.578 277.102 546.922 276.331L560.096 272C562.44 271.229 563.7 268.656 562.909 266.253L559.943 257.232L559.722 256.562L538.06 263.685Z" fill="#DB2D51"/>
<path d="M537.612 262.322L538.045 263.638L538.123 263.875C538.123 263.875 546.703 263.167 559.785 256.751L559.707 256.514L559.274 255.198C546.192 261.613 537.612 262.322 537.612 262.322Z" fill="#9FA5FB"/>
<path d="M516.133 150.747L511.253 146.064L510.156 152.789C511.462 152.626 513.605 152.138 516.133 150.747Z" fill="#2D2F64"/>
<path d="M528.979 163.076L516.133 150.747C513.605 152.138 511.462 152.625 510.156 152.788L507.317 170.199L528.979 163.076Z" fill="#FFE7B6"/>
<path d="M546.314 277.896L559.487 273.564C561.066 273.045 562.133 271.702 562.433 270.15C561.903 270.998 561.11 271.679 560.097 272.012L546.924 276.344C544.58 277.115 542.039 275.792 541.249 273.389L539.255 267.325L538.915 269.696L540.64 274.941C541.429 277.344 543.969 278.667 546.314 277.896Z" fill="#666666"/>
<path d="M563.473 233.789L559.583 224.341C554.533 224.072 549.49 224.024 544.428 224.024C541.831 224.009 532.183 223.799 532.183 223.799C530.131 222.338 529.228 221.493 527.597 220.846C526.851 220.55 525.66 220.003 524.944 219.514C524.317 219.086 523.456 219.442 523.299 220.185L526.366 222.801L523.975 222.271C523.125 222.082 522.307 222.697 522.252 223.567L521.995 227.654C522.233 229.133 523.703 230.031 525.197 229.913L528.4 230.004C529.072 230.023 529.739 229.939 530.385 229.753C531.561 229.416 532.801 229.12 534.023 229.051C535.986 228.94 537.929 229.372 539.864 229.642C541.666 229.893 543.468 230.152 545.265 230.433C546.297 230.594 547.329 230.761 548.355 230.954C553.394 231.898 558.434 232.844 563.473 233.789Z" fill="#FFBCB5"/>
<path d="M518.914 215.199L522.634 216.776L521.393 213.003L523.928 210.31C524.411 209.795 524.503 209.026 524.156 208.411L523.413 207.094C523.048 206.447 522.33 206.083 521.593 206.172L516.119 206.831L514.778 209.555L518.914 215.199Z" fill="#FFB1A5"/>
<path d="M518.914 215.199L520.087 212.992L516.119 206.83L514.777 209.554L518.914 215.199Z" fill="#FFC1BB"/>
<defs>
<linearGradient id="paint0_linear_76_5" x1="304.593" y1="236.514" x2="366.765" y2="236.514" gradientUnits="userSpaceOnUse">
<stop offset="0.0047" stop-color="#FFA603"/>
<stop offset="1" stop-color="#FFDA05"/>
</linearGradient>
<linearGradient id="paint1_linear_76_5" x1="318.16" y1="221.387" x2="370.578" y2="221.387" gradientUnits="userSpaceOnUse">
<stop offset="0.2041" stop-color="#965BFF"/>
<stop offset="1" stop-color="#97A4EA"/>
</linearGradient>
</defs>
</svg>
