<svg width="500" height="480" viewBox="0 0 500 480" fill="none" xmlns="http://www.w3.org/2000/svg">
<g clip-path="url(#clip0_77_2)">
<path d="M500 0H408.048H0V391.726V480H39.024L39.029 479.996H500.004L500 0Z" fill="#D1D1D1"/>
<path d="M404.571 140.323H194.546V319.256H404.571V140.323Z" fill="#989898"/>
<path d="M388.455 159.314H210.66V291.562H388.455V159.314Z" fill="#F1F1F1"/>
<path d="M92.8099 375.143C92.8099 382.283 98.4011 388.074 105.298 388.074H365.868C372.765 388.074 378.356 382.285 378.356 375.144C378.356 368.003 383.947 362.214 390.844 362.214H442.403C449.3 362.214 454.891 356.426 454.891 349.284V348.471C454.891 341.331 449.3 335.542 442.403 335.542H41.488C34.5912 335.542 29 341.331 29 348.471V349.284C29 356.424 34.5912 362.214 41.488 362.214H80.3219C87.2187 362.212 92.8099 368.001 92.8099 375.143Z" fill="#C2C2C2"/>
<path d="M68.3353 207.74C87.1416 209.544 113.702 192.222 109.477 172.266" stroke="#FCB28D" stroke-width="5.1291" stroke-miterlimit="10" stroke-linecap="round" stroke-linejoin="round"/>
<path d="M104.984 160.915C103.544 161.461 102.807 163.116 103.341 164.605L105.876 171.668C106.455 173.279 108.261 174.006 109.737 173.219L110.504 172.811C111.864 172.087 112.401 170.36 111.701 168.952L108.399 162.297C107.76 161.01 106.296 160.418 104.984 160.915Z" fill="#FCB28D"/>
<path d="M114.366 179.833C114.268 180.62 114.131 181.408 113.945 182.194C113.691 183.393 113.332 184.589 112.889 185.773C112.41 187.075 111.821 188.367 111.13 189.626C110.665 190.504 110.143 191.361 109.573 192.218C108.907 193.225 108.167 194.222 107.359 195.197C107.185 195.42 107.003 195.629 106.826 195.844C106.411 196.328 105.983 196.808 105.542 197.277C104.759 198.11 103.929 198.928 103.06 199.708C102.411 200.299 101.744 200.87 101.061 201.431C100.191 202.133 99.2906 202.81 98.3665 203.463C97.6704 203.96 96.9445 204.435 96.2219 204.898C95.2851 205.488 94.3332 206.045 93.3572 206.576L93.2973 206.608C92.5621 207.008 91.8257 207.388 91.0744 207.738C90.0719 208.234 89.0647 208.683 88.0415 209.102C87.2406 209.428 86.4385 209.736 85.633 210.015C84.5706 210.395 83.4966 210.731 82.4295 211.025C81.5849 211.266 80.7356 211.481 79.8829 211.667C78.7386 211.922 77.5977 212.127 76.4673 212.276C75.5523 212.417 74.6443 212.515 73.7466 212.577C72.5009 212.67 71.2691 212.696 70.0695 212.655C69.3378 212.646 68.6164 212.602 67.9088 212.53C67.6162 212.502 67.3304 212.448 67.0492 212.365C66.1561 212.097 65.361 211.568 64.7583 210.815C63.9621 209.83 63.5922 208.574 63.7074 207.292C63.742 206.925 63.8065 206.563 63.9286 206.219C64.2248 205.274 64.8079 204.441 65.5995 203.852C65.7793 203.715 65.9741 203.589 66.1757 203.478C66.9708 203.045 67.8628 202.858 68.7593 202.945C68.7892 202.949 68.8273 202.948 68.8584 202.951C69.8044 203.042 70.7793 203.075 71.7761 203.039C72.9434 203.019 74.1361 202.915 75.3461 202.733C76.2161 202.616 77.0884 202.449 77.9723 202.246C79.0601 202.011 80.1502 201.726 81.2472 201.376C82.0654 201.12 82.8789 200.836 83.6879 200.524C84.7112 200.126 85.7345 199.688 86.7451 199.207C87.4929 198.85 88.2396 198.473 88.9829 198.069L89.0279 198.044C90.0108 197.509 90.9672 196.939 91.8799 196.343C92.6174 195.871 93.3249 195.377 94.0048 194.869C94.9325 194.187 95.8129 193.468 96.6402 192.722C97.3224 192.123 97.97 191.512 98.5762 190.875C99.0221 190.414 99.4497 189.954 99.8576 189.474C100.214 189.062 100.565 188.623 100.912 188.157C101.481 187.411 102.038 186.602 102.548 185.719C103.25 184.554 103.865 183.277 104.331 181.893C104.752 180.702 105.049 179.44 105.183 178.118L105.3 178.143L109.402 178.906L112.577 179.499L114.366 179.833Z" fill="#268391"/>
<path d="M65.6721 273.179C65.3679 273.194 65.0626 273.198 64.7537 273.188C58.4596 273.001 53.5034 267.568 53.6855 261.05C54.1026 246.015 52.7094 231.025 49.5451 216.499C48.1588 210.14 52.0157 203.821 58.1577 202.387C64.3008 200.949 70.4014 204.945 71.7876 211.304C75.3714 227.754 76.9501 244.72 76.4777 261.728C76.306 267.926 71.5502 272.87 65.6721 273.179Z" fill="#1A2A40"/>
<path d="M52.887 257.799C53.0311 243.924 51.6529 230.105 48.7224 216.691C48.0068 213.388 48.5726 209.995 50.3208 207.129C50.9384 206.12 51.6759 205.218 52.5183 204.447C54.0532 203.02 55.9223 202.017 57.9815 201.533C58.6683 201.372 59.3713 201.276 60.0696 201.24C61.7197 201.151 63.3169 201.407 64.7942 201.951C68.6419 203.372 71.6645 206.748 72.6163 211.113C75.201 222.969 76.7405 235.099 77.2314 247.307C77.2545 247.838 77.2718 248.364 77.2891 248.896C77.3755 251.434 77.4101 253.973 77.4043 256.51L52.887 257.799Z" fill="#30A6B8"/>
<path d="M64.3654 206.563L63.5876 201.582C63.9967 201.684 64.3989 201.805 64.7907 201.949L69.0566 233.3L55.4958 209.638L59.786 205.564L64.3654 206.563Z" fill="white"/>
<path d="M61.5169 208.543C61.5007 208.206 61.223 207.945 60.8969 207.962C60.5708 207.979 60.3196 208.266 60.3357 208.605C60.3518 208.943 60.6307 209.203 60.9568 209.185C61.2829 209.168 61.5341 208.881 61.5169 208.543Z" fill="#3E89C9"/>
<path d="M62.4999 211.981C62.4837 211.643 62.206 211.383 61.8788 211.401C61.5526 211.417 61.3014 211.705 61.3187 212.043C61.3348 212.38 61.6137 212.64 61.9398 212.624C62.2659 212.606 62.5172 212.318 62.4999 211.981Z" fill="#3E89C9"/>
<path d="M63.6856 215.696C63.6695 215.358 63.3906 215.098 63.0656 215.116C62.7395 215.133 62.4883 215.42 62.5056 215.758C62.5217 216.096 62.8006 216.356 63.1256 216.339C63.4517 216.321 63.7029 216.034 63.6856 215.696Z" fill="#3E89C9"/>
<path d="M57.9792 201.534C58.666 201.372 59.3677 201.275 60.0672 201.238C61.2772 201.175 62.4606 201.298 63.5876 201.582L64.3655 206.563L59.786 205.564L55.4959 209.638L52.5205 204.446C54.0508 203.019 55.9188 202.016 57.9792 201.534Z" fill="#E5E5E5"/>
<path d="M57.0054 191.853C58.3928 191.63 59.6938 192.613 59.9093 194.051L61.2195 202.775C61.435 204.211 60.4855 205.558 59.0969 205.781C57.7095 206.004 56.4096 205.021 56.193 203.584L54.8828 194.86C54.6673 193.422 55.618 192.076 57.0054 191.853Z" fill="url(#paint0_linear_77_2)"/>
<path d="M62.5367 199.317L64.5902 198.562C69.5891 196.723 72.2026 191.037 70.4268 185.861L66.0675 173.156C64.558 168.758 59.8921 166.459 55.6434 168.022L49.9405 170.12C45.6929 171.682 43.4724 176.514 44.9819 180.912L49.0105 192.655C50.9695 198.361 57.0251 201.344 62.5367 199.317Z" fill="#FCB28D"/>
<path d="M62.5367 199.317L64.5902 198.562C69.5891 196.723 72.2026 191.037 70.4268 185.861L66.0675 173.156C64.558 168.758 59.8921 166.459 55.6434 168.022L49.9405 170.12C45.6929 171.682 43.4724 176.514 44.9819 180.912L49.0105 192.655C50.9695 198.361 57.0251 201.344 62.5367 199.317Z" fill="#FCB28D"/>
<path d="M62.5367 199.317L64.5902 198.562C69.5891 196.723 72.2026 191.037 70.4268 185.861L66.0675 173.156C64.558 168.758 59.8921 166.459 55.6434 168.022L49.9405 170.12C45.6929 171.682 43.4724 176.514 44.9819 180.912L49.0105 192.655C50.9695 198.361 57.0251 201.344 62.5367 199.317Z" fill="#FCB28D"/>
<path d="M65.4037 180.768C65.6883 180.785 65.9822 180.745 66.2679 180.64C66.5537 180.535 66.8061 180.374 67.017 180.175" stroke="#D8654E" stroke-width="0.3678" stroke-miterlimit="10" stroke-linecap="round" stroke-linejoin="round"/>
<path d="M56.6609 183.984C56.9467 184.001 57.2394 183.961 57.5251 183.856C57.8109 183.751 58.0633 183.59 58.2742 183.391" stroke="#D8654E" stroke-width="0.3678" stroke-miterlimit="10" stroke-linecap="round" stroke-linejoin="round"/>
<path d="M62.7177 190.906C62.9723 191.193 63.2765 191.424 63.6107 191.59C63.9461 191.754 64.3102 191.853 64.6859 191.876C65.0615 191.899 65.4476 191.846 65.8244 191.708C66.2012 191.569 66.5331 191.358 66.8108 191.094C67.0885 190.831 67.3109 190.516 67.4711 190.17C67.6312 189.824 67.7257 189.446 67.7476 189.057" stroke="#D8654E" stroke-width="0.7357" stroke-miterlimit="10" stroke-linecap="round" stroke-linejoin="round"/>
<path d="M56.7818 177.697L54.6166 179.528" stroke="#845D42" stroke-width="1.1035" stroke-miterlimit="10" stroke-linecap="round" stroke-linejoin="round"/>
<path d="M66.5537 175.341L64.5924 174.922" stroke="#845D42" stroke-width="1.1035" stroke-miterlimit="10" stroke-linecap="round" stroke-linejoin="round"/>
<path d="M62.0803 182.983L62.7867 183.914C62.88 184.029 63.0264 184.087 63.1589 184.056L64.4864 183.782L65.157 183.638C65.1778 183.723 65.2031 183.825 65.2193 183.95C65.3161 184.548 65.2826 185.445 64.3838 185.971C64.2029 186.075 64.1407 186.312 64.2432 186.507C64.3343 186.669 64.5325 186.746 64.6996 186.684C64.7238 186.675 64.7364 186.661 64.7606 186.651C65.9879 185.93 66.1308 184.666 65.966 183.74C65.9153 183.461 65.8404 183.218 65.7563 183.026C65.7344 182.987 65.7125 182.949 65.6813 182.913C65.5938 182.816 65.4613 182.77 65.3276 182.801L64.756 182.918L63.8583 183.109L63.2384 183.244L62.6806 182.509C62.6668 182.496 60.762 179.749 60.7459 175.797C60.7447 175.583 60.5753 175.403 60.3679 175.404C60.1616 175.405 59.9876 175.581 59.9888 175.794C60.0026 180.021 61.995 182.866 62.0803 182.983Z" fill="url(#paint1_linear_77_2)"/>
<path d="M57.1069 182.79C56.7024 182.88 56.3037 182.613 56.2173 182.194L55.9384 180.838C55.852 180.42 56.1101 180.007 56.5146 179.917C56.9191 179.828 57.3178 180.095 57.4042 180.514L57.6831 181.869C57.7695 182.289 57.5114 182.701 57.1069 182.79Z" fill="#2D2620"/>
<path d="M66.0294 179.824C65.6249 179.914 65.2262 179.647 65.1398 179.228L64.8609 177.872C64.7745 177.454 65.0326 177.041 65.4371 176.951C65.8416 176.862 66.2403 177.129 66.3267 177.548L66.6056 178.903C66.692 179.322 66.4339 179.735 66.0294 179.824Z" fill="#2D2620"/>
<path d="M51.9143 192.106C51.8521 190.838 52.7947 189.757 54.0196 189.692C55.2446 189.628 56.2886 190.604 56.3508 191.872C56.413 193.14 55.4704 194.221 54.2455 194.286C53.0194 194.35 51.9765 193.374 51.9143 192.106Z" fill="#FC9B7E"/>
<path d="M68.5865 163.856C67.8098 165.093 66.8499 166.305 65.7068 167.43C65.4372 167.695 65.1617 167.942 64.8852 168.187L64.1846 166.483C63.0979 163.838 60.1836 162.559 57.5931 163.59L47.4203 167.637C45.4371 168.368 44.3942 170.603 45.0603 172.661C44.0347 172.358 43.1381 171.902 42.4502 171.343C42.6323 172.296 43.1381 173.132 43.8422 173.732C43.6383 173.884 43.4389 174.077 43.2465 174.336C42.5827 175.237 42.4364 176.443 42.804 177.509L46.4903 188.262C47.0308 189.838 48.742 190.634 50.247 189.988C51.6643 189.374 52.2866 187.637 51.775 186.145L49.3136 178.97C48.863 177.655 49.5256 176.215 50.7886 175.75L53.7466 174.659C54.2018 174.492 54.6869 174.475 55.1421 174.593C55.6203 175.058 56.1942 175.434 56.851 175.678C58.5335 176.306 60.3254 175.929 61.6275 174.853C61.0986 174.792 60.5558 174.687 60.0073 174.546L64.3298 172.648C64.5233 172.563 64.6927 172.445 64.8483 172.314C65.406 171.998 65.9338 171.603 66.4166 171.128C68.3848 169.19 69.1108 166.418 68.5865 163.856Z" fill="#2D2620"/>
<path d="M63.6601 163.206C61.5652 167.238 58.6405 170.264 55.6986 171.815C59.6085 172.801 63.8169 170.994 65.8116 167.154C67.358 164.176 67.1829 160.724 65.656 158C65.2158 159.716 64.559 161.476 63.6601 163.206Z" fill="#2D2620"/>
<path d="M49.4956 189.01C50.0211 190.543 49.2478 192.227 47.7682 192.771C46.2875 193.315 44.6615 192.514 44.136 190.982C43.6106 189.449 44.3838 187.766 45.8646 187.222C47.343 186.676 48.969 187.478 49.4956 189.01Z" fill="#FCB28D"/>
<path d="M47.8893 188.873C47.2901 188.258 46.3232 188.264 45.7309 188.885C45.1375 189.505 45.1432 190.506 45.7425 191.119C46.3417 191.734 47.3085 191.728 47.9008 191.107C48.4931 190.487 48.4885 189.487 47.8893 188.873Z" fill="url(#paint2_linear_77_2)"/>
<path d="M71.0294 265.55C71.0294 265.55 74.6063 309.593 82.0873 339.87" stroke="white" stroke-width="5.8854" stroke-miterlimit="10" stroke-linecap="round" stroke-linejoin="round"/>
<path d="M102.879 346.669L77.6473 345.218C77.7165 343.988 77.8202 342.011 77.872 341.133C77.9412 339.807 78.2754 339.885 78.2754 339.885C78.9679 339.73 78.7778 340.261 81.1712 340.59C83.5589 340.919 84.9037 338.804 85.7748 337.633C86.1839 337.083 86.8246 336.994 87.3904 337.054L95.057 342.524L101.616 343.187C102.642 344.411 102.862 345.761 102.879 346.669Z" fill="#1A2A40"/>
<path d="M77.5378 345.208L77.517 345.601L77.4583 346.685C77.4548 346.751 77.4698 346.811 77.4848 346.871V348.896H85.4429V347.767L101.745 348.709C102.956 348.507 103.014 347.077 103.006 346.679L77.5378 345.208Z" fill="#30A6B8"/>
<path d="M74.7654 265.224C74.5914 263.088 72.7834 261.513 70.7149 261.681C68.6511 261.861 67.1196 263.739 67.2925 265.875C67.4308 267.582 70.5847 305.781 77.2026 335.489L84.2757 332.672C77.9298 303.549 74.7989 265.633 74.7654 265.224Z" fill="#1A2A40"/>
<path d="M57.4698 264.378C57.4698 264.378 49.9692 307.888 49.6661 339.139" stroke="white" stroke-width="5.8854" stroke-miterlimit="10" stroke-linecap="round" stroke-linejoin="round"/>
<path d="M61.1607 265.06C61.5248 262.949 60.1685 260.945 58.1277 260.556C56.0892 260.18 54.1418 261.586 53.7776 263.696C53.4872 265.383 47.0318 303.134 46.035 333.604L53.5702 332.769C54.6845 302.936 61.0916 265.463 61.1607 265.06Z" fill="#1A2A40"/>
<path d="M64.3042 248.042L56.308 248.564L56.4047 250.154L64.401 249.632L64.3042 248.042Z" fill="#1A2A40"/>
<path d="M77.2867 248.893L74.0912 249.102L73.9933 247.513L77.2291 247.304C77.2521 247.836 77.2694 248.361 77.2867 248.893Z" fill="#1A2A40"/>
<path d="M70.1144 346.669L44.8827 345.218C44.9518 343.988 45.0555 342.011 45.1074 341.133C45.1765 339.807 45.5119 339.885 45.5119 339.885C46.2044 339.73 46.0131 340.261 48.4077 340.59C50.7954 340.919 52.1402 338.804 53.0113 337.633C53.4204 337.083 54.0611 336.994 54.6269 337.054L62.2935 342.524L68.8526 343.187C69.8782 344.411 70.0971 345.761 70.1144 346.669Z" fill="#1A2A40"/>
<path d="M44.7733 345.208L44.7525 345.601L44.6937 346.685C44.6903 346.751 44.7053 346.811 44.7191 346.871V348.896H52.6772V347.767L68.9794 348.709C70.1905 348.507 70.2481 347.077 70.2401 346.679L44.7733 345.208Z" fill="#30A6B8"/>
<path d="M224.497 91H95.5582V300.953H242.743V109.89L224.497 91Z" fill="white"/>
<path d="M224.498 109.89H242.743L224.498 91V109.89Z" fill="#F1F1F1"/>
<path d="M204.207 112.878H134.095V116.951H204.207V112.878Z" fill="#30A6B8"/>
<path d="M224.071 133.247H136.781V135.963H224.071V133.247Z" fill="#C2C2C2"/>
<path d="M224.071 140.716H136.781V143.432H224.071V140.716Z" fill="#C2C2C2"/>
<path d="M224.071 148.184H136.781V150.899H224.071V148.184Z" fill="#C2C2C2"/>
<path d="M224.072 155.652H114.23V158.368H224.072V155.652Z" fill="#C2C2C2"/>
<path d="M224.072 163.121H114.23V165.837H224.072V163.121Z" fill="#C2C2C2"/>
<path d="M224.071 178.059H136.781V180.774H224.071V178.059Z" fill="#C2C2C2"/>
<path d="M224.071 185.527H136.781V188.243H224.071V185.527Z" fill="#C2C2C2"/>
<path d="M224.071 192.996H136.781V195.712H224.071V192.996Z" fill="#C2C2C2"/>
<path d="M224.072 200.465H114.23V203.18H224.072V200.465Z" fill="#C2C2C2"/>
<path d="M224.072 207.932H114.23V210.648H224.072V207.932Z" fill="#C2C2C2"/>
<path d="M224.072 215.401H114.23V218.117H224.072V215.401Z" fill="#C2C2C2"/>
<path d="M224.072 222.87H114.23V225.585H224.072V222.87Z" fill="#C2C2C2"/>
<path d="M199.435 230.339H114.23V233.054H199.435V230.339Z" fill="#C2C2C2"/>
<path d="M199.435 237.808H114.23V240.523H199.435V237.808Z" fill="#C2C2C2"/>
<path d="M130.982 133.437H114.116V150.9H130.982V133.437Z" fill="#D1D1D1"/>
<path d="M111.812 136.67L122.432 147.666" stroke="#F5705F" stroke-width="3.4145" stroke-miterlimit="10" stroke-linecap="round" stroke-linejoin="round"/>
<path d="M129.503 137.783L122.432 147.666" stroke="#F5705F" stroke-width="3.4145" stroke-miterlimit="10" stroke-linecap="round" stroke-linejoin="round"/>
<path d="M130.982 178.154H114.116V195.617H130.982V178.154Z" fill="#D1D1D1"/>
<path d="M111.812 181.387L122.432 192.383" stroke="#F5705F" stroke-width="3.4145" stroke-miterlimit="10" stroke-linecap="round" stroke-linejoin="round"/>
<path d="M129.503 182.501L122.432 192.383" stroke="#F5705F" stroke-width="3.4145" stroke-miterlimit="10" stroke-linecap="round" stroke-linejoin="round"/>
<path d="M53.0505 212.778C62.8213 229.513 92.0585 241.344 105.054 225.971" stroke="#FCB28D" stroke-width="5.1291" stroke-miterlimit="10" stroke-linecap="round" stroke-linejoin="round"/>
<path d="M102.078 234.536C101.409 234.921 100.715 235.277 99.9948 235.588C98.9127 236.089 97.7696 236.501 96.5862 236.835C95.2909 237.21 93.9369 237.487 92.5472 237.658C91.5896 237.793 90.6124 237.868 89.6076 237.902C88.4287 237.945 87.2153 237.922 85.9777 237.828C85.7011 237.816 85.4315 237.788 85.1584 237.768C84.5361 237.71 83.9092 237.639 83.2823 237.55C82.1692 237.392 81.041 237.187 79.9187 236.927C79.0751 236.739 78.2339 236.521 77.3927 236.285C76.3314 235.977 75.2689 235.63 74.2134 235.248C73.4137 234.964 72.6139 234.641 71.8246 234.314C70.8105 233.883 69.8114 233.423 68.8193 232.925L68.7582 232.894C68.0103 232.52 67.2774 232.133 66.5595 231.714C65.5777 231.174 64.6305 230.601 63.6983 229.998C62.9688 229.524 62.2532 229.04 61.5572 228.535C60.6319 227.876 59.7319 227.181 58.8699 226.466C58.1808 225.905 57.5102 225.325 56.8579 224.726C55.9799 223.926 55.1433 223.097 54.3551 222.244C53.7017 221.565 53.0863 220.867 52.5055 220.156C51.6931 219.174 50.9418 218.162 50.2619 217.14C49.8333 216.525 49.4392 215.899 49.075 215.268C48.9241 215.006 48.795 214.738 48.6936 214.453C48.3721 213.551 48.3099 212.574 48.5369 211.624C48.8284 210.376 49.5855 209.321 50.6503 208.656C50.9545 208.467 51.2748 208.306 51.6148 208.203C52.5251 207.888 53.5173 207.88 54.4472 208.189C54.6604 208.257 54.8736 208.344 55.0799 208.448C55.8888 208.854 56.5641 209.484 57.0285 210.283C57.0446 210.31 57.0677 210.341 57.0826 210.369C57.5747 211.21 58.1267 212.043 58.7478 212.852C59.4576 213.812 60.2458 214.744 61.1066 215.642C61.7139 216.297 62.3627 216.925 63.0449 217.541C63.8734 218.306 64.7434 219.045 65.6653 219.751C66.351 220.28 67.055 220.789 67.7776 221.277C68.6948 221.893 69.6432 222.485 70.6169 223.042C71.3383 223.452 72.0758 223.851 72.8306 224.229L72.8767 224.252C73.8758 224.753 74.8864 225.21 75.8924 225.617C76.6967 225.952 77.4999 226.246 78.2996 226.511C79.3805 226.878 80.4614 227.185 81.5342 227.43C82.4054 227.642 83.2639 227.819 84.1189 227.945C84.7424 228.043 85.3531 228.126 85.9685 228.181C86.4997 228.232 87.0505 228.264 87.6186 228.276C88.537 228.307 89.4958 228.29 90.4845 228.19C91.8062 228.083 93.1648 227.837 94.5165 227.403C95.6919 227.046 96.8489 226.544 97.9551 225.869L98.0058 225.983L99.8507 229.852L101.275 232.848L102.078 234.536Z" fill="#268391"/>
<path d="M114.458 222.283C114.015 220.762 112.463 219.903 110.996 220.368L104.037 222.575C102.45 223.079 101.645 224.903 102.314 226.474L102.662 227.291C103.28 228.74 104.915 229.395 106.314 228.755L112.925 225.732C114.204 225.146 114.861 223.668 114.458 222.283Z" fill="#FCB28D"/>
<path d="M439.132 346.668H309.947V307.577H439.132C445.806 307.577 451.218 313.18 451.218 320.09V334.154C451.218 341.066 445.807 346.668 439.132 346.668Z" fill="#F1F1F1"/>
<path d="M343.149 313.357H316.559V340.887H343.149V313.357Z" fill="#F5705F"/>
<path d="M376.688 313.357H350.098V340.887H376.688V313.357Z" fill="#ED2A11"/>
<path d="M410.227 313.357H383.637V340.887H410.227V313.357Z" fill="#C4230E"/>
<path d="M416.685 331.769V198.017H454.442V331.769C454.442 338.681 449.031 344.282 442.356 344.282H428.772C422.096 344.282 416.685 338.681 416.685 331.769Z" fill="#F1F1F1"/>
<path d="M448.858 232.393V204.863H422.269V232.393H448.858Z" fill="#37BFD4"/>
<path d="M448.858 267.118V239.588H422.269V267.118H448.858Z" fill="#30A6B8"/>
<path d="M448.858 301.842V274.312H422.268V301.842H448.858Z" fill="#268391"/>
<path d="M425.047 343.881L330.567 252.663L356.316 224.074L450.796 315.293C455.677 320.005 455.945 327.924 451.393 332.979L442.128 343.265C437.576 348.319 429.929 348.594 425.047 343.881Z" fill="white"/>
<path d="M376.81 251.761L357.363 232.986L339.229 253.121L358.676 271.896L376.81 251.761Z" fill="#FDC87C"/>
<path d="M401.338 275.445L381.891 256.67L363.757 276.805L383.204 295.58L401.338 275.445Z" fill="#FDAC37"/>
<path d="M425.872 299.128L406.424 280.353L388.29 300.488L407.738 319.263L425.872 299.128Z" fill="#FD9B2B"/>
<path d="M420.689 208.71C416.917 227.871 393.218 249.185 375.989 239.225" stroke="#FCB28D" stroke-width="5.1291" stroke-miterlimit="10" stroke-linecap="round" stroke-linejoin="round"/>
<path d="M364.212 237.6C364.298 236.013 365.612 234.802 367.144 234.897L374.409 235.351C376.066 235.455 377.263 237.032 376.968 238.722L376.814 239.602C376.542 241.159 375.102 242.194 373.597 241.912L366.485 240.579C365.109 240.322 364.135 239.043 364.212 237.6Z" fill="#FCB28D"/>
<path d="M381.572 246.258C382.328 246.388 383.097 246.481 383.876 246.524C385.057 246.619 386.268 246.61 387.491 246.513C388.833 246.415 390.198 246.205 391.562 245.883C392.508 245.677 393.453 245.408 394.41 245.09C395.533 244.72 396.669 244.276 397.804 243.758C398.061 243.651 398.307 243.531 398.557 243.417C399.124 243.145 399.692 242.861 400.253 242.559C401.25 242.024 402.247 241.438 403.219 240.803C403.953 240.332 404.675 239.836 405.39 239.32C406.29 238.662 407.177 237.965 408.048 237.237C408.709 236.692 409.358 236.108 409.995 235.526C410.81 234.768 411.601 233.986 412.375 233.172L412.422 233.122C413.005 232.509 413.57 231.89 414.11 231.246C414.859 230.396 415.565 229.527 416.248 228.635C416.782 227.936 417.297 227.229 417.789 226.512C418.447 225.57 419.07 224.602 419.649 223.63C420.117 222.863 420.561 222.084 420.98 221.291C421.547 220.232 422.067 219.159 422.532 218.082C422.928 217.216 423.28 216.344 423.597 215.473C424.043 214.265 424.423 213.052 424.732 211.85C424.936 211.123 425.104 210.395 425.243 209.674C425.3 209.376 425.334 209.078 425.337 208.773C425.348 207.812 425.088 206.87 424.566 206.056C423.886 204.982 422.832 204.252 421.613 203.995C421.265 203.924 420.911 203.883 420.557 203.904C419.599 203.925 418.659 204.261 417.885 204.877C417.706 205.015 417.534 205.171 417.373 205.34C416.743 206.003 416.312 206.832 416.133 207.746C416.128 207.777 416.116 207.814 416.11 207.845C415.92 208.809 415.67 209.785 415.348 210.762C414.99 211.914 414.55 213.065 414.032 214.212C413.672 215.04 413.265 215.857 412.822 216.673C412.29 217.682 411.711 218.681 411.07 219.666C410.596 220.402 410.099 221.127 409.577 221.839C408.913 222.739 408.212 223.625 407.475 224.488C406.929 225.125 406.364 225.757 405.775 226.376L405.739 226.413C404.96 227.233 404.157 228.016 403.341 228.748C402.693 229.343 402.031 229.901 401.364 230.428C400.464 231.15 399.547 231.814 398.616 232.418C397.864 232.92 397.112 233.387 396.348 233.802C395.792 234.111 395.244 234.401 394.681 234.666C394.197 234.9 393.689 235.122 393.158 235.33C392.304 235.679 391.395 235.997 390.432 236.247C389.151 236.605 387.793 236.846 386.379 236.908C385.156 236.98 383.904 236.91 382.642 236.66L382.63 236.784L382.147 241.07L381.778 244.388L381.572 246.258Z" fill="#FDAC37"/>
<path d="M439.859 270.749C440.155 270.676 440.449 270.59 440.743 270.491C446.733 268.482 450.016 261.824 448.074 255.623C443.595 241.314 440.866 226.522 439.963 211.661C439.568 205.155 434.153 200.212 427.869 200.621C421.583 201.027 416.811 206.637 417.206 213.144C418.229 229.975 421.317 246.716 426.384 262.902C428.229 268.799 434.133 272.161 439.859 270.749Z" fill="#1A2A40"/>
<path d="M447.958 252.269C444.056 238.996 441.63 225.33 440.804 211.605C440.594 208.227 439.132 205.136 436.676 202.893C435.81 202.103 434.857 201.453 433.839 200.959C431.979 200.035 429.913 199.615 427.806 199.75C427.103 199.796 426.402 199.908 425.722 200.077C424.115 200.471 422.65 201.182 421.381 202.133C418.074 204.616 416.088 208.734 416.359 213.201C417.096 225.331 418.907 237.42 421.749 249.279C421.871 249.796 421.997 250.305 422.124 250.82C422.731 253.282 423.385 255.728 424.08 258.163L447.958 252.269Z" fill="#FDC87C"/>
<path d="M435.791 207.484C454.088 212.337 473.47 237.903 463.006 255.223" stroke="#FCB28D" stroke-width="5.1291" stroke-miterlimit="10" stroke-linecap="round" stroke-linejoin="round"/>
<path d="M470.068 249.8C470.232 249.025 470.359 248.235 470.439 247.431C470.59 246.214 470.641 244.961 470.607 243.693C470.58 242.3 470.445 240.878 470.202 239.451C470.05 238.464 469.837 237.472 469.578 236.467C469.277 235.286 468.906 234.091 468.463 232.891C468.372 232.62 468.268 232.361 468.171 232.095C467.937 231.495 467.692 230.893 467.428 230.298C466.96 229.241 466.445 228.18 465.881 227.143C465.463 226.362 465.021 225.591 464.559 224.825C463.967 223.861 463.339 222.909 462.681 221.974C462.188 221.263 461.658 220.564 461.128 219.875C460.438 218.995 459.722 218.137 458.977 217.298L458.931 217.247C458.368 216.613 457.799 215.999 457.204 215.408C456.421 214.591 455.619 213.818 454.791 213.067C454.143 212.48 453.488 211.911 452.82 211.367C451.943 210.639 451.04 209.949 450.131 209.301C449.414 208.779 448.684 208.282 447.942 207.808C446.947 207.169 445.939 206.578 444.923 206.044C444.107 205.593 443.283 205.183 442.459 204.812C441.316 204.291 440.165 203.838 439.021 203.459C438.33 203.212 437.636 203.002 436.947 202.823C436.663 202.75 436.376 202.699 436.083 202.68C435.155 202.622 434.235 202.843 433.422 203.342C432.352 203.992 431.596 205.046 431.287 206.294C431.201 206.651 431.144 207.015 431.148 207.381C431.12 208.374 431.398 209.362 431.952 210.193C432.076 210.385 432.219 210.571 432.374 210.746C432.982 211.43 433.76 211.917 434.633 212.147C434.663 212.155 434.698 212.169 434.728 212.176C435.647 212.421 436.577 212.729 437.504 213.11C438.596 213.536 439.686 214.049 440.766 214.642C441.547 215.055 442.315 215.517 443.081 216.015C444.028 216.616 444.963 217.265 445.883 217.976C446.569 218.502 447.243 219.053 447.904 219.628C448.738 220.36 449.56 221.128 450.355 221.933C450.942 222.53 451.524 223.145 452.093 223.785L452.127 223.824C452.878 224.67 453.594 225.54 454.26 226.419C454.802 227.12 455.308 227.831 455.782 228.548C456.433 229.514 457.029 230.496 457.566 231.489C458.014 232.29 458.426 233.091 458.789 233.902C459.058 234.492 459.312 235.074 459.539 235.668C459.741 236.18 459.928 236.716 460.104 237.276C460.397 238.177 460.659 239.133 460.853 240.141C461.135 241.482 461.3 242.899 461.288 244.366C461.297 245.633 461.167 246.926 460.863 248.217L460.982 248.235L465.093 248.947L468.275 249.495L470.068 249.8Z" fill="#FDAC37"/>
<path d="M423.042 206.434L422.437 201.427C422.073 201.644 421.719 201.876 421.382 202.129L425.792 233.459L432.388 206.806L427.165 204.144L423.042 206.434Z" fill="white"/>
<path d="M426.312 207.507C426.236 207.177 426.432 206.848 426.75 206.769C427.068 206.691 427.386 206.895 427.462 207.223C427.538 207.552 427.341 207.883 427.024 207.96C426.707 208.039 426.388 207.836 426.312 207.507Z" fill="#3E89C9"/>
<path d="M426.302 211.09C426.226 210.761 426.423 210.432 426.74 210.353C427.058 210.274 427.376 210.477 427.452 210.806C427.528 211.136 427.332 211.465 427.014 211.544C426.696 211.622 426.377 211.42 426.302 211.09Z" fill="#3E89C9"/>
<path d="M426.172 215.001C426.096 214.672 426.293 214.343 426.609 214.264C426.928 214.185 427.246 214.389 427.322 214.717C427.398 215.047 427.201 215.376 426.884 215.455C426.566 215.533 426.248 215.331 426.172 215.001Z" fill="#3E89C9"/>
<path d="M464.892 266.228C463.423 266.692 461.872 265.831 461.431 264.31L459.34 257.091C458.862 255.446 459.881 253.739 461.515 253.444L462.364 253.29C463.871 253.018 465.305 254.062 465.568 255.621L466.809 262.992C467.051 264.418 466.227 265.804 464.892 266.228Z" fill="#FCB28D"/>
<path d="M427.807 199.75C427.104 199.793 426.403 199.905 425.722 200.073C424.543 200.364 423.442 200.827 422.437 201.426L423.042 206.434L427.165 204.143L432.389 206.805L433.836 200.956C431.979 200.033 429.916 199.613 427.807 199.75Z" fill="#E5E5E5"/>
<path d="M426.115 190.175C424.722 190.364 423.741 191.687 423.924 193.128L425.033 201.883C425.216 203.326 426.493 204.341 427.885 204.151C429.277 203.963 430.259 202.64 430.076 201.198L428.967 192.445C428.785 191.002 427.507 189.987 426.115 190.175Z" fill="url(#paint3_linear_77_2)"/>
<path d="M422.831 198.947L420.655 198.82C415.358 198.508 411.309 193.811 411.608 188.328L412.346 174.866C412.6 170.206 416.456 166.643 420.957 166.907L427 167.262C431.501 167.527 434.942 171.518 434.687 176.178L434.006 188.62C433.675 194.668 428.671 199.291 422.831 198.947Z" fill="#FCB28D"/>
<path d="M422.831 198.947L420.655 198.82C415.358 198.508 411.309 193.811 411.608 188.328L412.346 174.866C412.6 170.206 416.456 166.643 420.957 166.907L427 167.262C431.501 167.527 434.942 171.518 434.687 176.178L434.006 188.62C433.675 194.668 428.671 199.291 422.831 198.947Z" fill="#FCB28D"/>
<path d="M422.831 198.947L420.655 198.82C415.358 198.508 411.309 193.811 411.608 188.328L412.346 174.866C412.6 170.206 416.456 166.643 420.957 166.907L427 167.262C431.501 167.527 434.942 171.518 434.687 176.178L434.006 188.62C433.675 194.668 428.671 199.291 422.831 198.947Z" fill="#FCB28D"/>
<path d="M415.048 181.979C414.78 182.078 414.487 182.126 414.184 182.108C413.881 182.09 413.595 182.01 413.339 181.879" stroke="#D8654E" stroke-width="0.3678" stroke-miterlimit="10" stroke-linecap="round" stroke-linejoin="round"/>
<path d="M424.311 182.523C424.042 182.622 423.749 182.67 423.446 182.652C423.143 182.634 422.858 182.553 422.602 182.423" stroke="#D8654E" stroke-width="0.3678" stroke-miterlimit="10" stroke-linecap="round" stroke-linejoin="round"/>
<path d="M420.376 190.927C420.211 191.277 419.981 191.587 419.705 191.842C419.428 192.098 419.104 192.299 418.75 192.431C418.397 192.562 418.011 192.623 417.612 192.6C417.213 192.576 416.836 192.47 416.499 192.298C416.161 192.126 415.862 191.889 415.615 191.603C415.368 191.316 415.174 190.981 415.047 190.615" stroke="#D8654E" stroke-width="0.7357" stroke-miterlimit="10" stroke-linecap="round" stroke-linejoin="round"/>
<path d="M422.49 176.524L425.064 177.653" stroke="#845D42" stroke-width="1.1035" stroke-miterlimit="10" stroke-linecap="round" stroke-linejoin="round"/>
<path d="M412.473 177.105L414.24 176.133" stroke="#845D42" stroke-width="1.1035" stroke-miterlimit="10" stroke-linecap="round" stroke-linejoin="round"/>
<path d="M424.73 187.945C424.668 187.65 424.532 187.39 424.382 187.142C424.698 190.037 421.325 190.336 420.45 188.949C420.273 188.669 420.175 188.368 420.055 188.218C419.738 187.782 419.124 187.569 418.495 187.732C418.143 187.823 417.856 188.021 417.652 188.267C417.476 187.998 417.213 187.769 416.873 187.637C416.266 187.401 415.632 187.541 415.271 187.937C415.136 188.072 415.004 188.36 414.798 188.617C413.777 189.893 410.458 189.202 411.089 186.361C410.912 186.589 410.749 186.833 410.655 187.118C409.981 189.173 410.884 190.868 412.843 191.629C414.637 192.326 416.727 191.691 417.543 190.273C418.199 191.777 420.206 192.652 422.065 192.17C424.094 191.644 425.176 190.066 424.73 187.945Z" fill="#2D2620"/>
<path d="M418.838 183.139L418.413 184.239C418.354 184.376 418.23 184.474 418.094 184.484L416.746 184.607L416.063 184.663C416.067 184.751 416.069 184.856 416.089 184.98C416.158 185.582 416.433 186.433 417.439 186.677C417.641 186.723 417.765 186.933 417.719 187.15C417.675 187.332 417.507 187.463 417.329 187.452C417.303 187.451 417.287 187.441 417.262 187.439C415.888 187.104 415.409 185.932 415.315 184.995C415.289 184.713 415.294 184.457 415.322 184.249C415.333 184.206 415.344 184.161 415.364 184.12C415.421 184 415.537 183.919 415.673 183.91L416.253 183.856L417.166 183.777L417.798 183.726L418.134 182.857C418.143 182.841 419.227 179.652 418.17 175.853C418.113 175.648 418.227 175.426 418.426 175.366C418.624 175.308 418.838 175.426 418.896 175.631C420.03 179.692 418.889 183.001 418.838 183.139Z" fill="url(#paint4_linear_77_2)"/>
<path d="M423.56 181.508C423.973 181.476 424.283 181.103 424.252 180.676L424.153 179.295C424.122 178.868 423.762 178.547 423.349 178.579C422.937 178.611 422.627 178.983 422.658 179.41L422.757 180.792C422.787 181.219 423.147 181.54 423.56 181.508Z" fill="#2D2620"/>
<path d="M414.192 181.255C414.604 181.223 414.914 180.85 414.883 180.423L414.784 179.042C414.753 178.614 414.393 178.294 413.981 178.326C413.568 178.358 413.258 178.73 413.29 179.157L413.389 180.539C413.42 180.966 413.779 181.287 414.192 181.255Z" fill="#2D2620"/>
<path d="M431.07 188.938C430.786 187.702 429.588 186.94 428.394 187.234C427.202 187.529 426.464 188.769 426.749 190.005C427.034 191.241 428.231 192.003 429.425 191.709C430.618 191.414 431.355 190.174 431.07 188.938Z" fill="#FC9B7E"/>
<path d="M407.406 166.674C408.487 167.636 409.737 168.521 411.139 169.268C411.47 169.444 411.802 169.601 412.133 169.755L412.342 167.915C412.667 165.061 415.117 162.985 417.884 163.221L428.745 164.147C430.847 164.271 432.453 166.114 432.372 168.282C433.275 167.693 434.011 166.995 434.52 166.258C434.604 167.226 434.346 168.175 433.832 168.956C434.069 169.042 434.313 169.17 434.568 169.362C435.448 170.034 435.916 171.148 435.852 172.279L435.231 183.671C435.14 185.341 433.714 186.602 432.093 186.421C430.567 186.243 429.498 184.756 429.584 183.177L430 175.574C430.076 174.181 429.049 172.993 427.71 172.913L424.576 172.727C424.094 172.698 423.623 172.822 423.218 173.068C422.886 173.654 422.437 174.181 421.872 174.607C420.427 175.699 418.605 175.858 417.063 175.203C417.554 174.991 418.048 174.733 418.535 174.437L413.871 173.872C413.662 173.847 413.468 173.782 413.284 173.702C412.663 173.561 412.05 173.336 411.457 173.02C409.047 171.735 407.598 169.284 407.406 166.674Z" fill="#2D2620"/>
<path d="M432.552 185.264C432.463 186.888 433.663 188.279 435.23 188.371C436.798 188.462 438.142 187.22 438.231 185.598C438.32 183.974 437.12 182.583 435.552 182.491C433.984 182.398 432.641 183.64 432.552 185.264Z" fill="#FCB28D"/>
<path d="M434.056 184.665C434.464 183.901 435.393 183.626 436.13 184.048C436.868 184.472 437.134 185.433 436.726 186.196C436.318 186.959 435.389 187.235 434.652 186.812C433.914 186.39 433.648 185.428 434.056 184.665Z" fill="url(#paint5_linear_77_2)"/>
<path d="M433.145 265.55C433.145 265.55 429.568 309.593 422.087 339.87" stroke="white" stroke-width="5.8854" stroke-miterlimit="10" stroke-linecap="round" stroke-linejoin="round"/>
<path d="M401.295 346.669L426.527 345.218C426.457 343.988 426.354 342.011 426.302 341.133C426.233 339.807 425.898 339.885 425.898 339.885C425.206 339.73 425.396 340.261 423.003 340.59C420.615 340.919 419.27 338.804 418.399 337.633C417.99 337.083 417.349 336.994 416.783 337.054L409.117 342.524L402.558 343.187C401.531 344.411 401.312 345.761 401.295 346.669Z" fill="#1A2A40"/>
<path d="M426.636 345.208L426.657 345.601L426.715 346.685C426.719 346.751 426.704 346.811 426.69 346.871V348.896H418.732V347.767L402.43 348.709C401.219 348.507 401.161 347.077 401.169 346.679L426.636 345.208Z" fill="#FD9B2B"/>
<path d="M429.407 265.224C429.581 263.088 431.39 261.513 433.458 261.681C435.522 261.861 437.053 263.739 436.88 265.875C436.742 267.582 433.588 305.781 426.97 335.489L419.897 332.672C426.243 303.549 429.375 265.633 429.407 265.224Z" fill="#1A2A40"/>
<path d="M444.925 264.269C444.925 264.269 452.349 307.793 452.598 339.045" stroke="white" stroke-width="5.8854" stroke-miterlimit="10" stroke-linecap="round" stroke-linejoin="round"/>
<path d="M432.323 346.669L457.555 345.218C457.485 343.988 457.382 342.011 457.33 341.133C457.261 339.807 456.927 339.885 456.927 339.885C456.234 339.73 456.425 340.261 454.031 340.59C451.643 340.919 450.298 338.804 449.427 337.633C449.018 337.083 448.377 336.994 447.812 337.054L440.145 342.524L433.586 343.187C432.56 344.411 432.34 345.761 432.323 346.669Z" fill="#1A2A40"/>
<path d="M457.664 345.208L457.685 345.601L457.744 346.685C457.747 346.751 457.732 346.811 457.718 346.871V348.896H449.76V347.767L433.458 348.709C432.247 348.507 432.189 347.077 432.197 346.679L457.664 345.208Z" fill="#FD9B2B"/>
<path d="M441.232 264.944C440.871 262.833 442.231 260.831 444.271 260.446C446.311 260.074 448.255 261.483 448.616 263.595C448.904 265.282 455.292 303.046 456.236 333.517L448.703 332.668C447.642 302.831 441.301 265.346 441.232 264.944Z" fill="#1A2A40"/>
<path d="M178.128 203.69C194.452 213.526 225.589 209.393 229.873 189.451" stroke="#FCB28D" stroke-width="5.1291" stroke-miterlimit="10" stroke-linecap="round" stroke-linejoin="round"/>
<path d="M236.538 179.267C235.338 178.277 233.589 178.487 232.639 179.734L228.131 185.65C227.103 186.999 227.444 188.974 228.859 189.871L229.594 190.338C230.899 191.163 232.603 190.74 233.4 189.389L237.172 183.006C237.904 181.771 237.631 180.169 236.538 179.267Z" fill="#FCB28D"/>
<path d="M231.228 198.445C230.819 199.117 230.374 199.772 229.887 200.403C229.169 201.38 228.357 202.308 227.473 203.189C226.51 204.161 225.449 205.076 224.31 205.916C223.532 206.509 222.709 207.062 221.843 207.589C220.828 208.212 219.752 208.794 218.624 209.326C218.375 209.452 218.126 209.562 217.877 209.68C217.303 209.938 216.721 210.187 216.13 210.42C215.081 210.834 213.995 211.215 212.89 211.543C212.061 211.796 211.224 212.024 210.377 212.234C209.303 212.49 208.209 212.713 207.106 212.902C206.273 213.05 205.422 213.163 204.577 213.268C203.488 213.393 202.398 213.485 201.296 213.541L201.228 213.545C200.399 213.588 199.576 213.612 198.753 213.601C197.642 213.614 196.545 213.582 195.447 213.515C194.587 213.462 193.735 213.392 192.89 213.294C191.772 213.176 190.661 213.013 189.573 212.813C188.709 212.664 187.852 212.488 187.001 212.286C185.859 212.019 184.742 211.707 183.655 211.349C182.768 211.079 181.905 210.771 181.066 210.436C179.898 209.976 178.77 209.463 177.7 208.902C177.039 208.576 176.402 208.221 175.79 207.849C175.537 207.695 175.299 207.522 175.078 207.323C174.377 206.69 173.872 205.864 173.631 204.919C173.308 203.679 173.484 202.377 174.11 201.264C174.29 200.948 174.496 200.647 174.747 200.389C175.401 199.661 176.267 199.16 177.226 198.97C177.445 198.923 177.672 198.895 177.901 198.883C178.799 198.838 179.684 199.056 180.462 199.526C180.488 199.543 180.523 199.558 180.549 199.574C181.371 200.068 182.241 200.525 183.161 200.925C184.228 201.416 185.351 201.842 186.523 202.204C187.36 202.478 188.219 202.707 189.103 202.907C190.185 203.168 191.29 203.384 192.427 203.545C193.272 203.67 194.126 203.766 194.987 203.837C196.077 203.921 197.183 203.97 198.295 203.975C199.118 203.976 199.95 203.961 200.788 203.918L200.839 203.915C201.948 203.859 203.047 203.759 204.117 203.616C204.978 203.511 205.82 203.37 206.644 203.205C207.763 202.991 208.853 202.723 209.908 202.406C210.771 202.16 211.606 201.888 212.414 201.574C213.006 201.351 213.58 201.12 214.146 200.862C214.636 200.644 215.134 200.399 215.638 200.127C216.459 199.699 217.292 199.207 218.114 198.63C219.223 197.88 220.302 196.989 221.287 195.937C222.152 195.04 222.936 194.025 223.595 192.884L223.692 192.958L227.103 195.437L229.741 197.359L231.228 198.445Z" fill="#ED2A11"/>
<path d="M171.843 269.674C171.54 269.641 171.238 269.596 170.934 269.536C164.743 268.348 160.654 262.189 161.803 255.779C164.451 240.989 165.304 225.956 164.337 211.099C163.913 204.594 168.664 198.966 174.945 198.529C181.229 198.087 186.664 203.007 187.087 209.512C188.181 226.338 187.218 243.353 184.222 260.082C183.131 266.178 177.696 270.305 171.843 269.674Z" fill="#1A2A40"/>
<path d="M161.498 252.438C163.703 238.752 164.397 224.878 163.496 211.156C163.28 207.778 164.343 204.516 166.497 201.963C167.257 201.064 168.12 200.29 169.066 199.664C170.795 198.498 172.791 197.805 174.897 197.655C175.599 197.605 176.309 197.623 177.004 197.699C178.647 197.873 180.188 198.383 181.566 199.155C185.156 201.172 187.641 204.989 187.932 209.455C188.723 221.581 188.441 233.812 187.11 245.951C187.053 246.48 186.992 247.002 186.93 247.53C186.638 250.052 186.295 252.564 185.911 255.072L161.498 252.438Z" fill="#F5705F"/>
<path d="M180.458 203.643L180.431 198.596C180.819 198.762 181.198 198.946 181.565 199.151L181.118 230.809L171.237 205.267L176.083 201.925L180.458 203.643Z" fill="white"/>
<path d="M177.35 205.147C177.384 204.81 177.149 204.51 176.824 204.474C176.499 204.439 176.209 204.683 176.174 205.019C176.141 205.355 176.376 205.656 176.701 205.691C177.026 205.727 177.317 205.483 177.35 205.147Z" fill="#3E89C9"/>
<path d="M177.81 208.698C177.844 208.362 177.609 208.061 177.284 208.025C176.959 207.991 176.668 208.234 176.634 208.571C176.6 208.907 176.835 209.208 177.16 209.242C177.485 209.279 177.777 209.035 177.81 208.698Z" fill="#3E89C9"/>
<path d="M178.429 212.559C178.462 212.223 178.227 211.922 177.902 211.887C177.577 211.853 177.287 212.096 177.252 212.433C177.219 212.769 177.454 213.07 177.779 213.105C178.105 213.139 178.396 212.895 178.429 212.559Z" fill="#3E89C9"/>
<path d="M174.896 197.656C175.599 197.605 176.308 197.622 177.004 197.697C178.209 197.827 179.359 198.138 180.431 198.596L180.458 203.643L176.083 201.926L171.237 205.268L169.069 199.663C170.795 198.497 172.79 197.803 174.896 197.656Z" fill="#E5E5E5"/>
<path d="M175.374 187.935C176.779 187.935 177.917 189.115 177.916 190.569L177.914 199.398C177.914 200.853 176.774 202.031 175.37 202.03C173.965 202.03 172.826 200.85 172.828 199.396L172.83 190.567C172.831 189.114 173.969 187.935 175.374 187.935Z" fill="url(#paint6_linear_77_2)"/>
<path d="M179.217 265.55C179.217 265.55 182.794 309.593 190.275 339.87" stroke="white" stroke-width="5.8854" stroke-miterlimit="10" stroke-linecap="round" stroke-linejoin="round"/>
<path d="M211.067 346.669L185.835 345.218C185.904 343.988 186.008 342.011 186.06 341.133C186.129 339.807 186.463 339.885 186.463 339.885C187.156 339.73 186.966 340.261 189.359 340.59C191.748 340.919 193.091 338.804 193.963 337.633C194.372 337.083 195.012 336.994 195.578 337.054L203.245 342.524L209.804 343.187C210.829 344.411 211.05 345.761 211.067 346.669Z" fill="#1A2A40"/>
<path d="M185.726 345.208L185.705 345.601L185.646 346.685C185.643 346.751 185.658 346.811 185.671 346.871V348.896H193.63V347.767L209.932 348.709C211.143 348.507 211.201 347.077 211.192 346.679L185.726 345.208Z" fill="#ED2A11"/>
<path d="M182.953 265.224C182.779 263.088 180.97 261.513 178.903 261.681C176.839 261.861 175.307 263.739 175.481 265.875C175.62 267.582 178.774 305.781 185.392 335.489L192.465 332.672C186.118 303.549 182.987 265.633 182.953 265.224Z" fill="#1A2A40"/>
<path d="M167.437 264.269C167.437 264.269 160.012 307.793 159.763 339.045" stroke="white" stroke-width="5.8854" stroke-miterlimit="10" stroke-linecap="round" stroke-linejoin="round"/>
<path d="M180.038 346.669L154.806 345.218C154.875 343.988 154.979 342.011 155.031 341.133C155.1 339.807 155.434 339.885 155.434 339.885C156.126 339.73 155.936 340.261 158.33 340.59C160.717 340.919 162.062 338.804 162.933 337.633C163.342 337.083 163.983 336.994 164.549 337.054L172.216 342.524L178.775 343.187C179.801 344.411 180.02 345.761 180.038 346.669Z" fill="#1A2A40"/>
<path d="M154.696 345.208L154.676 345.601L154.617 346.685C154.614 346.751 154.628 346.811 154.643 346.871V348.896H162.602V347.767L178.904 348.709C180.115 348.507 180.172 347.077 180.164 346.679L154.696 345.208Z" fill="#ED2A11"/>
<path d="M171.129 264.944C171.49 262.832 170.13 260.83 168.089 260.446C166.049 260.074 164.104 261.483 163.745 263.595C163.457 265.282 157.068 303.045 156.124 333.517L163.658 332.667C164.718 302.831 171.061 265.346 171.129 264.944Z" fill="#1A2A40"/>
<path d="M210.358 258.643V260.786C210.358 264.829 213.524 268.107 217.429 268.107H224.073V258.643H210.358Z" fill="#555457"/>
<path d="M224.074 258.643V268.107H230.719C234.624 268.107 237.79 264.829 237.79 260.786V258.643H224.074Z" fill="#414042"/>
<path d="M224.074 236.352V259.511H236.74C241.391 259.511 245.161 255.607 245.161 250.792V236.352H224.074Z" fill="#808285"/>
<path d="M202.987 236.352V250.792C202.987 255.607 206.757 259.511 211.408 259.511H224.073V236.352H202.987Z" fill="#939598"/>
<path d="M203.2 238.774C202.416 238.774 201.78 239.431 201.78 240.244C201.78 241.055 202.415 241.713 203.2 241.713H224.075V238.775L203.2 238.774Z" fill="#6D6E71"/>
<path d="M244.948 238.774H224.073V241.712H244.948C245.732 241.712 246.368 241.055 246.368 240.242C246.368 239.432 245.732 238.774 244.948 238.774Z" fill="#58595B"/>
<path d="M203.2 244.407C202.416 244.407 201.78 245.065 201.78 245.877C201.78 246.689 202.415 247.347 203.2 247.347H224.075V244.409H203.2V244.407Z" fill="#6D6E71"/>
<path d="M244.948 244.407H224.073V247.346H244.948C245.732 247.346 246.368 246.689 246.368 245.876C246.368 245.065 245.732 244.407 244.948 244.407Z" fill="#58595B"/>
<path d="M203.2 250.042C202.416 250.042 201.78 250.699 201.78 251.511C201.78 252.323 202.415 252.98 203.2 252.98H224.075V250.042H203.2Z" fill="#6D6E71"/>
<path d="M244.948 250.042H224.073V252.98H244.948C245.732 252.98 246.368 252.323 246.368 251.511C246.368 250.699 245.732 250.042 244.948 250.042Z" fill="#58595B"/>
<path d="M270.04 165.239C270.04 177.845 265.301 189.306 257.572 197.821C251.141 204.902 247.413 214.154 247.413 223.871V230.634C247.413 232.836 246.612 234.832 245.301 236.351H202.844C201.534 234.832 200.731 232.834 200.731 230.634V223.92C200.731 217.297 199.074 210.821 195.937 205.168C194.531 202.636 192.833 200.267 190.857 198.123C182.701 189.306 177.791 177.247 178.117 163.993C178.741 138.632 198.883 118.016 223.392 117.644C231.847 117.518 239.793 119.753 246.644 123.761C260.615 131.932 270.04 147.45 270.04 165.239Z" fill="#FD9B2B"/>
<path d="M250.734 145.819C250.734 177.733 226.429 203.77 195.938 205.169C194.532 202.637 192.834 200.268 190.858 198.124C182.702 189.307 177.792 177.248 178.118 163.994C178.742 138.633 198.884 118.017 223.393 117.645C231.848 117.519 239.794 119.755 246.645 123.762C249.281 130.582 250.734 138.028 250.734 145.819Z" fill="#FDAC37"/>
<path d="M204.53 174.183C207.641 174.183 207.641 176.995 210.751 176.995C213.863 176.995 213.863 174.183 216.975 174.183C220.087 174.183 220.087 176.995 223.201 176.995C226.314 176.995 226.314 174.183 229.425 174.183C232.539 174.183 232.539 176.995 235.653 176.995C238.768 176.995 238.767 174.183 241.881 174.183" stroke="#FFE5BD" stroke-width="1.1786" stroke-miterlimit="10" stroke-linecap="round" stroke-linejoin="round"/>
<path d="M227.221 187.193H223.262V217.719H224.923V189.653H227.221C227.878 189.653 228.409 189.102 228.409 188.423C228.409 187.743 227.877 187.193 227.221 187.193Z" fill="#939598"/>
<path d="M219.298 187.193C218.641 187.193 218.11 187.744 218.11 188.423C218.11 189.103 218.642 189.653 219.298 189.653H221.597V217.719H223.262V187.193H219.298Z" fill="#A7A9AC"/>
<path d="M240.141 174.573L224.923 217.719" stroke="#FFE5BD" stroke-width="1.1786" stroke-miterlimit="10" stroke-linecap="round" stroke-linejoin="round"/>
<path d="M206.384 174.573L221.602 217.719" stroke="#FFE5BD" stroke-width="1.1786" stroke-miterlimit="10" stroke-linecap="round" stroke-linejoin="round"/>
<path d="M219.751 220.762V236.149H223.26V217.13C221.322 217.129 219.751 218.755 219.751 220.762Z" fill="#A7A9AC"/>
<path d="M226.769 220.762C226.769 218.755 225.198 217.129 223.26 217.129V236.148H226.769V220.762Z" fill="#939598"/>
<path d="M166.652 207.517C173.982 225.54 201.259 241.624 216.265 228.358" stroke="#FCB28D" stroke-width="5.1291" stroke-miterlimit="10" stroke-linecap="round" stroke-linejoin="round"/>
<path d="M212.125 236.388C211.408 236.669 210.673 236.916 209.916 237.117C208.775 237.451 207.586 237.687 206.369 237.84C205.034 238.016 203.656 238.088 202.257 238.05C201.29 238.039 200.313 237.968 199.315 237.85C198.143 237.717 196.945 237.511 195.734 237.235C195.462 237.181 195.199 237.113 194.931 237.053C194.323 236.902 193.713 236.74 193.105 236.556C192.027 236.232 190.938 235.861 189.864 235.436C189.055 235.122 188.254 234.782 187.454 234.423C186.447 233.96 185.445 233.456 184.454 232.92C183.702 232.52 182.955 232.081 182.22 231.639C181.278 231.062 180.354 230.456 179.441 229.815L179.384 229.775C178.696 229.292 178.026 228.801 177.374 228.279C176.478 227.598 175.621 226.889 174.782 226.152C174.125 225.575 173.486 224.988 172.868 224.384C172.044 223.593 171.251 222.771 170.497 221.934C169.894 221.277 169.311 220.603 168.749 219.912C167.992 218.988 167.28 218.043 166.62 217.081C166.069 216.311 165.557 215.529 165.081 214.739C164.415 213.645 163.812 212.533 163.283 211.419C162.944 210.747 162.642 210.067 162.37 209.388C162.257 209.108 162.167 208.821 162.106 208.524C161.914 207.583 161.989 206.607 162.346 205.702C162.809 204.511 163.704 203.581 164.851 203.081C165.179 202.94 165.518 202.828 165.869 202.778C166.812 202.604 167.796 202.742 168.673 203.189C168.875 203.288 169.074 203.406 169.263 203.539C170.007 204.062 170.587 204.787 170.935 205.646C170.947 205.676 170.965 205.71 170.977 205.739C171.347 206.645 171.777 207.553 172.278 208.445C172.846 209.501 173.496 210.542 174.222 211.561C174.731 212.3 175.285 213.017 175.874 213.728C176.588 214.611 177.345 215.472 178.159 216.308C178.763 216.933 179.389 217.543 180.035 218.134C180.857 218.881 181.712 219.609 182.598 220.305C183.255 220.819 183.928 221.324 184.623 221.812L184.664 221.841C185.584 222.487 186.52 223.091 187.458 223.644C188.207 224.096 188.96 224.509 189.715 224.89C190.734 225.414 191.761 225.88 192.787 226.283C193.619 226.623 194.444 226.928 195.273 227.181C195.876 227.37 196.469 227.543 197.071 227.69C197.589 227.821 198.13 227.935 198.691 228.031C199.594 228.199 200.546 228.327 201.538 228.376C202.861 228.468 204.239 228.427 205.638 228.201C206.851 228.023 208.066 227.7 209.255 227.198L209.29 227.318L210.575 231.423L211.566 234.602L212.125 236.388Z" fill="#ED2A11"/>
<path d="M227.056 228.667C227.283 227.096 226.232 225.633 224.714 225.406L217.511 224.328C215.869 224.082 214.388 225.377 214.346 227.093L214.325 227.986C214.287 229.568 215.495 230.884 217.023 230.923L224.249 231.109C225.645 231.145 226.849 230.098 227.056 228.667Z" fill="#FCB28D"/>
<path d="M182.687 194.967L184.619 193.924C189.324 191.385 191.151 185.379 188.699 180.509L182.68 168.552C180.597 164.413 175.667 162.806 171.669 164.963L166.302 167.859C162.304 170.016 160.752 175.12 162.836 179.259L168.398 190.309C171.102 195.681 177.499 197.766 182.687 194.967Z" fill="#FCB28D"/>
<path d="M182.687 194.967L184.619 193.924C189.324 191.385 191.151 185.379 188.699 180.509L182.68 168.552C180.597 164.413 175.667 162.806 171.669 164.963L166.302 167.859C162.304 170.016 160.752 175.12 162.836 179.259L168.398 190.309C171.102 195.681 177.499 197.766 182.687 194.967Z" fill="#FCB28D"/>
<path d="M182.687 194.967L184.619 193.924C189.324 191.385 191.151 185.379 188.699 180.509L182.68 168.552C180.597 164.413 175.667 162.806 171.669 164.963L166.302 167.859C162.304 170.016 160.752 175.12 162.836 179.259L168.398 190.309C171.102 195.681 177.499 197.766 182.687 194.967Z" fill="#FCB28D"/>
<path d="M183.042 176.187C183.326 176.163 183.611 176.08 183.881 175.936C184.15 175.791 184.379 175.596 184.56 175.368" stroke="#D8654E" stroke-width="0.3678" stroke-miterlimit="10" stroke-linecap="round" stroke-linejoin="round"/>
<path d="M174.815 180.625C175.1 180.601 175.385 180.519 175.654 180.374C175.924 180.229 176.152 180.034 176.333 179.806" stroke="#D8654E" stroke-width="0.3678" stroke-miterlimit="10" stroke-linecap="round" stroke-linejoin="round"/>
<path d="M180.048 178.857L180.873 179.679C180.981 179.779 181.133 179.816 181.261 179.766L182.539 179.304L183.183 179.066C183.216 179.148 183.255 179.244 183.287 179.366C183.463 179.944 183.55 180.837 182.729 181.488C182.565 181.616 182.535 181.86 182.663 182.039C182.774 182.185 182.981 182.233 183.139 182.148C183.162 182.137 183.172 182.121 183.195 182.108C184.314 181.217 184.286 179.945 183.998 179.051C183.911 178.782 183.805 178.552 183.695 178.374C183.669 178.339 183.641 178.304 183.606 178.273C183.506 178.189 183.369 178.164 183.241 178.212L182.69 178.411L181.827 178.728L181.231 178.95L180.58 178.302C180.565 178.29 178.311 175.844 177.766 171.932C177.736 171.721 177.544 171.567 177.34 171.598C177.136 171.629 176.987 171.828 177.017 172.039C177.593 176.221 179.948 178.752 180.048 178.857Z" fill="url(#paint7_linear_77_2)"/>
<path d="M175.096 179.379C174.707 179.526 174.277 179.318 174.135 178.915L173.678 177.613C173.536 177.211 173.737 176.765 174.125 176.618C174.515 176.472 174.944 176.679 175.086 177.082L175.544 178.384C175.685 178.787 175.485 179.232 175.096 179.379Z" fill="#2D2620"/>
<path d="M183.536 175.16C183.148 175.307 182.717 175.1 182.575 174.698L182.118 173.396C181.976 172.993 182.176 172.548 182.565 172.401C182.953 172.254 183.384 172.462 183.525 172.865L183.983 174.167C184.125 174.569 183.925 175.015 183.536 175.16Z" fill="#2D2620"/>
<path d="M171.201 189.351C170.97 188.104 171.759 186.898 172.963 186.658C174.168 186.419 175.333 187.236 175.564 188.483C175.796 189.729 175.007 190.936 173.802 191.174C172.597 191.414 171.433 190.598 171.201 189.351Z" fill="#FC9B7E"/>
<path d="M181.558 162.934C181.326 163.234 181.086 163.52 180.845 163.801L179.924 162.213C178.494 159.749 175.436 158.901 173.008 160.294L163.475 165.761C161.609 166.77 160.875 169.133 161.811 171.075C160.754 170.923 159.97 171.819 160.747 172.312C160.567 172.49 160.394 172.711 160.238 172.994C159.702 173.981 159.718 175.196 160.225 176.2L165.315 186.32C166.085 187.849 167.976 188.379 169.398 187.406C170.631 186.563 170.947 184.816 170.264 183.46L166.866 176.709C166.245 175.476 166.707 173.956 167.898 173.311L170.681 171.808C171.109 171.577 171.586 171.489 172.053 171.542C172.589 171.934 173.208 172.223 173.891 172.372C175.068 172.628 176.26 171.857 176.745 171.305C177.279 170.697 177.882 170.168 178.562 169.745L180.893 168.297C181.074 168.185 181.225 168.044 181.362 167.891C181.871 167.497 182.341 167.031 182.756 166.492C184.445 164.293 182.539 161.656 181.558 162.934Z" fill="#2D2620"/>
<path d="M168.391 186.631C169.117 188.073 168.577 189.852 167.183 190.603C165.79 191.354 164.072 190.795 163.347 189.352C162.621 187.91 163.162 186.132 164.555 185.38C165.948 184.629 167.665 185.19 168.391 186.631Z" fill="#FCB28D"/>
<path d="M166.782 186.726C166.107 186.205 165.151 186.348 164.646 187.047C164.141 187.746 164.281 188.737 164.956 189.259C165.631 189.782 166.588 189.637 167.092 188.938C167.597 188.238 167.458 187.248 166.782 186.726Z" fill="url(#paint8_linear_77_2)"/>
<path d="M184.352 188.282C185.071 188.282 185.654 187.48 185.654 186.491C185.654 185.502 185.071 184.7 184.352 184.7C183.633 184.7 183.05 185.502 183.05 186.491C183.05 187.48 183.633 188.282 184.352 188.282Z" fill="#D8654E"/>
<path d="M171.237 176.892C171.237 176.892 171.483 174.728 173.382 174.519" stroke="#845D42" stroke-width="1.1035" stroke-miterlimit="10" stroke-linecap="round" stroke-linejoin="round"/>
<path d="M179.941 172.779C179.941 172.779 180.186 170.615 182.085 170.406" stroke="#845D42" stroke-width="1.1035" stroke-miterlimit="10" stroke-linecap="round" stroke-linejoin="round"/>
<path d="M278.716 172.266H361.166C366.381 172.266 370.609 176.644 370.609 182.043C370.609 187.443 366.381 191.821 361.166 191.821H273.866C269.87 191.821 266.63 195.175 266.63 199.313C266.63 203.451 269.869 206.806 273.866 206.806H318.62" stroke="#30A6B8" stroke-width="3.1465" stroke-miterlimit="10" stroke-linecap="round" stroke-linejoin="round"/>
<path d="M316.805 245.564L303.261 258.926L289.119 251.041L292.44 231.979L316.856 212.17L304.721 235.499C303.199 235.305 301.649 236.08 300.878 237.56C299.868 239.504 300.567 241.919 302.439 242.961C304.316 244.008 306.648 243.285 307.659 241.34C308.428 239.859 308.199 238.094 307.206 236.884L319.337 213.561L316.805 245.564Z" fill="#1A2A40"/>
<path d="M296.413 254.555L288.965 250.403L283.345 257.214L278.281 267.575L287.086 272.485L295.89 277.394L301.58 267.095L303.735 258.638L296.413 254.555Z" fill="#F5705F"/>
<path d="M278.281 267.574L243.646 338.404C241.802 342.45 243.368 347.282 247.196 349.357C251.024 351.431 255.751 350.013 257.913 346.139L295.894 277.394L278.281 267.574Z" fill="#37BFD4"/>
<path d="M276.3 109.89H417.711" stroke="white" stroke-width="1.0488" stroke-miterlimit="10"/>
<path d="M417.711 109.89V148.184" stroke="white" stroke-width="1.0488" stroke-miterlimit="10"/>
<path d="M282.04 103.679H270.041V116.103H282.04V103.679Z" fill="white"/>
<path d="M423.711 141.972H411.712V154.396H423.711V141.972Z" fill="white"/>
<path d="M59.9923 100.346V138.639" stroke="white" stroke-width="1.0488" stroke-miterlimit="10"/>
<path d="M66.1458 94.1343H54.1465V106.558H66.1458V94.1343Z" fill="white"/>
<path d="M65.9914 132.428H53.9921V144.852H65.9914V132.428Z" fill="white"/>
<path d="M345.461 368.019H131.968" stroke="white" stroke-width="1.0488" stroke-miterlimit="10"/>
<path d="M351.462 374.39V361.967H339.462V374.39H351.462Z" fill="white"/>
<path d="M137.967 374.23V361.807H125.968V374.23H137.967Z" fill="white"/>
</g>
<defs>
<linearGradient id="paint0_linear_77_2" x1="61.5578" y1="194.798" x2="54.2764" y2="202.584" gradientUnits="userSpaceOnUse">
<stop stop-color="#D8654E"/>
<stop offset="0.2392" stop-color="#DE7259"/>
<stop offset="0.6831" stop-color="#EF9575"/>
<stop offset="1" stop-color="#FCB28D"/>
</linearGradient>
<linearGradient id="paint1_linear_77_2" x1="65.4118" y1="186.91" x2="60.3421" y2="175.416" gradientUnits="userSpaceOnUse">
<stop stop-color="#D8654E"/>
<stop offset="0.167" stop-color="#DB6C54"/>
<stop offset="0.4123" stop-color="#E58064"/>
<stop offset="0.7046" stop-color="#F4A07E"/>
<stop offset="0.8444" stop-color="#FCB28D"/>
</linearGradient>
<linearGradient id="paint2_linear_77_2" x1="45.2555" y1="190.168" x2="48.8704" y2="189.797" gradientUnits="userSpaceOnUse">
<stop stop-color="#D8654E"/>
<stop offset="0.1833" stop-color="#E0765C"/>
<stop offset="0.5438" stop-color="#F4A17F"/>
<stop offset="0.6696" stop-color="#FCB28D"/>
</linearGradient>
<linearGradient id="paint3_linear_77_2" x1="422.545" y1="194.326" x2="431.622" y2="199.719" gradientUnits="userSpaceOnUse">
<stop stop-color="#D8654E"/>
<stop offset="0.2392" stop-color="#DE7259"/>
<stop offset="0.6831" stop-color="#EF9575"/>
<stop offset="1" stop-color="#FCB28D"/>
</linearGradient>
<linearGradient id="paint4_linear_77_2" x1="416.707" y1="187.877" x2="418.245" y2="175.345" gradientUnits="userSpaceOnUse">
<stop stop-color="#D8654E"/>
<stop offset="0.167" stop-color="#DB6C54"/>
<stop offset="0.4123" stop-color="#E58064"/>
<stop offset="0.7046" stop-color="#F4A07E"/>
<stop offset="0.8444" stop-color="#FCB28D"/>
</linearGradient>
<linearGradient id="paint5_linear_77_2" x1="436.935" y1="185.142" x2="433.353" y2="185.767" gradientUnits="userSpaceOnUse">
<stop stop-color="#D8654E"/>
<stop offset="0.1833" stop-color="#E0765C"/>
<stop offset="0.5438" stop-color="#F4A17F"/>
<stop offset="0.6696" stop-color="#FCB28D"/>
</linearGradient>
<linearGradient id="paint6_linear_77_2" x1="179.435" y1="191.571" x2="171.088" y2="198.111" gradientUnits="userSpaceOnUse">
<stop stop-color="#D8654E"/>
<stop offset="0.2392" stop-color="#DE7259"/>
<stop offset="0.6831" stop-color="#EF9575"/>
<stop offset="1" stop-color="#FCB28D"/>
</linearGradient>
<linearGradient id="paint7_linear_77_2" x1="183.873" y1="182.268" x2="177.256" y2="171.647" gradientUnits="userSpaceOnUse">
<stop stop-color="#D8654E"/>
<stop offset="0.167" stop-color="#DB6C54"/>
<stop offset="0.4123" stop-color="#E58064"/>
<stop offset="0.7046" stop-color="#F4A07E"/>
<stop offset="0.8444" stop-color="#FCB28D"/>
</linearGradient>
<linearGradient id="paint8_linear_77_2" x1="164.347" y1="188.386" x2="167.886" y2="187.532" gradientUnits="userSpaceOnUse">
<stop stop-color="#D8654E"/>
<stop offset="0.1833" stop-color="#E0765C"/>
<stop offset="0.5438" stop-color="#F4A17F"/>
<stop offset="0.6696" stop-color="#FCB28D"/>
</linearGradient>
<clipPath id="clip0_77_2">
<rect width="500" height="480" fill="white"/>
</clipPath>
</defs>
</svg>
