<?xml version="1.0" encoding="UTF-8"?>
<!DOCTYPE svg PUBLIC "-//W3C//DTD SVG 1.1//EN" "http://www.w3.org/Graphics/SVG/1.1/DTD/svg11.dtd">
<svg xmlns="http://www.w3.org/2000/svg" version="1.1" width="512px" height="512px" style="shape-rendering:geometricPrecision; text-rendering:geometricPrecision; image-rendering:optimizeQuality; fill-rule:evenodd; clip-rule:evenodd" xmlns:xlink="http://www.w3.org/1999/xlink">
<g><path style="opacity:0.995" fill="#000000" d="M 439.5,159.5 C 435.363,159.518 432.863,157.518 432,153.5C 431.5,134.17 431.333,114.836 431.5,95.5C 420.833,95.5 410.167,95.5 399.5,95.5C 276.833,95.5 154.167,95.5 31.5,95.5C 31.5,193.5 31.5,291.5 31.5,389.5C 31.4557,402.239 37.4557,410.739 49.5,415C 100.167,415.333 150.833,415.667 201.5,416C 205.518,416.863 207.518,419.363 207.5,423.5C 207.854,426.961 206.521,429.461 203.5,431C 151.167,431.667 98.8333,431.667 46.5,431C 30.3333,426.833 20.1667,416.667 16,400.5C 15.3333,282.5 15.3333,164.5 16,46.5C 20.1667,30.3333 30.3333,20.1667 46.5,16C 171.209,15.0073 295.876,15.3407 420.5,17C 434.606,22.1058 443.44,31.9392 447,46.5C 447.667,82.8333 447.667,119.167 447,155.5C 445.461,158.521 442.961,159.854 439.5,159.5 Z"/></g>
<g><path style="opacity:1" fill="#63b4f5" d="M 389.5,31.5 C 393.706,36.551 396.873,42.2177 399,48.5C 399.5,58.828 399.666,69.1613 399.5,79.5C 276.833,79.5 154.167,79.5 31.5,79.5C 31.0688,68.4225 31.5688,57.4225 33,46.5C 36.6429,39.522 42.1429,34.6887 49.5,32C 162.833,31.5 276.166,31.3333 389.5,31.5 Z"/></g>
<g><path style="opacity:1" fill="#41a4f4" d="M 389.5,31.5 C 397.174,31.3336 404.841,31.5003 412.5,32C 421.573,34.7392 427.74,40.5725 431,49.5C 431.5,59.4944 431.666,69.4944 431.5,79.5C 420.833,79.5 410.167,79.5 399.5,79.5C 399.666,69.1613 399.5,58.828 399,48.5C 396.873,42.2177 393.706,36.551 389.5,31.5 Z"/></g>
<g><path style="opacity:1" fill="#06090c" d="M 68.5,47.5 C 79.1666,48.0025 81.8333,52.8359 76.5,62C 67.4201,65.2149 63.2534,62.0482 64,52.5C 65.025,50.313 66.525,48.6464 68.5,47.5 Z"/></g>
<g><path style="opacity:1" fill="#06090c" d="M 116.5,47.5 C 127.167,48.0025 129.833,52.8359 124.5,62C 115.42,65.2149 111.253,62.0482 112,52.5C 113.025,50.313 114.525,48.6464 116.5,47.5 Z"/></g>
<g><path style="opacity:1" fill="#06090c" d="M 164.5,47.5 C 175.167,48.0025 177.833,52.8359 172.5,62C 163.42,65.2149 159.253,62.0482 160,52.5C 161.025,50.313 162.525,48.6464 164.5,47.5 Z"/></g>
<g><path style="opacity:1" fill="#ededed" d="M 399.5,95.5 C 399.5,144.833 399.5,194.167 399.5,243.5C 391.854,251.812 383.854,259.812 375.5,267.5C 366.348,258.848 357.348,250.014 348.5,241C 345.134,239.121 341.8,239.121 338.5,241C 306,273.5 273.5,306 241,338.5C 238.501,343.664 239.668,347.83 244.5,351C 247.257,351.584 249.923,351.25 252.5,350C 282.68,319.653 313.014,289.486 343.5,259.5C 352.652,268.152 361.652,276.986 370.5,286C 373.8,287.879 377.134,287.879 380.5,286C 386.369,279.964 392.369,274.13 398.5,268.5C 399.833,286.833 399.833,305.167 398.5,323.5C 397.547,321.39 395.881,320.223 393.5,320C 369.745,319.021 346.079,319.354 322.5,321C 321.299,321.903 320.465,323.069 320,324.5C 319.5,349.498 319.333,374.498 319.5,399.5C 314.167,399.5 308.833,399.5 303.5,399.5C 303.666,390.494 303.5,381.494 303,372.5C 302.535,371.069 301.701,369.903 300.5,369C 288.067,367.862 275.567,367.362 263,367.5C 250.741,367.352 238.575,367.852 226.5,369C 225.299,369.903 224.465,371.069 224,372.5C 223.5,381.494 223.334,390.494 223.5,399.5C 165.832,399.667 108.166,399.5 50.5,399C 43.3598,397.43 37.0264,394.263 31.5,389.5C 31.5,291.5 31.5,193.5 31.5,95.5C 154.167,95.5 276.833,95.5 399.5,95.5 Z"/></g>
<g><path style="opacity:1" fill="#dfdfdf" d="M 399.5,95.5 C 410.167,95.5 420.833,95.5 431.5,95.5C 431.333,114.836 431.5,134.17 432,153.5C 432.863,157.518 435.363,159.518 439.5,159.5C 439.5,164.833 439.5,170.167 439.5,175.5C 433.158,175.334 426.825,175.5 420.5,176C 415.432,178.983 414.265,183.149 417,188.5C 417.903,189.701 419.069,190.535 420.5,191C 426.825,191.5 433.158,191.666 439.5,191.5C 439.5,195.167 439.5,198.833 439.5,202.5C 426.886,216.782 413.553,230.448 399.5,243.5C 399.5,194.167 399.5,144.833 399.5,95.5 Z"/></g>
<g><path style="opacity:1" fill="#030302" d="M 133.5,127.5 C 182.145,126.378 211.979,149.378 223,196.5C 225.944,232.448 212.111,259.615 181.5,278C 142.334,295.368 108.5,288.201 80,256.5C 58.1582,223.759 58.1582,191.092 80,158.5C 93.8736,141.314 111.707,130.98 133.5,127.5 Z"/></g>
<g><path style="opacity:1" fill="#010101" d="M 252.5,127.5 C 294.168,127.333 335.835,127.5 377.5,128C 383.462,130.405 384.962,134.571 382,140.5C 380.829,141.893 379.329,142.727 377.5,143C 335.833,143.667 294.167,143.667 252.5,143C 245.889,137.798 245.889,132.631 252.5,127.5 Z"/></g>
<g><path style="opacity:1" fill="#fdb64c" d="M 167.5,215.5 C 157.279,235.963 140.946,248.796 118.5,254C 113.028,254.867 107.694,255.7 102.5,256.5C 89.812,245.799 82.312,232.132 80,215.5C 78.1958,179.601 94.3625,156.101 128.5,145C 130.81,144.503 133.143,144.337 135.5,144.5C 135.031,167.233 135.531,189.899 137,212.5C 137.903,213.701 139.069,214.535 140.5,215C 149.494,215.5 158.494,215.666 167.5,215.5 Z"/></g>
<g><path style="opacity:1" fill="#64b4f4" d="M 167.5,148.5 C 175.226,164.719 177.559,181.719 174.5,199.5C 166.833,199.5 159.167,199.5 151.5,199.5C 151.5,181.167 151.5,162.833 151.5,144.5C 157.099,144.812 162.433,146.145 167.5,148.5 Z"/></g>
<g><path style="opacity:1" fill="#41a3f2" d="M 167.5,148.5 C 189.91,158.25 202.91,175.25 206.5,199.5C 195.833,199.5 185.167,199.5 174.5,199.5C 177.559,181.719 175.226,164.719 167.5,148.5 Z"/></g>
<g><path style="opacity:1" fill="#010101" d="M 252.5,175.5 C 294.168,175.333 335.835,175.5 377.5,176C 383.462,178.405 384.962,182.571 382,188.5C 380.829,189.893 379.329,190.727 377.5,191C 335.833,191.667 294.167,191.667 252.5,191C 245.889,185.798 245.889,180.631 252.5,175.5 Z"/></g>
<g><path style="opacity:0.99" fill="#050505" d="M 439.5,175.5 C 452.266,175.039 464.933,175.539 477.5,177C 478.126,177.75 478.626,178.584 479,179.5C 479.667,198.167 479.667,216.833 479,235.5C 478.626,236.416 478.126,237.25 477.5,238C 474.298,239.483 470.964,239.817 467.5,239C 465.667,238.5 464.5,237.333 464,235.5C 463.667,225.167 463.333,214.833 463,204.5C 455.298,212.369 447.465,220.036 439.5,227.5C 425.5,240.833 411.833,254.5 398.5,268.5C 392.369,274.13 386.369,279.964 380.5,286C 377.134,287.879 373.8,287.879 370.5,286C 361.652,276.986 352.652,268.152 343.5,259.5C 313.014,289.486 282.68,319.653 252.5,350C 249.923,351.25 247.257,351.584 244.5,351C 239.668,347.83 238.501,343.664 241,338.5C 273.5,306 306,273.5 338.5,241C 341.8,239.121 345.134,239.121 348.5,241C 357.348,250.014 366.348,258.848 375.5,267.5C 383.854,259.812 391.854,251.812 399.5,243.5C 413.553,230.448 426.886,216.782 439.5,202.5C 443.298,199.204 446.964,195.704 450.5,192C 446.848,191.501 443.182,191.335 439.5,191.5C 433.158,191.666 426.825,191.5 420.5,191C 419.069,190.535 417.903,189.701 417,188.5C 414.265,183.149 415.432,178.983 420.5,176C 426.825,175.5 433.158,175.334 439.5,175.5 Z"/></g>
<g><path style="opacity:1" fill="#fda525" d="M 167.5,215.5 C 180.5,215.5 193.5,215.5 206.5,215.5C 201.24,246.262 183.24,264.762 152.5,271C 133.538,273.598 116.872,268.764 102.5,256.5C 107.694,255.7 113.028,254.867 118.5,254C 140.946,248.796 157.279,235.963 167.5,215.5 Z"/></g>
<g><path style="opacity:1" fill="#020202" d="M 252.5,223.5 C 270.17,223.333 287.836,223.5 305.5,224C 311.462,226.405 312.962,230.571 310,236.5C 308.829,237.893 307.329,238.727 305.5,239C 287.833,239.667 270.167,239.667 252.5,239C 245.889,233.798 245.889,228.631 252.5,223.5 Z"/></g>
<g><path style="opacity:1" fill="#dfdfdf" d="M 439.5,227.5 C 439.5,242.167 439.5,256.833 439.5,271.5C 433.158,271.334 426.825,271.5 420.5,272C 418.333,272.833 416.833,274.333 416,276.5C 415.5,325.499 415.333,374.499 415.5,423.5C 410.167,423.5 404.833,423.5 399.5,423.5C 399.826,390.094 399.493,356.76 398.5,323.5C 399.833,305.167 399.833,286.833 398.5,268.5C 411.833,254.5 425.5,240.833 439.5,227.5 Z"/></g>
<g><path style="opacity:0.998" fill="#000000" d="M 439.5,271.5 C 456.837,271.333 474.17,271.5 491.5,272C 493.333,272.5 494.5,273.667 495,275.5C 495.667,347.5 495.667,419.5 495,491.5C 494.5,493.333 493.333,494.5 491.5,495C 466.746,495.98 442.079,495.647 417.5,494C 416.874,493.25 416.374,492.416 416,491.5C 415.5,468.836 415.333,446.169 415.5,423.5C 415.333,374.499 415.5,325.499 416,276.5C 416.833,274.333 418.333,272.833 420.5,272C 426.825,271.5 433.158,271.334 439.5,271.5 Z"/></g>
<g><path style="opacity:1" fill="#ffb64c" d="M 455.5,287.5 C 455.667,336.834 455.5,386.168 455,435.5C 453.021,449.643 445.187,458.643 431.5,462.5C 431.5,404.167 431.5,345.833 431.5,287.5C 439.5,287.5 447.5,287.5 455.5,287.5 Z"/></g>
<g><path style="opacity:1" fill="#ffa726" d="M 455.5,287.5 C 463.5,287.5 471.5,287.5 479.5,287.5C 479.5,351.5 479.5,415.5 479.5,479.5C 463.5,479.5 447.5,479.5 431.5,479.5C 431.5,473.833 431.5,468.167 431.5,462.5C 445.187,458.643 453.021,449.643 455,435.5C 455.5,386.168 455.667,336.834 455.5,287.5 Z"/></g>
<g><path style="opacity:1" fill="#010101" d="M 68.5,319.5 C 112.835,319.333 157.168,319.5 201.5,320C 207.462,322.405 208.962,326.571 206,332.5C 204.829,333.893 203.329,334.727 201.5,335C 157.167,335.667 112.833,335.667 68.5,335C 61.889,329.798 61.889,324.631 68.5,319.5 Z"/></g>
<g><path style="opacity:0.998" fill="#000000" d="M 398.5,323.5 C 399.493,356.76 399.826,390.094 399.5,423.5C 399.98,446.924 399.48,470.257 398,493.5C 397.25,494.126 396.416,494.626 395.5,495C 371.5,495.667 347.5,495.667 323.5,495C 322.584,494.626 321.75,494.126 321,493.5C 319.52,470.257 319.02,446.924 319.5,423.5C 319.5,415.5 319.5,407.5 319.5,399.5C 319.333,374.498 319.5,349.498 320,324.5C 320.465,323.069 321.299,321.903 322.5,321C 346.079,319.354 369.745,319.021 393.5,320C 395.881,320.223 397.547,321.39 398.5,323.5 Z"/></g>
<g><path style="opacity:1" fill="#ffb64c" d="M 359.5,335.5 C 359.667,368.835 359.5,402.168 359,435.5C 357.021,449.643 349.187,458.643 335.5,462.5C 335.5,420.167 335.5,377.833 335.5,335.5C 343.5,335.5 351.5,335.5 359.5,335.5 Z"/></g>
<g><path style="opacity:1" fill="#ffa726" d="M 359.5,335.5 C 367.5,335.5 375.5,335.5 383.5,335.5C 383.5,383.5 383.5,431.5 383.5,479.5C 367.5,479.5 351.5,479.5 335.5,479.5C 335.5,473.833 335.5,468.167 335.5,462.5C 349.187,458.643 357.021,449.643 359,435.5C 359.5,402.168 359.667,368.835 359.5,335.5 Z"/></g>
<g><path style="opacity:1" fill="#010101" d="M 68.5,367.5 C 94.1688,367.333 119.835,367.5 145.5,368C 151.462,370.405 152.962,374.571 150,380.5C 148.829,381.893 147.329,382.727 145.5,383C 119.833,383.667 94.1667,383.667 68.5,383C 61.889,377.798 61.889,372.631 68.5,367.5 Z"/></g>
<g><path style="opacity:0.998" fill="#000000" d="M 303.5,399.5 C 303.5,407.5 303.5,415.5 303.5,423.5C 303.98,446.924 303.48,470.257 302,493.5C 301.25,494.126 300.416,494.626 299.5,495C 275.5,495.667 251.5,495.667 227.5,495C 226.584,494.626 225.75,494.126 225,493.5C 223.52,470.257 223.02,446.924 223.5,423.5C 223.5,415.5 223.5,407.5 223.5,399.5C 223.334,390.494 223.5,381.494 224,372.5C 224.465,371.069 225.299,369.903 226.5,369C 238.575,367.852 250.741,367.352 263,367.5C 275.567,367.362 288.067,367.862 300.5,369C 301.701,369.903 302.535,371.069 303,372.5C 303.5,381.494 303.666,390.494 303.5,399.5 Z"/></g>
<g><path style="opacity:1" fill="#ffb64c" d="M 263.5,383.5 C 263.935,402.547 263.435,421.547 262,440.5C 258.608,452.059 251.108,459.392 239.5,462.5C 239.5,436.167 239.5,409.833 239.5,383.5C 247.5,383.5 255.5,383.5 263.5,383.5 Z"/></g>
<g><path style="opacity:1" fill="#ffa726" d="M 263.5,383.5 C 271.5,383.5 279.5,383.5 287.5,383.5C 287.5,415.5 287.5,447.5 287.5,479.5C 271.5,479.5 255.5,479.5 239.5,479.5C 239.5,473.833 239.5,468.167 239.5,462.5C 251.108,459.392 258.608,452.059 262,440.5C 263.435,421.547 263.935,402.547 263.5,383.5 Z"/></g>
<g><path style="opacity:1" fill="#dfdfdf" d="M 31.5,389.5 C 37.0264,394.263 43.3598,397.43 50.5,399C 108.166,399.5 165.832,399.667 223.5,399.5C 223.5,407.5 223.5,415.5 223.5,423.5C 218.167,423.5 212.833,423.5 207.5,423.5C 207.518,419.363 205.518,416.863 201.5,416C 150.833,415.667 100.167,415.333 49.5,415C 37.4557,410.739 31.4557,402.239 31.5,389.5 Z"/></g>
<g><path style="opacity:1" fill="#dfe0df" d="M 303.5,399.5 C 308.833,399.5 314.167,399.5 319.5,399.5C 319.5,407.5 319.5,415.5 319.5,423.5C 314.167,423.5 308.833,423.5 303.5,423.5C 303.5,415.5 303.5,407.5 303.5,399.5 Z"/></g>
</svg>
