<svg width="20" height="20" viewBox="0 0 20 20" fill="none" xmlns="http://www.w3.org/2000/svg">
<g clip-path="url(#clip0_311_3831)">
<g clip-path="url(#clip1_311_3831)">
<g clip-path="url(#clip2_311_3831)">
<mask id="mask0_311_3831" style="mask-type:luminance" maskUnits="userSpaceOnUse" x="0" y="0" width="20" height="20">
<path d="M20 0H0V20H20V0Z" fill="white"/>
</mask>
<g mask="url(#mask0_311_3831)">
<path d="M19.098 4.08203H17.8321V0.996095C17.8321 0.446758 17.3853 0 16.836 0H12.6172C12.0679 0 11.6211 0.446797 11.6211 0.996095V4.08203H9.78515V1.58203C9.78515 1.0327 9.33835 0.58594 8.78905 0.58594H3.08594C2.5366 0.58594 2.08984 1.03274 2.08984 1.58203V4.08203H0.901955C0.404687 4.08203 0 4.48672 0 4.98398V6.24025C0 6.31795 0.0308663 6.39245 0.0858085 6.4474C0.140751 6.50235 0.215268 6.5332 0.292969 6.5332C0.370669 6.5332 0.445186 6.50235 0.50013 6.4474C0.55507 6.39245 0.58594 6.31795 0.58594 6.24025V4.98398C0.58594 4.80972 0.727695 4.66797 0.901955 4.66797H2.08984V5.2539H1.46484C1.38714 5.2539 1.31262 5.28475 1.25768 5.3397C1.20274 5.39465 1.17188 5.46915 1.17188 5.5469V15.7031C1.17188 15.7809 1.20274 15.8554 1.25768 15.9103C1.31262 15.9653 1.38714 15.9961 1.46484 15.9961H16.25C16.4117 15.9961 16.5429 15.8651 16.5429 15.7031C16.5429 15.5412 16.4117 15.4101 16.25 15.4101H1.75781V5.83985H2.0932C2.13316 6.3527 2.56301 6.7578 3.08594 6.7578H5.45045V12.8793C5.45045 13.0411 5.5817 13.1722 5.7434 13.1722H6.66015C6.73785 13.1722 6.81235 13.1414 6.8673 13.0864C6.92225 13.0315 6.9531 12.957 6.9531 12.8793C6.9531 12.8016 6.92225 12.7271 6.8673 12.6721C6.81235 12.6172 6.73785 12.5864 6.66015 12.5864H6.03635V6.7578H8.78905C9.312 6.7578 9.7418 6.3527 9.7818 5.83985H11.8424C12.0252 6.066 12.3043 6.21095 12.6172 6.21095H13.6047C13.7402 6.58265 14.0712 6.86095 14.4726 6.9214V9.0169H13.5156C13.4379 9.0169 13.3634 9.04775 13.3084 9.1027C13.2535 9.15765 13.2226 9.23215 13.2226 9.30985C13.2226 9.38755 13.2535 9.46205 13.3084 9.517C13.3634 9.57195 13.4379 9.6028 13.5156 9.6028H14.7656C14.8434 9.6028 14.9179 9.57195 14.9728 9.517C15.0278 9.46205 15.0586 9.38755 15.0586 9.30985V6.9214C15.4601 6.861 15.791 6.58265 15.9265 6.21095H16.836C17.1486 6.21095 17.4279 6.066 17.6108 5.83985H18.2422V15.4101H17.5098C17.3481 15.4101 17.2168 15.5412 17.2168 15.7031C17.2168 15.8651 17.3481 15.9961 17.5098 15.9961H18.5352C18.6129 15.9961 18.6873 15.9653 18.7423 15.9103C18.7973 15.8554 18.8281 15.7809 18.8281 15.7031V5.5469C18.8281 5.46915 18.7973 5.39465 18.7423 5.3397C18.6873 5.28475 18.6129 5.2539 18.5352 5.2539H17.8312C17.8316 5.24095 17.8321 5.22795 17.8321 5.21485V4.66797H19.098C19.2723 4.66797 19.414 4.80972 19.414 4.98398V16.266C19.414 16.4403 19.2723 16.5821 19.098 16.5821H0.901955C0.727695 16.5821 0.58594 16.4403 0.58594 16.266V7.49025C0.58594 7.41255 0.55507 7.338 0.50013 7.28305C0.445186 7.22815 0.370669 7.19725 0.292969 7.19725C0.215268 7.19725 0.140751 7.22815 0.0858085 7.28305C0.0308663 7.338 0 7.41255 0 7.49025V16.266C0 16.7633 0.404687 17.1679 0.901955 17.1679H7.9492V18.2422H4.96094C4.47633 18.2422 4.08203 18.6365 4.08203 19.1211C4.08203 19.6057 4.47633 20 4.96094 20H15.0391C15.5237 20 15.9179 19.6057 15.9179 19.1211C15.9179 18.6365 15.5237 18.2422 15.0391 18.2422H12.0508V17.1679H19.098C19.5953 17.1679 20 16.7633 20 16.266V4.98398C20 4.48672 19.5953 4.08203 19.098 4.08203ZM9.1992 5.7617C9.1992 5.9879 9.01525 6.1719 8.78905 6.1719H3.08594C2.85976 6.1719 2.67578 5.9879 2.67578 5.7617V1.58203C2.67578 1.35586 2.85976 1.17188 3.08594 1.17188H8.78905C9.01525 1.17188 9.1992 1.35586 9.1992 1.58203V5.7617ZM9.78515 5.2539V4.66797H11.6211V5.21485C11.6211 5.22795 11.6215 5.24095 11.622 5.2539H9.78515ZM14.8947 6.34765H14.6365C14.3727 6.34765 14.155 6.147 14.1276 5.89035L14.1271 5.88545C14.1253 5.8689 14.1244 5.85225 14.1244 5.8356V5.7626H15.4068V5.8356C15.4068 5.8539 15.4058 5.87215 15.4038 5.89035C15.3763 6.147 15.1585 6.34765 14.8947 6.34765ZM16.836 5.625H15.9928V5.6058C15.9928 5.4842 15.9416 5.37445 15.86 5.29615C15.8954 5.1825 15.9645 5.08255 16.0604 5.01385C16.656 4.58754 17.0117 3.89239 17.0117 3.15445C17.0117 2.73269 16.897 2.3207 16.6797 1.9632C16.6394 1.89678 16.5743 1.84909 16.4988 1.83063C16.4233 1.81217 16.3436 1.82445 16.2771 1.86477C16.1389 1.94887 16.0948 2.12906 16.1789 2.2673C16.3403 2.53328 16.4258 2.83996 16.4258 3.15441C16.4258 3.70375 16.1616 4.2209 15.7193 4.53734C15.5031 4.69222 15.3505 4.92004 15.2842 5.1767H14.2472C14.1808 4.92004 14.0281 4.69222 13.8118 4.53734C13.3696 4.2209 13.1054 3.70375 13.1054 3.15445C13.1054 2.22273 13.8503 1.46484 14.7656 1.46484C14.977 1.46448 15.1865 1.50532 15.3822 1.58508C15.4178 1.59962 15.456 1.607 15.4944 1.60679C15.5329 1.60659 15.571 1.5988 15.6065 1.58388C15.6419 1.56896 15.6741 1.54719 15.7011 1.51983C15.7282 1.49247 15.7495 1.46004 15.764 1.42441C15.7786 1.38879 15.7859 1.35064 15.7857 1.31216C15.7855 1.27368 15.7777 1.23562 15.7628 1.20016C15.7479 1.16469 15.7261 1.13251 15.6987 1.10545C15.6713 1.07839 15.639 1.05699 15.6033 1.04246C15.3373 0.93407 15.0528 0.87852 14.7656 0.878905C13.5271 0.878905 12.5196 1.89972 12.5196 3.15445C12.5196 3.89234 12.8752 4.58754 13.4708 5.01385C13.5668 5.08255 13.6358 5.1825 13.6713 5.2963C13.6293 5.3362 13.5959 5.38425 13.5731 5.4375C13.5503 5.4907 13.5385 5.548 13.5385 5.60595V5.625H12.6172C12.391 5.625 12.2071 5.441 12.2071 5.21485V0.996095C12.2071 0.76992 12.391 0.58594 12.6172 0.58594H16.836C17.0621 0.58594 17.2461 0.76992 17.2461 0.996095V5.21485C17.2461 5.441 17.0621 5.625 16.836 5.625ZM15.3321 19.1211C15.3321 19.2827 15.2007 19.414 15.0391 19.414H4.96094C4.79934 19.414 4.66797 19.2827 4.66797 19.1211C4.66797 18.9595 4.79934 18.8281 4.96094 18.8281H15.0391C15.2007 18.8281 15.3321 18.9595 15.3321 19.1211ZM11.4649 18.2422H8.53515V17.1679H11.4649V18.2422Z" fill="white"/>
<path d="M12.9879 11.5786C13.3617 11.4987 13.6328 11.1633 13.6328 10.7812C13.6328 10.3992 13.3617 10.0638 12.9879 9.98384C12.8855 9.96154 12.7828 9.94034 12.6799 9.92034L12.5038 9.49509C12.5623 9.40809 12.6199 9.32049 12.6767 9.23234C12.8844 8.91159 12.839 8.48264 12.5688 8.21239C12.2986 7.94234 11.8696 7.89689 11.5489 8.10454C11.4608 8.16129 11.3732 8.21889 11.2863 8.27739L10.861 8.10134C10.8473 8.03024 10.8272 7.93184 10.7976 7.79329C10.7176 7.41954 10.382 7.14844 9.99999 7.14844C9.61794 7.14844 9.28239 7.41954 9.20239 7.79329C9.18024 7.89574 9.15909 7.99844 9.13894 8.10134L8.71364 8.27739C8.62674 8.21889 8.53919 8.16129 8.45109 8.10454C8.13034 7.89689 7.70139 7.94234 7.43114 8.21239C7.16094 8.48264 7.11564 8.91159 7.32329 9.23234C7.38004 9.32049 7.43769 9.40809 7.49614 9.49509L7.32009 9.92034C7.24899 9.93404 7.15044 9.95404 7.01204 9.98384C6.63829 10.0638 6.36719 10.3992 6.36719 10.7812C6.36719 11.1633 6.63829 11.4987 7.01204 11.5786C7.11449 11.6009 7.21719 11.6221 7.32009 11.6423L7.49614 12.0674C7.43769 12.1544 7.38004 12.242 7.32329 12.3301C7.11564 12.6509 7.16094 13.0798 7.43114 13.3501C7.70139 13.6201 8.13034 13.6656 8.45109 13.4579C8.53919 13.4012 8.62674 13.3436 8.71364 13.2851L9.13894 13.4613C9.15269 13.5322 9.17279 13.6308 9.20239 13.7692C9.28239 14.1429 9.61794 14.414 9.99999 14.414C10.382 14.414 10.7176 14.1429 10.7976 13.7692C10.8197 13.6667 10.8409 13.564 10.861 13.4611L11.2863 13.2851C11.3463 13.3256 11.4301 13.381 11.5489 13.4579C11.8696 13.6656 12.2986 13.6201 12.5688 13.3501C12.839 13.0798 12.8844 12.6509 12.6767 12.3301C12.6199 12.242 12.5623 12.1544 12.5038 12.0674L12.6799 11.6421C12.751 11.6285 12.8494 11.6084 12.9879 11.5786ZM12.4664 11.0855C12.4695 11.0853 12.4722 11.0853 12.4745 11.0853H12.4768C12.4733 11.0853 12.4697 11.0853 12.4664 11.0855ZM12.4626 11.0856C12.3472 11.091 12.2452 11.1619 12.1997 11.2706L11.9012 11.9911C11.8571 12.0981 11.8783 12.2197 11.9558 12.3063C11.9658 12.319 12.012 12.3816 12.1849 12.6486C12.2433 12.7388 12.2305 12.8596 12.1545 12.9356C12.0784 13.0118 11.9575 13.0246 11.8674 12.9661C11.6069 12.7974 11.541 12.7493 11.5261 12.7379C11.4409 12.6599 11.3186 12.6379 11.2093 12.6826L10.4907 12.9803C10.3808 13.0252 10.3088 13.1285 10.3044 13.2446C10.3018 13.2644 10.2887 13.347 10.2246 13.6465C10.202 13.7518 10.1076 13.8281 9.99999 13.8281C9.89239 13.8281 9.79794 13.7518 9.77539 13.6465C9.71054 13.3433 9.69804 13.2625 9.69559 13.2438C9.69314 13.1869 9.67439 13.1319 9.64159 13.0853C9.60874 13.0387 9.56329 13.0025 9.51049 12.981L8.78954 12.6822C8.68044 12.6376 8.55709 12.6603 8.47304 12.7385C8.45669 12.7511 8.38849 12.8004 8.13279 12.9661C8.04244 13.0246 7.92159 13.0119 7.84564 12.9358C7.80864 12.8985 7.78544 12.8498 7.77989 12.7975C7.77434 12.7453 7.78674 12.6928 7.81509 12.6486C7.98399 12.3877 8.03204 12.322 8.04334 12.3074C8.08174 12.2653 8.10729 12.2131 8.11709 12.157C8.12684 12.1009 8.12044 12.0432 8.09859 11.9906L7.79984 11.2695C7.77804 11.2172 7.74179 11.1722 7.69539 11.1396C7.64899 11.1071 7.59429 11.0884 7.53769 11.0858C7.51984 11.0835 7.44019 11.0711 7.13469 11.0058C7.02939 10.9833 6.95309 10.8888 6.95309 10.7812C6.95309 10.6736 7.02939 10.5792 7.13469 10.5568C7.43834 10.4918 7.51889 10.4791 7.53739 10.4768C7.65274 10.4715 7.75479 10.4005 7.80024 10.2919L8.09874 9.57134C8.14284 9.46439 8.12164 9.34279 8.04414 9.25614C8.03419 9.24349 7.98794 9.18089 7.81509 8.91384C7.75664 8.82369 7.76944 8.70284 7.84544 8.62689C7.92144 8.55069 8.04229 8.53789 8.13259 8.59634C8.39309 8.76509 8.45899 8.81314 8.47384 8.82459C8.55909 8.90259 8.68134 8.92454 8.79059 8.87984L9.51049 8.58154C9.61959 8.53634 9.69114 8.43349 9.69559 8.31789C9.69814 8.29804 9.71129 8.21544 9.77539 7.91594C9.79779 7.81064 9.89224 7.73439 9.99999 7.73439C10.0525 7.73454 10.1033 7.75264 10.1441 7.78569C10.1849 7.81869 10.2133 7.86464 10.2244 7.91594C10.2894 8.21944 10.3019 8.30014 10.3044 8.31864C10.3097 8.43364 10.3801 8.53544 10.4892 8.58149L11.2106 8.88044C11.3199 8.92499 11.4429 8.90214 11.5269 8.82399C11.5433 8.81149 11.6115 8.76204 11.8672 8.59634C11.9575 8.53789 12.0784 8.55069 12.1544 8.62689C12.2305 8.70284 12.2433 8.82369 12.1849 8.91384C12.016 9.17479 11.9679 9.24044 11.9566 9.25524C11.9182 9.29729 11.8927 9.34939 11.8829 9.40549C11.8731 9.46154 11.8795 9.51929 11.9014 9.57184L12.1994 10.2914C12.221 10.3442 12.2572 10.3896 12.3038 10.4225C12.3503 10.4553 12.4054 10.4741 12.4623 10.4767C12.4801 10.4791 12.5599 10.4913 12.8653 10.5567C12.9706 10.5792 13.0469 10.6736 13.0469 10.7812C13.0469 10.8888 12.9704 10.9833 12.8653 11.0057C12.5616 11.0707 12.4811 11.0833 12.4626 11.0856Z" fill="white"/>
<path d="M10 9.39929C9.23795 9.39929 8.618 10.0194 8.618 10.7814C8.618 11.5435 9.23795 12.1636 10 12.1636C10.7621 12.1636 11.382 11.5435 11.382 10.7814C11.382 10.0194 10.7621 9.39929 10 9.39929ZM10 11.5776C9.561 11.5776 9.20395 11.2204 9.20395 10.7814C9.20395 10.3424 9.561 9.98524 10 9.98524C10.439 9.98524 10.7961 10.3424 10.7961 10.7814C10.7961 11.2204 10.439 11.5776 10 11.5776ZM3.59375 2.70332L5.88275 2.70312C5.9212 2.70312 5.95935 2.69554 5.9949 2.68081C6.03045 2.66607 6.06275 2.64448 6.08995 2.61726C6.11715 2.59004 6.13875 2.55772 6.15345 2.52216C6.16815 2.4866 6.1757 2.44848 6.1757 2.41C6.1757 2.37153 6.1681 2.33344 6.1534 2.29791C6.13865 2.26237 6.1171 2.23009 6.0899 2.20289C6.0627 2.1757 6.0304 2.15414 5.99485 2.13943C5.9593 2.12472 5.9212 2.11717 5.88275 2.11719L3.59375 2.11738C3.51605 2.11738 3.44153 2.14825 3.38659 2.20319C3.33165 2.25813 3.30078 2.33265 3.30078 2.41035C3.30078 2.48805 3.33165 2.56257 3.38659 2.61751C3.44153 2.67245 3.51605 2.70332 3.59375 2.70332ZM3.59375 3.875L8.28125 3.87484C8.3197 3.87484 8.3578 3.86726 8.39335 3.85254C8.4289 3.83782 8.4612 3.81624 8.4884 3.78903C8.5156 3.76183 8.5372 3.72953 8.5519 3.69399C8.56665 3.65844 8.5742 3.62035 8.5742 3.58187C8.5742 3.5434 8.56665 3.5053 8.5519 3.46976C8.5372 3.43421 8.5156 3.40192 8.4884 3.37471C8.4612 3.34751 8.4289 3.32593 8.39335 3.31121C8.3578 3.29648 8.3197 3.2889 8.28125 3.2889L3.59375 3.28906C3.51605 3.28906 3.44153 3.31993 3.38659 3.37487C3.33165 3.42981 3.30078 3.50433 3.30078 3.58203C3.30078 3.65973 3.33165 3.73425 3.38659 3.78919C3.44153 3.84413 3.51605 3.875 3.59375 3.875ZM8.28125 4.46078L3.59391 4.46094C3.55543 4.46092 3.51733 4.46849 3.48178 4.48321C3.44622 4.49792 3.41392 4.5195 3.38671 4.54671C3.35951 4.57392 3.33793 4.60622 3.32321 4.64177C3.30849 4.67732 3.30092 4.71543 3.30094 4.7539C3.30094 4.8316 3.33181 4.90612 3.38675 4.96106C3.44169 5.01599 3.51621 5.04689 3.59391 5.04689L8.28125 5.04669C8.44295 5.04669 8.5742 4.91551 8.5742 4.75375C8.5742 4.59199 8.44295 4.46078 8.28125 4.46078Z" fill="white"/>
</g>
</g>
</g>
</g>
<defs>
<clipPath id="clip0_311_3831">
<rect width="20" height="20" fill="white"/>
</clipPath>
<clipPath id="clip1_311_3831">
<rect width="20" height="20" fill="white"/>
</clipPath>
<clipPath id="clip2_311_3831">
<rect width="20" height="20" fill="white"/>
</clipPath>
</defs>
</svg>
