<svg width="21" height="20" viewBox="0 0 21 20" fill="none" xmlns="http://www.w3.org/2000/svg">
<g clip-path="url(#clip0_311_3847)">
<mask id="mask0_311_3847" style="mask-type:luminance" maskUnits="userSpaceOnUse" x="0" y="0" width="21" height="20">
<path d="M20.3301 0H0.330078V20H20.3301V0Z" fill="white"/>
</mask>
<g mask="url(#mask0_311_3847)">
<path d="M9.23633 7.5H0.642578C0.455078 7.5 0.330078 7.34375 0.330078 7.1875V5.1875C0.330078 4.3125 1.04883 3.5625 1.95508 3.5625H10.2988C10.4863 3.5625 10.6113 3.71875 10.6113 3.875C10.6113 4.03125 10.4551 4.1875 10.2988 4.1875H1.92383C1.39258 4.1875 0.955078 4.625 0.955078 5.15625V6.84375H9.23633C9.42383 6.84375 9.54883 7 9.54883 7.15625C9.54883 7.3125 9.42383 7.5 9.23633 7.5Z" fill="white"/>
<path d="M1.92383 19.0625C1.48633 19.0625 1.08008 18.9062 0.798828 18.5938C0.486328 18.2812 0.330078 17.875 0.330078 17.4375V7.15625C0.330078 6.96875 0.486328 6.84375 0.642578 6.84375H9.23633C9.42383 6.84375 9.54883 7 9.54883 7.15625C9.54883 7.3125 9.39258 7.46875 9.23633 7.46875H0.955078V17.4062C0.955078 17.6562 1.04883 17.9062 1.23633 18.0938C1.42383 18.2812 1.67383 18.375 1.92383 18.375H16.5801C17.1113 18.375 17.5488 17.9375 17.5488 17.4062V11.1562C17.5488 10.9688 17.7051 10.8438 17.8613 10.8438C18.0176 10.8438 18.1738 11 18.1738 11.1562V17.4062C18.1738 18.2812 17.4551 19.0312 16.5488 19.0312H1.92383V19.0625ZM3.14258 5.84375H2.45508C2.26758 5.84375 2.14258 5.6875 2.14258 5.53125C2.14258 5.375 2.29883 5.21875 2.45508 5.21875H3.14258C3.33008 5.21875 3.45508 5.375 3.45508 5.53125C3.45508 5.6875 3.33008 5.84375 3.14258 5.84375ZM4.67383 5.84375H3.98633C3.79883 5.84375 3.67383 5.6875 3.67383 5.53125C3.67383 5.375 3.83008 5.21875 3.98633 5.21875H4.67383C4.86133 5.21875 4.98633 5.375 4.98633 5.53125C4.98633 5.6875 4.86133 5.84375 4.67383 5.84375ZM6.20508 5.84375H5.51758C5.33008 5.84375 5.20508 5.6875 5.20508 5.53125C5.20508 5.375 5.36133 5.21875 5.51758 5.21875H6.20508C6.39258 5.21875 6.51758 5.375 6.51758 5.53125C6.51758 5.6875 6.39258 5.84375 6.20508 5.84375Z" fill="white"/>
<path d="M8.01758 13.1562H3.45508C2.92383 13.1562 2.48633 12.7188 2.48633 12.1875V9.46875C2.48633 8.9375 2.92383 8.5 3.45508 8.5H8.01758C8.54883 8.5 8.98633 8.9375 8.98633 9.46875V12.1875C8.98633 12.7188 8.54883 13.1562 8.01758 13.1562ZM8.01758 9.125H3.45508C3.26758 9.125 3.14258 9.28125 3.14258 9.4375V12.1875C3.14258 12.375 3.29883 12.5 3.45508 12.5H8.01758C8.20508 12.5 8.33008 12.3438 8.33008 12.1875V9.46875C8.33008 9.28125 8.17383 9.125 8.01758 9.125ZM11.2988 11.2188H10.9551C10.7676 11.2188 10.6426 11.0625 10.6426 10.9062C10.6426 10.75 10.7988 10.5938 10.9551 10.5938H11.2988C11.4863 10.5938 11.6113 10.75 11.6113 10.9062C11.6113 11.0625 11.4551 11.2188 11.2988 11.2188ZM15.8926 13.2812H10.9551C10.7676 13.2812 10.6426 13.125 10.6426 12.9688C10.6426 12.8125 10.7988 12.6562 10.9551 12.6562H15.8926C16.0801 12.6562 16.2051 12.8125 16.2051 12.9688C16.2051 13.125 16.0488 13.2812 15.8926 13.2812ZM15.8926 15.3438H2.64258C2.45508 15.3438 2.33008 15.1875 2.33008 15.0312C2.33008 14.875 2.48633 14.7188 2.64258 14.7188H15.8926C16.0801 14.7188 16.2051 14.875 16.2051 15.0312C16.2051 15.1875 16.0488 15.3438 15.8926 15.3438ZM15.8926 17.4062H2.64258C2.45508 17.4062 2.33008 17.25 2.33008 17.0938C2.33008 16.9375 2.48633 16.7812 2.64258 16.7812H15.8926C16.0801 16.7812 16.2051 16.9375 16.2051 17.0938C16.2051 17.25 16.0488 17.4062 15.8926 17.4062ZM15.4551 11.3438H14.9551C14.5488 11.3438 14.2051 11.0312 14.1426 10.6562L14.0176 9.875C14.0176 9.8125 13.9551 9.78125 13.9238 9.75C13.7988 9.71875 13.7051 9.65625 13.5801 9.625C13.5176 9.59375 13.4863 9.59375 13.4238 9.625L12.7988 10.0938C12.4863 10.3125 12.0176 10.2812 11.7363 10L11.3613 9.625C11.0801 9.34375 11.0488 8.90625 11.2676 8.5625L11.7363 7.9375C11.7676 7.875 11.7676 7.8125 11.7363 7.78125C11.6738 7.6875 11.6426 7.5625 11.5801 7.4375C11.5488 7.375 11.5176 7.34375 11.4551 7.34375L10.7051 7.21875C10.2988 7.15625 10.0176 6.8125 10.0176 6.40625V5.875C10.0176 5.46875 10.2988 5.125 10.7051 5.0625L11.4551 4.9375C11.5176 4.9375 11.5488 4.875 11.5801 4.84375C11.6113 4.71875 11.6738 4.625 11.7363 4.5C11.7676 4.4375 11.7676 4.375 11.7363 4.34375L11.2676 3.71875C11.0176 3.40625 11.0801 2.96875 11.3301 2.65625L11.7051 2.28125C11.9863 2 12.4551 1.96875 12.7676 2.21875L13.3613 2.6875C13.4238 2.75 13.4863 2.71875 13.5176 2.6875C13.6426 2.625 13.7363 2.59375 13.8613 2.53125C13.9238 2.5 13.9551 2.46875 13.9863 2.40625L14.1113 1.625C14.2051 1.25 14.5488 0.9375 14.9551 0.9375H15.4551C15.8613 0.9375 16.2051 1.25 16.2676 1.625L16.3926 2.40625C16.3926 2.46875 16.4551 2.5 16.4863 2.53125C16.6113 2.5625 16.7051 2.625 16.8301 2.65625C16.8926 2.6875 16.9238 2.6875 16.9863 2.65625L17.6113 2.1875C17.9238 1.9375 18.3926 2 18.6738 2.28125L19.0488 2.65625C19.3301 2.9375 19.3613 3.375 19.1426 3.71875L18.6738 4.34375C18.6426 4.40625 18.6426 4.46875 18.6738 4.5C18.7363 4.59375 18.7676 4.71875 18.8301 4.84375C18.8613 4.90625 18.8926 4.9375 18.9551 4.9375L19.7051 5.0625C20.1113 5.125 20.3926 5.46875 20.3926 5.875V6.40625C20.3926 6.8125 20.1113 7.15625 19.7051 7.21875L18.9551 7.34375C18.8926 7.34375 18.8613 7.40625 18.8301 7.4375C18.7988 7.5625 18.7363 7.65625 18.7051 7.78125C18.6738 7.84375 18.6738 7.90625 18.7051 7.96875L19.1738 8.59375C19.3926 8.90625 19.3613 9.34375 19.1113 9.65625L18.6426 10C18.3613 10.2812 17.8926 10.3125 17.5801 10.0625L16.9863 9.59375C16.9238 9.53125 16.8613 9.5625 16.8301 9.59375C16.7051 9.65625 16.6113 9.6875 16.4863 9.75C16.4238 9.78125 16.3926 9.8125 16.3926 9.875L16.2676 10.6562C16.2051 11.0312 15.8613 11.3438 15.4551 11.3438ZM13.4863 8.9375C13.6113 8.9375 13.7363 8.96875 13.8301 9.03125C13.9238 9.0625 14.0176 9.125 14.1113 9.15625C14.3926 9.25 14.5801 9.5 14.6426 9.78125L14.7676 10.5625C14.7676 10.6562 14.8613 10.7188 14.9238 10.7188H15.4238C15.5176 10.7188 15.5801 10.6562 15.5801 10.5938L15.7051 9.8125C15.7363 9.53125 15.9551 9.28125 16.2363 9.1875C16.3301 9.15625 16.4238 9.125 16.5176 9.0625C16.7676 8.9375 17.1113 8.96875 17.3613 9.15625L17.9863 9.625C18.0801 9.6875 18.1426 9.65625 18.2051 9.59375L18.5801 9.21875C18.6426 9.15625 18.6426 9.0625 18.5801 9L18.1113 8.375C17.9238 8.125 17.8926 7.8125 18.0176 7.5625C18.0488 7.46875 18.1113 7.375 18.1426 7.28125C18.2363 7 18.4863 6.78125 18.7676 6.75L19.5176 6.625C19.6113 6.625 19.6426 6.53125 19.6426 6.46875V5.9375C19.6426 5.84375 19.5801 5.78125 19.5176 5.78125L18.7676 5.65625C18.4863 5.625 18.2363 5.40625 18.1426 5.125C18.1113 5.03125 18.0801 4.9375 18.0176 4.84375C17.8926 4.5625 17.9238 4.25 18.0801 4L18.5488 3.375C18.6113 3.3125 18.5801 3.21875 18.5488 3.15625L18.1738 2.78125C18.1426 2.75 18.0801 2.71875 18.0488 2.71875C18.0176 2.71875 17.9863 2.71875 17.9551 2.75L17.3613 3.21875C17.1426 3.40625 16.7988 3.4375 16.5176 3.3125C16.4238 3.28125 16.3301 3.21875 16.2363 3.1875C15.9551 3.09375 15.7676 2.84375 15.7051 2.5625L15.5801 1.78125C15.5801 1.6875 15.4863 1.625 15.4238 1.625H14.9238C14.8301 1.625 14.7676 1.6875 14.7676 1.75L14.6738 2.5C14.6426 2.78125 14.4238 3.03125 14.1426 3.125C14.0488 3.15625 13.9551 3.1875 13.8613 3.25C13.6113 3.375 13.2676 3.34375 13.0176 3.15625L12.3926 2.6875C12.2988 2.59375 12.2363 2.65625 12.1738 2.71875L11.7988 3.09375C11.7363 3.15625 11.7363 3.25 11.7988 3.3125L12.2676 3.9375C12.4238 4.1875 12.4551 4.5 12.3301 4.75C12.2988 4.84375 12.2363 4.9375 12.2051 5.03125C12.1113 5.3125 11.8613 5.53125 11.5801 5.5625L10.8301 5.6875C10.7363 5.6875 10.7051 5.78125 10.7051 5.84375V6.375C10.7051 6.46875 10.7676 6.53125 10.8301 6.53125L11.5801 6.65625C11.8613 6.6875 12.1113 6.90625 12.2051 7.1875C12.2363 7.28125 12.2676 7.375 12.3301 7.46875C12.4551 7.75 12.4238 8.0625 12.2363 8.3125L11.7676 8.9375C11.7051 9 11.7363 9.09375 11.7676 9.15625L12.1426 9.53125C12.2051 9.59375 12.2676 9.625 12.3613 9.5625L12.9863 9.09375C13.1426 9 13.3301 8.9375 13.4863 8.9375Z" fill="white"/>
<path d="M15.2051 8.21875C14.9301 8.21875 14.6579 8.1646 14.4038 8.05935C14.1498 7.95415 13.919 7.79995 13.7246 7.6055C13.5301 7.4111 13.3759 7.18025 13.2707 6.92625C13.1655 6.6722 13.1113 6.39995 13.1113 6.125C13.1113 5.85005 13.1655 5.5778 13.2707 5.32375C13.3759 5.06975 13.5301 4.83892 13.7246 4.6445C13.919 4.45008 14.1498 4.29585 14.4038 4.19063C14.6579 4.08541 14.9301 4.03125 15.2051 4.03125C15.7604 4.03125 16.2929 4.25184 16.6856 4.6445C17.0782 5.03715 17.2988 5.5697 17.2988 6.125C17.2988 6.6803 17.0782 7.21285 16.6856 7.6055C16.2929 7.99815 15.7604 8.21875 15.2051 8.21875ZM15.2051 4.6875C14.3926 4.6875 13.7676 5.34375 13.7676 6.125C13.7676 6.9375 14.4238 7.5625 15.2051 7.5625C15.9863 7.5625 16.6426 6.90625 16.6426 6.125C16.6426 5.34375 15.9863 4.6875 15.2051 4.6875Z" fill="white"/>
</g>
</g>
<defs>
<clipPath id="clip0_311_3847">
<rect width="20" height="20" fill="white" transform="translate(0.330078)"/>
</clipPath>
</defs>
</svg>
