<svg width="21" height="20" viewBox="0 0 21 20" fill="none" xmlns="http://www.w3.org/2000/svg">
<g clip-path="url(#clip0_311_3860)">
<g clip-path="url(#clip1_311_3860)">
<path d="M2.12287 3.75C1.87473 3.75124 1.63709 3.85028 1.46152 4.02563C1.28595 4.20099 1.18661 4.4385 1.18506 4.68664V13.4376C1.18506 13.9514 1.60908 14.3742 2.12287 14.3742H6.50366C6.49501 14.4439 6.48156 14.513 6.46351 14.5809C6.39026 14.8609 6.21191 15.2352 5.75721 15.6238H5.24695C4.83001 15.6238 4.83001 16.2498 5.24695 16.2498H8.99821C9.41516 16.2498 9.41516 15.6238 8.99821 15.6238H6.62176C6.86511 15.3085 6.99976 15.0002 7.06826 14.7392C7.10366 14.6022 7.11786 14.4829 7.12496 14.3742H8.99821C9.42106 14.3801 9.42106 13.7435 8.99821 13.7494H2.12287C2.08156 13.7506 2.04045 13.7432 2.00204 13.728C1.96363 13.7127 1.92873 13.6898 1.89945 13.6607C1.87017 13.6315 1.84713 13.5967 1.83173 13.5583C1.81633 13.52 1.8089 13.4789 1.80987 13.4376V11.875H8.99821C9.42106 11.8809 9.42106 11.2442 8.99821 11.249H1.80987V4.68782C1.80987 4.51065 1.94452 4.376 2.12287 4.376H13.9979C14.1763 4.376 14.3109 4.50947 14.3109 4.68782C14.305 5.11065 14.9416 5.11065 14.9357 4.68782C14.9342 4.43968 14.8348 4.20216 14.6593 4.02681C14.4837 3.85146 14.2461 3.75242 13.9979 3.75118L2.12287 3.75ZM10.8715 5.6221C10.6229 5.62365 10.385 5.72305 10.2092 5.8988C10.0335 6.0746 9.93401 6.3125 9.93246 6.5611V15.312C9.93246 15.8258 10.3577 16.2475 10.8715 16.2475H14.6204C15.0373 16.2475 15.0373 15.6227 14.6204 15.6227H10.8727C10.8315 15.6238 10.7904 15.6165 10.7521 15.6013C10.7138 15.5862 10.6789 15.5634 10.6497 15.5344C10.6204 15.5053 10.5974 15.4706 10.5819 15.4324C10.5664 15.3942 10.5589 15.3532 10.5597 15.312V13.7494H14.6227C15.0385 13.7494 15.0385 13.1246 14.6227 13.1246H10.5597V7.50005H16.8114V8.43905C16.8114 8.856 17.4362 8.856 17.4362 8.43905V6.56225C17.4346 6.3137 17.3352 6.07575 17.1594 5.9C16.9837 5.72425 16.7457 5.6248 16.4972 5.62325L10.8715 5.6221ZM2.74178 6.24335C2.70058 6.24395 2.6599 6.2527 2.62208 6.2691C2.58426 6.28545 2.55005 6.30915 2.52141 6.3388C2.49276 6.3684 2.47026 6.4034 2.45517 6.44175C2.44009 6.4801 2.43273 6.52105 2.43351 6.56225V7.1871C2.43351 7.60285 3.0595 7.60285 3.0595 7.1871V6.5611C3.0603 6.5191 3.05264 6.47735 3.03697 6.4384C3.0213 6.3994 2.99794 6.364 2.9683 6.3342C2.93865 6.30445 2.90331 6.281 2.8644 6.26515C2.82548 6.24935 2.78378 6.2427 2.74178 6.24335ZM10.8715 6.2481H16.496C16.5374 6.2471 16.5786 6.25455 16.6171 6.2699C16.6556 6.2853 16.6905 6.3083 16.7199 6.33755C16.7492 6.3668 16.7724 6.40165 16.7879 6.44005C16.8034 6.4785 16.811 6.51965 16.8102 6.5611V6.8729H10.5597V6.5611C10.5589 6.51975 10.5664 6.4787 10.5819 6.44035C10.5973 6.402 10.6203 6.3672 10.6496 6.33795C10.6788 6.30875 10.7136 6.2857 10.7519 6.27025C10.7903 6.25485 10.8313 6.2473 10.8727 6.2481H10.8715ZM2.74296 8.12015C2.70176 8.1208 2.66108 8.12955 2.62326 8.1459C2.58544 8.1623 2.55123 8.18595 2.52259 8.2156C2.49395 8.2452 2.47144 8.2802 2.45635 8.31855C2.44127 8.3569 2.43391 8.39785 2.43469 8.43905V10.3111C2.43469 10.7281 3.06069 10.7281 3.06069 10.3111V8.4379C3.06148 8.3959 3.05382 8.35415 3.03815 8.3152C3.02248 8.2762 2.99912 8.2408 2.96948 8.21105C2.93983 8.1813 2.90449 8.1578 2.86558 8.142C2.82666 8.12615 2.78496 8.1195 2.74296 8.12015ZM11.4939 8.12015C11.4526 8.12065 11.4118 8.12925 11.3739 8.14555C11.3359 8.16185 11.3016 8.18555 11.2728 8.21515C11.244 8.2448 11.2214 8.27985 11.2063 8.3183C11.1911 8.3567 11.1837 8.39775 11.1845 8.43905V9.0627C11.1845 9.47965 11.8105 9.47965 11.8105 9.0627V8.4379C11.8113 8.396 11.8036 8.35435 11.788 8.31545C11.7725 8.27655 11.7492 8.2412 11.7197 8.21145C11.6902 8.1817 11.655 8.1582 11.6162 8.1423C11.5774 8.12645 11.5358 8.1197 11.4939 8.12015ZM16.4972 9.3745C16.2492 9.37575 16.0116 9.47485 15.8363 9.65025C15.6609 9.8256 15.5618 10.0631 15.5606 10.3111V15.3132C15.5606 15.827 15.9834 16.2486 16.4972 16.2486H18.9976C19.2455 16.2477 19.4831 16.1489 19.6585 15.9738C19.8339 15.7985 19.933 15.5611 19.9343 15.3132V10.3111C19.9333 10.063 19.8343 9.82535 19.6589 9.6499C19.4834 9.47445 19.2458 9.37545 18.9976 9.3745H16.4972ZM11.4939 9.9958C11.4529 9.9961 11.4123 10.0045 11.3745 10.0205C11.3367 10.0365 11.3025 10.0599 11.2737 10.0892C11.245 10.1185 11.2223 10.1532 11.207 10.1913C11.1917 10.2294 11.184 10.2701 11.1845 10.3111V12.1868C11.1845 12.6037 11.8105 12.6037 11.8105 12.1868V10.3111C11.811 10.2695 11.8031 10.2282 11.7873 10.1896C11.7716 10.1511 11.7483 10.116 11.7188 10.0866C11.6893 10.0573 11.6542 10.0341 11.6155 10.0185C11.5769 10.0029 11.5356 9.99515 11.4939 9.9958ZM16.4972 10.0005H18.9976C19.1772 10.0005 19.3094 10.1328 19.3094 10.3111V10.6253H16.1866V10.3111C16.1866 10.1328 16.3188 9.99935 16.4972 9.99935V10.0005ZM16.1866 11.2501H19.3094V14.3742H16.1866V11.2501ZM7.74741 13.1258H8.37341C8.78916 13.1258 8.78916 12.4998 8.37341 12.4998H7.73206C7.30091 12.521 7.33046 13.1459 7.74741 13.1258ZM13.3743 14.3742C12.9574 14.3742 12.9574 14.9991 13.3743 14.9991H14.0003C14.416 14.9991 14.416 14.373 14.0003 14.373L13.3743 14.3742ZM16.1854 14.9991H19.3094V15.3132C19.3106 15.3545 19.3033 15.3955 19.288 15.4339C19.2728 15.4722 19.2498 15.5071 19.2207 15.5363C19.1915 15.5654 19.1566 15.5883 19.1183 15.6036C19.0799 15.6189 19.0389 15.6262 18.9976 15.625H16.4972C16.456 15.626 16.4151 15.6186 16.3769 15.6032C16.3387 15.5879 16.304 15.565 16.2749 15.5358C16.2459 15.5066 16.2231 15.4719 16.2079 15.4336C16.1927 15.3954 16.1854 15.3544 16.1866 15.3132L16.1854 14.9991Z" fill="white"/>
</g>
</g>
<defs>
<clipPath id="clip0_311_3860">
<rect width="20" height="20" fill="white" transform="translate(0.560059)"/>
</clipPath>
<clipPath id="clip1_311_3860">
<rect width="20" height="20" fill="white" transform="translate(0.560059)"/>
</clipPath>
</defs>
</svg>
