<svg width="20" height="20" viewBox="0 0 20 20" fill="none" xmlns="http://www.w3.org/2000/svg">
<g clip-path="url(#clip0_311_3870)">
<mask id="mask0_311_3870" style="mask-type:luminance" maskUnits="userSpaceOnUse" x="0" y="0" width="20" height="20">
<path d="M20 0H0V20H20V0Z" fill="white"/>
</mask>
<g mask="url(#mask0_311_3870)">
<path d="M13.3112 1.59766H8.20951C8.17046 1.59765 8.13176 1.60533 8.09571 1.62027C8.05961 1.63521 8.02686 1.65711 7.99921 1.68473C7.97161 1.71234 7.94971 1.74512 7.93476 1.7812C7.91981 1.81728 7.91216 1.85595 7.91216 1.895C7.91216 1.93405 7.91986 1.97272 7.93476 2.0088C7.94971 2.04487 7.97161 2.07766 7.99926 2.10527C8.02686 2.13288 8.05961 2.15478 8.09571 2.16972C8.13181 2.18466 8.17046 2.19235 8.20951 2.19235H13.3112C13.3502 2.19235 13.3889 2.18466 13.425 2.16972C13.4611 2.15478 13.4939 2.13288 13.5215 2.10527C13.5491 2.07766 13.571 2.04488 13.5859 2.0088C13.6009 1.97272 13.6086 1.93405 13.6086 1.895C13.6086 1.85595 13.6009 1.81729 13.586 1.78121C13.571 1.74513 13.5491 1.71235 13.5215 1.68474C13.4939 1.65713 13.4611 1.63522 13.425 1.62028C13.389 1.60534 13.3503 1.59765 13.3112 1.59766ZM10.4814 2.86481H8.20946C8.17041 2.8648 8.13176 2.87249 8.09566 2.88743C8.05961 2.90237 8.02681 2.92427 7.99921 2.95189C7.97161 2.9795 7.94966 3.01228 7.93476 3.04836C7.91981 3.08443 7.91211 3.1231 7.91211 3.16215C7.91211 3.2012 7.91981 3.23987 7.93476 3.27595C7.94966 3.31202 7.97161 3.3448 7.99921 3.37242C8.02681 3.40003 8.05961 3.42193 8.09566 3.43687C8.13176 3.45181 8.17041 3.4595 8.20946 3.45949H10.4814C10.6457 3.45949 10.7787 3.32641 10.7787 3.16215C10.7787 2.99789 10.6456 2.86481 10.4814 2.86481Z" fill="white"/>
<path d="M18.7157 2.91676C18.6767 2.91675 18.6381 2.92444 18.6019 2.93938C18.5658 2.95432 18.5331 2.97622 18.5055 3.00383C18.4778 3.03145 18.4559 3.06423 18.441 3.10031C18.4261 3.13638 18.4184 3.17505 18.4184 3.2141C18.4184 3.25315 18.4261 3.29182 18.441 3.32789C18.4559 3.36397 18.4778 3.39675 18.5055 3.42437C18.5331 3.45198 18.5658 3.47388 18.6019 3.48882C18.6381 3.50377 18.6767 3.51145 18.7157 3.51145C19.0083 3.51145 19.2463 3.74941 19.2463 4.04195V12.4905H17.0762V3.5114H17.5717C17.6107 3.51141 17.6494 3.50373 17.6855 3.48879C17.7216 3.47384 17.7543 3.45194 17.782 3.42433C17.8096 3.39671 17.8315 3.36393 17.8465 3.32786C17.8614 3.29178 17.869 3.25311 17.869 3.21406C17.869 3.17501 17.8614 3.13635 17.8465 3.10027C17.8315 3.06419 17.8096 3.03141 17.782 3.00379C17.7543 2.97618 17.7216 2.95429 17.6855 2.93934C17.6494 2.9244 17.6107 2.91671 17.5717 2.91672H17.0762V0.8934C17.0762 0.400782 16.6754 0 16.1828 0H3.73711C3.24449 0 2.84371 0.400782 2.84371 0.8934V2.91676H1.2834C0.66297 2.91676 0.158203 3.42153 0.158203 4.04195V15.5278C0.158203 16.1483 0.66297 16.653 1.2834 16.653H3.11457C3.15362 16.653 3.19229 16.6453 3.22836 16.6304C3.26444 16.6154 3.29723 16.5935 3.32484 16.566C3.35245 16.5383 3.37435 16.5056 3.38929 16.4694C3.40423 16.4334 3.41192 16.3947 3.41192 16.3556C3.41192 16.3166 3.40423 16.278 3.38929 16.2418C3.37435 16.2058 3.35245 16.173 3.32484 16.1454C3.29723 16.1178 3.26444 16.0959 3.22836 16.0809C3.19229 16.066 3.15362 16.0583 3.11457 16.0583H1.2834C0.99086 16.0583 0.75289 15.8203 0.75289 15.5278V13.0851H19.2462V15.5278C19.2462 15.8203 19.0082 16.0583 18.7157 16.0583H4.51539C4.47634 16.0583 4.43767 16.066 4.4016 16.0809C4.36552 16.0959 4.33274 16.1178 4.30513 16.1454C4.27752 16.173 4.25561 16.2058 4.24067 16.2418C4.22573 16.278 4.21804 16.3166 4.21805 16.3556C4.21804 16.3947 4.22573 16.4334 4.24067 16.4694C4.25561 16.5056 4.27752 16.5383 4.30513 16.566C4.33274 16.5935 4.36552 16.6154 4.4016 16.6304C4.43767 16.6453 4.47634 16.653 4.51539 16.653H7.5625V18.2286C6.76165 18.2429 6.1144 18.8985 6.1144 19.7027C6.11435 19.7417 6.12205 19.7803 6.137 19.8165C6.15195 19.8526 6.17385 19.8853 6.20145 19.9129C6.22905 19.9406 6.26185 19.9625 6.2979 19.9774C6.334 19.9923 6.37265 20 6.4117 20H13.5874C13.6265 20 13.6651 19.9923 13.7012 19.9774C13.7373 19.9625 13.7701 19.9406 13.7977 19.9129C13.8253 19.8853 13.8472 19.8526 13.8622 19.8165C13.8771 19.7803 13.8848 19.7417 13.8848 19.7027C13.8848 18.8985 13.2375 18.2429 12.4367 18.2286V16.653H18.7157C19.3361 16.653 19.841 16.1483 19.841 15.5278V4.04195C19.8409 3.42153 19.3361 2.91676 18.7157 2.91676ZM2.84371 12.4905H0.75289V4.04195C0.75289 3.74941 0.99086 3.51145 1.2834 3.51145H2.84371V12.4905ZM16.4815 4.34403H6.35225C6.3132 4.34402 6.27455 4.35171 6.23845 4.36664C6.2024 4.38159 6.1696 4.40349 6.142 4.4311C6.1144 4.45871 6.0925 4.4915 6.07755 4.52758C6.0626 4.56365 6.0549 4.60232 6.0549 4.64137C6.0549 4.68042 6.0626 4.71909 6.07755 4.75517C6.09245 4.79125 6.1144 4.82403 6.142 4.85164C6.1696 4.87925 6.2024 4.90116 6.23845 4.9161C6.27455 4.93104 6.3132 4.93872 6.35225 4.93871H16.4815V12.4905H3.43836V4.93871H4.8061C4.84515 4.93871 4.88381 4.93103 4.91989 4.91608C4.95597 4.90114 4.98874 4.87924 5.01635 4.85163C5.04395 4.82402 5.06585 4.79124 5.0808 4.75516C5.09575 4.71908 5.10345 4.68042 5.10345 4.64137C5.10345 4.60231 5.09575 4.56364 5.0808 4.52757C5.0659 4.49149 5.044 4.4587 5.01635 4.43109C4.98876 4.40348 4.95598 4.38157 4.9199 4.36663C4.88382 4.3517 4.84515 4.34402 4.8061 4.34403H3.43836V0.8934C3.43836 0.72867 3.57235 0.59469 3.73707 0.59469H16.1828C16.3475 0.59469 16.4815 0.72867 16.4815 0.8934V4.34403ZM8.15715 16.653H11.842V18.2279H8.15715V16.653ZM13.2384 19.4053H6.76075C6.88295 19.0659 7.20815 18.8226 7.5891 18.8226H12.4101C12.791 18.8226 13.1162 19.0659 13.2384 19.4053Z" fill="white"/>
<path d="M10.1594 13.6734C9.6639 13.6734 9.2608 14.0765 9.2608 14.572C9.2608 15.0675 9.6639 15.4706 10.1594 15.4706C10.655 15.4706 11.058 15.0675 11.058 14.572C11.058 14.0765 10.6549 13.6734 10.1594 13.6734ZM10.1594 14.8759C9.99185 14.876 9.8555 14.7396 9.8555 14.572C9.8555 14.4044 9.99185 14.2681 10.1594 14.2681C10.327 14.2681 10.4634 14.4044 10.4634 14.572C10.4634 14.7396 10.327 14.8759 10.1594 14.8759ZM6.6939 3.07571L5.7152 1.38059C5.6891 1.33539 5.65155 1.29786 5.60635 1.27176C5.56115 1.24567 5.5099 1.23193 5.4577 1.23193C5.4055 1.23193 5.35425 1.24567 5.30905 1.27176C5.26385 1.29786 5.2263 1.33539 5.2002 1.38059L4.22154 3.07571C4.19541 3.12091 4.18166 3.17219 4.18164 3.22439C4.18163 3.27659 4.19537 3.32788 4.22147 3.37309C4.24757 3.4183 4.28512 3.45584 4.33033 3.48193C4.37554 3.50802 4.42683 3.52175 4.47904 3.52172H6.4364C6.4886 3.52174 6.5399 3.50801 6.5851 3.48191C6.6303 3.45582 6.66785 3.41828 6.69395 3.37307C6.72005 3.32786 6.7338 3.27658 6.73375 3.22438C6.73375 3.17218 6.72 3.1209 6.6939 3.07571ZM4.994 2.92708L5.4577 2.12395L5.9214 2.92708H4.994ZM15.6057 6.03534H11.2995C11.2604 6.03534 11.2217 6.04304 11.1857 6.05799C11.1496 6.07294 11.1168 6.09484 11.0892 6.12244C11.0616 6.15004 11.0397 6.18284 11.0247 6.21889C11.0098 6.25499 11.0021 6.29364 11.0021 6.33269C11.0021 6.37174 11.0098 6.41044 11.0247 6.44649C11.0397 6.48259 11.0616 6.51534 11.0892 6.54294C11.1168 6.57059 11.1496 6.59249 11.1857 6.60744C11.2217 6.62234 11.2604 6.63004 11.2995 6.63004H15.6057C15.6447 6.63004 15.6834 6.62234 15.7195 6.60744C15.7555 6.59249 15.7883 6.57059 15.8159 6.54294C15.8435 6.51534 15.8654 6.48259 15.8804 6.44649C15.8953 6.41044 15.903 6.37174 15.903 6.33269C15.903 6.29364 15.8953 6.25499 15.8804 6.21889C15.8654 6.18284 15.8435 6.15004 15.8159 6.12244C15.7883 6.09484 15.7555 6.07294 15.7195 6.05799C15.6834 6.04304 15.6447 6.03534 15.6057 6.03534ZM15.6057 7.34304H11.2995C11.2604 7.34304 11.2217 7.35074 11.1857 7.36569C11.1496 7.38059 11.1168 7.40254 11.0892 7.43014C11.0616 7.45774 11.0397 7.49054 11.0247 7.52659C11.0098 7.56269 11.0021 7.60134 11.0021 7.64039C11.0021 7.67944 11.0098 7.71809 11.0247 7.75419C11.0397 7.79029 11.0616 7.82304 11.0892 7.85069C11.1168 7.87829 11.1496 7.90019 11.1856 7.91514C11.2217 7.93004 11.2604 7.93774 11.2995 7.93774H15.6057C15.6447 7.93774 15.6834 7.93004 15.7195 7.91509C15.7555 7.90019 15.7883 7.87829 15.8159 7.85064C15.8435 7.82304 15.8654 7.79029 15.8804 7.75419C15.8953 7.71809 15.903 7.67944 15.903 7.64039C15.903 7.60134 15.8953 7.56269 15.8804 7.52659C15.8654 7.49054 15.8435 7.45774 15.8159 7.43014C15.7883 7.40254 15.7555 7.38059 15.7195 7.36569C15.6834 7.35074 15.6447 7.34304 15.6057 7.34304ZM15.6057 8.65074H11.2995C11.2604 8.65074 11.2217 8.65844 11.1857 8.67339C11.1496 8.68829 11.1168 8.71019 11.0892 8.73784C11.0616 8.76544 11.0397 8.79824 11.0247 8.83429C11.0098 8.87039 11.0021 8.90904 11.0021 8.94809C11.0021 8.98714 11.0098 9.02579 11.0247 9.06189C11.0397 9.09794 11.0616 9.13074 11.0892 9.15834C11.1168 9.18599 11.1496 9.20789 11.1857 9.22279C11.2217 9.23774 11.2604 9.24544 11.2995 9.24544H15.6057C15.6447 9.24544 15.6834 9.23774 15.7195 9.22279C15.7555 9.20789 15.7883 9.18599 15.8159 9.15834C15.8435 9.13074 15.8654 9.09794 15.8804 9.06189C15.8953 9.02579 15.903 8.98714 15.903 8.94809C15.903 8.90904 15.8953 8.87039 15.8804 8.83429C15.8654 8.79824 15.8435 8.76544 15.8159 8.73784C15.7883 8.71019 15.7555 8.68829 15.7195 8.67339C15.6834 8.65844 15.6447 8.65074 15.6057 8.65074ZM15.6057 9.95844H11.2995C11.2604 9.95844 11.2217 9.96614 11.1857 9.98104C11.1496 9.99599 11.1168 10.0179 11.0892 10.0455C11.0616 10.0731 11.0397 10.1059 11.0247 10.142C11.0098 10.1781 11.0021 10.2167 11.0021 10.2558C11.0021 10.2948 11.0098 10.3335 11.0247 10.3696C11.0397 10.4056 11.0616 10.4384 11.0892 10.466C11.1168 10.4936 11.1496 10.5155 11.1857 10.5305C11.2217 10.5454 11.2604 10.5531 11.2995 10.5531H15.6057C15.6447 10.5531 15.6834 10.5454 15.7195 10.5305C15.7555 10.5155 15.7883 10.4936 15.8159 10.466C15.8435 10.4384 15.8654 10.4056 15.8804 10.3696C15.8953 10.3335 15.903 10.2948 15.903 10.2558C15.903 10.2167 15.8953 10.1781 15.8804 10.142C15.8654 10.1059 15.8435 10.0731 15.8159 10.0455C15.7883 10.0179 15.7555 9.99599 15.7195 9.98104C15.6834 9.96614 15.6447 9.95844 15.6057 9.95844ZM13.3116 11.2661H11.2995C11.2604 11.2661 11.2217 11.2738 11.1857 11.2887C11.1496 11.3037 11.1168 11.3256 11.0892 11.3532C11.0616 11.3808 11.0397 11.4136 11.0247 11.4497C11.0098 11.4857 11.0021 11.5244 11.0021 11.5635C11.0021 11.6025 11.0098 11.6412 11.0247 11.6773C11.0397 11.7133 11.0616 11.7461 11.0892 11.7737C11.1168 11.8013 11.1496 11.8232 11.1857 11.8382C11.2217 11.8531 11.2604 11.8608 11.2995 11.8608H13.3116C13.3506 11.8608 13.3893 11.8531 13.4254 11.8382C13.4614 11.8232 13.4942 11.8013 13.5218 11.7737C13.5494 11.7461 13.5713 11.7133 13.5863 11.6773C13.6012 11.6412 13.6089 11.6025 13.6089 11.5635C13.6089 11.5244 13.6012 11.4857 13.5863 11.4497C13.5714 11.4136 13.5495 11.3808 13.5218 11.3532C13.4942 11.3256 13.4614 11.3037 13.4254 11.2887C13.3893 11.2738 13.3506 11.2661 13.3116 11.2661ZM9.9603 5.78484H4.479C4.43995 5.78484 4.40128 5.79254 4.3652 5.80749C4.32913 5.82239 4.29634 5.84429 4.26873 5.87194C4.24112 5.89954 4.21922 5.93234 4.20428 5.96839C4.18934 6.00449 4.18165 6.04314 4.18165 6.08219V11.5635C4.18165 11.6025 4.18934 11.6412 4.20428 11.6773C4.21922 11.7133 4.24112 11.7461 4.26873 11.7737C4.29634 11.8013 4.32913 11.8232 4.3652 11.8382C4.40128 11.8531 4.43995 11.8608 4.479 11.8608H9.9603C9.99935 11.8608 10.038 11.8531 10.0741 11.8382C10.1101 11.8232 10.143 11.8013 10.1706 11.7737C10.1982 11.7461 10.2201 11.7133 10.235 11.6773C10.2499 11.6412 10.2577 11.6025 10.2577 11.5635V6.08219C10.2577 6.04314 10.2499 6.00449 10.235 5.96839C10.2201 5.93234 10.1982 5.89954 10.1706 5.87194C10.143 5.84429 10.1101 5.82239 10.0741 5.80749C10.038 5.79254 9.99935 5.78484 9.9603 5.78484ZM4.77638 6.37954H9.66295V9.48854C9.6298 9.48274 9.59655 9.47794 9.56315 9.47409C9.0449 9.41604 8.7469 9.62339 8.5074 9.78994C8.3276 9.91494 8.1723 10.0229 7.91225 10.044C7.49155 10.0785 7.2218 9.85489 6.88015 9.57224C6.4998 9.25764 6.06835 8.90149 5.38265 8.94279C5.17705 8.95529 4.97439 9.00254 4.77638 9.08359V6.37954ZM9.663 11.2661H4.77634V9.74789C4.98728 9.62049 5.20275 9.54949 5.4187 9.53639C5.8704 9.50884 6.1627 9.75059 6.5011 10.0305C6.87505 10.3398 7.2986 10.69 7.9603 10.6367C8.38015 10.6027 8.6389 10.4228 8.8469 10.2782C9.06015 10.1299 9.20125 10.0321 9.49705 10.0651C9.552 10.0712 9.60745 10.0816 9.663 10.096V11.2661Z" fill="white"/>
<path d="M8.0035 7.04346C7.50185 7.04346 7.09375 7.45156 7.09375 7.95321C7.09375 8.45481 7.50185 8.86291 8.0035 8.86291C8.5051 8.86291 8.9132 8.45481 8.9132 7.95321C8.9132 7.45156 8.5051 7.04346 8.0035 7.04346ZM8.0035 8.26826C7.82975 8.26826 7.6884 8.12691 7.6884 7.95321C7.6884 7.77946 7.82975 7.63811 8.0035 7.63811C8.1772 7.63811 8.31855 7.77946 8.31855 7.95321C8.31855 8.12691 8.1772 8.26826 8.0035 8.26826Z" fill="white"/>
</g>
</g>
<defs>
<clipPath id="clip0_311_3870">
<rect width="20" height="20" fill="white"/>
</clipPath>
</defs>
</svg>
