<svg width="21" height="20" viewBox="0 0 21 20" fill="none" xmlns="http://www.w3.org/2000/svg">
<g clip-path="url(#clip0_311_3883)">
<g clip-path="url(#clip1_311_3883)">
<g clip-path="url(#clip2_311_3883)">
<path d="M13.1523 9.6875C12.9051 9.6875 12.6634 9.7608 12.4579 9.89815C12.2523 10.0355 12.0921 10.2308 11.9975 10.4592C11.9029 10.6876 11.8781 10.9389 11.9263 11.1813C11.9746 11.4238 12.0936 11.6465 12.2684 11.8214C12.4433 11.9962 12.666 12.1152 12.9085 12.1635C13.1509 12.2117 13.4023 12.1869 13.6307 12.0924C13.8591 11.9978 14.0543 11.8375 14.1917 11.632C14.329 11.4264 14.4023 11.1847 14.4023 10.9375C14.4023 10.606 14.2706 10.2881 14.0362 10.0536C13.8018 9.8192 13.4838 9.6875 13.1523 9.6875ZM13.1523 11.5625C13.0287 11.5625 12.9079 11.5259 12.8051 11.4572C12.7023 11.3885 12.6222 11.2909 12.5749 11.1767C12.5276 11.0624 12.5152 10.9368 12.5393 10.8155C12.5635 10.6943 12.623 10.583 12.7104 10.4956C12.7978 10.4082 12.9092 10.3486 13.0304 10.3245C13.1516 10.3004 13.2773 10.3127 13.3915 10.3601C13.5057 10.4074 13.6033 10.4875 13.672 10.5903C13.7407 10.6931 13.7773 10.8139 13.7773 10.9375C13.7773 11.1033 13.7115 11.2622 13.5943 11.3794C13.4771 11.4966 13.3181 11.5625 13.1523 11.5625Z" fill="white"/>
<path d="M17.8398 6.24981H17.5023C17.52 6.14661 17.5283 6.04201 17.5273 5.93731C17.5267 5.35736 17.296 4.80133 16.8859 4.39123C16.4758 3.98114 15.9198 3.75046 15.3398 3.7498C14.8779 3.7482 14.4277 3.89499 14.0554 4.16855C13.6325 3.73395 13.102 3.41911 12.518 3.25605C12.4718 2.70974 12.2225 2.20059 11.8192 1.82915C11.416 1.45771 10.8881 1.25098 10.3398 1.2498C9.87789 1.2482 9.42769 1.39499 9.05544 1.66855C8.59749 1.19646 8.01374 0.865666 7.37344 0.715416C6.73309 0.565161 6.06314 0.601756 5.44299 0.820866C4.82284 1.03997 4.27858 1.43239 3.87477 1.95154C3.47097 2.4707 3.22458 3.09481 3.16484 3.7498H2.83984C2.34256 3.7498 1.86565 3.94734 1.51402 4.29897C1.16239 4.6506 0.964844 5.12751 0.964844 5.62481C0.964844 6.12206 1.16239 6.59901 1.51402 6.95061C1.86565 7.30226 2.34256 7.49981 2.83984 7.49981H6.07424C5.97309 7.78241 5.94149 8.08526 5.98209 8.38266C6.02264 8.68011 6.13424 8.96336 6.30744 9.20856C6.48059 9.45376 6.71024 9.65366 6.97699 9.79141C7.24369 9.92911 7.53964 10.0006 7.83984 9.99981H10.6148L10.5773 10.0092C10.5096 10.0259 10.4494 10.0649 10.4063 10.1198C10.3633 10.1748 10.3399 10.2425 10.3398 10.3123V10.6248H2.52734C2.35442 10.6245 2.18482 10.6722 2.03747 10.7627C1.89013 10.8532 1.77085 10.9829 1.69297 11.1373C1.62628 11.2691 1.59098 11.4146 1.58984 11.5623V17.4998H1.31484C1.26945 17.5001 1.22466 17.5102 1.18358 17.5295C1.1425 17.5488 1.10612 17.5769 1.07698 17.6117C1.04783 17.6464 1.02662 17.6872 1.01481 17.731C1.003 17.7748 1.00088 17.8207 1.00859 17.8654L1.15234 18.6654C1.15262 18.6772 1.15473 18.6888 1.15859 18.6998C1.21633 18.894 1.335 19.0645 1.49707 19.186C1.65914 19.3076 1.85601 19.3738 2.05859 19.3748H12.9961C13.1987 19.3738 13.3955 19.3076 13.5576 19.186C13.7197 19.0645 13.8383 18.894 13.8961 18.6998C13.8999 18.6888 13.9021 18.6772 13.9023 18.6654L14.0461 17.8654C14.0538 17.8207 14.0517 17.7748 14.0399 17.731C14.0281 17.6872 14.0068 17.6464 13.9777 17.6117C13.9485 17.5769 13.9122 17.5488 13.8711 17.5295C13.83 17.5102 13.7852 17.5001 13.7398 17.4998H13.4648V13.7498H13.7773C13.8471 13.7498 13.9149 13.7263 13.9698 13.6833C14.0248 13.6403 14.0637 13.5801 14.0805 13.5123L14.1336 13.3029L14.3179 13.4154C14.3776 13.4512 14.4476 13.466 14.5166 13.4575C14.5857 13.449 14.6499 13.4177 14.6992 13.3686L15.5836 12.4842C15.6327 12.4349 15.664 12.3707 15.6725 12.3016C15.681 12.2326 15.6662 12.1626 15.6304 12.1029L15.518 11.9186L15.7273 11.8654C15.7951 11.8487 15.8553 11.8097 15.8983 11.7548C15.9414 11.6999 15.9648 11.6321 15.9648 11.5623V10.3123C15.9648 10.2425 15.9414 10.1748 15.8983 10.1198C15.8553 10.0649 15.7951 10.0259 15.7273 10.0092L15.6898 9.99981H17.8398C18.3371 9.99981 18.814 9.80226 19.1656 9.45061C19.5173 9.09901 19.7148 8.62206 19.7148 8.12481C19.7148 7.62751 19.5173 7.15061 19.1656 6.79896C18.814 6.44736 18.3371 6.24981 17.8398 6.24981ZM6.44609 6.87481H2.83984C2.50832 6.87481 2.19038 6.74311 1.95596 6.50866C1.72154 6.27426 1.58984 5.95631 1.58984 5.62481C1.58984 5.29326 1.72154 4.97534 1.95596 4.74092C2.19038 4.50649 2.50832 4.3748 2.83984 4.3748H3.46484C3.54772 4.3748 3.62721 4.34187 3.68581 4.28327C3.74442 4.22466 3.77734 4.14518 3.77734 4.0623C3.77763 3.48038 3.95841 2.91288 4.29477 2.43803C4.63112 1.96317 5.10649 1.60433 5.65534 1.41098C6.20419 1.21763 6.79949 1.19929 7.35924 1.35848C7.91894 1.51767 8.41549 1.84655 8.78049 2.2998C8.80844 2.33376 8.84319 2.36157 8.88244 2.38147C8.92169 2.40137 8.96464 2.41293 9.00859 2.41542C9.05179 2.41736 9.09494 2.41031 9.13529 2.39471C9.17564 2.37911 9.21229 2.3553 9.24294 2.3248C9.44399 2.12628 9.69514 1.98607 9.96964 1.91916C10.2441 1.85225 10.5316 1.86114 10.8015 1.94488C11.0713 2.02862 11.3133 2.18407 11.5017 2.39464C11.6901 2.6052 11.8178 2.86297 11.8711 3.14042C11.7773 3.13105 11.6836 3.1248 11.5898 3.1248C10.7324 3.12579 9.90609 3.44663 9.27269 4.02458C8.63924 4.60253 8.24419 5.39601 8.16484 6.24981H7.83984C7.57669 6.25031 7.31654 6.30626 7.07644 6.41396C6.83629 6.52161 6.62154 6.67866 6.44609 6.87481ZM2.21484 11.5623C2.21583 11.5135 2.22757 11.4655 2.24922 11.4217C2.27484 11.3699 2.31449 11.3263 2.36366 11.2959C2.41283 11.2655 2.46954 11.2496 2.52734 11.2498H10.3398V11.5623C10.3399 11.6321 10.3633 11.6999 10.4063 11.7548C10.4494 11.8097 10.5096 11.8487 10.5773 11.8654L10.7867 11.9186L10.6742 12.1029C10.6385 12.1626 10.6237 12.2326 10.6321 12.3016C10.6406 12.3707 10.6719 12.4349 10.7211 12.4842L11.6054 13.3686C11.6547 13.4177 11.719 13.449 11.788 13.4575C11.8571 13.466 11.927 13.4512 11.9867 13.4154L12.1711 13.3029L12.2242 13.5123C12.2409 13.5801 12.2799 13.6403 12.3348 13.6833C12.3898 13.7263 12.4575 13.7498 12.5273 13.7498H12.8398V17.4998H8.46484C8.38194 17.4998 8.30249 17.5327 8.24389 17.5913C8.18524 17.65 8.15234 17.7294 8.15234 17.8123H6.90234C6.90234 17.7294 6.86944 17.65 6.81079 17.5913C6.75219 17.5327 6.67274 17.4998 6.58984 17.4998H2.21484V11.5623ZM13.2929 18.5373C13.2714 18.599 13.2313 18.6526 13.1782 18.6906C13.125 18.7287 13.0614 18.7493 12.9961 18.7498H2.05859C1.99323 18.7493 1.92962 18.7287 1.87648 18.6906C1.82333 18.6526 1.78324 18.599 1.76172 18.5373L1.68984 18.1248H6.27734C6.27734 18.2077 6.31024 18.2872 6.36889 18.3458C6.42749 18.4044 6.50694 18.4373 6.58984 18.4373H8.46484C8.54774 18.4373 8.62719 18.4044 8.68579 18.3458C8.74444 18.2872 8.77734 18.2077 8.77734 18.1248H13.3648L13.2929 18.5373ZM15.3398 11.3186L14.9586 11.4123C14.9113 11.4245 14.8675 11.4474 14.8306 11.4794C14.7937 11.5114 14.7648 11.5516 14.7461 11.5967C14.7274 11.6419 14.7194 11.6907 14.7226 11.7395C14.7259 11.7883 14.7403 11.8356 14.7648 11.8779L14.968 12.2154L14.4304 12.7529L14.0929 12.5498C14.0507 12.5253 14.0033 12.5109 13.9545 12.5076C13.9057 12.5044 13.8569 12.5124 13.8117 12.5311C13.7666 12.5498 13.7264 12.5787 13.6944 12.6156C13.6624 12.6524 13.6395 12.6963 13.6273 12.7436L13.5336 13.1248H12.7711L12.6773 12.7436C12.6652 12.6963 12.6422 12.6524 12.6102 12.6156C12.5782 12.5787 12.5381 12.5498 12.4929 12.5311C12.4478 12.5124 12.3989 12.5044 12.3501 12.5076C12.3014 12.5109 12.254 12.5253 12.2117 12.5498L11.8742 12.7529L11.3367 12.2154L11.5398 11.8779C11.5643 11.8356 11.5788 11.7883 11.582 11.7395C11.5853 11.6907 11.5772 11.6419 11.5586 11.5967C11.5399 11.5516 11.511 11.5114 11.4741 11.4794C11.4372 11.4474 11.3934 11.4245 11.3461 11.4123L10.9648 11.3186V10.5561L11.3461 10.4623C11.3934 10.4502 11.4372 10.4272 11.4741 10.3952C11.511 10.3632 11.5399 10.3231 11.5586 10.2779C11.5772 10.2328 11.5853 10.1839 11.582 10.1351C11.5788 10.0864 11.5643 10.039 11.5398 9.99666L11.3367 9.65916L11.8742 9.12166L12.2117 9.32166C12.2535 9.34736 12.3008 9.36276 12.3497 9.36656C12.3986 9.37036 12.4477 9.36251 12.4929 9.34356C12.5381 9.32486 12.5782 9.29596 12.6102 9.25906C12.6422 9.22216 12.6652 9.17836 12.6773 9.13106L12.7711 8.74981H13.5336L13.6273 9.13106C13.6395 9.17836 13.6624 9.22216 13.6944 9.25906C13.7264 9.29596 13.7666 9.32486 13.8117 9.34356C13.857 9.36251 13.9061 9.37036 13.955 9.36656C14.0039 9.36276 14.0512 9.34736 14.0929 9.32166L14.4304 9.12166L14.968 9.65916L14.7648 9.99666C14.7403 10.039 14.7259 10.0864 14.7226 10.1351C14.7194 10.1839 14.7274 10.2328 14.7461 10.2779C14.7648 10.3231 14.7937 10.3632 14.8306 10.3952C14.8675 10.4272 14.9113 10.4502 14.9586 10.4623L15.3398 10.5561V11.3186ZM17.8398 9.37481H15.5679L14.6992 8.50606C14.6499 8.45691 14.5857 8.42561 14.5166 8.41711C14.4476 8.40861 14.3776 8.42341 14.3179 8.45916L14.1336 8.57166L14.0805 8.36231C14.0637 8.29456 14.0248 8.23436 13.9698 8.19131C13.9149 8.14826 13.8471 8.12486 13.7773 8.12481H12.5273C12.4575 8.12486 12.3898 8.14826 12.3348 8.19131C12.2799 8.23436 12.2409 8.29456 12.2242 8.36231L12.1711 8.57166L11.9867 8.45916C11.927 8.42341 11.8571 8.40861 11.788 8.41711C11.719 8.42561 11.6547 8.45691 11.6054 8.50606L10.7367 9.37481H7.83984C7.50834 9.37481 7.19039 9.24311 6.95594 9.00866C6.72154 8.77426 6.58984 8.45631 6.58984 8.12481C6.58984 7.79326 6.72154 7.47536 6.95594 7.24091C7.19039 7.00651 7.50834 6.87481 7.83984 6.87481H8.46484C8.54774 6.87481 8.62719 6.84186 8.68579 6.78326C8.74444 6.72466 8.77734 6.64516 8.77734 6.56231C8.77764 5.98041 8.95839 5.41291 9.29479 4.93803C9.63114 4.46317 10.1065 4.10433 10.6553 3.91098C11.2042 3.71763 11.7995 3.69929 12.3592 3.85848C12.9189 4.01767 13.4155 4.34655 13.7804 4.7998C13.8084 4.83376 13.8432 4.86157 13.8824 4.88147C13.9217 4.90137 13.9646 4.91293 14.0086 4.91542C14.0518 4.91736 14.0949 4.91031 14.1353 4.89471C14.1756 4.87911 14.2123 4.8553 14.243 4.8248C14.4623 4.60855 14.7408 4.46197 15.0432 4.40349C15.3457 4.34501 15.6586 4.37724 15.9428 4.49612C16.227 4.61501 16.4697 4.81524 16.6404 5.07166C16.8112 5.32811 16.9023 5.62926 16.9023 5.93731C16.9009 6.11506 16.8702 6.29136 16.8117 6.45916C16.7951 6.50621 16.7899 6.55646 16.7964 6.60586C16.8029 6.65526 16.821 6.70246 16.8492 6.74356C16.8788 6.78386 16.9173 6.81671 16.9618 6.83951C17.0063 6.86226 17.0555 6.87436 17.1054 6.87481H17.8398C18.1713 6.87481 18.4893 7.00651 18.7237 7.24091C18.9581 7.47536 19.0898 7.79326 19.0898 8.12481C19.0898 8.45631 18.9581 8.77426 18.7237 9.00866C18.4893 9.24311 18.1713 9.37481 17.8398 9.37481Z" fill="white"/>
<path d="M17.5273 14.375C17.5273 14.6237 17.4286 14.8621 17.2527 15.0379C17.0769 15.2137 16.8385 15.3125 16.5898 15.3125H14.0898V15.9375H16.5898C17.0041 15.937 17.4012 15.7722 17.6941 15.4793C17.987 15.1864 18.1518 14.7892 18.1523 14.375V10.625H17.5273V14.375ZM7.21484 14.0625H7.83984V14.6875H7.21484V14.0625ZM8.46484 14.0625H9.08984V14.6875H8.46484V14.0625ZM5.96484 14.0625H6.58984V14.6875H5.96484V14.0625Z" fill="white"/>
</g>
</g>
</g>
<defs>
<clipPath id="clip0_311_3883">
<rect width="20" height="20" fill="white" transform="translate(0.339844)"/>
</clipPath>
<clipPath id="clip1_311_3883">
<rect width="20" height="20" fill="white" transform="translate(0.339844)"/>
</clipPath>
<clipPath id="clip2_311_3883">
<rect width="20" height="20" fill="white" transform="translate(0.339844)"/>
</clipPath>
</defs>
</svg>
