<svg width="69" height="60" viewBox="0 0 69 60" fill="none" xmlns="http://www.w3.org/2000/svg">
<g clip-path="url(#clip0_322_1213)">
<path fill-rule="evenodd" clip-rule="evenodd" d="M1.07129 5.71415C1.07129 3.14997 3.14996 1.07129 5.71415 1.07129H56.1594C58.7237 1.07129 60.8023 3.14997 60.8023 5.71415V15.4444H57.2309V5.71415C57.2309 5.12242 56.7513 4.64272 56.1594 4.64272H5.71415C5.12242 4.64272 4.64272 5.12242 4.64272 5.71415V37.9199C4.64272 38.5116 5.12242 38.9913 5.71415 38.9913H39.3087V42.5627H5.71415C3.14996 42.5627 1.07129 40.484 1.07129 37.9199V5.71415Z" fill="#DDDDDD"/>
<path fill-rule="evenodd" clip-rule="evenodd" d="M47.8571 27.8571V56.4285H64.9999V27.8571H47.8571ZM47.1428 24.2856C45.5648 24.2856 44.2856 25.5648 44.2856 27.1428V57.1428C44.2856 58.7208 45.5648 59.9999 47.1428 59.9999H65.7142C67.2922 59.9999 68.5714 58.7208 68.5714 57.1428V27.1428C68.5714 25.5648 67.2922 24.2856 65.7142 24.2856H47.1428Z" fill="#DDDDDD"/>
<path fill-rule="evenodd" clip-rule="evenodd" d="M27.7716 44.3483L25.7631 47.7387H36.1094L34.1008 44.3483H27.7716ZM26.5504 40.7769C26.0458 40.7769 25.5785 41.043 25.3214 41.4773L20.7739 49.1534C20.2098 50.1057 20.8962 51.3101 22.0031 51.3101H39.8695C40.9762 51.3101 41.6626 50.1057 41.0985 49.1534L36.5511 41.4773C36.2939 41.043 35.8266 40.7769 35.3221 40.7769H26.5504Z" fill="#DDDDDD"/>
<path d="M50.0001 10.7141C50.0001 11.8976 49.0406 12.857 47.8572 12.857C46.6738 12.857 45.7144 11.8976 45.7144 10.7141C45.7144 9.53067 46.6738 8.57129 47.8572 8.57129C49.0406 8.57129 50.0001 9.53067 50.0001 10.7141Z" fill="#DDDDDD"/>
<path d="M44.2857 10.7141C44.2857 11.8976 43.3263 12.857 42.1429 12.857C40.9594 12.857 40 11.8976 40 10.7141C40 9.53067 40.9594 8.57129 42.1429 8.57129C43.3263 8.57129 44.2857 9.53067 44.2857 10.7141Z" fill="#DDDDDD"/>
<path d="M38.5714 10.7141C38.5714 11.8976 37.6119 12.857 36.4285 12.857C35.2451 12.857 34.2856 11.8976 34.2856 10.7141C34.2856 9.53067 35.2451 8.57129 36.4285 8.57129C37.6119 8.57129 38.5714 9.53067 38.5714 10.7141Z" fill="#DDDDDD"/>
<path d="M58.5714 50.7141C58.5714 51.8976 57.6119 52.857 56.4285 52.857C55.2451 52.857 54.2856 51.8976 54.2856 50.7141C54.2856 49.5307 55.2451 48.5713 56.4285 48.5713C57.6119 48.5713 58.5714 49.5307 58.5714 50.7141Z" fill="#DDDDDD"/>
</g>
<defs>
<clipPath id="clip0_322_1213">
<rect width="68.5714" height="60" fill="white"/>
</clipPath>
</defs>
</svg>
