<svg width="62" height="60" viewBox="0 0 62 60" fill="none" xmlns="http://www.w3.org/2000/svg">
<path fill-rule="evenodd" clip-rule="evenodd" d="M13.0522 3.62633C12.3661 3.16153 11.5562 2.91348 10.7275 2.91428H4.26895C3.90968 2.91428 3.5651 3.057 3.31105 3.31105C3.05699 3.5651 2.91428 3.90968 2.91428 4.26896C2.91428 4.62825 3.05699 4.97281 3.31105 5.22686C3.5651 5.48092 3.90968 5.62363 4.26895 5.62363H11.6953L22.2558 32.1725L18.989 38.6147C18.6772 39.2442 18.5308 39.9427 18.5637 40.6444C18.5965 41.3478 18.8084 42.0314 19.1792 42.6301C19.5501 43.2288 20.0675 43.7231 20.6828 44.0658C21.298 44.4087 21.9905 44.5888 22.6948 44.5892H51.5898C51.9491 44.5892 52.2937 44.4465 52.5477 44.1924C52.8018 43.9384 52.9445 43.5938 52.9445 43.2345C52.9445 42.8752 52.8018 42.5307 52.5477 42.2765C52.2937 42.0225 51.9491 41.8798 51.5898 41.8798H20.3827L24.5934 33.4582L47.7992 33.4041C48.532 33.4024 49.2475 33.182 49.8541 32.771C50.4627 32.3588 50.9338 31.7738 51.2068 31.0914L57.4725 15.427C57.8711 14.4304 57.7138 13.2974 57.0588 12.4471C56.4841 11.7011 55.5957 11.264 54.654 11.264H16.8861L14.5777 5.52579L14.5758 5.52118C14.2691 4.75125 13.7384 4.09113 13.0522 3.62633ZM10.7255 0.0571315C12.1262 0.0559246 13.495 0.47526 14.6547 1.26085C15.814 2.04615 16.7108 3.16126 17.2292 4.46188L17.2301 4.46403L18.8164 8.40689H54.654C56.482 8.40689 58.2065 9.25528 59.3221 10.7034C60.5938 12.3541 60.8991 14.5535 60.1252 16.4881L53.8595 32.1524C53.3745 33.3648 52.5377 34.4041 51.4565 35.1365C50.3788 35.8665 49.1077 36.2582 47.8058 36.2612L26.3612 36.3112L25.0055 39.0227H51.5898C52.7068 39.0227 53.7781 39.4664 54.5681 40.2562C55.358 41.0462 55.8017 42.1175 55.8017 43.2345C55.8017 44.3515 55.358 45.4228 54.5681 46.2127C53.7781 47.0025 52.7068 47.4464 51.5898 47.4464H39.9611C41.111 47.635 42.1817 48.1791 43.0162 49.0137C44.0671 50.0645 44.6575 51.4898 44.6575 52.976C44.6575 54.0841 44.3288 55.1675 43.7131 56.089C43.0974 57.0105 42.2222 57.7287 41.1984 58.1528C40.1745 58.577 39.0478 58.6878 37.9608 58.4717C36.874 58.2555 35.8755 57.7218 35.0918 56.9381C34.3081 56.1545 33.7745 55.1561 33.5582 54.0691C33.3421 52.9821 33.453 51.8554 33.8771 50.8315C34.3012 49.8077 35.0195 48.9325 35.941 48.3168C36.6087 47.8707 37.3614 47.5752 38.1471 47.4464H26.0504C27.2002 47.635 28.271 48.1791 29.1055 49.0137C30.1564 50.0645 30.7468 51.4898 30.7468 52.976C30.7468 54.0841 30.4181 55.1675 29.8024 56.089C29.1867 57.0105 28.3115 57.7287 27.2877 58.1528C26.2638 58.577 25.1371 58.6878 24.0501 58.4717C22.9632 58.2555 21.9648 57.7218 21.1811 56.9381C20.3974 56.1545 19.8638 55.1561 19.6475 54.0691C19.4314 52.9821 19.5424 51.8554 19.9664 50.8315C20.3905 49.8077 21.1088 48.9325 22.0302 48.3168C22.698 47.8707 23.4508 47.5752 24.2364 47.4464H22.6941C21.5035 47.4457 20.3321 47.1413 19.2921 46.5617C18.252 45.9821 17.3771 45.1467 16.7502 44.1345C16.1234 43.1224 15.7651 41.967 15.7095 40.7777C15.654 39.5884 15.903 38.4047 16.4327 37.3384L16.438 37.328L19.1244 32.0304L9.75692 8.48078H4.26895C3.1519 8.48078 2.08062 8.03703 1.29074 7.24716C0.500873 6.45729 0.0571289 5.386 0.0571289 4.26896C0.0571289 3.1519 0.500873 2.08062 1.29074 1.29075C2.08062 0.500876 3.1519 0.0571315 4.26895 0.0571315H10.7255ZM25.1434 50.2295C24.6002 50.2295 24.0692 50.3907 23.6175 50.6924C23.166 50.9942 22.814 51.4231 22.6061 51.925C22.3982 52.4268 22.3438 52.979 22.4498 53.5117C22.5558 54.0444 22.8174 54.5337 23.2014 54.9178C23.5855 55.302 24.0748 55.5635 24.6075 55.6694C25.1402 55.7754 25.6925 55.721 26.1944 55.5131C26.6961 55.3052 27.1251 54.9533 27.4268 54.5017C27.7285 54.0501 27.8897 53.5191 27.8897 52.976C27.8897 52.2475 27.6004 51.549 27.0852 51.034C26.5702 50.519 25.8717 50.2295 25.1434 50.2295ZM39.0541 50.2295C38.5108 50.2295 37.98 50.3907 37.5282 50.6924C37.0767 50.9942 36.7247 51.4231 36.5168 51.925C36.309 52.4268 36.2545 52.979 36.3605 53.5117C36.4665 54.0444 36.7281 54.5338 37.1121 54.9178C37.4962 55.302 37.9855 55.5635 38.5182 55.6694C39.051 55.7754 39.6032 55.721 40.105 55.5131C40.6068 55.3052 41.0358 54.9533 41.3375 54.5017C41.6392 54.05 41.8004 53.5191 41.8004 52.976C41.8004 52.2475 41.511 51.549 40.996 51.034C40.481 50.519 39.7824 50.2295 39.0541 50.2295Z" fill="#DDDDDD"/>
<path fill-rule="evenodd" clip-rule="evenodd" d="M22.1431 17.8573C22.1431 17.0683 22.7826 16.4287 23.5716 16.4287H49.2859C50.0749 16.4287 50.7145 17.0683 50.7145 17.8573C50.7145 18.6463 50.0749 19.2859 49.2859 19.2859H23.5716C22.7826 19.2859 22.1431 18.6463 22.1431 17.8573ZM25.7145 25.7144C25.7145 24.9254 26.3541 24.2859 27.1431 24.2859H47.8574C48.6464 24.2859 49.2859 24.9254 49.2859 25.7144C49.2859 26.5034 48.6464 27.143 47.8574 27.143H27.1431C26.3541 27.143 25.7145 26.5034 25.7145 25.7144Z" fill="#DDDDDD"/>
</svg>
