<svg width="60" height="60" viewBox="0 0 60 60" fill="none" xmlns="http://www.w3.org/2000/svg">
<path fill-rule="evenodd" clip-rule="evenodd" d="M30.1774 14.7285L42.0003 22.2127V36.5979L30.1839 43.7455L17.9956 36.6093L18.0732 22.2759L30.1774 14.7285ZM21.0541 25.8051L28.6714 30.5547V39.3835L21.0051 34.8949L21.0541 25.8051ZM31.6714 39.3396L39.0003 34.9063V25.7958L31.6714 30.5382V39.3396ZM30.1564 27.9451L37.7178 23.0523L30.1653 18.2715L22.4037 23.1111L30.1564 27.9451Z" fill="#DDDDDD"/>
<path fill-rule="evenodd" clip-rule="evenodd" d="M46.2608 55.295L54.2795 47.127C54.408 46.996 54.4808 46.8163 54.4808 46.6288C54.4808 46.4413 54.408 46.2617 54.2795 46.1309L51.0777 42.8699C50.0243 41.7971 49.7114 40.1999 50.2821 38.8089C50.8611 37.3979 52.2351 36.4765 53.7602 36.4765H58.2036C58.5851 36.4765 58.8938 36.1622 58.8938 35.7735V24.2206C58.8938 23.832 58.5851 23.5176 58.2036 23.5176H53.7611C52.2269 23.5176 50.8464 22.5855 50.273 21.1625C49.7141 19.7754 50.0301 18.1891 51.0777 17.1222L54.2777 13.8633C54.4061 13.7324 54.479 13.5527 54.479 13.3672C54.479 13.1816 54.4061 13.002 54.2777 12.8711L46.2588 4.70313C45.9885 4.42773 45.5516 4.42773 45.2813 4.70313L42.101 7.94326C41.042 9.02232 39.4298 9.34203 38.039 8.74879C36.6857 8.17148 35.8074 6.84213 35.8074 5.37075V0.703125C35.8074 0.314452 35.4989 0 35.1173 0H23.7783C23.3969 0 23.0883 0.314452 23.0883 0.703125V5.36884C23.0883 6.85015 22.1987 8.18655 20.832 8.75814C19.4451 9.33823 17.8448 9.01483 16.7919 7.94175L13.6126 4.70117C13.4842 4.57032 13.3097 4.4961 13.1257 4.4961C12.9417 4.4961 12.7672 4.57031 12.6369 4.70313L4.62001 12.8711C4.34971 13.1465 4.34971 13.5899 4.62001 13.8652L7.81956 17.125C8.87316 18.1986 9.18573 19.7966 8.61424 21.188C8.03482 22.5986 6.66084 23.5196 5.13586 23.5196H0.694021C0.312541 23.5196 0.00390625 23.8339 0.00390625 24.2226V35.7755C0.00390625 36.1641 0.312541 36.4785 0.694021 36.4785H5.13567C6.67036 36.4785 8.05107 37.411 8.62413 38.8349C9.18219 40.2211 8.86629 41.8065 7.81944 42.8731L4.62001 46.1328C4.34971 46.4082 4.34971 46.8535 4.62001 47.129L12.6369 55.2969C12.9071 55.5723 13.3423 55.5723 13.6126 55.2969L16.7951 52.0555C17.8541 50.9771 19.4655 50.6573 20.8562 51.2496C22.2108 51.8267 23.0901 53.1569 23.0901 54.6294V59.2968C23.0901 59.6856 23.3988 60 23.7803 60H35.1192C35.5007 60 35.8094 59.6856 35.8094 59.2968V54.6269C35.8094 53.1459 36.699 51.8097 38.0654 51.2386C39.4514 50.6592 41.0504 50.9824 42.1026 52.0545L45.2831 55.295C45.5534 55.5704 45.9905 55.5704 46.2608 55.295ZM50.5605 13.3671L45.7703 8.48769L44.2421 10.0447C42.3179 12.0052 39.3887 12.5861 36.8619 11.5082C34.403 10.4593 32.8074 8.04406 32.8074 5.37075V3H26.0883V5.36884C26.0883 8.05977 24.4722 10.4874 21.9897 11.5258C19.4703 12.5796 16.563 11.9921 14.6505 10.0428L13.1254 8.48823L8.33571 13.3682L9.9606 15.0237C11.8547 16.9536 12.4167 19.8264 11.3893 22.3278C10.3476 24.8637 7.87746 26.5196 5.13586 26.5196H3.00391V33.4785H5.13567C7.89471 33.4785 10.3769 35.1551 11.4071 37.7147C12.4104 40.2071 11.8425 43.057 9.96046 44.9745L8.33475 46.6308L13.125 51.5115L14.6545 49.9538C16.5782 47.9945 19.5056 47.4135 22.0317 48.4896C24.4929 49.5378 26.0901 51.9545 26.0901 54.6294V57H32.8094V54.6269C32.8094 51.936 34.4258 49.5084 36.9084 48.4707C39.4265 47.418 42.3318 48.0052 44.2436 49.953L45.7722 51.5103L50.5643 46.629L48.9371 44.9718C47.043 43.0428 46.4805 40.1709 47.5068 37.67C48.5477 35.1332 51.0182 33.4765 53.7602 33.4765H55.8938V26.5176H53.7611C51.0029 26.5176 48.5213 24.8419 47.4903 22.2836C46.4858 19.7902 47.0537 16.9384 48.9371 15.0204L50.5605 13.3671Z" fill="#DDDDDD"/>
</svg>
