<svg width="60" height="60" viewBox="0 0 60 60" fill="none" xmlns="http://www.w3.org/2000/svg">
<g clip-path="url(#clip0_322_1227)">
<path fill-rule="evenodd" clip-rule="evenodd" d="M51 3H9C5.68629 3 3 5.68629 3 9V51C3 54.3136 5.68629 57 9 57H51C54.3136 57 57 54.3136 57 51V9C57 5.68629 54.3136 3 51 3ZM9 0C4.02944 0 0 4.02944 0 9V51C0 55.9706 4.02944 60 9 60H51C55.9706 60 60 55.9706 60 51V9C60 4.02944 55.9706 0 51 0H9Z" fill="#DDDDDD"/>
<path d="M52.6533 10.3489C52.6533 11.7014 51.557 12.7979 50.2044 12.7979C48.8519 12.7979 47.7554 11.7014 47.7554 10.3489C47.7554 8.99634 48.8519 7.8999 50.2044 7.8999C51.557 7.8999 52.6533 8.99634 52.6533 10.3489Z" fill="#DDDDDD"/>
<path d="M45.3066 10.3489C45.3066 11.7014 44.2101 12.7979 42.8576 12.7979C41.505 12.7979 40.4087 11.7014 40.4087 10.3489C40.4087 8.99634 41.505 7.8999 42.8576 7.8999C44.2101 7.8999 45.3066 8.99634 45.3066 10.3489Z" fill="#DDDDDD"/>
<path d="M37.959 10.3489C37.959 11.7014 36.8625 12.7979 35.5099 12.7979C34.1574 12.7979 33.061 11.7014 33.061 10.3489C33.061 8.99634 34.1574 7.8999 35.5099 7.8999C36.8625 7.8999 37.959 8.99634 37.959 10.3489Z" fill="#DDDDDD"/>
<path fill-rule="evenodd" clip-rule="evenodd" d="M31.5 24H13.5V31.5H31.5V24ZM24 40.5V48C24 49.6569 25.3431 51 27 51H31.5C33.1569 51 34.5 49.6569 34.5 48V40.5C34.5 38.8431 33.1569 37.5 31.5 37.5H27C25.3431 37.5 24 38.8431 24 40.5ZM31.5 40.5H27V48H31.5V40.5ZM18 40.5H13.5V48H18V40.5ZM48 24H46.5V46.5H48V24ZM13.5 21C11.8431 21 10.5 22.3431 10.5 24V31.5C10.5 33.1569 11.8431 34.5 13.5 34.5H31.5C33.1569 34.5 34.5 33.1569 34.5 31.5V24C34.5 22.3431 33.1569 21 31.5 21H13.5ZM10.5 40.5C10.5 38.8431 11.8431 37.5 13.5 37.5H18C19.6569 37.5 21 38.8431 21 40.5V48C21 49.6569 19.6569 51 18 51H13.5C11.8431 51 10.5 49.6569 10.5 48V40.5ZM48 21C49.6569 21 51 22.3431 51 24V46.5C51 48.1569 49.6569 49.5 48 49.5H46.5C44.8431 49.5 43.5 48.1569 43.5 46.5V24C43.5 22.3431 44.8431 21 46.5 21H48Z" fill="#DDDDDD"/>
</g>
<defs>
<clipPath id="clip0_322_1227">
<rect width="60" height="60" fill="white"/>
</clipPath>
</defs>
</svg>
