<svg width="60" height="53" viewBox="0 0 60 53" fill="none" xmlns="http://www.w3.org/2000/svg">
<g clip-path="url(#clip0_322_1233)">
<path fill-rule="evenodd" clip-rule="evenodd" d="M0.9375 5C0.9375 2.75635 2.75634 0.9375 5 0.9375H49.1396C51.3834 0.9375 53.2021 2.75635 53.2021 5V13.514H50.0771V5C50.0771 4.48224 49.6575 4.0625 49.1396 4.0625H5C4.48224 4.0625 4.0625 4.48224 4.0625 5V33.18C4.0625 33.6978 4.48224 34.1175 5 34.1175H34.3952V37.2425H5C2.75634 37.2425 0.9375 35.4236 0.9375 33.18V5Z" fill="#DDDDDD"/>
<path fill-rule="evenodd" clip-rule="evenodd" d="M41.875 24.375V49.375H56.875V24.375H41.875ZM41.25 21.25C39.8693 21.25 38.75 22.3693 38.75 23.75V50C38.75 51.3808 39.8693 52.5 41.25 52.5H57.5C58.8808 52.5 60 51.3808 60 50V23.75C60 22.3693 58.8808 21.25 57.5 21.25H41.25Z" fill="#DDDDDD"/>
<path fill-rule="evenodd" clip-rule="evenodd" d="M24.3004 38.8047L22.5429 41.7713H31.5959L29.8384 38.8047H24.3004ZM23.2318 35.6797C22.7903 35.6797 22.3814 35.9126 22.1564 36.2926L18.1774 43.0092C17.6838 43.8424 18.2844 44.8963 19.2529 44.8963H34.8861C35.8544 44.8963 36.4551 43.8424 35.9614 43.0092L31.9824 36.2926C31.7574 35.9126 31.3486 35.6797 30.9071 35.6797H23.2318Z" fill="#DDDDDD"/>
<path d="M43.75 9.375C43.75 10.4105 42.9105 11.25 41.875 11.25C40.8395 11.25 40 10.4105 40 9.375C40 8.33946 40.8395 7.5 41.875 7.5C42.9105 7.5 43.75 8.33946 43.75 9.375Z" fill="#DDDDDD"/>
<path d="M38.75 9.375C38.75 10.4105 37.9105 11.25 36.875 11.25C35.8395 11.25 35 10.4105 35 9.375C35 8.33946 35.8395 7.5 36.875 7.5C37.9105 7.5 38.75 8.33946 38.75 9.375Z" fill="#DDDDDD"/>
<path d="M33.75 9.375C33.75 10.4105 32.9105 11.25 31.875 11.25C30.8395 11.25 30 10.4105 30 9.375C30 8.33946 30.8395 7.5 31.875 7.5C32.9105 7.5 33.75 8.33946 33.75 9.375Z" fill="#DDDDDD"/>
<path d="M51.25 44.375C51.25 45.4105 50.4105 46.25 49.375 46.25C48.3395 46.25 47.5 45.4105 47.5 44.375C47.5 43.3395 48.3395 42.5 49.375 42.5C50.4105 42.5 51.25 43.3395 51.25 44.375Z" fill="#DDDDDD"/>
</g>
<defs>
<clipPath id="clip0_322_1233">
<rect width="60" height="52.5" fill="white"/>
</clipPath>
</defs>
</svg>
