<svg width="60" height="60" viewBox="0 0 60 60" fill="none" xmlns="http://www.w3.org/2000/svg">
<path d="M57.0539 49.5617L45.8225 38.3304L47.32 36.8329L45.8225 35.3354L41.3318 39.8259L33.8422 32.3384L42.8394 23.3373C44.0369 23.7644 45.2902 23.9809 46.5771 23.9809C49.5423 23.9809 52.3309 22.8249 54.4301 20.7297C57.6674 17.4903 58.5851 12.678 56.7698 8.46744L56.1521 7.03347L51.3259 11.8597L47.4411 11.9133L47.4927 8.20726L52.4122 3.28768L50.9823 2.66803C49.5801 2.06027 48.0886 1.75244 46.5553 1.75244C43.5881 1.75244 40.8016 2.90834 38.7062 5.00367C35.6358 8.07219 34.6486 12.5548 36.1025 16.6025L27.1074 25.5976L14.3785 12.8706L15.876 11.3731L7.64367 3.13873L3.14715 7.6293L11.3835 15.8657L12.879 14.3681L25.6079 27.095L16.6129 36.0901C15.4113 35.6591 14.1521 35.4426 12.8631 35.4426C9.89791 35.4426 7.10942 36.5986 5.01211 38.6938C1.76881 41.9351 0.851225 46.7555 2.67645 50.97L3.29611 52.3999L8.21568 47.4804L11.9197 47.4306L11.8661 51.3155L7.0399 56.1417L8.47387 56.7594C9.87207 57.3613 11.3577 57.669 12.885 57.669C15.8522 57.669 18.6387 56.5151 20.734 54.4198C23.8006 51.3532 24.7876 46.8745 23.3438 42.8349L32.3448 33.8338L39.8343 41.3195L35.3399 45.8139L36.8373 47.3116L38.3348 45.8139L49.5643 57.0434C50.5633 58.0445 51.8959 58.5946 53.308 58.5946C54.7202 58.5946 56.0508 58.0445 57.0518 57.0434C59.1153 54.9799 59.1153 51.6213 57.0518 49.5578L57.0539 49.5617ZM6.14418 7.63129L7.64169 6.13576L12.881 11.3751L11.3835 12.8726L6.14418 7.63129ZM21.1372 42.9998C22.605 46.4078 21.8602 50.3065 19.2404 52.9282C17.5443 54.6243 15.2902 55.5578 12.889 55.5578C12.1998 55.5578 11.5205 55.4804 10.8612 55.3274L13.9773 52.2112L14.0707 45.2897L7.32987 45.381L4.11438 48.5965C3.40733 45.5975 4.27526 42.4337 6.51359 40.1973C8.20971 38.5012 10.4659 37.5657 12.8671 37.5657C14.1104 37.5657 15.316 37.814 16.4541 38.3065L17.1153 38.5926L38.6029 17.105L38.317 16.4436C36.8392 13.0295 37.5821 9.13078 40.2078 6.50517C41.9039 4.80903 44.16 3.87358 46.5592 3.87358C47.2544 3.87358 47.9396 3.95304 48.6049 4.10596L45.3914 7.31946L45.2981 14.0603L52.2196 13.9669L55.3379 10.8488C56.0369 13.8418 55.167 16.9997 52.9366 19.232C51.2384 20.9281 48.9823 21.8637 46.5812 21.8637C45.3419 21.8637 44.1382 21.6155 43.0042 21.1268L42.3447 20.8429L20.8532 42.3384L21.1372 42.9998ZM55.5583 55.5499C54.9584 56.1497 54.1601 56.4813 53.3121 56.4813C52.464 56.4813 51.6656 56.1497 51.0657 55.5499L39.8364 44.3204L44.3288 39.8278L55.5603 51.0594C56.7997 52.2987 56.7997 54.3125 55.5622 55.5499H55.5583Z" fill="#DDDDDD"/>
</svg>
