<svg width="60" height="46" viewBox="0 0 60 46" fill="none" xmlns="http://www.w3.org/2000/svg">
<path fill-rule="evenodd" clip-rule="evenodd" d="M45.2778 0.923828V7.7777H18.8889C18.2753 7.7777 17.7778 8.27517 17.7778 8.88881C17.7778 9.50247 18.2753 9.99992 18.8889 9.99992H47.5001V5.74266L56.0786 13.0659L47.7778 20.329V16.3888H30.0001C29.3864 16.3888 28.8889 16.8862 28.8889 17.4999C28.8889 18.1136 29.3864 18.611 30.0001 18.611H45.5556V25.2263L59.4769 13.0451L45.2778 0.923828Z" fill="#DDDDDD"/>
<path fill-rule="evenodd" clip-rule="evenodd" d="M14.7222 20.3684V27.2223H35.5555C36.1692 27.2223 36.6666 27.7197 36.6666 28.3334C36.6666 28.9471 36.1692 29.4445 35.5555 29.4445H12.4999V25.1873L3.92132 32.5105L12.2222 39.7736V35.8334H29.9999C30.6136 35.8334 31.1111 36.3309 31.1111 36.9445C31.1111 37.5582 30.6136 38.0556 29.9999 38.0556H14.4444V44.671L0.522949 32.4897L14.7222 20.3684Z" fill="#DDDDDD"/>
<path fill-rule="evenodd" clip-rule="evenodd" d="M14.8611 12.2222C13.4037 12.2222 12.2223 11.0407 12.2223 9.58328C12.2223 8.12587 13.4037 6.94439 14.8611 6.94439C16.3185 6.94439 17.5 8.12587 17.5 9.58328C17.5 11.0407 16.3185 12.2222 14.8611 12.2222ZM14.8611 14.4444C12.1764 14.4444 10 12.268 10 9.58328C10 6.89857 12.1764 4.72217 14.8611 4.72217C17.5458 4.72217 19.7223 6.89857 19.7223 9.58328C19.7223 12.268 17.5458 14.4444 14.8611 14.4444Z" fill="#DDDDDD"/>
<path fill-rule="evenodd" clip-rule="evenodd" d="M25.6941 20.5557C24.2368 20.5557 23.0552 19.3742 23.0552 17.9168C23.0552 16.4593 24.2368 15.2779 25.6941 15.2779C27.1516 15.2779 28.333 16.4593 28.333 17.9168C28.333 19.3742 27.1516 20.5557 25.6941 20.5557ZM25.6941 22.7779C23.0095 22.7779 20.833 20.6016 20.833 17.9168C20.833 15.2321 23.0095 13.0557 25.6941 13.0557C28.3789 13.0557 30.5552 15.2321 30.5552 17.9168C30.5552 20.6016 28.3789 22.7779 25.6941 22.7779Z" fill="#DDDDDD"/>
<path fill-rule="evenodd" clip-rule="evenodd" d="M39.8611 30.2778C38.4037 30.2778 37.2222 29.0964 37.2222 27.6389C37.2222 26.1815 38.4037 25.0001 39.8611 25.0001C41.3186 25.0001 42.5 26.1815 42.5 27.6389C42.5 29.0964 41.3186 30.2778 39.8611 30.2778ZM39.8611 32.5001C37.1763 32.5001 35 30.3237 35 27.6389C35 24.9543 37.1763 22.7778 39.8611 22.7778C42.5458 22.7778 44.7222 24.9543 44.7222 27.6389C44.7222 30.3237 42.5458 32.5001 39.8611 32.5001Z" fill="#DDDDDD"/>
<path fill-rule="evenodd" clip-rule="evenodd" d="M34.0276 40C32.5702 40 31.3887 38.8186 31.3887 37.3611C31.3887 35.9037 32.5702 34.7222 34.0276 34.7222C35.4849 34.7222 36.6665 35.9037 36.6665 37.3611C36.6665 38.8186 35.4849 40 34.0276 40ZM34.0276 42.2222C31.3428 42.2222 29.1665 40.0459 29.1665 37.3611C29.1665 34.6764 31.3428 32.5 34.0276 32.5C36.7123 32.5 38.8887 34.6764 38.8887 37.3611C38.8887 40.0459 36.7123 42.2222 34.0276 42.2222Z" fill="#DDDDDD"/>
</svg>
