<svg width="60" height="60" viewBox="0 0 60 60" fill="none" xmlns="http://www.w3.org/2000/svg">
<g clip-path="url(#clip0_322_1250)">
<path fill-rule="evenodd" clip-rule="evenodd" d="M22.9908 6.18388C23.6256 3.37355 25.727 1.67178 28.0284 1.19713C30.4046 0.707053 31.8353 2.78173 31.8353 4.41583V19.8758C31.8353 21.6235 30.3791 22.8317 28.853 22.8317C24.944 22.8317 21.7751 26.0005 21.7751 29.9095C21.7751 33.8185 24.944 36.9872 28.853 36.9872C30.3791 36.9872 31.8353 38.1955 31.8353 39.9431V56.5081C31.8353 58.1422 30.4046 60.2169 28.0284 59.7268C25.727 59.2521 23.6256 57.5504 22.9908 54.74L22.3443 51.8783C22.0328 50.4988 20.4497 49.8431 19.254 50.5982L16.7734 52.1646C10.8478 55.9065 3.96043 49.0192 7.70229 43.0937L9.26873 40.6131C10.0238 39.4173 9.36812 37.8342 7.98863 37.5226L5.12694 36.8762C-1.70897 35.332 -1.70899 25.5919 5.12694 24.0477L7.98863 23.4013C9.36812 23.0898 10.0238 21.5067 9.26874 20.3109L7.70229 17.8303C3.96043 11.9048 10.8478 5.01737 16.7734 8.75924L19.254 10.3257C20.4497 11.0808 22.0328 10.4251 22.3443 9.04559L22.9908 6.18388ZM28.4857 3.41461C29.0824 3.29154 29.5712 3.80659 29.5712 4.41583V19.8758C29.5712 20.2638 29.2408 20.5675 28.853 20.5675C23.6935 20.5675 19.511 24.7501 19.511 29.9095C19.511 35.0688 23.6935 39.2514 28.853 39.2514C29.2408 39.2514 29.5712 39.5551 29.5712 39.9431V56.5081C29.5712 57.1174 29.0824 57.6323 28.4857 57.5093C26.9757 57.1979 25.6211 56.1085 25.1993 54.2412L24.5529 51.3794C23.8968 48.4745 20.5631 47.0937 18.0451 48.6839L15.5644 50.2503C11.6792 52.7037 7.16322 48.1879 9.61669 44.3025L11.1831 41.8219C12.7732 39.3038 11.3924 35.9703 8.48751 35.314L5.62581 34.6676C1.1436 33.6552 1.1436 27.2687 5.6258 26.2563L8.48751 25.6099C11.3924 24.9536 12.7732 21.6201 11.1831 19.102L9.61669 16.6214C7.16322 12.736 11.6792 8.22016 15.5644 10.6736L18.0451 12.2401C20.5631 13.8302 23.8968 12.4494 24.5529 9.54446L25.1993 6.68275C25.6211 4.81544 26.9757 3.72606 28.4857 3.41461Z" fill="#DDDDDD"/>
<path fill-rule="evenodd" clip-rule="evenodd" d="M29.4341 27.1575C28.1836 27.1575 27.1699 28.1711 27.1699 29.4216C27.1699 30.6721 28.1836 31.6858 29.4341 31.6858C30.6846 31.6858 31.6982 30.6721 31.6982 29.4216C31.6982 28.1711 30.6846 27.1575 29.4341 27.1575ZM24.9058 29.4216C24.9058 26.9207 26.9331 24.8933 29.4341 24.8933C31.935 24.8933 33.9624 26.9207 33.9624 29.4216C33.9624 31.9226 31.935 33.9499 29.4341 33.9499C26.9331 33.9499 24.9058 31.9226 24.9058 29.4216Z" fill="#DDDDDD"/>
<path fill-rule="evenodd" clip-rule="evenodd" d="M56.6042 7.91186C55.979 7.91186 55.4722 8.41872 55.4722 9.04395C55.4722 9.6692 55.979 10.1761 56.6042 10.1761C57.2295 10.1761 57.7364 9.6692 57.7364 9.04395C57.7364 8.41872 57.2295 7.91186 56.6042 7.91186ZM53.208 9.04395C53.208 7.16826 54.7286 5.64771 56.6042 5.64771C58.48 5.64771 60.0006 7.16826 60.0006 9.04395C60.0006 10.9197 58.48 12.4402 56.6042 12.4402C54.7286 12.4402 53.208 10.9197 53.208 9.04395Z" fill="#DDDDDD"/>
<path fill-rule="evenodd" clip-rule="evenodd" d="M56.6042 18.1008C55.979 18.1008 55.4722 18.6077 55.4722 19.2329C55.4722 19.8581 55.979 20.3651 56.6042 20.3651C57.2295 20.3651 57.7364 19.8581 57.7364 19.2329C57.7364 18.6077 57.2295 18.1008 56.6042 18.1008ZM53.208 19.2329C53.208 17.3573 54.7286 15.8367 56.6042 15.8367C58.48 15.8367 60.0006 17.3573 60.0006 19.2329C60.0006 21.1086 58.48 22.6292 56.6042 22.6292C54.7286 22.6292 53.208 21.1086 53.208 19.2329Z" fill="#DDDDDD"/>
<path fill-rule="evenodd" clip-rule="evenodd" d="M56.6042 38.4783C55.979 38.4783 55.4722 38.9852 55.4722 39.6105C55.4722 40.2357 55.979 40.7425 56.6042 40.7425C57.2295 40.7425 57.7364 40.2357 57.7364 39.6105C57.7364 38.9852 57.2295 38.4783 56.6042 38.4783ZM53.208 39.6105C53.208 37.7347 54.7286 36.2141 56.6042 36.2141C58.48 36.2141 60.0006 37.7347 60.0006 39.6105C60.0006 41.4861 58.48 43.0067 56.6042 43.0067C54.7286 43.0067 53.208 41.4861 53.208 39.6105Z" fill="#DDDDDD"/>
<path fill-rule="evenodd" clip-rule="evenodd" d="M56.6042 47.5351C55.979 47.5351 55.4722 48.042 55.4722 48.6672C55.4722 49.2925 55.979 49.7994 56.6042 49.7994C57.2295 49.7994 57.7364 49.2925 57.7364 48.6672C57.7364 48.042 57.2295 47.5351 56.6042 47.5351ZM53.208 48.6672C53.208 46.7916 54.7286 45.271 56.6042 45.271C58.48 45.271 60.0006 46.7916 60.0006 48.6672C60.0006 50.543 58.48 52.0636 56.6042 52.0636C54.7286 52.0636 53.208 50.543 53.208 48.6672Z" fill="#DDDDDD"/>
<path fill-rule="evenodd" clip-rule="evenodd" d="M56.6042 27.1575C55.979 27.1575 55.4722 27.6643 55.4722 28.2895C55.4722 28.9148 55.979 29.4216 56.6042 29.4216C57.2295 29.4216 57.7364 28.9148 57.7364 28.2895C57.7364 27.6643 57.2295 27.1575 56.6042 27.1575ZM53.208 28.2895C53.208 26.4138 54.7286 24.8933 56.6042 24.8933C58.48 24.8933 60.0006 26.4138 60.0006 28.2895C60.0006 30.1653 58.48 31.6858 56.6042 31.6858C54.7286 31.6858 53.208 30.1653 53.208 28.2895Z" fill="#DDDDDD"/>
<path fill-rule="evenodd" clip-rule="evenodd" d="M41.2798 7.91211H53.2065C53.8318 7.91211 54.3386 8.41896 54.3386 9.04418C54.3386 9.66941 53.8318 10.1763 53.2065 10.1763H42.4916L31.5067 26.6535C31.1599 27.1737 30.457 27.3143 29.9369 26.9675C29.4167 26.6207 29.2761 25.9178 29.6228 25.3976L41.2798 7.91211ZM43.6619 17.5349H53.2065C53.8318 17.5349 54.3386 18.0417 54.3386 18.667C54.3386 19.2922 53.8318 19.799 53.2065 19.799H44.6379L37.1535 27.7237H53.2056C53.8309 27.7237 54.3386 28.2305 54.3386 28.8558C54.3386 29.481 53.8318 29.9878 53.2065 29.9878H37.1535L44.6379 37.9125H53.2065C53.8318 37.9125 54.3386 38.4193 54.3386 39.0445C54.3386 39.6698 53.8318 40.1766 53.2065 40.1766H43.6619L32.9699 28.8558L43.6619 17.5349ZM29.891 33.0405C30.3934 32.6684 31.1023 32.7739 31.4744 33.2763L42.4559 48.1013H53.2065C53.8318 48.1013 54.3386 48.6081 54.3386 49.2333C54.3386 49.8586 53.8318 50.3654 53.2065 50.3654H41.3155L29.6551 34.624C29.283 34.1216 29.3886 33.4126 29.891 33.0405Z" fill="#DDDDDD"/>
</g>
<defs>
<clipPath id="clip0_322_1250">
<rect width="60" height="60" fill="white"/>
</clipPath>
</defs>
</svg>
