<?xml version="1.0" encoding="UTF-8"?>
<!DOCTYPE svg PUBLIC "-//W3C//DTD SVG 1.1//EN" "http://www.w3.org/Graphics/SVG/1.1/DTD/svg11.dtd">
<svg xmlns="http://www.w3.org/2000/svg" version="1.1" width="512px" height="512px" style="shape-rendering:geometricPrecision; text-rendering:geometricPrecision; image-rendering:optimizeQuality; fill-rule:evenodd; clip-rule:evenodd" xmlns:xlink="http://www.w3.org/1999/xlink">
<g><path style="opacity:0.959" fill="#010201" d="M 143.5,44.5 C 143.893,47.9297 143.227,51.0964 141.5,54C 131.101,58.613 121.268,64.113 112,70.5C 110.167,78 113,80.8333 120.5,79C 180.762,42.886 244.095,36.5527 310.5,60C 322.421,64.0442 333.588,69.5442 344,76.5C 344.667,79.1667 344.667,81.8333 344,84.5C 341.109,86.5379 339.276,89.2046 338.5,92.5C 338.406,94.9116 339.406,96.745 341.5,98C 353.017,97.2976 364.35,95.2976 375.5,92C 377.028,90.3523 377.695,88.3523 377.5,86C 376.516,77.0807 375.016,68.2474 373,59.5C 370.413,52.8466 366.413,51.8466 361,56.5C 360.764,61.7328 358.097,64.7328 353,65.5C 331.817,54.6574 309.65,46.1574 286.5,40C 247.031,31.6044 207.864,32.7711 169,43.5C 165.753,42.4179 163.253,40.4179 161.5,37.5C 161.881,31.2835 165.215,27.7835 171.5,27C 232.944,11.5123 291.944,18.0123 348.5,46.5C 362.127,33.7944 374.627,34.7944 386,49.5C 390.15,63.5779 392.484,77.9113 393,92.5C 390.987,99.1807 386.82,104.014 380.5,107C 368.557,109.822 356.557,112.322 344.5,114.5C 326.499,111.496 319.832,101.163 324.5,83.5C 268.241,55.957 211.241,54.457 153.5,79C 143.849,83.4911 134.515,88.4911 125.5,94C 112.906,97.5845 103.406,93.7512 97,82.5C 93.673,71.9699 96.173,63.1365 104.5,56C 113.515,50.4911 122.849,45.4911 132.5,41C 137.181,39.5189 140.848,40.6856 143.5,44.5 Z"/></g>
<g><path style="opacity:0.999" fill="#69efbd" d="M 143.5,44.5 C 149.5,42.1667 155.5,39.8333 161.5,37.5C 163.253,40.4179 165.753,42.4179 169,43.5C 207.864,32.7711 247.031,31.6044 286.5,40C 309.65,46.1574 331.817,54.6574 353,65.5C 358.097,64.7328 360.764,61.7328 361,56.5C 366.413,51.8466 370.413,52.8466 373,59.5C 375.016,68.2474 376.516,77.0807 377.5,86C 377.695,88.3523 377.028,90.3523 375.5,92C 364.35,95.2976 353.017,97.2976 341.5,98C 339.406,96.745 338.406,94.9116 338.5,92.5C 339.276,89.2046 341.109,86.5379 344,84.5C 344.667,81.8333 344.667,79.1667 344,76.5C 333.588,69.5442 322.421,64.0442 310.5,60C 244.095,36.5527 180.762,42.886 120.5,79C 113,80.8333 110.167,78 112,70.5C 121.268,64.113 131.101,58.613 141.5,54C 143.227,51.0964 143.893,47.9297 143.5,44.5 Z"/></g>
<g><path style="opacity:0.961" fill="#010101" d="M -0.5,300.5 C -0.5,295.5 -0.5,290.5 -0.5,285.5C 3.6863,276.153 10.6863,269.653 20.5,266C 21.9904,265.255 22.9904,264.088 23.5,262.5C 22.5864,254.434 22.2531,246.434 22.5,238.5C 15.7204,235.028 9.5537,230.695 4,225.5C 2.20496,222.901 0.704964,220.234 -0.5,217.5C -0.5,212.5 -0.5,207.5 -0.5,202.5C 6.37561,190.43 13.5423,178.43 21,166.5C 30.7744,157.761 41.6078,156.261 53.5,162C 57.3333,164.5 61.1667,167 65,169.5C 70.0917,165.702 75.5917,162.535 81.5,160C 82.124,152.185 82.9573,144.352 84,136.5C 87.255,128.911 92.755,123.744 100.5,121C 115.5,120.333 130.5,120.333 145.5,121C 153.177,123.412 158.677,128.246 162,135.5C 163.032,143.463 163.866,151.463 164.5,159.5C 170.582,161.954 176.082,165.287 181,169.5C 186.974,165.095 193.474,161.595 200.5,159C 210.608,157.149 219.108,159.982 226,167.5C 233.171,178.504 239.838,189.838 246,201.5C 249.391,213.435 246.224,223.268 236.5,231C 231.833,233.667 227.167,236.333 222.5,239C 223.833,247.333 223.833,255.667 222.5,264C 243.712,272.92 250.212,288.086 242,309.5C 236.667,318.167 231.333,326.833 226,335.5C 218.086,343.854 208.586,346.354 197.5,343C 191.742,340.233 186.242,337.066 181,333.5C 176.082,337.713 170.582,341.046 164.5,343.5C 167.198,374.07 153.365,387.07 123,382.5C 92.9461,386.447 79.1127,373.28 81.5,343C 75.5917,340.465 70.0917,337.298 65,333.5C 58.9943,337.919 52.4943,341.419 45.5,344C 36.061,345.519 27.8943,343.019 21,336.5C 13.5423,324.57 6.37561,312.57 -0.5,300.5 Z M 115.5,209.5 C 142.488,208.006 158.988,220.339 165,246.5C 165.691,271.131 154.191,286.631 130.5,293C 101.301,294.303 84.6339,280.469 80.5,251.5C 82.7617,229.578 94.4284,215.578 115.5,209.5 Z"/></g>
<g><path style="opacity:0.958" fill="#020100" d="M 511.5,235.5 C 511.5,246.167 511.5,256.833 511.5,267.5C 501.732,321.44 470.399,355.94 417.5,371C 366.928,380.368 325.095,365.534 292,326.5C 260.845,281.339 258.511,234.673 285,186.5C 317.332,140.098 361.498,121.931 417.5,132C 470.399,147.06 501.732,181.56 511.5,235.5 Z"/></g>
<g><path style="opacity:1" fill="#648994" d="M 148.5,166.5 C 147.686,164.369 147.186,162.036 147,159.5C 133.984,148.576 119.151,141.242 102.5,137.5C 102.918,136.778 103.584,136.278 104.5,136C 110.667,135.833 116.833,135.667 123,135.5C 129.935,135.37 136.768,135.87 143.5,137C 145.378,138.543 146.878,140.376 148,142.5C 148.5,150.493 148.666,158.493 148.5,166.5 Z"/></g>
<g><path style="opacity:1" fill="#7b9faf" d="M 102.5,137.5 C 119.151,141.242 133.984,148.576 147,159.5C 147.186,162.036 147.686,164.369 148.5,166.5C 148.859,168.371 149.859,169.871 151.5,171C 156.805,172.986 161.805,175.486 166.5,178.5C 191.797,215.156 196.631,254.489 181,296.5C 175.9,307.047 170.067,317.047 163.5,326.5C 159.572,328.424 155.572,330.257 151.5,332C 149.859,333.129 148.859,334.629 148.5,336.5C 148.198,340 146.532,342.834 143.5,345C 130.901,354.465 116.901,360.965 101.5,364.5C 100.21,363.942 99.3768,362.942 99,361.5C 98.6667,352.833 98.3333,344.167 98,335.5C 93.9103,331.533 89.0769,328.7 83.5,327C 77.835,322.815 71.835,319.315 65.5,316.5C 58.2645,319.787 51.2645,323.62 44.5,328C 38.7985,329.72 34.2985,328.22 31,323.5C 26.2516,315.001 21.2516,306.668 16,298.5C 14,294.833 14,291.167 16,287.5C 23.9426,282.556 31.6093,277.223 39,271.5C 38.2955,259.167 38.4621,246.833 39.5,234.5C 39.2438,231.729 37.9104,229.562 35.5,228C 28.7455,224.208 22.2455,220.041 16,215.5C 14.1015,211.803 14.1015,208.136 16,204.5C 21.2516,196.332 26.2516,187.999 31,179.5C 34.2985,174.78 38.7985,173.28 44.5,175C 51.2645,179.38 58.2645,183.213 65.5,186.5C 71.835,183.685 77.835,180.185 83.5,176C 87.5422,174.263 91.5422,172.43 95.5,170.5C 96.5836,169.335 97.4169,168.002 98,166.5C 98.3333,158.167 98.6667,149.833 99,141.5C 99.66,139.676 100.827,138.343 102.5,137.5 Z M 115.5,209.5 C 94.4284,215.578 82.7617,229.578 80.5,251.5C 84.6339,280.469 101.301,294.303 130.5,293C 154.191,286.631 165.691,271.131 165,246.5C 158.988,220.339 142.488,208.006 115.5,209.5 Z"/></g>
<g><path style="opacity:1" fill="#f8cb58" d="M 375.5,145.5 C 428.418,141.543 466.252,163.543 489,211.5C 504.378,257.1 495.212,296.933 461.5,331C 436.552,352.232 407.885,361.065 375.5,357.5C 386.545,356.142 396.212,351.809 404.5,344.5C 445.082,337.09 470.915,313.424 482,273.5C 489.867,229.421 475.367,194.921 438.5,170C 426.24,162.97 413.24,158.47 399.5,156.5C 400.239,156.631 400.906,156.464 401.5,156C 396.423,152.599 391.089,149.599 385.5,147C 382.274,145.801 378.941,145.301 375.5,145.5 Z"/></g>
<g><path style="opacity:1" fill="#fcde75" d="M 375.5,145.5 C 378.941,145.301 382.274,145.801 385.5,147C 391.089,149.599 396.423,152.599 401.5,156C 400.906,156.464 400.239,156.631 399.5,156.5C 354.747,154.786 322.247,173.786 302,213.5C 286.578,255.401 294.745,291.901 326.5,323C 337.03,332.171 349.03,338.838 362.5,343C 368.417,345.787 373.584,344.953 378,340.5C 379.183,336.726 378.349,333.559 375.5,331C 339.445,322.279 317.612,299.779 310,263.5C 306.722,222.213 323.889,193.046 361.5,176C 386.025,168.095 409.358,170.595 431.5,183.5C 438.026,194.558 443.526,206.225 448,218.5C 455.311,245.435 453.644,271.768 443,297.5C 439.376,305.087 435.542,312.42 431.5,319.5C 422.446,324.798 412.779,328.631 402.5,331C 396.838,336.504 397.504,341.004 404.5,344.5C 396.212,351.809 386.545,356.142 375.5,357.5C 330.147,349.987 300.314,324.321 286,280.5C 274.749,226.877 292.249,185.71 338.5,157C 350.067,150.644 362.4,146.811 375.5,145.5 Z"/></g>
<g><path style="opacity:1" fill="#050402" d="M 399.5,156.5 C 413.24,158.47 426.24,162.97 438.5,170C 475.367,194.921 489.867,229.421 482,273.5C 470.915,313.424 445.082,337.09 404.5,344.5C 397.504,341.004 396.838,336.504 402.5,331C 412.779,328.631 422.446,324.798 431.5,319.5C 462.664,297.802 474.497,268.136 467,230.5C 460.938,210.333 449.105,194.667 431.5,183.5C 409.358,170.595 386.025,168.095 361.5,176C 323.889,193.046 306.722,222.213 310,263.5C 317.612,299.779 339.445,322.279 375.5,331C 378.349,333.559 379.183,336.726 378,340.5C 373.584,344.953 368.417,345.787 362.5,343C 349.03,338.838 337.03,332.171 326.5,323C 294.745,291.901 286.578,255.401 302,213.5C 322.247,173.786 354.747,154.786 399.5,156.5 Z"/></g>
<g><path style="opacity:1" fill="#668c96" d="M 163.5,326.5 C 170.067,317.047 175.9,307.047 181,296.5C 196.631,254.489 191.797,215.156 166.5,178.5C 170.484,180.495 174.151,182.995 177.5,186C 181.12,186.841 184.454,186.174 187.5,184C 192.334,180.748 197.334,177.748 202.5,175C 206.829,173.849 210.662,174.682 214,177.5C 218.416,185.333 223.082,193 228,200.5C 231.572,205.168 232.239,210.168 230,215.5C 223.768,220.061 217.268,224.228 210.5,228C 208.951,229.214 207.785,230.714 207,232.5C 207.79,238.415 208.29,244.415 208.5,250.5C 208.514,256.412 207.848,262.245 206.5,268C 206.795,270.923 208.129,273.257 210.5,275C 216.875,278.047 222.708,281.881 228,286.5C 231.333,291.833 231.333,297.167 228,302.5C 223.082,310 218.416,317.667 214,325.5C 210.662,328.318 206.829,329.151 202.5,328C 197.334,325.252 192.334,322.252 187.5,319C 184.454,316.826 181.12,316.159 177.5,317C 172.978,320.424 168.311,323.591 163.5,326.5 Z"/></g>
<g><path style="opacity:1" fill="#facd59" d="M 431.5,183.5 C 449.105,194.667 460.938,210.333 467,230.5C 474.497,268.136 462.664,297.802 431.5,319.5C 435.542,312.42 439.376,305.087 443,297.5C 453.644,271.768 455.311,245.435 448,218.5C 443.526,206.225 438.026,194.558 431.5,183.5 Z"/></g>
<g><path style="opacity:1" fill="#050402" d="M 385.5,192.5 C 393.992,191.994 397.659,195.994 396.5,204.5C 402.701,205.683 408.201,208.35 413,212.5C 416.257,219.321 414.257,223.321 407,224.5C 402.687,223.096 398.52,221.262 394.5,219C 382.881,216.364 377.381,220.864 378,232.5C 379.167,233.667 380.333,234.833 381.5,236C 390.953,240.147 400.286,244.481 409.5,249C 420.211,260.479 421.377,272.979 413,286.5C 408.93,292.418 403.43,296.085 396.5,297.5C 398.09,304.68 395.423,309.014 388.5,310.5C 382.629,308.78 380.296,304.78 381.5,298.5C 373.532,298.099 366.698,295.099 361,289.5C 359.121,283.24 361.288,279.573 367.5,278.5C 371.404,279.453 375.071,280.953 378.5,283C 383.5,283.667 388.5,283.667 393.5,283C 401.536,279.43 404.703,273.263 403,264.5C 402.044,263.421 401.211,262.255 400.5,261C 390.957,257.23 381.624,252.897 372.5,248C 359.897,236.014 359.23,223.348 370.5,210C 373.642,207.096 377.309,205.262 381.5,204.5C 380.589,199.633 381.922,195.633 385.5,192.5 Z"/></g>
<g><path style="opacity:0.966" fill="#010202" d="M 115.5,193.5 C 149.688,192.659 171.188,208.659 180,241.5C 182.522,278.628 165.688,301.128 129.5,309C 94.485,309.657 73.3183,292.824 66,258.5C 65.1209,223.589 81.6209,201.923 115.5,193.5 Z M 115.5,209.5 C 94.4284,215.578 82.7617,229.578 80.5,251.5C 84.6339,280.469 101.301,294.303 130.5,293C 154.191,286.631 165.691,271.131 165,246.5C 158.988,220.339 142.488,208.006 115.5,209.5 Z"/></g>
<g><path style="opacity:1" fill="#648994" d="M 148.5,336.5 C 148.666,344.507 148.5,352.507 148,360.5C 146.878,362.624 145.378,364.457 143.5,366C 130.595,367.628 117.595,367.961 104.5,367C 103.058,366.623 102.058,365.79 101.5,364.5C 116.901,360.965 130.901,354.465 143.5,345C 146.532,342.834 148.198,340 148.5,336.5 Z"/></g>
<g><path style="opacity:0.959" fill="#000101" d="M 143.5,396.5 C 161.994,399 168.994,409.334 164.5,427.5C 232.658,459.572 298.992,456.072 363.5,417C 383.37,413.209 393.203,421.376 393,441.5C 392.072,447.187 389.239,451.687 384.5,455C 315.952,495.707 243.952,503.041 168.5,477C 159.041,473.124 149.708,468.958 140.5,464.5C 126.911,476.977 114.411,475.977 103,461.5C 100.346,450.577 98.0124,439.577 96,428.5C 94.2088,417.248 98.3755,409.082 108.5,404C 120.253,401.285 131.919,398.785 143.5,396.5 Z"/></g>
<g><path style="opacity:1" fill="#00eca1" d="M 139.5,412.5 C 147.321,410.833 150.821,413.833 150,421.5C 142.329,428.118 142.829,433.952 151.5,439C 210.153,468.992 270.487,472.659 332.5,450C 345.058,445.054 357.058,439.054 368.5,432C 376,430.167 378.833,433 377,440.5C 332.571,468.522 284.071,480.356 231.5,476C 198.713,472.404 168.047,462.404 139.5,446C 135.102,444.622 131.602,445.788 129,449.5C 127.646,457.933 123.646,459.6 117,454.5C 114.353,443.263 112.686,431.93 112,420.5C 112.833,419.667 113.667,418.833 114.5,418C 123.03,416.463 131.363,414.63 139.5,412.5 Z"/></g>
</svg>
