<?xml version="1.0" encoding="UTF-8"?>
<!DOCTYPE svg PUBLIC "-//W3C//DTD SVG 1.1//EN" "http://www.w3.org/Graphics/SVG/1.1/DTD/svg11.dtd">
<svg xmlns="http://www.w3.org/2000/svg" version="1.1" width="512px" height="512px" style="shape-rendering:geometricPrecision; text-rendering:geometricPrecision; image-rendering:optimizeQuality; fill-rule:evenodd; clip-rule:evenodd" xmlns:xlink="http://www.w3.org/1999/xlink">
<g><path style="opacity:0.999" fill="#007ca1" d="M 79.5,-0.5 C 215.5,-0.5 351.5,-0.5 487.5,-0.5C 499.833,3.16667 507.833,11.1667 511.5,23.5C 511.5,159.5 511.5,295.5 511.5,431.5C 508.015,443.818 500.015,451.651 487.5,455C 383.501,455.5 279.501,455.667 175.5,455.5C 175.667,466.172 175.5,476.839 175,487.5C 171.651,500.015 163.818,508.015 151.5,511.5C 108.833,511.5 66.1667,511.5 23.5,511.5C 11.1667,507.833 3.16667,499.833 -0.5,487.5C -0.5,471.5 -0.5,455.5 -0.5,439.5C 0.628469,436.815 1.9618,434.148 3.5,431.5C 1.9618,428.852 0.628469,426.185 -0.5,423.5C -0.5,407.5 -0.5,391.5 -0.5,375.5C 0.628469,372.815 1.9618,370.148 3.5,367.5C 1.9618,364.852 0.628469,362.185 -0.5,359.5C -0.5,343.5 -0.5,327.5 -0.5,311.5C 2.98533,299.182 10.9853,291.349 23.5,288C 34.1615,287.5 44.8281,287.333 55.5,287.5C 55.3333,199.499 55.5,111.499 56,23.5C 59.349,10.9853 67.1824,2.98533 79.5,-0.5 Z"/></g>
<g><path style="opacity:1" fill="#e2fbfc" d="M 87.5,31.5 C 218.167,31.5 348.833,31.5 479.5,31.5C 479.5,162.167 479.5,292.833 479.5,423.5C 377.833,423.5 276.167,423.5 174.5,423.5C 175.62,407.865 175.787,392.199 175,376.5C 173.83,373.495 172.664,370.495 171.5,367.5C 172.966,363.936 174.132,360.27 175,356.5C 175.667,341.833 175.667,327.167 175,312.5C 171.526,299.693 163.36,291.526 150.5,288C 129.503,287.5 108.503,287.333 87.5,287.5C 87.5,202.167 87.5,116.833 87.5,31.5 Z"/></g>
<g><path style="opacity:1" fill="#017da1" d="M 362.5,63.5 C 386.836,63.3334 411.169,63.5 435.5,64C 440.91,65.7425 444.744,69.2425 447,74.5C 447.667,98.8333 447.667,123.167 447,147.5C 444.464,155.532 438.964,159.532 430.5,159.5C 423.538,158.711 418.704,155.045 416,148.5C 415.667,138.5 415.333,128.5 415,118.5C 354.167,179.333 293.333,240.167 232.5,301C 220.965,306.311 212.798,303.144 208,291.5C 206.993,286.889 207.66,282.555 210,278.5C 270.833,217.667 331.667,156.833 392.5,96C 382.5,95.6667 372.5,95.3333 362.5,95C 352.08,89.4956 349.247,81.3289 354,70.5C 356.441,67.5464 359.275,65.2131 362.5,63.5 Z"/></g>
<g><path style="opacity:1" fill="#45eaf5" d="M 130.5,63.5 C 146.677,63.1668 153.177,70.8334 150,86.5C 144.109,95.5734 136.276,97.7401 126.5,93C 119.203,86.6619 117.703,79.1619 122,70.5C 124.441,67.5464 127.275,65.2131 130.5,63.5 Z"/></g>
<g><path style="opacity:1" fill="#e2fcfc" d="M 31.5,319.5 C 68.8333,319.5 106.167,319.5 143.5,319.5C 143.5,330.167 143.5,340.833 143.5,351.5C 106.167,351.5 68.8333,351.5 31.5,351.5C 31.5,340.833 31.5,330.167 31.5,319.5 Z"/></g>
<g><path style="opacity:1" fill="#42eaf4" d="M 31.5,383.5 C 68.8333,383.5 106.167,383.5 143.5,383.5C 143.5,394.167 143.5,404.833 143.5,415.5C 106.167,415.5 68.8333,415.5 31.5,415.5C 31.5,404.833 31.5,394.167 31.5,383.5 Z"/></g>
<g><path style="opacity:1" fill="#e2fcfc" d="M 31.5,447.5 C 68.8333,447.5 106.167,447.5 143.5,447.5C 143.5,458.167 143.5,468.833 143.5,479.5C 106.167,479.5 68.8333,479.5 31.5,479.5C 31.5,468.833 31.5,458.167 31.5,447.5 Z"/></g>
</svg>
