<?xml version="1.0" encoding="UTF-8"?>
<!DOCTYPE svg PUBLIC "-//W3C//DTD SVG 1.1//EN" "http://www.w3.org/Graphics/SVG/1.1/DTD/svg11.dtd">
<svg xmlns="http://www.w3.org/2000/svg" version="1.1" width="512px" height="512px" style="shape-rendering:geometricPrecision; text-rendering:geometricPrecision; image-rendering:optimizeQuality; fill-rule:evenodd; clip-rule:evenodd" xmlns:xlink="http://www.w3.org/1999/xlink">
<g><path style="opacity:0.989" fill="#000000" d="M 37.5,58.5 C 182.834,58.3333 328.167,58.5 473.5,59C 474.701,59.9025 475.535,61.0692 476,62.5C 476.667,166.5 476.667,270.5 476,374.5C 474.833,375.667 473.667,376.833 472.5,378C 426.496,378.167 380.496,378.667 334.5,379.5C 337.211,387.136 340.211,394.636 343.5,402C 356.5,402.333 369.5,402.667 382.5,403C 383.333,403.833 384.167,404.667 385,405.5C 386.612,419.097 386.945,432.764 386,446.5C 385.654,448.848 384.487,450.681 382.5,452C 297.833,452.667 213.167,452.667 128.5,452C 126.513,450.681 125.346,448.848 125,446.5C 124.055,432.764 124.388,419.097 126,405.5C 126.833,404.667 127.667,403.833 128.5,403C 141.5,402.667 154.5,402.333 167.5,402C 170.789,394.636 173.789,387.136 176.5,379.5C 130.504,378.667 84.5036,378.167 38.5,378C 37.3333,376.833 36.1667,375.667 35,374.5C 34.3333,270.5 34.3333,166.5 35,62.5C 35.6622,61.0161 36.4955,59.6828 37.5,58.5 Z"/></g>
<g><path style="opacity:1" fill="#1f6571" d="M 49.5,72.5 C 49.5,82.5 49.5,92.5 49.5,102.5C 186.833,102.5 324.167,102.5 461.5,102.5C 461.5,92.5 461.5,82.5 461.5,72.5C 462.494,82.6532 462.828,92.9865 462.5,103.5C 324.5,103.5 186.5,103.5 48.5,103.5C 48.1724,92.9865 48.5058,82.6532 49.5,72.5 Z"/></g>
<g><path style="opacity:1" fill="#39b6cc" d="M 49.5,72.5 C 186.833,72.5 324.167,72.5 461.5,72.5C 461.5,82.5 461.5,92.5 461.5,102.5C 324.167,102.5 186.833,102.5 49.5,102.5C 49.5,92.5 49.5,82.5 49.5,72.5 Z"/></g>
<g><path style="opacity:1" fill="#949494" d="M 48.5,116.5 C 186.5,116.5 324.5,116.5 462.5,116.5C 462.5,184.167 462.5,251.833 462.5,319.5C 324.5,319.5 186.5,319.5 48.5,319.5C 48.5,251.833 48.5,184.167 48.5,116.5 Z"/></g>
<g><path style="opacity:1" fill="#f0f0f0" d="M 49.5,117.5 C 186.833,117.5 324.167,117.5 461.5,117.5C 461.5,184.5 461.5,251.5 461.5,318.5C 324.167,318.5 186.833,318.5 49.5,318.5C 49.5,251.5 49.5,184.5 49.5,117.5 Z"/></g>
<g><path style="opacity:1" fill="#040302" d="M 162.5,135.5 C 187.753,138.984 212.753,143.817 237.5,150C 240.467,173.186 239.967,196.352 236,219.5C 232.337,239.161 223.67,256.161 210,270.5C 201.394,280.112 191.894,288.612 181.5,296C 173.497,302.213 165.164,302.88 156.5,298C 103.041,262.215 83.0414,212.382 96.5,148.5C 118.812,145.171 140.812,140.837 162.5,135.5 Z"/></g>
<g><path style="opacity:1" fill="#80ccda" d="M 276.5,145.5 C 320.997,144.501 365.664,144.168 410.5,144.5C 410.829,159.343 410.496,174.01 409.5,188.5C 409.5,174.167 409.5,159.833 409.5,145.5C 365.167,145.5 320.833,145.5 276.5,145.5 Z"/></g>
<g><path style="opacity:1" fill="#39b6cc" d="M 276.5,145.5 C 320.833,145.5 365.167,145.5 409.5,145.5C 409.5,159.833 409.5,174.167 409.5,188.5C 365.167,188.5 320.833,188.5 276.5,188.5C 276.5,174.167 276.5,159.833 276.5,145.5 Z"/></g>
<g><path style="opacity:1" fill="#fd7b24" d="M 163.5,149.5 C 184.341,152.035 204.841,156.035 225,161.5C 227.873,187.582 224.873,212.916 216,237.5C 212.165,244.508 207.831,251.174 203,257.5C 196.167,264.333 189.333,271.167 182.5,278C 177.877,281.796 172.877,284.962 167.5,287.5C 118.938,259.185 99.6045,217.018 109.5,161C 127.612,157.079 145.612,153.246 163.5,149.5 Z"/></g>
<g><path style="opacity:1" fill="#f2efed" d="M 191.5,177.5 C 201.075,177.015 203.908,181.015 200,189.5C 186.878,206.291 173.378,222.791 159.5,239C 157.029,239.706 154.695,239.373 152.5,238C 144.954,229.456 137.788,220.623 131,211.5C 131.014,204.551 134.514,202.051 141.5,204C 146.344,209.675 151.344,215.175 156.5,220.5C 168.539,206.462 180.205,192.129 191.5,177.5 Z"/></g>
<g><path style="opacity:1" fill="#000000" d="M 409.5,205.5 C 409.5,209.833 409.5,214.167 409.5,218.5C 365.167,218.5 320.833,218.5 276.5,218.5C 276.5,214.167 276.5,209.833 276.5,205.5C 320.833,205.5 365.167,205.5 409.5,205.5 Z"/></g>
<g><path style="opacity:1" fill="#686868" d="M 409.5,205.5 C 410.486,209.97 410.819,214.637 410.5,219.5C 365.664,219.832 320.997,219.499 276.5,218.5C 320.833,218.5 365.167,218.5 409.5,218.5C 409.5,214.167 409.5,209.833 409.5,205.5 Z"/></g>
<g><path style="opacity:1" fill="#757575" d="M 276.5,239.5 C 307.996,238.502 339.662,238.168 371.5,238.5C 371.5,243.5 371.5,248.5 371.5,253.5C 339.662,253.832 307.996,253.498 276.5,252.5C 307.833,252.5 339.167,252.5 370.5,252.5C 370.5,248.167 370.5,243.833 370.5,239.5C 339.167,239.5 307.833,239.5 276.5,239.5 Z"/></g>
<g><path style="opacity:1" fill="#000000" d="M 276.5,239.5 C 307.833,239.5 339.167,239.5 370.5,239.5C 370.5,243.833 370.5,248.167 370.5,252.5C 339.167,252.5 307.833,252.5 276.5,252.5C 276.5,248.167 276.5,243.833 276.5,239.5 Z"/></g>
<g><path style="opacity:1" fill="#0a0a0a" d="M 383.5,238.5 C 389.833,238.5 396.167,238.5 402.5,238.5C 402.5,243.167 402.5,247.833 402.5,252.5C 396.167,252.5 389.833,252.5 383.5,252.5C 383.5,247.833 383.5,243.167 383.5,238.5 Z"/></g>
<g><path style="opacity:1" fill="#000000" d="M 276.5,273.5 C 308.167,273.5 339.833,273.5 371.5,273.5C 371.5,277.833 371.5,282.167 371.5,286.5C 339.833,286.5 308.167,286.5 276.5,286.5C 276.5,282.167 276.5,277.833 276.5,273.5 Z"/></g>
<g><path style="opacity:1" fill="#216a77" d="M 324.5,363.5 C 370.167,363.5 415.833,363.5 461.5,363.5C 461.5,353.5 461.5,343.5 461.5,333.5C 324.167,333.5 186.833,333.5 49.5,333.5C 49.5,343.5 49.5,353.5 49.5,363.5C 94.8333,363.5 140.167,363.5 185.5,363.5C 140.003,364.499 94.3364,364.832 48.5,364.5C 48.5,353.833 48.5,343.167 48.5,332.5C 186.5,332.5 324.5,332.5 462.5,332.5C 462.5,343.167 462.5,353.833 462.5,364.5C 416.33,364.832 370.33,364.499 324.5,363.5 Z"/></g>
<g><path style="opacity:1" fill="#39b6cc" d="M 324.5,363.5 C 278.167,363.5 231.833,363.5 185.5,363.5C 140.167,363.5 94.8333,363.5 49.5,363.5C 49.5,353.5 49.5,343.5 49.5,333.5C 186.833,333.5 324.167,333.5 461.5,333.5C 461.5,343.5 461.5,353.5 461.5,363.5C 415.833,363.5 370.167,363.5 324.5,363.5 Z"/></g>
<g><path style="opacity:1" fill="#edf0f1" d="M 425.5,340.5 C 431.167,340.5 436.833,340.5 442.5,340.5C 442.5,345.167 442.5,349.833 442.5,354.5C 436.833,354.5 431.167,354.5 425.5,354.5C 425.5,349.833 425.5,345.167 425.5,340.5 Z"/></g>
<g><path style="opacity:1" fill="#ededed" d="M 192.5,377.5 C 234.501,377.333 276.501,377.5 318.5,378C 321.593,385.777 324.593,393.611 327.5,401.5C 279.5,402.833 231.5,402.833 183.5,401.5C 186.508,393.471 189.508,385.471 192.5,377.5 Z"/></g>
<g><path style="opacity:1" fill="#39b6cc" d="M 139.5,416.5 C 216.833,416.5 294.167,416.5 371.5,416.5C 371.5,423.833 371.5,431.167 371.5,438.5C 294.167,438.5 216.833,438.5 139.5,438.5C 139.5,431.167 139.5,423.833 139.5,416.5 Z"/></g>
</svg>
