<?xml version="1.0" encoding="UTF-8"?>
<!DOCTYPE svg PUBLIC "-//W3C//DTD SVG 1.1//EN" "http://www.w3.org/Graphics/SVG/1.1/DTD/svg11.dtd">
<svg xmlns="http://www.w3.org/2000/svg" version="1.1" width="512px" height="512px" style="shape-rendering:geometricPrecision; text-rendering:geometricPrecision; image-rendering:optimizeQuality; fill-rule:evenodd; clip-rule:evenodd" xmlns:xlink="http://www.w3.org/1999/xlink">
<g><path style="opacity:0.999" fill="#525651" d="M 189.5,445.5 C 175.51,424.862 161.51,404.195 147.5,383.5C 141.193,382.669 134.859,382.169 128.5,382C 124.238,380.706 120.905,378.206 118.5,374.5C 117.68,372.86 116.847,371.193 116,369.5C 115.333,268.167 115.333,166.833 116,65.5C 116.959,63.047 118.126,60.7137 119.5,58.5C 122.171,56.1628 125.171,54.3295 128.5,53C 213.167,52.3333 297.833,52.3333 382.5,53C 388.693,55.1926 392.859,59.3593 395,65.5C 395.667,80.1667 395.667,94.8333 395,109.5C 394.273,112.955 392.107,114.621 388.5,114.5C 388.5,119.833 388.5,125.167 388.5,130.5C 391.263,130.744 393.429,132.077 395,134.5C 395.667,212.833 395.667,291.167 395,369.5C 389.653,380.59 380.82,384.923 368.5,382.5C 368.667,396.837 368.5,411.171 368,425.5C 367.895,429.36 367.062,433.026 365.5,436.5C 379.154,437.666 392.821,437.833 406.5,437C 411.099,435.402 413.932,432.235 415,427.5C 415.667,298.833 415.667,170.167 415,41.5C 413.5,37.3333 410.667,34.5 406.5,33C 310.501,32.5 214.501,32.3333 118.5,32.5C 113.489,32.3341 108.489,32.5007 103.5,33C 100.333,34.8333 97.8333,37.3333 96,40.5C 95.3333,169.833 95.3333,299.167 96,428.5C 97.5,432.667 100.333,435.5 104.5,437C 110.491,437.499 116.491,437.666 122.5,437.5C 140.17,437.333 157.836,437.5 175.5,438C 178.892,439.542 180.892,442.042 181.5,445.5C 180.999,448.155 179.666,450.322 177.5,452C 151.833,452.667 126.167,452.667 100.5,452C 90.6667,448.833 84.1667,442.333 81,432.5C 80.3333,300.833 80.3333,169.167 81,37.5C 84.1667,27.6667 90.6667,21.1667 100.5,18C 203.833,17.3333 307.167,17.3333 410.5,18C 419.178,20.6782 425.345,26.1782 429,34.5C 430.661,167.111 430.995,299.778 430,432.5C 426.833,442.333 420.333,448.833 410.5,452C 393.5,452.333 376.5,452.667 359.5,453C 352.169,463.676 349.335,475.51 351,488.5C 350.215,490.286 349.049,491.786 347.5,493C 301.167,493.667 254.833,493.667 208.5,493C 206.667,492.5 205.5,491.333 205,489.5C 204.667,482.167 204.333,474.833 204,467.5C 198.525,460.538 193.692,453.204 189.5,445.5 Z"/></g>
<g><path style="opacity:1" fill="#52bfc5" d="M 118.5,32.5 C 118.174,41.3494 118.507,50.0161 119.5,58.5C 118.126,60.7137 116.959,63.047 116,65.5C 115.333,166.833 115.333,268.167 116,369.5C 116.847,371.193 117.68,372.86 118.5,374.5C 117.338,391.995 117.171,409.662 118,427.5C 118.836,431.191 120.336,434.524 122.5,437.5C 116.491,437.666 110.491,437.499 104.5,437C 100.333,435.5 97.5,432.667 96,428.5C 95.3333,299.167 95.3333,169.833 96,40.5C 97.8333,37.3333 100.333,34.8333 103.5,33C 108.489,32.5007 113.489,32.3341 118.5,32.5 Z"/></g>
<g><path style="opacity:1" fill="#6ad3df" d="M 118.5,32.5 C 214.501,32.3333 310.501,32.5 406.5,33C 410.667,34.5 413.5,37.3333 415,41.5C 415.667,170.167 415.667,298.833 415,427.5C 413.932,432.235 411.099,435.402 406.5,437C 392.821,437.833 379.154,437.666 365.5,436.5C 367.062,433.026 367.895,429.36 368,425.5C 368.5,411.171 368.667,396.837 368.5,382.5C 380.82,384.923 389.653,380.59 395,369.5C 395.667,291.167 395.667,212.833 395,134.5C 393.429,132.077 391.263,130.744 388.5,130.5C 388.5,125.167 388.5,119.833 388.5,114.5C 392.107,114.621 394.273,112.955 395,109.5C 395.667,94.8333 395.667,80.1667 395,65.5C 392.859,59.3593 388.693,55.1926 382.5,53C 297.833,52.3333 213.167,52.3333 128.5,53C 125.171,54.3295 122.171,56.1628 119.5,58.5C 118.507,50.0161 118.174,41.3494 118.5,32.5 Z"/></g>
<g><path style="opacity:1" fill="#e8533a" d="M 143.5,67.5 C 143.5,163.833 143.5,260.167 143.5,356.5C 142.756,360.119 142.423,363.785 142.5,367.5C 138.563,367.793 134.73,367.46 131,366.5C 130.333,267.167 130.333,167.833 131,68.5C 135.066,67.5363 139.233,67.203 143.5,67.5 Z"/></g>
<g><path style="opacity:1" fill="#f3634d" d="M 143.5,67.5 C 222.167,67.3333 300.834,67.5 379.5,68C 380.324,81.7585 380.824,95.5918 381,109.5C 381.582,113.251 383.749,114.918 387.5,114.5C 387.5,119.833 387.5,125.167 387.5,130.5C 384.737,130.744 382.571,132.077 381,134.5C 380.667,211.833 380.333,289.167 380,366.5C 376.27,367.46 372.437,367.793 368.5,367.5C 368.667,356.828 368.5,346.161 368,335.5C 363.887,321.224 354.387,313.891 339.5,313.5C 335.003,313.89 330.67,314.89 326.5,316.5C 321.255,301.453 310.588,294.619 294.5,296C 290.121,297.023 286.121,298.856 282.5,301.5C 273.327,288.58 261.327,284.913 246.5,290.5C 245.833,274.167 245.167,257.833 244.5,241.5C 244.281,240.325 244.614,239.325 245.5,238.5C 283.135,241.439 310.302,226.105 327,192.5C 341.432,149.22 329.266,115.72 290.5,92C 254.501,76.8924 223.001,83.3924 196,111.5C 177.203,135.838 173.203,162.505 184,191.5C 188.847,203.015 196.013,212.848 205.5,221C 197.347,225.151 192.18,231.651 190,240.5C 189.833,275.171 189.333,309.838 188.5,344.5C 169.662,335.124 154.662,339.124 143.5,356.5C 143.5,260.167 143.5,163.833 143.5,67.5 Z"/></g>
<g><path style="opacity:1" fill="#f7d16a" d="M 243.5,99.5 C 275.08,96.5343 298.247,108.868 313,136.5C 323.479,167.099 316.312,192.599 291.5,213C 257.947,232.158 228.78,226.992 204,197.5C 191.993,177.348 190.326,156.348 199,134.5C 208.705,116.293 223.539,104.626 243.5,99.5 Z"/></g>
<g><path style="opacity:1" fill="#5c5951" d="M 233.5,132.5 C 238.023,132.345 241.189,134.345 243,138.5C 243.667,143.167 243.667,147.833 243,152.5C 240.565,157.224 236.731,158.724 231.5,157C 229.951,155.786 228.785,154.286 228,152.5C 227.333,147.833 227.333,143.167 228,138.5C 229.36,135.977 231.193,133.977 233.5,132.5 Z"/></g>
<g><path style="opacity:1" fill="#5c5951" d="M 273.5,132.5 C 278.023,132.345 281.189,134.345 283,138.5C 283.667,143.167 283.667,147.833 283,152.5C 280.565,157.224 276.731,158.724 271.5,157C 269.951,155.786 268.785,154.286 268,152.5C 267.333,147.833 267.333,143.167 268,138.5C 269.36,135.977 271.193,133.977 273.5,132.5 Z"/></g>
<g><path style="opacity:1" fill="#555751" d="M 209.5,163.5 C 213.803,162.796 217.303,164.13 220,167.5C 227.757,190.795 243.59,199.629 267.5,194C 279.899,189.265 287.733,180.431 291,167.5C 295.667,162.167 300.333,162.167 305,167.5C 304.1,179.468 299.267,189.635 290.5,198C 265.641,216.747 241.474,215.914 218,195.5C 210.67,187.516 206.67,178.183 206,167.5C 207.376,166.295 208.542,164.962 209.5,163.5 Z"/></g>
<g><path style="opacity:1" fill="#fdc87f" d="M 213.5,233.5 C 221.415,232.873 226.915,236.206 230,243.5C 230.333,268.833 230.667,294.167 231,319.5C 235.997,326.266 240.663,325.933 245,318.5C 245.9,306.933 252.067,302.099 263.5,304C 267.058,305.892 269.558,308.725 271,312.5C 271.333,317.167 271.667,321.833 272,326.5C 275.532,332.29 279.865,332.957 285,328.5C 285.352,318.758 290.185,312.758 299.5,310.5C 305.407,311.193 309.573,314.193 312,319.5C 312.333,327.833 312.667,336.167 313,344.5C 317.167,350.759 321.833,351.092 327,345.5C 327.778,332.694 334.278,327.528 346.5,330C 349.333,331.5 351.5,333.667 353,336.5C 354.641,364.105 354.974,391.771 354,419.5C 353.303,425.321 351.969,430.987 350,436.5C 345.061,446.045 340.394,455.711 336,465.5C 335.501,469.821 335.334,474.154 335.5,478.5C 296.833,478.5 258.167,478.5 219.5,478.5C 219.91,472.379 219.41,466.379 218,460.5C 198.914,431.993 179.581,403.66 160,375.5C 154.376,360.594 159.542,353.761 175.5,355C 182.338,358.171 188.338,362.505 193.5,368C 197.421,368.959 200.588,367.792 203,364.5C 203.333,324.5 203.667,284.5 204,244.5C 205.599,239.406 208.766,235.739 213.5,233.5 Z"/></g>
<g><path style="opacity:1" fill="#7a594f" d="M 244.5,241.5 C 245.167,257.833 245.833,274.167 246.5,290.5C 246.44,291.043 246.107,291.376 245.5,291.5C 244.501,274.847 244.167,258.18 244.5,241.5 Z"/></g>
<g><path style="opacity:0.999" fill="#6ad3df" d="M 118.5,374.5 C 120.905,378.206 124.238,380.706 128.5,382C 134.859,382.169 141.193,382.669 147.5,383.5C 161.51,404.195 175.51,424.862 189.5,445.5C 186.833,445.5 184.167,445.5 181.5,445.5C 180.892,442.042 178.892,439.542 175.5,438C 157.836,437.5 140.17,437.333 122.5,437.5C 120.336,434.524 118.836,431.191 118,427.5C 117.171,409.662 117.338,391.995 118.5,374.5 Z"/></g>
</svg>
