<svg version="1.2" xmlns="http://www.w3.org/2000/svg" viewBox="0 0 64 64" width="24" height="24">
	<title>bigcommerce-icon</title>
	<style>
		.s0 { fill: #000000 } 
		.s1 { fill: #20a0b1 } 
	</style>
	<path id="Layer 1" fill-rule="evenodd" class="s0" d="m73.2-9.5l83.7 83.9-78.6 78.4-83.6-83.9z"/>
	<path class="s1" d="m63.3 0.2l-23.9 23.8h3.9c6.1 0 9.7 3.8 9.7 8 0 3.3-2.3 5.7-4.6 6.7-0.4 0.2-0.4 0.7 0 0.9 2.8 1 4.7 3.9 4.7 7.3 0 4.7-3.2 8.5-9.3 8.5h-16.9c-0.3 0-0.5-0.2-0.5-0.4v-18.1l-26.2 26.1c-0.4 0.4-0.2 1 0.3 1h63.1c0.2 0 0.4-0.2 0.4-0.4v-63.1c0.1-0.4-0.4-0.6-0.7-0.3zm-29.6 49.3h8.4c2.5 0 4.1-1.3 4.1-3.6 0-2-1.5-3.6-4.1-3.6h-8.4c-0.2 0-0.5 0.2-0.5 0.4v6.3c0.1 0.3 0.3 0.5 0.5 0.5zm0-13.1h8.1c2.3 0 3.7-1.2 3.7-3.3 0-1.9-1.4-3.3-3.7-3.3h-8.1c-0.2 0-0.5 0.3-0.5 0.5v5.7c0.1 0.2 0.3 0.4 0.5 0.4z"/>
</svg>