<svg xmlns="http://www.w3.org/2000/svg" enable-background="new 0 0 24 24" viewBox="0 0 24 24" id="shopify">
  <path d="M14.85,23.979c-0.358,0-0.674-0.257-0.738-0.621c-0.071-0.408,0.202-0.797,0.61-0.868l6.429-1.119c-0.769-5.183-2.022-13.624-2.316-15.592c-0.273-0.019-0.708-0.051-1.406-0.103c-0.156-0.012-0.304-0.072-0.424-0.172l-1.755-1.463c-0.318-0.266-0.361-0.738-0.096-1.057c0.266-0.317,0.738-0.361,1.057-0.096l1.57,1.309c0.458,0.034,1.421,0.105,1.55,0.11c0,0,0,0,0,0c0.446,0,0.851,0.353,0.923,0.818c0.018,0.098,1.909,12.844,2.488,16.747c0.06,0.402-0.212,0.779-0.613,0.85l-7.149,1.245C14.936,23.976,14.893,23.979,14.85,23.979z M18.772,5.364c0,0.001,0,0.002,0,0.003C18.772,5.365,18.772,5.364,18.772,5.364z"></path>
  <path d="M14.851,24c-0.042,0-0.084-0.004-0.126-0.011l-12.851-2.19c-0.397-0.067-0.67-0.437-0.618-0.836C1.324,20.44,2.922,8.161,2.994,7.713c0.111-0.929,0.38-1.153,1.244-1.43l0,0.001c0.731-0.237,9.661-3.068,11.197-3.494L15.43,2.773c0.274-0.102,0.64-0.036,0.841,0.174c0.142,0.148,0.216,0.348,0.207,0.552L15.6,23.283c-0.009,0.215-0.111,0.415-0.278,0.551C15.188,23.942,15.021,24,14.851,24z M2.837,20.441l11.303,1.927l0.793-17.872c-2.646,0.827-9.99,3.133-10.222,3.211C4.708,7.708,4.697,7.711,4.694,7.713C4.616,7.737,4.551,7.757,4.496,7.775c-0.005,0.042-0.01,0.091-0.017,0.146C4.421,8.281,3.35,16.496,2.837,20.441z M4.466,6.998h0.01H4.466z"></path>
  <path d="M8.638 20.25c-2.397 0-3.636-1.542-3.688-1.608C4.8 18.45 4.752 18.196 4.822 17.963l.565-1.883c.073-.244.267-.434.512-.505.247-.069.511-.01.702.157.368.322 1.076.775 1.5.775.029 0 .098 0 .103-.092 0-.263-.196-.452-.678-.854-.694-.581-1.645-1.376-1.645-3.077-.019-1.273.442-2.459 1.299-3.329C8.087 8.236 9.358 7.75 10.856 7.75c1.271 0 1.954.388 2.027.433.302.182.437.549.324.883l-.827 2.45c-.063.188-.198.342-.375.431l-.018.009c-.218.109-.477.104-.692-.011-.002-.001-.563-.293-1.196-.293-.566 0-.566.183-.566.28.044.099.425.386.676.576.86.65 2.159 1.634 2.159 3.6C12.369 18.547 10.835 20.25 8.638 20.25zM6.388 17.966c.364.307 1.113.784 2.25.784 1.355 0 2.231-1.037 2.231-2.643 0-1.22-.795-1.821-1.564-2.403-.625-.473-1.271-.962-1.271-1.772 0-.821.541-1.78 2.066-1.78.412 0 .792.071 1.104.159l.339-1.005c-.185-.032-.414-.056-.688-.056-1.087 0-1.988.331-2.606.959-.573.581-.881 1.385-.868 2.265 0 1.012.513 1.44 1.107 1.937.542.453 1.215 1.017 1.215 2.007 0 .782-.6 1.591-1.603 1.591-.556 0-1.123-.238-1.576-.5L6.388 17.966zM11.67 11.275h.01H11.67zM6.44 7.145c-.069 0-.138-.01-.208-.029C5.834 7.001 5.604 6.586 5.719 6.188c.196-.682 2.009-6.641 5.159-6.159.786.123 1.417.533 1.827 1.187.79 1.265.517 2.991.345 3.55-.122.396-.541.619-.938.496-.396-.122-.618-.542-.496-.938.146-.472.241-1.635-.183-2.312-.179-.285-.428-.444-.786-.5C9.299 1.284 7.785 4.427 7.16 6.602 7.066 6.931 6.766 7.145 6.44 7.145z"></path>
  <path d="M9.342,6.232c-0.028,0-0.057-0.002-0.086-0.005c-0.412-0.047-0.707-0.419-0.66-0.83c0.185-1.622,1.298-4.689,4.186-4.689c1.765,0,2.95,1.555,2.95,3.007c0,0.414-0.336,0.75-0.75,0.75s-0.75-0.336-0.75-0.75c0-0.629-0.552-1.507-1.45-1.507c-2.286,0-2.691,3.326-2.695,3.359C10.042,5.95,9.718,6.232,9.342,6.232z"></path>
</svg>
