<svg viewBox="0 0 512 512" xml:space="preserve" xmlns="http://www.w3.org/2000/svg" enable-background="new 0 0 512 512"><path d="M455.144 140.888v230.044l-56.952 32.787V173.944L255.82 91.664l-142.463 82.28.359 229.862-56.859-32.875V141.068L256.179 26.001l198.965 114.887zM284.383 403.719 256 420.246l-28.564-16.348V173.944l-56.86 32.875.09 229.865 85.244 49.314 85.425-49.314V206.73l-56.951-32.876v229.865h-.001z" fill="#20a0b1" class="fill-f26322"></path><path d="M255.909 495.999a9.993 9.993 0 0 1-5.007-1.344l-85.244-49.314a10.001 10.001 0 0 1-4.993-8.652l-.09-229.865a10 10 0 0 1 4.995-8.661l56.86-32.875a10 10 0 0 1 15.005 8.658V398.1l18.521 10.6 18.426-10.729V173.854a9.999 9.999 0 0 1 14.999-8.66l56.951 32.876a10 10 0 0 1 5.001 8.661v229.954a9.999 9.999 0 0 1-5 8.66l-85.425 49.314a9.978 9.978 0 0 1-4.999 1.34zm-75.246-65.083 75.252 43.533 75.419-43.538V212.504l-36.951-21.331v212.545a10 10 0 0 1-4.968 8.642l-28.383 16.527a10 10 0 0 1-10 .037l-28.564-16.348a10 10 0 0 1-5.033-8.679v-212.62l-36.858 21.31.086 218.329zm-66.947-17.109a9.982 9.982 0 0 1-5.005-1.343l-56.859-32.875a10 10 0 0 1-4.995-8.657V141.068c0-3.573 1.906-6.874 5-8.661L251.179 17.34a10.006 10.006 0 0 1 10 0l198.965 114.887a10 10 0 0 1 4.999 8.66v230.044a10 10 0 0 1-5.011 8.667l-56.952 32.786a9.997 9.997 0 0 1-14.989-8.666V179.715l-132.374-76.502-132.453 76.499.351 224.08a10.002 10.002 0 0 1-9.999 10.015zm-46.86-48.645 36.832 21.296-.332-212.498a9.999 9.999 0 0 1 4.999-8.675l142.463-82.28a10.001 10.001 0 0 1 10.005.001l142.372 82.28a10 10 0 0 1 4.996 8.658v212.479l36.952-21.273V146.661L256.178 37.548 66.856 146.842v218.32z" fill="#343434" class="fill-b64a1a"></path></svg>