<svg viewBox="0 0 24 24" xml:space="preserve" xmlns="http://www.w3.org/2000/svg"><path d="M22 5H2a2 2 0 0 0-2 2v8a2 2 0 0 0 2 2h10.4l3.6 2-.667-2H22a2 2 0 0 0 2-2V7a2 2 0 0 0-2-2z" fill="#20a0b1" class="fill-b96fae"></path><path d="M22 5H2a2 2 0 0 0-2 2v.25a2 2 0 0 1 2-2h20a2 2 0 0 1 2 2V7a2 2 0 0 0-2-2z" fill="#000000" opacity=".2" class="fill-ffffff"></path><path d="M22 16.75h-6.75l.083.25H22a2 2 0 0 0 2-2v-.25a2 2 0 0 1-2 2zM2 16.75a2 2 0 0 1-2-2V15a2 2 0 0 0 2 2h10.4l3.6 2-.102-.307L12.4 16.75H2z" fill="#010101" opacity=".1" class="fill-010101"></path><path d="M9 15a.5.5 0 0 1-.22-.051c-1.228-.602-1.87-2.897-2.42-5.198-.299.616-.676 1.434-.987 2.108C3.926 15 3.91 15 3.5 15c-.568 0-.602 0-1.223-5.218-.1-.845-.195-1.637-.273-2.216a.5.5 0 0 1 .992-.132c.078.581.173 1.38.274 2.23.125 1.052.29 2.439.431 3.419.244-.514.526-1.125.764-1.642C6.05 8 6.085 8 6.5 8c.469 0 .545.32.83 1.509.232.972.649 2.713 1.212 3.752.1-1.808.435-5.113 1.563-6.568a.5.5 0 0 1 .79.614C9.879 8.617 9.5 12.414 9.5 14.5a.5.5 0 0 1-.5.5zM12.916 15c-.506 0-.972-.226-1.31-.637-.55-.667-.74-1.773-.509-2.959C11.47 9.496 12.781 8 14.084 8c.506 0 .972.226 1.31.637.55.667.74 1.773.509 2.959C15.53 13.504 14.219 15 12.916 15zm1.168-6c-.71 0-1.708 1.066-2.005 2.596-.172.882-.058 1.699.298 2.131.152.184.328.273.539.273.71 0 1.708-1.066 2.005-2.596.172-.882.058-1.699-.298-2.131-.152-.184-.328-.273-.539-.273zM18.916 15c-.506 0-.972-.226-1.31-.637-.55-.667-.74-1.773-.509-2.959C17.47 9.496 18.781 8 20.084 8c.506 0 .972.226 1.31.637.55.667.74 1.773.509 2.959C21.53 13.504 20.219 15 18.916 15zm1.168-6c-.71 0-1.708 1.066-2.005 2.596-.172.882-.058 1.699.298 2.131.152.184.328.273.539.273.71 0 1.708-1.066 2.005-2.596.172-.882.058-1.699-.298-2.131-.152-.184-.328-.273-.539-.273z" fill="#000000" class="fill-ffffff"></path><linearGradient gradientUnits="userSpaceOnUse" id="a" x1="5.197" x2="20.154" y1="4.718" y2="19.675"><stop offset="0" stop-color="#010101" stop-opacity=".1" class="stop-color-010101"></stop><stop offset="1" stop-color="#010101" stop-opacity="0" class="stop-color-010101"></stop></linearGradient><path d="M8.542 13.261c.045-.82.144-1.95.339-3.075L6.955 8.26v.001c.126.222.22.605.375 1.248.232.972.649 2.713 1.212 3.752zm3.835.466c.152.184.328.273.539.273.71 0 1.708-1.066 2.005-2.596.172-.882.058-1.699-.298-2.131-.152-.184-.328-.273-.539-.273-.71 0-1.708 1.066-2.005 2.596-.172.882-.058 1.699.298 2.131zm6.539.273c.71 0 1.708-1.066 2.005-2.596.172-.882.058-1.699-.298-2.131-.152-.184-.328-.273-.539-.273-.71 0-1.708 1.066-2.005 2.596-.172.882-.058 1.699.298 2.131.152.184.328.273.539.273zm-15.215-.917c.244-.514.526-1.125.764-1.642.355-.771.63-1.362.85-1.826L2.809 7.107v.001c.099.078.17.191.188.326.078.581.173 1.38.274 2.23.125 1.052.29 2.439.431 3.419zm17.765-4.326c.485.675.656 1.714.437 2.839C21.53 13.504 20.219 15 18.916 15c-.506 0-.972-.226-1.31-.637-.55-.667-.74-1.773-.509-2.959a5.59 5.59 0 0 1 .236-.828l-1.939-1.939c.55.667.74 1.773.509 2.959C15.53 13.504 14.219 15 12.916 15c-.506 0-.972-.226-1.31-.637-.55-.667-.74-1.773-.509-2.959.24-1.227.87-2.277 1.633-2.875l-1.923-1.924a.5.5 0 0 1 .088.702C9.879 8.617 9.5 12.414 9.5 14.5a.5.5 0 0 1-.72.449c-1.228-.602-1.87-2.897-2.42-5.198-.299.616-.676 1.434-.987 2.108C3.926 15 3.91 15 3.5 15c-.126 0-.224-.003-.31-.06L5.25 17h7.15l3.6 2-.667-2H22a2 2 0 0 0 2-2v-3.708l-2.534-2.535z" fill="url(#a)" class="fillurl(-a)"></path><linearGradient gradientUnits="userSpaceOnUse" id="b" x1=".441" x2="23.559" y1="5.61" y2="16.39"><stop offset="0" stop-color="#000000" stop-opacity=".2" class="stop-color-ffffff"></stop><stop offset="1" stop-color="#000000" stop-opacity="0" class="stop-color-ffffff"></stop></linearGradient><path d="M22 5H2a2 2 0 0 0-2 2v8a2 2 0 0 0 2 2h10.4l3.6 2-.667-2H22a2 2 0 0 0 2-2V7a2 2 0 0 0-2-2z" fill="url(#b)" class="fillurl(-b)"></path></svg>