<svg viewBox="0 0 512 512" xml:space="preserve" xmlns="http://www.w3.org/2000/svg" enable-background="new 0 0 512 512"><path d="M305.112 168.036c0 8.496 1.355 21.315-18.701 28.579-6.208 2.25-10.399 6.299-10.399 6.299 0-20.214 3.076-27.53 11.345-31.86 6.358-3.331 17.755-3.018 17.755-3.018z" fill="#20a0b1" class="fill-000000"></path><path d="M276.005 212.951c-1.323 0-2.659-.263-3.93-.803-3.694-1.568-6.063-5.221-6.063-9.234 0-20.248 2.733-33.402 16.705-40.719 6.921-3.625 16.507-4.167 21.604-4.167.682 0 1.065.012 1.065.012 5.403.163 9.726 4.591 9.726 9.996 0 .464.005.942.009 1.432.08 8.86.246 27.296-25.305 36.549-3.995 1.448-6.889 4.12-6.917 4.147a9.902 9.902 0 0 1-6.894 2.787zm17.94-33.762c-.788.219-1.45.461-1.948.722-1.496.784-3.098 1.622-4.268 5.243 3.365-1.797 5.209-3.749 6.216-5.965z" fill="#20a0b1" class="fill-000000"></path><path d="m208.382 204.907-22.327 86.5-18.569-70.792c-5.016-20.858-13.568-31.644-31.579-31.644-17.847 0-26.512 10.55-31.579 31.644L85.76 291.407l-22.327-86.5c-3.619-17.422-20.486-24.953-36.044-22.997l42.755 161.66s14.104 1.018 21.165-2.582c9.272-4.727 13.68-8.372 19.294-30.365 5.001-19.607 18.98-77.208 20.292-81.309 3.104-9.742 7.23-9.005 10.041 0 1.284 4.108 15.291 61.702 20.292 81.309 5.606 21.993 10.021 25.639 19.293 30.365 7.056 3.6 21.165 2.582 21.165 2.582l42.755-161.66c-15.924-2.001-32.486 5.823-36.059 22.997z" fill="#ffffff" class="fill-ffffff"></path><path d="M197.163 353.703h-.001c-9.106 0-16.233-1.281-21.185-3.808-12.771-6.51-18.384-13.049-24.439-36.803-2.193-8.597-6.117-24.494-9.912-39.868-1.864-7.553-3.928-15.915-5.717-23.117-1.857 7.479-4.018 16.242-5.965 24.139-3.69 14.965-7.505 30.438-9.65 38.849-6.064 23.757-11.676 30.295-24.442 36.803-4.953 2.525-12.081 3.806-21.183 3.806a78.62 78.62 0 0 1-5.242-.159 9.999 9.999 0 0 1-8.948-7.417l-42.755-161.66a9.999 9.999 0 0 1 8.42-12.479 48.92 48.92 0 0 1 6.075-.38c20.552 0 36.977 12.453 40.956 31.015l12.667 49.074 8.792-33.519c4.063-16.863 12.777-39.207 41.278-39.207 28.491 0 37.208 22.341 41.276 39.202l8.793 33.522 12.667-49.076c3.984-18.563 20.392-31.016 40.912-31.016 2.039 0 4.102.129 6.131.384a10.002 10.002 0 0 1 8.42 12.479l-42.755 161.66a9.999 9.999 0 0 1-8.948 7.417c-.228.017-2.287.159-5.245.159zM135.92 212.281c4.642 0 10.936 2.438 14.561 14.054.733 2.344 3.935 15.249 10.562 42.097 3.786 15.337 7.7 31.196 9.875 39.72 4.898 19.214 7.605 20.594 14.145 23.928 1.215.62 4.194 1.325 8.909 1.551l37.209-140.692c-5.96 1.973-11.404 6.296-13.007 14.006a9.102 9.102 0 0 1-.108.462l-22.327 86.5a10 10 0 0 1-9.663 7.501h-.02a10 10 0 0 1-9.673-7.463l-18.569-70.792a14.47 14.47 0 0 1-.05-.199c-4.823-20.057-11.666-23.981-21.856-23.981-10.194 0-17.038 3.924-21.855 23.979a7.462 7.462 0 0 1-.051.202l-18.569 70.792a10.002 10.002 0 0 1-9.673 7.463h-.02a10 10 0 0 1-9.663-7.501l-22.327-86.5a9.475 9.475 0 0 1-.108-.465c-1.613-7.764-6.958-12.096-13.005-14.048L77.858 333.63c4.714-.227 7.693-.932 8.908-1.551 6.536-3.331 9.24-4.71 14.146-23.93 2.125-8.331 5.931-23.766 9.611-38.691 6.791-27.542 10.075-40.781 10.845-43.19 3.684-11.559 9.947-13.987 14.552-13.987z" fill="#20a0b1" class="fill-000000"></path><path d="M305.099 217.377s-2.673 3.857-8.775 7.04c-3.92 2.044-7.683 3.43-11.719 5.238-9.872 4.417-8.593 8.487-8.593 21.415v92.518s10.791 1.272 17.846-2.087c9.082-4.32 11.17-8.486 11.255-27.244v-91.421l-.014.006v-5.465z" fill="#ffffff" class="fill-ffffff"></path><path d="M280.863 353.823c-3.337 0-5.757-.273-6.022-.305a10 10 0 0 1-8.829-9.932v-92.518c0-1.384-.016-2.664-.029-3.851-.122-10.327-.237-20.081 14.538-26.692 1.44-.646 2.852-1.241 4.247-1.83 2.422-1.022 4.71-1.988 6.933-3.147 3.232-1.686 4.879-3.53 5.241-3.966 2.376-3.717 6.786-5.241 11.042-4.024 4.291 1.228 7.115 5.354 7.115 9.818v4.936c.009.173.014.347.014.522v91.421c-.09 19.948-2.467 29.381-16.959 36.274-4.589 2.186-10.407 3.294-17.291 3.294zm5.297-113.672c-.246 1.181-.209 4.292-.179 6.831.015 1.26.03 2.618.03 4.087v82.381c1.452-.231 2.676-.564 3.546-.979 4.432-2.108 5.483-2.608 5.555-18.261v-78.182c-.867.375-1.723.736-2.569 1.093-1.264.533-2.543 1.072-3.851 1.658-1.516.68-2.233 1.148-2.532 1.372z" fill="#20a0b1" class="fill-000000"></path><path d="m430.36 263.129 54.251-80.684s-22.893-3.899-34.231 6.423c-8.671 7.889-15.917 19.268-35.327 47.253-.307.475-4.075 6.873-8.522 0-19.099-27.537-26.604-39.312-35.327-47.253-11.34-10.322-34.233-6.423-34.233-6.423l54.25 80.684-54.1 80.434s23.844 3.014 35.177-7.309c7.492-6.82 11.463-13.281 34.238-46.111 4.442-6.858 8.197-.502 8.523 0 19.17 27.632 25.58 37.857 34.649 46.111 11.339 10.322 34.767 7.309 34.767 7.309l-54.115-80.434z" fill="#ffffff" class="fill-ffffff"></path><path d="M476.704 353.972h-.002c-10.213 0-24.354-1.791-33.726-10.323-8.476-7.713-14.566-16.547-27.909-35.902-1.344-1.948-2.764-4.01-4.272-6.193-1.849 2.672-3.557 5.144-5.14 7.434-15.307 22.149-19.421 28.103-26.627 34.662-9.367 8.532-23.664 10.323-34.008 10.323-5.141 0-8.759-.438-9.154-.488a10 10 0 0 1-7.044-15.502l50.347-74.854-50.498-75.103a10.001 10.001 0 0 1 6.619-15.438c1.271-.216 27.67-4.746 42.645 8.886 8.189 7.456 15 17.335 28.569 37.018a6835.99 6835.99 0 0 0 4.288 6.216c1.515-2.193 2.948-4.272 4.309-6.245 13.998-20.299 20.387-29.564 28.55-36.99 7.005-6.377 17.721-9.749 30.986-9.749 6.396 0 11.135.776 11.653.864a10 10 0 0 1 6.62 15.438l-50.498 75.102 50.359 74.854a10.002 10.002 0 0 1 .813 9.708 10.003 10.003 0 0 1-7.833 5.792c-.391.049-3.964.49-9.047.49zM355.794 192.52l43.725 65.029a9.999 9.999 0 0 1-.001 11.161l-43.178 64.195c4.063-.868 7.245-2.243 9.224-4.044 5.518-5.023 8.996-10.058 23.639-31.245 2.641-3.821 5.628-8.145 9.038-13.061 4.338-6.587 9.712-7.576 12.543-7.576 4.897 0 9.482 2.775 12.601 7.62 3.012 4.342 5.709 8.253 8.149 11.795 12.822 18.599 18.129 26.296 24.905 32.464 1.917 1.744 4.934 3.09 8.756 3.962l-43.131-64.109a9.999 9.999 0 0 1-.002-11.162l43.726-65.029c-3.794.758-6.799 2.035-8.676 3.743-6.464 5.881-12.443 14.553-25.546 33.553-2.47 3.582-5.18 7.512-8.182 11.84-3.086 4.834-7.683 7.627-12.605 7.628-2.831 0-8.208-.988-12.544-7.577-3.002-4.33-5.718-8.269-8.197-11.865-12.7-18.423-19.075-27.67-25.566-33.58-1.878-1.708-4.883-2.985-8.678-3.742z" fill="#20a0b1" class="fill-000000"></path></svg>