<svg width="500" height="362" viewBox="0 0 500 362" fill="none" xmlns="http://www.w3.org/2000/svg">
<g clip-path="url(#clip0_1_4)">
<path d="M470.488 353.144C470.488 357.998 466.552 361.934 461.699 361.934H38.302C33.448 361.934 29.512 357.998 29.512 353.144C29.512 348.29 33.448 344.354 38.302 344.354H461.699C466.553 344.353 470.488 348.289 470.488 353.144Z" fill="#E8E1C8"/>
<path d="M293.108 350.783C293.108 351.418 292.589 351.937 291.955 351.937H191.061C190.426 351.937 189.908 351.417 189.908 350.783V346.748C189.908 346.113 190.427 345.596 191.061 345.596H291.956C292.591 345.596 293.109 346.114 293.109 346.748V350.783H293.108Z" fill="#282740"/>
<path d="M259.879 315.682H242.541H240.475H223.137C223.137 332.373 198.044 346.438 198.044 346.438H240.475H242.541H284.972C284.972 346.438 259.879 332.373 259.879 315.682Z" fill="#53538C"/>
<path opacity="0.4" d="M259.879 315.682H242.541H240.475H233.028C238.255 325.364 247.383 337.28 263.008 346.438H284.973C284.973 346.438 259.879 332.373 259.879 315.682Z" fill="#282740"/>
<path d="M397.5 313.682C397.5 314.782 396.6 315.682 395.5 315.682H87.516C86.416 315.682 85.516 314.782 85.516 313.682V127.192C85.516 126.092 86.416 125.192 87.516 125.192H395.5C396.6 125.192 397.5 126.092 397.5 127.192V313.682Z" fill="#282740"/>
<path d="M385.705 303.182C385.705 304.282 384.805 305.182 383.705 305.182H99.311C98.211 305.182 97.311 304.282 97.311 303.182V137.692C97.311 136.592 98.211 135.692 99.311 135.692H383.706C384.806 135.692 385.706 136.592 385.706 137.692V303.182H385.705Z" fill="#48CAD9"/>
<path d="M385.705 149.438V137.693C385.705 136.593 384.805 135.693 383.705 135.693H99.311C98.211 135.693 97.311 136.593 97.311 137.693V149.438H385.705Z" fill="#1EB3BA"/>
<path d="M118.121 145.449C119.714 145.449 121.005 144.158 121.005 142.565C121.005 140.972 119.714 139.681 118.121 139.681C116.528 139.681 115.237 140.972 115.237 142.565C115.237 144.158 116.528 145.449 118.121 145.449Z" fill="white"/>
<path d="M106.121 145.449C107.714 145.449 109.005 144.158 109.005 142.565C109.005 140.972 107.714 139.681 106.121 139.681C104.528 139.681 103.237 140.972 103.237 142.565C103.237 144.158 104.528 145.449 106.121 145.449Z" fill="white"/>
<path d="M130.121 145.449C131.714 145.449 133.005 144.158 133.005 142.565C133.005 140.972 131.714 139.681 130.121 139.681C128.528 139.681 127.237 140.972 127.237 142.565C127.237 144.158 128.528 145.449 130.121 145.449Z" fill="white"/>
<path d="M363.935 160.092H119.08V209.438H363.935V160.092Z" fill="#76E0E5"/>
<path d="M222.238 217.438H119.08V250.317H222.238V217.438Z" fill="#76E0E5"/>
<path d="M222.238 257.594H119.08V262.446H222.238V257.594Z" fill="#76E0E5"/>
<path d="M222.238 267.594H119.08V272.446H222.238V267.594Z" fill="#76E0E5"/>
<path d="M222.238 277.594H119.08V282.446H222.238V277.594Z" fill="#76E0E5"/>
<path d="M222.238 287.594H119.08V292.446H222.238V287.594Z" fill="#76E0E5"/>
<path d="M282.508 217.438H231.508V272.446H282.508V217.438Z" fill="#76E0E5"/>
<path d="M282.428 277.594H230.929V282.446H282.428V277.594Z" fill="#76E0E5"/>
<path d="M282.428 287.594H230.929V292.446H282.428V287.594Z" fill="#76E0E5"/>
<path d="M363.935 217.438H293.108V250.317H363.935V217.438Z" fill="#76E0E5"/>
<path d="M362.701 257.594H293.108V262.446H362.701V257.594Z" fill="#76E0E5"/>
<path d="M362.701 267.594H293.108V272.446H362.701V267.594Z" fill="#76E0E5"/>
<path d="M362.701 277.594H293.108V282.446H362.701V277.594Z" fill="#76E0E5"/>
<path d="M362.701 287.594H293.108V292.446H362.701V287.594Z" fill="#76E0E5"/>
<path opacity="0.1" d="M397.5 313.682V127.192C397.5 126.092 396.6 125.192 395.5 125.192H368.437C360.153 273.669 209.841 315.681 209.841 315.681H395.5C396.6 315.682 397.5 314.781 397.5 313.682Z" fill="#282740"/>
<path d="M111.576 254.025C110.476 254.025 109.307 254.882 108.978 255.933L105.173 268.08C104.845 269.129 103.676 269.988 102.575 269.988H60.909C59.809 269.988 59.069 270.873 59.264 271.955L71.553 339.969C71.748 341.051 72.809 341.938 73.908 341.938H139.91C141.01 341.938 142.042 341.047 142.202 339.96L154.617 256.005C154.778 254.917 154.01 254.026 152.91 254.026H111.576V254.025Z" fill="#282740"/>
<path d="M140.436 319.772H73.437V224.772H127.576L140.436 237.772V319.772Z" fill="white"/>
<path d="M127.576 224.772L140.436 237.772H127.576V224.772Z" fill="#F4F0E1"/>
<path d="M134.271 249.938H79.604V251.51H134.271V249.938Z" fill="#B7E5E5"/>
<path d="M134.271 256.225H79.604V257.797H134.271V256.225Z" fill="#B7E5E5"/>
<path d="M134.271 262.512H79.604V264.084H134.271V262.512Z" fill="#B7E5E5"/>
<path d="M134.271 268.799H79.604V270.371H134.271V268.799Z" fill="#B7E5E5"/>
<path d="M134.271 275.086H79.604V276.658H134.271V275.086Z" fill="#B7E5E5"/>
<path d="M134.271 281.373H79.604V282.945H134.271V281.373Z" fill="#B7E5E5"/>
<path d="M88.842 239.277C88.842 236.189 91.203 234.002 94.421 234.002C96.291 234.002 97.798 234.685 98.784 235.916L96.958 237.568C96.32 236.798 95.538 236.379 94.566 236.379C92.899 236.379 91.74 237.539 91.74 239.277C91.74 241.017 92.899 242.175 94.566 242.175C95.538 242.175 96.32 241.755 96.958 240.985L98.784 242.639C97.799 243.871 96.291 244.551 94.421 244.551C91.204 244.553 88.842 242.365 88.842 239.277Z" fill="#ED6332"/>
<path d="M110.763 244.35L110.734 238.975L108.126 243.35H106.85L104.257 239.12V244.35H101.605V234.205H103.968L107.532 240.06L111.011 234.205H113.372L113.401 244.35H110.763Z" fill="#ED6332"/>
<path d="M116.263 243.438L117.205 241.323C118.103 241.917 119.379 242.323 120.554 242.323C121.742 242.323 122.205 241.989 122.205 241.495C122.205 239.888 116.438 241.059 116.438 237.292C116.438 235.482 117.915 234.003 120.93 234.003C122.249 234.003 123.611 234.308 124.61 234.888L123.727 237.017C122.755 236.496 121.798 236.238 120.916 236.238C119.712 236.238 119.277 236.642 119.277 237.148C119.277 238.699 125.031 237.541 125.031 241.279C125.031 243.047 123.554 244.554 120.539 244.554C118.873 244.553 117.22 244.103 116.263 243.438Z" fill="#ED6332"/>
<path d="M111.576 264.025C110.476 264.025 109.307 264.882 108.978 265.933L105.173 278.08C104.845 279.129 103.676 279.988 102.575 279.988H60.909C59.809 279.988 59.069 280.873 59.264 281.955L71.553 349.969C71.748 351.051 72.809 351.938 73.908 351.938H139.91C141.01 351.938 142.042 351.047 142.202 349.96L154.617 266.005C154.778 264.917 154.01 264.026 152.91 264.026H111.576V264.025Z" fill="#53538C"/>
<path opacity="0.4" d="M142.203 349.959L154.618 266.004C154.779 264.916 154.011 264.025 152.911 264.025H148.904C142.19 327.861 93.9269 343.654 71.1179 347.556L71.5539 349.968C71.7489 351.05 72.8099 351.937 73.9089 351.937H139.911C141.011 351.938 142.043 351.047 142.203 349.959Z" fill="#282740"/>
<path d="M435.468 349.725C435.468 350.782 434.603 351.647 433.546 351.647H313.282C312.226 351.647 311.361 350.782 311.361 349.725V262.368C311.361 261.311 312.226 260.446 313.282 260.446H433.546C434.603 260.446 435.468 261.311 435.468 262.368V349.725Z" fill="#282740"/>
<path d="M430.596 339.57C430.596 340.545 429.799 341.341 428.825 341.341H318.004C317.03 341.341 316.233 340.544 316.233 339.57V265.795C316.233 264.822 317.03 264.025 318.004 264.025H428.825C429.799 264.025 430.596 264.822 430.596 265.795V339.57Z" fill="#53538C"/>
<path d="M430.596 346.117C430.596 346.49 430.293 346.793 429.919 346.793H316.91C316.536 346.793 316.233 346.49 316.233 346.117C316.233 345.744 316.536 345.441 316.91 345.441H429.919C430.293 345.441 430.596 345.744 430.596 346.117Z" fill="#53538C"/>
<path d="M392.166 346.117C392.166 346.49 391.862 346.793 391.489 346.793H316.91C316.536 346.793 316.233 346.49 316.233 346.117C316.233 345.744 316.536 345.441 316.91 345.441H391.489C391.862 345.441 392.166 345.744 392.166 346.117Z" fill="#ED6332"/>
<path d="M393.892 346.193C393.892 347.652 392.708 348.836 391.249 348.836C389.79 348.836 388.607 347.652 388.607 346.193C388.607 344.734 389.79 343.55 391.249 343.55C392.708 343.551 393.892 344.734 393.892 346.193Z" fill="#ED6332"/>
<path opacity="0.2" d="M403.838 303.766C403.838 320.569 390.217 334.192 373.414 334.192C356.611 334.192 342.989 320.569 342.989 303.766C342.989 286.963 356.611 273.342 373.414 273.342C390.217 273.342 403.838 286.963 403.838 303.766Z" fill="#48CAD9"/>
<path d="M397.192 303.766C397.192 316.899 386.546 327.545 373.414 327.545C360.282 327.545 349.636 316.899 349.636 303.766C349.636 290.635 360.283 279.989 373.414 279.989C386.547 279.988 397.192 290.635 397.192 303.766Z" fill="#48CAD9"/>
<path d="M368.716 293.799V313.734L381.705 303.975L368.716 293.799Z" fill="#53538C"/>
<path opacity="0.2" d="M433.546 351.647C434.603 351.647 435.468 350.782 435.468 349.725V262.368C435.468 261.311 434.603 260.446 433.546 260.446H422.279C422.288 320.94 391.095 343.757 374.32 351.647H433.546Z" fill="#282740"/>
<path d="M345.443 152.315C345.443 152.855 345.001 153.297 344.46 153.297H223.482C222.941 153.297 222.5 152.855 222.5 152.315V72.692C222.5 72.152 222.941 71.71 223.482 71.71H344.46C345 71.71 345.443 72.152 345.443 72.692V152.315Z" fill="#ED6332"/>
<path d="M340.967 147.63C340.967 148.123 340.565 148.526 340.07 148.526H227.871C227.379 148.526 226.975 148.123 226.975 147.63V77.377C226.975 76.885 227.379 76.481 227.871 76.481H340.07C340.564 76.481 340.967 76.885 340.967 77.377V147.63Z" fill="white"/>
<path d="M261.7 118.428L258.999 121.191C258.561 121.672 258.006 121.632 257.568 121.191L247.878 111.421V120.51C247.878 121.151 247.522 121.511 246.885 121.511H242.993C242.356 121.511 242 121.151 242 120.51V92.0004C242 91.3598 242.358 91 242.993 91H246.884C247.522 91 247.878 91.3598 247.878 92.0004V101.33H261.024C261.66 101.33 262.017 101.692 262.017 102.331V106.295C262.017 106.935 261.659 107.295 261.024 107.295H252.088L261.7 116.985C262.136 117.427 262.136 117.948 261.7 118.428ZM283.267 111.381C283.267 111.782 283.227 112.222 283.187 112.623C283.107 113.263 282.71 113.543 282.116 113.543H269.088C269.763 115.305 271.471 116.466 273.615 116.466C275.164 116.466 276.356 115.865 277.229 114.905C277.628 114.423 278.064 114.303 278.58 114.625L281.599 116.466C282.155 116.826 282.314 117.306 281.916 117.828C280.09 120.389 277.07 121.952 273.536 121.952C267.499 121.952 263.131 117.388 263.131 111.462C263.131 105.456 267.301 100.892 273.219 100.892C279.177 100.889 283.267 105.373 283.267 111.381ZM277.467 109.259C276.911 107.336 275.323 106.296 273.257 106.296C271.073 106.296 269.485 107.336 268.968 109.259H277.467ZM302.926 108.857V120.509C302.926 121.151 302.569 121.51 301.933 121.51H298.161C297.525 121.51 297.168 121.151 297.168 120.509V119.348C295.659 121.149 293.871 121.951 291.647 121.951C287.278 121.951 284.379 119.429 284.379 115.625C284.379 111.66 287.238 109.137 291.488 109.137H297.168V108.696C297.168 107.254 295.817 106.294 293.831 106.294C292.56 106.294 291.33 106.776 290.774 107.456C290.415 107.897 290.137 108.177 289.582 108.177H285.888C285.212 108.177 284.816 107.816 284.935 107.216C285.69 103.413 288.948 100.889 293.752 100.889C299.272 100.889 302.926 104.093 302.926 108.857ZM297.167 114.023V113.342H292.44C290.851 113.342 290.216 114.183 290.216 115.305C290.216 116.345 291.049 117.187 293.075 117.187C295.539 117.187 297.167 115.905 297.167 114.023ZM326 111.461C326 117.307 321.908 121.951 316.508 121.951C314.244 121.951 312.336 121.111 311.107 119.71V129C311.107 129.64 310.749 130 310.114 130H306.22C305.585 130 305.229 129.639 305.229 129V102.331C305.229 101.69 305.586 101.33 306.22 101.33H309.994C310.629 101.33 310.986 101.692 310.986 102.331V103.453C312.258 101.812 314.204 100.891 316.426 100.891C321.79 100.889 326 105.495 326 111.461ZM320.122 111.461C320.122 108.738 318.214 106.656 315.594 106.656C312.814 106.656 310.909 108.738 310.909 111.461C310.909 114.105 312.815 116.185 315.594 116.185C318.214 116.185 320.122 114.104 320.122 111.461Z" fill="#36A635"/>
<path d="M240.224 230.285C240.224 230.871 239.744 231.351 239.158 231.351H157.708C157.122 231.351 156.643 230.871 156.643 230.285V172.157C156.643 171.571 157.122 171.092 157.708 171.092H239.158C239.744 171.092 240.224 171.572 240.224 172.157V230.285Z" fill="#282740"/>
<path d="M240.224 178.412V172.157C240.224 171.571 239.744 171.092 239.158 171.092H157.708C157.122 171.092 156.643 171.572 156.643 172.157V178.412H240.224Z" fill="#53538C"/>
<path d="M169.259 174.752C169.259 175.6 168.573 176.288 167.725 176.288C166.875 176.288 166.189 175.599 166.189 174.752C166.189 173.903 166.876 173.216 167.725 173.216C168.572 173.216 169.259 173.903 169.259 174.752Z" fill="white"/>
<path d="M162.869 174.752C162.869 175.6 162.181 176.288 161.334 176.288C160.485 176.288 159.797 175.599 159.797 174.752C159.797 173.903 160.486 173.216 161.334 173.216C162.181 173.216 162.869 173.903 162.869 174.752Z" fill="white"/>
<path d="M175.65 174.752C175.65 175.6 174.962 176.288 174.115 176.288C173.266 176.288 172.578 175.599 172.578 174.752C172.578 173.903 173.267 173.216 174.115 173.216C174.962 173.216 175.65 173.903 175.65 174.752Z" fill="white"/>
<path d="M234.251 193.022H180.321V195.188H234.251V193.022Z" fill="white"/>
<path d="M178.605 186.021H162.614V188.187H178.605V186.021Z" fill="#76E0E5"/>
<path d="M171.076 200.022H162.614V202.188H171.076V200.022Z" fill="#76E0E5"/>
<path d="M178.605 207.022H162.614V209.188H178.605V207.022Z" fill="#76E0E5"/>
<path d="M175.052 214.022H162.614V216.188H175.052V214.022Z" fill="#76E0E5"/>
<path d="M218.799 186.021H187.746V188.187H218.799V186.021Z" fill="white"/>
<path d="M175.052 193.022H162.614V195.188H175.052V193.022Z" fill="#76E0E5"/>
<path d="M211.352 200.022H174.661V202.188H211.352V200.022Z" fill="white"/>
<path d="M218.799 207.022H187.746V209.188H218.799V207.022Z" fill="white"/>
<path d="M234.251 214.022H180.321V216.188H234.251V214.022Z" fill="white"/>
<path d="M171.076 221.022H162.614V223.188H171.076V221.022Z" fill="#76E0E5"/>
<path d="M211.352 221.022H174.661V223.188H211.352V221.022Z" fill="white"/>
<path opacity="0.4" d="M240.224 172.157C240.224 171.571 239.744 171.092 239.158 171.092H219.169C218.687 208.36 193.162 225.457 181.434 231.352H239.159C239.745 231.352 240.225 230.872 240.225 230.286V172.157H240.224Z" fill="#282740"/>
<path d="M371.085 179.154C371.085 179.74 370.605 180.22 370.019 180.22H298.569C297.983 180.22 297.504 179.74 297.504 179.154V141.027C297.504 140.441 297.983 139.962 298.569 139.962H370.019C370.605 139.962 371.085 140.442 371.085 141.027V179.154Z" fill="#282740"/>
<path d="M371.085 147.282V141.027C371.085 140.441 370.605 139.962 370.019 139.962H298.569C297.983 139.962 297.504 140.442 297.504 141.027V147.282H371.085Z" fill="#53538C"/>
<path d="M310.12 143.622C310.12 144.47 309.434 145.158 308.586 145.158C307.736 145.158 307.049 144.469 307.049 143.622C307.049 142.773 307.737 142.086 308.586 142.086C309.434 142.086 310.12 142.773 310.12 143.622Z" fill="white"/>
<path d="M303.73 143.622C303.73 144.47 303.041 145.158 302.195 145.158C301.345 145.158 300.658 144.469 300.658 143.622C300.658 142.773 301.346 142.086 302.195 142.086C303.042 142.086 303.73 142.773 303.73 143.622Z" fill="white"/>
<path d="M316.512 143.622C316.512 144.47 315.823 145.158 314.977 145.158C314.127 145.158 313.44 144.469 313.44 143.622C313.44 142.773 314.128 142.086 314.977 142.086C315.823 142.086 316.512 142.773 316.512 143.622Z" fill="white"/>
<path d="M336.017 155.184C334.343 160.255 332.668 165.328 330.994 170.398C330.661 171.403 332.243 171.832 332.572 170.832C334.248 165.762 335.924 160.691 337.597 155.62C337.928 154.614 336.347 154.188 336.017 155.184Z" fill="#76E0E5"/>
<path d="M329.962 165.867C328.577 164.914 327.191 163.961 325.804 163.009C327.191 162.057 328.577 161.105 329.962 160.151C330.828 159.556 330.01 158.137 329.135 158.736C327.407 159.924 325.677 161.114 323.948 162.301C323.423 162.662 323.423 163.355 323.948 163.717C325.677 164.904 327.407 166.093 329.135 167.283C330.01 167.881 330.828 166.463 329.962 165.867Z" fill="#76E0E5"/>
<path d="M338.628 165.867C340.011 164.914 341.397 163.961 342.782 163.009C341.396 162.057 340.01 161.105 338.628 160.151C337.764 159.556 338.582 158.137 339.453 158.736C341.182 159.924 342.91 161.114 344.638 162.301C345.165 162.662 345.165 163.355 344.638 163.717C342.91 164.904 341.183 166.093 339.453 167.283C338.582 167.881 337.764 166.463 338.628 165.867Z" fill="#76E0E5"/>
<path opacity="0.4" d="M370.019 180.221C370.605 180.221 371.085 179.741 371.085 179.155V141.028C371.085 140.442 370.605 139.963 370.019 139.963H354.024C352.813 163.624 339.308 174.917 328.2 180.222H370.019V180.221Z" fill="#282740"/>
<path d="M407.162 245.402L406.061 248.084L388.821 241C393.749 226.725 386.749 210.863 372.604 205.053C357.944 199.026 341.114 206.053 335.087 220.715C329.063 235.377 336.09 252.209 350.753 258.233C364.897 264.046 381.025 257.69 387.559 244.075L404.798 251.159L403.696 253.835L420.724 260.833L424.188 252.399L407.162 245.402ZM384.172 240.885C379.074 253.287 364.839 259.231 352.437 254.133C340.035 249.039 334.091 234.801 339.188 222.401C344.284 209.999 358.52 204.055 370.923 209.149C383.323 214.246 389.268 228.482 384.172 240.885Z" fill="white"/>
<path d="M353.858 214.158C351.141 215.293 349.858 218.414 350.994 221.131C352.128 223.85 355.25 225.133 357.967 223.998C360.686 222.863 361.969 219.74 360.834 217.023C359.7 214.307 356.577 213.023 353.858 214.158Z" fill="white"/>
<path d="M449.606 130.642H445.626C445.143 127.311 443.836 124.253 441.911 121.674L444.726 118.86C445.115 118.471 445.115 117.835 444.726 117.446L442.086 114.805C441.696 114.416 441.061 114.416 440.671 114.805L437.857 117.619C435.278 115.695 432.221 114.389 428.889 113.906V109.924C428.889 109.375 428.439 108.924 427.889 108.924H424.156C423.606 108.924 423.156 109.375 423.156 109.924V113.906C419.825 114.389 416.768 115.695 414.188 117.62L411.374 114.805C410.984 114.416 410.349 114.416 409.96 114.805L407.319 117.446C406.93 117.835 406.93 118.47 407.319 118.86L410.135 121.674C408.211 124.254 406.905 127.311 406.421 130.642H402.44C401.889 130.642 401.44 131.092 401.44 131.642V135.375C401.44 135.925 401.889 136.375 402.44 136.375H406.421C406.904 139.706 408.21 142.763 410.135 145.343L407.319 148.157C406.93 148.547 406.93 149.182 407.319 149.571L409.96 152.212C410.349 152.601 410.984 152.601 411.374 152.211L414.188 149.397C416.767 151.322 419.824 152.627 423.156 153.112V157.092C423.156 157.643 423.606 158.092 424.156 158.092H427.889C428.439 158.092 428.889 157.643 428.889 157.092V153.112C432.221 152.629 435.278 151.322 437.858 149.398L440.671 152.211C441.061 152.601 441.696 152.601 442.085 152.212L444.725 149.571C445.115 149.182 445.115 148.547 444.725 148.157L441.911 145.344C443.835 142.764 445.141 139.707 445.625 136.375H449.605C450.156 136.375 450.605 135.925 450.605 135.375V131.642C450.606 131.092 450.157 130.642 449.606 130.642ZM426.023 148.009C418.015 148.009 411.523 141.517 411.523 133.509C411.523 125.5 418.015 119.008 426.023 119.008C434.032 119.008 440.523 125.5 440.523 133.509C440.523 141.517 434.032 148.009 426.023 148.009Z" fill="#ED6332"/>
<path d="M409.683 92.1281H406.527C406.144 89.4861 405.108 87.0631 403.582 85.0181L405.814 82.7861C406.123 82.4781 406.123 81.9731 405.814 81.6651L403.721 79.5721C403.412 79.2631 402.907 79.2631 402.599 79.5721L400.368 81.8031C398.323 80.2781 395.899 79.2411 393.258 78.8591V75.7021C393.258 75.2661 392.901 74.9091 392.465 74.9091H389.504C389.068 74.9091 388.712 75.2661 388.712 75.7021V78.8591C386.07 79.2431 383.647 80.2781 381.601 81.8041L379.37 79.5721C379.061 79.2631 378.557 79.2641 378.249 79.5721L376.155 81.6661C375.846 81.9741 375.846 82.4781 376.155 82.7871L378.387 85.0181C376.862 87.0641 375.826 89.4871 375.443 92.1281H372.286C371.85 92.1281 371.493 92.4851 371.493 92.9211V95.8811C371.493 96.3171 371.85 96.6741 372.286 96.6741H375.443C375.826 99.3151 376.861 101.738 378.387 103.784L376.155 106.015C375.846 106.324 375.846 106.829 376.155 107.136L378.249 109.23C378.558 109.539 379.062 109.539 379.37 109.23L381.601 106.998C383.646 108.525 386.07 109.561 388.712 109.943V113.099C388.712 113.537 389.069 113.892 389.504 113.892H392.465C392.9 113.892 393.258 113.537 393.258 113.099V109.943C395.9 109.56 398.324 108.525 400.369 107L402.599 109.23C402.908 109.539 403.412 109.539 403.72 109.23L405.813 107.136C406.123 106.828 406.123 106.323 405.813 106.015L403.583 103.785C405.108 101.739 406.145 99.3161 406.527 96.6741H409.683C410.119 96.6741 410.476 96.3181 410.476 95.8811V92.9211C410.476 92.4851 410.119 92.1281 409.683 92.1281ZM390.983 102.281C386.63 102.281 383.102 98.7531 383.102 94.4021C383.102 90.0481 386.63 86.5211 390.983 86.5211C395.335 86.5211 398.864 90.0481 398.864 94.4021C398.864 98.7531 395.336 102.281 390.983 102.281Z" fill="#ED6332"/>
<path d="M185.281 349.4C185.336 351.761 183.449 353.691 181.089 353.691H178.984C176.624 353.691 174.737 351.761 174.792 349.4L176.31 284.158C176.365 281.799 178.041 279.867 180.037 279.867C182.032 279.867 183.71 281.799 183.765 284.158L185.281 349.4Z" fill="#ED6332"/>
<path d="M178.984 353.691H181.089C181.847 353.691 182.546 353.476 183.158 353.127L182.439 322.217C182.404 320.696 181.322 319.449 180.036 319.449C178.75 319.449 177.669 320.695 177.633 322.217L176.914 353.127C177.526 353.477 178.226 353.691 178.984 353.691Z" fill="#DB3E0E"/>
<path d="M188.862 256.672V268.701L180.036 277.41L171.21 268.701V256.674C165.064 259.867 160.865 266.285 160.865 273.69C160.865 284.278 169.448 292.862 180.036 292.862C190.624 292.862 199.208 284.278 199.208 273.69C199.208 266.285 195.008 259.867 188.862 256.672Z" fill="#ED6332"/>
<path d="M180.036 289.143C172.973 289.143 166.643 286.016 162.343 281.078C165.236 287.998 172.068 292.861 180.036 292.861C188.005 292.861 194.838 287.998 197.73 281.078C193.429 286.016 187.1 289.143 180.036 289.143Z" fill="#DB3E0E"/>
<path d="M198.746 122.833C198.746 124.34 197.513 125.573 196.006 125.573H118.626C117.119 125.573 115.886 124.34 115.886 122.833V82.168C115.886 80.661 117.119 79.428 118.626 79.428H196.006C197.513 79.428 198.746 80.661 198.746 82.168V122.833Z" fill="#ED6332"/>
<path d="M196.006 79.428H118.626C118.24 79.428 117.874 79.511 117.541 79.657L154.777 106.64C156.173 107.653 158.459 107.653 159.854 106.64L197.09 79.657C196.758 79.511 196.392 79.428 196.006 79.428Z" fill="#DB3E0E"/>
<path opacity="0.1" d="M196.006 79.428H182.047C178.613 108.111 156.141 120.374 139.144 125.573H196.006C197.513 125.573 198.746 124.34 198.746 122.833V82.168C198.746 80.661 197.513 79.428 196.006 79.428Z" fill="#282740"/>
<path d="M159.287 41.629C151.854 56.964 135.229 60.372 135.229 60.372C138.423 87.636 159.287 93.315 159.287 93.315C159.287 93.315 180.149 87.635 183.344 60.372C183.344 60.372 166.719 56.964 159.287 41.629Z" fill="#48CAD9"/>
<path d="M159.287 53.792C154.757 63.139 144.625 65.215 144.625 65.215C146.571 81.831 159.287 85.293 159.287 85.293C159.287 85.293 172.001 81.831 173.949 65.215C173.949 65.215 163.816 63.139 159.287 53.792Z" fill="#76E0E5"/>
<path d="M165.68 65.226C163.476 67.958 161.273 70.689 159.069 73.42C157.654 72.347 156.241 71.274 154.827 70.199C153.496 69.189 152.209 71.438 153.52 72.433C155.224 73.727 156.93 75.021 158.634 76.315C159.056 76.635 159.872 76.522 160.201 76.113C162.637 73.093 165.073 70.075 167.51 67.055C168.547 65.77 166.729 63.927 165.68 65.226Z" fill="#282740"/>
<path opacity="0.1" d="M145.483 84.188C152.076 91.346 159.287 93.316 159.287 93.316C159.287 93.316 180.149 87.636 183.344 60.373C183.344 60.373 178.186 59.307 172.332 55.723C167.628 72.648 153.813 80.752 145.483 84.188Z" fill="#282740"/>
<path d="M93.433 165.132C91.951 165.132 90.525 165.364 89.184 165.797C87.114 157.519 79.631 151.394 70.716 151.394C60.2 151.394 51.676 159.914 51.676 170.433C51.676 171.201 51.726 171.952 51.814 172.693C51.152 172.556 50.464 172.487 49.763 172.487C44.084 172.487 39.48 177.092 39.48 182.768C39.48 188.448 44.084 193.051 49.763 193.051H93.433C101.143 193.051 107.394 186.803 107.394 179.092C107.394 171.383 101.143 165.132 93.433 165.132Z" fill="white"/>
<path opacity="0.2" d="M100.555 167.102C101.433 168.928 101.939 170.968 101.939 173.13C101.939 180.84 95.687 187.086 87.978 187.086H44.308C42.794 187.086 41.361 186.752 40.066 186.164C41.47 190.172 45.277 193.051 49.763 193.051H93.433C101.143 193.051 107.394 186.803 107.394 179.092C107.394 173.988 104.645 169.536 100.555 167.102Z" fill="#282740"/>
<path d="M84.19 175.129L79.847 169.589L75.505 175.129H78.147V179.498H81.546V175.129H84.19Z" fill="#48CAD9"/>
<path d="M60.683 174.82L65.026 180.361L69.37 174.82H66.727V170.451H63.328V174.82H60.683Z" fill="#48CAD9"/>
<path d="M346.799 58.7861C345.401 58.7861 344.057 59.006 342.792 59.413C340.84 51.606 333.784 45.8311 325.377 45.8311C315.46 45.8311 307.422 53.8651 307.422 63.7851C307.422 64.5091 307.468 65.2171 307.551 65.9161C306.926 65.7861 306.279 65.721 305.618 65.721C300.261 65.721 295.92 70.0651 295.92 75.4191C295.92 80.7741 300.262 85.1131 305.618 85.1131H346.799C354.07 85.1131 359.965 79.2211 359.965 71.9511C359.965 64.6811 354.069 58.7861 346.799 58.7861Z" fill="white"/>
<path opacity="0.2" d="M353.516 60.644C354.342 62.367 354.82 64.289 354.82 66.33C354.82 73.6 348.924 79.491 341.655 79.491H300.474C299.045 79.491 297.695 79.176 296.473 78.621C297.797 82.4 301.387 85.114 305.619 85.114H346.8C354.071 85.114 359.966 79.222 359.966 71.952C359.965 67.137 357.373 62.939 353.516 60.644Z" fill="#282740"/>
<path d="M332.041 66.1861L326.74 59.425L321.44 66.1861H324.666V71.519H328.813V66.1861H332.041Z" fill="#48CAD9"/>
<path d="M439.586 198.078C438.612 198.078 437.677 198.232 436.796 198.516C435.437 193.081 430.524 189.059 424.671 189.059C417.767 189.059 412.17 194.653 412.17 201.559C412.17 202.063 412.202 202.557 412.26 203.043C411.825 202.953 411.374 202.906 410.914 202.906C407.185 202.906 404.162 205.931 404.162 209.658C404.162 213.386 407.185 216.408 410.914 216.408H439.586C444.648 216.408 448.752 212.306 448.752 207.244C448.752 202.182 444.647 198.078 439.586 198.078Z" fill="white"/>
<path opacity="0.2" d="M444.262 199.371C444.838 200.57 445.17 201.91 445.17 203.33C445.17 208.393 441.066 212.494 436.004 212.494H407.332C406.338 212.494 405.397 212.273 404.547 211.887C405.469 214.52 407.968 216.409 410.914 216.409H439.586C444.648 216.409 448.752 212.307 448.752 207.245C448.752 203.893 446.947 200.971 444.262 199.371Z" fill="#282740"/>
<path d="M421.412 202.207L425.322 207.193L429.23 202.207H426.852V198.275H423.793V202.207H421.412Z" fill="#48CAD9"/>
<path d="M82.5049 89.952H81.5049V95.751H82.5049V89.952Z" fill="#D8B560"/>
<path d="M82.5049 101.982H81.5049V107.78H82.5049V101.982Z" fill="#D8B560"/>
<path d="M90.919 98.366H85.12V99.366H90.919V98.366Z" fill="#D8B560"/>
<path d="M78.8899 98.366H73.0909V99.366H78.8899V98.366Z" fill="#D8B560"/>
<path d="M87.9523 92.2092L83.8525 96.309L84.5596 97.0161L88.6594 92.9163L87.9523 92.2092Z" fill="#D8B560"/>
<path d="M79.4463 100.715L75.3466 104.815L76.0537 105.522L80.1534 101.422L79.4463 100.715Z" fill="#D8B560"/>
<path d="M84.5585 100.717L83.8514 101.424L87.9519 105.525L88.659 104.818L84.5585 100.717Z" fill="#D8B560"/>
<path d="M76.05 92.2194L75.3429 92.9265L79.4427 97.0263L80.1498 96.3192L76.05 92.2194Z" fill="#D8B560"/>
<path d="M106.997 58.744H106.384V62.301H106.997V58.744Z" fill="#D8B560"/>
<path d="M106.997 66.123H106.384V69.681H106.997V66.123Z" fill="#D8B560"/>
<path d="M112.159 63.905H108.602V64.518H112.159V63.905Z" fill="#D8B560"/>
<path d="M104.779 63.905H101.222V64.518H104.779V63.905Z" fill="#D8B560"/>
<path d="M110.338 60.1258L107.826 62.6442L108.26 63.0778L110.772 60.5594L110.338 60.1258Z" fill="#D8B560"/>
<path d="M105.121 65.3472L102.605 67.863L103.039 68.2972L105.555 65.7813L105.121 65.3472Z" fill="#D8B560"/>
<path d="M108.257 65.3394L107.824 65.7729L110.34 68.2885L110.773 67.8549L108.257 65.3394Z" fill="#D8B560"/>
<path d="M103.039 60.125L102.605 60.5592L105.121 63.074L105.555 62.6398L103.039 60.125Z" fill="#D8B560"/>
<path d="M452.106 164.492H451.106V170.29H452.106V164.492Z" fill="#D8B560"/>
<path d="M452.106 176.521H451.106V182.319H452.106V176.521Z" fill="#D8B560"/>
<path d="M460.521 172.906H454.722V173.906H460.521V172.906Z" fill="#D8B560"/>
<path d="M448.491 172.906H442.692V173.906H448.491V172.906Z" fill="#D8B560"/>
<path d="M457.552 166.751L453.451 170.851L454.158 171.558L458.259 167.458L457.552 166.751Z" fill="#D8B560"/>
<path d="M449.079 175.247L444.979 179.348L445.686 180.055L449.787 175.954L449.079 175.247Z" fill="#D8B560"/>
<path d="M454.152 175.241L453.445 175.948L457.547 180.049L458.254 179.342L454.152 175.241Z" fill="#D8B560"/>
<path d="M445.653 166.756L444.946 167.463L449.047 171.564L449.754 170.857L445.653 166.756Z" fill="#D8B560"/>
<path d="M433.675 230.83H433.063V234.387H433.675V230.83Z" fill="#D8B560"/>
<path d="M433.675 238.209H433.063V241.766H433.675V238.209Z" fill="#D8B560"/>
<path d="M438.837 235.99H435.279V236.603H438.837V235.99Z" fill="#D8B560"/>
<path d="M431.457 235.99H427.9V236.603H431.457V235.99Z" fill="#D8B560"/>
<path d="M437.015 232.224L434.502 234.742L434.937 235.176L437.449 232.658L437.015 232.224Z" fill="#D8B560"/>
<path d="M429.718 240.383L429.284 239.947L431.799 237.432L432.234 237.865L429.718 240.383Z" fill="#D8B560"/>
<path d="M434.926 237.402L434.492 237.836L437.008 240.353L437.443 239.919L434.926 237.402Z" fill="#D8B560"/>
<path d="M429.717 232.234L429.282 232.668L431.797 235.183L432.231 234.748L429.717 232.234Z" fill="#D8B560"/>
<path d="M227.384 16.944H226.033V24.778H227.384V16.944Z" fill="#D8B560"/>
<path d="M227.384 33.1959H226.033V41.0289H227.384V33.1959Z" fill="#D8B560"/>
<path d="M238.752 28.312H230.918V29.664H238.752V28.312Z" fill="#D8B560"/>
<path d="M222.5 28.312H214.666V29.664H222.5V28.312Z" fill="#D8B560"/>
<path d="M234.744 19.9951L229.205 25.5338L230.16 26.4891L235.699 20.9504L234.744 19.9951Z" fill="#D8B560"/>
<path d="M223.253 31.4867L217.714 37.0261L218.669 37.9814L224.208 32.442L223.253 31.4867Z" fill="#D8B560"/>
<path d="M230.153 31.4715L229.198 32.4269L234.739 37.9662L235.694 37.0108L230.153 31.4715Z" fill="#D8B560"/>
<path d="M218.669 19.9942L217.714 20.9495L223.252 26.4882L224.208 25.5329L218.669 19.9942Z" fill="#D8B560"/>
<path d="M433.981 80.714H433.369V84.272H433.981V80.714Z" fill="#D8B560"/>
<path d="M433.981 88.094H433.369V91.651H433.981V88.094Z" fill="#D8B560"/>
<path d="M439.144 85.876H435.586V86.489H439.144V85.876Z" fill="#D8B560"/>
<path d="M431.764 85.876H428.207V86.489H431.764V85.876Z" fill="#D8B560"/>
<path d="M437.33 82.1183L434.816 84.6366L435.251 85.0703L437.764 82.552L437.33 82.1183Z" fill="#D8B560"/>
<path d="M430.024 90.267L429.591 89.832L432.105 87.317L432.541 87.75L430.024 90.267Z" fill="#D8B560"/>
<path d="M435.238 87.3191L434.805 87.7518L437.322 90.2684L437.754 89.8357L435.238 87.3191Z" fill="#D8B560"/>
<path d="M430.009 82.0764L429.575 82.5105L432.09 85.0267L432.524 84.5926L430.009 82.0764Z" fill="#D8B560"/>
<path d="M379.06 37.736H378.06V43.535H379.06V37.736Z" fill="#D8B560"/>
<path d="M379.06 49.767H378.06V55.565H379.06V49.767Z" fill="#D8B560"/>
<path d="M387.474 46.1499H381.675V47.1499H387.474V46.1499Z" fill="#D8B560"/>
<path d="M375.444 46.1499H369.645V47.1499H375.444V46.1499Z" fill="#D8B560"/>
<path d="M384.506 39.9961L380.406 44.0958L381.113 44.8029L385.213 40.7032L384.506 39.9961Z" fill="#D8B560"/>
<path d="M376.024 48.4886L371.924 52.5896L372.631 53.2967L376.732 49.1957L376.024 48.4886Z" fill="#D8B560"/>
<path d="M381.108 48.4945L380.401 49.2017L384.503 53.3023L385.21 52.5951L381.108 48.4945Z" fill="#D8B560"/>
<path d="M372.602 39.989L371.895 40.6962L375.995 44.7954L376.702 44.0882L372.602 39.989Z" fill="#D8B560"/>
<path d="M47.4959 132.152H46.8839V135.71H47.4959V132.152Z" fill="#D8B560"/>
<path d="M47.4959 139.532H46.8839V143.089H47.4959V139.532Z" fill="#D8B560"/>
<path d="M52.659 137.314H49.101V137.927H52.659V137.314Z" fill="#D8B560"/>
<path d="M45.2789 137.314H41.7219V137.927H45.2789V137.314Z" fill="#D8B560"/>
<path d="M50.8355 133.538L48.3225 136.057L48.7572 136.491L51.2702 133.972L50.8355 133.538Z" fill="#D8B560"/>
<path d="M43.54 141.705L43.106 141.27L45.621 138.756L46.056 139.189L43.54 141.705Z" fill="#D8B560"/>
<path d="M48.7556 138.755L48.3229 139.188L50.8394 141.704L51.2722 141.272L48.7556 138.755Z" fill="#D8B560"/>
<path d="M43.5452 133.525L43.111 133.959L45.6265 136.476L46.0607 136.041L43.5452 133.525Z" fill="#D8B560"/>
<path d="M80.6019 38.696C80.6019 39.818 79.6929 40.726 78.5719 40.726C77.4499 40.726 76.5419 39.818 76.5419 38.696C76.5419 37.575 77.4499 36.667 78.5719 36.667C79.6929 36.667 80.6019 37.575 80.6019 38.696Z" fill="#D8B560"/>
<path d="M129.891 2.72002C129.891 4.18602 128.703 5.37302 127.239 5.37302C125.772 5.37302 124.585 4.18502 124.585 2.72002C124.585 1.25402 125.773 0.0670172 127.239 0.0670172C128.703 0.0660172 129.891 1.25402 129.891 2.72002Z" fill="#D8B560"/>
<path d="M457.375 251.51C457.375 252.975 456.187 254.162 454.723 254.162C453.256 254.162 452.069 252.974 452.069 251.51C452.069 250.045 453.257 248.856 454.723 248.856C456.188 248.855 457.375 250.045 457.375 251.51Z" fill="#D8B560"/>
<path d="M412.506 53.792C412.506 54.913 411.598 55.821 410.477 55.821C409.355 55.821 408.447 54.913 408.447 53.792C408.447 52.671 409.355 51.762 410.477 51.762C411.598 51.762 412.506 52.671 412.506 53.792Z" fill="#D8B560"/>
<path d="M257.28 54.967C257.28 56.089 256.372 56.997 255.251 56.997C254.129 56.997 253.221 56.089 253.221 54.967C253.221 53.846 254.129 52.938 255.251 52.938C256.372 52.938 257.28 53.846 257.28 54.967Z" fill="#D8B560"/>
<path d="M321.746 10.428C321.746 11.894 320.558 13.081 319.094 13.081C317.627 13.081 316.44 11.893 316.44 10.428C316.44 8.96302 317.628 7.77503 319.094 7.77503C320.559 7.77403 321.746 8.96302 321.746 10.428Z" fill="#D8B560"/>
<path d="M52.453 230.83C52.453 232.295 51.265 233.482 49.801 233.482C48.334 233.482 47.147 232.294 47.147 230.83C47.147 229.365 48.335 228.176 49.801 228.176C51.266 228.176 52.453 229.365 52.453 230.83Z" fill="#D8B560"/>
<path d="M178.944 31.4851C178.944 32.6071 178.036 33.5151 176.915 33.5151C175.793 33.5151 174.885 32.6071 174.885 31.4851C174.885 30.3641 175.793 29.4561 176.915 29.4561C178.036 29.4561 178.944 30.3641 178.944 31.4851Z" fill="#D8B560"/>
</g>
<defs>
<clipPath id="clip0_1_4">
<rect width="500" height="362" fill="white"/>
</clipPath>
</defs>
</svg>
