<svg version="1.2" xmlns="http://www.w3.org/2000/svg" viewBox="0 0 3009 2000" width="3009" height="2000">
	<title>keap-stratergy</title>
	<defs>
		<linearGradient id="g1" x2="1" gradientUnits="userSpaceOnUse" gradientTransform="matrix(1574.089,0,0,257.554,1057.392,1309.596)">
			<stop offset="0" stop-color="#ffc05c"/>
			<stop offset="1" stop-color="#ff3857"/>
		</linearGradient>
		<linearGradient id="g2" x2="1" gradientUnits="userSpaceOnUse" gradientTransform="matrix(1574.92,0,0,329.601,1057.392,1267.002)">
			<stop offset="0" stop-color="#40d5e6"/>
			<stop offset="1" stop-color="#5577ff"/>
		</linearGradient>
		<linearGradient id="g3" x2="1" gradientUnits="userSpaceOnUse" gradientTransform="matrix(561.403,0,0,247.138,1820.948,767.972)">
			<stop offset="0" stop-color="#8fd6ff"/>
			<stop offset="1" stop-color="#bfebfe"/>
		</linearGradient>
		<linearGradient id="g4" x2="1" gradientUnits="userSpaceOnUse" gradientTransform="matrix(559.586,0,0,235.291,1811.61,695.889)">
			<stop offset="0" stop-color="#8fd6ff"/>
			<stop offset="1" stop-color="#bfebfe"/>
		</linearGradient>
		<linearGradient id="g5" x2="1" gradientUnits="userSpaceOnUse" gradientTransform="matrix(-316.415,901.486,-901.481,-316.413,1915.656,518.186)">
			<stop offset="0" stop-color="#c6cbcf"/>
			<stop offset="1" stop-color="#f8f1fe"/>
		</linearGradient>
		<linearGradient id="g6" x2="1" gradientUnits="userSpaceOnUse" gradientTransform="matrix(477.157,689.944,-328.81,227.401,2162.518,1558.636)">
			<stop offset="0" stop-color="#57c1ff"/>
			<stop offset="1" stop-color="#bfebfe"/>
		</linearGradient>
		<linearGradient id="g7" x2="1" gradientUnits="userSpaceOnUse" gradientTransform="matrix(8.404,406.198,-793.529,16.418,423.467,808.319)">
			<stop offset="0" stop-color="#40d5e6"/>
			<stop offset="1" stop-color="#5577ff"/>
		</linearGradient>
		<linearGradient id="g8" x2="1" gradientUnits="userSpaceOnUse" gradientTransform="matrix(8.404,406.198,-333.981,6.91,358.647,809.661)">
			<stop offset="0" stop-color="#40d5e6"/>
			<stop offset="1" stop-color="#5577ff"/>
		</linearGradient>
		<linearGradient id="g9" x2="1" gradientUnits="userSpaceOnUse" gradientTransform="matrix(-97.462,364.58,-615.877,-164.64,2508.555,6.808)">
			<stop offset="0" stop-color="#40d5e6"/>
			<stop offset="1" stop-color="#5577ff"/>
		</linearGradient>
		<linearGradient id="g10" x2="1" gradientUnits="userSpaceOnUse" gradientTransform="matrix(-75.485,282.37,-846.852,-226.386,2494.269,31.735)">
			<stop offset="0" stop-color="#40d5e6"/>
			<stop offset="1" stop-color="#5577ff"/>
		</linearGradient>
		<linearGradient id="g11" x2="1" gradientUnits="userSpaceOnUse" gradientTransform="matrix(0,532.35,-6073.897,0,877.643,973.821)">
			<stop offset="0" stop-color="#626e7a"/>
			<stop offset="1" stop-color="#f5f5f5"/>
		</linearGradient>
		<linearGradient id="g12" x2="1" gradientUnits="userSpaceOnUse" gradientTransform="matrix(0,1139.719,-1598.633,0,876.06,1166.855)">
			<stop offset="0" stop-color="#44607d"/>
			<stop offset="1" stop-color="#f5f5f5"/>
		</linearGradient>
		<linearGradient id="g13" x2="1" gradientUnits="userSpaceOnUse" gradientTransform="matrix(18.512,0,0,102.898,1000.394,1071.247)">
			<stop offset="0" stop-color="#d5e4ff"/>
			<stop offset="1" stop-color="#edfffe"/>
		</linearGradient>
		<linearGradient id="g14" x2="1" gradientUnits="userSpaceOnUse" gradientTransform="matrix(18.511,0,0,130.332,1032.894,1057.531)">
			<stop offset="0" stop-color="#d5e4ff"/>
			<stop offset="1" stop-color="#edfffe"/>
		</linearGradient>
		<linearGradient id="g15" x2="1" gradientUnits="userSpaceOnUse" gradientTransform="matrix(18.512,0,0,115.98,1067,1064.706)">
			<stop offset="0" stop-color="#d5e4ff"/>
			<stop offset="1" stop-color="#edfffe"/>
		</linearGradient>
		<linearGradient id="g16" x2="1" gradientUnits="userSpaceOnUse" gradientTransform="matrix(18.512,0,0,82.66,1102.042,1081.367)">
			<stop offset="0" stop-color="#d5e4ff"/>
			<stop offset="1" stop-color="#edfffe"/>
		</linearGradient>
		<linearGradient id="g17" x2="1" gradientUnits="userSpaceOnUse" gradientTransform="matrix(0,-89.669,40.058,0,936.522,1459.523)">
			<stop offset="0" stop-color="#ff9f55"/>
			<stop offset="1" stop-color="#ffd255"/>
		</linearGradient>
		<linearGradient id="g18" x2="1" gradientUnits="userSpaceOnUse" gradientTransform="matrix(-47.71,0,0,-20.533,950.848,1502.782)">
			<stop offset="0" stop-color="#ff9f55"/>
			<stop offset="1" stop-color="#ffd255"/>
		</linearGradient>
		<linearGradient id="g19" x2="1" gradientUnits="userSpaceOnUse" gradientTransform="matrix(-45.52,0,0,-66.354,900.193,1301.398)">
			<stop offset="0" stop-color="#ff9f55"/>
			<stop offset="1" stop-color="#ffd255"/>
		</linearGradient>
	</defs>
	<style>
		.s0 { fill: #e0e0e0 } 
		.s1 { fill: #d9d9d9 } 
		.s2 { fill: #b8b8b8 } 
		.s3 { fill: url(#g1) } 
		.s4 { fill: url(#g2) } 
		.s5 { fill: url(#g3) } 
		.s6 { fill: url(#g4) } 
		.s7 { fill: url(#g5) } 
		.s8 { fill: #007fe6 } 
		.s9 { fill: #0064b5 } 
		.s10 { fill: #004e8c } 
		.s11 { fill: url(#g6) } 
		.s12 { fill: #6a75ba } 
		.s13 { fill: #545d94 } 
		.s14 { fill: #eea886 } 
		.s15 { fill: #d9d3c8 } 
		.s16 { fill: #222538 } 
		.s17 { fill: #ffc955 } 
		.s18 { fill: #a77860 } 
		.s19 { fill: #c29941 } 
		.s20 { fill: #ffffff } 
		.s21 { fill: url(#g7) } 
		.s22 { fill: url(#g8) } 
		.s23 { fill: url(#g9) } 
		.s24 { fill: url(#g10) } 
		.s25 { fill: url(#g11) } 
		.s26 { fill: #616587 } 
		.s27 { fill: #152b3d } 
		.s28 { fill: #ffc05c } 
		.s29 { fill: #254380 } 
		.s30 { fill: #353a3d } 
		.s31 { fill: #e55353 } 
		.s32 { fill: #eea987 } 
		.s33 { fill: #2f4563 } 
		.s34 { fill: #202338 } 
		.s35 { fill: #2f6b8c } 
		.s36 { fill: #877d78 } 
		.s37 { fill: #f5e1d9 } 
		.s38 { fill: #4b6f9e } 
		.s39 { fill: #eddad3 } 
		.s40 { fill: #c9bab3 } 
		.s41 { fill: #1e2c40 } 
		.s42 { fill: url(#g12) } 
		.s43 { fill: url(#g13) } 
		.s44 { fill: url(#g14) } 
		.s45 { fill: url(#g15) } 
		.s46 { fill: url(#g16) } 
		.s47 { fill: #007bde } 
		.s48 { fill: #1a598c } 
		.s49 { fill: #2273b5 } 
		.s50 { fill: #3788cc } 
		.s51 { fill: #81807e } 
		.s52 { fill: #292c47 } 
		.s53 { fill: #cac7d1 } 
		.s54 { fill: #1d2033 } 
		.s55 { fill: #323657 } 
		.s56 { fill: #c78d71 } 
		.s57 { fill: #a09ea6 } 
		.s58 { fill: #eae6f2 } 
		.s59 { fill: #3a4066 } 
		.s60 { fill: #f2dfd8 } 
		.s61 { fill: #d6c5be } 
		.s62 { fill: url(#g17) } 
		.s63 { fill: url(#g18) } 
		.s64 { fill: url(#g19) } 
		.s65 { fill: #ffa855 } 
		.s66 { fill: #ffa555 } 
		.s67 { fill: #858585 } 
		.s68 { fill: #e2d2ca } 
		.s69 { fill: #1c1e30 } 
		.s70 { fill: #24263d } 
		.s71 { fill: #282b45 } 
		.s72 { fill: #1f2136 } 
		.s73 { fill: #4f558a } 
		.s74 { fill: #d6c5bf } 
		.s75 { fill: #16202e } 
		.s76 { fill: #6e6760 } 
		.s77 { fill: #918880 } 
		.s78 { fill: #706865 } 
		.s79 { fill: #eb4747 } 
		.s80 { fill: #d69779 } 
		.s81 { fill: #12131f } 
		.s82 { fill: #9e633a } 
		.s83 { fill: #97a43c } 
		.s84 { fill: #82522f } 
		.s85 { fill: #c67b47 } 
	</style>
	<g>
		<g>
			<g>
				<path fill-rule="evenodd" class="s0" d="m1448.1 1030.3h5.6v580.6h-5.6z"/>
			</g>
			<g>
				<path fill-rule="evenodd" class="s0" d="m1841.7 1030.3h5.5v580.6h-5.5z"/>
			</g>
			<g>
				<path fill-rule="evenodd" class="s0" d="m2235.2 1030.3h5.5v580.6h-5.5z"/>
			</g>
			<path fill-rule="evenodd" class="s1" d="m1057.4 958.7h94.2v15.1h-94.2z"/>
			<path fill-rule="evenodd" class="s1" d="m1057.4 986.7h133.7v15.1h-133.7z"/>
			<path fill-rule="evenodd" class="s1" d="m1446.7 958.7h110.6v15.1h-110.6z"/>
			<path fill-rule="evenodd" class="s1" d="m1446.7 986.7h70.7v15.1h-70.7z"/>
			<path fill-rule="evenodd" class="s1" d="m1847.2 958.7h68.6v15.1h-68.6z"/>
			<path fill-rule="evenodd" class="s1" d="m1847.2 986.7h79.9v15.1h-79.9z"/>
			<path fill-rule="evenodd" class="s1" d="m2240.7 958.7h99.9v15.1h-99.9z"/>
			<path fill-rule="evenodd" class="s1" d="m2240.7 986.7h80v15.1h-80z"/>
			<path fill-rule="evenodd" class="s2" d="m1450.9 1645.3h62.6v20.2h-62.6z"/>
			<path fill-rule="evenodd" class="s2" d="m1847.2 1645.3h62.6v20.2h-62.6z"/>
			<path fill-rule="evenodd" class="s2" d="m2240.7 1645.3h62.6v20.2h-62.6z"/>
			<g style="opacity: .43">
				<path class="s3" d="m2495.1 1438.4c-122.7 0-229.4-53.1-340.7-108.4-137.3-68.3-279.3-138.9-468.5-119.5-120.8 12.3-196.6 61.5-263.5 104.9-60.6 39.3-117.9 73.9-195.4 76.8-125.4 4.8-168.9-48.7-169.6-51.9v-34.3c0.1 0.6 27.5 60.6 169.4 59.8 69.9-0.3 121.5-33.8 181.2-72.5 69.4-45.1 148.1-96.1 275.2-109.1 196.8-20.1 342.3 52.2 483 122.2 147.2 73.2 287.7 141.8 465.3 82.3v28.2c-50.6 17-91.1 21.5-136.4 21.5z"/>
			</g>
			<g style="opacity: .22">
				<path class="s4" d="m1758.4 1431.8c-90.7 0-162.5-60.9-232.9-120.6-53.3-45.2-108.6-91.4-172.5-114.2-195-69.6-294.7 57.5-295.6 58.6v-38.7c1-1.3 18.8-24.4 70.3-46.5 46.9-20 125.5-36.1 233.9 1.7 68.8 23.9 125.8 72.2 181 119 111.9 94.9 208.6 176.9 376.5 48.5 127.2-97.2 247.1-189.9 365-223.7 115.4-33.2 235.6-8.9 348.2 103.7l-0.8 35.1c-239.2-240.2-442.8-88-696.4 105.9-67.1 51.3-125 71.2-176.7 71.2z"/>
			</g>
		</g>
		<g>
			<path fill-rule="evenodd" class="s5" d="m1824.9 891.5l-4-4.6 66.3-56.5h40.3l91.3-77.8 57.2 48.6h42.1l21.3 18.2 66.2-56.4h33.5l139.3-118.6 4 4.7-141 120.1h-33.6l-68.4 58.3-23.6-20.1h-42.1l-54.9-46.8-89 75.9h-40.3z"/>
		</g>
		<g>
			<path fill-rule="evenodd" class="s6" d="m1834.5 813.5h-22.9v-6.1h20.4l34.4-34.4 25 25 59.7-59.8 18.4 18.4 60.6-60.6 36.3 36.3h41.4l63.9-63.9h55.1l40.7-40.7h49.9l49.4-49.5 4.4 4.4-51.3 51.3h-49.8l-40.8 40.7h-55.1l-63.9 63.9h-46.4l-33.8-33.8-60.6 60.6-18.4-18.4-59.7 59.8-25-25z"/>
		</g>
		<path class="s7" d="m2446.3 827.5q0-0.2-0.1-0.4c-58.9-205.4-205.9-381.1-409.1-471.5-34.8-15.6-71.4-28.5-109.3-38.7-94.8-25.6-190.4-31.3-282.3-20q-0.1 0-0.2 0.1l-0.1-0.1c-61.9 7.8-122 23.2-179.3 45.8q-0.1 0.1-0.3 0.1c-210.1 82.7-379.6 260.5-442.8 495.3-106 393.9 127.4 799.1 521.2 905.1 202.2 54.4 407.4 19.4 573.6-80.9l31 43.1 146.2-105.3-35.3-49c88.1-88.3 154.9-200.1 189.7-329.2 36.1-134.2 32.8-269.8-2.9-394.4zm-540.7 674.8c-261.1 93.6-548.7-42.2-642.2-303.3-91.9-256.3 37.2-538 288.9-636.9q7.1-2.8 14.4-5.4c35.6-12.7 71.7-21.3 107.8-25.7 92.4-11.6 184.3 3.3 266.4 39.9 120.6 53.9 220 155 268 289.2q5.7 15.8 10.3 31.8c72.1 252.2-63.1 520.6-313.6 610.4z"/>
		<g>
			<path class="s8" d="m2591.8 785.7l-145.6 41.4-227 64.8q-4.6-16-10.3-31.8c-48-134.2-147.4-235.3-268-289.2l96.2-215.3 10.1-22.6 51.7-115.7c244.8 108.9 422 320.7 492.9 568.4z"/>
		</g>
		<g>
			<path class="s9" d="m2047.2 333l-10.1 22.6-96.2 215.3c-82.1-36.6-174-51.5-266.4-39.9l-29-234.1-3-24.5c95-11.8 193.8-5.8 291.9 20.6 39.1 10.5 76.9 23.9 112.8 40z"/>
		</g>
		<g>
			<path class="s10" d="m1674.5 531c-36.1 4.5-72.2 13-107.8 25.7q-7.3 2.6-14.4 5.4l-86.4-219.4-26.1-66.4c62.8-24.9 128.9-41.9 196.8-50.3h0.2l5.7 46.4 3 24.5z"/>
		</g>
		<path fill-rule="evenodd" class="s11" d="m2617.3 2000h-291.1l-202.3-281 191.7-138z"/>
		<g>
			<g>
				<g>
					<path class="s12" d="m1578.6 175.1c0 0-10.5-19.3-16.5-26.2-5.9-6.9-25.7-12.1-23.1-21 2.7-8.8 29.3-5 36.6 3.7 7.3 8.6 29.7 11.7 30.4 15.4 0.8 3.6-7.7 23.6-12.5 26.9-4.8 3.3-14.9 1.2-14.9 1.2z"/>
					<path class="s13" d="m1534 191.4c0 0-17.1-13.6-25.3-17.6-8.2-3.9-28.5-0.8-29.5-10-1.1-9.2 24.8-16.3 35-11.2 10.1 5 31.9-1 34 2 2.2 3.1 2.3 24.9-0.8 29.8-3.1 4.9-13.4 7-13.4 7z"/>
					<path class="s14" d="m1572 226.7c0 0 7.4-51.1 7.1-59.9-0.1-2.5 15.3-1.6 14.6 3.3-1.6 10.5 5.6 51.5 4.3 59.1-1.2 7.5-26.7 2.2-26-2.5z"/>
					<path class="s14" d="m1548.6 241.3c0 0-14-49.5-17.2-57.8-1.5-3.6 12.7-9.3 14.7-2.8 3 10.3 25.6 45.2 27.4 52.6 1.9 7.3-23.6 12.6-24.9 8z"/>
					<path class="s15" d="m1558.3 275.7c0 0-15-50.6-17.3-56l23.6-14.6c0 0 11 32.3 12.6 40.4 1.5 8.1-18.9 30.2-18.9 30.2z"/>
					<path class="s16" d="m1977.4 142c0 0-22.9 5.8-33.8 23.1-10.8 17.2-20.2 37.2-40.7 46.2-20.4 9-20.6 32.3-19 35.9 1.6 3.6 64.4 74.2 78.1 76.9 13.7 2.7 39.4 0.8 36.6-17.3-2.7-18.2-29.6-57.2-14.5-76.8 15.1-19.7 18.9-37.9 18.9-37.9z"/>
					<path class="s14" d="m1973.4 226.4c0 0-0.7-0.2-1.8-0.3-1.3-0.2-3.2-0.1-5.3 0.6-0.6 0.2-1.3 0.6-2.1 1.1-5.5 3.2-18.3 11.8-20.1 12.1-2 0.2-0.3-29.8-0.3-29.8 0 0 6.9-12.1 7.7-20.1 0.9-8 21.9 36.4 21.9 36.4z"/>
					<path class="s15" d="m1812.6 257.7c0 0-25.2-17.6-54.6-12.1-29.5 5.5-32.6 19.3-42.7 19.9-10.1 0.6-43.9-2.3-71.6 5.8-27.8 8.1-51.1 9-54.3 6.6-3.2-2.3 17.3-48.5 17.3-54.8l-34.4-9c0 0-9.8 41-13.6 50.3-4.1 9.9-12 28.5-0.8 44.6 11.3 16.2 42.7 8.9 61.8 12.2 19.1 3.2 104.3 1.1 119.2 0.3 16.2-0.8 65-3.1 65-3.1z"/>
					<path class="s14" d="m2018.9 166.5c0 0 1.6 24.8-3.9 32.2-2.2 3-3.7 4.6-4.7 5.5-1.5 1.2-2.6 2.8-3.2 4.5-1.7 4.8-2.7 11.5-4.1 13-1.5 1.5-5.8-2.5-7.3-2.5-1.6 0-16.7 13.1-20.3 10.4-3.6-2.7-25.7-25.1-23.8-40.4 1.9-15.3 8.6-38.2 33.5-38.1 24.8 0.1 31.9 9.2 33.8 15.4z"/>
					<path class="s17" d="m1943.8 284.9c-0.4 1-9.6 15.6-19.6 24-4.1 3.5-8.4 6-12.3 6q-1.8 0-3.5 0.1c-11.5 0.3-20.3 2-35.8 2.8-16.1 0.8-55.1-1.5-56.3-1.5-1.1 0-12.4 2.1-12.4 2.1-4-4.9 6.6-60.4 8.7-60.7 2-0.3 15 4.7 27.4 2.6 12.4-2 17.3-3.1 35.8-24.8 18.5-21.6 36.9-27.1 44.7-25.4 7.8 1.7 23.3 0 23.3 0 0 0 0.7 73.3 0 74.8z"/>
					<path class="s16" d="m2008.4 184.2c0 0 4.7 12 7.1 13.7 0 0 8.9-9.5 3.2-32.8-5.7-23.3-27.4-25.5-41.3-23.1-17.4 2.9-34.9 61.8-34 67.5 0.9 5.7 20.4-30.4 37.4-27.5 17.1 2.9 17.2 3.8 27.6 2.2z"/>
					<path class="s18" d="m1971.6 226.1c-1.3-0.2-3.2 0-5.3 0.7-0.6 0.2-1.3 0.5-2.1 1-4-6.3-7.7-21-7.9-21.5 2.7 5.6 15.3 19.8 15.3 19.8z"/>
					<path class="s19" d="m1924.2 308.9c-4.1 3.5-8.4 6-12.3 6q-1.8 0-3.5 0.1l5.7-46z"/>
					<path class="s14" d="m2014.1 388.1l-11.1 10c-9.6-5.1-33.5-22.3-38.2-26.2-4.8-4.2-37-31.1-41.4-37.3-4.5-6.1-10.2-69.6-9.6-72.5 0.6-2.9 28-4.4 31.1 2.3 0 0 1.5 36.3 2.2 42.3 0.7 6.1 3 11.6 7.2 16.7 5.8 7 18 23.4 29.9 36.7 2.8 3.1 26.2 24.8 29.9 28z"/>
					<path class="s17" d="m1947.2 265.2c0 0 1.7-48.2-14-47.6-19.8 0.8-22.8 25-20.1 51.4 0 0 29.7 0.3 34.1-3.8z"/>
					<path class="s14" d="m2008.7 383.3c0 0 1.5 2.4 3.6 3.1 3.7 1.2 9.2-1.2 11.9 3.7 2.7 4.8-10.3 16.9-13.8 17.6-3.5 0.8-9.1-4.7-13.5-15.4-4.4-10.7 11.8-9 11.8-9z"/>
					<path class="s14" d="m2023 388.6c0 0 6.7 5 13.4 11.5 5.9 5.7 11.9 13.2 10.3 14.6-2 1.9-6-4.5-12.2-9.8-5.8-4.8-5.4-3-5.4-3 0 0-0.1-0.5 5.1 5.9 5.6 7 11.4 15.2 9.7 16.4-1.1 0.7-1.1 0.9-3.6-1.3 1.1 1.6 0.9 2.1 0.3 2.6-3.2 2.6-13-6.4-16.9-9.9 3 2.7 4.9 5.1 1.9 5.4-3.5 0.4-16.8-12.9-22-17.2-5.7-4.7 19.4-15.2 19.4-15.2z"/>
				</g>
				<path class="s0" d="m1823.8 259.9c0 0-5.2 38-2.6 56.7 0 0 2.7 2 8.2 0.4 0 0 1.4-41.5 4.5-56.2 0 0-1.7-1.3-10.1-0.9z"/>
			</g>
			<g>
				<path fill-rule="evenodd" class="s0" d="m1825.1 0h4.1v288.7h-4.1z"/>
			</g>
		</g>
		<g>
			<path fill-rule="evenodd" class="s20" d="m2545.4 1500.7h-79.5v-5.6h79.5z"/>
			<path fill-rule="evenodd" class="s20" d="m2545.4 1529h-79.5v-23.4h79.5z"/>
			<path fill-rule="evenodd" class="s20" d="m2475.5 1540.4h-46.9v-3.5h46.9z"/>
			<path fill-rule="evenodd" class="s20" d="m2475.5 1551.4h-46.9v-9.5h46.9z"/>
			<path fill-rule="evenodd" class="s20" d="m2561.9 1530.7h-3.4v-65.6h3.4z"/>
		</g>
		<path fill-rule="evenodd" class="s21" d="m401.9 1069.9h76.4l-23.4-48.5h-76.4z"/>
		<path fill-rule="evenodd" class="s22" d="m366.1 1069.9h18.2l-23.4-48.5h-18.2z"/>
		<path fill-rule="evenodd" class="s23" d="m2419.6 197.6h84.7v-32.7h-84.7z"/>
		<path fill-rule="evenodd" class="s24" d="m2419.6 155.8h84.7v-6.1h-84.7z"/>
		<path class="s25" d="m1153.7 906.7h-552.1c-12.9 0-23.3-10.4-23.3-23.3v-5.9c0-12.8 10.4-23.3 23.3-23.3h552.1c12.9 0 23.3 10.5 23.3 23.3v5.9c0 12.9-10.4 23.3-23.3 23.3z"/>
		<g>
			<g>
				<path fill-rule="evenodd" class="s26" d="m1494.6 1626.9h304l-95.8 294.3 9 2.9 99.8-306.6h-323.8l-98.9 303.7 9 2.9z"/>
			</g>
			<g>
				<path fill-rule="evenodd" class="s26" d="m1598.1 1921.2l-95.8-294.3h304l96.8 297.2 8.9-2.9-98.9-303.7h-323.8l99.8 306.6z"/>
			</g>
			<g>
				<path fill-rule="evenodd" class="s26" d="m1466.3 1710.2h372.1v9.4h-372.1z"/>
			</g>
			<g>
				<path fill-rule="evenodd" class="s26" d="m1428 1812.5h445.2v9.4h-445.2z"/>
			</g>
		</g>
		<g>
			<g>
				<g>
					<path class="s14" d="m1647 955.4c0 0 7.5-13.3-4.5-48.8-11.6-34.4-51.8-31.3-64.6-9.3-12.8 22-8.5 35.7 10.3 60.6 18.9 24.9 50.9 8.8 58.8-2.5z"/>
				</g>
			</g>
			<g>
				<g>
					<path class="s14" d="m1553.5 1566.9c0 0-2 14.6-2.2 16.8-0.3 2.2-22.2-1.3-22.2-1.3l-1.8-17.4c0 0 23.5-0.2 26.2 1.9z"/>
				</g>
			</g>
			<g>
				<g>
					<path class="s27" d="m1551.5 1581.8c0 0 6.9 8.8 13.6 12.7 6.8 3.8 17.3 5.3 21.3 9.3 2.8 2.8 10.4 15.2-17.5 14.9-27.8-0.2-41.3 1.8-44.3-3-3-4.7 4.3-34.9 4.3-34.9 0 0 6.9 2 22.6 1z"/>
				</g>
			</g>
			<g>
				<g>
					<path class="s14" d="m1705.1 1566.9c0 0-2 14.6-2.2 16.8-0.3 2.2-22.2-1.3-22.2-1.3l-1.7-17.4c0 0 23.4-0.2 26.1 1.9z"/>
				</g>
			</g>
			<g>
				<g>
					<path class="s27" d="m1703.1 1581.8c0 0 7 8.8 13.7 12.7 6.7 3.8 31.4 6.9 35.4 10.9 2.8 2.9 7.6 14.4-31.6 13.3-27.9-0.7-41.3 1.8-44.3-3-3-4.7 4.3-34.9 4.3-34.9 0 0 8.6 1.6 22.5 1z"/>
				</g>
			</g>
			<g>
				<g>
					<path class="s28" d="m1560.9 1203.4c0 0-11.3 34.9-9.8 65 1.5 30.1-5.8 63-8.8 94.4-3.3 35-16.9 117.9-17.4 136.6-0.5 18.8 2.1 78.6 2.1 78.6l27.2 0.7c0 0 22.9-145 28.8-159.8 5.9-14.8 35.3-120.2 36.2-132 1-11.9-58.3-83.5-58.3-83.5z"/>
				</g>
			</g>
			<g>
				<g>
					<path class="s28" d="m1673.6 1199.8c0 0 16.5 92.3 18.5 110.7 2 18.4 3.3 89 4.3 100.5 1 11.5 6.6 150.6 11.8 167.7h-30.3c0 0-31.1-101.1-31.1-148.9 0-47.9-20.7-104-34-135.5-13.3-31.6-43.7-32.3-51.9-90.9 0 0 101.7-22.2 112.7-3.6z"/>
				</g>
			</g>
			<g>
				<g>
					<path class="s14" d="m1636 964.7c0 0-3.5 10 0 17.1 3.4 7.1-43.7 2.8-43.7 2.8 0 0 2.1-14.6-4.1-26.7-6.1-12.1 47.8 6.8 47.8 6.8z"/>
				</g>
			</g>
			<g>
				<g>
					<path class="s28" d="m1558.7 1211c0 0 16.9 17.4 116.5-2.7l-1.6-8.5-113.1 4.2z"/>
				</g>
			</g>
			<g>
				<g>
					<path class="s14" d="m1643.1 984.1c0 0 17.4 1.8 22.4 2.7 4.9 1 38.4-5.9 45.3-6.7 6.9-0.7 36.1-20.7 37.1-23.1 0.9-2.4 17.8-45.1 18.7-54.3 1-9.3 16.5-4.5 15.2 1.9-2.5 11.9-5.7 40.8-7.5 49.2-1.9 9-6.9 29.5-9.8 32-2.8 2.5-29.2 22.6-55 31.1-25.8 8.5-45.2 21.1-45.2 21.1h-127.2c0 0-49.5-70.7-50.6-81.4-1.1-10.7 34.6-81.5 41.7-90.4 7.1-8.8 17.4 2.9 17.4 2.9 0 0-21.3 62.5-24.2 71.4-2.8 8.9 24.8 47.9 32.4 48 7.5 0.1 27-2.4 35.6-2.7 8.7-0.4 17.8-4.2 17.8-4.2z"/>
				</g>
			</g>
			<g>
				<g>
					<path class="s29" d="m1697.9 1031.4c0 0-15.6 10.3-17 28.1-1.4 17.7-7.1 45.8-9.9 55.4-2.9 9.6 2.5 79.2 3.2 84.2 0.7 4.9-98.5 16.8-113.7 4.9 0 0-4.3-65-6-83.4-1.8-18.5-10.3-63.3-13.2-69.3-2.8-6-37.3-54.4-38.7-60.7 0 0 17.8-28.5 30.6-28.8 0 0 20.3 23.8 26.9 24.9 6.7 1 47.3-6.4 47.3-6.5 0 0 4.4 6.1 27.9-1.1 0 0 28.1 3.2 32.7 3.8 5.5 0.7 43.9-4.8 43.9-4.8 0 0 15.4 26 12.7 39.1z"/>
				</g>
			</g>
			<g>
				<g>
					<path class="s14" d="m1765.8 908.2c0 0 3.4-16.4-0.8-21.2-2.3-2.6-8.1-9.8-8.6-10.8-0.5-1.1-6.7-4.6-6.7-6.3 0-1.7 6.1-3.8 11.3 1 5.2 4.9 8.5 5.9 10.6 5.4 2.1-0.5 5.1-17.9 5.4-22.2 0.2-4.4 1.9-15.7 4.6-15 2.7 0.8 2.6 5.8 2.6 5.8 0 0 3.1-8.6 5.2-6.9 2.1 1.7 1.8 5.9 1.8 5.9 0 0 3.9-4.9 5-1.3 1 3.5 0 6.6 0 6.6 0 0 4-2.2 4.3 3.3 0.3 5.5-1.2 21.6-4 27.3-2.9 5.8-13.7 20.9-15 26.7-1.3 5.9-15.7 1.7-15.7 1.7z"/>
				</g>
			</g>
			<g>
				<g>
					<path class="s14" d="m1542.1 879.3c0 0 11.8-19.9 15.9-21.7 4-1.7 9.7-2.7 14.6-6.3 5-3.5 11.6-6.5 11.2-7.7-0.3-1.2-6.2-0.7-12.5 2-6.2 2.8-9 1.4-9.6 0-0.6-1.4 3.4-11.4 5.3-13.8 1.8-2.4 15.3-16 13.1-18-2.3-2-11 5.5-12.4 7 0 0 6.9-14.7 4.2-15.4-2.7-0.7-7.8 4.5-7.8 4.5 0 0 0.6-12.5-12.9 7.8 0 0 2.8-6.7-1.3-4.5-4.1 2.3-8.2 15-9.5 21.4-1.3 6.4-7.2 26.7-12.2 31.6-5.1 4.9 13.9 13.1 13.9 13.1z"/>
				</g>
			</g>
			<g>
				<g>
					<path class="s30" d="m1588.2 957.9c0 0 6.3 0.5 19.5-4 13.3-4.6 14.3-27.8 17.1-25.1 5.9 5.6 11.4 1.8 13.6-1.5 0 0-6.4-8.6-3.4-12.7 3-4.1 7.8-7.1 7.8-7.1 0 0-9.3-44.9-51.7-24.5-49.8 24-2.9 74.9-2.9 74.9z"/>
				</g>
			</g>
			<g>
				<g>
					<path class="s29" d="m1636 981.8l-1.5-6.5c0 0-27.1-0.5-41.9 1.6l-1.6 7.8c0 0 19 8.6 45-2.9z"/>
				</g>
			</g>
			<g>
				<g>
					<path class="s14" d="m1629.3 923.2c-2.5-4.1-11.6-6.9-12.7 4.7-0.8 9 16.3 18.8 16.5 10.4 0.1-8.4-2.2-12.4-3.8-15.1z"/>
				</g>
			</g>
			<g>
				<g>
					<path class="s31" d="m1766.4 904.5c0 0 9.8 0.2 14.5 4.5 0 0 0.3 2.7-0.8 4.9 0 0-8.4-4-14.9-4.7 0 0 0.1-3.6 1.2-4.7z"/>
				</g>
			</g>
			<g>
				<g>
					<path class="s30" d="m1777.9 906.9c0.9 2.2-0.1 4.6-2.2 5.5-2.1 0.9-4.6-0.1-5.5-2.2-0.9-2.1 0.1-4.6 2.2-5.5 2.2-0.9 4.6 0.1 5.5 2.2z"/>
				</g>
			</g>
		</g>
		<g>
			<g>
				<path class="s32" d="m2550.2 1134.9c0 0-8.7 1.2-8.6-2.5 0-3.7 0.6-8.4 0.6-8.4z"/>
				<path class="s32" d="m2598.9 1095.1l-28.4 22.1c3.6-0.7 9.7-1.6 9.8 0.3 0.2 2.7-10.8 6-14.3 8.4-3.2 2.3-6.6 6.3-7.5 6.5l-6.2 5.3-10.1-13.7c0 0 16.7-18.9 20.7-22.9 6.5-6.5 32.8-10.3 34.3-9.4 2.6 1.7 1.7 3.4 1.7 3.4z"/>
			</g>
			<g>
				<path class="s33" d="m2563.8 1138.7l-23-19.5-78.8 79.6c-12.3 8.5 24.1 37.7 34.4 44.1 26.4 16.4 57.5 54.3 89.8 31.2 35.1-25.1-15.9-42.9-32.9-42.5-14.8 0.4-46.9-28.6-46.9-28.6z"/>
			</g>
			<g>
				<path class="s34" d="m2522.2 1853.1c0 0-13.1 13.7-26.4 16.6-13.3 2.9-22.6 6.6-22.7 14.5-0.1 7.8 38.3 13 53.5 5.1 22.7-11.9 25-8.3 27.5-14.2 2.5-6-3-21.8-2.9-23.7 0.3-2.3-29 1.7-29 1.7z"/>
			</g>
			<g>
				<path class="s35" d="m2523.7 1846.5c0 0-1.8 6.5-1.5 6.6 0.3 0.1 29.9 3.5 29-1.7-0.7-4.2-1.7-8.8-1.7-8.8z"/>
			</g>
			<g>
				<path class="s34" d="m2670.1 1856.7c0 0-9.7 13.4-22.5 16.5-12.7 3-21 8.8-21.6 16.5-0.6 7.6 29.9 17.7 51.4 4.2 14.1-8.8 19.4-8.3 22.2-14 2.9-5.6-1.5-21.3-1.2-23.2 0.4-2.2-28.3 0-28.3 0z"/>
			</g>
			<g>
				<path class="s35" d="m2670.5 1850.1c0 0-0.7 6.4-0.4 6.6 0.2 0.1 28.5 5.1 28.3 0-0.1-4-1.8-9.1-1.8-9.1z"/>
			</g>
			<g>
				<path class="s36" d="m2553.6 1459.8c0 0-13.7 99.9-19.3 133.6-6.6 39.5-8.8 72.1-10.7 92.5-2.3 25.7-5.3 157.3-6.9 164.8-1.7 7.5 40 3.6 40 3.6 0 0 21.8-171.5 28.7-198.8 6.4-25.5 25-135.6 30.8-128.6 5.8 6.9 23.7 131.6 28 151.7 4.3 20.1 15.9 178.3 15.9 178.3 0 0 39.3 6.3 47.2 0 0 0-6.2-141.1-9-178.7-1-14.4 9.1-171.9-15.2-235.5-12.8-33.6-129.5 17.1-129.5 17.1z"/>
			</g>
			<path class="s28" d="m2594 1220.3c0 0-36.4 7.5-40.7 11.3-4.7 4.1-13 43.9-13.5 55-0.5 11.1 4.4 57.5 9.1 74.8 4.7 17.2 4.7 91.9 1.8 115.9 0 0 70 14.3 142.1 4.9 0 0-9.8-72.6-7-96.3 3.7-30.3 12.6-100.1 12.6-100.1 0 0 0.1-39.4-5.5-45.6-11.9-13.5-57.9-19.9-57.9-19.9z"/>
			<path class="s33" d="m2648.6 1293.2c1.7 36 13.1 44.7 24.4 41.9 3.6-0.9 7-2.9 10.1-5.5 4.8-4.2 8.6-10 9.9-15.5 4.9-20 5-75.3-20.3-82.4 0 0-27.4-8.9-24.1 61.5z"/>
			<path class="s37" d="m2539.8 1309.5c0 0 20.3-3.4 21.5 26.1 1.3 29.4 14 84.1 34.8 105.9l-81.7 3.1c-20.8-21.8-31-74-32.5-103.4-1.5-27.1-21.6-26.1-21.6-26.1z"/>
			<path class="s33" d="m2587.4 1242.1q0.7 0.5 1.5 0.9c1.9 0.9 4.2 1.6 7.2 1.9q1.6 0.2 3.2 0.1 1 0 2-0.1c19.3-1.9 38.4-23.9 38.4-23.9-38.7-5.9-55.3 1.4-55.3 1.4 0 0-6.2 13.5 3 19.7z"/>
			<path class="s14" d="m2595.7 1108.8c0 0-45.7-9.2-34 47.9 11.8 57 22.8 61.2 50 48.7 27.2-12.5 23.8-49.1 24.8-67.1 0.9-18.1-26.3-29.2-40.8-29.5z"/>
			<path class="s14" d="m2588.2 1228.1c0 0 9 6 43.2-9 0 0-3.4-20.3 1.9-42.6 5-21.4-42 26.4-42 26.4 0.5 0.4 0.7 2.6 0.3 5.7q-0.1 1.2-0.3 2.6c-0.2 1.6-0.6 3.3-1 5q-0.2 0.7-0.3 1.4c-2 7.3-1.8 4.2-1.8 10.5z"/>
			<path class="s30" d="m2635 1167.7c0 0-2.3-15.4-8.9-15.8-6.6-0.4-8.5 9-8.5 9l-5.2 0.5c0 0 2.1-16.2-4.5-18.8-6.7-2.6-42.6 6.2-48 1.7-5.3-4.5-2.7-34.5 6.8-39.1 9.4-4.7 34.6-17.2 54.3-4.6 0 0 15-2.1 17.5 10 2.5 12.1 0.3 48-3.5 57.1z"/>
			<path class="s14" d="m2617.8 1146.6c1.1-5.4 12-6.5 12.2 1.7 0.1 8.2-6.8 22-10.8 20.2-3.9-1.7-2.9-14.5-1.4-21.9z"/>
			<path class="s38" d="m2631.4 1212.6c0 0-17.9 10.8-35.5 13.2l9.4 15 29.7-20.5z"/>
			<path class="s38" d="m2590 1217.6c0 0 1.8 6.2 5.9 8.2l-8.9 12.3 0.4-16.3z"/>
			<path class="s20" d="m2595.9 1225.8l-7 9.7c0 0 4.4 5.6 13.9 1.4z"/>
			<path class="s20" d="m2588.9 1243c1.9 0.9 4.2 1.6 7.2 1.9q1.6 0.2 3.2 0.1l-1-9h-6.5c0 0-1.7 2.6-2.9 7z"/>
			<path class="s18" d="m2590.1 1217c20.2 1.1 33.2-19.9 33.6-20.5-12.7 13.9-32.4 14.7-32.4 14.7-0.2 1.6-0.8 4.1-1.2 5.8z"/>
			<path class="s39" d="m2539.8 1309.5c0 0-24.3 2.3-19.2 36.2l-72.1 3.9c0 0-10-23.1 11.8-34.5z"/>
			<path fill-rule="evenodd" class="s40" d="m2511.7 1334.3l-56.3 3-0.2-3 56.4-3z"/>
			<path fill-rule="evenodd" class="s40" d="m2516.5 1321.3l-56.3 3-0.2-2.9 56.4-3.1z"/>
			<g>
				<path fill-rule="evenodd" class="s40" d="m2490.4 1350.5l56.4-3 0.1 2.9-56.3 3z"/>
				<path fill-rule="evenodd" class="s40" d="m2497.5 1370.3l56.3-3.1 0.2 3-56.4 3z"/>
				<path fill-rule="evenodd" class="s40" d="m2504.6 1390l56.3-3.1 0.2 3-56.4 3z"/>
				<path fill-rule="evenodd" class="s40" d="m2511.6 1409.7l56.4-3 0.1 2.9-56.3 3.1z"/>
				<path fill-rule="evenodd" class="s40" d="m2518.7 1429.4l56.3-3 0.2 2.9-56.4 3.1z"/>
			</g>
			<path class="s14" d="m2602.3 1372.9c0 0-3.1 1.5-5.8 0.8-4.7-1.3-8.7-7.8-14.8-4.5-6.2 3.4-1 25.8 2.1 29.1 3.1 3.3 12.7 1.4 24.6-7.2 11.9-8.6-6.1-18.2-6.1-18.2z"/>
			<path class="s14" d="m2583.9 1368.4c0 0-10.4 0.8-21.8 3-10 2-22.2 5.9-21.7 8.4 0.7 3.9 10.3-0.5 20.4-1.8 9.3-1.2 7.6 0.6 7.6 0.6 0 0 0.5-0.5-9.4 2.8-10.6 3.6-21.8 7.8-21.5 9.9 0.5 2.6 0.7 2.8 4.8 2.2-2.3 0.9-2.3 1.6-2.1 2.6 1.5 5.1 17.8 2.3 24.3 1.2-4.9 0.9-8.5 2.1-5.6 4.6 3.3 3 26.3-2 34.7-3 9.1-1-9.7-30.5-9.7-30.5z"/>
			<path class="s33" d="m2664.6 1232.4c-7.4 2.5-11.4 13-6.9 34.8 5 24.1 10.6 35.8 13.9 41.5 3.2 5.7 20.6 34.7 17.4 39.3-3.2 4.6-45.3 15.6-48.1 16.4-5.7 1.6-43.9 9.2-43.9 9.2l9.3 32.7c0 0 116.3-19.8 122-25.5 5.6-5.6 8.6-13.3 2.3-33-6.4-20.1-17.8-67.2-19.8-70.8-2-3.7-12.7-55.6-46.2-44.6z"/>
			<path class="s41" d="m2658.8 1271.9c0 0 2.6 37 14.2 63.2 3.6-0.9 7-2.9 10.1-5.5 0 0-13.5-24.3-14.7-27.1-1.2-2.7-8.3-24.1-9.6-30.6z"/>
		</g>
		<g>
			<g>
				<path class="s42" d="m1138.3 1362.8h-524.4c-18.7 0-33.9-15.1-33.9-33.8v-354.5c0-18.7 15.2-33.8 33.9-33.8h524.4c18.7 0 33.8 15.1 33.8 33.8v354.5c0 18.7-15.1 33.8-33.8 33.8z"/>
			</g>
			<g>
				<g>
					<path fill-rule="evenodd" class="s43" d="m1000.4 1019.8h18.5v102.9h-18.5z"/>
				</g>
				<g>
					<path fill-rule="evenodd" class="s44" d="m1032.9 992.4h18.5v130.3h-18.5z"/>
				</g>
				<g>
					<path fill-rule="evenodd" class="s45" d="m1067 1006.7h18.5v116h-18.5z"/>
				</g>
				<g>
					<path fill-rule="evenodd" class="s46" d="m1102 1040h18.6v82.7h-18.6z"/>
				</g>
				<g>
					<path fill-rule="evenodd" class="s47" d="m1000.4 1057.4h18.5v65.3h-18.5z"/>
				</g>
				<g>
					<path fill-rule="evenodd" class="s47" d="m1032.9 1040h18.5v82.7h-18.5z"/>
				</g>
				<g>
					<path fill-rule="evenodd" class="s47" d="m1067 1049.1h18.5v73.6h-18.5z"/>
				</g>
				<g>
					<path fill-rule="evenodd" class="s47" d="m1102 1071.2h18.6v51.5h-18.6z"/>
				</g>
			</g>
			<g>
				<g>
					<path class="s20" d="m1108.2 1187.3h-95.4c-4.1 0-7.3-3.3-7.3-7.3v-14.8c0-4 3.2-7.3 7.3-7.3h95.4c4 0 7.3 3.3 7.3 7.3v14.8c0 4-3.3 7.3-7.3 7.3z"/>
				</g>
			</g>
			<g>
				<g>
					<path class="s20" d="m1108.2 1242.2h-95.4c-4.1 0-7.3-3.3-7.3-7.3v-14.8c0-4 3.2-7.3 7.3-7.3h95.4c4 0 7.3 3.3 7.3 7.3v14.8c0 4-3.3 7.3-7.3 7.3z"/>
				</g>
			</g>
			<g>
				<g>
					<path class="s20" d="m1108.2 1297.1h-95.4c-4.1 0-7.3-3.3-7.3-7.3v-14.7c0-4.1 3.2-7.3 7.3-7.3h95.4c4 0 7.3 3.2 7.3 7.3v14.7c0 4-3.3 7.3-7.3 7.3z"/>
				</g>
			</g>
			<g>
				<g>
					<g>
						<path class="s20" d="m952.3 1092.5c-24.5-68.4-89.9-110.4-158.8-108.4-16.7 0.5-33.6 3.6-50.1 9.5-50.2 18-86.2 58-101 105.2-10.3 32.8-10.3 69 2.1 103.8q1.9 5.2 4 10.2c6.6 15 15.2 28.7 25.4 40.6 42.7 50.3 113.7 71.6 179.5 48 85-30.4 129.3-123.9 98.9-208.9zm-112.6 170.4c-49.4 17.7-102.6 1.7-134.7-36-7.6-8.9-14-19.2-18.9-30.5q-1.7-3.7-3.1-7.6c-9.3-26.1-9.2-53.2-1.6-77.8 11.1-35.4 38.1-65.4 75.7-78.8 12.5-4.5 25.1-6.8 37.6-7.2 51.7-1.5 100.7 30 119.1 81.3 22.8 63.7-10.4 133.8-74.1 156.6z"/>
					</g>
				</g>
				<g>
					<g>
						<path class="s48" d="m681.4 1111l-39-12.2c14.8-47.2 50.8-87.2 101-105.2 16.5-5.9 33.4-9 50.1-9.5l1.2 40.9c-12.5 0.4-25.1 2.7-37.6 7.2-37.6 13.4-64.6 43.4-75.7 78.8z"/>
					</g>
				</g>
				<g>
					<g>
						<path class="s49" d="m686.1 1196.4l-37.6 16.4q-2.1-5-4-10.2c-12.4-34.8-12.4-71-2.1-103.8l39 12.2c-7.6 24.6-7.7 51.7 1.6 77.8q1.4 3.9 3.1 7.6z"/>
					</g>
				</g>
				<g>
					<g>
						<path class="s50" d="m673.9 1253.4c-10.2-11.9-18.8-25.6-25.4-40.6l37.6-16.4c4.9 11.3 11.3 21.6 18.9 30.5z"/>
					</g>
				</g>
			</g>
		</g>
		<g>
			<path class="s34" d="m1119 1840.9c0 0-6 11.2-9.9 15.6-3.9 4.4-18.9 12.4-19 25.5 0 14.3 25.3 10.4 35.2 9.8 9.9-0.5 10.7-8.1 14.9-16.2 4.1-8.1 8.3-6.7 9.1-13.2 0.8-6.6-4-21.5-4-21.5z"/>
			<g>
				<path class="s51" d="m1144.9 1836.6c0 0 1.2 6.1 1 6.2-0.3 0.2-28.1 5.2-28 0.1 0.2-4 2.6-8.7 2.6-8.7z"/>
			</g>
			<g>
				<path class="s14" d="m1400.2 1311.4c0 0 29.2-6.1 31.4-4.9 2.2 1.3 2.3 2.9-0.4 3.6-2.7 0.7-28.1 6.8-28.1 6.8 0 0 35.4-1.3 37.5-0.6 1.2 0.3 1.6 3.5 0.2 4-1.5 0.5-36.6 3.9-36.6 3.9 0 0 33.1-1.2 34.6-0.1 1.3 0.9 1 4-1.4 4.2-2.5 0.3-33.3 3.2-33.3 3.2 0 0 24.1 0.7 24.8 2.4 0.5 1.1 1 3.8-5.2 3.4-6.2-0.4-21 0.3-21 0.3z"/>
			</g>
			<g>
				<path class="s34" d="m1270 1838.8c0 0 12.3 13.6 24.7 16.5 12.4 2.8 21 6.5 21.1 14.3 0.1 7.8-35.7 13-49.8 5.1-21.2-11.8-23.4-8.2-25.7-14.1-2.4-5.9 2.8-21.6 2.6-23.5-0.2-2.3 27.1 1.7 27.1 1.7z"/>
			</g>
			<g>
				<path class="s51" d="m1268.7 1832.3c0 0 1.6 6.4 1.3 6.5-0.2 0.1-27.9 3.4-27.1-1.7 0.7-4.2 1.7-8.7 1.7-8.7z"/>
			</g>
			<g>
				<path class="s52" d="m1243.5 1449.8c0 0 10.1 97.8 15.3 131.3 6.1 39.2 8.2 71.6 9.9 91.8 2.2 25.5 2.6 151 4.1 158.4 1.5 7.5-33.4 2.1-33.4 2.1 0 0-17.2-163.9-23.6-191.1-5.9-25.3-28-134.1-33.5-127.2-5.4 6.9-12.2 127-16.2 147-4 19.9-16.3 176-16.3 176 0 0-27.7 5.6-35.1-0.7 0 0-3.4-134.5-0.8-171.9 1-14.3-16.7-170.9 6-233.9 11.9-33.3 123.6 18.2 123.6 18.2z"/>
			</g>
			<g>
				<path class="s53" d="m1070.8 1463.7c0 0 17 5.1 24.1 3.8 7.1-1.3 3.5-88.6 3.8-106.8 0.2-14.7 8.3-53.6 8.3-53.6q0 0 0 0.1 0 0 0 0 0 0 0 0.1c0.8 2.9 11.7 43.2 12 62.6 0.4 20.2-2.6 97.2-2.6 97.2l30 2.9 86.2 2.1 18-2.1c0 0-2.2-32.9-3-48.6-0.5-9.9-2.4-27.7-1.9-45 0 0-0.3-18.3 1.5-26.2 0.2-34.7 2.3-69.1 2.3-69.1q1.8-23.6 2.5-44.2c-3.8-2.1-8.4-4.4-12.1-6.1-11.3-5.4-27-12.7-37.2-17.3-5.9-2.8-11.7-4.7-11.7-4.7 0 0-40.4-3.9-43.7-3.7-1 0.1-6.1 1.8-12.7 4.3-14.3 5.5-42 16.6-46.4 19.7-6.4 4.6-20.1 114.4-20.7 122.1-1.1 13.9 3.3 112.5 3.3 112.5z"/>
			</g>
			<path class="s54" d="m1248 1456.2c0 0-59.2 5.1-111 0v17c0 0 77.8 11.3 113.6-3.2z"/>
			<g>
				<path class="s55" d="m1197.5 1211.2c0 0 9.7 22.6 16.9 73.2 2.8 19.4 7.9 52.1 11.6 85.4 3 26.3 9.7 53.3 11.8 73.4 2.3 20.8 8.9 82.2 8.9 82.2l16.2-10.2c2.3-2.1 5.6-4.9 4.6-7.9-4.4-14.3-12.9-61.8-18-103.2q0-0.1 0-0.1-0.3-3-0.7-6 0-0.1 0-0.3c-1-8.2-1.8-16.2-2.3-23.4-0.5-5.6-0.1-11.1 0.7-16.4 2.3-37.1 3.4-76.3 3.4-76.3 1.2-16.1 1.8-31 2.3-45-2.6-2-8.4-5.1-12.5-7 0 0-36.1-16.4-42.9-18.4z"/>
			</g>
			<path class="s53" d="m1194.5 1223c0 0 1.1 15.5-12 15.9-13.1 0.3-23.5-12.3-23.5-12.3l21.7 5.7 13.3-11.3z"/>
			<g>
				<g>
					<path class="s14" d="m1367.4 1323.9c0 0 9.5-2.7 10.8-8.4 1-4.8 5.8-10.4 7.2-12.2 2-2.3 5.5-11.6 8.2-9.3 2.7 2.4-5.1 15.6-6.2 18.7-1.2 3.1 12-2.3 15.1-1.4 3.1 1 9.2 23.8-0.2 26.4-9.4 2.7-20.8-0.9-22.4-0.1-1.6 0.8-6.8 2.2-6.8 2.2z"/>
				</g>
			</g>
			<g>
				<path class="s32" d="m1176.8 1104.5c0 0 30.1 5.1 25 52.1-5.1 47-31.6 42.8-33.4 42.7-1.8 0-26.6 0.6-28-56.8 0 0-0.3-42.5 36.4-38z"/>
			</g>
			<g>
				<path class="s32" d="m1190 1185.7c0 0 0 19.4 0.8 23.6 0.8 4.5-24.1 17.5-40.2 2.3 0 0 3.2-21.1 2.2-28.6-1-7.4 37.2 2.7 37.2 2.7z"/>
			</g>
			<g>
				<path class="s32" d="m1201.9 1145.6c0 0 3.3-3.5 4.5 0.1 1.1 3.6-4.2 18.7-4.9 20.1 0 0-0.7 1.4-1.4 0.7-0.8-0.8 1.8-20.9 1.8-20.9z"/>
			</g>
			<g>
				<path class="s32" d="m1140.8 1142c0 0-3.2-3.6-4.5-0.1-1.3 3.5 3.5 19.4 4.1 20.3 0 0 1 1.7 1.8 0.9 0.8-0.7-1.4-21.1-1.4-21.1z"/>
			</g>
			<g>
				<path class="s30" d="m1204.3 1139.3c-1 6.4-2 11.2-2 11.2l-4.4 5.7c0 0 0.3-12.6-0.4-14.6-0.3-0.7-0.5-2.1-0.9-3.5-0.5-2.4-1-5.1-1.3-6-0.6-1.4-25.7-8.7-48.2 1.6 0 0 0.2 1.9 0.2 4.1 0 2.5-0.3 5.3-1.4 5.7-2.2 0.8-1.3 14.8-1.3 14.8l-3.5-4c0 0-1-7.3-2-15.7q0 0 0-0.1c-0.2-1.9-0.4-3.9-0.7-5.9-0.5-8.5 0.4-23.8 11.4-32.8 7.4-3.2 19.2-5.9 39 0.2 0 0 4.9 1.4 6.2 2.6 12.3 13.5 9.3 36.7 9.3 36.7z"/>
			</g>
			<path class="s56" d="m1154.9 1193.1c0 0 4.8 6.6 15.9 6.4 11.1-0.3 16-6.1 16-6.1 0 0-5.3 11-16.1 10.9-10.7-0.1-15.8-11.2-15.8-11.2z"/>
			<path class="s57" d="m1191.9 1224l-11.2 8.3c0 0 9.4-20 9.6-28z"/>
			<path fill-rule="evenodd" class="s58" d="m1190.3 1204.3l7.7 7.1 8 23.9-14.1-11.3z"/>
			<g>
				<path class="s55" d="m1380 1346c0 0-66.1 17.4-82.3 13.4-7.5-1.8-17.3-12.1-26.6-24.2-3.1-4-6.2-8.2-9-12.4q0 0 0 0c-11.5-16.5-20.5-32.4-20.5-32.4 0 0-33.9-39.7-6.7-57.5 0 0 11.5-1.1 18 3.7 6 4.4 20.7 32.4 23 37.6 2.4 5.2 28.2 53.3 29.9 54.4 1.7 1.1 23.8-2.9 35.5-3.8 19-1.6 34.8-6.5 34.8-6.5z"/>
			</g>
			<path class="s32" d="m1188.9 1211.4c0 0-3.1 10.9-8.2 20.9 0 0-11.7-10.3-15.4-14-3.7-3.7 23.6-6.9 23.6-6.9z"/>
			<path class="s57" d="m1168.4 1220.7l12.3 11.6c0 0-14.5-1-17.2-3.4z"/>
			<path class="s58" d="m1152.1 1199.5c0 0 9.9 16 16.3 21.2l-10.9 18.2-17.5-31.8z"/>
			<g>
				<path class="s55" d="m1099.9 1361.6c-1.2 16.8 5.9 110.1-1.2 111.4-7.1 1.3-33.3-4.4-33.3-4.4 0 0-3.3-100.6-2.2-111.2 0.7-7.6 13-122.8 19.4-127.4 3.7-2.7 31.4-12.5 44.9-17.8 2.5-1 10.3-4.3 12.5-5.1 2.9 3.2 27.9 61.9 30.3 107.8 0.8 13.9-2.5 43.4-5 67.4-2.7 25.7-5.6 45.7-7.7 67.2-4.3 42.3-7.3 75.9-7.3 75.9l-42.1-18.7c-6.8-3.4-16.2-17.4-13.6-24.6 9.7-27.2 22-73.8 22-97.7 0 0-4.7-58.6-8.5-71.4 0 0-6.6 27.1-8.2 48.6z"/>
			</g>
			<path fill-rule="evenodd" class="s59" d="m1178 1457.3h27.9v20.7h-27.9z"/>
			<g>
				<path fill-rule="evenodd" class="s39" d="m1115.5 1566.8h-91.7l21.5-61.1h91.7z"/>
				<path fill-rule="evenodd" class="s60" d="m1115.5 1566.8h-91.7l21.5-61.1h91.7z"/>
				<path fill-rule="evenodd" class="s61" d="m1045.3 1627.9h91.7l-21.5-61.1h-91.7z"/>
				<path fill-rule="evenodd" class="s60" d="m1115.5 1688.9h-91.7l21.5-61h91.7z"/>
				<path fill-rule="evenodd" class="s61" d="m1045.3 1750h91.7l-21.5-61.1h-91.7z"/>
				<path fill-rule="evenodd" class="s40" d="m1050.7 1515.9h52.3v2.2h-52.3z"/>
				<path fill-rule="evenodd" class="s40" d="m1047.5 1524.1h52.4v2.2h-52.4z"/>
				<path fill-rule="evenodd" class="s40" d="m1044.2 1532.3h42.3v2.2h-42.3z"/>
				<path fill-rule="evenodd" class="s40" d="m1050.7 1637.6h52.3v2.3h-52.3z"/>
				<path fill-rule="evenodd" class="s40" d="m1047.5 1645.8h26.2v2.3h-26.2z"/>
			</g>
			<path class="s14" d="m1093.4 1474.2c0 0 0.5 1.5 1.4 4.2 1.5 4.5 6.3 9.6 3.3 15.8-2.9 6.2-25.1 2.3-28.5-0.6-3.4-2.9-2-12.3 5.8-24.4 7.7-12.1 18 5 18 5z"/>
			<path class="s14" d="m1098.8 1492c0 0-0.2 10.1-1.8 21.4-1.5 9.9-4.6 22-7.1 21.7-3.8-0.5-0.1-10.1 0.7-20 0.7-9.2-1-7.5-1-7.5 0 0 0.5-0.4-2.2 9.4-2.9 10.5-6.5 21.7-8.6 21.5-2.5-0.3-2.8-0.6-2.4-4.6-0.7 2.3-1.5 2.4-2.4 2.2-5.1-1.2-3.2-17.3-2.5-23.7-0.6 4.9-1.6 8.4-4.2 5.7-3-3 0.7-25.7 1.2-34 0.5-9 30.3 7.9 30.3 7.9z"/>
			<g>
				<path class="s55" d="m1101 1408.7l-0.4 74.2c0 0-14.8-0.7-35.2-8.2l-1.4-104.6z"/>
			</g>
		</g>
		<g>
			<g>
				<g>
					<path class="s62" d="m982.5 1374.7l-51.5 115.9-1.4 3.1c-2.7 0.3-4.9-0.3-5.7-0.6l1.1-2.5 51-114.9-74.3-79.9-11.1-2.4 1.1-5.3 12.9 2.8z"/>
				</g>
				<path class="s63" d="m903.2 1513h47.6c0 0 0-1.1-0.5-2.8-1.4-5.7-6.6-17.7-25.2-17.7-18.5 0-21.5 12-21.9 17.7-0.1 1.7 0 2.8 0 2.8z"/>
				<path class="s64" d="m854.7 1270.2l3.2 9.1 19.5 55.3c7.9-2.8 14.2-8.3 18.1-15 4.9-8.4 6.2-18.7 2.7-28.6-6.2-17.8-25.7-27.1-43.5-20.8z"/>
				<path class="s65" d="m932.2 1490.6v2.6q-1.3 0.4-2.6 0.5c-2.7 0.3-4.9-0.3-5.7-0.6q-0.3-0.1-0.3-0.1v-2.4h1.4 6z"/>
				<path class="s66" d="m903.2 1513h47.6c0 0 0-1.1-0.5-2.8h-47.1c-0.1 1.7 0 2.8 0 2.8z"/>
				<path class="s65" d="m854.7 1270.2l3.2 9.1c11.4 9 29 24.5 37.6 40.3 4.9-8.4 6.2-18.7 2.7-28.6-6.2-17.8-25.7-27.1-43.5-20.8z"/>
			</g>
			<g>
				<g>
					<g>
						<g>
							<path class="s14" d="m693.9 1368c0 0 8.3-10.5 9.6-12 1.3-1.6 6.5-3.1 12.5-4.2 6-1.1 14.5 0.3 15.2 1.1 0.7 0.9 1.8 1.3 2 4.3 0.3 2.9-0.9 5.6-0.9 5.6 0 0 1.9 3.4 0.1 6.6 0 0 1.6 3.3-0.9 6.6 0 0 1.5 3.2-0.5 5.5 0 0-5.1 1.5-6.9 2.7-1.8 1.1-12.7 3.4-23.4 3.8 0 0-10.1-3.3-6.8-20z"/>
						</g>
					</g>
				</g>
			</g>
			<g>
				<g>
					<path fill-rule="evenodd" class="s67" d="m454.4 1692l-47.3 197.2h-10.5l40.2-197.6z"/>
				</g>
			</g>
			<g>
				<g>
					<path fill-rule="evenodd" class="s67" d="m506 1692l-47.3 197.2h-10.4l40.1-197.6z"/>
				</g>
			</g>
			<g>
				<g>
					<path fill-rule="evenodd" class="s67" d="m589.4 1692l47.3 197.2h10.5l-40.2-197.6z"/>
				</g>
			</g>
			<g>
				<g>
					<path class="s68" d="m634.2 1693.9h-203.8c0 0-14.2-0.3-23.7-42.4-10.7-47.3-32.3-205.3-32.3-205.3 0 0 5.7-14.7 95.3-12.8l160.5 208.2c0 0 5.4 32.8 4 52.3z"/>
				</g>
			</g>
			<g>
				<g>
					<path class="s14" d="m640.5 1496.7c0 0 10.4-4.5 18.1-2.7 7.8 1.8 26.1 8.7 35.1 9.8 9 1.1 17.6 6.4 17.4 9.3-0.2 3-69.6 5.5-69.9-1.3-0.3-6.8-0.7-15.1-0.7-15.1z"/>
				</g>
			</g>
			<g>
				<g>
					<g>
						<g>
							<path class="s14" d="m693.9 1368c0 0-13.6 8.9-13.9 11.7-0.4 4.5 2.4 18.5 2.7 18.3 0.3-0.2 20.4-10.1 20.4-10.1z"/>
						</g>
					</g>
				</g>
			</g>
			<g>
				<g>
					<g>
						<path class="s52" d="m693.6 1855.6c0 0 17.5 10.4 25.4 14.3 7.9 3.9 38.7 5 41.7 7.9 3 2.9 1.9 12.1-3.2 13.1-5.1 0.9-42.5 4.2-55 1.2-12.5-2.9-35.8 1.9-41 0.1-5.1-1.7-1.7-29.6 0.3-35.8 2-6.3 31.8-0.8 31.8-0.8z"/>
					</g>
				</g>
			</g>
			<g>
				<g>
					<g>
						<path class="s69" d="m693.3 1843.9l0.3 11.7c0 0-23.4 4.4-31.8 0.8l0.6-13z"/>
					</g>
				</g>
			</g>
			<g>
				<g>
					<g>
						<path class="s55" d="m734.5 1855.6c0 0 17.5 10.4 25.4 14.3 7.9 3.9 38.7 5 41.7 7.9 3 2.9 1.9 12.1-3.2 13.1-5.1 0.9-42.5 4.2-55 1.2-12.5-2.9-35.8 1.9-41 0.1-5.1-1.7-1.7-29.6 0.3-35.8 2-6.3 31.8-0.8 31.8-0.8z"/>
					</g>
				</g>
			</g>
			<g>
				<g>
					<g>
						<path class="s69" d="m734.2 1843.9l0.3 11.7c0 0-23.4 4.4-31.8 0.8l0.6-13z"/>
					</g>
				</g>
			</g>
			<g>
				<g>
					<path fill-rule="evenodd" class="s70" d="m596.8 1569.4l-26.5-4.6 17.7-44.6z"/>
				</g>
			</g>
			<g>
				<g>
					<path class="s71" d="m517.2 1578.6c0 0 133.5 28.3 154.4 37.2 20.8 8.8 33.3 12.5 34.9 16.9 1.5 4.4 34.1 216.2 34.1 216.2h-44.3c0 0-34.4-159.9-38.5-169.8-4.2-9.9-169.3-10.4-181.3-22.4-12-12-22.4-44.8-9.4-74.3 13-29.4 50.1-3.8 50.1-3.8z"/>
				</g>
			</g>
			<g>
				<g>
					<path class="s71" d="m584.8 1563.7c0 0 153.2 43.1 165.7 62.8 12.8 20-51.1 222.4-51.1 222.4h-43.7c0 0 42.2-189.6 37-198-5.2-8.3-236-0.2-193-68.5 42.9-68.2 85.1-18.7 85.1-18.7z"/>
				</g>
			</g>
			<g>
				<g>
					<path class="s55" d="m568.9 1350.9c5.8-3 25 3.6 30.7 12.4 13.2 20.5 38.1 45.9 38.1 45.9l55.6-46.7 11.2 27.9-66 55.6c-5.7 4.7-14 4.4-19.2-0.7-17.4-16.8-53.1-52.2-55.8-61.1-3.7-11.7-5.6-27.6 5.4-33.3z"/>
				</g>
			</g>
			<g>
				<g>
					<path class="s32" d="m550.1 1231.9c0 0 26.6 4.4 26.8 49.4 0.3 45.1-16.8 49.4-42.7 42.8-15.6-4-30.2-26.1-24.5-64.9 5.8-38.8 40.4-27.3 40.4-27.3z"/>
				</g>
			</g>
			<g>
				<g>
					<path class="s39" d="m553.6 1339.4c0 0 36.6 13.3 42.1 21.7 5.4 8.3 1.9 83.3-1.2 110.1-3.1 26.9-11.7 84.7-9.7 92.5l-85.1 18.7c0 0-27.4-99.5-28.2-115.3-0.7-15.9-20.8-89.9-11.2-95.9 9.7-6 51.6-29.4 51.6-29.4z"/>
				</g>
			</g>
			<g>
				<g>
					<path fill-rule="evenodd" class="s72" d="m499.7 1582.4l-4.2-15.3 89.5-17.5-0.2 14.1z"/>
				</g>
			</g>
			<g>
				<g>
					<path fill-rule="evenodd" class="s73" d="m544.2 1556.8l21.2-4.4v16.8l-21.2 4.9z"/>
				</g>
			</g>
			<g>
				<g>
					<path class="s55" d="m534.7 1513.1c-0.2 4.4-0.5 8.8-0.8 13.3v0.1c-3 49.4-7.5 101.1-7.5 101.1-6.3 5.2-85.2-13.1-85.2-13.1 0 0 9.7-13.2 19.1-49.7 9.4-36.5 2.1-71.5-7.7-130.9-9.7-59.4-1.7-59-1.7-59l61-33.1c4 15.1 20.2 70.2 24 101.8 1.4 11.5 0.5 39.1-1.2 69.5z"/>
				</g>
			</g>
			<g>
				<g>
					<path class="s55" d="m554.2 1339.5c0 0 17.7 45.9 25.3 92.7 7.6 47.6 7.3 134 15.6 136.1 8.3 2.1 5.7 0.7 5.7 0.7 0 0-1.5-52.2-2.3-69.5-1.7-38.6 5.5-125.6 2.2-134.3-3.3-8.8-27.3-22.2-46.5-25.7z"/>
				</g>
			</g>
			<g>
				<g>
					<path class="s32" d="m552.7 1332.3c0 2.8 0.3 5.4 0.9 7.1 0 0-4.7 18.3-41.7 2.4 0 0 7.3-27.3 0-50.1l41.7 25.9c0 0-0.5 4.1-0.8 8.9-0.1 1.9-0.1 4-0.1 5.8z"/>
				</g>
			</g>
			<g>
				<g>
					<path class="s74" d="m513.4 1334.5c0 0 14.6 7.1 29.2 8.4l-7.1 15.2-23.6-16.3z"/>
				</g>
			</g>
			<g>
				<g>
					<path class="s74" d="m542.6 1342.9c0 0 10.3-3.4 10.2-8.4l1.4 5-4.2 16.1z"/>
				</g>
			</g>
			<g>
				<g>
					<path class="s75" d="m573.8 1257.9c0 0 7.4-15.9 2-27.6-5.4-11.7-19.4-6.9-25.9-5.5-6.4 1.4-18.5-12.8-40.1 4.5-21.5 17.4-15.1 35.6-5.5 57.3 9.5 21.7 10.7 23.4 10.7 23.4 0 0 0-22 2.6-25.9 3.1-4.6 14.3-7 14.3-7 0 0-8.5-11.6-0.2-16 8.3-4.3 25.6 3.7 42.1-3.2z"/>
				</g>
			</g>
			<g>
				<g>
					<path class="s32" d="m520.9 1272.6c-1.1-3.3-6.7-7.1-9.5-0.9-2.8 6.2 4.5 17.2 8.5 17.2 4 0 3.6-8.7 1-16.3z"/>
				</g>
			</g>
			<g>
				<g>
					<path class="s8" d="m542.6 1342.9l5.4 9.2c0 0-2.5 2.8-10.4 1.6z"/>
				</g>
			</g>
			<g>
				<g>
					<path class="s8" d="m546.8 1352.9c0 0 21.9 64.3 22.1 110 0.1 45.7-3.5 72.9-3.5 72.9l-4.8 9-7-8.2c0 0 5-132.6-14.5-182.7 0 0 6.9-3.3 7.7-1z"/>
				</g>
			</g>
			<g>
				<g>
					<path class="s55" d="m457.7 1371.2c16-6.5 32.6 15.6 41.4 37.8 8.9 22.1 25.8 62.4 25.8 62.4l118.3 19.2 1.7 22.4h-138c0 0-52.6-94.1-56.3-105.8-3.6-11.8-4.4-31.3 7.1-36z"/>
				</g>
			</g>
			<g>
				<g>
					<path fill-rule="evenodd" class="s68" d="m603 1513h390v13.5h-390z"/>
				</g>
			</g>
			<path fill-rule="evenodd" class="s76" d="m831.5 1277.9h9.4v208.2h-9.4z"/>
			<g>
				<path class="s77" d="m854.5 1513h70.3v-4.2h-70.3c-3.6 0-6.3-0.9-7.8-2.6-1.9-2.1-1.6-4.9-1.6-4.9v-0.1-0.1-90.9h-4.2v90.8c-0.1 0.8-0.3 4.8 2.6 8 2.3 2.7 6.1 4 11 4z"/>
			</g>
			<path class="s76" d="m760.7 1505.6h72.2v7.4h-79.1v-0.6c0-3.7 3.1-6.8 6.9-6.8z"/>
			<g>
				<g>
					<path fill-rule="evenodd" class="s78" d="m963.5 1891.5h-11.1v-365h11.1z"/>
				</g>
				<g>
					<path fill-rule="evenodd" class="s78" d="m643.5 1891.5h-11.1v-365h11.1z"/>
				</g>
			</g>
			<path class="s72" d="m534.7 1513.1c-0.2 4.4-0.5 8.8-0.8 13.3v0.1c0 0-15.4 2-28.3-3.8-12.9-5.9-21.9-50.5-22.5-52.8 1.3 2.6 22 43.2 27 43.2 5.3 0 24.6 0 24.6 0z"/>
			<path class="s18" d="m552.8 1326.5c-0.1 1.9-0.1 4-0.1 5.8-29.4 0.5-29.8-16.3-29.8-16.3 4.5 12.2 29.9 10.5 29.9 10.5z"/>
			<g>
				<path fill-rule="evenodd" class="s79" d="m711.3 1365.3l32.1-31 2.7 2.7-32.2 31z"/>
				<path fill-rule="evenodd" class="s14" d="m743.4 1334.3l6.1-3.2-3.5 5.9z"/>
			</g>
			<g>
				<g>
					<g>
						<g>
							<path class="s80" d="m729.6 1353.2c0 0-15.2 3.2-15.1 6 0 2.7 1.6 3.6 1.6 3.6l-5.9 4.5c0 0-2.4 5.3 3.4 6.4 0 0-2.8 4.7 3 5.1 0 0-0.6 3.9 2.1 4.6 2.6 0.7 12.3-1.9 12.3-1.9 0 0 2.3-1.5 1-5.5 0 0 2.5-3 0.8-6.6 0 0 1.7-2.8-0.1-6.6 0 0 3-6.5-1.5-9.9 0 0-0.9 0.1-1.6 0.3z"/>
						</g>
					</g>
				</g>
			</g>
			<g>
				<g>
					<g>
						<g>
							<path class="s14" d="m704 1355.8c0 0 10 3.2 14.7 7.7 1 1 1.9 2.1 1.4 3.7-0.5 1.5-3.1 2.7-7.5 1.5-4.4-1.1-10.7-0.3-10.7-0.3 0 0-4.2-2.7 2.1-12.6z"/>
						</g>
					</g>
				</g>
			</g>
			<path class="s81" d="m716.8 1695.9c0 0-9.3-58.5-9.8-60.8-0.5-2.4-10-10.9-55.6-25.8 0 0 50.6 9.8 63.9 18.5 10.2 6.6 1.5 68.1 1.5 68.1z"/>
			<g>
				<path class="s82" d="m907.4 1513c5-2 13-25.6 16.9-37.8 1.4-4.4 2.2-7.3 2.2-7.3h-45.7c4 28.2 13.6 45.1 13.6 45.1z"/>
				<path class="s83" d="m911 1453.9c0-1.7 7.4-8.6 11-13 3.7-4.5-1.4-13-1.4-13-16.3 6.7-13.5 26-13.5 26 0 0 3.9 1.6 3.9 0z"/>
				<path class="s83" d="m901.7 1454.6h2c0 0 1.4-33.2-10.7-37.7-12.2-4.6-12.2-13.6-12.2-13.6 0 0-3.6 12.4 2.3 18.9 5.9 6.5 12.7 14.1 11.6 20.3-1.2 6.2 7 12.1 7 12.1z"/>
				<path class="s84" d="m924.3 1475.2c1.4-4.4 2.2-7.3 2.2-7.3h-45.7c4 28.2 13.6 45.1 13.6 45.1h3c-0.6-26.4 16.8-35 26.9-37.8z"/>
				<path fill-rule="evenodd" class="s85" d="m926.5 1453.9h-46l-2.6 14h50.5z"/>
			</g>
		</g>
	</g>
</svg>