<svg width="137" height="152" viewBox="0 0 137 152" fill="none" xmlns="http://www.w3.org/2000/svg">
<g clip-path="url(#clip0_2430_7034)">
<path d="M118.019 31.9847C111.686 32.0061 105.47 33.6937 99.9957 36.8779C94.5212 40.0621 89.981 44.6308 86.8311 50.125C84.0101 55.4497 82.1878 61.2459 81.4544 67.2268C80.6099 72.9922 80.4661 78.6622 80.1914 84.1462C80.0502 89.496 79.4324 94.8227 78.3452 100.063C77.8002 102.57 77.0054 105.016 75.9729 107.365C74.9102 109.659 73.5713 111.814 71.986 113.784C68.9984 117.72 64.6648 120.417 59.8138 121.358C57.4325 121.715 55.0017 121.542 52.695 120.852C50.3374 120.125 48.1396 118.957 46.2192 117.408C44.32 115.842 42.773 113.893 41.6793 111.688C40.6046 109.479 40.0789 107.043 40.1467 104.588C40.1732 102.162 40.8887 99.7939 42.2097 97.7593C43.5584 95.7932 45.547 94.3556 47.8368 93.6913C48.9485 93.329 50.1221 93.1963 51.2866 93.3012C52.4511 93.4061 53.5821 93.7464 54.6111 94.3015C56.6627 95.5829 58.1816 97.5631 58.8874 99.8767C59.6344 102.304 59.7002 104.891 59.0775 107.353C58.4496 109.914 57.3878 112.348 55.9382 114.55C52.9594 119.067 48.7603 122.645 43.8287 124.871C38.8971 127.096 33.4354 127.877 28.0779 127.122C22.645 126.16 17.5945 123.683 13.5089 119.975C9.42331 116.267 6.46907 111.48 4.98686 106.165C6.33142 111.633 9.19603 116.607 13.2494 120.515C17.3028 124.422 22.3794 127.102 27.8922 128.246C33.5484 129.228 39.3672 128.582 44.6703 126.383C49.9733 124.184 54.542 120.523 57.8436 115.827C59.5268 113.441 60.7933 110.787 61.5894 107.978C62.4228 105.061 62.4378 101.971 61.6328 99.0464C60.7933 95.9855 58.8546 93.3416 56.1878 91.6205C54.8005 90.7796 53.2502 90.2434 51.6399 90.0473C50.0528 89.8757 48.4477 89.9989 46.9054 90.4107C43.7941 91.2053 41.0547 93.0542 39.1541 95.6424C37.3445 98.2238 36.3027 101.265 36.1491 104.413C35.9548 107.519 36.5128 110.625 37.7757 113.469C39.0505 116.296 40.9142 118.818 43.242 120.866C45.5717 122.898 48.2736 124.458 51.1978 125.46C54.1748 126.456 57.3348 126.785 60.4531 126.422C63.5788 126.011 66.5838 124.951 69.2745 123.308C71.9062 121.728 74.2686 119.738 76.2726 117.413C78.2461 115.125 79.9326 112.604 81.2943 109.907C82.6037 107.232 83.6451 104.433 84.4032 101.553C85.7685 95.9762 86.6316 90.2887 86.9822 84.5584C87.454 78.983 87.7939 73.556 88.7437 68.387C89.5159 63.3603 91.1989 58.5166 93.7101 54.0941C96.2419 50.0057 99.7997 46.6513 104.03 44.3643C108.26 42.0773 113.015 40.9374 117.822 41.0579L118.019 31.9847Z" fill="white"/>
<path d="M118.019 31.9847C111.686 32.0061 105.47 33.6937 99.9957 36.8779C94.5212 40.0621 89.981 44.6308 86.8311 50.125C84.0101 55.4497 82.1878 61.2459 81.4544 67.2268C80.6099 72.9922 80.4661 78.6622 80.1914 84.1462C80.0502 89.496 79.4324 94.8227 78.3452 100.063C77.8002 102.57 77.0054 105.016 75.9729 107.365C74.9102 109.659 73.5713 111.814 71.986 113.784C68.9984 117.72 64.6648 120.417 59.8138 121.358C57.4325 121.715 55.0017 121.542 52.695 120.852C50.3374 120.125 48.1396 118.957 46.2192 117.408C44.32 115.842 42.773 113.893 41.6793 111.688C40.6046 109.479 40.0789 107.043 40.1467 104.588C40.1732 102.162 40.8887 99.7939 42.2097 97.7593C43.5584 95.7932 45.547 94.3556 47.8368 93.6913C48.9485 93.329 50.1221 93.1963 51.2866 93.3012C52.4511 93.4061 53.5821 93.7464 54.6111 94.3015C56.6627 95.5829 58.1816 97.5631 58.8874 99.8767C59.6344 102.304 59.7002 104.891 59.0775 107.353C58.4496 109.914 57.3878 112.348 55.9382 114.55C52.9594 119.067 48.7603 122.645 43.8287 124.871C38.8971 127.096 33.4354 127.877 28.0779 127.122C22.645 126.16 17.5945 123.683 13.5089 119.975C9.42331 116.267 6.46907 111.48 4.98686 106.165C6.33142 111.633 9.19603 116.607 13.2494 120.515C17.3028 124.422 22.3794 127.102 27.8922 128.246C33.5484 129.228 39.3672 128.582 44.6703 126.383C49.9733 124.184 54.542 120.523 57.8436 115.827C59.5268 113.441 60.7933 110.787 61.5894 107.978C62.4228 105.061 62.4378 101.971 61.6328 99.0464C60.7933 95.9855 58.8546 93.3416 56.1878 91.6205C54.8005 90.7796 53.2502 90.2434 51.6399 90.0473C50.0528 89.8757 48.4477 89.9989 46.9054 90.4107C43.7941 91.2053 41.0547 93.0542 39.1541 95.6424C37.3445 98.2238 36.3027 101.265 36.1491 104.413C35.9548 107.519 36.5128 110.625 37.7757 113.469C39.0505 116.296 40.9142 118.818 43.242 120.866C45.5717 122.898 48.2736 124.458 51.1978 125.46C54.1748 126.456 57.3348 126.785 60.4531 126.422C63.5788 126.011 66.5838 124.951 69.2745 123.308C71.9062 121.728 74.2686 119.738 76.2726 117.413C78.2461 115.125 79.9326 112.604 81.2943 109.907C82.6037 107.232 83.6451 104.433 84.4032 101.553C85.7685 95.9762 86.6316 90.2887 86.9822 84.5584C87.454 78.983 87.7939 73.556 88.7437 68.387C89.5159 63.3603 91.1989 58.5166 93.7101 54.0941C96.2419 50.0057 99.7997 46.6513 104.03 44.3643C108.26 42.0773 113.015 40.9374 117.822 41.0579L118.019 31.9847Z" fill="white"/>
<path d="M114.186 48.2367L134.844 36.8528L114.661 24.6509L114.186 48.2367Z" fill="white"/>
<path d="M114.186 48.2367L134.844 36.8528L114.661 24.6509L114.186 48.2367Z" fill="white"/>
<path d="M107.799 28.951C104.128 29.3213 100.573 30.4417 97.353 32.2428C94.0582 34.0102 91.1013 36.3451 88.618 39.1402C86.1425 41.9306 84.1533 45.1169 82.7332 48.5662C82.0295 50.2722 81.4585 52.0299 81.0251 53.8237C80.6403 55.6142 80.3479 57.4233 80.1492 59.2439C80.8665 57.5514 81.3785 55.8282 82.0853 54.1681L83.1889 51.7281C83.3801 51.3238 83.528 50.9054 83.73 50.5046L84.3829 49.3413L85.6529 47.0152L87.1182 44.8242C87.5856 44.08 88.1042 43.3693 88.6703 42.6973C89.1929 41.9908 89.7558 41.3152 90.3563 40.6737L92.1761 38.7533C92.8227 38.1621 93.4765 37.5852 94.1123 36.9904C95.4473 35.8585 96.8416 34.7984 98.2894 33.8147C101.251 31.8151 104.444 30.182 107.799 28.951Z" fill="white"/>
<path d="M107.799 28.951C104.128 29.3213 100.573 30.4417 97.353 32.2428C94.0582 34.0102 91.1013 36.3451 88.618 39.1402C86.1425 41.9306 84.1533 45.1169 82.7332 48.5662C82.0295 50.2722 81.4585 52.0299 81.0251 53.8237C80.6403 55.6142 80.3479 57.4233 80.1492 59.2439C80.8665 57.5514 81.3785 55.8282 82.0853 54.1681L83.1889 51.7281C83.3801 51.3238 83.528 50.9054 83.73 50.5046L84.3829 49.3413L85.6529 47.0152L87.1182 44.8242C87.5856 44.08 88.1042 43.3693 88.6703 42.6973C89.1929 41.9908 89.7558 41.3152 90.3563 40.6737L92.1761 38.7533C92.8227 38.1621 93.4765 37.5852 94.1123 36.9904C95.4473 35.8585 96.8416 34.7984 98.2894 33.8147C101.251 31.8151 104.444 30.182 107.799 28.951Z" fill="white"/>
<path d="M51.4593 128.631C55.365 130.022 59.5481 130.454 63.6557 129.89C67.8461 129.358 71.8334 127.773 75.2463 125.284C76.9219 124.007 78.4534 122.552 79.8138 120.943C81.1374 119.332 82.2864 117.584 83.2416 115.73C85.1606 112.088 86.442 108.143 87.0302 104.068C85.6069 107.819 83.8339 111.427 81.7348 114.846C79.6878 118.181 77.0346 121.104 73.9123 123.463C70.7774 125.783 67.1768 127.396 63.3586 128.191C59.4444 129 55.4226 129.148 51.4593 128.631Z" fill="white"/>
<path d="M51.4593 128.631C55.365 130.022 59.5481 130.454 63.6557 129.89C67.8461 129.358 71.8334 127.773 75.2463 125.284C76.9219 124.007 78.4534 122.552 79.8138 120.943C81.1374 119.332 82.2864 117.584 83.2416 115.73C85.1606 112.088 86.442 108.143 87.0302 104.068C85.6069 107.819 83.8339 111.427 81.7348 114.846C79.6878 118.181 77.0346 121.104 73.9123 123.463C70.7774 125.783 67.1768 127.396 63.3586 128.191C59.4444 129 55.4226 129.148 51.4593 128.631Z" fill="white"/>
<path d="M10.8926 112.282C11.8084 114.456 13.1616 116.418 14.8681 118.047C18.2667 121.41 22.6451 123.607 27.3725 124.322C28.5331 124.503 29.707 124.585 30.8815 124.565C32.0486 124.529 33.2115 124.407 34.3607 124.2C33.2789 123.849 32.1127 123.757 31.0134 123.459C29.914 123.162 28.7865 122.951 27.7153 122.567C25.6066 121.939 23.5577 121.125 21.5925 120.136C19.6208 119.159 17.7422 118.004 15.98 116.686C14.1772 115.346 12.4767 113.874 10.8926 112.282Z" fill="white"/>
<path d="M10.8926 112.282C11.8084 114.456 13.1616 116.418 14.8681 118.047C18.2667 121.41 22.6451 123.607 27.3725 124.322C28.5331 124.503 29.707 124.585 30.8815 124.565C32.0486 124.529 33.2115 124.407 34.3607 124.2C33.2789 123.849 32.1127 123.757 31.0134 123.459C29.914 123.162 28.7865 122.951 27.7153 122.567C25.6066 121.939 23.5577 121.125 21.5925 120.136C19.6208 119.159 17.7422 118.004 15.98 116.686C14.1772 115.346 12.4767 113.874 10.8926 112.282Z" fill="white"/>
</g>
<defs>
<clipPath id="clip0_2430_7034">
<rect width="125.518" height="102.143" fill="white" transform="matrix(-0.308983 0.951068 0.951068 0.308983 39.3574 0.186035)"/>
</clipPath>
</defs>
</svg>
