<svg width="457" height="419" viewBox="0 0 457 419" fill="none" xmlns="http://www.w3.org/2000/svg">
<g opacity="0.3">
<path d="M324.168 108.208L331.557 97.0561L337.859 93.7051L339.82 95.8831L334.543 99.2201L329.261 114.049L324.168 108.208Z" fill="#26346C"/>
<path d="M341.931 118.325L348.572 103.623L346.573 98.498H344.177L344.915 102.877L336.632 115.414L341.931 118.325Z" fill="#26346C"/>
<path d="M334.893 121.033L326.649 117.423L309.893 155.689L318.137 159.298L334.893 121.033Z" fill="#26346C"/>
<path d="M328.978 154.566C332.645 148.626 330.803 140.839 324.863 137.172C318.924 133.505 311.136 135.348 307.469 141.287C303.803 147.227 305.645 155.014 311.585 158.681C317.524 162.348 325.312 160.506 328.978 154.566Z" fill="#26346C"/>
<path d="M322.308 107.077C319.508 113.471 322.422 120.924 328.816 123.724C335.21 126.524 342.663 123.61 345.463 117.216C348.263 110.821 325.108 100.683 322.308 107.077Z" fill="#26346C"/>
<path d="M316.915 150.905C318.566 151.628 320.49 150.876 321.213 149.225C321.936 147.574 321.184 145.65 319.533 144.927C317.882 144.204 315.958 144.956 315.235 146.607C314.512 148.258 315.264 150.183 316.915 150.905Z" fill="#26346C"/>
<path d="M323.295 161.12L305.058 153.134L263.987 246.928L282.225 254.914L323.295 161.12Z" fill="#26346C"/>
<path d="M330.052 159.815L301.459 147.295L298.289 154.535C297.39 156.588 298.326 158.982 300.379 159.881L321.536 169.145C323.589 170.044 325.983 169.108 326.882 167.055L330.052 159.815Z" fill="#26346C"/>
<path d="M261.859 352.707H281.769V250.312H261.859V352.707Z" fill="#26346C"/>
<path d="M271.814 273.067C284.185 273.067 294.213 263.039 294.213 250.668C294.213 238.297 284.185 228.269 271.814 228.269C259.443 228.269 249.415 238.297 249.415 250.668C249.415 263.039 259.443 273.067 271.814 273.067Z" fill="#26346C"/>
<path d="M271.814 268.126C281.456 268.126 289.272 260.31 289.272 250.668C289.272 241.026 281.456 233.21 271.814 233.21C262.172 233.21 254.356 241.026 254.356 250.668C254.356 260.31 262.172 268.126 271.814 268.126Z" fill="#26346C"/>
<path d="M271.814 264.684C279.555 264.684 285.83 258.409 285.83 250.668C285.83 242.927 279.555 236.652 271.814 236.652C264.073 236.652 257.798 242.927 257.798 250.668C257.798 258.409 264.073 264.684 271.814 264.684Z" fill="#26346C"/>
<path d="M271.814 254.88C274.14 254.88 276.026 252.994 276.026 250.668C276.026 248.342 274.14 246.456 271.814 246.456C269.488 246.456 267.602 248.342 267.602 250.668C267.602 252.994 269.488 254.88 271.814 254.88Z" fill="#26346C"/>
<path d="M258.692 309.331H284.935C286.132 309.331 287.102 308.361 287.102 307.164V306.875C287.102 305.678 286.132 304.708 284.935 304.708H258.692C257.495 304.708 256.525 305.678 256.525 306.875V307.164C256.526 308.361 257.496 309.331 258.692 309.331Z" fill="#26346C"/>
<path d="M258.692 317.509H284.935C286.132 317.509 287.102 316.539 287.102 315.342V315.053C287.102 313.856 286.132 312.886 284.935 312.886H258.692C257.495 312.886 256.525 313.856 256.525 315.053V315.342C256.526 316.539 257.496 317.509 258.692 317.509Z" fill="#26346C"/>
</g>
<path d="M428.774 260.779L413.29 246.372L339.196 326.002L354.68 340.409L428.774 260.779Z" fill="#26346C"/>
<path d="M388.594 309.064L367.99 289.889C367.114 289.074 367.065 287.703 367.88 286.827L368.273 286.405C369.088 285.529 370.459 285.48 371.335 286.295L391.94 305.47C392.816 306.285 392.865 307.656 392.05 308.532L391.657 308.954C390.841 309.83 389.47 309.879 388.594 309.064Z" fill="#26346C"/>
<path d="M382.677 315.423L362.072 296.248C361.196 295.433 361.147 294.062 361.962 293.186L362.355 292.764C363.17 291.888 364.541 291.839 365.417 292.654L386.022 311.829C386.898 312.644 386.947 314.015 386.132 314.891L385.739 315.313C384.923 316.189 383.552 316.238 382.677 315.423Z" fill="#26346C"/>
<path opacity="0.1" d="M250 418.436C349.227 418.436 429.667 413.426 429.667 407.245C429.667 401.064 349.227 396.054 250 396.054C150.773 396.054 70.333 401.064 70.333 407.245C70.333 413.426 150.773 418.436 250 418.436Z" fill="#2A285B"/>
<path d="M135.992 262.33C134.519 264.093 135.178 396.582 135.992 397.393C136.806 398.204 362.199 400.639 364.64 397.393C367.081 394.148 365.454 262.33 363.826 260.707C362.2 259.084 140.061 257.461 135.992 262.33Z" fill="#26344B"/>
<path d="M142.467 268.637C141.078 270.231 141.839 379.97 142.607 380.704C143.374 381.437 355.875 383.638 358.176 380.704C360.477 377.77 358.804 268.637 357.269 267.17C355.735 265.703 146.303 264.235 142.467 268.637Z" fill="#B1FFF8"/>
<mask id="mask0_64_7" style="mask-type:luminance" maskUnits="userSpaceOnUse" x="141" y="265" width="219" height="118">
<path d="M142.467 268.637C141.078 270.231 141.839 379.97 142.607 380.704C143.374 381.437 355.875 383.638 358.176 380.704C360.477 377.77 358.804 268.637 357.269 267.17C355.735 265.703 146.303 264.235 142.467 268.637Z" fill="white"/>
</mask>
<g mask="url(#mask0_64_7)">
<path d="M245.119 310.314C325.808 310.314 391.219 286.691 391.219 257.551C391.219 228.411 325.808 204.788 245.119 204.788C164.43 204.788 99.019 228.411 99.019 257.551C99.019 286.691 164.43 310.314 245.119 310.314Z" fill="white"/>
</g>
<path d="M120.927 396.5C119.236 397.251 120.903 408.132 127.937 408.132C134.97 408.132 364.594 408.132 371.627 408.132C378.661 408.132 380.316 396.547 379.488 395.72C378.66 394.892 124.65 394.845 120.927 396.5Z" fill="white"/>
<path d="M253.232 388.657C253.232 390.165 252.01 391.387 250.502 391.387C248.994 391.387 247.772 390.165 247.772 388.657C247.772 387.149 248.995 385.927 250.502 385.927C252.009 385.927 253.232 387.149 253.232 388.657Z" fill="white"/>
<path d="M289.21 164.037L241.002 167.202L244.166 215.409L292.374 212.245L289.21 164.037Z" fill="white"/>
<path d="M287.314 166.201L243.165 169.098L246.063 213.247L290.212 210.35L287.314 166.201Z" fill="#26346C"/>
<path d="M280.195 187.92C279.703 180.419 273.223 174.737 265.722 175.23C258.221 175.722 252.539 182.202 253.032 189.703C253.524 197.204 260.004 202.886 267.505 202.393C275.005 201.901 280.687 195.421 280.195 187.92Z" fill="#9C57FC"/>
<path d="M278.078 188.059C277.662 181.727 272.193 176.931 265.861 177.346C259.529 177.761 254.733 183.231 255.148 189.563C255.563 195.895 261.033 200.691 267.365 200.275C273.697 199.861 278.493 194.391 278.078 188.059Z" fill="#26346C"/>
<path d="M268.76 188.671C268.682 187.485 267.658 186.587 266.472 186.665C265.286 186.743 264.388 187.767 264.466 188.953C264.544 190.139 265.568 191.037 266.754 190.959C267.94 190.881 268.838 189.856 268.76 188.671Z" fill="#F9FBFC"/>
<path d="M263.289 182.449L262.096 183.237L266.282 189.57L267.475 188.782L263.289 182.449Z" fill="#F9FBFC"/>
<path d="M266.084 188.287L266.747 189.554L273.472 186.033L272.809 184.766L266.084 188.287Z" fill="#F9FBFC"/>
<path opacity="0.1" d="M341.969 376.735H158.031L167.274 255.597H332.726L341.969 376.735Z" fill="url(#paint0_linear_64_7)"/>
<path d="M332.726 249.264H167.274V363.902H332.726V249.264Z" fill="#26344B"/>
<path d="M329.922 252.255H170.077V360.911H329.922V252.255Z" fill="white"/>
<path d="M325.425 255.166H173.758V276.833H325.425V255.166Z" fill="#5ACDFF"/>
<path d="M264.091 282.166H173.758V286.166H264.091V282.166Z" fill="#C7D3E2"/>
<path d="M325.18 338.03H173.758V342.03H325.18V338.03Z" fill="#C7D3E2"/>
<path d="M325.18 345.867H173.758V349.867H325.18V345.867Z" fill="#C7D3E2"/>
<path d="M264.091 290.5H173.758V294.5H264.091V290.5Z" fill="#C7D3E2"/>
<path d="M264.092 298.833H215.425V302.833H264.092V298.833Z" fill="#C7D3E2"/>
<path d="M264.092 307.166H215.425V311.166H264.092V307.166Z" fill="#C7D3E2"/>
<path d="M232.054 315.807H215.425V319.807H232.054V315.807Z" fill="#C7D3E2"/>
<path d="M319.722 260.82C319.722 261.783 318.941 262.564 317.978 262.564C317.015 262.564 316.234 261.783 316.234 260.82C316.234 259.857 317.015 259.076 317.978 259.076C318.941 259.076 319.722 259.857 319.722 260.82Z" fill="white"/>
<path d="M319.722 265.803C319.722 266.766 318.941 267.547 317.978 267.547C317.015 267.547 316.234 266.766 316.234 265.803C316.234 264.84 317.015 264.059 317.978 264.059C318.941 264.059 319.722 264.84 319.722 265.803Z" fill="white"/>
<path d="M319.722 270.786C319.722 271.749 318.941 272.53 317.978 272.53C317.015 272.53 316.234 271.749 316.234 270.786C316.234 269.823 317.015 269.042 317.978 269.042C318.941 269.042 319.722 269.823 319.722 270.786Z" fill="white"/>
<path d="M208.758 298.833H173.758V333.833H208.758V298.833Z" fill="#ECACFB"/>
<path d="M184.706 309.789C183.88 307.85 184.295 305.711 185.567 304.203C184.75 304.149 183.911 304.259 183.106 304.601C180.362 305.769 179.084 308.941 180.252 311.685C181.42 314.429 184.592 315.707 187.336 314.539C188.141 314.196 188.801 313.668 189.329 313.041C187.36 312.912 185.531 311.728 184.706 309.789Z" fill="white"/>
<path d="M199.069 323.962C199.069 322.625 197.985 321.541 196.648 321.541C197.985 321.541 199.069 320.457 199.069 319.12C199.069 320.457 200.153 321.541 201.49 321.541C200.153 321.541 199.069 322.625 199.069 323.962Z" fill="white"/>
<path d="M196.18 311.078C196.18 309.741 195.096 308.657 193.759 308.657C195.096 308.657 196.18 307.573 196.18 306.236C196.18 307.573 197.264 308.657 198.601 308.657C197.264 308.657 196.18 309.741 196.18 311.078Z" fill="white"/>
<path d="M187.904 327.944C187.904 326.607 186.82 325.523 185.483 325.523C186.82 325.523 187.904 324.439 187.904 323.102C187.904 324.439 188.988 325.523 190.325 325.523C188.987 325.523 187.904 326.607 187.904 327.944Z" fill="white"/>
<path d="M396.79 196.578L353.054 181.613C349.481 180.39 347.576 176.503 348.798 172.93L363.763 129.194C364.986 125.621 368.873 123.716 372.445 124.938L416.181 139.903C419.754 141.126 421.659 145.013 420.437 148.586L405.472 192.322C404.25 195.895 400.363 197.801 396.79 196.578Z" fill="#FFD77A"/>
<path d="M396.531 193.278L355.28 179.163C352.609 178.249 351.185 175.343 352.098 172.672L366.213 131.42C367.127 128.749 370.033 127.324 372.704 128.238L413.956 142.353C416.627 143.267 418.052 146.173 417.138 148.844L403.023 190.096C402.109 192.768 399.203 194.192 396.531 193.278Z" fill="#26346C"/>
<path d="M395.904 147.44C392.152 139.599 382.754 136.285 374.913 140.037C367.072 143.789 363.758 153.186 367.51 161.027C371.262 168.868 380.66 172.182 388.5 168.43C396.341 164.679 399.656 155.281 395.904 147.44ZM371.239 159.243C368.473 153.462 370.916 146.532 376.698 143.766C382.479 141 389.409 143.444 392.175 149.225C394.941 155.006 392.497 161.936 386.716 164.702C380.935 167.468 374.005 165.024 371.239 159.243Z" fill="#9C57FC"/>
<path d="M393.322 183.197L385.186 166.703L389.082 164.838L397.218 181.332C397.733 182.408 397.278 183.697 396.202 184.212C395.126 184.728 393.836 184.273 393.322 183.197Z" fill="#9C57FC"/>
<path d="M260.62 108.147H216.011C212.253 108.147 209.206 111.194 209.206 114.952V137.427C209.206 141.185 212.253 144.232 216.011 144.232H219.244L225.19 150.79C226.168 151.868 227.853 151.897 228.867 150.854L235.302 144.232H260.621C264.379 144.232 267.426 141.185 267.426 137.427V114.952C267.425 111.194 264.378 108.147 260.62 108.147Z" fill="#ECACFB"/>
<path d="M260.729 115.773H216.088V119.121H260.729V115.773Z" fill="white"/>
<path d="M260.729 123.213H216.088V126.561H260.729V123.213Z" fill="white"/>
<path d="M248.825 130.653H216.088V134.001H248.825V130.653Z" fill="white"/>
<path d="M86.677 210.147H131.286C135.044 210.147 138.091 213.194 138.091 216.952V239.427C138.091 243.185 135.044 246.232 131.286 246.232H128.053L122.107 252.79C121.129 253.868 119.444 253.898 118.43 252.854L111.995 246.232H86.677C82.919 246.232 79.872 243.185 79.872 239.427V216.952C79.872 213.194 82.919 210.147 86.677 210.147Z" fill="#5ACDFF"/>
<path d="M86.569 221.121H131.21V217.773H86.569V221.121Z" fill="white"/>
<path d="M86.569 228.562H131.21V225.214H86.569V228.562Z" fill="white"/>
<path d="M98.4723 236.002H131.209V232.654H98.4723V236.002Z" fill="white"/>
<path d="M152.397 77.27H197.006C200.764 77.27 203.811 80.317 203.811 84.075V106.55C203.811 110.308 200.764 113.355 197.006 113.355H193.773L187.827 119.913C186.849 120.991 185.164 121.02 184.15 119.977L177.715 113.355H152.396C148.638 113.355 145.591 110.308 145.591 106.55V84.075C145.592 80.317 148.639 77.27 152.397 77.27Z" fill="#FFD77A"/>
<path d="M197.115 84.896H152.474V88.244H197.115V84.896Z" fill="white"/>
<path d="M197.115 92.3359H152.474V95.6839H197.115V92.3359Z" fill="white"/>
<path d="M185.211 99.7771H152.474V103.125H185.211V99.7771Z" fill="white"/>
<path d="M275.71 248.78L271.446 280.7L275.84 281.054L286.733 250.253L275.71 248.78Z" fill="#FFD77A"/>
<path d="M307.743 318.388L272.45 334.377C269.462 335.731 265.942 334.406 264.588 331.417L248.599 296.124C247.245 293.136 248.57 289.616 251.559 288.262L286.852 272.273C289.84 270.919 293.36 272.244 294.714 275.233L310.703 310.526C312.057 313.514 310.732 317.034 307.743 318.388Z" fill="#26346C"/>
<path d="M285.863 315.664L268.823 309.38C264.466 307.773 262.237 302.939 263.844 298.582C265.451 294.225 270.285 291.996 274.642 293.602L275.904 294.067L276.369 292.805C277.976 288.448 282.81 286.219 287.167 287.825C291.524 289.432 293.753 294.266 292.147 298.623L285.863 315.664Z" fill="#D3345C"/>
<path d="M302.474 259.232L281.642 283.792L278.435 280.768L293.992 252.039L302.474 259.232Z" fill="#FFD77A"/>
<path d="M332.932 218.378L324.22 208.844L287.937 242.001L296.65 251.535L332.932 218.378Z" fill="#FFD77A"/>
<path d="M334.638 221.694C331.873 227.626 324.823 230.192 318.891 227.427C312.959 224.662 310.393 217.612 313.158 211.68C315.923 205.749 322.973 203.182 328.905 205.947C334.836 208.713 337.403 215.763 334.638 221.694Z" fill="#26346C"/>
<path d="M273.971 243.99C279.409 235.578 290.637 233.168 299.049 238.606C307.461 244.044 309.871 255.272 304.433 263.684C298.995 272.096 268.533 252.402 273.971 243.99Z" fill="#26346C"/>
<path d="M326.671 217.98C325.957 219.511 324.137 220.174 322.605 219.46C321.073 218.746 320.411 216.926 321.125 215.394C321.839 213.863 323.659 213.2 325.191 213.914C326.722 214.628 327.385 216.448 326.671 217.98Z" fill="white"/>
<path d="M415.536 269.687L423.423 252.769L336.418 212.209L328.532 229.127L415.536 269.687Z" fill="#26346C"/>
<path d="M322.946 232.388L335.312 205.864L341.798 208.888C343.83 209.835 344.709 212.25 343.762 214.282L334.827 233.449C333.88 235.481 331.465 236.36 329.433 235.413L322.946 232.388Z" fill="#FFD77A"/>
<path d="M431.798 272.806C423.897 281.296 410.609 281.774 402.119 273.873C393.629 265.972 393.151 252.684 401.052 244.194C408.953 235.704 422.241 235.226 430.731 243.127C439.222 251.028 439.699 264.316 431.798 272.806Z" fill="white"/>
<path d="M428.407 269.65C422.249 276.267 411.893 276.64 405.275 270.481C398.658 264.323 398.285 253.967 404.443 247.349C410.601 240.732 420.957 240.359 427.575 246.518C434.193 252.676 434.565 263.032 428.407 269.65Z" fill="#FFD77A"/>
<path d="M424.813 268.589C430.395 263.951 431.159 255.666 426.521 250.084C421.883 244.502 413.598 243.737 408.016 248.376C402.434 253.014 401.669 261.299 406.308 266.881C410.946 272.463 419.231 273.228 424.813 268.589Z" fill="#26346C"/>
<path d="M419.316 261.19C417.83 262.787 415.331 262.877 413.735 261.391C412.138 259.905 412.048 257.406 413.534 255.81C415.02 254.213 417.519 254.124 419.116 255.609C420.712 257.095 420.802 259.593 419.316 261.19Z" fill="white"/>
<path d="M162.887 193.169L183.081 209.544L185.174 206.666L168.542 186.195L162.887 193.169Z" fill="#D3345C"/>
<path d="M203.988 191.42L160.635 208.622L180.908 259.718L224.262 242.516L203.988 191.42Z" fill="white"/>
<path d="M201.416 196.839L166.222 210.803L178.515 241.787L213.709 227.823L201.416 196.839Z" fill="#FFD77A"/>
<mask id="mask1_64_7" style="mask-type:luminance" maskUnits="userSpaceOnUse" x="166" y="196" width="48" height="46">
<path d="M201.416 196.839L166.222 210.803L178.515 241.787L213.709 227.823L201.416 196.839Z" fill="white"/>
</mask>
<g mask="url(#mask1_64_7)">
<path d="M184.145 233.898C184.891 235.735 206.337 228.109 205.125 225.124C203.913 222.139 196.167 215.924 189.943 218.45C183.719 220.976 182.308 230.107 184.074 233.669" fill="white"/>
</g>
<mask id="mask2_64_7" style="mask-type:luminance" maskUnits="userSpaceOnUse" x="166" y="196" width="48" height="46">
<path d="M201.416 196.839L166.222 210.803L178.515 241.787L213.709 227.823L201.416 196.839Z" fill="white"/>
</mask>
<g mask="url(#mask2_64_7)">
<path d="M194.657 211.61C196.033 215 194.4 218.864 191.01 220.24C187.62 221.616 183.756 219.983 182.38 216.593C181.004 213.203 182.637 209.339 186.027 207.963C189.417 206.588 193.281 208.22 194.657 211.61Z" fill="white"/>
</g>
<path d="M208.398 232.457L179.172 244.053L180.017 246.182L209.243 234.586L208.398 232.457Z" fill="#C7D3E2"/>
<path d="M199.907 240.522L180.783 248.11L181.628 250.239L200.751 242.651L199.907 240.522Z" fill="#C7D3E2"/>
<path d="M182.56 180.88L190.71 205.569L187.276 206.505L174.035 183.694L182.56 180.88Z" fill="#D3345C"/>
<path d="M162.654 184.008L170.212 176.826L136.873 141.744L129.315 148.927L162.654 184.008Z" fill="#D3345C"/>
<path d="M128.806 146.728C124.727 153.71 127.081 162.678 134.063 166.757C141.045 170.836 150.013 168.482 154.092 161.5C158.171 154.518 155.817 145.55 148.835 141.471C141.852 137.392 132.885 139.746 128.806 146.728Z" fill="#26346C"/>
<path d="M183.225 176.82C177.654 170.958 168.387 170.722 162.525 176.292C156.663 181.862 156.427 191.13 161.997 196.992C167.568 202.854 188.796 182.682 183.225 176.82Z" fill="#26346C"/>
<path d="M138.185 152.207C137.132 154.01 137.74 156.325 139.542 157.378C141.345 158.431 143.66 157.824 144.713 156.021C145.766 154.218 145.158 151.903 143.356 150.85C141.553 149.796 139.238 150.404 138.185 152.207Z" fill="white"/>
<path d="M125.569 158.193L137.204 138.277L77.862 103.725L66.227 123.641L125.569 158.193Z" fill="#26346C"/>
<path d="M126.171 166.129L144.412 134.905L135.95 129.962C134.014 128.831 131.529 129.484 130.398 131.419L116.252 155.633C115.121 157.569 115.774 160.054 117.709 161.185L126.171 166.129Z" fill="#D3345C"/>
<path d="M0 171.555V206.282L78.173 117.408L60.892 102.131L0 171.555Z" fill="#26346C"/>
<path d="M70.8492 135.978C85.1532 135.098 96.0356 122.789 95.1557 108.485C94.2757 94.1809 81.9667 83.2985 67.6627 84.1785C53.3587 85.0584 42.4763 97.3674 43.3563 111.671C44.2362 125.975 56.5452 136.858 70.8492 135.978Z" fill="white"/>
<path d="M70.4978 130.264C81.646 129.578 90.1274 119.985 89.4416 108.836C88.7558 97.6882 79.1625 89.2067 68.0143 89.8925C56.8661 90.5783 48.3847 100.172 49.0705 111.32C49.7563 122.468 59.3496 130.949 70.4978 130.264Z" fill="#D3345C"/>
<path d="M69.26 126.315C78.2275 126.315 85.497 119.046 85.497 110.078C85.497 101.111 78.2275 93.8411 69.26 93.8411C60.2926 93.8411 53.023 101.111 53.023 110.078C53.023 119.046 60.2926 126.315 69.26 126.315Z" fill="#26346C"/>
<path d="M65.604 106.846C63.819 108.865 64.009 111.949 66.028 113.734C68.047 115.519 71.131 115.329 72.916 113.31C74.701 111.291 74.511 108.207 72.492 106.422C70.473 104.637 67.389 104.827 65.604 106.846Z" fill="white"/>
<path d="M12.983 151.038L35.51 170.953C36.618 171.932 38.31 171.828 39.289 170.72C40.268 169.612 40.164 167.92 39.056 166.941L16.53 147.026C15.422 146.047 13.73 146.151 12.751 147.258C11.771 148.366 11.875 150.058 12.983 151.038Z" fill="#26346C"/>
<path d="M6.70897 158.135L29.236 178.05C30.344 179.029 32.036 178.925 33.015 177.817C33.994 176.709 33.89 175.017 32.782 174.038L10.255 154.123C9.14697 153.144 7.45497 153.248 6.47597 154.355C5.49697 155.464 5.60097 157.156 6.70897 158.135Z" fill="#26346C"/>
<path d="M121.36 20V5.88H123.6L129.16 14.54H128.02L133.56 5.88H135.82V20H132.68V11.18L133.24 11.32L129.62 16.96H127.54L123.94 11.32L124.48 11.18V20H121.36ZM142.308 20.2C141.415 20.2 140.615 19.98 139.908 19.54C139.215 19.1 138.661 18.5 138.248 17.74C137.848 16.98 137.648 16.1133 137.648 15.14C137.648 14.1667 137.848 13.3 138.248 12.54C138.661 11.78 139.215 11.18 139.908 10.74C140.615 10.3 141.415 10.08 142.308 10.08C142.961 10.08 143.548 10.2067 144.068 10.46C144.601 10.7133 145.035 11.0667 145.368 11.52C145.701 11.96 145.888 12.4667 145.928 13.04V17.24C145.888 17.8133 145.701 18.3267 145.368 18.78C145.048 19.22 144.621 19.5667 144.088 19.82C143.555 20.0733 142.961 20.2 142.308 20.2ZM142.928 17.44C143.581 17.44 144.108 17.2267 144.508 16.8C144.908 16.36 145.108 15.8067 145.108 15.14C145.108 14.6867 145.015 14.2867 144.828 13.94C144.655 13.5933 144.401 13.3267 144.068 13.14C143.748 12.94 143.375 12.84 142.948 12.84C142.521 12.84 142.141 12.94 141.808 13.14C141.488 13.3267 141.228 13.5933 141.028 13.94C140.841 14.2867 140.748 14.6867 140.748 15.14C140.748 15.58 140.841 15.9733 141.028 16.32C141.215 16.6667 141.475 16.94 141.808 17.14C142.141 17.34 142.515 17.44 142.928 17.44ZM144.988 20V17.38L145.448 15.02L144.988 12.66V10.28H147.988V20H144.988ZM150.143 20V10.28H153.203V20H150.143ZM153.203 14.66L151.923 13.66C152.176 12.5267 152.603 11.6467 153.203 11.02C153.803 10.3933 154.636 10.08 155.703 10.08C156.169 10.08 156.576 10.1533 156.923 10.3C157.283 10.4333 157.596 10.6467 157.863 10.94L156.043 13.24C155.909 13.0933 155.743 12.98 155.543 12.9C155.343 12.82 155.116 12.78 154.863 12.78C154.356 12.78 153.949 12.94 153.643 13.26C153.349 13.5667 153.203 14.0333 153.203 14.66ZM164.898 20L161.498 14.96L164.878 10.28H168.298L164.218 15.54L164.318 14.28L168.498 20H164.898ZM158.678 20V5.48H161.738V20H158.678ZM173.966 20.22C172.913 20.22 171.973 20.0067 171.146 19.58C170.333 19.14 169.693 18.5333 169.226 17.76C168.759 16.9867 168.526 16.1133 168.526 15.14C168.526 14.1667 168.753 13.3 169.206 12.54C169.673 11.7667 170.299 11.16 171.086 10.72C171.873 10.28 172.759 10.06 173.746 10.06C174.706 10.06 175.553 10.2667 176.286 10.68C177.019 11.0933 177.593 11.6667 178.006 12.4C178.433 13.1333 178.646 13.9733 178.646 14.92C178.646 15.0933 178.633 15.28 178.606 15.48C178.593 15.6667 178.559 15.8867 178.506 16.14L170.126 16.16V14.06L177.206 14.04L175.886 14.92C175.873 14.36 175.786 13.9 175.626 13.54C175.466 13.1667 175.226 12.8867 174.906 12.7C174.599 12.5 174.219 12.4 173.766 12.4C173.286 12.4 172.866 12.5133 172.506 12.74C172.159 12.9533 171.886 13.26 171.686 13.66C171.499 14.06 171.406 14.5467 171.406 15.12C171.406 15.6933 171.506 16.1867 171.706 16.6C171.919 17 172.213 17.3133 172.586 17.54C172.973 17.7533 173.426 17.86 173.946 17.86C174.426 17.86 174.859 17.78 175.246 17.62C175.633 17.4467 175.973 17.1933 176.266 16.86L177.946 18.54C177.466 19.1 176.886 19.52 176.206 19.8C175.526 20.08 174.779 20.22 173.966 20.22ZM181.288 20V6.26H184.348V20H181.288ZM179.088 12.88V10.28H186.548V12.88H179.088ZM187.896 20V10.28H190.956V20H187.896ZM189.436 8.94C188.956 8.94 188.556 8.78 188.236 8.46C187.93 8.12667 187.776 7.72667 187.776 7.26C187.776 6.78 187.93 6.38 188.236 6.06C188.556 5.74 188.956 5.58 189.436 5.58C189.916 5.58 190.31 5.74 190.616 6.06C190.923 6.38 191.076 6.78 191.076 7.26C191.076 7.72667 190.923 8.12667 190.616 8.46C190.31 8.78 189.916 8.94 189.436 8.94ZM199.531 20V14.46C199.531 13.9533 199.371 13.5467 199.051 13.24C198.745 12.92 198.351 12.76 197.871 12.76C197.538 12.76 197.245 12.8333 196.991 12.98C196.738 13.1133 196.538 13.3133 196.391 13.58C196.245 13.8333 196.171 14.1267 196.171 14.46L194.991 13.88C194.991 13.12 195.158 12.4533 195.491 11.88C195.825 11.3067 196.285 10.8667 196.871 10.56C197.471 10.24 198.145 10.08 198.891 10.08C199.611 10.08 200.245 10.2533 200.791 10.6C201.351 10.9333 201.791 11.38 202.111 11.94C202.431 12.5 202.591 13.1133 202.591 13.78V20H199.531ZM193.111 20V10.28H196.171V20H193.111ZM208.677 24.36C207.61 24.36 206.67 24.1733 205.857 23.8C205.057 23.44 204.423 22.9267 203.957 22.26L205.837 20.38C206.183 20.7933 206.57 21.1067 206.997 21.32C207.437 21.5333 207.963 21.64 208.577 21.64C209.337 21.64 209.93 21.4533 210.357 21.08C210.797 20.7067 211.017 20.18 211.017 19.5V17.02L211.537 14.9L211.077 12.78V10.28H214.077V19.42C214.077 20.42 213.843 21.2867 213.377 22.02C212.91 22.7533 212.27 23.3267 211.457 23.74C210.643 24.1533 209.717 24.36 208.677 24.36ZM208.537 19.7C207.643 19.7 206.85 19.4867 206.157 19.06C205.463 18.6333 204.917 18.0533 204.517 17.32C204.117 16.5867 203.917 15.7733 203.917 14.88C203.917 13.9733 204.117 13.16 204.517 12.44C204.917 11.7067 205.463 11.1333 206.157 10.72C206.85 10.2933 207.643 10.08 208.537 10.08C209.203 10.08 209.797 10.2067 210.317 10.46C210.85 10.7 211.277 11.0467 211.597 11.5C211.93 11.94 212.117 12.4533 212.157 13.04V16.74C212.117 17.3133 211.93 17.8267 211.597 18.28C211.277 18.72 210.85 19.0667 210.317 19.32C209.783 19.5733 209.19 19.7 208.537 19.7ZM209.117 16.98C209.543 16.98 209.91 16.8867 210.217 16.7C210.537 16.5133 210.777 16.2667 210.937 15.96C211.11 15.64 211.197 15.28 211.197 14.88C211.197 14.48 211.11 14.12 210.937 13.8C210.777 13.48 210.537 13.2267 210.217 13.04C209.91 12.8533 209.543 12.76 209.117 12.76C208.703 12.76 208.337 12.8533 208.017 13.04C207.697 13.2267 207.45 13.48 207.277 13.8C207.103 14.12 207.017 14.48 207.017 14.88C207.017 15.2533 207.103 15.6067 207.277 15.94C207.45 16.26 207.69 16.5133 207.997 16.7C208.317 16.8867 208.69 16.98 209.117 16.98ZM218.698 20L224.298 5.88H227.138L232.678 20H229.358L225.118 8.28H226.258L221.958 20H218.698ZM221.878 17.44V14.88H229.578V17.44H221.878ZM238.017 20.22C237.124 20.22 236.331 20.04 235.637 19.68C234.957 19.3067 234.424 18.8 234.037 18.16C233.651 17.5067 233.457 16.76 233.457 15.92V10.28H236.517V15.88C236.517 16.2133 236.571 16.5 236.677 16.74C236.797 16.98 236.971 17.1667 237.197 17.3C237.424 17.4333 237.697 17.5 238.017 17.5C238.471 17.5 238.831 17.36 239.097 17.08C239.364 16.7867 239.497 16.3867 239.497 15.88V10.28H242.557V15.9C242.557 16.7533 242.364 17.5067 241.977 18.16C241.591 18.8 241.057 19.3067 240.377 19.68C239.697 20.04 238.911 20.22 238.017 20.22ZM245.858 20V6.26H248.918V20H245.858ZM243.658 12.88V10.28H251.118V12.88H243.658ZM256.951 20.22C255.951 20.22 255.045 20 254.231 19.56C253.431 19.1067 252.798 18.4933 252.331 17.72C251.865 16.9467 251.631 16.08 251.631 15.12C251.631 14.16 251.865 13.3 252.331 12.54C252.798 11.78 253.431 11.18 254.231 10.74C255.031 10.2867 255.938 10.06 256.951 10.06C257.965 10.06 258.871 10.28 259.671 10.72C260.471 11.16 261.105 11.7667 261.571 12.54C262.038 13.3 262.271 14.16 262.271 15.12C262.271 16.08 262.038 16.9467 261.571 17.72C261.105 18.4933 260.471 19.1067 259.671 19.56C258.871 20 257.965 20.22 256.951 20.22ZM256.951 17.44C257.391 17.44 257.778 17.3467 258.111 17.16C258.445 16.96 258.698 16.6867 258.871 16.34C259.058 15.98 259.151 15.5733 259.151 15.12C259.151 14.6667 259.058 14.2733 258.871 13.94C258.685 13.5933 258.425 13.3267 258.091 13.14C257.771 12.94 257.391 12.84 256.951 12.84C256.525 12.84 256.145 12.94 255.811 13.14C255.478 13.3267 255.218 13.5933 255.031 13.94C254.845 14.2867 254.751 14.6867 254.751 15.14C254.751 15.58 254.845 15.98 255.031 16.34C255.218 16.6867 255.478 16.96 255.811 17.16C256.145 17.3467 256.525 17.44 256.951 17.44ZM263.795 20V10.28H266.855V20H263.795ZM270.015 20V14.32C270.015 13.8267 269.862 13.4467 269.555 13.18C269.262 12.9 268.895 12.76 268.455 12.76C268.148 12.76 267.875 12.8267 267.635 12.96C267.395 13.08 267.202 13.2533 267.055 13.48C266.922 13.7067 266.855 13.9867 266.855 14.32L265.675 13.8C265.675 13.0267 265.842 12.3667 266.175 11.82C266.508 11.26 266.962 10.8333 267.535 10.54C268.108 10.2333 268.755 10.08 269.475 10.08C270.155 10.08 270.762 10.2333 271.295 10.54C271.842 10.8467 272.275 11.2733 272.595 11.82C272.915 12.3667 273.075 13.02 273.075 13.78V20H270.015ZM276.235 20V14.32C276.235 13.8267 276.082 13.4467 275.775 13.18C275.482 12.9 275.115 12.76 274.675 12.76C274.368 12.76 274.095 12.8267 273.855 12.96C273.615 13.08 273.422 13.2533 273.275 13.48C273.142 13.7067 273.075 13.9867 273.075 14.32L271.315 14.08C271.342 13.2533 271.535 12.5467 271.895 11.96C272.268 11.36 272.755 10.9 273.355 10.58C273.968 10.2467 274.655 10.08 275.415 10.08C276.162 10.08 276.822 10.24 277.395 10.56C277.982 10.8667 278.442 11.3133 278.775 11.9C279.122 12.4733 279.295 13.1667 279.295 13.98V20H276.235ZM285.316 20.2C284.422 20.2 283.622 19.98 282.916 19.54C282.222 19.1 281.669 18.5 281.256 17.74C280.856 16.98 280.656 16.1133 280.656 15.14C280.656 14.1667 280.856 13.3 281.256 12.54C281.669 11.78 282.222 11.18 282.916 10.74C283.622 10.3 284.422 10.08 285.316 10.08C285.969 10.08 286.556 10.2067 287.076 10.46C287.609 10.7133 288.042 11.0667 288.376 11.52C288.709 11.96 288.896 12.4667 288.936 13.04V17.24C288.896 17.8133 288.709 18.3267 288.376 18.78C288.056 19.22 287.629 19.5667 287.096 19.82C286.562 20.0733 285.969 20.2 285.316 20.2ZM285.936 17.44C286.589 17.44 287.116 17.2267 287.516 16.8C287.916 16.36 288.116 15.8067 288.116 15.14C288.116 14.6867 288.022 14.2867 287.836 13.94C287.662 13.5933 287.409 13.3267 287.076 13.14C286.756 12.94 286.382 12.84 285.956 12.84C285.529 12.84 285.149 12.94 284.816 13.14C284.496 13.3267 284.236 13.5933 284.036 13.94C283.849 14.2867 283.756 14.6867 283.756 15.14C283.756 15.58 283.849 15.9733 284.036 16.32C284.222 16.6667 284.482 16.94 284.816 17.14C285.149 17.34 285.522 17.44 285.936 17.44ZM287.996 20V17.38L288.456 15.02L287.996 12.66V10.28H290.996V20H287.996ZM294.53 20V6.26H297.59V20H294.53ZM292.33 12.88V10.28H299.79V12.88H292.33ZM301.139 20V10.28H304.199V20H301.139ZM302.679 8.94C302.199 8.94 301.799 8.78 301.479 8.46C301.172 8.12667 301.019 7.72667 301.019 7.26C301.019 6.78 301.172 6.38 301.479 6.06C301.799 5.74 302.199 5.58 302.679 5.58C303.159 5.58 303.552 5.74 303.859 6.06C304.165 6.38 304.319 6.78 304.319 7.26C304.319 7.72667 304.165 8.12667 303.859 8.46C303.552 8.78 303.159 8.94 302.679 8.94ZM311.033 20.22C310.033 20.22 309.127 20 308.313 19.56C307.513 19.1067 306.88 18.4933 306.413 17.72C305.947 16.9467 305.713 16.08 305.713 15.12C305.713 14.16 305.947 13.3 306.413 12.54C306.88 11.78 307.513 11.18 308.313 10.74C309.113 10.2867 310.02 10.06 311.033 10.06C312.047 10.06 312.953 10.28 313.753 10.72C314.553 11.16 315.187 11.7667 315.653 12.54C316.12 13.3 316.353 14.16 316.353 15.12C316.353 16.08 316.12 16.9467 315.653 17.72C315.187 18.4933 314.553 19.1067 313.753 19.56C312.953 20 312.047 20.22 311.033 20.22ZM311.033 17.44C311.473 17.44 311.86 17.3467 312.193 17.16C312.527 16.96 312.78 16.6867 312.953 16.34C313.14 15.98 313.233 15.5733 313.233 15.12C313.233 14.6667 313.14 14.2733 312.953 13.94C312.767 13.5933 312.507 13.3267 312.173 13.14C311.853 12.94 311.473 12.84 311.033 12.84C310.607 12.84 310.227 12.94 309.893 13.14C309.56 13.3267 309.3 13.5933 309.113 13.94C308.927 14.2867 308.833 14.6867 308.833 15.14C308.833 15.58 308.927 15.98 309.113 16.34C309.3 16.6867 309.56 16.96 309.893 17.16C310.227 17.3467 310.607 17.44 311.033 17.44ZM324.297 20V14.46C324.297 13.9533 324.137 13.5467 323.817 13.24C323.51 12.92 323.117 12.76 322.637 12.76C322.304 12.76 322.01 12.8333 321.757 12.98C321.504 13.1133 321.304 13.3133 321.157 13.58C321.01 13.8333 320.937 14.1267 320.937 14.46L319.757 13.88C319.757 13.12 319.924 12.4533 320.257 11.88C320.59 11.3067 321.05 10.8667 321.637 10.56C322.237 10.24 322.91 10.08 323.657 10.08C324.377 10.08 325.01 10.2533 325.557 10.6C326.117 10.9333 326.557 11.38 326.877 11.94C327.197 12.5 327.357 13.1133 327.357 13.78V20H324.297ZM317.877 20V10.28H320.937V20H317.877Z" fill="black"/>
<defs>
<linearGradient id="paint0_linear_64_7" x1="250" y1="347.833" x2="250" y2="380.833" gradientUnits="userSpaceOnUse">
<stop stop-color="#26344B"/>
<stop offset="1" stop-color="#29344F" stop-opacity="0"/>
</linearGradient>
</defs>
</svg>
