<?xml version="1.0" encoding="UTF-8"?>
<!DOCTYPE svg PUBLIC "-//W3C//DTD SVG 1.1//EN" "http://www.w3.org/Graphics/SVG/1.1/DTD/svg11.dtd">
<svg xmlns="http://www.w3.org/2000/svg" version="1.1" width="512px" height="512px" style="shape-rendering:geometricPrecision; text-rendering:geometricPrecision; image-rendering:optimizeQuality; fill-rule:evenodd; clip-rule:evenodd" xmlns:xlink="http://www.w3.org/1999/xlink">
<g><path style="opacity:0.997" fill="#e60888" d="M 233.5,-0.5 C 248.167,-0.5 262.833,-0.5 277.5,-0.5C 377.81,11.9875 449.31,63.9875 492,155.5C 502.142,181.067 508.642,207.401 511.5,234.5C 511.5,248.5 511.5,262.5 511.5,276.5C 501.175,367.954 456.175,436.454 376.5,482C 344.935,498.248 311.601,508.082 276.5,511.5C 262.167,511.5 247.833,511.5 233.5,511.5C 133.19,499.013 61.6905,447.013 19,355.5C 8.86452,330.623 2.36452,304.957 -0.5,278.5C -0.5,263.167 -0.5,247.833 -0.5,232.5C 9.30698,148.242 49.6403,83.0754 120.5,37C 155.421,15.9708 193.087,3.47075 233.5,-0.5 Z"/></g>
<g><path style="opacity:1" fill="#fefafc" d="M 410.5,85.5 C 410.5,100.833 410.5,116.167 410.5,131.5C 412.5,131.5 414.5,131.5 416.5,131.5C 432.612,136.726 437.779,147.393 432,163.5C 427.083,171.425 419.917,175.092 410.5,174.5C 410.667,190.17 410.5,205.837 410,221.5C 403.618,231.225 396.285,231.892 388,223.5C 386.95,219.696 386.116,215.863 385.5,212C 367.923,198.714 348.257,190.048 326.5,186C 321.511,185.501 316.511,185.334 311.5,185.5C 309.314,205.755 308.147,226.088 308,246.5C 305.579,256.751 299.079,262.084 288.5,262.5C 278.964,261.65 272.798,256.65 270,247.5C 269.872,231.831 269.872,216.164 270,200.5C 268.122,195.013 266.956,189.347 266.5,183.5C 258.409,179.236 253.576,172.569 252,163.5C 251.333,155.833 251.333,148.167 252,140.5C 254.833,129.667 261.667,122.833 272.5,120C 289.343,119.283 306.176,119.45 323,120.5C 347.381,119.823 368.381,111.156 386,94.5C 384.422,81.7602 389.922,75.9269 402.5,77C 406.748,78.4129 409.415,81.2462 410.5,85.5 Z"/></g>
<g><path style="opacity:1" fill="#e82a8f" d="M 396.5,85.5 C 398.722,85.178 400.556,85.8446 402,87.5C 402.667,131.167 402.667,174.833 402,218.5C 400.267,220.602 398.267,220.935 396,219.5C 395.172,174.762 395.339,130.096 396.5,85.5 Z"/></g>
<g><path style="opacity:1" fill="#f48fc9" d="M 410.5,85.5 C 411.496,100.324 411.829,115.324 411.5,130.5C 413.415,130.216 415.081,130.549 416.5,131.5C 414.5,131.5 412.5,131.5 410.5,131.5C 410.5,116.167 410.5,100.833 410.5,85.5 Z"/></g>
<g><path style="opacity:1" fill="#fefbfd" d="M 172.5,91.5 C 197.634,91.0532 211.967,103.22 215.5,128C 215.386,131.289 214.719,134.456 213.5,137.5C 218.074,144.241 217.241,150.241 211,155.5C 208.598,169.488 201.764,180.655 190.5,189C 192.388,191.19 194.555,193.023 197,194.5C 197.627,198.846 198.794,203.012 200.5,207C 211.544,209.844 222.544,212.844 233.5,216C 243.002,220.17 248.836,227.337 251,237.5C 251.5,246.827 251.666,256.161 251.5,265.5C 258.026,265.178 262.86,267.845 266,273.5C 267.101,279.589 267.601,285.755 267.5,292C 267.333,297.167 267.167,302.333 267,307.5C 265.333,313.167 261.667,316.833 256,318.5C 255.667,356.5 255.333,394.5 255,432.5C 254.5,433 254,433.5 253.5,434C 198.833,434.667 144.167,434.667 89.5,434C 89,433.5 88.5,433 88,432.5C 87.5,394.168 87.3333,355.835 87.5,317.5C 82.3534,316.527 78.8534,313.527 77,308.5C 76.3333,297.5 76.3333,286.5 77,275.5C 80.0494,268.222 85.5494,264.888 93.5,265.5C 94.0428,253.816 94.8761,242.15 96,230.5C 98.4912,221.342 104.325,215.509 113.5,213C 124.907,211.155 136.241,208.988 147.5,206.5C 149,202.833 150.5,199.167 152,195.5C 155.795,193.547 157.795,190.547 158,186.5C 149.236,178.31 143.569,168.31 141,156.5C 135.958,153.082 133.624,148.415 134,142.5C 134.748,140.668 135.748,139.001 137,137.5C 137.333,129.833 137.667,122.167 138,114.5C 140.208,103.973 146.708,98.4734 157.5,98C 162.367,95.2259 167.367,93.0593 172.5,91.5 Z"/></g>
<g><path style="opacity:1" fill="#e7208d" d="M 172.5,100.5 C 189.436,99.209 200.603,106.542 206,122.5C 206.667,125.167 206.667,127.833 206,130.5C 199.359,115.105 187.859,109.771 171.5,114.5C 166.26,112.862 160.927,112.362 155.5,113C 151.725,114.442 148.892,116.942 147,120.5C 145.985,111.182 150.152,106.682 159.5,107C 163.647,104.26 167.98,102.093 172.5,100.5 Z"/></g>
<g><path style="opacity:1" fill="#e6168a" d="M 384.5,107.5 C 385.833,138.5 385.833,169.5 384.5,200.5C 364.495,186.164 342.161,178.164 317.5,176.5C 317.5,160.833 317.5,145.167 317.5,129.5C 342.531,130.001 364.864,122.667 384.5,107.5 Z"/></g>
<g><path style="opacity:1" fill="#ef60b2" d="M 384.5,107.5 C 384.56,106.957 384.893,106.624 385.5,106.5C 386.833,138.167 386.833,169.833 385.5,201.5C 384.893,201.376 384.56,201.043 384.5,200.5C 385.833,169.5 385.833,138.5 384.5,107.5 Z"/></g>
<g><path style="opacity:1" fill="#e60e89" d="M 157.5,121.5 C 162.206,121.843 166.873,122.509 171.5,123.5C 180.63,119.546 188.463,121.212 195,128.5C 197.336,135.685 201.503,141.518 207.5,146C 205.65,147.526 204.15,149.359 203,151.5C 200.915,161.106 196.915,169.773 191,177.5C 182.77,184.4 173.937,185.233 164.5,180C 155.638,172.114 150.138,162.28 148,150.5C 146.167,148.667 144.333,146.833 142.5,145C 146.043,142.158 149.21,138.991 152,135.5C 152.988,132.576 153.654,129.576 154,126.5C 154.697,124.416 155.864,122.749 157.5,121.5 Z"/></g>
<g><path style="opacity:1" fill="#e61089" d="M 273.5,128.5 C 285.167,128.5 296.833,128.5 308.5,128.5C 308.5,144.5 308.5,160.5 308.5,176.5C 296.495,176.667 284.495,176.5 272.5,176C 266.693,174.193 262.859,170.36 261,164.5C 260.333,156.833 260.333,149.167 261,141.5C 263.353,135.315 267.52,130.982 273.5,128.5 Z"/></g>
<g><path style="opacity:1" fill="#fef8fb" d="M 327.5,135.5 C 330.325,135.081 332.491,136.081 334,138.5C 334.667,147.833 334.667,157.167 334,166.5C 331.284,170.476 328.617,170.476 326,166.5C 325.333,156.833 325.333,147.167 326,137.5C 326.717,136.956 327.217,136.289 327.5,135.5 Z"/></g>
<g><path style="opacity:1" fill="#fefbfd" d="M 342.5,135.5 C 344.722,135.178 346.556,135.845 348,137.5C 348.667,147.5 348.667,157.5 348,167.5C 345.667,170.167 343.333,170.167 341,167.5C 340.333,157.5 340.333,147.5 341,137.5C 341.717,136.956 342.217,136.289 342.5,135.5 Z"/></g>
<g><path style="opacity:1" fill="#f38dc8" d="M 415.5,140.5 C 414.167,140.5 412.833,140.5 411.5,140.5C 411.5,148.833 411.5,157.167 411.5,165.5C 410.507,157.016 410.174,148.349 410.5,139.5C 412.415,139.216 414.081,139.549 415.5,140.5 Z"/></g>
<g><path style="opacity:1" fill="#e6138a" d="M 415.5,140.5 C 424.325,142.804 427.492,148.471 425,157.5C 422.392,163.261 417.892,165.927 411.5,165.5C 411.5,157.167 411.5,148.833 411.5,140.5C 412.833,140.5 414.167,140.5 415.5,140.5 Z"/></g>
<g><path style="opacity:1" fill="#e71f8d" d="M 275.5,185.5 C 284.5,185.5 293.5,185.5 302.5,185.5C 302.809,197.859 296.809,203.026 284.5,201C 277.967,197.951 274.967,192.784 275.5,185.5 Z"/></g>
<g><path style="opacity:1" fill="#e71e8c" d="M 166.5,191.5 C 171.822,192.029 177.156,192.529 182.5,193C 183.687,194.019 184.687,195.186 185.5,196.5C 182.126,200.876 178.126,204.542 173.5,207.5C 169.46,204.806 165.793,201.639 162.5,198C 164.232,196.028 165.565,193.861 166.5,191.5 Z"/></g>
<g><path style="opacity:1" fill="#e82d92" d="M 157.5,205.5 C 160.631,208.129 163.631,210.962 166.5,214C 163.984,216.683 161.317,219.183 158.5,221.5C 154.555,216.158 154.222,210.824 157.5,205.5 Z"/></g>
<g><path style="opacity:1" fill="#e7238e" d="M 188.5,205.5 C 189.376,205.369 190.043,205.702 190.5,206.5C 191.167,208.167 191.833,209.833 192.5,211.5C 191.089,214.91 189.589,218.243 188,221.5C 185.651,218.983 183.151,216.65 180.5,214.5C 183.189,211.48 185.856,208.48 188.5,205.5 Z"/></g>
<g><path style="opacity:1" fill="#e6198b" d="M 299.5,207.5 C 300.165,210.482 300.498,213.648 300.5,217C 299.983,226.832 299.483,236.666 299,246.5C 296.318,252.257 291.818,254.424 285.5,253C 282.667,251.5 280.5,249.333 279,246.5C 278.152,233.795 278.485,221.129 280,208.5C 284.64,210.438 289.473,210.938 294.5,210C 296.491,209.626 298.158,208.793 299.5,207.5 Z"/></g>
<g><path style="opacity:1" fill="#e61089" d="M 142.5,216.5 C 144.288,216.215 145.955,216.548 147.5,217.5C 149.235,222.538 151.068,227.538 153,232.5C 155.064,233.591 157.231,233.758 159.5,233C 163.72,228.277 168.387,224.11 173.5,220.5C 178.351,225.185 183.351,229.685 188.5,234C 189.833,234.667 191.167,234.667 192.5,234C 195.343,228.118 198.176,222.285 201,216.5C 210.522,218.922 220.022,221.422 229.5,224C 235.828,226.482 239.994,230.982 242,237.5C 242.5,246.827 242.666,256.161 242.5,265.5C 235.833,265.5 229.167,265.5 222.5,265.5C 222.666,256.827 222.5,248.16 222,239.5C 219.633,236.068 216.966,235.735 214,238.5C 213.5,247.494 213.334,256.494 213.5,265.5C 186.5,265.5 159.5,265.5 132.5,265.5C 132.666,256.827 132.5,248.16 132,239.5C 129.333,235.5 126.667,235.5 124,239.5C 123.5,248.16 123.334,256.827 123.5,265.5C 116.5,265.5 109.5,265.5 102.5,265.5C 102.712,255.821 103.212,246.155 104,236.5C 104.049,229.557 107.215,224.724 113.5,222C 123.342,220.363 133.009,218.529 142.5,216.5 Z"/></g>
<g><path style="opacity:1" fill="#e60c89" d="M 87.5,274.5 C 143.501,274.333 199.501,274.5 255.5,275C 256.333,275.833 257.167,276.667 258,277.5C 258.667,287.167 258.667,296.833 258,306.5C 257.167,307.333 256.333,308.167 255.5,309C 199.5,309.667 143.5,309.667 87.5,309C 87,308.5 86.5,308 86,307.5C 85.3333,297.167 85.3333,286.833 86,276.5C 86.7172,275.956 87.2172,275.289 87.5,274.5 Z"/></g>
<g><path style="opacity:1" fill="#e60e88" d="M 96.5,318.5 C 146.833,318.5 197.167,318.5 247.5,318.5C 247.5,354.167 247.5,389.833 247.5,425.5C 197.167,425.5 146.833,425.5 96.5,425.5C 96.5,389.833 96.5,354.167 96.5,318.5 Z"/></g>
<g><path style="opacity:1" fill="#fef8fb" d="M 130.5,356.5 C 158.169,356.333 185.835,356.5 213.5,357C 217.065,359.178 217.399,361.844 214.5,365C 186.167,365.667 157.833,365.667 129.5,365C 128.041,361.929 128.374,359.096 130.5,356.5 Z"/></g>
<g><path style="opacity:1" fill="#fef6fa" d="M 128.5,378.5 C 156.835,378.333 185.169,378.5 213.5,379C 216.25,382.012 215.917,384.679 212.5,387C 184.833,387.667 157.167,387.667 129.5,387C 125.986,384.468 125.653,381.635 128.5,378.5 Z"/></g>
</svg>
