<?xml version="1.0" encoding="UTF-8"?>
<!DOCTYPE svg PUBLIC "-//W3C//DTD SVG 1.1//EN" "http://www.w3.org/Graphics/SVG/1.1/DTD/svg11.dtd">
<svg xmlns="http://www.w3.org/2000/svg" version="1.1" width="512px" height="512px" style="shape-rendering:geometricPrecision; text-rendering:geometricPrecision; image-rendering:optimizeQuality; fill-rule:evenodd; clip-rule:evenodd" xmlns:xlink="http://www.w3.org/1999/xlink">
<g><path style="opacity:0.995" fill="#837683" d="M 89.5,14.5 C 130.339,21.5053 154.506,45.5053 162,86.5C 163.181,105.775 159.014,123.775 149.5,140.5C 138.051,115.266 118.384,102.932 90.5,103.5C 61.6993,108.302 44.3659,124.968 38.5,153.5C 14.2576,127.795 8.09094,98.1286 20,64.5C 33.787,34.8905 56.9537,18.2239 89.5,14.5 Z"/></g>
<g><path style="opacity:0.996" fill="#837683" d="M 409.5,14.5 C 440.33,19.4789 462.496,36.1456 476,64.5C 483.661,85.9717 483.327,107.305 475,128.5C 473.311,132.56 471.144,136.227 468.5,139.5C 457.13,114.809 437.797,102.809 410.5,103.5C 381.692,108.309 364.359,124.976 358.5,153.5C 338.596,133.62 330.763,109.62 335,81.5C 344.206,41.7944 369.039,19.461 409.5,14.5 Z"/></g>
<g><path style="opacity:1" fill="#685e68" d="M 89.5,14.5 C 125.295,13.3088 151.795,28.3088 169,59.5C 182.516,91.3547 178.849,121.021 158,148.5C 156.296,150.373 154.463,152.04 152.5,153.5C 151.349,149.228 150.349,144.894 149.5,140.5C 159.014,123.775 163.181,105.775 162,86.5C 154.506,45.5053 130.339,21.5053 89.5,14.5 Z"/></g>
<g><path style="opacity:1" fill="#695e69" d="M 409.5,14.5 C 447.783,13.3213 474.949,29.988 491,64.5C 502.016,94.9529 497.683,122.953 478,148.5C 475.963,150.706 473.797,152.706 471.5,154.5C 471.538,149.284 470.538,144.284 468.5,139.5C 471.144,136.227 473.311,132.56 475,128.5C 483.327,107.305 483.661,85.9717 476,64.5C 462.496,36.1456 440.33,19.4789 409.5,14.5 Z"/></g>
<g><path style="opacity:1" fill="#f5dbcc" d="M 92.5,42.5 C 111.278,47.1465 119.111,59.1465 116,78.5C 112.282,90.054 104.449,96.7207 92.5,98.5C 76.2031,96.034 67.8698,86.534 67.5,70C 68.3323,54.0015 76.6656,44.8349 92.5,42.5 Z"/></g>
<g><path style="opacity:1" fill="#eec9bb" d="M 92.5,42.5 C 104.616,41.3057 114.116,45.9723 121,56.5C 128.138,75.3877 122.638,89.2211 104.5,98C 100.372,99.3932 96.3724,99.5599 92.5,98.5C 104.449,96.7207 112.282,90.054 116,78.5C 119.111,59.1465 111.278,47.1465 92.5,42.5 Z"/></g>
<g><path style="opacity:1" fill="#f5dbcc" d="M 412.5,42.5 C 427.47,45.7322 435.47,55.0655 436.5,70.5C 435.731,87.2661 427.065,96.5994 410.5,98.5C 391.793,93.0995 384.293,80.7661 388,61.5C 392.291,50.0294 400.458,43.696 412.5,42.5 Z"/></g>
<g><path style="opacity:1" fill="#edc9bb" d="M 412.5,42.5 C 431.127,41.9365 441.794,51.1032 444.5,70C 441.933,90.4271 430.6,99.9271 410.5,98.5C 427.065,96.5994 435.731,87.2661 436.5,70.5C 435.47,55.0655 427.47,45.7322 412.5,42.5 Z"/></g>
<g><path style="opacity:1" fill="#62b6fc" d="M 90.5,103.5 C 118.384,102.932 138.051,115.266 149.5,140.5C 150.349,144.894 151.349,149.228 152.5,153.5C 149.279,157.776 145.279,161.109 140.5,163.5C 139.351,163.209 138.684,162.376 138.5,161C 137.013,146.869 132.18,134.036 124,122.5C 114.906,112.373 103.739,106.04 90.5,103.5 Z"/></g>
<g><path style="opacity:1" fill="#61b6fc" d="M 410.5,103.5 C 437.797,102.809 457.13,114.809 468.5,139.5C 470.538,144.284 471.538,149.284 471.5,154.5C 468.071,158.262 464.071,161.262 459.5,163.5C 457.653,148.137 452.153,134.137 443,121.5C 434.064,111.951 423.231,105.951 410.5,103.5 Z"/></g>
<g><path style="opacity:1" fill="#89c8fc" d="M 90.5,103.5 C 103.739,106.04 114.906,112.373 124,122.5C 132.18,134.036 137.013,146.869 138.5,161C 138.684,162.376 139.351,163.209 140.5,163.5C 111.559,181.367 82.2253,181.867 52.5,165C 47.353,161.68 42.6864,157.847 38.5,153.5C 44.3659,124.968 61.6993,108.302 90.5,103.5 Z"/></g>
<g><path style="opacity:1" fill="#89c7fc" d="M 410.5,103.5 C 423.231,105.951 434.064,111.951 443,121.5C 452.153,134.137 457.653,148.137 459.5,163.5C 454.29,167.941 448.29,171.107 441.5,173C 415.092,180.873 390.426,177.207 367.5,162C 364,159.666 361,156.832 358.5,153.5C 364.359,124.976 381.692,108.309 410.5,103.5 Z"/></g>
<g><path style="opacity:0.995" fill="#837683" d="M 244.5,117.5 C 311.407,126.232 352.574,163.566 368,229.5C 374.769,294.473 349.603,342.306 292.5,373C 276.756,379.979 260.423,384.146 243.5,385.5C 185.022,381.511 144.522,352.511 122,298.5C 105.953,249.111 113.953,204.111 146,163.5C 172.288,134.274 205.122,118.941 244.5,117.5 Z"/></g>
<g><path style="opacity:1" fill="#695f69" d="M 359.5,327.5 C 356.484,330.52 353.817,333.854 351.5,337.5C 346.195,343.14 340.861,348.807 335.5,354.5C 308.784,376.405 278.118,386.739 243.5,385.5C 260.423,384.146 276.756,379.979 292.5,373C 349.603,342.306 374.769,294.473 368,229.5C 352.574,163.566 311.407,126.232 244.5,117.5C 303.588,117.632 346.088,144.299 372,197.5C 387.333,233.498 387.333,269.498 372,305.5C 368.565,313.384 364.398,320.717 359.5,327.5 Z"/></g>
<g><path style="opacity:1" fill="#d0d0d5" d="M 256.5,149.5 C 211.968,153.189 181.468,175.855 165,217.5C 151.857,264.062 163.69,302.895 200.5,334C 218.022,347.007 237.688,353.507 259.5,353.5C 212.381,356.52 177.548,337.186 155,295.5C 136.104,247.972 145.27,206.805 182.5,172C 204.171,154.273 228.838,146.773 256.5,149.5 Z"/></g>
<g><path style="opacity:1" fill="#ebeef0" d="M 256.5,149.5 C 307.019,155.848 338.186,183.848 350,233.5C 355.615,280.094 338.782,315.928 299.5,341C 286.945,347.685 273.612,351.852 259.5,353.5C 237.688,353.507 218.022,347.007 200.5,334C 163.69,302.895 151.857,264.062 165,217.5C 181.468,175.855 211.968,153.189 256.5,149.5 Z"/></g>
<g><path style="opacity:1" fill="#8ac9fd" d="M 250.5,187.5 C 251.122,188.627 251.955,189.627 253,190.5C 253.667,223.833 253.667,257.167 253,290.5C 252.626,291.416 252.126,292.25 251.5,293C 254.146,293.497 256.813,293.664 259.5,293.5C 252.345,294.655 245.012,294.822 237.5,294C 235.667,293.5 234.5,292.333 234,290.5C 233.333,257.167 233.333,223.833 234,190.5C 234.833,189.667 235.667,188.833 236.5,188C 241.155,187.501 245.821,187.334 250.5,187.5 Z"/></g>
<g><path style="opacity:1" fill="#62b7fe" d="M 250.5,187.5 C 253.85,187.335 257.183,187.502 260.5,188C 261.333,188.833 262.167,189.667 263,190.5C 263.667,223.833 263.667,257.167 263,290.5C 262.578,292.426 261.411,293.426 259.5,293.5C 256.813,293.664 254.146,293.497 251.5,293C 252.126,292.25 252.626,291.416 253,290.5C 253.667,257.167 253.667,223.833 253,190.5C 251.955,189.627 251.122,188.627 250.5,187.5 Z"/></g>
<g><path style="opacity:1" fill="#6cf4c2" d="M 307.5,207.5 C 308.122,208.627 308.955,209.627 310,210.5C 310.667,237.5 310.667,264.5 310,291.5C 309.5,292 309,292.5 308.5,293C 310.473,293.495 312.473,293.662 314.5,293.5C 313.551,294.152 312.385,294.486 311,294.5C 304.184,293.805 297.35,293.305 290.5,293C 290,292.5 289.5,292 289,291.5C 288.333,264.5 288.333,237.5 289,210.5C 289.833,209.667 290.667,208.833 291.5,208C 296.823,207.501 302.156,207.334 307.5,207.5 Z"/></g>
<g><path style="opacity:1" fill="#19e59d" d="M 307.5,207.5 C 311.603,206.769 315.103,207.769 318,210.5C 318.667,237.167 318.667,263.833 318,290.5C 317.578,292.426 316.411,293.426 314.5,293.5C 312.473,293.662 310.473,293.495 308.5,293C 309,292.5 309.5,292 310,291.5C 310.667,264.5 310.667,237.5 310,210.5C 308.955,209.627 308.122,208.627 307.5,207.5 Z"/></g>
<g><path style="opacity:1" fill="#fee178" d="M 198.5,237.5 C 198.783,238.289 199.283,238.956 200,239.5C 200.667,256.833 200.667,274.167 200,291.5C 199.5,292 199,292.5 198.5,293C 200.473,293.495 202.473,293.662 204.5,293.5C 203.551,294.152 202.385,294.486 201,294.5C 194.184,293.805 187.35,293.305 180.5,293C 179.874,292.25 179.374,291.416 179,290.5C 178.333,273.833 178.333,257.167 179,240.5C 179.833,239.667 180.667,238.833 181.5,238C 187.157,237.501 192.824,237.334 198.5,237.5 Z"/></g>
<g><path style="opacity:1" fill="#fed166" d="M 198.5,237.5 C 202.007,236.994 205.174,237.66 208,239.5C 208.667,256.833 208.667,274.167 208,291.5C 207.184,292.823 206.017,293.489 204.5,293.5C 202.473,293.662 200.473,293.495 198.5,293C 199,292.5 199.5,292 200,291.5C 200.667,274.167 200.667,256.833 200,239.5C 199.283,238.956 198.783,238.289 198.5,237.5 Z"/></g>
<g><path style="opacity:0.998" fill="#847683" d="M 359.5,327.5 C 372.531,341.531 386.198,354.865 400.5,367.5C 398.57,371.1 395.903,374.1 392.5,376.5C 379.368,363.869 366.368,351.035 353.5,338C 352.906,337.536 352.239,337.369 351.5,337.5C 353.817,333.854 356.484,330.52 359.5,327.5 Z"/></g>
<g><path style="opacity:0.996" fill="#837683" d="M 90.5,334.5 C 130.811,341.978 154.645,365.978 162,406.5C 162.827,415.934 162.16,425.267 160,434.5C 157.317,443.527 153.817,452.194 149.5,460.5C 138.11,434.461 118.11,422.127 89.5,423.5C 61.2522,428.748 44.2522,445.415 38.5,473.5C 14.2576,447.795 8.09094,418.129 20,384.5C 33.8117,354.177 57.3117,337.51 90.5,334.5 Z"/></g>
<g><path style="opacity:1" fill="#685e68" d="M 152.5,473.5 C 151.349,469.228 150.349,464.894 149.5,460.5C 153.817,452.194 157.317,443.527 160,434.5C 162.16,425.267 162.827,415.934 162,406.5C 154.645,365.978 130.811,341.978 90.5,334.5C 126.774,333.556 153.274,349.223 170,381.5C 182.369,412.831 178.369,441.831 158,468.5C 156.296,470.373 154.463,472.04 152.5,473.5 Z"/></g>
<g><path style="opacity:0.984" fill="#a69aa6" d="M 351.5,337.5 C 352.239,337.369 352.906,337.536 353.5,338C 366.368,351.035 379.368,363.869 392.5,376.5C 389.502,379.667 386.669,383 384,386.5C 381.564,389.447 378.731,391.78 375.5,393.5C 362.193,380.527 348.86,367.527 335.5,354.5C 340.861,348.807 346.195,343.14 351.5,337.5 Z"/></g>
<g><path style="opacity:1" fill="#f5dbcc" d="M 91.5,362.5 C 107.553,364.889 115.886,374.222 116.5,390.5C 115.928,406.74 107.595,416.073 91.5,418.5C 76.2037,415.704 68.2037,406.537 67.5,391C 67.7568,374.914 75.7568,365.414 91.5,362.5 Z"/></g>
<g><path style="opacity:1" fill="#edc9bb" d="M 91.5,362.5 C 104.269,360.463 114.103,365.13 121,376.5C 127.08,390.431 124.58,402.598 113.5,413C 106.765,418.018 99.4315,419.851 91.5,418.5C 107.595,416.073 115.928,406.74 116.5,390.5C 115.886,374.222 107.553,364.889 91.5,362.5 Z"/></g>
<g><path style="opacity:1" fill="#e3a870" d="M 452.5,486.5 C 462.131,476.368 471.964,466.368 482,456.5C 487.055,449.556 486.555,443.056 480.5,437C 454.997,413.33 429.997,389.163 405.5,364.5C 410.03,362.941 414.363,363.441 418.5,366C 433.833,380.667 449.167,395.333 464.5,410C 475.363,420.529 485.863,431.363 496,442.5C 497.53,448.619 496.197,453.952 492,458.5C 482.833,467.667 473.667,476.833 464.5,486C 460.51,487.67 456.51,487.836 452.5,486.5 Z"/></g>
<g><path style="opacity:0.994" fill="#f0b984" d="M 405.5,364.5 C 429.997,389.163 454.997,413.33 480.5,437C 486.555,443.056 487.055,449.556 482,456.5C 471.964,466.368 462.131,476.368 452.5,486.5C 425.899,462.069 399.733,437.069 374,411.5C 370.387,405.087 370.887,399.087 375.5,393.5C 378.731,391.78 381.564,389.447 384,386.5C 386.669,383 389.502,379.667 392.5,376.5C 395.903,374.1 398.57,371.1 400.5,367.5C 402.001,366.248 403.668,365.248 405.5,364.5 Z"/></g>
<g><path style="opacity:1" fill="#61b6fc" d="M 89.5,423.5 C 118.11,422.127 138.11,434.461 149.5,460.5C 150.349,464.894 151.349,469.228 152.5,473.5C 151.375,475.129 150.041,476.629 148.5,478C 145.778,480.358 142.778,482.191 139.5,483.5C 137.573,469.228 132.74,455.895 125,443.5C 115.515,432.511 103.681,425.845 89.5,423.5 Z"/></g>
<g><path style="opacity:1" fill="#89c8fc" d="M 89.5,423.5 C 103.681,425.845 115.515,432.511 125,443.5C 132.74,455.895 137.573,469.228 139.5,483.5C 122.592,494.852 103.926,499.018 83.5,496C 65.9794,493.24 50.9794,485.74 38.5,473.5C 44.2522,445.415 61.2522,428.748 89.5,423.5 Z"/></g>
</svg>
