<?xml version="1.0" encoding="UTF-8"?>
<!DOCTYPE svg PUBLIC "-//W3C//DTD SVG 1.1//EN" "http://www.w3.org/Graphics/SVG/1.1/DTD/svg11.dtd">
<svg xmlns="http://www.w3.org/2000/svg" version="1.1" width="512px" height="512px" style="shape-rendering:geometricPrecision; text-rendering:geometricPrecision; image-rendering:optimizeQuality; fill-rule:evenodd; clip-rule:evenodd" xmlns:xlink="http://www.w3.org/1999/xlink">
<g><path style="opacity:0.986" fill="#010101" d="M 113.5,7.5 C 208.167,7.33334 302.834,7.5 397.5,8C 399.049,9.21398 400.215,10.714 401,12.5C 401.5,25.1623 401.667,37.8289 401.5,50.5C 424.544,50.0526 447.544,50.5526 470.5,52C 491.412,58.9211 502.579,73.4211 504,95.5C 504.167,137.833 504.333,180.167 504.5,222.5C 504.64,268.187 504.14,313.853 503,359.5C 498.167,377.667 486.667,389.167 468.5,394C 425.527,395.456 382.527,395.956 339.5,395.5C 339.5,409.167 339.5,422.833 339.5,436.5C 357.17,436.333 374.836,436.5 392.5,437C 408.939,438.794 420.106,447.294 426,462.5C 427.492,473.794 427.826,485.128 427,496.5C 426.55,498.519 425.717,500.352 424.5,502C 368.248,503.163 311.915,503.663 255.5,503.5C 199.085,503.663 142.752,503.163 86.5,502C 85.283,500.352 84.4497,498.519 84,496.5C 83.3333,487.167 83.3333,477.833 84,468.5C 87.7026,449.694 99.2026,439.194 118.5,437C 136.164,436.5 153.83,436.333 171.5,436.5C 171.5,422.833 171.5,409.167 171.5,395.5C 128.473,395.956 85.4731,395.456 42.5,394C 24.3333,389.167 12.8333,377.667 8,359.5C 7.00993,267.123 7.34326,174.79 9,82.5C 13.905,66.5955 24.405,56.4288 40.5,52C 63.4556,50.5526 86.4556,50.0526 109.5,50.5C 109.333,37.8289 109.5,25.1623 110,12.5C 110.997,10.6769 112.164,9.01027 113.5,7.5 Z"/></g>
<g><path style="opacity:1" fill="#89c8fd" d="M 126.5,23.5 C 209.833,23.5 293.167,23.5 376.5,23.5C 376.5,82.1667 376.5,140.833 376.5,199.5C 362.829,199.333 349.163,199.5 335.5,200C 328.805,202.191 324.805,206.691 323.5,213.5C 322.502,244.662 322.168,275.996 322.5,307.5C 284.5,307.5 246.5,307.5 208.5,307.5C 208.831,283.328 208.498,259.328 207.5,235.5C 205.498,227.147 200.165,222.481 191.5,221.5C 170.006,220.503 148.34,220.169 126.5,220.5C 126.5,154.833 126.5,89.1667 126.5,23.5 Z"/></g>
<g><path style="opacity:1" fill="#5aadf1" d="M 376.5,23.5 C 379.5,23.5 382.5,23.5 385.5,23.5C 385.5,82.1667 385.5,140.833 385.5,199.5C 382.5,199.5 379.5,199.5 376.5,199.5C 376.5,140.833 376.5,82.1667 376.5,23.5 Z"/></g>
<g><path style="opacity:1" fill="#030303" d="M 254.5,32.5 C 263.311,30.9348 270.477,33.6014 276,40.5C 281.996,51.8296 288.496,62.8296 295.5,73.5C 315.945,70.7819 327.612,79.6152 330.5,100C 330.385,108.018 327.718,115.018 322.5,121C 328.65,131.823 334.817,142.657 341,153.5C 343.814,165.374 339.648,173.54 328.5,178C 309.5,178.333 290.5,178.667 271.5,179C 262.668,179.805 254.001,181.472 245.5,184C 244.465,185.507 244.632,187.007 246,188.5C 255.16,203.323 263.66,218.49 271.5,234C 270.688,238.15 268.354,241.15 264.5,243C 250.505,250.567 238.005,248.733 227,237.5C 220.333,226.167 213.667,214.833 207,203.5C 183.487,216.203 163.82,211.87 148,190.5C 138.043,172.307 139.71,155.307 153,139.5C 165.58,130.456 178.746,122.29 192.5,115C 204.894,102.687 215.728,89.1874 225,74.5C 232,62.5 239,50.5 246,38.5C 248.637,36.109 251.47,34.109 254.5,32.5 Z"/></g>
<g><path style="opacity:1" fill="#040607" d="M 314.5,32.5 C 321.253,30.7717 325.253,33.2717 326.5,40C 324.745,46.187 322.911,52.3537 321,58.5C 317.547,61.7694 313.714,62.2694 309.5,60C 307.556,58.278 306.556,56.1113 306.5,53.5C 307.995,47.8393 309.495,42.1726 311,36.5C 312.376,35.2949 313.542,33.9616 314.5,32.5 Z"/></g>
<g><path style="opacity:1" fill="#f7616b" d="M 258.5,48.5 C 260.981,48.3234 262.814,49.3234 264,51.5C 284.833,87.8333 305.667,124.167 326.5,160.5C 326.291,161.086 325.957,161.586 325.5,162C 321.459,162.827 317.459,162.66 313.5,161.5C 293.5,126.833 273.5,92.1667 253.5,57.5C 254.925,54.3116 256.592,51.3116 258.5,48.5 Z"/></g>
<g><path style="opacity:1" fill="#040607" d="M 353.5,61.5 C 361.696,61.529 364.863,65.529 363,73.5C 358.035,77.7896 352.535,81.2896 346.5,84C 340.371,85.4393 336.704,83.1059 335.5,77C 335.625,75.3732 336.125,73.8732 337,72.5C 342.307,68.4378 347.807,64.7711 353.5,61.5 Z"/></g>
<g><path style="opacity:1" fill="#878889" d="M 47.5,67.5 C 68.3267,66.5027 89.3267,66.1694 110.5,66.5C 110.821,71.6946 110.487,76.6946 109.5,81.5C 109.5,76.8333 109.5,72.1667 109.5,67.5C 88.8333,67.5 68.1667,67.5 47.5,67.5 Z"/></g>
<g><path style="opacity:1" fill="#87888a" d="M 462.5,67.5 C 442.167,67.5 421.833,67.5 401.5,67.5C 401.5,72.1667 401.5,76.8333 401.5,81.5C 400.513,76.6946 400.179,71.6946 400.5,66.5C 421.34,66.1695 442.007,66.5028 462.5,67.5 Z"/></g>
<g><path style="opacity:1" fill="#ebeef0" d="M 47.5,67.5 C 68.1667,67.5 88.8333,67.5 109.5,67.5C 109.5,72.1667 109.5,76.8333 109.5,81.5C 89.1639,81.3334 68.8306,81.5 48.5,82C 44.2116,83.5637 41.045,86.3971 39,90.5C 38.006,170.248 38.3393,249.915 40,329.5C 40.9025,330.701 42.0692,331.535 43.5,332C 184.5,332.667 325.5,332.667 466.5,332C 468.329,331.727 469.829,330.893 471,329.5C 472.661,249.915 472.994,170.248 472,90.5C 469.778,86.6119 466.612,83.7786 462.5,82C 442.169,81.5 421.836,81.3334 401.5,81.5C 401.5,76.8333 401.5,72.1667 401.5,67.5C 421.833,67.5 442.167,67.5 462.5,67.5C 474.129,69.1355 481.795,75.4688 485.5,86.5C 485.667,173.167 485.5,259.834 485,346.5C 480.816,363.685 469.983,373.518 452.5,376C 315.834,376.5 179.167,376.667 42.5,376.5C 32.9377,373.088 26.771,366.422 24,356.5C 23.3333,267.5 23.3333,178.5 24,89.5C 27.5131,77.4851 35.3464,70.1518 47.5,67.5 Z"/></g>
<g><path style="opacity:1" fill="#fdde75" d="M 294.5,160.5 C 291.167,161.167 287.833,161.833 284.5,162.5C 268.047,162.556 252.047,165.223 236.5,170.5C 227.082,155.332 217.915,139.999 209,124.5C 208.333,123.5 208.333,122.5 209,121.5C 222.6,106.902 234.267,90.9015 244,73.5C 260.845,102.527 277.678,131.527 294.5,160.5 Z"/></g>
<g><path style="opacity:1" fill="#d0d0d4" d="M 485.5,86.5 C 486.268,87.2625 486.768,88.2625 487,89.5C 487.667,178.167 487.667,266.833 487,355.5C 484.268,367.232 477.101,374.732 465.5,378C 325.5,378.667 185.5,378.667 45.5,378C 44.2625,377.768 43.2625,377.268 42.5,376.5C 179.167,376.667 315.834,376.5 452.5,376C 469.983,373.518 480.816,363.685 485,346.5C 485.5,259.834 485.667,173.167 485.5,86.5 Z"/></g>
<g><path style="opacity:1" fill="#778799" d="M 303.5,89.5 C 307.505,88.8916 310.671,90.5582 313,94.5C 314.656,97.7533 314.823,101.087 313.5,104.5C 310.141,99.4822 306.807,94.4822 303.5,89.5 Z"/></g>
<g><path style="opacity:1" fill="#d7ecfd" d="M 54.5,98.5 C 72.8333,98.5 91.1667,98.5 109.5,98.5C 109.5,139.167 109.5,179.833 109.5,220.5C 91.1667,220.5 72.8333,220.5 54.5,220.5C 54.5,179.833 54.5,139.167 54.5,98.5 Z"/></g>
<g><path style="opacity:1" fill="#7e8a94" d="M 54.5,98.5 C 72.9925,97.5031 91.6592,97.1698 110.5,97.5C 110.5,138.833 110.5,180.167 110.5,221.5C 91.6592,221.83 72.9925,221.497 54.5,220.5C 72.8333,220.5 91.1667,220.5 109.5,220.5C 109.5,179.833 109.5,139.167 109.5,98.5C 91.1667,98.5 72.8333,98.5 54.5,98.5 Z"/></g>
<g><path style="opacity:1" fill="#bcd8f2" d="M 444.5,199.5 C 444.5,165.833 444.5,132.167 444.5,98.5C 430.167,98.5 415.833,98.5 401.5,98.5C 401.5,132.167 401.5,165.833 401.5,199.5C 400.502,165.671 400.168,131.671 400.5,97.5C 419.167,97.5 437.833,97.5 456.5,97.5C 456.5,131.5 456.5,165.5 456.5,199.5C 452.5,199.5 448.5,199.5 444.5,199.5 Z"/></g>
<g><path style="opacity:1" fill="#d7ecfd" d="M 444.5,199.5 C 430.167,199.5 415.833,199.5 401.5,199.5C 401.5,165.833 401.5,132.167 401.5,98.5C 415.833,98.5 430.167,98.5 444.5,98.5C 444.5,132.167 444.5,165.833 444.5,199.5 Z"/></g>
<g><path style="opacity:1" fill="#05070a" d="M 344.5,105.5 C 352.079,106.562 359.413,108.562 366.5,111.5C 371.193,118.796 369.193,123.463 360.5,125.5C 354.298,124.284 348.298,122.45 342.5,120C 338.119,114.454 338.786,109.62 344.5,105.5 Z"/></g>
<g><path style="opacity:1" fill="#ed4451" d="M 195.5,133.5 C 186.399,139.559 177.066,145.392 167.5,151C 164.544,153.783 161.877,156.616 159.5,159.5C 161.132,154.422 164.132,150.255 168.5,147C 177.415,141.959 186.249,136.793 195,131.5C 195.464,132.094 195.631,132.761 195.5,133.5 Z"/></g>
<g><path style="opacity:1" fill="#fb626d" d="M 195.5,133.5 C 204.303,147.83 212.97,162.33 221.5,177C 212.167,182.333 202.833,187.667 193.5,193C 179.81,197.104 168.976,193.271 161,181.5C 157.105,174.26 156.605,166.926 159.5,159.5C 161.877,156.616 164.544,153.783 167.5,151C 177.066,145.392 186.399,139.559 195.5,133.5 Z"/></g>
<g><path style="opacity:1" fill="#8e7e42" d="M 294.5,160.5 C 295.043,160.56 295.376,160.893 295.5,161.5C 291.893,162.489 288.226,162.823 284.5,162.5C 287.833,161.833 291.167,161.167 294.5,160.5 Z"/></g>
<g><path style="opacity:1" fill="#7c8d9f" d="M 227.5,191.5 C 229.017,191.511 230.184,192.177 231,193.5C 238.167,206 245.333,218.5 252.5,231C 247.848,232.193 243.681,231.36 240,228.5C 234.033,217.704 227.866,207.037 221.5,196.5C 223.519,194.81 225.519,193.144 227.5,191.5 Z"/></g>
<g><path style="opacity:1" fill="#f9626c" d="M 456.5,216.5 C 455.5,216.5 454.5,216.5 453.5,216.5C 453.5,249.833 453.5,283.167 453.5,316.5C 415.167,316.5 376.833,316.5 338.5,316.5C 338.171,282.927 338.504,249.427 339.5,216C 378.669,215.169 417.669,215.335 456.5,216.5 Z"/></g>
<g><path style="opacity:1" fill="#fd4956" d="M 456.5,216.5 C 456.5,249.833 456.5,283.167 456.5,316.5C 455.5,316.5 454.5,316.5 453.5,316.5C 453.5,283.167 453.5,249.833 453.5,216.5C 454.5,216.5 455.5,216.5 456.5,216.5 Z"/></g>
<g><path style="opacity:1" fill="#577ea0" d="M 126.5,23.5 C 126.5,89.1667 126.5,154.833 126.5,220.5C 148.34,220.169 170.006,220.503 191.5,221.5C 169.5,221.5 147.5,221.5 125.5,221.5C 125.168,155.331 125.501,89.3312 126.5,23.5 Z"/></g>
<g><path style="opacity:1" fill="#030101" d="M 378.5,226.5 C 382.813,226.548 386.813,227.715 390.5,230C 405.337,238.919 420.337,247.586 435.5,256C 442.304,263.264 441.971,270.264 434.5,277C 419.337,285.414 404.337,294.081 389.5,303C 381.019,307.659 374.519,305.825 370,297.5C 369.333,276.5 369.333,255.5 370,234.5C 372.074,230.923 374.907,228.256 378.5,226.5 Z"/></g>
<g><path style="opacity:1" fill="#44340f" d="M 173.5,238.5 C 139.833,237.167 106.167,237.167 72.5,238.5C 71.9569,238.44 71.6236,238.107 71.5,237.5C 105.833,236.167 140.167,236.167 174.5,237.5C 174.376,238.107 174.043,238.44 173.5,238.5 Z"/></g>
<g><path style="opacity:1" fill="#fcc137" d="M 72.5,238.5 C 106.167,237.167 139.833,237.167 173.5,238.5C 156.784,250.613 139.951,262.613 123,274.5C 106.288,262.281 89.4543,250.281 72.5,238.5 Z"/></g>
<g><path style="opacity:1" fill="#262211" d="M 54.5,245.5 C 54.1695,266.007 54.5028,286.34 55.5,306.5C 55.44,307.043 55.1067,307.376 54.5,307.5C 53.1719,286.671 53.1719,266.004 54.5,245.5 Z"/></g>
<g><path style="opacity:1" fill="#876f37" d="M 190.5,306.5 C 191.497,286.34 191.83,266.007 191.5,245.5C 192.178,254.925 192.512,265.091 192.5,276C 192.167,286.5 191.833,297 191.5,307.5C 190.893,307.376 190.56,307.043 190.5,306.5 Z"/></g>
<g><path style="opacity:1" fill="#fcde75" d="M 54.5,245.5 C 68.3799,254.375 81.7132,264.042 94.5,274.5C 81.6928,285.403 68.6928,296.07 55.5,306.5C 54.5028,286.34 54.1695,266.007 54.5,245.5 Z"/></g>
<g><path style="opacity:1" fill="#fcde75" d="M 191.5,245.5 C 191.83,266.007 191.497,286.34 190.5,306.5C 177.398,295.908 164.398,285.074 151.5,274C 164.687,264.245 178.02,254.745 191.5,245.5 Z"/></g>
<g><path style="opacity:1" fill="#5b5c5d" d="M 386.5,246.5 C 385.504,259.656 385.171,272.99 385.5,286.5C 384.174,272.994 384.174,259.328 385.5,245.5C 386.107,245.624 386.44,245.957 386.5,246.5 Z"/></g>
<g><path style="opacity:1" fill="#e7eaec" d="M 386.5,246.5 C 397.969,252.735 409.302,259.235 420.5,266C 408.946,273.06 397.279,279.894 385.5,286.5C 385.171,272.99 385.504,259.656 386.5,246.5 Z"/></g>
<g><path style="opacity:1" fill="#fbcd62" d="M 107.5,284.5 C 112.709,287.022 117.876,289.688 123,292.5C 127.972,290.865 132.472,288.365 136.5,285C 137.5,284.333 138.5,284.333 139.5,285C 151.876,295.712 164.543,306.045 177.5,316C 141.5,316.667 105.5,316.667 69.5,316C 82.0648,305.259 94.7315,294.759 107.5,284.5 Z"/></g>
<g><path style="opacity:1" fill="#5da9ea" d="M 323.5,213.5 C 323.5,247.833 323.5,282.167 323.5,316.5C 284.833,316.5 246.167,316.5 207.5,316.5C 207.5,289.5 207.5,262.5 207.5,235.5C 208.498,259.328 208.831,283.328 208.5,307.5C 246.5,307.5 284.5,307.5 322.5,307.5C 322.168,275.996 322.502,244.662 323.5,213.5 Z"/></g>
<g><path style="opacity:1" fill="#756c75" d="M 188.5,394.5 C 188.5,408.5 188.5,422.5 188.5,436.5C 232.167,436.5 275.833,436.5 319.5,436.5C 319.5,422.5 319.5,408.5 319.5,394.5C 320.5,394.5 321.5,394.5 322.5,394.5C 322.5,408.833 322.5,423.167 322.5,437.5C 277.5,437.5 232.5,437.5 187.5,437.5C 187.171,422.99 187.504,408.657 188.5,394.5 Z"/></g>
<g><path style="opacity:1" fill="#a69aa6" d="M 188.5,394.5 C 232.167,394.5 275.833,394.5 319.5,394.5C 319.5,408.5 319.5,422.5 319.5,436.5C 275.833,436.5 232.167,436.5 188.5,436.5C 188.5,422.5 188.5,408.5 188.5,394.5 Z"/></g>
<g><path style="opacity:1" fill="#ebeef0" d="M 408.5,464.5 C 408.5,471.5 408.5,478.5 408.5,485.5C 305.833,485.5 203.167,485.5 100.5,485.5C 96.2511,469.827 101.584,459.327 116.5,454C 209.167,453.333 301.833,453.333 394.5,454C 400.921,455.356 405.588,458.856 408.5,464.5 Z"/></g>
<g><path style="opacity:1" fill="#d0d0d5" d="M 408.5,464.5 C 409.222,464.918 409.722,465.584 410,466.5C 410.5,473.492 410.666,480.492 410.5,487.5C 306.828,488.164 203.495,487.498 100.5,485.5C 203.167,485.5 305.833,485.5 408.5,485.5C 408.5,478.5 408.5,471.5 408.5,464.5 Z"/></g>
</svg>
