<?xml version="1.0" encoding="UTF-8"?>
<!DOCTYPE svg PUBLIC "-//W3C//DTD SVG 1.1//EN" "http://www.w3.org/Graphics/SVG/1.1/DTD/svg11.dtd">
<svg xmlns="http://www.w3.org/2000/svg" version="1.1" width="826px" height="826px" style="shape-rendering:geometricPrecision; text-rendering:geometricPrecision; image-rendering:optimizeQuality; fill-rule:evenodd; clip-rule:evenodd" xmlns:xlink="http://www.w3.org/1999/xlink">
<g><path style="opacity:1" fill="#fefefe" d="M -0.5,-0.5 C 274.833,-0.5 550.167,-0.5 825.5,-0.5C 825.5,274.833 825.5,550.167 825.5,825.5C 550.167,825.5 274.833,825.5 -0.5,825.5C -0.5,550.167 -0.5,274.833 -0.5,-0.5 Z"/></g>
<g><path style="opacity:1" fill="#ee94aa" d="M 577.5,186.5 C 572.384,187.806 567.051,188.473 561.5,188.5C 566.598,187.043 571.931,186.376 577.5,186.5 Z"/></g>
<g><path style="opacity:1" fill="#ea90a4" d="M 559.5,188.5 C 554.415,190.143 549.082,191.143 543.5,191.5C 548.547,189.694 553.88,188.694 559.5,188.5 Z"/></g>
<g><path style="opacity:1" fill="#fc5b7e" d="M 587.5,191.5 C 585.626,195.575 583.46,199.575 581,203.5C 577.709,213.202 574.209,222.868 570.5,232.5C 566.737,235.479 565.07,239.479 565.5,244.5C 562.449,248.614 560.449,253.28 559.5,258.5C 557.907,259.348 556.74,260.681 556,262.5C 555.599,265.699 554.766,268.699 553.5,271.5C 552.167,271.5 550.833,271.5 549.5,271.5C 545.067,266.703 540.733,261.703 536.5,256.5C 531.628,251.916 526.628,247.583 521.5,243.5C 486.44,271.715 451.773,300.548 417.5,330C 416.167,330.667 414.833,330.667 413.5,330C 410.194,326.694 406.86,323.36 403.5,320C 402.207,319.51 400.873,319.343 399.5,319.5C 399.649,318.448 399.483,317.448 399,316.5C 383.026,303.026 367.526,289.026 352.5,274.5C 351.614,273.675 351.281,272.675 351.5,271.5C 348.482,271.335 345.482,271.502 342.5,272C 337.921,275.444 333.255,278.61 328.5,281.5C 325.622,282.37 322.955,283.703 320.5,285.5C 319.702,285.957 319.369,286.624 319.5,287.5C 318.448,287.351 317.448,287.517 316.5,288C 312.843,290.658 309.509,293.658 306.5,297C 279.834,313.522 253.501,330.855 227.5,349C 226.056,349.781 224.723,349.614 223.5,348.5C 218.725,341.26 213.725,334.26 208.5,327.5C 206.952,324.742 207.285,322.242 209.5,320C 253.209,289.607 296.875,259.274 340.5,229C 342.39,227.888 344.39,227.054 346.5,226.5C 349.615,228.439 352.615,230.606 355.5,233C 375.644,250.976 395.644,269.142 415.5,287.5C 415.5,288.833 415.5,290.167 415.5,291.5C 417.199,291.34 418.866,291.506 420.5,292C 419.167,292.667 419.167,293.333 420.5,294C 415.944,295.481 414.277,298.648 415.5,303.5C 417.167,303.5 418.833,303.5 420.5,303.5C 420.5,302.167 420.5,300.833 420.5,299.5C 421.833,299.5 423.167,299.5 424.5,299.5C 424.5,298.167 424.5,296.833 424.5,295.5C 426.199,295.66 427.866,295.494 429.5,295C 435.988,290.535 440.488,284.701 443,277.5C 444.509,276.91 446.009,276.244 447.5,275.5C 446.529,274.038 446.862,272.705 448.5,271.5C 451.511,272.684 454.178,272.018 456.5,269.5C 455.329,267.831 453.996,266.331 452.5,265C 453.506,261.969 455.506,260.635 458.5,261C 460,262.5 461.5,264 463,265.5C 464.042,262.196 462.875,260.029 459.5,259C 460.951,259.263 462.284,259.096 463.5,258.5C 462.388,257.735 461.721,256.735 461.5,255.5C 467.814,250.19 474.147,244.856 480.5,239.5C 482.167,238.833 483.833,238.167 485.5,237.5C 487.044,237.297 488.378,236.63 489.5,235.5C 490.623,237.289 491.956,237.622 493.5,236.5C 495.086,234.827 495.753,232.827 495.5,230.5C 497.467,230.739 499.301,230.406 501,229.5C 501.236,227.236 501.736,225.069 502.5,223C 502.043,222.586 501.709,222.086 501.5,221.5C 507.414,217.427 512.914,212.761 518,207.5C 517.056,201.654 519.222,199.654 524.5,201.5C 527.807,200.412 531.14,199.412 534.5,198.5C 532.234,197.686 529.9,197.186 527.5,197C 527.043,196.586 526.709,196.086 526.5,195.5C 531.115,194.657 535.448,193.323 539.5,191.5C 540.833,191.5 542.167,191.5 543.5,191.5C 549.082,191.143 554.415,190.143 559.5,188.5C 560.167,188.5 560.833,188.5 561.5,188.5C 567.051,188.473 572.384,187.806 577.5,186.5C 580.962,185.518 584.629,185.185 588.5,185.5C 588.483,187.565 588.15,189.565 587.5,191.5 Z"/></g>
<g><path style="opacity:1" fill="#e3748d" d="M 487.5,198.5 C 482.919,200.327 477.919,201.327 472.5,201.5C 472.5,202.5 472.5,203.5 472.5,204.5C 471.185,203.524 469.852,202.524 468.5,201.5C 474.693,199.595 481.026,198.595 487.5,198.5 Z"/></g>
<g><path style="opacity:1" fill="#fa6183" d="M 539.5,191.5 C 535.448,193.323 531.115,194.657 526.5,195.5C 526.709,196.086 527.043,196.586 527.5,197C 529.9,197.186 532.234,197.686 534.5,198.5C 531.14,199.412 527.807,200.412 524.5,201.5C 519.222,199.654 517.056,201.654 518,207.5C 512.914,212.761 507.414,217.427 501.5,221.5C 501.709,222.086 502.043,222.586 502.5,223C 501.736,225.069 501.236,227.236 501,229.5C 499.301,230.406 497.467,230.739 495.5,230.5C 495.753,232.827 495.086,234.827 493.5,236.5C 491.956,237.622 490.623,237.289 489.5,235.5C 488.378,236.63 487.044,237.297 485.5,237.5C 488.5,234.833 491.5,232.167 494.5,229.5C 495.449,228.077 496.449,226.577 497.5,225C 493.793,221.491 490.126,217.991 486.5,214.5C 483.137,211.478 479.47,208.812 475.5,206.5C 474.29,206.068 473.29,205.401 472.5,204.5C 472.5,203.5 472.5,202.5 472.5,201.5C 477.919,201.327 482.919,200.327 487.5,198.5C 504.671,195.886 522.004,193.552 539.5,191.5 Z"/></g>
<g><path style="opacity:1" fill="#bd6f82" d="M 475.5,206.5 C 479.47,208.812 483.137,211.478 486.5,214.5C 482.609,212.789 478.942,210.789 475.5,208.5C 475.5,207.833 475.5,207.167 475.5,206.5 Z"/></g>
<g><path style="opacity:1" fill="#858485" d="M 475.5,208.5 C 478.942,210.789 482.609,212.789 486.5,214.5C 490.126,217.991 493.793,221.491 497.5,225C 496.449,226.577 495.449,228.077 494.5,229.5C 485.568,222.687 476.568,215.854 467.5,209C 470.146,208.503 472.813,208.336 475.5,208.5 Z"/></g>
<g><path style="opacity:1" fill="#af727d" d="M 570.5,232.5 C 569.379,236.741 567.712,240.741 565.5,244.5C 565.07,239.479 566.737,235.479 570.5,232.5 Z"/></g>
<g><path style="opacity:1" fill="#1e1747" d="M 619.5,262.5 C 616.278,262.15 613.112,261.483 610,260.5C 607.815,260.921 605.649,261.421 603.5,262C 603.043,262.414 602.709,262.914 602.5,263.5C 603.243,264.182 603.909,264.849 604.5,265.5C 603.391,265.557 602.391,265.89 601.5,266.5C 599.864,263.268 600.864,261.101 604.5,260C 609.932,258.986 614.932,259.819 619.5,262.5 Z"/></g>
<g><path style="opacity:1" fill="#dfe9ef" d="M 557.5,270.5 C 557.577,271.75 558.244,272.583 559.5,273C 571.566,273.831 583.566,273.331 595.5,271.5C 595.285,273.179 595.952,274.179 597.5,274.5C 597.297,276.044 596.63,277.378 595.5,278.5C 596.254,281.777 596.754,285.11 597,288.5C 598.734,289.249 600.567,289.749 602.5,290C 603.731,292.166 604.731,294.333 605.5,296.5C 605.552,298.903 605.219,301.236 604.5,303.5C 603.178,303.33 602.011,303.663 601,304.5C 598.578,308.344 595.911,312.01 593,315.5C 591.874,319.749 591.208,324.082 591,328.5C 589.083,331.915 587.75,335.581 587,339.5C 585.698,340.085 584.531,340.751 583.5,341.5C 578.333,346.486 572.666,350.986 566.5,355C 563.961,357.37 561.628,359.87 559.5,362.5C 557.486,362.392 555.82,363.058 554.5,364.5C 553.325,364.281 552.325,364.614 551.5,365.5C 553.147,370.363 554.147,375.363 554.5,380.5C 554.5,381.167 554.167,381.5 553.5,381.5C 551.959,371.668 549.626,362.002 546.5,352.5C 536.334,345.916 526,339.582 515.5,333.5C 514.054,334.171 513.388,335.338 513.5,337C 516.001,346.178 518.501,355.345 521,364.5C 522.634,366.062 524.134,367.729 525.5,369.5C 519.463,370.697 514.963,374.03 512,379.5C 511.362,387.902 511.862,396.235 513.5,404.5C 505.625,420.582 496.958,436.249 487.5,451.5C 487.667,411.832 487.5,372.165 487,332.5C 485.59,331.213 484.09,330.046 482.5,329C 464.836,328.5 447.17,328.333 429.5,328.5C 459.829,302.177 490.495,276.177 521.5,250.5C 531.486,260.986 541.652,271.319 552,281.5C 553.879,277.741 555.713,274.075 557.5,270.5 Z"/></g>
<g><path style="opacity:1" fill="#dfe9ef" d="M 664.5,579.5 C 664.833,528.829 664.5,478.162 663.5,427.5C 662.5,479.162 662.167,530.829 662.5,582.5C 662.44,583.043 662.107,583.376 661.5,583.5C 660.833,529.668 660.167,476.002 659.5,422.5C 659.167,422.5 658.833,422.5 658.5,422.5C 657.588,420.405 656.421,418.405 655,416.5C 653.989,415.663 652.822,415.33 651.5,415.5C 651.389,414.883 651.056,414.383 650.5,414C 636.171,413.5 621.837,413.333 607.5,413.5C 618.217,411.425 623.55,404.758 623.5,393.5C 623.44,388.599 622.44,383.932 620.5,379.5C 621.5,378.833 622.5,378.167 623.5,377.5C 628.052,376.133 632.719,375.133 637.5,374.5C 640.571,372.763 642.904,370.43 644.5,367.5C 647.025,360.437 648.025,352.937 647.5,345C 647.333,339.833 647.167,334.667 647,329.5C 646.299,325.891 645.132,322.558 643.5,319.5C 641.067,312.853 638.067,306.52 634.5,300.5C 632.604,299.534 630.604,299.201 628.5,299.5C 626.833,299.5 625.167,299.5 623.5,299.5C 620.796,296.054 619.462,292.054 619.5,287.5C 623.048,282.564 625.381,277.064 626.5,271C 626.073,267.977 624.739,265.477 622.5,263.5C 640.773,258.885 656.606,263.218 670,276.5C 721.738,358.132 729.071,443.798 692,533.5C 684.106,549.627 674.939,564.96 664.5,579.5 Z"/></g>
<g><path style="opacity:1" fill="#150754" d="M 619.5,262.5 C 620.609,262.557 621.609,262.89 622.5,263.5C 624.739,265.477 626.073,267.977 626.5,271C 625.381,277.064 623.048,282.564 619.5,287.5C 618.167,287.5 616.833,287.5 615.5,287.5C 615.5,287.167 615.5,286.833 615.5,286.5C 616.643,283.024 616.81,279.358 616,275.5C 613.586,274.144 611.419,274.478 609.5,276.5C 608.662,276.158 608.328,275.492 608.5,274.5C 608.663,272.143 608.497,269.81 608,267.5C 607.29,266.027 606.124,265.36 604.5,265.5C 603.909,264.849 603.243,264.182 602.5,263.5C 602.709,262.914 603.043,262.414 603.5,262C 605.649,261.421 607.815,260.921 610,260.5C 613.112,261.483 616.278,262.15 619.5,262.5 Z"/></g>
<g><path style="opacity:1" fill="#f96586" d="M 461.5,255.5 C 461.721,256.735 462.388,257.735 463.5,258.5C 462.284,259.096 460.951,259.263 459.5,259C 462.875,260.029 464.042,262.196 463,265.5C 461.5,264 460,262.5 458.5,261C 455.506,260.635 453.506,261.969 452.5,265C 453.996,266.331 455.329,267.831 456.5,269.5C 454.178,272.018 451.511,272.684 448.5,271.5C 446.862,272.705 446.529,274.038 447.5,275.5C 446.009,276.244 444.509,276.91 443,277.5C 440.488,284.701 435.988,290.535 429.5,295C 427.866,295.494 426.199,295.66 424.5,295.5C 424.5,296.833 424.5,298.167 424.5,299.5C 423.167,299.5 421.833,299.5 420.5,299.5C 420.5,300.833 420.5,302.167 420.5,303.5C 418.833,303.5 417.167,303.5 415.5,303.5C 414.277,298.648 415.944,295.481 420.5,294C 419.167,293.333 419.167,292.667 420.5,292C 418.866,291.506 417.199,291.34 415.5,291.5C 415.5,290.167 415.5,288.833 415.5,287.5C 417.288,287.785 418.955,287.452 420.5,286.5C 433.902,275.758 447.568,265.425 461.5,255.5 Z"/></g>
<g><path style="opacity:1" fill="#fbabac" d="M 608.5,274.5 C 608.328,275.492 608.662,276.158 609.5,276.5C 611.259,276.954 613.259,276.954 615.5,276.5C 615.5,279.833 615.5,283.167 615.5,286.5C 615.5,286.833 615.5,287.167 615.5,287.5C 612.28,288.748 608.947,289.748 605.5,290.5C 603.845,289.07 601.845,288.236 599.5,288C 600.448,287.517 601.448,287.351 602.5,287.5C 602.608,285.217 603.441,283.217 605,281.5C 605.824,278.118 605.657,274.784 604.5,271.5C 602.586,276.051 600.919,280.718 599.5,285.5C 598.16,284.312 597.493,282.812 597.5,281C 598.78,276.837 600.113,272.67 601.5,268.5C 603.5,268.5 605.5,268.5 607.5,268.5C 607.205,270.735 607.539,272.735 608.5,274.5 Z"/></g>
<g><path style="opacity:1" fill="#c999bc" d="M 615.5,286.5 C 615.5,283.167 615.5,279.833 615.5,276.5C 613.259,276.954 611.259,276.954 609.5,276.5C 611.419,274.478 613.586,274.144 616,275.5C 616.81,279.358 616.643,283.024 615.5,286.5 Z"/></g>
<g><path style="opacity:1" fill="#ecb0b0" d="M 604.5,265.5 C 606.124,265.36 607.29,266.027 608,267.5C 608.497,269.81 608.663,272.143 608.5,274.5C 607.539,272.735 607.205,270.735 607.5,268.5C 605.5,268.5 603.5,268.5 601.5,268.5C 600.113,272.67 598.78,276.837 597.5,281C 597.493,282.812 598.16,284.312 599.5,285.5C 600.919,280.718 602.586,276.051 604.5,271.5C 605.657,274.784 605.824,278.118 605,281.5C 603.441,283.217 602.608,285.217 602.5,287.5C 601.448,287.351 600.448,287.517 599.5,288C 601.845,288.236 603.845,289.07 605.5,290.5C 605.5,292.5 605.5,294.5 605.5,296.5C 604.731,294.333 603.731,292.166 602.5,290C 600.567,289.749 598.734,289.249 597,288.5C 596.754,285.11 596.254,281.777 595.5,278.5C 596.63,277.378 597.297,276.044 597.5,274.5C 598.31,271.656 599.644,268.99 601.5,266.5C 602.391,265.89 603.391,265.557 604.5,265.5 Z"/></g>
<g><path style="opacity:1" fill="#e3969d" d="M 615.5,287.5 C 616.833,287.5 618.167,287.5 619.5,287.5C 619.462,292.054 620.796,296.054 623.5,299.5C 620.341,299.481 617.674,300.648 615.5,303C 611.848,303.499 608.182,303.665 604.5,303.5C 605.219,301.236 605.552,298.903 605.5,296.5C 605.5,294.5 605.5,292.5 605.5,290.5C 608.947,289.748 612.28,288.748 615.5,287.5 Z"/></g>
<g><path style="opacity:1" fill="#f0c644" d="M 628.5,300.5 C 628.5,300.167 628.5,299.833 628.5,299.5C 630.604,299.201 632.604,299.534 634.5,300.5C 638.067,306.52 641.067,312.853 643.5,319.5C 643.517,321.565 643.85,323.565 644.5,325.5C 643.883,325.389 643.383,325.056 643,324.5C 643.022,320.182 641.355,316.848 638,314.5C 635.61,310.042 633.777,305.376 632.5,300.5C 631.167,300.5 629.833,300.5 628.5,300.5 Z"/></g>
<g><path style="opacity:1" fill="#fdc127" d="M 628.5,300.5 C 629.833,300.5 631.167,300.5 632.5,300.5C 633.777,305.376 635.61,310.042 638,314.5C 641.355,316.848 643.022,320.182 643,324.5C 643.383,325.056 643.883,325.389 644.5,325.5C 647.112,339.495 647.112,353.495 644.5,367.5C 642.904,370.43 640.571,372.763 637.5,374.5C 632.719,375.133 628.052,376.133 623.5,377.5C 616.844,377.944 610.177,378.277 603.5,378.5C 598.065,378.271 592.732,377.605 587.5,376.5C 585.455,375.077 584.455,373.077 584.5,370.5C 596.254,367.085 608.087,363.751 620,360.5C 619.254,350.193 618.921,339.859 619,329.5C 621.924,319.712 625.091,310.045 628.5,300.5 Z"/></g>
<g><path style="opacity:1" fill="#dfe9ef" d="M 480.5,239.5 C 474.147,244.856 467.814,250.19 461.5,255.5C 447.568,265.425 433.902,275.758 420.5,286.5C 418.955,287.452 417.288,287.785 415.5,287.5C 395.644,269.142 375.644,250.976 355.5,233C 352.615,230.606 349.615,228.439 346.5,226.5C 344.39,227.054 342.39,227.888 340.5,229C 296.875,259.274 253.209,289.607 209.5,320C 207.285,322.242 206.952,324.742 208.5,327.5C 208.297,329.044 207.63,330.378 206.5,331.5C 212.477,340.8 218.81,349.8 225.5,358.5C 265.661,331.252 305.994,304.252 346.5,277.5C 363.879,293.217 381.212,308.884 398.5,324.5C 366.832,324.333 335.165,324.5 303.5,325C 301.114,325.284 300.448,326.284 301.5,328C 297.416,328.231 293.416,328.898 289.5,330C 287.963,331.11 287.297,332.61 287.5,334.5C 287.5,356.167 287.5,377.833 287.5,399.5C 284.903,402.561 281.57,404.727 277.5,406C 271.738,408.441 265.738,409.608 259.5,409.5C 258.527,411.948 258.194,414.615 258.5,417.5C 259.833,417.5 261.167,417.5 262.5,417.5C 262.5,419.833 262.5,422.167 262.5,424.5C 264.167,424.5 265.833,424.5 267.5,424.5C 267.5,425.167 267.5,425.833 267.5,426.5C 267.678,427.695 268.011,428.862 268.5,430C 268.164,431.03 267.497,431.53 266.5,431.5C 262.495,429.832 258.495,428.165 254.5,426.5C 253.048,425.698 251.382,425.198 249.5,425C 247.983,423.315 246.316,421.815 244.5,420.5C 246.045,419.548 247.712,419.215 249.5,419.5C 249.5,418.167 249.5,416.833 249.5,415.5C 250.5,415.5 251.5,415.5 252.5,415.5C 252.002,410.848 251.669,406.181 251.5,401.5C 249.64,395.643 245.64,392.31 239.5,391.5C 234.707,390.008 229.707,388.841 224.5,388C 220.868,385.37 217.535,382.37 214.5,379C 212.783,377.441 210.783,376.608 208.5,376.5C 207.737,375.732 206.737,375.232 205.5,375C 198.494,374.393 191.494,373.727 184.5,373C 180.7,371.358 177.7,368.858 175.5,365.5C 173.826,360.787 172.16,356.12 170.5,351.5C 172.413,347.738 174.579,344.071 177,340.5C 200.675,310.485 226.175,281.985 253.5,255C 273.564,237.248 295.897,223.248 320.5,213C 330.647,209.547 340.98,206.88 351.5,205C 364.909,204.114 378.242,204.781 391.5,207C 404.151,210.327 416.818,213.66 429.5,217C 430.833,218 432.167,219 433.5,220C 442.618,222.55 451.452,225.716 460,229.5C 466.54,233.656 473.373,236.989 480.5,239.5 Z"/></g>
<g><path style="opacity:1" fill="#bf6c7e" d="M 328.5,281.5 C 326.003,284.249 323.003,286.249 319.5,287.5C 319.369,286.624 319.702,285.957 320.5,285.5C 322.955,283.703 325.622,282.37 328.5,281.5 Z"/></g>
<g><path style="opacity:1" fill="#868080" d="M 587.5,191.5 C 588.091,192.151 588.757,192.818 589.5,193.5C 578.437,219.029 567.77,244.695 557.5,270.5C 555.713,274.075 553.879,277.741 552,281.5C 541.652,271.319 531.486,260.986 521.5,250.5C 490.495,276.177 459.829,302.177 429.5,328.5C 428.508,328.328 427.842,328.662 427.5,329.5C 423.22,331.948 419.387,334.948 416,338.5C 411.48,336.33 407.647,333.33 404.5,329.5C 402.525,327.863 400.525,326.196 398.5,324.5C 381.212,308.884 363.879,293.217 346.5,277.5C 305.994,304.252 265.661,331.252 225.5,358.5C 218.81,349.8 212.477,340.8 206.5,331.5C 207.63,330.378 208.297,329.044 208.5,327.5C 213.725,334.26 218.725,341.26 223.5,348.5C 224.723,349.614 226.056,349.781 227.5,349C 253.501,330.855 279.834,313.522 306.5,297C 309.509,293.658 312.843,290.658 316.5,288C 317.448,287.517 318.448,287.351 319.5,287.5C 323.003,286.249 326.003,284.249 328.5,281.5C 333.255,278.61 337.921,275.444 342.5,272C 345.482,271.502 348.482,271.335 351.5,271.5C 351.281,272.675 351.614,273.675 352.5,274.5C 367.526,289.026 383.026,303.026 399,316.5C 399.483,317.448 399.649,318.448 399.5,319.5C 400.873,319.343 402.207,319.51 403.5,320C 406.86,323.36 410.194,326.694 413.5,330C 414.833,330.667 416.167,330.667 417.5,330C 451.773,300.548 486.44,271.715 521.5,243.5C 526.628,247.583 531.628,251.916 536.5,256.5C 540.733,261.703 545.067,266.703 549.5,271.5C 549.5,272.833 549.5,274.167 549.5,275.5C 551.144,275.714 552.644,275.38 554,274.5C 555.744,269.101 557.577,263.768 559.5,258.5C 560.449,253.28 562.449,248.614 565.5,244.5C 567.712,240.741 569.379,236.741 570.5,232.5C 574.209,222.868 577.709,213.202 581,203.5C 583.46,199.575 585.626,195.575 587.5,191.5 Z"/></g>
<g><path style="opacity:1" fill="#a97983" d="M 559.5,258.5 C 557.577,263.768 555.744,269.101 554,274.5C 552.644,275.38 551.144,275.714 549.5,275.5C 549.5,274.167 549.5,272.833 549.5,271.5C 550.833,271.5 552.167,271.5 553.5,271.5C 554.766,268.699 555.599,265.699 556,262.5C 556.74,260.681 557.907,259.348 559.5,258.5 Z"/></g>
<g><path style="opacity:1" fill="#e8e8e6" d="M 398.5,324.5 C 400.525,326.196 402.525,327.863 404.5,329.5C 367.498,329.333 330.498,329.5 293.5,330C 290.788,330.639 288.788,332.139 287.5,334.5C 287.297,332.61 287.963,331.11 289.5,330C 293.416,328.898 297.416,328.231 301.5,328C 300.448,326.284 301.114,325.284 303.5,325C 335.165,324.5 366.832,324.333 398.5,324.5 Z"/></g>
<g><path style="opacity:1" fill="#f99949" d="M 623.5,299.5 C 625.167,299.5 626.833,299.5 628.5,299.5C 628.5,299.833 628.5,300.167 628.5,300.5C 625.091,310.045 621.924,319.712 619,329.5C 618.921,339.859 619.254,350.193 620,360.5C 608.087,363.751 596.254,367.085 584.5,370.5C 584.81,367.287 584.477,364.287 583.5,361.5C 583.126,354.863 584.126,348.529 586.5,342.5C 585.675,341.614 584.675,341.281 583.5,341.5C 584.531,340.751 585.698,340.085 587,339.5C 587.75,335.581 589.083,331.915 591,328.5C 591.208,324.082 591.874,319.749 593,315.5C 595.911,312.01 598.578,308.344 601,304.5C 602.011,303.663 603.178,303.33 604.5,303.5C 608.182,303.665 611.848,303.499 615.5,303C 617.674,300.648 620.341,299.481 623.5,299.5 Z"/></g>
<g><path style="opacity:1" fill="#d8eaf7" d="M 303.5,326.5 C 335.507,326.167 367.507,326.5 399.5,327.5C 383.5,327.833 367.5,328.167 351.5,328.5C 335.152,328.499 319.152,327.833 303.5,326.5 Z"/></g>
<g><path style="opacity:1" fill="#efcb66" d="M 643.5,319.5 C 645.132,322.558 646.299,325.891 647,329.5C 647.167,334.667 647.333,339.833 647.5,345C 648.025,352.937 647.025,360.437 644.5,367.5C 647.112,353.495 647.112,339.495 644.5,325.5C 643.85,323.565 643.517,321.565 643.5,319.5 Z"/></g>
<g><path style="opacity:1" fill="#121144" d="M 164.5,348.5 C 159.369,347.423 154.369,345.923 149.5,344C 144.167,343.333 138.833,343.333 133.5,344C 128.412,346.02 123.745,348.52 119.5,351.5C 124.274,344.565 130.941,341.231 139.5,341.5C 148.591,341.648 156.925,343.982 164.5,348.5 Z"/></g>
<g><path style="opacity:1" fill="#080352" d="M 164.5,348.5 C 166.784,348.975 168.784,349.975 170.5,351.5C 172.16,356.12 173.826,360.787 175.5,365.5C 175.061,369.404 176.728,371.904 180.5,373C 178.975,374.009 177.308,374.509 175.5,374.5C 175.628,377.774 176.961,377.941 179.5,375C 189.198,374.725 198.865,375.225 208.5,376.5C 213.776,380.437 218.776,384.771 223.5,389.5C 228.71,391.088 234.043,391.755 239.5,391.5C 241.763,393.418 244.096,395.418 246.5,397.5C 247.626,398.808 247.626,400.142 246.5,401.5C 245.009,405.322 243.843,409.322 243,413.5C 240.349,416.076 237.182,417.409 233.5,417.5C 228.135,414.765 222.468,413.598 216.5,414C 210.251,416.618 204.918,420.452 200.5,425.5C 195.326,428.252 190.326,431.252 185.5,434.5C 183.046,435.227 180.713,436.227 178.5,437.5C 178.167,437.5 177.833,437.5 177.5,437.5C 174.353,437.263 171.353,436.43 168.5,435C 162.593,430.244 156.593,425.744 150.5,421.5C 150.5,419.5 150.5,417.5 150.5,415.5C 150.833,415.5 151.167,415.5 151.5,415.5C 152.477,412.713 152.81,409.713 152.5,406.5C 148.741,405.925 145.741,407.091 143.5,410C 144.388,411.22 145.055,412.553 145.5,414C 144.833,416.333 144.167,418.667 143.5,421C 143.525,422.876 144.191,424.376 145.5,425.5C 145.782,432.432 148.115,438.766 152.5,444.5C 148.833,444.5 145.167,444.5 141.5,444.5C 135.891,443.365 131.224,440.699 127.5,436.5C 126.532,431.733 124.865,427.233 122.5,423C 122.833,422.167 123.167,421.333 123.5,420.5C 124.833,420.167 126.167,419.833 127.5,419.5C 126.689,418.784 126.022,417.95 125.5,417C 126.707,415.7 127.374,414.2 127.5,412.5C 127.328,411.508 127.662,410.842 128.5,410.5C 129.962,410.321 130.629,408.988 130.5,406.5C 129.523,404.157 128.19,401.99 126.5,400C 127.451,399.282 127.617,398.449 127,397.5C 125.89,399.037 124.39,399.703 122.5,399.5C 114.814,393.136 110.481,384.803 109.5,374.5C 110.147,365.525 113.48,357.859 119.5,351.5C 123.745,348.52 128.412,346.02 133.5,344C 138.833,343.333 144.167,343.333 149.5,344C 154.369,345.923 159.369,347.423 164.5,348.5 Z"/></g>
<g><path style="opacity:1" fill="#fa9848" d="M 404.5,329.5 C 407.647,333.33 411.48,336.33 416,338.5C 419.387,334.948 423.22,331.948 427.5,329.5C 444.846,329.167 462.179,329.5 479.5,330.5C 482.205,331.204 483.871,332.871 484.5,335.5C 484.667,374.835 484.5,414.168 484,453.5C 483.167,454.333 482.333,455.167 481.5,456C 418.834,456.5 356.168,456.667 293.5,456.5C 293.817,452.298 293.483,448.298 292.5,444.5C 291.361,440.888 289.694,437.554 287.5,434.5C 287.5,429.5 287.5,424.5 287.5,419.5C 291.689,421.118 296.022,422.118 300.5,422.5C 300.179,419.423 301.179,417.09 303.5,415.5C 305.003,418.489 307.003,421.156 309.5,423.5C 307.967,425.79 308.3,426.456 310.5,425.5C 311.518,426.193 312.518,426.859 313.5,427.5C 321.644,435.898 331.644,439.898 343.5,439.5C 366.867,438.647 382.033,426.98 389,404.5C 393.464,374.293 380.964,355.126 351.5,347C 331.87,344.807 316.204,351.64 304.5,367.5C 299.394,376.129 297.061,385.463 297.5,395.5C 295.219,395.077 293.552,395.744 292.5,397.5C 291.18,398.942 289.514,399.608 287.5,399.5C 287.5,377.833 287.5,356.167 287.5,334.5C 288.788,332.139 290.788,330.639 293.5,330C 330.498,329.5 367.498,329.333 404.5,329.5 Z"/></g>
<g><path style="opacity:1" fill="#f9c230" d="M 583.5,341.5 C 584.675,341.281 585.675,341.614 586.5,342.5C 584.126,348.529 583.126,354.863 583.5,361.5C 580.125,362.504 576.792,363.504 573.5,364.5C 570.922,364.98 568.588,365.98 566.5,367.5C 565.167,367.5 563.833,367.5 562.5,367.5C 561.241,366.021 560.241,364.354 559.5,362.5C 561.628,359.87 563.961,357.37 566.5,355C 572.666,350.986 578.333,346.486 583.5,341.5 Z"/></g>
<g><path style="opacity:1" fill="#57759f" d="M 553.5,381.5 C 551.081,381.805 548.414,381.805 545.5,381.5C 545.804,380.85 546.137,380.183 546.5,379.5C 539.801,375.386 532.801,372.053 525.5,369.5C 524.134,367.729 522.634,366.062 521,364.5C 518.501,355.345 516.001,346.178 513.5,337C 513.388,335.338 514.054,334.171 515.5,333.5C 526,339.582 536.334,345.916 546.5,352.5C 549.626,362.002 551.959,371.668 553.5,381.5 Z"/></g>
<g><path style="opacity:1" fill="#ecdac5" d="M 409.5,361.5 C 411.251,368.107 408.918,370.607 402.5,369C 401.944,368.617 401.611,368.117 401.5,367.5C 407.441,369.898 409.774,367.898 408.5,361.5C 406.143,361.337 403.81,361.503 401.5,362C 400.594,363.699 400.261,365.533 400.5,367.5C 400.167,367.5 399.833,367.5 399.5,367.5C 399.244,365.208 399.577,363.041 400.5,361C 403.696,360.195 406.696,360.362 409.5,361.5 Z"/></g>
<g><path style="opacity:1" fill="#dceff6" d="M 401.5,367.5 C 401.167,367.5 400.833,367.5 400.5,367.5C 400.261,365.533 400.594,363.699 401.5,362C 403.81,361.503 406.143,361.337 408.5,361.5C 409.774,367.898 407.441,369.898 401.5,367.5 Z"/></g>
<g><path style="opacity:1" fill="#f2dcc9" d="M 443.5,363.5 C 444.434,364.568 444.768,365.901 444.5,367.5C 443.5,367.5 442.5,367.5 441.5,367.5C 441.5,366.5 441.5,365.5 441.5,364.5C 432.143,364.168 422.81,364.502 413.5,365.5C 419.654,366.167 425.654,366.833 431.5,367.5C 424.978,367.823 418.645,367.49 412.5,366.5C 412.5,365.5 412.5,364.5 412.5,363.5C 422.833,363.5 433.167,363.5 443.5,363.5 Z"/></g>
<g><path style="opacity:1" fill="#deedf2" d="M 441.5,367.5 C 438.167,367.5 434.833,367.5 431.5,367.5C 425.654,366.833 419.654,366.167 413.5,365.5C 422.81,364.502 432.143,364.168 441.5,364.5C 441.5,365.5 441.5,366.5 441.5,367.5 Z"/></g>
<g><path style="opacity:1" fill="#f2bf8e" d="M 460.5,358.5 C 461.239,358.369 461.906,358.536 462.5,359C 459.318,362.349 455.985,365.516 452.5,368.5C 449.74,367.265 448.24,365.265 448,362.5C 448.804,363.804 449.971,364.471 451.5,364.5C 455.273,363.502 458.273,361.502 460.5,358.5 Z"/></g>
<g><path style="opacity:1" fill="#ecc7c5" d="M 559.5,362.5 C 560.241,364.354 561.241,366.021 562.5,367.5C 561.872,370.955 559.872,372.122 556.5,371C 554.771,369.211 554.104,367.044 554.5,364.5C 555.82,363.058 557.486,362.392 559.5,362.5 Z"/></g>
<g><path style="opacity:1" fill="#e0e8e5" d="M 578.5,372.5 C 577.883,370.771 576.883,369.271 575.5,368C 572.518,367.502 569.518,367.335 566.5,367.5C 568.588,365.98 570.922,364.98 573.5,364.5C 576.553,364.319 579.553,364.152 582.5,364C 583.444,366.719 583.777,369.552 583.5,372.5C 581.833,372.5 580.167,372.5 578.5,372.5 Z"/></g>
<g><path style="opacity:1" fill="#cb423f" d="M 313.5,427.5 C 313.461,426.417 313.127,425.417 312.5,424.5C 313.948,423.646 315.281,422.646 316.5,421.5C 318.323,422.747 320.323,423.414 322.5,423.5C 337.747,431.861 352.747,431.361 367.5,422C 374.289,415.923 378.622,408.423 380.5,399.5C 381.163,397.527 381.496,395.361 381.5,393C 381.672,389.523 381.006,386.356 379.5,383.5C 378.685,379.554 377.185,375.887 375,372.5C 370.964,368.296 366.798,364.296 362.5,360.5C 359.253,358.535 355.92,356.535 352.5,354.5C 346.702,355.126 341.036,355.793 335.5,356.5C 324.156,360.177 315.489,367.177 309.5,377.5C 307.957,378.736 306.957,380.402 306.5,382.5C 304.955,383.452 303.288,383.785 301.5,383.5C 301.5,384.833 301.5,386.167 301.5,387.5C 303.167,387.5 304.833,387.5 306.5,387.5C 306.183,391.702 306.517,395.702 307.5,399.5C 308.15,401.435 308.483,403.435 308.5,405.5C 308.377,408.588 309.377,411.255 311.5,413.5C 310.831,416.852 310.164,420.185 309.5,423.5C 307.003,421.156 305.003,418.489 303.5,415.5C 303.83,409.99 303.164,404.657 301.5,399.5C 298.664,398.224 295.664,397.558 292.5,397.5C 293.552,395.744 295.219,395.077 297.5,395.5C 297.061,385.463 299.394,376.129 304.5,367.5C 316.204,351.64 331.87,344.807 351.5,347C 380.964,355.126 393.464,374.293 389,404.5C 382.033,426.98 366.867,438.647 343.5,439.5C 331.644,439.898 321.644,435.898 313.5,427.5 Z"/></g>
<g><path style="opacity:1" fill="#bc5b60" d="M 362.5,360.5 C 353.862,356.978 344.862,355.645 335.5,356.5C 341.036,355.793 346.702,355.126 352.5,354.5C 355.92,356.535 359.253,358.535 362.5,360.5 Z"/></g>
<g><path style="opacity:1" fill="#050943" d="M 175.5,365.5 C 177.7,368.858 180.7,371.358 184.5,373C 191.494,373.727 198.494,374.393 205.5,375C 206.737,375.232 207.737,375.732 208.5,376.5C 198.865,375.225 189.198,374.725 179.5,375C 176.961,377.941 175.628,377.774 175.5,374.5C 177.308,374.509 178.975,374.009 180.5,373C 176.728,371.904 175.061,369.404 175.5,365.5 Z"/></g>
<g><path style="opacity:1" fill="#f8c5b9" d="M 583.5,361.5 C 584.477,364.287 584.81,367.287 584.5,370.5C 584.455,373.077 585.455,375.077 587.5,376.5C 587.833,377.833 588.167,379.167 588.5,380.5C 585.873,381.092 583.206,381.425 580.5,381.5C 575.597,380.019 570.597,378.852 565.5,378C 564.588,375.512 565.588,373.845 568.5,373C 571.817,372.502 575.15,372.335 578.5,372.5C 580.167,372.5 581.833,372.5 583.5,372.5C 583.777,369.552 583.444,366.719 582.5,364C 579.553,364.152 576.553,364.319 573.5,364.5C 576.792,363.504 580.125,362.504 583.5,361.5 Z"/></g>
<g><path style="opacity:1" fill="#e4c459" d="M 587.5,376.5 C 592.732,377.605 598.065,378.271 603.5,378.5C 610.177,378.277 616.844,377.944 623.5,377.5C 622.5,378.167 621.5,378.833 620.5,379.5C 609.841,380.043 599.175,380.377 588.5,380.5C 588.167,379.167 587.833,377.833 587.5,376.5 Z"/></g>
<g><path style="opacity:1" fill="#2c478a" d="M 525.5,369.5 C 532.801,372.053 539.801,375.386 546.5,379.5C 546.137,380.183 545.804,380.85 545.5,381.5C 531.431,384.588 520.764,392.255 513.5,404.5C 511.862,396.235 511.362,387.902 512,379.5C 514.963,374.03 519.463,370.697 525.5,369.5 Z"/></g>
<g><path style="opacity:1" fill="#5c779d" d="M 554.5,364.5 C 554.104,367.044 554.771,369.211 556.5,371C 559.872,372.122 561.872,370.955 562.5,367.5C 563.833,367.5 565.167,367.5 566.5,367.5C 569.518,367.335 572.518,367.502 575.5,368C 576.883,369.271 577.883,370.771 578.5,372.5C 575.15,372.335 571.817,372.502 568.5,373C 565.588,373.845 564.588,375.512 565.5,378C 570.597,378.852 575.597,380.019 580.5,381.5C 583.981,381.969 586.315,383.969 587.5,387.5C 586.833,387.833 586.167,388.167 585.5,388.5C 575.823,386.713 566.156,384.88 556.5,383C 555.934,382.005 555.267,381.172 554.5,380.5C 554.147,375.363 553.147,370.363 551.5,365.5C 552.325,364.614 553.325,364.281 554.5,364.5 Z"/></g>
<g><path style="opacity:1" fill="#82c3eb" d="M 620.5,379.5 C 622.44,383.932 623.44,388.599 623.5,393.5C 623.55,404.758 618.217,411.425 607.5,413.5C 598.827,413.334 590.16,413.5 581.5,414C 579.292,414.191 577.292,414.691 575.5,415.5C 574.167,415.5 572.833,415.5 571.5,415.5C 565.5,415.5 559.5,415.5 553.5,415.5C 549.298,415.384 545.298,416.217 541.5,418C 540.131,419.719 539.131,421.552 538.5,423.5C 538.649,422.448 538.483,421.448 538,420.5C 530.891,427.765 524.391,435.432 518.5,443.5C 516.156,444.917 513.823,446.25 511.5,447.5C 511.649,448.552 511.483,449.552 511,450.5C 509.287,451.878 507.953,453.545 507,455.5C 496.238,465.378 487.404,476.378 480.5,488.5C 480.5,487.167 480.5,485.833 480.5,484.5C 477.211,483.626 473.877,482.959 470.5,482.5C 474.007,477.49 477.007,472.157 479.5,466.5C 482.913,461.954 485.579,456.954 487.5,451.5C 496.958,436.249 505.625,420.582 513.5,404.5C 520.764,392.255 531.431,384.588 545.5,381.5C 548.414,381.805 551.081,381.805 553.5,381.5C 554.167,381.5 554.5,381.167 554.5,380.5C 555.267,381.172 555.934,382.005 556.5,383C 566.156,384.88 575.823,386.713 585.5,388.5C 586.167,388.167 586.833,387.833 587.5,387.5C 586.315,383.969 583.981,381.969 580.5,381.5C 583.206,381.425 585.873,381.092 588.5,380.5C 599.175,380.377 609.841,380.043 620.5,379.5 Z"/></g>
<g><path style="opacity:1" fill="#a74550" d="M 309.5,377.5 C 309.037,380.221 308.371,382.888 307.5,385.5C 307.5,385.833 307.5,386.167 307.5,386.5C 307.5,388.167 307.5,389.833 307.5,391.5C 307.5,392.167 307.5,392.833 307.5,393.5C 307.5,395.5 307.5,397.5 307.5,399.5C 306.517,395.702 306.183,391.702 306.5,387.5C 304.833,387.5 303.167,387.5 301.5,387.5C 301.5,386.167 301.5,384.833 301.5,383.5C 303.288,383.785 304.955,383.452 306.5,382.5C 306.957,380.402 307.957,378.736 309.5,377.5 Z"/></g>
<g><path style="opacity:1" fill="#f2c69a" d="M 456.5,385.5 C 455.215,386.785 453.881,388.119 452.5,389.5C 450.479,388.145 448.812,386.479 447.5,384.5C 447.56,383.957 447.893,383.624 448.5,383.5C 449.833,384.5 451.167,385.5 452.5,386.5C 454.5,384.833 456.5,383.167 458.5,381.5C 458.833,381.833 459.167,382.167 459.5,382.5C 458.66,383.735 457.66,384.735 456.5,385.5 Z"/></g>
<g><path style="opacity:1" fill="#0d1243" d="M 208.5,376.5 C 210.783,376.608 212.783,377.441 214.5,379C 217.535,382.37 220.868,385.37 224.5,388C 229.707,388.841 234.707,390.008 239.5,391.5C 234.043,391.755 228.71,391.088 223.5,389.5C 218.776,384.771 213.776,380.437 208.5,376.5 Z"/></g>
<g><path style="opacity:1" fill="#e5e6e1" d="M 399.5,387.5 C 399.5,385.167 399.5,382.833 399.5,380.5C 406.825,378.328 409.991,380.995 409,388.5C 405.476,391.325 402.31,390.992 399.5,387.5 Z"/></g>
<g><path style="opacity:1" fill="#efdcc9" d="M 444.5,384.5 C 444.5,385.5 444.5,386.5 444.5,387.5C 434.833,387.5 425.167,387.5 415.5,387.5C 424.342,386.833 433.342,386.167 442.5,385.5C 432.856,384.502 423.19,384.168 413.5,384.5C 413.5,385.5 413.5,386.5 413.5,387.5C 412.596,386.791 412.263,385.791 412.5,384.5C 423.167,383.167 433.833,383.167 444.5,384.5 Z"/></g>
<g><path style="opacity:1" fill="#5b2b4d" d="M 307.5,386.5 C 307.5,386.167 307.5,385.833 307.5,385.5C 310.482,385.963 313.482,386.296 316.5,386.5C 318.948,387.473 321.615,387.806 324.5,387.5C 326.871,388.991 329.538,389.991 332.5,390.5C 333.288,389.23 334.288,388.23 335.5,387.5C 335.721,388.735 336.388,389.735 337.5,390.5C 339.5,391.333 341.5,392.167 343.5,393C 340.151,393.388 336.817,393.221 333.5,392.5C 330.781,391.087 327.781,390.42 324.5,390.5C 321.61,389.755 318.61,389.088 315.5,388.5C 312.997,387.629 310.33,386.963 307.5,386.5 Z"/></g>
<g><path style="opacity:1" fill="#f6994c" d="M 409.5,361.5 C 420.932,362.147 432.265,362.813 443.5,363.5C 433.167,363.5 422.833,363.5 412.5,363.5C 412.5,364.5 412.5,365.5 412.5,366.5C 410.974,367.105 409.974,368.271 409.5,370C 406.274,371.199 402.941,371.699 399.5,371.5C 399.5,372.5 399.5,373.5 399.5,374.5C 403.555,374.176 407.555,374.509 411.5,375.5C 410.311,376.429 408.978,376.762 407.5,376.5C 407.5,377.5 407.5,378.5 407.5,379.5C 411.161,379.35 412.161,380.85 410.5,384C 411.094,384.464 411.761,384.631 412.5,384.5C 412.263,385.791 412.596,386.791 413.5,387.5C 414.167,387.5 414.833,387.5 415.5,387.5C 425.167,387.5 434.833,387.5 444.5,387.5C 444.5,386.5 444.5,385.5 444.5,384.5C 445.5,384.5 446.5,384.5 447.5,384.5C 448.812,386.479 450.479,388.145 452.5,389.5C 453.881,388.119 455.215,386.785 456.5,385.5C 457.637,387.839 457.804,390.172 457,392.5C 458.489,390.668 460.322,389.835 462.5,390C 459.622,392.709 456.956,395.542 454.5,398.5C 455.365,399.583 456.365,399.749 457.5,399C 459.333,397.167 461.167,395.333 463,393.5C 463.167,394 463.333,394.5 463.5,395C 463.462,399.009 463.295,403.176 463,407.5C 461.871,405.859 460.371,404.859 458.5,404.5C 459.886,406.244 460.886,408.244 461.5,410.5C 460.005,412.17 458.672,414.003 457.5,416C 458.549,416.492 459.549,416.326 460.5,415.5C 461.696,415.846 461.696,416.346 460.5,417C 461.094,417.464 461.761,417.631 462.5,417.5C 459.521,421.146 456.188,424.479 452.5,427.5C 447.164,421.871 446.497,422.205 450.5,428.5C 449.504,428.414 448.671,428.748 448,429.5C 447.667,428.5 447.333,427.5 447,426.5C 446.329,427.252 445.496,427.586 444.5,427.5C 444.5,426.167 444.5,424.833 444.5,423.5C 441.167,423.5 437.833,423.5 434.5,423.5C 435.768,422.213 435.435,421.213 433.5,420.5C 435.966,419.119 437.966,419.619 439.5,422C 442.5,422.667 445.5,422.667 448.5,422C 451.35,419.318 454.016,416.484 456.5,413.5C 455.052,412.646 453.719,411.646 452.5,410.5C 451.315,411.853 449.981,413.02 448.5,414C 448.833,414.333 449.167,414.667 449.5,415C 446.199,415.997 442.866,416.33 439.5,416C 442.477,415.519 445.143,414.352 447.5,412.5C 445.257,411.526 442.924,411.192 440.5,411.5C 440.5,410.5 440.5,409.5 440.5,408.5C 444.161,408.65 445.161,407.15 443.5,404C 433.325,403.175 423.325,403.342 413.5,404.5C 412.167,405.5 412.167,406.5 413.5,407.5C 420.313,408.491 427.313,408.825 434.5,408.5C 434.5,409.5 434.5,410.5 434.5,411.5C 426.56,411.13 418.893,412.13 411.5,414.5C 411.649,413.448 411.483,412.448 411,411.5C 410.505,413.473 410.338,415.473 410.5,417.5C 409.167,417.5 407.833,417.5 406.5,417.5C 407.32,413.721 405.987,411.388 402.5,410.5C 409.252,410.166 410.919,407 407.5,401C 403.623,399.784 400.957,400.951 399.5,404.5C 398.881,401.023 398.881,397.356 399.5,393.5C 400.675,393.719 401.675,393.386 402.5,392.5C 401.048,391.06 400.048,389.394 399.5,387.5C 402.31,390.992 405.476,391.325 409,388.5C 409.991,380.995 406.825,378.328 399.5,380.5C 398.778,380.918 398.278,381.584 398,382.5C 397.837,380.324 397.004,378.491 395.5,377C 397.518,374.111 398.851,370.945 399.5,367.5C 399.833,367.5 400.167,367.5 400.5,367.5C 400.833,367.5 401.167,367.5 401.5,367.5C 401.611,368.117 401.944,368.617 402.5,369C 408.918,370.607 411.251,368.107 409.5,361.5 Z"/></g>
<g><path style="opacity:1" fill="#dceff5" d="M 415.5,387.5 C 414.833,387.5 414.167,387.5 413.5,387.5C 413.5,386.5 413.5,385.5 413.5,384.5C 423.19,384.168 432.856,384.502 442.5,385.5C 433.342,386.167 424.342,386.833 415.5,387.5 Z"/></g>
<g><path style="opacity:1" fill="#cd8d93" d="M 379.5,383.5 C 381.006,386.356 381.672,389.523 381.5,393C 381.496,395.361 381.163,397.527 380.5,399.5C 380.608,394.13 380.275,388.797 379.5,383.5 Z"/></g>
<g><path style="opacity:1" fill="#101044" d="M 239.5,391.5 C 245.64,392.31 249.64,395.643 251.5,401.5C 249.833,401.5 248.167,401.5 246.5,401.5C 247.626,400.142 247.626,398.808 246.5,397.5C 244.096,395.418 241.763,393.418 239.5,391.5 Z"/></g>
<g><path style="opacity:1" fill="#f2cba4" d="M 458.5,404.5 C 456.519,406.144 454.519,407.81 452.5,409.5C 449.657,408.079 448.324,406.079 448.5,403.5C 449.833,404.5 451.167,405.5 452.5,406.5C 455.52,403.645 458.687,400.979 462,398.5C 462.667,399.167 462.667,399.833 462,400.5C 460.624,401.705 459.458,403.038 458.5,404.5 Z"/></g>
<g><path style="opacity:1" fill="#e5e4e8" d="M 307.5,393.5 C 310.64,398.276 311.973,403.609 311.5,409.5C 310.5,408.167 309.5,406.833 308.5,405.5C 308.483,403.435 308.15,401.435 307.5,399.5C 307.5,397.5 307.5,395.5 307.5,393.5 Z"/></g>
<g><path style="opacity:1" fill="#edc099" d="M 413.5,404.5 C 423.325,403.342 433.325,403.175 443.5,404C 445.161,407.15 444.161,408.65 440.5,408.5C 438.5,408.5 436.5,408.5 434.5,408.5C 427.313,408.825 420.313,408.491 413.5,407.5C 423.19,407.832 432.856,407.498 442.5,406.5C 442.291,405.914 441.957,405.414 441.5,405C 432.173,404.5 422.839,404.334 413.5,404.5 Z"/></g>
<g><path style="opacity:1" fill="#de3869" d="M 292.5,397.5 C 295.664,397.558 298.664,398.224 301.5,399.5C 303.164,404.657 303.83,409.99 303.5,415.5C 301.179,417.09 300.179,419.423 300.5,422.5C 296.022,422.118 291.689,421.118 287.5,419.5C 284.833,419.167 282.167,418.833 279.5,418.5C 277.105,417.234 274.438,416.568 271.5,416.5C 267.49,417.828 263.49,417.828 259.5,416.5C 259.5,414.167 259.5,411.833 259.5,409.5C 265.738,409.608 271.738,408.441 277.5,406C 281.57,404.727 284.903,402.561 287.5,399.5C 289.514,399.608 291.18,398.942 292.5,397.5 Z"/></g>
<g><path style="opacity:1" fill="#e5e8e2" d="M 402.5,410.5 C 400.025,409.313 399.025,407.313 399.5,404.5C 400.957,400.951 403.623,399.784 407.5,401C 410.919,407 409.252,410.166 402.5,410.5 Z"/></g>
<g><path style="opacity:1" fill="#0e0f44" d="M 128.5,410.5 C 128.66,408.801 128.494,407.134 128,405.5C 125.96,403.63 124.127,401.63 122.5,399.5C 124.39,399.703 125.89,399.037 127,397.5C 127.617,398.449 127.451,399.282 126.5,400C 128.19,401.99 129.523,404.157 130.5,406.5C 130.629,408.988 129.962,410.321 128.5,410.5 Z"/></g>
<g><path style="opacity:1" fill="#14093f" d="M 151.5,415.5 C 151.662,413.473 151.495,411.473 151,409.5C 149.644,408.62 148.144,408.286 146.5,408.5C 146.5,410.833 146.5,413.167 146.5,415.5C 145.735,418.096 145.401,420.763 145.5,423.5C 145.5,424.167 145.5,424.833 145.5,425.5C 144.191,424.376 143.525,422.876 143.5,421C 144.167,418.667 144.833,416.333 145.5,414C 145.055,412.553 144.388,411.22 143.5,410C 145.741,407.091 148.741,405.925 152.5,406.5C 152.81,409.713 152.477,412.713 151.5,415.5 Z"/></g>
<g><path style="opacity:1" fill="#e8eeed" d="M 413.5,404.5 C 422.839,404.334 432.173,404.5 441.5,405C 441.957,405.414 442.291,405.914 442.5,406.5C 432.856,407.498 423.19,407.832 413.5,407.5C 412.167,406.5 412.167,405.5 413.5,404.5 Z"/></g>
<g><path style="opacity:1" fill="#c1a1bb" d="M 151.5,415.5 C 151.167,415.5 150.833,415.5 150.5,415.5C 150.5,413.833 150.5,412.167 150.5,410.5C 149.5,410.5 148.5,410.5 147.5,410.5C 147.784,412.415 147.451,414.081 146.5,415.5C 146.5,413.167 146.5,410.833 146.5,408.5C 148.144,408.286 149.644,408.62 151,409.5C 151.495,411.473 151.662,413.473 151.5,415.5 Z"/></g>
<g><path style="opacity:1" fill="#736974" d="M 307.5,391.5 C 309.746,393.649 311.246,396.316 312,399.5C 312.984,404.854 313.817,410.187 314.5,415.5C 312.769,414.015 311.769,412.015 311.5,409.5C 311.973,403.609 310.64,398.276 307.5,393.5C 307.5,392.833 307.5,392.167 307.5,391.5 Z"/></g>
<g><path style="opacity:1" fill="#ebacaf" d="M 246.5,401.5 C 248.167,401.5 249.833,401.5 251.5,401.5C 251.669,406.181 252.002,410.848 252.5,415.5C 251.5,415.5 250.5,415.5 249.5,415.5C 249.5,416.833 249.5,418.167 249.5,419.5C 247.712,419.215 246.045,419.548 244.5,420.5C 246.316,421.815 247.983,423.315 249.5,425C 251.382,425.198 253.048,425.698 254.5,426.5C 253.5,426.5 252.5,426.5 251.5,426.5C 248.746,426.216 246.08,425.549 243.5,424.5C 244.668,423.094 244.335,421.928 242.5,421C 239.5,420.333 236.5,420.333 233.5,421C 231.937,422.947 229.937,424.114 227.5,424.5C 230.19,422.807 232.19,420.473 233.5,417.5C 237.182,417.409 240.349,416.076 243,413.5C 243.843,409.322 245.009,405.322 246.5,401.5 Z"/></g>
<g><path style="opacity:1" fill="#dc6c88" d="M 607.5,414.5 C 607.5,414.167 607.5,413.833 607.5,413.5C 621.837,413.333 636.171,413.5 650.5,414C 651.056,414.383 651.389,414.883 651.5,415.5C 636.882,414.533 622.215,414.2 607.5,414.5 Z"/></g>
<g><path style="opacity:1" fill="#af99c3" d="M 607.5,413.5 C 607.5,413.833 607.5,414.167 607.5,414.5C 597.013,415.494 586.346,415.828 575.5,415.5C 577.292,414.691 579.292,414.191 581.5,414C 590.16,413.5 598.827,413.334 607.5,413.5 Z"/></g>
<g><path style="opacity:1" fill="#fe5b7e" d="M 607.5,414.5 C 622.215,414.2 636.882,414.533 651.5,415.5C 651.324,419.818 653.158,421.818 657,421.5C 657.5,439.164 657.667,456.83 657.5,474.5C 654.243,474.764 652.243,476.43 651.5,479.5C 649.712,479.215 648.045,479.548 646.5,480.5C 643.003,484.83 639.17,488.83 635,492.5C 634.667,493.5 634.333,494.5 634,495.5C 630.343,498.158 627.009,501.158 624,504.5C 622.829,508.508 623.995,511.508 627.5,513.5C 628.935,512.176 629.935,510.51 630.5,508.5C 631.086,508.709 631.586,509.043 632,509.5C 636.436,505.527 640.27,501.027 643.5,496C 645.134,495.506 646.801,495.34 648.5,495.5C 649.744,492.31 650.744,488.977 651.5,485.5C 652.5,484.5 653.5,483.5 654.5,482.5C 655.192,483.025 655.692,483.692 656,484.5C 656.333,484.167 656.667,483.833 657,483.5C 657.734,524.84 657.568,566.173 656.5,607.5C 650.833,607.5 645.167,607.5 639.5,607.5C 639.64,605.876 638.973,604.71 637.5,604C 638.624,603.751 639.624,603.251 640.5,602.5C 637.186,599.261 633.853,599.594 630.5,603.5C 629.571,604.689 629.238,606.022 629.5,607.5C 611.164,607.333 592.83,607.5 574.5,608C 590.844,608.167 607.177,608.667 623.5,609.5C 620.445,612.131 617.112,614.297 613.5,616C 614.5,616.333 615.5,616.667 616.5,617C 616.167,617.333 615.833,617.667 615.5,618C 600.837,618.5 586.17,618.667 571.5,618.5C 571.5,550.833 571.5,483.167 571.5,415.5C 572.833,415.5 574.167,415.5 575.5,415.5C 586.346,415.828 597.013,415.494 607.5,414.5 Z"/></g>
<g><path style="opacity:1" fill="#110f49" d="M 127.5,412.5 C 127.374,414.2 126.707,415.7 125.5,417C 126.022,417.95 126.689,418.784 127.5,419.5C 126.167,419.833 124.833,420.167 123.5,420.5C 123.167,421.333 122.833,422.167 122.5,423C 124.865,427.233 126.532,431.733 127.5,436.5C 124.358,433.698 122.025,430.365 120.5,426.5C 119.648,420.204 121.981,415.538 127.5,412.5 Z"/></g>
<g><path style="opacity:1" fill="#f1c3c0" d="M 150.5,415.5 C 150.5,417.5 150.5,419.5 150.5,421.5C 150.5,422.5 150.5,423.5 150.5,424.5C 149.178,424.33 148.011,424.663 147,425.5C 146.722,424.584 146.222,423.918 145.5,423.5C 145.401,420.763 145.735,418.096 146.5,415.5C 147.451,414.081 147.784,412.415 147.5,410.5C 148.5,410.5 149.5,410.5 150.5,410.5C 150.5,412.167 150.5,413.833 150.5,415.5 Z"/></g>
<g><path style="opacity:1" fill="#dfe4ef" d="M 233.5,417.5 C 232.19,420.473 230.19,422.807 227.5,424.5C 221.124,423.004 214.791,423.17 208.5,425C 203.499,430.181 197.832,434.348 191.5,437.5C 187.035,438.736 182.701,438.736 178.5,437.5C 180.713,436.227 183.046,435.227 185.5,434.5C 185.97,435.693 186.97,436.36 188.5,436.5C 193.418,434.243 198.085,431.576 202.5,428.5C 203.386,427.675 203.719,426.675 203.5,425.5C 202.5,425.5 201.5,425.5 200.5,425.5C 204.918,420.452 210.251,416.618 216.5,414C 222.468,413.598 228.135,414.765 233.5,417.5 Z"/></g>
<g><path style="opacity:1" fill="#edb6c2" d="M 259.5,409.5 C 259.5,411.833 259.5,414.167 259.5,416.5C 263.49,417.828 267.49,417.828 271.5,416.5C 274.438,416.568 277.105,417.234 279.5,418.5C 276.266,417.873 273.099,417.873 270,418.5C 269.5,418.833 269,419.167 268.5,419.5C 269.77,420.288 270.77,421.288 271.5,422.5C 269.938,422.733 268.605,423.4 267.5,424.5C 265.833,424.5 264.167,424.5 262.5,424.5C 262.5,422.167 262.5,419.833 262.5,417.5C 261.167,417.5 259.833,417.5 258.5,417.5C 258.194,414.615 258.527,411.948 259.5,409.5 Z"/></g>
<g><path style="opacity:1" fill="#b24140" d="M 308.5,405.5 C 309.5,406.833 310.5,408.167 311.5,409.5C 311.769,412.015 312.769,414.015 314.5,415.5C 316.833,418.5 319.5,421.167 322.5,423.5C 320.323,423.414 318.323,422.747 316.5,421.5C 315.281,422.646 313.948,423.646 312.5,424.5C 313.127,425.417 313.461,426.417 313.5,427.5C 312.518,426.859 311.518,426.193 310.5,425.5C 308.3,426.456 307.967,425.79 309.5,423.5C 310.164,420.185 310.831,416.852 311.5,413.5C 309.377,411.255 308.377,408.588 308.5,405.5 Z"/></g>
<g><path style="opacity:1" fill="#e0ebf2" d="M 335.5,356.5 C 344.862,355.645 353.862,356.978 362.5,360.5C 366.798,364.296 370.964,368.296 375,372.5C 377.185,375.887 378.685,379.554 379.5,383.5C 380.275,388.797 380.608,394.13 380.5,399.5C 378.622,408.423 374.289,415.923 367.5,422C 352.747,431.361 337.747,431.861 322.5,423.5C 319.5,421.167 316.833,418.5 314.5,415.5C 313.817,410.187 312.984,404.854 312,399.5C 311.246,396.316 309.746,393.649 307.5,391.5C 307.5,389.833 307.5,388.167 307.5,386.5C 310.33,386.963 312.997,387.629 315.5,388.5C 315.968,412.135 327.968,422.969 351.5,421C 368.012,414.809 374.845,402.976 372,385.5C 368.809,375.14 361.976,368.806 351.5,366.5C 348.785,365.114 345.785,364.447 342.5,364.5C 339.795,364.316 337.462,364.983 335.5,366.5C 330.504,367.17 326.504,369.503 323.5,373.5C 319.865,377.102 317.531,381.436 316.5,386.5C 313.482,386.296 310.482,385.963 307.5,385.5C 308.371,382.888 309.037,380.221 309.5,377.5C 315.489,367.177 324.156,360.177 335.5,356.5 Z"/></g>
<g><path style="opacity:1" fill="#e0eaf1" d="M 324.5,390.5 C 327.781,390.42 330.781,391.087 333.5,392.5C 334.182,402.002 339.182,405.502 348.5,403C 356.955,397.48 357.622,391.146 350.5,384C 346.928,382.595 343.261,382.262 339.5,383C 337.249,383.748 335.916,385.248 335.5,387.5C 334.288,388.23 333.288,389.23 332.5,390.5C 329.538,389.991 326.871,388.991 324.5,387.5C 325.434,386.432 325.768,385.099 325.5,383.5C 329.05,379.786 333.05,376.619 337.5,374C 349.322,371.703 357.822,375.87 363,386.5C 365.275,404.894 357.109,413.727 338.5,413C 328.689,408.691 324.023,401.191 324.5,390.5 Z"/></g>
<g><path style="opacity:1" fill="#c74344" d="M 333.5,392.5 C 336.817,393.221 340.151,393.388 343.5,393C 341.5,392.167 339.5,391.333 337.5,390.5C 336.388,389.735 335.721,388.735 335.5,387.5C 335.916,385.248 337.249,383.748 339.5,383C 343.261,382.262 346.928,382.595 350.5,384C 357.622,391.146 356.955,397.48 348.5,403C 339.182,405.502 334.182,402.002 333.5,392.5 Z"/></g>
<g><path style="opacity:1" fill="#b84b51" d="M 323.5,373.5 C 323.5,375.5 323.5,377.5 323.5,379.5C 319.678,380.18 318.011,382.513 318.5,386.5C 320.5,386.5 322.5,386.5 324.5,386.5C 324.263,385.209 324.596,384.209 325.5,383.5C 325.768,385.099 325.434,386.432 324.5,387.5C 321.615,387.806 318.948,387.473 316.5,386.5C 317.531,381.436 319.865,377.102 323.5,373.5 Z"/></g>
<g><path style="opacity:1" fill="#c94645" d="M 335.5,366.5 C 340.833,366.5 346.167,366.5 351.5,366.5C 361.976,368.806 368.809,375.14 372,385.5C 374.845,402.976 368.012,414.809 351.5,421C 327.968,422.969 315.968,412.135 315.5,388.5C 318.61,389.088 321.61,389.755 324.5,390.5C 324.023,401.191 328.689,408.691 338.5,413C 357.109,413.727 365.275,404.894 363,386.5C 357.822,375.87 349.322,371.703 337.5,374C 333.05,376.619 329.05,379.786 325.5,383.5C 324.596,384.209 324.263,385.209 324.5,386.5C 322.5,386.5 320.5,386.5 318.5,386.5C 318.011,382.513 319.678,380.18 323.5,379.5C 323.5,377.5 323.5,375.5 323.5,373.5C 326.504,369.503 330.504,367.17 335.5,366.5 Z"/></g>
<g><path style="opacity:1" fill="#ba5255" d="M 351.5,366.5 C 346.167,366.5 340.833,366.5 335.5,366.5C 337.462,364.983 339.795,364.316 342.5,364.5C 345.785,364.447 348.785,365.114 351.5,366.5 Z"/></g>
<g><path style="opacity:1" fill="#e0e7ed" d="M 279.5,418.5 C 282.167,418.833 284.833,419.167 287.5,419.5C 287.5,424.5 287.5,429.5 287.5,434.5C 281.884,430.885 276.55,426.885 271.5,422.5C 270.77,421.288 269.77,420.288 268.5,419.5C 269,419.167 269.5,418.833 270,418.5C 273.099,417.873 276.266,417.873 279.5,418.5 Z"/></g>
<g><path style="opacity:1" fill="#e3ac7c" d="M 413.5,424.5 C 420.313,423.509 427.313,423.175 434.5,423.5C 437.833,423.5 441.167,423.5 444.5,423.5C 444.5,424.833 444.5,426.167 444.5,427.5C 444.167,427.5 443.833,427.5 443.5,427.5C 443.5,426.5 443.5,425.5 443.5,424.5C 433.5,424.5 423.5,424.5 413.5,424.5 Z"/></g>
<g><path style="opacity:1" fill="#e592a2" d="M 251.5,426.5 C 243.327,428.155 235.327,427.489 227.5,424.5C 229.937,424.114 231.937,422.947 233.5,421C 236.5,420.333 239.5,420.333 242.5,421C 244.335,421.928 244.668,423.094 243.5,424.5C 246.08,425.549 248.746,426.216 251.5,426.5 Z"/></g>
<g><path style="opacity:1" fill="#e1e9e9" d="M 403.5,420.5 C 409.156,420.867 410.989,423.867 409,429.5C 406.205,432.113 403.371,432.113 400.5,429.5C 398.839,425.46 399.839,422.46 403.5,420.5 Z"/></g>
<g><path style="opacity:1" fill="#e5eeea" d="M 413.5,424.5 C 423.5,424.5 433.5,424.5 443.5,424.5C 443.5,425.5 443.5,426.5 443.5,427.5C 433.5,427.5 423.5,427.5 413.5,427.5C 413.5,426.5 413.5,425.5 413.5,424.5 Z"/></g>
<g><path style="opacity:1" fill="#f5caa6" d="M 413.5,424.5 C 413.5,425.5 413.5,426.5 413.5,427.5C 423.5,427.5 433.5,427.5 443.5,427.5C 433.347,428.494 423.014,428.828 412.5,428.5C 412.232,426.901 412.566,425.568 413.5,424.5 Z"/></g>
<g><path style="opacity:1" fill="#f9d3ac" d="M 462.5,417.5 C 463.525,417.897 463.692,418.563 463,419.5C 459.833,422.667 456.667,425.833 453.5,429C 452.423,429.47 451.423,429.303 450.5,428.5C 446.497,422.205 447.164,421.871 452.5,427.5C 456.188,424.479 459.521,421.146 462.5,417.5 Z"/></g>
<g><path style="opacity:1" fill="#dbe8e8" d="M 200.5,425.5 C 201.5,425.5 202.5,425.5 203.5,425.5C 203.719,426.675 203.386,427.675 202.5,428.5C 198.085,431.576 193.418,434.243 188.5,436.5C 186.97,436.36 185.97,435.693 185.5,434.5C 190.326,431.252 195.326,428.252 200.5,425.5 Z"/></g>
<g><path style="opacity:1" fill="#905294" d="M 271.5,422.5 C 276.55,426.885 281.884,430.885 287.5,434.5C 289.694,437.554 291.361,440.888 292.5,444.5C 292.921,448.742 292.254,452.742 290.5,456.5C 289.609,457.11 288.609,457.443 287.5,457.5C 282.125,457.828 276.792,457.495 271.5,456.5C 266.806,453.187 261.972,452.854 257,455.5C 257.225,465.129 257.558,474.795 258,484.5C 260.937,493.253 262.771,502.253 263.5,511.5C 256.379,513.295 249.046,513.962 241.5,513.5C 237.371,512.69 233.204,512.023 229,511.5C 226.319,511.769 223.819,512.436 221.5,513.5C 217.319,514.727 213.152,516.06 209,517.5C 207.188,517.507 205.688,516.84 204.5,515.5C 208.522,515.056 212.022,513.056 215,509.5C 215.667,508.833 215.667,508.167 215,507.5C 214.282,508.451 213.449,508.617 212.5,508C 212.694,506.43 212.694,504.93 212.5,503.5C 213.833,504.5 215.167,505.5 216.5,506.5C 218.484,503.592 220.317,500.592 222,497.5C 224.402,500.258 226.402,499.925 228,496.5C 228.483,495.552 228.649,494.552 228.5,493.5C 229.675,493.719 230.675,493.386 231.5,492.5C 230.68,490.889 229.346,490.222 227.5,490.5C 227.719,489.325 227.386,488.325 226.5,487.5C 223.573,489.065 221.073,491.732 219,495.5C 217.563,492.487 216.396,489.32 215.5,486C 216.549,478.186 216.716,470.353 216,462.5C 212.626,459.641 209.792,459.974 207.5,463.5C 205.833,463.5 204.167,463.5 202.5,463.5C 197.5,463.5 192.5,463.5 187.5,463.5C 187.5,462.167 187.5,460.833 187.5,459.5C 185.856,459.286 184.356,459.62 183,460.5C 180.046,458.18 177.046,455.847 174,453.5C 173.5,453.833 173,454.167 172.5,454.5C 174.297,455.695 175.297,457.362 175.5,459.5C 172.523,458.929 169.69,457.929 167,456.5C 166.727,454.671 165.893,453.171 164.5,452C 165.617,450.108 167.284,449.275 169.5,449.5C 169.286,445.743 170.286,445.076 172.5,447.5C 174.752,445.703 175.752,443.37 175.5,440.5C 181.274,440.454 186.608,439.454 191.5,437.5C 197.832,434.348 203.499,430.181 208.5,425C 214.791,423.17 221.124,423.004 227.5,424.5C 235.327,427.489 243.327,428.155 251.5,426.5C 252.5,426.5 253.5,426.5 254.5,426.5C 258.495,428.165 262.495,429.832 266.5,431.5C 269.734,434.119 273.4,435.619 277.5,436C 274.297,432.629 270.964,429.462 267.5,426.5C 267.5,425.833 267.5,425.167 267.5,424.5C 268.605,423.4 269.938,422.733 271.5,422.5 Z"/></g>
<g><path style="opacity:1" fill="#dfe9ef" d="M 553.5,415.5 C 551.396,417.372 550.063,419.705 549.5,422.5C 548.501,487.998 548.168,553.665 548.5,619.5C 547.539,617.735 547.205,615.735 547.5,613.5C 448.836,615.315 350.17,616.981 251.5,618.5C 254.371,583.798 257.371,549.131 260.5,514.5C 262.22,513.692 263.887,512.692 265.5,511.5C 266.641,508.36 266.808,505.027 266,501.5C 262.199,487.753 260.865,473.753 262,459.5C 264.449,457.387 266.949,457.554 269.5,460C 276.5,460.667 283.5,460.667 290.5,460C 291.056,459.617 291.389,459.117 291.5,458.5C 354.099,459.163 416.766,459.83 479.5,460.5C 474.167,461.167 468.833,461.833 463.5,462.5C 464.311,463.216 464.978,464.05 465.5,465C 463.403,468.286 463.07,471.786 464.5,475.5C 465.688,473.012 467.021,470.678 468.5,468.5C 469.95,469.655 470.95,471.155 471.5,473C 473.825,473.492 475.158,472.492 475.5,470C 474.382,467.941 473.715,465.774 473.5,463.5C 475.672,464.206 477.672,465.206 479.5,466.5C 477.007,472.157 474.007,477.49 470.5,482.5C 466.199,484.317 462.199,486.65 458.5,489.5C 457.289,490.274 457.289,491.107 458.5,492C 465.524,492.831 472.524,492.664 479.5,491.5C 480.127,490.583 480.461,489.583 480.5,488.5C 487.404,476.378 496.238,465.378 507,455.5C 507.953,453.545 509.287,451.878 511,450.5C 511.483,449.552 511.649,448.552 511.5,447.5C 513.823,446.25 516.156,444.917 518.5,443.5C 520.424,459.223 522.424,474.889 524.5,490.5C 520.865,494.307 517.365,498.307 514,502.5C 513.409,503.483 513.743,504.15 515,504.5C 520.719,502.057 526.219,499.224 531.5,496C 532.768,493.837 532.768,491.67 531.5,489.5C 533.354,467.443 535.687,445.443 538.5,423.5C 539.131,421.552 540.131,419.719 541.5,418C 545.298,416.217 549.298,415.384 553.5,415.5 Z"/></g>
<g><path style="opacity:1" fill="#2c4689" d="M 538.5,423.5 C 535.687,445.443 533.354,467.443 531.5,489.5C 529.025,488.313 526.691,488.647 524.5,490.5C 522.424,474.889 520.424,459.223 518.5,443.5C 524.391,435.432 530.891,427.765 538,420.5C 538.483,421.448 538.649,422.448 538.5,423.5 Z"/></g>
<g><path style="opacity:1" fill="#e6d1f0" d="M 267.5,426.5 C 270.964,429.462 274.297,432.629 277.5,436C 273.4,435.619 269.734,434.119 266.5,431.5C 267.497,431.53 268.164,431.03 268.5,430C 268.011,428.862 267.678,427.695 267.5,426.5 Z"/></g>
<g><path style="opacity:1" fill="#dfe9ef" d="M 120.5,426.5 C 122.025,430.365 124.358,433.698 127.5,436.5C 131.224,440.699 135.891,443.365 141.5,444.5C 145.312,445.324 149.312,445.824 153.5,446C 166.291,462.052 182.624,467.885 202.5,463.5C 204.167,463.5 205.833,463.5 207.5,463.5C 209.806,463.007 212.139,462.674 214.5,462.5C 215.339,472.133 214.172,481.467 211,490.5C 207.668,494.578 203.502,495.578 198.5,493.5C 192.797,495.035 188.797,498.535 186.5,504C 180.328,508.633 174.495,508.467 169,503.5C 168.992,505.821 169.825,507.821 171.5,509.5C 171.833,510.167 172.167,510.833 172.5,511.5C 178.707,520.595 187.374,524.262 198.5,522.5C 195.18,529.14 191.847,535.807 188.5,542.5C 186.651,544.174 184.484,545.174 182,545.5C 170.104,539.279 158.437,532.612 147,525.5C 145.826,526.544 144.659,527.544 143.5,528.5C 143.719,527.325 143.386,526.325 142.5,525.5C 140.47,524.828 138.47,524.162 136.5,523.5C 135.027,520.59 132.86,519.923 130,521.5C 129.517,522.448 129.351,523.448 129.5,524.5C 128.549,523.081 128.216,521.415 128.5,519.5C 129.552,519.649 130.552,519.483 131.5,519C 122.395,503.47 116.561,486.636 114,468.5C 113.233,458.131 113.567,447.797 115,437.5C 116.844,433.811 118.678,430.145 120.5,426.5 Z"/></g>
<g><path style="opacity:1" fill="#8d5194" d="M 150.5,421.5 C 156.593,425.744 162.593,430.244 168.5,435C 171.353,436.43 174.353,437.263 177.5,437.5C 175.078,439.364 172.411,439.864 169.5,439C 167.963,440.11 167.297,441.61 167.5,443.5C 164.412,443.197 162.746,444.53 162.5,447.5C 160.876,447.36 159.71,448.027 159,449.5C 157.97,446.368 155.803,444.702 152.5,444.5C 148.115,438.766 145.782,432.432 145.5,425.5C 145.5,424.833 145.5,424.167 145.5,423.5C 146.222,423.918 146.722,424.584 147,425.5C 148.011,424.663 149.178,424.33 150.5,424.5C 150.5,423.5 150.5,422.5 150.5,421.5 Z"/></g>
<g><path style="opacity:1" fill="#915b95" d="M 177.5,437.5 C 177.833,437.5 178.167,437.5 178.5,437.5C 182.701,438.736 187.035,438.736 191.5,437.5C 186.608,439.454 181.274,440.454 175.5,440.5C 175.752,443.37 174.752,445.703 172.5,447.5C 170.286,445.076 169.286,445.743 169.5,449.5C 167.284,449.275 165.617,450.108 164.5,452C 165.893,453.171 166.727,454.671 167,456.5C 169.69,457.929 172.523,458.929 175.5,459.5C 175.297,457.362 174.297,455.695 172.5,454.5C 173,454.167 173.5,453.833 174,453.5C 177.046,455.847 180.046,458.18 183,460.5C 184.356,459.62 185.856,459.286 187.5,459.5C 187.5,460.833 187.5,462.167 187.5,463.5C 192.5,463.5 197.5,463.5 202.5,463.5C 182.624,467.885 166.291,462.052 153.5,446C 149.312,445.824 145.312,445.324 141.5,444.5C 145.167,444.5 148.833,444.5 152.5,444.5C 155.803,444.702 157.97,446.368 159,449.5C 159.71,448.027 160.876,447.36 162.5,447.5C 162.746,444.53 164.412,443.197 167.5,443.5C 167.297,441.61 167.963,440.11 169.5,439C 172.411,439.864 175.078,439.364 177.5,437.5 Z"/></g>
<g><path style="opacity:1" fill="#ec9750" d="M 484.5,335.5 C 485.665,374.998 485.831,414.665 485,454.5C 484.167,455.333 483.333,456.167 482.5,457C 418.834,457.5 355.168,457.667 291.5,457.5C 291.5,456.833 291.167,456.5 290.5,456.5C 292.254,452.742 292.921,448.742 292.5,444.5C 293.483,448.298 293.817,452.298 293.5,456.5C 356.168,456.667 418.834,456.5 481.5,456C 482.333,455.167 483.167,454.333 484,453.5C 484.5,414.168 484.667,374.835 484.5,335.5 Z"/></g>
<g><path style="opacity:1" fill="#e8ddd0" d="M 427.5,329.5 C 427.842,328.662 428.508,328.328 429.5,328.5C 447.17,328.333 464.836,328.5 482.5,329C 484.09,330.046 485.59,331.213 487,332.5C 487.5,372.165 487.667,411.832 487.5,451.5C 485.579,456.954 482.913,461.954 479.5,466.5C 477.672,465.206 475.672,464.206 473.5,463.5C 473.715,465.774 474.382,467.941 475.5,470C 475.158,472.492 473.825,473.492 471.5,473C 470.95,471.155 469.95,469.655 468.5,468.5C 467.021,470.678 465.688,473.012 464.5,475.5C 463.07,471.786 463.403,468.286 465.5,465C 464.978,464.05 464.311,463.216 463.5,462.5C 468.833,461.833 474.167,461.167 479.5,460.5C 416.766,459.83 354.099,459.163 291.5,458.5C 291.5,458.167 291.5,457.833 291.5,457.5C 355.168,457.667 418.834,457.5 482.5,457C 483.333,456.167 484.167,455.333 485,454.5C 485.831,414.665 485.665,374.998 484.5,335.5C 483.871,332.871 482.205,331.204 479.5,330.5C 462.179,329.5 444.846,329.167 427.5,329.5 Z"/></g>
<g><path style="opacity:1" fill="#e7dff5" d="M 287.5,457.5 C 288.609,457.443 289.609,457.11 290.5,456.5C 291.167,456.5 291.5,456.833 291.5,457.5C 291.5,457.833 291.5,458.167 291.5,458.5C 291.389,459.117 291.056,459.617 290.5,460C 283.5,460.667 276.5,460.667 269.5,460C 266.949,457.554 264.449,457.387 262,459.5C 260.865,473.753 262.199,487.753 266,501.5C 266.808,505.027 266.641,508.36 265.5,511.5C 264.111,502.167 262.611,492.833 261,483.5C 260.5,474.173 260.334,464.839 260.5,455.5C 266.655,457.622 272.989,458.955 279.5,459.5C 282.527,459.713 285.193,459.047 287.5,457.5 Z"/></g>
<g><path style="opacity:1" fill="#8d588e" d="M 287.5,457.5 C 285.193,459.047 282.527,459.713 279.5,459.5C 272.989,458.955 266.655,457.622 260.5,455.5C 260.334,464.839 260.5,474.173 261,483.5C 262.611,492.833 264.111,502.167 265.5,511.5C 263.887,512.692 262.22,513.692 260.5,514.5C 253.933,516.1 247.599,515.767 241.5,513.5C 249.046,513.962 256.379,513.295 263.5,511.5C 262.771,502.253 260.937,493.253 258,484.5C 257.558,474.795 257.225,465.129 257,455.5C 261.972,452.854 266.806,453.187 271.5,456.5C 276.792,457.495 282.125,457.828 287.5,457.5 Z"/></g>
<g><path style="opacity:1" fill="#df839e" d="M 549.5,422.5 C 549.5,488.167 549.5,553.833 549.5,619.5C 556.833,619.5 564.167,619.5 571.5,619.5C 600.5,619.5 629.5,619.5 658.5,619.5C 658.5,553.833 658.5,488.167 658.5,422.5C 658.833,422.5 659.167,422.5 659.5,422.5C 659.5,488.5 659.5,554.5 659.5,620.5C 622.33,620.832 585.33,620.498 548.5,619.5C 548.168,553.665 548.501,487.998 549.5,422.5 Z"/></g>
<g><path style="opacity:1" fill="#e8e5f2" d="M 664.5,579.5 C 664.573,581.027 663.906,582.027 662.5,582.5C 662.167,530.829 662.5,479.162 663.5,427.5C 664.5,478.162 664.833,528.829 664.5,579.5 Z"/></g>
<g><path style="opacity:1" fill="#17135d" d="M 470.5,482.5 C 473.877,482.959 477.211,483.626 480.5,484.5C 480.5,485.833 480.5,487.167 480.5,488.5C 480.461,489.583 480.127,490.583 479.5,491.5C 472.524,492.664 465.524,492.831 458.5,492C 457.289,491.107 457.289,490.274 458.5,489.5C 462.199,486.65 466.199,484.317 470.5,482.5 Z"/></g>
<g><path style="opacity:1" fill="#0e0e58" d="M 531.5,489.5 C 532.768,491.67 532.768,493.837 531.5,496C 526.219,499.224 520.719,502.057 515,504.5C 513.743,504.15 513.409,503.483 514,502.5C 517.365,498.307 520.865,494.307 524.5,490.5C 526.691,488.647 529.025,488.313 531.5,489.5 Z"/></g>
<g><path style="opacity:1" fill="#905994" d="M 221.5,513.5 C 214.567,518.16 206.9,521.16 198.5,522.5C 187.374,524.262 178.707,520.595 172.5,511.5C 173.5,511.5 174.5,511.5 175.5,511.5C 175.5,512.5 175.5,513.5 175.5,514.5C 178.967,514.446 181.634,515.946 183.5,519C 188.887,519.784 194.22,519.618 199.5,518.5C 199.833,518.167 200.167,517.833 200.5,517.5C 199.271,516.719 197.938,516.219 196.5,516C 198.723,513.777 201.389,512.444 204.5,512C 203.376,511.161 202.709,509.994 202.5,508.5C 202.982,506.08 204.315,504.247 206.5,503C 204.959,501.421 203.792,499.587 203,497.5C 202.439,496.978 201.772,496.645 201,496.5C 199.351,497.786 198.185,499.453 197.5,501.5C 195.922,502.298 194.256,502.798 192.5,503C 192.833,503.333 193.167,503.667 193.5,504C 192.141,505.204 191.141,506.704 190.5,508.5C 189.201,507.91 188.368,506.91 188,505.5C 185.635,506.289 183.468,507.456 181.5,509C 178.059,509.016 174.726,509.183 171.5,509.5C 169.825,507.821 168.992,505.821 169,503.5C 174.495,508.467 180.328,508.633 186.5,504C 188.797,498.535 192.797,495.035 198.5,493.5C 203.502,495.578 207.668,494.578 211,490.5C 214.172,481.467 215.339,472.133 214.5,462.5C 212.139,462.674 209.806,463.007 207.5,463.5C 209.792,459.974 212.626,459.641 216,462.5C 216.716,470.353 216.549,478.186 215.5,486C 216.396,489.32 217.563,492.487 219,495.5C 221.073,491.732 223.573,489.065 226.5,487.5C 227.386,488.325 227.719,489.325 227.5,490.5C 229.346,490.222 230.68,490.889 231.5,492.5C 230.675,493.386 229.675,493.719 228.5,493.5C 228.649,494.552 228.483,495.552 228,496.5C 226.402,499.925 224.402,500.258 222,497.5C 220.317,500.592 218.484,503.592 216.5,506.5C 215.167,505.5 213.833,504.5 212.5,503.5C 212.694,504.93 212.694,506.43 212.5,508C 213.449,508.617 214.282,508.451 215,507.5C 215.667,508.167 215.667,508.833 215,509.5C 212.022,513.056 208.522,515.056 204.5,515.5C 205.688,516.84 207.188,517.507 209,517.5C 213.152,516.06 217.319,514.727 221.5,513.5 Z"/></g>
<g><path style="opacity:1" fill="#915195" d="M 172.5,511.5 C 172.167,510.833 171.833,510.167 171.5,509.5C 174.726,509.183 178.059,509.016 181.5,509C 183.468,507.456 185.635,506.289 188,505.5C 188.368,506.91 189.201,507.91 190.5,508.5C 191.141,506.704 192.141,505.204 193.5,504C 193.167,503.667 192.833,503.333 192.5,503C 194.256,502.798 195.922,502.298 197.5,501.5C 198.185,499.453 199.351,497.786 201,496.5C 201.772,496.645 202.439,496.978 203,497.5C 203.792,499.587 204.959,501.421 206.5,503C 204.315,504.247 202.982,506.08 202.5,508.5C 202.709,509.994 203.376,511.161 204.5,512C 201.389,512.444 198.723,513.777 196.5,516C 197.938,516.219 199.271,516.719 200.5,517.5C 200.167,517.833 199.833,518.167 199.5,518.5C 194.22,519.618 188.887,519.784 183.5,519C 181.634,515.946 178.967,514.446 175.5,514.5C 175.5,513.5 175.5,512.5 175.5,511.5C 174.5,511.5 173.5,511.5 172.5,511.5 Z"/></g>
<g><path style="opacity:1" fill="#362a38" d="M 241.5,513.5 C 247.599,515.767 253.933,516.1 260.5,514.5C 257.371,549.131 254.371,583.798 251.5,618.5C 252.036,621.698 251.369,624.365 249.5,626.5C 248.167,626.5 246.833,626.5 245.5,626.5C 243.013,624.191 241.013,621.524 239.5,618.5C 235.673,604.261 235.506,589.928 239,575.5C 239.667,570.167 239.667,564.833 239,559.5C 236.383,546.083 233.383,532.75 230,519.5C 218.282,534.216 206.949,549.216 196,564.5C 190.925,570.472 184.758,571.972 177.5,569C 165.63,557.628 153.63,546.461 141.5,535.5C 140.662,535.158 140.328,534.492 140.5,533.5C 141.89,532.101 142.89,530.434 143.5,528.5C 144.659,527.544 145.826,526.544 147,525.5C 158.437,532.612 170.104,539.279 182,545.5C 184.484,545.174 186.651,544.174 188.5,542.5C 191.847,535.807 195.18,529.14 198.5,522.5C 206.9,521.16 214.567,518.16 221.5,513.5C 223.819,512.436 226.319,511.769 229,511.5C 233.204,512.023 237.371,512.69 241.5,513.5 Z"/></g>
<g><path style="opacity:1" fill="#cf4369" d="M 136.5,523.5 C 136.516,525.484 135.516,526.484 133.5,526.5C 131.927,526.248 130.594,525.582 129.5,524.5C 129.351,523.448 129.517,522.448 130,521.5C 132.86,519.923 135.027,520.59 136.5,523.5 Z"/></g>
<g><path style="opacity:1" fill="#f5cccd" d="M 136.5,523.5 C 138.47,524.162 140.47,524.828 142.5,525.5C 143.386,526.325 143.719,527.325 143.5,528.5C 142.89,530.434 141.89,532.101 140.5,533.5C 138.426,528.706 134.759,526.706 129.5,527.5C 129.5,526.5 129.5,525.5 129.5,524.5C 130.594,525.582 131.927,526.248 133.5,526.5C 135.516,526.484 136.516,525.484 136.5,523.5 Z"/></g>
<g><path style="opacity:1" fill="#dee8ee" d="M 239.5,618.5 C 237.234,618.859 235.401,618.192 234,616.5C 231.419,618.897 228.586,619.063 225.5,617C 194.433,594.6 166.933,568.433 143,538.5C 134.883,541.521 134.383,540.521 141.5,535.5C 153.63,546.461 165.63,557.628 177.5,569C 184.758,571.972 190.925,570.472 196,564.5C 206.949,549.216 218.282,534.216 230,519.5C 233.383,532.75 236.383,546.083 239,559.5C 239.667,564.833 239.667,570.167 239,575.5C 235.506,589.928 235.673,604.261 239.5,618.5 Z"/></g>
<g><path style="opacity:1" fill="#8997c7" d="M 415.5,559.5 C 414.263,561.097 412.596,562.263 410.5,563C 386.418,571.023 362.418,579.356 338.5,588C 333.572,589.643 330.072,588.143 328,583.5C 320.522,563.275 313.188,542.941 306,522.5C 304.759,517.655 306.259,513.988 310.5,511.5C 340.082,500.851 369.749,490.351 399.5,480C 405.997,477.831 410.164,479.998 412,486.5C 419.465,507.061 426.631,527.728 433.5,548.5C 433.205,550.971 432.205,553.137 430.5,555C 425.857,557.653 420.857,559.153 415.5,559.5 Z"/></g>
<g><path style="opacity:1" fill="#d9edf7" d="M 415.5,559.5 C 413.473,559.338 411.473,559.505 409.5,560C 389.467,567.343 369.467,574.677 349.5,582C 343.907,583.983 338.241,585.316 332.5,586C 323.795,564.662 315.629,543.162 308,521.5C 307.245,518.503 308.078,516.003 310.5,514C 340.604,503.318 370.604,492.651 400.5,482C 404.305,480.827 407.139,481.993 409,485.5C 416.597,506.79 424.097,528.123 431.5,549.5C 430.455,551.205 429.122,552.705 427.5,554C 424,555.167 420.5,556.333 417,557.5C 415.97,557.836 415.47,558.503 415.5,559.5 Z"/></g>
<g><path style="opacity:1" fill="#aad1e0" d="M 377.5,521.5 C 378.766,522.09 380.099,522.59 381.5,523C 378.706,526.152 379.373,528.485 383.5,530C 381.54,531.985 381.707,534.152 384,536.5C 385.819,534.464 387.653,534.297 389.5,536C 386.937,537.079 384.271,537.579 381.5,537.5C 382.049,532.365 380.049,530.698 375.5,532.5C 375.75,535.214 375.917,537.881 376,540.5C 374.053,541.11 372.219,541.943 370.5,543C 371.65,545.746 372.15,548.579 372,551.5C 368.334,550.011 366.334,551.345 366,555.5C 365.5,553.667 364.333,552.5 362.5,552C 363.682,545.264 361.682,544.098 356.5,548.5C 357.174,551.174 358.841,552.841 361.5,553.5C 360.689,554.216 360.022,555.05 359.5,556C 360.811,559.431 361.811,562.931 362.5,566.5C 363.791,566.263 364.791,566.596 365.5,567.5C 357.387,570.943 349.053,573.61 340.5,575.5C 339.393,571.233 338.06,567.067 336.5,563C 336.833,562.167 337.167,561.333 337.5,560.5C 338.107,560.624 338.44,560.957 338.5,561.5C 337.494,562.396 337.494,563.062 338.5,563.5C 339.435,567.306 340.769,570.972 342.5,574.5C 344.795,573.864 346.461,572.531 347.5,570.5C 346.669,566.857 345.336,563.524 343.5,560.5C 344.167,559.5 344.833,558.5 345.5,557.5C 347.129,556.375 348.629,555.041 350,553.5C 351.622,549.912 353.455,546.579 355.5,543.5C 357.777,546.077 359.944,545.744 362,542.5C 365.666,543.989 367.666,542.655 368,538.5C 369.789,540.229 371.956,540.896 374.5,540.5C 374.167,538.5 373.833,536.5 373.5,534.5C 372.448,534.649 371.448,534.483 370.5,534C 371.967,532.902 372.801,531.402 373,529.5C 375.043,531.967 377.21,531.967 379.5,529.5C 378.931,526.763 377.264,525.263 374.5,525C 375.71,523.961 376.71,522.794 377.5,521.5 Z"/></g>
<g><path style="opacity:1" fill="#d5e7f2" d="M 377.5,521.5 C 376.71,522.794 375.71,523.961 374.5,525C 377.264,525.263 378.931,526.763 379.5,529.5C 377.21,531.967 375.043,531.967 373,529.5C 372.801,531.402 371.967,532.902 370.5,534C 371.448,534.483 372.448,534.649 373.5,534.5C 373.833,536.5 374.167,538.5 374.5,540.5C 371.956,540.896 369.789,540.229 368,538.5C 367.666,542.655 365.666,543.989 362,542.5C 359.944,545.744 357.777,546.077 355.5,543.5C 356.167,543.5 356.5,543.167 356.5,542.5C 359.691,541.908 362.691,540.741 365.5,539C 368.708,534.088 371.541,528.921 374,523.5C 374.816,522.177 375.983,521.511 377.5,521.5 Z"/></g>
<g><path style="opacity:1" fill="#c2e1ee" d="M 390.5,510.5 C 378.458,514.713 370.625,523.046 367,535.5C 363.692,538.229 360.192,540.562 356.5,542.5C 355.07,542.421 353.736,542.754 352.5,543.5C 351.83,545.291 351.163,546.958 350.5,548.5C 348.031,547.393 347.031,545.393 347.5,542.5C 353.109,541.532 358.442,539.698 363.5,537C 359.915,536.253 356.748,537.086 354,539.5C 353.167,537.833 352.333,536.167 351.5,534.5C 352.736,533.643 354.069,532.977 355.5,532.5C 356.833,531.833 356.833,531.167 355.5,530.5C 351.502,532.959 347.335,533.959 343,533.5C 339.254,538.716 336.754,538.383 335.5,532.5C 335.709,531.914 336.043,531.414 336.5,531C 332.355,527.64 332.688,524.973 337.5,523C 336.833,522.833 336.167,522.667 335.5,522.5C 331.936,523.966 328.27,525.132 324.5,526C 326.735,527.357 329.069,527.19 331.5,525.5C 332.318,527.108 332.985,528.775 333.5,530.5C 332.975,531.192 332.308,531.692 331.5,532C 335.094,533.02 336.094,535.187 334.5,538.5C 332.276,539.325 330.276,539.659 328.5,539.5C 325.801,533.594 323.468,527.428 321.5,521C 321.905,520.055 322.572,519.388 323.5,519C 345.796,511.334 368.13,503.501 390.5,495.5C 391.772,495.57 392.938,495.903 394,496.5C 394.311,498.556 394.811,500.556 395.5,502.5C 394.009,503.244 392.509,503.91 391,504.5C 390.505,506.473 390.338,508.473 390.5,510.5 Z"/></g>
<g><path style="opacity:1" fill="#a67381" d="M 394.5,508.5 C 390.172,513.188 384.839,516.688 378.5,519C 377.748,519.671 377.414,520.504 377.5,521.5C 375.983,521.511 374.816,522.177 374,523.5C 371.541,528.921 368.708,534.088 365.5,539C 362.691,540.741 359.691,541.908 356.5,542.5C 360.192,540.562 363.692,538.229 367,535.5C 370.625,523.046 378.458,514.713 390.5,510.5C 392.137,508.684 393.637,506.684 395,504.5C 395.195,505.819 395.028,507.153 394.5,508.5 Z"/></g>
<g><path style="opacity:1" fill="#a0cade" d="M 350.5,548.5 C 350.573,550.027 349.906,551.027 348.5,551.5C 346.801,551.66 345.134,551.494 343.5,551C 345.002,550.417 346.335,549.584 347.5,548.5C 346.754,547.264 346.421,545.93 346.5,544.5C 343.513,544.578 342.847,543.411 344.5,541C 342.228,536.552 339.894,536.719 337.5,541.5C 335.717,539.321 333.717,539.321 331.5,541.5C 330.948,543.003 330.948,544.669 331.5,546.5C 336.041,546.331 336.374,546.998 332.5,548.5C 333.149,551.322 334.815,553.155 337.5,554C 335.954,555.44 335.121,557.273 335,559.5C 332.73,552.857 330.564,546.191 328.5,539.5C 330.276,539.659 332.276,539.325 334.5,538.5C 336.094,535.187 335.094,533.02 331.5,532C 332.308,531.692 332.975,531.192 333.5,530.5C 332.985,528.775 332.318,527.108 331.5,525.5C 329.069,527.19 326.735,527.357 324.5,526C 328.27,525.132 331.936,523.966 335.5,522.5C 336.167,522.667 336.833,522.833 337.5,523C 332.688,524.973 332.355,527.64 336.5,531C 336.043,531.414 335.709,531.914 335.5,532.5C 336.754,538.383 339.254,538.716 343,533.5C 347.335,533.959 351.502,532.959 355.5,530.5C 356.833,531.167 356.833,531.833 355.5,532.5C 354.069,532.977 352.736,533.643 351.5,534.5C 352.333,536.167 353.167,537.833 354,539.5C 356.748,537.086 359.915,536.253 363.5,537C 358.442,539.698 353.109,541.532 347.5,542.5C 347.031,545.393 348.031,547.393 350.5,548.5 Z"/></g>
<g><path style="opacity:1" fill="#d7f0fa" d="M 349.5,534.5 C 352.624,537.59 352.124,539.924 348,541.5C 345.966,540.056 345.132,538.056 345.5,535.5C 347.099,535.768 348.432,535.434 349.5,534.5 Z"/></g>
<g><path style="opacity:1" fill="#c3e1ee" d="M 365.5,567.5 C 364.791,566.596 363.791,566.263 362.5,566.5C 361.811,562.931 360.811,559.431 359.5,556C 360.022,555.05 360.689,554.216 361.5,553.5C 358.841,552.841 357.174,551.174 356.5,548.5C 361.682,544.098 363.682,545.264 362.5,552C 364.333,552.5 365.5,553.667 366,555.5C 366.334,551.345 368.334,550.011 372,551.5C 372.15,548.579 371.65,545.746 370.5,543C 372.219,541.943 374.053,541.11 376,540.5C 375.917,537.881 375.75,535.214 375.5,532.5C 380.049,530.698 382.049,532.365 381.5,537.5C 384.271,537.579 386.937,537.079 389.5,536C 387.653,534.297 385.819,534.464 384,536.5C 381.707,534.152 381.54,531.985 383.5,530C 379.373,528.485 378.706,526.152 381.5,523C 380.099,522.59 378.766,522.09 377.5,521.5C 377.414,520.504 377.748,519.671 378.5,519C 384.839,516.688 390.172,513.188 394.5,508.5C 395.75,508.423 396.583,507.756 397,506.5C 402.265,520.795 407.432,535.129 412.5,549.5C 411.91,550.799 410.91,551.632 409.5,552C 394.717,557.093 380.05,562.26 365.5,567.5 Z"/></g>
<g><path style="opacity:1" fill="#af7b89" d="M 356.5,542.5 C 356.5,543.167 356.167,543.5 355.5,543.5C 353.455,546.579 351.622,549.912 350,553.5C 348.629,555.041 347.129,556.375 345.5,557.5C 346.5,555.5 347.5,553.5 348.5,551.5C 349.906,551.027 350.573,550.027 350.5,548.5C 351.163,546.958 351.83,545.291 352.5,543.5C 353.736,542.754 355.07,542.421 356.5,542.5 Z"/></g>
<g><path style="opacity:1" fill="#996d84" d="M 345.5,557.5 C 344.833,558.5 344.167,559.5 343.5,560.5C 341.668,561.248 340.001,562.248 338.5,563.5C 337.494,563.062 337.494,562.396 338.5,561.5C 340.698,559.902 343.031,558.569 345.5,557.5 Z"/></g>
<g><path style="opacity:1" fill="#d8eefb" d="M 348.5,557.5 C 349.5,557.5 350.5,557.5 351.5,557.5C 352.293,561.88 353.293,566.214 354.5,570.5C 352.54,571.138 350.707,571.138 349,570.5C 348.119,567.07 346.952,563.737 345.5,560.5C 346.77,559.712 347.77,558.712 348.5,557.5 Z"/></g>
<g><path style="opacity:1" fill="#d8effa" d="M 354.5,555.5 C 355.5,555.5 356.5,555.5 357.5,555.5C 358.933,558.883 360.267,562.383 361.5,566C 360.107,568.356 358.274,568.856 356,567.5C 354.637,564.41 353.47,561.244 352.5,558C 353.056,556.989 353.722,556.156 354.5,555.5 Z"/></g>
<g><path style="opacity:1" fill="#daeef9" d="M 343.5,560.5 C 345.336,563.524 346.669,566.857 347.5,570.5C 346.461,572.531 344.795,573.864 342.5,574.5C 340.769,570.972 339.435,567.306 338.5,563.5C 340.001,562.248 341.668,561.248 343.5,560.5 Z"/></g>
<g><path style="opacity:1" fill="#e13369" d="M 553.5,415.5 C 559.5,415.5 565.5,415.5 571.5,415.5C 571.5,483.167 571.5,550.833 571.5,618.5C 571.5,618.833 571.5,619.167 571.5,619.5C 564.167,619.5 556.833,619.5 549.5,619.5C 549.5,553.833 549.5,488.167 549.5,422.5C 550.063,419.705 551.396,417.372 553.5,415.5 Z"/></g>
<g><path style="opacity:1" fill="#fb5e81" d="M 651.5,415.5 C 652.822,415.33 653.989,415.663 655,416.5C 656.421,418.405 657.588,420.405 658.5,422.5C 658.5,488.167 658.5,553.833 658.5,619.5C 629.5,619.5 600.5,619.5 571.5,619.5C 571.5,619.167 571.5,618.833 571.5,618.5C 586.17,618.667 600.837,618.5 615.5,618C 615.833,617.667 616.167,617.333 616.5,617C 615.5,616.667 614.5,616.333 613.5,616C 617.112,614.297 620.445,612.131 623.5,609.5C 607.177,608.667 590.844,608.167 574.5,608C 592.83,607.5 611.164,607.333 629.5,607.5C 629.238,606.022 629.571,604.689 630.5,603.5C 633.853,599.594 637.186,599.261 640.5,602.5C 639.624,603.251 638.624,603.751 637.5,604C 638.973,604.71 639.64,605.876 639.5,607.5C 645.167,607.5 650.833,607.5 656.5,607.5C 657.568,566.173 657.734,524.84 657,483.5C 656.667,483.833 656.333,484.167 656,484.5C 655.692,483.692 655.192,483.025 654.5,482.5C 653.5,483.5 652.5,484.5 651.5,485.5C 650.744,488.977 649.744,492.31 648.5,495.5C 646.801,495.34 645.134,495.506 643.5,496C 640.27,501.027 636.436,505.527 632,509.5C 631.586,509.043 631.086,508.709 630.5,508.5C 629.935,510.51 628.935,512.176 627.5,513.5C 623.995,511.508 622.829,508.508 624,504.5C 627.009,501.158 630.343,498.158 634,495.5C 634.333,494.5 634.667,493.5 635,492.5C 639.17,488.83 643.003,484.83 646.5,480.5C 648.045,479.548 649.712,479.215 651.5,479.5C 652.243,476.43 654.243,474.764 657.5,474.5C 657.667,456.83 657.5,439.164 657,421.5C 653.158,421.818 651.324,419.818 651.5,415.5 Z"/></g>
<g><path style="opacity:1" fill="#fac2c8" d="M 245.5,626.5 C 246.833,626.5 248.167,626.5 249.5,626.5C 249.367,629.587 250.7,631.587 253.5,632.5C 251.143,632.663 248.81,632.497 246.5,632C 245.944,631.617 245.611,631.117 245.5,630.5C 245.5,629.167 245.5,627.833 245.5,626.5 Z"/></g>
<g><path style="opacity:1" fill="#da3c6c" d="M 245.5,630.5 C 245.611,631.117 245.944,631.617 246.5,632C 248.81,632.497 251.143,632.663 253.5,632.5C 260.754,638.61 259.42,640.777 249.5,639C 247.333,637.5 245.167,636 243,634.5C 242.09,632.055 242.924,630.722 245.5,630.5 Z"/></g>
</svg>
