<?xml version="1.0" encoding="UTF-8"?>
<!DOCTYPE svg PUBLIC "-//W3C//DTD SVG 1.1//EN" "http://www.w3.org/Graphics/SVG/1.1/DTD/svg11.dtd">
<svg xmlns="http://www.w3.org/2000/svg" version="1.1" width="512px" height="512px" style="shape-rendering:geometricPrecision; text-rendering:geometricPrecision; image-rendering:optimizeQuality; fill-rule:evenodd; clip-rule:evenodd" xmlns:xlink="http://www.w3.org/1999/xlink">
<g><path style="opacity:0.992" fill="#010102" d="M 19.5,-0.5 C 132.5,-0.5 245.5,-0.5 358.5,-0.5C 367.392,2.5567 373.559,8.5567 377,17.5C 378.401,25.4148 378.901,33.4148 378.5,41.5C 415.502,41.3333 452.502,41.5 489.5,42C 500.5,44.507 507.833,51.007 511.5,61.5C 511.5,167.833 511.5,274.167 511.5,380.5C 507.911,390.586 500.911,397.086 490.5,400C 443.168,400.5 395.835,400.667 348.5,400.5C 353.087,418.596 358.087,436.596 363.5,454.5C 379.786,452.888 391.619,459.222 399,473.5C 400.6,484.761 400.933,496.094 400,507.5C 399.31,509.35 398.144,510.684 396.5,511.5C 319.833,511.5 243.167,511.5 166.5,511.5C 165.164,509.99 163.997,508.323 163,506.5C 162.333,497.5 162.333,488.5 163,479.5C 164.794,468.416 170.96,460.916 181.5,457C 187.757,455.683 194.091,455.183 200.5,455.5C 205.087,437.404 210.087,419.404 215.5,401.5C 167.837,400.667 120.17,400.167 72.5,400C 61.7188,396.609 54.8855,389.442 52,378.5C 51.5,352.169 51.3334,325.835 51.5,299.5C 39.7707,299.912 28.1041,299.412 16.5,298C 8.16212,294.167 2.49545,288 -0.5,279.5C -0.5,231.167 -0.5,182.833 -0.5,134.5C 1.37183,132.396 3.70516,131.063 6.5,130.5C 9.58675,131.053 12.0867,132.72 14,135.5C 14.3333,182.167 14.6667,228.833 15,275.5C 16.4129,279.748 19.2462,282.415 23.5,283.5C 133.333,284.666 243.333,284.833 353.5,284C 358.39,282.611 361.39,279.444 362.5,274.5C 363.499,208.669 363.832,142.669 363.5,76.5C 246.999,76.1671 130.665,76.5005 14.5,77.5C 14.6665,86.8393 14.4998,96.1726 14,105.5C 12.646,109.076 10.146,111.076 6.5,111.5C 3.34772,111.429 1.01439,110.095 -0.5,107.5C -0.5,78.1667 -0.5,48.8333 -0.5,19.5C 3.16667,9.83333 9.83333,3.16667 19.5,-0.5 Z"/></g>
<g><path style="opacity:1" fill="#7fb3fa" d="M 343.5,14.5 C 344.927,17.0236 346.094,19.6902 347,22.5C 347.5,35.4957 347.667,48.4957 347.5,61.5C 236.5,61.5 125.5,61.5 14.5,61.5C 14.3334,48.8289 14.5001,36.1623 15,23.5C 16.5,19.3333 19.3333,16.5 23.5,15C 130.166,14.5 236.833,14.3333 343.5,14.5 Z"/></g>
<g><path style="opacity:1" fill="#60a1f7" d="M 343.5,14.5 C 349.646,13.5465 355.146,14.8799 360,18.5C 361.559,20.2166 362.392,22.2166 362.5,24.5C 362.5,36.8333 362.5,49.1667 362.5,61.5C 357.5,61.5 352.5,61.5 347.5,61.5C 347.667,48.4957 347.5,35.4957 347,22.5C 346.094,19.6902 344.927,17.0236 343.5,14.5 Z"/></g>
<g><path style="opacity:1" fill="#05070a" d="M 262.5,30.5 C 273.632,30.7823 276.299,35.6156 270.5,45C 261.871,47.7651 257.704,44.5985 258,35.5C 259.025,33.313 260.525,31.6464 262.5,30.5 Z"/></g>
<g><path style="opacity:1" fill="#06080c" d="M 294.5,30.5 C 303.152,29.9858 306.652,33.9858 305,42.5C 299.186,48.2051 294.186,47.5384 290,40.5C 289.438,36.2315 290.938,32.8982 294.5,30.5 Z"/></g>
<g><path style="opacity:1" fill="#05070a" d="M 326.5,30.5 C 336.059,29.546 339.559,33.546 337,42.5C 331.837,48.0623 327.171,47.729 323,41.5C 321.662,36.9597 322.829,33.293 326.5,30.5 Z"/></g>
<g><path style="opacity:1" fill="#3e6e90" d="M 76.5,384.5 C 207.168,384.833 337.835,384.5 468.5,383.5C 469.333,381.833 470.167,380.167 471,378.5C 471.5,365.171 471.667,351.837 471.5,338.5C 344.332,338.833 217.332,338.5 90.5,337.5C 218.5,337.667 346.5,337.5 474.5,337C 476.667,336.167 478.167,334.667 479,332.5C 479.667,290.5 479.667,248.5 479,206.5C 477.299,202.125 474.133,200.458 469.5,201.5C 471.807,194.698 472.14,187.698 470.5,180.5C 474.493,180.755 477.326,179.089 479,175.5C 479.985,142.748 479.652,110.081 478,77.5C 477.097,76.2986 475.931,75.4652 474.5,75C 442.502,74.5 410.502,74.3334 378.5,74.5C 378.5,68.5 378.5,62.5 378.5,56.5C 414.502,56.3333 450.502,56.5 486.5,57C 491.245,58.1148 494.412,60.9481 496,65.5C 496.667,169.167 496.667,272.833 496,376.5C 494.402,381.099 491.235,383.932 486.5,385C 349.666,385.833 212.999,385.666 76.5,384.5 Z"/></g>
<g><path style="opacity:1" fill="#497fa9" d="M 394.5,57.5 C 418.836,57.3334 443.169,57.5 467.5,58C 471.078,62.5095 472.412,67.6762 471.5,73.5C 445.833,73.5 420.167,73.5 394.5,73.5C 394.5,68.1667 394.5,62.8333 394.5,57.5 Z"/></g>
<g><path style="opacity:1" fill="#4b6b97" d="M 362.5,24.5 C 363.495,36.989 363.829,49.6557 363.5,62.5C 246.999,62.8329 130.665,62.4995 14.5,61.5C 125.5,61.5 236.5,61.5 347.5,61.5C 352.5,61.5 357.5,61.5 362.5,61.5C 362.5,49.1667 362.5,36.8333 362.5,24.5 Z"/></g>
<g><path style="opacity:1" fill="#e2f4fd" d="M 14.5,77.5 C 125.5,77.5 236.5,77.5 347.5,77.5C 347.667,143.168 347.5,208.834 347,274.5C 346.604,277.696 345.438,280.53 343.5,283C 236.834,283.5 130.167,283.667 23.5,283.5C 19.2462,282.415 16.4129,279.748 15,275.5C 14.6667,228.833 14.3333,182.167 14,135.5C 12.0867,132.72 9.58675,131.053 6.5,130.5C 6.5,124.167 6.5,117.833 6.5,111.5C 10.146,111.076 12.646,109.076 14,105.5C 14.4998,96.1726 14.6665,86.8393 14.5,77.5 Z"/></g>
<g><path style="opacity:1" fill="#bae2ed" d="M 347.5,77.5 C 352.5,77.5 357.5,77.5 362.5,77.5C 362.5,143.167 362.5,208.833 362.5,274.5C 361.39,279.444 358.39,282.611 353.5,284C 243.333,284.833 133.333,284.666 23.5,283.5C 130.167,283.667 236.834,283.5 343.5,283C 345.438,280.53 346.604,277.696 347,274.5C 347.5,208.834 347.667,143.168 347.5,77.5 Z"/></g>
<g><path style="opacity:1" fill="#6d8086" d="M 14.5,77.5 C 130.665,76.5005 246.999,76.1671 363.5,76.5C 363.832,142.669 363.499,208.669 362.5,274.5C 362.5,208.833 362.5,143.167 362.5,77.5C 357.5,77.5 352.5,77.5 347.5,77.5C 236.5,77.5 125.5,77.5 14.5,77.5 Z"/></g>
<g><path style="opacity:1" fill="#61a2f8" d="M 394.5,89.5 C 394.667,152.834 394.5,216.168 394,279.5C 389.063,299.437 376.563,311.603 356.5,316C 270.834,316.5 185.167,316.667 99.5,316.5C 99.5,310.833 99.5,305.167 99.5,299.5C 184.167,299.667 268.834,299.5 353.5,299C 367.211,296.956 375.377,289.123 378,275.5C 378.5,213.501 378.667,151.501 378.5,89.5C 383.833,89.5 389.167,89.5 394.5,89.5 Z"/></g>
<g><path style="opacity:1" fill="#7fb3fa" d="M 394.5,89.5 C 417.833,89.5 441.167,89.5 464.5,89.5C 464.333,118.502 464.5,147.502 465,176.5C 466.018,178.928 467.852,180.262 470.5,180.5C 472.14,187.698 471.807,194.698 469.5,201.5C 467.629,201.859 466.129,202.859 465,204.5C 464.5,243.832 464.333,283.165 464.5,322.5C 342.833,322.5 221.167,322.5 99.5,322.5C 99.5,320.5 99.5,318.5 99.5,316.5C 185.167,316.667 270.834,316.5 356.5,316C 376.563,311.603 389.063,299.437 394,279.5C 394.5,216.168 394.667,152.834 394.5,89.5 Z"/></g>
<g><path style="opacity:1" fill="#040303" d="M 36.5,94.5 C 71.8349,94.3333 107.168,94.5 142.5,95C 144.286,95.7845 145.786,96.9512 147,98.5C 147.667,111.5 147.667,124.5 147,137.5C 146.5,139.333 145.333,140.5 143.5,141C 107.833,141.667 72.1667,141.667 36.5,141C 34.3333,140.167 32.8333,138.667 32,136.5C 31.3333,124.167 31.3333,111.833 32,99.5C 33.025,97.313 34.525,95.6464 36.5,94.5 Z"/></g>
<g><path style="opacity:1" fill="#040403" d="M 334.5,94.5 C 342.709,93.8724 346.209,97.5391 345,105.5C 329.153,158.557 313.153,211.557 297,264.5C 293.132,267.128 289.299,267.128 285.5,264.5C 279.638,250.914 273.971,237.248 268.5,223.5C 265.216,222.343 261.882,222.176 258.5,223C 244.797,225.284 231.13,227.784 217.5,230.5C 212.38,229.438 210.046,226.271 210.5,221C 212.85,204.739 215.35,188.572 218,172.5C 204.597,166.809 191.097,161.309 177.5,156C 172.636,151.965 172.302,147.632 176.5,143C 229.274,126.812 281.94,110.646 334.5,94.5 Z"/></g>
<g><path style="opacity:1" fill="#e177b0" d="M 46.5,109.5 C 75.1667,109.5 103.833,109.5 132.5,109.5C 132.5,115.167 132.5,120.833 132.5,126.5C 103.833,126.5 75.1667,126.5 46.5,126.5C 46.5,120.833 46.5,115.167 46.5,109.5 Z"/></g>
<g><path style="opacity:1" fill="#fadc7b" d="M 307.5,118.5 C 308.552,118.351 309.552,118.517 310.5,119C 292.959,136.875 275.126,154.375 257,171.5C 239.299,164.73 221.799,157.563 204.5,150C 238.987,139.634 273.32,129.134 307.5,118.5 Z"/></g>
<g><path style="opacity:1" fill="#fadb7a" d="M 321.5,128.5 C 311.687,164.369 301.187,200.369 290,236.5C 282.695,218.723 275.528,200.89 268.5,183C 285.994,164.673 303.661,146.506 321.5,128.5 Z"/></g>
<g><path style="opacity:1" fill="#060707" d="M 36.5,158.5 C 75.1681,158.333 113.835,158.5 152.5,159C 157.689,161.913 158.856,166.08 156,171.5C 155.25,172.126 154.416,172.626 153.5,173C 114.5,173.667 75.5,173.667 36.5,173C 33.3649,171.734 31.6983,169.401 31.5,166C 32.5463,163.114 34.2129,160.614 36.5,158.5 Z"/></g>
<g><path style="opacity:1" fill="#f7bc4d" d="M 232.5,178.5 C 239.579,180.869 246.579,183.536 253.5,186.5C 256.576,192.821 259.243,199.321 261.5,206C 261.095,206.945 260.428,207.612 259.5,208C 248.484,209.836 237.484,211.669 226.5,213.5C 228.393,201.807 230.393,190.141 232.5,178.5 Z"/></g>
<g><path style="opacity:1" fill="#09090a" d="M 35.5,191.5 C 85.1678,191.333 134.834,191.5 184.5,192C 190.133,197.487 189.466,202.154 182.5,206C 134.167,206.667 85.8333,206.667 37.5,206C 30.4516,201.987 29.7849,197.154 35.5,191.5 Z"/></g>
<g><path style="opacity:1" fill="#09090a" d="M 35.5,223.5 C 85.1678,223.333 134.834,223.5 184.5,224C 190.133,229.487 189.466,234.154 182.5,238C 134.167,238.667 85.8333,238.667 37.5,238C 30.4516,233.987 29.7849,229.154 35.5,223.5 Z"/></g>
<g><path style="opacity:1" fill="#3a6686" d="M 84.5,331.5 C 83.5128,326.695 83.1795,321.695 83.5,316.5C 78.1667,316.5 72.8333,316.5 67.5,316.5C 67.5,336.167 67.5,355.833 67.5,375.5C 66.5023,350.339 66.1689,325.005 66.5,299.5C 72.5,299.5 78.5,299.5 84.5,299.5C 84.5,310.167 84.5,320.833 84.5,331.5 Z"/></g>
<g><path style="opacity:1" fill="#497fa9" d="M 84.5,331.5 C 85.5,334.5 87.5,336.5 90.5,337.5C 217.332,338.5 344.332,338.833 471.5,338.5C 471.667,351.837 471.5,365.171 471,378.5C 470.167,380.167 469.333,381.833 468.5,383.5C 337.835,384.5 207.168,384.833 76.5,384.5C 71.869,383.202 68.869,380.202 67.5,375.5C 67.5,355.833 67.5,336.167 67.5,316.5C 72.8333,316.5 78.1667,316.5 83.5,316.5C 83.1795,321.695 83.5128,326.695 84.5,331.5 Z"/></g>
<g><path style="opacity:1" fill="#355d7b" d="M 324.5,463.5 C 317.745,463.207 311.078,463.54 304.5,464.5C 304.854,461.039 303.521,458.539 300.5,457C 272.502,456.5 244.502,456.333 216.5,456.5C 220.88,438.022 225.88,419.689 231.5,401.5C 265.16,400.5 298.827,400.167 332.5,400.5C 337.498,419.161 342.498,437.827 347.5,456.5C 341.158,456.334 334.825,456.5 328.5,457C 326.266,458.638 324.933,460.805 324.5,463.5 Z"/></g>
<g><path style="opacity:1" fill="#497fa9" d="M 324.5,463.5 C 325.183,467.02 327.183,469.52 330.5,471C 340.828,471.5 351.161,471.666 361.5,471.5C 362.907,473.308 364.074,475.308 365,477.5C 365.5,483.825 365.666,490.158 365.5,496.5C 303.167,496.5 240.833,496.5 178.5,496.5C 178.334,490.491 178.501,484.491 179,478.5C 180.5,475.667 182.667,473.5 185.5,472C 223.5,471.667 261.5,471.333 299.5,471C 302.493,469.841 304.16,467.675 304.5,464.5C 311.078,463.54 317.745,463.207 324.5,463.5 Z"/></g>
<g><path style="opacity:1" fill="#3f6f91" d="M 361.5,471.5 C 380.946,468.615 388.946,476.948 385.5,496.5C 378.833,496.5 372.167,496.5 365.5,496.5C 365.666,490.158 365.5,483.825 365,477.5C 364.074,475.308 362.907,473.308 361.5,471.5 Z"/></g>
</svg>
