<svg width="634" height="422" viewBox="0 0 634 422" fill="none" xmlns="http://www.w3.org/2000/svg">
<path d="M431.625 149.309H253.127C248.498 149.309 244.773 145.416 244.773 140.62V104.301C244.773 99.5044 248.533 95.6118 253.127 95.6118H431.625C436.254 95.6118 439.979 99.5044 439.979 104.301V140.62C439.979 145.416 436.22 149.309 431.625 149.309Z" fill="#D7F5F7"/>
<path d="M91.9643 114.762H49.5329C46.9222 114.762 44.7989 112.573 44.7989 109.827V75.6277C44.7989 72.9167 46.9222 70.6924 49.5329 70.6924H91.9643C94.5749 70.6924 96.6982 72.882 96.6982 75.6277V109.827C96.6982 112.538 94.5749 114.762 91.9643 114.762Z" fill="#D7F5F7"/>
<path d="M415.056 289.547H372.624C370.014 289.547 367.89 287.357 367.89 284.612V250.412C367.89 247.701 370.014 245.477 372.624 245.477H415.056C417.666 245.477 419.79 247.667 419.79 250.412V284.612C419.79 287.357 417.666 289.547 415.056 289.547Z" fill="#D7F5F7"/>
<path d="M30.2142 328.334H8.35456C6.99703 328.334 5.91797 327.187 5.91797 325.797V308.176C5.91797 306.786 6.99703 305.639 8.35456 305.639H30.2142C31.5718 305.639 32.6508 306.786 32.6508 308.176V325.797C32.6508 327.222 31.5718 328.334 30.2142 328.334Z" fill="#D7F5F7"/>
<path d="M235.097 35.5893H213.237C211.88 35.5893 210.801 34.4424 210.801 33.0522V15.4312C210.801 14.041 211.88 12.894 213.237 12.894H235.097C236.455 12.894 237.534 14.041 237.534 15.4312V33.0522C237.534 34.4424 236.455 35.5893 235.097 35.5893Z" fill="#D7F5F7"/>
<path d="M602.15 172.977C605.666 166.478 607.65 159.075 607.65 151.186C607.65 136.38 600.618 123.208 589.723 114.831C592.508 110.035 594.109 104.509 594.109 98.5659C594.109 80.6669 579.559 66.1392 561.633 66.1392C543.707 66.1392 529.157 80.6669 529.157 98.5659C529.157 104.509 530.758 110.035 533.543 114.831C522.648 123.242 515.616 136.38 515.616 151.186C515.616 159.075 517.6 166.513 521.116 172.977C506.497 184.759 497.168 202.797 497.168 223.025C497.168 258.58 526.024 287.392 561.633 287.392C597.242 287.392 626.098 258.58 626.098 223.025C626.133 202.832 616.77 184.794 602.15 172.977Z" fill="#D7F5F7"/>
<g opacity="0.5">
<path d="M563.966 396.489H559.371V142.566C559.371 141.28 560.415 140.272 561.668 140.272C562.956 140.272 563.966 141.315 563.966 142.566V396.489Z" fill="#B4CFFE"/>
<path d="M561.981 190.598L559.997 188.617C559.649 188.27 559.649 187.679 559.997 187.331L585.025 162.342C585.93 161.439 587.392 161.439 588.297 162.342C589.202 163.246 589.202 164.706 588.297 165.609L563.269 190.598C562.886 190.946 562.33 190.946 561.981 190.598Z" fill="#B4CFFE"/>
<path d="M560.763 221.635L562.747 219.654C563.096 219.306 563.096 218.716 562.747 218.368L537.72 193.379C536.815 192.475 535.353 192.475 534.448 193.379C533.543 194.283 533.543 195.742 534.448 196.646L559.476 221.635C559.824 221.983 560.381 221.983 560.763 221.635Z" fill="#B4CFFE"/>
</g>
<path d="M267.05 51.7159H280.869C280.452 50.7427 280.208 49.7001 280.208 48.5879C280.208 44.313 283.689 40.8375 287.97 40.8375C289.397 40.8375 290.72 41.2545 291.869 41.9149V41.8801C291.556 40.3856 291.416 38.8564 291.416 37.2577C291.416 24.3286 301.928 13.8325 314.877 13.8325C326.677 13.8325 336.458 22.5561 338.094 33.8516C343.838 27.1786 356.717 33.9211 352.958 43.4441C354.385 41.8454 356.438 40.8375 358.736 40.8375C363.017 40.8375 366.498 44.313 366.498 48.5879C366.498 49.7001 366.254 50.7775 365.837 51.7159H374.852C376.279 51.7159 377.428 52.8976 377.428 54.2878C377.428 55.7128 376.279 56.8597 374.852 56.8597H327.722H302.068H267.05C265.623 56.8597 264.475 55.7128 264.475 54.2878C264.475 52.8976 265.623 51.7159 267.05 51.7159Z" fill="#D7F5F7"/>
<path d="M138.399 399.235C153.471 389.747 161.616 361.143 161.616 361.143C140.592 367.573 127.852 393.188 127.852 393.188C132.829 375.011 124.023 362.29 124.023 362.29C114.694 369.345 115.634 393.605 115.634 393.605C107.454 354.644 74.2468 345.955 74.2468 345.955C71.5666 366.947 79.7466 388.982 99.5177 398.47L138.399 399.235Z" fill="#D7F5F7"/>
<path d="M295.524 393.152V396.941H232.486C213.063 396.941 215.917 379.146 215.917 379.146L218.98 344.286L224.132 340.498L276.936 344.286L268.025 392.527L295.524 393.152Z" fill="#383C56"/>
<path d="M233.495 393.153C216.856 393.153 221.033 375.358 221.033 375.358L224.096 340.463H282.017L278.954 375.358C278.954 375.358 276.1 393.153 295.523 393.153H233.495Z" fill="#3C4D77"/>
<path d="M315.087 393.152H253.023V396.941H315.087V393.152Z" fill="#7285B2"/>
<path d="M366.777 344.252H105.331C92.5568 344.356 89.25 341.68 89.25 332.713L89.9114 79.1376C89.8417 73.5767 95.968 66.7646 109.091 66.7646C109.195 66.7646 113.094 66.7994 113.198 66.7994L386.653 74.2371C387.941 74.2718 388.881 75.1755 388.95 76.4614L399.323 323.85C399.323 324.094 399.323 324.337 399.254 324.58C394.868 344.738 381.571 344.738 366.777 344.252Z" fill="#383C56"/>
<path d="M390.238 336.71H106.759C103.104 336.71 100.424 334.103 100.424 330.489L100.772 75.6969C100.772 71.0397 105.158 66.73 109.927 66.73H393.406C397.061 66.73 399.741 69.3366 399.741 72.9512L399.393 327.743C399.358 332.4 394.972 336.71 390.238 336.71Z" fill="#3C4D77"/>
<path d="M387.279 280.093H111.388C108.882 280.093 107.037 278.321 107.037 275.853L106.41 81.6747C106.41 78.4772 109.404 75.4883 112.676 75.4883H388.567C391.073 75.4883 392.918 77.2608 392.918 79.7284L393.545 273.872C393.579 277.104 390.551 280.093 387.279 280.093Z" fill="#383C56"/>
<path d="M384.181 276.027H115.286C113.79 276.027 112.711 274.984 112.711 273.525L112.293 145.868L112.084 83.204C112.084 81.2925 113.859 79.5547 115.808 79.5547H384.703C386.2 79.5547 387.279 80.5974 387.279 82.0571L387.488 145.868L387.906 272.412C387.906 274.289 386.13 276.027 384.181 276.027Z" fill="white"/>
<path d="M243.834 194.769H125.102C123.884 194.769 123.049 193.761 123.292 192.545C123.536 191.328 124.685 190.32 125.938 190.32H244.669C245.887 190.32 246.723 191.328 246.479 192.545C246.236 193.761 245.052 194.769 243.834 194.769Z" fill="#D7F5F7"/>
<path d="M373.669 208.775H125.067C123.849 208.775 123.014 207.767 123.257 206.551C123.501 205.335 124.65 204.327 125.903 204.327H374.504C375.722 204.327 376.558 205.335 376.314 206.551C376.07 207.767 374.887 208.775 373.669 208.775Z" fill="#D7F5F7"/>
<path d="M373.809 223.303H125.208C123.99 223.303 123.154 222.295 123.398 221.079C123.641 219.862 124.79 218.854 126.043 218.854H374.645C375.863 218.854 376.698 219.862 376.455 221.079C376.211 222.295 375.028 223.303 373.809 223.303Z" fill="#D7F5F7"/>
<path d="M373.775 237.831H125.208C123.99 237.831 123.154 236.823 123.398 235.607C123.641 234.39 124.79 233.382 126.043 233.382H374.645C375.863 233.382 376.698 234.39 376.455 235.607C376.176 236.823 375.028 237.831 373.775 237.831Z" fill="#D7F5F7"/>
<path d="M387.488 151.29L112.293 150.942L112.084 83.204C112.084 81.2925 113.859 79.5547 115.808 79.5547H384.703C386.2 79.5547 387.279 80.5974 387.279 82.0571L387.488 151.29Z" fill="#EBAC3B"/>
<path d="M378.368 144.443H228.866C227.648 144.443 226.812 143.435 227.056 142.218C227.3 141.002 228.448 139.994 229.701 139.994H379.169C380.387 139.994 381.222 141.002 380.979 142.218C380.77 143.47 379.586 144.443 378.368 144.443Z" fill="white"/>
<path d="M319.333 114.067H224.794C223.576 114.067 222.74 113.059 222.984 111.843C223.227 110.626 224.376 109.618 225.629 109.618H320.134C321.352 109.618 322.188 110.626 321.944 111.843C321.735 113.094 320.552 114.067 319.333 114.067Z" fill="white"/>
<path d="M297.44 103.536H227.649C223.959 103.536 221.557 100.547 222.219 96.8975C222.915 93.2135 226.431 90.2593 230.12 90.2593H299.911C303.601 90.2593 306.003 93.2482 305.341 96.8975C304.645 100.582 301.095 103.536 297.44 103.536Z" fill="white"/>
<path d="M198.235 144.443H133.77C130.498 144.443 127.783 141.801 127.783 138.5L127.33 91.7537C127.296 88.4867 129.941 85.8105 133.213 85.8105H197.678C200.95 85.8105 203.665 88.452 203.665 91.7537L204.118 138.5C204.153 141.801 201.507 144.443 198.235 144.443Z" fill="white"/>
<path d="M495.951 128.525H372.033C367.23 128.525 363.331 124.633 363.297 119.836L363.262 59.4315C363.262 54.6353 367.16 50.7427 371.964 50.7427H495.882C500.685 50.7427 504.584 54.6353 504.619 59.4315L504.653 119.836C504.653 124.633 500.755 128.525 495.951 128.525Z" fill="#168B9A"/>
<path d="M494.246 73.8899C494.072 74.6893 493.376 75.3149 492.54 75.3149H375.34C374.366 75.3149 373.6 74.5155 373.6 73.5771C373.6 73.4729 373.6 73.3338 373.635 73.2296C373.774 72.4302 374.505 71.8394 375.34 71.8394H492.54C493.515 71.8394 494.281 72.6387 494.281 73.5771C494.281 73.6814 494.281 73.7857 494.246 73.8899Z" fill="#2BADA6"/>
<path d="M445.062 71.8047L444.4 75.2802H375.375C374.401 75.2802 373.635 74.4809 373.635 73.5425C373.635 73.4382 373.635 73.2992 373.67 73.1949C373.809 72.3955 374.54 71.8047 375.375 71.8047H445.062Z" fill="#EBAC3B"/>
<path d="M447.673 73.0904C447.29 75.0367 445.41 76.6007 443.461 76.6007C441.512 76.6007 440.224 75.0367 440.607 73.0904C440.99 71.1441 442.869 69.5801 444.819 69.5801C446.768 69.5801 448.056 71.1441 447.673 73.0904Z" fill="white"/>
<path d="M411.263 67.5993H376.35C374.818 67.5993 373.6 66.3828 373.6 64.8536C373.6 63.3244 374.818 62.1079 376.35 62.1079H411.263C412.794 62.1079 414.012 63.3244 414.012 64.8536C414.012 66.3481 412.794 67.5993 411.263 67.5993Z" fill="white"/>
<path d="M494.281 94.8128C494.107 95.6121 493.411 96.2377 492.575 96.2377H375.375C374.401 96.2377 373.635 95.4384 373.635 94.5C373.635 94.3957 373.635 94.2567 373.67 94.1524C373.809 93.353 374.54 92.7622 375.375 92.7622H492.54C493.515 92.7622 494.281 93.5616 494.281 94.5C494.316 94.6042 494.281 94.7085 494.281 94.8128Z" fill="#2BADA6"/>
<path d="M476.215 92.7275L475.554 96.2031H375.375C374.401 96.2031 373.635 95.4037 373.635 94.4653C373.635 94.361 373.635 94.222 373.67 94.1178C373.809 93.3184 374.54 92.7275 375.375 92.7275H476.215Z" fill="#EBAC3B"/>
<path d="M478.374 94.4654C477.991 96.4117 476.111 97.9757 474.162 97.9757C472.213 97.9757 470.925 96.4117 471.308 94.4654C471.691 92.5191 473.57 90.9551 475.52 90.9551C477.469 90.9551 478.757 92.5191 478.374 94.4654Z" fill="white"/>
<path d="M411.298 88.4874H376.385C374.853 88.4874 373.635 87.271 373.635 85.7418C373.635 84.2125 374.853 82.9961 376.385 82.9961H411.298C412.829 82.9961 414.048 84.2125 414.048 85.7418C414.048 87.271 412.794 88.4874 411.298 88.4874Z" fill="white"/>
<path d="M494.281 115.7C494.107 116.5 493.411 117.125 492.575 117.125H375.375C374.401 117.125 373.635 116.326 373.635 115.388C373.635 115.283 373.635 115.144 373.67 115.04C373.809 114.241 374.54 113.65 375.375 113.65H492.575C493.55 113.65 494.316 114.415 494.316 115.388C494.316 115.492 494.316 115.596 494.281 115.7Z" fill="#2BADA6"/>
<path d="M457.105 113.65L456.444 117.125H375.375C374.401 117.125 373.635 116.326 373.635 115.388C373.635 115.283 373.635 115.144 373.67 115.04C373.809 114.241 374.54 113.65 375.375 113.65H457.105Z" fill="#EBAC3B"/>
<path d="M459.368 115.388C458.985 117.334 457.105 118.898 455.156 118.898C453.207 118.898 451.919 117.334 452.302 115.388C452.685 113.441 454.564 111.877 456.514 111.877C458.463 111.877 459.751 113.441 459.368 115.388Z" fill="white"/>
<path d="M411.298 109.41H376.385C374.853 109.41 373.635 108.193 373.635 106.664C373.635 105.135 374.853 103.918 376.385 103.918H411.298C412.829 103.918 414.048 105.135 414.048 106.664C414.048 108.193 412.829 109.41 411.298 109.41Z" fill="white"/>
<path d="M183.718 301.746H45.529C42.0134 301.746 39.1591 298.896 39.1591 295.386L39.0547 128.803C39.0547 125.293 41.909 122.443 45.4246 122.443H183.614C187.13 122.443 189.984 125.293 189.984 128.803L190.088 295.386C190.053 298.896 187.234 301.746 183.718 301.746Z" fill="#168B9A"/>
<path d="M153.33 283.222H75.7419C69.8941 283.222 65.1602 278.495 65.1602 272.656C65.1602 266.817 69.8941 262.09 75.7419 262.09H153.33C159.178 262.09 163.912 266.817 163.912 272.656C163.912 278.495 159.178 283.222 153.33 283.222Z" fill="#2BADA6"/>
<path d="M130.111 272.656C130.111 281.24 123.149 288.191 114.552 288.191C105.954 288.191 98.9922 281.24 98.9922 272.656C98.9922 264.071 105.954 257.12 114.552 257.12C123.114 257.12 130.076 264.071 130.111 272.656Z" fill="white"/>
<path d="M124.065 282.248C129.367 276.983 129.39 268.422 124.116 263.129C118.843 257.835 110.269 257.812 104.967 263.077C99.6653 268.343 99.6423 276.903 104.916 282.197C110.19 287.491 118.763 287.514 124.065 282.248Z" fill="#EBAC3B"/>
<path d="M110.027 277.869V267.443C110.027 266.713 110.793 266.226 111.455 266.574L121.897 271.717C122.628 272.065 122.628 273.108 121.897 273.49L111.455 278.738C110.793 279.086 110.027 278.599 110.027 277.869Z" fill="white"/>
<path d="M87.3335 271.578C87.1594 271.752 86.9854 271.961 86.7765 272.134C86.324 272.551 85.9063 273.003 85.4538 273.455C85.3146 273.594 85.1753 273.733 85.0361 273.872C85.0013 273.907 85.0013 273.976 85.0013 274.011C85.1753 274.915 85.3146 275.818 85.4886 276.722C85.5234 276.861 85.5234 277 85.5582 277.174C85.2798 277.035 85.0709 276.931 84.8273 276.792C84.0963 276.409 83.3653 276.062 82.6691 275.679H82.6343C81.6945 276.166 80.7895 276.687 79.8497 277.174C79.8148 277.174 79.78 277.209 79.7452 277.209C79.7452 277.174 79.7452 277.139 79.7452 277.104C79.8845 276.27 80.0237 275.436 80.1629 274.602C80.1977 274.428 80.2326 274.22 80.2674 274.046C80.2674 273.976 80.2674 273.942 80.1977 273.907C79.432 273.177 78.6662 272.447 77.9352 271.717L77.9004 271.683C78.1092 271.648 78.3181 271.613 78.5269 271.578C79.1883 271.474 79.8497 271.37 80.511 271.266C80.6851 271.231 80.8939 271.196 81.068 271.196C81.1376 271.196 81.1724 271.161 81.2072 271.092C81.6597 270.153 82.1122 269.25 82.5647 268.311C82.5647 268.277 82.5995 268.277 82.5995 268.242V268.207C82.6691 268.311 82.7039 268.416 82.7736 268.52C83.2261 269.389 83.6438 270.258 84.0963 271.126C85.1405 271.265 86.2196 271.405 87.2638 271.578C87.2987 271.544 87.3335 271.578 87.3335 271.578Z" fill="white"/>
<path d="M148.247 269.32C148.247 269.007 148.003 268.763 147.759 268.798C146.785 268.972 145.914 269.667 145.427 270.64H144.801C143.826 270.64 143.025 271.613 143.025 272.795C143.025 273.977 143.826 274.95 144.801 274.95H145.427C145.949 275.923 146.785 276.618 147.759 276.792C148.003 276.827 148.247 276.583 148.247 276.271V269.32Z" fill="white"/>
<path d="M149.814 277.001C149.674 277.001 149.535 276.896 149.5 276.792C149.431 276.618 149.535 276.444 149.709 276.375C151.38 275.819 152.494 274.22 152.494 272.482C152.494 270.71 151.38 269.146 149.709 268.59C149.535 268.52 149.431 268.346 149.5 268.173C149.57 267.999 149.744 267.895 149.918 267.964C151.867 268.625 153.155 270.432 153.155 272.482C153.155 274.533 151.867 276.34 149.918 277.001C149.883 277.001 149.848 277.001 149.814 277.001Z" fill="white"/>
<path d="M149.674 274.776C149.57 274.776 149.465 274.742 149.431 274.637C149.326 274.498 149.326 274.29 149.5 274.185C150.022 273.768 150.336 273.143 150.336 272.448C150.336 271.787 150.022 271.127 149.5 270.71C149.361 270.606 149.326 270.397 149.431 270.258C149.535 270.119 149.744 270.084 149.883 270.189C150.579 270.745 150.962 271.544 150.962 272.448C150.962 273.317 150.579 274.151 149.883 274.707C149.814 274.742 149.744 274.776 149.674 274.776Z" fill="white"/>
<path d="M152.633 267.895L142.713 277.8" stroke="#7BA9FA" stroke-width="5.4874" stroke-miterlimit="10" stroke-linecap="round" stroke-linejoin="round"/>
<path d="M152.982 267.547L142.992 277.522" stroke="white" stroke-width="2.7437" stroke-miterlimit="10" stroke-linecap="round" stroke-linejoin="round"/>
<path d="M170.875 222.643H53.9536C51.8303 222.643 50.1247 220.94 50.1247 218.82L50.0898 137.284C50.0898 135.163 51.7955 133.46 53.9188 133.46H170.84C172.963 133.46 174.669 135.163 174.669 137.284L174.704 218.82C174.669 220.94 172.963 222.643 170.875 222.643Z" fill="#2BADA6"/>
<path d="M174.703 240.194C174.703 240.75 174.459 241.272 174.111 241.654C173.728 242.036 173.206 242.245 172.649 242.245H52.2119C51.0632 242.245 50.1582 241.306 50.1582 240.194C50.1582 239.638 50.4019 239.117 50.7499 238.734C51.1328 238.352 51.655 238.144 52.2119 238.144H172.614C173.763 238.144 174.703 239.082 174.703 240.194Z" fill="#2BADA6"/>
<path d="M91.0929 238.144V242.279H52.2119C51.0632 242.279 50.1582 241.341 50.1582 240.229C50.1582 239.673 50.4019 239.151 50.7499 238.769C51.1328 238.387 51.655 238.178 52.2119 238.178H91.0929V238.144Z" fill="#EBAC3B"/>
<path d="M94.2312 243.332C95.9709 241.594 95.9704 238.778 94.2302 237.04C92.49 235.303 89.669 235.304 87.9293 237.041C86.1896 238.779 86.19 241.596 87.9302 243.333C89.6704 245.07 92.4914 245.069 94.2312 243.332Z" fill="white"/>
<path d="M65.579 186.01C64.1171 186.01 62.9336 184.829 62.9336 183.369V172.838C62.9336 171.378 64.1171 170.197 65.579 170.197C67.041 170.197 68.2245 171.378 68.2245 172.838V183.369C68.2245 184.794 67.041 186.01 65.579 186.01Z" fill="white"/>
<path d="M75.9872 194.769C74.5253 194.769 73.3418 193.587 73.3418 192.127V164.08C73.3418 162.62 74.5253 161.438 75.9872 161.438C77.4492 161.438 78.6327 162.62 78.6327 164.08V192.127C78.6327 193.552 77.4492 194.769 75.9872 194.769Z" fill="white"/>
<path d="M86.3951 204.292C84.9331 204.292 83.7497 203.11 83.7497 201.651L83.7148 154.557C83.7148 153.097 84.8983 151.916 86.3603 151.916C87.8222 151.916 89.0057 153.097 89.0057 154.557L89.0405 201.651C89.0405 203.075 87.857 204.292 86.3951 204.292Z" fill="white"/>
<path d="M96.8017 191.536C95.3397 191.536 94.1562 190.355 94.1562 188.895V167.277C94.1562 165.817 95.3397 164.636 96.8017 164.636C98.2636 164.636 99.4471 165.817 99.4471 167.277V188.895C99.4471 190.355 98.2636 191.536 96.8017 191.536Z" fill="white"/>
<path d="M107.21 212.494C105.748 212.494 104.564 211.312 104.564 209.853L104.529 146.285C104.529 144.825 105.713 143.644 107.175 143.644C108.637 143.644 109.82 144.825 109.82 146.285L109.855 209.853C109.855 211.312 108.671 212.494 107.21 212.494Z" fill="white"/>
<path d="M117.583 201.164C116.121 201.164 114.937 199.982 114.937 198.522L114.903 157.615C114.903 156.155 116.086 154.974 117.548 154.974C119.01 154.974 120.193 156.155 120.193 157.615L120.228 198.522C120.263 199.982 119.045 201.164 117.583 201.164Z" fill="white"/>
<path d="M127.991 186.775C126.529 186.775 125.346 185.593 125.346 184.133V172.004C125.346 170.544 126.529 169.362 127.991 169.362C129.453 169.362 130.637 170.544 130.637 172.004V184.133C130.637 185.593 129.453 186.775 127.991 186.775Z" fill="white"/>
<path d="M138.399 210.27C136.937 210.27 135.754 209.088 135.754 207.628L135.719 148.544C135.719 147.085 136.902 145.903 138.364 145.903C139.826 145.903 141.01 147.085 141.01 148.544L141.044 207.628C141.044 209.088 139.861 210.27 138.399 210.27Z" fill="white"/>
<path d="M148.805 196.159C147.343 196.159 146.16 194.978 146.16 193.518L146.125 162.69C146.125 161.23 147.308 160.048 148.77 160.048C150.232 160.048 151.416 161.23 151.416 162.69L151.451 193.518C151.451 194.943 150.267 196.159 148.805 196.159Z" fill="white"/>
<path d="M159.179 188.131C157.717 188.131 156.533 186.949 156.533 185.489V170.683C156.533 169.224 157.717 168.042 159.179 168.042C160.641 168.042 161.824 169.224 161.824 170.683V185.489C161.859 186.949 160.676 188.131 159.179 188.131Z" fill="white"/>
<path d="M560.032 351.099H526.303C524.04 351.099 522.23 349.292 522.23 347.033C522.23 344.774 524.04 342.966 526.303 342.966H560.032C562.295 342.966 564.105 344.774 564.105 347.033C564.105 349.292 562.295 351.099 560.032 351.099Z" fill="#383C56"/>
<path d="M551.61 398.54H534.727C533.614 398.54 532.674 397.636 532.674 396.49C532.674 395.377 533.579 394.439 534.727 394.439H551.61C552.723 394.439 553.663 395.343 553.663 396.49C553.663 397.636 552.723 398.54 551.61 398.54Z" fill="#383C56"/>
<path d="M546.004 348.527H540.33V395.239H546.004V348.527Z" fill="#383C56"/>
<path d="M484.462 314.606C482.757 314.606 481.19 313.424 480.808 311.686C480.355 309.671 481.643 307.655 483.662 307.203L512.448 300.738L519.897 271.961C520.419 269.945 522.473 268.729 524.492 269.25C526.511 269.771 527.729 271.822 527.207 273.838L519.201 304.84C518.853 306.195 517.774 307.272 516.382 307.551L485.333 314.502C485.019 314.571 484.741 314.606 484.462 314.606Z" fill="#E5B7AE"/>
<path d="M494 307.307H480.703C480.703 303.658 483.662 300.669 487.352 300.669C491.006 300.669 494 303.658 494 307.307Z" fill="#E5B7AE"/>
<path d="M529.539 275.263L525.884 289.338L514.049 286.836L517.321 274.15C518.644 269.632 523.621 267.755 523.621 267.755C523.621 267.755 530.374 272.03 529.539 275.263Z" fill="#2BADA6"/>
<path d="M554.949 331.81L519.305 327.778L522.333 294.899C521.393 293.544 518.678 291.702 517.738 288.261C517.042 285.759 517.634 283.048 519.096 280.858L522.646 275.471L523.656 267.721C526.127 265.844 530.026 265.184 534.063 264.627H541.269C545.585 264.627 556.132 267.269 556.132 268.902L550.772 304.005L554.949 331.81Z" fill="#168B9A"/>
<path d="M513.353 314.606C511.647 314.606 510.081 313.424 509.698 311.686C509.246 309.671 510.533 307.655 512.552 307.203L541.339 300.738L548.788 271.961C549.31 269.945 551.364 268.729 553.383 269.25C555.401 269.771 556.62 271.822 556.098 273.838L548.092 304.84C547.744 306.195 546.665 307.272 545.272 307.551L514.223 314.502C513.875 314.571 513.597 314.606 513.353 314.606Z" fill="#F1CBC2"/>
<path d="M524.074 307.272H510.777C510.777 303.623 513.736 300.634 517.426 300.634C521.115 300.634 524.074 303.623 524.074 307.272Z" fill="#F1CBC2"/>
<path d="M558.429 275.263L554.774 289.338L542.939 286.836L546.699 272.239C547.534 269.007 550.841 267.095 554.078 267.894C557.315 268.729 559.265 272.03 558.429 275.263Z" fill="#2BADA6"/>
<path d="M474.02 388.009C474.02 388.009 464.03 391.345 458.704 395.62C457.486 396.593 458.217 398.54 459.748 398.54H473.915L481.434 396.142L481.573 398.54H484.636C485.506 394.056 486.203 390.546 484.01 386.479L474.02 388.009Z" fill="#383C56"/>
<path d="M481.121 359.648L475.169 387.279C470.087 392.179 473.707 391.276 484.045 386.514L489.962 360.726L481.121 359.648Z" fill="#F1CBC2"/>
<path d="M525.152 320.097C524.387 320.097 493.825 319.993 493.825 319.993C490.692 320.166 485.68 323.155 484.844 327.326L475.133 380.988C477.883 382.344 481.572 382.865 486.306 382.379L497.654 342.827L522.542 343.14C522.542 343.14 540.886 344.252 540.886 331.81C540.921 321.313 534.551 319.993 525.152 320.097Z" fill="#383C56"/>
<path d="M488.047 388.009C488.047 388.009 478.057 391.345 472.731 395.62C471.513 396.593 472.244 398.54 473.776 398.54H487.943L495.461 396.142L495.6 398.54H498.664C499.534 394.056 500.23 390.546 498.037 386.479L488.047 388.009Z" fill="#454E7C"/>
<path d="M495.148 359.648L489.196 387.279C484.114 392.179 487.734 391.276 498.072 386.514L503.99 360.726L495.148 359.648Z" fill="#F1CBC2"/>
<path d="M539.18 320.097C538.414 320.097 507.852 319.993 507.852 319.993C504.719 320.166 499.707 323.155 498.872 327.326L489.16 380.988C491.91 382.344 495.6 382.865 500.368 382.379L511.716 342.827L536.604 343.14C536.604 343.14 554.948 344.252 554.948 331.81C554.948 321.313 548.578 319.993 539.18 320.097Z" fill="#454E7C"/>
<path d="M535.665 273.456C533.437 273.456 531.627 271.683 531.627 269.494L531.453 243.809L539.459 243.74L539.633 269.424C539.668 271.648 537.858 273.456 535.665 273.456Z" fill="#F1CBC2"/>
<path d="M521.951 242.21C521.951 242.21 520.211 245.547 520.176 249.301C520.176 249.613 520.176 249.961 520.211 250.274C520.524 254.097 522.891 258.094 530.862 259.38C533.716 259.831 539.495 260.596 541.722 259.936C547.152 258.337 551.469 253.819 552.617 247.91L554.462 237.484C555.228 233.278 552.408 229.247 548.162 228.482L532.742 225.736C528.53 224.972 525.293 223.234 524.527 227.474L521.951 242.21Z" fill="#F1CBC2"/>
<path d="M527.661 239.43C527.417 240.786 526.756 241.793 526.164 241.689C525.572 241.585 525.294 240.403 525.537 239.048C525.781 237.692 526.442 236.684 527.034 236.789C527.591 236.858 527.904 238.075 527.661 239.43Z" fill="#383C56"/>
<path d="M526.998 236.754L524.875 236.545L526.163 237.936L526.998 236.754Z" fill="#383C56"/>
<path d="M523.343 238.179C523.343 238.179 521.185 241.376 519.793 242.488C516.799 244.956 522.752 245.547 522.752 245.547L523.343 238.179Z" fill="#F1CBC2"/>
<path d="M520.176 249.301C520.176 249.613 520.176 249.961 520.211 250.274C521.777 250.83 523.97 251.004 525.328 249.162C525.467 248.953 525.432 248.675 525.223 248.536C525.049 248.397 524.771 248.432 524.597 248.64C523.378 250.343 521.22 249.752 520.176 249.301Z" fill="#CA7E86"/>
<path d="M520.176 232.444C520.176 232.444 525.501 234.703 536.779 232.34C536.779 232.34 542.94 250.204 530.096 264.627C530.096 264.627 558.674 265.879 559.962 242.454C560.797 227.057 552.13 226.049 552.13 226.049C552.13 226.049 550.424 216.7 540.086 215.97C520.176 214.545 520.176 232.444 520.176 232.444Z" fill="#383C56"/>
<path d="M519.236 398.54C517.948 398.54 516.869 397.497 516.869 396.177V315.44C516.869 315.162 517.113 314.918 517.391 314.918H521.081C521.359 314.918 521.603 315.162 521.603 315.44V396.177C521.603 397.497 520.559 398.54 519.236 398.54Z" fill="#383C56"/>
<path d="M441.021 398.54C439.733 398.54 438.654 397.497 438.654 396.177V315.44C438.654 315.162 438.898 314.918 439.176 314.918H442.866C443.145 314.918 443.388 315.162 443.388 315.44V396.177C443.353 397.497 442.309 398.54 441.021 398.54Z" fill="#383C56"/>
<path d="M577.297 398.54C576.009 398.54 574.93 397.497 574.93 396.177V315.44C574.93 315.162 575.173 314.918 575.452 314.918H579.142C579.42 314.918 579.664 315.162 579.664 315.44V396.177C579.629 397.497 578.585 398.54 577.297 398.54Z" fill="#383C56"/>
<path d="M533.787 313.285H469.182C469.078 313.285 468.973 313.25 468.869 313.216L460.654 310.018L523.971 307.377L525.955 307.307C526.338 307.307 526.755 307.411 527.069 307.585L534.17 311.756C534.901 312.173 534.622 313.285 533.787 313.285Z" fill="#383C56"/>
<path d="M526.06 310.122H461.142C460.341 310.122 459.715 309.497 459.715 308.697C459.715 307.898 460.341 307.272 461.142 307.272H526.06C526.86 307.272 527.487 307.898 527.487 308.697C527.487 309.462 526.86 310.122 526.06 310.122Z" fill="#50608F"/>
<path d="M534.17 311.721L527.069 307.551C527.069 307.551 527.034 307.551 527.034 307.516C527.034 307.516 526.999 307.516 526.999 307.481C526.965 307.446 526.895 307.446 526.86 307.412C526.86 307.412 526.825 307.412 526.825 307.377C526.825 307.377 526.791 307.377 526.756 307.377C526.338 307.238 526.06 307.342 526.06 307.342C525.503 307.481 525.12 307.898 524.981 308.42C524.981 308.454 524.981 308.524 524.981 308.559C524.981 308.593 524.981 308.628 524.981 308.663C524.981 308.698 524.981 308.732 524.981 308.732V308.767C525.015 309.323 525.329 309.81 525.816 310.018C525.816 310.018 525.851 310.018 525.851 310.053L531.907 313.251H533.822C534.588 313.251 534.901 312.173 534.17 311.721Z" fill="#7285B2"/>
<path d="M584.119 314.919C584.119 315.649 583.806 316.309 583.354 316.796C582.866 317.282 582.205 317.595 581.474 317.595H437.715C436.253 317.595 435.035 316.413 435.035 314.919C435.035 314.189 435.348 313.529 435.836 313.042C436.323 312.555 436.984 312.277 437.715 312.277H581.474C582.936 312.277 584.119 313.459 584.119 314.919Z" fill="#EBAC3B"/>
<path d="M584.119 314.919C584.119 315.649 583.806 316.309 583.354 316.796C582.866 317.282 582.205 317.595 581.474 317.595H525.015C523.553 317.595 522.369 316.413 522.369 314.919C522.369 314.189 522.683 313.529 523.135 313.042C523.623 312.555 524.284 312.277 525.015 312.277H581.474C582.936 312.277 584.119 313.459 584.119 314.919Z" fill="#BD8A2F"/>
<path d="M450.386 196.125H417.214C413.385 196.125 410.252 199.218 410.252 203.076V225.284C410.252 229.107 413.35 232.235 417.214 232.235H445.722C445.757 232.34 445.826 232.479 445.931 232.583L451.326 237.97C451.848 238.491 452.718 238.109 452.718 237.414V231.853C455.398 230.915 457.348 228.343 457.348 225.319V203.11C457.348 199.218 454.215 196.125 450.386 196.125Z" fill="#E8F1FC"/>
<path d="M504.618 247.875H470.749C466.851 247.875 463.648 251.038 463.648 254.966V277.626C463.648 281.519 466.816 284.716 470.749 284.716H499.849C499.884 284.855 499.954 284.959 500.058 285.064L505.558 290.555C506.08 291.076 506.95 290.694 506.95 289.964V284.299C509.7 283.326 511.684 280.719 511.684 277.626V254.966C511.719 251.073 508.551 247.875 504.618 247.875Z" fill="#E8F1FC"/>
<path d="M353.026 367.086H243.31C238.507 367.086 234.608 363.194 234.574 358.398L234.504 228.412C234.504 223.616 238.402 219.724 243.206 219.724H352.922C357.726 219.724 361.624 223.616 361.659 228.412L361.729 358.398C361.729 363.194 357.83 367.086 353.026 367.086Z" fill="#168B9A"/>
<path d="M298.064 232.548C275.229 232.548 256.746 251.038 256.746 273.838C256.746 296.637 275.264 315.127 298.099 315.127C320.933 315.127 339.416 296.637 339.416 273.838C339.416 251.038 320.898 232.548 298.064 232.548Z" fill="#2BADA6"/>
<path d="M310.872 271.196C310.768 271.196 310.698 271.231 310.594 271.231C310.977 269.389 310.942 267.408 310.002 265.253C308.192 261.256 304.154 258.58 299.768 258.963C295.174 259.345 291.484 262.82 290.683 267.269C289.256 266.713 287.655 266.504 285.949 266.852C281.912 267.721 278.953 271.37 279.057 275.471C279.197 280.094 282.991 283.813 287.655 283.813C287.725 283.813 287.794 283.778 287.899 283.778H295.034V276.34H290.266L298.724 268.207L307.183 276.34H302.414V283.778H310.733C310.768 283.778 310.837 283.778 310.872 283.778C310.907 283.778 310.977 283.778 311.012 283.778H311.046C314.423 283.674 317.173 280.893 317.173 277.487C317.173 274.012 314.353 271.196 310.872 271.196Z" fill="white"/>
<path d="M316.199 240.89C313.832 239.569 311.256 238.526 308.541 237.727C291.938 232.931 274.673 240.09 266.04 254.132C265.832 254.479 265.623 254.862 265.414 255.209C265.205 255.557 264.996 255.939 264.822 256.321C264.822 256.321 264.822 256.321 264.822 256.356C264.648 256.704 264.474 257.051 264.3 257.399C264.265 257.468 264.23 257.503 264.23 257.572C264.056 257.92 263.917 258.268 263.743 258.615C263.604 258.963 263.465 259.275 263.325 259.623C263.291 259.727 263.256 259.832 263.186 259.936C263.047 260.283 262.908 260.631 262.768 260.978C262.629 261.326 262.525 261.674 262.385 262.056C262.211 262.508 262.072 262.994 261.933 263.446C256.155 283.396 267.676 304.214 287.656 309.984C307.602 315.753 328.487 304.249 334.23 284.334C339.242 267.061 331.306 249.162 316.199 240.89ZM290.302 300.843C275.369 296.533 266.737 280.928 271.053 266.018C271.157 265.67 271.262 265.323 271.366 264.975C271.47 264.663 271.575 264.35 271.679 264.037C271.958 263.342 272.236 262.647 272.55 261.952C272.689 261.674 272.828 261.361 272.967 261.083C273.072 260.874 273.176 260.631 273.315 260.422C273.455 260.144 273.629 259.866 273.803 259.588C274.046 259.136 274.36 258.685 274.638 258.233C281.252 248.293 293.817 243.288 305.896 246.798C307.671 247.32 309.342 247.98 310.908 248.779C311.222 248.918 311.5 249.092 311.813 249.266C311.918 249.335 312.022 249.37 312.092 249.44C312.405 249.613 312.718 249.787 312.997 249.961L313.032 249.996C313.38 250.204 313.728 250.448 314.041 250.656C314.076 250.691 314.111 250.691 314.146 250.726C314.424 250.934 314.703 251.108 314.981 251.316C315.329 251.56 315.677 251.838 315.99 252.116C316.269 252.359 316.547 252.602 316.826 252.846C316.861 252.88 316.861 252.88 316.895 252.915C317.209 253.193 317.487 253.471 317.766 253.749C317.8 253.784 317.8 253.784 317.835 253.784C318.114 254.062 318.357 254.305 318.636 254.583C318.914 254.862 319.158 255.174 319.436 255.487C319.68 255.765 319.889 256.043 320.133 256.321C320.167 256.356 320.167 256.391 320.202 256.426C320.69 257.051 321.177 257.711 321.595 258.372C321.803 258.685 322.012 259.032 322.221 259.38C322.43 259.727 322.639 260.075 322.813 260.422C322.987 260.77 323.196 261.117 323.37 261.465C323.579 261.882 323.753 262.264 323.962 262.681C324.101 262.96 324.205 263.238 324.31 263.516C324.484 263.933 324.623 264.385 324.797 264.802C324.901 265.149 325.006 265.497 325.145 265.844V265.879C325.249 266.261 325.354 266.644 325.458 267.026C325.458 267.061 325.493 267.095 325.493 267.13C325.563 267.478 325.667 267.825 325.737 268.208C325.841 268.59 325.876 269.007 325.946 269.389C326.015 269.772 326.05 270.119 326.085 270.501C326.085 270.536 326.085 270.571 326.085 270.606C326.154 270.988 326.189 271.405 326.189 271.787C326.224 272.204 326.259 272.656 326.259 273.073C326.259 273.456 326.259 273.838 326.259 274.22C326.259 274.533 326.259 274.846 326.224 275.193C326.224 275.332 326.224 275.506 326.189 275.645C326.154 275.993 326.154 276.34 326.12 276.688V276.723C326.085 277.07 326.05 277.418 325.98 277.731C325.98 277.87 325.946 277.974 325.946 278.113C325.911 278.426 325.841 278.738 325.772 279.086C325.772 279.121 325.772 279.156 325.737 279.225C325.598 280.024 325.389 280.824 325.145 281.623C320.829 296.568 305.235 305.153 290.302 300.843Z" fill="#EBAC3B"/>
<path d="M261.933 263.377C256.155 283.326 267.676 304.145 287.656 309.914C307.636 315.683 328.487 304.179 334.265 284.265C334.404 283.813 334.543 283.326 334.648 282.84C334.752 282.492 334.822 282.11 334.891 281.762C334.961 281.38 335.031 281.032 335.1 280.65C335.135 280.546 335.135 280.441 335.17 280.337C335.239 279.99 335.309 279.607 335.344 279.26C335.414 278.877 335.448 278.495 335.483 278.148C335.483 278.078 335.518 278.009 335.518 277.939C335.553 277.557 335.588 277.174 335.622 276.792V276.757C335.657 276.34 335.692 275.923 335.692 275.506C335.692 275.089 335.727 274.672 335.727 274.255C335.344 277.765 332.559 279.503 330.366 279.225C327.895 278.912 326.05 275.819 326.224 273.178C326.224 273.699 326.224 274.22 326.224 274.742C326.224 275.054 326.189 275.367 326.189 275.715C326.189 275.958 326.154 276.201 326.12 276.445C326.085 276.757 326.05 277.07 326.015 277.383C325.911 278.113 325.806 278.877 325.632 279.607C325.563 279.92 325.493 280.233 325.423 280.58C325.354 280.928 325.249 281.276 325.145 281.658C320.829 296.568 305.235 305.152 290.302 300.843C275.369 296.533 266.737 280.928 271.053 266.018C271.296 265.219 271.54 264.419 271.853 263.655C271.853 263.62 271.888 263.585 271.888 263.516C271.993 263.203 272.132 262.925 272.271 262.612C272.306 262.508 272.376 262.369 272.445 262.264C272.584 261.952 272.724 261.639 272.863 261.326C272.863 261.326 272.863 261.291 272.898 261.291C273.037 260.978 273.211 260.666 273.385 260.388C273.455 260.249 273.524 260.11 273.594 259.97C273.733 259.692 273.907 259.414 274.081 259.136C274.29 258.789 274.499 258.476 274.708 258.163C274.951 257.816 275.195 257.433 275.439 257.086C275.682 256.773 275.926 256.46 276.17 256.147C276.17 256.113 276.204 256.113 276.239 256.078C276.483 255.8 276.727 255.487 276.97 255.244C277.249 254.931 277.492 254.653 277.771 254.375C278.014 254.097 278.293 253.854 278.537 253.61C278.571 253.576 278.606 253.575 278.606 253.541C278.885 253.263 279.198 252.985 279.476 252.741L279.511 252.707C279.79 252.463 280.068 252.22 280.347 252.011C280.695 251.733 281.078 251.455 281.46 251.177C281.704 251.004 281.948 250.83 282.191 250.656C282.574 250.413 282.957 250.169 283.34 249.926C283.688 249.718 284.002 249.509 284.35 249.335C284.698 249.127 285.046 248.953 285.394 248.779C285.742 248.605 286.09 248.432 286.473 248.258C287.204 247.91 287.935 247.632 288.701 247.354C288.735 247.354 288.77 247.32 288.805 247.32C289.153 247.215 289.466 247.076 289.814 246.972C290.197 246.868 290.58 246.729 290.963 246.659C291.311 246.555 291.694 246.485 292.077 246.381C292.112 246.381 292.112 246.381 292.147 246.381C292.53 246.312 292.912 246.242 293.33 246.138C293.365 246.138 293.4 246.138 293.435 246.138C293.783 246.068 294.166 246.034 294.548 245.964C294.966 245.895 295.384 245.86 295.836 245.825C296.184 245.79 296.533 245.79 296.881 245.756C296.915 245.756 296.95 245.756 296.985 245.756C297.403 245.721 297.786 245.721 298.203 245.721H298.238C298.586 245.721 298.934 245.721 299.282 245.756C299.387 245.756 299.491 245.756 299.63 245.756C299.979 245.79 300.292 245.79 300.64 245.825C293.887 246.034 294.305 236.441 300.396 236.302C283.166 235.259 266.911 246.173 261.933 263.377Z" fill="#DEE9FE"/>
<path d="M349.128 332.609H247.139C245.225 332.609 243.658 331.045 243.658 329.134V326.423C243.658 324.511 245.225 322.947 247.139 322.947H349.128C351.042 322.947 352.608 324.511 352.608 326.423V329.134C352.608 331.045 351.042 332.609 349.128 332.609Z" fill="white"/>
<path d="M349.127 349.222H316.651C314.736 349.222 313.17 347.658 313.17 345.747V340.811C313.17 338.9 314.736 337.336 316.651 337.336H349.127C351.041 337.336 352.608 338.9 352.608 340.811V345.747C352.608 347.658 351.076 349.222 349.127 349.222Z" fill="#EBAC3B"/>
<path d="M306.994 347.47C309.408 345.103 309.444 341.23 307.074 338.82C304.704 336.409 300.825 336.373 298.411 338.739C295.996 341.106 295.96 344.979 298.331 347.389C300.701 349.8 304.579 349.836 306.994 347.47Z" fill="#B4CFFE"/>
<path d="M292.739 343.105C292.739 346.477 289.989 349.222 286.613 349.222C283.236 349.222 280.486 346.477 280.486 343.105C280.486 339.734 283.236 336.988 286.613 336.988C289.989 337.023 292.739 339.734 292.739 343.105Z" fill="#B4CFFE"/>
<path d="M467.024 181.458H287.831C284.942 181.458 282.609 179.129 282.609 176.244V164.149C282.609 161.265 284.942 158.936 287.831 158.936H467.024C469.913 158.936 472.245 161.265 472.245 164.149V176.244C472.245 179.129 469.913 181.458 467.024 181.458Z" fill="#168B9A"/>
<path d="M464.212 176.148C467.508 172.87 467.52 167.545 464.237 164.253C460.955 160.962 455.621 160.95 452.324 164.228C449.028 167.506 449.017 172.831 452.299 176.122C455.582 179.414 460.915 179.425 464.212 176.148Z" fill="#EBAC3B"/>
<path d="M441.021 176.87H331.375C329.635 176.87 328.242 175.48 328.242 173.742V166.721C328.242 164.983 329.635 163.593 331.375 163.593H441.021C442.762 163.593 444.154 164.983 444.154 166.721V173.742C444.154 175.445 442.762 176.87 441.021 176.87Z" fill="#2BADA6"/>
<path d="M316.513 176.87H294.514C292.356 176.87 290.615 175.132 290.615 173.012V167.52C290.615 165.366 292.356 163.663 294.479 163.663H316.478C318.636 163.663 320.376 165.4 320.376 167.52V173.012C320.411 175.132 318.671 176.87 316.513 176.87Z" fill="#B4CFFE"/>
<path d="M463.578 169.224H459.262V164.914C459.262 164.358 458.809 163.941 458.287 163.941C457.73 163.941 457.312 164.393 457.312 164.914V169.224H452.996C452.439 169.224 452.021 169.676 452.021 170.197C452.021 170.753 452.474 171.17 452.996 171.17H457.312V175.48C457.312 176.036 457.765 176.453 458.287 176.453C458.844 176.453 459.262 176.001 459.262 175.48V171.17H463.578C464.135 171.17 464.553 170.718 464.553 170.197C464.553 169.676 464.135 169.224 463.578 169.224Z" fill="white"/>
<path d="M259.218 98.5662H73.2366C68.433 98.5662 64.5345 94.6736 64.4997 89.8774L64.4648 53.558C64.4648 48.7617 68.3634 44.8691 73.1669 44.8691H259.183C263.987 44.8691 267.885 48.7617 267.92 53.558L267.955 89.8774C267.955 94.6736 264.056 98.5662 259.218 98.5662Z" fill="#168B9A"/>
<path d="M257.337 55.6433H75.0807C73.932 55.6433 72.9922 54.7049 72.9922 53.558C72.9922 52.4111 73.932 51.4727 75.0807 51.4727H257.337C258.486 51.4727 259.426 52.4111 259.426 53.558C259.391 54.7397 258.486 55.6433 257.337 55.6433Z" fill="white"/>
<path d="M152.773 67.5642H75.0807C73.932 67.5642 72.9922 66.6258 72.9922 65.4789C72.9922 64.332 73.932 63.3936 75.0807 63.3936H152.738C153.887 63.3936 154.827 64.332 154.827 65.4789C154.827 66.6258 153.922 67.5642 152.773 67.5642Z" fill="white"/>
<path d="M255.945 91.928H222.215C220.301 91.928 218.734 90.364 218.734 88.4525V78.7905C218.734 76.8789 220.301 75.3149 222.215 75.3149H255.945C257.859 75.3149 259.425 76.8789 259.425 78.7905V88.4525C259.425 90.364 257.859 91.928 255.945 91.928Z" fill="#EBAC3B"/>
<path d="M208.64 91.928H174.911C172.996 91.928 171.43 90.364 171.43 88.4525V78.7905C171.43 76.8789 172.996 75.3149 174.911 75.3149H208.64C210.554 75.3149 212.121 76.8789 212.121 78.7905V88.4525C212.156 90.364 210.589 91.928 208.64 91.928Z" fill="#D7F5F7"/>
<path d="M621.678 396.385H21.0596C17.544 396.385 14.6897 399.235 14.6897 402.746C14.6897 406.256 17.544 409.106 21.0596 409.106H564.871H621.678C625.194 409.106 628.048 406.256 628.048 402.746C628.048 399.235 625.194 396.385 621.678 396.385Z" fill="#D7F5F7"/>
<path d="M421.042 208.706V212.147H425.01V208.706H426.09V216.874H425.01V213.051H421.042V216.874H419.998V208.671H421.042V208.706Z" fill="#168B9A"/>
<path d="M429.465 209.61H426.959V208.706H433.05V209.61H430.544V216.908H429.465V209.61Z" fill="#168B9A"/>
<path d="M440.884 213.294C440.814 212.147 440.745 210.791 440.779 209.749H440.745C440.466 210.722 440.118 211.73 439.7 212.877L438.238 216.839H437.438L436.115 212.946C435.732 211.799 435.384 210.722 435.175 209.749H435.14C435.106 210.757 435.071 212.147 434.966 213.363L434.757 216.874H433.748L434.305 208.671H435.663L437.055 212.633C437.403 213.641 437.681 214.545 437.89 215.379H437.925C438.134 214.545 438.412 213.641 438.795 212.633L440.257 208.671H441.615L442.137 216.874H441.093L440.884 213.294Z" fill="#168B9A"/>
<path d="M443.738 208.706H444.783V216.005H448.298V216.908H443.738V208.706Z" fill="#168B9A"/>
<path d="M475.83 261.534V265.913C475.83 267.582 476.561 268.277 477.571 268.277C478.685 268.277 479.381 267.547 479.381 265.913V261.534H480.356V265.844C480.356 268.103 479.172 269.041 477.536 269.041C476.004 269.041 474.891 268.172 474.891 265.879V261.534H475.83Z" fill="#168B9A"/>
<path d="M482.965 261.534V268.937H482.025V261.534H482.965Z" fill="#168B9A"/>
<path d="M487.909 261.534V265.913C487.909 267.582 488.64 268.277 489.649 268.277C490.763 268.277 491.459 267.547 491.459 265.913V261.534H492.434V265.844C492.434 268.103 491.25 269.041 489.614 269.041C488.083 269.041 486.969 268.172 486.969 265.879V261.534H487.909Z" fill="#168B9A"/>
<path d="M498.143 268.937L497.203 267.304C496.82 266.678 496.576 266.261 496.333 265.844H496.298C496.089 266.261 495.88 266.678 495.497 267.304L494.592 268.937H493.479L495.741 265.183L493.548 261.534H494.662L495.637 263.272C495.915 263.759 496.124 264.141 496.333 264.523H496.368C496.576 264.071 496.751 263.759 497.029 263.272L498.038 261.534H499.152L496.89 265.149L499.187 268.937H498.143Z" fill="#168B9A"/>
<path d="M257.199 194.977C256.851 195.151 256.155 195.325 255.284 195.325C253.231 195.325 251.699 194.039 251.699 191.641C251.699 189.382 253.231 187.818 255.493 187.818C256.398 187.818 256.955 188.026 257.234 188.131L256.99 188.895C256.642 188.722 256.12 188.582 255.528 188.582C253.823 188.582 252.674 189.66 252.674 191.571C252.674 193.344 253.683 194.491 255.459 194.491C256.015 194.491 256.607 194.387 256.99 194.178L257.199 194.977Z" fill="#168B9A"/>
<path d="M262.594 193.796C262.594 194.352 262.594 194.804 262.629 195.221H261.794L261.724 194.387H261.689C261.446 194.804 260.889 195.36 259.949 195.36C259.113 195.36 258.139 194.908 258.139 193.066V190.008H259.079V192.893C259.079 193.9 259.392 194.561 260.227 194.561C260.854 194.561 261.306 194.109 261.48 193.692C261.55 193.553 261.55 193.379 261.55 193.205V190.008H262.49V193.796H262.594Z" fill="#168B9A"/>
<path d="M264.021 194.248C264.299 194.422 264.787 194.63 265.274 194.63C265.97 194.63 266.284 194.282 266.284 193.865C266.284 193.414 266.005 193.17 265.309 192.892C264.369 192.545 263.917 192.058 263.917 191.433C263.917 190.598 264.613 189.903 265.727 189.903C266.249 189.903 266.736 190.042 267.015 190.216L266.771 190.911C266.562 190.772 266.179 190.598 265.692 190.598C265.135 190.598 264.822 190.911 264.822 191.294C264.822 191.711 265.135 191.919 265.831 192.162C266.736 192.51 267.189 192.962 267.189 193.726C267.189 194.63 266.492 195.29 265.239 195.29C264.682 195.29 264.125 195.151 263.777 194.943L264.021 194.248Z" fill="#168B9A"/>
<path d="M269.59 188.513V190.008H270.948V190.738H269.59V193.553C269.59 194.213 269.764 194.561 270.286 194.561C270.53 194.561 270.704 194.526 270.843 194.491L270.878 195.186C270.704 195.256 270.391 195.325 270.043 195.325C269.59 195.325 269.242 195.186 269.033 194.943C268.755 194.665 268.65 194.213 268.65 193.587V190.738H267.85V190.008H268.65V188.756L269.59 188.513Z" fill="#168B9A"/>
<path d="M276.656 192.579C276.656 194.526 275.333 195.36 274.045 195.36C272.618 195.36 271.539 194.317 271.539 192.684C271.539 190.946 272.688 189.903 274.115 189.903C275.646 189.903 276.656 190.981 276.656 192.579ZM272.514 192.614C272.514 193.761 273.175 194.63 274.115 194.63C275.02 194.63 275.716 193.761 275.716 192.614C275.716 191.745 275.264 190.598 274.15 190.598C273.036 190.598 272.514 191.641 272.514 192.614Z" fill="#168B9A"/>
<path d="M277.875 191.433C277.875 190.911 277.875 190.46 277.84 190.008H278.675L278.71 190.842H278.745C279.023 190.355 279.511 189.869 280.381 189.869C281.077 189.869 281.634 190.286 281.843 190.911H281.878C282.052 190.633 282.261 190.39 282.469 190.216C282.783 189.973 283.131 189.834 283.618 189.834C284.314 189.834 285.324 190.286 285.324 192.093V195.152H284.384V192.197C284.384 191.189 284.001 190.599 283.235 190.599C282.678 190.599 282.261 190.981 282.121 191.467C282.086 191.607 282.052 191.78 282.052 191.954V195.186H281.112V192.058C281.112 191.224 280.729 190.633 280.033 190.633C279.441 190.633 279.023 191.12 278.849 191.572C278.78 191.711 278.78 191.885 278.78 192.024V195.186H277.84V191.433H277.875Z" fill="#168B9A"/>
<path d="M289.989 195.221L288.145 187.957H289.154L290.024 191.641C290.233 192.545 290.442 193.448 290.581 194.143H290.616C290.72 193.414 290.964 192.545 291.208 191.606L292.182 187.957H293.157L294.027 191.641C294.236 192.51 294.41 193.379 294.549 194.143H294.584C294.723 193.344 294.932 192.545 295.176 191.641L296.15 187.992H297.125L295.071 195.256H294.097L293.192 191.467C292.948 190.529 292.809 189.834 292.704 189.104H292.67C292.53 189.834 292.391 190.529 292.113 191.467L291.068 195.256H289.989V195.221Z" fill="#168B9A"/>
<path d="M298.063 192.788C298.098 194.074 298.899 194.595 299.838 194.595C300.535 194.595 300.917 194.491 301.3 194.317L301.474 195.012C301.126 195.151 300.569 195.325 299.734 195.325C298.133 195.325 297.158 194.283 297.158 192.684C297.158 191.12 298.098 189.869 299.595 189.869C301.3 189.869 301.753 191.363 301.753 192.336C301.753 192.545 301.718 192.684 301.718 192.788H298.063ZM300.848 192.128C300.848 191.537 300.604 190.599 299.525 190.599C298.551 190.599 298.133 191.467 298.063 192.128H300.848Z" fill="#168B9A"/>
<path d="M302.902 195.221C302.937 194.873 302.937 194.352 302.937 193.865V187.575H303.877V190.842H303.912C304.26 190.251 304.852 189.869 305.687 189.869C306.975 189.869 307.915 190.946 307.88 192.545C307.88 194.422 306.696 195.325 305.548 195.325C304.782 195.325 304.19 195.047 303.807 194.352H303.773L303.738 195.221H302.902ZM303.877 193.136C303.877 193.24 303.912 193.379 303.912 193.483C304.086 194.143 304.643 194.595 305.339 194.595C306.348 194.595 306.94 193.796 306.94 192.579C306.94 191.537 306.418 190.633 305.374 190.633C304.712 190.633 304.121 191.085 303.912 191.78C303.877 191.884 303.842 192.023 303.842 192.162V193.136H303.877Z" fill="#168B9A"/>
<path d="M311.396 188.061C311.953 187.992 312.65 187.922 313.381 187.922C314.738 187.922 315.678 188.235 316.339 188.826C317.001 189.417 317.349 190.251 317.349 191.433C317.349 192.614 316.966 193.587 316.304 194.248C315.608 194.943 314.494 195.291 313.102 195.291C312.441 195.291 311.884 195.256 311.396 195.221V188.061ZM312.336 194.491C312.58 194.526 312.928 194.561 313.276 194.561C315.295 194.561 316.374 193.448 316.374 191.467C316.374 189.764 315.399 188.652 313.415 188.652C312.928 188.652 312.58 188.687 312.302 188.756V194.491H312.336Z" fill="#168B9A"/>
<path d="M319.124 192.788C319.159 194.074 319.959 194.595 320.899 194.595C321.595 194.595 321.978 194.491 322.361 194.317L322.535 195.012C322.187 195.151 321.63 195.325 320.795 195.325C319.193 195.325 318.219 194.283 318.219 192.684C318.219 191.12 319.159 189.869 320.655 189.869C322.361 189.869 322.813 191.363 322.813 192.336C322.813 192.545 322.779 192.684 322.779 192.788H319.124ZM321.908 192.128C321.908 191.537 321.665 190.599 320.586 190.599C319.611 190.599 319.193 191.467 319.124 192.128H321.908Z" fill="#168B9A"/>
<path d="M324.379 190.008L325.388 192.927C325.562 193.414 325.701 193.831 325.806 194.248H325.841C325.945 193.831 326.119 193.379 326.293 192.927L327.302 190.008H328.312L326.258 195.221H325.353L323.369 190.008H324.379Z" fill="#168B9A"/>
<path d="M329.635 192.788C329.67 194.074 330.471 194.595 331.411 194.595C332.107 194.595 332.49 194.491 332.873 194.317L333.047 195.012C332.699 195.151 332.142 195.325 331.306 195.325C329.705 195.325 328.73 194.283 328.73 192.684C328.73 191.12 329.67 189.869 331.167 189.869C332.873 189.869 333.325 191.363 333.325 192.336C333.325 192.545 333.29 192.684 333.29 192.788H329.635ZM332.42 192.128C332.42 191.537 332.176 190.599 331.097 190.599C330.123 190.599 329.705 191.467 329.635 192.128H332.42Z" fill="#168B9A"/>
<path d="M334.508 187.575H335.448V195.221H334.508V187.575Z" fill="#168B9A"/>
<path d="M341.783 192.579C341.783 194.526 340.46 195.36 339.172 195.36C337.745 195.36 336.666 194.317 336.666 192.684C336.666 190.946 337.815 189.903 339.242 189.903C340.773 189.903 341.783 190.981 341.783 192.579ZM337.641 192.614C337.641 193.761 338.302 194.63 339.242 194.63C340.147 194.63 340.843 193.761 340.843 192.614C340.843 191.745 340.391 190.598 339.277 190.598C338.163 190.598 337.641 191.641 337.641 192.614Z" fill="#168B9A"/>
<path d="M342.966 191.711C342.966 191.05 342.932 190.494 342.932 190.008H343.767L343.802 190.911H343.837C344.22 190.286 344.846 189.903 345.681 189.903C346.935 189.903 347.909 190.981 347.909 192.545C347.909 194.422 346.761 195.36 345.542 195.36C344.846 195.36 344.254 195.047 343.941 194.526H343.906V197.376H342.966V191.711ZM343.906 193.101C343.906 193.24 343.941 193.379 343.941 193.483C344.115 194.143 344.672 194.595 345.368 194.595C346.378 194.595 346.969 193.761 346.969 192.579C346.969 191.537 346.412 190.633 345.403 190.633C344.742 190.633 344.15 191.085 343.976 191.815C343.941 191.919 343.906 192.058 343.906 192.197V193.101Z" fill="#168B9A"/>
<path d="M349.093 191.433C349.093 190.911 349.093 190.46 349.059 190.008H349.894L349.929 190.842H349.964C350.242 190.355 350.729 189.869 351.6 189.869C352.296 189.869 352.853 190.286 353.062 190.911H353.096C353.27 190.633 353.479 190.39 353.688 190.216C354.001 189.973 354.349 189.834 354.837 189.834C355.533 189.834 356.542 190.286 356.542 192.093V195.152H355.603V192.197C355.603 191.189 355.22 190.599 354.454 190.599C353.897 190.599 353.479 190.981 353.34 191.467C353.305 191.607 353.27 191.78 353.27 191.954V195.186H352.331V192.058C352.331 191.224 351.948 190.633 351.252 190.633C350.66 190.633 350.242 191.12 350.068 191.572C349.998 191.711 349.998 191.885 349.998 192.024V195.186H349.059V191.433H349.093Z" fill="#168B9A"/>
<path d="M358.63 192.788C358.664 194.074 359.465 194.595 360.405 194.595C361.101 194.595 361.484 194.491 361.867 194.317L362.041 195.012C361.693 195.151 361.136 195.325 360.3 195.325C358.699 195.325 357.725 194.283 357.725 192.684C357.725 191.12 358.664 189.869 360.161 189.869C361.867 189.869 362.319 191.363 362.319 192.336C362.319 192.545 362.285 192.684 362.285 192.788H358.63ZM361.414 192.128C361.414 191.537 361.171 190.599 360.092 190.599C359.117 190.599 358.699 191.467 358.63 192.128H361.414Z" fill="#168B9A"/>
<path d="M363.504 191.433C363.504 190.911 363.504 190.459 363.469 190.008H364.304L364.374 190.876H364.409C364.652 190.39 365.279 189.903 366.149 189.903C366.88 189.903 367.994 190.32 367.994 192.128V195.256H367.054V192.232C367.054 191.398 366.741 190.703 365.836 190.703C365.209 190.703 364.722 191.155 364.548 191.676C364.513 191.78 364.478 191.954 364.478 192.128V195.256H363.539V191.433H363.504Z" fill="#168B9A"/>
<path d="M370.604 188.513V190.008H371.961V190.738H370.604V193.553C370.604 194.213 370.778 194.561 371.3 194.561C371.544 194.561 371.718 194.526 371.857 194.491L371.892 195.186C371.718 195.256 371.404 195.325 371.056 195.325C370.604 195.325 370.256 195.186 370.047 194.943C369.768 194.665 369.664 194.213 369.664 193.587V190.738H368.863V190.008H369.664V188.756L370.604 188.513Z" fill="#168B9A"/>
</svg>
