<?xml version="1.0" encoding="UTF-8"?>
<!DOCTYPE svg PUBLIC "-//W3C//DTD SVG 1.1//EN" "http://www.w3.org/Graphics/SVG/1.1/DTD/svg11.dtd">
<svg xmlns="http://www.w3.org/2000/svg" version="1.1" width="512px" height="512px" style="shape-rendering:geometricPrecision; text-rendering:geometricPrecision; image-rendering:optimizeQuality; fill-rule:evenodd; clip-rule:evenodd" xmlns:xlink="http://www.w3.org/1999/xlink">
<g><path style="opacity:0.981" fill="#5f266c" d="M 78.5,6.5 C 117.292,4.83473 144.792,21.5014 161,56.5C 172.86,96.5778 161.694,128.411 127.5,152C 96.911,167.516 67.5777,165.516 39.5,146C 10.3987,119.758 2.89872,88.2576 17,51.5C 30.0583,26.268 50.5583,11.268 78.5,6.5 Z"/></g>
<g><path style="opacity:0.98" fill="#5f266c" d="M 414.5,6.5 C 448.654,4.82296 474.487,18.4896 492,47.5C 508.699,85.3413 501.866,118.175 471.5,146C 438.579,168.271 405.912,167.937 373.5,145C 344.822,117.948 337.989,86.1146 353,49.5C 366.274,24.7103 386.774,10.377 414.5,6.5 Z"/></g>
<g><path style="opacity:1" fill="#f7d036" d="M 103.5,25.5 C 128.885,44.054 138.719,69.3874 133,101.5C 127.921,119.375 117.754,133.375 102.5,143.5C 97.9355,145.04 93.1021,145.707 88,145.5C 82.6704,145.671 77.5037,145.005 72.5,143.5C 40.2731,118.218 32.7731,86.8847 50,49.5C 56.3188,39.683 64.1522,31.3497 73.5,24.5C 82.4524,23.3892 91.4524,23.2225 100.5,24C 101.737,24.2321 102.737,24.7321 103.5,25.5 Z"/></g>
<g><path style="opacity:1" fill="#f7d036" d="M 438.5,25.5 C 469.301,49.1001 477.467,79.1001 463,115.5C 457.075,127.254 448.575,136.588 437.5,143.5C 428.361,145.727 419.028,146.061 409.5,144.5C 382.175,125.49 371.675,99.4902 378,66.5C 383.397,48.9511 393.563,34.9511 408.5,24.5C 417.452,23.3892 426.452,23.2225 435.5,24C 436.737,24.2321 437.737,24.7321 438.5,25.5 Z"/></g>
<g><path style="opacity:1" fill="#efc006" d="M 103.5,25.5 C 128.472,32.6412 143.638,48.9745 149,74.5C 151.538,101.92 141.372,123.086 118.5,138C 113.525,140.936 108.192,142.769 102.5,143.5C 117.754,133.375 127.921,119.375 133,101.5C 138.719,69.3874 128.885,44.054 103.5,25.5 Z"/></g>
<g><path style="opacity:1" fill="#efc006" d="M 438.5,25.5 C 463.461,32.6315 478.628,48.9649 484,74.5C 486.546,101.904 476.379,123.071 453.5,138C 448.525,140.936 443.192,142.769 437.5,143.5C 448.575,136.588 457.075,127.254 463,115.5C 477.467,79.1001 469.301,49.1001 438.5,25.5 Z"/></g>
<g><path style="opacity:1" fill="#f6de7c" d="M 73.5,24.5 C 64.1522,31.3497 56.3188,39.683 50,49.5C 32.7731,86.8847 40.2731,118.218 72.5,143.5C 49.1987,137.031 34.3654,122.031 28,98.5C 23.1309,70.4222 32.2976,48.2555 55.5,32C 61.1774,28.6593 67.1774,26.1593 73.5,24.5 Z"/></g>
<g><path style="opacity:1" fill="#f6de7c" d="M 408.5,24.5 C 393.563,34.9511 383.397,48.9511 378,66.5C 371.675,99.4902 382.175,125.49 409.5,144.5C 378.689,135.174 362.689,114.341 361.5,82C 364.518,52.4487 380.185,33.282 408.5,24.5 Z"/></g>
<g><path style="opacity:1" fill="#60276c" d="M 95.5,45.5 C 95.5,47.8333 95.5,50.1667 95.5,52.5C 97.5,52.5 99.5,52.5 101.5,52.5C 111.688,54.8776 115.855,61.211 114,71.5C 109.255,76.7434 104.588,76.7434 100,71.5C 99.51,70.2068 99.3433,68.8734 99.5,67.5C 92.825,67.3337 86.1583,67.5004 79.5,68C 75.9594,70.2825 75.6261,72.9491 78.5,76C 86.5767,76.0979 94.5767,76.7645 102.5,78C 114.653,84.794 117.819,94.6273 112,107.5C 108.111,113.527 102.611,116.527 95.5,116.5C 97.168,125.656 93.5013,129.823 84.5,129C 82.1811,127.853 80.8477,126.019 80.5,123.5C 80.5,121.167 80.5,118.833 80.5,116.5C 78.1667,116.5 75.8333,116.5 73.5,116.5C 64.0562,113.619 60.2229,107.285 62,97.5C 66.4946,92.2309 71.1613,92.2309 76,97.5C 76.4828,98.448 76.6495,99.448 76.5,100.5C 83.5079,100.666 90.5079,100.5 97.5,100C 100.172,97.3212 99.8382,94.9879 96.5,93C 88.7559,92.8972 81.0892,92.2305 73.5,91C 62.9346,85.6668 59.1013,77.1668 62,65.5C 64.7257,58.225 69.8924,53.8916 77.5,52.5C 78.5,52.5 79.5,52.5 80.5,52.5C 80.5,49.8333 80.5,47.1667 80.5,44.5C 83.5594,39.3548 87.8927,38.1882 93.5,41C 94.5822,42.3297 95.2488,43.8297 95.5,45.5 Z"/></g>
<g><path style="opacity:1" fill="#60276c" d="M 430.5,44.5 C 430.5,47.1667 430.5,49.8333 430.5,52.5C 432.5,52.5 434.5,52.5 436.5,52.5C 446.898,54.7318 451.065,61.0652 449,71.5C 444.255,76.7434 439.588,76.7434 435,71.5C 434.51,70.2068 434.343,68.8734 434.5,67.5C 427.825,67.3337 421.158,67.5004 414.5,68C 412.32,70.4177 411.987,73.0844 413.5,76C 421.577,76.0979 429.577,76.7645 437.5,78C 447.92,83.0099 451.754,91.1766 449,102.5C 445.878,111.115 439.711,115.782 430.5,116.5C 432.633,126.15 428.966,130.317 419.5,129C 417.536,127.549 416.203,125.716 415.5,123.5C 415.5,121.167 415.5,118.833 415.5,116.5C 413.5,116.5 411.5,116.5 409.5,116.5C 399.337,114.186 395.171,107.853 397,97.5C 401.62,92.1774 406.286,92.1774 411,97.5C 411.483,98.448 411.649,99.448 411.5,100.5C 418.508,100.666 425.508,100.5 432.5,100C 434.994,97.7564 434.994,95.4231 432.5,93C 424.423,92.9021 416.423,92.2355 408.5,91C 396.328,84.14 393.162,74.3067 399,61.5C 402.294,56.7089 406.794,53.7089 412.5,52.5C 413.5,52.5 414.5,52.5 415.5,52.5C 415.5,50.1667 415.5,47.8333 415.5,45.5C 416.126,41.2598 418.626,39.2598 423,39.5C 426.82,39.3184 429.32,40.9851 430.5,44.5 Z"/></g>
<g><path style="opacity:1" fill="#ac7d51" d="M 80.5,44.5 C 80.5,47.1667 80.5,49.8333 80.5,52.5C 79.5,52.5 78.5,52.5 77.5,52.5C 78.9348,49.9717 79.9348,47.305 80.5,44.5 Z"/></g>
<g><path style="opacity:1" fill="#b2834e" d="M 415.5,45.5 C 415.5,47.8333 415.5,50.1667 415.5,52.5C 414.5,52.5 413.5,52.5 412.5,52.5C 413.895,50.3074 414.895,47.9741 415.5,45.5 Z"/></g>
<g><path style="opacity:1" fill="#ab7b52" d="M 430.5,44.5 C 431.468,46.6074 431.802,48.9407 431.5,51.5C 433.415,51.2155 435.081,51.5489 436.5,52.5C 434.5,52.5 432.5,52.5 430.5,52.5C 430.5,49.8333 430.5,47.1667 430.5,44.5 Z"/></g>
<g><path style="opacity:1" fill="#b0814f" d="M 95.5,45.5 C 96.4614,47.2646 96.7947,49.2646 96.5,51.5C 98.4147,51.2155 100.081,51.5489 101.5,52.5C 99.5,52.5 97.5,52.5 95.5,52.5C 95.5,50.1667 95.5,47.8333 95.5,45.5 Z"/></g>
<g><path style="opacity:0.983" fill="#5f266d" d="M 253.5,75.5 C 297.159,77.2275 326.326,98.5609 341,139.5C 350.907,182.154 338.073,215.987 302.5,241C 290.484,248.283 277.484,252.45 263.5,253.5C 263.5,271.167 263.5,288.833 263.5,306.5C 273.002,305.61 281.669,302.444 289.5,297C 298.667,289.167 307.167,280.667 315,271.5C 314.523,235.981 331.689,214.814 366.5,208C 374.786,206.546 383.119,206.213 391.5,207C 393.286,207.785 394.786,208.951 396,210.5C 399.374,230.63 395.707,249.297 385,266.5C 369.444,282.515 350.611,288.181 328.5,283.5C 320.041,291.458 311.708,299.625 303.5,308C 291.841,317.388 278.508,322.555 263.5,323.5C 263.333,334.505 263.5,345.505 264,356.5C 272.754,360.641 281.421,364.975 290,369.5C 341.8,340.683 393.966,312.516 446.5,285C 467.298,280.504 482.464,287.671 492,306.5C 497.478,323.754 493.645,338.587 480.5,351C 429.2,397.298 378.2,443.965 327.5,491C 309.239,504.372 289.239,507.705 267.5,501C 226.678,486.06 186.011,470.726 145.5,455C 127.765,448.875 110.098,449.041 92.5,455.5C 92.2316,463.09 89.8982,469.923 85.5,476C 83.3295,477.586 80.9962,478.92 78.5,480C 62.1667,480.667 45.8333,480.667 29.5,480C 23.3593,477.859 19.1926,473.693 17,467.5C 16.3333,413.167 16.3333,358.833 17,304.5C 19.1667,298.333 23.3333,294.167 29.5,292C 45.8333,291.333 62.1667,291.333 78.5,292C 88.5814,297.32 93.0814,305.82 92,317.5C 125.949,308.307 159.449,309.807 192.5,322C 210.743,330.705 228.91,339.539 247,348.5C 247.5,340.173 247.666,331.84 247.5,323.5C 232.492,322.555 219.159,317.388 207.5,308C 199.292,299.625 190.959,291.458 182.5,283.5C 137.613,288.452 114.613,268.285 113.5,223C 113.813,218.811 114.313,214.644 115,210.5C 116.214,208.951 117.714,207.785 119.5,207C 144.803,203.988 166.303,211.488 184,229.5C 192.53,242.118 196.53,256.118 196,271.5C 203.833,280.667 212.333,289.167 221.5,297C 229.331,302.444 237.998,305.61 247.5,306.5C 247.5,288.833 247.5,271.167 247.5,253.5C 204.686,247.519 178.186,223.519 168,181.5C 162.285,135.087 180.452,101.92 222.5,82C 232.697,78.462 243.03,76.2953 253.5,75.5 Z"/></g>
<g><path style="opacity:1" fill="#f7d136" d="M 268.5,93.5 C 302.443,115.442 315.276,146.442 307,186.5C 300.294,208.021 287.46,224.688 268.5,236.5C 260.112,237.699 251.779,237.699 243.5,236.5C 208.231,214.229 195.065,182.563 204,141.5C 210.826,120.183 223.993,104.183 243.5,93.5C 251.779,92.3013 260.112,92.3013 268.5,93.5 Z"/></g>
<g><path style="opacity:1" fill="#efc006" d="M 268.5,93.5 C 295.142,99.6482 313.642,115.315 324,140.5C 333.875,176.547 323.709,205.38 293.5,227C 285.638,231.453 277.304,234.62 268.5,236.5C 287.46,224.688 300.294,208.021 307,186.5C 315.276,146.442 302.443,115.442 268.5,93.5 Z"/></g>
<g><path style="opacity:1" fill="#f7df7c" d="M 243.5,93.5 C 223.993,104.183 210.826,120.183 204,141.5C 195.065,182.563 208.231,214.229 243.5,236.5C 210.906,229.74 191.073,210.073 184,177.5C 180.131,139.745 195.297,112.912 229.5,97C 234.023,95.2025 238.69,94.0359 243.5,93.5 Z"/></g>
<g><path style="opacity:1" fill="#60276c" d="M 252.5,113.5 C 261.799,114.155 265.466,119.155 263.5,128.5C 278.226,127.398 285.392,134.065 285,148.5C 281.774,153.511 277.608,154.511 272.5,151.5C 270.673,149.513 269.673,147.179 269.5,144.5C 261.16,144.334 252.827,144.5 244.5,145C 240.346,149.399 240.679,153.399 245.5,157C 254.575,157.085 263.575,157.752 272.5,159C 285.763,166.794 288.929,177.628 282,191.5C 277.345,197.66 271.179,200.993 263.5,201.5C 263.922,205.712 263.256,209.712 261.5,213.5C 257.423,217.393 253.423,217.393 249.5,213.5C 247.744,209.712 247.078,205.712 247.5,201.5C 237.321,202.828 230.154,198.828 226,189.5C 224.266,178.723 228.433,175.056 238.5,178.5C 240.854,180.246 241.854,182.579 241.5,185.5C 249.507,185.666 257.507,185.5 265.5,185C 270.818,181.049 270.818,177.049 265.5,173C 257.167,172.667 248.833,172.333 240.5,172C 226.003,164.504 222.17,153.337 229,138.5C 233.56,132.137 239.727,128.804 247.5,128.5C 246.248,122.334 247.915,117.334 252.5,113.5 Z"/></g>
<g><path style="opacity:1" fill="#b08250" d="M 73.5,116.5 C 75.8333,116.5 78.1667,116.5 80.5,116.5C 80.5,118.833 80.5,121.167 80.5,123.5C 79.5386,121.735 79.2053,119.735 79.5,117.5C 77.2646,117.795 75.2646,117.461 73.5,116.5 Z"/></g>
<g><path style="opacity:1" fill="#b8894c" d="M 409.5,116.5 C 411.5,116.5 413.5,116.5 415.5,116.5C 415.5,118.833 415.5,121.167 415.5,123.5C 414.539,121.735 414.205,119.735 414.5,117.5C 412.585,117.784 410.919,117.451 409.5,116.5 Z"/></g>
<g><path style="opacity:1" fill="#44c4b5" d="M 130.5,223.5 C 149.833,222.913 164.666,230.58 175,246.5C 177.975,253.191 179.142,260.191 178.5,267.5C 145.843,271.153 129.843,256.486 130.5,223.5 Z"/></g>
<g><path style="opacity:1" fill="#44c4b4" d="M 369.5,223.5 C 373.167,223.5 376.833,223.5 380.5,223.5C 381.065,256.212 365.065,271.212 332.5,268.5C 331.412,248.501 340.079,234.667 358.5,227C 362.333,225.966 365.999,224.8 369.5,223.5 Z"/></g>
<g><path style="opacity:1" fill="#fdb997" d="M 91.5,334.5 C 91.5,345.833 91.5,357.167 91.5,368.5C 101.14,367.441 110.806,367.275 120.5,368C 133.325,369.798 145.992,372.298 158.5,375.5C 156.919,379.094 157.586,382.261 160.5,385C 201.842,405.839 243.509,425.839 285.5,445C 313.956,445.877 327.789,432.044 327,403.5C 324.38,392.91 318.38,384.91 309,379.5C 308.312,378.668 308.479,378.002 309.5,377.5C 356.5,352 403.5,326.5 450.5,301C 462.518,298.594 471.352,302.761 477,313.5C 478.548,321.082 477.215,328.082 473,334.5C 419.766,384.404 365.932,433.571 311.5,482C 300.745,487.231 289.412,488.898 277.5,487C 232.566,470.133 187.566,453.467 142.5,437C 125.316,433.197 108.316,433.697 91.5,438.5C 90.1698,403.669 90.1698,369.002 91.5,334.5 Z"/></g>
<g><path style="opacity:1" fill="#3caf9f" d="M 73.5,308.5 C 66.8333,308.5 60.1667,308.5 53.5,308.5C 53.5,360.167 53.5,411.833 53.5,463.5C 60.1667,463.5 66.8333,463.5 73.5,463.5C 60.0979,464.83 46.5979,464.83 33,463.5C 32.3333,411.833 32.3333,360.167 33,308.5C 46.5979,307.17 60.0979,307.17 73.5,308.5 Z"/></g>
<g><path style="opacity:1" fill="#4adac2" d="M 73.5,308.5 C 74.8333,360.167 74.8333,411.833 73.5,463.5C 66.8333,463.5 60.1667,463.5 53.5,463.5C 53.5,411.833 53.5,360.167 53.5,308.5C 60.1667,308.5 66.8333,308.5 73.5,308.5 Z"/></g>
<g><path style="opacity:1" fill="#61286d" d="M 453.5,311.5 C 463.033,311.241 466.199,315.574 463,324.5C 450.167,334 437.333,343.5 424.5,353C 414,355.833 410.167,352 413,341.5C 426.657,331.601 440.157,321.601 453.5,311.5 Z"/></g>
<g><path style="opacity:1" fill="#fdc8a5" d="M 158.5,375.5 C 145.992,372.298 133.325,369.798 120.5,368C 110.806,367.275 101.14,367.441 91.5,368.5C 91.5,357.167 91.5,345.833 91.5,334.5C 126.622,323.617 160.956,325.784 194.5,341C 230.5,358.667 266.5,376.333 302.5,394C 314.123,404.285 314.456,414.952 303.5,426C 298.518,428.913 293.185,429.913 287.5,429C 247.711,409.939 208.044,390.605 168.5,371C 163.81,369.53 160.477,371.03 158.5,375.5 Z"/></g>
<g><path style="opacity:1" fill="#632a6e" d="M 391.5,356.5 C 397.888,355.55 401.888,358.217 403.5,364.5C 402.85,367.655 401.183,370.155 398.5,372C 395.681,374.491 392.514,376.324 389,377.5C 381.647,375.791 379.314,371.458 382,364.5C 385.358,361.969 388.524,359.302 391.5,356.5 Z"/></g>
</svg>
