<svg width="30" height="30" viewBox="0 0 30 30" fill="none" xmlns="http://www.w3.org/2000/svg">
<rect width="30" height="30" rx="15" fill="#1BB8CD"/>
<g clip-path="url(#clip0_37_1375)">
<g clip-path="url(#clip1_37_1375)">
<path d="M14.1217 0H15.8793C16.3811 0.0628416 16.8857 0.107991 17.3845 0.196362C21.1556 0.814889 24.5498 2.84584 26.8775 5.8766C29.2052 8.90736 30.2918 12.7106 29.9165 16.5136C29.6457 19.6332 28.3591 22.5779 26.254 24.8961C24.9304 26.4317 23.303 27.6767 21.4746 28.5526C19.6461 29.4284 17.6561 29.9162 15.6299 29.9853C12.7234 30.1491 9.83625 29.4196 7.35638 27.8948C5.48623 26.8031 3.87882 25.3137 2.64783 23.5321C1.41684 21.7506 0.592371 19.7203 0.232722 17.5849C0.127659 17.0222 0.0756117 16.4498 -0.000976562 15.8822V14.1207C0.022589 13.9096 0.0471346 13.6995 0.0707002 13.4884C0.409564 10.238 1.79751 7.18629 4.02467 4.79473C6.25183 2.40318 9.19708 0.80181 12.4151 0.23271C12.9807 0.133538 13.5532 0.0795339 14.1217 0ZM12.6685 17.471C12.6056 17.4169 12.5536 17.3728 12.5035 17.3305C11.7618 16.6517 11.0202 15.9726 10.2785 15.2931C9.68939 14.7609 9.12972 14.2022 8.51112 13.7093C8.30899 13.5493 8.06756 13.4467 7.81213 13.412C7.55669 13.3774 7.29664 13.4121 7.05922 13.5125C6.8218 13.6129 6.61576 13.7753 6.46264 13.9826C6.30953 14.19 6.21497 14.4347 6.18891 14.6912C6.15899 14.9542 6.19646 15.2206 6.2978 15.4652C6.39914 15.7098 6.56103 15.9246 6.76823 16.0894C8.37985 17.5531 9.98985 19.0187 11.5982 20.4864C11.7424 20.6549 11.9222 20.7895 12.1245 20.8804C12.3268 20.9714 12.5467 21.0165 12.7685 21.0126C12.9903 21.0087 13.2085 20.9557 13.4075 20.8576C13.6064 20.7595 13.7813 20.6187 13.9194 20.4451C17.0248 17.3639 20.1293 14.2824 23.2327 11.2005C23.3162 11.118 23.3977 11.0336 23.4723 10.9443C23.6142 10.7757 23.7171 10.5779 23.7737 10.365C23.8303 10.1521 23.8393 9.92929 23.8 9.71251C23.7608 9.49573 23.6742 9.29026 23.5464 9.11077C23.4187 8.93129 23.2529 8.78219 23.0609 8.67409C22.7493 8.4935 22.3835 8.42969 22.0291 8.49409C21.6747 8.5585 21.3548 8.74691 21.1266 9.02561C18.3845 11.7658 15.6433 14.5066 12.9032 17.248C12.8315 17.3187 12.7539 17.3895 12.6685 17.471Z" fill="#1BB8CD"/>
<path d="M12.6685 17.4711C12.7539 17.3896 12.8325 17.3188 12.9061 17.2442C15.6476 14.5034 18.3887 11.7626 21.1295 9.02179C21.3577 8.74309 21.6777 8.55467 22.0321 8.49027C22.3865 8.42586 22.7522 8.48968 23.0639 8.67027C23.2559 8.77837 23.4216 8.92747 23.5494 9.10695C23.6771 9.28644 23.7638 9.4919 23.803 9.70868C23.8423 9.92546 23.8333 10.1482 23.7767 10.3611C23.72 10.574 23.6171 10.7718 23.4753 10.9404C23.4007 11.0308 23.3182 11.1142 23.2357 11.1967C20.1316 14.2786 17.0272 17.3601 13.9224 20.4413C13.7842 20.6148 13.6094 20.7557 13.4104 20.8538C13.2115 20.9519 12.9933 21.0048 12.7715 21.0088C12.5497 21.0127 12.3298 20.9676 12.1275 20.8766C11.9251 20.7856 11.7454 20.6511 11.6012 20.4825C9.99217 19.0162 8.3822 17.5502 6.77123 16.0846C6.56403 15.9198 6.40215 15.705 6.30081 15.4604C6.19946 15.2158 6.16196 14.9494 6.19188 14.6864C6.21794 14.4299 6.3125 14.1852 6.46561 13.9778C6.61873 13.7705 6.82477 13.6081 7.06219 13.5077C7.29961 13.4073 7.55966 13.3726 7.8151 13.4072C8.07053 13.4419 8.31196 13.5445 8.5141 13.7045C9.13073 14.1954 9.69236 14.7561 10.2815 15.2883C11.0245 15.9658 11.7661 16.6449 12.5065 17.3257C12.5526 17.3758 12.6057 17.418 12.6685 17.4711Z" fill="white"/>
</g>
</g>
<defs>
<clipPath id="clip0_37_1375">
<rect width="30" height="30" fill="white"/>
</clipPath>
<clipPath id="clip1_37_1375">
<rect width="29.9902" height="30" fill="white"/>
</clipPath>
</defs>
</svg>
